<?xml version="1.0" encoding="utf-8" standalone="no"?>
<!DOCTYPE svg PUBLIC "-//W3C//DTD SVG 1.1//EN"
  "http://www.w3.org/Graphics/SVG/1.1/DTD/svg11.dtd">
<!-- Created with matplotlib (https://matplotlib.org/) -->
<svg height="360pt" version="1.1" viewBox="0 0 1080 360" width="1080pt" xmlns="http://www.w3.org/2000/svg" xmlns:xlink="http://www.w3.org/1999/xlink">
 <defs>
  <style type="text/css">
*{stroke-linecap:butt;stroke-linejoin:round;}
  </style>
 </defs>
 <g id="figure_1">
  <g id="patch_1">
   <path d="M 0 360 
L 1080 360 
L 1080 0 
L 0 0 
z
" style="fill:#ffffff;"/>
  </g>
  <g id="axes_1">
   <g id="patch_2">
    <path d="M 135 166.745455 
L 279.310345 166.745455 
L 279.310345 43.2 
L 135 43.2 
z
" style="fill:#ffffff;"/>
   </g>
   <g id="patch_3">
    <path clip-path="url(#pb81633fe51)" d="M 204.010981 127.501604 
L 187.88692 139.613904 
" style="stroke:#000000;stroke-linejoin:miter;stroke-width:0.5;"/>
   </g>
   <g id="patch_4">
    <path clip-path="url(#pb81633fe51)" d="M 204.010981 127.501604 
L 187.88692 115.389305 
" style="stroke:#000000;stroke-linejoin:miter;stroke-width:0.5;"/>
   </g>
   <g id="patch_5">
    <path clip-path="url(#pb81633fe51)" d="M 220.135041 115.389305 
L 204.010981 127.501604 
" style="stroke:#000000;stroke-linejoin:miter;stroke-width:0.5;"/>
   </g>
   <g id="patch_6">
    <path clip-path="url(#pb81633fe51)" d="M 220.135041 115.389305 
L 204.010981 103.277005 
" style="stroke:#000000;stroke-linejoin:miter;stroke-width:0.5;"/>
   </g>
   <g id="patch_7">
    <path clip-path="url(#pb81633fe51)" d="M 236.259102 115.389305 
L 220.135041 115.389305 
" style="stroke:#000000;stroke-linejoin:miter;stroke-width:0.5;"/>
   </g>
   <g id="patch_8">
    <path clip-path="url(#pb81633fe51)" d="M 252.383163 115.389305 
L 236.259102 115.389305 
" style="stroke:#000000;stroke-linejoin:miter;stroke-width:0.5;"/>
   </g>
   <g id="4a04790f55dc478b92c5b2e97d82e1e2-1-node">
    <path clip-path="url(#pb81633fe51)" d="M 255.124254 111.271123 
L 255.124254 119.507487 
L 249.642073 119.507487 
L 249.642073 111.271123 
L 255.124254 111.271123 
z
" style="fill:#0000ff;stroke:#ffffff;stroke-linejoin:miter;stroke-width:0.5;"/>
   </g>
   <g id="4a04790f55dc478b92c5b2e97d82e1e2-3-node">
    <path clip-path="url(#pb81633fe51)" d="M 239.000193 111.271123 
L 239.000193 119.507487 
L 233.518012 119.507487 
L 233.518012 111.271123 
L 239.000193 111.271123 
z
" style="fill:#0000ff;stroke:#ffffff;stroke-linejoin:miter;stroke-width:0.5;"/>
   </g>
   <g id="4a04790f55dc478b92c5b2e97d82e1e2-5-node">
    <path clip-path="url(#pb81633fe51)" d="M 220.135041 119.507487 
C 220.861987 119.507487 221.559257 119.073569 222.073285 118.301299 
C 222.587313 117.529029 222.876132 116.481459 222.876132 115.389305 
C 222.876132 114.29715 222.587313 113.24958 222.073285 112.477311 
C 221.559257 111.705041 220.861987 111.271123 220.135041 111.271123 
C 219.408096 111.271123 218.710826 111.705041 218.196798 112.477311 
C 217.68277 113.24958 217.393951 114.29715 217.393951 115.389305 
C 217.393951 116.481459 217.68277 117.529029 218.196798 118.301299 
C 218.710826 119.073569 219.408096 119.507487 220.135041 119.507487 
z
" style="fill:#00c832;stroke:#ffffff;stroke-linejoin:miter;stroke-width:0.5;"/>
   </g>
   <g id="4a04790f55dc478b92c5b2e97d82e1e2-7-node">
    <path clip-path="url(#pb81633fe51)" d="M 204.010981 131.619786 
C 204.737926 131.619786 205.435196 131.185868 205.949224 130.413599 
C 206.463252 129.641329 206.752071 128.593759 206.752071 127.501604 
C 206.752071 126.40945 206.463252 125.36188 205.949224 124.58961 
C 205.435196 123.81734 204.737926 123.383422 204.010981 123.383422 
C 203.284035 123.383422 202.586765 123.81734 202.072737 124.58961 
C 201.558709 125.36188 201.26989 126.40945 201.26989 127.501604 
C 201.26989 128.593759 201.558709 129.641329 202.072737 130.413599 
C 202.586765 131.185868 203.284035 131.619786 204.010981 131.619786 
z
" style="fill:#00c832;stroke:#ffffff;stroke-linejoin:miter;stroke-width:0.5;"/>
   </g>
   <g id="4a04790f55dc478b92c5b2e97d82e1e2-10-node">
    <path clip-path="url(#pb81633fe51)" d="M 190.62801 135.495722 
L 190.62801 143.732086 
L 185.145829 143.732086 
L 185.145829 135.495722 
L 190.62801 135.495722 
z
" style="fill:#0000ff;stroke:#ffffff;stroke-linejoin:miter;stroke-width:0.5;"/>
   </g>
   <g id="4a04790f55dc478b92c5b2e97d82e1e2-8-node">
    <path clip-path="url(#pb81633fe51)" d="M 190.62801 111.271123 
L 190.62801 119.507487 
L 185.145829 119.507487 
L 185.145829 111.271123 
L 190.62801 111.271123 
z
" style="fill:#0000ff;stroke:#ffffff;stroke-linejoin:miter;stroke-width:0.5;"/>
   </g>
   <g id="4a04790f55dc478b92c5b2e97d82e1e2-6-node">
    <path clip-path="url(#pb81633fe51)" d="M 204.010981 107.395187 
C 204.737926 107.395187 205.435196 106.96127 205.949224 106.189 
C 206.463252 105.41673 206.752071 104.36916 206.752071 103.277005 
C 206.752071 102.184851 206.463252 101.137281 205.949224 100.365011 
C 205.435196 99.592741 204.737926 99.158824 204.010981 99.158824 
C 203.284035 99.158824 202.586765 99.592741 202.072737 100.365011 
C 201.558709 101.137281 201.26989 102.184851 201.26989 103.277005 
C 201.26989 104.36916 201.558709 105.41673 202.072737 106.189 
C 202.586765 106.96127 203.284035 107.395187 204.010981 107.395187 
z
" style="fill:#00c832;stroke:#ffffff;stroke-linejoin:miter;stroke-width:0.5;"/>
   </g>
   <g id="patch_9">
    <path d="M 135 166.745455 
L 135 43.2 
" style="fill:none;stroke:#ffffff;stroke-linecap:square;stroke-linejoin:miter;stroke-width:1.25;"/>
   </g>
   <g id="patch_10">
    <path d="M 279.310345 166.745455 
L 279.310345 43.2 
" style="fill:none;stroke:#ffffff;stroke-linecap:square;stroke-linejoin:miter;stroke-width:1.25;"/>
   </g>
   <g id="patch_11">
    <path d="M 135 166.745455 
L 279.310345 166.745455 
" style="fill:none;stroke:#ffffff;stroke-linecap:square;stroke-linejoin:miter;stroke-width:1.25;"/>
   </g>
   <g id="patch_12">
    <path d="M 135 43.2 
L 279.310345 43.2 
" style="fill:none;stroke:#ffffff;stroke-linecap:square;stroke-linejoin:miter;stroke-width:1.25;"/>
   </g>
   <g id="text_1">
    <!-- 4:1 -->
    <defs>
     <path d="M 32.328125 0 
L 32.328125 17.140625 
L 1.265625 17.140625 
L 1.265625 25.203125 
L 33.9375 71.578125 
L 41.109375 71.578125 
L 41.109375 25.203125 
L 50.78125 25.203125 
L 50.78125 17.140625 
L 41.109375 17.140625 
L 41.109375 0 
z
M 32.328125 25.203125 
L 32.328125 57.46875 
L 9.90625 25.203125 
z
" id="ArialMT-52"/>
     <path d="M 9.03125 41.84375 
L 9.03125 51.859375 
L 19.046875 51.859375 
L 19.046875 41.84375 
z
M 9.03125 0 
L 9.03125 10.015625 
L 19.046875 10.015625 
L 19.046875 0 
z
" id="ArialMT-58"/>
     <path d="M 37.25 0 
L 28.46875 0 
L 28.46875 56 
Q 25.296875 52.984375 20.140625 49.953125 
Q 14.984375 46.921875 10.890625 45.40625 
L 10.890625 53.90625 
Q 18.265625 57.375 23.78125 62.296875 
Q 29.296875 67.234375 31.59375 71.875 
L 37.25 71.875 
z
" id="ArialMT-49"/>
    </defs>
    <g style="fill:#262626;" transform="translate(198.815172 37.2)scale(0.12 -0.12)">
     <use xlink:href="#ArialMT-52"/>
     <use x="55.615234" xlink:href="#ArialMT-58"/>
     <use x="83.398438" xlink:href="#ArialMT-49"/>
    </g>
   </g>
  </g>
  <g id="axes_2">
   <g id="patch_13">
    <path d="M 308.172414 166.745455 
L 452.482759 166.745455 
L 452.482759 43.2 
L 308.172414 43.2 
z
" style="fill:#ffffff;"/>
   </g>
   <g id="patch_14">
    <path clip-path="url(#p54b2ae5c49)" d="M 372.809959 143.960432 
L 358.758319 143.960432 
" style="stroke:#000000;stroke-linejoin:miter;stroke-width:0.5;"/>
   </g>
   <g id="patch_15">
    <path clip-path="url(#p54b2ae5c49)" d="M 386.861599 131.302086 
L 372.809959 143.960432 
" style="stroke:#000000;stroke-linejoin:miter;stroke-width:0.5;"/>
   </g>
   <g id="patch_16">
    <path clip-path="url(#p54b2ae5c49)" d="M 386.861599 131.302086 
L 372.809959 118.643741 
" style="stroke:#000000;stroke-linejoin:miter;stroke-width:0.5;"/>
   </g>
   <g id="patch_17">
    <path clip-path="url(#p54b2ae5c49)" d="M 400.913239 118.643741 
L 386.861599 131.302086 
" style="stroke:#000000;stroke-linejoin:miter;stroke-width:0.5;"/>
   </g>
   <g id="patch_18">
    <path clip-path="url(#p54b2ae5c49)" d="M 400.913239 118.643741 
L 386.861599 105.985395 
" style="stroke:#000000;stroke-linejoin:miter;stroke-width:0.5;"/>
   </g>
   <g id="patch_19">
    <path clip-path="url(#p54b2ae5c49)" d="M 414.964879 118.643741 
L 400.913239 118.643741 
" style="stroke:#000000;stroke-linejoin:miter;stroke-width:0.5;"/>
   </g>
   <g id="patch_20">
    <path clip-path="url(#p54b2ae5c49)" d="M 429.016519 118.643741 
L 414.964879 118.643741 
" style="stroke:#000000;stroke-linejoin:miter;stroke-width:0.5;"/>
   </g>
   <g id="d77690478a4d4ba4a3014294cae2f482-1-node">
    <path clip-path="url(#p54b2ae5c49)" d="M 431.405298 114.339903 
L 431.405298 122.947578 
L 426.627741 122.947578 
L 426.627741 114.339903 
L 431.405298 114.339903 
z
" style="fill:#0000ff;stroke:#ffffff;stroke-linejoin:miter;stroke-width:0.5;"/>
   </g>
   <g id="d77690478a4d4ba4a3014294cae2f482-3-node">
    <path clip-path="url(#p54b2ae5c49)" d="M 417.353658 114.339903 
L 417.353658 122.947578 
L 412.5761 122.947578 
L 412.5761 114.339903 
L 417.353658 114.339903 
z
" style="fill:#0000ff;stroke:#ffffff;stroke-linejoin:miter;stroke-width:0.5;"/>
   </g>
   <g id="d77690478a4d4ba4a3014294cae2f482-5-node">
    <path clip-path="url(#p54b2ae5c49)" d="M 400.913239 122.947578 
C 401.546751 122.947578 402.1544 122.494099 402.602361 121.687013 
C 403.050321 120.879928 403.302018 119.785132 403.302018 118.643741 
C 403.302018 117.50235 403.050321 116.407553 402.602361 115.600468 
C 402.1544 114.793383 401.546751 114.339903 400.913239 114.339903 
C 400.279728 114.339903 399.672078 114.793383 399.224117 115.600468 
C 398.776157 116.407553 398.52446 117.50235 398.52446 118.643741 
C 398.52446 119.785132 398.776157 120.879928 399.224117 121.687013 
C 399.672078 122.494099 400.279728 122.947578 400.913239 122.947578 
z
" style="fill:#00c832;stroke:#ffffff;stroke-linejoin:miter;stroke-width:0.5;"/>
   </g>
   <g id="d77690478a4d4ba4a3014294cae2f482-7-node">
    <path clip-path="url(#p54b2ae5c49)" d="M 386.861599 135.605924 
C 387.49511 135.605924 388.10276 135.152445 388.550721 134.345359 
C 388.998681 133.538274 389.250378 132.443477 389.250378 131.302086 
C 389.250378 130.160695 388.998681 129.065899 388.550721 128.258814 
C 388.10276 127.451728 387.49511 126.998249 386.861599 126.998249 
C 386.228087 126.998249 385.620438 127.451728 385.172477 128.258814 
C 384.724517 129.065899 384.47282 130.160695 384.47282 131.302086 
C 384.47282 132.443477 384.724517 133.538274 385.172477 134.345359 
C 385.620438 135.152445 386.228087 135.605924 386.861599 135.605924 
z
" style="fill:#00c832;stroke:#ffffff;stroke-linejoin:miter;stroke-width:0.5;"/>
   </g>
   <g id="d77690478a4d4ba4a3014294cae2f482-10-node">
    <path clip-path="url(#p54b2ae5c49)" d="M 375.198738 139.656595 
L 375.198738 148.26427 
L 370.42118 148.26427 
L 370.42118 139.656595 
L 375.198738 139.656595 
z
" style="fill:#0000ff;stroke:#ffffff;stroke-linejoin:miter;stroke-width:0.5;"/>
   </g>
   <g id="d77690478a4d4ba4a3014294cae2f482-12-node">
    <path clip-path="url(#p54b2ae5c49)" d="M 358.758319 148.26427 
C 359.39183 148.26427 359.99948 147.81079 360.44744 147.003705 
C 360.895401 146.19662 361.147097 145.101823 361.147097 143.960432 
C 361.147097 142.819041 360.895401 141.724245 360.44744 140.917159 
C 359.99948 140.110074 359.39183 139.656595 358.758319 139.656595 
C 358.124807 139.656595 357.517157 140.110074 357.069197 140.917159 
C 356.621236 141.724245 356.36954 142.819041 356.36954 143.960432 
C 356.36954 145.101823 356.621236 146.19662 357.069197 147.003705 
C 357.517157 147.81079 358.124807 148.26427 358.758319 148.26427 
z
" style="fill:#ffff00;stroke:#ffffff;stroke-linejoin:miter;stroke-width:0.5;"/>
   </g>
   <g id="d77690478a4d4ba4a3014294cae2f482-8-node">
    <path clip-path="url(#p54b2ae5c49)" d="M 375.198738 114.339903 
L 375.198738 122.947578 
L 370.42118 122.947578 
L 370.42118 114.339903 
L 375.198738 114.339903 
z
" style="fill:#0000ff;stroke:#ffffff;stroke-linejoin:miter;stroke-width:0.5;"/>
   </g>
   <g id="d77690478a4d4ba4a3014294cae2f482-6-node">
    <path clip-path="url(#p54b2ae5c49)" d="M 386.861599 110.289232 
C 387.49511 110.289232 388.10276 109.835753 388.550721 109.028668 
C 388.998681 108.221582 389.250378 107.126786 389.250378 105.985395 
C 389.250378 104.844004 388.998681 103.749208 388.550721 102.942122 
C 388.10276 102.135037 387.49511 101.681557 386.861599 101.681557 
C 386.228087 101.681557 385.620438 102.135037 385.172477 102.942122 
C 384.724517 103.749208 384.47282 104.844004 384.47282 105.985395 
C 384.47282 107.126786 384.724517 108.221582 385.172477 109.028668 
C 385.620438 109.835753 386.228087 110.289232 386.861599 110.289232 
z
" style="fill:#00c832;stroke:#ffffff;stroke-linejoin:miter;stroke-width:0.5;"/>
   </g>
   <g id="patch_21">
    <path d="M 308.172414 166.745455 
L 308.172414 43.2 
" style="fill:none;stroke:#ffffff;stroke-linecap:square;stroke-linejoin:miter;stroke-width:1.25;"/>
   </g>
   <g id="patch_22">
    <path d="M 452.482759 166.745455 
L 452.482759 43.2 
" style="fill:none;stroke:#ffffff;stroke-linecap:square;stroke-linejoin:miter;stroke-width:1.25;"/>
   </g>
   <g id="patch_23">
    <path d="M 308.172414 166.745455 
L 452.482759 166.745455 
" style="fill:none;stroke:#ffffff;stroke-linecap:square;stroke-linejoin:miter;stroke-width:1.25;"/>
   </g>
   <g id="patch_24">
    <path d="M 308.172414 43.2 
L 452.482759 43.2 
" style="fill:none;stroke:#ffffff;stroke-linecap:square;stroke-linejoin:miter;stroke-width:1.25;"/>
   </g>
   <g id="text_2">
    <!-- 11:1 -->
    <g style="fill:#262626;" transform="translate(368.657586 37.2)scale(0.12 -0.12)">
     <use xlink:href="#ArialMT-49"/>
     <use x="55.505859" xlink:href="#ArialMT-49"/>
     <use x="111.121094" xlink:href="#ArialMT-58"/>
     <use x="138.904297" xlink:href="#ArialMT-49"/>
    </g>
   </g>
  </g>
  <g id="axes_3">
   <g id="patch_25">
    <path d="M 481.344828 166.745455 
L 625.655172 166.745455 
L 625.655172 43.2 
L 481.344828 43.2 
z
" style="fill:#ffffff;"/>
   </g>
   <g id="patch_26">
    <path clip-path="url(#p5d2ca58cb4)" d="M 551.214542 131.998295 
L 534.889842 142.722727 
" style="stroke:#000000;stroke-linejoin:miter;stroke-width:0.5;"/>
   </g>
   <g id="patch_27">
    <path clip-path="url(#p5d2ca58cb4)" d="M 551.214542 131.998295 
L 534.889842 121.273864 
" style="stroke:#000000;stroke-linejoin:miter;stroke-width:0.5;"/>
   </g>
   <g id="patch_28">
    <path clip-path="url(#p5d2ca58cb4)" d="M 567.539242 115.911648 
L 551.214542 131.998295 
" style="stroke:#000000;stroke-linejoin:miter;stroke-width:0.5;"/>
   </g>
   <g id="patch_29">
    <path clip-path="url(#p5d2ca58cb4)" d="M 551.214542 99.825 
L 534.889842 99.825 
" style="stroke:#000000;stroke-linejoin:miter;stroke-width:0.5;"/>
   </g>
   <g id="patch_30">
    <path clip-path="url(#p5d2ca58cb4)" d="M 567.539242 115.911648 
L 551.214542 99.825 
" style="stroke:#000000;stroke-linejoin:miter;stroke-width:0.5;"/>
   </g>
   <g id="patch_31">
    <path clip-path="url(#p5d2ca58cb4)" d="M 583.863941 115.911648 
L 567.539242 115.911648 
" style="stroke:#000000;stroke-linejoin:miter;stroke-width:0.5;"/>
   </g>
   <g id="patch_32">
    <path clip-path="url(#p5d2ca58cb4)" d="M 600.188641 115.911648 
L 583.863941 115.911648 
" style="stroke:#000000;stroke-linejoin:miter;stroke-width:0.5;"/>
   </g>
   <g id="9b0e94a1cb534c57a748b517aacf2c67-1-node">
    <path clip-path="url(#p5d2ca58cb4)" d="M 602.96384 112.265341 
L 602.96384 119.557955 
L 597.413442 119.557955 
L 597.413442 112.265341 
L 602.96384 112.265341 
z
" style="fill:#0000ff;stroke:#ffffff;stroke-linejoin:miter;stroke-width:0.5;"/>
   </g>
   <g id="9b0e94a1cb534c57a748b517aacf2c67-3-node">
    <path clip-path="url(#p5d2ca58cb4)" d="M 586.63914 112.265341 
L 586.63914 119.557955 
L 581.088742 119.557955 
L 581.088742 112.265341 
L 586.63914 112.265341 
z
" style="fill:#0000ff;stroke:#ffffff;stroke-linejoin:miter;stroke-width:0.5;"/>
   </g>
   <g id="9b0e94a1cb534c57a748b517aacf2c67-5-node">
    <path clip-path="url(#p5d2ca58cb4)" d="M 567.539242 119.557955 
C 568.275233 119.557955 568.981179 119.173757 569.501604 118.489976 
C 570.022028 117.806195 570.314441 116.87866 570.314441 115.911648 
C 570.314441 114.944636 570.022028 114.0171 569.501604 113.333319 
C 568.981179 112.649539 568.275233 112.265341 567.539242 112.265341 
C 566.80325 112.265341 566.097304 112.649539 565.57688 113.333319 
C 565.056455 114.0171 564.764043 114.944636 564.764043 115.911648 
C 564.764043 116.87866 565.056455 117.806195 565.57688 118.489976 
C 566.097304 119.173757 566.80325 119.557955 567.539242 119.557955 
z
" style="fill:#00c832;stroke:#ffffff;stroke-linejoin:miter;stroke-width:0.5;"/>
   </g>
   <g id="9b0e94a1cb534c57a748b517aacf2c67-9-node">
    <path clip-path="url(#p5d2ca58cb4)" d="M 551.214542 135.644602 
C 551.950533 135.644602 552.65648 135.260404 553.176904 134.576624 
C 553.697329 133.892843 553.989741 132.965307 553.989741 131.998295 
C 553.989741 131.031284 553.697329 130.103748 553.176904 129.419967 
C 552.65648 128.736187 551.950533 128.351989 551.214542 128.351989 
C 550.478551 128.351989 549.772605 128.736187 549.25218 129.419967 
C 548.731756 130.103748 548.439343 131.031284 548.439343 131.998295 
C 548.439343 132.965307 548.731756 133.892843 549.25218 134.576624 
C 549.772605 135.260404 550.478551 135.644602 551.214542 135.644602 
z
" style="fill:#00c832;stroke:#ffffff;stroke-linejoin:miter;stroke-width:0.5;"/>
   </g>
   <g id="9b0e94a1cb534c57a748b517aacf2c67-12-node">
    <path clip-path="url(#p5d2ca58cb4)" d="M 537.665041 139.07642 
L 537.665041 146.369034 
L 532.114643 146.369034 
L 532.114643 139.07642 
L 537.665041 139.07642 
z
" style="fill:#0000ff;stroke:#ffffff;stroke-linejoin:miter;stroke-width:0.5;"/>
   </g>
   <g id="9b0e94a1cb534c57a748b517aacf2c67-10-node">
    <path clip-path="url(#p5d2ca58cb4)" d="M 537.665041 117.627557 
L 537.665041 124.92017 
L 532.114643 124.92017 
L 532.114643 117.627557 
L 537.665041 117.627557 
z
" style="fill:#0000ff;stroke:#ffffff;stroke-linejoin:miter;stroke-width:0.5;"/>
   </g>
   <g id="9b0e94a1cb534c57a748b517aacf2c67-6-node">
    <path clip-path="url(#p5d2ca58cb4)" d="M 551.214542 103.471307 
C 551.950533 103.471307 552.65648 103.087109 553.176904 102.403328 
C 553.697329 101.719548 553.989741 100.792012 553.989741 99.825 
C 553.989741 98.857988 553.697329 97.930452 553.176904 97.246672 
C 552.65648 96.562891 551.950533 96.178693 551.214542 96.178693 
C 550.478551 96.178693 549.772605 96.562891 549.25218 97.246672 
C 548.731756 97.930452 548.439343 98.857988 548.439343 99.825 
C 548.439343 100.792012 548.731756 101.719548 549.25218 102.403328 
C 549.772605 103.087109 550.478551 103.471307 551.214542 103.471307 
z
" style="fill:#00c832;stroke:#ffffff;stroke-linejoin:miter;stroke-width:0.5;"/>
   </g>
   <g id="9b0e94a1cb534c57a748b517aacf2c67-7-node">
    <path clip-path="url(#p5d2ca58cb4)" d="M 537.665041 96.178693 
L 537.665041 103.471307 
L 532.114643 103.471307 
L 532.114643 96.178693 
L 537.665041 96.178693 
z
" style="fill:#0000ff;stroke:#ffffff;stroke-linejoin:miter;stroke-width:0.5;"/>
   </g>
   <g id="patch_33">
    <path d="M 481.344828 166.745455 
L 481.344828 43.2 
" style="fill:none;stroke:#ffffff;stroke-linecap:square;stroke-linejoin:miter;stroke-width:1.25;"/>
   </g>
   <g id="patch_34">
    <path d="M 625.655172 166.745455 
L 625.655172 43.2 
" style="fill:none;stroke:#ffffff;stroke-linecap:square;stroke-linejoin:miter;stroke-width:1.25;"/>
   </g>
   <g id="patch_35">
    <path d="M 481.344828 166.745455 
L 625.655172 166.745455 
" style="fill:none;stroke:#ffffff;stroke-linecap:square;stroke-linejoin:miter;stroke-width:1.25;"/>
   </g>
   <g id="patch_36">
    <path d="M 481.344828 43.2 
L 625.655172 43.2 
" style="fill:none;stroke:#ffffff;stroke-linecap:square;stroke-linejoin:miter;stroke-width:1.25;"/>
   </g>
   <g id="text_3">
    <!-- 13:1 -->
    <defs>
     <path d="M 4.203125 18.890625 
L 12.984375 20.0625 
Q 14.5 12.59375 18.140625 9.296875 
Q 21.78125 6 27 6 
Q 33.203125 6 37.46875 10.296875 
Q 41.75 14.59375 41.75 20.953125 
Q 41.75 27 37.796875 30.921875 
Q 33.84375 34.859375 27.734375 34.859375 
Q 25.25 34.859375 21.53125 33.890625 
L 22.515625 41.609375 
Q 23.390625 41.5 23.921875 41.5 
Q 29.546875 41.5 34.03125 44.421875 
Q 38.53125 47.359375 38.53125 53.46875 
Q 38.53125 58.296875 35.25 61.46875 
Q 31.984375 64.65625 26.8125 64.65625 
Q 21.6875 64.65625 18.265625 61.421875 
Q 14.84375 58.203125 13.875 51.765625 
L 5.078125 53.328125 
Q 6.6875 62.15625 12.390625 67.015625 
Q 18.109375 71.875 26.609375 71.875 
Q 32.46875 71.875 37.390625 69.359375 
Q 42.328125 66.84375 44.9375 62.5 
Q 47.5625 58.15625 47.5625 53.265625 
Q 47.5625 48.640625 45.0625 44.828125 
Q 42.578125 41.015625 37.703125 38.765625 
Q 44.046875 37.3125 47.5625 32.6875 
Q 51.078125 28.078125 51.078125 21.140625 
Q 51.078125 11.765625 44.234375 5.25 
Q 37.40625 -1.265625 26.953125 -1.265625 
Q 17.53125 -1.265625 11.296875 4.34375 
Q 5.078125 9.96875 4.203125 18.890625 
z
" id="ArialMT-51"/>
    </defs>
    <g style="fill:#262626;" transform="translate(541.823437 37.2)scale(0.12 -0.12)">
     <use xlink:href="#ArialMT-49"/>
     <use x="55.615234" xlink:href="#ArialMT-51"/>
     <use x="111.230469" xlink:href="#ArialMT-58"/>
     <use x="139.013672" xlink:href="#ArialMT-49"/>
    </g>
   </g>
  </g>
  <g id="axes_4">
   <g id="patch_37">
    <path d="M 654.517241 166.745455 
L 798.827586 166.745455 
L 798.827586 43.2 
L 654.517241 43.2 
z
" style="fill:#ffffff;"/>
   </g>
   <g id="patch_38">
    <path clip-path="url(#p9aa41e721f)" d="M 719.154786 143.960432 
L 705.103146 143.960432 
" style="stroke:#000000;stroke-linejoin:miter;stroke-width:0.5;"/>
   </g>
   <g id="patch_39">
    <path clip-path="url(#p9aa41e721f)" d="M 733.206426 131.302086 
L 719.154786 143.960432 
" style="stroke:#000000;stroke-linejoin:miter;stroke-width:0.5;"/>
   </g>
   <g id="patch_40">
    <path clip-path="url(#p9aa41e721f)" d="M 719.154786 118.643741 
L 705.103146 118.643741 
" style="stroke:#000000;stroke-linejoin:miter;stroke-width:0.5;"/>
   </g>
   <g id="patch_41">
    <path clip-path="url(#p9aa41e721f)" d="M 733.206426 131.302086 
L 719.154786 118.643741 
" style="stroke:#000000;stroke-linejoin:miter;stroke-width:0.5;"/>
   </g>
   <g id="patch_42">
    <path clip-path="url(#p9aa41e721f)" d="M 747.258067 118.643741 
L 733.206426 131.302086 
" style="stroke:#000000;stroke-linejoin:miter;stroke-width:0.5;"/>
   </g>
   <g id="patch_43">
    <path clip-path="url(#p9aa41e721f)" d="M 747.258067 118.643741 
L 733.206426 105.985395 
" style="stroke:#000000;stroke-linejoin:miter;stroke-width:0.5;"/>
   </g>
   <g id="patch_44">
    <path clip-path="url(#p9aa41e721f)" d="M 761.309707 118.643741 
L 747.258067 118.643741 
" style="stroke:#000000;stroke-linejoin:miter;stroke-width:0.5;"/>
   </g>
   <g id="patch_45">
    <path clip-path="url(#p9aa41e721f)" d="M 775.361347 118.643741 
L 761.309707 118.643741 
" style="stroke:#000000;stroke-linejoin:miter;stroke-width:0.5;"/>
   </g>
   <g id="a8711d3c59b742ff8e7f6022b1cb9ab3-1-node">
    <path clip-path="url(#p9aa41e721f)" d="M 777.750126 114.339903 
L 777.750126 122.947578 
L 772.972568 122.947578 
L 772.972568 114.339903 
L 777.750126 114.339903 
z
" style="fill:#0000ff;stroke:#ffffff;stroke-linejoin:miter;stroke-width:0.5;"/>
   </g>
   <g id="a8711d3c59b742ff8e7f6022b1cb9ab3-3-node">
    <path clip-path="url(#p9aa41e721f)" d="M 763.698486 114.339903 
L 763.698486 122.947578 
L 758.920928 122.947578 
L 758.920928 114.339903 
L 763.698486 114.339903 
z
" style="fill:#0000ff;stroke:#ffffff;stroke-linejoin:miter;stroke-width:0.5;"/>
   </g>
   <g id="a8711d3c59b742ff8e7f6022b1cb9ab3-5-node">
    <path clip-path="url(#p9aa41e721f)" d="M 747.258067 122.947578 
C 747.891578 122.947578 748.499228 122.494099 748.947188 121.687013 
C 749.395149 120.879928 749.646846 119.785132 749.646846 118.643741 
C 749.646846 117.50235 749.395149 116.407553 748.947188 115.600468 
C 748.499228 114.793383 747.891578 114.339903 747.258067 114.339903 
C 746.624555 114.339903 746.016905 114.793383 745.568945 115.600468 
C 745.120985 116.407553 744.869288 117.50235 744.869288 118.643741 
C 744.869288 119.785132 745.120985 120.879928 745.568945 121.687013 
C 746.016905 122.494099 746.624555 122.947578 747.258067 122.947578 
z
" style="fill:#00c832;stroke:#ffffff;stroke-linejoin:miter;stroke-width:0.5;"/>
   </g>
   <g id="a8711d3c59b742ff8e7f6022b1cb9ab3-7-node">
    <path clip-path="url(#p9aa41e721f)" d="M 733.206426 135.605924 
C 733.839938 135.605924 734.447588 135.152445 734.895548 134.345359 
C 735.343509 133.538274 735.595205 132.443477 735.595205 131.302086 
C 735.595205 130.160695 735.343509 129.065899 734.895548 128.258814 
C 734.447588 127.451728 733.839938 126.998249 733.206426 126.998249 
C 732.572915 126.998249 731.965265 127.451728 731.517305 128.258814 
C 731.069344 129.065899 730.817648 130.160695 730.817648 131.302086 
C 730.817648 132.443477 731.069344 133.538274 731.517305 134.345359 
C 731.965265 135.152445 732.572915 135.605924 733.206426 135.605924 
z
" style="fill:#00c832;stroke:#ffffff;stroke-linejoin:miter;stroke-width:0.5;"/>
   </g>
   <g id="a8711d3c59b742ff8e7f6022b1cb9ab3-11-node">
    <path clip-path="url(#p9aa41e721f)" d="M 721.543565 139.656595 
L 721.543565 148.26427 
L 716.766007 148.26427 
L 716.766007 139.656595 
L 721.543565 139.656595 
z
" style="fill:#0000ff;stroke:#ffffff;stroke-linejoin:miter;stroke-width:0.5;"/>
   </g>
   <g id="a8711d3c59b742ff8e7f6022b1cb9ab3-13-node">
    <path clip-path="url(#p9aa41e721f)" d="M 705.103146 148.26427 
C 705.736658 148.26427 706.344307 147.81079 706.792268 147.003705 
C 707.240228 146.19662 707.491925 145.101823 707.491925 143.960432 
C 707.491925 142.819041 707.240228 141.724245 706.792268 140.917159 
C 706.344307 140.110074 705.736658 139.656595 705.103146 139.656595 
C 704.469635 139.656595 703.861985 140.110074 703.414024 140.917159 
C 702.966064 141.724245 702.714367 142.819041 702.714367 143.960432 
C 702.714367 145.101823 702.966064 146.19662 703.414024 147.003705 
C 703.861985 147.81079 704.469635 148.26427 705.103146 148.26427 
z
" style="fill:#ffff00;stroke:#ffffff;stroke-linejoin:miter;stroke-width:0.5;"/>
   </g>
   <g id="a8711d3c59b742ff8e7f6022b1cb9ab3-8-node">
    <path clip-path="url(#p9aa41e721f)" d="M 721.543565 114.339903 
L 721.543565 122.947578 
L 716.766007 122.947578 
L 716.766007 114.339903 
L 721.543565 114.339903 
z
" style="fill:#0000ff;stroke:#ffffff;stroke-linejoin:miter;stroke-width:0.5;"/>
   </g>
   <g id="a8711d3c59b742ff8e7f6022b1cb9ab3-10-node">
    <path clip-path="url(#p9aa41e721f)" d="M 705.103146 122.947578 
C 705.736658 122.947578 706.344307 122.494099 706.792268 121.687013 
C 707.240228 120.879928 707.491925 119.785132 707.491925 118.643741 
C 707.491925 117.50235 707.240228 116.407553 706.792268 115.600468 
C 706.344307 114.793383 705.736658 114.339903 705.103146 114.339903 
C 704.469635 114.339903 703.861985 114.793383 703.414024 115.600468 
C 702.966064 116.407553 702.714367 117.50235 702.714367 118.643741 
C 702.714367 119.785132 702.966064 120.879928 703.414024 121.687013 
C 703.861985 122.494099 704.469635 122.947578 705.103146 122.947578 
z
" style="fill:#ffff00;stroke:#ffffff;stroke-linejoin:miter;stroke-width:0.5;"/>
   </g>
   <g id="a8711d3c59b742ff8e7f6022b1cb9ab3-6-node">
    <path clip-path="url(#p9aa41e721f)" d="M 733.206426 110.289232 
C 733.839938 110.289232 734.447588 109.835753 734.895548 109.028668 
C 735.343509 108.221582 735.595205 107.126786 735.595205 105.985395 
C 735.595205 104.844004 735.343509 103.749208 734.895548 102.942122 
C 734.447588 102.135037 733.839938 101.681557 733.206426 101.681557 
C 732.572915 101.681557 731.965265 102.135037 731.517305 102.942122 
C 731.069344 103.749208 730.817648 104.844004 730.817648 105.985395 
C 730.817648 107.126786 731.069344 108.221582 731.517305 109.028668 
C 731.965265 109.835753 732.572915 110.289232 733.206426 110.289232 
z
" style="fill:#00c832;stroke:#ffffff;stroke-linejoin:miter;stroke-width:0.5;"/>
   </g>
   <g id="patch_46">
    <path d="M 654.517241 166.745455 
L 654.517241 43.2 
" style="fill:none;stroke:#ffffff;stroke-linecap:square;stroke-linejoin:miter;stroke-width:1.25;"/>
   </g>
   <g id="patch_47">
    <path d="M 798.827586 166.745455 
L 798.827586 43.2 
" style="fill:none;stroke:#ffffff;stroke-linecap:square;stroke-linejoin:miter;stroke-width:1.25;"/>
   </g>
   <g id="patch_48">
    <path d="M 654.517241 166.745455 
L 798.827586 166.745455 
" style="fill:none;stroke:#ffffff;stroke-linecap:square;stroke-linejoin:miter;stroke-width:1.25;"/>
   </g>
   <g id="patch_49">
    <path d="M 654.517241 43.2 
L 798.827586 43.2 
" style="fill:none;stroke:#ffffff;stroke-linecap:square;stroke-linejoin:miter;stroke-width:1.25;"/>
   </g>
   <g id="text_4">
    <!-- 22:1 -->
    <defs>
     <path d="M 50.34375 8.453125 
L 50.34375 0 
L 3.03125 0 
Q 2.9375 3.171875 4.046875 6.109375 
Q 5.859375 10.9375 9.828125 15.625 
Q 13.8125 20.3125 21.34375 26.46875 
Q 33.015625 36.03125 37.109375 41.625 
Q 41.21875 47.21875 41.21875 52.203125 
Q 41.21875 57.421875 37.46875 61 
Q 33.734375 64.59375 27.734375 64.59375 
Q 21.390625 64.59375 17.578125 60.78125 
Q 13.765625 56.984375 13.71875 50.25 
L 4.6875 51.171875 
Q 5.609375 61.28125 11.65625 66.578125 
Q 17.71875 71.875 27.9375 71.875 
Q 38.234375 71.875 44.234375 66.15625 
Q 50.25 60.453125 50.25 52 
Q 50.25 47.703125 48.484375 43.546875 
Q 46.734375 39.40625 42.65625 34.8125 
Q 38.578125 30.21875 29.109375 22.21875 
Q 21.1875 15.578125 18.9375 13.203125 
Q 16.703125 10.84375 15.234375 8.453125 
z
" id="ArialMT-50"/>
    </defs>
    <g style="fill:#262626;" transform="translate(714.995851 37.2)scale(0.12 -0.12)">
     <use xlink:href="#ArialMT-50"/>
     <use x="55.615234" xlink:href="#ArialMT-50"/>
     <use x="111.230469" xlink:href="#ArialMT-58"/>
     <use x="139.013672" xlink:href="#ArialMT-49"/>
    </g>
   </g>
  </g>
  <g id="axes_5">
   <g id="patch_50">
    <path d="M 827.689655 166.745455 
L 972 166.745455 
L 972 43.2 
L 827.689655 43.2 
z
" style="fill:#ffffff;"/>
   </g>
   <g id="patch_51">
    <path clip-path="url(#pe48d9782d2)" d="M 893.027016 146.674893 
L 878.823242 146.674893 
" style="stroke:#000000;stroke-linejoin:miter;stroke-width:0.5;"/>
   </g>
   <g id="patch_52">
    <path clip-path="url(#pe48d9782d2)" d="M 907.23079 135.524582 
L 893.027016 146.674893 
" style="stroke:#000000;stroke-linejoin:miter;stroke-width:0.5;"/>
   </g>
   <g id="patch_53">
    <path clip-path="url(#pe48d9782d2)" d="M 907.23079 135.524582 
L 893.027016 124.37427 
" style="stroke:#000000;stroke-linejoin:miter;stroke-width:0.5;"/>
   </g>
   <g id="patch_54">
    <path clip-path="url(#pe48d9782d2)" d="M 921.434564 118.799114 
L 907.23079 135.524582 
" style="stroke:#000000;stroke-linejoin:miter;stroke-width:0.5;"/>
   </g>
   <g id="patch_55">
    <path clip-path="url(#pe48d9782d2)" d="M 907.23079 102.073646 
L 893.027016 102.073646 
" style="stroke:#000000;stroke-linejoin:miter;stroke-width:0.5;"/>
   </g>
   <g id="patch_56">
    <path clip-path="url(#pe48d9782d2)" d="M 921.434564 118.799114 
L 907.23079 102.073646 
" style="stroke:#000000;stroke-linejoin:miter;stroke-width:0.5;"/>
   </g>
   <g id="patch_57">
    <path clip-path="url(#pe48d9782d2)" d="M 935.638338 118.799114 
L 921.434564 118.799114 
" style="stroke:#000000;stroke-linejoin:miter;stroke-width:0.5;"/>
   </g>
   <g id="patch_58">
    <path clip-path="url(#pe48d9782d2)" d="M 949.842112 118.799114 
L 935.638338 118.799114 
" style="stroke:#000000;stroke-linejoin:miter;stroke-width:0.5;"/>
   </g>
   <g id="d0b5e751ef1d485fbf6cb53b7a01af13-1-node">
    <path clip-path="url(#pe48d9782d2)" d="M 952.256754 115.008008 
L 952.256754 122.59022 
L 947.427471 122.59022 
L 947.427471 115.008008 
L 952.256754 115.008008 
z
" style="fill:#0000ff;stroke:#ffffff;stroke-linejoin:miter;stroke-width:0.5;"/>
   </g>
   <g id="d0b5e751ef1d485fbf6cb53b7a01af13-3-node">
    <path clip-path="url(#pe48d9782d2)" d="M 938.05298 115.008008 
L 938.05298 122.59022 
L 933.223697 122.59022 
L 933.223697 115.008008 
L 938.05298 115.008008 
z
" style="fill:#0000ff;stroke:#ffffff;stroke-linejoin:miter;stroke-width:0.5;"/>
   </g>
   <g id="d0b5e751ef1d485fbf6cb53b7a01af13-5-node">
    <path clip-path="url(#pe48d9782d2)" d="M 921.434564 122.59022 
C 922.074935 122.59022 922.689163 122.190765 923.141974 121.479831 
C 923.594784 120.768896 923.849206 119.804527 923.849206 118.799114 
C 923.849206 117.793701 923.594784 116.829332 923.141974 116.118397 
C 922.689163 115.407463 922.074935 115.008008 921.434564 115.008008 
C 920.794194 115.008008 920.179965 115.407463 919.727155 116.118397 
C 919.274344 116.829332 919.019923 117.793701 919.019923 118.799114 
C 919.019923 119.804527 919.274344 120.768896 919.727155 121.479831 
C 920.179965 122.190765 920.794194 122.59022 921.434564 122.59022 
z
" style="fill:#00c832;stroke:#ffffff;stroke-linejoin:miter;stroke-width:0.5;"/>
   </g>
   <g id="d0b5e751ef1d485fbf6cb53b7a01af13-9-node">
    <path clip-path="url(#pe48d9782d2)" d="M 907.23079 139.315688 
C 907.871161 139.315688 908.485389 138.916233 908.9382 138.205298 
C 909.39101 137.494364 909.645432 136.529995 909.645432 135.524582 
C 909.645432 134.519168 909.39101 133.554799 908.9382 132.843865 
C 908.485389 132.13293 907.871161 131.733476 907.23079 131.733476 
C 906.59042 131.733476 905.976191 132.13293 905.523381 132.843865 
C 905.07057 133.554799 904.816149 134.519168 904.816149 135.524582 
C 904.816149 136.529995 905.07057 137.494364 905.523381 138.205298 
C 905.976191 138.916233 906.59042 139.315688 907.23079 139.315688 
z
" style="fill:#00c832;stroke:#ffffff;stroke-linejoin:miter;stroke-width:0.5;"/>
   </g>
   <g id="d0b5e751ef1d485fbf6cb53b7a01af13-12-node">
    <path clip-path="url(#pe48d9782d2)" d="M 895.441658 142.883787 
L 895.441658 150.465999 
L 890.612374 150.465999 
L 890.612374 142.883787 
L 895.441658 142.883787 
z
" style="fill:#0000ff;stroke:#ffffff;stroke-linejoin:miter;stroke-width:0.5;"/>
   </g>
   <g id="d0b5e751ef1d485fbf6cb53b7a01af13-14-node">
    <path clip-path="url(#pe48d9782d2)" d="M 878.823242 150.465999 
C 879.463612 150.465999 880.077841 150.066544 880.530651 149.35561 
C 880.983462 148.644676 881.237884 147.680306 881.237884 146.674893 
C 881.237884 145.66948 880.983462 144.705111 880.530651 143.994177 
C 880.077841 143.283242 879.463612 142.883787 878.823242 142.883787 
C 878.182871 142.883787 877.568643 143.283242 877.115832 143.994177 
C 876.663022 144.705111 876.4086 145.66948 876.4086 146.674893 
C 876.4086 147.680306 876.663022 148.644676 877.115832 149.35561 
C 877.568643 150.066544 878.182871 150.465999 878.823242 150.465999 
z
" style="fill:#ffff00;stroke:#ffffff;stroke-linejoin:miter;stroke-width:0.5;"/>
   </g>
   <g id="d0b5e751ef1d485fbf6cb53b7a01af13-10-node">
    <path clip-path="url(#pe48d9782d2)" d="M 895.441658 120.583164 
L 895.441658 128.165376 
L 890.612374 128.165376 
L 890.612374 120.583164 
L 895.441658 120.583164 
z
" style="fill:#0000ff;stroke:#ffffff;stroke-linejoin:miter;stroke-width:0.5;"/>
   </g>
   <g id="d0b5e751ef1d485fbf6cb53b7a01af13-6-node">
    <path clip-path="url(#pe48d9782d2)" d="M 907.23079 105.864752 
C 907.871161 105.864752 908.485389 105.465297 908.9382 104.754363 
C 909.39101 104.043429 909.645432 103.079059 909.645432 102.073646 
C 909.645432 101.068233 909.39101 100.103864 908.9382 99.392929 
C 908.485389 98.681995 907.871161 98.28254 907.23079 98.28254 
C 906.59042 98.28254 905.976191 98.681995 905.523381 99.392929 
C 905.07057 100.103864 904.816149 101.068233 904.816149 102.073646 
C 904.816149 103.079059 905.07057 104.043429 905.523381 104.754363 
C 905.976191 105.465297 906.59042 105.864752 907.23079 105.864752 
z
" style="fill:#00c832;stroke:#ffffff;stroke-linejoin:miter;stroke-width:0.5;"/>
   </g>
   <g id="d0b5e751ef1d485fbf6cb53b7a01af13-7-node">
    <path clip-path="url(#pe48d9782d2)" d="M 895.441658 98.28254 
L 895.441658 105.864752 
L 890.612374 105.864752 
L 890.612374 98.28254 
L 895.441658 98.28254 
z
" style="fill:#0000ff;stroke:#ffffff;stroke-linejoin:miter;stroke-width:0.5;"/>
   </g>
   <g id="patch_59">
    <path d="M 827.689655 166.745455 
L 827.689655 43.2 
" style="fill:none;stroke:#ffffff;stroke-linecap:square;stroke-linejoin:miter;stroke-width:1.25;"/>
   </g>
   <g id="patch_60">
    <path d="M 972 166.745455 
L 972 43.2 
" style="fill:none;stroke:#ffffff;stroke-linecap:square;stroke-linejoin:miter;stroke-width:1.25;"/>
   </g>
   <g id="patch_61">
    <path d="M 827.689655 166.745455 
L 972 166.745455 
" style="fill:none;stroke:#ffffff;stroke-linecap:square;stroke-linejoin:miter;stroke-width:1.25;"/>
   </g>
   <g id="patch_62">
    <path d="M 827.689655 43.2 
L 972 43.2 
" style="fill:none;stroke:#ffffff;stroke-linecap:square;stroke-linejoin:miter;stroke-width:1.25;"/>
   </g>
   <g id="text_5">
    <!-- 23:1 -->
    <g style="fill:#262626;" transform="translate(888.168265 37.2)scale(0.12 -0.12)">
     <use xlink:href="#ArialMT-50"/>
     <use x="55.615234" xlink:href="#ArialMT-51"/>
     <use x="111.230469" xlink:href="#ArialMT-58"/>
     <use x="139.013672" xlink:href="#ArialMT-49"/>
    </g>
   </g>
  </g>
  <g id="axes_6">
   <g id="patch_63">
    <path d="M 135 315 
L 279.310345 315 
L 279.310345 191.454545 
L 135 191.454545 
z
" style="fill:#ffffff;"/>
   </g>
   <g id="patch_64">
    <path clip-path="url(#pd888d4e204)" d="M 214.541135 283.779127 
L 200.337361 294.929439 
" style="stroke:#000000;stroke-linejoin:miter;stroke-width:0.5;"/>
   </g>
   <g id="patch_65">
    <path clip-path="url(#pd888d4e204)" d="M 214.541135 283.779127 
L 200.337361 272.628815 
" style="stroke:#000000;stroke-linejoin:miter;stroke-width:0.5;"/>
   </g>
   <g id="patch_66">
    <path clip-path="url(#pd888d4e204)" d="M 228.744909 267.053659 
L 214.541135 283.779127 
" style="stroke:#000000;stroke-linejoin:miter;stroke-width:0.5;"/>
   </g>
   <g id="patch_67">
    <path clip-path="url(#pd888d4e204)" d="M 200.337361 250.328192 
L 186.133587 250.328192 
" style="stroke:#000000;stroke-linejoin:miter;stroke-width:0.5;"/>
   </g>
   <g id="patch_68">
    <path clip-path="url(#pd888d4e204)" d="M 214.541135 250.328192 
L 200.337361 250.328192 
" style="stroke:#000000;stroke-linejoin:miter;stroke-width:0.5;"/>
   </g>
   <g id="patch_69">
    <path clip-path="url(#pd888d4e204)" d="M 228.744909 267.053659 
L 214.541135 250.328192 
" style="stroke:#000000;stroke-linejoin:miter;stroke-width:0.5;"/>
   </g>
   <g id="patch_70">
    <path clip-path="url(#pd888d4e204)" d="M 242.948683 267.053659 
L 228.744909 267.053659 
" style="stroke:#000000;stroke-linejoin:miter;stroke-width:0.5;"/>
   </g>
   <g id="patch_71">
    <path clip-path="url(#pd888d4e204)" d="M 257.152457 267.053659 
L 242.948683 267.053659 
" style="stroke:#000000;stroke-linejoin:miter;stroke-width:0.5;"/>
   </g>
   <g id="f3d7a30e2d364eaeae96db07b895b923-1-node">
    <path clip-path="url(#pd888d4e204)" d="M 259.567099 263.262553 
L 259.567099 270.844765 
L 254.737816 270.844765 
L 254.737816 263.262553 
L 259.567099 263.262553 
z
" style="fill:#0000ff;stroke:#ffffff;stroke-linejoin:miter;stroke-width:0.5;"/>
   </g>
   <g id="f3d7a30e2d364eaeae96db07b895b923-3-node">
    <path clip-path="url(#pd888d4e204)" d="M 245.363325 263.262553 
L 245.363325 270.844765 
L 240.534042 270.844765 
L 240.534042 263.262553 
L 245.363325 263.262553 
z
" style="fill:#0000ff;stroke:#ffffff;stroke-linejoin:miter;stroke-width:0.5;"/>
   </g>
   <g id="f3d7a30e2d364eaeae96db07b895b923-5-node">
    <path clip-path="url(#pd888d4e204)" d="M 228.744909 270.844765 
C 229.385279 270.844765 229.999508 270.44531 230.452318 269.734376 
C 230.905129 269.023442 231.159551 268.059072 231.159551 267.053659 
C 231.159551 266.048246 230.905129 265.083877 230.452318 264.372943 
C 229.999508 263.662008 229.385279 263.262553 228.744909 263.262553 
C 228.104539 263.262553 227.49031 263.662008 227.0375 264.372943 
C 226.584689 265.083877 226.330267 266.048246 226.330267 267.053659 
C 226.330267 268.059072 226.584689 269.023442 227.0375 269.734376 
C 227.49031 270.44531 228.104539 270.844765 228.744909 270.844765 
z
" style="fill:#00c832;stroke:#ffffff;stroke-linejoin:miter;stroke-width:0.5;"/>
   </g>
   <g id="f3d7a30e2d364eaeae96db07b895b923-10-node">
    <path clip-path="url(#pd888d4e204)" d="M 214.541135 287.570233 
C 215.181505 287.570233 215.795734 287.170778 216.248544 286.459844 
C 216.701355 285.748909 216.955777 284.78454 216.955777 283.779127 
C 216.955777 282.773714 216.701355 281.809345 216.248544 281.09841 
C 215.795734 280.387476 215.181505 279.988021 214.541135 279.988021 
C 213.900765 279.988021 213.286536 280.387476 212.833725 281.09841 
C 212.380915 281.809345 212.126493 282.773714 212.126493 283.779127 
C 212.126493 284.78454 212.380915 285.748909 212.833725 286.459844 
C 213.286536 287.170778 213.900765 287.570233 214.541135 287.570233 
z
" style="fill:#00c832;stroke:#ffffff;stroke-linejoin:miter;stroke-width:0.5;"/>
   </g>
   <g id="f3d7a30e2d364eaeae96db07b895b923-13-node">
    <path clip-path="url(#pd888d4e204)" d="M 202.752002 291.138333 
L 202.752002 298.720545 
L 197.922719 298.720545 
L 197.922719 291.138333 
L 202.752002 291.138333 
z
" style="fill:#0000ff;stroke:#ffffff;stroke-linejoin:miter;stroke-width:0.5;"/>
   </g>
   <g id="f3d7a30e2d364eaeae96db07b895b923-11-node">
    <path clip-path="url(#pd888d4e204)" d="M 202.752002 268.837709 
L 202.752002 276.419921 
L 197.922719 276.419921 
L 197.922719 268.837709 
L 202.752002 268.837709 
z
" style="fill:#0000ff;stroke:#ffffff;stroke-linejoin:miter;stroke-width:0.5;"/>
   </g>
   <g id="f3d7a30e2d364eaeae96db07b895b923-6-node">
    <path clip-path="url(#pd888d4e204)" d="M 214.541135 254.119298 
C 215.181505 254.119298 215.795734 253.719843 216.248544 253.008908 
C 216.701355 252.297974 216.955777 251.333605 216.955777 250.328192 
C 216.955777 249.322779 216.701355 248.358409 216.248544 247.647475 
C 215.795734 246.936541 215.181505 246.537086 214.541135 246.537086 
C 213.900765 246.537086 213.286536 246.936541 212.833725 247.647475 
C 212.380915 248.358409 212.126493 249.322779 212.126493 250.328192 
C 212.126493 251.333605 212.380915 252.297974 212.833725 253.008908 
C 213.286536 253.719843 213.900765 254.119298 214.541135 254.119298 
z
" style="fill:#00c832;stroke:#ffffff;stroke-linejoin:miter;stroke-width:0.5;"/>
   </g>
   <g id="f3d7a30e2d364eaeae96db07b895b923-7-node">
    <path clip-path="url(#pd888d4e204)" d="M 202.752002 246.537086 
L 202.752002 254.119298 
L 197.922719 254.119298 
L 197.922719 246.537086 
L 202.752002 246.537086 
z
" style="fill:#0000ff;stroke:#ffffff;stroke-linejoin:miter;stroke-width:0.5;"/>
   </g>
   <g id="f3d7a30e2d364eaeae96db07b895b923-9-node">
    <path clip-path="url(#pd888d4e204)" d="M 186.133587 254.119298 
C 186.773957 254.119298 187.388186 253.719843 187.840996 253.008908 
C 188.293806 252.297974 188.548228 251.333605 188.548228 250.328192 
C 188.548228 249.322779 188.293806 248.358409 187.840996 247.647475 
C 187.388186 246.936541 186.773957 246.537086 186.133587 246.537086 
C 185.493216 246.537086 184.878988 246.936541 184.426177 247.647475 
C 183.973367 248.358409 183.718945 249.322779 183.718945 250.328192 
C 183.718945 251.333605 183.973367 252.297974 184.426177 253.008908 
C 184.878988 253.719843 185.493216 254.119298 186.133587 254.119298 
z
" style="fill:#ffff00;stroke:#ffffff;stroke-linejoin:miter;stroke-width:0.5;"/>
   </g>
   <g id="patch_72">
    <path d="M 135 315 
L 135 191.454545 
" style="fill:none;stroke:#ffffff;stroke-linecap:square;stroke-linejoin:miter;stroke-width:1.25;"/>
   </g>
   <g id="patch_73">
    <path d="M 279.310345 315 
L 279.310345 191.454545 
" style="fill:none;stroke:#ffffff;stroke-linecap:square;stroke-linejoin:miter;stroke-width:1.25;"/>
   </g>
   <g id="patch_74">
    <path d="M 135 315 
L 279.310345 315 
" style="fill:none;stroke:#ffffff;stroke-linecap:square;stroke-linejoin:miter;stroke-width:1.25;"/>
   </g>
   <g id="patch_75">
    <path d="M 135 191.454545 
L 279.310345 191.454545 
" style="fill:none;stroke:#ffffff;stroke-linecap:square;stroke-linejoin:miter;stroke-width:1.25;"/>
   </g>
   <g id="text_6">
    <!-- 25:1 -->
    <defs>
     <path d="M 4.15625 18.75 
L 13.375 19.53125 
Q 14.40625 12.796875 18.140625 9.390625 
Q 21.875 6 27.15625 6 
Q 33.5 6 37.890625 10.78125 
Q 42.28125 15.578125 42.28125 23.484375 
Q 42.28125 31 38.0625 35.34375 
Q 33.84375 39.703125 27 39.703125 
Q 22.75 39.703125 19.328125 37.765625 
Q 15.921875 35.84375 13.96875 32.765625 
L 5.71875 33.84375 
L 12.640625 70.609375 
L 48.25 70.609375 
L 48.25 62.203125 
L 19.671875 62.203125 
L 15.828125 42.96875 
Q 22.265625 47.46875 29.34375 47.46875 
Q 38.71875 47.46875 45.15625 40.96875 
Q 51.609375 34.46875 51.609375 24.265625 
Q 51.609375 14.546875 45.953125 7.46875 
Q 39.0625 -1.21875 27.15625 -1.21875 
Q 17.390625 -1.21875 11.203125 4.25 
Q 5.03125 9.71875 4.15625 18.75 
z
" id="ArialMT-53"/>
    </defs>
    <g style="fill:#262626;" transform="translate(195.47861 185.454545)scale(0.12 -0.12)">
     <use xlink:href="#ArialMT-50"/>
     <use x="55.615234" xlink:href="#ArialMT-53"/>
     <use x="111.230469" xlink:href="#ArialMT-58"/>
     <use x="139.013672" xlink:href="#ArialMT-49"/>
    </g>
   </g>
  </g>
  <g id="axes_7">
   <g id="patch_76">
    <path d="M 308.172414 315 
L 452.482759 315 
L 452.482759 191.454545 
L 308.172414 191.454545 
z
" style="fill:#ffffff;"/>
   </g>
   <g id="patch_77">
    <path clip-path="url(#p0c84a19625)" d="M 373.509775 294.929439 
L 359.306001 294.929439 
" style="stroke:#000000;stroke-linejoin:miter;stroke-width:0.5;"/>
   </g>
   <g id="patch_78">
    <path clip-path="url(#p0c84a19625)" d="M 387.713549 283.779127 
L 373.509775 294.929439 
" style="stroke:#000000;stroke-linejoin:miter;stroke-width:0.5;"/>
   </g>
   <g id="patch_79">
    <path clip-path="url(#p0c84a19625)" d="M 373.509775 272.628815 
L 359.306001 272.628815 
" style="stroke:#000000;stroke-linejoin:miter;stroke-width:0.5;"/>
   </g>
   <g id="patch_80">
    <path clip-path="url(#p0c84a19625)" d="M 387.713549 283.779127 
L 373.509775 272.628815 
" style="stroke:#000000;stroke-linejoin:miter;stroke-width:0.5;"/>
   </g>
   <g id="patch_81">
    <path clip-path="url(#p0c84a19625)" d="M 401.917323 267.053659 
L 387.713549 283.779127 
" style="stroke:#000000;stroke-linejoin:miter;stroke-width:0.5;"/>
   </g>
   <g id="patch_82">
    <path clip-path="url(#p0c84a19625)" d="M 387.713549 250.328192 
L 373.509775 250.328192 
" style="stroke:#000000;stroke-linejoin:miter;stroke-width:0.5;"/>
   </g>
   <g id="patch_83">
    <path clip-path="url(#p0c84a19625)" d="M 401.917323 267.053659 
L 387.713549 250.328192 
" style="stroke:#000000;stroke-linejoin:miter;stroke-width:0.5;"/>
   </g>
   <g id="patch_84">
    <path clip-path="url(#p0c84a19625)" d="M 416.121097 267.053659 
L 401.917323 267.053659 
" style="stroke:#000000;stroke-linejoin:miter;stroke-width:0.5;"/>
   </g>
   <g id="patch_85">
    <path clip-path="url(#p0c84a19625)" d="M 430.324871 267.053659 
L 416.121097 267.053659 
" style="stroke:#000000;stroke-linejoin:miter;stroke-width:0.5;"/>
   </g>
   <g id="78749297da9341e096acabc9e6d31fdb-1-node">
    <path clip-path="url(#p0c84a19625)" d="M 432.739513 263.262553 
L 432.739513 270.844765 
L 427.910229 270.844765 
L 427.910229 263.262553 
L 432.739513 263.262553 
z
" style="fill:#0000ff;stroke:#ffffff;stroke-linejoin:miter;stroke-width:0.5;"/>
   </g>
   <g id="78749297da9341e096acabc9e6d31fdb-3-node">
    <path clip-path="url(#p0c84a19625)" d="M 418.535739 263.262553 
L 418.535739 270.844765 
L 413.706455 270.844765 
L 413.706455 263.262553 
L 418.535739 263.262553 
z
" style="fill:#0000ff;stroke:#ffffff;stroke-linejoin:miter;stroke-width:0.5;"/>
   </g>
   <g id="78749297da9341e096acabc9e6d31fdb-5-node">
    <path clip-path="url(#p0c84a19625)" d="M 401.917323 270.844765 
C 402.557693 270.844765 403.171922 270.44531 403.624732 269.734376 
C 404.077543 269.023442 404.331964 268.059072 404.331964 267.053659 
C 404.331964 266.048246 404.077543 265.083877 403.624732 264.372943 
C 403.171922 263.662008 402.557693 263.262553 401.917323 263.262553 
C 401.276952 263.262553 400.662724 263.662008 400.209913 264.372943 
C 399.757103 265.083877 399.502681 266.048246 399.502681 267.053659 
C 399.502681 268.059072 399.757103 269.023442 400.209913 269.734376 
C 400.662724 270.44531 401.276952 270.844765 401.917323 270.844765 
z
" style="fill:#00c832;stroke:#ffffff;stroke-linejoin:miter;stroke-width:0.5;"/>
   </g>
   <g id="78749297da9341e096acabc9e6d31fdb-9-node">
    <path clip-path="url(#p0c84a19625)" d="M 387.713549 287.570233 
C 388.353919 287.570233 388.968148 287.170778 389.420958 286.459844 
C 389.873768 285.748909 390.12819 284.78454 390.12819 283.779127 
C 390.12819 282.773714 389.873768 281.809345 389.420958 281.09841 
C 388.968148 280.387476 388.353919 279.988021 387.713549 279.988021 
C 387.073178 279.988021 386.45895 280.387476 386.006139 281.09841 
C 385.553329 281.809345 385.298907 282.773714 385.298907 283.779127 
C 385.298907 284.78454 385.553329 285.748909 386.006139 286.459844 
C 386.45895 287.170778 387.073178 287.570233 387.713549 287.570233 
z
" style="fill:#00c832;stroke:#ffffff;stroke-linejoin:miter;stroke-width:0.5;"/>
   </g>
   <g id="78749297da9341e096acabc9e6d31fdb-13-node">
    <path clip-path="url(#p0c84a19625)" d="M 375.924416 291.138333 
L 375.924416 298.720545 
L 371.095133 298.720545 
L 371.095133 291.138333 
L 375.924416 291.138333 
z
" style="fill:#0000ff;stroke:#ffffff;stroke-linejoin:miter;stroke-width:0.5;"/>
   </g>
   <g id="78749297da9341e096acabc9e6d31fdb-15-node">
    <path clip-path="url(#p0c84a19625)" d="M 359.306001 298.720545 
C 359.946371 298.720545 360.5606 298.32109 361.01341 297.610156 
C 361.46622 296.899221 361.720642 295.934852 361.720642 294.929439 
C 361.720642 293.924026 361.46622 292.959656 361.01341 292.248722 
C 360.5606 291.537788 359.946371 291.138333 359.306001 291.138333 
C 358.66563 291.138333 358.051401 291.537788 357.598591 292.248722 
C 357.145781 292.959656 356.891359 293.924026 356.891359 294.929439 
C 356.891359 295.934852 357.145781 296.899221 357.598591 297.610156 
C 358.051401 298.32109 358.66563 298.720545 359.306001 298.720545 
z
" style="fill:#ffff00;stroke:#ffffff;stroke-linejoin:miter;stroke-width:0.5;"/>
   </g>
   <g id="78749297da9341e096acabc9e6d31fdb-10-node">
    <path clip-path="url(#p0c84a19625)" d="M 375.924416 268.837709 
L 375.924416 276.419921 
L 371.095133 276.419921 
L 371.095133 268.837709 
L 375.924416 268.837709 
z
" style="fill:#0000ff;stroke:#ffffff;stroke-linejoin:miter;stroke-width:0.5;"/>
   </g>
   <g id="78749297da9341e096acabc9e6d31fdb-12-node">
    <path clip-path="url(#p0c84a19625)" d="M 359.306001 276.419921 
C 359.946371 276.419921 360.5606 276.020466 361.01341 275.309532 
C 361.46622 274.598598 361.720642 273.634228 361.720642 272.628815 
C 361.720642 271.623402 361.46622 270.659033 361.01341 269.948098 
C 360.5606 269.237164 359.946371 268.837709 359.306001 268.837709 
C 358.66563 268.837709 358.051401 269.237164 357.598591 269.948098 
C 357.145781 270.659033 356.891359 271.623402 356.891359 272.628815 
C 356.891359 273.634228 357.145781 274.598598 357.598591 275.309532 
C 358.051401 276.020466 358.66563 276.419921 359.306001 276.419921 
z
" style="fill:#ffff00;stroke:#ffffff;stroke-linejoin:miter;stroke-width:0.5;"/>
   </g>
   <g id="78749297da9341e096acabc9e6d31fdb-6-node">
    <path clip-path="url(#p0c84a19625)" d="M 387.713549 254.119298 
C 388.353919 254.119298 388.968148 253.719843 389.420958 253.008908 
C 389.873768 252.297974 390.12819 251.333605 390.12819 250.328192 
C 390.12819 249.322779 389.873768 248.358409 389.420958 247.647475 
C 388.968148 246.936541 388.353919 246.537086 387.713549 246.537086 
C 387.073178 246.537086 386.45895 246.936541 386.006139 247.647475 
C 385.553329 248.358409 385.298907 249.322779 385.298907 250.328192 
C 385.298907 251.333605 385.553329 252.297974 386.006139 253.008908 
C 386.45895 253.719843 387.073178 254.119298 387.713549 254.119298 
z
" style="fill:#00c832;stroke:#ffffff;stroke-linejoin:miter;stroke-width:0.5;"/>
   </g>
   <g id="78749297da9341e096acabc9e6d31fdb-7-node">
    <path clip-path="url(#p0c84a19625)" d="M 375.924416 246.537086 
L 375.924416 254.119298 
L 371.095133 254.119298 
L 371.095133 246.537086 
L 375.924416 246.537086 
z
" style="fill:#0000ff;stroke:#ffffff;stroke-linejoin:miter;stroke-width:0.5;"/>
   </g>
   <g id="patch_86">
    <path d="M 308.172414 315 
L 308.172414 191.454545 
" style="fill:none;stroke:#ffffff;stroke-linecap:square;stroke-linejoin:miter;stroke-width:1.25;"/>
   </g>
   <g id="patch_87">
    <path d="M 452.482759 315 
L 452.482759 191.454545 
" style="fill:none;stroke:#ffffff;stroke-linecap:square;stroke-linejoin:miter;stroke-width:1.25;"/>
   </g>
   <g id="patch_88">
    <path d="M 308.172414 315 
L 452.482759 315 
" style="fill:none;stroke:#ffffff;stroke-linecap:square;stroke-linejoin:miter;stroke-width:1.25;"/>
   </g>
   <g id="patch_89">
    <path d="M 308.172414 191.454545 
L 452.482759 191.454545 
" style="fill:none;stroke:#ffffff;stroke-linecap:square;stroke-linejoin:miter;stroke-width:1.25;"/>
   </g>
   <g id="text_7">
    <!-- 42:1 -->
    <g style="fill:#262626;" transform="translate(368.651024 185.454545)scale(0.12 -0.12)">
     <use xlink:href="#ArialMT-52"/>
     <use x="55.615234" xlink:href="#ArialMT-50"/>
     <use x="111.230469" xlink:href="#ArialMT-58"/>
     <use x="139.013672" xlink:href="#ArialMT-49"/>
    </g>
   </g>
  </g>
  <g id="axes_8">
   <g id="patch_90">
    <path d="M 481.344828 315 
L 625.655172 315 
L 625.655172 191.454545 
L 481.344828 191.454545 
z
" style="fill:#ffffff;"/>
   </g>
   <g id="patch_91">
    <path clip-path="url(#p7df5f0456b)" d="M 546.682188 294.929439 
L 532.478414 294.929439 
" style="stroke:#000000;stroke-linejoin:miter;stroke-width:0.5;"/>
   </g>
   <g id="patch_92">
    <path clip-path="url(#p7df5f0456b)" d="M 560.885963 283.779127 
L 546.682188 294.929439 
" style="stroke:#000000;stroke-linejoin:miter;stroke-width:0.5;"/>
   </g>
   <g id="patch_93">
    <path clip-path="url(#p7df5f0456b)" d="M 560.885963 283.779127 
L 546.682188 272.628815 
" style="stroke:#000000;stroke-linejoin:miter;stroke-width:0.5;"/>
   </g>
   <g id="patch_94">
    <path clip-path="url(#p7df5f0456b)" d="M 575.089737 267.053659 
L 560.885963 283.779127 
" style="stroke:#000000;stroke-linejoin:miter;stroke-width:0.5;"/>
   </g>
   <g id="patch_95">
    <path clip-path="url(#p7df5f0456b)" d="M 546.682188 250.328192 
L 532.478414 250.328192 
" style="stroke:#000000;stroke-linejoin:miter;stroke-width:0.5;"/>
   </g>
   <g id="patch_96">
    <path clip-path="url(#p7df5f0456b)" d="M 560.885963 250.328192 
L 546.682188 250.328192 
" style="stroke:#000000;stroke-linejoin:miter;stroke-width:0.5;"/>
   </g>
   <g id="patch_97">
    <path clip-path="url(#p7df5f0456b)" d="M 575.089737 267.053659 
L 560.885963 250.328192 
" style="stroke:#000000;stroke-linejoin:miter;stroke-width:0.5;"/>
   </g>
   <g id="patch_98">
    <path clip-path="url(#p7df5f0456b)" d="M 589.293511 267.053659 
L 575.089737 267.053659 
" style="stroke:#000000;stroke-linejoin:miter;stroke-width:0.5;"/>
   </g>
   <g id="patch_99">
    <path clip-path="url(#p7df5f0456b)" d="M 603.497285 267.053659 
L 589.293511 267.053659 
" style="stroke:#000000;stroke-linejoin:miter;stroke-width:0.5;"/>
   </g>
   <g id="8e389e97dbb741e6b9cec776b3ffd6e9-1-node">
    <path clip-path="url(#p7df5f0456b)" d="M 605.911926 263.262553 
L 605.911926 270.844765 
L 601.082643 270.844765 
L 601.082643 263.262553 
L 605.911926 263.262553 
z
" style="fill:#0000ff;stroke:#ffffff;stroke-linejoin:miter;stroke-width:0.5;"/>
   </g>
   <g id="8e389e97dbb741e6b9cec776b3ffd6e9-3-node">
    <path clip-path="url(#p7df5f0456b)" d="M 591.708152 263.262553 
L 591.708152 270.844765 
L 586.878869 270.844765 
L 586.878869 263.262553 
L 591.708152 263.262553 
z
" style="fill:#0000ff;stroke:#ffffff;stroke-linejoin:miter;stroke-width:0.5;"/>
   </g>
   <g id="8e389e97dbb741e6b9cec776b3ffd6e9-5-node">
    <path clip-path="url(#p7df5f0456b)" d="M 575.089737 270.844765 
C 575.730107 270.844765 576.344336 270.44531 576.797146 269.734376 
C 577.249956 269.023442 577.504378 268.059072 577.504378 267.053659 
C 577.504378 266.048246 577.249956 265.083877 576.797146 264.372943 
C 576.344336 263.662008 575.730107 263.262553 575.089737 263.262553 
C 574.449366 263.262553 573.835137 263.662008 573.382327 264.372943 
C 572.929517 265.083877 572.675095 266.048246 572.675095 267.053659 
C 572.675095 268.059072 572.929517 269.023442 573.382327 269.734376 
C 573.835137 270.44531 574.449366 270.844765 575.089737 270.844765 
z
" style="fill:#00c832;stroke:#ffffff;stroke-linejoin:miter;stroke-width:0.5;"/>
   </g>
   <g id="8e389e97dbb741e6b9cec776b3ffd6e9-10-node">
    <path clip-path="url(#p7df5f0456b)" d="M 560.885963 287.570233 
C 561.526333 287.570233 562.140562 287.170778 562.593372 286.459844 
C 563.046182 285.748909 563.300604 284.78454 563.300604 283.779127 
C 563.300604 282.773714 563.046182 281.809345 562.593372 281.09841 
C 562.140562 280.387476 561.526333 279.988021 560.885963 279.988021 
C 560.245592 279.988021 559.631363 280.387476 559.178553 281.09841 
C 558.725743 281.809345 558.471321 282.773714 558.471321 283.779127 
C 558.471321 284.78454 558.725743 285.748909 559.178553 286.459844 
C 559.631363 287.170778 560.245592 287.570233 560.885963 287.570233 
z
" style="fill:#00c832;stroke:#ffffff;stroke-linejoin:miter;stroke-width:0.5;"/>
   </g>
   <g id="8e389e97dbb741e6b9cec776b3ffd6e9-13-node">
    <path clip-path="url(#p7df5f0456b)" d="M 549.09683 291.138333 
L 549.09683 298.720545 
L 544.267547 298.720545 
L 544.267547 291.138333 
L 549.09683 291.138333 
z
" style="fill:#0000ff;stroke:#ffffff;stroke-linejoin:miter;stroke-width:0.5;"/>
   </g>
   <g id="8e389e97dbb741e6b9cec776b3ffd6e9-15-node">
    <path clip-path="url(#p7df5f0456b)" d="M 532.478414 298.720545 
C 533.118785 298.720545 533.733014 298.32109 534.185824 297.610156 
C 534.638634 296.899221 534.893056 295.934852 534.893056 294.929439 
C 534.893056 293.924026 534.638634 292.959656 534.185824 292.248722 
C 533.733014 291.537788 533.118785 291.138333 532.478414 291.138333 
C 531.838044 291.138333 531.223815 291.537788 530.771005 292.248722 
C 530.318195 292.959656 530.063773 293.924026 530.063773 294.929439 
C 530.063773 295.934852 530.318195 296.899221 530.771005 297.610156 
C 531.223815 298.32109 531.838044 298.720545 532.478414 298.720545 
z
" style="fill:#ffff00;stroke:#ffffff;stroke-linejoin:miter;stroke-width:0.5;"/>
   </g>
   <g id="8e389e97dbb741e6b9cec776b3ffd6e9-11-node">
    <path clip-path="url(#p7df5f0456b)" d="M 549.09683 268.837709 
L 549.09683 276.419921 
L 544.267547 276.419921 
L 544.267547 268.837709 
L 549.09683 268.837709 
z
" style="fill:#0000ff;stroke:#ffffff;stroke-linejoin:miter;stroke-width:0.5;"/>
   </g>
   <g id="8e389e97dbb741e6b9cec776b3ffd6e9-6-node">
    <path clip-path="url(#p7df5f0456b)" d="M 560.885963 254.119298 
C 561.526333 254.119298 562.140562 253.719843 562.593372 253.008908 
C 563.046182 252.297974 563.300604 251.333605 563.300604 250.328192 
C 563.300604 249.322779 563.046182 248.358409 562.593372 247.647475 
C 562.140562 246.936541 561.526333 246.537086 560.885963 246.537086 
C 560.245592 246.537086 559.631363 246.936541 559.178553 247.647475 
C 558.725743 248.358409 558.471321 249.322779 558.471321 250.328192 
C 558.471321 251.333605 558.725743 252.297974 559.178553 253.008908 
C 559.631363 253.719843 560.245592 254.119298 560.885963 254.119298 
z
" style="fill:#00c832;stroke:#ffffff;stroke-linejoin:miter;stroke-width:0.5;"/>
   </g>
   <g id="8e389e97dbb741e6b9cec776b3ffd6e9-7-node">
    <path clip-path="url(#p7df5f0456b)" d="M 549.09683 246.537086 
L 549.09683 254.119298 
L 544.267547 254.119298 
L 544.267547 246.537086 
L 549.09683 246.537086 
z
" style="fill:#0000ff;stroke:#ffffff;stroke-linejoin:miter;stroke-width:0.5;"/>
   </g>
   <g id="8e389e97dbb741e6b9cec776b3ffd6e9-9-node">
    <path clip-path="url(#p7df5f0456b)" d="M 532.478414 254.119298 
C 533.118785 254.119298 533.733014 253.719843 534.185824 253.008908 
C 534.638634 252.297974 534.893056 251.333605 534.893056 250.328192 
C 534.893056 249.322779 534.638634 248.358409 534.185824 247.647475 
C 533.733014 246.936541 533.118785 246.537086 532.478414 246.537086 
C 531.838044 246.537086 531.223815 246.936541 530.771005 247.647475 
C 530.318195 248.358409 530.063773 249.322779 530.063773 250.328192 
C 530.063773 251.333605 530.318195 252.297974 530.771005 253.008908 
C 531.223815 253.719843 531.838044 254.119298 532.478414 254.119298 
z
" style="fill:#ffff00;stroke:#ffffff;stroke-linejoin:miter;stroke-width:0.5;"/>
   </g>
   <g id="patch_100">
    <path d="M 481.344828 315 
L 481.344828 191.454545 
" style="fill:none;stroke:#ffffff;stroke-linecap:square;stroke-linejoin:miter;stroke-width:1.25;"/>
   </g>
   <g id="patch_101">
    <path d="M 625.655172 315 
L 625.655172 191.454545 
" style="fill:none;stroke:#ffffff;stroke-linecap:square;stroke-linejoin:miter;stroke-width:1.25;"/>
   </g>
   <g id="patch_102">
    <path d="M 481.344828 315 
L 625.655172 315 
" style="fill:none;stroke:#ffffff;stroke-linecap:square;stroke-linejoin:miter;stroke-width:1.25;"/>
   </g>
   <g id="patch_103">
    <path d="M 481.344828 191.454545 
L 625.655172 191.454545 
" style="fill:none;stroke:#ffffff;stroke-linecap:square;stroke-linejoin:miter;stroke-width:1.25;"/>
   </g>
   <g id="text_8">
    <!-- 43:1 -->
    <g style="fill:#262626;" transform="translate(541.823437 185.454545)scale(0.12 -0.12)">
     <use xlink:href="#ArialMT-52"/>
     <use x="55.615234" xlink:href="#ArialMT-51"/>
     <use x="111.230469" xlink:href="#ArialMT-58"/>
     <use x="139.013672" xlink:href="#ArialMT-49"/>
    </g>
   </g>
  </g>
  <g id="axes_9">
   <g id="patch_104">
    <path d="M 654.517241 315 
L 798.827586 315 
L 798.827586 191.454545 
L 654.517241 191.454545 
z
" style="fill:#ffffff;"/>
   </g>
   <g id="patch_105">
    <path clip-path="url(#pf029e22034)" d="M 719.854602 294.929439 
L 705.650828 294.929439 
" style="stroke:#000000;stroke-linejoin:miter;stroke-width:0.5;"/>
   </g>
   <g id="patch_106">
    <path clip-path="url(#pf029e22034)" d="M 734.058376 283.779127 
L 719.854602 294.929439 
" style="stroke:#000000;stroke-linejoin:miter;stroke-width:0.5;"/>
   </g>
   <g id="patch_107">
    <path clip-path="url(#pf029e22034)" d="M 719.854602 272.628815 
L 705.650828 272.628815 
" style="stroke:#000000;stroke-linejoin:miter;stroke-width:0.5;"/>
   </g>
   <g id="patch_108">
    <path clip-path="url(#pf029e22034)" d="M 734.058376 283.779127 
L 719.854602 272.628815 
" style="stroke:#000000;stroke-linejoin:miter;stroke-width:0.5;"/>
   </g>
   <g id="patch_109">
    <path clip-path="url(#pf029e22034)" d="M 748.26215 267.053659 
L 734.058376 283.779127 
" style="stroke:#000000;stroke-linejoin:miter;stroke-width:0.5;"/>
   </g>
   <g id="patch_110">
    <path clip-path="url(#pf029e22034)" d="M 719.854602 250.328192 
L 705.650828 250.328192 
" style="stroke:#000000;stroke-linejoin:miter;stroke-width:0.5;"/>
   </g>
   <g id="patch_111">
    <path clip-path="url(#pf029e22034)" d="M 734.058376 250.328192 
L 719.854602 250.328192 
" style="stroke:#000000;stroke-linejoin:miter;stroke-width:0.5;"/>
   </g>
   <g id="patch_112">
    <path clip-path="url(#pf029e22034)" d="M 748.26215 267.053659 
L 734.058376 250.328192 
" style="stroke:#000000;stroke-linejoin:miter;stroke-width:0.5;"/>
   </g>
   <g id="patch_113">
    <path clip-path="url(#pf029e22034)" d="M 762.465925 267.053659 
L 748.26215 267.053659 
" style="stroke:#000000;stroke-linejoin:miter;stroke-width:0.5;"/>
   </g>
   <g id="patch_114">
    <path clip-path="url(#pf029e22034)" d="M 776.669699 267.053659 
L 762.465925 267.053659 
" style="stroke:#000000;stroke-linejoin:miter;stroke-width:0.5;"/>
   </g>
   <g id="e771ab5eef994fadac70002c1ccc2a32-1-node">
    <path clip-path="url(#pf029e22034)" d="M 779.08434 263.262553 
L 779.08434 270.844765 
L 774.255057 270.844765 
L 774.255057 263.262553 
L 779.08434 263.262553 
z
" style="fill:#0000ff;stroke:#ffffff;stroke-linejoin:miter;stroke-width:0.5;"/>
   </g>
   <g id="e771ab5eef994fadac70002c1ccc2a32-3-node">
    <path clip-path="url(#pf029e22034)" d="M 764.880566 263.262553 
L 764.880566 270.844765 
L 760.051283 270.844765 
L 760.051283 263.262553 
L 764.880566 263.262553 
z
" style="fill:#0000ff;stroke:#ffffff;stroke-linejoin:miter;stroke-width:0.5;"/>
   </g>
   <g id="e771ab5eef994fadac70002c1ccc2a32-5-node">
    <path clip-path="url(#pf029e22034)" d="M 748.26215 270.844765 
C 748.902521 270.844765 749.51675 270.44531 749.96956 269.734376 
C 750.42237 269.023442 750.676792 268.059072 750.676792 267.053659 
C 750.676792 266.048246 750.42237 265.083877 749.96956 264.372943 
C 749.51675 263.662008 748.902521 263.262553 748.26215 263.262553 
C 747.62178 263.262553 747.007551 263.662008 746.554741 264.372943 
C 746.101931 265.083877 745.847509 266.048246 745.847509 267.053659 
C 745.847509 268.059072 746.101931 269.023442 746.554741 269.734376 
C 747.007551 270.44531 747.62178 270.844765 748.26215 270.844765 
z
" style="fill:#00c832;stroke:#ffffff;stroke-linejoin:miter;stroke-width:0.5;"/>
   </g>
   <g id="e771ab5eef994fadac70002c1ccc2a32-10-node">
    <path clip-path="url(#pf029e22034)" d="M 734.058376 287.570233 
C 734.698747 287.570233 735.312975 287.170778 735.765786 286.459844 
C 736.218596 285.748909 736.473018 284.78454 736.473018 283.779127 
C 736.473018 282.773714 736.218596 281.809345 735.765786 281.09841 
C 735.312975 280.387476 734.698747 279.988021 734.058376 279.988021 
C 733.418006 279.988021 732.803777 280.387476 732.350967 281.09841 
C 731.898157 281.809345 731.643735 282.773714 731.643735 283.779127 
C 731.643735 284.78454 731.898157 285.748909 732.350967 286.459844 
C 732.803777 287.170778 733.418006 287.570233 734.058376 287.570233 
z
" style="fill:#00c832;stroke:#ffffff;stroke-linejoin:miter;stroke-width:0.5;"/>
   </g>
   <g id="e771ab5eef994fadac70002c1ccc2a32-14-node">
    <path clip-path="url(#pf029e22034)" d="M 722.269244 291.138333 
L 722.269244 298.720545 
L 717.439961 298.720545 
L 717.439961 291.138333 
L 722.269244 291.138333 
z
" style="fill:#0000ff;stroke:#ffffff;stroke-linejoin:miter;stroke-width:0.5;"/>
   </g>
   <g id="e771ab5eef994fadac70002c1ccc2a32-16-node">
    <path clip-path="url(#pf029e22034)" d="M 705.650828 298.720545 
C 706.291199 298.720545 706.905427 298.32109 707.358238 297.610156 
C 707.811048 296.899221 708.06547 295.934852 708.06547 294.929439 
C 708.06547 293.924026 707.811048 292.959656 707.358238 292.248722 
C 706.905427 291.537788 706.291199 291.138333 705.650828 291.138333 
C 705.010458 291.138333 704.396229 291.537788 703.943419 292.248722 
C 703.490608 292.959656 703.236187 293.924026 703.236187 294.929439 
C 703.236187 295.934852 703.490608 296.899221 703.943419 297.610156 
C 704.396229 298.32109 705.010458 298.720545 705.650828 298.720545 
z
" style="fill:#ffff00;stroke:#ffffff;stroke-linejoin:miter;stroke-width:0.5;"/>
   </g>
   <g id="e771ab5eef994fadac70002c1ccc2a32-11-node">
    <path clip-path="url(#pf029e22034)" d="M 722.269244 268.837709 
L 722.269244 276.419921 
L 717.439961 276.419921 
L 717.439961 268.837709 
L 722.269244 268.837709 
z
" style="fill:#0000ff;stroke:#ffffff;stroke-linejoin:miter;stroke-width:0.5;"/>
   </g>
   <g id="e771ab5eef994fadac70002c1ccc2a32-13-node">
    <path clip-path="url(#pf029e22034)" d="M 705.650828 276.419921 
C 706.291199 276.419921 706.905427 276.020466 707.358238 275.309532 
C 707.811048 274.598598 708.06547 273.634228 708.06547 272.628815 
C 708.06547 271.623402 707.811048 270.659033 707.358238 269.948098 
C 706.905427 269.237164 706.291199 268.837709 705.650828 268.837709 
C 705.010458 268.837709 704.396229 269.237164 703.943419 269.948098 
C 703.490608 270.659033 703.236187 271.623402 703.236187 272.628815 
C 703.236187 273.634228 703.490608 274.598598 703.943419 275.309532 
C 704.396229 276.020466 705.010458 276.419921 705.650828 276.419921 
z
" style="fill:#ffff00;stroke:#ffffff;stroke-linejoin:miter;stroke-width:0.5;"/>
   </g>
   <g id="e771ab5eef994fadac70002c1ccc2a32-6-node">
    <path clip-path="url(#pf029e22034)" d="M 734.058376 254.119298 
C 734.698747 254.119298 735.312975 253.719843 735.765786 253.008908 
C 736.218596 252.297974 736.473018 251.333605 736.473018 250.328192 
C 736.473018 249.322779 736.218596 248.358409 735.765786 247.647475 
C 735.312975 246.936541 734.698747 246.537086 734.058376 246.537086 
C 733.418006 246.537086 732.803777 246.936541 732.350967 247.647475 
C 731.898157 248.358409 731.643735 249.322779 731.643735 250.328192 
C 731.643735 251.333605 731.898157 252.297974 732.350967 253.008908 
C 732.803777 253.719843 733.418006 254.119298 734.058376 254.119298 
z
" style="fill:#00c832;stroke:#ffffff;stroke-linejoin:miter;stroke-width:0.5;"/>
   </g>
   <g id="e771ab5eef994fadac70002c1ccc2a32-7-node">
    <path clip-path="url(#pf029e22034)" d="M 722.269244 246.537086 
L 722.269244 254.119298 
L 717.439961 254.119298 
L 717.439961 246.537086 
L 722.269244 246.537086 
z
" style="fill:#0000ff;stroke:#ffffff;stroke-linejoin:miter;stroke-width:0.5;"/>
   </g>
   <g id="e771ab5eef994fadac70002c1ccc2a32-9-node">
    <path clip-path="url(#pf029e22034)" d="M 705.650828 254.119298 
C 706.291199 254.119298 706.905427 253.719843 707.358238 253.008908 
C 707.811048 252.297974 708.06547 251.333605 708.06547 250.328192 
C 708.06547 249.322779 707.811048 248.358409 707.358238 247.647475 
C 706.905427 246.936541 706.291199 246.537086 705.650828 246.537086 
C 705.010458 246.537086 704.396229 246.936541 703.943419 247.647475 
C 703.490608 248.358409 703.236187 249.322779 703.236187 250.328192 
C 703.236187 251.333605 703.490608 252.297974 703.943419 253.008908 
C 704.396229 253.719843 705.010458 254.119298 705.650828 254.119298 
z
" style="fill:#ffff00;stroke:#ffffff;stroke-linejoin:miter;stroke-width:0.5;"/>
   </g>
   <g id="patch_115">
    <path d="M 654.517241 315 
L 654.517241 191.454545 
" style="fill:none;stroke:#ffffff;stroke-linecap:square;stroke-linejoin:miter;stroke-width:1.25;"/>
   </g>
   <g id="patch_116">
    <path d="M 798.827586 315 
L 798.827586 191.454545 
" style="fill:none;stroke:#ffffff;stroke-linecap:square;stroke-linejoin:miter;stroke-width:1.25;"/>
   </g>
   <g id="patch_117">
    <path d="M 654.517241 315 
L 798.827586 315 
" style="fill:none;stroke:#ffffff;stroke-linecap:square;stroke-linejoin:miter;stroke-width:1.25;"/>
   </g>
   <g id="patch_118">
    <path d="M 654.517241 191.454545 
L 798.827586 191.454545 
" style="fill:none;stroke:#ffffff;stroke-linecap:square;stroke-linejoin:miter;stroke-width:1.25;"/>
   </g>
   <g id="text_9">
    <!-- 69:1 -->
    <defs>
     <path d="M 49.75 54.046875 
L 41.015625 53.375 
Q 39.84375 58.546875 37.703125 60.890625 
Q 34.125 64.65625 28.90625 64.65625 
Q 24.703125 64.65625 21.53125 62.3125 
Q 17.390625 59.28125 14.984375 53.46875 
Q 12.59375 47.65625 12.5 36.921875 
Q 15.671875 41.75 20.265625 44.09375 
Q 24.859375 46.4375 29.890625 46.4375 
Q 38.671875 46.4375 44.84375 39.96875 
Q 51.03125 33.5 51.03125 23.25 
Q 51.03125 16.5 48.125 10.71875 
Q 45.21875 4.9375 40.140625 1.859375 
Q 35.0625 -1.21875 28.609375 -1.21875 
Q 17.625 -1.21875 10.6875 6.859375 
Q 3.765625 14.9375 3.765625 33.5 
Q 3.765625 54.25 11.421875 63.671875 
Q 18.109375 71.875 29.4375 71.875 
Q 37.890625 71.875 43.28125 67.140625 
Q 48.6875 62.40625 49.75 54.046875 
z
M 13.875 23.1875 
Q 13.875 18.65625 15.796875 14.5 
Q 17.71875 10.359375 21.1875 8.171875 
Q 24.65625 6 28.46875 6 
Q 34.03125 6 38.03125 10.484375 
Q 42.046875 14.984375 42.046875 22.703125 
Q 42.046875 30.125 38.078125 34.390625 
Q 34.125 38.671875 28.125 38.671875 
Q 22.171875 38.671875 18.015625 34.390625 
Q 13.875 30.125 13.875 23.1875 
z
" id="ArialMT-54"/>
     <path d="M 5.46875 16.546875 
L 13.921875 17.328125 
Q 14.984375 11.375 18.015625 8.6875 
Q 21.046875 6 25.78125 6 
Q 29.828125 6 32.875 7.859375 
Q 35.9375 9.71875 37.890625 12.8125 
Q 39.84375 15.921875 41.15625 21.1875 
Q 42.484375 26.46875 42.484375 31.9375 
Q 42.484375 32.515625 42.4375 33.6875 
Q 39.796875 29.5 35.234375 26.875 
Q 30.671875 24.265625 25.34375 24.265625 
Q 16.453125 24.265625 10.296875 30.703125 
Q 4.15625 37.15625 4.15625 47.703125 
Q 4.15625 58.59375 10.578125 65.234375 
Q 17 71.875 26.65625 71.875 
Q 33.640625 71.875 39.421875 68.109375 
Q 45.21875 64.359375 48.21875 57.390625 
Q 51.21875 50.4375 51.21875 37.25 
Q 51.21875 23.53125 48.234375 15.40625 
Q 45.265625 7.28125 39.375 3.03125 
Q 33.5 -1.21875 25.59375 -1.21875 
Q 17.1875 -1.21875 11.859375 3.4375 
Q 6.546875 8.109375 5.46875 16.546875 
z
M 41.453125 48.140625 
Q 41.453125 55.71875 37.421875 60.15625 
Q 33.40625 64.59375 27.734375 64.59375 
Q 21.875 64.59375 17.53125 59.8125 
Q 13.1875 55.03125 13.1875 47.40625 
Q 13.1875 40.578125 17.3125 36.296875 
Q 21.4375 32.03125 27.484375 32.03125 
Q 33.59375 32.03125 37.515625 36.296875 
Q 41.453125 40.578125 41.453125 48.140625 
z
" id="ArialMT-57"/>
    </defs>
    <g style="fill:#262626;" transform="translate(714.995851 185.454545)scale(0.12 -0.12)">
     <use xlink:href="#ArialMT-54"/>
     <use x="55.615234" xlink:href="#ArialMT-57"/>
     <use x="111.230469" xlink:href="#ArialMT-58"/>
     <use x="139.013672" xlink:href="#ArialMT-49"/>
    </g>
   </g>
  </g>
  <g id="axes_10">
   <g id="patch_119">
    <path d="M 827.689655 315 
L 972 315 
L 972 191.454545 
L 827.689655 191.454545 
z
" style="fill:#eaeaf2;"/>
   </g>
   <g id="matplotlib.axis_1">
    <g id="xtick_1">
     <g id="line2d_1">
      <path clip-path="url(#p7aab8f9a2d)" d="M 827.689655 315 
L 827.689655 191.454545 
" style="fill:none;stroke:#ffffff;stroke-linecap:round;"/>
     </g>
     <g id="text_10">
      <!-- 0.00 -->
      <defs>
       <path d="M 4.15625 35.296875 
Q 4.15625 48 6.765625 55.734375 
Q 9.375 63.484375 14.515625 67.671875 
Q 19.671875 71.875 27.484375 71.875 
Q 33.25 71.875 37.59375 69.546875 
Q 41.9375 67.234375 44.765625 62.859375 
Q 47.609375 58.5 49.21875 52.21875 
Q 50.828125 45.953125 50.828125 35.296875 
Q 50.828125 22.703125 48.234375 14.96875 
Q 45.65625 7.234375 40.5 3 
Q 35.359375 -1.21875 27.484375 -1.21875 
Q 17.140625 -1.21875 11.234375 6.203125 
Q 4.15625 15.140625 4.15625 35.296875 
z
M 13.1875 35.296875 
Q 13.1875 17.671875 17.3125 11.828125 
Q 21.4375 6 27.484375 6 
Q 33.546875 6 37.671875 11.859375 
Q 41.796875 17.71875 41.796875 35.296875 
Q 41.796875 52.984375 37.671875 58.78125 
Q 33.546875 64.59375 27.390625 64.59375 
Q 21.34375 64.59375 17.71875 59.46875 
Q 13.1875 52.9375 13.1875 35.296875 
z
" id="ArialMT-48"/>
       <path d="M 9.078125 0 
L 9.078125 10.015625 
L 19.09375 10.015625 
L 19.09375 0 
z
" id="ArialMT-46"/>
      </defs>
      <g style="fill:#262626;" transform="translate(816.98614 332.373594)scale(0.11 -0.11)">
       <use xlink:href="#ArialMT-48"/>
       <use x="55.615234" xlink:href="#ArialMT-46"/>
       <use x="83.398438" xlink:href="#ArialMT-48"/>
       <use x="139.013672" xlink:href="#ArialMT-48"/>
      </g>
     </g>
    </g>
    <g id="xtick_2">
     <g id="line2d_2">
      <path clip-path="url(#p7aab8f9a2d)" d="M 863.767241 315 
L 863.767241 191.454545 
" style="fill:none;stroke:#ffffff;stroke-linecap:round;"/>
     </g>
     <g id="text_11">
      <!-- 0.25 -->
      <g style="fill:#262626;" transform="translate(853.063726 332.373594)scale(0.11 -0.11)">
       <use xlink:href="#ArialMT-48"/>
       <use x="55.615234" xlink:href="#ArialMT-46"/>
       <use x="83.398438" xlink:href="#ArialMT-50"/>
       <use x="139.013672" xlink:href="#ArialMT-53"/>
      </g>
     </g>
    </g>
    <g id="xtick_3">
     <g id="line2d_3">
      <path clip-path="url(#p7aab8f9a2d)" d="M 899.844828 315 
L 899.844828 191.454545 
" style="fill:none;stroke:#ffffff;stroke-linecap:round;"/>
     </g>
     <g id="text_12">
      <!-- 0.50 -->
      <g style="fill:#262626;" transform="translate(889.141312 332.373594)scale(0.11 -0.11)">
       <use xlink:href="#ArialMT-48"/>
       <use x="55.615234" xlink:href="#ArialMT-46"/>
       <use x="83.398438" xlink:href="#ArialMT-53"/>
       <use x="139.013672" xlink:href="#ArialMT-48"/>
      </g>
     </g>
    </g>
    <g id="xtick_4">
     <g id="line2d_4">
      <path clip-path="url(#p7aab8f9a2d)" d="M 935.922414 315 
L 935.922414 191.454545 
" style="fill:none;stroke:#ffffff;stroke-linecap:round;"/>
     </g>
     <g id="text_13">
      <!-- 0.75 -->
      <defs>
       <path d="M 4.734375 62.203125 
L 4.734375 70.65625 
L 51.078125 70.65625 
L 51.078125 63.8125 
Q 44.234375 56.546875 37.515625 44.484375 
Q 30.8125 32.421875 27.15625 19.671875 
Q 24.515625 10.6875 23.78125 0 
L 14.75 0 
Q 14.890625 8.453125 18.0625 20.40625 
Q 21.234375 32.375 27.171875 43.484375 
Q 33.109375 54.59375 39.796875 62.203125 
z
" id="ArialMT-55"/>
      </defs>
      <g style="fill:#262626;" transform="translate(925.218898 332.373594)scale(0.11 -0.11)">
       <use xlink:href="#ArialMT-48"/>
       <use x="55.615234" xlink:href="#ArialMT-46"/>
       <use x="83.398438" xlink:href="#ArialMT-55"/>
       <use x="139.013672" xlink:href="#ArialMT-53"/>
      </g>
     </g>
    </g>
    <g id="xtick_5">
     <g id="line2d_5">
      <path clip-path="url(#p7aab8f9a2d)" d="M 972 315 
L 972 191.454545 
" style="fill:none;stroke:#ffffff;stroke-linecap:round;"/>
     </g>
     <g id="text_14">
      <!-- 1.00 -->
      <g style="fill:#262626;" transform="translate(961.296484 332.373594)scale(0.11 -0.11)">
       <use xlink:href="#ArialMT-49"/>
       <use x="55.615234" xlink:href="#ArialMT-46"/>
       <use x="83.398438" xlink:href="#ArialMT-48"/>
       <use x="139.013672" xlink:href="#ArialMT-48"/>
      </g>
     </g>
    </g>
   </g>
   <g id="matplotlib.axis_2">
    <g id="ytick_1">
     <g id="line2d_6">
      <path clip-path="url(#p7aab8f9a2d)" d="M 827.689655 315 
L 972 315 
" style="fill:none;stroke:#ffffff;stroke-linecap:round;"/>
     </g>
     <g id="text_15">
      <!-- 0.0 -->
      <g style="fill:#262626;" transform="translate(802.899655 318.936797)scale(0.11 -0.11)">
       <use xlink:href="#ArialMT-48"/>
       <use x="55.615234" xlink:href="#ArialMT-46"/>
       <use x="83.398438" xlink:href="#ArialMT-48"/>
      </g>
     </g>
    </g>
    <g id="ytick_2">
     <g id="line2d_7">
      <path clip-path="url(#p7aab8f9a2d)" d="M 827.689655 290.290909 
L 972 290.290909 
" style="fill:none;stroke:#ffffff;stroke-linecap:round;"/>
     </g>
     <g id="text_16">
      <!-- 0.2 -->
      <g style="fill:#262626;" transform="translate(802.899655 294.227706)scale(0.11 -0.11)">
       <use xlink:href="#ArialMT-48"/>
       <use x="55.615234" xlink:href="#ArialMT-46"/>
       <use x="83.398438" xlink:href="#ArialMT-50"/>
      </g>
     </g>
    </g>
    <g id="ytick_3">
     <g id="line2d_8">
      <path clip-path="url(#p7aab8f9a2d)" d="M 827.689655 265.581818 
L 972 265.581818 
" style="fill:none;stroke:#ffffff;stroke-linecap:round;"/>
     </g>
     <g id="text_17">
      <!-- 0.4 -->
      <g style="fill:#262626;" transform="translate(802.899655 269.518615)scale(0.11 -0.11)">
       <use xlink:href="#ArialMT-48"/>
       <use x="55.615234" xlink:href="#ArialMT-46"/>
       <use x="83.398438" xlink:href="#ArialMT-52"/>
      </g>
     </g>
    </g>
    <g id="ytick_4">
     <g id="line2d_9">
      <path clip-path="url(#p7aab8f9a2d)" d="M 827.689655 240.872727 
L 972 240.872727 
" style="fill:none;stroke:#ffffff;stroke-linecap:round;"/>
     </g>
     <g id="text_18">
      <!-- 0.6 -->
      <g style="fill:#262626;" transform="translate(802.899655 244.809524)scale(0.11 -0.11)">
       <use xlink:href="#ArialMT-48"/>
       <use x="55.615234" xlink:href="#ArialMT-46"/>
       <use x="83.398438" xlink:href="#ArialMT-54"/>
      </g>
     </g>
    </g>
    <g id="ytick_5">
     <g id="line2d_10">
      <path clip-path="url(#p7aab8f9a2d)" d="M 827.689655 216.163636 
L 972 216.163636 
" style="fill:none;stroke:#ffffff;stroke-linecap:round;"/>
     </g>
     <g id="text_19">
      <!-- 0.8 -->
      <defs>
       <path d="M 17.671875 38.8125 
Q 12.203125 40.828125 9.5625 44.53125 
Q 6.9375 48.25 6.9375 53.421875 
Q 6.9375 61.234375 12.546875 66.546875 
Q 18.171875 71.875 27.484375 71.875 
Q 36.859375 71.875 42.578125 66.421875 
Q 48.296875 60.984375 48.296875 53.171875 
Q 48.296875 48.1875 45.671875 44.5 
Q 43.0625 40.828125 37.75 38.8125 
Q 44.34375 36.671875 47.78125 31.875 
Q 51.21875 27.09375 51.21875 20.453125 
Q 51.21875 11.28125 44.71875 5.03125 
Q 38.234375 -1.21875 27.640625 -1.21875 
Q 17.046875 -1.21875 10.546875 5.046875 
Q 4.046875 11.328125 4.046875 20.703125 
Q 4.046875 27.6875 7.59375 32.390625 
Q 11.140625 37.109375 17.671875 38.8125 
z
M 15.921875 53.71875 
Q 15.921875 48.640625 19.1875 45.40625 
Q 22.46875 42.1875 27.6875 42.1875 
Q 32.765625 42.1875 36.015625 45.375 
Q 39.265625 48.578125 39.265625 53.21875 
Q 39.265625 58.0625 35.90625 61.359375 
Q 32.5625 64.65625 27.59375 64.65625 
Q 22.5625 64.65625 19.234375 61.421875 
Q 15.921875 58.203125 15.921875 53.71875 
z
M 13.09375 20.65625 
Q 13.09375 16.890625 14.875 13.375 
Q 16.65625 9.859375 20.171875 7.921875 
Q 23.6875 6 27.734375 6 
Q 34.03125 6 38.125 10.046875 
Q 42.234375 14.109375 42.234375 20.359375 
Q 42.234375 26.703125 38.015625 30.859375 
Q 33.796875 35.015625 27.4375 35.015625 
Q 21.234375 35.015625 17.15625 30.90625 
Q 13.09375 26.8125 13.09375 20.65625 
z
" id="ArialMT-56"/>
      </defs>
      <g style="fill:#262626;" transform="translate(802.899655 220.100433)scale(0.11 -0.11)">
       <use xlink:href="#ArialMT-48"/>
       <use x="55.615234" xlink:href="#ArialMT-46"/>
       <use x="83.398438" xlink:href="#ArialMT-56"/>
      </g>
     </g>
    </g>
    <g id="ytick_6">
     <g id="line2d_11">
      <path clip-path="url(#p7aab8f9a2d)" d="M 827.689655 191.454545 
L 972 191.454545 
" style="fill:none;stroke:#ffffff;stroke-linecap:round;"/>
     </g>
     <g id="text_20">
      <!-- 1.0 -->
      <g style="fill:#262626;" transform="translate(802.899655 195.391342)scale(0.11 -0.11)">
       <use xlink:href="#ArialMT-49"/>
       <use x="55.615234" xlink:href="#ArialMT-46"/>
       <use x="83.398438" xlink:href="#ArialMT-48"/>
      </g>
     </g>
    </g>
   </g>
   <g id="patch_120">
    <path d="M 827.689655 315 
L 827.689655 191.454545 
" style="fill:none;stroke:#ffffff;stroke-linecap:square;stroke-linejoin:miter;stroke-width:1.25;"/>
   </g>
   <g id="patch_121">
    <path d="M 972 315 
L 972 191.454545 
" style="fill:none;stroke:#ffffff;stroke-linecap:square;stroke-linejoin:miter;stroke-width:1.25;"/>
   </g>
   <g id="patch_122">
    <path d="M 827.689655 315 
L 972 315 
" style="fill:none;stroke:#ffffff;stroke-linecap:square;stroke-linejoin:miter;stroke-width:1.25;"/>
   </g>
   <g id="patch_123">
    <path d="M 827.689655 191.454545 
L 972 191.454545 
" style="fill:none;stroke:#ffffff;stroke-linecap:square;stroke-linejoin:miter;stroke-width:1.25;"/>
   </g>
   <g id="text_21">
    <!-- 7 -->
    <g style="fill:#262626;" transform="translate(896.508265 185.454545)scale(0.12 -0.12)">
     <use xlink:href="#ArialMT-55"/>
    </g>
   </g>
  </g>
 </g>
 <defs>
  <clipPath id="pb81633fe51">
   <rect height="123.545455" width="144.310345" x="135" y="43.2"/>
  </clipPath>
  <clipPath id="p54b2ae5c49">
   <rect height="123.545455" width="144.310345" x="308.172414" y="43.2"/>
  </clipPath>
  <clipPath id="p5d2ca58cb4">
   <rect height="123.545455" width="144.310345" x="481.344828" y="43.2"/>
  </clipPath>
  <clipPath id="p9aa41e721f">
   <rect height="123.545455" width="144.310345" x="654.517241" y="43.2"/>
  </clipPath>
  <clipPath id="pe48d9782d2">
   <rect height="123.545455" width="144.310345" x="827.689655" y="43.2"/>
  </clipPath>
  <clipPath id="pd888d4e204">
   <rect height="123.545455" width="144.310345" x="135" y="191.454545"/>
  </clipPath>
  <clipPath id="p0c84a19625">
   <rect height="123.545455" width="144.310345" x="308.172414" y="191.454545"/>
  </clipPath>
  <clipPath id="p7df5f0456b">
   <rect height="123.545455" width="144.310345" x="481.344828" y="191.454545"/>
  </clipPath>
  <clipPath id="pf029e22034">
   <rect height="123.545455" width="144.310345" x="654.517241" y="191.454545"/>
  </clipPath>
  <clipPath id="p7aab8f9a2d">
   <rect height="123.545455" width="144.310345" x="827.689655" y="191.454545"/>
  </clipPath>
 </defs>
</svg>
