<?xml version="1.0" encoding="utf-8" standalone="no"?>
<!DOCTYPE svg PUBLIC "-//W3C//DTD SVG 1.1//EN"
  "http://www.w3.org/Graphics/SVG/1.1/DTD/svg11.dtd">
<!-- Created with matplotlib (https://matplotlib.org/) -->
<svg height="180pt" version="1.1" viewBox="0 0 1080 180" width="1080pt" xmlns="http://www.w3.org/2000/svg" xmlns:xlink="http://www.w3.org/1999/xlink">
 <defs>
  <style type="text/css">
*{stroke-linecap:butt;stroke-linejoin:round;}
  </style>
 </defs>
 <g id="figure_1">
  <g id="patch_1">
   <path d="M 0 180 
L 1080 180 
L 1080 0 
L 0 0 
z
" style="fill:#ffffff;"/>
  </g>
  <g id="axes_1">
   <g id="patch_2">
    <path d="M 135 157.5 
L 279.310345 157.5 
L 279.310345 21.6 
L 135 21.6 
z
" style="fill:#ffffff;"/>
   </g>
   <g id="patch_3">
    <path clip-path="url(#p97c06a0cd5)" d="M 231.436507 163.621622 
L 222.826105 163.621622 
" style="stroke:#000000;stroke-linejoin:miter;stroke-width:0.5;"/>
   </g>
   <g id="patch_4">
    <path clip-path="url(#p97c06a0cd5)" d="M 240.04691 163.621622 
L 231.436507 163.621622 
" style="stroke:#000000;stroke-linejoin:miter;stroke-width:0.5;"/>
   </g>
   <g id="patch_5">
    <path clip-path="url(#p97c06a0cd5)" d="M 248.657312 140.665541 
L 240.04691 163.621622 
" style="stroke:#000000;stroke-linejoin:miter;stroke-width:0.5;"/>
   </g>
   <g id="patch_6">
    <path clip-path="url(#p97c06a0cd5)" d="M 222.826105 133.013514 
L 214.215702 133.013514 
" style="stroke:#000000;stroke-linejoin:miter;stroke-width:0.5;"/>
   </g>
   <g id="patch_7">
    <path clip-path="url(#p97c06a0cd5)" d="M 231.436507 133.013514 
L 222.826105 133.013514 
" style="stroke:#000000;stroke-linejoin:miter;stroke-width:0.5;"/>
   </g>
   <g id="patch_8">
    <path clip-path="url(#p97c06a0cd5)" d="M 240.04691 117.709459 
L 231.436507 133.013514 
" style="stroke:#000000;stroke-linejoin:miter;stroke-width:0.5;"/>
   </g>
   <g id="patch_9">
    <path clip-path="url(#p97c06a0cd5)" d="M 188.384495 102.405405 
L 179.774093 102.405405 
" style="stroke:#000000;stroke-linejoin:miter;stroke-width:0.5;"/>
   </g>
   <g id="patch_10">
    <path clip-path="url(#p97c06a0cd5)" d="M 196.994898 102.405405 
L 188.384495 102.405405 
" style="stroke:#000000;stroke-linejoin:miter;stroke-width:0.5;"/>
   </g>
   <g id="patch_11">
    <path clip-path="url(#p97c06a0cd5)" d="M 205.6053 102.405405 
L 196.994898 102.405405 
" style="stroke:#000000;stroke-linejoin:miter;stroke-width:0.5;"/>
   </g>
   <g id="patch_12">
    <path clip-path="url(#p97c06a0cd5)" d="M 214.215702 102.405405 
L 205.6053 102.405405 
" style="stroke:#000000;stroke-linejoin:miter;stroke-width:0.5;"/>
   </g>
   <g id="patch_13">
    <path clip-path="url(#p97c06a0cd5)" d="M 222.826105 102.405405 
L 214.215702 102.405405 
" style="stroke:#000000;stroke-linejoin:miter;stroke-width:0.5;"/>
   </g>
   <g id="patch_14">
    <path clip-path="url(#p97c06a0cd5)" d="M 231.436507 102.405405 
L 222.826105 102.405405 
" style="stroke:#000000;stroke-linejoin:miter;stroke-width:0.5;"/>
   </g>
   <g id="patch_15">
    <path clip-path="url(#p97c06a0cd5)" d="M 240.04691 117.709459 
L 231.436507 102.405405 
" style="stroke:#000000;stroke-linejoin:miter;stroke-width:0.5;"/>
   </g>
   <g id="patch_16">
    <path clip-path="url(#p97c06a0cd5)" d="M 248.657312 140.665541 
L 240.04691 117.709459 
" style="stroke:#000000;stroke-linejoin:miter;stroke-width:0.5;"/>
   </g>
   <g id="patch_17">
    <path clip-path="url(#p97c06a0cd5)" d="M 257.267715 140.665541 
L 248.657312 140.665541 
" style="stroke:#000000;stroke-linejoin:miter;stroke-width:0.5;"/>
   </g>
   <g id="patch_18">
    <path clip-path="url(#p97c06a0cd5)" d="M 265.878117 140.665541 
L 257.267715 140.665541 
" style="stroke:#000000;stroke-linejoin:miter;stroke-width:0.5;"/>
   </g>
   <g id="patch_19">
    <path clip-path="url(#p97c06a0cd5)" d="M 265.878117 140.665541 
L 265.878117 125.361486 
" style="stroke:#000000;stroke-linejoin:miter;stroke-width:0.5;"/>
   </g>
   <g id="10ca2181bc1b4894b5e7e82942278c67-1-node">
    <path clip-path="url(#p97c06a0cd5)" d="M 267.341885 135.462162 
L 267.341885 145.868919 
L 264.414349 145.868919 
L 264.414349 135.462162 
L 267.341885 135.462162 
z
" style="fill:#0000ff;stroke:#ffffff;stroke-linejoin:miter;stroke-width:0.5;"/>
   </g>
   <g id="10ca2181bc1b4894b5e7e82942278c67-4-node">
    <path clip-path="url(#p97c06a0cd5)" d="M 258.731483 135.462162 
L 258.731483 145.868919 
L 255.803946 145.868919 
L 255.803946 135.462162 
L 258.731483 135.462162 
z
" style="fill:#0000ff;stroke:#ffffff;stroke-linejoin:miter;stroke-width:0.5;"/>
   </g>
   <g id="10ca2181bc1b4894b5e7e82942278c67-6-node">
    <path clip-path="url(#p97c06a0cd5)" d="M 248.657312 145.868919 
C 249.045508 145.868919 249.417857 145.320658 249.692353 144.344885 
C 249.966849 143.369111 250.121081 142.045493 250.121081 140.665541 
C 250.121081 139.285588 249.966849 137.96197 249.692353 136.986196 
C 249.417857 136.010423 249.045508 135.462162 248.657312 135.462162 
C 248.269116 135.462162 247.896768 136.010423 247.622272 136.986196 
C 247.347776 137.96197 247.193544 139.285588 247.193544 140.665541 
C 247.193544 142.045493 247.347776 143.369111 247.622272 144.344885 
C 247.896768 145.320658 248.269116 145.868919 248.657312 145.868919 
z
" style="fill:#00c832;stroke:#ffffff;stroke-linejoin:miter;stroke-width:0.5;"/>
   </g>
   <g id="10ca2181bc1b4894b5e7e82942278c67-24-node">
    <path clip-path="url(#p97c06a0cd5)" d="M 240.04691 168.825 
C 240.435106 168.825 240.807454 168.276739 241.08195 167.300966 
C 241.356446 166.325192 241.510678 165.001574 241.510678 163.621622 
C 241.510678 162.24167 241.356446 160.918051 241.08195 159.942277 
C 240.807454 158.966504 240.435106 158.418243 240.04691 158.418243 
C 239.658714 158.418243 239.286365 158.966504 239.011869 159.942277 
C 238.737373 160.918051 238.583141 162.24167 238.583141 163.621622 
C 238.583141 165.001574 238.737373 166.325192 239.011869 167.300966 
C 239.286365 168.276739 239.658714 168.825 240.04691 168.825 
z
" style="fill:#00c832;stroke:#ffffff;stroke-linejoin:miter;stroke-width:0.5;"/>
   </g>
   <g id="10ca2181bc1b4894b5e7e82942278c67-25-node">
    <path clip-path="url(#p97c06a0cd5)" d="M 232.900276 158.418243 
L 232.900276 168.825 
L 229.972739 168.825 
L 229.972739 158.418243 
L 232.900276 158.418243 
z
" style="fill:#0000ff;stroke:#ffffff;stroke-linejoin:miter;stroke-width:0.5;"/>
   </g>
   <g id="10ca2181bc1b4894b5e7e82942278c67-27-node">
    <path clip-path="url(#p97c06a0cd5)" d="M 222.826105 168.825 
C 223.214301 168.825 223.586649 168.276739 223.861145 167.300966 
C 224.135641 166.325192 224.289873 165.001574 224.289873 163.621622 
C 224.289873 162.24167 224.135641 160.918051 223.861145 159.942277 
C 223.586649 158.966504 223.214301 158.418243 222.826105 158.418243 
C 222.437909 158.418243 222.06556 158.966504 221.791064 159.942277 
C 221.516568 160.918051 221.362336 162.24167 221.362336 163.621622 
C 221.362336 165.001574 221.516568 166.325192 221.791064 167.300966 
C 222.06556 168.276739 222.437909 168.825 222.826105 168.825 
z
" style="fill:#ffff00;stroke:#ffffff;stroke-linejoin:miter;stroke-width:0.5;"/>
   </g>
   <g id="10ca2181bc1b4894b5e7e82942278c67-7-node">
    <path clip-path="url(#p97c06a0cd5)" d="M 240.04691 122.912838 
C 240.435106 122.912838 240.807454 122.364577 241.08195 121.388804 
C 241.356446 120.41303 241.510678 119.089412 241.510678 117.709459 
C 241.510678 116.329507 241.356446 115.005889 241.08195 114.030115 
C 240.807454 113.054342 240.435106 112.506081 240.04691 112.506081 
C 239.658714 112.506081 239.286365 113.054342 239.011869 114.030115 
C 238.737373 115.005889 238.583141 116.329507 238.583141 117.709459 
C 238.583141 119.089412 238.737373 120.41303 239.011869 121.388804 
C 239.286365 122.364577 239.658714 122.912838 240.04691 122.912838 
z
" style="fill:#00c832;stroke:#ffffff;stroke-linejoin:miter;stroke-width:0.5;"/>
   </g>
   <g id="10ca2181bc1b4894b5e7e82942278c67-19-node">
    <path clip-path="url(#p97c06a0cd5)" d="M 232.900276 127.810135 
L 232.900276 138.216892 
L 229.972739 138.216892 
L 229.972739 127.810135 
L 232.900276 127.810135 
z
" style="fill:#0000ff;stroke:#ffffff;stroke-linejoin:miter;stroke-width:0.5;"/>
   </g>
   <g id="10ca2181bc1b4894b5e7e82942278c67-21-node">
    <path clip-path="url(#p97c06a0cd5)" d="M 222.826105 138.216892 
C 223.214301 138.216892 223.586649 137.668631 223.861145 136.692858 
C 224.135641 135.717084 224.289873 134.393466 224.289873 133.013514 
C 224.289873 131.633561 224.135641 130.309943 223.861145 129.334169 
C 223.586649 128.358396 223.214301 127.810135 222.826105 127.810135 
C 222.437909 127.810135 222.06556 128.358396 221.791064 129.334169 
C 221.516568 130.309943 221.362336 131.633561 221.362336 133.013514 
C 221.362336 134.393466 221.516568 135.717084 221.791064 136.692858 
C 222.06556 137.668631 222.437909 138.216892 222.826105 138.216892 
z
" style="fill:#ffff00;stroke:#ffffff;stroke-linejoin:miter;stroke-width:0.5;"/>
   </g>
   <g id="10ca2181bc1b4894b5e7e82942278c67-22-node">
    <path clip-path="url(#p97c06a0cd5)" d="M 214.215702 127.810135 
L 212.751934 133.013514 
L 214.215702 138.216892 
L 215.679471 133.013514 
z
" style="fill:#c800c8;stroke:#ffffff;stroke-linejoin:miter;stroke-width:0.5;"/>
   </g>
   <g id="10ca2181bc1b4894b5e7e82942278c67-8-node">
    <path clip-path="url(#p97c06a0cd5)" d="M 232.900276 97.202027 
L 232.900276 107.608784 
L 229.972739 107.608784 
L 229.972739 97.202027 
L 232.900276 97.202027 
z
" style="fill:#0000ff;stroke:#ffffff;stroke-linejoin:miter;stroke-width:0.5;"/>
   </g>
   <g id="10ca2181bc1b4894b5e7e82942278c67-10-node">
    <path clip-path="url(#p97c06a0cd5)" d="M 222.826105 107.608784 
C 223.214301 107.608784 223.586649 107.060523 223.861145 106.08475 
C 224.135641 105.108976 224.289873 103.785357 224.289873 102.405405 
C 224.289873 101.025453 224.135641 99.701835 223.861145 98.726061 
C 223.586649 97.750288 223.214301 97.202027 222.826105 97.202027 
C 222.437909 97.202027 222.06556 97.750288 221.791064 98.726061 
C 221.516568 99.701835 221.362336 101.025453 221.362336 102.405405 
C 221.362336 103.785357 221.516568 105.108976 221.791064 106.08475 
C 222.06556 107.060523 222.437909 107.608784 222.826105 107.608784 
z
" style="fill:#ffff00;stroke:#ffffff;stroke-linejoin:miter;stroke-width:0.5;"/>
   </g>
   <g id="10ca2181bc1b4894b5e7e82942278c67-11-node">
    <path clip-path="url(#p97c06a0cd5)" d="M 215.679471 97.202027 
L 215.679471 107.608784 
L 212.751934 107.608784 
L 212.751934 97.202027 
L 215.679471 97.202027 
z
" style="fill:#0000ff;stroke:#ffffff;stroke-linejoin:miter;stroke-width:0.5;"/>
   </g>
   <g id="10ca2181bc1b4894b5e7e82942278c67-13-node">
    <path clip-path="url(#p97c06a0cd5)" d="M 205.6053 107.608784 
C 205.993496 107.608784 206.365845 107.060523 206.640341 106.08475 
C 206.914837 105.108976 207.069068 103.785357 207.069068 102.405405 
C 207.069068 101.025453 206.914837 99.701835 206.640341 98.726061 
C 206.365845 97.750288 205.993496 97.202027 205.6053 97.202027 
C 205.217104 97.202027 204.844755 97.750288 204.570259 98.726061 
C 204.295763 99.701835 204.141532 101.025453 204.141532 102.405405 
C 204.141532 103.785357 204.295763 105.108976 204.570259 106.08475 
C 204.844755 107.060523 205.217104 107.608784 205.6053 107.608784 
z
" style="fill:#ffff00;stroke:#ffffff;stroke-linejoin:miter;stroke-width:0.5;"/>
   </g>
   <g id="10ca2181bc1b4894b5e7e82942278c67-14-node">
    <path clip-path="url(#p97c06a0cd5)" d="M 198.458666 97.202027 
L 198.458666 107.608784 
L 195.531129 107.608784 
L 195.531129 97.202027 
L 198.458666 97.202027 
z
" style="fill:#0000ff;stroke:#ffffff;stroke-linejoin:miter;stroke-width:0.5;"/>
   </g>
   <g id="10ca2181bc1b4894b5e7e82942278c67-16-node">
    <path clip-path="url(#p97c06a0cd5)" d="M 188.384495 107.608784 
C 188.772691 107.608784 189.14504 107.060523 189.419536 106.08475 
C 189.694032 105.108976 189.848264 103.785357 189.848264 102.405405 
C 189.848264 101.025453 189.694032 99.701835 189.419536 98.726061 
C 189.14504 97.750288 188.772691 97.202027 188.384495 97.202027 
C 187.996299 97.202027 187.62395 97.750288 187.349455 98.726061 
C 187.074959 99.701835 186.920727 101.025453 186.920727 102.405405 
C 186.920727 103.785357 187.074959 105.108976 187.349455 106.08475 
C 187.62395 107.060523 187.996299 107.608784 188.384495 107.608784 
z
" style="fill:#ffff00;stroke:#ffffff;stroke-linejoin:miter;stroke-width:0.5;"/>
   </g>
   <g id="10ca2181bc1b4894b5e7e82942278c67-17-node">
    <path clip-path="url(#p97c06a0cd5)" d="M 179.774093 97.202027 
L 178.310324 102.405405 
L 179.774093 107.608784 
L 181.237861 102.405405 
z
" style="fill:#c800c8;stroke:#ffffff;stroke-linejoin:miter;stroke-width:0.5;"/>
   </g>
   <g id="10ca2181bc1b4894b5e7e82942278c67-3-node">
    <path clip-path="url(#p97c06a0cd5)" d="M 265.878117 120.158108 
L 264.610456 127.963176 
L 267.145778 127.963176 
z
" style="fill:#ff0000;stroke:#ffffff;stroke-linejoin:miter;stroke-width:0.5;"/>
   </g>
   <g id="patch_20">
    <path d="M 135 157.5 
L 135 21.6 
" style="fill:none;stroke:#ffffff;stroke-linecap:square;stroke-linejoin:miter;stroke-width:1.25;"/>
   </g>
   <g id="patch_21">
    <path d="M 279.310345 157.5 
L 279.310345 21.6 
" style="fill:none;stroke:#ffffff;stroke-linecap:square;stroke-linejoin:miter;stroke-width:1.25;"/>
   </g>
   <g id="patch_22">
    <path d="M 135 157.5 
L 279.310345 157.5 
" style="fill:none;stroke:#ffffff;stroke-linecap:square;stroke-linejoin:miter;stroke-width:1.25;"/>
   </g>
   <g id="patch_23">
    <path d="M 135 21.6 
L 279.310345 21.6 
" style="fill:none;stroke:#ffffff;stroke-linecap:square;stroke-linejoin:miter;stroke-width:1.25;"/>
   </g>
   <g id="text_1">
    <!-- 450:6.0 -->
    <defs>
     <path d="M 32.328125 0 
L 32.328125 17.140625 
L 1.265625 17.140625 
L 1.265625 25.203125 
L 33.9375 71.578125 
L 41.109375 71.578125 
L 41.109375 25.203125 
L 50.78125 25.203125 
L 50.78125 17.140625 
L 41.109375 17.140625 
L 41.109375 0 
z
M 32.328125 25.203125 
L 32.328125 57.46875 
L 9.90625 25.203125 
z
" id="ArialMT-52"/>
     <path d="M 4.15625 18.75 
L 13.375 19.53125 
Q 14.40625 12.796875 18.140625 9.390625 
Q 21.875 6 27.15625 6 
Q 33.5 6 37.890625 10.78125 
Q 42.28125 15.578125 42.28125 23.484375 
Q 42.28125 31 38.0625 35.34375 
Q 33.84375 39.703125 27 39.703125 
Q 22.75 39.703125 19.328125 37.765625 
Q 15.921875 35.84375 13.96875 32.765625 
L 5.71875 33.84375 
L 12.640625 70.609375 
L 48.25 70.609375 
L 48.25 62.203125 
L 19.671875 62.203125 
L 15.828125 42.96875 
Q 22.265625 47.46875 29.34375 47.46875 
Q 38.71875 47.46875 45.15625 40.96875 
Q 51.609375 34.46875 51.609375 24.265625 
Q 51.609375 14.546875 45.953125 7.46875 
Q 39.0625 -1.21875 27.15625 -1.21875 
Q 17.390625 -1.21875 11.203125 4.25 
Q 5.03125 9.71875 4.15625 18.75 
z
" id="ArialMT-53"/>
     <path d="M 4.15625 35.296875 
Q 4.15625 48 6.765625 55.734375 
Q 9.375 63.484375 14.515625 67.671875 
Q 19.671875 71.875 27.484375 71.875 
Q 33.25 71.875 37.59375 69.546875 
Q 41.9375 67.234375 44.765625 62.859375 
Q 47.609375 58.5 49.21875 52.21875 
Q 50.828125 45.953125 50.828125 35.296875 
Q 50.828125 22.703125 48.234375 14.96875 
Q 45.65625 7.234375 40.5 3 
Q 35.359375 -1.21875 27.484375 -1.21875 
Q 17.140625 -1.21875 11.234375 6.203125 
Q 4.15625 15.140625 4.15625 35.296875 
z
M 13.1875 35.296875 
Q 13.1875 17.671875 17.3125 11.828125 
Q 21.4375 6 27.484375 6 
Q 33.546875 6 37.671875 11.859375 
Q 41.796875 17.71875 41.796875 35.296875 
Q 41.796875 52.984375 37.671875 58.78125 
Q 33.546875 64.59375 27.390625 64.59375 
Q 21.34375 64.59375 17.71875 59.46875 
Q 13.1875 52.9375 13.1875 35.296875 
z
" id="ArialMT-48"/>
     <path d="M 9.03125 41.84375 
L 9.03125 51.859375 
L 19.046875 51.859375 
L 19.046875 41.84375 
z
M 9.03125 0 
L 9.03125 10.015625 
L 19.046875 10.015625 
L 19.046875 0 
z
" id="ArialMT-58"/>
     <path d="M 49.75 54.046875 
L 41.015625 53.375 
Q 39.84375 58.546875 37.703125 60.890625 
Q 34.125 64.65625 28.90625 64.65625 
Q 24.703125 64.65625 21.53125 62.3125 
Q 17.390625 59.28125 14.984375 53.46875 
Q 12.59375 47.65625 12.5 36.921875 
Q 15.671875 41.75 20.265625 44.09375 
Q 24.859375 46.4375 29.890625 46.4375 
Q 38.671875 46.4375 44.84375 39.96875 
Q 51.03125 33.5 51.03125 23.25 
Q 51.03125 16.5 48.125 10.71875 
Q 45.21875 4.9375 40.140625 1.859375 
Q 35.0625 -1.21875 28.609375 -1.21875 
Q 17.625 -1.21875 10.6875 6.859375 
Q 3.765625 14.9375 3.765625 33.5 
Q 3.765625 54.25 11.421875 63.671875 
Q 18.109375 71.875 29.4375 71.875 
Q 37.890625 71.875 43.28125 67.140625 
Q 48.6875 62.40625 49.75 54.046875 
z
M 13.875 23.1875 
Q 13.875 18.65625 15.796875 14.5 
Q 17.71875 10.359375 21.1875 8.171875 
Q 24.65625 6 28.46875 6 
Q 34.03125 6 38.03125 10.484375 
Q 42.046875 14.984375 42.046875 22.703125 
Q 42.046875 30.125 38.078125 34.390625 
Q 34.125 38.671875 28.125 38.671875 
Q 22.171875 38.671875 18.015625 34.390625 
Q 13.875 30.125 13.875 23.1875 
z
" id="ArialMT-54"/>
     <path d="M 9.078125 0 
L 9.078125 10.015625 
L 19.09375 10.015625 
L 19.09375 0 
z
" id="ArialMT-46"/>
    </defs>
    <g style="fill:#262626;" transform="translate(187.13861 15.6)scale(0.12 -0.12)">
     <use xlink:href="#ArialMT-52"/>
     <use x="55.615234" xlink:href="#ArialMT-53"/>
     <use x="111.230469" xlink:href="#ArialMT-48"/>
     <use x="166.845703" xlink:href="#ArialMT-58"/>
     <use x="194.628906" xlink:href="#ArialMT-54"/>
     <use x="250.244141" xlink:href="#ArialMT-46"/>
     <use x="278.027344" xlink:href="#ArialMT-48"/>
    </g>
   </g>
  </g>
  <g id="axes_2">
   <g id="patch_24">
    <path d="M 308.172414 157.5 
L 452.482759 157.5 
L 452.482759 21.6 
L 308.172414 21.6 
z
" style="fill:#ffffff;"/>
   </g>
   <g id="patch_25">
    <path clip-path="url(#p30a19d56d4)" d="M 395.998519 163.621622 
L 387.388116 163.621622 
" style="stroke:#000000;stroke-linejoin:miter;stroke-width:0.5;"/>
   </g>
   <g id="patch_26">
    <path clip-path="url(#p30a19d56d4)" d="M 404.608921 163.621622 
L 395.998519 163.621622 
" style="stroke:#000000;stroke-linejoin:miter;stroke-width:0.5;"/>
   </g>
   <g id="patch_27">
    <path clip-path="url(#p30a19d56d4)" d="M 413.219324 163.621622 
L 404.608921 163.621622 
" style="stroke:#000000;stroke-linejoin:miter;stroke-width:0.5;"/>
   </g>
   <g id="patch_28">
    <path clip-path="url(#p30a19d56d4)" d="M 421.829726 140.665541 
L 413.219324 163.621622 
" style="stroke:#000000;stroke-linejoin:miter;stroke-width:0.5;"/>
   </g>
   <g id="patch_29">
    <path clip-path="url(#p30a19d56d4)" d="M 395.998519 133.013514 
L 387.388116 133.013514 
" style="stroke:#000000;stroke-linejoin:miter;stroke-width:0.5;"/>
   </g>
   <g id="patch_30">
    <path clip-path="url(#p30a19d56d4)" d="M 404.608921 133.013514 
L 395.998519 133.013514 
" style="stroke:#000000;stroke-linejoin:miter;stroke-width:0.5;"/>
   </g>
   <g id="patch_31">
    <path clip-path="url(#p30a19d56d4)" d="M 413.219324 117.709459 
L 404.608921 133.013514 
" style="stroke:#000000;stroke-linejoin:miter;stroke-width:0.5;"/>
   </g>
   <g id="patch_32">
    <path clip-path="url(#p30a19d56d4)" d="M 361.556909 102.405405 
L 352.946506 102.405405 
" style="stroke:#000000;stroke-linejoin:miter;stroke-width:0.5;"/>
   </g>
   <g id="patch_33">
    <path clip-path="url(#p30a19d56d4)" d="M 370.167311 102.405405 
L 361.556909 102.405405 
" style="stroke:#000000;stroke-linejoin:miter;stroke-width:0.5;"/>
   </g>
   <g id="patch_34">
    <path clip-path="url(#p30a19d56d4)" d="M 378.777714 102.405405 
L 370.167311 102.405405 
" style="stroke:#000000;stroke-linejoin:miter;stroke-width:0.5;"/>
   </g>
   <g id="patch_35">
    <path clip-path="url(#p30a19d56d4)" d="M 387.388116 102.405405 
L 378.777714 102.405405 
" style="stroke:#000000;stroke-linejoin:miter;stroke-width:0.5;"/>
   </g>
   <g id="patch_36">
    <path clip-path="url(#p30a19d56d4)" d="M 395.998519 102.405405 
L 387.388116 102.405405 
" style="stroke:#000000;stroke-linejoin:miter;stroke-width:0.5;"/>
   </g>
   <g id="patch_37">
    <path clip-path="url(#p30a19d56d4)" d="M 404.608921 102.405405 
L 395.998519 102.405405 
" style="stroke:#000000;stroke-linejoin:miter;stroke-width:0.5;"/>
   </g>
   <g id="patch_38">
    <path clip-path="url(#p30a19d56d4)" d="M 413.219324 117.709459 
L 404.608921 102.405405 
" style="stroke:#000000;stroke-linejoin:miter;stroke-width:0.5;"/>
   </g>
   <g id="patch_39">
    <path clip-path="url(#p30a19d56d4)" d="M 421.829726 140.665541 
L 413.219324 117.709459 
" style="stroke:#000000;stroke-linejoin:miter;stroke-width:0.5;"/>
   </g>
   <g id="patch_40">
    <path clip-path="url(#p30a19d56d4)" d="M 430.440128 140.665541 
L 421.829726 140.665541 
" style="stroke:#000000;stroke-linejoin:miter;stroke-width:0.5;"/>
   </g>
   <g id="patch_41">
    <path clip-path="url(#p30a19d56d4)" d="M 439.050531 140.665541 
L 430.440128 140.665541 
" style="stroke:#000000;stroke-linejoin:miter;stroke-width:0.5;"/>
   </g>
   <g id="patch_42">
    <path clip-path="url(#p30a19d56d4)" d="M 439.050531 140.665541 
L 439.050531 125.361486 
" style="stroke:#000000;stroke-linejoin:miter;stroke-width:0.5;"/>
   </g>
   <g id="cfbcc2b7c9f0426a82d45c663177454a-1-node">
    <path clip-path="url(#p30a19d56d4)" d="M 440.514299 135.462162 
L 440.514299 145.868919 
L 437.586762 145.868919 
L 437.586762 135.462162 
L 440.514299 135.462162 
z
" style="fill:#0000ff;stroke:#ffffff;stroke-linejoin:miter;stroke-width:0.5;"/>
   </g>
   <g id="cfbcc2b7c9f0426a82d45c663177454a-4-node">
    <path clip-path="url(#p30a19d56d4)" d="M 431.903897 135.462162 
L 431.903897 145.868919 
L 428.97636 145.868919 
L 428.97636 135.462162 
L 431.903897 135.462162 
z
" style="fill:#0000ff;stroke:#ffffff;stroke-linejoin:miter;stroke-width:0.5;"/>
   </g>
   <g id="cfbcc2b7c9f0426a82d45c663177454a-6-node">
    <path clip-path="url(#p30a19d56d4)" d="M 421.829726 145.868919 
C 422.217922 145.868919 422.590271 145.320658 422.864767 144.344885 
C 423.139262 143.369111 423.293494 142.045493 423.293494 140.665541 
C 423.293494 139.285588 423.139262 137.96197 422.864767 136.986196 
C 422.590271 136.010423 422.217922 135.462162 421.829726 135.462162 
C 421.44153 135.462162 421.069181 136.010423 420.794685 136.986196 
C 420.520189 137.96197 420.365958 139.285588 420.365958 140.665541 
C 420.365958 142.045493 420.520189 143.369111 420.794685 144.344885 
C 421.069181 145.320658 421.44153 145.868919 421.829726 145.868919 
z
" style="fill:#00c832;stroke:#ffffff;stroke-linejoin:miter;stroke-width:0.5;"/>
   </g>
   <g id="cfbcc2b7c9f0426a82d45c663177454a-24-node">
    <path clip-path="url(#p30a19d56d4)" d="M 413.219324 168.825 
C 413.607519 168.825 413.979868 168.276739 414.254364 167.300966 
C 414.52886 166.325192 414.683092 165.001574 414.683092 163.621622 
C 414.683092 162.24167 414.52886 160.918051 414.254364 159.942277 
C 413.979868 158.966504 413.607519 158.418243 413.219324 158.418243 
C 412.831128 158.418243 412.458779 158.966504 412.184283 159.942277 
C 411.909787 160.918051 411.755555 162.24167 411.755555 163.621622 
C 411.755555 165.001574 411.909787 166.325192 412.184283 167.300966 
C 412.458779 168.276739 412.831128 168.825 413.219324 168.825 
z
" style="fill:#00c832;stroke:#ffffff;stroke-linejoin:miter;stroke-width:0.5;"/>
   </g>
   <g id="cfbcc2b7c9f0426a82d45c663177454a-25-node">
    <path clip-path="url(#p30a19d56d4)" d="M 406.072689 158.418243 
L 406.072689 168.825 
L 403.145153 168.825 
L 403.145153 158.418243 
L 406.072689 158.418243 
z
" style="fill:#0000ff;stroke:#ffffff;stroke-linejoin:miter;stroke-width:0.5;"/>
   </g>
   <g id="cfbcc2b7c9f0426a82d45c663177454a-27-node">
    <path clip-path="url(#p30a19d56d4)" d="M 395.998519 168.825 
C 396.386715 168.825 396.759063 168.276739 397.033559 167.300966 
C 397.308055 166.325192 397.462287 165.001574 397.462287 163.621622 
C 397.462287 162.24167 397.308055 160.918051 397.033559 159.942277 
C 396.759063 158.966504 396.386715 158.418243 395.998519 158.418243 
C 395.610323 158.418243 395.237974 158.966504 394.963478 159.942277 
C 394.688982 160.918051 394.53475 162.24167 394.53475 163.621622 
C 394.53475 165.001574 394.688982 166.325192 394.963478 167.300966 
C 395.237974 168.276739 395.610323 168.825 395.998519 168.825 
z
" style="fill:#ffff00;stroke:#ffffff;stroke-linejoin:miter;stroke-width:0.5;"/>
   </g>
   <g id="cfbcc2b7c9f0426a82d45c663177454a-28-node">
    <path clip-path="url(#p30a19d56d4)" d="M 387.388116 158.418243 
L 385.924348 163.621622 
L 387.388116 168.825 
L 388.851885 163.621622 
z
" style="fill:#c800c8;stroke:#ffffff;stroke-linejoin:miter;stroke-width:0.5;"/>
   </g>
   <g id="cfbcc2b7c9f0426a82d45c663177454a-7-node">
    <path clip-path="url(#p30a19d56d4)" d="M 413.219324 122.912838 
C 413.607519 122.912838 413.979868 122.364577 414.254364 121.388804 
C 414.52886 120.41303 414.683092 119.089412 414.683092 117.709459 
C 414.683092 116.329507 414.52886 115.005889 414.254364 114.030115 
C 413.979868 113.054342 413.607519 112.506081 413.219324 112.506081 
C 412.831128 112.506081 412.458779 113.054342 412.184283 114.030115 
C 411.909787 115.005889 411.755555 116.329507 411.755555 117.709459 
C 411.755555 119.089412 411.909787 120.41303 412.184283 121.388804 
C 412.458779 122.364577 412.831128 122.912838 413.219324 122.912838 
z
" style="fill:#00c832;stroke:#ffffff;stroke-linejoin:miter;stroke-width:0.5;"/>
   </g>
   <g id="cfbcc2b7c9f0426a82d45c663177454a-19-node">
    <path clip-path="url(#p30a19d56d4)" d="M 406.072689 127.810135 
L 406.072689 138.216892 
L 403.145153 138.216892 
L 403.145153 127.810135 
L 406.072689 127.810135 
z
" style="fill:#0000ff;stroke:#ffffff;stroke-linejoin:miter;stroke-width:0.5;"/>
   </g>
   <g id="cfbcc2b7c9f0426a82d45c663177454a-21-node">
    <path clip-path="url(#p30a19d56d4)" d="M 395.998519 138.216892 
C 396.386715 138.216892 396.759063 137.668631 397.033559 136.692858 
C 397.308055 135.717084 397.462287 134.393466 397.462287 133.013514 
C 397.462287 131.633561 397.308055 130.309943 397.033559 129.334169 
C 396.759063 128.358396 396.386715 127.810135 395.998519 127.810135 
C 395.610323 127.810135 395.237974 128.358396 394.963478 129.334169 
C 394.688982 130.309943 394.53475 131.633561 394.53475 133.013514 
C 394.53475 134.393466 394.688982 135.717084 394.963478 136.692858 
C 395.237974 137.668631 395.610323 138.216892 395.998519 138.216892 
z
" style="fill:#ffff00;stroke:#ffffff;stroke-linejoin:miter;stroke-width:0.5;"/>
   </g>
   <g id="cfbcc2b7c9f0426a82d45c663177454a-22-node">
    <path clip-path="url(#p30a19d56d4)" d="M 387.388116 127.810135 
L 385.924348 133.013514 
L 387.388116 138.216892 
L 388.851885 133.013514 
z
" style="fill:#c800c8;stroke:#ffffff;stroke-linejoin:miter;stroke-width:0.5;"/>
   </g>
   <g id="cfbcc2b7c9f0426a82d45c663177454a-8-node">
    <path clip-path="url(#p30a19d56d4)" d="M 406.072689 97.202027 
L 406.072689 107.608784 
L 403.145153 107.608784 
L 403.145153 97.202027 
L 406.072689 97.202027 
z
" style="fill:#0000ff;stroke:#ffffff;stroke-linejoin:miter;stroke-width:0.5;"/>
   </g>
   <g id="cfbcc2b7c9f0426a82d45c663177454a-10-node">
    <path clip-path="url(#p30a19d56d4)" d="M 395.998519 107.608784 
C 396.386715 107.608784 396.759063 107.060523 397.033559 106.08475 
C 397.308055 105.108976 397.462287 103.785357 397.462287 102.405405 
C 397.462287 101.025453 397.308055 99.701835 397.033559 98.726061 
C 396.759063 97.750288 396.386715 97.202027 395.998519 97.202027 
C 395.610323 97.202027 395.237974 97.750288 394.963478 98.726061 
C 394.688982 99.701835 394.53475 101.025453 394.53475 102.405405 
C 394.53475 103.785357 394.688982 105.108976 394.963478 106.08475 
C 395.237974 107.060523 395.610323 107.608784 395.998519 107.608784 
z
" style="fill:#ffff00;stroke:#ffffff;stroke-linejoin:miter;stroke-width:0.5;"/>
   </g>
   <g id="cfbcc2b7c9f0426a82d45c663177454a-11-node">
    <path clip-path="url(#p30a19d56d4)" d="M 388.851885 97.202027 
L 388.851885 107.608784 
L 385.924348 107.608784 
L 385.924348 97.202027 
L 388.851885 97.202027 
z
" style="fill:#0000ff;stroke:#ffffff;stroke-linejoin:miter;stroke-width:0.5;"/>
   </g>
   <g id="cfbcc2b7c9f0426a82d45c663177454a-13-node">
    <path clip-path="url(#p30a19d56d4)" d="M 378.777714 107.608784 
C 379.16591 107.608784 379.538258 107.060523 379.812754 106.08475 
C 380.08725 105.108976 380.241482 103.785357 380.241482 102.405405 
C 380.241482 101.025453 380.08725 99.701835 379.812754 98.726061 
C 379.538258 97.750288 379.16591 97.202027 378.777714 97.202027 
C 378.389518 97.202027 378.017169 97.750288 377.742673 98.726061 
C 377.468177 99.701835 377.313945 101.025453 377.313945 102.405405 
C 377.313945 103.785357 377.468177 105.108976 377.742673 106.08475 
C 378.017169 107.060523 378.389518 107.608784 378.777714 107.608784 
z
" style="fill:#ffff00;stroke:#ffffff;stroke-linejoin:miter;stroke-width:0.5;"/>
   </g>
   <g id="cfbcc2b7c9f0426a82d45c663177454a-14-node">
    <path clip-path="url(#p30a19d56d4)" d="M 371.63108 97.202027 
L 371.63108 107.608784 
L 368.703543 107.608784 
L 368.703543 97.202027 
L 371.63108 97.202027 
z
" style="fill:#0000ff;stroke:#ffffff;stroke-linejoin:miter;stroke-width:0.5;"/>
   </g>
   <g id="cfbcc2b7c9f0426a82d45c663177454a-16-node">
    <path clip-path="url(#p30a19d56d4)" d="M 361.556909 107.608784 
C 361.945105 107.608784 362.317453 107.060523 362.591949 106.08475 
C 362.866445 105.108976 363.020677 103.785357 363.020677 102.405405 
C 363.020677 101.025453 362.866445 99.701835 362.591949 98.726061 
C 362.317453 97.750288 361.945105 97.202027 361.556909 97.202027 
C 361.168713 97.202027 360.796364 97.750288 360.521868 98.726061 
C 360.247372 99.701835 360.09314 101.025453 360.09314 102.405405 
C 360.09314 103.785357 360.247372 105.108976 360.521868 106.08475 
C 360.796364 107.060523 361.168713 107.608784 361.556909 107.608784 
z
" style="fill:#ffff00;stroke:#ffffff;stroke-linejoin:miter;stroke-width:0.5;"/>
   </g>
   <g id="cfbcc2b7c9f0426a82d45c663177454a-17-node">
    <path clip-path="url(#p30a19d56d4)" d="M 352.946506 97.202027 
L 351.482738 102.405405 
L 352.946506 107.608784 
L 354.410275 102.405405 
z
" style="fill:#c800c8;stroke:#ffffff;stroke-linejoin:miter;stroke-width:0.5;"/>
   </g>
   <g id="cfbcc2b7c9f0426a82d45c663177454a-3-node">
    <path clip-path="url(#p30a19d56d4)" d="M 439.050531 120.158108 
L 437.78287 127.963176 
L 440.318191 127.963176 
z
" style="fill:#ff0000;stroke:#ffffff;stroke-linejoin:miter;stroke-width:0.5;"/>
   </g>
   <g id="patch_43">
    <path d="M 308.172414 157.5 
L 308.172414 21.6 
" style="fill:none;stroke:#ffffff;stroke-linecap:square;stroke-linejoin:miter;stroke-width:1.25;"/>
   </g>
   <g id="patch_44">
    <path d="M 452.482759 157.5 
L 452.482759 21.6 
" style="fill:none;stroke:#ffffff;stroke-linecap:square;stroke-linejoin:miter;stroke-width:1.25;"/>
   </g>
   <g id="patch_45">
    <path d="M 308.172414 157.5 
L 452.482759 157.5 
" style="fill:none;stroke:#ffffff;stroke-linecap:square;stroke-linejoin:miter;stroke-width:1.25;"/>
   </g>
   <g id="patch_46">
    <path d="M 308.172414 21.6 
L 452.482759 21.6 
" style="fill:none;stroke:#ffffff;stroke-linecap:square;stroke-linejoin:miter;stroke-width:1.25;"/>
   </g>
   <g id="text_2">
    <!-- 492:9.0 -->
    <defs>
     <path d="M 5.46875 16.546875 
L 13.921875 17.328125 
Q 14.984375 11.375 18.015625 8.6875 
Q 21.046875 6 25.78125 6 
Q 29.828125 6 32.875 7.859375 
Q 35.9375 9.71875 37.890625 12.8125 
Q 39.84375 15.921875 41.15625 21.1875 
Q 42.484375 26.46875 42.484375 31.9375 
Q 42.484375 32.515625 42.4375 33.6875 
Q 39.796875 29.5 35.234375 26.875 
Q 30.671875 24.265625 25.34375 24.265625 
Q 16.453125 24.265625 10.296875 30.703125 
Q 4.15625 37.15625 4.15625 47.703125 
Q 4.15625 58.59375 10.578125 65.234375 
Q 17 71.875 26.65625 71.875 
Q 33.640625 71.875 39.421875 68.109375 
Q 45.21875 64.359375 48.21875 57.390625 
Q 51.21875 50.4375 51.21875 37.25 
Q 51.21875 23.53125 48.234375 15.40625 
Q 45.265625 7.28125 39.375 3.03125 
Q 33.5 -1.21875 25.59375 -1.21875 
Q 17.1875 -1.21875 11.859375 3.4375 
Q 6.546875 8.109375 5.46875 16.546875 
z
M 41.453125 48.140625 
Q 41.453125 55.71875 37.421875 60.15625 
Q 33.40625 64.59375 27.734375 64.59375 
Q 21.875 64.59375 17.53125 59.8125 
Q 13.1875 55.03125 13.1875 47.40625 
Q 13.1875 40.578125 17.3125 36.296875 
Q 21.4375 32.03125 27.484375 32.03125 
Q 33.59375 32.03125 37.515625 36.296875 
Q 41.453125 40.578125 41.453125 48.140625 
z
" id="ArialMT-57"/>
     <path d="M 50.34375 8.453125 
L 50.34375 0 
L 3.03125 0 
Q 2.9375 3.171875 4.046875 6.109375 
Q 5.859375 10.9375 9.828125 15.625 
Q 13.8125 20.3125 21.34375 26.46875 
Q 33.015625 36.03125 37.109375 41.625 
Q 41.21875 47.21875 41.21875 52.203125 
Q 41.21875 57.421875 37.46875 61 
Q 33.734375 64.59375 27.734375 64.59375 
Q 21.390625 64.59375 17.578125 60.78125 
Q 13.765625 56.984375 13.71875 50.25 
L 4.6875 51.171875 
Q 5.609375 61.28125 11.65625 66.578125 
Q 17.71875 71.875 27.9375 71.875 
Q 38.234375 71.875 44.234375 66.15625 
Q 50.25 60.453125 50.25 52 
Q 50.25 47.703125 48.484375 43.546875 
Q 46.734375 39.40625 42.65625 34.8125 
Q 38.578125 30.21875 29.109375 22.21875 
Q 21.1875 15.578125 18.9375 13.203125 
Q 16.703125 10.84375 15.234375 8.453125 
z
" id="ArialMT-50"/>
    </defs>
    <g style="fill:#262626;" transform="translate(360.311024 15.6)scale(0.12 -0.12)">
     <use xlink:href="#ArialMT-52"/>
     <use x="55.615234" xlink:href="#ArialMT-57"/>
     <use x="111.230469" xlink:href="#ArialMT-50"/>
     <use x="166.845703" xlink:href="#ArialMT-58"/>
     <use x="194.628906" xlink:href="#ArialMT-57"/>
     <use x="250.244141" xlink:href="#ArialMT-46"/>
     <use x="278.027344" xlink:href="#ArialMT-48"/>
    </g>
   </g>
  </g>
  <g id="axes_3">
   <g id="patch_47">
    <path d="M 481.344828 157.5 
L 625.655172 157.5 
L 625.655172 21.6 
L 481.344828 21.6 
z
" style="fill:#eaeaf2;"/>
   </g>
   <g id="matplotlib.axis_1">
    <g id="xtick_1">
     <g id="line2d_1">
      <path clip-path="url(#pc7b9da65e0)" d="M 481.344828 157.5 
L 481.344828 21.6 
" style="fill:none;stroke:#ffffff;stroke-linecap:round;"/>
     </g>
     <g id="text_3">
      <!-- 0.00 -->
      <g style="fill:#262626;" transform="translate(470.641312 174.873594)scale(0.11 -0.11)">
       <use xlink:href="#ArialMT-48"/>
       <use x="55.615234" xlink:href="#ArialMT-46"/>
       <use x="83.398438" xlink:href="#ArialMT-48"/>
       <use x="139.013672" xlink:href="#ArialMT-48"/>
      </g>
     </g>
    </g>
    <g id="xtick_2">
     <g id="line2d_2">
      <path clip-path="url(#pc7b9da65e0)" d="M 517.422414 157.5 
L 517.422414 21.6 
" style="fill:none;stroke:#ffffff;stroke-linecap:round;"/>
     </g>
     <g id="text_4">
      <!-- 0.25 -->
      <g style="fill:#262626;" transform="translate(506.718898 174.873594)scale(0.11 -0.11)">
       <use xlink:href="#ArialMT-48"/>
       <use x="55.615234" xlink:href="#ArialMT-46"/>
       <use x="83.398438" xlink:href="#ArialMT-50"/>
       <use x="139.013672" xlink:href="#ArialMT-53"/>
      </g>
     </g>
    </g>
    <g id="xtick_3">
     <g id="line2d_3">
      <path clip-path="url(#pc7b9da65e0)" d="M 553.5 157.5 
L 553.5 21.6 
" style="fill:none;stroke:#ffffff;stroke-linecap:round;"/>
     </g>
     <g id="text_5">
      <!-- 0.50 -->
      <g style="fill:#262626;" transform="translate(542.796484 174.873594)scale(0.11 -0.11)">
       <use xlink:href="#ArialMT-48"/>
       <use x="55.615234" xlink:href="#ArialMT-46"/>
       <use x="83.398438" xlink:href="#ArialMT-53"/>
       <use x="139.013672" xlink:href="#ArialMT-48"/>
      </g>
     </g>
    </g>
    <g id="xtick_4">
     <g id="line2d_4">
      <path clip-path="url(#pc7b9da65e0)" d="M 589.577586 157.5 
L 589.577586 21.6 
" style="fill:none;stroke:#ffffff;stroke-linecap:round;"/>
     </g>
     <g id="text_6">
      <!-- 0.75 -->
      <defs>
       <path d="M 4.734375 62.203125 
L 4.734375 70.65625 
L 51.078125 70.65625 
L 51.078125 63.8125 
Q 44.234375 56.546875 37.515625 44.484375 
Q 30.8125 32.421875 27.15625 19.671875 
Q 24.515625 10.6875 23.78125 0 
L 14.75 0 
Q 14.890625 8.453125 18.0625 20.40625 
Q 21.234375 32.375 27.171875 43.484375 
Q 33.109375 54.59375 39.796875 62.203125 
z
" id="ArialMT-55"/>
      </defs>
      <g style="fill:#262626;" transform="translate(578.874071 174.873594)scale(0.11 -0.11)">
       <use xlink:href="#ArialMT-48"/>
       <use x="55.615234" xlink:href="#ArialMT-46"/>
       <use x="83.398438" xlink:href="#ArialMT-55"/>
       <use x="139.013672" xlink:href="#ArialMT-53"/>
      </g>
     </g>
    </g>
    <g id="xtick_5">
     <g id="line2d_5">
      <path clip-path="url(#pc7b9da65e0)" d="M 625.655172 157.5 
L 625.655172 21.6 
" style="fill:none;stroke:#ffffff;stroke-linecap:round;"/>
     </g>
     <g id="text_7">
      <!-- 1.00 -->
      <defs>
       <path d="M 37.25 0 
L 28.46875 0 
L 28.46875 56 
Q 25.296875 52.984375 20.140625 49.953125 
Q 14.984375 46.921875 10.890625 45.40625 
L 10.890625 53.90625 
Q 18.265625 57.375 23.78125 62.296875 
Q 29.296875 67.234375 31.59375 71.875 
L 37.25 71.875 
z
" id="ArialMT-49"/>
      </defs>
      <g style="fill:#262626;" transform="translate(614.951657 174.873594)scale(0.11 -0.11)">
       <use xlink:href="#ArialMT-49"/>
       <use x="55.615234" xlink:href="#ArialMT-46"/>
       <use x="83.398438" xlink:href="#ArialMT-48"/>
       <use x="139.013672" xlink:href="#ArialMT-48"/>
      </g>
     </g>
    </g>
   </g>
   <g id="matplotlib.axis_2">
    <g id="ytick_1">
     <g id="line2d_6">
      <path clip-path="url(#pc7b9da65e0)" d="M 481.344828 157.5 
L 625.655172 157.5 
" style="fill:none;stroke:#ffffff;stroke-linecap:round;"/>
     </g>
     <g id="text_8">
      <!-- 0.0 -->
      <g style="fill:#262626;" transform="translate(456.554828 161.436797)scale(0.11 -0.11)">
       <use xlink:href="#ArialMT-48"/>
       <use x="55.615234" xlink:href="#ArialMT-46"/>
       <use x="83.398438" xlink:href="#ArialMT-48"/>
      </g>
     </g>
    </g>
    <g id="ytick_2">
     <g id="line2d_7">
      <path clip-path="url(#pc7b9da65e0)" d="M 481.344828 130.32 
L 625.655172 130.32 
" style="fill:none;stroke:#ffffff;stroke-linecap:round;"/>
     </g>
     <g id="text_9">
      <!-- 0.2 -->
      <g style="fill:#262626;" transform="translate(456.554828 134.256797)scale(0.11 -0.11)">
       <use xlink:href="#ArialMT-48"/>
       <use x="55.615234" xlink:href="#ArialMT-46"/>
       <use x="83.398438" xlink:href="#ArialMT-50"/>
      </g>
     </g>
    </g>
    <g id="ytick_3">
     <g id="line2d_8">
      <path clip-path="url(#pc7b9da65e0)" d="M 481.344828 103.14 
L 625.655172 103.14 
" style="fill:none;stroke:#ffffff;stroke-linecap:round;"/>
     </g>
     <g id="text_10">
      <!-- 0.4 -->
      <g style="fill:#262626;" transform="translate(456.554828 107.076797)scale(0.11 -0.11)">
       <use xlink:href="#ArialMT-48"/>
       <use x="55.615234" xlink:href="#ArialMT-46"/>
       <use x="83.398438" xlink:href="#ArialMT-52"/>
      </g>
     </g>
    </g>
    <g id="ytick_4">
     <g id="line2d_9">
      <path clip-path="url(#pc7b9da65e0)" d="M 481.344828 75.96 
L 625.655172 75.96 
" style="fill:none;stroke:#ffffff;stroke-linecap:round;"/>
     </g>
     <g id="text_11">
      <!-- 0.6 -->
      <g style="fill:#262626;" transform="translate(456.554828 79.896797)scale(0.11 -0.11)">
       <use xlink:href="#ArialMT-48"/>
       <use x="55.615234" xlink:href="#ArialMT-46"/>
       <use x="83.398438" xlink:href="#ArialMT-54"/>
      </g>
     </g>
    </g>
    <g id="ytick_5">
     <g id="line2d_10">
      <path clip-path="url(#pc7b9da65e0)" d="M 481.344828 48.78 
L 625.655172 48.78 
" style="fill:none;stroke:#ffffff;stroke-linecap:round;"/>
     </g>
     <g id="text_12">
      <!-- 0.8 -->
      <defs>
       <path d="M 17.671875 38.8125 
Q 12.203125 40.828125 9.5625 44.53125 
Q 6.9375 48.25 6.9375 53.421875 
Q 6.9375 61.234375 12.546875 66.546875 
Q 18.171875 71.875 27.484375 71.875 
Q 36.859375 71.875 42.578125 66.421875 
Q 48.296875 60.984375 48.296875 53.171875 
Q 48.296875 48.1875 45.671875 44.5 
Q 43.0625 40.828125 37.75 38.8125 
Q 44.34375 36.671875 47.78125 31.875 
Q 51.21875 27.09375 51.21875 20.453125 
Q 51.21875 11.28125 44.71875 5.03125 
Q 38.234375 -1.21875 27.640625 -1.21875 
Q 17.046875 -1.21875 10.546875 5.046875 
Q 4.046875 11.328125 4.046875 20.703125 
Q 4.046875 27.6875 7.59375 32.390625 
Q 11.140625 37.109375 17.671875 38.8125 
z
M 15.921875 53.71875 
Q 15.921875 48.640625 19.1875 45.40625 
Q 22.46875 42.1875 27.6875 42.1875 
Q 32.765625 42.1875 36.015625 45.375 
Q 39.265625 48.578125 39.265625 53.21875 
Q 39.265625 58.0625 35.90625 61.359375 
Q 32.5625 64.65625 27.59375 64.65625 
Q 22.5625 64.65625 19.234375 61.421875 
Q 15.921875 58.203125 15.921875 53.71875 
z
M 13.09375 20.65625 
Q 13.09375 16.890625 14.875 13.375 
Q 16.65625 9.859375 20.171875 7.921875 
Q 23.6875 6 27.734375 6 
Q 34.03125 6 38.125 10.046875 
Q 42.234375 14.109375 42.234375 20.359375 
Q 42.234375 26.703125 38.015625 30.859375 
Q 33.796875 35.015625 27.4375 35.015625 
Q 21.234375 35.015625 17.15625 30.90625 
Q 13.09375 26.8125 13.09375 20.65625 
z
" id="ArialMT-56"/>
      </defs>
      <g style="fill:#262626;" transform="translate(456.554828 52.716797)scale(0.11 -0.11)">
       <use xlink:href="#ArialMT-48"/>
       <use x="55.615234" xlink:href="#ArialMT-46"/>
       <use x="83.398438" xlink:href="#ArialMT-56"/>
      </g>
     </g>
    </g>
    <g id="ytick_6">
     <g id="line2d_11">
      <path clip-path="url(#pc7b9da65e0)" d="M 481.344828 21.6 
L 625.655172 21.6 
" style="fill:none;stroke:#ffffff;stroke-linecap:round;"/>
     </g>
     <g id="text_13">
      <!-- 1.0 -->
      <g style="fill:#262626;" transform="translate(456.554828 25.536797)scale(0.11 -0.11)">
       <use xlink:href="#ArialMT-49"/>
       <use x="55.615234" xlink:href="#ArialMT-46"/>
       <use x="83.398438" xlink:href="#ArialMT-48"/>
      </g>
     </g>
    </g>
   </g>
   <g id="patch_48">
    <path d="M 481.344828 157.5 
L 481.344828 21.6 
" style="fill:none;stroke:#ffffff;stroke-linecap:square;stroke-linejoin:miter;stroke-width:1.25;"/>
   </g>
   <g id="patch_49">
    <path d="M 625.655172 157.5 
L 625.655172 21.6 
" style="fill:none;stroke:#ffffff;stroke-linecap:square;stroke-linejoin:miter;stroke-width:1.25;"/>
   </g>
   <g id="patch_50">
    <path d="M 481.344828 157.5 
L 625.655172 157.5 
" style="fill:none;stroke:#ffffff;stroke-linecap:square;stroke-linejoin:miter;stroke-width:1.25;"/>
   </g>
   <g id="patch_51">
    <path d="M 481.344828 21.6 
L 625.655172 21.6 
" style="fill:none;stroke:#ffffff;stroke-linecap:square;stroke-linejoin:miter;stroke-width:1.25;"/>
   </g>
  </g>
  <g id="axes_4">
   <g id="patch_52">
    <path d="M 654.517241 157.5 
L 798.827586 157.5 
L 798.827586 21.6 
L 654.517241 21.6 
z
" style="fill:#eaeaf2;"/>
   </g>
   <g id="matplotlib.axis_3">
    <g id="xtick_6">
     <g id="line2d_12">
      <path clip-path="url(#p9fd44cbe13)" d="M 654.517241 157.5 
L 654.517241 21.6 
" style="fill:none;stroke:#ffffff;stroke-linecap:round;"/>
     </g>
     <g id="text_14">
      <!-- 0.00 -->
      <g style="fill:#262626;" transform="translate(643.813726 174.873594)scale(0.11 -0.11)">
       <use xlink:href="#ArialMT-48"/>
       <use x="55.615234" xlink:href="#ArialMT-46"/>
       <use x="83.398438" xlink:href="#ArialMT-48"/>
       <use x="139.013672" xlink:href="#ArialMT-48"/>
      </g>
     </g>
    </g>
    <g id="xtick_7">
     <g id="line2d_13">
      <path clip-path="url(#p9fd44cbe13)" d="M 690.594828 157.5 
L 690.594828 21.6 
" style="fill:none;stroke:#ffffff;stroke-linecap:round;"/>
     </g>
     <g id="text_15">
      <!-- 0.25 -->
      <g style="fill:#262626;" transform="translate(679.891312 174.873594)scale(0.11 -0.11)">
       <use xlink:href="#ArialMT-48"/>
       <use x="55.615234" xlink:href="#ArialMT-46"/>
       <use x="83.398438" xlink:href="#ArialMT-50"/>
       <use x="139.013672" xlink:href="#ArialMT-53"/>
      </g>
     </g>
    </g>
    <g id="xtick_8">
     <g id="line2d_14">
      <path clip-path="url(#p9fd44cbe13)" d="M 726.672414 157.5 
L 726.672414 21.6 
" style="fill:none;stroke:#ffffff;stroke-linecap:round;"/>
     </g>
     <g id="text_16">
      <!-- 0.50 -->
      <g style="fill:#262626;" transform="translate(715.968898 174.873594)scale(0.11 -0.11)">
       <use xlink:href="#ArialMT-48"/>
       <use x="55.615234" xlink:href="#ArialMT-46"/>
       <use x="83.398438" xlink:href="#ArialMT-53"/>
       <use x="139.013672" xlink:href="#ArialMT-48"/>
      </g>
     </g>
    </g>
    <g id="xtick_9">
     <g id="line2d_15">
      <path clip-path="url(#p9fd44cbe13)" d="M 762.75 157.5 
L 762.75 21.6 
" style="fill:none;stroke:#ffffff;stroke-linecap:round;"/>
     </g>
     <g id="text_17">
      <!-- 0.75 -->
      <g style="fill:#262626;" transform="translate(752.046484 174.873594)scale(0.11 -0.11)">
       <use xlink:href="#ArialMT-48"/>
       <use x="55.615234" xlink:href="#ArialMT-46"/>
       <use x="83.398438" xlink:href="#ArialMT-55"/>
       <use x="139.013672" xlink:href="#ArialMT-53"/>
      </g>
     </g>
    </g>
    <g id="xtick_10">
     <g id="line2d_16">
      <path clip-path="url(#p9fd44cbe13)" d="M 798.827586 157.5 
L 798.827586 21.6 
" style="fill:none;stroke:#ffffff;stroke-linecap:round;"/>
     </g>
     <g id="text_18">
      <!-- 1.00 -->
      <g style="fill:#262626;" transform="translate(788.124071 174.873594)scale(0.11 -0.11)">
       <use xlink:href="#ArialMT-49"/>
       <use x="55.615234" xlink:href="#ArialMT-46"/>
       <use x="83.398438" xlink:href="#ArialMT-48"/>
       <use x="139.013672" xlink:href="#ArialMT-48"/>
      </g>
     </g>
    </g>
   </g>
   <g id="matplotlib.axis_4">
    <g id="ytick_7">
     <g id="line2d_17">
      <path clip-path="url(#p9fd44cbe13)" d="M 654.517241 157.5 
L 798.827586 157.5 
" style="fill:none;stroke:#ffffff;stroke-linecap:round;"/>
     </g>
     <g id="text_19">
      <!-- 0.0 -->
      <g style="fill:#262626;" transform="translate(629.727241 161.436797)scale(0.11 -0.11)">
       <use xlink:href="#ArialMT-48"/>
       <use x="55.615234" xlink:href="#ArialMT-46"/>
       <use x="83.398438" xlink:href="#ArialMT-48"/>
      </g>
     </g>
    </g>
    <g id="ytick_8">
     <g id="line2d_18">
      <path clip-path="url(#p9fd44cbe13)" d="M 654.517241 130.32 
L 798.827586 130.32 
" style="fill:none;stroke:#ffffff;stroke-linecap:round;"/>
     </g>
     <g id="text_20">
      <!-- 0.2 -->
      <g style="fill:#262626;" transform="translate(629.727241 134.256797)scale(0.11 -0.11)">
       <use xlink:href="#ArialMT-48"/>
       <use x="55.615234" xlink:href="#ArialMT-46"/>
       <use x="83.398438" xlink:href="#ArialMT-50"/>
      </g>
     </g>
    </g>
    <g id="ytick_9">
     <g id="line2d_19">
      <path clip-path="url(#p9fd44cbe13)" d="M 654.517241 103.14 
L 798.827586 103.14 
" style="fill:none;stroke:#ffffff;stroke-linecap:round;"/>
     </g>
     <g id="text_21">
      <!-- 0.4 -->
      <g style="fill:#262626;" transform="translate(629.727241 107.076797)scale(0.11 -0.11)">
       <use xlink:href="#ArialMT-48"/>
       <use x="55.615234" xlink:href="#ArialMT-46"/>
       <use x="83.398438" xlink:href="#ArialMT-52"/>
      </g>
     </g>
    </g>
    <g id="ytick_10">
     <g id="line2d_20">
      <path clip-path="url(#p9fd44cbe13)" d="M 654.517241 75.96 
L 798.827586 75.96 
" style="fill:none;stroke:#ffffff;stroke-linecap:round;"/>
     </g>
     <g id="text_22">
      <!-- 0.6 -->
      <g style="fill:#262626;" transform="translate(629.727241 79.896797)scale(0.11 -0.11)">
       <use xlink:href="#ArialMT-48"/>
       <use x="55.615234" xlink:href="#ArialMT-46"/>
       <use x="83.398438" xlink:href="#ArialMT-54"/>
      </g>
     </g>
    </g>
    <g id="ytick_11">
     <g id="line2d_21">
      <path clip-path="url(#p9fd44cbe13)" d="M 654.517241 48.78 
L 798.827586 48.78 
" style="fill:none;stroke:#ffffff;stroke-linecap:round;"/>
     </g>
     <g id="text_23">
      <!-- 0.8 -->
      <g style="fill:#262626;" transform="translate(629.727241 52.716797)scale(0.11 -0.11)">
       <use xlink:href="#ArialMT-48"/>
       <use x="55.615234" xlink:href="#ArialMT-46"/>
       <use x="83.398438" xlink:href="#ArialMT-56"/>
      </g>
     </g>
    </g>
    <g id="ytick_12">
     <g id="line2d_22">
      <path clip-path="url(#p9fd44cbe13)" d="M 654.517241 21.6 
L 798.827586 21.6 
" style="fill:none;stroke:#ffffff;stroke-linecap:round;"/>
     </g>
     <g id="text_24">
      <!-- 1.0 -->
      <g style="fill:#262626;" transform="translate(629.727241 25.536797)scale(0.11 -0.11)">
       <use xlink:href="#ArialMT-49"/>
       <use x="55.615234" xlink:href="#ArialMT-46"/>
       <use x="83.398438" xlink:href="#ArialMT-48"/>
      </g>
     </g>
    </g>
   </g>
   <g id="patch_53">
    <path d="M 654.517241 157.5 
L 654.517241 21.6 
" style="fill:none;stroke:#ffffff;stroke-linecap:square;stroke-linejoin:miter;stroke-width:1.25;"/>
   </g>
   <g id="patch_54">
    <path d="M 798.827586 157.5 
L 798.827586 21.6 
" style="fill:none;stroke:#ffffff;stroke-linecap:square;stroke-linejoin:miter;stroke-width:1.25;"/>
   </g>
   <g id="patch_55">
    <path d="M 654.517241 157.5 
L 798.827586 157.5 
" style="fill:none;stroke:#ffffff;stroke-linecap:square;stroke-linejoin:miter;stroke-width:1.25;"/>
   </g>
   <g id="patch_56">
    <path d="M 654.517241 21.6 
L 798.827586 21.6 
" style="fill:none;stroke:#ffffff;stroke-linecap:square;stroke-linejoin:miter;stroke-width:1.25;"/>
   </g>
  </g>
  <g id="axes_5">
   <g id="patch_57">
    <path d="M 827.689655 157.5 
L 972 157.5 
L 972 21.6 
L 827.689655 21.6 
z
" style="fill:#eaeaf2;"/>
   </g>
   <g id="matplotlib.axis_5">
    <g id="xtick_11">
     <g id="line2d_23">
      <path clip-path="url(#p626458bc05)" d="M 827.689655 157.5 
L 827.689655 21.6 
" style="fill:none;stroke:#ffffff;stroke-linecap:round;"/>
     </g>
     <g id="text_25">
      <!-- 0.00 -->
      <g style="fill:#262626;" transform="translate(816.98614 174.873594)scale(0.11 -0.11)">
       <use xlink:href="#ArialMT-48"/>
       <use x="55.615234" xlink:href="#ArialMT-46"/>
       <use x="83.398438" xlink:href="#ArialMT-48"/>
       <use x="139.013672" xlink:href="#ArialMT-48"/>
      </g>
     </g>
    </g>
    <g id="xtick_12">
     <g id="line2d_24">
      <path clip-path="url(#p626458bc05)" d="M 863.767241 157.5 
L 863.767241 21.6 
" style="fill:none;stroke:#ffffff;stroke-linecap:round;"/>
     </g>
     <g id="text_26">
      <!-- 0.25 -->
      <g style="fill:#262626;" transform="translate(853.063726 174.873594)scale(0.11 -0.11)">
       <use xlink:href="#ArialMT-48"/>
       <use x="55.615234" xlink:href="#ArialMT-46"/>
       <use x="83.398438" xlink:href="#ArialMT-50"/>
       <use x="139.013672" xlink:href="#ArialMT-53"/>
      </g>
     </g>
    </g>
    <g id="xtick_13">
     <g id="line2d_25">
      <path clip-path="url(#p626458bc05)" d="M 899.844828 157.5 
L 899.844828 21.6 
" style="fill:none;stroke:#ffffff;stroke-linecap:round;"/>
     </g>
     <g id="text_27">
      <!-- 0.50 -->
      <g style="fill:#262626;" transform="translate(889.141312 174.873594)scale(0.11 -0.11)">
       <use xlink:href="#ArialMT-48"/>
       <use x="55.615234" xlink:href="#ArialMT-46"/>
       <use x="83.398438" xlink:href="#ArialMT-53"/>
       <use x="139.013672" xlink:href="#ArialMT-48"/>
      </g>
     </g>
    </g>
    <g id="xtick_14">
     <g id="line2d_26">
      <path clip-path="url(#p626458bc05)" d="M 935.922414 157.5 
L 935.922414 21.6 
" style="fill:none;stroke:#ffffff;stroke-linecap:round;"/>
     </g>
     <g id="text_28">
      <!-- 0.75 -->
      <g style="fill:#262626;" transform="translate(925.218898 174.873594)scale(0.11 -0.11)">
       <use xlink:href="#ArialMT-48"/>
       <use x="55.615234" xlink:href="#ArialMT-46"/>
       <use x="83.398438" xlink:href="#ArialMT-55"/>
       <use x="139.013672" xlink:href="#ArialMT-53"/>
      </g>
     </g>
    </g>
    <g id="xtick_15">
     <g id="line2d_27">
      <path clip-path="url(#p626458bc05)" d="M 972 157.5 
L 972 21.6 
" style="fill:none;stroke:#ffffff;stroke-linecap:round;"/>
     </g>
     <g id="text_29">
      <!-- 1.00 -->
      <g style="fill:#262626;" transform="translate(961.296484 174.873594)scale(0.11 -0.11)">
       <use xlink:href="#ArialMT-49"/>
       <use x="55.615234" xlink:href="#ArialMT-46"/>
       <use x="83.398438" xlink:href="#ArialMT-48"/>
       <use x="139.013672" xlink:href="#ArialMT-48"/>
      </g>
     </g>
    </g>
   </g>
   <g id="matplotlib.axis_6">
    <g id="ytick_13">
     <g id="line2d_28">
      <path clip-path="url(#p626458bc05)" d="M 827.689655 157.5 
L 972 157.5 
" style="fill:none;stroke:#ffffff;stroke-linecap:round;"/>
     </g>
     <g id="text_30">
      <!-- 0.0 -->
      <g style="fill:#262626;" transform="translate(802.899655 161.436797)scale(0.11 -0.11)">
       <use xlink:href="#ArialMT-48"/>
       <use x="55.615234" xlink:href="#ArialMT-46"/>
       <use x="83.398438" xlink:href="#ArialMT-48"/>
      </g>
     </g>
    </g>
    <g id="ytick_14">
     <g id="line2d_29">
      <path clip-path="url(#p626458bc05)" d="M 827.689655 130.32 
L 972 130.32 
" style="fill:none;stroke:#ffffff;stroke-linecap:round;"/>
     </g>
     <g id="text_31">
      <!-- 0.2 -->
      <g style="fill:#262626;" transform="translate(802.899655 134.256797)scale(0.11 -0.11)">
       <use xlink:href="#ArialMT-48"/>
       <use x="55.615234" xlink:href="#ArialMT-46"/>
       <use x="83.398438" xlink:href="#ArialMT-50"/>
      </g>
     </g>
    </g>
    <g id="ytick_15">
     <g id="line2d_30">
      <path clip-path="url(#p626458bc05)" d="M 827.689655 103.14 
L 972 103.14 
" style="fill:none;stroke:#ffffff;stroke-linecap:round;"/>
     </g>
     <g id="text_32">
      <!-- 0.4 -->
      <g style="fill:#262626;" transform="translate(802.899655 107.076797)scale(0.11 -0.11)">
       <use xlink:href="#ArialMT-48"/>
       <use x="55.615234" xlink:href="#ArialMT-46"/>
       <use x="83.398438" xlink:href="#ArialMT-52"/>
      </g>
     </g>
    </g>
    <g id="ytick_16">
     <g id="line2d_31">
      <path clip-path="url(#p626458bc05)" d="M 827.689655 75.96 
L 972 75.96 
" style="fill:none;stroke:#ffffff;stroke-linecap:round;"/>
     </g>
     <g id="text_33">
      <!-- 0.6 -->
      <g style="fill:#262626;" transform="translate(802.899655 79.896797)scale(0.11 -0.11)">
       <use xlink:href="#ArialMT-48"/>
       <use x="55.615234" xlink:href="#ArialMT-46"/>
       <use x="83.398438" xlink:href="#ArialMT-54"/>
      </g>
     </g>
    </g>
    <g id="ytick_17">
     <g id="line2d_32">
      <path clip-path="url(#p626458bc05)" d="M 827.689655 48.78 
L 972 48.78 
" style="fill:none;stroke:#ffffff;stroke-linecap:round;"/>
     </g>
     <g id="text_34">
      <!-- 0.8 -->
      <g style="fill:#262626;" transform="translate(802.899655 52.716797)scale(0.11 -0.11)">
       <use xlink:href="#ArialMT-48"/>
       <use x="55.615234" xlink:href="#ArialMT-46"/>
       <use x="83.398438" xlink:href="#ArialMT-56"/>
      </g>
     </g>
    </g>
    <g id="ytick_18">
     <g id="line2d_33">
      <path clip-path="url(#p626458bc05)" d="M 827.689655 21.6 
L 972 21.6 
" style="fill:none;stroke:#ffffff;stroke-linecap:round;"/>
     </g>
     <g id="text_35">
      <!-- 1.0 -->
      <g style="fill:#262626;" transform="translate(802.899655 25.536797)scale(0.11 -0.11)">
       <use xlink:href="#ArialMT-49"/>
       <use x="55.615234" xlink:href="#ArialMT-46"/>
       <use x="83.398438" xlink:href="#ArialMT-48"/>
      </g>
     </g>
    </g>
   </g>
   <g id="patch_58">
    <path d="M 827.689655 157.5 
L 827.689655 21.6 
" style="fill:none;stroke:#ffffff;stroke-linecap:square;stroke-linejoin:miter;stroke-width:1.25;"/>
   </g>
   <g id="patch_59">
    <path d="M 972 157.5 
L 972 21.6 
" style="fill:none;stroke:#ffffff;stroke-linecap:square;stroke-linejoin:miter;stroke-width:1.25;"/>
   </g>
   <g id="patch_60">
    <path d="M 827.689655 157.5 
L 972 157.5 
" style="fill:none;stroke:#ffffff;stroke-linecap:square;stroke-linejoin:miter;stroke-width:1.25;"/>
   </g>
   <g id="patch_61">
    <path d="M 827.689655 21.6 
L 972 21.6 
" style="fill:none;stroke:#ffffff;stroke-linecap:square;stroke-linejoin:miter;stroke-width:1.25;"/>
   </g>
   <g id="text_36">
    <!-- 19 -->
    <g style="fill:#262626;" transform="translate(893.171703 15.6)scale(0.12 -0.12)">
     <use xlink:href="#ArialMT-49"/>
     <use x="55.615234" xlink:href="#ArialMT-57"/>
    </g>
   </g>
  </g>
 </g>
 <defs>
  <clipPath id="p97c06a0cd5">
   <rect height="135.9" width="144.310345" x="135" y="21.6"/>
  </clipPath>
  <clipPath id="p30a19d56d4">
   <rect height="135.9" width="144.310345" x="308.172414" y="21.6"/>
  </clipPath>
  <clipPath id="pc7b9da65e0">
   <rect height="135.9" width="144.310345" x="481.344828" y="21.6"/>
  </clipPath>
  <clipPath id="p9fd44cbe13">
   <rect height="135.9" width="144.310345" x="654.517241" y="21.6"/>
  </clipPath>
  <clipPath id="p626458bc05">
   <rect height="135.9" width="144.310345" x="827.689655" y="21.6"/>
  </clipPath>
 </defs>
</svg>
