<?xml version="1.0" encoding="utf-8" standalone="no"?>
<!DOCTYPE svg PUBLIC "-//W3C//DTD SVG 1.1//EN"
  "http://www.w3.org/Graphics/SVG/1.1/DTD/svg11.dtd">
<!-- Created with matplotlib (https://matplotlib.org/) -->
<svg height="180pt" version="1.1" viewBox="0 0 1080 180" width="1080pt" xmlns="http://www.w3.org/2000/svg" xmlns:xlink="http://www.w3.org/1999/xlink">
 <defs>
  <style type="text/css">
*{stroke-linecap:butt;stroke-linejoin:round;}
  </style>
 </defs>
 <g id="figure_1">
  <g id="patch_1">
   <path d="M 0 180 
L 1080 180 
L 1080 0 
L 0 0 
z
" style="fill:#ffffff;"/>
  </g>
  <g id="axes_1">
   <g id="patch_2">
    <path d="M 135 157.5 
L 279.310345 157.5 
L 279.310345 21.6 
L 135 21.6 
z
" style="fill:#ffffff;"/>
   </g>
   <g id="patch_3">
    <path clip-path="url(#pb19d1fcb96)" d="M 187.692823 138.563115 
L 179.193981 138.563115 
" style="stroke:#000000;stroke-linejoin:miter;stroke-width:0.5;"/>
   </g>
   <g id="patch_4">
    <path clip-path="url(#pb19d1fcb96)" d="M 196.191666 138.563115 
L 187.692823 138.563115 
" style="stroke:#000000;stroke-linejoin:miter;stroke-width:0.5;"/>
   </g>
   <g id="patch_5">
    <path clip-path="url(#pb19d1fcb96)" d="M 204.690508 138.563115 
L 196.191666 138.563115 
" style="stroke:#000000;stroke-linejoin:miter;stroke-width:0.5;"/>
   </g>
   <g id="patch_6">
    <path clip-path="url(#pb19d1fcb96)" d="M 213.189351 138.563115 
L 204.690508 138.563115 
" style="stroke:#000000;stroke-linejoin:miter;stroke-width:0.5;"/>
   </g>
   <g id="patch_7">
    <path clip-path="url(#pb19d1fcb96)" d="M 221.688193 138.563115 
L 213.189351 138.563115 
" style="stroke:#000000;stroke-linejoin:miter;stroke-width:0.5;"/>
   </g>
   <g id="patch_8">
    <path clip-path="url(#pb19d1fcb96)" d="M 230.187035 138.563115 
L 221.688193 138.563115 
" style="stroke:#000000;stroke-linejoin:miter;stroke-width:0.5;"/>
   </g>
   <g id="patch_9">
    <path clip-path="url(#pb19d1fcb96)" d="M 238.685878 138.563115 
L 230.187035 138.563115 
" style="stroke:#000000;stroke-linejoin:miter;stroke-width:0.5;"/>
   </g>
   <g id="patch_10">
    <path clip-path="url(#pb19d1fcb96)" d="M 247.18472 124.638934 
L 238.685878 138.563115 
" style="stroke:#000000;stroke-linejoin:miter;stroke-width:0.5;"/>
   </g>
   <g id="patch_11">
    <path clip-path="url(#pb19d1fcb96)" d="M 247.18472 124.638934 
L 238.685878 110.714754 
" style="stroke:#000000;stroke-linejoin:miter;stroke-width:0.5;"/>
   </g>
   <g id="patch_12">
    <path clip-path="url(#pb19d1fcb96)" d="M 255.683563 124.638934 
L 247.18472 124.638934 
" style="stroke:#000000;stroke-linejoin:miter;stroke-width:0.5;"/>
   </g>
   <g id="patch_13">
    <path clip-path="url(#pb19d1fcb96)" d="M 264.182405 124.638934 
L 255.683563 124.638934 
" style="stroke:#000000;stroke-linejoin:miter;stroke-width:0.5;"/>
   </g>
   <g id="a34cf19bbc854d8590996428c7797530-1-node">
    <path clip-path="url(#pb19d1fcb96)" d="M 265.627208 119.904713 
L 265.627208 129.373156 
L 262.737602 129.373156 
L 262.737602 119.904713 
L 265.627208 119.904713 
z
" style="fill:#0000ff;stroke:#ffffff;stroke-linejoin:miter;stroke-width:0.5;"/>
   </g>
   <g id="a34cf19bbc854d8590996428c7797530-3-node">
    <path clip-path="url(#pb19d1fcb96)" d="M 257.128366 119.904713 
L 257.128366 129.373156 
L 254.23876 129.373156 
L 254.23876 119.904713 
L 257.128366 119.904713 
z
" style="fill:#0000ff;stroke:#ffffff;stroke-linejoin:miter;stroke-width:0.5;"/>
   </g>
   <g id="a34cf19bbc854d8590996428c7797530-5-node">
    <path clip-path="url(#pb19d1fcb96)" d="M 247.18472 129.373156 
C 247.567887 129.373156 247.935411 128.874328 248.206351 127.986534 
C 248.47729 127.098741 248.629524 125.894465 248.629524 124.638934 
C 248.629524 123.383404 248.47729 122.179128 248.206351 121.291334 
C 247.935411 120.403541 247.567887 119.904713 247.18472 119.904713 
C 246.801554 119.904713 246.43403 120.403541 246.16309 121.291334 
C 245.892151 122.179128 245.739917 123.383404 245.739917 124.638934 
C 245.739917 125.894465 245.892151 127.098741 246.16309 127.986534 
C 246.43403 128.874328 246.801554 129.373156 247.18472 129.373156 
z
" style="fill:#00c832;stroke:#ffffff;stroke-linejoin:miter;stroke-width:0.5;"/>
   </g>
   <g id="a34cf19bbc854d8590996428c7797530-7-node">
    <path clip-path="url(#pb19d1fcb96)" d="M 238.685878 143.297336 
C 239.069044 143.297336 239.436569 142.798509 239.707508 141.910715 
C 239.978448 141.022921 240.130681 139.818645 240.130681 138.563115 
C 240.130681 137.307585 239.978448 136.103309 239.707508 135.215515 
C 239.436569 134.327721 239.069044 133.828893 238.685878 133.828893 
C 238.302712 133.828893 237.935187 134.327721 237.664248 135.215515 
C 237.393308 136.103309 237.241075 137.307585 237.241075 138.563115 
C 237.241075 139.818645 237.393308 141.022921 237.664248 141.910715 
C 237.935187 142.798509 238.302712 143.297336 238.685878 143.297336 
z
" style="fill:#00c832;stroke:#ffffff;stroke-linejoin:miter;stroke-width:0.5;"/>
   </g>
   <g id="a34cf19bbc854d8590996428c7797530-8-node">
    <path clip-path="url(#pb19d1fcb96)" d="M 231.631839 133.828893 
L 231.631839 143.297336 
L 228.742232 143.297336 
L 228.742232 133.828893 
L 231.631839 133.828893 
z
" style="fill:#0000ff;stroke:#ffffff;stroke-linejoin:miter;stroke-width:0.5;"/>
   </g>
   <g id="a34cf19bbc854d8590996428c7797530-10-node">
    <path clip-path="url(#pb19d1fcb96)" d="M 221.688193 143.297336 
C 222.071359 143.297336 222.438884 142.798509 222.709823 141.910715 
C 222.980763 141.022921 223.132996 139.818645 223.132996 138.563115 
C 223.132996 137.307585 222.980763 136.103309 222.709823 135.215515 
C 222.438884 134.327721 222.071359 133.828893 221.688193 133.828893 
C 221.305027 133.828893 220.937502 134.327721 220.666563 135.215515 
C 220.395623 136.103309 220.24339 137.307585 220.24339 138.563115 
C 220.24339 139.818645 220.395623 141.022921 220.666563 141.910715 
C 220.937502 142.798509 221.305027 143.297336 221.688193 143.297336 
z
" style="fill:#ffff00;stroke:#ffffff;stroke-linejoin:miter;stroke-width:0.5;"/>
   </g>
   <g id="a34cf19bbc854d8590996428c7797530-11-node">
    <path clip-path="url(#pb19d1fcb96)" d="M 214.634154 133.828893 
L 214.634154 143.297336 
L 211.744547 143.297336 
L 211.744547 133.828893 
L 214.634154 133.828893 
z
" style="fill:#0000ff;stroke:#ffffff;stroke-linejoin:miter;stroke-width:0.5;"/>
   </g>
   <g id="a34cf19bbc854d8590996428c7797530-13-node">
    <path clip-path="url(#pb19d1fcb96)" d="M 204.690508 143.297336 
C 205.073674 143.297336 205.441199 142.798509 205.712138 141.910715 
C 205.983078 141.022921 206.135311 139.818645 206.135311 138.563115 
C 206.135311 137.307585 205.983078 136.103309 205.712138 135.215515 
C 205.441199 134.327721 205.073674 133.828893 204.690508 133.828893 
C 204.307342 133.828893 203.939817 134.327721 203.668878 135.215515 
C 203.397938 136.103309 203.245705 137.307585 203.245705 138.563115 
C 203.245705 139.818645 203.397938 141.022921 203.668878 141.910715 
C 203.939817 142.798509 204.307342 143.297336 204.690508 143.297336 
z
" style="fill:#ffff00;stroke:#ffffff;stroke-linejoin:miter;stroke-width:0.5;"/>
   </g>
   <g id="a34cf19bbc854d8590996428c7797530-14-node">
    <path clip-path="url(#pb19d1fcb96)" d="M 197.636469 133.828893 
L 197.636469 143.297336 
L 194.746862 143.297336 
L 194.746862 133.828893 
L 197.636469 133.828893 
z
" style="fill:#0000ff;stroke:#ffffff;stroke-linejoin:miter;stroke-width:0.5;"/>
   </g>
   <g id="a34cf19bbc854d8590996428c7797530-16-node">
    <path clip-path="url(#pb19d1fcb96)" d="M 187.692823 143.297336 
C 188.075989 143.297336 188.443514 142.798509 188.714453 141.910715 
C 188.985393 141.022921 189.137626 139.818645 189.137626 138.563115 
C 189.137626 137.307585 188.985393 136.103309 188.714453 135.215515 
C 188.443514 134.327721 188.075989 133.828893 187.692823 133.828893 
C 187.309657 133.828893 186.942133 134.327721 186.671193 135.215515 
C 186.400254 136.103309 186.24802 137.307585 186.24802 138.563115 
C 186.24802 139.818645 186.400254 141.022921 186.671193 141.910715 
C 186.942133 142.798509 187.309657 143.297336 187.692823 143.297336 
z
" style="fill:#ffff00;stroke:#ffffff;stroke-linejoin:miter;stroke-width:0.5;"/>
   </g>
   <g id="a34cf19bbc854d8590996428c7797530-17-node">
    <path clip-path="url(#pb19d1fcb96)" d="M 179.193981 133.828893 
L 177.749178 138.563115 
L 179.193981 143.297336 
L 180.638784 138.563115 
z
" style="fill:#c800c8;stroke:#ffffff;stroke-linejoin:miter;stroke-width:0.5;"/>
   </g>
   <g id="a34cf19bbc854d8590996428c7797530-6-node">
    <path clip-path="url(#pb19d1fcb96)" d="M 238.685878 115.448975 
C 239.069044 115.448975 239.436569 114.950148 239.707508 114.062354 
C 239.978448 113.17456 240.130681 111.970284 240.130681 110.714754 
C 240.130681 109.459224 239.978448 108.254948 239.707508 107.367154 
C 239.436569 106.47936 239.069044 105.980533 238.685878 105.980533 
C 238.302712 105.980533 237.935187 106.47936 237.664248 107.367154 
C 237.393308 108.254948 237.241075 109.459224 237.241075 110.714754 
C 237.241075 111.970284 237.393308 113.17456 237.664248 114.062354 
C 237.935187 114.950148 238.302712 115.448975 238.685878 115.448975 
z
" style="fill:#00c832;stroke:#ffffff;stroke-linejoin:miter;stroke-width:0.5;"/>
   </g>
   <g id="patch_14">
    <path d="M 135 157.5 
L 135 21.6 
" style="fill:none;stroke:#ffffff;stroke-linecap:square;stroke-linejoin:miter;stroke-width:1.25;"/>
   </g>
   <g id="patch_15">
    <path d="M 279.310345 157.5 
L 279.310345 21.6 
" style="fill:none;stroke:#ffffff;stroke-linecap:square;stroke-linejoin:miter;stroke-width:1.25;"/>
   </g>
   <g id="patch_16">
    <path d="M 135 157.5 
L 279.310345 157.5 
" style="fill:none;stroke:#ffffff;stroke-linecap:square;stroke-linejoin:miter;stroke-width:1.25;"/>
   </g>
   <g id="patch_17">
    <path d="M 135 21.6 
L 279.310345 21.6 
" style="fill:none;stroke:#ffffff;stroke-linecap:square;stroke-linejoin:miter;stroke-width:1.25;"/>
   </g>
   <g id="text_1">
    <!-- 129:1 -->
    <defs>
     <path d="M 37.25 0 
L 28.46875 0 
L 28.46875 56 
Q 25.296875 52.984375 20.140625 49.953125 
Q 14.984375 46.921875 10.890625 45.40625 
L 10.890625 53.90625 
Q 18.265625 57.375 23.78125 62.296875 
Q 29.296875 67.234375 31.59375 71.875 
L 37.25 71.875 
z
" id="ArialMT-49"/>
     <path d="M 50.34375 8.453125 
L 50.34375 0 
L 3.03125 0 
Q 2.9375 3.171875 4.046875 6.109375 
Q 5.859375 10.9375 9.828125 15.625 
Q 13.8125 20.3125 21.34375 26.46875 
Q 33.015625 36.03125 37.109375 41.625 
Q 41.21875 47.21875 41.21875 52.203125 
Q 41.21875 57.421875 37.46875 61 
Q 33.734375 64.59375 27.734375 64.59375 
Q 21.390625 64.59375 17.578125 60.78125 
Q 13.765625 56.984375 13.71875 50.25 
L 4.6875 51.171875 
Q 5.609375 61.28125 11.65625 66.578125 
Q 17.71875 71.875 27.9375 71.875 
Q 38.234375 71.875 44.234375 66.15625 
Q 50.25 60.453125 50.25 52 
Q 50.25 47.703125 48.484375 43.546875 
Q 46.734375 39.40625 42.65625 34.8125 
Q 38.578125 30.21875 29.109375 22.21875 
Q 21.1875 15.578125 18.9375 13.203125 
Q 16.703125 10.84375 15.234375 8.453125 
z
" id="ArialMT-50"/>
     <path d="M 5.46875 16.546875 
L 13.921875 17.328125 
Q 14.984375 11.375 18.015625 8.6875 
Q 21.046875 6 25.78125 6 
Q 29.828125 6 32.875 7.859375 
Q 35.9375 9.71875 37.890625 12.8125 
Q 39.84375 15.921875 41.15625 21.1875 
Q 42.484375 26.46875 42.484375 31.9375 
Q 42.484375 32.515625 42.4375 33.6875 
Q 39.796875 29.5 35.234375 26.875 
Q 30.671875 24.265625 25.34375 24.265625 
Q 16.453125 24.265625 10.296875 30.703125 
Q 4.15625 37.15625 4.15625 47.703125 
Q 4.15625 58.59375 10.578125 65.234375 
Q 17 71.875 26.65625 71.875 
Q 33.640625 71.875 39.421875 68.109375 
Q 45.21875 64.359375 48.21875 57.390625 
Q 51.21875 50.4375 51.21875 37.25 
Q 51.21875 23.53125 48.234375 15.40625 
Q 45.265625 7.28125 39.375 3.03125 
Q 33.5 -1.21875 25.59375 -1.21875 
Q 17.1875 -1.21875 11.859375 3.4375 
Q 6.546875 8.109375 5.46875 16.546875 
z
M 41.453125 48.140625 
Q 41.453125 55.71875 37.421875 60.15625 
Q 33.40625 64.59375 27.734375 64.59375 
Q 21.875 64.59375 17.53125 59.8125 
Q 13.1875 55.03125 13.1875 47.40625 
Q 13.1875 40.578125 17.3125 36.296875 
Q 21.4375 32.03125 27.484375 32.03125 
Q 33.59375 32.03125 37.515625 36.296875 
Q 41.453125 40.578125 41.453125 48.140625 
z
" id="ArialMT-57"/>
     <path d="M 9.03125 41.84375 
L 9.03125 51.859375 
L 19.046875 51.859375 
L 19.046875 41.84375 
z
M 9.03125 0 
L 9.03125 10.015625 
L 19.046875 10.015625 
L 19.046875 0 
z
" id="ArialMT-58"/>
    </defs>
    <g style="fill:#262626;" transform="translate(192.142047 15.6)scale(0.12 -0.12)">
     <use xlink:href="#ArialMT-49"/>
     <use x="55.615234" xlink:href="#ArialMT-50"/>
     <use x="111.230469" xlink:href="#ArialMT-57"/>
     <use x="166.845703" xlink:href="#ArialMT-58"/>
     <use x="194.628906" xlink:href="#ArialMT-49"/>
    </g>
   </g>
  </g>
  <g id="axes_2">
   <g id="patch_18">
    <path d="M 308.172414 157.5 
L 452.482759 157.5 
L 452.482759 21.6 
L 308.172414 21.6 
z
" style="fill:#ffffff;"/>
   </g>
   <g id="patch_19">
    <path clip-path="url(#p1a76022e12)" d="M 404.608921 163.621622 
L 395.998519 163.621622 
" style="stroke:#000000;stroke-linejoin:miter;stroke-width:0.5;"/>
   </g>
   <g id="patch_20">
    <path clip-path="url(#p1a76022e12)" d="M 413.219324 163.621622 
L 404.608921 163.621622 
" style="stroke:#000000;stroke-linejoin:miter;stroke-width:0.5;"/>
   </g>
   <g id="patch_21">
    <path clip-path="url(#p1a76022e12)" d="M 421.829726 140.665541 
L 413.219324 163.621622 
" style="stroke:#000000;stroke-linejoin:miter;stroke-width:0.5;"/>
   </g>
   <g id="patch_22">
    <path clip-path="url(#p1a76022e12)" d="M 404.608921 133.013514 
L 395.998519 133.013514 
" style="stroke:#000000;stroke-linejoin:miter;stroke-width:0.5;"/>
   </g>
   <g id="patch_23">
    <path clip-path="url(#p1a76022e12)" d="M 413.219324 117.709459 
L 404.608921 133.013514 
" style="stroke:#000000;stroke-linejoin:miter;stroke-width:0.5;"/>
   </g>
   <g id="patch_24">
    <path clip-path="url(#p1a76022e12)" d="M 361.556909 102.405405 
L 352.946506 102.405405 
" style="stroke:#000000;stroke-linejoin:miter;stroke-width:0.5;"/>
   </g>
   <g id="patch_25">
    <path clip-path="url(#p1a76022e12)" d="M 370.167311 102.405405 
L 361.556909 102.405405 
" style="stroke:#000000;stroke-linejoin:miter;stroke-width:0.5;"/>
   </g>
   <g id="patch_26">
    <path clip-path="url(#p1a76022e12)" d="M 378.777714 102.405405 
L 370.167311 102.405405 
" style="stroke:#000000;stroke-linejoin:miter;stroke-width:0.5;"/>
   </g>
   <g id="patch_27">
    <path clip-path="url(#p1a76022e12)" d="M 387.388116 102.405405 
L 378.777714 102.405405 
" style="stroke:#000000;stroke-linejoin:miter;stroke-width:0.5;"/>
   </g>
   <g id="patch_28">
    <path clip-path="url(#p1a76022e12)" d="M 395.998519 102.405405 
L 387.388116 102.405405 
" style="stroke:#000000;stroke-linejoin:miter;stroke-width:0.5;"/>
   </g>
   <g id="patch_29">
    <path clip-path="url(#p1a76022e12)" d="M 404.608921 102.405405 
L 395.998519 102.405405 
" style="stroke:#000000;stroke-linejoin:miter;stroke-width:0.5;"/>
   </g>
   <g id="patch_30">
    <path clip-path="url(#p1a76022e12)" d="M 413.219324 117.709459 
L 404.608921 102.405405 
" style="stroke:#000000;stroke-linejoin:miter;stroke-width:0.5;"/>
   </g>
   <g id="patch_31">
    <path clip-path="url(#p1a76022e12)" d="M 421.829726 140.665541 
L 413.219324 117.709459 
" style="stroke:#000000;stroke-linejoin:miter;stroke-width:0.5;"/>
   </g>
   <g id="patch_32">
    <path clip-path="url(#p1a76022e12)" d="M 430.440128 140.665541 
L 421.829726 140.665541 
" style="stroke:#000000;stroke-linejoin:miter;stroke-width:0.5;"/>
   </g>
   <g id="patch_33">
    <path clip-path="url(#p1a76022e12)" d="M 439.050531 140.665541 
L 430.440128 140.665541 
" style="stroke:#000000;stroke-linejoin:miter;stroke-width:0.5;"/>
   </g>
   <g id="cb781b14053b43a2ba4ad0fd1d20866e-1-node">
    <path clip-path="url(#p1a76022e12)" d="M 440.514299 135.462162 
L 440.514299 145.868919 
L 437.586762 145.868919 
L 437.586762 135.462162 
L 440.514299 135.462162 
z
" style="fill:#0000ff;stroke:#ffffff;stroke-linejoin:miter;stroke-width:0.5;"/>
   </g>
   <g id="cb781b14053b43a2ba4ad0fd1d20866e-3-node">
    <path clip-path="url(#p1a76022e12)" d="M 431.903897 135.462162 
L 431.903897 145.868919 
L 428.97636 145.868919 
L 428.97636 135.462162 
L 431.903897 135.462162 
z
" style="fill:#0000ff;stroke:#ffffff;stroke-linejoin:miter;stroke-width:0.5;"/>
   </g>
   <g id="cb781b14053b43a2ba4ad0fd1d20866e-5-node">
    <path clip-path="url(#p1a76022e12)" d="M 421.829726 145.868919 
C 422.217922 145.868919 422.590271 145.320658 422.864767 144.344885 
C 423.139262 143.369111 423.293494 142.045493 423.293494 140.665541 
C 423.293494 139.285588 423.139262 137.96197 422.864767 136.986196 
C 422.590271 136.010423 422.217922 135.462162 421.829726 135.462162 
C 421.44153 135.462162 421.069181 136.010423 420.794685 136.986196 
C 420.520189 137.96197 420.365958 139.285588 420.365958 140.665541 
C 420.365958 142.045493 420.520189 143.369111 420.794685 144.344885 
C 421.069181 145.320658 421.44153 145.868919 421.829726 145.868919 
z
" style="fill:#00c832;stroke:#ffffff;stroke-linejoin:miter;stroke-width:0.5;"/>
   </g>
   <g id="cb781b14053b43a2ba4ad0fd1d20866e-21-node">
    <path clip-path="url(#p1a76022e12)" d="M 413.219324 168.825 
C 413.607519 168.825 413.979868 168.276739 414.254364 167.300966 
C 414.52886 166.325192 414.683092 165.001574 414.683092 163.621622 
C 414.683092 162.24167 414.52886 160.918051 414.254364 159.942277 
C 413.979868 158.966504 413.607519 158.418243 413.219324 158.418243 
C 412.831128 158.418243 412.458779 158.966504 412.184283 159.942277 
C 411.909787 160.918051 411.755555 162.24167 411.755555 163.621622 
C 411.755555 165.001574 411.909787 166.325192 412.184283 167.300966 
C 412.458779 168.276739 412.831128 168.825 413.219324 168.825 
z
" style="fill:#00c832;stroke:#ffffff;stroke-linejoin:miter;stroke-width:0.5;"/>
   </g>
   <g id="cb781b14053b43a2ba4ad0fd1d20866e-22-node">
    <path clip-path="url(#p1a76022e12)" d="M 406.072689 158.418243 
L 406.072689 168.825 
L 403.145153 168.825 
L 403.145153 158.418243 
L 406.072689 158.418243 
z
" style="fill:#0000ff;stroke:#ffffff;stroke-linejoin:miter;stroke-width:0.5;"/>
   </g>
   <g id="cb781b14053b43a2ba4ad0fd1d20866e-24-node">
    <path clip-path="url(#p1a76022e12)" d="M 395.998519 168.825 
C 396.386715 168.825 396.759063 168.276739 397.033559 167.300966 
C 397.308055 166.325192 397.462287 165.001574 397.462287 163.621622 
C 397.462287 162.24167 397.308055 160.918051 397.033559 159.942277 
C 396.759063 158.966504 396.386715 158.418243 395.998519 158.418243 
C 395.610323 158.418243 395.237974 158.966504 394.963478 159.942277 
C 394.688982 160.918051 394.53475 162.24167 394.53475 163.621622 
C 394.53475 165.001574 394.688982 166.325192 394.963478 167.300966 
C 395.237974 168.276739 395.610323 168.825 395.998519 168.825 
z
" style="fill:#ffff00;stroke:#ffffff;stroke-linejoin:miter;stroke-width:0.5;"/>
   </g>
   <g id="cb781b14053b43a2ba4ad0fd1d20866e-6-node">
    <path clip-path="url(#p1a76022e12)" d="M 413.219324 122.912838 
C 413.607519 122.912838 413.979868 122.364577 414.254364 121.388804 
C 414.52886 120.41303 414.683092 119.089412 414.683092 117.709459 
C 414.683092 116.329507 414.52886 115.005889 414.254364 114.030115 
C 413.979868 113.054342 413.607519 112.506081 413.219324 112.506081 
C 412.831128 112.506081 412.458779 113.054342 412.184283 114.030115 
C 411.909787 115.005889 411.755555 116.329507 411.755555 117.709459 
C 411.755555 119.089412 411.909787 120.41303 412.184283 121.388804 
C 412.458779 122.364577 412.831128 122.912838 413.219324 122.912838 
z
" style="fill:#00c832;stroke:#ffffff;stroke-linejoin:miter;stroke-width:0.5;"/>
   </g>
   <g id="cb781b14053b43a2ba4ad0fd1d20866e-18-node">
    <path clip-path="url(#p1a76022e12)" d="M 406.072689 127.810135 
L 406.072689 138.216892 
L 403.145153 138.216892 
L 403.145153 127.810135 
L 406.072689 127.810135 
z
" style="fill:#0000ff;stroke:#ffffff;stroke-linejoin:miter;stroke-width:0.5;"/>
   </g>
   <g id="cb781b14053b43a2ba4ad0fd1d20866e-20-node">
    <path clip-path="url(#p1a76022e12)" d="M 395.998519 138.216892 
C 396.386715 138.216892 396.759063 137.668631 397.033559 136.692858 
C 397.308055 135.717084 397.462287 134.393466 397.462287 133.013514 
C 397.462287 131.633561 397.308055 130.309943 397.033559 129.334169 
C 396.759063 128.358396 396.386715 127.810135 395.998519 127.810135 
C 395.610323 127.810135 395.237974 128.358396 394.963478 129.334169 
C 394.688982 130.309943 394.53475 131.633561 394.53475 133.013514 
C 394.53475 134.393466 394.688982 135.717084 394.963478 136.692858 
C 395.237974 137.668631 395.610323 138.216892 395.998519 138.216892 
z
" style="fill:#ffff00;stroke:#ffffff;stroke-linejoin:miter;stroke-width:0.5;"/>
   </g>
   <g id="cb781b14053b43a2ba4ad0fd1d20866e-7-node">
    <path clip-path="url(#p1a76022e12)" d="M 406.072689 97.202027 
L 406.072689 107.608784 
L 403.145153 107.608784 
L 403.145153 97.202027 
L 406.072689 97.202027 
z
" style="fill:#0000ff;stroke:#ffffff;stroke-linejoin:miter;stroke-width:0.5;"/>
   </g>
   <g id="cb781b14053b43a2ba4ad0fd1d20866e-9-node">
    <path clip-path="url(#p1a76022e12)" d="M 395.998519 107.608784 
C 396.386715 107.608784 396.759063 107.060523 397.033559 106.08475 
C 397.308055 105.108976 397.462287 103.785357 397.462287 102.405405 
C 397.462287 101.025453 397.308055 99.701835 397.033559 98.726061 
C 396.759063 97.750288 396.386715 97.202027 395.998519 97.202027 
C 395.610323 97.202027 395.237974 97.750288 394.963478 98.726061 
C 394.688982 99.701835 394.53475 101.025453 394.53475 102.405405 
C 394.53475 103.785357 394.688982 105.108976 394.963478 106.08475 
C 395.237974 107.060523 395.610323 107.608784 395.998519 107.608784 
z
" style="fill:#ffff00;stroke:#ffffff;stroke-linejoin:miter;stroke-width:0.5;"/>
   </g>
   <g id="cb781b14053b43a2ba4ad0fd1d20866e-10-node">
    <path clip-path="url(#p1a76022e12)" d="M 388.851885 97.202027 
L 388.851885 107.608784 
L 385.924348 107.608784 
L 385.924348 97.202027 
L 388.851885 97.202027 
z
" style="fill:#0000ff;stroke:#ffffff;stroke-linejoin:miter;stroke-width:0.5;"/>
   </g>
   <g id="cb781b14053b43a2ba4ad0fd1d20866e-12-node">
    <path clip-path="url(#p1a76022e12)" d="M 378.777714 107.608784 
C 379.16591 107.608784 379.538258 107.060523 379.812754 106.08475 
C 380.08725 105.108976 380.241482 103.785357 380.241482 102.405405 
C 380.241482 101.025453 380.08725 99.701835 379.812754 98.726061 
C 379.538258 97.750288 379.16591 97.202027 378.777714 97.202027 
C 378.389518 97.202027 378.017169 97.750288 377.742673 98.726061 
C 377.468177 99.701835 377.313945 101.025453 377.313945 102.405405 
C 377.313945 103.785357 377.468177 105.108976 377.742673 106.08475 
C 378.017169 107.060523 378.389518 107.608784 378.777714 107.608784 
z
" style="fill:#ffff00;stroke:#ffffff;stroke-linejoin:miter;stroke-width:0.5;"/>
   </g>
   <g id="cb781b14053b43a2ba4ad0fd1d20866e-13-node">
    <path clip-path="url(#p1a76022e12)" d="M 371.63108 97.202027 
L 371.63108 107.608784 
L 368.703543 107.608784 
L 368.703543 97.202027 
L 371.63108 97.202027 
z
" style="fill:#0000ff;stroke:#ffffff;stroke-linejoin:miter;stroke-width:0.5;"/>
   </g>
   <g id="cb781b14053b43a2ba4ad0fd1d20866e-15-node">
    <path clip-path="url(#p1a76022e12)" d="M 361.556909 107.608784 
C 361.945105 107.608784 362.317453 107.060523 362.591949 106.08475 
C 362.866445 105.108976 363.020677 103.785357 363.020677 102.405405 
C 363.020677 101.025453 362.866445 99.701835 362.591949 98.726061 
C 362.317453 97.750288 361.945105 97.202027 361.556909 97.202027 
C 361.168713 97.202027 360.796364 97.750288 360.521868 98.726061 
C 360.247372 99.701835 360.09314 101.025453 360.09314 102.405405 
C 360.09314 103.785357 360.247372 105.108976 360.521868 106.08475 
C 360.796364 107.060523 361.168713 107.608784 361.556909 107.608784 
z
" style="fill:#ffff00;stroke:#ffffff;stroke-linejoin:miter;stroke-width:0.5;"/>
   </g>
   <g id="cb781b14053b43a2ba4ad0fd1d20866e-16-node">
    <path clip-path="url(#p1a76022e12)" d="M 352.946506 97.202027 
L 351.482738 102.405405 
L 352.946506 107.608784 
L 354.410275 102.405405 
z
" style="fill:#c800c8;stroke:#ffffff;stroke-linejoin:miter;stroke-width:0.5;"/>
   </g>
   <g id="patch_34">
    <path d="M 308.172414 157.5 
L 308.172414 21.6 
" style="fill:none;stroke:#ffffff;stroke-linecap:square;stroke-linejoin:miter;stroke-width:1.25;"/>
   </g>
   <g id="patch_35">
    <path d="M 452.482759 157.5 
L 452.482759 21.6 
" style="fill:none;stroke:#ffffff;stroke-linecap:square;stroke-linejoin:miter;stroke-width:1.25;"/>
   </g>
   <g id="patch_36">
    <path d="M 308.172414 157.5 
L 452.482759 157.5 
" style="fill:none;stroke:#ffffff;stroke-linecap:square;stroke-linejoin:miter;stroke-width:1.25;"/>
   </g>
   <g id="patch_37">
    <path d="M 308.172414 21.6 
L 452.482759 21.6 
" style="fill:none;stroke:#ffffff;stroke-linecap:square;stroke-linejoin:miter;stroke-width:1.25;"/>
   </g>
   <g id="text_2">
    <!-- 341:4.0 -->
    <defs>
     <path d="M 4.203125 18.890625 
L 12.984375 20.0625 
Q 14.5 12.59375 18.140625 9.296875 
Q 21.78125 6 27 6 
Q 33.203125 6 37.46875 10.296875 
Q 41.75 14.59375 41.75 20.953125 
Q 41.75 27 37.796875 30.921875 
Q 33.84375 34.859375 27.734375 34.859375 
Q 25.25 34.859375 21.53125 33.890625 
L 22.515625 41.609375 
Q 23.390625 41.5 23.921875 41.5 
Q 29.546875 41.5 34.03125 44.421875 
Q 38.53125 47.359375 38.53125 53.46875 
Q 38.53125 58.296875 35.25 61.46875 
Q 31.984375 64.65625 26.8125 64.65625 
Q 21.6875 64.65625 18.265625 61.421875 
Q 14.84375 58.203125 13.875 51.765625 
L 5.078125 53.328125 
Q 6.6875 62.15625 12.390625 67.015625 
Q 18.109375 71.875 26.609375 71.875 
Q 32.46875 71.875 37.390625 69.359375 
Q 42.328125 66.84375 44.9375 62.5 
Q 47.5625 58.15625 47.5625 53.265625 
Q 47.5625 48.640625 45.0625 44.828125 
Q 42.578125 41.015625 37.703125 38.765625 
Q 44.046875 37.3125 47.5625 32.6875 
Q 51.078125 28.078125 51.078125 21.140625 
Q 51.078125 11.765625 44.234375 5.25 
Q 37.40625 -1.265625 26.953125 -1.265625 
Q 17.53125 -1.265625 11.296875 4.34375 
Q 5.078125 9.96875 4.203125 18.890625 
z
" id="ArialMT-51"/>
     <path d="M 32.328125 0 
L 32.328125 17.140625 
L 1.265625 17.140625 
L 1.265625 25.203125 
L 33.9375 71.578125 
L 41.109375 71.578125 
L 41.109375 25.203125 
L 50.78125 25.203125 
L 50.78125 17.140625 
L 41.109375 17.140625 
L 41.109375 0 
z
M 32.328125 25.203125 
L 32.328125 57.46875 
L 9.90625 25.203125 
z
" id="ArialMT-52"/>
     <path d="M 9.078125 0 
L 9.078125 10.015625 
L 19.09375 10.015625 
L 19.09375 0 
z
" id="ArialMT-46"/>
     <path d="M 4.15625 35.296875 
Q 4.15625 48 6.765625 55.734375 
Q 9.375 63.484375 14.515625 67.671875 
Q 19.671875 71.875 27.484375 71.875 
Q 33.25 71.875 37.59375 69.546875 
Q 41.9375 67.234375 44.765625 62.859375 
Q 47.609375 58.5 49.21875 52.21875 
Q 50.828125 45.953125 50.828125 35.296875 
Q 50.828125 22.703125 48.234375 14.96875 
Q 45.65625 7.234375 40.5 3 
Q 35.359375 -1.21875 27.484375 -1.21875 
Q 17.140625 -1.21875 11.234375 6.203125 
Q 4.15625 15.140625 4.15625 35.296875 
z
M 13.1875 35.296875 
Q 13.1875 17.671875 17.3125 11.828125 
Q 21.4375 6 27.484375 6 
Q 33.546875 6 37.671875 11.859375 
Q 41.796875 17.71875 41.796875 35.296875 
Q 41.796875 52.984375 37.671875 58.78125 
Q 33.546875 64.59375 27.390625 64.59375 
Q 21.34375 64.59375 17.71875 59.46875 
Q 13.1875 52.9375 13.1875 35.296875 
z
" id="ArialMT-48"/>
    </defs>
    <g style="fill:#262626;" transform="translate(360.311024 15.6)scale(0.12 -0.12)">
     <use xlink:href="#ArialMT-51"/>
     <use x="55.615234" xlink:href="#ArialMT-52"/>
     <use x="111.230469" xlink:href="#ArialMT-49"/>
     <use x="166.845703" xlink:href="#ArialMT-58"/>
     <use x="194.628906" xlink:href="#ArialMT-52"/>
     <use x="250.244141" xlink:href="#ArialMT-46"/>
     <use x="278.027344" xlink:href="#ArialMT-48"/>
    </g>
   </g>
  </g>
  <g id="axes_3">
   <g id="patch_38">
    <path d="M 481.344828 157.5 
L 625.655172 157.5 
L 625.655172 21.6 
L 481.344828 21.6 
z
" style="fill:#ffffff;"/>
   </g>
   <g id="patch_39">
    <path clip-path="url(#pc609ae3a7e)" d="M 579.064045 162.21875 
L 570.339115 162.21875 
" style="stroke:#000000;stroke-linejoin:miter;stroke-width:0.5;"/>
   </g>
   <g id="patch_40">
    <path clip-path="url(#pc609ae3a7e)" d="M 587.788976 150.421875 
L 579.064045 162.21875 
" style="stroke:#000000;stroke-linejoin:miter;stroke-width:0.5;"/>
   </g>
   <g id="patch_41">
    <path clip-path="url(#pc609ae3a7e)" d="M 579.064045 138.625 
L 570.339115 138.625 
" style="stroke:#000000;stroke-linejoin:miter;stroke-width:0.5;"/>
   </g>
   <g id="patch_42">
    <path clip-path="url(#pc609ae3a7e)" d="M 587.788976 150.421875 
L 579.064045 138.625 
" style="stroke:#000000;stroke-linejoin:miter;stroke-width:0.5;"/>
   </g>
   <g id="patch_43">
    <path clip-path="url(#pc609ae3a7e)" d="M 596.513906 126.828125 
L 587.788976 150.421875 
" style="stroke:#000000;stroke-linejoin:miter;stroke-width:0.5;"/>
   </g>
   <g id="patch_44">
    <path clip-path="url(#pc609ae3a7e)" d="M 579.064045 115.03125 
L 570.339115 115.03125 
" style="stroke:#000000;stroke-linejoin:miter;stroke-width:0.5;"/>
   </g>
   <g id="patch_45">
    <path clip-path="url(#pc609ae3a7e)" d="M 587.788976 103.234375 
L 579.064045 115.03125 
" style="stroke:#000000;stroke-linejoin:miter;stroke-width:0.5;"/>
   </g>
   <g id="patch_46">
    <path clip-path="url(#pc609ae3a7e)" d="M 535.439395 91.4375 
L 526.714464 91.4375 
" style="stroke:#000000;stroke-linejoin:miter;stroke-width:0.5;"/>
   </g>
   <g id="patch_47">
    <path clip-path="url(#pc609ae3a7e)" d="M 544.164325 91.4375 
L 535.439395 91.4375 
" style="stroke:#000000;stroke-linejoin:miter;stroke-width:0.5;"/>
   </g>
   <g id="patch_48">
    <path clip-path="url(#pc609ae3a7e)" d="M 552.889255 91.4375 
L 544.164325 91.4375 
" style="stroke:#000000;stroke-linejoin:miter;stroke-width:0.5;"/>
   </g>
   <g id="patch_49">
    <path clip-path="url(#pc609ae3a7e)" d="M 561.614185 91.4375 
L 552.889255 91.4375 
" style="stroke:#000000;stroke-linejoin:miter;stroke-width:0.5;"/>
   </g>
   <g id="patch_50">
    <path clip-path="url(#pc609ae3a7e)" d="M 570.339115 91.4375 
L 561.614185 91.4375 
" style="stroke:#000000;stroke-linejoin:miter;stroke-width:0.5;"/>
   </g>
   <g id="patch_51">
    <path clip-path="url(#pc609ae3a7e)" d="M 579.064045 91.4375 
L 570.339115 91.4375 
" style="stroke:#000000;stroke-linejoin:miter;stroke-width:0.5;"/>
   </g>
   <g id="patch_52">
    <path clip-path="url(#pc609ae3a7e)" d="M 587.788976 103.234375 
L 579.064045 91.4375 
" style="stroke:#000000;stroke-linejoin:miter;stroke-width:0.5;"/>
   </g>
   <g id="patch_53">
    <path clip-path="url(#pc609ae3a7e)" d="M 596.513906 126.828125 
L 587.788976 103.234375 
" style="stroke:#000000;stroke-linejoin:miter;stroke-width:0.5;"/>
   </g>
   <g id="patch_54">
    <path clip-path="url(#pc609ae3a7e)" d="M 605.238836 126.828125 
L 596.513906 126.828125 
" style="stroke:#000000;stroke-linejoin:miter;stroke-width:0.5;"/>
   </g>
   <g id="patch_55">
    <path clip-path="url(#pc609ae3a7e)" d="M 613.963766 126.828125 
L 605.238836 126.828125 
" style="stroke:#000000;stroke-linejoin:miter;stroke-width:0.5;"/>
   </g>
   <g id="a0134dfd12974dff8ea24adf485b257a-1-node">
    <path clip-path="url(#pc609ae3a7e)" d="M 615.447004 122.817188 
L 615.447004 130.839063 
L 612.480528 130.839063 
L 612.480528 122.817188 
L 615.447004 122.817188 
z
" style="fill:#0000ff;stroke:#ffffff;stroke-linejoin:miter;stroke-width:0.5;"/>
   </g>
   <g id="a0134dfd12974dff8ea24adf485b257a-3-node">
    <path clip-path="url(#pc609ae3a7e)" d="M 606.722074 122.817188 
L 606.722074 130.839063 
L 603.755598 130.839063 
L 603.755598 122.817188 
L 606.722074 122.817188 
z
" style="fill:#0000ff;stroke:#ffffff;stroke-linejoin:miter;stroke-width:0.5;"/>
   </g>
   <g id="a0134dfd12974dff8ea24adf485b257a-5-node">
    <path clip-path="url(#pc609ae3a7e)" d="M 596.513906 130.839063 
C 596.907265 130.839063 597.284566 130.416445 597.562713 129.664286 
C 597.84086 128.912127 597.997144 127.891838 597.997144 126.828125 
C 597.997144 125.764412 597.84086 124.744123 597.562713 123.991964 
C 597.284566 123.239805 596.907265 122.817188 596.513906 122.817188 
C 596.120546 122.817188 595.743245 123.239805 595.465098 123.991964 
C 595.186951 124.744123 595.030668 125.764412 595.030668 126.828125 
C 595.030668 127.891838 595.186951 128.912127 595.465098 129.664286 
C 595.743245 130.416445 596.120546 130.839063 596.513906 130.839063 
z
" style="fill:#00c832;stroke:#ffffff;stroke-linejoin:miter;stroke-width:0.5;"/>
   </g>
   <g id="a0134dfd12974dff8ea24adf485b257a-21-node">
    <path clip-path="url(#pc609ae3a7e)" d="M 587.788976 154.432813 
C 588.182335 154.432813 588.559636 154.010195 588.837783 153.258036 
C 589.11593 152.505877 589.272214 151.485588 589.272214 150.421875 
C 589.272214 149.358162 589.11593 148.337873 588.837783 147.585714 
C 588.559636 146.833555 588.182335 146.410937 587.788976 146.410937 
C 587.395616 146.410937 587.018315 146.833555 586.740168 147.585714 
C 586.462021 148.337873 586.305737 149.358162 586.305737 150.421875 
C 586.305737 151.485588 586.462021 152.505877 586.740168 153.258036 
C 587.018315 154.010195 587.395616 154.432813 587.788976 154.432813 
z
" style="fill:#00c832;stroke:#ffffff;stroke-linejoin:miter;stroke-width:0.5;"/>
   </g>
   <g id="a0134dfd12974dff8ea24adf485b257a-25-node">
    <path clip-path="url(#pc609ae3a7e)" d="M 580.547283 158.207812 
L 580.547283 166.229687 
L 577.580807 166.229687 
L 577.580807 158.207812 
L 580.547283 158.207812 
z
" style="fill:#0000ff;stroke:#ffffff;stroke-linejoin:miter;stroke-width:0.5;"/>
   </g>
   <g id="a0134dfd12974dff8ea24adf485b257a-27-node">
    <path clip-path="url(#pc609ae3a7e)" d="M 570.339115 166.229687 
C 570.732475 166.229687 571.109776 165.80707 571.387923 165.054911 
C 571.66607 164.302752 571.822353 163.282463 571.822353 162.21875 
C 571.822353 161.155037 571.66607 160.134748 571.387923 159.382589 
C 571.109776 158.63043 570.732475 158.207812 570.339115 158.207812 
C 569.945756 158.207812 569.568455 158.63043 569.290307 159.382589 
C 569.01216 160.134748 568.855877 161.155037 568.855877 162.21875 
C 568.855877 163.282463 569.01216 164.302752 569.290307 165.054911 
C 569.568455 165.80707 569.945756 166.229687 570.339115 166.229687 
z
" style="fill:#ffff00;stroke:#ffffff;stroke-linejoin:miter;stroke-width:0.5;"/>
   </g>
   <g id="a0134dfd12974dff8ea24adf485b257a-22-node">
    <path clip-path="url(#pc609ae3a7e)" d="M 580.547283 134.614062 
L 580.547283 142.635938 
L 577.580807 142.635938 
L 577.580807 134.614062 
L 580.547283 134.614062 
z
" style="fill:#0000ff;stroke:#ffffff;stroke-linejoin:miter;stroke-width:0.5;"/>
   </g>
   <g id="a0134dfd12974dff8ea24adf485b257a-24-node">
    <path clip-path="url(#pc609ae3a7e)" d="M 570.339115 142.635938 
C 570.732475 142.635938 571.109776 142.21332 571.387923 141.461161 
C 571.66607 140.709002 571.822353 139.688713 571.822353 138.625 
C 571.822353 137.561287 571.66607 136.540998 571.387923 135.788839 
C 571.109776 135.03668 570.732475 134.614062 570.339115 134.614062 
C 569.945756 134.614062 569.568455 135.03668 569.290307 135.788839 
C 569.01216 136.540998 568.855877 137.561287 568.855877 138.625 
C 568.855877 139.688713 569.01216 140.709002 569.290307 141.461161 
C 569.568455 142.21332 569.945756 142.635938 570.339115 142.635938 
z
" style="fill:#ffff00;stroke:#ffffff;stroke-linejoin:miter;stroke-width:0.5;"/>
   </g>
   <g id="a0134dfd12974dff8ea24adf485b257a-6-node">
    <path clip-path="url(#pc609ae3a7e)" d="M 587.788976 107.245313 
C 588.182335 107.245313 588.559636 106.822695 588.837783 106.070536 
C 589.11593 105.318377 589.272214 104.298088 589.272214 103.234375 
C 589.272214 102.170662 589.11593 101.150373 588.837783 100.398214 
C 588.559636 99.646055 588.182335 99.223438 587.788976 99.223438 
C 587.395616 99.223438 587.018315 99.646055 586.740168 100.398214 
C 586.462021 101.150373 586.305737 102.170662 586.305737 103.234375 
C 586.305737 104.298088 586.462021 105.318377 586.740168 106.070536 
C 587.018315 106.822695 587.395616 107.245313 587.788976 107.245313 
z
" style="fill:#00c832;stroke:#ffffff;stroke-linejoin:miter;stroke-width:0.5;"/>
   </g>
   <g id="a0134dfd12974dff8ea24adf485b257a-18-node">
    <path clip-path="url(#pc609ae3a7e)" d="M 580.547283 111.020312 
L 580.547283 119.042187 
L 577.580807 119.042187 
L 577.580807 111.020312 
L 580.547283 111.020312 
z
" style="fill:#0000ff;stroke:#ffffff;stroke-linejoin:miter;stroke-width:0.5;"/>
   </g>
   <g id="a0134dfd12974dff8ea24adf485b257a-20-node">
    <path clip-path="url(#pc609ae3a7e)" d="M 570.339115 119.042187 
C 570.732475 119.042187 571.109776 118.61957 571.387923 117.867411 
C 571.66607 117.115252 571.822353 116.094963 571.822353 115.03125 
C 571.822353 113.967537 571.66607 112.947248 571.387923 112.195089 
C 571.109776 111.44293 570.732475 111.020312 570.339115 111.020312 
C 569.945756 111.020312 569.568455 111.44293 569.290307 112.195089 
C 569.01216 112.947248 568.855877 113.967537 568.855877 115.03125 
C 568.855877 116.094963 569.01216 117.115252 569.290307 117.867411 
C 569.568455 118.61957 569.945756 119.042187 570.339115 119.042187 
z
" style="fill:#ffff00;stroke:#ffffff;stroke-linejoin:miter;stroke-width:0.5;"/>
   </g>
   <g id="a0134dfd12974dff8ea24adf485b257a-7-node">
    <path clip-path="url(#pc609ae3a7e)" d="M 580.547283 87.426563 
L 580.547283 95.448437 
L 577.580807 95.448437 
L 577.580807 87.426563 
L 580.547283 87.426563 
z
" style="fill:#0000ff;stroke:#ffffff;stroke-linejoin:miter;stroke-width:0.5;"/>
   </g>
   <g id="a0134dfd12974dff8ea24adf485b257a-9-node">
    <path clip-path="url(#pc609ae3a7e)" d="M 570.339115 95.448437 
C 570.732475 95.448437 571.109776 95.02582 571.387923 94.273661 
C 571.66607 93.521502 571.822353 92.501213 571.822353 91.4375 
C 571.822353 90.373787 571.66607 89.353498 571.387923 88.601339 
C 571.109776 87.84918 570.732475 87.426563 570.339115 87.426563 
C 569.945756 87.426563 569.568455 87.84918 569.290307 88.601339 
C 569.01216 89.353498 568.855877 90.373787 568.855877 91.4375 
C 568.855877 92.501213 569.01216 93.521502 569.290307 94.273661 
C 569.568455 95.02582 569.945756 95.448437 570.339115 95.448437 
z
" style="fill:#ffff00;stroke:#ffffff;stroke-linejoin:miter;stroke-width:0.5;"/>
   </g>
   <g id="a0134dfd12974dff8ea24adf485b257a-10-node">
    <path clip-path="url(#pc609ae3a7e)" d="M 563.097423 87.426563 
L 563.097423 95.448437 
L 560.130947 95.448437 
L 560.130947 87.426563 
L 563.097423 87.426563 
z
" style="fill:#0000ff;stroke:#ffffff;stroke-linejoin:miter;stroke-width:0.5;"/>
   </g>
   <g id="a0134dfd12974dff8ea24adf485b257a-12-node">
    <path clip-path="url(#pc609ae3a7e)" d="M 552.889255 95.448437 
C 553.282614 95.448437 553.659916 95.02582 553.938063 94.273661 
C 554.21621 93.521502 554.372493 92.501213 554.372493 91.4375 
C 554.372493 90.373787 554.21621 89.353498 553.938063 88.601339 
C 553.659916 87.84918 553.282614 87.426563 552.889255 87.426563 
C 552.495896 87.426563 552.118594 87.84918 551.840447 88.601339 
C 551.5623 89.353498 551.406017 90.373787 551.406017 91.4375 
C 551.406017 92.501213 551.5623 93.521502 551.840447 94.273661 
C 552.118594 95.02582 552.495896 95.448437 552.889255 95.448437 
z
" style="fill:#ffff00;stroke:#ffffff;stroke-linejoin:miter;stroke-width:0.5;"/>
   </g>
   <g id="a0134dfd12974dff8ea24adf485b257a-13-node">
    <path clip-path="url(#pc609ae3a7e)" d="M 545.647563 87.426563 
L 545.647563 95.448437 
L 542.681087 95.448437 
L 542.681087 87.426563 
L 545.647563 87.426563 
z
" style="fill:#0000ff;stroke:#ffffff;stroke-linejoin:miter;stroke-width:0.5;"/>
   </g>
   <g id="a0134dfd12974dff8ea24adf485b257a-15-node">
    <path clip-path="url(#pc609ae3a7e)" d="M 535.439395 95.448437 
C 535.832754 95.448437 536.210055 95.02582 536.488202 94.273661 
C 536.766349 93.521502 536.922633 92.501213 536.922633 91.4375 
C 536.922633 90.373787 536.766349 89.353498 536.488202 88.601339 
C 536.210055 87.84918 535.832754 87.426563 535.439395 87.426563 
C 535.046035 87.426563 534.668734 87.84918 534.390587 88.601339 
C 534.11244 89.353498 533.956156 90.373787 533.956156 91.4375 
C 533.956156 92.501213 534.11244 93.521502 534.390587 94.273661 
C 534.668734 95.02582 535.046035 95.448437 535.439395 95.448437 
z
" style="fill:#ffff00;stroke:#ffffff;stroke-linejoin:miter;stroke-width:0.5;"/>
   </g>
   <g id="a0134dfd12974dff8ea24adf485b257a-16-node">
    <path clip-path="url(#pc609ae3a7e)" d="M 526.714464 87.426563 
L 525.231226 91.4375 
L 526.714464 95.448437 
L 528.197703 91.4375 
z
" style="fill:#c800c8;stroke:#ffffff;stroke-linejoin:miter;stroke-width:0.5;"/>
   </g>
   <g id="patch_56">
    <path d="M 481.344828 157.5 
L 481.344828 21.6 
" style="fill:none;stroke:#ffffff;stroke-linecap:square;stroke-linejoin:miter;stroke-width:1.25;"/>
   </g>
   <g id="patch_57">
    <path d="M 625.655172 157.5 
L 625.655172 21.6 
" style="fill:none;stroke:#ffffff;stroke-linecap:square;stroke-linejoin:miter;stroke-width:1.25;"/>
   </g>
   <g id="patch_58">
    <path d="M 481.344828 157.5 
L 625.655172 157.5 
" style="fill:none;stroke:#ffffff;stroke-linecap:square;stroke-linejoin:miter;stroke-width:1.25;"/>
   </g>
   <g id="patch_59">
    <path d="M 481.344828 21.6 
L 625.655172 21.6 
" style="fill:none;stroke:#ffffff;stroke-linecap:square;stroke-linejoin:miter;stroke-width:1.25;"/>
   </g>
   <g id="text_3">
    <!-- 468:6.0 -->
    <defs>
     <path d="M 49.75 54.046875 
L 41.015625 53.375 
Q 39.84375 58.546875 37.703125 60.890625 
Q 34.125 64.65625 28.90625 64.65625 
Q 24.703125 64.65625 21.53125 62.3125 
Q 17.390625 59.28125 14.984375 53.46875 
Q 12.59375 47.65625 12.5 36.921875 
Q 15.671875 41.75 20.265625 44.09375 
Q 24.859375 46.4375 29.890625 46.4375 
Q 38.671875 46.4375 44.84375 39.96875 
Q 51.03125 33.5 51.03125 23.25 
Q 51.03125 16.5 48.125 10.71875 
Q 45.21875 4.9375 40.140625 1.859375 
Q 35.0625 -1.21875 28.609375 -1.21875 
Q 17.625 -1.21875 10.6875 6.859375 
Q 3.765625 14.9375 3.765625 33.5 
Q 3.765625 54.25 11.421875 63.671875 
Q 18.109375 71.875 29.4375 71.875 
Q 37.890625 71.875 43.28125 67.140625 
Q 48.6875 62.40625 49.75 54.046875 
z
M 13.875 23.1875 
Q 13.875 18.65625 15.796875 14.5 
Q 17.71875 10.359375 21.1875 8.171875 
Q 24.65625 6 28.46875 6 
Q 34.03125 6 38.03125 10.484375 
Q 42.046875 14.984375 42.046875 22.703125 
Q 42.046875 30.125 38.078125 34.390625 
Q 34.125 38.671875 28.125 38.671875 
Q 22.171875 38.671875 18.015625 34.390625 
Q 13.875 30.125 13.875 23.1875 
z
" id="ArialMT-54"/>
     <path d="M 17.671875 38.8125 
Q 12.203125 40.828125 9.5625 44.53125 
Q 6.9375 48.25 6.9375 53.421875 
Q 6.9375 61.234375 12.546875 66.546875 
Q 18.171875 71.875 27.484375 71.875 
Q 36.859375 71.875 42.578125 66.421875 
Q 48.296875 60.984375 48.296875 53.171875 
Q 48.296875 48.1875 45.671875 44.5 
Q 43.0625 40.828125 37.75 38.8125 
Q 44.34375 36.671875 47.78125 31.875 
Q 51.21875 27.09375 51.21875 20.453125 
Q 51.21875 11.28125 44.71875 5.03125 
Q 38.234375 -1.21875 27.640625 -1.21875 
Q 17.046875 -1.21875 10.546875 5.046875 
Q 4.046875 11.328125 4.046875 20.703125 
Q 4.046875 27.6875 7.59375 32.390625 
Q 11.140625 37.109375 17.671875 38.8125 
z
M 15.921875 53.71875 
Q 15.921875 48.640625 19.1875 45.40625 
Q 22.46875 42.1875 27.6875 42.1875 
Q 32.765625 42.1875 36.015625 45.375 
Q 39.265625 48.578125 39.265625 53.21875 
Q 39.265625 58.0625 35.90625 61.359375 
Q 32.5625 64.65625 27.59375 64.65625 
Q 22.5625 64.65625 19.234375 61.421875 
Q 15.921875 58.203125 15.921875 53.71875 
z
M 13.09375 20.65625 
Q 13.09375 16.890625 14.875 13.375 
Q 16.65625 9.859375 20.171875 7.921875 
Q 23.6875 6 27.734375 6 
Q 34.03125 6 38.125 10.046875 
Q 42.234375 14.109375 42.234375 20.359375 
Q 42.234375 26.703125 38.015625 30.859375 
Q 33.796875 35.015625 27.4375 35.015625 
Q 21.234375 35.015625 17.15625 30.90625 
Q 13.09375 26.8125 13.09375 20.65625 
z
" id="ArialMT-56"/>
    </defs>
    <g style="fill:#262626;" transform="translate(533.483438 15.6)scale(0.12 -0.12)">
     <use xlink:href="#ArialMT-52"/>
     <use x="55.615234" xlink:href="#ArialMT-54"/>
     <use x="111.230469" xlink:href="#ArialMT-56"/>
     <use x="166.845703" xlink:href="#ArialMT-58"/>
     <use x="194.628906" xlink:href="#ArialMT-54"/>
     <use x="250.244141" xlink:href="#ArialMT-46"/>
     <use x="278.027344" xlink:href="#ArialMT-48"/>
    </g>
   </g>
  </g>
  <g id="axes_4">
   <g id="patch_60">
    <path d="M 654.517241 157.5 
L 798.827586 157.5 
L 798.827586 21.6 
L 654.517241 21.6 
z
" style="fill:#eaeaf2;"/>
   </g>
   <g id="matplotlib.axis_1">
    <g id="xtick_1">
     <g id="line2d_1">
      <path clip-path="url(#pd8d94da372)" d="M 654.517241 157.5 
L 654.517241 21.6 
" style="fill:none;stroke:#ffffff;stroke-linecap:round;"/>
     </g>
     <g id="text_4">
      <!-- 0.00 -->
      <g style="fill:#262626;" transform="translate(643.813726 174.873594)scale(0.11 -0.11)">
       <use xlink:href="#ArialMT-48"/>
       <use x="55.615234" xlink:href="#ArialMT-46"/>
       <use x="83.398438" xlink:href="#ArialMT-48"/>
       <use x="139.013672" xlink:href="#ArialMT-48"/>
      </g>
     </g>
    </g>
    <g id="xtick_2">
     <g id="line2d_2">
      <path clip-path="url(#pd8d94da372)" d="M 690.594828 157.5 
L 690.594828 21.6 
" style="fill:none;stroke:#ffffff;stroke-linecap:round;"/>
     </g>
     <g id="text_5">
      <!-- 0.25 -->
      <defs>
       <path d="M 4.15625 18.75 
L 13.375 19.53125 
Q 14.40625 12.796875 18.140625 9.390625 
Q 21.875 6 27.15625 6 
Q 33.5 6 37.890625 10.78125 
Q 42.28125 15.578125 42.28125 23.484375 
Q 42.28125 31 38.0625 35.34375 
Q 33.84375 39.703125 27 39.703125 
Q 22.75 39.703125 19.328125 37.765625 
Q 15.921875 35.84375 13.96875 32.765625 
L 5.71875 33.84375 
L 12.640625 70.609375 
L 48.25 70.609375 
L 48.25 62.203125 
L 19.671875 62.203125 
L 15.828125 42.96875 
Q 22.265625 47.46875 29.34375 47.46875 
Q 38.71875 47.46875 45.15625 40.96875 
Q 51.609375 34.46875 51.609375 24.265625 
Q 51.609375 14.546875 45.953125 7.46875 
Q 39.0625 -1.21875 27.15625 -1.21875 
Q 17.390625 -1.21875 11.203125 4.25 
Q 5.03125 9.71875 4.15625 18.75 
z
" id="ArialMT-53"/>
      </defs>
      <g style="fill:#262626;" transform="translate(679.891312 174.873594)scale(0.11 -0.11)">
       <use xlink:href="#ArialMT-48"/>
       <use x="55.615234" xlink:href="#ArialMT-46"/>
       <use x="83.398438" xlink:href="#ArialMT-50"/>
       <use x="139.013672" xlink:href="#ArialMT-53"/>
      </g>
     </g>
    </g>
    <g id="xtick_3">
     <g id="line2d_3">
      <path clip-path="url(#pd8d94da372)" d="M 726.672414 157.5 
L 726.672414 21.6 
" style="fill:none;stroke:#ffffff;stroke-linecap:round;"/>
     </g>
     <g id="text_6">
      <!-- 0.50 -->
      <g style="fill:#262626;" transform="translate(715.968898 174.873594)scale(0.11 -0.11)">
       <use xlink:href="#ArialMT-48"/>
       <use x="55.615234" xlink:href="#ArialMT-46"/>
       <use x="83.398438" xlink:href="#ArialMT-53"/>
       <use x="139.013672" xlink:href="#ArialMT-48"/>
      </g>
     </g>
    </g>
    <g id="xtick_4">
     <g id="line2d_4">
      <path clip-path="url(#pd8d94da372)" d="M 762.75 157.5 
L 762.75 21.6 
" style="fill:none;stroke:#ffffff;stroke-linecap:round;"/>
     </g>
     <g id="text_7">
      <!-- 0.75 -->
      <defs>
       <path d="M 4.734375 62.203125 
L 4.734375 70.65625 
L 51.078125 70.65625 
L 51.078125 63.8125 
Q 44.234375 56.546875 37.515625 44.484375 
Q 30.8125 32.421875 27.15625 19.671875 
Q 24.515625 10.6875 23.78125 0 
L 14.75 0 
Q 14.890625 8.453125 18.0625 20.40625 
Q 21.234375 32.375 27.171875 43.484375 
Q 33.109375 54.59375 39.796875 62.203125 
z
" id="ArialMT-55"/>
      </defs>
      <g style="fill:#262626;" transform="translate(752.046484 174.873594)scale(0.11 -0.11)">
       <use xlink:href="#ArialMT-48"/>
       <use x="55.615234" xlink:href="#ArialMT-46"/>
       <use x="83.398438" xlink:href="#ArialMT-55"/>
       <use x="139.013672" xlink:href="#ArialMT-53"/>
      </g>
     </g>
    </g>
    <g id="xtick_5">
     <g id="line2d_5">
      <path clip-path="url(#pd8d94da372)" d="M 798.827586 157.5 
L 798.827586 21.6 
" style="fill:none;stroke:#ffffff;stroke-linecap:round;"/>
     </g>
     <g id="text_8">
      <!-- 1.00 -->
      <g style="fill:#262626;" transform="translate(788.124071 174.873594)scale(0.11 -0.11)">
       <use xlink:href="#ArialMT-49"/>
       <use x="55.615234" xlink:href="#ArialMT-46"/>
       <use x="83.398438" xlink:href="#ArialMT-48"/>
       <use x="139.013672" xlink:href="#ArialMT-48"/>
      </g>
     </g>
    </g>
   </g>
   <g id="matplotlib.axis_2">
    <g id="ytick_1">
     <g id="line2d_6">
      <path clip-path="url(#pd8d94da372)" d="M 654.517241 157.5 
L 798.827586 157.5 
" style="fill:none;stroke:#ffffff;stroke-linecap:round;"/>
     </g>
     <g id="text_9">
      <!-- 0.0 -->
      <g style="fill:#262626;" transform="translate(629.727241 161.436797)scale(0.11 -0.11)">
       <use xlink:href="#ArialMT-48"/>
       <use x="55.615234" xlink:href="#ArialMT-46"/>
       <use x="83.398438" xlink:href="#ArialMT-48"/>
      </g>
     </g>
    </g>
    <g id="ytick_2">
     <g id="line2d_7">
      <path clip-path="url(#pd8d94da372)" d="M 654.517241 130.32 
L 798.827586 130.32 
" style="fill:none;stroke:#ffffff;stroke-linecap:round;"/>
     </g>
     <g id="text_10">
      <!-- 0.2 -->
      <g style="fill:#262626;" transform="translate(629.727241 134.256797)scale(0.11 -0.11)">
       <use xlink:href="#ArialMT-48"/>
       <use x="55.615234" xlink:href="#ArialMT-46"/>
       <use x="83.398438" xlink:href="#ArialMT-50"/>
      </g>
     </g>
    </g>
    <g id="ytick_3">
     <g id="line2d_8">
      <path clip-path="url(#pd8d94da372)" d="M 654.517241 103.14 
L 798.827586 103.14 
" style="fill:none;stroke:#ffffff;stroke-linecap:round;"/>
     </g>
     <g id="text_11">
      <!-- 0.4 -->
      <g style="fill:#262626;" transform="translate(629.727241 107.076797)scale(0.11 -0.11)">
       <use xlink:href="#ArialMT-48"/>
       <use x="55.615234" xlink:href="#ArialMT-46"/>
       <use x="83.398438" xlink:href="#ArialMT-52"/>
      </g>
     </g>
    </g>
    <g id="ytick_4">
     <g id="line2d_9">
      <path clip-path="url(#pd8d94da372)" d="M 654.517241 75.96 
L 798.827586 75.96 
" style="fill:none;stroke:#ffffff;stroke-linecap:round;"/>
     </g>
     <g id="text_12">
      <!-- 0.6 -->
      <g style="fill:#262626;" transform="translate(629.727241 79.896797)scale(0.11 -0.11)">
       <use xlink:href="#ArialMT-48"/>
       <use x="55.615234" xlink:href="#ArialMT-46"/>
       <use x="83.398438" xlink:href="#ArialMT-54"/>
      </g>
     </g>
    </g>
    <g id="ytick_5">
     <g id="line2d_10">
      <path clip-path="url(#pd8d94da372)" d="M 654.517241 48.78 
L 798.827586 48.78 
" style="fill:none;stroke:#ffffff;stroke-linecap:round;"/>
     </g>
     <g id="text_13">
      <!-- 0.8 -->
      <g style="fill:#262626;" transform="translate(629.727241 52.716797)scale(0.11 -0.11)">
       <use xlink:href="#ArialMT-48"/>
       <use x="55.615234" xlink:href="#ArialMT-46"/>
       <use x="83.398438" xlink:href="#ArialMT-56"/>
      </g>
     </g>
    </g>
    <g id="ytick_6">
     <g id="line2d_11">
      <path clip-path="url(#pd8d94da372)" d="M 654.517241 21.6 
L 798.827586 21.6 
" style="fill:none;stroke:#ffffff;stroke-linecap:round;"/>
     </g>
     <g id="text_14">
      <!-- 1.0 -->
      <g style="fill:#262626;" transform="translate(629.727241 25.536797)scale(0.11 -0.11)">
       <use xlink:href="#ArialMT-49"/>
       <use x="55.615234" xlink:href="#ArialMT-46"/>
       <use x="83.398438" xlink:href="#ArialMT-48"/>
      </g>
     </g>
    </g>
   </g>
   <g id="patch_61">
    <path d="M 654.517241 157.5 
L 654.517241 21.6 
" style="fill:none;stroke:#ffffff;stroke-linecap:square;stroke-linejoin:miter;stroke-width:1.25;"/>
   </g>
   <g id="patch_62">
    <path d="M 798.827586 157.5 
L 798.827586 21.6 
" style="fill:none;stroke:#ffffff;stroke-linecap:square;stroke-linejoin:miter;stroke-width:1.25;"/>
   </g>
   <g id="patch_63">
    <path d="M 654.517241 157.5 
L 798.827586 157.5 
" style="fill:none;stroke:#ffffff;stroke-linecap:square;stroke-linejoin:miter;stroke-width:1.25;"/>
   </g>
   <g id="patch_64">
    <path d="M 654.517241 21.6 
L 798.827586 21.6 
" style="fill:none;stroke:#ffffff;stroke-linecap:square;stroke-linejoin:miter;stroke-width:1.25;"/>
   </g>
  </g>
  <g id="axes_5">
   <g id="patch_65">
    <path d="M 827.689655 157.5 
L 972 157.5 
L 972 21.6 
L 827.689655 21.6 
z
" style="fill:#eaeaf2;"/>
   </g>
   <g id="matplotlib.axis_3">
    <g id="xtick_6">
     <g id="line2d_12">
      <path clip-path="url(#pc519259f0d)" d="M 827.689655 157.5 
L 827.689655 21.6 
" style="fill:none;stroke:#ffffff;stroke-linecap:round;"/>
     </g>
     <g id="text_15">
      <!-- 0.00 -->
      <g style="fill:#262626;" transform="translate(816.98614 174.873594)scale(0.11 -0.11)">
       <use xlink:href="#ArialMT-48"/>
       <use x="55.615234" xlink:href="#ArialMT-46"/>
       <use x="83.398438" xlink:href="#ArialMT-48"/>
       <use x="139.013672" xlink:href="#ArialMT-48"/>
      </g>
     </g>
    </g>
    <g id="xtick_7">
     <g id="line2d_13">
      <path clip-path="url(#pc519259f0d)" d="M 863.767241 157.5 
L 863.767241 21.6 
" style="fill:none;stroke:#ffffff;stroke-linecap:round;"/>
     </g>
     <g id="text_16">
      <!-- 0.25 -->
      <g style="fill:#262626;" transform="translate(853.063726 174.873594)scale(0.11 -0.11)">
       <use xlink:href="#ArialMT-48"/>
       <use x="55.615234" xlink:href="#ArialMT-46"/>
       <use x="83.398438" xlink:href="#ArialMT-50"/>
       <use x="139.013672" xlink:href="#ArialMT-53"/>
      </g>
     </g>
    </g>
    <g id="xtick_8">
     <g id="line2d_14">
      <path clip-path="url(#pc519259f0d)" d="M 899.844828 157.5 
L 899.844828 21.6 
" style="fill:none;stroke:#ffffff;stroke-linecap:round;"/>
     </g>
     <g id="text_17">
      <!-- 0.50 -->
      <g style="fill:#262626;" transform="translate(889.141312 174.873594)scale(0.11 -0.11)">
       <use xlink:href="#ArialMT-48"/>
       <use x="55.615234" xlink:href="#ArialMT-46"/>
       <use x="83.398438" xlink:href="#ArialMT-53"/>
       <use x="139.013672" xlink:href="#ArialMT-48"/>
      </g>
     </g>
    </g>
    <g id="xtick_9">
     <g id="line2d_15">
      <path clip-path="url(#pc519259f0d)" d="M 935.922414 157.5 
L 935.922414 21.6 
" style="fill:none;stroke:#ffffff;stroke-linecap:round;"/>
     </g>
     <g id="text_18">
      <!-- 0.75 -->
      <g style="fill:#262626;" transform="translate(925.218898 174.873594)scale(0.11 -0.11)">
       <use xlink:href="#ArialMT-48"/>
       <use x="55.615234" xlink:href="#ArialMT-46"/>
       <use x="83.398438" xlink:href="#ArialMT-55"/>
       <use x="139.013672" xlink:href="#ArialMT-53"/>
      </g>
     </g>
    </g>
    <g id="xtick_10">
     <g id="line2d_16">
      <path clip-path="url(#pc519259f0d)" d="M 972 157.5 
L 972 21.6 
" style="fill:none;stroke:#ffffff;stroke-linecap:round;"/>
     </g>
     <g id="text_19">
      <!-- 1.00 -->
      <g style="fill:#262626;" transform="translate(961.296484 174.873594)scale(0.11 -0.11)">
       <use xlink:href="#ArialMT-49"/>
       <use x="55.615234" xlink:href="#ArialMT-46"/>
       <use x="83.398438" xlink:href="#ArialMT-48"/>
       <use x="139.013672" xlink:href="#ArialMT-48"/>
      </g>
     </g>
    </g>
   </g>
   <g id="matplotlib.axis_4">
    <g id="ytick_7">
     <g id="line2d_17">
      <path clip-path="url(#pc519259f0d)" d="M 827.689655 157.5 
L 972 157.5 
" style="fill:none;stroke:#ffffff;stroke-linecap:round;"/>
     </g>
     <g id="text_20">
      <!-- 0.0 -->
      <g style="fill:#262626;" transform="translate(802.899655 161.436797)scale(0.11 -0.11)">
       <use xlink:href="#ArialMT-48"/>
       <use x="55.615234" xlink:href="#ArialMT-46"/>
       <use x="83.398438" xlink:href="#ArialMT-48"/>
      </g>
     </g>
    </g>
    <g id="ytick_8">
     <g id="line2d_18">
      <path clip-path="url(#pc519259f0d)" d="M 827.689655 130.32 
L 972 130.32 
" style="fill:none;stroke:#ffffff;stroke-linecap:round;"/>
     </g>
     <g id="text_21">
      <!-- 0.2 -->
      <g style="fill:#262626;" transform="translate(802.899655 134.256797)scale(0.11 -0.11)">
       <use xlink:href="#ArialMT-48"/>
       <use x="55.615234" xlink:href="#ArialMT-46"/>
       <use x="83.398438" xlink:href="#ArialMT-50"/>
      </g>
     </g>
    </g>
    <g id="ytick_9">
     <g id="line2d_19">
      <path clip-path="url(#pc519259f0d)" d="M 827.689655 103.14 
L 972 103.14 
" style="fill:none;stroke:#ffffff;stroke-linecap:round;"/>
     </g>
     <g id="text_22">
      <!-- 0.4 -->
      <g style="fill:#262626;" transform="translate(802.899655 107.076797)scale(0.11 -0.11)">
       <use xlink:href="#ArialMT-48"/>
       <use x="55.615234" xlink:href="#ArialMT-46"/>
       <use x="83.398438" xlink:href="#ArialMT-52"/>
      </g>
     </g>
    </g>
    <g id="ytick_10">
     <g id="line2d_20">
      <path clip-path="url(#pc519259f0d)" d="M 827.689655 75.96 
L 972 75.96 
" style="fill:none;stroke:#ffffff;stroke-linecap:round;"/>
     </g>
     <g id="text_23">
      <!-- 0.6 -->
      <g style="fill:#262626;" transform="translate(802.899655 79.896797)scale(0.11 -0.11)">
       <use xlink:href="#ArialMT-48"/>
       <use x="55.615234" xlink:href="#ArialMT-46"/>
       <use x="83.398438" xlink:href="#ArialMT-54"/>
      </g>
     </g>
    </g>
    <g id="ytick_11">
     <g id="line2d_21">
      <path clip-path="url(#pc519259f0d)" d="M 827.689655 48.78 
L 972 48.78 
" style="fill:none;stroke:#ffffff;stroke-linecap:round;"/>
     </g>
     <g id="text_24">
      <!-- 0.8 -->
      <g style="fill:#262626;" transform="translate(802.899655 52.716797)scale(0.11 -0.11)">
       <use xlink:href="#ArialMT-48"/>
       <use x="55.615234" xlink:href="#ArialMT-46"/>
       <use x="83.398438" xlink:href="#ArialMT-56"/>
      </g>
     </g>
    </g>
    <g id="ytick_12">
     <g id="line2d_22">
      <path clip-path="url(#pc519259f0d)" d="M 827.689655 21.6 
L 972 21.6 
" style="fill:none;stroke:#ffffff;stroke-linecap:round;"/>
     </g>
     <g id="text_25">
      <!-- 1.0 -->
      <g style="fill:#262626;" transform="translate(802.899655 25.536797)scale(0.11 -0.11)">
       <use xlink:href="#ArialMT-49"/>
       <use x="55.615234" xlink:href="#ArialMT-46"/>
       <use x="83.398438" xlink:href="#ArialMT-48"/>
      </g>
     </g>
    </g>
   </g>
   <g id="patch_66">
    <path d="M 827.689655 157.5 
L 827.689655 21.6 
" style="fill:none;stroke:#ffffff;stroke-linecap:square;stroke-linejoin:miter;stroke-width:1.25;"/>
   </g>
   <g id="patch_67">
    <path d="M 972 157.5 
L 972 21.6 
" style="fill:none;stroke:#ffffff;stroke-linecap:square;stroke-linejoin:miter;stroke-width:1.25;"/>
   </g>
   <g id="patch_68">
    <path d="M 827.689655 157.5 
L 972 157.5 
" style="fill:none;stroke:#ffffff;stroke-linecap:square;stroke-linejoin:miter;stroke-width:1.25;"/>
   </g>
   <g id="patch_69">
    <path d="M 827.689655 21.6 
L 972 21.6 
" style="fill:none;stroke:#ffffff;stroke-linecap:square;stroke-linejoin:miter;stroke-width:1.25;"/>
   </g>
   <g id="text_26">
    <!-- 22 -->
    <g style="fill:#262626;" transform="translate(893.171703 15.6)scale(0.12 -0.12)">
     <use xlink:href="#ArialMT-50"/>
     <use x="55.615234" xlink:href="#ArialMT-50"/>
    </g>
   </g>
  </g>
 </g>
 <defs>
  <clipPath id="pb19d1fcb96">
   <rect height="135.9" width="144.310345" x="135" y="21.6"/>
  </clipPath>
  <clipPath id="p1a76022e12">
   <rect height="135.9" width="144.310345" x="308.172414" y="21.6"/>
  </clipPath>
  <clipPath id="pc609ae3a7e">
   <rect height="135.9" width="144.310345" x="481.344828" y="21.6"/>
  </clipPath>
  <clipPath id="pd8d94da372">
   <rect height="135.9" width="144.310345" x="654.517241" y="21.6"/>
  </clipPath>
  <clipPath id="pc519259f0d">
   <rect height="135.9" width="144.310345" x="827.689655" y="21.6"/>
  </clipPath>
 </defs>
</svg>
