<?xml version="1.0" encoding="utf-8" standalone="no"?>
<!DOCTYPE svg PUBLIC "-//W3C//DTD SVG 1.1//EN"
  "http://www.w3.org/Graphics/SVG/1.1/DTD/svg11.dtd">
<!-- Created with matplotlib (https://matplotlib.org/) -->
<svg height="360pt" version="1.1" viewBox="0 0 1080 360" width="1080pt" xmlns="http://www.w3.org/2000/svg" xmlns:xlink="http://www.w3.org/1999/xlink">
 <defs>
  <style type="text/css">
*{stroke-linecap:butt;stroke-linejoin:round;}
  </style>
 </defs>
 <g id="figure_1">
  <g id="patch_1">
   <path d="M 0 360 
L 1080 360 
L 1080 0 
L 0 0 
z
" style="fill:#ffffff;"/>
  </g>
  <g id="axes_1">
   <g id="patch_2">
    <path d="M 135 166.745455 
L 279.310345 166.745455 
L 279.310345 43.2 
L 135 43.2 
z
" style="fill:#ffffff;"/>
   </g>
   <g id="patch_3">
    <path clip-path="url(#pdba4065320)" d="M 206.652932 138.476579 
L 189.911593 147.201541 
" style="stroke:#000000;stroke-linejoin:miter;stroke-width:0.5;"/>
   </g>
   <g id="patch_4">
    <path clip-path="url(#pdba4065320)" d="M 206.652932 138.476579 
L 189.911593 129.751618 
" style="stroke:#000000;stroke-linejoin:miter;stroke-width:0.5;"/>
   </g>
   <g id="patch_5">
    <path clip-path="url(#pdba4065320)" d="M 223.394272 121.026656 
L 206.652932 138.476579 
" style="stroke:#000000;stroke-linejoin:miter;stroke-width:0.5;"/>
   </g>
   <g id="patch_6">
    <path clip-path="url(#pdba4065320)" d="M 206.652932 103.576733 
L 189.911593 112.301695 
" style="stroke:#000000;stroke-linejoin:miter;stroke-width:0.5;"/>
   </g>
   <g id="patch_7">
    <path clip-path="url(#pdba4065320)" d="M 206.652932 103.576733 
L 189.911593 94.851772 
" style="stroke:#000000;stroke-linejoin:miter;stroke-width:0.5;"/>
   </g>
   <g id="patch_8">
    <path clip-path="url(#pdba4065320)" d="M 223.394272 121.026656 
L 206.652932 103.576733 
" style="stroke:#000000;stroke-linejoin:miter;stroke-width:0.5;"/>
   </g>
   <g id="patch_9">
    <path clip-path="url(#pdba4065320)" d="M 240.135611 121.026656 
L 223.394272 121.026656 
" style="stroke:#000000;stroke-linejoin:miter;stroke-width:0.5;"/>
   </g>
   <g id="patch_10">
    <path clip-path="url(#pdba4065320)" d="M 256.87695 121.026656 
L 240.135611 121.026656 
" style="stroke:#000000;stroke-linejoin:miter;stroke-width:0.5;"/>
   </g>
   <g id="ccb983ab62d54ce9a704fb81bc4441dd-1-node">
    <path clip-path="url(#pdba4065320)" d="M 259.722978 118.060169 
L 259.722978 123.993143 
L 254.030922 123.993143 
L 254.030922 118.060169 
L 259.722978 118.060169 
z
" style="fill:#0000ff;stroke:#ffffff;stroke-linejoin:miter;stroke-width:0.5;"/>
   </g>
   <g id="ccb983ab62d54ce9a704fb81bc4441dd-3-node">
    <path clip-path="url(#pdba4065320)" d="M 242.981639 118.060169 
L 242.981639 123.993143 
L 237.289583 123.993143 
L 237.289583 118.060169 
L 242.981639 118.060169 
z
" style="fill:#0000ff;stroke:#ffffff;stroke-linejoin:miter;stroke-width:0.5;"/>
   </g>
   <g id="ccb983ab62d54ce9a704fb81bc4441dd-5-node">
    <path clip-path="url(#pdba4065320)" d="M 223.394272 123.993143 
C 224.149047 123.993143 224.87301 123.680576 225.406717 123.124279 
C 225.940424 122.567983 226.240299 121.813378 226.240299 121.026656 
C 226.240299 120.239935 225.940424 119.48533 225.406717 118.929033 
C 224.87301 118.372737 224.149047 118.060169 223.394272 118.060169 
C 222.639496 118.060169 221.915533 118.372737 221.381826 118.929033 
C 220.848119 119.48533 220.548244 120.239935 220.548244 121.026656 
C 220.548244 121.813378 220.848119 122.567983 221.381826 123.124279 
C 221.915533 123.680576 222.639496 123.993143 223.394272 123.993143 
z
" style="fill:#00c832;stroke:#ffffff;stroke-linejoin:miter;stroke-width:0.5;"/>
   </g>
   <g id="ccb983ab62d54ce9a704fb81bc4441dd-11-node">
    <path clip-path="url(#pdba4065320)" d="M 206.652932 141.443066 
C 207.407708 141.443066 208.131671 141.130498 208.665378 140.574202 
C 209.199084 140.017906 209.49896 139.263301 209.49896 138.476579 
C 209.49896 137.689858 209.199084 136.935252 208.665378 136.378956 
C 208.131671 135.82266 207.407708 135.510092 206.652932 135.510092 
C 205.898157 135.510092 205.174194 135.82266 204.640487 136.378956 
C 204.10678 136.935252 203.806905 137.689858 203.806905 138.476579 
C 203.806905 139.263301 204.10678 140.017906 204.640487 140.574202 
C 205.174194 141.130498 205.898157 141.443066 206.652932 141.443066 
z
" style="fill:#00c832;stroke:#ffffff;stroke-linejoin:miter;stroke-width:0.5;"/>
   </g>
   <g id="ccb983ab62d54ce9a704fb81bc4441dd-14-node">
    <path clip-path="url(#pdba4065320)" d="M 192.757621 144.235054 
L 192.757621 150.168028 
L 187.065565 150.168028 
L 187.065565 144.235054 
L 192.757621 144.235054 
z
" style="fill:#0000ff;stroke:#ffffff;stroke-linejoin:miter;stroke-width:0.5;"/>
   </g>
   <g id="ccb983ab62d54ce9a704fb81bc4441dd-12-node">
    <path clip-path="url(#pdba4065320)" d="M 192.757621 126.785131 
L 192.757621 132.718105 
L 187.065565 132.718105 
L 187.065565 126.785131 
L 192.757621 126.785131 
z
" style="fill:#0000ff;stroke:#ffffff;stroke-linejoin:miter;stroke-width:0.5;"/>
   </g>
   <g id="ccb983ab62d54ce9a704fb81bc4441dd-6-node">
    <path clip-path="url(#pdba4065320)" d="M 206.652932 106.54322 
C 207.407708 106.54322 208.131671 106.230653 208.665378 105.674356 
C 209.199084 105.11806 209.49896 104.363455 209.49896 103.576733 
C 209.49896 102.790012 209.199084 102.035407 208.665378 101.47911 
C 208.131671 100.922814 207.407708 100.610247 206.652932 100.610247 
C 205.898157 100.610247 205.174194 100.922814 204.640487 101.47911 
C 204.10678 102.035407 203.806905 102.790012 203.806905 103.576733 
C 203.806905 104.363455 204.10678 105.11806 204.640487 105.674356 
C 205.174194 106.230653 205.898157 106.54322 206.652932 106.54322 
z
" style="fill:#00c832;stroke:#ffffff;stroke-linejoin:miter;stroke-width:0.5;"/>
   </g>
   <g id="ccb983ab62d54ce9a704fb81bc4441dd-9-node">
    <path clip-path="url(#pdba4065320)" d="M 192.757621 109.335208 
L 192.757621 115.268182 
L 187.065565 115.268182 
L 187.065565 109.335208 
L 192.757621 109.335208 
z
" style="fill:#0000ff;stroke:#ffffff;stroke-linejoin:miter;stroke-width:0.5;"/>
   </g>
   <g id="ccb983ab62d54ce9a704fb81bc4441dd-7-node">
    <path clip-path="url(#pdba4065320)" d="M 192.757621 91.885285 
L 192.757621 97.818259 
L 187.065565 97.818259 
L 187.065565 91.885285 
L 192.757621 91.885285 
z
" style="fill:#0000ff;stroke:#ffffff;stroke-linejoin:miter;stroke-width:0.5;"/>
   </g>
   <g id="patch_11">
    <path d="M 135 166.745455 
L 135 43.2 
" style="fill:none;stroke:#ffffff;stroke-linecap:square;stroke-linejoin:miter;stroke-width:1.25;"/>
   </g>
   <g id="patch_12">
    <path d="M 279.310345 166.745455 
L 279.310345 43.2 
" style="fill:none;stroke:#ffffff;stroke-linecap:square;stroke-linejoin:miter;stroke-width:1.25;"/>
   </g>
   <g id="patch_13">
    <path d="M 135 166.745455 
L 279.310345 166.745455 
" style="fill:none;stroke:#ffffff;stroke-linecap:square;stroke-linejoin:miter;stroke-width:1.25;"/>
   </g>
   <g id="patch_14">
    <path d="M 135 43.2 
L 279.310345 43.2 
" style="fill:none;stroke:#ffffff;stroke-linecap:square;stroke-linejoin:miter;stroke-width:1.25;"/>
   </g>
   <g id="text_1">
    <!-- 26:1 -->
    <defs>
     <path d="M 50.34375 8.453125 
L 50.34375 0 
L 3.03125 0 
Q 2.9375 3.171875 4.046875 6.109375 
Q 5.859375 10.9375 9.828125 15.625 
Q 13.8125 20.3125 21.34375 26.46875 
Q 33.015625 36.03125 37.109375 41.625 
Q 41.21875 47.21875 41.21875 52.203125 
Q 41.21875 57.421875 37.46875 61 
Q 33.734375 64.59375 27.734375 64.59375 
Q 21.390625 64.59375 17.578125 60.78125 
Q 13.765625 56.984375 13.71875 50.25 
L 4.6875 51.171875 
Q 5.609375 61.28125 11.65625 66.578125 
Q 17.71875 71.875 27.9375 71.875 
Q 38.234375 71.875 44.234375 66.15625 
Q 50.25 60.453125 50.25 52 
Q 50.25 47.703125 48.484375 43.546875 
Q 46.734375 39.40625 42.65625 34.8125 
Q 38.578125 30.21875 29.109375 22.21875 
Q 21.1875 15.578125 18.9375 13.203125 
Q 16.703125 10.84375 15.234375 8.453125 
z
" id="ArialMT-50"/>
     <path d="M 49.75 54.046875 
L 41.015625 53.375 
Q 39.84375 58.546875 37.703125 60.890625 
Q 34.125 64.65625 28.90625 64.65625 
Q 24.703125 64.65625 21.53125 62.3125 
Q 17.390625 59.28125 14.984375 53.46875 
Q 12.59375 47.65625 12.5 36.921875 
Q 15.671875 41.75 20.265625 44.09375 
Q 24.859375 46.4375 29.890625 46.4375 
Q 38.671875 46.4375 44.84375 39.96875 
Q 51.03125 33.5 51.03125 23.25 
Q 51.03125 16.5 48.125 10.71875 
Q 45.21875 4.9375 40.140625 1.859375 
Q 35.0625 -1.21875 28.609375 -1.21875 
Q 17.625 -1.21875 10.6875 6.859375 
Q 3.765625 14.9375 3.765625 33.5 
Q 3.765625 54.25 11.421875 63.671875 
Q 18.109375 71.875 29.4375 71.875 
Q 37.890625 71.875 43.28125 67.140625 
Q 48.6875 62.40625 49.75 54.046875 
z
M 13.875 23.1875 
Q 13.875 18.65625 15.796875 14.5 
Q 17.71875 10.359375 21.1875 8.171875 
Q 24.65625 6 28.46875 6 
Q 34.03125 6 38.03125 10.484375 
Q 42.046875 14.984375 42.046875 22.703125 
Q 42.046875 30.125 38.078125 34.390625 
Q 34.125 38.671875 28.125 38.671875 
Q 22.171875 38.671875 18.015625 34.390625 
Q 13.875 30.125 13.875 23.1875 
z
" id="ArialMT-54"/>
     <path d="M 9.03125 41.84375 
L 9.03125 51.859375 
L 19.046875 51.859375 
L 19.046875 41.84375 
z
M 9.03125 0 
L 9.03125 10.015625 
L 19.046875 10.015625 
L 19.046875 0 
z
" id="ArialMT-58"/>
     <path d="M 37.25 0 
L 28.46875 0 
L 28.46875 56 
Q 25.296875 52.984375 20.140625 49.953125 
Q 14.984375 46.921875 10.890625 45.40625 
L 10.890625 53.90625 
Q 18.265625 57.375 23.78125 62.296875 
Q 29.296875 67.234375 31.59375 71.875 
L 37.25 71.875 
z
" id="ArialMT-49"/>
    </defs>
    <g style="fill:#262626;" transform="translate(195.47861 37.2)scale(0.12 -0.12)">
     <use xlink:href="#ArialMT-50"/>
     <use x="55.615234" xlink:href="#ArialMT-54"/>
     <use x="111.230469" xlink:href="#ArialMT-58"/>
     <use x="139.013672" xlink:href="#ArialMT-49"/>
    </g>
   </g>
  </g>
  <g id="axes_2">
   <g id="patch_15">
    <path d="M 308.172414 166.745455 
L 452.482759 166.745455 
L 452.482759 43.2 
L 308.172414 43.2 
z
" style="fill:#ffffff;"/>
   </g>
   <g id="patch_16">
    <path clip-path="url(#pcbeb24a3cd)" d="M 379.825346 138.476579 
L 363.084007 147.201541 
" style="stroke:#000000;stroke-linejoin:miter;stroke-width:0.5;"/>
   </g>
   <g id="patch_17">
    <path clip-path="url(#pcbeb24a3cd)" d="M 379.825346 138.476579 
L 363.084007 129.751618 
" style="stroke:#000000;stroke-linejoin:miter;stroke-width:0.5;"/>
   </g>
   <g id="patch_18">
    <path clip-path="url(#pcbeb24a3cd)" d="M 396.566685 121.026656 
L 379.825346 138.476579 
" style="stroke:#000000;stroke-linejoin:miter;stroke-width:0.5;"/>
   </g>
   <g id="patch_19">
    <path clip-path="url(#pcbeb24a3cd)" d="M 379.825346 103.576733 
L 363.084007 112.301695 
" style="stroke:#000000;stroke-linejoin:miter;stroke-width:0.5;"/>
   </g>
   <g id="patch_20">
    <path clip-path="url(#pcbeb24a3cd)" d="M 379.825346 103.576733 
L 363.084007 94.851772 
" style="stroke:#000000;stroke-linejoin:miter;stroke-width:0.5;"/>
   </g>
   <g id="patch_21">
    <path clip-path="url(#pcbeb24a3cd)" d="M 396.566685 121.026656 
L 379.825346 103.576733 
" style="stroke:#000000;stroke-linejoin:miter;stroke-width:0.5;"/>
   </g>
   <g id="patch_22">
    <path clip-path="url(#pcbeb24a3cd)" d="M 413.308025 121.026656 
L 396.566685 121.026656 
" style="stroke:#000000;stroke-linejoin:miter;stroke-width:0.5;"/>
   </g>
   <g id="patch_23">
    <path clip-path="url(#pcbeb24a3cd)" d="M 430.049364 121.026656 
L 413.308025 121.026656 
" style="stroke:#000000;stroke-linejoin:miter;stroke-width:0.5;"/>
   </g>
   <g id="patch_24">
    <path clip-path="url(#pcbeb24a3cd)" d="M 430.049364 121.026656 
L 430.049364 112.301695 
" style="stroke:#000000;stroke-linejoin:miter;stroke-width:0.5;"/>
   </g>
   <g id="9f1f3919e8a24c2cab7a6c4371f4e18f-1-node">
    <path clip-path="url(#pcbeb24a3cd)" d="M 432.895392 118.060169 
L 432.895392 123.993143 
L 427.203336 123.993143 
L 427.203336 118.060169 
L 432.895392 118.060169 
z
" style="fill:#0000ff;stroke:#ffffff;stroke-linejoin:miter;stroke-width:0.5;"/>
   </g>
   <g id="9f1f3919e8a24c2cab7a6c4371f4e18f-4-node">
    <path clip-path="url(#pcbeb24a3cd)" d="M 416.154052 118.060169 
L 416.154052 123.993143 
L 410.461997 123.993143 
L 410.461997 118.060169 
L 416.154052 118.060169 
z
" style="fill:#0000ff;stroke:#ffffff;stroke-linejoin:miter;stroke-width:0.5;"/>
   </g>
   <g id="9f1f3919e8a24c2cab7a6c4371f4e18f-6-node">
    <path clip-path="url(#pcbeb24a3cd)" d="M 396.566685 123.993143 
C 397.321461 123.993143 398.045424 123.680576 398.579131 123.124279 
C 399.112838 122.567983 399.412713 121.813378 399.412713 121.026656 
C 399.412713 120.239935 399.112838 119.48533 398.579131 118.929033 
C 398.045424 118.372737 397.321461 118.060169 396.566685 118.060169 
C 395.81191 118.060169 395.087947 118.372737 394.55424 118.929033 
C 394.020533 119.48533 393.720658 120.239935 393.720658 121.026656 
C 393.720658 121.813378 394.020533 122.567983 394.55424 123.124279 
C 395.087947 123.680576 395.81191 123.993143 396.566685 123.993143 
z
" style="fill:#00c832;stroke:#ffffff;stroke-linejoin:miter;stroke-width:0.5;"/>
   </g>
   <g id="9f1f3919e8a24c2cab7a6c4371f4e18f-12-node">
    <path clip-path="url(#pcbeb24a3cd)" d="M 379.825346 141.443066 
C 380.580121 141.443066 381.304085 141.130498 381.837792 140.574202 
C 382.371498 140.017906 382.671374 139.263301 382.671374 138.476579 
C 382.671374 137.689858 382.371498 136.935252 381.837792 136.378956 
C 381.304085 135.82266 380.580121 135.510092 379.825346 135.510092 
C 379.070571 135.510092 378.346607 135.82266 377.812901 136.378956 
C 377.279194 136.935252 376.979318 137.689858 376.979318 138.476579 
C 376.979318 139.263301 377.279194 140.017906 377.812901 140.574202 
C 378.346607 141.130498 379.070571 141.443066 379.825346 141.443066 
z
" style="fill:#00c832;stroke:#ffffff;stroke-linejoin:miter;stroke-width:0.5;"/>
   </g>
   <g id="9f1f3919e8a24c2cab7a6c4371f4e18f-15-node">
    <path clip-path="url(#pcbeb24a3cd)" d="M 365.930034 144.235054 
L 365.930034 150.168028 
L 360.237979 150.168028 
L 360.237979 144.235054 
L 365.930034 144.235054 
z
" style="fill:#0000ff;stroke:#ffffff;stroke-linejoin:miter;stroke-width:0.5;"/>
   </g>
   <g id="9f1f3919e8a24c2cab7a6c4371f4e18f-13-node">
    <path clip-path="url(#pcbeb24a3cd)" d="M 365.930034 126.785131 
L 365.930034 132.718105 
L 360.237979 132.718105 
L 360.237979 126.785131 
L 365.930034 126.785131 
z
" style="fill:#0000ff;stroke:#ffffff;stroke-linejoin:miter;stroke-width:0.5;"/>
   </g>
   <g id="9f1f3919e8a24c2cab7a6c4371f4e18f-7-node">
    <path clip-path="url(#pcbeb24a3cd)" d="M 379.825346 106.54322 
C 380.580121 106.54322 381.304085 106.230653 381.837792 105.674356 
C 382.371498 105.11806 382.671374 104.363455 382.671374 103.576733 
C 382.671374 102.790012 382.371498 102.035407 381.837792 101.47911 
C 381.304085 100.922814 380.580121 100.610247 379.825346 100.610247 
C 379.070571 100.610247 378.346607 100.922814 377.812901 101.47911 
C 377.279194 102.035407 376.979318 102.790012 376.979318 103.576733 
C 376.979318 104.363455 377.279194 105.11806 377.812901 105.674356 
C 378.346607 106.230653 379.070571 106.54322 379.825346 106.54322 
z
" style="fill:#00c832;stroke:#ffffff;stroke-linejoin:miter;stroke-width:0.5;"/>
   </g>
   <g id="9f1f3919e8a24c2cab7a6c4371f4e18f-10-node">
    <path clip-path="url(#pcbeb24a3cd)" d="M 365.930034 109.335208 
L 365.930034 115.268182 
L 360.237979 115.268182 
L 360.237979 109.335208 
L 365.930034 109.335208 
z
" style="fill:#0000ff;stroke:#ffffff;stroke-linejoin:miter;stroke-width:0.5;"/>
   </g>
   <g id="9f1f3919e8a24c2cab7a6c4371f4e18f-8-node">
    <path clip-path="url(#pcbeb24a3cd)" d="M 365.930034 91.885285 
L 365.930034 97.818259 
L 360.237979 97.818259 
L 360.237979 91.885285 
L 365.930034 91.885285 
z
" style="fill:#0000ff;stroke:#ffffff;stroke-linejoin:miter;stroke-width:0.5;"/>
   </g>
   <g id="9f1f3919e8a24c2cab7a6c4371f4e18f-3-node">
    <path clip-path="url(#pcbeb24a3cd)" d="M 430.049364 109.335208 
L 427.584632 113.784938 
L 432.514096 113.784938 
z
" style="fill:#ff0000;stroke:#ffffff;stroke-linejoin:miter;stroke-width:0.5;"/>
   </g>
   <g id="patch_25">
    <path d="M 308.172414 166.745455 
L 308.172414 43.2 
" style="fill:none;stroke:#ffffff;stroke-linecap:square;stroke-linejoin:miter;stroke-width:1.25;"/>
   </g>
   <g id="patch_26">
    <path d="M 452.482759 166.745455 
L 452.482759 43.2 
" style="fill:none;stroke:#ffffff;stroke-linecap:square;stroke-linejoin:miter;stroke-width:1.25;"/>
   </g>
   <g id="patch_27">
    <path d="M 308.172414 166.745455 
L 452.482759 166.745455 
" style="fill:none;stroke:#ffffff;stroke-linecap:square;stroke-linejoin:miter;stroke-width:1.25;"/>
   </g>
   <g id="patch_28">
    <path d="M 308.172414 43.2 
L 452.482759 43.2 
" style="fill:none;stroke:#ffffff;stroke-linecap:square;stroke-linejoin:miter;stroke-width:1.25;"/>
   </g>
   <g id="text_2">
    <!-- 41:1 -->
    <defs>
     <path d="M 32.328125 0 
L 32.328125 17.140625 
L 1.265625 17.140625 
L 1.265625 25.203125 
L 33.9375 71.578125 
L 41.109375 71.578125 
L 41.109375 25.203125 
L 50.78125 25.203125 
L 50.78125 17.140625 
L 41.109375 17.140625 
L 41.109375 0 
z
M 32.328125 25.203125 
L 32.328125 57.46875 
L 9.90625 25.203125 
z
" id="ArialMT-52"/>
    </defs>
    <g style="fill:#262626;" transform="translate(368.651024 37.2)scale(0.12 -0.12)">
     <use xlink:href="#ArialMT-52"/>
     <use x="55.615234" xlink:href="#ArialMT-49"/>
     <use x="111.230469" xlink:href="#ArialMT-58"/>
     <use x="139.013672" xlink:href="#ArialMT-49"/>
    </g>
   </g>
  </g>
  <g id="axes_3">
   <g id="patch_29">
    <path d="M 481.344828 166.745455 
L 625.655172 166.745455 
L 625.655172 43.2 
L 481.344828 43.2 
z
" style="fill:#ffffff;"/>
   </g>
   <g id="patch_30">
    <path clip-path="url(#p39d0496ee5)" d="M 548.128287 150.536867 
L 533.610144 150.536867 
" style="stroke:#000000;stroke-linejoin:miter;stroke-width:0.5;"/>
   </g>
   <g id="patch_31">
    <path clip-path="url(#p39d0496ee5)" d="M 562.64643 141.532096 
L 548.128287 150.536867 
" style="stroke:#000000;stroke-linejoin:miter;stroke-width:0.5;"/>
   </g>
   <g id="patch_32">
    <path clip-path="url(#p39d0496ee5)" d="M 562.64643 141.532096 
L 548.128287 132.527326 
" style="stroke:#000000;stroke-linejoin:miter;stroke-width:0.5;"/>
   </g>
   <g id="patch_33">
    <path clip-path="url(#p39d0496ee5)" d="M 577.164574 123.522555 
L 562.64643 141.532096 
" style="stroke:#000000;stroke-linejoin:miter;stroke-width:0.5;"/>
   </g>
   <g id="patch_34">
    <path clip-path="url(#p39d0496ee5)" d="M 562.64643 105.513014 
L 548.128287 114.517784 
" style="stroke:#000000;stroke-linejoin:miter;stroke-width:0.5;"/>
   </g>
   <g id="patch_35">
    <path clip-path="url(#p39d0496ee5)" d="M 562.64643 105.513014 
L 548.128287 96.508243 
" style="stroke:#000000;stroke-linejoin:miter;stroke-width:0.5;"/>
   </g>
   <g id="patch_36">
    <path clip-path="url(#p39d0496ee5)" d="M 577.164574 123.522555 
L 562.64643 105.513014 
" style="stroke:#000000;stroke-linejoin:miter;stroke-width:0.5;"/>
   </g>
   <g id="patch_37">
    <path clip-path="url(#p39d0496ee5)" d="M 591.682717 123.522555 
L 577.164574 123.522555 
" style="stroke:#000000;stroke-linejoin:miter;stroke-width:0.5;"/>
   </g>
   <g id="patch_38">
    <path clip-path="url(#p39d0496ee5)" d="M 606.20086 123.522555 
L 591.682717 123.522555 
" style="stroke:#000000;stroke-linejoin:miter;stroke-width:0.5;"/>
   </g>
   <g id="234c4438bef44993a6f19c490a03f13e-1-node">
    <path clip-path="url(#p39d0496ee5)" d="M 608.668945 120.460933 
L 608.668945 126.584177 
L 603.732776 126.584177 
L 603.732776 120.460933 
L 608.668945 120.460933 
z
" style="fill:#0000ff;stroke:#ffffff;stroke-linejoin:miter;stroke-width:0.5;"/>
   </g>
   <g id="234c4438bef44993a6f19c490a03f13e-3-node">
    <path clip-path="url(#p39d0496ee5)" d="M 594.150801 120.460933 
L 594.150801 126.584177 
L 589.214633 126.584177 
L 589.214633 120.460933 
L 594.150801 120.460933 
z
" style="fill:#0000ff;stroke:#ffffff;stroke-linejoin:miter;stroke-width:0.5;"/>
   </g>
   <g id="234c4438bef44993a6f19c490a03f13e-5-node">
    <path clip-path="url(#p39d0496ee5)" d="M 577.164574 126.584177 
C 577.819117 126.584177 578.446941 126.261585 578.909773 125.687449 
C 579.372605 125.113312 579.632658 124.334507 579.632658 123.522555 
C 579.632658 122.710603 579.372605 121.931798 578.909773 121.357661 
C 578.446941 120.783525 577.819117 120.460933 577.164574 120.460933 
C 576.51003 120.460933 575.882207 120.783525 575.419374 121.357661 
C 574.956542 121.931798 574.696489 122.710603 574.696489 123.522555 
C 574.696489 124.334507 574.956542 125.113312 575.419374 125.687449 
C 575.882207 126.261585 576.51003 126.584177 577.164574 126.584177 
z
" style="fill:#00c832;stroke:#ffffff;stroke-linejoin:miter;stroke-width:0.5;"/>
   </g>
   <g id="234c4438bef44993a6f19c490a03f13e-11-node">
    <path clip-path="url(#p39d0496ee5)" d="M 562.64643 144.593719 
C 563.300974 144.593719 563.928797 144.271127 564.391629 143.69699 
C 564.854462 143.122854 565.114515 142.344048 565.114515 141.532096 
C 565.114515 140.720145 564.854462 139.941339 564.391629 139.367203 
C 563.928797 138.793066 563.300974 138.470474 562.64643 138.470474 
C 561.991887 138.470474 561.364063 138.793066 560.901231 139.367203 
C 560.438399 139.941339 560.178346 140.720145 560.178346 141.532096 
C 560.178346 142.344048 560.438399 143.122854 560.901231 143.69699 
C 561.364063 144.271127 561.991887 144.593719 562.64643 144.593719 
z
" style="fill:#00c832;stroke:#ffffff;stroke-linejoin:miter;stroke-width:0.5;"/>
   </g>
   <g id="234c4438bef44993a6f19c490a03f13e-14-node">
    <path clip-path="url(#p39d0496ee5)" d="M 550.596371 147.475245 
L 550.596371 153.598489 
L 545.660203 153.598489 
L 545.660203 147.475245 
L 550.596371 147.475245 
z
" style="fill:#0000ff;stroke:#ffffff;stroke-linejoin:miter;stroke-width:0.5;"/>
   </g>
   <g id="234c4438bef44993a6f19c490a03f13e-16-node">
    <path clip-path="url(#p39d0496ee5)" d="M 533.610144 153.598489 
C 534.264687 153.598489 534.892511 153.275897 535.355343 152.701761 
C 535.818175 152.127624 536.078228 151.348819 536.078228 150.536867 
C 536.078228 149.724916 535.818175 148.94611 535.355343 148.371974 
C 534.892511 147.797837 534.264687 147.475245 533.610144 147.475245 
C 532.9556 147.475245 532.327777 147.797837 531.864944 148.371974 
C 531.402112 148.94611 531.142059 149.724916 531.142059 150.536867 
C 531.142059 151.348819 531.402112 152.127624 531.864944 152.701761 
C 532.327777 153.275897 532.9556 153.598489 533.610144 153.598489 
z
" style="fill:#ffff00;stroke:#ffffff;stroke-linejoin:miter;stroke-width:0.5;"/>
   </g>
   <g id="234c4438bef44993a6f19c490a03f13e-12-node">
    <path clip-path="url(#p39d0496ee5)" d="M 550.596371 129.465704 
L 550.596371 135.588948 
L 545.660203 135.588948 
L 545.660203 129.465704 
L 550.596371 129.465704 
z
" style="fill:#0000ff;stroke:#ffffff;stroke-linejoin:miter;stroke-width:0.5;"/>
   </g>
   <g id="234c4438bef44993a6f19c490a03f13e-6-node">
    <path clip-path="url(#p39d0496ee5)" d="M 562.64643 108.574636 
C 563.300974 108.574636 563.928797 108.252044 564.391629 107.677907 
C 564.854462 107.103771 565.114515 106.324965 565.114515 105.513014 
C 565.114515 104.701062 564.854462 103.922256 564.391629 103.34812 
C 563.928797 102.773983 563.300974 102.451391 562.64643 102.451391 
C 561.991887 102.451391 561.364063 102.773983 560.901231 103.34812 
C 560.438399 103.922256 560.178346 104.701062 560.178346 105.513014 
C 560.178346 106.324965 560.438399 107.103771 560.901231 107.677907 
C 561.364063 108.252044 561.991887 108.574636 562.64643 108.574636 
z
" style="fill:#00c832;stroke:#ffffff;stroke-linejoin:miter;stroke-width:0.5;"/>
   </g>
   <g id="234c4438bef44993a6f19c490a03f13e-9-node">
    <path clip-path="url(#p39d0496ee5)" d="M 550.596371 111.456162 
L 550.596371 117.579406 
L 545.660203 117.579406 
L 545.660203 111.456162 
L 550.596371 111.456162 
z
" style="fill:#0000ff;stroke:#ffffff;stroke-linejoin:miter;stroke-width:0.5;"/>
   </g>
   <g id="234c4438bef44993a6f19c490a03f13e-7-node">
    <path clip-path="url(#p39d0496ee5)" d="M 550.596371 93.446621 
L 550.596371 99.569865 
L 545.660203 99.569865 
L 545.660203 93.446621 
L 550.596371 93.446621 
z
" style="fill:#0000ff;stroke:#ffffff;stroke-linejoin:miter;stroke-width:0.5;"/>
   </g>
   <g id="patch_39">
    <path d="M 481.344828 166.745455 
L 481.344828 43.2 
" style="fill:none;stroke:#ffffff;stroke-linecap:square;stroke-linejoin:miter;stroke-width:1.25;"/>
   </g>
   <g id="patch_40">
    <path d="M 625.655172 166.745455 
L 625.655172 43.2 
" style="fill:none;stroke:#ffffff;stroke-linecap:square;stroke-linejoin:miter;stroke-width:1.25;"/>
   </g>
   <g id="patch_41">
    <path d="M 481.344828 166.745455 
L 625.655172 166.745455 
" style="fill:none;stroke:#ffffff;stroke-linecap:square;stroke-linejoin:miter;stroke-width:1.25;"/>
   </g>
   <g id="patch_42">
    <path d="M 481.344828 43.2 
L 625.655172 43.2 
" style="fill:none;stroke:#ffffff;stroke-linecap:square;stroke-linejoin:miter;stroke-width:1.25;"/>
   </g>
   <g id="text_3">
    <!-- 44:1 -->
    <g style="fill:#262626;" transform="translate(541.823437 37.2)scale(0.12 -0.12)">
     <use xlink:href="#ArialMT-52"/>
     <use x="55.615234" xlink:href="#ArialMT-52"/>
     <use x="111.230469" xlink:href="#ArialMT-58"/>
     <use x="139.013672" xlink:href="#ArialMT-49"/>
    </g>
   </g>
  </g>
  <g id="axes_4">
   <g id="patch_43">
    <path d="M 654.517241 166.745455 
L 798.827586 166.745455 
L 798.827586 43.2 
L 654.517241 43.2 
z
" style="fill:#ffffff;"/>
   </g>
   <g id="patch_44">
    <path clip-path="url(#p852f2049cb)" d="M 721.300701 150.536867 
L 706.782557 150.536867 
" style="stroke:#000000;stroke-linejoin:miter;stroke-width:0.5;"/>
   </g>
   <g id="patch_45">
    <path clip-path="url(#p852f2049cb)" d="M 735.818844 141.532096 
L 721.300701 150.536867 
" style="stroke:#000000;stroke-linejoin:miter;stroke-width:0.5;"/>
   </g>
   <g id="patch_46">
    <path clip-path="url(#p852f2049cb)" d="M 735.818844 141.532096 
L 721.300701 132.527326 
" style="stroke:#000000;stroke-linejoin:miter;stroke-width:0.5;"/>
   </g>
   <g id="patch_47">
    <path clip-path="url(#p852f2049cb)" d="M 750.336987 123.522555 
L 735.818844 141.532096 
" style="stroke:#000000;stroke-linejoin:miter;stroke-width:0.5;"/>
   </g>
   <g id="patch_48">
    <path clip-path="url(#p852f2049cb)" d="M 735.818844 105.513014 
L 721.300701 114.517784 
" style="stroke:#000000;stroke-linejoin:miter;stroke-width:0.5;"/>
   </g>
   <g id="patch_49">
    <path clip-path="url(#p852f2049cb)" d="M 735.818844 105.513014 
L 721.300701 96.508243 
" style="stroke:#000000;stroke-linejoin:miter;stroke-width:0.5;"/>
   </g>
   <g id="patch_50">
    <path clip-path="url(#p852f2049cb)" d="M 750.336987 123.522555 
L 735.818844 105.513014 
" style="stroke:#000000;stroke-linejoin:miter;stroke-width:0.5;"/>
   </g>
   <g id="patch_51">
    <path clip-path="url(#p852f2049cb)" d="M 764.855131 123.522555 
L 750.336987 123.522555 
" style="stroke:#000000;stroke-linejoin:miter;stroke-width:0.5;"/>
   </g>
   <g id="patch_52">
    <path clip-path="url(#p852f2049cb)" d="M 779.373274 123.522555 
L 764.855131 123.522555 
" style="stroke:#000000;stroke-linejoin:miter;stroke-width:0.5;"/>
   </g>
   <g id="patch_53">
    <path clip-path="url(#p852f2049cb)" d="M 779.373274 123.522555 
L 779.373274 114.517784 
" style="stroke:#000000;stroke-linejoin:miter;stroke-width:0.5;"/>
   </g>
   <g id="0b2761f088de49a8b8d78e86fde77f02-1-node">
    <path clip-path="url(#p852f2049cb)" d="M 781.841358 120.460933 
L 781.841358 126.584177 
L 776.90519 126.584177 
L 776.90519 120.460933 
L 781.841358 120.460933 
z
" style="fill:#0000ff;stroke:#ffffff;stroke-linejoin:miter;stroke-width:0.5;"/>
   </g>
   <g id="0b2761f088de49a8b8d78e86fde77f02-4-node">
    <path clip-path="url(#p852f2049cb)" d="M 767.323215 120.460933 
L 767.323215 126.584177 
L 762.387046 126.584177 
L 762.387046 120.460933 
L 767.323215 120.460933 
z
" style="fill:#0000ff;stroke:#ffffff;stroke-linejoin:miter;stroke-width:0.5;"/>
   </g>
   <g id="0b2761f088de49a8b8d78e86fde77f02-6-node">
    <path clip-path="url(#p852f2049cb)" d="M 750.336987 126.584177 
C 750.991531 126.584177 751.619354 126.261585 752.082187 125.687449 
C 752.545019 125.113312 752.805072 124.334507 752.805072 123.522555 
C 752.805072 122.710603 752.545019 121.931798 752.082187 121.357661 
C 751.619354 120.783525 750.991531 120.460933 750.336987 120.460933 
C 749.682444 120.460933 749.05462 120.783525 748.591788 121.357661 
C 748.128956 121.931798 747.868903 122.710603 747.868903 123.522555 
C 747.868903 124.334507 748.128956 125.113312 748.591788 125.687449 
C 749.05462 126.261585 749.682444 126.584177 750.336987 126.584177 
z
" style="fill:#00c832;stroke:#ffffff;stroke-linejoin:miter;stroke-width:0.5;"/>
   </g>
   <g id="0b2761f088de49a8b8d78e86fde77f02-12-node">
    <path clip-path="url(#p852f2049cb)" d="M 735.818844 144.593719 
C 736.473388 144.593719 737.101211 144.271127 737.564043 143.69699 
C 738.026876 143.122854 738.286928 142.344048 738.286928 141.532096 
C 738.286928 140.720145 738.026876 139.941339 737.564043 139.367203 
C 737.101211 138.793066 736.473388 138.470474 735.818844 138.470474 
C 735.1643 138.470474 734.536477 138.793066 734.073645 139.367203 
C 733.610813 139.941339 733.35076 140.720145 733.35076 141.532096 
C 733.35076 142.344048 733.610813 143.122854 734.073645 143.69699 
C 734.536477 144.271127 735.1643 144.593719 735.818844 144.593719 
z
" style="fill:#00c832;stroke:#ffffff;stroke-linejoin:miter;stroke-width:0.5;"/>
   </g>
   <g id="0b2761f088de49a8b8d78e86fde77f02-15-node">
    <path clip-path="url(#p852f2049cb)" d="M 723.768785 147.475245 
L 723.768785 153.598489 
L 718.832616 153.598489 
L 718.832616 147.475245 
L 723.768785 147.475245 
z
" style="fill:#0000ff;stroke:#ffffff;stroke-linejoin:miter;stroke-width:0.5;"/>
   </g>
   <g id="0b2761f088de49a8b8d78e86fde77f02-17-node">
    <path clip-path="url(#p852f2049cb)" d="M 706.782557 153.598489 
C 707.437101 153.598489 708.064924 153.275897 708.527757 152.701761 
C 708.990589 152.127624 709.250642 151.348819 709.250642 150.536867 
C 709.250642 149.724916 708.990589 148.94611 708.527757 148.371974 
C 708.064924 147.797837 707.437101 147.475245 706.782557 147.475245 
C 706.128014 147.475245 705.50019 147.797837 705.037358 148.371974 
C 704.574526 148.94611 704.314473 149.724916 704.314473 150.536867 
C 704.314473 151.348819 704.574526 152.127624 705.037358 152.701761 
C 705.50019 153.275897 706.128014 153.598489 706.782557 153.598489 
z
" style="fill:#ffff00;stroke:#ffffff;stroke-linejoin:miter;stroke-width:0.5;"/>
   </g>
   <g id="0b2761f088de49a8b8d78e86fde77f02-13-node">
    <path clip-path="url(#p852f2049cb)" d="M 723.768785 129.465704 
L 723.768785 135.588948 
L 718.832616 135.588948 
L 718.832616 129.465704 
L 723.768785 129.465704 
z
" style="fill:#0000ff;stroke:#ffffff;stroke-linejoin:miter;stroke-width:0.5;"/>
   </g>
   <g id="0b2761f088de49a8b8d78e86fde77f02-7-node">
    <path clip-path="url(#p852f2049cb)" d="M 735.818844 108.574636 
C 736.473388 108.574636 737.101211 108.252044 737.564043 107.677907 
C 738.026876 107.103771 738.286928 106.324965 738.286928 105.513014 
C 738.286928 104.701062 738.026876 103.922256 737.564043 103.34812 
C 737.101211 102.773983 736.473388 102.451391 735.818844 102.451391 
C 735.1643 102.451391 734.536477 102.773983 734.073645 103.34812 
C 733.610813 103.922256 733.35076 104.701062 733.35076 105.513014 
C 733.35076 106.324965 733.610813 107.103771 734.073645 107.677907 
C 734.536477 108.252044 735.1643 108.574636 735.818844 108.574636 
z
" style="fill:#00c832;stroke:#ffffff;stroke-linejoin:miter;stroke-width:0.5;"/>
   </g>
   <g id="0b2761f088de49a8b8d78e86fde77f02-10-node">
    <path clip-path="url(#p852f2049cb)" d="M 723.768785 111.456162 
L 723.768785 117.579406 
L 718.832616 117.579406 
L 718.832616 111.456162 
L 723.768785 111.456162 
z
" style="fill:#0000ff;stroke:#ffffff;stroke-linejoin:miter;stroke-width:0.5;"/>
   </g>
   <g id="0b2761f088de49a8b8d78e86fde77f02-8-node">
    <path clip-path="url(#p852f2049cb)" d="M 723.768785 93.446621 
L 723.768785 99.569865 
L 718.832616 99.569865 
L 718.832616 93.446621 
L 723.768785 93.446621 
z
" style="fill:#0000ff;stroke:#ffffff;stroke-linejoin:miter;stroke-width:0.5;"/>
   </g>
   <g id="0b2761f088de49a8b8d78e86fde77f02-3-node">
    <path clip-path="url(#p852f2049cb)" d="M 779.373274 111.456162 
L 777.23585 116.048595 
L 781.510698 116.048595 
z
" style="fill:#ff0000;stroke:#ffffff;stroke-linejoin:miter;stroke-width:0.5;"/>
   </g>
   <g id="patch_54">
    <path d="M 654.517241 166.745455 
L 654.517241 43.2 
" style="fill:none;stroke:#ffffff;stroke-linecap:square;stroke-linejoin:miter;stroke-width:1.25;"/>
   </g>
   <g id="patch_55">
    <path d="M 798.827586 166.745455 
L 798.827586 43.2 
" style="fill:none;stroke:#ffffff;stroke-linecap:square;stroke-linejoin:miter;stroke-width:1.25;"/>
   </g>
   <g id="patch_56">
    <path d="M 654.517241 166.745455 
L 798.827586 166.745455 
" style="fill:none;stroke:#ffffff;stroke-linecap:square;stroke-linejoin:miter;stroke-width:1.25;"/>
   </g>
   <g id="patch_57">
    <path d="M 654.517241 43.2 
L 798.827586 43.2 
" style="fill:none;stroke:#ffffff;stroke-linecap:square;stroke-linejoin:miter;stroke-width:1.25;"/>
   </g>
   <g id="text_4">
    <!-- 67:1 -->
    <defs>
     <path d="M 4.734375 62.203125 
L 4.734375 70.65625 
L 51.078125 70.65625 
L 51.078125 63.8125 
Q 44.234375 56.546875 37.515625 44.484375 
Q 30.8125 32.421875 27.15625 19.671875 
Q 24.515625 10.6875 23.78125 0 
L 14.75 0 
Q 14.890625 8.453125 18.0625 20.40625 
Q 21.234375 32.375 27.171875 43.484375 
Q 33.109375 54.59375 39.796875 62.203125 
z
" id="ArialMT-55"/>
    </defs>
    <g style="fill:#262626;" transform="translate(714.995851 37.2)scale(0.12 -0.12)">
     <use xlink:href="#ArialMT-54"/>
     <use x="55.615234" xlink:href="#ArialMT-55"/>
     <use x="111.230469" xlink:href="#ArialMT-58"/>
     <use x="139.013672" xlink:href="#ArialMT-49"/>
    </g>
   </g>
  </g>
  <g id="axes_5">
   <g id="patch_58">
    <path d="M 827.689655 166.745455 
L 972 166.745455 
L 972 43.2 
L 827.689655 43.2 
z
" style="fill:#ffffff;"/>
   </g>
   <g id="patch_59">
    <path clip-path="url(#pba134b1364)" d="M 894.473115 150.536867 
L 879.954971 150.536867 
" style="stroke:#000000;stroke-linejoin:miter;stroke-width:0.5;"/>
   </g>
   <g id="patch_60">
    <path clip-path="url(#pba134b1364)" d="M 908.991258 141.532096 
L 894.473115 150.536867 
" style="stroke:#000000;stroke-linejoin:miter;stroke-width:0.5;"/>
   </g>
   <g id="patch_61">
    <path clip-path="url(#pba134b1364)" d="M 894.473115 132.527326 
L 879.954971 132.527326 
" style="stroke:#000000;stroke-linejoin:miter;stroke-width:0.5;"/>
   </g>
   <g id="patch_62">
    <path clip-path="url(#pba134b1364)" d="M 908.991258 141.532096 
L 894.473115 132.527326 
" style="stroke:#000000;stroke-linejoin:miter;stroke-width:0.5;"/>
   </g>
   <g id="patch_63">
    <path clip-path="url(#pba134b1364)" d="M 923.509401 123.522555 
L 908.991258 141.532096 
" style="stroke:#000000;stroke-linejoin:miter;stroke-width:0.5;"/>
   </g>
   <g id="patch_64">
    <path clip-path="url(#pba134b1364)" d="M 908.991258 105.513014 
L 894.473115 114.517784 
" style="stroke:#000000;stroke-linejoin:miter;stroke-width:0.5;"/>
   </g>
   <g id="patch_65">
    <path clip-path="url(#pba134b1364)" d="M 908.991258 105.513014 
L 894.473115 96.508243 
" style="stroke:#000000;stroke-linejoin:miter;stroke-width:0.5;"/>
   </g>
   <g id="patch_66">
    <path clip-path="url(#pba134b1364)" d="M 923.509401 123.522555 
L 908.991258 105.513014 
" style="stroke:#000000;stroke-linejoin:miter;stroke-width:0.5;"/>
   </g>
   <g id="patch_67">
    <path clip-path="url(#pba134b1364)" d="M 938.027545 123.522555 
L 923.509401 123.522555 
" style="stroke:#000000;stroke-linejoin:miter;stroke-width:0.5;"/>
   </g>
   <g id="patch_68">
    <path clip-path="url(#pba134b1364)" d="M 952.545688 123.522555 
L 938.027545 123.522555 
" style="stroke:#000000;stroke-linejoin:miter;stroke-width:0.5;"/>
   </g>
   <g id="778fa9566adb44838799b2e7604e4ebc-1-node">
    <path clip-path="url(#pba134b1364)" d="M 955.013772 120.460933 
L 955.013772 126.584177 
L 950.077604 126.584177 
L 950.077604 120.460933 
L 955.013772 120.460933 
z
" style="fill:#0000ff;stroke:#ffffff;stroke-linejoin:miter;stroke-width:0.5;"/>
   </g>
   <g id="778fa9566adb44838799b2e7604e4ebc-3-node">
    <path clip-path="url(#pba134b1364)" d="M 940.495629 120.460933 
L 940.495629 126.584177 
L 935.55946 126.584177 
L 935.55946 120.460933 
L 940.495629 120.460933 
z
" style="fill:#0000ff;stroke:#ffffff;stroke-linejoin:miter;stroke-width:0.5;"/>
   </g>
   <g id="778fa9566adb44838799b2e7604e4ebc-5-node">
    <path clip-path="url(#pba134b1364)" d="M 923.509401 126.584177 
C 924.163945 126.584177 924.791768 126.261585 925.2546 125.687449 
C 925.717433 125.113312 925.977486 124.334507 925.977486 123.522555 
C 925.977486 122.710603 925.717433 121.931798 925.2546 121.357661 
C 924.791768 120.783525 924.163945 120.460933 923.509401 120.460933 
C 922.854858 120.460933 922.227034 120.783525 921.764202 121.357661 
C 921.30137 121.931798 921.041317 122.710603 921.041317 123.522555 
C 921.041317 124.334507 921.30137 125.113312 921.764202 125.687449 
C 922.227034 126.261585 922.854858 126.584177 923.509401 126.584177 
z
" style="fill:#00c832;stroke:#ffffff;stroke-linejoin:miter;stroke-width:0.5;"/>
   </g>
   <g id="778fa9566adb44838799b2e7604e4ebc-11-node">
    <path clip-path="url(#pba134b1364)" d="M 908.991258 144.593719 
C 909.645802 144.593719 910.273625 144.271127 910.736457 143.69699 
C 911.199289 143.122854 911.459342 142.344048 911.459342 141.532096 
C 911.459342 140.720145 911.199289 139.941339 910.736457 139.367203 
C 910.273625 138.793066 909.645802 138.470474 908.991258 138.470474 
C 908.336714 138.470474 907.708891 138.793066 907.246059 139.367203 
C 906.783226 139.941339 906.523174 140.720145 906.523174 141.532096 
C 906.523174 142.344048 906.783226 143.122854 907.246059 143.69699 
C 907.708891 144.271127 908.336714 144.593719 908.991258 144.593719 
z
" style="fill:#00c832;stroke:#ffffff;stroke-linejoin:miter;stroke-width:0.5;"/>
   </g>
   <g id="778fa9566adb44838799b2e7604e4ebc-15-node">
    <path clip-path="url(#pba134b1364)" d="M 896.941199 147.475245 
L 896.941199 153.598489 
L 892.00503 153.598489 
L 892.00503 147.475245 
L 896.941199 147.475245 
z
" style="fill:#0000ff;stroke:#ffffff;stroke-linejoin:miter;stroke-width:0.5;"/>
   </g>
   <g id="778fa9566adb44838799b2e7604e4ebc-17-node">
    <path clip-path="url(#pba134b1364)" d="M 879.954971 153.598489 
C 880.609515 153.598489 881.237338 153.275897 881.70017 152.701761 
C 882.163003 152.127624 882.423056 151.348819 882.423056 150.536867 
C 882.423056 149.724916 882.163003 148.94611 881.70017 148.371974 
C 881.237338 147.797837 880.609515 147.475245 879.954971 147.475245 
C 879.300428 147.475245 878.672604 147.797837 878.209772 148.371974 
C 877.74694 148.94611 877.486887 149.724916 877.486887 150.536867 
C 877.486887 151.348819 877.74694 152.127624 878.209772 152.701761 
C 878.672604 153.275897 879.300428 153.598489 879.954971 153.598489 
z
" style="fill:#ffff00;stroke:#ffffff;stroke-linejoin:miter;stroke-width:0.5;"/>
   </g>
   <g id="778fa9566adb44838799b2e7604e4ebc-12-node">
    <path clip-path="url(#pba134b1364)" d="M 896.941199 129.465704 
L 896.941199 135.588948 
L 892.00503 135.588948 
L 892.00503 129.465704 
L 896.941199 129.465704 
z
" style="fill:#0000ff;stroke:#ffffff;stroke-linejoin:miter;stroke-width:0.5;"/>
   </g>
   <g id="778fa9566adb44838799b2e7604e4ebc-14-node">
    <path clip-path="url(#pba134b1364)" d="M 879.954971 135.588948 
C 880.609515 135.588948 881.237338 135.266356 881.70017 134.692219 
C 882.163003 134.118083 882.423056 133.339277 882.423056 132.527326 
C 882.423056 131.715374 882.163003 130.936569 881.70017 130.362432 
C 881.237338 129.788295 880.609515 129.465704 879.954971 129.465704 
C 879.300428 129.465704 878.672604 129.788295 878.209772 130.362432 
C 877.74694 130.936569 877.486887 131.715374 877.486887 132.527326 
C 877.486887 133.339277 877.74694 134.118083 878.209772 134.692219 
C 878.672604 135.266356 879.300428 135.588948 879.954971 135.588948 
z
" style="fill:#ffff00;stroke:#ffffff;stroke-linejoin:miter;stroke-width:0.5;"/>
   </g>
   <g id="778fa9566adb44838799b2e7604e4ebc-6-node">
    <path clip-path="url(#pba134b1364)" d="M 908.991258 108.574636 
C 909.645802 108.574636 910.273625 108.252044 910.736457 107.677907 
C 911.199289 107.103771 911.459342 106.324965 911.459342 105.513014 
C 911.459342 104.701062 911.199289 103.922256 910.736457 103.34812 
C 910.273625 102.773983 909.645802 102.451391 908.991258 102.451391 
C 908.336714 102.451391 907.708891 102.773983 907.246059 103.34812 
C 906.783226 103.922256 906.523174 104.701062 906.523174 105.513014 
C 906.523174 106.324965 906.783226 107.103771 907.246059 107.677907 
C 907.708891 108.252044 908.336714 108.574636 908.991258 108.574636 
z
" style="fill:#00c832;stroke:#ffffff;stroke-linejoin:miter;stroke-width:0.5;"/>
   </g>
   <g id="778fa9566adb44838799b2e7604e4ebc-9-node">
    <path clip-path="url(#pba134b1364)" d="M 896.941199 111.456162 
L 896.941199 117.579406 
L 892.00503 117.579406 
L 892.00503 111.456162 
L 896.941199 111.456162 
z
" style="fill:#0000ff;stroke:#ffffff;stroke-linejoin:miter;stroke-width:0.5;"/>
   </g>
   <g id="778fa9566adb44838799b2e7604e4ebc-7-node">
    <path clip-path="url(#pba134b1364)" d="M 896.941199 93.446621 
L 896.941199 99.569865 
L 892.00503 99.569865 
L 892.00503 93.446621 
L 896.941199 93.446621 
z
" style="fill:#0000ff;stroke:#ffffff;stroke-linejoin:miter;stroke-width:0.5;"/>
   </g>
   <g id="patch_69">
    <path d="M 827.689655 166.745455 
L 827.689655 43.2 
" style="fill:none;stroke:#ffffff;stroke-linecap:square;stroke-linejoin:miter;stroke-width:1.25;"/>
   </g>
   <g id="patch_70">
    <path d="M 972 166.745455 
L 972 43.2 
" style="fill:none;stroke:#ffffff;stroke-linecap:square;stroke-linejoin:miter;stroke-width:1.25;"/>
   </g>
   <g id="patch_71">
    <path d="M 827.689655 166.745455 
L 972 166.745455 
" style="fill:none;stroke:#ffffff;stroke-linecap:square;stroke-linejoin:miter;stroke-width:1.25;"/>
   </g>
   <g id="patch_72">
    <path d="M 827.689655 43.2 
L 972 43.2 
" style="fill:none;stroke:#ffffff;stroke-linecap:square;stroke-linejoin:miter;stroke-width:1.25;"/>
   </g>
   <g id="text_5">
    <!-- 70:1 -->
    <defs>
     <path d="M 4.15625 35.296875 
Q 4.15625 48 6.765625 55.734375 
Q 9.375 63.484375 14.515625 67.671875 
Q 19.671875 71.875 27.484375 71.875 
Q 33.25 71.875 37.59375 69.546875 
Q 41.9375 67.234375 44.765625 62.859375 
Q 47.609375 58.5 49.21875 52.21875 
Q 50.828125 45.953125 50.828125 35.296875 
Q 50.828125 22.703125 48.234375 14.96875 
Q 45.65625 7.234375 40.5 3 
Q 35.359375 -1.21875 27.484375 -1.21875 
Q 17.140625 -1.21875 11.234375 6.203125 
Q 4.15625 15.140625 4.15625 35.296875 
z
M 13.1875 35.296875 
Q 13.1875 17.671875 17.3125 11.828125 
Q 21.4375 6 27.484375 6 
Q 33.546875 6 37.671875 11.859375 
Q 41.796875 17.71875 41.796875 35.296875 
Q 41.796875 52.984375 37.671875 58.78125 
Q 33.546875 64.59375 27.390625 64.59375 
Q 21.34375 64.59375 17.71875 59.46875 
Q 13.1875 52.9375 13.1875 35.296875 
z
" id="ArialMT-48"/>
    </defs>
    <g style="fill:#262626;" transform="translate(888.168265 37.2)scale(0.12 -0.12)">
     <use xlink:href="#ArialMT-55"/>
     <use x="55.615234" xlink:href="#ArialMT-48"/>
     <use x="111.230469" xlink:href="#ArialMT-58"/>
     <use x="139.013672" xlink:href="#ArialMT-49"/>
    </g>
   </g>
  </g>
  <g id="axes_6">
   <g id="patch_73">
    <path d="M 135 315 
L 279.310345 315 
L 279.310345 191.454545 
L 135 191.454545 
z
" style="fill:#ffffff;"/>
   </g>
   <g id="patch_74">
    <path clip-path="url(#pf17a0131df)" d="M 201.783459 298.791413 
L 187.265316 298.791413 
" style="stroke:#000000;stroke-linejoin:miter;stroke-width:0.5;"/>
   </g>
   <g id="patch_75">
    <path clip-path="url(#pf17a0131df)" d="M 216.301603 289.786642 
L 201.783459 298.791413 
" style="stroke:#000000;stroke-linejoin:miter;stroke-width:0.5;"/>
   </g>
   <g id="patch_76">
    <path clip-path="url(#pf17a0131df)" d="M 201.783459 280.781871 
L 187.265316 280.781871 
" style="stroke:#000000;stroke-linejoin:miter;stroke-width:0.5;"/>
   </g>
   <g id="patch_77">
    <path clip-path="url(#pf17a0131df)" d="M 216.301603 289.786642 
L 201.783459 280.781871 
" style="stroke:#000000;stroke-linejoin:miter;stroke-width:0.5;"/>
   </g>
   <g id="patch_78">
    <path clip-path="url(#pf17a0131df)" d="M 230.819746 271.7771 
L 216.301603 289.786642 
" style="stroke:#000000;stroke-linejoin:miter;stroke-width:0.5;"/>
   </g>
   <g id="patch_79">
    <path clip-path="url(#pf17a0131df)" d="M 216.301603 253.767559 
L 201.783459 262.77233 
" style="stroke:#000000;stroke-linejoin:miter;stroke-width:0.5;"/>
   </g>
   <g id="patch_80">
    <path clip-path="url(#pf17a0131df)" d="M 216.301603 253.767559 
L 201.783459 244.762788 
" style="stroke:#000000;stroke-linejoin:miter;stroke-width:0.5;"/>
   </g>
   <g id="patch_81">
    <path clip-path="url(#pf17a0131df)" d="M 230.819746 271.7771 
L 216.301603 253.767559 
" style="stroke:#000000;stroke-linejoin:miter;stroke-width:0.5;"/>
   </g>
   <g id="patch_82">
    <path clip-path="url(#pf17a0131df)" d="M 245.337889 271.7771 
L 230.819746 271.7771 
" style="stroke:#000000;stroke-linejoin:miter;stroke-width:0.5;"/>
   </g>
   <g id="patch_83">
    <path clip-path="url(#pf17a0131df)" d="M 259.856033 271.7771 
L 245.337889 271.7771 
" style="stroke:#000000;stroke-linejoin:miter;stroke-width:0.5;"/>
   </g>
   <g id="patch_84">
    <path clip-path="url(#pf17a0131df)" d="M 259.856033 271.7771 
L 259.856033 262.77233 
" style="stroke:#000000;stroke-linejoin:miter;stroke-width:0.5;"/>
   </g>
   <g id="80b3d4eb4297461799340b46cfc3070e-1-node">
    <path clip-path="url(#pf17a0131df)" d="M 262.324117 268.715478 
L 262.324117 274.838723 
L 257.387948 274.838723 
L 257.387948 268.715478 
L 262.324117 268.715478 
z
" style="fill:#0000ff;stroke:#ffffff;stroke-linejoin:miter;stroke-width:0.5;"/>
   </g>
   <g id="80b3d4eb4297461799340b46cfc3070e-4-node">
    <path clip-path="url(#pf17a0131df)" d="M 247.805974 268.715478 
L 247.805974 274.838723 
L 242.869805 274.838723 
L 242.869805 268.715478 
L 247.805974 268.715478 
z
" style="fill:#0000ff;stroke:#ffffff;stroke-linejoin:miter;stroke-width:0.5;"/>
   </g>
   <g id="80b3d4eb4297461799340b46cfc3070e-6-node">
    <path clip-path="url(#pf17a0131df)" d="M 230.819746 274.838723 
C 231.47429 274.838723 232.102113 274.516131 232.564945 273.941994 
C 233.027777 273.367858 233.28783 272.589052 233.28783 271.7771 
C 233.28783 270.965149 233.027777 270.186343 232.564945 269.612207 
C 232.102113 269.03807 231.47429 268.715478 230.819746 268.715478 
C 230.165202 268.715478 229.537379 269.03807 229.074547 269.612207 
C 228.611715 270.186343 228.351662 270.965149 228.351662 271.7771 
C 228.351662 272.589052 228.611715 273.367858 229.074547 273.941994 
C 229.537379 274.516131 230.165202 274.838723 230.819746 274.838723 
z
" style="fill:#00c832;stroke:#ffffff;stroke-linejoin:miter;stroke-width:0.5;"/>
   </g>
   <g id="80b3d4eb4297461799340b46cfc3070e-12-node">
    <path clip-path="url(#pf17a0131df)" d="M 216.301603 292.848264 
C 216.956146 292.848264 217.58397 292.525672 218.046802 291.951536 
C 218.509634 291.377399 218.769687 290.598594 218.769687 289.786642 
C 218.769687 288.97469 218.509634 288.195885 218.046802 287.621748 
C 217.58397 287.047612 216.956146 286.72502 216.301603 286.72502 
C 215.647059 286.72502 215.019236 287.047612 214.556404 287.621748 
C 214.093571 288.195885 213.833518 288.97469 213.833518 289.786642 
C 213.833518 290.598594 214.093571 291.377399 214.556404 291.951536 
C 215.019236 292.525672 215.647059 292.848264 216.301603 292.848264 
z
" style="fill:#00c832;stroke:#ffffff;stroke-linejoin:miter;stroke-width:0.5;"/>
   </g>
   <g id="80b3d4eb4297461799340b46cfc3070e-16-node">
    <path clip-path="url(#pf17a0131df)" d="M 204.251544 295.729791 
L 204.251544 301.853035 
L 199.315375 301.853035 
L 199.315375 295.729791 
L 204.251544 295.729791 
z
" style="fill:#0000ff;stroke:#ffffff;stroke-linejoin:miter;stroke-width:0.5;"/>
   </g>
   <g id="80b3d4eb4297461799340b46cfc3070e-18-node">
    <path clip-path="url(#pf17a0131df)" d="M 187.265316 301.853035 
C 187.91986 301.853035 188.547683 301.530443 189.010515 300.956306 
C 189.473347 300.38217 189.7334 299.603364 189.7334 298.791413 
C 189.7334 297.979461 189.473347 297.200655 189.010515 296.626519 
C 188.547683 296.052382 187.91986 295.729791 187.265316 295.729791 
C 186.610772 295.729791 185.982949 296.052382 185.520117 296.626519 
C 185.057285 297.200655 184.797232 297.979461 184.797232 298.791413 
C 184.797232 299.603364 185.057285 300.38217 185.520117 300.956306 
C 185.982949 301.530443 186.610772 301.853035 187.265316 301.853035 
z
" style="fill:#ffff00;stroke:#ffffff;stroke-linejoin:miter;stroke-width:0.5;"/>
   </g>
   <g id="80b3d4eb4297461799340b46cfc3070e-13-node">
    <path clip-path="url(#pf17a0131df)" d="M 204.251544 277.720249 
L 204.251544 283.843493 
L 199.315375 283.843493 
L 199.315375 277.720249 
L 204.251544 277.720249 
z
" style="fill:#0000ff;stroke:#ffffff;stroke-linejoin:miter;stroke-width:0.5;"/>
   </g>
   <g id="80b3d4eb4297461799340b46cfc3070e-15-node">
    <path clip-path="url(#pf17a0131df)" d="M 187.265316 283.843493 
C 187.91986 283.843493 188.547683 283.520901 189.010515 282.946765 
C 189.473347 282.372628 189.7334 281.593823 189.7334 280.781871 
C 189.7334 279.96992 189.473347 279.191114 189.010515 278.616977 
C 188.547683 278.042841 187.91986 277.720249 187.265316 277.720249 
C 186.610772 277.720249 185.982949 278.042841 185.520117 278.616977 
C 185.057285 279.191114 184.797232 279.96992 184.797232 280.781871 
C 184.797232 281.593823 185.057285 282.372628 185.520117 282.946765 
C 185.982949 283.520901 186.610772 283.843493 187.265316 283.843493 
z
" style="fill:#ffff00;stroke:#ffffff;stroke-linejoin:miter;stroke-width:0.5;"/>
   </g>
   <g id="80b3d4eb4297461799340b46cfc3070e-7-node">
    <path clip-path="url(#pf17a0131df)" d="M 216.301603 256.829181 
C 216.956146 256.829181 217.58397 256.506589 218.046802 255.932453 
C 218.509634 255.358316 218.769687 254.579511 218.769687 253.767559 
C 218.769687 252.955607 218.509634 252.176802 218.046802 251.602665 
C 217.58397 251.028529 216.956146 250.705937 216.301603 250.705937 
C 215.647059 250.705937 215.019236 251.028529 214.556404 251.602665 
C 214.093571 252.176802 213.833518 252.955607 213.833518 253.767559 
C 213.833518 254.579511 214.093571 255.358316 214.556404 255.932453 
C 215.019236 256.506589 215.647059 256.829181 216.301603 256.829181 
z
" style="fill:#00c832;stroke:#ffffff;stroke-linejoin:miter;stroke-width:0.5;"/>
   </g>
   <g id="80b3d4eb4297461799340b46cfc3070e-10-node">
    <path clip-path="url(#pf17a0131df)" d="M 204.251544 259.710708 
L 204.251544 265.833952 
L 199.315375 265.833952 
L 199.315375 259.710708 
L 204.251544 259.710708 
z
" style="fill:#0000ff;stroke:#ffffff;stroke-linejoin:miter;stroke-width:0.5;"/>
   </g>
   <g id="80b3d4eb4297461799340b46cfc3070e-8-node">
    <path clip-path="url(#pf17a0131df)" d="M 204.251544 241.701166 
L 204.251544 247.82441 
L 199.315375 247.82441 
L 199.315375 241.701166 
L 204.251544 241.701166 
z
" style="fill:#0000ff;stroke:#ffffff;stroke-linejoin:miter;stroke-width:0.5;"/>
   </g>
   <g id="80b3d4eb4297461799340b46cfc3070e-3-node">
    <path clip-path="url(#pf17a0131df)" d="M 259.856033 259.710708 
L 257.718609 264.303141 
L 261.993457 264.303141 
z
" style="fill:#ff0000;stroke:#ffffff;stroke-linejoin:miter;stroke-width:0.5;"/>
   </g>
   <g id="patch_85">
    <path d="M 135 315 
L 135 191.454545 
" style="fill:none;stroke:#ffffff;stroke-linecap:square;stroke-linejoin:miter;stroke-width:1.25;"/>
   </g>
   <g id="patch_86">
    <path d="M 279.310345 315 
L 279.310345 191.454545 
" style="fill:none;stroke:#ffffff;stroke-linecap:square;stroke-linejoin:miter;stroke-width:1.25;"/>
   </g>
   <g id="patch_87">
    <path d="M 135 315 
L 279.310345 315 
" style="fill:none;stroke:#ffffff;stroke-linecap:square;stroke-linejoin:miter;stroke-width:1.25;"/>
   </g>
   <g id="patch_88">
    <path d="M 135 191.454545 
L 279.310345 191.454545 
" style="fill:none;stroke:#ffffff;stroke-linecap:square;stroke-linejoin:miter;stroke-width:1.25;"/>
   </g>
   <g id="text_6">
    <!-- 104:1 -->
    <g style="fill:#262626;" transform="translate(192.142047 185.454545)scale(0.12 -0.12)">
     <use xlink:href="#ArialMT-49"/>
     <use x="55.615234" xlink:href="#ArialMT-48"/>
     <use x="111.230469" xlink:href="#ArialMT-52"/>
     <use x="166.845703" xlink:href="#ArialMT-58"/>
     <use x="194.628906" xlink:href="#ArialMT-49"/>
    </g>
   </g>
  </g>
  <g id="axes_7">
   <g id="patch_89">
    <path d="M 308.172414 315 
L 452.482759 315 
L 452.482759 191.454545 
L 308.172414 191.454545 
z
" style="fill:#ffffff;"/>
   </g>
   <g id="patch_90">
    <path clip-path="url(#pe4e51d6df2)" d="M 374.955873 298.791413 
L 360.43773 298.791413 
" style="stroke:#000000;stroke-linejoin:miter;stroke-width:0.5;"/>
   </g>
   <g id="patch_91">
    <path clip-path="url(#pe4e51d6df2)" d="M 389.474017 289.786642 
L 374.955873 298.791413 
" style="stroke:#000000;stroke-linejoin:miter;stroke-width:0.5;"/>
   </g>
   <g id="patch_92">
    <path clip-path="url(#pe4e51d6df2)" d="M 374.955873 280.781871 
L 360.43773 280.781871 
" style="stroke:#000000;stroke-linejoin:miter;stroke-width:0.5;"/>
   </g>
   <g id="patch_93">
    <path clip-path="url(#pe4e51d6df2)" d="M 389.474017 289.786642 
L 374.955873 280.781871 
" style="stroke:#000000;stroke-linejoin:miter;stroke-width:0.5;"/>
   </g>
   <g id="patch_94">
    <path clip-path="url(#pe4e51d6df2)" d="M 403.99216 271.7771 
L 389.474017 289.786642 
" style="stroke:#000000;stroke-linejoin:miter;stroke-width:0.5;"/>
   </g>
   <g id="patch_95">
    <path clip-path="url(#pe4e51d6df2)" d="M 374.955873 262.77233 
L 360.43773 262.77233 
" style="stroke:#000000;stroke-linejoin:miter;stroke-width:0.5;"/>
   </g>
   <g id="patch_96">
    <path clip-path="url(#pe4e51d6df2)" d="M 389.474017 253.767559 
L 374.955873 262.77233 
" style="stroke:#000000;stroke-linejoin:miter;stroke-width:0.5;"/>
   </g>
   <g id="patch_97">
    <path clip-path="url(#pe4e51d6df2)" d="M 389.474017 253.767559 
L 374.955873 244.762788 
" style="stroke:#000000;stroke-linejoin:miter;stroke-width:0.5;"/>
   </g>
   <g id="patch_98">
    <path clip-path="url(#pe4e51d6df2)" d="M 403.99216 271.7771 
L 389.474017 253.767559 
" style="stroke:#000000;stroke-linejoin:miter;stroke-width:0.5;"/>
   </g>
   <g id="patch_99">
    <path clip-path="url(#pe4e51d6df2)" d="M 418.510303 271.7771 
L 403.99216 271.7771 
" style="stroke:#000000;stroke-linejoin:miter;stroke-width:0.5;"/>
   </g>
   <g id="patch_100">
    <path clip-path="url(#pe4e51d6df2)" d="M 433.028447 271.7771 
L 418.510303 271.7771 
" style="stroke:#000000;stroke-linejoin:miter;stroke-width:0.5;"/>
   </g>
   <g id="d5ad1611553343fb8fa1bf569e93919a-1-node">
    <path clip-path="url(#pe4e51d6df2)" d="M 435.496531 268.715478 
L 435.496531 274.838723 
L 430.560362 274.838723 
L 430.560362 268.715478 
L 435.496531 268.715478 
z
" style="fill:#0000ff;stroke:#ffffff;stroke-linejoin:miter;stroke-width:0.5;"/>
   </g>
   <g id="d5ad1611553343fb8fa1bf569e93919a-3-node">
    <path clip-path="url(#pe4e51d6df2)" d="M 420.978388 268.715478 
L 420.978388 274.838723 
L 416.042219 274.838723 
L 416.042219 268.715478 
L 420.978388 268.715478 
z
" style="fill:#0000ff;stroke:#ffffff;stroke-linejoin:miter;stroke-width:0.5;"/>
   </g>
   <g id="d5ad1611553343fb8fa1bf569e93919a-5-node">
    <path clip-path="url(#pe4e51d6df2)" d="M 403.99216 274.838723 
C 404.646703 274.838723 405.274527 274.516131 405.737359 273.941994 
C 406.200191 273.367858 406.460244 272.589052 406.460244 271.7771 
C 406.460244 270.965149 406.200191 270.186343 405.737359 269.612207 
C 405.274527 269.03807 404.646703 268.715478 403.99216 268.715478 
C 403.337616 268.715478 402.709793 269.03807 402.246961 269.612207 
C 401.784128 270.186343 401.524075 270.965149 401.524075 271.7771 
C 401.524075 272.589052 401.784128 273.367858 402.246961 273.941994 
C 402.709793 274.516131 403.337616 274.838723 403.99216 274.838723 
z
" style="fill:#00c832;stroke:#ffffff;stroke-linejoin:miter;stroke-width:0.5;"/>
   </g>
   <g id="d5ad1611553343fb8fa1bf569e93919a-12-node">
    <path clip-path="url(#pe4e51d6df2)" d="M 389.474017 292.848264 
C 390.12856 292.848264 390.756383 292.525672 391.219216 291.951536 
C 391.682048 291.377399 391.942101 290.598594 391.942101 289.786642 
C 391.942101 288.97469 391.682048 288.195885 391.219216 287.621748 
C 390.756383 287.047612 390.12856 286.72502 389.474017 286.72502 
C 388.819473 286.72502 388.19165 287.047612 387.728817 287.621748 
C 387.265985 288.195885 387.005932 288.97469 387.005932 289.786642 
C 387.005932 290.598594 387.265985 291.377399 387.728817 291.951536 
C 388.19165 292.525672 388.819473 292.848264 389.474017 292.848264 
z
" style="fill:#00c832;stroke:#ffffff;stroke-linejoin:miter;stroke-width:0.5;"/>
   </g>
   <g id="d5ad1611553343fb8fa1bf569e93919a-16-node">
    <path clip-path="url(#pe4e51d6df2)" d="M 377.423958 295.729791 
L 377.423958 301.853035 
L 372.487789 301.853035 
L 372.487789 295.729791 
L 377.423958 295.729791 
z
" style="fill:#0000ff;stroke:#ffffff;stroke-linejoin:miter;stroke-width:0.5;"/>
   </g>
   <g id="d5ad1611553343fb8fa1bf569e93919a-18-node">
    <path clip-path="url(#pe4e51d6df2)" d="M 360.43773 301.853035 
C 361.092273 301.853035 361.720097 301.530443 362.182929 300.956306 
C 362.645761 300.38217 362.905814 299.603364 362.905814 298.791413 
C 362.905814 297.979461 362.645761 297.200655 362.182929 296.626519 
C 361.720097 296.052382 361.092273 295.729791 360.43773 295.729791 
C 359.783186 295.729791 359.155363 296.052382 358.692531 296.626519 
C 358.229698 297.200655 357.969645 297.979461 357.969645 298.791413 
C 357.969645 299.603364 358.229698 300.38217 358.692531 300.956306 
C 359.155363 301.530443 359.783186 301.853035 360.43773 301.853035 
z
" style="fill:#ffff00;stroke:#ffffff;stroke-linejoin:miter;stroke-width:0.5;"/>
   </g>
   <g id="d5ad1611553343fb8fa1bf569e93919a-13-node">
    <path clip-path="url(#pe4e51d6df2)" d="M 377.423958 277.720249 
L 377.423958 283.843493 
L 372.487789 283.843493 
L 372.487789 277.720249 
L 377.423958 277.720249 
z
" style="fill:#0000ff;stroke:#ffffff;stroke-linejoin:miter;stroke-width:0.5;"/>
   </g>
   <g id="d5ad1611553343fb8fa1bf569e93919a-15-node">
    <path clip-path="url(#pe4e51d6df2)" d="M 360.43773 283.843493 
C 361.092273 283.843493 361.720097 283.520901 362.182929 282.946765 
C 362.645761 282.372628 362.905814 281.593823 362.905814 280.781871 
C 362.905814 279.96992 362.645761 279.191114 362.182929 278.616977 
C 361.720097 278.042841 361.092273 277.720249 360.43773 277.720249 
C 359.783186 277.720249 359.155363 278.042841 358.692531 278.616977 
C 358.229698 279.191114 357.969645 279.96992 357.969645 280.781871 
C 357.969645 281.593823 358.229698 282.372628 358.692531 282.946765 
C 359.155363 283.520901 359.783186 283.843493 360.43773 283.843493 
z
" style="fill:#ffff00;stroke:#ffffff;stroke-linejoin:miter;stroke-width:0.5;"/>
   </g>
   <g id="d5ad1611553343fb8fa1bf569e93919a-6-node">
    <path clip-path="url(#pe4e51d6df2)" d="M 389.474017 256.829181 
C 390.12856 256.829181 390.756383 256.506589 391.219216 255.932453 
C 391.682048 255.358316 391.942101 254.579511 391.942101 253.767559 
C 391.942101 252.955607 391.682048 252.176802 391.219216 251.602665 
C 390.756383 251.028529 390.12856 250.705937 389.474017 250.705937 
C 388.819473 250.705937 388.19165 251.028529 387.728817 251.602665 
C 387.265985 252.176802 387.005932 252.955607 387.005932 253.767559 
C 387.005932 254.579511 387.265985 255.358316 387.728817 255.932453 
C 388.19165 256.506589 388.819473 256.829181 389.474017 256.829181 
z
" style="fill:#00c832;stroke:#ffffff;stroke-linejoin:miter;stroke-width:0.5;"/>
   </g>
   <g id="d5ad1611553343fb8fa1bf569e93919a-9-node">
    <path clip-path="url(#pe4e51d6df2)" d="M 377.423958 259.710708 
L 377.423958 265.833952 
L 372.487789 265.833952 
L 372.487789 259.710708 
L 377.423958 259.710708 
z
" style="fill:#0000ff;stroke:#ffffff;stroke-linejoin:miter;stroke-width:0.5;"/>
   </g>
   <g id="d5ad1611553343fb8fa1bf569e93919a-11-node">
    <path clip-path="url(#pe4e51d6df2)" d="M 360.43773 265.833952 
C 361.092273 265.833952 361.720097 265.51136 362.182929 264.937223 
C 362.645761 264.363087 362.905814 263.584281 362.905814 262.77233 
C 362.905814 261.960378 362.645761 261.181573 362.182929 260.607436 
C 361.720097 260.033299 361.092273 259.710708 360.43773 259.710708 
C 359.783186 259.710708 359.155363 260.033299 358.692531 260.607436 
C 358.229698 261.181573 357.969645 261.960378 357.969645 262.77233 
C 357.969645 263.584281 358.229698 264.363087 358.692531 264.937223 
C 359.155363 265.51136 359.783186 265.833952 360.43773 265.833952 
z
" style="fill:#ffff00;stroke:#ffffff;stroke-linejoin:miter;stroke-width:0.5;"/>
   </g>
   <g id="d5ad1611553343fb8fa1bf569e93919a-7-node">
    <path clip-path="url(#pe4e51d6df2)" d="M 377.423958 241.701166 
L 377.423958 247.82441 
L 372.487789 247.82441 
L 372.487789 241.701166 
L 377.423958 241.701166 
z
" style="fill:#0000ff;stroke:#ffffff;stroke-linejoin:miter;stroke-width:0.5;"/>
   </g>
   <g id="patch_101">
    <path d="M 308.172414 315 
L 308.172414 191.454545 
" style="fill:none;stroke:#ffffff;stroke-linecap:square;stroke-linejoin:miter;stroke-width:1.25;"/>
   </g>
   <g id="patch_102">
    <path d="M 452.482759 315 
L 452.482759 191.454545 
" style="fill:none;stroke:#ffffff;stroke-linecap:square;stroke-linejoin:miter;stroke-width:1.25;"/>
   </g>
   <g id="patch_103">
    <path d="M 308.172414 315 
L 452.482759 315 
" style="fill:none;stroke:#ffffff;stroke-linecap:square;stroke-linejoin:miter;stroke-width:1.25;"/>
   </g>
   <g id="patch_104">
    <path d="M 308.172414 191.454545 
L 452.482759 191.454545 
" style="fill:none;stroke:#ffffff;stroke-linecap:square;stroke-linejoin:miter;stroke-width:1.25;"/>
   </g>
   <g id="text_7">
    <!-- 110:2.0 -->
    <defs>
     <path d="M 9.078125 0 
L 9.078125 10.015625 
L 19.09375 10.015625 
L 19.09375 0 
z
" id="ArialMT-46"/>
    </defs>
    <g style="fill:#262626;" transform="translate(360.317586 185.454545)scale(0.12 -0.12)">
     <use xlink:href="#ArialMT-49"/>
     <use x="55.505859" xlink:href="#ArialMT-49"/>
     <use x="111.121094" xlink:href="#ArialMT-48"/>
     <use x="166.736328" xlink:href="#ArialMT-58"/>
     <use x="194.519531" xlink:href="#ArialMT-50"/>
     <use x="250.134766" xlink:href="#ArialMT-46"/>
     <use x="277.917969" xlink:href="#ArialMT-48"/>
    </g>
   </g>
  </g>
  <g id="axes_8">
   <g id="patch_105">
    <path d="M 481.344828 315 
L 625.655172 315 
L 625.655172 191.454545 
L 481.344828 191.454545 
z
" style="fill:#ffffff;"/>
   </g>
   <g id="patch_106">
    <path clip-path="url(#p2e7cd15400)" d="M 548.128287 298.791413 
L 533.610144 298.791413 
" style="stroke:#000000;stroke-linejoin:miter;stroke-width:0.5;"/>
   </g>
   <g id="patch_107">
    <path clip-path="url(#p2e7cd15400)" d="M 562.64643 289.786642 
L 548.128287 298.791413 
" style="stroke:#000000;stroke-linejoin:miter;stroke-width:0.5;"/>
   </g>
   <g id="patch_108">
    <path clip-path="url(#p2e7cd15400)" d="M 548.128287 280.781871 
L 533.610144 280.781871 
" style="stroke:#000000;stroke-linejoin:miter;stroke-width:0.5;"/>
   </g>
   <g id="patch_109">
    <path clip-path="url(#p2e7cd15400)" d="M 562.64643 289.786642 
L 548.128287 280.781871 
" style="stroke:#000000;stroke-linejoin:miter;stroke-width:0.5;"/>
   </g>
   <g id="patch_110">
    <path clip-path="url(#p2e7cd15400)" d="M 577.164574 271.7771 
L 562.64643 289.786642 
" style="stroke:#000000;stroke-linejoin:miter;stroke-width:0.5;"/>
   </g>
   <g id="patch_111">
    <path clip-path="url(#p2e7cd15400)" d="M 548.128287 262.77233 
L 533.610144 262.77233 
" style="stroke:#000000;stroke-linejoin:miter;stroke-width:0.5;"/>
   </g>
   <g id="patch_112">
    <path clip-path="url(#p2e7cd15400)" d="M 562.64643 253.767559 
L 548.128287 262.77233 
" style="stroke:#000000;stroke-linejoin:miter;stroke-width:0.5;"/>
   </g>
   <g id="patch_113">
    <path clip-path="url(#p2e7cd15400)" d="M 562.64643 253.767559 
L 548.128287 244.762788 
" style="stroke:#000000;stroke-linejoin:miter;stroke-width:0.5;"/>
   </g>
   <g id="patch_114">
    <path clip-path="url(#p2e7cd15400)" d="M 577.164574 271.7771 
L 562.64643 253.767559 
" style="stroke:#000000;stroke-linejoin:miter;stroke-width:0.5;"/>
   </g>
   <g id="patch_115">
    <path clip-path="url(#p2e7cd15400)" d="M 591.682717 271.7771 
L 577.164574 271.7771 
" style="stroke:#000000;stroke-linejoin:miter;stroke-width:0.5;"/>
   </g>
   <g id="patch_116">
    <path clip-path="url(#p2e7cd15400)" d="M 606.20086 271.7771 
L 591.682717 271.7771 
" style="stroke:#000000;stroke-linejoin:miter;stroke-width:0.5;"/>
   </g>
   <g id="patch_117">
    <path clip-path="url(#p2e7cd15400)" d="M 606.20086 271.7771 
L 606.20086 262.77233 
" style="stroke:#000000;stroke-linejoin:miter;stroke-width:0.5;"/>
   </g>
   <g id="d32b2d69f2844278837bcf82b141085e-1-node">
    <path clip-path="url(#p2e7cd15400)" d="M 608.668945 268.715478 
L 608.668945 274.838723 
L 603.732776 274.838723 
L 603.732776 268.715478 
L 608.668945 268.715478 
z
" style="fill:#0000ff;stroke:#ffffff;stroke-linejoin:miter;stroke-width:0.5;"/>
   </g>
   <g id="d32b2d69f2844278837bcf82b141085e-4-node">
    <path clip-path="url(#p2e7cd15400)" d="M 594.150801 268.715478 
L 594.150801 274.838723 
L 589.214633 274.838723 
L 589.214633 268.715478 
L 594.150801 268.715478 
z
" style="fill:#0000ff;stroke:#ffffff;stroke-linejoin:miter;stroke-width:0.5;"/>
   </g>
   <g id="d32b2d69f2844278837bcf82b141085e-6-node">
    <path clip-path="url(#p2e7cd15400)" d="M 577.164574 274.838723 
C 577.819117 274.838723 578.446941 274.516131 578.909773 273.941994 
C 579.372605 273.367858 579.632658 272.589052 579.632658 271.7771 
C 579.632658 270.965149 579.372605 270.186343 578.909773 269.612207 
C 578.446941 269.03807 577.819117 268.715478 577.164574 268.715478 
C 576.51003 268.715478 575.882207 269.03807 575.419374 269.612207 
C 574.956542 270.186343 574.696489 270.965149 574.696489 271.7771 
C 574.696489 272.589052 574.956542 273.367858 575.419374 273.941994 
C 575.882207 274.516131 576.51003 274.838723 577.164574 274.838723 
z
" style="fill:#00c832;stroke:#ffffff;stroke-linejoin:miter;stroke-width:0.5;"/>
   </g>
   <g id="d32b2d69f2844278837bcf82b141085e-13-node">
    <path clip-path="url(#p2e7cd15400)" d="M 562.64643 292.848264 
C 563.300974 292.848264 563.928797 292.525672 564.391629 291.951536 
C 564.854462 291.377399 565.114515 290.598594 565.114515 289.786642 
C 565.114515 288.97469 564.854462 288.195885 564.391629 287.621748 
C 563.928797 287.047612 563.300974 286.72502 562.64643 286.72502 
C 561.991887 286.72502 561.364063 287.047612 560.901231 287.621748 
C 560.438399 288.195885 560.178346 288.97469 560.178346 289.786642 
C 560.178346 290.598594 560.438399 291.377399 560.901231 291.951536 
C 561.364063 292.525672 561.991887 292.848264 562.64643 292.848264 
z
" style="fill:#00c832;stroke:#ffffff;stroke-linejoin:miter;stroke-width:0.5;"/>
   </g>
   <g id="d32b2d69f2844278837bcf82b141085e-17-node">
    <path clip-path="url(#p2e7cd15400)" d="M 550.596371 295.729791 
L 550.596371 301.853035 
L 545.660203 301.853035 
L 545.660203 295.729791 
L 550.596371 295.729791 
z
" style="fill:#0000ff;stroke:#ffffff;stroke-linejoin:miter;stroke-width:0.5;"/>
   </g>
   <g id="d32b2d69f2844278837bcf82b141085e-19-node">
    <path clip-path="url(#p2e7cd15400)" d="M 533.610144 301.853035 
C 534.264687 301.853035 534.892511 301.530443 535.355343 300.956306 
C 535.818175 300.38217 536.078228 299.603364 536.078228 298.791413 
C 536.078228 297.979461 535.818175 297.200655 535.355343 296.626519 
C 534.892511 296.052382 534.264687 295.729791 533.610144 295.729791 
C 532.9556 295.729791 532.327777 296.052382 531.864944 296.626519 
C 531.402112 297.200655 531.142059 297.979461 531.142059 298.791413 
C 531.142059 299.603364 531.402112 300.38217 531.864944 300.956306 
C 532.327777 301.530443 532.9556 301.853035 533.610144 301.853035 
z
" style="fill:#ffff00;stroke:#ffffff;stroke-linejoin:miter;stroke-width:0.5;"/>
   </g>
   <g id="d32b2d69f2844278837bcf82b141085e-14-node">
    <path clip-path="url(#p2e7cd15400)" d="M 550.596371 277.720249 
L 550.596371 283.843493 
L 545.660203 283.843493 
L 545.660203 277.720249 
L 550.596371 277.720249 
z
" style="fill:#0000ff;stroke:#ffffff;stroke-linejoin:miter;stroke-width:0.5;"/>
   </g>
   <g id="d32b2d69f2844278837bcf82b141085e-16-node">
    <path clip-path="url(#p2e7cd15400)" d="M 533.610144 283.843493 
C 534.264687 283.843493 534.892511 283.520901 535.355343 282.946765 
C 535.818175 282.372628 536.078228 281.593823 536.078228 280.781871 
C 536.078228 279.96992 535.818175 279.191114 535.355343 278.616977 
C 534.892511 278.042841 534.264687 277.720249 533.610144 277.720249 
C 532.9556 277.720249 532.327777 278.042841 531.864944 278.616977 
C 531.402112 279.191114 531.142059 279.96992 531.142059 280.781871 
C 531.142059 281.593823 531.402112 282.372628 531.864944 282.946765 
C 532.327777 283.520901 532.9556 283.843493 533.610144 283.843493 
z
" style="fill:#ffff00;stroke:#ffffff;stroke-linejoin:miter;stroke-width:0.5;"/>
   </g>
   <g id="d32b2d69f2844278837bcf82b141085e-7-node">
    <path clip-path="url(#p2e7cd15400)" d="M 562.64643 256.829181 
C 563.300974 256.829181 563.928797 256.506589 564.391629 255.932453 
C 564.854462 255.358316 565.114515 254.579511 565.114515 253.767559 
C 565.114515 252.955607 564.854462 252.176802 564.391629 251.602665 
C 563.928797 251.028529 563.300974 250.705937 562.64643 250.705937 
C 561.991887 250.705937 561.364063 251.028529 560.901231 251.602665 
C 560.438399 252.176802 560.178346 252.955607 560.178346 253.767559 
C 560.178346 254.579511 560.438399 255.358316 560.901231 255.932453 
C 561.364063 256.506589 561.991887 256.829181 562.64643 256.829181 
z
" style="fill:#00c832;stroke:#ffffff;stroke-linejoin:miter;stroke-width:0.5;"/>
   </g>
   <g id="d32b2d69f2844278837bcf82b141085e-10-node">
    <path clip-path="url(#p2e7cd15400)" d="M 550.596371 259.710708 
L 550.596371 265.833952 
L 545.660203 265.833952 
L 545.660203 259.710708 
L 550.596371 259.710708 
z
" style="fill:#0000ff;stroke:#ffffff;stroke-linejoin:miter;stroke-width:0.5;"/>
   </g>
   <g id="d32b2d69f2844278837bcf82b141085e-12-node">
    <path clip-path="url(#p2e7cd15400)" d="M 533.610144 265.833952 
C 534.264687 265.833952 534.892511 265.51136 535.355343 264.937223 
C 535.818175 264.363087 536.078228 263.584281 536.078228 262.77233 
C 536.078228 261.960378 535.818175 261.181573 535.355343 260.607436 
C 534.892511 260.033299 534.264687 259.710708 533.610144 259.710708 
C 532.9556 259.710708 532.327777 260.033299 531.864944 260.607436 
C 531.402112 261.181573 531.142059 261.960378 531.142059 262.77233 
C 531.142059 263.584281 531.402112 264.363087 531.864944 264.937223 
C 532.327777 265.51136 532.9556 265.833952 533.610144 265.833952 
z
" style="fill:#ffff00;stroke:#ffffff;stroke-linejoin:miter;stroke-width:0.5;"/>
   </g>
   <g id="d32b2d69f2844278837bcf82b141085e-8-node">
    <path clip-path="url(#p2e7cd15400)" d="M 550.596371 241.701166 
L 550.596371 247.82441 
L 545.660203 247.82441 
L 545.660203 241.701166 
L 550.596371 241.701166 
z
" style="fill:#0000ff;stroke:#ffffff;stroke-linejoin:miter;stroke-width:0.5;"/>
   </g>
   <g id="d32b2d69f2844278837bcf82b141085e-3-node">
    <path clip-path="url(#p2e7cd15400)" d="M 606.20086 259.710708 
L 604.063437 264.303141 
L 608.338284 264.303141 
z
" style="fill:#ff0000;stroke:#ffffff;stroke-linejoin:miter;stroke-width:0.5;"/>
   </g>
   <g id="patch_118">
    <path d="M 481.344828 315 
L 481.344828 191.454545 
" style="fill:none;stroke:#ffffff;stroke-linecap:square;stroke-linejoin:miter;stroke-width:1.25;"/>
   </g>
   <g id="patch_119">
    <path d="M 625.655172 315 
L 625.655172 191.454545 
" style="fill:none;stroke:#ffffff;stroke-linecap:square;stroke-linejoin:miter;stroke-width:1.25;"/>
   </g>
   <g id="patch_120">
    <path d="M 481.344828 315 
L 625.655172 315 
" style="fill:none;stroke:#ffffff;stroke-linecap:square;stroke-linejoin:miter;stroke-width:1.25;"/>
   </g>
   <g id="patch_121">
    <path d="M 481.344828 191.454545 
L 625.655172 191.454545 
" style="fill:none;stroke:#ffffff;stroke-linecap:square;stroke-linejoin:miter;stroke-width:1.25;"/>
   </g>
   <g id="text_8">
    <!-- 151:2.0 -->
    <defs>
     <path d="M 4.15625 18.75 
L 13.375 19.53125 
Q 14.40625 12.796875 18.140625 9.390625 
Q 21.875 6 27.15625 6 
Q 33.5 6 37.890625 10.78125 
Q 42.28125 15.578125 42.28125 23.484375 
Q 42.28125 31 38.0625 35.34375 
Q 33.84375 39.703125 27 39.703125 
Q 22.75 39.703125 19.328125 37.765625 
Q 15.921875 35.84375 13.96875 32.765625 
L 5.71875 33.84375 
L 12.640625 70.609375 
L 48.25 70.609375 
L 48.25 62.203125 
L 19.671875 62.203125 
L 15.828125 42.96875 
Q 22.265625 47.46875 29.34375 47.46875 
Q 38.71875 47.46875 45.15625 40.96875 
Q 51.609375 34.46875 51.609375 24.265625 
Q 51.609375 14.546875 45.953125 7.46875 
Q 39.0625 -1.21875 27.15625 -1.21875 
Q 17.390625 -1.21875 11.203125 4.25 
Q 5.03125 9.71875 4.15625 18.75 
z
" id="ArialMT-53"/>
    </defs>
    <g style="fill:#262626;" transform="translate(533.483438 185.454545)scale(0.12 -0.12)">
     <use xlink:href="#ArialMT-49"/>
     <use x="55.615234" xlink:href="#ArialMT-53"/>
     <use x="111.230469" xlink:href="#ArialMT-49"/>
     <use x="166.845703" xlink:href="#ArialMT-58"/>
     <use x="194.628906" xlink:href="#ArialMT-50"/>
     <use x="250.244141" xlink:href="#ArialMT-46"/>
     <use x="278.027344" xlink:href="#ArialMT-48"/>
    </g>
   </g>
  </g>
  <g id="axes_9">
   <g id="patch_122">
    <path d="M 654.517241 315 
L 798.827586 315 
L 798.827586 191.454545 
L 654.517241 191.454545 
z
" style="fill:#ffffff;"/>
   </g>
   <g id="patch_123">
    <path clip-path="url(#p6c4dbe141e)" d="M 721.300701 298.791413 
L 706.782557 298.791413 
" style="stroke:#000000;stroke-linejoin:miter;stroke-width:0.5;"/>
   </g>
   <g id="patch_124">
    <path clip-path="url(#p6c4dbe141e)" d="M 735.818844 289.786642 
L 721.300701 298.791413 
" style="stroke:#000000;stroke-linejoin:miter;stroke-width:0.5;"/>
   </g>
   <g id="patch_125">
    <path clip-path="url(#p6c4dbe141e)" d="M 721.300701 280.781871 
L 706.782557 280.781871 
" style="stroke:#000000;stroke-linejoin:miter;stroke-width:0.5;"/>
   </g>
   <g id="patch_126">
    <path clip-path="url(#p6c4dbe141e)" d="M 735.818844 289.786642 
L 721.300701 280.781871 
" style="stroke:#000000;stroke-linejoin:miter;stroke-width:0.5;"/>
   </g>
   <g id="patch_127">
    <path clip-path="url(#p6c4dbe141e)" d="M 750.336987 271.7771 
L 735.818844 289.786642 
" style="stroke:#000000;stroke-linejoin:miter;stroke-width:0.5;"/>
   </g>
   <g id="patch_128">
    <path clip-path="url(#p6c4dbe141e)" d="M 721.300701 262.77233 
L 706.782557 262.77233 
" style="stroke:#000000;stroke-linejoin:miter;stroke-width:0.5;"/>
   </g>
   <g id="patch_129">
    <path clip-path="url(#p6c4dbe141e)" d="M 735.818844 253.767559 
L 721.300701 262.77233 
" style="stroke:#000000;stroke-linejoin:miter;stroke-width:0.5;"/>
   </g>
   <g id="patch_130">
    <path clip-path="url(#p6c4dbe141e)" d="M 721.300701 244.762788 
L 706.782557 244.762788 
" style="stroke:#000000;stroke-linejoin:miter;stroke-width:0.5;"/>
   </g>
   <g id="patch_131">
    <path clip-path="url(#p6c4dbe141e)" d="M 735.818844 253.767559 
L 721.300701 244.762788 
" style="stroke:#000000;stroke-linejoin:miter;stroke-width:0.5;"/>
   </g>
   <g id="patch_132">
    <path clip-path="url(#p6c4dbe141e)" d="M 750.336987 271.7771 
L 735.818844 253.767559 
" style="stroke:#000000;stroke-linejoin:miter;stroke-width:0.5;"/>
   </g>
   <g id="patch_133">
    <path clip-path="url(#p6c4dbe141e)" d="M 764.855131 271.7771 
L 750.336987 271.7771 
" style="stroke:#000000;stroke-linejoin:miter;stroke-width:0.5;"/>
   </g>
   <g id="patch_134">
    <path clip-path="url(#p6c4dbe141e)" d="M 779.373274 271.7771 
L 764.855131 271.7771 
" style="stroke:#000000;stroke-linejoin:miter;stroke-width:0.5;"/>
   </g>
   <g id="7b9f05cf98f04d04b26b547c4e2b63d2-1-node">
    <path clip-path="url(#p6c4dbe141e)" d="M 781.841358 268.715478 
L 781.841358 274.838723 
L 776.90519 274.838723 
L 776.90519 268.715478 
L 781.841358 268.715478 
z
" style="fill:#0000ff;stroke:#ffffff;stroke-linejoin:miter;stroke-width:0.5;"/>
   </g>
   <g id="7b9f05cf98f04d04b26b547c4e2b63d2-3-node">
    <path clip-path="url(#p6c4dbe141e)" d="M 767.323215 268.715478 
L 767.323215 274.838723 
L 762.387046 274.838723 
L 762.387046 268.715478 
L 767.323215 268.715478 
z
" style="fill:#0000ff;stroke:#ffffff;stroke-linejoin:miter;stroke-width:0.5;"/>
   </g>
   <g id="7b9f05cf98f04d04b26b547c4e2b63d2-5-node">
    <path clip-path="url(#p6c4dbe141e)" d="M 750.336987 274.838723 
C 750.991531 274.838723 751.619354 274.516131 752.082187 273.941994 
C 752.545019 273.367858 752.805072 272.589052 752.805072 271.7771 
C 752.805072 270.965149 752.545019 270.186343 752.082187 269.612207 
C 751.619354 269.03807 750.991531 268.715478 750.336987 268.715478 
C 749.682444 268.715478 749.05462 269.03807 748.591788 269.612207 
C 748.128956 270.186343 747.868903 270.965149 747.868903 271.7771 
C 747.868903 272.589052 748.128956 273.367858 748.591788 273.941994 
C 749.05462 274.516131 749.682444 274.838723 750.336987 274.838723 
z
" style="fill:#00c832;stroke:#ffffff;stroke-linejoin:miter;stroke-width:0.5;"/>
   </g>
   <g id="7b9f05cf98f04d04b26b547c4e2b63d2-13-node">
    <path clip-path="url(#p6c4dbe141e)" d="M 735.818844 292.848264 
C 736.473388 292.848264 737.101211 292.525672 737.564043 291.951536 
C 738.026876 291.377399 738.286928 290.598594 738.286928 289.786642 
C 738.286928 288.97469 738.026876 288.195885 737.564043 287.621748 
C 737.101211 287.047612 736.473388 286.72502 735.818844 286.72502 
C 735.1643 286.72502 734.536477 287.047612 734.073645 287.621748 
C 733.610813 288.195885 733.35076 288.97469 733.35076 289.786642 
C 733.35076 290.598594 733.610813 291.377399 734.073645 291.951536 
C 734.536477 292.525672 735.1643 292.848264 735.818844 292.848264 
z
" style="fill:#00c832;stroke:#ffffff;stroke-linejoin:miter;stroke-width:0.5;"/>
   </g>
   <g id="7b9f05cf98f04d04b26b547c4e2b63d2-17-node">
    <path clip-path="url(#p6c4dbe141e)" d="M 723.768785 295.729791 
L 723.768785 301.853035 
L 718.832616 301.853035 
L 718.832616 295.729791 
L 723.768785 295.729791 
z
" style="fill:#0000ff;stroke:#ffffff;stroke-linejoin:miter;stroke-width:0.5;"/>
   </g>
   <g id="7b9f05cf98f04d04b26b547c4e2b63d2-19-node">
    <path clip-path="url(#p6c4dbe141e)" d="M 706.782557 301.853035 
C 707.437101 301.853035 708.064924 301.530443 708.527757 300.956306 
C 708.990589 300.38217 709.250642 299.603364 709.250642 298.791413 
C 709.250642 297.979461 708.990589 297.200655 708.527757 296.626519 
C 708.064924 296.052382 707.437101 295.729791 706.782557 295.729791 
C 706.128014 295.729791 705.50019 296.052382 705.037358 296.626519 
C 704.574526 297.200655 704.314473 297.979461 704.314473 298.791413 
C 704.314473 299.603364 704.574526 300.38217 705.037358 300.956306 
C 705.50019 301.530443 706.128014 301.853035 706.782557 301.853035 
z
" style="fill:#ffff00;stroke:#ffffff;stroke-linejoin:miter;stroke-width:0.5;"/>
   </g>
   <g id="7b9f05cf98f04d04b26b547c4e2b63d2-14-node">
    <path clip-path="url(#p6c4dbe141e)" d="M 723.768785 277.720249 
L 723.768785 283.843493 
L 718.832616 283.843493 
L 718.832616 277.720249 
L 723.768785 277.720249 
z
" style="fill:#0000ff;stroke:#ffffff;stroke-linejoin:miter;stroke-width:0.5;"/>
   </g>
   <g id="7b9f05cf98f04d04b26b547c4e2b63d2-16-node">
    <path clip-path="url(#p6c4dbe141e)" d="M 706.782557 283.843493 
C 707.437101 283.843493 708.064924 283.520901 708.527757 282.946765 
C 708.990589 282.372628 709.250642 281.593823 709.250642 280.781871 
C 709.250642 279.96992 708.990589 279.191114 708.527757 278.616977 
C 708.064924 278.042841 707.437101 277.720249 706.782557 277.720249 
C 706.128014 277.720249 705.50019 278.042841 705.037358 278.616977 
C 704.574526 279.191114 704.314473 279.96992 704.314473 280.781871 
C 704.314473 281.593823 704.574526 282.372628 705.037358 282.946765 
C 705.50019 283.520901 706.128014 283.843493 706.782557 283.843493 
z
" style="fill:#ffff00;stroke:#ffffff;stroke-linejoin:miter;stroke-width:0.5;"/>
   </g>
   <g id="7b9f05cf98f04d04b26b547c4e2b63d2-6-node">
    <path clip-path="url(#p6c4dbe141e)" d="M 735.818844 256.829181 
C 736.473388 256.829181 737.101211 256.506589 737.564043 255.932453 
C 738.026876 255.358316 738.286928 254.579511 738.286928 253.767559 
C 738.286928 252.955607 738.026876 252.176802 737.564043 251.602665 
C 737.101211 251.028529 736.473388 250.705937 735.818844 250.705937 
C 735.1643 250.705937 734.536477 251.028529 734.073645 251.602665 
C 733.610813 252.176802 733.35076 252.955607 733.35076 253.767559 
C 733.35076 254.579511 733.610813 255.358316 734.073645 255.932453 
C 734.536477 256.506589 735.1643 256.829181 735.818844 256.829181 
z
" style="fill:#00c832;stroke:#ffffff;stroke-linejoin:miter;stroke-width:0.5;"/>
   </g>
   <g id="7b9f05cf98f04d04b26b547c4e2b63d2-10-node">
    <path clip-path="url(#p6c4dbe141e)" d="M 723.768785 259.710708 
L 723.768785 265.833952 
L 718.832616 265.833952 
L 718.832616 259.710708 
L 723.768785 259.710708 
z
" style="fill:#0000ff;stroke:#ffffff;stroke-linejoin:miter;stroke-width:0.5;"/>
   </g>
   <g id="7b9f05cf98f04d04b26b547c4e2b63d2-12-node">
    <path clip-path="url(#p6c4dbe141e)" d="M 706.782557 265.833952 
C 707.437101 265.833952 708.064924 265.51136 708.527757 264.937223 
C 708.990589 264.363087 709.250642 263.584281 709.250642 262.77233 
C 709.250642 261.960378 708.990589 261.181573 708.527757 260.607436 
C 708.064924 260.033299 707.437101 259.710708 706.782557 259.710708 
C 706.128014 259.710708 705.50019 260.033299 705.037358 260.607436 
C 704.574526 261.181573 704.314473 261.960378 704.314473 262.77233 
C 704.314473 263.584281 704.574526 264.363087 705.037358 264.937223 
C 705.50019 265.51136 706.128014 265.833952 706.782557 265.833952 
z
" style="fill:#ffff00;stroke:#ffffff;stroke-linejoin:miter;stroke-width:0.5;"/>
   </g>
   <g id="7b9f05cf98f04d04b26b547c4e2b63d2-7-node">
    <path clip-path="url(#p6c4dbe141e)" d="M 723.768785 241.701166 
L 723.768785 247.82441 
L 718.832616 247.82441 
L 718.832616 241.701166 
L 723.768785 241.701166 
z
" style="fill:#0000ff;stroke:#ffffff;stroke-linejoin:miter;stroke-width:0.5;"/>
   </g>
   <g id="7b9f05cf98f04d04b26b547c4e2b63d2-9-node">
    <path clip-path="url(#p6c4dbe141e)" d="M 706.782557 247.82441 
C 707.437101 247.82441 708.064924 247.501818 708.527757 246.927682 
C 708.990589 246.353545 709.250642 245.57474 709.250642 244.762788 
C 709.250642 243.950837 708.990589 243.172031 708.527757 242.597895 
C 708.064924 242.023758 707.437101 241.701166 706.782557 241.701166 
C 706.128014 241.701166 705.50019 242.023758 705.037358 242.597895 
C 704.574526 243.172031 704.314473 243.950837 704.314473 244.762788 
C 704.314473 245.57474 704.574526 246.353545 705.037358 246.927682 
C 705.50019 247.501818 706.128014 247.82441 706.782557 247.82441 
z
" style="fill:#ffff00;stroke:#ffffff;stroke-linejoin:miter;stroke-width:0.5;"/>
   </g>
   <g id="patch_135">
    <path d="M 654.517241 315 
L 654.517241 191.454545 
" style="fill:none;stroke:#ffffff;stroke-linecap:square;stroke-linejoin:miter;stroke-width:1.25;"/>
   </g>
   <g id="patch_136">
    <path d="M 798.827586 315 
L 798.827586 191.454545 
" style="fill:none;stroke:#ffffff;stroke-linecap:square;stroke-linejoin:miter;stroke-width:1.25;"/>
   </g>
   <g id="patch_137">
    <path d="M 654.517241 315 
L 798.827586 315 
" style="fill:none;stroke:#ffffff;stroke-linecap:square;stroke-linejoin:miter;stroke-width:1.25;"/>
   </g>
   <g id="patch_138">
    <path d="M 654.517241 191.454545 
L 798.827586 191.454545 
" style="fill:none;stroke:#ffffff;stroke-linecap:square;stroke-linejoin:miter;stroke-width:1.25;"/>
   </g>
   <g id="text_9">
    <!-- 159:1 -->
    <defs>
     <path d="M 5.46875 16.546875 
L 13.921875 17.328125 
Q 14.984375 11.375 18.015625 8.6875 
Q 21.046875 6 25.78125 6 
Q 29.828125 6 32.875 7.859375 
Q 35.9375 9.71875 37.890625 12.8125 
Q 39.84375 15.921875 41.15625 21.1875 
Q 42.484375 26.46875 42.484375 31.9375 
Q 42.484375 32.515625 42.4375 33.6875 
Q 39.796875 29.5 35.234375 26.875 
Q 30.671875 24.265625 25.34375 24.265625 
Q 16.453125 24.265625 10.296875 30.703125 
Q 4.15625 37.15625 4.15625 47.703125 
Q 4.15625 58.59375 10.578125 65.234375 
Q 17 71.875 26.65625 71.875 
Q 33.640625 71.875 39.421875 68.109375 
Q 45.21875 64.359375 48.21875 57.390625 
Q 51.21875 50.4375 51.21875 37.25 
Q 51.21875 23.53125 48.234375 15.40625 
Q 45.265625 7.28125 39.375 3.03125 
Q 33.5 -1.21875 25.59375 -1.21875 
Q 17.1875 -1.21875 11.859375 3.4375 
Q 6.546875 8.109375 5.46875 16.546875 
z
M 41.453125 48.140625 
Q 41.453125 55.71875 37.421875 60.15625 
Q 33.40625 64.59375 27.734375 64.59375 
Q 21.875 64.59375 17.53125 59.8125 
Q 13.1875 55.03125 13.1875 47.40625 
Q 13.1875 40.578125 17.3125 36.296875 
Q 21.4375 32.03125 27.484375 32.03125 
Q 33.59375 32.03125 37.515625 36.296875 
Q 41.453125 40.578125 41.453125 48.140625 
z
" id="ArialMT-57"/>
    </defs>
    <g style="fill:#262626;" transform="translate(711.659289 185.454545)scale(0.12 -0.12)">
     <use xlink:href="#ArialMT-49"/>
     <use x="55.615234" xlink:href="#ArialMT-53"/>
     <use x="111.230469" xlink:href="#ArialMT-57"/>
     <use x="166.845703" xlink:href="#ArialMT-58"/>
     <use x="194.628906" xlink:href="#ArialMT-49"/>
    </g>
   </g>
  </g>
  <g id="axes_10">
   <g id="patch_139">
    <path d="M 827.689655 315 
L 972 315 
L 972 191.454545 
L 827.689655 191.454545 
z
" style="fill:#ffffff;"/>
   </g>
   <g id="patch_140">
    <path clip-path="url(#pf1397224b3)" d="M 894.473115 298.791413 
L 879.954971 298.791413 
" style="stroke:#000000;stroke-linejoin:miter;stroke-width:0.5;"/>
   </g>
   <g id="patch_141">
    <path clip-path="url(#pf1397224b3)" d="M 908.991258 289.786642 
L 894.473115 298.791413 
" style="stroke:#000000;stroke-linejoin:miter;stroke-width:0.5;"/>
   </g>
   <g id="patch_142">
    <path clip-path="url(#pf1397224b3)" d="M 894.473115 280.781871 
L 879.954971 280.781871 
" style="stroke:#000000;stroke-linejoin:miter;stroke-width:0.5;"/>
   </g>
   <g id="patch_143">
    <path clip-path="url(#pf1397224b3)" d="M 908.991258 289.786642 
L 894.473115 280.781871 
" style="stroke:#000000;stroke-linejoin:miter;stroke-width:0.5;"/>
   </g>
   <g id="patch_144">
    <path clip-path="url(#pf1397224b3)" d="M 923.509401 271.7771 
L 908.991258 289.786642 
" style="stroke:#000000;stroke-linejoin:miter;stroke-width:0.5;"/>
   </g>
   <g id="patch_145">
    <path clip-path="url(#pf1397224b3)" d="M 894.473115 262.77233 
L 879.954971 262.77233 
" style="stroke:#000000;stroke-linejoin:miter;stroke-width:0.5;"/>
   </g>
   <g id="patch_146">
    <path clip-path="url(#pf1397224b3)" d="M 908.991258 253.767559 
L 894.473115 262.77233 
" style="stroke:#000000;stroke-linejoin:miter;stroke-width:0.5;"/>
   </g>
   <g id="patch_147">
    <path clip-path="url(#pf1397224b3)" d="M 894.473115 244.762788 
L 879.954971 244.762788 
" style="stroke:#000000;stroke-linejoin:miter;stroke-width:0.5;"/>
   </g>
   <g id="patch_148">
    <path clip-path="url(#pf1397224b3)" d="M 908.991258 253.767559 
L 894.473115 244.762788 
" style="stroke:#000000;stroke-linejoin:miter;stroke-width:0.5;"/>
   </g>
   <g id="patch_149">
    <path clip-path="url(#pf1397224b3)" d="M 923.509401 271.7771 
L 908.991258 253.767559 
" style="stroke:#000000;stroke-linejoin:miter;stroke-width:0.5;"/>
   </g>
   <g id="patch_150">
    <path clip-path="url(#pf1397224b3)" d="M 938.027545 271.7771 
L 923.509401 271.7771 
" style="stroke:#000000;stroke-linejoin:miter;stroke-width:0.5;"/>
   </g>
   <g id="patch_151">
    <path clip-path="url(#pf1397224b3)" d="M 952.545688 271.7771 
L 938.027545 271.7771 
" style="stroke:#000000;stroke-linejoin:miter;stroke-width:0.5;"/>
   </g>
   <g id="patch_152">
    <path clip-path="url(#pf1397224b3)" d="M 952.545688 271.7771 
L 952.545688 262.77233 
" style="stroke:#000000;stroke-linejoin:miter;stroke-width:0.5;"/>
   </g>
   <g id="40aba2e74b0d4f2b929d605bdf1a34bf-1-node">
    <path clip-path="url(#pf1397224b3)" d="M 955.013772 268.715478 
L 955.013772 274.838723 
L 950.077604 274.838723 
L 950.077604 268.715478 
L 955.013772 268.715478 
z
" style="fill:#0000ff;stroke:#ffffff;stroke-linejoin:miter;stroke-width:0.5;"/>
   </g>
   <g id="40aba2e74b0d4f2b929d605bdf1a34bf-4-node">
    <path clip-path="url(#pf1397224b3)" d="M 940.495629 268.715478 
L 940.495629 274.838723 
L 935.55946 274.838723 
L 935.55946 268.715478 
L 940.495629 268.715478 
z
" style="fill:#0000ff;stroke:#ffffff;stroke-linejoin:miter;stroke-width:0.5;"/>
   </g>
   <g id="40aba2e74b0d4f2b929d605bdf1a34bf-6-node">
    <path clip-path="url(#pf1397224b3)" d="M 923.509401 274.838723 
C 924.163945 274.838723 924.791768 274.516131 925.2546 273.941994 
C 925.717433 273.367858 925.977486 272.589052 925.977486 271.7771 
C 925.977486 270.965149 925.717433 270.186343 925.2546 269.612207 
C 924.791768 269.03807 924.163945 268.715478 923.509401 268.715478 
C 922.854858 268.715478 922.227034 269.03807 921.764202 269.612207 
C 921.30137 270.186343 921.041317 270.965149 921.041317 271.7771 
C 921.041317 272.589052 921.30137 273.367858 921.764202 273.941994 
C 922.227034 274.516131 922.854858 274.838723 923.509401 274.838723 
z
" style="fill:#00c832;stroke:#ffffff;stroke-linejoin:miter;stroke-width:0.5;"/>
   </g>
   <g id="40aba2e74b0d4f2b929d605bdf1a34bf-14-node">
    <path clip-path="url(#pf1397224b3)" d="M 908.991258 292.848264 
C 909.645802 292.848264 910.273625 292.525672 910.736457 291.951536 
C 911.199289 291.377399 911.459342 290.598594 911.459342 289.786642 
C 911.459342 288.97469 911.199289 288.195885 910.736457 287.621748 
C 910.273625 287.047612 909.645802 286.72502 908.991258 286.72502 
C 908.336714 286.72502 907.708891 287.047612 907.246059 287.621748 
C 906.783226 288.195885 906.523174 288.97469 906.523174 289.786642 
C 906.523174 290.598594 906.783226 291.377399 907.246059 291.951536 
C 907.708891 292.525672 908.336714 292.848264 908.991258 292.848264 
z
" style="fill:#00c832;stroke:#ffffff;stroke-linejoin:miter;stroke-width:0.5;"/>
   </g>
   <g id="40aba2e74b0d4f2b929d605bdf1a34bf-18-node">
    <path clip-path="url(#pf1397224b3)" d="M 896.941199 295.729791 
L 896.941199 301.853035 
L 892.00503 301.853035 
L 892.00503 295.729791 
L 896.941199 295.729791 
z
" style="fill:#0000ff;stroke:#ffffff;stroke-linejoin:miter;stroke-width:0.5;"/>
   </g>
   <g id="40aba2e74b0d4f2b929d605bdf1a34bf-20-node">
    <path clip-path="url(#pf1397224b3)" d="M 879.954971 301.853035 
C 880.609515 301.853035 881.237338 301.530443 881.70017 300.956306 
C 882.163003 300.38217 882.423056 299.603364 882.423056 298.791413 
C 882.423056 297.979461 882.163003 297.200655 881.70017 296.626519 
C 881.237338 296.052382 880.609515 295.729791 879.954971 295.729791 
C 879.300428 295.729791 878.672604 296.052382 878.209772 296.626519 
C 877.74694 297.200655 877.486887 297.979461 877.486887 298.791413 
C 877.486887 299.603364 877.74694 300.38217 878.209772 300.956306 
C 878.672604 301.530443 879.300428 301.853035 879.954971 301.853035 
z
" style="fill:#ffff00;stroke:#ffffff;stroke-linejoin:miter;stroke-width:0.5;"/>
   </g>
   <g id="40aba2e74b0d4f2b929d605bdf1a34bf-15-node">
    <path clip-path="url(#pf1397224b3)" d="M 896.941199 277.720249 
L 896.941199 283.843493 
L 892.00503 283.843493 
L 892.00503 277.720249 
L 896.941199 277.720249 
z
" style="fill:#0000ff;stroke:#ffffff;stroke-linejoin:miter;stroke-width:0.5;"/>
   </g>
   <g id="40aba2e74b0d4f2b929d605bdf1a34bf-17-node">
    <path clip-path="url(#pf1397224b3)" d="M 879.954971 283.843493 
C 880.609515 283.843493 881.237338 283.520901 881.70017 282.946765 
C 882.163003 282.372628 882.423056 281.593823 882.423056 280.781871 
C 882.423056 279.96992 882.163003 279.191114 881.70017 278.616977 
C 881.237338 278.042841 880.609515 277.720249 879.954971 277.720249 
C 879.300428 277.720249 878.672604 278.042841 878.209772 278.616977 
C 877.74694 279.191114 877.486887 279.96992 877.486887 280.781871 
C 877.486887 281.593823 877.74694 282.372628 878.209772 282.946765 
C 878.672604 283.520901 879.300428 283.843493 879.954971 283.843493 
z
" style="fill:#ffff00;stroke:#ffffff;stroke-linejoin:miter;stroke-width:0.5;"/>
   </g>
   <g id="40aba2e74b0d4f2b929d605bdf1a34bf-7-node">
    <path clip-path="url(#pf1397224b3)" d="M 908.991258 256.829181 
C 909.645802 256.829181 910.273625 256.506589 910.736457 255.932453 
C 911.199289 255.358316 911.459342 254.579511 911.459342 253.767559 
C 911.459342 252.955607 911.199289 252.176802 910.736457 251.602665 
C 910.273625 251.028529 909.645802 250.705937 908.991258 250.705937 
C 908.336714 250.705937 907.708891 251.028529 907.246059 251.602665 
C 906.783226 252.176802 906.523174 252.955607 906.523174 253.767559 
C 906.523174 254.579511 906.783226 255.358316 907.246059 255.932453 
C 907.708891 256.506589 908.336714 256.829181 908.991258 256.829181 
z
" style="fill:#00c832;stroke:#ffffff;stroke-linejoin:miter;stroke-width:0.5;"/>
   </g>
   <g id="40aba2e74b0d4f2b929d605bdf1a34bf-11-node">
    <path clip-path="url(#pf1397224b3)" d="M 896.941199 259.710708 
L 896.941199 265.833952 
L 892.00503 265.833952 
L 892.00503 259.710708 
L 896.941199 259.710708 
z
" style="fill:#0000ff;stroke:#ffffff;stroke-linejoin:miter;stroke-width:0.5;"/>
   </g>
   <g id="40aba2e74b0d4f2b929d605bdf1a34bf-13-node">
    <path clip-path="url(#pf1397224b3)" d="M 879.954971 265.833952 
C 880.609515 265.833952 881.237338 265.51136 881.70017 264.937223 
C 882.163003 264.363087 882.423056 263.584281 882.423056 262.77233 
C 882.423056 261.960378 882.163003 261.181573 881.70017 260.607436 
C 881.237338 260.033299 880.609515 259.710708 879.954971 259.710708 
C 879.300428 259.710708 878.672604 260.033299 878.209772 260.607436 
C 877.74694 261.181573 877.486887 261.960378 877.486887 262.77233 
C 877.486887 263.584281 877.74694 264.363087 878.209772 264.937223 
C 878.672604 265.51136 879.300428 265.833952 879.954971 265.833952 
z
" style="fill:#ffff00;stroke:#ffffff;stroke-linejoin:miter;stroke-width:0.5;"/>
   </g>
   <g id="40aba2e74b0d4f2b929d605bdf1a34bf-8-node">
    <path clip-path="url(#pf1397224b3)" d="M 896.941199 241.701166 
L 896.941199 247.82441 
L 892.00503 247.82441 
L 892.00503 241.701166 
L 896.941199 241.701166 
z
" style="fill:#0000ff;stroke:#ffffff;stroke-linejoin:miter;stroke-width:0.5;"/>
   </g>
   <g id="40aba2e74b0d4f2b929d605bdf1a34bf-10-node">
    <path clip-path="url(#pf1397224b3)" d="M 879.954971 247.82441 
C 880.609515 247.82441 881.237338 247.501818 881.70017 246.927682 
C 882.163003 246.353545 882.423056 245.57474 882.423056 244.762788 
C 882.423056 243.950837 882.163003 243.172031 881.70017 242.597895 
C 881.237338 242.023758 880.609515 241.701166 879.954971 241.701166 
C 879.300428 241.701166 878.672604 242.023758 878.209772 242.597895 
C 877.74694 243.172031 877.486887 243.950837 877.486887 244.762788 
C 877.486887 245.57474 877.74694 246.353545 878.209772 246.927682 
C 878.672604 247.501818 879.300428 247.82441 879.954971 247.82441 
z
" style="fill:#ffff00;stroke:#ffffff;stroke-linejoin:miter;stroke-width:0.5;"/>
   </g>
   <g id="40aba2e74b0d4f2b929d605bdf1a34bf-3-node">
    <path clip-path="url(#pf1397224b3)" d="M 952.545688 259.710708 
L 950.408264 264.303141 
L 954.683112 264.303141 
z
" style="fill:#ff0000;stroke:#ffffff;stroke-linejoin:miter;stroke-width:0.5;"/>
   </g>
   <g id="patch_153">
    <path d="M 827.689655 315 
L 827.689655 191.454545 
" style="fill:none;stroke:#ffffff;stroke-linecap:square;stroke-linejoin:miter;stroke-width:1.25;"/>
   </g>
   <g id="patch_154">
    <path d="M 972 315 
L 972 191.454545 
" style="fill:none;stroke:#ffffff;stroke-linecap:square;stroke-linejoin:miter;stroke-width:1.25;"/>
   </g>
   <g id="patch_155">
    <path d="M 827.689655 315 
L 972 315 
" style="fill:none;stroke:#ffffff;stroke-linecap:square;stroke-linejoin:miter;stroke-width:1.25;"/>
   </g>
   <g id="patch_156">
    <path d="M 827.689655 191.454545 
L 972 191.454545 
" style="fill:none;stroke:#ffffff;stroke-linecap:square;stroke-linejoin:miter;stroke-width:1.25;"/>
   </g>
   <g id="text_10">
    <!-- 207:1 -->
    <g style="fill:#262626;" transform="translate(884.831703 185.454545)scale(0.12 -0.12)">
     <use xlink:href="#ArialMT-50"/>
     <use x="55.615234" xlink:href="#ArialMT-48"/>
     <use x="111.230469" xlink:href="#ArialMT-55"/>
     <use x="166.845703" xlink:href="#ArialMT-58"/>
     <use x="194.628906" xlink:href="#ArialMT-49"/>
    </g>
   </g>
  </g>
 </g>
 <defs>
  <clipPath id="pdba4065320">
   <rect height="123.545455" width="144.310345" x="135" y="43.2"/>
  </clipPath>
  <clipPath id="pcbeb24a3cd">
   <rect height="123.545455" width="144.310345" x="308.172414" y="43.2"/>
  </clipPath>
  <clipPath id="p39d0496ee5">
   <rect height="123.545455" width="144.310345" x="481.344828" y="43.2"/>
  </clipPath>
  <clipPath id="p852f2049cb">
   <rect height="123.545455" width="144.310345" x="654.517241" y="43.2"/>
  </clipPath>
  <clipPath id="pba134b1364">
   <rect height="123.545455" width="144.310345" x="827.689655" y="43.2"/>
  </clipPath>
  <clipPath id="pf17a0131df">
   <rect height="123.545455" width="144.310345" x="135" y="191.454545"/>
  </clipPath>
  <clipPath id="pe4e51d6df2">
   <rect height="123.545455" width="144.310345" x="308.172414" y="191.454545"/>
  </clipPath>
  <clipPath id="p2e7cd15400">
   <rect height="123.545455" width="144.310345" x="481.344828" y="191.454545"/>
  </clipPath>
  <clipPath id="p6c4dbe141e">
   <rect height="123.545455" width="144.310345" x="654.517241" y="191.454545"/>
  </clipPath>
  <clipPath id="pf1397224b3">
   <rect height="123.545455" width="144.310345" x="827.689655" y="191.454545"/>
  </clipPath>
 </defs>
</svg>
