<?xml version="1.0" encoding="utf-8" standalone="no"?>
<!DOCTYPE svg PUBLIC "-//W3C//DTD SVG 1.1//EN"
  "http://www.w3.org/Graphics/SVG/1.1/DTD/svg11.dtd">
<!-- Created with matplotlib (https://matplotlib.org/) -->
<svg height="720pt" version="1.1" viewBox="0 0 1080 720" width="1080pt" xmlns="http://www.w3.org/2000/svg" xmlns:xlink="http://www.w3.org/1999/xlink">
 <defs>
  <style type="text/css">
*{stroke-linecap:butt;stroke-linejoin:round;white-space:pre;}
  </style>
 </defs>
 <g id="figure_1">
  <g id="patch_1">
   <path d="M 0 720 
L 1080 720 
L 1080 0 
L 0 0 
z
" style="fill:#ffffff;"/>
  </g>
  <g id="axes_1">
   <g id="patch_2">
    <path d="M 135 640.8 
L 972 640.8 
L 972 86.4 
L 135 86.4 
z
" style="fill:#eaeaf2;"/>
   </g>
   <g id="matplotlib.axis_1">
    <g id="xtick_1">
     <g id="line2d_1">
      <path clip-path="url(#pddc448b7a5)" d="M 972 640.8 
L 972 86.4 
" style="fill:none;stroke:#ffffff;stroke-linecap:round;"/>
     </g>
     <g id="text_1">
      <!-- 0.0 -->
      <defs>
       <path d="M 4.15625 35.296875 
Q 4.15625 48 6.765625 55.734375 
Q 9.375 63.484375 14.515625 67.671875 
Q 19.671875 71.875 27.484375 71.875 
Q 33.25 71.875 37.59375 69.546875 
Q 41.9375 67.234375 44.765625 62.859375 
Q 47.609375 58.5 49.21875 52.21875 
Q 50.828125 45.953125 50.828125 35.296875 
Q 50.828125 22.703125 48.234375 14.96875 
Q 45.65625 7.234375 40.5 3 
Q 35.359375 -1.21875 27.484375 -1.21875 
Q 17.140625 -1.21875 11.234375 6.203125 
Q 4.15625 15.140625 4.15625 35.296875 
z
M 13.1875 35.296875 
Q 13.1875 17.671875 17.3125 11.828125 
Q 21.4375 6 27.484375 6 
Q 33.546875 6 37.671875 11.859375 
Q 41.796875 17.71875 41.796875 35.296875 
Q 41.796875 52.984375 37.671875 58.78125 
Q 33.546875 64.59375 27.390625 64.59375 
Q 21.34375 64.59375 17.71875 59.46875 
Q 13.1875 52.9375 13.1875 35.296875 
z
" id="ArialMT-48"/>
       <path d="M 9.078125 0 
L 9.078125 10.015625 
L 19.09375 10.015625 
L 19.09375 0 
z
" id="ArialMT-46"/>
      </defs>
      <g style="fill:#262626;" transform="translate(964.355 658.173594)scale(0.11 -0.11)">
       <use xlink:href="#ArialMT-48"/>
       <use x="55.615234" xlink:href="#ArialMT-46"/>
       <use x="83.398438" xlink:href="#ArialMT-48"/>
      </g>
     </g>
    </g>
    <g id="xtick_2">
     <g id="line2d_2">
      <path clip-path="url(#pddc448b7a5)" d="M 848.476039 640.8 
L 848.476039 86.4 
" style="fill:none;stroke:#ffffff;stroke-linecap:round;"/>
     </g>
     <g id="text_2">
      <!-- 0.1 -->
      <defs>
       <path d="M 37.25 0 
L 28.46875 0 
L 28.46875 56 
Q 25.296875 52.984375 20.140625 49.953125 
Q 14.984375 46.921875 10.890625 45.40625 
L 10.890625 53.90625 
Q 18.265625 57.375 23.78125 62.296875 
Q 29.296875 67.234375 31.59375 71.875 
L 37.25 71.875 
z
" id="ArialMT-49"/>
      </defs>
      <g style="fill:#262626;" transform="translate(840.831039 658.173594)scale(0.11 -0.11)">
       <use xlink:href="#ArialMT-48"/>
       <use x="55.615234" xlink:href="#ArialMT-46"/>
       <use x="83.398438" xlink:href="#ArialMT-49"/>
      </g>
     </g>
    </g>
    <g id="xtick_3">
     <g id="line2d_3">
      <path clip-path="url(#pddc448b7a5)" d="M 724.952079 640.8 
L 724.952079 86.4 
" style="fill:none;stroke:#ffffff;stroke-linecap:round;"/>
     </g>
     <g id="text_3">
      <!-- 0.2 -->
      <defs>
       <path d="M 50.34375 8.453125 
L 50.34375 0 
L 3.03125 0 
Q 2.9375 3.171875 4.046875 6.109375 
Q 5.859375 10.9375 9.828125 15.625 
Q 13.8125 20.3125 21.34375 26.46875 
Q 33.015625 36.03125 37.109375 41.625 
Q 41.21875 47.21875 41.21875 52.203125 
Q 41.21875 57.421875 37.46875 61 
Q 33.734375 64.59375 27.734375 64.59375 
Q 21.390625 64.59375 17.578125 60.78125 
Q 13.765625 56.984375 13.71875 50.25 
L 4.6875 51.171875 
Q 5.609375 61.28125 11.65625 66.578125 
Q 17.71875 71.875 27.9375 71.875 
Q 38.234375 71.875 44.234375 66.15625 
Q 50.25 60.453125 50.25 52 
Q 50.25 47.703125 48.484375 43.546875 
Q 46.734375 39.40625 42.65625 34.8125 
Q 38.578125 30.21875 29.109375 22.21875 
Q 21.1875 15.578125 18.9375 13.203125 
Q 16.703125 10.84375 15.234375 8.453125 
z
" id="ArialMT-50"/>
      </defs>
      <g style="fill:#262626;" transform="translate(717.307079 658.173594)scale(0.11 -0.11)">
       <use xlink:href="#ArialMT-48"/>
       <use x="55.615234" xlink:href="#ArialMT-46"/>
       <use x="83.398438" xlink:href="#ArialMT-50"/>
      </g>
     </g>
    </g>
    <g id="xtick_4">
     <g id="line2d_4">
      <path clip-path="url(#pddc448b7a5)" d="M 601.428118 640.8 
L 601.428118 86.4 
" style="fill:none;stroke:#ffffff;stroke-linecap:round;"/>
     </g>
     <g id="text_4">
      <!-- 0.3 -->
      <defs>
       <path d="M 4.203125 18.890625 
L 12.984375 20.0625 
Q 14.5 12.59375 18.140625 9.296875 
Q 21.78125 6 27 6 
Q 33.203125 6 37.46875 10.296875 
Q 41.75 14.59375 41.75 20.953125 
Q 41.75 27 37.796875 30.921875 
Q 33.84375 34.859375 27.734375 34.859375 
Q 25.25 34.859375 21.53125 33.890625 
L 22.515625 41.609375 
Q 23.390625 41.5 23.921875 41.5 
Q 29.546875 41.5 34.03125 44.421875 
Q 38.53125 47.359375 38.53125 53.46875 
Q 38.53125 58.296875 35.25 61.46875 
Q 31.984375 64.65625 26.8125 64.65625 
Q 21.6875 64.65625 18.265625 61.421875 
Q 14.84375 58.203125 13.875 51.765625 
L 5.078125 53.328125 
Q 6.6875 62.15625 12.390625 67.015625 
Q 18.109375 71.875 26.609375 71.875 
Q 32.46875 71.875 37.390625 69.359375 
Q 42.328125 66.84375 44.9375 62.5 
Q 47.5625 58.15625 47.5625 53.265625 
Q 47.5625 48.640625 45.0625 44.828125 
Q 42.578125 41.015625 37.703125 38.765625 
Q 44.046875 37.3125 47.5625 32.6875 
Q 51.078125 28.078125 51.078125 21.140625 
Q 51.078125 11.765625 44.234375 5.25 
Q 37.40625 -1.265625 26.953125 -1.265625 
Q 17.53125 -1.265625 11.296875 4.34375 
Q 5.078125 9.96875 4.203125 18.890625 
z
" id="ArialMT-51"/>
      </defs>
      <g style="fill:#262626;" transform="translate(593.783118 658.173594)scale(0.11 -0.11)">
       <use xlink:href="#ArialMT-48"/>
       <use x="55.615234" xlink:href="#ArialMT-46"/>
       <use x="83.398438" xlink:href="#ArialMT-51"/>
      </g>
     </g>
    </g>
    <g id="xtick_5">
     <g id="line2d_5">
      <path clip-path="url(#pddc448b7a5)" d="M 477.904158 640.8 
L 477.904158 86.4 
" style="fill:none;stroke:#ffffff;stroke-linecap:round;"/>
     </g>
     <g id="text_5">
      <!-- 0.4 -->
      <defs>
       <path d="M 32.328125 0 
L 32.328125 17.140625 
L 1.265625 17.140625 
L 1.265625 25.203125 
L 33.9375 71.578125 
L 41.109375 71.578125 
L 41.109375 25.203125 
L 50.78125 25.203125 
L 50.78125 17.140625 
L 41.109375 17.140625 
L 41.109375 0 
z
M 32.328125 25.203125 
L 32.328125 57.46875 
L 9.90625 25.203125 
z
" id="ArialMT-52"/>
      </defs>
      <g style="fill:#262626;" transform="translate(470.259158 658.173594)scale(0.11 -0.11)">
       <use xlink:href="#ArialMT-48"/>
       <use x="55.615234" xlink:href="#ArialMT-46"/>
       <use x="83.398438" xlink:href="#ArialMT-52"/>
      </g>
     </g>
    </g>
    <g id="xtick_6">
     <g id="line2d_6">
      <path clip-path="url(#pddc448b7a5)" d="M 354.380197 640.8 
L 354.380197 86.4 
" style="fill:none;stroke:#ffffff;stroke-linecap:round;"/>
     </g>
     <g id="text_6">
      <!-- 0.5 -->
      <defs>
       <path d="M 4.15625 18.75 
L 13.375 19.53125 
Q 14.40625 12.796875 18.140625 9.390625 
Q 21.875 6 27.15625 6 
Q 33.5 6 37.890625 10.78125 
Q 42.28125 15.578125 42.28125 23.484375 
Q 42.28125 31 38.0625 35.34375 
Q 33.84375 39.703125 27 39.703125 
Q 22.75 39.703125 19.328125 37.765625 
Q 15.921875 35.84375 13.96875 32.765625 
L 5.71875 33.84375 
L 12.640625 70.609375 
L 48.25 70.609375 
L 48.25 62.203125 
L 19.671875 62.203125 
L 15.828125 42.96875 
Q 22.265625 47.46875 29.34375 47.46875 
Q 38.71875 47.46875 45.15625 40.96875 
Q 51.609375 34.46875 51.609375 24.265625 
Q 51.609375 14.546875 45.953125 7.46875 
Q 39.0625 -1.21875 27.15625 -1.21875 
Q 17.390625 -1.21875 11.203125 4.25 
Q 5.03125 9.71875 4.15625 18.75 
z
" id="ArialMT-53"/>
      </defs>
      <g style="fill:#262626;" transform="translate(346.735197 658.173594)scale(0.11 -0.11)">
       <use xlink:href="#ArialMT-48"/>
       <use x="55.615234" xlink:href="#ArialMT-46"/>
       <use x="83.398438" xlink:href="#ArialMT-53"/>
      </g>
     </g>
    </g>
    <g id="xtick_7">
     <g id="line2d_7">
      <path clip-path="url(#pddc448b7a5)" d="M 230.856237 640.8 
L 230.856237 86.4 
" style="fill:none;stroke:#ffffff;stroke-linecap:round;"/>
     </g>
     <g id="text_7">
      <!-- 0.6 -->
      <defs>
       <path d="M 49.75 54.046875 
L 41.015625 53.375 
Q 39.84375 58.546875 37.703125 60.890625 
Q 34.125 64.65625 28.90625 64.65625 
Q 24.703125 64.65625 21.53125 62.3125 
Q 17.390625 59.28125 14.984375 53.46875 
Q 12.59375 47.65625 12.5 36.921875 
Q 15.671875 41.75 20.265625 44.09375 
Q 24.859375 46.4375 29.890625 46.4375 
Q 38.671875 46.4375 44.84375 39.96875 
Q 51.03125 33.5 51.03125 23.25 
Q 51.03125 16.5 48.125 10.71875 
Q 45.21875 4.9375 40.140625 1.859375 
Q 35.0625 -1.21875 28.609375 -1.21875 
Q 17.625 -1.21875 10.6875 6.859375 
Q 3.765625 14.9375 3.765625 33.5 
Q 3.765625 54.25 11.421875 63.671875 
Q 18.109375 71.875 29.4375 71.875 
Q 37.890625 71.875 43.28125 67.140625 
Q 48.6875 62.40625 49.75 54.046875 
z
M 13.875 23.1875 
Q 13.875 18.65625 15.796875 14.5 
Q 17.71875 10.359375 21.1875 8.171875 
Q 24.65625 6 28.46875 6 
Q 34.03125 6 38.03125 10.484375 
Q 42.046875 14.984375 42.046875 22.703125 
Q 42.046875 30.125 38.078125 34.390625 
Q 34.125 38.671875 28.125 38.671875 
Q 22.171875 38.671875 18.015625 34.390625 
Q 13.875 30.125 13.875 23.1875 
z
" id="ArialMT-54"/>
      </defs>
      <g style="fill:#262626;" transform="translate(223.211237 658.173594)scale(0.11 -0.11)">
       <use xlink:href="#ArialMT-48"/>
       <use x="55.615234" xlink:href="#ArialMT-46"/>
       <use x="83.398438" xlink:href="#ArialMT-54"/>
      </g>
     </g>
    </g>
    <g id="text_8">
     <!-- Distance -->
     <defs>
      <path d="M 7.71875 0 
L 7.71875 71.578125 
L 32.375 71.578125 
Q 40.71875 71.578125 45.125 70.5625 
Q 51.265625 69.140625 55.609375 65.4375 
Q 61.28125 60.640625 64.078125 53.1875 
Q 66.890625 45.75 66.890625 36.1875 
Q 66.890625 28.03125 64.984375 21.734375 
Q 63.09375 15.4375 60.109375 11.296875 
Q 57.125 7.171875 53.578125 4.796875 
Q 50.046875 2.4375 45.046875 1.21875 
Q 40.046875 0 33.546875 0 
z
M 17.1875 8.453125 
L 32.46875 8.453125 
Q 39.546875 8.453125 43.578125 9.765625 
Q 47.609375 11.078125 50 13.484375 
Q 53.375 16.84375 55.25 22.53125 
Q 57.125 28.21875 57.125 36.328125 
Q 57.125 47.5625 53.4375 53.59375 
Q 49.75 59.625 44.484375 61.671875 
Q 40.671875 63.140625 32.234375 63.140625 
L 17.1875 63.140625 
z
" id="ArialMT-68"/>
      <path d="M 6.640625 61.46875 
L 6.640625 71.578125 
L 15.4375 71.578125 
L 15.4375 61.46875 
z
M 6.640625 0 
L 6.640625 51.859375 
L 15.4375 51.859375 
L 15.4375 0 
z
" id="ArialMT-105"/>
      <path d="M 3.078125 15.484375 
L 11.765625 16.84375 
Q 12.5 11.625 15.84375 8.84375 
Q 19.1875 6.0625 25.203125 6.0625 
Q 31.25 6.0625 34.171875 8.515625 
Q 37.109375 10.984375 37.109375 14.3125 
Q 37.109375 17.28125 34.515625 19 
Q 32.71875 20.171875 25.53125 21.96875 
Q 15.875 24.421875 12.140625 26.203125 
Q 8.40625 27.984375 6.46875 31.125 
Q 4.546875 34.28125 4.546875 38.09375 
Q 4.546875 41.546875 6.125 44.5 
Q 7.71875 47.46875 10.453125 49.421875 
Q 12.5 50.921875 16.03125 51.96875 
Q 19.578125 53.03125 23.640625 53.03125 
Q 29.734375 53.03125 34.34375 51.265625 
Q 38.96875 49.515625 41.15625 46.5 
Q 43.359375 43.5 44.1875 38.484375 
L 35.59375 37.3125 
Q 35.015625 41.3125 32.203125 43.546875 
Q 29.390625 45.796875 24.265625 45.796875 
Q 18.21875 45.796875 15.625 43.796875 
Q 13.03125 41.796875 13.03125 39.109375 
Q 13.03125 37.40625 14.109375 36.03125 
Q 15.1875 34.625 17.484375 33.6875 
Q 18.796875 33.203125 25.25 31.453125 
Q 34.578125 28.953125 38.25 27.359375 
Q 41.9375 25.78125 44.03125 22.75 
Q 46.140625 19.734375 46.140625 15.234375 
Q 46.140625 10.84375 43.578125 6.953125 
Q 41.015625 3.078125 36.171875 0.953125 
Q 31.34375 -1.171875 25.25 -1.171875 
Q 15.140625 -1.171875 9.84375 3.03125 
Q 4.546875 7.234375 3.078125 15.484375 
z
" id="ArialMT-115"/>
      <path d="M 25.78125 7.859375 
L 27.046875 0.09375 
Q 23.34375 -0.6875 20.40625 -0.6875 
Q 15.625 -0.6875 12.984375 0.828125 
Q 10.359375 2.34375 9.28125 4.8125 
Q 8.203125 7.28125 8.203125 15.1875 
L 8.203125 45.015625 
L 1.765625 45.015625 
L 1.765625 51.859375 
L 8.203125 51.859375 
L 8.203125 64.703125 
L 16.9375 69.96875 
L 16.9375 51.859375 
L 25.78125 51.859375 
L 25.78125 45.015625 
L 16.9375 45.015625 
L 16.9375 14.703125 
Q 16.9375 10.9375 17.40625 9.859375 
Q 17.875 8.796875 18.921875 8.15625 
Q 19.96875 7.515625 21.921875 7.515625 
Q 23.390625 7.515625 25.78125 7.859375 
z
" id="ArialMT-116"/>
      <path d="M 40.4375 6.390625 
Q 35.546875 2.25 31.03125 0.53125 
Q 26.515625 -1.171875 21.34375 -1.171875 
Q 12.796875 -1.171875 8.203125 3 
Q 3.609375 7.171875 3.609375 13.671875 
Q 3.609375 17.484375 5.34375 20.625 
Q 7.078125 23.78125 9.890625 25.6875 
Q 12.703125 27.59375 16.21875 28.5625 
Q 18.796875 29.25 24.03125 29.890625 
Q 34.671875 31.15625 39.703125 32.90625 
Q 39.75 34.71875 39.75 35.203125 
Q 39.75 40.578125 37.25 42.78125 
Q 33.890625 45.75 27.25 45.75 
Q 21.046875 45.75 18.09375 43.578125 
Q 15.140625 41.40625 13.71875 35.890625 
L 5.125 37.0625 
Q 6.296875 42.578125 8.984375 45.96875 
Q 11.671875 49.359375 16.75 51.1875 
Q 21.828125 53.03125 28.515625 53.03125 
Q 35.15625 53.03125 39.296875 51.46875 
Q 43.453125 49.90625 45.40625 47.53125 
Q 47.359375 45.171875 48.140625 41.546875 
Q 48.578125 39.3125 48.578125 33.453125 
L 48.578125 21.734375 
Q 48.578125 9.46875 49.140625 6.21875 
Q 49.703125 2.984375 51.375 0 
L 42.1875 0 
Q 40.828125 2.734375 40.4375 6.390625 
z
M 39.703125 26.03125 
Q 34.90625 24.078125 25.34375 22.703125 
Q 19.921875 21.921875 17.671875 20.9375 
Q 15.4375 19.96875 14.203125 18.09375 
Q 12.984375 16.21875 12.984375 13.921875 
Q 12.984375 10.40625 15.640625 8.0625 
Q 18.3125 5.71875 23.4375 5.71875 
Q 28.515625 5.71875 32.46875 7.9375 
Q 36.421875 10.15625 38.28125 14.015625 
Q 39.703125 17 39.703125 22.796875 
z
" id="ArialMT-97"/>
      <path d="M 6.59375 0 
L 6.59375 51.859375 
L 14.5 51.859375 
L 14.5 44.484375 
Q 20.21875 53.03125 31 53.03125 
Q 35.6875 53.03125 39.625 51.34375 
Q 43.5625 49.65625 45.515625 46.921875 
Q 47.46875 44.1875 48.25 40.4375 
Q 48.734375 37.984375 48.734375 31.890625 
L 48.734375 0 
L 39.9375 0 
L 39.9375 31.546875 
Q 39.9375 36.921875 38.90625 39.578125 
Q 37.890625 42.234375 35.28125 43.8125 
Q 32.671875 45.40625 29.15625 45.40625 
Q 23.53125 45.40625 19.453125 41.84375 
Q 15.375 38.28125 15.375 28.328125 
L 15.375 0 
z
" id="ArialMT-110"/>
      <path d="M 40.4375 19 
L 49.078125 17.875 
Q 47.65625 8.9375 41.8125 3.875 
Q 35.984375 -1.171875 27.484375 -1.171875 
Q 16.84375 -1.171875 10.375 5.78125 
Q 3.90625 12.75 3.90625 25.734375 
Q 3.90625 34.125 6.6875 40.421875 
Q 9.46875 46.734375 15.15625 49.875 
Q 20.84375 53.03125 27.546875 53.03125 
Q 35.984375 53.03125 41.359375 48.75 
Q 46.734375 44.484375 48.25 36.625 
L 39.703125 35.296875 
Q 38.484375 40.53125 35.375 43.15625 
Q 32.28125 45.796875 27.875 45.796875 
Q 21.234375 45.796875 17.078125 41.03125 
Q 12.9375 36.28125 12.9375 25.984375 
Q 12.9375 15.53125 16.9375 10.796875 
Q 20.953125 6.0625 27.390625 6.0625 
Q 32.5625 6.0625 36.03125 9.234375 
Q 39.5 12.40625 40.4375 19 
z
" id="ArialMT-99"/>
      <path d="M 42.09375 16.703125 
L 51.171875 15.578125 
Q 49.03125 7.625 43.21875 3.21875 
Q 37.40625 -1.171875 28.375 -1.171875 
Q 17 -1.171875 10.328125 5.828125 
Q 3.65625 12.84375 3.65625 25.484375 
Q 3.65625 38.578125 10.390625 45.796875 
Q 17.140625 53.03125 27.875 53.03125 
Q 38.28125 53.03125 44.875 45.953125 
Q 51.46875 38.875 51.46875 26.03125 
Q 51.46875 25.25 51.421875 23.6875 
L 12.75 23.6875 
Q 13.234375 15.140625 17.578125 10.59375 
Q 21.921875 6.0625 28.421875 6.0625 
Q 33.25 6.0625 36.671875 8.59375 
Q 40.09375 11.140625 42.09375 16.703125 
z
M 13.234375 30.90625 
L 42.1875 30.90625 
Q 41.609375 37.453125 38.875 40.71875 
Q 34.671875 45.796875 27.984375 45.796875 
Q 21.921875 45.796875 17.796875 41.75 
Q 13.671875 37.703125 13.234375 30.90625 
z
" id="ArialMT-101"/>
     </defs>
     <g style="fill:#262626;" transform="translate(504.869141 682.254375)scale(0.25 -0.25)">
      <use xlink:href="#ArialMT-68"/>
      <use x="72.216797" xlink:href="#ArialMT-105"/>
      <use x="94.433594" xlink:href="#ArialMT-115"/>
      <use x="144.433594" xlink:href="#ArialMT-116"/>
      <use x="172.216797" xlink:href="#ArialMT-97"/>
      <use x="227.832031" xlink:href="#ArialMT-110"/>
      <use x="283.447266" xlink:href="#ArialMT-99"/>
      <use x="333.447266" xlink:href="#ArialMT-101"/>
     </g>
    </g>
   </g>
   <g id="matplotlib.axis_2">
    <g id="ytick_1">
     <g id="line2d_8">
      <path clip-path="url(#pddc448b7a5)" d="M 135 634.902128 
L 972 634.902128 
" style="fill:none;stroke:#ffffff;stroke-linecap:round;"/>
     </g>
     <g id="text_9">
      <!-- L4,3, L4,3 -->
      <defs>
       <path d="M 7.328125 0 
L 7.328125 71.578125 
L 16.796875 71.578125 
L 16.796875 8.453125 
L 52.046875 8.453125 
L 52.046875 0 
z
" id="ArialMT-76"/>
       <path d="M 8.890625 0 
L 8.890625 10.015625 
L 18.890625 10.015625 
L 18.890625 0 
Q 18.890625 -5.515625 16.9375 -8.90625 
Q 14.984375 -12.3125 10.75 -14.15625 
L 8.296875 -10.40625 
Q 11.078125 -9.1875 12.390625 -6.8125 
Q 13.71875 -4.4375 13.875 0 
z
" id="ArialMT-44"/>
       <path id="ArialMT-32"/>
      </defs>
      <g style="fill:#262626;" transform="translate(981.5 643.849393)scale(0.25 -0.25)">
       <use xlink:href="#ArialMT-76"/>
       <use x="55.615234" xlink:href="#ArialMT-52"/>
       <use x="111.230469" xlink:href="#ArialMT-44"/>
       <use x="139.013672" xlink:href="#ArialMT-51"/>
       <use x="194.628906" xlink:href="#ArialMT-44"/>
       <use x="222.412109" xlink:href="#ArialMT-32"/>
       <use x="250.195312" xlink:href="#ArialMT-76"/>
       <use x="305.810547" xlink:href="#ArialMT-52"/>
       <use x="361.425781" xlink:href="#ArialMT-44"/>
       <use x="389.208984" xlink:href="#ArialMT-51"/>
      </g>
     </g>
    </g>
    <g id="ytick_2">
     <g id="line2d_9">
      <path clip-path="url(#pddc448b7a5)" d="M 135 623.106383 
L 972 623.106383 
" style="fill:none;stroke:#ffffff;stroke-linecap:round;"/>
     </g>
     <g id="text_10">
      <!-- L4,14, L4,14 -->
      <g style="fill:#262626;" transform="translate(981.5 632.053649)scale(0.25 -0.25)">
       <use xlink:href="#ArialMT-76"/>
       <use x="55.615234" xlink:href="#ArialMT-52"/>
       <use x="111.230469" xlink:href="#ArialMT-44"/>
       <use x="139.013672" xlink:href="#ArialMT-49"/>
       <use x="194.628906" xlink:href="#ArialMT-52"/>
       <use x="250.244141" xlink:href="#ArialMT-44"/>
       <use x="278.027344" xlink:href="#ArialMT-32"/>
       <use x="305.810547" xlink:href="#ArialMT-76"/>
       <use x="361.425781" xlink:href="#ArialMT-52"/>
       <use x="417.041016" xlink:href="#ArialMT-44"/>
       <use x="444.824219" xlink:href="#ArialMT-49"/>
       <use x="500.439453" xlink:href="#ArialMT-52"/>
      </g>
     </g>
    </g>
    <g id="ytick_3">
     <g id="line2d_10">
      <path clip-path="url(#pddc448b7a5)" d="M 135 611.310638 
L 972 611.310638 
" style="fill:none;stroke:#ffffff;stroke-linecap:round;"/>
     </g>
     <g id="text_11">
      <!-- L4,4, L4,4 -->
      <g style="fill:#262626;" transform="translate(981.5 620.257904)scale(0.25 -0.25)">
       <use xlink:href="#ArialMT-76"/>
       <use x="55.615234" xlink:href="#ArialMT-52"/>
       <use x="111.230469" xlink:href="#ArialMT-44"/>
       <use x="139.013672" xlink:href="#ArialMT-52"/>
       <use x="194.628906" xlink:href="#ArialMT-44"/>
       <use x="222.412109" xlink:href="#ArialMT-32"/>
       <use x="250.195312" xlink:href="#ArialMT-76"/>
       <use x="305.810547" xlink:href="#ArialMT-52"/>
       <use x="361.425781" xlink:href="#ArialMT-44"/>
       <use x="389.208984" xlink:href="#ArialMT-52"/>
      </g>
     </g>
    </g>
    <g id="ytick_4">
     <g id="line2d_11">
      <path clip-path="url(#pddc448b7a5)" d="M 135 599.514894 
L 972 599.514894 
" style="fill:none;stroke:#ffffff;stroke-linecap:round;"/>
     </g>
     <g id="text_12">
      <!-- L4,7, L4,7 -->
      <defs>
       <path d="M 4.734375 62.203125 
L 4.734375 70.65625 
L 51.078125 70.65625 
L 51.078125 63.8125 
Q 44.234375 56.546875 37.515625 44.484375 
Q 30.8125 32.421875 27.15625 19.671875 
Q 24.515625 10.6875 23.78125 0 
L 14.75 0 
Q 14.890625 8.453125 18.0625 20.40625 
Q 21.234375 32.375 27.171875 43.484375 
Q 33.109375 54.59375 39.796875 62.203125 
z
" id="ArialMT-55"/>
      </defs>
      <g style="fill:#262626;" transform="translate(981.5 608.462159)scale(0.25 -0.25)">
       <use xlink:href="#ArialMT-76"/>
       <use x="55.615234" xlink:href="#ArialMT-52"/>
       <use x="111.230469" xlink:href="#ArialMT-44"/>
       <use x="139.013672" xlink:href="#ArialMT-55"/>
       <use x="194.628906" xlink:href="#ArialMT-44"/>
       <use x="222.412109" xlink:href="#ArialMT-32"/>
       <use x="250.195312" xlink:href="#ArialMT-76"/>
       <use x="305.810547" xlink:href="#ArialMT-52"/>
       <use x="361.425781" xlink:href="#ArialMT-44"/>
       <use x="389.208984" xlink:href="#ArialMT-55"/>
      </g>
     </g>
    </g>
    <g id="ytick_5">
     <g id="line2d_12">
      <path clip-path="url(#pddc448b7a5)" d="M 135 587.719149 
L 972 587.719149 
" style="fill:none;stroke:#ffffff;stroke-linecap:round;"/>
     </g>
     <g id="text_13">
      <!-- L6,2, L6,2 -->
      <g style="fill:#262626;" transform="translate(981.5 596.666415)scale(0.25 -0.25)">
       <use xlink:href="#ArialMT-76"/>
       <use x="55.615234" xlink:href="#ArialMT-54"/>
       <use x="111.230469" xlink:href="#ArialMT-44"/>
       <use x="139.013672" xlink:href="#ArialMT-50"/>
       <use x="194.628906" xlink:href="#ArialMT-44"/>
       <use x="222.412109" xlink:href="#ArialMT-32"/>
       <use x="250.195312" xlink:href="#ArialMT-76"/>
       <use x="305.810547" xlink:href="#ArialMT-54"/>
       <use x="361.425781" xlink:href="#ArialMT-44"/>
       <use x="389.208984" xlink:href="#ArialMT-50"/>
      </g>
     </g>
    </g>
    <g id="ytick_6">
     <g id="line2d_13">
      <path clip-path="url(#pddc448b7a5)" d="M 135 575.923404 
L 972 575.923404 
" style="fill:none;stroke:#ffffff;stroke-linecap:round;"/>
     </g>
     <g id="text_14">
      <!-- L6,3, L6,3 -->
      <g style="fill:#262626;" transform="translate(981.5 584.87067)scale(0.25 -0.25)">
       <use xlink:href="#ArialMT-76"/>
       <use x="55.615234" xlink:href="#ArialMT-54"/>
       <use x="111.230469" xlink:href="#ArialMT-44"/>
       <use x="139.013672" xlink:href="#ArialMT-51"/>
       <use x="194.628906" xlink:href="#ArialMT-44"/>
       <use x="222.412109" xlink:href="#ArialMT-32"/>
       <use x="250.195312" xlink:href="#ArialMT-76"/>
       <use x="305.810547" xlink:href="#ArialMT-54"/>
       <use x="361.425781" xlink:href="#ArialMT-44"/>
       <use x="389.208984" xlink:href="#ArialMT-51"/>
      </g>
     </g>
    </g>
    <g id="ytick_7">
     <g id="line2d_14">
      <path clip-path="url(#pddc448b7a5)" d="M 135 564.12766 
L 972 564.12766 
" style="fill:none;stroke:#ffffff;stroke-linecap:round;"/>
     </g>
     <g id="text_15">
      <!-- L6,4, L6,4 -->
      <g style="fill:#262626;" transform="translate(981.5 573.074925)scale(0.25 -0.25)">
       <use xlink:href="#ArialMT-76"/>
       <use x="55.615234" xlink:href="#ArialMT-54"/>
       <use x="111.230469" xlink:href="#ArialMT-44"/>
       <use x="139.013672" xlink:href="#ArialMT-52"/>
       <use x="194.628906" xlink:href="#ArialMT-44"/>
       <use x="222.412109" xlink:href="#ArialMT-32"/>
       <use x="250.195312" xlink:href="#ArialMT-76"/>
       <use x="305.810547" xlink:href="#ArialMT-54"/>
       <use x="361.425781" xlink:href="#ArialMT-44"/>
       <use x="389.208984" xlink:href="#ArialMT-52"/>
      </g>
     </g>
    </g>
    <g id="ytick_8">
     <g id="line2d_15">
      <path clip-path="url(#pddc448b7a5)" d="M 135 552.331915 
L 972 552.331915 
" style="fill:none;stroke:#ffffff;stroke-linecap:round;"/>
     </g>
     <g id="text_16">
      <!-- L6,7, L6,7 -->
      <g style="fill:#262626;" transform="translate(981.5 561.279181)scale(0.25 -0.25)">
       <use xlink:href="#ArialMT-76"/>
       <use x="55.615234" xlink:href="#ArialMT-54"/>
       <use x="111.230469" xlink:href="#ArialMT-44"/>
       <use x="139.013672" xlink:href="#ArialMT-55"/>
       <use x="194.628906" xlink:href="#ArialMT-44"/>
       <use x="222.412109" xlink:href="#ArialMT-32"/>
       <use x="250.195312" xlink:href="#ArialMT-76"/>
       <use x="305.810547" xlink:href="#ArialMT-54"/>
       <use x="361.425781" xlink:href="#ArialMT-44"/>
       <use x="389.208984" xlink:href="#ArialMT-55"/>
      </g>
     </g>
    </g>
    <g id="ytick_9">
     <g id="line2d_16">
      <path clip-path="url(#pddc448b7a5)" d="M 135 540.53617 
L 972 540.53617 
" style="fill:none;stroke:#ffffff;stroke-linecap:round;"/>
     </g>
     <g id="text_17">
      <!-- L6,42, L6,42 -->
      <g style="fill:#262626;" transform="translate(981.5 549.483436)scale(0.25 -0.25)">
       <use xlink:href="#ArialMT-76"/>
       <use x="55.615234" xlink:href="#ArialMT-54"/>
       <use x="111.230469" xlink:href="#ArialMT-44"/>
       <use x="139.013672" xlink:href="#ArialMT-52"/>
       <use x="194.628906" xlink:href="#ArialMT-50"/>
       <use x="250.244141" xlink:href="#ArialMT-44"/>
       <use x="278.027344" xlink:href="#ArialMT-32"/>
       <use x="305.810547" xlink:href="#ArialMT-76"/>
       <use x="361.425781" xlink:href="#ArialMT-54"/>
       <use x="417.041016" xlink:href="#ArialMT-44"/>
       <use x="444.824219" xlink:href="#ArialMT-52"/>
       <use x="500.439453" xlink:href="#ArialMT-50"/>
      </g>
     </g>
    </g>
    <g id="ytick_10">
     <g id="line2d_17">
      <path clip-path="url(#pddc448b7a5)" d="M 135 528.740426 
L 972 528.740426 
" style="fill:none;stroke:#ffffff;stroke-linecap:round;"/>
     </g>
     <g id="text_18">
      <!-- L6,14, L6,14 -->
      <g style="fill:#262626;" transform="translate(981.5 537.687691)scale(0.25 -0.25)">
       <use xlink:href="#ArialMT-76"/>
       <use x="55.615234" xlink:href="#ArialMT-54"/>
       <use x="111.230469" xlink:href="#ArialMT-44"/>
       <use x="139.013672" xlink:href="#ArialMT-49"/>
       <use x="194.628906" xlink:href="#ArialMT-52"/>
       <use x="250.244141" xlink:href="#ArialMT-44"/>
       <use x="278.027344" xlink:href="#ArialMT-32"/>
       <use x="305.810547" xlink:href="#ArialMT-76"/>
       <use x="361.425781" xlink:href="#ArialMT-54"/>
       <use x="417.041016" xlink:href="#ArialMT-44"/>
       <use x="444.824219" xlink:href="#ArialMT-49"/>
       <use x="500.439453" xlink:href="#ArialMT-52"/>
      </g>
     </g>
    </g>
    <g id="ytick_11">
     <g id="line2d_18">
      <path clip-path="url(#pddc448b7a5)" d="M 135 516.944681 
L 972 516.944681 
" style="fill:none;stroke:#ffffff;stroke-linecap:round;"/>
     </g>
     <g id="text_19">
      <!-- L6,28, L6,28 -->
      <defs>
       <path d="M 17.671875 38.8125 
Q 12.203125 40.828125 9.5625 44.53125 
Q 6.9375 48.25 6.9375 53.421875 
Q 6.9375 61.234375 12.546875 66.546875 
Q 18.171875 71.875 27.484375 71.875 
Q 36.859375 71.875 42.578125 66.421875 
Q 48.296875 60.984375 48.296875 53.171875 
Q 48.296875 48.1875 45.671875 44.5 
Q 43.0625 40.828125 37.75 38.8125 
Q 44.34375 36.671875 47.78125 31.875 
Q 51.21875 27.09375 51.21875 20.453125 
Q 51.21875 11.28125 44.71875 5.03125 
Q 38.234375 -1.21875 27.640625 -1.21875 
Q 17.046875 -1.21875 10.546875 5.046875 
Q 4.046875 11.328125 4.046875 20.703125 
Q 4.046875 27.6875 7.59375 32.390625 
Q 11.140625 37.109375 17.671875 38.8125 
z
M 15.921875 53.71875 
Q 15.921875 48.640625 19.1875 45.40625 
Q 22.46875 42.1875 27.6875 42.1875 
Q 32.765625 42.1875 36.015625 45.375 
Q 39.265625 48.578125 39.265625 53.21875 
Q 39.265625 58.0625 35.90625 61.359375 
Q 32.5625 64.65625 27.59375 64.65625 
Q 22.5625 64.65625 19.234375 61.421875 
Q 15.921875 58.203125 15.921875 53.71875 
z
M 13.09375 20.65625 
Q 13.09375 16.890625 14.875 13.375 
Q 16.65625 9.859375 20.171875 7.921875 
Q 23.6875 6 27.734375 6 
Q 34.03125 6 38.125 10.046875 
Q 42.234375 14.109375 42.234375 20.359375 
Q 42.234375 26.703125 38.015625 30.859375 
Q 33.796875 35.015625 27.4375 35.015625 
Q 21.234375 35.015625 17.15625 30.90625 
Q 13.09375 26.8125 13.09375 20.65625 
z
" id="ArialMT-56"/>
      </defs>
      <g style="fill:#262626;" transform="translate(981.5 525.891946)scale(0.25 -0.25)">
       <use xlink:href="#ArialMT-76"/>
       <use x="55.615234" xlink:href="#ArialMT-54"/>
       <use x="111.230469" xlink:href="#ArialMT-44"/>
       <use x="139.013672" xlink:href="#ArialMT-50"/>
       <use x="194.628906" xlink:href="#ArialMT-56"/>
       <use x="250.244141" xlink:href="#ArialMT-44"/>
       <use x="278.027344" xlink:href="#ArialMT-32"/>
       <use x="305.810547" xlink:href="#ArialMT-76"/>
       <use x="361.425781" xlink:href="#ArialMT-54"/>
       <use x="417.041016" xlink:href="#ArialMT-44"/>
       <use x="444.824219" xlink:href="#ArialMT-50"/>
       <use x="500.439453" xlink:href="#ArialMT-56"/>
      </g>
     </g>
    </g>
    <g id="ytick_12">
     <g id="line2d_19">
      <path clip-path="url(#pddc448b7a5)" d="M 135 505.148936 
L 972 505.148936 
" style="fill:none;stroke:#ffffff;stroke-linecap:round;"/>
     </g>
     <g id="text_20">
      <!-- L3,42, L3,42 -->
      <g style="fill:#262626;" transform="translate(981.5 514.096202)scale(0.25 -0.25)">
       <use xlink:href="#ArialMT-76"/>
       <use x="55.615234" xlink:href="#ArialMT-51"/>
       <use x="111.230469" xlink:href="#ArialMT-44"/>
       <use x="139.013672" xlink:href="#ArialMT-52"/>
       <use x="194.628906" xlink:href="#ArialMT-50"/>
       <use x="250.244141" xlink:href="#ArialMT-44"/>
       <use x="278.027344" xlink:href="#ArialMT-32"/>
       <use x="305.810547" xlink:href="#ArialMT-76"/>
       <use x="361.425781" xlink:href="#ArialMT-51"/>
       <use x="417.041016" xlink:href="#ArialMT-44"/>
       <use x="444.824219" xlink:href="#ArialMT-52"/>
       <use x="500.439453" xlink:href="#ArialMT-50"/>
      </g>
     </g>
    </g>
    <g id="ytick_13">
     <g id="line2d_20">
      <path clip-path="url(#pddc448b7a5)" d="M 135 493.353191 
L 972 493.353191 
" style="fill:none;stroke:#ffffff;stroke-linecap:round;"/>
     </g>
     <g id="text_21">
      <!-- L2,1, L2,1 -->
      <g style="fill:#262626;" transform="translate(981.5 502.300457)scale(0.25 -0.25)">
       <use xlink:href="#ArialMT-76"/>
       <use x="55.615234" xlink:href="#ArialMT-50"/>
       <use x="111.230469" xlink:href="#ArialMT-44"/>
       <use x="139.013672" xlink:href="#ArialMT-49"/>
       <use x="194.628906" xlink:href="#ArialMT-44"/>
       <use x="222.412109" xlink:href="#ArialMT-32"/>
       <use x="250.195312" xlink:href="#ArialMT-76"/>
       <use x="305.810547" xlink:href="#ArialMT-50"/>
       <use x="361.425781" xlink:href="#ArialMT-44"/>
       <use x="389.208984" xlink:href="#ArialMT-49"/>
      </g>
     </g>
    </g>
    <g id="ytick_14">
     <g id="line2d_21">
      <path clip-path="url(#pddc448b7a5)" d="M 135 481.557447 
L 972 481.557447 
" style="fill:none;stroke:#ffffff;stroke-linecap:round;"/>
     </g>
     <g id="text_22">
      <!-- L3,1, L3,1 -->
      <g style="fill:#262626;" transform="translate(981.5 490.504712)scale(0.25 -0.25)">
       <use xlink:href="#ArialMT-76"/>
       <use x="55.615234" xlink:href="#ArialMT-51"/>
       <use x="111.230469" xlink:href="#ArialMT-44"/>
       <use x="139.013672" xlink:href="#ArialMT-49"/>
       <use x="194.628906" xlink:href="#ArialMT-44"/>
       <use x="222.412109" xlink:href="#ArialMT-32"/>
       <use x="250.195312" xlink:href="#ArialMT-76"/>
       <use x="305.810547" xlink:href="#ArialMT-51"/>
       <use x="361.425781" xlink:href="#ArialMT-44"/>
       <use x="389.208984" xlink:href="#ArialMT-49"/>
      </g>
     </g>
    </g>
    <g id="ytick_15">
     <g id="line2d_22">
      <path clip-path="url(#pddc448b7a5)" d="M 135 469.761702 
L 972 469.761702 
" style="fill:none;stroke:#ffffff;stroke-linecap:round;"/>
     </g>
     <g id="text_23">
      <!-- L3,7, L3,7 -->
      <g style="fill:#262626;" transform="translate(981.5 478.708968)scale(0.25 -0.25)">
       <use xlink:href="#ArialMT-76"/>
       <use x="55.615234" xlink:href="#ArialMT-51"/>
       <use x="111.230469" xlink:href="#ArialMT-44"/>
       <use x="139.013672" xlink:href="#ArialMT-55"/>
       <use x="194.628906" xlink:href="#ArialMT-44"/>
       <use x="222.412109" xlink:href="#ArialMT-32"/>
       <use x="250.195312" xlink:href="#ArialMT-76"/>
       <use x="305.810547" xlink:href="#ArialMT-51"/>
       <use x="361.425781" xlink:href="#ArialMT-44"/>
       <use x="389.208984" xlink:href="#ArialMT-55"/>
      </g>
     </g>
    </g>
    <g id="ytick_16">
     <g id="line2d_23">
      <path clip-path="url(#pddc448b7a5)" d="M 135 457.965957 
L 972 457.965957 
" style="fill:none;stroke:#ffffff;stroke-linecap:round;"/>
     </g>
     <g id="text_24">
      <!-- L3,14, L3,14 -->
      <g style="fill:#262626;" transform="translate(981.5 466.913223)scale(0.25 -0.25)">
       <use xlink:href="#ArialMT-76"/>
       <use x="55.615234" xlink:href="#ArialMT-51"/>
       <use x="111.230469" xlink:href="#ArialMT-44"/>
       <use x="139.013672" xlink:href="#ArialMT-49"/>
       <use x="194.628906" xlink:href="#ArialMT-52"/>
       <use x="250.244141" xlink:href="#ArialMT-44"/>
       <use x="278.027344" xlink:href="#ArialMT-32"/>
       <use x="305.810547" xlink:href="#ArialMT-76"/>
       <use x="361.425781" xlink:href="#ArialMT-51"/>
       <use x="417.041016" xlink:href="#ArialMT-44"/>
       <use x="444.824219" xlink:href="#ArialMT-49"/>
       <use x="500.439453" xlink:href="#ArialMT-52"/>
      </g>
     </g>
    </g>
    <g id="ytick_17">
     <g id="line2d_24">
      <path clip-path="url(#pddc448b7a5)" d="M 135 446.170213 
L 972 446.170213 
" style="fill:none;stroke:#ffffff;stroke-linecap:round;"/>
     </g>
     <g id="text_25">
      <!-- L2,14, L2,14 -->
      <g style="fill:#262626;" transform="translate(981.5 455.117478)scale(0.25 -0.25)">
       <use xlink:href="#ArialMT-76"/>
       <use x="55.615234" xlink:href="#ArialMT-50"/>
       <use x="111.230469" xlink:href="#ArialMT-44"/>
       <use x="139.013672" xlink:href="#ArialMT-49"/>
       <use x="194.628906" xlink:href="#ArialMT-52"/>
       <use x="250.244141" xlink:href="#ArialMT-44"/>
       <use x="278.027344" xlink:href="#ArialMT-32"/>
       <use x="305.810547" xlink:href="#ArialMT-76"/>
       <use x="361.425781" xlink:href="#ArialMT-50"/>
       <use x="417.041016" xlink:href="#ArialMT-44"/>
       <use x="444.824219" xlink:href="#ArialMT-49"/>
       <use x="500.439453" xlink:href="#ArialMT-52"/>
      </g>
     </g>
    </g>
    <g id="ytick_18">
     <g id="line2d_25">
      <path clip-path="url(#pddc448b7a5)" d="M 135 434.374468 
L 972 434.374468 
" style="fill:none;stroke:#ffffff;stroke-linecap:round;"/>
     </g>
     <g id="text_26">
      <!-- L2,28, L2,28 -->
      <g style="fill:#262626;" transform="translate(981.5 443.321734)scale(0.25 -0.25)">
       <use xlink:href="#ArialMT-76"/>
       <use x="55.615234" xlink:href="#ArialMT-50"/>
       <use x="111.230469" xlink:href="#ArialMT-44"/>
       <use x="139.013672" xlink:href="#ArialMT-50"/>
       <use x="194.628906" xlink:href="#ArialMT-56"/>
       <use x="250.244141" xlink:href="#ArialMT-44"/>
       <use x="278.027344" xlink:href="#ArialMT-32"/>
       <use x="305.810547" xlink:href="#ArialMT-76"/>
       <use x="361.425781" xlink:href="#ArialMT-50"/>
       <use x="417.041016" xlink:href="#ArialMT-44"/>
       <use x="444.824219" xlink:href="#ArialMT-50"/>
       <use x="500.439453" xlink:href="#ArialMT-56"/>
      </g>
     </g>
    </g>
    <g id="ytick_19">
     <g id="line2d_26">
      <path clip-path="url(#pddc448b7a5)" d="M 135 422.578723 
L 972 422.578723 
" style="fill:none;stroke:#ffffff;stroke-linecap:round;"/>
     </g>
     <g id="text_27">
      <!-- L2,7, L2,7 -->
      <g style="fill:#262626;" transform="translate(981.5 431.525989)scale(0.25 -0.25)">
       <use xlink:href="#ArialMT-76"/>
       <use x="55.615234" xlink:href="#ArialMT-50"/>
       <use x="111.230469" xlink:href="#ArialMT-44"/>
       <use x="139.013672" xlink:href="#ArialMT-55"/>
       <use x="194.628906" xlink:href="#ArialMT-44"/>
       <use x="222.412109" xlink:href="#ArialMT-32"/>
       <use x="250.195312" xlink:href="#ArialMT-76"/>
       <use x="305.810547" xlink:href="#ArialMT-50"/>
       <use x="361.425781" xlink:href="#ArialMT-44"/>
       <use x="389.208984" xlink:href="#ArialMT-55"/>
      </g>
     </g>
    </g>
    <g id="ytick_20">
     <g id="line2d_27">
      <path clip-path="url(#pddc448b7a5)" d="M 135 410.782979 
L 972 410.782979 
" style="fill:none;stroke:#ffffff;stroke-linecap:round;"/>
     </g>
     <g id="text_28">
      <!-- L3,4, L3,4 -->
      <g style="fill:#262626;" transform="translate(981.5 419.730244)scale(0.25 -0.25)">
       <use xlink:href="#ArialMT-76"/>
       <use x="55.615234" xlink:href="#ArialMT-51"/>
       <use x="111.230469" xlink:href="#ArialMT-44"/>
       <use x="139.013672" xlink:href="#ArialMT-52"/>
       <use x="194.628906" xlink:href="#ArialMT-44"/>
       <use x="222.412109" xlink:href="#ArialMT-32"/>
       <use x="250.195312" xlink:href="#ArialMT-76"/>
       <use x="305.810547" xlink:href="#ArialMT-51"/>
       <use x="361.425781" xlink:href="#ArialMT-44"/>
       <use x="389.208984" xlink:href="#ArialMT-52"/>
      </g>
     </g>
    </g>
    <g id="ytick_21">
     <g id="line2d_28">
      <path clip-path="url(#pddc448b7a5)" d="M 135 398.987234 
L 972 398.987234 
" style="fill:none;stroke:#ffffff;stroke-linecap:round;"/>
     </g>
     <g id="text_29">
      <!-- L2,3, L2,3 -->
      <g style="fill:#262626;" transform="translate(981.5 407.9345)scale(0.25 -0.25)">
       <use xlink:href="#ArialMT-76"/>
       <use x="55.615234" xlink:href="#ArialMT-50"/>
       <use x="111.230469" xlink:href="#ArialMT-44"/>
       <use x="139.013672" xlink:href="#ArialMT-51"/>
       <use x="194.628906" xlink:href="#ArialMT-44"/>
       <use x="222.412109" xlink:href="#ArialMT-32"/>
       <use x="250.195312" xlink:href="#ArialMT-76"/>
       <use x="305.810547" xlink:href="#ArialMT-50"/>
       <use x="361.425781" xlink:href="#ArialMT-44"/>
       <use x="389.208984" xlink:href="#ArialMT-51"/>
      </g>
     </g>
    </g>
    <g id="ytick_22">
     <g id="line2d_29">
      <path clip-path="url(#pddc448b7a5)" d="M 135 387.191489 
L 972 387.191489 
" style="fill:none;stroke:#ffffff;stroke-linecap:round;"/>
     </g>
     <g id="text_30">
      <!-- L2,4, L2,4 -->
      <g style="fill:#262626;" transform="translate(981.5 396.138755)scale(0.25 -0.25)">
       <use xlink:href="#ArialMT-76"/>
       <use x="55.615234" xlink:href="#ArialMT-50"/>
       <use x="111.230469" xlink:href="#ArialMT-44"/>
       <use x="139.013672" xlink:href="#ArialMT-52"/>
       <use x="194.628906" xlink:href="#ArialMT-44"/>
       <use x="222.412109" xlink:href="#ArialMT-32"/>
       <use x="250.195312" xlink:href="#ArialMT-76"/>
       <use x="305.810547" xlink:href="#ArialMT-50"/>
       <use x="361.425781" xlink:href="#ArialMT-44"/>
       <use x="389.208984" xlink:href="#ArialMT-52"/>
      </g>
     </g>
    </g>
    <g id="ytick_23">
     <g id="line2d_30">
      <path clip-path="url(#pddc448b7a5)" d="M 135 375.395745 
L 972 375.395745 
" style="fill:none;stroke:#ffffff;stroke-linecap:round;"/>
     </g>
     <g id="text_31">
      <!-- L3,2, L3,2 -->
      <g style="fill:#262626;" transform="translate(981.5 384.34301)scale(0.25 -0.25)">
       <use xlink:href="#ArialMT-76"/>
       <use x="55.615234" xlink:href="#ArialMT-51"/>
       <use x="111.230469" xlink:href="#ArialMT-44"/>
       <use x="139.013672" xlink:href="#ArialMT-50"/>
       <use x="194.628906" xlink:href="#ArialMT-44"/>
       <use x="222.412109" xlink:href="#ArialMT-32"/>
       <use x="250.195312" xlink:href="#ArialMT-76"/>
       <use x="305.810547" xlink:href="#ArialMT-51"/>
       <use x="361.425781" xlink:href="#ArialMT-44"/>
       <use x="389.208984" xlink:href="#ArialMT-50"/>
      </g>
     </g>
    </g>
    <g id="ytick_24">
     <g id="line2d_31">
      <path clip-path="url(#pddc448b7a5)" d="M 135 363.6 
L 972 363.6 
" style="fill:none;stroke:#ffffff;stroke-linecap:round;"/>
     </g>
     <g id="text_32">
      <!-- L3,28, L3,28 -->
      <g style="fill:#262626;" transform="translate(981.5 372.547266)scale(0.25 -0.25)">
       <use xlink:href="#ArialMT-76"/>
       <use x="55.615234" xlink:href="#ArialMT-51"/>
       <use x="111.230469" xlink:href="#ArialMT-44"/>
       <use x="139.013672" xlink:href="#ArialMT-50"/>
       <use x="194.628906" xlink:href="#ArialMT-56"/>
       <use x="250.244141" xlink:href="#ArialMT-44"/>
       <use x="278.027344" xlink:href="#ArialMT-32"/>
       <use x="305.810547" xlink:href="#ArialMT-76"/>
       <use x="361.425781" xlink:href="#ArialMT-51"/>
       <use x="417.041016" xlink:href="#ArialMT-44"/>
       <use x="444.824219" xlink:href="#ArialMT-50"/>
       <use x="500.439453" xlink:href="#ArialMT-56"/>
      </g>
     </g>
    </g>
    <g id="ytick_25">
     <g id="line2d_32">
      <path clip-path="url(#pddc448b7a5)" d="M 135 351.804255 
L 972 351.804255 
" style="fill:none;stroke:#ffffff;stroke-linecap:round;"/>
     </g>
     <g id="text_33">
      <!-- L2,42, L2,42 -->
      <g style="fill:#262626;" transform="translate(981.5 360.751521)scale(0.25 -0.25)">
       <use xlink:href="#ArialMT-76"/>
       <use x="55.615234" xlink:href="#ArialMT-50"/>
       <use x="111.230469" xlink:href="#ArialMT-44"/>
       <use x="139.013672" xlink:href="#ArialMT-52"/>
       <use x="194.628906" xlink:href="#ArialMT-50"/>
       <use x="250.244141" xlink:href="#ArialMT-44"/>
       <use x="278.027344" xlink:href="#ArialMT-32"/>
       <use x="305.810547" xlink:href="#ArialMT-76"/>
       <use x="361.425781" xlink:href="#ArialMT-50"/>
       <use x="417.041016" xlink:href="#ArialMT-44"/>
       <use x="444.824219" xlink:href="#ArialMT-52"/>
       <use x="500.439453" xlink:href="#ArialMT-50"/>
      </g>
     </g>
    </g>
    <g id="ytick_26">
     <g id="line2d_33">
      <path clip-path="url(#pddc448b7a5)" d="M 135 340.008511 
L 972 340.008511 
" style="fill:none;stroke:#ffffff;stroke-linecap:round;"/>
     </g>
     <g id="text_34">
      <!-- L2,2, L2,2 -->
      <g style="fill:#262626;" transform="translate(981.5 348.955776)scale(0.25 -0.25)">
       <use xlink:href="#ArialMT-76"/>
       <use x="55.615234" xlink:href="#ArialMT-50"/>
       <use x="111.230469" xlink:href="#ArialMT-44"/>
       <use x="139.013672" xlink:href="#ArialMT-50"/>
       <use x="194.628906" xlink:href="#ArialMT-44"/>
       <use x="222.412109" xlink:href="#ArialMT-32"/>
       <use x="250.195312" xlink:href="#ArialMT-76"/>
       <use x="305.810547" xlink:href="#ArialMT-50"/>
       <use x="361.425781" xlink:href="#ArialMT-44"/>
       <use x="389.208984" xlink:href="#ArialMT-50"/>
      </g>
     </g>
    </g>
    <g id="ytick_27">
     <g id="line2d_34">
      <path clip-path="url(#pddc448b7a5)" d="M 135 328.212766 
L 972 328.212766 
" style="fill:none;stroke:#ffffff;stroke-linecap:round;"/>
     </g>
     <g id="text_35">
      <!-- L3,3, L3,3 -->
      <g style="fill:#262626;" transform="translate(981.5 337.160032)scale(0.25 -0.25)">
       <use xlink:href="#ArialMT-76"/>
       <use x="55.615234" xlink:href="#ArialMT-51"/>
       <use x="111.230469" xlink:href="#ArialMT-44"/>
       <use x="139.013672" xlink:href="#ArialMT-51"/>
       <use x="194.628906" xlink:href="#ArialMT-44"/>
       <use x="222.412109" xlink:href="#ArialMT-32"/>
       <use x="250.195312" xlink:href="#ArialMT-76"/>
       <use x="305.810547" xlink:href="#ArialMT-51"/>
       <use x="361.425781" xlink:href="#ArialMT-44"/>
       <use x="389.208984" xlink:href="#ArialMT-51"/>
      </g>
     </g>
    </g>
    <g id="ytick_28">
     <g id="line2d_35">
      <path clip-path="url(#pddc448b7a5)" d="M 135 316.417021 
L 972 316.417021 
" style="fill:none;stroke:#ffffff;stroke-linecap:round;"/>
     </g>
     <g id="text_36">
      <!-- L1,2, L1,2 -->
      <g style="fill:#262626;" transform="translate(981.5 325.364287)scale(0.25 -0.25)">
       <use xlink:href="#ArialMT-76"/>
       <use x="55.615234" xlink:href="#ArialMT-49"/>
       <use x="111.230469" xlink:href="#ArialMT-44"/>
       <use x="139.013672" xlink:href="#ArialMT-50"/>
       <use x="194.628906" xlink:href="#ArialMT-44"/>
       <use x="222.412109" xlink:href="#ArialMT-32"/>
       <use x="250.195312" xlink:href="#ArialMT-76"/>
       <use x="305.810547" xlink:href="#ArialMT-49"/>
       <use x="361.425781" xlink:href="#ArialMT-44"/>
       <use x="389.208984" xlink:href="#ArialMT-50"/>
      </g>
     </g>
    </g>
    <g id="ytick_29">
     <g id="line2d_36">
      <path clip-path="url(#pddc448b7a5)" d="M 135 304.621277 
L 972 304.621277 
" style="fill:none;stroke:#ffffff;stroke-linecap:round;"/>
     </g>
     <g id="text_37">
      <!-- L5,2, L5,2 -->
      <g style="fill:#262626;" transform="translate(981.5 313.568542)scale(0.25 -0.25)">
       <use xlink:href="#ArialMT-76"/>
       <use x="55.615234" xlink:href="#ArialMT-53"/>
       <use x="111.230469" xlink:href="#ArialMT-44"/>
       <use x="139.013672" xlink:href="#ArialMT-50"/>
       <use x="194.628906" xlink:href="#ArialMT-44"/>
       <use x="222.412109" xlink:href="#ArialMT-32"/>
       <use x="250.195312" xlink:href="#ArialMT-76"/>
       <use x="305.810547" xlink:href="#ArialMT-53"/>
       <use x="361.425781" xlink:href="#ArialMT-44"/>
       <use x="389.208984" xlink:href="#ArialMT-50"/>
      </g>
     </g>
    </g>
    <g id="ytick_30">
     <g id="line2d_37">
      <path clip-path="url(#pddc448b7a5)" d="M 135 292.825532 
L 972 292.825532 
" style="fill:none;stroke:#ffffff;stroke-linecap:round;"/>
     </g>
     <g id="text_38">
      <!-- L5,28, L5,28 -->
      <g style="fill:#262626;" transform="translate(981.5 301.772798)scale(0.25 -0.25)">
       <use xlink:href="#ArialMT-76"/>
       <use x="55.615234" xlink:href="#ArialMT-53"/>
       <use x="111.230469" xlink:href="#ArialMT-44"/>
       <use x="139.013672" xlink:href="#ArialMT-50"/>
       <use x="194.628906" xlink:href="#ArialMT-56"/>
       <use x="250.244141" xlink:href="#ArialMT-44"/>
       <use x="278.027344" xlink:href="#ArialMT-32"/>
       <use x="305.810547" xlink:href="#ArialMT-76"/>
       <use x="361.425781" xlink:href="#ArialMT-53"/>
       <use x="417.041016" xlink:href="#ArialMT-44"/>
       <use x="444.824219" xlink:href="#ArialMT-50"/>
       <use x="500.439453" xlink:href="#ArialMT-56"/>
      </g>
     </g>
    </g>
    <g id="ytick_31">
     <g id="line2d_38">
      <path clip-path="url(#pddc448b7a5)" d="M 135 281.029787 
L 972 281.029787 
" style="fill:none;stroke:#ffffff;stroke-linecap:round;"/>
     </g>
     <g id="text_39">
      <!-- L5,42, L5,42 -->
      <g style="fill:#262626;" transform="translate(981.5 289.977053)scale(0.25 -0.25)">
       <use xlink:href="#ArialMT-76"/>
       <use x="55.615234" xlink:href="#ArialMT-53"/>
       <use x="111.230469" xlink:href="#ArialMT-44"/>
       <use x="139.013672" xlink:href="#ArialMT-52"/>
       <use x="194.628906" xlink:href="#ArialMT-50"/>
       <use x="250.244141" xlink:href="#ArialMT-44"/>
       <use x="278.027344" xlink:href="#ArialMT-32"/>
       <use x="305.810547" xlink:href="#ArialMT-76"/>
       <use x="361.425781" xlink:href="#ArialMT-53"/>
       <use x="417.041016" xlink:href="#ArialMT-44"/>
       <use x="444.824219" xlink:href="#ArialMT-52"/>
       <use x="500.439453" xlink:href="#ArialMT-50"/>
      </g>
     </g>
    </g>
    <g id="ytick_32">
     <g id="line2d_39">
      <path clip-path="url(#pddc448b7a5)" d="M 135 269.234043 
L 972 269.234043 
" style="fill:none;stroke:#ffffff;stroke-linecap:round;"/>
     </g>
     <g id="text_40">
      <!-- L4,28, L4,28 -->
      <g style="fill:#262626;" transform="translate(981.5 278.181308)scale(0.25 -0.25)">
       <use xlink:href="#ArialMT-76"/>
       <use x="55.615234" xlink:href="#ArialMT-52"/>
       <use x="111.230469" xlink:href="#ArialMT-44"/>
       <use x="139.013672" xlink:href="#ArialMT-50"/>
       <use x="194.628906" xlink:href="#ArialMT-56"/>
       <use x="250.244141" xlink:href="#ArialMT-44"/>
       <use x="278.027344" xlink:href="#ArialMT-32"/>
       <use x="305.810547" xlink:href="#ArialMT-76"/>
       <use x="361.425781" xlink:href="#ArialMT-52"/>
       <use x="417.041016" xlink:href="#ArialMT-44"/>
       <use x="444.824219" xlink:href="#ArialMT-50"/>
       <use x="500.439453" xlink:href="#ArialMT-56"/>
      </g>
     </g>
    </g>
    <g id="ytick_33">
     <g id="line2d_40">
      <path clip-path="url(#pddc448b7a5)" d="M 135 257.438298 
L 972 257.438298 
" style="fill:none;stroke:#ffffff;stroke-linecap:round;"/>
     </g>
     <g id="text_41">
      <!-- L4,42, L4,42 -->
      <g style="fill:#262626;" transform="translate(981.5 266.385563)scale(0.25 -0.25)">
       <use xlink:href="#ArialMT-76"/>
       <use x="55.615234" xlink:href="#ArialMT-52"/>
       <use x="111.230469" xlink:href="#ArialMT-44"/>
       <use x="139.013672" xlink:href="#ArialMT-52"/>
       <use x="194.628906" xlink:href="#ArialMT-50"/>
       <use x="250.244141" xlink:href="#ArialMT-44"/>
       <use x="278.027344" xlink:href="#ArialMT-32"/>
       <use x="305.810547" xlink:href="#ArialMT-76"/>
       <use x="361.425781" xlink:href="#ArialMT-52"/>
       <use x="417.041016" xlink:href="#ArialMT-44"/>
       <use x="444.824219" xlink:href="#ArialMT-52"/>
       <use x="500.439453" xlink:href="#ArialMT-50"/>
      </g>
     </g>
    </g>
    <g id="ytick_34">
     <g id="line2d_41">
      <path clip-path="url(#pddc448b7a5)" d="M 135 245.642553 
L 972 245.642553 
" style="fill:none;stroke:#ffffff;stroke-linecap:round;"/>
     </g>
     <g id="text_42">
      <!-- L5,14, L5,14 -->
      <g style="fill:#262626;" transform="translate(981.5 254.589819)scale(0.25 -0.25)">
       <use xlink:href="#ArialMT-76"/>
       <use x="55.615234" xlink:href="#ArialMT-53"/>
       <use x="111.230469" xlink:href="#ArialMT-44"/>
       <use x="139.013672" xlink:href="#ArialMT-49"/>
       <use x="194.628906" xlink:href="#ArialMT-52"/>
       <use x="250.244141" xlink:href="#ArialMT-44"/>
       <use x="278.027344" xlink:href="#ArialMT-32"/>
       <use x="305.810547" xlink:href="#ArialMT-76"/>
       <use x="361.425781" xlink:href="#ArialMT-53"/>
       <use x="417.041016" xlink:href="#ArialMT-44"/>
       <use x="444.824219" xlink:href="#ArialMT-49"/>
       <use x="500.439453" xlink:href="#ArialMT-52"/>
      </g>
     </g>
    </g>
    <g id="ytick_35">
     <g id="line2d_42">
      <path clip-path="url(#pddc448b7a5)" d="M 135 233.846809 
L 972 233.846809 
" style="fill:none;stroke:#ffffff;stroke-linecap:round;"/>
     </g>
     <g id="text_43">
      <!-- L5,3, L5,3 -->
      <g style="fill:#262626;" transform="translate(981.5 242.794074)scale(0.25 -0.25)">
       <use xlink:href="#ArialMT-76"/>
       <use x="55.615234" xlink:href="#ArialMT-53"/>
       <use x="111.230469" xlink:href="#ArialMT-44"/>
       <use x="139.013672" xlink:href="#ArialMT-51"/>
       <use x="194.628906" xlink:href="#ArialMT-44"/>
       <use x="222.412109" xlink:href="#ArialMT-32"/>
       <use x="250.195312" xlink:href="#ArialMT-76"/>
       <use x="305.810547" xlink:href="#ArialMT-53"/>
       <use x="361.425781" xlink:href="#ArialMT-44"/>
       <use x="389.208984" xlink:href="#ArialMT-51"/>
      </g>
     </g>
    </g>
    <g id="ytick_36">
     <g id="line2d_43">
      <path clip-path="url(#pddc448b7a5)" d="M 135 222.051064 
L 972 222.051064 
" style="fill:none;stroke:#ffffff;stroke-linecap:round;"/>
     </g>
     <g id="text_44">
      <!-- L5,4, L5,4 -->
      <g style="fill:#262626;" transform="translate(981.5 230.998329)scale(0.25 -0.25)">
       <use xlink:href="#ArialMT-76"/>
       <use x="55.615234" xlink:href="#ArialMT-53"/>
       <use x="111.230469" xlink:href="#ArialMT-44"/>
       <use x="139.013672" xlink:href="#ArialMT-52"/>
       <use x="194.628906" xlink:href="#ArialMT-44"/>
       <use x="222.412109" xlink:href="#ArialMT-32"/>
       <use x="250.195312" xlink:href="#ArialMT-76"/>
       <use x="305.810547" xlink:href="#ArialMT-53"/>
       <use x="361.425781" xlink:href="#ArialMT-44"/>
       <use x="389.208984" xlink:href="#ArialMT-52"/>
      </g>
     </g>
    </g>
    <g id="ytick_37">
     <g id="line2d_44">
      <path clip-path="url(#pddc448b7a5)" d="M 135 210.255319 
L 972 210.255319 
" style="fill:none;stroke:#ffffff;stroke-linecap:round;"/>
     </g>
     <g id="text_45">
      <!-- L5,7, L5,7 -->
      <g style="fill:#262626;" transform="translate(981.5 219.202585)scale(0.25 -0.25)">
       <use xlink:href="#ArialMT-76"/>
       <use x="55.615234" xlink:href="#ArialMT-53"/>
       <use x="111.230469" xlink:href="#ArialMT-44"/>
       <use x="139.013672" xlink:href="#ArialMT-55"/>
       <use x="194.628906" xlink:href="#ArialMT-44"/>
       <use x="222.412109" xlink:href="#ArialMT-32"/>
       <use x="250.195312" xlink:href="#ArialMT-76"/>
       <use x="305.810547" xlink:href="#ArialMT-53"/>
       <use x="361.425781" xlink:href="#ArialMT-44"/>
       <use x="389.208984" xlink:href="#ArialMT-55"/>
      </g>
     </g>
    </g>
    <g id="ytick_38">
     <g id="line2d_45">
      <path clip-path="url(#pddc448b7a5)" d="M 135 198.459574 
L 972 198.459574 
" style="fill:none;stroke:#ffffff;stroke-linecap:round;"/>
     </g>
     <g id="text_46">
      <!-- L4,2, L4,2 -->
      <g style="fill:#262626;" transform="translate(981.5 207.40684)scale(0.25 -0.25)">
       <use xlink:href="#ArialMT-76"/>
       <use x="55.615234" xlink:href="#ArialMT-52"/>
       <use x="111.230469" xlink:href="#ArialMT-44"/>
       <use x="139.013672" xlink:href="#ArialMT-50"/>
       <use x="194.628906" xlink:href="#ArialMT-44"/>
       <use x="222.412109" xlink:href="#ArialMT-32"/>
       <use x="250.195312" xlink:href="#ArialMT-76"/>
       <use x="305.810547" xlink:href="#ArialMT-52"/>
       <use x="361.425781" xlink:href="#ArialMT-44"/>
       <use x="389.208984" xlink:href="#ArialMT-50"/>
      </g>
     </g>
    </g>
    <g id="ytick_39">
     <g id="line2d_46">
      <path clip-path="url(#pddc448b7a5)" d="M 135 186.66383 
L 972 186.66383 
" style="fill:none;stroke:#ffffff;stroke-linecap:round;"/>
     </g>
     <g id="text_47">
      <!-- L1,28, L1,28 -->
      <g style="fill:#262626;" transform="translate(981.5 195.611095)scale(0.25 -0.25)">
       <use xlink:href="#ArialMT-76"/>
       <use x="55.615234" xlink:href="#ArialMT-49"/>
       <use x="111.230469" xlink:href="#ArialMT-44"/>
       <use x="139.013672" xlink:href="#ArialMT-50"/>
       <use x="194.628906" xlink:href="#ArialMT-56"/>
       <use x="250.244141" xlink:href="#ArialMT-44"/>
       <use x="278.027344" xlink:href="#ArialMT-32"/>
       <use x="305.810547" xlink:href="#ArialMT-76"/>
       <use x="361.425781" xlink:href="#ArialMT-49"/>
       <use x="417.041016" xlink:href="#ArialMT-44"/>
       <use x="444.824219" xlink:href="#ArialMT-50"/>
       <use x="500.439453" xlink:href="#ArialMT-56"/>
      </g>
     </g>
    </g>
    <g id="ytick_40">
     <g id="line2d_47">
      <path clip-path="url(#pddc448b7a5)" d="M 135 174.868085 
L 972 174.868085 
" style="fill:none;stroke:#ffffff;stroke-linecap:round;"/>
     </g>
     <g id="text_48">
      <!-- L1,42, L1,42 -->
      <g style="fill:#262626;" transform="translate(981.5 183.815351)scale(0.25 -0.25)">
       <use xlink:href="#ArialMT-76"/>
       <use x="55.615234" xlink:href="#ArialMT-49"/>
       <use x="111.230469" xlink:href="#ArialMT-44"/>
       <use x="139.013672" xlink:href="#ArialMT-52"/>
       <use x="194.628906" xlink:href="#ArialMT-50"/>
       <use x="250.244141" xlink:href="#ArialMT-44"/>
       <use x="278.027344" xlink:href="#ArialMT-32"/>
       <use x="305.810547" xlink:href="#ArialMT-76"/>
       <use x="361.425781" xlink:href="#ArialMT-49"/>
       <use x="417.041016" xlink:href="#ArialMT-44"/>
       <use x="444.824219" xlink:href="#ArialMT-52"/>
       <use x="500.439453" xlink:href="#ArialMT-50"/>
      </g>
     </g>
    </g>
    <g id="ytick_41">
     <g id="line2d_48">
      <path clip-path="url(#pddc448b7a5)" d="M 135 163.07234 
L 972 163.07234 
" style="fill:none;stroke:#ffffff;stroke-linecap:round;"/>
     </g>
     <g id="text_49">
      <!-- L1,3, L1,3 -->
      <g style="fill:#262626;" transform="translate(981.5 172.019606)scale(0.25 -0.25)">
       <use xlink:href="#ArialMT-76"/>
       <use x="55.615234" xlink:href="#ArialMT-49"/>
       <use x="111.230469" xlink:href="#ArialMT-44"/>
       <use x="139.013672" xlink:href="#ArialMT-51"/>
       <use x="194.628906" xlink:href="#ArialMT-44"/>
       <use x="222.412109" xlink:href="#ArialMT-32"/>
       <use x="250.195312" xlink:href="#ArialMT-76"/>
       <use x="305.810547" xlink:href="#ArialMT-49"/>
       <use x="361.425781" xlink:href="#ArialMT-44"/>
       <use x="389.208984" xlink:href="#ArialMT-51"/>
      </g>
     </g>
    </g>
    <g id="ytick_42">
     <g id="line2d_49">
      <path clip-path="url(#pddc448b7a5)" d="M 135 151.276596 
L 972 151.276596 
" style="fill:none;stroke:#ffffff;stroke-linecap:round;"/>
     </g>
     <g id="text_50">
      <!-- L1,4, L1,4 -->
      <g style="fill:#262626;" transform="translate(981.5 160.223861)scale(0.25 -0.25)">
       <use xlink:href="#ArialMT-76"/>
       <use x="55.615234" xlink:href="#ArialMT-49"/>
       <use x="111.230469" xlink:href="#ArialMT-44"/>
       <use x="139.013672" xlink:href="#ArialMT-52"/>
       <use x="194.628906" xlink:href="#ArialMT-44"/>
       <use x="222.412109" xlink:href="#ArialMT-32"/>
       <use x="250.195312" xlink:href="#ArialMT-76"/>
       <use x="305.810547" xlink:href="#ArialMT-49"/>
       <use x="361.425781" xlink:href="#ArialMT-44"/>
       <use x="389.208984" xlink:href="#ArialMT-52"/>
      </g>
     </g>
    </g>
    <g id="ytick_43">
     <g id="line2d_50">
      <path clip-path="url(#pddc448b7a5)" d="M 135 139.480851 
L 972 139.480851 
" style="fill:none;stroke:#ffffff;stroke-linecap:round;"/>
     </g>
     <g id="text_51">
      <!-- L1,7, L1,7 -->
      <g style="fill:#262626;" transform="translate(981.5 148.428117)scale(0.25 -0.25)">
       <use xlink:href="#ArialMT-76"/>
       <use x="55.615234" xlink:href="#ArialMT-49"/>
       <use x="111.230469" xlink:href="#ArialMT-44"/>
       <use x="139.013672" xlink:href="#ArialMT-55"/>
       <use x="194.628906" xlink:href="#ArialMT-44"/>
       <use x="222.412109" xlink:href="#ArialMT-32"/>
       <use x="250.195312" xlink:href="#ArialMT-76"/>
       <use x="305.810547" xlink:href="#ArialMT-49"/>
       <use x="361.425781" xlink:href="#ArialMT-44"/>
       <use x="389.208984" xlink:href="#ArialMT-55"/>
      </g>
     </g>
    </g>
    <g id="ytick_44">
     <g id="line2d_51">
      <path clip-path="url(#pddc448b7a5)" d="M 135 127.685106 
L 972 127.685106 
" style="fill:none;stroke:#ffffff;stroke-linecap:round;"/>
     </g>
     <g id="text_52">
      <!-- L1,14, L1,14 -->
      <g style="fill:#262626;" transform="translate(981.5 136.632372)scale(0.25 -0.25)">
       <use xlink:href="#ArialMT-76"/>
       <use x="55.615234" xlink:href="#ArialMT-49"/>
       <use x="111.230469" xlink:href="#ArialMT-44"/>
       <use x="139.013672" xlink:href="#ArialMT-49"/>
       <use x="194.628906" xlink:href="#ArialMT-52"/>
       <use x="250.244141" xlink:href="#ArialMT-44"/>
       <use x="278.027344" xlink:href="#ArialMT-32"/>
       <use x="305.810547" xlink:href="#ArialMT-76"/>
       <use x="361.425781" xlink:href="#ArialMT-49"/>
       <use x="417.041016" xlink:href="#ArialMT-44"/>
       <use x="444.824219" xlink:href="#ArialMT-49"/>
       <use x="500.439453" xlink:href="#ArialMT-52"/>
      </g>
     </g>
    </g>
    <g id="ytick_45">
     <g id="line2d_52">
      <path clip-path="url(#pddc448b7a5)" d="M 135 115.889362 
L 972 115.889362 
" style="fill:none;stroke:#ffffff;stroke-linecap:round;"/>
     </g>
     <g id="text_53">
      <!-- L4,1, L4,1 -->
      <g style="fill:#262626;" transform="translate(981.5 124.836627)scale(0.25 -0.25)">
       <use xlink:href="#ArialMT-76"/>
       <use x="55.615234" xlink:href="#ArialMT-52"/>
       <use x="111.230469" xlink:href="#ArialMT-44"/>
       <use x="139.013672" xlink:href="#ArialMT-49"/>
       <use x="194.628906" xlink:href="#ArialMT-44"/>
       <use x="222.412109" xlink:href="#ArialMT-32"/>
       <use x="250.195312" xlink:href="#ArialMT-76"/>
       <use x="305.810547" xlink:href="#ArialMT-52"/>
       <use x="361.425781" xlink:href="#ArialMT-44"/>
       <use x="389.208984" xlink:href="#ArialMT-49"/>
      </g>
     </g>
    </g>
    <g id="ytick_46">
     <g id="line2d_53">
      <path clip-path="url(#pddc448b7a5)" d="M 135 104.093617 
L 972 104.093617 
" style="fill:none;stroke:#ffffff;stroke-linecap:round;"/>
     </g>
     <g id="text_54">
      <!-- L1,1, L1,1 -->
      <g style="fill:#262626;" transform="translate(981.5 113.040883)scale(0.25 -0.25)">
       <use xlink:href="#ArialMT-76"/>
       <use x="55.615234" xlink:href="#ArialMT-49"/>
       <use x="111.230469" xlink:href="#ArialMT-44"/>
       <use x="139.013672" xlink:href="#ArialMT-49"/>
       <use x="194.628906" xlink:href="#ArialMT-44"/>
       <use x="222.412109" xlink:href="#ArialMT-32"/>
       <use x="250.195312" xlink:href="#ArialMT-76"/>
       <use x="305.810547" xlink:href="#ArialMT-49"/>
       <use x="361.425781" xlink:href="#ArialMT-44"/>
       <use x="389.208984" xlink:href="#ArialMT-49"/>
      </g>
     </g>
    </g>
    <g id="ytick_47">
     <g id="line2d_54">
      <path clip-path="url(#pddc448b7a5)" d="M 135 92.297872 
L 972 92.297872 
" style="fill:none;stroke:#ffffff;stroke-linecap:round;"/>
     </g>
     <g id="text_55">
      <!-- L5,1, L5,1 -->
      <g style="fill:#262626;" transform="translate(981.5 101.245138)scale(0.25 -0.25)">
       <use xlink:href="#ArialMT-76"/>
       <use x="55.615234" xlink:href="#ArialMT-53"/>
       <use x="111.230469" xlink:href="#ArialMT-44"/>
       <use x="139.013672" xlink:href="#ArialMT-49"/>
       <use x="194.628906" xlink:href="#ArialMT-44"/>
       <use x="222.412109" xlink:href="#ArialMT-32"/>
       <use x="250.195312" xlink:href="#ArialMT-76"/>
       <use x="305.810547" xlink:href="#ArialMT-53"/>
       <use x="361.425781" xlink:href="#ArialMT-44"/>
       <use x="389.208984" xlink:href="#ArialMT-49"/>
      </g>
     </g>
    </g>
    <g id="text_56">
     <!-- KO Gene Name -->
     <defs>
      <path d="M 7.328125 0 
L 7.328125 71.578125 
L 16.796875 71.578125 
L 16.796875 36.078125 
L 52.34375 71.578125 
L 65.1875 71.578125 
L 35.15625 42.578125 
L 66.5 0 
L 54 0 
L 28.515625 36.234375 
L 16.796875 24.8125 
L 16.796875 0 
z
" id="ArialMT-75"/>
      <path d="M 4.828125 34.859375 
Q 4.828125 52.6875 14.390625 62.765625 
Q 23.96875 72.859375 39.109375 72.859375 
Q 49.03125 72.859375 56.984375 68.109375 
Q 64.9375 63.375 69.109375 54.90625 
Q 73.296875 46.4375 73.296875 35.6875 
Q 73.296875 24.8125 68.890625 16.21875 
Q 64.5 7.625 56.4375 3.203125 
Q 48.390625 -1.21875 39.0625 -1.21875 
Q 28.953125 -1.21875 20.984375 3.65625 
Q 13.03125 8.546875 8.921875 16.984375 
Q 4.828125 25.4375 4.828125 34.859375 
z
M 14.59375 34.71875 
Q 14.59375 21.78125 21.546875 14.328125 
Q 28.515625 6.890625 39.015625 6.890625 
Q 49.703125 6.890625 56.609375 14.40625 
Q 63.53125 21.921875 63.53125 35.75 
Q 63.53125 44.484375 60.578125 51 
Q 57.625 57.515625 51.921875 61.109375 
Q 46.234375 64.703125 39.15625 64.703125 
Q 29.109375 64.703125 21.84375 57.78125 
Q 14.59375 50.875 14.59375 34.71875 
z
" id="ArialMT-79"/>
      <path d="M 41.21875 28.078125 
L 41.21875 36.46875 
L 71.53125 36.53125 
L 71.53125 9.96875 
Q 64.546875 4.390625 57.125 1.578125 
Q 49.703125 -1.21875 41.890625 -1.21875 
Q 31.34375 -1.21875 22.71875 3.296875 
Q 14.109375 7.8125 9.71875 16.359375 
Q 5.328125 24.90625 5.328125 35.453125 
Q 5.328125 45.90625 9.6875 54.953125 
Q 14.0625 64.015625 22.265625 68.40625 
Q 30.46875 72.796875 41.15625 72.796875 
Q 48.921875 72.796875 55.1875 70.28125 
Q 61.46875 67.78125 65.03125 63.28125 
Q 68.609375 58.796875 70.453125 51.5625 
L 61.921875 49.21875 
Q 60.296875 54.6875 57.90625 57.8125 
Q 55.515625 60.9375 51.0625 62.8125 
Q 46.625 64.703125 41.21875 64.703125 
Q 34.71875 64.703125 29.984375 62.71875 
Q 25.25 60.75 22.34375 57.515625 
Q 19.4375 54.296875 17.828125 50.4375 
Q 15.09375 43.796875 15.09375 36.03125 
Q 15.09375 26.46875 18.390625 20.015625 
Q 21.6875 13.578125 27.984375 10.453125 
Q 34.28125 7.328125 41.359375 7.328125 
Q 47.515625 7.328125 53.375 9.6875 
Q 59.234375 12.0625 62.25 14.75 
L 62.25 28.078125 
z
" id="ArialMT-71"/>
      <path d="M 7.625 0 
L 7.625 71.578125 
L 17.328125 71.578125 
L 54.9375 15.375 
L 54.9375 71.578125 
L 64.015625 71.578125 
L 64.015625 0 
L 54.296875 0 
L 16.703125 56.25 
L 16.703125 0 
z
" id="ArialMT-78"/>
      <path d="M 6.59375 0 
L 6.59375 51.859375 
L 14.453125 51.859375 
L 14.453125 44.578125 
Q 16.890625 48.390625 20.9375 50.703125 
Q 25 53.03125 30.171875 53.03125 
Q 35.9375 53.03125 39.625 50.640625 
Q 43.3125 48.25 44.828125 43.953125 
Q 50.984375 53.03125 60.84375 53.03125 
Q 68.5625 53.03125 72.703125 48.75 
Q 76.859375 44.484375 76.859375 35.59375 
L 76.859375 0 
L 68.109375 0 
L 68.109375 32.671875 
Q 68.109375 37.9375 67.25 40.25 
Q 66.40625 42.578125 64.15625 43.984375 
Q 61.921875 45.40625 58.890625 45.40625 
Q 53.421875 45.40625 49.796875 41.765625 
Q 46.1875 38.140625 46.1875 30.125 
L 46.1875 0 
L 37.40625 0 
L 37.40625 33.6875 
Q 37.40625 39.546875 35.25 42.46875 
Q 33.109375 45.40625 28.21875 45.40625 
Q 24.515625 45.40625 21.359375 43.453125 
Q 18.21875 41.5 16.796875 37.734375 
Q 15.375 33.984375 15.375 26.90625 
L 15.375 0 
z
" id="ArialMT-109"/>
     </defs>
     <g style="fill:#262626;" transform="translate(126.03125 452.523828)rotate(-90)scale(0.25 -0.25)">
      <use xlink:href="#ArialMT-75"/>
      <use x="66.699219" xlink:href="#ArialMT-79"/>
      <use x="144.482422" xlink:href="#ArialMT-32"/>
      <use x="172.265625" xlink:href="#ArialMT-71"/>
      <use x="250.048828" xlink:href="#ArialMT-101"/>
      <use x="305.664062" xlink:href="#ArialMT-110"/>
      <use x="361.279297" xlink:href="#ArialMT-101"/>
      <use x="416.894531" xlink:href="#ArialMT-32"/>
      <use x="444.677734" xlink:href="#ArialMT-78"/>
      <use x="516.894531" xlink:href="#ArialMT-97"/>
      <use x="572.509766" xlink:href="#ArialMT-109"/>
      <use x="655.810547" xlink:href="#ArialMT-101"/>
     </g>
    </g>
   </g>
   <g id="LineCollection_1">
    <path clip-path="url(#pddc448b7a5)" d="M 972 611.310638 
L 969.495454 611.310638 
L 969.495454 599.514894 
L 972 599.514894 
" style="fill:none;stroke:#dd8452;stroke-width:4;"/>
    <path clip-path="url(#pddc448b7a5)" d="M 972 623.106383 
L 952.277198 623.106383 
L 952.277198 605.412766 
L 969.495454 605.412766 
" style="fill:none;stroke:#dd8452;stroke-width:4;"/>
    <path clip-path="url(#pddc448b7a5)" d="M 972 634.902128 
L 949.789946 634.902128 
L 949.789946 614.259574 
L 952.277198 614.259574 
" style="fill:none;stroke:#dd8452;stroke-width:4;"/>
    <path clip-path="url(#pddc448b7a5)" d="M 972 587.719149 
L 970.672554 587.719149 
L 970.672554 575.923404 
L 972 575.923404 
" style="fill:none;stroke:#dd8452;stroke-width:4;"/>
    <path clip-path="url(#pddc448b7a5)" d="M 972 564.12766 
L 967.487999 564.12766 
L 967.487999 552.331915 
L 972 552.331915 
" style="fill:none;stroke:#dd8452;stroke-width:4;"/>
    <path clip-path="url(#pddc448b7a5)" d="M 970.672554 581.821277 
L 964.60948 581.821277 
L 964.60948 558.229787 
L 967.487999 558.229787 
" style="fill:none;stroke:#dd8452;stroke-width:4;"/>
    <path clip-path="url(#pddc448b7a5)" d="M 972 528.740426 
L 967.342863 528.740426 
L 967.342863 516.944681 
L 972 516.944681 
" style="fill:none;stroke:#dd8452;stroke-width:4;"/>
    <path clip-path="url(#pddc448b7a5)" d="M 972 540.53617 
L 954.295603 540.53617 
L 954.295603 522.842553 
L 967.342863 522.842553 
" style="fill:none;stroke:#dd8452;stroke-width:4;"/>
    <path clip-path="url(#pddc448b7a5)" d="M 964.60948 570.025532 
L 947.105304 570.025532 
L 947.105304 531.689362 
L 954.295603 531.689362 
" style="fill:none;stroke:#dd8452;stroke-width:4;"/>
    <path clip-path="url(#pddc448b7a5)" d="M 949.789946 624.580851 
L 913.161418 624.580851 
L 913.161418 550.857447 
L 947.105304 550.857447 
" style="fill:none;stroke:#dd8452;stroke-width:4;"/>
    <path clip-path="url(#pddc448b7a5)" d="M 972 493.353191 
L 965.902883 493.353191 
L 965.902883 481.557447 
L 972 481.557447 
" style="fill:none;stroke:#dd8452;stroke-width:4;"/>
    <path clip-path="url(#pddc448b7a5)" d="M 972 505.148936 
L 958.715755 505.148936 
L 958.715755 487.455319 
L 965.902883 487.455319 
" style="fill:none;stroke:#dd8452;stroke-width:4;"/>
    <path clip-path="url(#pddc448b7a5)" d="M 972 469.761702 
L 963.976243 469.761702 
L 963.976243 457.965957 
L 972 457.965957 
" style="fill:none;stroke:#dd8452;stroke-width:4;"/>
    <path clip-path="url(#pddc448b7a5)" d="M 972 446.170213 
L 969.376737 446.170213 
L 969.376737 434.374468 
L 972 434.374468 
" style="fill:none;stroke:#dd8452;stroke-width:4;"/>
    <path clip-path="url(#pddc448b7a5)" d="M 972 398.987234 
L 970.855728 398.987234 
L 970.855728 387.191489 
L 972 387.191489 
" style="fill:none;stroke:#dd8452;stroke-width:4;"/>
    <path clip-path="url(#pddc448b7a5)" d="M 972 410.782979 
L 970.034417 410.782979 
L 970.034417 393.089362 
L 970.855728 393.089362 
" style="fill:none;stroke:#dd8452;stroke-width:4;"/>
    <path clip-path="url(#pddc448b7a5)" d="M 972 422.578723 
L 967.969895 422.578723 
L 967.969895 401.93617 
L 970.034417 401.93617 
" style="fill:none;stroke:#dd8452;stroke-width:4;"/>
    <path clip-path="url(#pddc448b7a5)" d="M 969.376737 440.27234 
L 958.315857 440.27234 
L 958.315857 412.257447 
L 967.969895 412.257447 
" style="fill:none;stroke:#dd8452;stroke-width:4;"/>
    <path clip-path="url(#pddc448b7a5)" d="M 972 340.008511 
L 969.479721 340.008511 
L 969.479721 328.212766 
L 972 328.212766 
" style="fill:none;stroke:#dd8452;stroke-width:4;"/>
    <path clip-path="url(#pddc448b7a5)" d="M 972 351.804255 
L 964.366123 351.804255 
L 964.366123 334.110638 
L 969.479721 334.110638 
" style="fill:none;stroke:#dd8452;stroke-width:4;"/>
    <path clip-path="url(#pddc448b7a5)" d="M 972 363.6 
L 959.325623 363.6 
L 959.325623 342.957447 
L 964.366123 342.957447 
" style="fill:none;stroke:#dd8452;stroke-width:4;"/>
    <path clip-path="url(#pddc448b7a5)" d="M 972 375.395745 
L 950.641581 375.395745 
L 950.641581 353.278723 
L 959.325623 353.278723 
" style="fill:none;stroke:#dd8452;stroke-width:4;"/>
    <path clip-path="url(#pddc448b7a5)" d="M 958.315857 426.264894 
L 927.451874 426.264894 
L 927.451874 364.337234 
L 950.641581 364.337234 
" style="fill:none;stroke:#dd8452;stroke-width:4;"/>
    <path clip-path="url(#pddc448b7a5)" d="M 963.976243 463.86383 
L 903.790238 463.86383 
L 903.790238 395.301064 
L 927.451874 395.301064 
" style="fill:none;stroke:#dd8452;stroke-width:4;"/>
    <path clip-path="url(#pddc448b7a5)" d="M 958.715755 496.302128 
L 860.921028 496.302128 
L 860.921028 429.582447 
L 903.790238 429.582447 
" style="fill:none;stroke:#dd8452;stroke-width:4;"/>
    <path clip-path="url(#pddc448b7a5)" d="M 913.161418 587.719149 
L 714.406893 587.719149 
L 714.406893 462.942287 
L 860.921028 462.942287 
" style="fill:none;stroke:#dd8452;stroke-width:4;"/>
   </g>
   <g id="LineCollection_2">
    <path clip-path="url(#pddc448b7a5)" d="M 972 292.825532 
L 963.856428 292.825532 
L 963.856428 281.029787 
L 972 281.029787 
" style="fill:none;stroke:#55a868;stroke-width:4;"/>
    <path clip-path="url(#pddc448b7a5)" d="M 972 304.621277 
L 954.615901 304.621277 
L 954.615901 286.92766 
L 963.856428 286.92766 
" style="fill:none;stroke:#55a868;stroke-width:4;"/>
    <path clip-path="url(#pddc448b7a5)" d="M 972 316.417021 
L 925.894574 316.417021 
L 925.894574 295.774468 
L 954.615901 295.774468 
" style="fill:none;stroke:#55a868;stroke-width:4;"/>
    <path clip-path="url(#pddc448b7a5)" d="M 972 269.234043 
L 970.136682 269.234043 
L 970.136682 257.438298 
L 972 257.438298 
" style="fill:none;stroke:#55a868;stroke-width:4;"/>
    <path clip-path="url(#pddc448b7a5)" d="M 972 222.051064 
L 970.190177 222.051064 
L 970.190177 210.255319 
L 972 210.255319 
" style="fill:none;stroke:#55a868;stroke-width:4;"/>
    <path clip-path="url(#pddc448b7a5)" d="M 972 233.846809 
L 960.478166 233.846809 
L 960.478166 216.153191 
L 970.190177 216.153191 
" style="fill:none;stroke:#55a868;stroke-width:4;"/>
    <path clip-path="url(#pddc448b7a5)" d="M 972 245.642553 
L 955.94626 245.642553 
L 955.94626 225 
L 960.478166 225 
" style="fill:none;stroke:#55a868;stroke-width:4;"/>
    <path clip-path="url(#pddc448b7a5)" d="M 970.136682 263.33617 
L 923.984405 263.33617 
L 923.984405 235.321277 
L 955.94626 235.321277 
" style="fill:none;stroke:#55a868;stroke-width:4;"/>
    <path clip-path="url(#pddc448b7a5)" d="M 972 186.66383 
L 970.427126 186.66383 
L 970.427126 174.868085 
L 972 174.868085 
" style="fill:none;stroke:#55a868;stroke-width:4;"/>
    <path clip-path="url(#pddc448b7a5)" d="M 972 163.07234 
L 971.170644 163.07234 
L 971.170644 151.276596 
L 972 151.276596 
" style="fill:none;stroke:#55a868;stroke-width:4;"/>
    <path clip-path="url(#pddc448b7a5)" d="M 972 139.480851 
L 966.066744 139.480851 
L 966.066744 127.685106 
L 972 127.685106 
" style="fill:none;stroke:#55a868;stroke-width:4;"/>
    <path clip-path="url(#pddc448b7a5)" d="M 971.170644 157.174468 
L 962.964541 157.174468 
L 962.964541 133.582979 
L 966.066744 133.582979 
" style="fill:none;stroke:#55a868;stroke-width:4;"/>
    <path clip-path="url(#pddc448b7a5)" d="M 970.427126 180.765957 
L 952.125203 180.765957 
L 952.125203 145.378723 
L 962.964541 145.378723 
" style="fill:none;stroke:#55a868;stroke-width:4;"/>
    <path clip-path="url(#pddc448b7a5)" d="M 972 198.459574 
L 915.022532 198.459574 
L 915.022532 163.07234 
L 952.125203 163.07234 
" style="fill:none;stroke:#55a868;stroke-width:4;"/>
    <path clip-path="url(#pddc448b7a5)" d="M 923.984405 249.328723 
L 874.512415 249.328723 
L 874.512415 180.765957 
L 915.022532 180.765957 
" style="fill:none;stroke:#55a868;stroke-width:4;"/>
    <path clip-path="url(#pddc448b7a5)" d="M 925.894574 306.095745 
L 850.548292 306.095745 
L 850.548292 215.04734 
L 874.512415 215.04734 
" style="fill:none;stroke:#55a868;stroke-width:4;"/>
    <path clip-path="url(#pddc448b7a5)" d="M 972 104.093617 
L 945.9749 104.093617 
L 945.9749 92.297872 
L 972 92.297872 
" style="fill:none;stroke:#55a868;stroke-width:4;"/>
    <path clip-path="url(#pddc448b7a5)" d="M 972 115.889362 
L 691.788464 115.889362 
L 691.788464 98.195745 
L 945.9749 98.195745 
" style="fill:none;stroke:#55a868;stroke-width:4;"/>
    <path clip-path="url(#pddc448b7a5)" d="M 850.548292 260.571543 
L 673.79438 260.571543 
L 673.79438 107.042553 
L 691.788464 107.042553 
" style="fill:none;stroke:#55a868;stroke-width:4;"/>
   </g>
   <g id="LineCollection_3">
    <path clip-path="url(#pddc448b7a5)" d="M 714.406893 525.330718 
L 174.857143 525.330718 
L 174.857143 183.807048 
L 673.79438 183.807048 
" style="fill:none;stroke:#4c72b0;stroke-width:4;"/>
   </g>
   <g id="patch_3">
    <path d="M 135 640.8 
L 135 86.4 
" style="fill:none;stroke:#ffffff;stroke-linecap:square;stroke-linejoin:miter;stroke-width:1.25;"/>
   </g>
   <g id="patch_4">
    <path d="M 972 640.8 
L 972 86.4 
" style="fill:none;stroke:#ffffff;stroke-linecap:square;stroke-linejoin:miter;stroke-width:1.25;"/>
   </g>
   <g id="patch_5">
    <path d="M 135 640.8 
L 972 640.8 
" style="fill:none;stroke:#ffffff;stroke-linecap:square;stroke-linejoin:miter;stroke-width:1.25;"/>
   </g>
   <g id="patch_6">
    <path d="M 135 86.4 
L 972 86.4 
" style="fill:none;stroke:#ffffff;stroke-linecap:square;stroke-linejoin:miter;stroke-width:1.25;"/>
   </g>
   <g id="text_57">
    <!-- _Hierarchical Clustering Profile -->
    <defs>
     <path d="M -1.515625 -19.875 
L -1.515625 -13.53125 
L 56.734375 -13.53125 
L 56.734375 -19.875 
z
" id="ArialMT-95"/>
     <path d="M 8.015625 0 
L 8.015625 71.578125 
L 17.484375 71.578125 
L 17.484375 42.1875 
L 54.6875 42.1875 
L 54.6875 71.578125 
L 64.15625 71.578125 
L 64.15625 0 
L 54.6875 0 
L 54.6875 33.734375 
L 17.484375 33.734375 
L 17.484375 0 
z
" id="ArialMT-72"/>
     <path d="M 6.5 0 
L 6.5 51.859375 
L 14.40625 51.859375 
L 14.40625 44 
Q 17.4375 49.515625 20 51.265625 
Q 22.5625 53.03125 25.640625 53.03125 
Q 30.078125 53.03125 34.671875 50.203125 
L 31.640625 42.046875 
Q 28.421875 43.953125 25.203125 43.953125 
Q 22.3125 43.953125 20.015625 42.21875 
Q 17.71875 40.484375 16.75 37.40625 
Q 15.28125 32.71875 15.28125 27.15625 
L 15.28125 0 
z
" id="ArialMT-114"/>
     <path d="M 6.59375 0 
L 6.59375 71.578125 
L 15.375 71.578125 
L 15.375 45.90625 
Q 21.53125 53.03125 30.90625 53.03125 
Q 36.671875 53.03125 40.921875 50.75 
Q 45.171875 48.484375 47 44.484375 
Q 48.828125 40.484375 48.828125 32.859375 
L 48.828125 0 
L 40.046875 0 
L 40.046875 32.859375 
Q 40.046875 39.453125 37.1875 42.453125 
Q 34.328125 45.453125 29.109375 45.453125 
Q 25.203125 45.453125 21.75 43.421875 
Q 18.3125 41.40625 16.84375 37.9375 
Q 15.375 34.46875 15.375 28.375 
L 15.375 0 
z
" id="ArialMT-104"/>
     <path d="M 6.390625 0 
L 6.390625 71.578125 
L 15.1875 71.578125 
L 15.1875 0 
z
" id="ArialMT-108"/>
     <path d="M 58.796875 25.09375 
L 68.265625 22.703125 
Q 65.28125 11.03125 57.546875 4.90625 
Q 49.8125 -1.21875 38.625 -1.21875 
Q 27.046875 -1.21875 19.796875 3.484375 
Q 12.546875 8.203125 8.765625 17.140625 
Q 4.984375 26.078125 4.984375 36.328125 
Q 4.984375 47.515625 9.25 55.828125 
Q 13.53125 64.15625 21.40625 68.46875 
Q 29.296875 72.796875 38.765625 72.796875 
Q 49.515625 72.796875 56.828125 67.328125 
Q 64.15625 61.859375 67.046875 51.953125 
L 57.71875 49.75 
Q 55.21875 57.5625 50.484375 61.125 
Q 45.75 64.703125 38.578125 64.703125 
Q 30.328125 64.703125 24.78125 60.734375 
Q 19.234375 56.78125 16.984375 50.109375 
Q 14.75 43.453125 14.75 36.375 
Q 14.75 27.25 17.40625 20.4375 
Q 20.0625 13.625 25.671875 10.25 
Q 31.296875 6.890625 37.84375 6.890625 
Q 45.796875 6.890625 51.3125 11.46875 
Q 56.84375 16.0625 58.796875 25.09375 
z
" id="ArialMT-67"/>
     <path d="M 40.578125 0 
L 40.578125 7.625 
Q 34.515625 -1.171875 24.125 -1.171875 
Q 19.53125 -1.171875 15.546875 0.578125 
Q 11.578125 2.34375 9.640625 5 
Q 7.71875 7.671875 6.9375 11.53125 
Q 6.390625 14.109375 6.390625 19.734375 
L 6.390625 51.859375 
L 15.1875 51.859375 
L 15.1875 23.09375 
Q 15.1875 16.21875 15.71875 13.8125 
Q 16.546875 10.359375 19.234375 8.375 
Q 21.921875 6.390625 25.875 6.390625 
Q 29.828125 6.390625 33.296875 8.421875 
Q 36.765625 10.453125 38.203125 13.9375 
Q 39.65625 17.4375 39.65625 24.078125 
L 39.65625 51.859375 
L 48.4375 51.859375 
L 48.4375 0 
z
" id="ArialMT-117"/>
     <path d="M 4.984375 -4.296875 
L 13.53125 -5.5625 
Q 14.0625 -9.515625 16.5 -11.328125 
Q 19.78125 -13.765625 25.4375 -13.765625 
Q 31.546875 -13.765625 34.859375 -11.328125 
Q 38.1875 -8.890625 39.359375 -4.5 
Q 40.046875 -1.8125 39.984375 6.78125 
Q 34.234375 0 25.640625 0 
Q 14.9375 0 9.078125 7.71875 
Q 3.21875 15.4375 3.21875 26.21875 
Q 3.21875 33.640625 5.90625 39.90625 
Q 8.59375 46.1875 13.6875 49.609375 
Q 18.796875 53.03125 25.6875 53.03125 
Q 34.859375 53.03125 40.828125 45.609375 
L 40.828125 51.859375 
L 48.921875 51.859375 
L 48.921875 7.03125 
Q 48.921875 -5.078125 46.453125 -10.125 
Q 44 -15.1875 38.640625 -18.109375 
Q 33.296875 -21.046875 25.484375 -21.046875 
Q 16.21875 -21.046875 10.5 -16.875 
Q 4.78125 -12.703125 4.984375 -4.296875 
z
M 12.25 26.859375 
Q 12.25 16.65625 16.296875 11.96875 
Q 20.359375 7.28125 26.46875 7.28125 
Q 32.515625 7.28125 36.609375 11.9375 
Q 40.71875 16.609375 40.71875 26.5625 
Q 40.71875 36.078125 36.5 40.90625 
Q 32.28125 45.75 26.3125 45.75 
Q 20.453125 45.75 16.34375 40.984375 
Q 12.25 36.234375 12.25 26.859375 
z
" id="ArialMT-103"/>
     <path d="M 7.71875 0 
L 7.71875 71.578125 
L 34.71875 71.578125 
Q 41.84375 71.578125 45.609375 70.90625 
Q 50.875 70.015625 54.4375 67.546875 
Q 58.015625 65.09375 60.1875 60.640625 
Q 62.359375 56.203125 62.359375 50.875 
Q 62.359375 41.75 56.546875 35.421875 
Q 50.734375 29.109375 35.546875 29.109375 
L 17.1875 29.109375 
L 17.1875 0 
z
M 17.1875 37.546875 
L 35.6875 37.546875 
Q 44.875 37.546875 48.734375 40.96875 
Q 52.59375 44.390625 52.59375 50.59375 
Q 52.59375 55.078125 50.3125 58.265625 
Q 48.046875 61.46875 44.34375 62.5 
Q 41.9375 63.140625 35.5 63.140625 
L 17.1875 63.140625 
z
" id="ArialMT-80"/>
     <path d="M 3.328125 25.921875 
Q 3.328125 40.328125 11.328125 47.265625 
Q 18.015625 53.03125 27.640625 53.03125 
Q 38.328125 53.03125 45.109375 46.015625 
Q 51.90625 39.015625 51.90625 26.65625 
Q 51.90625 16.65625 48.90625 10.90625 
Q 45.90625 5.171875 40.15625 2 
Q 34.421875 -1.171875 27.640625 -1.171875 
Q 16.75 -1.171875 10.03125 5.8125 
Q 3.328125 12.796875 3.328125 25.921875 
z
M 12.359375 25.921875 
Q 12.359375 15.96875 16.703125 11.015625 
Q 21.046875 6.0625 27.640625 6.0625 
Q 34.1875 6.0625 38.53125 11.03125 
Q 42.875 16.015625 42.875 26.21875 
Q 42.875 35.84375 38.5 40.796875 
Q 34.125 45.75 27.640625 45.75 
Q 21.046875 45.75 16.703125 40.8125 
Q 12.359375 35.890625 12.359375 25.921875 
z
" id="ArialMT-111"/>
     <path d="M 8.6875 0 
L 8.6875 45.015625 
L 0.921875 45.015625 
L 0.921875 51.859375 
L 8.6875 51.859375 
L 8.6875 57.375 
Q 8.6875 62.59375 9.625 65.140625 
Q 10.890625 68.5625 14.078125 70.671875 
Q 17.28125 72.796875 23.046875 72.796875 
Q 26.765625 72.796875 31.25 71.921875 
L 29.9375 64.265625 
Q 27.203125 64.75 24.75 64.75 
Q 20.75 64.75 19.09375 63.03125 
Q 17.4375 61.328125 17.4375 56.640625 
L 17.4375 51.859375 
L 27.546875 51.859375 
L 27.546875 45.015625 
L 17.4375 45.015625 
L 17.4375 0 
z
" id="ArialMT-102"/>
    </defs>
    <g style="fill:#262626;" transform="translate(381.914062 80.4)scale(0.25 -0.25)">
     <use xlink:href="#ArialMT-95"/>
     <use x="55.615234" xlink:href="#ArialMT-72"/>
     <use x="127.832031" xlink:href="#ArialMT-105"/>
     <use x="150.048828" xlink:href="#ArialMT-101"/>
     <use x="205.664062" xlink:href="#ArialMT-114"/>
     <use x="238.964844" xlink:href="#ArialMT-97"/>
     <use x="294.580078" xlink:href="#ArialMT-114"/>
     <use x="327.880859" xlink:href="#ArialMT-99"/>
     <use x="377.880859" xlink:href="#ArialMT-104"/>
     <use x="433.496094" xlink:href="#ArialMT-105"/>
     <use x="455.712891" xlink:href="#ArialMT-99"/>
     <use x="505.712891" xlink:href="#ArialMT-97"/>
     <use x="561.328125" xlink:href="#ArialMT-108"/>
     <use x="583.544922" xlink:href="#ArialMT-32"/>
     <use x="611.328125" xlink:href="#ArialMT-67"/>
     <use x="683.544922" xlink:href="#ArialMT-108"/>
     <use x="705.761719" xlink:href="#ArialMT-117"/>
     <use x="761.376953" xlink:href="#ArialMT-115"/>
     <use x="811.376953" xlink:href="#ArialMT-116"/>
     <use x="839.160156" xlink:href="#ArialMT-101"/>
     <use x="894.775391" xlink:href="#ArialMT-114"/>
     <use x="928.076172" xlink:href="#ArialMT-105"/>
     <use x="950.292969" xlink:href="#ArialMT-110"/>
     <use x="1005.908203" xlink:href="#ArialMT-103"/>
     <use x="1061.523438" xlink:href="#ArialMT-32"/>
     <use x="1089.306641" xlink:href="#ArialMT-80"/>
     <use x="1156.005859" xlink:href="#ArialMT-114"/>
     <use x="1189.306641" xlink:href="#ArialMT-111"/>
     <use x="1244.921875" xlink:href="#ArialMT-102"/>
     <use x="1272.705078" xlink:href="#ArialMT-105"/>
     <use x="1294.921875" xlink:href="#ArialMT-108"/>
     <use x="1317.138672" xlink:href="#ArialMT-101"/>
    </g>
   </g>
  </g>
 </g>
 <defs>
  <clipPath id="pddc448b7a5">
   <rect height="554.4" width="837" x="135" y="86.4"/>
  </clipPath>
 </defs>
</svg>
