<?xml version="1.0" encoding="utf-8"?>
<!-- Generator: Adobe Illustrator 16.0.0, SVG Export Plug-In . SVG Version: 6.00 Build 0)  -->
<!DOCTYPE svg PUBLIC "-//W3C//DTD SVG 1.1//EN" "http://www.w3.org/Graphics/SVG/1.1/DTD/svg11.dtd">
<svg version="1.1" id="Layer_1" xmlns="http://www.w3.org/2000/svg" xmlns:xlink="http://www.w3.org/1999/xlink" x="0px" y="0px"
	 width="612px" height="792px" viewBox="0 0 612 792" enable-background="new 0 0 612 792" xml:space="preserve">
<g>
	<path fill="none" stroke="#000000" stroke-linecap="square" stroke-miterlimit="10" d="M165.8,97h-31.2H165.8z"/>
</g>
<g>
	<g>
		<defs>
			<circle id="SVGID_1_" cx="165.8" cy="97" r="6.6"/>
		</defs>
		<clipPath id="SVGID_2_">
			<use xlink:href="#SVGID_1_"  overflow="visible"/>
		</clipPath>
		<circle clip-path="url(#SVGID_2_)" fill="#FFFFFF" cx="165.8" cy="97" r="6.6"/>
	</g>
	<g>
		<defs>
			<circle id="SVGID_3_" cx="165.8" cy="97" r="6.6"/>
		</defs>
		<clipPath id="SVGID_4_">
			<use xlink:href="#SVGID_3_"  overflow="visible"/>
		</clipPath>
		<rect x="159.2" y="90.4" clip-path="url(#SVGID_4_)" fill="#0000FA" width="13.2" height="13.2"/>
	</g>
	<g>
		<defs>
			<circle id="SVGID_5_" cx="165.8" cy="97" r="6.6"/>
		</defs>
		<clipPath id="SVGID_6_">
			<use xlink:href="#SVGID_5_"  overflow="visible"/>
		</clipPath>
		
			<rect x="159.2" y="90.4" clip-path="url(#SVGID_6_)" fill="none" stroke="#000000" stroke-linecap="square" stroke-miterlimit="10" width="13.2" height="13.2"/>
	</g>
	<circle fill="none" stroke="#000000" stroke-linecap="square" stroke-miterlimit="10" cx="165.8" cy="97" r="6.6"/>
</g>
<g>
	<path fill="none" stroke="#000000" stroke-linecap="square" stroke-miterlimit="10" d="M134.6,97l-31.2,31.2L134.6,97z"/>
</g>
<g>
	<g>
		<defs>
			<circle id="SVGID_7_" cx="134.6" cy="97" r="6.6"/>
		</defs>
		<clipPath id="SVGID_8_">
			<use xlink:href="#SVGID_7_"  overflow="visible"/>
		</clipPath>
		<circle clip-path="url(#SVGID_8_)" fill="#FFFFFF" cx="134.6" cy="97" r="6.6"/>
	</g>
	<g>
		<defs>
			<circle id="SVGID_9_" cx="134.6" cy="97" r="6.6"/>
		</defs>
		<clipPath id="SVGID_10_">
			<use xlink:href="#SVGID_9_"  overflow="visible"/>
		</clipPath>
		<rect x="128" y="90.4" clip-path="url(#SVGID_10_)" fill="#FFFF00" width="13.2" height="13.2"/>
	</g>
	<g>
		<defs>
			<circle id="SVGID_11_" cx="134.6" cy="97" r="6.6"/>
		</defs>
		<clipPath id="SVGID_12_">
			<use xlink:href="#SVGID_11_"  overflow="visible"/>
		</clipPath>
		
			<rect x="128" y="90.4" clip-path="url(#SVGID_12_)" fill="none" stroke="#000000" stroke-linecap="square" stroke-miterlimit="10" width="13.2" height="13.2"/>
	</g>
	<circle fill="none" stroke="#000000" stroke-linecap="square" stroke-miterlimit="10" cx="134.6" cy="97" r="6.6"/>
</g>
<g>
	<path fill="none" stroke="#000000" stroke-linecap="square" stroke-miterlimit="10" d="M103.4,128.2H72.2H103.4z"/>
</g>
<g>
	<g>
		<defs>
			<rect id="SVGID_13_" x="96.8" y="121.6" width="13.2" height="13.2"/>
		</defs>
		<clipPath id="SVGID_14_">
			<use xlink:href="#SVGID_13_"  overflow="visible"/>
		</clipPath>
		<rect x="96.8" y="121.6" clip-path="url(#SVGID_14_)" fill="#FFFFFF" width="13.2" height="13.2"/>
	</g>
	<g>
		<defs>
			<rect id="SVGID_15_" x="96.8" y="121.6" width="13.2" height="13.2"/>
		</defs>
		<clipPath id="SVGID_16_">
			<use xlink:href="#SVGID_15_"  overflow="visible"/>
		</clipPath>
		<rect x="96.8" y="121.6" clip-path="url(#SVGID_16_)" fill="#0000FA" width="13.2" height="13.2"/>
	</g>
	<g>
		<defs>
			<rect id="SVGID_17_" x="96.8" y="121.6" width="13.2" height="13.2"/>
		</defs>
		<clipPath id="SVGID_18_">
			<use xlink:href="#SVGID_17_"  overflow="visible"/>
		</clipPath>
		
			<rect x="96.8" y="121.6" clip-path="url(#SVGID_18_)" fill="none" stroke="#000000" stroke-linecap="square" stroke-miterlimit="10" width="13.2" height="13.2"/>
	</g>
	
		<rect x="96.8" y="121.6" fill="none" stroke="#000000" stroke-linecap="square" stroke-miterlimit="10" width="13.2" height="13.2"/>
</g>
<g>
	<g>
		<defs>
			<circle id="SVGID_19_" cx="72.2" cy="128.2" r="6.6"/>
		</defs>
		<clipPath id="SVGID_20_">
			<use xlink:href="#SVGID_19_"  overflow="visible"/>
		</clipPath>
		<circle clip-path="url(#SVGID_20_)" fill="#FFFFFF" cx="72.2" cy="128.2" r="6.6"/>
	</g>
	<g>
		<defs>
			<circle id="SVGID_21_" cx="72.2" cy="128.2" r="6.6"/>
		</defs>
		<clipPath id="SVGID_22_">
			<use xlink:href="#SVGID_21_"  overflow="visible"/>
		</clipPath>
		<rect x="65.6" y="121.6" clip-path="url(#SVGID_22_)" fill="#FFFF00" width="13.2" height="13.2"/>
	</g>
	<g>
		<defs>
			<circle id="SVGID_23_" cx="72.2" cy="128.2" r="6.6"/>
		</defs>
		<clipPath id="SVGID_24_">
			<use xlink:href="#SVGID_23_"  overflow="visible"/>
		</clipPath>
		
			<rect x="65.6" y="121.6" clip-path="url(#SVGID_24_)" fill="none" stroke="#000000" stroke-linecap="square" stroke-miterlimit="10" width="13.2" height="13.2"/>
	</g>
	<circle fill="none" stroke="#000000" stroke-linecap="square" stroke-miterlimit="10" cx="72.2" cy="128.2" r="6.6"/>
</g>
<g>
	<rect x="81.2" y="128.8" fill="#FFFFFF" width="4.2" height="7.8"/>
	<path d="M82.297,136.15c0.188,0.137,0.456,0.206,0.806,0.206c0.356,0,0.638-0.104,0.844-0.314c0.207-0.209,0.31-0.492,0.31-0.849
		c0-0.494-0.106-0.847-0.319-1.059c-0.219-0.212-0.531-0.319-0.938-0.319h-0.337v-0.384h0.178c0.3,0,0.553-0.084,0.759-0.253
		c0.168-0.137,0.253-0.394,0.253-0.769c0-0.163-0.056-0.337-0.168-0.525c-0.182-0.306-0.378-0.456-0.591-0.45
		c-0.531,0.019-0.797,0.497-0.797,1.435V136.15z M81.65,138.1v-5.231c0-0.981,0.266-1.538,0.797-1.669
		c0.275-0.075,0.51-0.112,0.703-0.112c0.438,0,0.797,0.172,1.078,0.516c0.225,0.275,0.337,0.528,0.337,0.759
		c0,0.337-0.081,0.603-0.244,0.797s-0.391,0.337-0.684,0.431c0.431,0.062,0.769,0.222,1.012,0.478
		c0.231,0.25,0.347,0.621,0.347,1.111s-0.164,0.867-0.492,1.129c-0.328,0.263-0.802,0.394-1.42,0.394
		c-0.381,0-0.644-0.028-0.788-0.084v1.481H81.65z"/>
</g>
<g>
	<rect x="114.2" y="117.4" fill="#FFFFFF" width="4.2" height="7.8"/>
	<path d="M115.297,124.75c0.188,0.137,0.456,0.206,0.806,0.206c0.356,0,0.638-0.104,0.844-0.314c0.207-0.209,0.31-0.492,0.31-0.849
		c0-0.494-0.106-0.847-0.319-1.059c-0.219-0.212-0.531-0.319-0.938-0.319h-0.337v-0.384h0.178c0.3,0,0.553-0.084,0.759-0.253
		c0.168-0.137,0.253-0.394,0.253-0.769c0-0.163-0.056-0.337-0.168-0.525c-0.182-0.306-0.378-0.457-0.591-0.45
		c-0.531,0.019-0.797,0.497-0.797,1.435V124.75z M114.65,126.7v-5.231c0-0.981,0.266-1.538,0.797-1.669
		c0.275-0.075,0.51-0.112,0.703-0.112c0.438,0,0.797,0.172,1.078,0.516c0.225,0.275,0.337,0.528,0.337,0.759
		c0,0.337-0.081,0.603-0.244,0.797c-0.163,0.193-0.391,0.337-0.684,0.431c0.431,0.062,0.769,0.222,1.012,0.478
		c0.231,0.25,0.347,0.62,0.347,1.111s-0.164,0.867-0.492,1.13s-0.802,0.394-1.42,0.394c-0.381,0-0.644-0.028-0.788-0.084v1.481
		H114.65z"/>
</g>
<g>
	<rect x="143.6" y="97.6" fill="#FFFFFF" width="4.2" height="7.8"/>
	<path d="M144.697,104.95c0.188,0.138,0.456,0.207,0.806,0.207c0.356,0,0.638-0.105,0.844-0.314c0.207-0.209,0.31-0.492,0.31-0.848
		c0-0.494-0.106-0.847-0.319-1.06c-0.219-0.212-0.531-0.319-0.938-0.319h-0.337v-0.384h0.178c0.3,0,0.553-0.084,0.759-0.253
		c0.169-0.138,0.253-0.394,0.253-0.769c0-0.163-0.056-0.337-0.168-0.525c-0.182-0.306-0.378-0.456-0.591-0.45
		c-0.531,0.019-0.797,0.497-0.797,1.434V104.95z M144.05,106.9v-5.231c0-0.981,0.266-1.538,0.797-1.668
		c0.275-0.075,0.51-0.113,0.703-0.113c0.438,0,0.797,0.172,1.078,0.516c0.225,0.275,0.338,0.528,0.338,0.759
		c0,0.338-0.082,0.604-0.244,0.797c-0.163,0.194-0.39,0.338-0.684,0.432c0.431,0.062,0.769,0.222,1.012,0.478
		c0.231,0.25,0.347,0.62,0.347,1.111s-0.164,0.867-0.492,1.13c-0.328,0.262-0.802,0.394-1.42,0.394
		c-0.381,0-0.644-0.028-0.788-0.084v1.481H144.05z"/>
</g>
<g>
	<path fill="none" stroke="#000000" stroke-linecap="square" stroke-miterlimit="10" d="M134.6,165.4h-31.2H134.6z"/>
</g>
<g>
	<g>
		<defs>
			<circle id="SVGID_25_" cx="134.6" cy="165.4" r="6.6"/>
		</defs>
		<clipPath id="SVGID_26_">
			<use xlink:href="#SVGID_25_"  overflow="visible"/>
		</clipPath>
		<circle clip-path="url(#SVGID_26_)" fill="#FFFFFF" cx="134.6" cy="165.4" r="6.6"/>
	</g>
	<g>
		<defs>
			<circle id="SVGID_27_" cx="134.6" cy="165.4" r="6.6"/>
		</defs>
		<clipPath id="SVGID_28_">
			<use xlink:href="#SVGID_27_"  overflow="visible"/>
		</clipPath>
		<rect x="128" y="158.8" clip-path="url(#SVGID_28_)" fill="#0000FA" width="13.2" height="13.2"/>
	</g>
	<g>
		<defs>
			<circle id="SVGID_29_" cx="134.6" cy="165.4" r="6.6"/>
		</defs>
		<clipPath id="SVGID_30_">
			<use xlink:href="#SVGID_29_"  overflow="visible"/>
		</clipPath>
		
			<rect x="128" y="158.8" clip-path="url(#SVGID_30_)" fill="none" stroke="#000000" stroke-linecap="square" stroke-miterlimit="10" width="13.2" height="13.2"/>
	</g>
	<circle fill="none" stroke="#000000" stroke-linecap="square" stroke-miterlimit="10" cx="134.6" cy="165.4" r="6.6"/>
</g>
<g>
	<path fill="none" stroke="#000000" stroke-linecap="square" stroke-miterlimit="10" d="M103.4,165.4l-31.2,31.2L103.4,165.4z"/>
</g>
<g>
	<g>
		<defs>
			<circle id="SVGID_31_" cx="103.4" cy="165.4" r="6.6"/>
		</defs>
		<clipPath id="SVGID_32_">
			<use xlink:href="#SVGID_31_"  overflow="visible"/>
		</clipPath>
		<circle clip-path="url(#SVGID_32_)" fill="#FFFFFF" cx="103.4" cy="165.4" r="6.6"/>
	</g>
	<g>
		<defs>
			<circle id="SVGID_33_" cx="103.4" cy="165.4" r="6.6"/>
		</defs>
		<clipPath id="SVGID_34_">
			<use xlink:href="#SVGID_33_"  overflow="visible"/>
		</clipPath>
		<rect x="96.8" y="158.8" clip-path="url(#SVGID_34_)" fill="#FFFF00" width="13.2" height="13.2"/>
	</g>
	<g>
		<defs>
			<circle id="SVGID_35_" cx="103.4" cy="165.4" r="6.6"/>
		</defs>
		<clipPath id="SVGID_36_">
			<use xlink:href="#SVGID_35_"  overflow="visible"/>
		</clipPath>
		
			<rect x="96.8" y="158.8" clip-path="url(#SVGID_36_)" fill="none" stroke="#000000" stroke-linecap="square" stroke-miterlimit="10" width="13.2" height="13.2"/>
	</g>
	<circle fill="none" stroke="#000000" stroke-linecap="square" stroke-miterlimit="10" cx="103.4" cy="165.4" r="6.6"/>
</g>
<g>
	<g>
		<defs>
			
				<rect id="SVGID_37_" x="67.534" y="191.933" transform="matrix(-0.7071 -0.7071 0.7071 -0.7071 -15.7636 386.6702)" width="9.333" height="9.334"/>
		</defs>
		<clipPath id="SVGID_38_">
			<use xlink:href="#SVGID_37_"  overflow="visible"/>
		</clipPath>
		<polygon clip-path="url(#SVGID_38_)" fill="#FFFFFF" points="72.2,190 78.8,196.6 72.2,203.2 65.6,196.6 		"/>
	</g>
	<g>
		<defs>
			
				<rect id="SVGID_39_" x="67.534" y="191.933" transform="matrix(-0.7071 -0.7071 0.7071 -0.7071 -15.7636 386.6702)" width="9.333" height="9.334"/>
		</defs>
		<clipPath id="SVGID_40_">
			<use xlink:href="#SVGID_39_"  overflow="visible"/>
		</clipPath>
		<rect x="65.6" y="190" clip-path="url(#SVGID_40_)" fill="#C800C8" width="13.2" height="13.2"/>
	</g>
	<g>
		<defs>
			
				<rect id="SVGID_41_" x="67.534" y="191.933" transform="matrix(-0.7071 -0.7071 0.7071 -0.7071 -15.7636 386.6702)" width="9.333" height="9.334"/>
		</defs>
		<clipPath id="SVGID_42_">
			<use xlink:href="#SVGID_41_"  overflow="visible"/>
		</clipPath>
		
			<rect x="65.6" y="190" clip-path="url(#SVGID_42_)" fill="none" stroke="#000000" stroke-linecap="square" stroke-miterlimit="10" width="13.2" height="13.2"/>
	</g>
	<polygon fill="none" stroke="#000000" stroke-linecap="square" stroke-miterlimit="10" points="72.2,190 78.8,196.6 72.2,203.2 
		65.6,196.6 	"/>
</g>
<g>
	<rect x="83" y="187.6" fill="#FFFFFF" width="4.8" height="4.8"/>
	<path d="M86.112,191.481l-0.141,0.384c-0.075,0.207-0.225,0.372-0.45,0.497c-0.144,0.087-0.344,0.128-0.6,0.122
		c-0.462,0-0.837-0.182-1.125-0.544c-0.294-0.362-0.44-0.837-0.44-1.425c0-0.575,0.146-1.05,0.44-1.425
		c0.275-0.356,0.7-0.531,1.275-0.525c0.4,0,0.7,0.078,0.9,0.234c0.182,0.137,0.306,0.356,0.375,0.656l0.028,0.131l0.131-0.384
		c0.087-0.25,0.25-0.435,0.487-0.553h0.356v0.206c-0.225,0.069-0.375,0.212-0.45,0.431l-0.366,1.003l0.244,1.078
		c0.081,0.369,0.168,0.572,0.262,0.609c0.125,0.056,0.334-0.003,0.628-0.178v0.431c-0.475,0.275-0.881,0.269-1.219-0.019
		c-0.15-0.131-0.247-0.294-0.291-0.488L86.112,191.481z M85.953,190.787l-0.216-1.031c-0.119-0.55-0.337-0.825-0.656-0.825
		c-0.269-0.006-0.506,0.137-0.712,0.431c-0.168,0.231-0.253,0.619-0.253,1.163c0,0.519,0.084,0.909,0.253,1.172
		c0.188,0.287,0.438,0.422,0.75,0.403c0.269-0.025,0.5-0.325,0.694-0.9L85.953,190.787z"/>
</g>
<g>
	<rect x="112.4" y="166" fill="#FFFFFF" width="4.2" height="7.8"/>
	<path d="M113.497,173.35c0.188,0.138,0.456,0.207,0.806,0.207c0.356,0,0.637-0.104,0.844-0.314
		c0.206-0.209,0.309-0.492,0.309-0.849c0-0.494-0.106-0.847-0.318-1.06c-0.219-0.212-0.531-0.318-0.938-0.318h-0.338v-0.385h0.178
		c0.3,0,0.553-0.084,0.759-0.253c0.169-0.137,0.253-0.394,0.253-0.769c0-0.163-0.056-0.338-0.169-0.525
		c-0.181-0.306-0.378-0.456-0.59-0.45c-0.531,0.019-0.797,0.497-0.797,1.434V173.35z M112.85,175.3v-5.231
		c0-0.981,0.266-1.537,0.797-1.668c0.275-0.075,0.509-0.113,0.703-0.113c0.438,0,0.797,0.172,1.078,0.516
		c0.225,0.275,0.337,0.528,0.337,0.76c0,0.337-0.081,0.603-0.244,0.797c-0.163,0.193-0.391,0.337-0.685,0.431
		c0.431,0.062,0.769,0.222,1.013,0.478c0.231,0.25,0.347,0.62,0.347,1.111s-0.164,0.867-0.492,1.13
		c-0.328,0.262-0.801,0.394-1.42,0.394c-0.381,0-0.644-0.028-0.787-0.084v1.481H112.85z"/>
</g>
<g>
	<g>
		<path fill="none" stroke="#000000" stroke-linecap="square" stroke-miterlimit="10" d="M103.4,233.8L72.2,265L103.4,233.8z"/>
	</g>
	<g>
		<path fill="none" stroke="#000000" stroke-linecap="square" stroke-miterlimit="10" d="M103.4,233.8H72.2H103.4z"/>
	</g>
	<g>
		<g>
			<defs>
				<circle id="SVGID_43_" cx="103.4" cy="233.8" r="6.6"/>
			</defs>
			<clipPath id="SVGID_44_">
				<use xlink:href="#SVGID_43_"  overflow="visible"/>
			</clipPath>
			<circle clip-path="url(#SVGID_44_)" fill="#FFFFFF" cx="103.4" cy="233.8" r="6.6"/>
		</g>
		<g>
			<defs>
				<circle id="SVGID_45_" cx="103.4" cy="233.8" r="6.6"/>
			</defs>
			<clipPath id="SVGID_46_">
				<use xlink:href="#SVGID_45_"  overflow="visible"/>
			</clipPath>
			<rect x="96.8" y="227.2" clip-path="url(#SVGID_46_)" fill="#0000FA" width="13.2" height="13.2"/>
		</g>
		<g>
			<defs>
				<circle id="SVGID_47_" cx="103.4" cy="233.8" r="6.6"/>
			</defs>
			<clipPath id="SVGID_48_">
				<use xlink:href="#SVGID_47_"  overflow="visible"/>
			</clipPath>
			
				<rect x="96.8" y="227.2" clip-path="url(#SVGID_48_)" fill="none" stroke="#000000" stroke-linecap="square" stroke-miterlimit="10" width="13.2" height="13.2"/>
		</g>
		<circle fill="none" stroke="#000000" stroke-linecap="square" stroke-miterlimit="10" cx="103.4" cy="233.8" r="6.6"/>
	</g>
	<g>
		<g>
			<defs>
				<polygon id="SVGID_49_" points="78.8,265 65.6,271.6 65.6,258.4 				"/>
			</defs>
			<clipPath id="SVGID_50_">
				<use xlink:href="#SVGID_49_"  overflow="visible"/>
			</clipPath>
			<polygon clip-path="url(#SVGID_50_)" fill="#FFFFFF" points="78.8,265 65.6,271.6 65.6,258.4 			"/>
		</g>
		<g>
			<defs>
				<polygon id="SVGID_51_" points="78.8,265 65.6,271.6 65.6,258.4 				"/>
			</defs>
			<clipPath id="SVGID_52_">
				<use xlink:href="#SVGID_51_"  overflow="visible"/>
			</clipPath>
			<rect x="65.6" y="258.4" clip-path="url(#SVGID_52_)" fill="#FA0000" width="13.2" height="13.2"/>
		</g>
		<g>
			<defs>
				<polygon id="SVGID_53_" points="78.8,265 65.6,271.6 65.6,258.4 				"/>
			</defs>
			<clipPath id="SVGID_54_">
				<use xlink:href="#SVGID_53_"  overflow="visible"/>
			</clipPath>
			
				<rect x="65.6" y="258.4" clip-path="url(#SVGID_54_)" fill="none" stroke="#000000" stroke-linecap="square" stroke-miterlimit="10" width="13.2" height="13.2"/>
		</g>
		<polygon fill="none" stroke="#000000" stroke-linecap="square" stroke-miterlimit="10" points="78.8,265 65.6,271.6 65.6,258.4 		
			"/>
	</g>
	<g>
		<g>
			<defs>
				<circle id="SVGID_55_" cx="72.2" cy="233.8" r="6.6"/>
			</defs>
			<clipPath id="SVGID_56_">
				<use xlink:href="#SVGID_55_"  overflow="visible"/>
			</clipPath>
			<circle clip-path="url(#SVGID_56_)" fill="#FFFFFF" cx="72.2" cy="233.8" r="6.6"/>
		</g>
		<g>
			<defs>
				<circle id="SVGID_57_" cx="72.2" cy="233.8" r="6.6"/>
			</defs>
			<clipPath id="SVGID_58_">
				<use xlink:href="#SVGID_57_"  overflow="visible"/>
			</clipPath>
			<rect x="65.6" y="227.2" clip-path="url(#SVGID_58_)" fill="#FFFF00" width="13.2" height="13.2"/>
		</g>
		<g>
			<defs>
				<circle id="SVGID_59_" cx="72.2" cy="233.8" r="6.6"/>
			</defs>
			<clipPath id="SVGID_60_">
				<use xlink:href="#SVGID_59_"  overflow="visible"/>
			</clipPath>
			
				<rect x="65.6" y="227.2" clip-path="url(#SVGID_60_)" fill="none" stroke="#000000" stroke-linecap="square" stroke-miterlimit="10" width="13.2" height="13.2"/>
		</g>
		<circle fill="none" stroke="#000000" stroke-linecap="square" stroke-miterlimit="10" cx="72.2" cy="233.8" r="6.6"/>
	</g>
	<g>
		<rect x="83" y="256" fill="#FFFFFF" width="4.8" height="4.8"/>
		<path d="M86.112,259.881l-0.141,0.385c-0.075,0.206-0.225,0.372-0.45,0.497c-0.144,0.088-0.344,0.128-0.6,0.122
			c-0.462,0-0.837-0.182-1.125-0.544c-0.294-0.362-0.44-0.837-0.44-1.425c0-0.575,0.146-1.05,0.44-1.425
			c0.275-0.356,0.7-0.531,1.275-0.525c0.4,0,0.7,0.078,0.9,0.234c0.182,0.138,0.306,0.356,0.375,0.656l0.028,0.131l0.131-0.384
			c0.087-0.25,0.25-0.435,0.487-0.553h0.356v0.206c-0.225,0.069-0.375,0.212-0.45,0.432l-0.366,1.003l0.244,1.078
			c0.081,0.369,0.168,0.572,0.262,0.609c0.125,0.056,0.334-0.003,0.628-0.178v0.431c-0.475,0.275-0.881,0.269-1.219-0.019
			c-0.15-0.131-0.247-0.294-0.291-0.487L86.112,259.881z M85.953,259.188l-0.216-1.031c-0.119-0.55-0.337-0.825-0.656-0.825
			c-0.269-0.006-0.506,0.137-0.712,0.431c-0.168,0.231-0.253,0.619-0.253,1.163c0,0.519,0.084,0.909,0.253,1.172
			c0.188,0.288,0.438,0.422,0.75,0.403c0.269-0.025,0.5-0.325,0.694-0.9L85.953,259.188z"/>
	</g>
	<g>
		<rect x="81.2" y="234.4" fill="#FFFFFF" width="4.2" height="7.8"/>
		<path d="M82.297,241.75c0.188,0.137,0.456,0.206,0.806,0.206c0.356,0,0.638-0.104,0.844-0.314c0.207-0.209,0.31-0.492,0.31-0.849
			c0-0.494-0.106-0.847-0.319-1.059c-0.219-0.212-0.531-0.319-0.938-0.319h-0.337v-0.384h0.178c0.3,0,0.553-0.084,0.759-0.253
			c0.168-0.137,0.253-0.394,0.253-0.769c0-0.163-0.056-0.337-0.168-0.525c-0.182-0.306-0.378-0.457-0.591-0.45
			c-0.531,0.019-0.797,0.497-0.797,1.435V241.75z M81.65,243.7v-5.231c0-0.981,0.266-1.538,0.797-1.669
			c0.275-0.075,0.51-0.112,0.703-0.112c0.438,0,0.797,0.172,1.078,0.516c0.225,0.275,0.337,0.528,0.337,0.759
			c0,0.337-0.081,0.603-0.244,0.797c-0.163,0.193-0.391,0.337-0.684,0.431c0.431,0.062,0.769,0.222,1.012,0.478
			c0.231,0.25,0.347,0.62,0.347,1.111s-0.164,0.867-0.492,1.13s-0.802,0.394-1.42,0.394c-0.381,0-0.644-0.028-0.788-0.084v1.481
			H81.65z"/>
	</g>
</g>
</svg>
