<?xml version="1.0" encoding="utf-8"?>
<!-- Generator: Adobe Illustrator 22.0.0, SVG Export Plug-In . SVG Version: 6.00 Build 0)  -->
<svg version="1.1" id="Layer_1" xmlns:ev="http://www.w3.org/2001/xml-events"
	 xmlns="http://www.w3.org/2000/svg" xmlns:xlink="http://www.w3.org/1999/xlink" x="0px" y="0px" viewBox="0 0 1187 683"
	 style="enable-background:new 0 0 1187 683;" xml:space="preserve">
<style type="text/css">
	.st0{fill:#FFFFFF;}
	.st1{fill:none;stroke:#EC2024;stroke-width:2;stroke-linecap:round;stroke-linejoin:round;stroke-miterlimit:10;}
	.st2{fill:none;stroke:#6167AE;stroke-width:2;stroke-linecap:round;stroke-linejoin:round;stroke-miterlimit:10;}
	.st3{fill:#D14899;}
	.st4{font-family:'Helvetica';}
	.st5{font-size:9.562px;}
	.st6{fill:#8ED6EF;}
	.st7{fill:#9594C8;}
	.st8{fill:#EE3C39;}
	.st9{fill:#8ACEF1;}
</style>
<title></title>
<desc>
	Creator: FreeHEP Graphics2D Driver Producer: org.freehep.graphicsio.svg.SVGGraphics2D Revision Source:  Date: Monday, November 19, 2018 8:40:34 AM PST
	</desc>
<g>
	<g>
		<path class="st0" d="M-1,0h1187v683H-1V0z"/>
	</g>
	<g transform="matrix(0.38248, 0, 0, 0.38248, 622.8459140234374, 377.6877345019531)">
		<g>
			<path class="st1" d="M-39.3,355.4l-47.4,120"/>
		</g>
	</g>
	<g transform="matrix(0.38248, 0, 0, 0.38248, 622.8459140234374, 377.6877345019531)">
		<g>
			<path class="st2" d="M-27.4,355.4l33.9,120"/>
		</g>
	</g>
	<g transform="matrix(0.38248, 0, 0, 0.38248, 622.8459140234374, 377.6877345019531)">
		<g>
			<path class="st2" d="M-15.6,355.4l115.2,120"/>
		</g>
	</g>
	<g transform="matrix(0.38248, 0, 0, 0.38248, 622.8459140234374, 377.6877345019531)">
		<g>
			<path class="st1" d="M-29,200.4l-2.9,120"/>
		</g>
	</g>
	<g transform="matrix(0.38248, 0, 0, 0.38248, 622.8459140234374, 377.6877345019531)">
		<g>
			<path class="st1" d="M328.6-29.6l-143.7,350"/>
		</g>
	</g>
	<g transform="matrix(0.38248, 0, 0, 0.38248, 622.8459140234374, 377.6877345019531)">
		<g>
			<path class="st1" d="M141.3-29.6l34.6,350"/>
		</g>
	</g>
	<g transform="matrix(0.38248, 0, 0, 0.38248, 622.8459140234374, 377.6877345019531)">
		<g>
			<path class="st1" d="M190.3-169.6l-12.2,490"/>
		</g>
	</g>
	<g transform="matrix(0.38248, 0, 0, 0.38248, 622.8459140234374, 377.6877345019531)">
		<g>
			<path class="st1" d="M194.3,200.4l-14.5,120"/>
		</g>
	</g>
	<g transform="matrix(0.38248, 0, 0, 0.38248, 622.8459140234374, 377.6877345019531)">
		<g>
			<path class="st2" d="M252,355.4l-210,120"/>
		</g>
	</g>
	<g transform="matrix(0.38248, 0, 0, 0.38248, 622.8459140234374, 377.6877345019531)">
		<g>
			<path class="st2" d="M287.6,355.4l33.9,120"/>
		</g>
	</g>
	<g transform="matrix(0.38248, 0, 0, 0.38248, 622.8459140234374, 377.6877345019531)">
		<g>
			<path class="st1" d="M275.7,355.4l-47.4,120"/>
		</g>
	</g>
	<g transform="matrix(0.38248, 0, 0, 0.38248, 622.8459140234374, 377.6877345019531)">
		<g>
			<path class="st2" d="M580.6,199.5L318.4,321.3"/>
		</g>
	</g>
	<g transform="matrix(0.38248, 0, 0, 0.38248, 622.8459140234374, 377.6877345019531)">
		<g>
			<path class="st2" d="M206.1,200.4l66.8,120"/>
		</g>
	</g>
	<g transform="matrix(0.38248, 0, 0, 0.38248, 622.8459140234374, 377.6877345019531)">
		<g>
			<path class="st2" d="M99.7,200.4l159.7,120"/>
		</g>
	</g>
	<g transform="matrix(0.38248, 0, 0, 0.38248, 622.8459140234374, 377.6877345019531)">
		<g>
			<path class="st2" d="M380.7,355.4l-47.4,120"/>
		</g>
	</g>
	<g transform="matrix(0.38248, 0, 0, 0.38248, 622.8459140234374, 377.6877345019531)">
		<g>
			<path class="st2" d="M357,355.4l-210,120"/>
		</g>
	</g>
	<g transform="matrix(0.38248, 0, 0, 0.38248, 622.8459140234374, 377.6877345019531)">
		<g>
			<path class="st1" d="M392.6,355.4l33.9,120"/>
		</g>
	</g>
	<g transform="matrix(0.38248, 0, 0, 0.38248, 622.8459140234374, 377.6877345019531)">
		<g>
			<path class="st1" d="M404.3,200.4l-14.5,120"/>
		</g>
	</g>
	<g transform="matrix(0.38248, 0, 0, 0.38248, 622.8459140234374, 377.6877345019531)">
		<g>
			<path class="st1" d="M76,200.4l-2.9,120"/>
		</g>
	</g>
	<g transform="matrix(0.38248, 0, 0, 0.38248, 622.8459140234374, 377.6877345019531)">
		<g>
			<path class="st1" d="M618.5,200.4l14.5,120"/>
		</g>
	</g>
	<g transform="matrix(0.38248, 0, 0, 0.38248, 622.8459140234374, 377.6877345019531)">
		<g>
			<path class="st1" d="M-389.9,620.4v60"/>
		</g>
	</g>
	<g transform="matrix(0.38248, 0, 0, 0.38248, 622.8459140234374, 377.6877345019531)">
		<g>
			<path class="st2" d="M-832.4,501.5l405,92.8"/>
		</g>
	</g>
	<g transform="matrix(0.38248, 0, 0, 0.38248, 622.8459140234374, 377.6877345019531)">
		<g>
			<path class="st2" d="M-333.1,510.4l-46,75"/>
		</g>
	</g>
	<g transform="matrix(0.38248, 0, 0, 0.38248, 622.8459140234374, 377.6877345019531)">
		<g>
			<path class="st1" d="M-316.4,510.4l25.6,75"/>
		</g>
	</g>
	<g transform="matrix(0.38248, 0, 0, 0.38248, 622.8459140234374, 377.6877345019531)">
		<g>
			<path class="st1" d="M-284.9,355.4v230"/>
		</g>
	</g>
	<g transform="matrix(0.38248, 0, 0, 0.38248, 622.8459140234374, 377.6877345019531)">
		<g>
			<path class="st1" d="M193,620.4l-33.2,60"/>
		</g>
	</g>
	<g transform="matrix(0.38248, 0, 0, 0.38248, 622.8459140234374, 377.6877345019531)">
		<g>
			<path class="st1" d="M-875.2,510.4l-23,75"/>
		</g>
	</g>
	<g transform="matrix(0.38248, 0, 0, 0.38248, 622.8459140234374, 377.6877345019531)">
		<g>
			<path class="st1" d="M-889.6,355.4l-13,230"/>
		</g>
	</g>
	<g transform="matrix(0.38248, 0, 0, 0.38248, 622.8459140234374, 377.6877345019531)">
		<g>
			<path class="st1" d="M329.4,510.4l12.8,75"/>
		</g>
	</g>
	<g transform="matrix(0.38248, 0, 0, 0.38248, 622.8459140234374, 377.6877345019531)">
		<g>
			<path class="st1" d="M255.1,715.4v30"/>
		</g>
	</g>
	<g transform="matrix(0.38248, 0, 0, 0.38248, 622.8459140234374, 377.6877345019531)">
		<g>
			<path class="st1" d="M113.4,510.4l-12.8,75"/>
		</g>
	</g>
	<g transform="matrix(0.38248, 0, 0, 0.38248, 622.8459140234374, 377.6877345019531)">
		<g>
			<path class="st2" d="M212.3,620.4l33.2,60"/>
		</g>
	</g>
	<g transform="matrix(0.38248, 0, 0, 0.38248, 622.8459140234374, 377.6877345019531)">
		<g>
			<path class="st2" d="M41.8,510.4l130.4,75"/>
		</g>
	</g>
	<g transform="matrix(0.38248, 0, 0, 0.38248, 622.8459140234374, 377.6877345019531)">
		<g>
			<path class="st2" d="M306.7,510.4l-84.4,75"/>
		</g>
	</g>
	<g transform="matrix(0.38248, 0, 0, 0.38248, 622.8459140234374, 377.6877345019531)">
		<g>
			<path class="st2" d="M130.1,510.4l58.8,75"/>
		</g>
	</g>
	<g transform="matrix(0.38248, 0, 0, 0.38248, 622.8459140234374, 377.6877345019531)">
		<g>
			<path class="st1" d="M8.4,510.4l-12.8,75"/>
		</g>
	</g>
	<g transform="matrix(0.38248, 0, 0, 0.38248, 622.8459140234374, 377.6877345019531)">
		<g>
			<path class="st1" d="M-289.1,355.4l-29,120"/>
		</g>
	</g>
	<g transform="matrix(0.38248, 0, 0, 0.38248, 622.8459140234374, 377.6877345019531)">
		<g>
			<path class="st1" d="M-182,355.4l-14.5,120"/>
		</g>
	</g>
	<g transform="matrix(0.38248, 0, 0, 0.38248, 622.8459140234374, 377.6877345019531)">
		<g>
			<path class="st2" d="M-158.3,355.4l148.1,120"/>
		</g>
	</g>
	<g transform="matrix(0.38248, 0, 0, 0.38248, 622.8459140234374, 377.6877345019531)">
		<g>
			<path class="st1" d="M407.8,200.4l22.2,275"/>
		</g>
	</g>
	<g transform="matrix(0.38248, 0, 0, 0.38248, 622.8459140234374, 377.6877345019531)">
		<g>
			<path class="st1" d="M-32.3,200.4l-57.7,275"/>
		</g>
	</g>
	<g transform="matrix(0.38248, 0, 0, 0.38248, 622.8459140234374, 377.6877345019531)">
		<g>
			<path class="st1" d="M-886.5,355.4l14.5,120"/>
		</g>
	</g>
	<g transform="matrix(0.38248, 0, 0, 0.38248, 622.8459140234374, 377.6877345019531)">
		<g>
			<path class="st1" d="M-781.5,355.4l14.5,120"/>
		</g>
	</g>
	<g transform="matrix(0.38248, 0, 0, 0.38248, 622.8459140234374, 377.6877345019531)">
		<g>
			<path class="st2" d="M-795.5,200.4l-81.3,120"/>
		</g>
	</g>
	<g transform="matrix(0.38248, 0, 0, 0.38248, 622.8459140234374, 377.6877345019531)">
		<g>
			<path class="st1" d="M-771.7,200.4l81.3,120"/>
		</g>
	</g>
	<g transform="matrix(0.38248, 0, 0, 0.38248, 622.8459140234374, 377.6877345019531)">
		<g>
			<path class="st1" d="M-687-29.6l8,350"/>
		</g>
	</g>
	<g transform="matrix(0.38248, 0, 0, 0.38248, 622.8459140234374, 377.6877345019531)">
		<g>
			<path class="st1" d="M-639.8,200.4l-33.9,120"/>
		</g>
	</g>
	<g transform="matrix(0.38248, 0, 0, 0.38248, 622.8459140234374, 377.6877345019531)">
		<g>
			<path class="st1" d="M-96.8-29.6l-279.1,350"/>
		</g>
	</g>
	<g transform="matrix(0.38248, 0, 0, 0.38248, 622.8459140234374, 377.6877345019531)">
		<g>
			<path class="st1" d="M-253.4,200.4l-119.1,120"/>
		</g>
	</g>
	<g transform="matrix(0.38248, 0, 0, 0.38248, 622.8459140234374, 377.6877345019531)">
		<g>
			<path class="st2" d="M-783.6,200.4v120"/>
		</g>
	</g>
	<g transform="matrix(0.38248, 0, 0, 0.38248, 622.8459140234374, 377.6877345019531)">
		<g>
			<path class="st2" d="M47.5,200.4l-198.4,120"/>
		</g>
	</g>
	<g transform="matrix(0.38248, 0, 0, 0.38248, 622.8459140234374, 377.6877345019531)">
		<g>
			<path class="st2" d="M-229.6,200.4l43.5,120"/>
		</g>
	</g>
	<g transform="matrix(0.38248, 0, 0, 0.38248, 622.8459140234374, 377.6877345019531)">
		<g>
			<path class="st2" d="M-598.5,199l277.3,122.8"/>
		</g>
	</g>
	<g transform="matrix(0.38248, 0, 0, 0.38248, 622.8459140234374, 377.6877345019531)">
		<g>
			<path class="st2" d="M39.8,198.6l-288,123.6"/>
		</g>
	</g>
	<g transform="matrix(0.38248, 0, 0, 0.38248, 622.8459140234374, 377.6877345019531)">
		<g>
			<path class="st2" d="M488.2-29.6l117.6,195"/>
		</g>
	</g>
	<g transform="matrix(0.38248, 0, 0, 0.38248, 622.8459140234374, 377.6877345019531)">
		<g>
			<path class="st2" d="M651-29.6l-31.8,195"/>
		</g>
	</g>
	<g transform="matrix(0.38248, 0, 0, 0.38248, 622.8459140234374, 377.6877345019531)">
		<g>
			<path class="st2" d="M341.1-29.6l59.9,195"/>
		</g>
	</g>
	<g transform="matrix(0.38248, 0, 0, 0.38248, 622.8459140234374, 377.6877345019531)">
		<g>
			<path class="st1" d="M659-29.6l57.2,195"/>
		</g>
	</g>
	<g transform="matrix(0.38248, 0, 0, 0.38248, 622.8459140234374, 377.6877345019531)">
		<g>
			<path class="st1" d="M607.1-169.6l108.6,335"/>
		</g>
	</g>
	<g transform="matrix(0.38248, 0, 0, 0.38248, 622.8459140234374, 377.6877345019531)">
		<g>
			<path class="st1" d="M333.2-29.6l-29.1,195"/>
		</g>
	</g>
	<g transform="matrix(0.38248, 0, 0, 0.38248, 622.8459140234374, 377.6877345019531)">
		<g>
			<path class="st1" d="M151.9-29.6l137.2,195"/>
		</g>
	</g>
	<g transform="matrix(0.38248, 0, 0, 0.38248, 622.8459140234374, 377.6877345019531)">
		<g>
			<path class="st1" d="M196-169.6l100.2,335"/>
		</g>
	</g>
	<g transform="matrix(0.38248, 0, 0, 0.38248, 622.8459140234374, 377.6877345019531)">
		<g>
			<path class="st1" d="M143.9-29.6l48.2,195"/>
		</g>
	</g>
	<g transform="matrix(0.38248, 0, 0, 0.38248, 622.8459140234374, 377.6877345019531)">
		<g>
			<path class="st1" d="M325.2-29.6L207,165.4"/>
		</g>
	</g>
	<g transform="matrix(0.38248, 0, 0, 0.38248, 622.8459140234374, 377.6877345019531)">
		<g>
			<path class="st1" d="M480.2-29.6l28.6,195"/>
		</g>
	</g>
	<g transform="matrix(0.38248, 0, 0, 0.38248, 622.8459140234374, 377.6877345019531)">
		<g>
			<path class="st1" d="M497.1-169.6l13.6,335"/>
		</g>
	</g>
	<g transform="matrix(0.38248, 0, 0, 0.38248, 622.8459140234374, 377.6877345019531)">
		<g>
			<path class="st1" d="M-94.5-29.6l-129.9,195"/>
		</g>
	</g>
	<g transform="matrix(0.38248, 0, 0, 0.38248, 622.8459140234374, 377.6877345019531)">
		<g>
			<path class="st2" d="M447.1-29.6l-340.2,195"/>
		</g>
	</g>
	<g transform="matrix(0.38248, 0, 0, 0.38248, 622.8459140234374, 377.6877345019531)">
		<g>
			<path class="st2" d="M52.8-34.8l21.7,200.2"/>
		</g>
	</g>
	<g transform="matrix(0.38248, 0, 0, 0.38248, 622.8459140234374, 377.6877345019531)">
		<g>
			<path class="st1" d="M-694.7-29.6l-81.6,195"/>
		</g>
	</g>
	<g transform="matrix(0.38248, 0, 0, 0.38248, 622.8459140234374, 377.6877345019531)">
		<g>
			<path class="st2" d="M126.8-29.6l-142.6,195"/>
		</g>
	</g>
	<g transform="matrix(0.38248, 0, 0, 0.38248, 622.8459140234374, 377.6877345019531)">
		<g>
			<path class="st2" d="M-78.7-29.6l46,195"/>
		</g>
	</g>
	<g transform="matrix(0.38248, 0, 0, 0.38248, 622.8459140234374, 377.6877345019531)">
		<g>
			<path class="st1" d="M37.2-34.8l-157.1,200.2"/>
		</g>
	</g>
	<g transform="matrix(0.38248, 0, 0, 0.38248, 622.8459140234374, 377.6877345019531)">
		<g>
			<path class="st1" d="M6.9-169.6l-133.5,335"/>
		</g>
	</g>
	<g transform="matrix(0.38248, 0, 0, 0.38248, 622.8459140234374, 377.6877345019531)">
		<g>
			<path class="st1" d="M15-324.6l-143.5,490"/>
		</g>
	</g>
	<g transform="matrix(0.38248, 0, 0, 0.38248, 622.8459140234374, 377.6877345019531)">
		<g>
			<path class="st1" d="M-683.4-29.6l44.5,195"/>
		</g>
	</g>
	<g transform="matrix(0.38248, 0, 0, 0.38248, 622.8459140234374, 377.6877345019531)">
		<g>
			<path class="st2" d="M618-324.6l-14.5,120"/>
		</g>
	</g>
	<g transform="matrix(0.38248, 0, 0, 0.38248, 622.8459140234374, 377.6877345019531)">
		<g>
			<path class="st1" d="M629.9-324.6l66.8,120"/>
		</g>
	</g>
	<g transform="matrix(0.38248, 0, 0, 0.38248, 622.8459140234374, 377.6877345019531)">
		<g>
			<path class="st1" d="M548.4-494.6l63.5,135"/>
		</g>
	</g>
	<g transform="matrix(0.38248, 0, 0, 0.38248, 622.8459140234374, 377.6877345019531)">
		<g>
			<path class="st1" d="M394.8-649.6l-41.1,120"/>
		</g>
	</g>
	<g transform="matrix(0.38248, 0, 0, 0.38248, 622.8459140234374, 377.6877345019531)">
		<g>
			<path class="st2" d="M363.3-657.4l-521.9,135.5"/>
		</g>
	</g>
	<g transform="matrix(0.38248, 0, 0, 0.38248, 622.8459140234374, 377.6877345019531)">
		<g>
			<path class="st2" d="M416.5-649.6l107.9,120"/>
		</g>
	</g>
	<g transform="matrix(0.38248, 0, 0, 0.38248, 622.8459140234374, 377.6877345019531)">
		<g>
			<path class="st1" d="M400.3-649.6l-8.4,290"/>
		</g>
	</g>
	<g transform="matrix(0.38248, 0, 0, 0.38248, 622.8459140234374, 377.6877345019531)">
		<g>
			<path class="st2" d="M609-760.8l-172.1,77.5"/>
		</g>
	</g>
	<g transform="matrix(0.38248, 0, 0, 0.38248, 622.8459140234374, 377.6877345019531)">
		<g>
			<path class="st2" d="M-72.4-769l435.6,93.8"/>
		</g>
	</g>
	<g transform="matrix(0.38248, 0, 0, 0.38248, 622.8459140234374, 377.6877345019531)">
		<g>
			<path class="st2" d="M513-324.6l-14.5,120"/>
		</g>
	</g>
	<g transform="matrix(0.38248, 0, 0, 0.38248, 622.8459140234374, 377.6877345019531)">
		<g>
			<path class="st1" d="M536.7-324.6l148.1,120"/>
		</g>
	</g>
	<g transform="matrix(0.38248, 0, 0, 0.38248, 622.8459140234374, 377.6877345019531)">
		<g>
			<path class="st1" d="M537.6-494.6l-19.9,135"/>
		</g>
	</g>
	<g transform="matrix(0.38248, 0, 0, 0.38248, 622.8459140234374, 377.6877345019531)">
		<g>
			<path class="st1" d="M652.1-759.6l91.1,230"/>
		</g>
	</g>
	<g transform="matrix(0.38248, 0, 0, 0.38248, 622.8459140234374, 377.6877345019531)">
		<g>
			<path class="st1" d="M645.1-759.6v75"/>
		</g>
	</g>
	<g transform="matrix(0.38248, 0, 0, 0.38248, 622.8459140234374, 377.6877345019531)">
		<g>
			<path class="st2" d="M-72.4-867.4l680,85.6"/>
		</g>
	</g>
	<g transform="matrix(0.38248, 0, 0, 0.38248, 622.8459140234374, 377.6877345019531)">
		<g>
			<path class="st1" d="M657-649.6l81.3,120"/>
		</g>
	</g>
	<g transform="matrix(0.38248, 0, 0, 0.38248, 622.8459140234374, 377.6877345019531)">
		<g>
			<path class="st2" d="M645.1-649.6v120"/>
		</g>
	</g>
	<g transform="matrix(0.38248, 0, 0, 0.38248, 622.8459140234374, 377.6877345019531)">
		<g>
			<path class="st2" d="M607.6-657.7L67-521.6"/>
		</g>
	</g>
	<g transform="matrix(0.38248, 0, 0, 0.38248, 622.8459140234374, 377.6877345019531)">
		<g>
			<path class="st1" d="M494.1-169.6L480-64.6"/>
		</g>
	</g>
	<g transform="matrix(0.38248, 0, 0, 0.38248, 622.8459140234374, 377.6877345019531)">
		<g>
			<path class="st1" d="M608-169.6l39.4,105"/>
		</g>
	</g>
	<g transform="matrix(0.38248, 0, 0, 0.38248, 622.8459140234374, 377.6877345019531)">
		<g>
			<path class="st2" d="M321.2-325l245.3,120.7"/>
		</g>
	</g>
	<g transform="matrix(0.38248, 0, 0, 0.38248, 622.8459140234374, 377.6877345019531)">
		<g>
			<path class="st1" d="M549.1-494.6l148.3,290"/>
		</g>
	</g>
	<g transform="matrix(0.38248, 0, 0, 0.38248, 622.8459140234374, 377.6877345019531)">
		<g>
			<path class="st1" d="M352.2-494.6l34.7,135"/>
		</g>
	</g>
	<g transform="matrix(0.38248, 0, 0, 0.38248, 622.8459140234374, 377.6877345019531)">
		<g>
			<path class="st2" d="M341.3-494.6l-48.6,135"/>
		</g>
	</g>
	<g transform="matrix(0.38248, 0, 0, 0.38248, 622.8459140234374, 377.6877345019531)">
		<g>
			<path class="st2" d="M314-494.7L53.8-359.6"/>
		</g>
	</g>
	<g transform="matrix(0.38248, 0, 0, 0.38248, 622.8459140234374, 377.6877345019531)">
		<g>
			<path class="st1" d="M-557.5-494.6l-68.5,135"/>
		</g>
	</g>
	<g transform="matrix(0.38248, 0, 0, 0.38248, 622.8459140234374, 377.6877345019531)">
		<g>
			<path class="st2" d="M-535.9-494.6l98.3,135"/>
		</g>
	</g>
	<g transform="matrix(0.38248, 0, 0, 0.38248, 622.8459140234374, 377.6877345019531)">
		<g>
			<path class="st2" d="M-546.7-494.6l14.9,135"/>
		</g>
	</g>
	<g transform="matrix(0.38248, 0, 0, 0.38248, 622.8459140234374, 377.6877345019531)">
		<g>
			<path class="st1" d="M-548.6-649.6v120"/>
		</g>
	</g>
	<g transform="matrix(0.38248, 0, 0, 0.38248, 622.8459140234374, 377.6877345019531)">
		<g>
			<path class="st1" d="M-107.7-649.6l14.5,120"/>
		</g>
	</g>
	<g transform="matrix(0.38248, 0, 0, 0.38248, 622.8459140234374, 377.6877345019531)">
		<g>
			<path class="st1" d="M-108.6-759.6l16.3,230"/>
		</g>
	</g>
	<g transform="matrix(0.38248, 0, 0, 0.38248, 622.8459140234374, 377.6877345019531)">
		<g>
			<path class="st1" d="M-319.9-494.6v135"/>
		</g>
	</g>
	<g transform="matrix(0.38248, 0, 0, 0.38248, 622.8459140234374, 377.6877345019531)">
		<g>
			<path class="st2" d="M-285.3-494.9l271,135.5"/>
		</g>
	</g>
	<g transform="matrix(0.38248, 0, 0, 0.38248, 622.8459140234374, 377.6877345019531)">
		<g>
			<path class="st2" d="M-341.5-494.6l-166.8,135"/>
		</g>
	</g>
	<g transform="matrix(0.38248, 0, 0, 0.38248, 622.8459140234374, 377.6877345019531)">
		<g>
			<path class="st2" d="M-133.6-649.6l-162.6,120"/>
		</g>
	</g>
	<g transform="matrix(0.38248, 0, 0, 0.38248, 622.8459140234374, 377.6877345019531)">
		<g>
			<path class="st1" d="M39.4-494.6l75.9,135"/>
		</g>
	</g>
	<g transform="matrix(0.38248, 0, 0, 0.38248, 622.8459140234374, 377.6877345019531)">
		<g>
			<path class="st2" d="M56-494.6l204,135"/>
		</g>
	</g>
	<g transform="matrix(0.38248, 0, 0, 0.38248, 622.8459140234374, 377.6877345019531)">
		<g>
			<path class="st2" d="M-7.9-498.1l-379.6,142"/>
		</g>
	</g>
	<g transform="matrix(0.38248, 0, 0, 0.38248, 622.8459140234374, 377.6877345019531)">
		<g>
			<path class="st2" d="M28.6-494.6l-7.4,135"/>
		</g>
	</g>
	<g transform="matrix(0.38248, 0, 0, 0.38248, 622.8459140234374, 377.6877345019531)">
		<g>
			<path class="st2" d="M-94.1-649.6l107.9,120"/>
		</g>
	</g>
	<g transform="matrix(0.38248, 0, 0, 0.38248, 622.8459140234374, 377.6877345019531)">
		<g>
			<path class="st1" d="M-198-494.6l-14.9,135"/>
		</g>
	</g>
	<g transform="matrix(0.38248, 0, 0, 0.38248, 622.8459140234374, 377.6877345019531)">
		<g>
			<path class="st1" d="M-196.1-494.6v290"/>
		</g>
	</g>
	<g transform="matrix(0.38248, 0, 0, 0.38248, 622.8459140234374, 377.6877345019531)">
		<g>
			<path class="st2" d="M-512.2-651.1l279.7,123"/>
		</g>
	</g>
	<g transform="matrix(0.38248, 0, 0, 0.38248, 622.8459140234374, 377.6877345019531)">
		<g>
			<path class="st1" d="M653.4-494.6l63.5,135"/>
		</g>
	</g>
	<g transform="matrix(0.38248, 0, 0, 0.38248, 622.8459140234374, 377.6877345019531)">
		<g>
			<path class="st2" d="M609.7-495.3L321.9-358.9"/>
		</g>
	</g>
	<g transform="matrix(0.38248, 0, 0, 0.38248, 622.8459140234374, 377.6877345019531)">
		<g>
			<path class="st1" d="M208.9-169.6l108.7,105"/>
		</g>
	</g>
	<g transform="matrix(0.38248, 0, 0, 0.38248, 622.8459140234374, 377.6877345019531)">
		<g>
			<path class="st2" d="M-123.7-759.6l-549.8,695"/>
		</g>
	</g>
	<g transform="matrix(0.38248, 0, 0, 0.38248, 622.8459140234374, 377.6877345019531)">
		<g>
			<path class="st2" d="M1.8-169.6l-72.5,105"/>
		</g>
	</g>
	<g transform="matrix(0.38248, 0, 0, 0.38248, 622.8459140234374, 377.6877345019531)">
		<g>
			<path class="st2" d="M-90.1-169.6l6.2,105"/>
		</g>
	</g>
	<g transform="matrix(0.38248, 0, 0, 0.38248, 622.8459140234374, 377.6877345019531)">
		<g>
			<path class="st2" d="M-578.6-177.3L-120.3-57"/>
		</g>
	</g>
	<g transform="matrix(0.38248, 0, 0, 0.38248, 622.8459140234374, 377.6877345019531)">
		<g>
			<path class="st1" d="M184.4-169.6L146-64.6"/>
		</g>
	</g>
	<g transform="matrix(0.38248, 0, 0, 0.38248, 622.8459140234374, 377.6877345019531)">
		<g>
			<path class="st1" d="M-611.9-169.6l25.3,105"/>
		</g>
	</g>
	<g transform="matrix(0.38248, 0, 0, 0.38248, 622.8459140234374, 377.6877345019531)">
		<g>
			<path class="st1" d="M18.7-169.6l27.4,99.8"/>
		</g>
	</g>
	<g transform="matrix(0.38248, 0, 0, 0.38248, 622.8459140234374, 377.6877345019531)">
		<g>
			<path class="st1" d="M22-324.6L49.1-69.8"/>
		</g>
	</g>
	<g transform="matrix(0.38248, 0, 0, 0.38248, 622.8459140234374, 377.6877345019531)">
		<g>
			<path class="st1" d="M-301.1-169.6v105"/>
		</g>
	</g>
	<g transform="matrix(0.38248, 0, 0, 0.38248, 622.8459140234374, 377.6877345019531)">
		<g>
			<path class="st1" d="M-101.9-169.6l-64.7,105"/>
		</g>
	</g>
	<g transform="matrix(0.38248, 0, 0, 0.38248, 622.8459140234374, 377.6877345019531)">
		<g>
			<path class="st1" d="M8.4-324.6l-174.1,260"/>
		</g>
	</g>
	<g transform="matrix(0.38248, 0, 0, 0.38248, 622.8459140234374, 377.6877345019531)">
		<g>
			<path class="st1" d="M-422.7-324.6l14.5,120"/>
		</g>
	</g>
	<g transform="matrix(0.38248, 0, 0, 0.38248, 622.8459140234374, 377.6877345019531)">
		<g>
			<path class="st2" d="M-410.9-324.6l95.8,120"/>
		</g>
	</g>
	<g transform="matrix(0.38248, 0, 0, 0.38248, 622.8459140234374, 377.6877345019531)">
		<g>
			<path class="st2" d="M39.4-324.6l132.1,120"/>
		</g>
	</g>
	<g transform="matrix(0.38248, 0, 0, 0.38248, 622.8459140234374, 377.6877345019531)">
		<g>
			<path class="st1" d="M19.4-324.6l-4.8,120"/>
		</g>
	</g>
	<g transform="matrix(0.38248, 0, 0, 0.38248, 622.8459140234374, 377.6877345019531)">
		<g>
			<path class="st1" d="M7.6-324.6l-86.1,120"/>
		</g>
	</g>
	<g transform="matrix(0.38248, 0, 0, 0.38248, 622.8459140234374, 377.6877345019531)">
		<g>
			<path class="st2" d="M-539.6-324.6l-66.8,120"/>
		</g>
	</g>
	<g transform="matrix(0.38248, 0, 0, 0.38248, 622.8459140234374, 377.6877345019531)">
		<g>
			<path class="st1" d="M-527.7-324.6l14.5,120"/>
		</g>
	</g>
	<g transform="matrix(0.38248, 0, 0, 0.38248, 622.8459140234374, 377.6877345019531)">
		<g>
			<path class="st1" d="M-212.7-324.6l14.5,120"/>
		</g>
	</g>
	<g transform="matrix(0.38248, 0, 0, 0.38248, 622.8459140234374, 377.6877345019531)">
		<g>
			<path class="st2" d="M-224.6-324.6l-66.8,120"/>
		</g>
	</g>
	<g transform="matrix(0.38248, 0, 0, 0.38248, 622.8459140234374, 377.6877345019531)">
		<g>
			<path class="st1" d="M287.5-324.6l7.3,120"/>
		</g>
	</g>
	<g transform="matrix(0.38248, 0, 0, 0.38248, 622.8459140234374, 377.6877345019531)">
		<g>
			<path class="st2" d="M275.6-324.6l-74,120"/>
		</g>
	</g>
	<g transform="matrix(0.38248, 0, 0, 0.38248, 622.8459140234374, 377.6877345019531)">
		<g>
			<path class="st2" d="M248.9-332.2L-263.6-197"/>
		</g>
	</g>
	<g transform="matrix(0.38248, 0, 0, 0.38248, 622.8459140234374, 377.6877345019531)">
		<g>
			<path class="st1" d="M-553.2-649.6l-77,290"/>
		</g>
	</g>
	<g transform="matrix(0.38248, 0, 0, 0.38248, 622.8459140234374, 377.6877345019531)">
		<g>
			<path class="st2" d="M-109.9-854.6v60"/>
		</g>
	</g>
	<g transform="matrix(0.38248, 0, 0, 0.38248, 622.8459140234374, 377.6877345019531)">
		<g>
			<path class="st1" d="M-129.2-854.6l-66.3,60"/>
		</g>
	</g>
	<g transform="matrix(0.38248, 0, 0, 0.38248, 622.8459140234374, 377.6877345019531)">
		<g>
			<path class="st1" d="M-124.5-934.6l10.5,45"/>
		</g>
	</g>
	<g transform="matrix(0.38248, 0, 0, 0.38248, 622.8459140234374, 377.6877345019531)">
		<g>
			<path class="st1" d="M-137.2-934.6l-69,140"/>
		</g>
	</g>
	<g transform="matrix(0.38248, 0, 0, 0.38248, 622.8459140234374, 377.6877345019531)">
		<g>
			<path class="st1" d="M-109.9-759.6v75"/>
		</g>
	</g>
	<g transform="matrix(0.38248, 0, 0, 0.38248, 622.8459140234374, 377.6877345019531)">
		<g>
			<path class="st2" d="M-147.4-767.7l-363.8,91.2"/>
		</g>
	</g>
	<g transform="matrix(0.38248, 0, 0, 0.38248, 622.8459140234374, 377.6877345019531)">
		<g>
			<path class="st3" d="M-69.9,324.8V351c0,2.4,2,4.4,4.4,4.4H0.8c2.4,0,4.4-2,4.4-4.4v-26.2c0-2.4-2-4.4-4.4-4.4h-66.2
				C-67.9,320.4-69.9,322.3-69.9,324.8z"/>
		</g>
	</g>
	<g transform="matrix(0.38248, 0, 0, 0.38248, 602.4031295666504, 510.536363671875)">
		<text transform="matrix(2.6145 0 0 2.6145 -2.614 1.914806e-03)" class="st4 st5">908</text>
	</g>
	<g transform="matrix(0.38248, 0, 0, 0.38248, 622.8459140234374, 377.6877345019531)">
		<g>
			<path class="st6" d="M140.1,324.8V351c0,2.4,2,4.4,4.4,4.4h66.2c2.4,0,4.4-2,4.4-4.4v-26.2c0-2.4-2-4.4-4.4-4.4h-66.2
				C142.1,320.4,140.1,322.3,140.1,324.8z"/>
		</g>
	</g>
	<g transform="matrix(0.38248, 0, 0, 0.38248, 682.7239295666503, 510.536363671875)">
		<text transform="matrix(2.6145 0 0 2.6145 -2.6128 1.914806e-03)" class="st4 st5">929</text>
	</g>
	<g transform="matrix(0.38248, 0, 0, 0.38248, 622.8459140234374, 377.6877345019531)">
		<g>
			<path class="st7" d="M245.1,324.8V351c0,2.4,2,4.4,4.4,4.4h66.2c2.4,0,4.4-2,4.4-4.4v-26.2c0-2.4-2-4.4-4.4-4.4h-66.2
				C247.1,320.4,245.1,322.3,245.1,324.8z"/>
		</g>
	</g>
	<g transform="matrix(0.38248, 0, 0, 0.38248, 722.8843237304686, 510.536363671875)">
		<text transform="matrix(2.6145 0 0 2.6145 -2.6134 1.914806e-03)" class="st4 st5">910</text>
	</g>
	<g transform="matrix(0.38248, 0, 0, 0.38248, 622.8459140234374, 377.6877345019531)">
		<g>
			<path class="st3" d="M350.1,324.8V351c0,2.4,2,4.4,4.4,4.4h66.2c2.4,0,4.4-2,4.4-4.4v-26.2c0-2.4-2-4.4-4.4-4.4h-66.2
				C352.1,320.4,350.1,322.3,350.1,324.8z"/>
		</g>
	</g>
	<g transform="matrix(0.38248, 0, 0, 0.38248, 763.0447237304686, 510.536363671875)">
		<text transform="matrix(2.6145 0 0 2.6145 -2.614 1.914806e-03)" class="st4 st5">914</text>
	</g>
	<g transform="matrix(0.38248, 0, 0, 0.38248, 622.8459140234374, 377.6877345019531)">
		<g>
			<path class="st8" d="M35.1,324.8V351c0,2.4,2,4.4,4.4,4.4h66.2c2.4,0,4.4-2,4.4-4.4v-26.2c0-2.4-2-4.4-4.4-4.4H39.5
				C37.1,320.4,35.1,322.3,35.1,324.8z"/>
		</g>
	</g>
	<g transform="matrix(0.38248, 0, 0, 0.38248, 642.5635295666503, 510.536363671875)">
		<text transform="matrix(2.6145 0 0 2.6145 -2.6147 1.914806e-03)" class="st4 st5">928</text>
	</g>
	<g transform="matrix(0.38248, 0, 0, 0.38248, 622.8459140234374, 377.6877345019531)">
		<g>
			<path class="st8" d="M597.6,324.8V351c0,2.4,2,4.4,4.4,4.4h66.2c2.4,0,4.4-2,4.4-4.4v-26.2c0-2.4-2-4.4-4.4-4.4H602
				C599.6,320.4,597.6,322.3,597.6,324.8z"/>
		</g>
	</g>
	<g transform="matrix(0.38248, 0, 0, 0.38248, 857.7085237304686, 510.536363671875)">
		<text transform="matrix(2.6145 0 0 2.6145 -2.6132 1.914806e-03)" class="st4 st5">932</text>
	</g>
	<g transform="matrix(0.38248, 0, 0, 0.38248, 622.8459140234374, 377.6877345019531)">
		<g>
			<path class="st7" d="M-427.4,589.8V616c0,2.4,2,4.4,4.4,4.4h66.2c2.4,0,4.4-2,4.4-4.4v-26.2c0-2.4-2-4.4-4.4-4.4H-423
				C-425.4,585.4-427.4,587.3-427.4,589.8z"/>
		</g>
	</g>
	<g transform="matrix(0.38248, 0, 0, 0.38248, 462.64338164062497, 611.893563671875)">
		<text transform="matrix(2.6145 0 0 2.6145 -2.614 0)" class="st4 st5">1304</text>
	</g>
	<g transform="matrix(0.38248, 0, 0, 0.38248, 622.8459140234374, 377.6877345019531)">
		<g>
			<path class="st8" d="M-322.4,589.8V616c0,2.4,2,4.4,4.4,4.4h66.2c2.4,0,4.4-2,4.4-4.4v-26.2c0-2.4-2-4.4-4.4-4.4H-318
				C-320.4,585.4-322.4,587.3-322.4,589.8z"/>
		</g>
	</g>
	<g transform="matrix(0.38248, 0, 0, 0.38248, 502.803781640625, 611.893563671875)">
		<text transform="matrix(2.6145 0 0 2.6145 -2.6147 0)" class="st4 st5">1643</text>
	</g>
	<g transform="matrix(0.38248, 0, 0, 0.38248, 622.8459140234374, 377.6877345019531)">
		<g>
			<path class="st8" d="M112.6,684.8V711c0,2.4,2,4.4,4.4,4.4h66.2c2.4,0,4.4-2,4.4-4.4v-26.2c0-2.4-2-4.4-4.4-4.4H117
				C114.6,680.4,112.6,682.3,112.6,684.8z"/>
		</g>
	</g>
	<g transform="matrix(0.38248, 0, 0, 0.38248, 669.1825874768066, 648.2291636718749)">
		<text transform="matrix(2.6145 0 0 2.6145 -2.6145 7.979175e-04)" class="st4 st5">1455</text>
	</g>
	<g transform="matrix(0.38248, 0, 0, 0.38248, 622.8459140234374, 377.6877345019531)">
		<g>
			<path class="st8" d="M-941.1,589.8V616c0,2.4,2,4.4,4.4,4.4h66.2c2.4,0,4.4-2,4.4-4.4v-26.2c0-2.4-2-4.4-4.4-4.4h-66.2
				C-939.1,585.4-941.1,587.3-941.1,589.8z"/>
		</g>
	</g>
	<g transform="matrix(0.38248, 0, 0, 0.38248, 266.14428164062497, 611.893563671875)">
		<text transform="matrix(2.6145 0 0 2.6145 -2.6139 0)" class="st4 st5">1644</text>
	</g>
	<g transform="matrix(0.38248, 0, 0, 0.38248, 622.8459140234374, 377.6877345019531)">
		<g>
			<path class="st8" d="M307.6,589.8V616c0,2.4,2,4.4,4.4,4.4h66.2c2.4,0,4.4-2,4.4-4.4v-26.2c0-2.4-2-4.4-4.4-4.4H312
				C309.6,585.4,307.6,587.3,307.6,589.8z"/>
		</g>
	</g>
	<g transform="matrix(0.38248, 0, 0, 0.38248, 743.7661816406248, 611.893563671875)">
		<text transform="matrix(2.6145 0 0 2.6145 -2.616 0)" class="st4 st5">1302</text>
	</g>
	<g transform="matrix(0.38248, 0, 0, 0.38248, 622.8459140234374, 377.6877345019531)">
		<g>
			<path class="st8" d="M217.6,749.8V776c0,2.4,2,4.4,4.4,4.4h66.2c2.4,0,4.4-2,4.4-4.4v-26.2c0-2.4-2-4.4-4.4-4.4H222
				C219.6,745.4,217.6,747.3,217.6,749.8z"/>
		</g>
	</g>
	<g transform="matrix(0.38248, 0, 0, 0.38248, 709.3429816406249, 673.0903636718749)">
		<text transform="matrix(2.6145 0 0 2.6145 -2.615 -1.436023e-03)" class="st4 st5">1640</text>
	</g>
	<g transform="matrix(0.38248, 0, 0, 0.38248, 622.8459140234374, 377.6877345019531)">
		<g>
			<path class="st8" d="M60.1,589.8V616c0,2.4,2,4.4,4.4,4.4h66.2c2.4,0,4.4-2,4.4-4.4v-26.2c0-2.4-2-4.4-4.4-4.4H64.5
				C62.1,585.4,60.1,587.3,60.1,589.8z"/>
		</g>
	</g>
	<g transform="matrix(0.38248, 0, 0, 0.38248, 649.1023874768066, 611.893563671875)">
		<text transform="matrix(2.6145 0 0 2.6145 -2.6142 0)" class="st4 st5">1301</text>
	</g>
	<g transform="matrix(0.38248, 0, 0, 0.38248, 622.8459140234374, 377.6877345019531)">
		<g>
			<path class="st7" d="M165.1,589.8V616c0,2.4,2,4.4,4.4,4.4h66.2c2.4,0,4.4-2,4.4-4.4v-26.2c0-2.4-2-4.4-4.4-4.4h-66.2
				C167.1,585.4,165.1,587.3,165.1,589.8z"/>
		</g>
	</g>
	<g transform="matrix(0.38248, 0, 0, 0.38248, 689.2627874768066, 611.893563671875)">
		<text transform="matrix(2.6145 0 0 2.6145 -2.6148 0)" class="st4 st5">1296</text>
	</g>
	<g transform="matrix(0.38248, 0, 0, 0.38248, 622.8459140234374, 377.6877345019531)">
		<g>
			<path class="st8" d="M-427.4,684.8V711c0,2.4,2,4.4,4.4,4.4h66.2c2.4,0,4.4-2,4.4-4.4v-26.2c0-2.4-2-4.4-4.4-4.4H-423
				C-425.4,680.4-427.4,682.3-427.4,684.8z"/>
		</g>
	</g>
	<g transform="matrix(0.38248, 0, 0, 0.38248, 462.64338164062497, 648.2291636718749)">
		<text transform="matrix(2.6145 0 0 2.6145 -2.614 7.979175e-04)" class="st4 st5">1679</text>
	</g>
	<g transform="matrix(0.38248, 0, 0, 0.38248, 622.8459140234374, 377.6877345019531)">
		<g>
			<path class="st8" d="M-44.9,589.8V616c0,2.4,2,4.4,4.4,4.4h66.2c2.4,0,4.4-2,4.4-4.4v-26.2c0-2.4-2-4.4-4.4-4.4h-66.2
				C-42.9,585.4-44.9,587.3-44.9,589.8z"/>
		</g>
	</g>
	<g transform="matrix(0.38248, 0, 0, 0.38248, 608.9419874768065, 611.893563671875)">
		<text transform="matrix(2.6145 0 0 2.6145 -2.6161 0)" class="st4 st5">1303</text>
	</g>
	<g transform="matrix(0.38248, 0, 0, 0.38248, 622.8459140234374, 377.6877345019531)">
		<g>
			<path class="st7" d="M217.6,684.8V711c0,2.4,2,4.4,4.4,4.4h66.2c2.4,0,4.4-2,4.4-4.4v-26.2c0-2.4-2-4.4-4.4-4.4H222
				C219.6,680.4,217.6,682.3,217.6,684.8z"/>
		</g>
	</g>
	<g transform="matrix(0.38248, 0, 0, 0.38248, 709.3429816406249, 648.2291636718749)">
		<text transform="matrix(2.6145 0 0 2.6145 -2.615 7.979175e-04)" class="st4 st5">1479</text>
	</g>
	<g transform="matrix(0.38248, 0, 0, 0.38248, 622.8459140234374, 377.6877345019531)">
		<g>
			<path class="st3" d="M-359.9,479.8V506c0,2.4,2,4.4,4.4,4.4h66.2c2.4,0,4.4-2,4.4-4.4v-26.2c0-2.4-2-4.4-4.4-4.4h-66.2
				C-357.9,475.4-359.9,477.3-359.9,479.8z"/>
		</g>
	</g>
	<g transform="matrix(0.38248, 0, 0, 0.38248, 488.460781640625, 569.8207636718749)">
		<text transform="matrix(2.6145 0 0 2.6145 -2.6141 -1.117705e-03)" class="st4 st5">1128</text>
	</g>
	<g transform="matrix(0.38248, 0, 0, 0.38248, 622.8459140234374, 377.6877345019531)">
		<g>
			<path class="st8" d="M-236.1,479.8V506c0,2.4,2,4.4,4.4,4.4h66.2c2.4,0,4.4-2,4.4-4.4v-26.2c0-2.4-2-4.4-4.4-4.4h-66.2
				C-234.1,475.4-236.1,477.3-236.1,479.8z"/>
		</g>
	</g>
	<g transform="matrix(0.38248, 0, 0, 0.38248, 535.7926874768066, 569.8207636718749)">
		<text transform="matrix(2.6145 0 0 2.6145 -2.6137 -1.117705e-03)" class="st4 st5">1120</text>
	</g>
	<g transform="matrix(0.38248, 0, 0, 0.38248, 622.8459140234374, 377.6877345019531)">
		<g>
			<path class="st7" d="M78.9,479.8V506c0,2.4,2,4.4,4.4,4.4h66.2c2.4,0,4.4-2,4.4-4.4v-26.2c0-2.4-2-4.4-4.4-4.4H83.3
				C80.9,475.4,78.9,477.3,78.9,479.8z"/>
		</g>
	</g>
	<g transform="matrix(0.38248, 0, 0, 0.38248, 656.2738874768065, 569.8207636718749)">
		<text transform="matrix(2.6145 0 0 2.6145 -2.6156 -1.117705e-03)" class="st4 st5">1109</text>
	</g>
	<g transform="matrix(0.38248, 0, 0, 0.38248, 622.8459140234374, 377.6877345019531)">
		<g>
			<path class="st8" d="M183.9,479.8V506c0,2.4,2,4.4,4.4,4.4h66.2c2.4,0,4.4-2,4.4-4.4v-26.2c0-2.4-2-4.4-4.4-4.4h-66.2
				C185.9,475.4,183.9,477.3,183.9,479.8z"/>
		</g>
	</g>
	<g transform="matrix(0.38248, 0, 0, 0.38248, 696.4342816406249, 569.8207636718749)">
		<text transform="matrix(2.6145 0 0 2.6145 -2.6163 -1.117705e-03)" class="st4 st5">1121</text>
	</g>
	<g transform="matrix(0.38248, 0, 0, 0.38248, 622.8459140234374, 377.6877345019531)">
		<g>
			<path class="st7" d="M288.9,479.8V506c0,2.4,2,4.4,4.4,4.4h66.2c2.4,0,4.4-2,4.4-4.4v-26.2c0-2.4-2-4.4-4.4-4.4h-66.2
				C290.9,475.4,288.9,477.3,288.9,479.8z"/>
		</g>
	</g>
	<g transform="matrix(0.38248, 0, 0, 0.38248, 736.5946816406249, 569.8207636718749)">
		<text transform="matrix(2.6145 0 0 2.6145 -2.6144 -1.117705e-03)" class="st4 st5">1110</text>
	</g>
	<g transform="matrix(0.38248, 0, 0, 0.38248, 622.8459140234374, 377.6877345019531)">
		<g>
			<path class="st7" d="M-26.1,479.8V506c0,2.4,2,4.4,4.4,4.4h66.2c2.4,0,4.4-2,4.4-4.4v-26.2c0-2.4-2-4.4-4.4-4.4h-66.2
				C-24.1,475.4-26.1,477.3-26.1,479.8z"/>
		</g>
	</g>
	<g transform="matrix(0.38248, 0, 0, 0.38248, 616.1134874768065, 569.8207636718749)">
		<text transform="matrix(2.6145 0 0 2.6145 -2.615 -1.117705e-03)" class="st4 st5">1111</text>
	</g>
	<g transform="matrix(0.38248, 0, 0, 0.38248, 622.8459140234374, 377.6877345019531)">
		<g>
			<path class="st8" d="M393.9,479.8V506c0,2.4,2,4.4,4.4,4.4h66.2c2.4,0,4.4-2,4.4-4.4v-26.2c0-2.4-2-4.4-4.4-4.4h-66.2
				C395.9,475.4,393.9,477.3,393.9,479.8z"/>
		</g>
	</g>
	<g transform="matrix(0.38248, 0, 0, 0.38248, 776.7550816406249, 569.8207636718749)">
		<text transform="matrix(2.6145 0 0 2.6145 -2.615 -1.117705e-03)" class="st4 st5">1122</text>
	</g>
	<g transform="matrix(0.38248, 0, 0, 0.38248, 622.8459140234374, 377.6877345019531)">
		<g>
			<path class="st8" d="M-131.1,479.8V506c0,2.4,2,4.4,4.4,4.4h66.2c2.4,0,4.4-2,4.4-4.4v-26.2c0-2.4-2-4.4-4.4-4.4h-66.2
				C-129.1,475.4-131.1,477.3-131.1,479.8z"/>
		</g>
	</g>
	<g transform="matrix(0.38248, 0, 0, 0.38248, 575.9530874768066, 569.8207636718749)">
		<text transform="matrix(2.6145 0 0 2.6145 -2.6144 -1.117705e-03)" class="st4 st5">1119</text>
	</g>
	<g transform="matrix(0.38248, 0, 0, 0.38248, 622.8459140234374, 377.6877345019531)">
		<g>
			<path class="st3" d="M-907.4,479.8V506c0,2.4,2,4.4,4.4,4.4h66.2c2.4,0,4.4-2,4.4-4.4v-26.2c0-2.4-2-4.4-4.4-4.4H-903
				C-905.4,475.4-907.4,477.3-907.4,479.8z"/>
		</g>
	</g>
	<g transform="matrix(0.38248, 0, 0, 0.38248, 279.052981640625, 569.8207636718749)">
		<text transform="matrix(2.6145 0 0 2.6145 -2.6139 -1.117705e-03)" class="st4 st5">1129</text>
	</g>
	<g transform="matrix(0.38248, 0, 0, 0.38248, 622.8459140234374, 377.6877345019531)">
		<g>
			<path class="st8" d="M-802.4,479.8V506c0,2.4,2,4.4,4.4,4.4h66.2c2.4,0,4.4-2,4.4-4.4v-26.2c0-2.4-2-4.4-4.4-4.4H-798
				C-800.4,475.4-802.4,477.3-802.4,479.8z"/>
		</g>
	</g>
	<g transform="matrix(0.38248, 0, 0, 0.38248, 319.21338164062496, 569.8207636718749)">
		<text transform="matrix(2.6145 0 0 2.6145 -2.6158 -1.117705e-03)" class="st4 st5">1700</text>
	</g>
	<g transform="matrix(0.38248, 0, 0, 0.38248, 622.8459140234374, 377.6877345019531)">
		<g>
			<path class="st7" d="M-926.1,324.8V351c0,2.4,2,4.4,4.4,4.4h66.2c2.4,0,4.4-2,4.4-4.4v-26.2c0-2.4-2-4.4-4.4-4.4h-66.2
				C-924.1,320.4-926.1,322.3-926.1,324.8z"/>
		</g>
	</g>
	<g transform="matrix(0.38248, 0, 0, 0.38248, 274.90462373046876, 510.536363671875)">
		<text transform="matrix(2.6145 0 0 2.6145 -2.6141 1.914806e-03)" class="st4 st5">351</text>
	</g>
	<g transform="matrix(0.38248, 0, 0, 0.38248, 622.8459140234374, 377.6877345019531)">
		<g>
			<path class="st8" d="M-716.1,324.8V351c0,2.4,2,4.4,4.4,4.4h66.2c2.4,0,4.4-2,4.4-4.4v-26.2c0-2.4-2-4.4-4.4-4.4h-66.2
				C-714.1,320.4-716.1,322.3-716.1,324.8z"/>
		</g>
	</g>
	<g transform="matrix(0.38248, 0, 0, 0.38248, 352.20228164062496, 510.536363671875)">
		<text transform="matrix(2.6145 0 0 2.6145 -2.6148 1.914806e-03)" class="st4 st5">1578</text>
	</g>
	<g transform="matrix(0.38248, 0, 0, 0.38248, 622.8459140234374, 377.6877345019531)">
		<g>
			<path class="st8" d="M-427.4,324.8V351c0,2.4,2,4.4,4.4,4.4h66.2c2.4,0,4.4-2,4.4-4.4v-26.2c0-2.4-2-4.4-4.4-4.4H-423
				C-425.4,320.4-427.4,322.3-427.4,324.8z"/>
		</g>
	</g>
	<g transform="matrix(0.38248, 0, 0, 0.38248, 465.6665237304687, 510.536363671875)">
		<text transform="matrix(2.6145 0 0 2.6145 -2.6159 1.914806e-03)" class="st4 st5">927</text>
	</g>
	<g transform="matrix(0.38248, 0, 0, 0.38248, 622.8459140234374, 377.6877345019531)">
		<g>
			<path class="st7" d="M-821.1,324.8V351c0,2.4,2,4.4,4.4,4.4h66.2c2.4,0,4.4-2,4.4-4.4v-26.2c0-2.4-2-4.4-4.4-4.4h-66.2
				C-819.1,320.4-821.1,322.3-821.1,324.8z"/>
		</g>
	</g>
	<g transform="matrix(0.38248, 0, 0, 0.38248, 315.06502373046874, 510.536363671875)">
		<text transform="matrix(2.6145 0 0 2.6145 -2.616 1.914806e-03)" class="st4 st5">320</text>
	</g>
	<g transform="matrix(0.38248, 0, 0, 0.38248, 622.8459140234374, 377.6877345019531)">
		<g>
			<path class="st7" d="M-217.4,324.8V351c0,2.4,2,4.4,4.4,4.4h66.2c2.4,0,4.4-2,4.4-4.4v-26.2c0-2.4-2-4.4-4.4-4.4H-213
				C-215.4,320.4-217.4,322.3-217.4,324.8z"/>
		</g>
	</g>
	<g transform="matrix(0.38248, 0, 0, 0.38248, 545.9873295666503, 510.536363671875)">
		<text transform="matrix(2.6145 0 0 2.6145 -2.6145 1.914806e-03)" class="st4 st5">909</text>
	</g>
	<g transform="matrix(0.38248, 0, 0, 0.38248, 622.8459140234374, 377.6877345019531)">
		<g>
			<path class="st7" d="M-322.4,324.8V351c0,2.4,2,4.4,4.4,4.4h66.2c2.4,0,4.4-2,4.4-4.4v-26.2c0-2.4-2-4.4-4.4-4.4H-318
				C-320.4,320.4-322.4,322.3-322.4,324.8z"/>
		</g>
	</g>
	<g transform="matrix(0.38248, 0, 0, 0.38248, 505.8269237304687, 510.536363671875)">
		<text transform="matrix(2.6145 0 0 2.6145 -2.614 1.914806e-03)" class="st4 st5">935</text>
	</g>
	<g transform="matrix(0.38248, 0, 0, 0.38248, 622.8459140234374, 377.6877345019531)">
		<g>
			<path class="st7" d="M578.9,169.8V196c0,2.4,2,4.4,4.4,4.4h66.2c2.4,0,4.4-2,4.4-4.4v-26.2c0-2.4-2-4.4-4.4-4.4h-66.2
				C580.9,165.4,578.9,167.3,578.9,169.8z"/>
		</g>
	</g>
	<g transform="matrix(0.38248, 0, 0, 0.38248, 850.5370237304687, 451.251963671875)">
		<text transform="matrix(2.6145 0 0 2.6145 -2.6144 0)" class="st4 st5">724</text>
	</g>
	<g transform="matrix(0.38248, 0, 0, 0.38248, 622.8459140234374, 377.6877345019531)">
		<g>
			<path class="st7" d="M368.9,169.8V196c0,2.4,2,4.4,4.4,4.4h66.2c2.4,0,4.4-2,4.4-4.4v-26.2c0-2.4-2-4.4-4.4-4.4h-66.2
				C370.9,165.4,368.9,167.3,368.9,169.8z"/>
		</g>
	</g>
	<g transform="matrix(0.38248, 0, 0, 0.38248, 770.2162237304686, 451.251963671875)">
		<text transform="matrix(2.6145 0 0 2.6145 -2.6131 0)" class="st4 st5">726</text>
	</g>
	<g transform="matrix(0.38248, 0, 0, 0.38248, 622.8459140234374, 377.6877345019531)">
		<g>
			<path class="st8" d="M683.9,169.8V196c0,2.4,2,4.4,4.4,4.4h66.2c2.4,0,4.4-2,4.4-4.4v-26.2c0-2.4-2-4.4-4.4-4.4h-66.2
				C685.9,165.4,683.9,167.3,683.9,169.8z"/>
		</g>
	</g>
	<g transform="matrix(0.38248, 0, 0, 0.38248, 890.6974237304687, 451.251963671875)">
		<text transform="matrix(2.6145 0 0 2.6145 -2.615 0)" class="st4 st5">748</text>
	</g>
	<g transform="matrix(0.38248, 0, 0, 0.38248, 622.8459140234374, 377.6877345019531)">
		<g>
			<path class="st8" d="M263.9,169.8V196c0,2.4,2,4.4,4.4,4.4h66.2c2.4,0,4.4-2,4.4-4.4v-26.2c0-2.4-2-4.4-4.4-4.4h-66.2
				C265.9,165.4,263.9,167.3,263.9,169.8z"/>
		</g>
	</g>
	<g transform="matrix(0.38248, 0, 0, 0.38248, 730.0558237304687, 451.251963671875)">
		<text transform="matrix(2.6145 0 0 2.6145 -2.615 0)" class="st4 st5">930</text>
	</g>
	<g transform="matrix(0.38248, 0, 0, 0.38248, 622.8459140234374, 377.6877345019531)">
		<g>
			<path class="st3" d="M158.9,169.8V196c0,2.4,2,4.4,4.4,4.4h66.2c2.4,0,4.4-2,4.4-4.4v-26.2c0-2.4-2-4.4-4.4-4.4h-66.2
				C160.9,165.4,158.9,167.3,158.9,169.8z"/>
		</g>
	</g>
	<g transform="matrix(0.38248, 0, 0, 0.38248, 689.8954295666504, 451.251963671875)">
		<text transform="matrix(2.6145 0 0 2.6145 -2.6144 0)" class="st4 st5">721</text>
	</g>
	<g transform="matrix(0.38248, 0, 0, 0.38248, 622.8459140234374, 377.6877345019531)">
		<g>
			<path class="st8" d="M473.9,169.8V196c0,2.4,2,4.4,4.4,4.4h66.3c2.4,0,4.4-2,4.4-4.4v-26.2c0-2.4-2-4.4-4.4-4.4h-66.3
				C475.9,165.4,473.9,167.3,473.9,169.8z"/>
		</g>
	</g>
	<g transform="matrix(0.38248, 0, 0, 0.38248, 810.3766237304686, 451.251963671875)">
		<text transform="matrix(2.6145 0 0 2.6145 -2.6137 0)" class="st4 st5">750</text>
	</g>
	<g transform="matrix(0.38248, 0, 0, 0.38248, 622.8459140234374, 377.6877345019531)">
		<g>
			<path class="st3" d="M-273.5,169.8V196c0,2.4,2,4.4,4.4,4.4h66.2c2.4,0,4.4-2,4.4-4.4v-26.2c0-2.4-2-4.4-4.4-4.4h-66.2
				C-271.5,165.4-273.5,167.3-273.5,169.8z"/>
		</g>
	</g>
	<g transform="matrix(0.38248, 0, 0, 0.38248, 524.5166184374999, 451.251963671875)">
		<text transform="matrix(2.6145 0 0 2.6145 -2.6145 0)" class="st4 st5">713</text>
	</g>
	<g transform="matrix(0.38248, 0, 0, 0.38248, 622.8459140234374, 377.6877345019531)">
		<g>
			<path class="st7" d="M38.9,169.8V196c0,2.4,2,4.4,4.4,4.4h66.2c2.4,0,4.4-2,4.4-4.4v-26.2c0-2.4-2-4.4-4.4-4.4H43.3
				C40.9,165.4,38.9,167.3,38.9,169.8z"/>
		</g>
	</g>
	<g transform="matrix(0.38248, 0, 0, 0.38248, 643.9978295666504, 451.251963671875)">
		<text transform="matrix(2.6145 0 0 2.6145 -2.6139 0)" class="st4 st5">714</text>
	</g>
	<g transform="matrix(0.38248, 0, 0, 0.38248, 622.8459140234374, 377.6877345019531)">
		<g>
			<path class="st3" d="M-821.1,169.8V196c0,2.4,2,4.4,4.4,4.4h66.2c2.4,0,4.4-2,4.4-4.4v-26.2c0-2.4-2-4.4-4.4-4.4h-66.2
				C-819.1,165.4-821.1,167.3-821.1,169.8z"/>
		</g>
	</g>
	<g transform="matrix(0.38248, 0, 0, 0.38248, 315.06502373046874, 451.251963671875)">
		<text transform="matrix(2.6145 0 0 2.6145 -2.616 0)" class="st4 st5">237</text>
	</g>
	<g transform="matrix(0.38248, 0, 0, 0.38248, 622.8459140234374, 377.6877345019531)">
		<g>
			<path class="st7" d="M-66.1,169.8V196c0,2.4,2,4.4,4.4,4.4H4.5c2.4,0,4.4-2,4.4-4.4v-26.2c0-2.4-2-4.4-4.4-4.4h-66.2
				C-64.1,165.4-66.1,167.3-66.1,169.8z"/>
		</g>
	</g>
	<g transform="matrix(0.38248, 0, 0, 0.38248, 603.8374295666503, 451.251963671875)">
		<text transform="matrix(2.6145 0 0 2.6145 -2.6132 0)" class="st4 st5">723</text>
	</g>
	<g transform="matrix(0.38248, 0, 0, 0.38248, 622.8459140234374, 377.6877345019531)">
		<g>
			<path class="st6" d="M-171.1,169.8V196c0,2.4,2,4.4,4.4,4.4h66.2c2.4,0,4.4-2,4.4-4.4v-26.2c0-2.4-2-4.4-4.4-4.4h-66.2
				C-169.1,165.4-171.1,167.3-171.1,169.8z"/>
		</g>
	</g>
	<g transform="matrix(0.38248, 0, 0, 0.38248, 563.6770295666503, 451.251963671875)">
		<text transform="matrix(2.6145 0 0 2.6145 -2.6126 0)" class="st4 st5">745</text>
	</g>
	<g transform="matrix(0.38248, 0, 0, 0.38248, 622.8459140234374, 377.6877345019531)">
		<g>
			<path class="st3" d="M-672.4,169.8V196c0,2.4,2,4.4,4.4,4.4h66.2c2.4,0,4.4-2,4.4-4.4v-26.2c0-2.4-2-4.4-4.4-4.4H-668
				C-670.4,165.4-672.4,167.3-672.4,169.8z"/>
		</g>
	</g>
	<g transform="matrix(0.38248, 0, 0, 0.38248, 371.95892373046865, 451.251963671875)">
		<text transform="matrix(2.6145 0 0 2.6145 -2.6144 0)" class="st4 st5">767</text>
	</g>
	<g transform="matrix(0.38248, 0, 0, 0.38248, 622.8459140234374, 377.6877345019531)">
		<g>
			<path class="st3" d="M582.6-355.2v26.2c0,2.4,2,4.4,4.4,4.4h66.2c2.4,0,4.4-2,4.4-4.4v-26.2c0-2.4-2-4.4-4.4-4.4H587
				C584.6-359.6,582.6-357.7,582.6-355.2z"/>
		</g>
	</g>
	<g transform="matrix(0.38248, 0, 0, 0.38248, 851.9713237304686, 250.449963671875)">
		<text transform="matrix(2.6145 0 0 2.6145 -2.6161 5.995412e-04)" class="st4 st5">300</text>
	</g>
	<g transform="matrix(0.38248, 0, 0, 0.38248, 622.8459140234374, 377.6877345019531)">
		<g>
			<path class="st7" d="M363.3-680.2v26.2c0,2.4,2,4.4,4.4,4.4h66.2c2.4,0,4.4-2,4.4-4.4v-26.2c0-2.4-2-4.4-4.4-4.4h-66.2
				C365.2-684.6,363.3-682.7,363.3-680.2z"/>
		</g>
	</g>
	<g transform="matrix(0.38248, 0, 0, 0.38248, 768.0647737304687, 126.14396367187501)">
		<text transform="matrix(2.6145 0 0 2.6145 -2.6153 1.986215e-04)" class="st4 st5">150</text>
	</g>
	<g transform="matrix(0.38248, 0, 0, 0.38248, 622.8459140234374, 377.6877345019531)">
		<g>
			<path class="st3" d="M477.6-355.2v26.2c0,2.4,2,4.4,4.4,4.4h66.3c2.4,0,4.4-2,4.4-4.4v-26.2c0-2.4-2-4.4-4.4-4.4H482
				C479.6-359.6,477.6-357.7,477.6-355.2z"/>
		</g>
	</g>
	<g transform="matrix(0.38248, 0, 0, 0.38248, 811.8109237304686, 250.449963671875)">
		<text transform="matrix(2.6145 0 0 2.6145 -2.6155 5.995412e-04)" class="st4 st5">287</text>
	</g>
	<g transform="matrix(0.38248, 0, 0, 0.38248, 622.8459140234374, 377.6877345019531)">
		<g>
			<path class="st7" d="M607.6-790.2v26.2c0,2.4,2,4.4,4.4,4.4h66.2c2.4,0,4.4-2,4.4-4.4v-26.2c0-2.4-2-4.4-4.4-4.4H612
				C609.6-794.6,607.6-792.7,607.6-790.2z"/>
		</g>
	</g>
	<g transform="matrix(0.38248, 0, 0, 0.38248, 861.5333237304686, 84.07116367187501)">
		<text transform="matrix(2.6145 0 0 2.6145 -2.6148 3.191343e-04)" class="st4 st5">114</text>
	</g>
	<g transform="matrix(0.38248, 0, 0, 0.38248, 622.8459140234374, 377.6877345019531)">
		<g>
			<path class="st3" d="M607.6-680.2v26.2c0,2.4,2,4.4,4.4,4.4h66.2c2.4,0,4.4-2,4.4-4.4v-26.2c0-2.4-2-4.4-4.4-4.4H612
				C609.6-684.6,607.6-682.7,607.6-680.2z"/>
		</g>
	</g>
	<g transform="matrix(0.38248, 0, 0, 0.38248, 861.5333237304686, 126.14396367187501)">
		<text transform="matrix(2.6145 0 0 2.6145 -2.6148 1.986215e-04)" class="st4 st5">163</text>
	</g>
	<g transform="matrix(0.38248, 0, 0, 0.38248, 622.8459140234374, 377.6877345019531)">
		<g>
			<path class="st7" d="M458.9-200.2v26.2c0,2.4,2,4.4,4.4,4.4h66.3c2.4,0,4.4-2,4.4-4.4v-26.2c0-2.4-2-4.4-4.4-4.4h-66.3
				C460.9-204.6,458.9-202.7,458.9-200.2z"/>
		</g>
	</g>
	<g transform="matrix(0.38248, 0, 0, 0.38248, 804.6394237304687, 309.734363671875)">
		<text transform="matrix(2.6145 0 0 2.6145 -2.6139 0)" class="st4 st5">403</text>
	</g>
	<g transform="matrix(0.38248, 0, 0, 0.38248, 622.8459140234374, 377.6877345019531)">
		<g>
			<path class="st7" d="M563.9-200.2v26.2c0,2.4,2,4.4,4.4,4.4h66.2c2.4,0,4.4-2,4.4-4.4v-26.2c0-2.4-2-4.4-4.4-4.4h-66.2
				C565.9-204.6,563.9-202.7,563.9-200.2z"/>
		</g>
	</g>
	<g transform="matrix(0.38248, 0, 0, 0.38248, 844.7998237304687, 309.734363671875)">
		<text transform="matrix(2.6145 0 0 2.6145 -2.6145 0)" class="st4 st5">415</text>
	</g>
	<g transform="matrix(0.38248, 0, 0, 0.38248, 622.8459140234374, 377.6877345019531)">
		<g>
			<path class="st6" d="M668.9-200.2v26.2c0,2.4,2,4.4,4.4,4.4h66.2c2.4,0,4.4-2,4.4-4.4v-26.2c0-2.4-2-4.4-4.4-4.4h-66.2
				C670.9-204.6,668.9-202.7,668.9-200.2z"/>
		</g>
	</g>
	<g transform="matrix(0.38248, 0, 0, 0.38248, 884.9602237304687, 309.734363671875)">
		<text transform="matrix(2.6145 0 0 2.6145 -2.6126 0)" class="st4 st5">585</text>
	</g>
	<g transform="matrix(0.38248, 0, 0, 0.38248, 622.8459140234374, 377.6877345019531)">
		<g>
			<path class="st3" d="M310.1-525.2v26.2c0,2.4,2,4.4,4.4,4.4h66.2c2.4,0,4.4-2,4.4-4.4v-26.2c0-2.4-2-4.4-4.4-4.4h-66.2
				C312.1-529.6,310.1-527.7,310.1-525.2z"/>
		</g>
	</g>
	<g transform="matrix(0.38248, 0, 0, 0.38248, 747.7455237304687, 185.428363671875)">
		<text transform="matrix(2.6145 0 0 2.6145 -2.6131 -3.590874e-04)" class="st4 st5">215</text>
	</g>
	<g transform="matrix(0.38248, 0, 0, 0.38248, 622.8459140234374, 377.6877345019531)">
		<g>
			<path class="st3" d="M-586.1-525.2v26.2c0,2.4,2,4.4,4.4,4.4h66.2c2.4,0,4.4-2,4.4-4.4v-26.2c0-2.4-2-4.4-4.4-4.4h-66.2
				C-584.1-529.6-586.1-527.7-586.1-525.2z"/>
		</g>
	</g>
	<g transform="matrix(0.38248, 0, 0, 0.38248, 404.9478237304687, 185.428363671875)">
		<text transform="matrix(2.6145 0 0 2.6145 -2.616 -3.590874e-04)" class="st4 st5">214</text>
	</g>
	<g transform="matrix(0.38248, 0, 0, 0.38248, 622.8459140234374, 377.6877345019531)">
		<g>
			<path class="st6" d="M-128.6-525.2v26.2c0,2.4,2,4.4,4.4,4.4H-58c2.4,0,4.4-2,4.4-4.4v-26.2c0-2.4-2-4.4-4.4-4.4h-66.2
				C-126.6-529.6-128.6-527.7-128.6-525.2z"/>
		</g>
	</g>
	<g transform="matrix(0.38248, 0, 0, 0.38248, 579.9324295666503, 185.428363671875)">
		<text transform="matrix(2.6145 0 0 2.6145 -2.614 -3.590874e-04)" class="st4 st5">232</text>
	</g>
	<g transform="matrix(0.38248, 0, 0, 0.38248, 622.8459140234374, 377.6877345019531)">
		<g>
			<path class="st7" d="M-357.4-525.2v26.2c0,2.4,2,4.4,4.4,4.4h66.2c2.4,0,4.4-2,4.4-4.4v-26.2c0-2.4-2-4.4-4.4-4.4H-353
				C-355.4-529.6-357.4-527.7-357.4-525.2z"/>
		</g>
	</g>
	<g transform="matrix(0.38248, 0, 0, 0.38248, 492.4401237304687, 185.428363671875)">
		<text transform="matrix(2.6145 0 0 2.6145 -2.6163 -3.590874e-04)" class="st4 st5">216</text>
	</g>
	<g transform="matrix(0.38248, 0, 0, 0.38248, 622.8459140234374, 377.6877345019531)">
		<g>
			<path class="st7" d="M-8-525.2v26.2c0,2.4,2,4.4,4.4,4.4h66.2c2.4,0,4.4-2,4.4-4.4v-26.2c0-2.4-2-4.4-4.4-4.4H-3.6
				C-6-529.6-8-527.7-8-525.2z"/>
		</g>
	</g>
	<g transform="matrix(0.38248, 0, 0, 0.38248, 626.0690795666503, 185.428363671875)">
		<text transform="matrix(2.6145 0 0 2.6145 -2.6139 -3.590874e-04)" class="st4 st5">217</text>
	</g>
	<g transform="matrix(0.38248, 0, 0, 0.38248, 622.8459140234374, 377.6877345019531)">
		<g>
			<path class="st7" d="M-233.6-525.2v26.2c0,2.4,2,4.4,4.4,4.4h66.2c2.4,0,4.4-2,4.4-4.4v-26.2c0-2.4-2-4.4-4.4-4.4h-66.2
				C-231.6-529.6-233.6-527.7-233.6-525.2z"/>
		</g>
	</g>
	<g transform="matrix(0.38248, 0, 0, 0.38248, 539.7720295666503, 185.428363671875)">
		<text transform="matrix(2.6145 0 0 2.6145 -2.616 -3.590874e-04)" class="st4 st5">213</text>
	</g>
	<g transform="matrix(0.38248, 0, 0, 0.38248, 622.8459140234374, 377.6877345019531)">
		<g>
			<path class="st7" d="M502.6-525.2v26.2c0,2.4,2,4.4,4.4,4.4h66.3c2.4,0,4.4-2,4.4-4.4v-26.2c0-2.4-2-4.4-4.4-4.4H507
				C504.6-529.6,502.6-527.7,502.6-525.2z"/>
		</g>
	</g>
	<g transform="matrix(0.38248, 0, 0, 0.38248, 821.3729237304686, 185.428363671875)">
		<text transform="matrix(2.6145 0 0 2.6145 -2.6142 -3.590874e-04)" class="st4 st5">212</text>
	</g>
	<g transform="matrix(0.38248, 0, 0, 0.38248, 622.8459140234374, 377.6877345019531)">
		<g>
			<path class="st7" d="M607.6-525.2v26.2c0,2.4,2,4.4,4.4,4.4h66.2c2.4,0,4.4-2,4.4-4.4v-26.2c0-2.4-2-4.4-4.4-4.4H612
				C609.6-529.6,607.6-527.7,607.6-525.2z"/>
		</g>
	</g>
	<g transform="matrix(0.38248, 0, 0, 0.38248, 861.5333237304686, 185.428363671875)">
		<text transform="matrix(2.6145 0 0 2.6145 -2.6148 -3.590874e-04)" class="st4 st5">227</text>
	</g>
	<g transform="matrix(0.38248, 0, 0, 0.38248, 622.8459140234374, 377.6877345019531)">
		<g>
			<path class="st8" d="M712.6-525.2v26.2c0,2.4,2,4.4,4.4,4.4h66.2c2.4,0,4.4-2,4.4-4.4v-26.2c0-2.4-2-4.4-4.4-4.4H717
				C714.6-529.6,712.6-527.7,712.6-525.2z"/>
		</g>
	</g>
	<g transform="matrix(0.38248, 0, 0, 0.38248, 901.6937237304687, 185.428363671875)">
		<text transform="matrix(2.6145 0 0 2.6145 -2.6155 -3.590874e-04)" class="st4 st5">254</text>
	</g>
	<g transform="matrix(0.38248, 0, 0, 0.38248, 622.8459140234374, 377.6877345019531)">
		<g>
			<path class="st3" d="M298.3-60.2V-34c0,2.4,2,4.4,4.4,4.4h66.2c2.4,0,4.4-2,4.4-4.4v-26.2c0-2.4-2-4.4-4.4-4.4h-66.2
				C300.2-64.6,298.3-62.7,298.3-60.2z"/>
		</g>
	</g>
	<g transform="matrix(0.38248, 0, 0, 0.38248, 743.2035737304686, 363.281563671875)">
		<text transform="matrix(2.6145 0 0 2.6145 -2.6156 4.791917e-04)" class="st4 st5">556</text>
	</g>
	<g transform="matrix(0.38248, 0, 0, 0.38248, 622.8459140234374, 377.6877345019531)">
		<g>
			<path class="st7" d="M-724.9-60.2V-34c0,2.4,2,4.4,4.4,4.4h66.2c2.4,0,4.4-2,4.4-4.4v-26.2c0-2.4-2-4.4-4.4-4.4h-66.2
				C-722.9-64.6-724.9-62.7-724.9-60.2z"/>
		</g>
	</g>
	<g transform="matrix(0.38248, 0, 0, 0.38248, 351.87872373046866, 363.281563671875)">
		<text transform="matrix(2.6145 0 0 2.6145 -2.614 4.791917e-04)" class="st4 st5">173</text>
	</g>
	<g transform="matrix(0.38248, 0, 0, 0.38248, 622.8459140234374, 377.6877345019531)">
		<g>
			<path class="st3" d="M440.1-60.2V-34c0,2.4,2,4.4,4.4,4.4h66.2c2.4,0,4.4-2,4.4-4.4v-26.2c0-2.4-2-4.4-4.4-4.4h-66.2
				C442.1-64.6,440.1-62.7,440.1-60.2z"/>
		</g>
	</g>
	<g transform="matrix(0.38248, 0, 0, 0.38248, 797.4679237304687, 363.281563671875)">
		<text transform="matrix(2.6145 0 0 2.6145 -2.6148 4.791917e-04)" class="st4 st5">550</text>
	</g>
	<g transform="matrix(0.38248, 0, 0, 0.38248, 622.8459140234374, 377.6877345019531)">
		<g>
			<path class="st7" d="M-120.3-60.2V-34c0,2.4,2,4.4,4.4,4.4h66.2c2.4,0,4.4-2,4.4-4.4v-26.2c0-2.4-2-4.4-4.4-4.4h-66.2
				C-118.3-64.6-120.3-62.7-120.3-60.2z"/>
		</g>
	</g>
	<g transform="matrix(0.38248, 0, 0, 0.38248, 583.1039273937987, 363.281563671875)">
		<text transform="matrix(2.6145 0 0 2.6145 -2.6156 4.791917e-04)" class="st4 st5">547</text>
	</g>
	<g transform="matrix(0.38248, 0, 0, 0.38248, 622.8459140234374, 377.6877345019531)">
		<g>
			<path class="st3" d="M102.1-60.2V-34c0,2.4,2,4.4,4.4,4.4h66.2c2.4,0,4.4-2,4.4-4.4v-26.2c0-2.4-2-4.4-4.4-4.4h-66.2
				C104-64.6,102.1-62.7,102.1-60.2z"/>
		</g>
	</g>
	<g transform="matrix(0.38248, 0, 0, 0.38248, 668.1582208752441, 363.281563671875)">
		<text transform="matrix(2.6145 0 0 2.6145 -2.6145 4.791917e-04)" class="st4 st5">549</text>
	</g>
	<g transform="matrix(0.38248, 0, 0, 0.38248, 622.8459140234374, 377.6877345019531)">
		<g>
			<path class="st8" d="M-619.9-60.2V-34c0,2.4,2,4.4,4.4,4.4h66.2c2.4,0,4.4-2,4.4-4.4v-26.2c0-2.4-2-4.4-4.4-4.4h-66.2
				C-617.9-64.6-619.9-62.7-619.9-60.2z"/>
		</g>
	</g>
	<g transform="matrix(0.38248, 0, 0, 0.38248, 392.03912373046865, 363.281563671875)">
		<text transform="matrix(2.6145 0 0 2.6145 -2.6147 4.791917e-04)" class="st4 st5">586</text>
	</g>
	<g transform="matrix(0.38248, 0, 0, 0.38248, 622.8459140234374, 377.6877345019531)">
		<g>
			<path class="st3" d="M616.4-60.2V-34c0,2.4,2,4.4,4.4,4.4H687c2.4,0,4.4-2,4.4-4.4v-26.2c0-2.4-2-4.4-4.4-4.4h-66.2
				C618.4-64.6,616.4-62.7,616.4-60.2z"/>
		</g>
	</g>
	<g transform="matrix(0.38248, 0, 0, 0.38248, 864.8800237304687, 363.281563671875)">
		<text transform="matrix(2.6145 0 0 2.6145 -2.6148 4.791917e-04)" class="st4 st5">548</text>
	</g>
	<g transform="matrix(0.38248, 0, 0, 0.38248, 622.8459140234374, 377.6877345019531)">
		<g>
			<path class="st3" d="M13.5-65.5v26.2c0,2.4,2,4.4,4.4,4.4h66.2c2.4,0,4.4-2,4.4-4.4v-26.2c0-2.4-2-4.4-4.4-4.4H17.8
				C15.4-69.8,13.5-67.9,13.5-65.5z"/>
		</g>
	</g>
	<g transform="matrix(0.38248, 0, 0, 0.38248, 634.2643333691406, 361.2815625854492)">
		<text transform="matrix(2.6145 0 0 2.6145 -2.6163 4.791917e-04)" class="st4 st5">545</text>
	</g>
	<g transform="matrix(0.38248, 0, 0, 0.38248, 622.8459140234374, 377.6877345019531)">
		<g>
			<path class="st8" d="M-338.6-60.2V-34c0,2.4,2,4.4,4.4,4.4h66.2c2.4,0,4.4-2,4.4-4.4v-26.2c0-2.4-2-4.4-4.4-4.4h-66.2
				C-336.6-64.6-338.6-62.7-338.6-60.2z"/>
		</g>
	</g>
	<g transform="matrix(0.38248, 0, 0, 0.38248, 499.61162373046864, 363.281563671875)">
		<text transform="matrix(2.6145 0 0 2.6145 -2.6153 4.791917e-04)" class="st4 st5">589</text>
	</g>
	<g transform="matrix(0.38248, 0, 0, 0.38248, 622.8459140234374, 377.6877345019531)">
		<g>
			<path class="st8" d="M-214.9-60.2V-34c0,2.4,2,4.4,4.4,4.4h66.2c2.4,0,4.4-2,4.4-4.4v-26.2c0-2.4-2-4.4-4.4-4.4h-66.2
				C-212.9-64.6-214.9-62.7-214.9-60.2z"/>
		</g>
	</g>
	<g transform="matrix(0.38248, 0, 0, 0.38248, 546.9435295666503, 363.281563671875)">
		<text transform="matrix(2.6145 0 0 2.6145 -2.615 4.791917e-04)" class="st4 st5">746</text>
	</g>
	<g transform="matrix(0.38248, 0, 0, 0.38248, 622.8459140234374, 377.6877345019531)">
		<g>
			<path class="st8" d="M687.6-355.2v26.2c0,2.4,2,4.4,4.4,4.4h66.2c2.4,0,4.4-2,4.4-4.4v-26.2c0-2.4-2-4.4-4.4-4.4H692
				C689.6-359.6,687.6-357.7,687.6-355.2z"/>
		</g>
	</g>
	<g transform="matrix(0.38248, 0, 0, 0.38248, 892.1317237304686, 250.449963671875)">
		<text transform="matrix(2.6145 0 0 2.6145 -2.6142 5.995412e-04)" class="st4 st5">341</text>
	</g>
	<g transform="matrix(0.38248, 0, 0, 0.38248, 622.8459140234374, 377.6877345019531)">
		<g>
			<path class="st7" d="M-462.4-355.2v26.2c0,2.4,2,4.4,4.4,4.4h66.2c2.4,0,4.4-2,4.4-4.4v-26.2c0-2.4-2-4.4-4.4-4.4H-458
				C-460.4-359.6-462.4-357.7-462.4-355.2z"/>
		</g>
	</g>
	<g transform="matrix(0.38248, 0, 0, 0.38248, 452.27972373046873, 250.449963671875)">
		<text transform="matrix(2.6145 0 0 2.6145 -2.6156 5.995412e-04)" class="st4 st5">303</text>
	</g>
	<g transform="matrix(0.38248, 0, 0, 0.38248, 622.8459140234374, 377.6877345019531)">
		<g>
			<path class="st7" d="M-17.4-355.2v26.2c0,2.4,2,4.4,4.4,4.4h66.2c2.4,0,4.4-2,4.4-4.4v-26.2c0-2.4-2-4.4-4.4-4.4H-13
				C-15.4-359.6-17.4-357.7-17.4-355.2z"/>
		</g>
	</g>
	<g transform="matrix(0.38248, 0, 0, 0.38248, 622.4833295666504, 250.449963671875)">
		<text transform="matrix(2.6145 0 0 2.6145 -2.6144 5.995412e-04)" class="st4 st5">302</text>
	</g>
	<g transform="matrix(0.38248, 0, 0, 0.38248, 622.8459140234374, 377.6877345019531)">
		<g>
			<path class="st7" d="M-567.4-355.2v26.2c0,2.4,2,4.4,4.4,4.4h66.2c2.4,0,4.4-2,4.4-4.4v-26.2c0-2.4-2-4.4-4.4-4.4H-563
				C-565.4-359.6-567.4-357.7-567.4-355.2z"/>
		</g>
	</g>
	<g transform="matrix(0.38248, 0, 0, 0.38248, 412.11932373046864, 250.449963671875)">
		<text transform="matrix(2.6145 0 0 2.6145 -2.615 5.995412e-04)" class="st4 st5">288</text>
	</g>
	<g transform="matrix(0.38248, 0, 0, 0.38248, 622.8459140234374, 377.6877345019531)">
		<g>
			<path class="st8" d="M353.9-355.2v26.2c0,2.4,2,4.4,4.4,4.4h66.2c2.4,0,4.4-2,4.4-4.4v-26.2c0-2.4-2-4.4-4.4-4.4h-66.2
				C355.9-359.6,353.9-357.7,353.9-355.2z"/>
		</g>
	</g>
	<g transform="matrix(0.38248, 0, 0, 0.38248, 764.4790237304687, 250.449963671875)">
		<text transform="matrix(2.6145 0 0 2.6145 -2.6158 5.995412e-04)" class="st4 st5">335</text>
	</g>
	<g transform="matrix(0.38248, 0, 0, 0.38248, 622.8459140234374, 377.6877345019531)">
		<g>
			<path class="st8" d="M-357.4-355.2v26.2c0,2.4,2,4.4,4.4,4.4h66.2c2.4,0,4.4-2,4.4-4.4v-26.2c0-2.4-2-4.4-4.4-4.4H-353
				C-355.4-359.6-357.4-357.7-357.4-355.2z"/>
		</g>
	</g>
	<g transform="matrix(0.38248, 0, 0, 0.38248, 492.4401237304687, 250.449963671875)">
		<text transform="matrix(2.6145 0 0 2.6145 -2.6163 5.995412e-04)" class="st4 st5">316</text>
	</g>
	<g transform="matrix(0.38248, 0, 0, 0.38248, 622.8459140234374, 377.6877345019531)">
		<g>
			<path class="st3" d="M-252.4-355.2v26.2c0,2.4,2,4.4,4.4,4.4h66.2c2.4,0,4.4-2,4.4-4.4v-26.2c0-2.4-2-4.4-4.4-4.4H-248
				C-250.4-359.6-252.4-357.7-252.4-355.2z"/>
		</g>
	</g>
	<g transform="matrix(0.38248, 0, 0, 0.38248, 532.6005295666503, 250.449963671875)">
		<text transform="matrix(2.6145 0 0 2.6145 -2.6144 5.995412e-04)" class="st4 st5">301</text>
	</g>
	<g transform="matrix(0.38248, 0, 0, 0.38248, 622.8459140234374, 377.6877345019531)">
		<g>
			<path class="st7" d="M248.9-355.2v26.2c0,2.4,2,4.4,4.4,4.4h66.2c2.4,0,4.4-2,4.4-4.4v-26.2c0-2.4-2-4.4-4.4-4.4h-66.2
				C250.9-359.6,248.9-357.7,248.9-355.2z"/>
		</g>
	</g>
	<g transform="matrix(0.38248, 0, 0, 0.38248, 724.3186237304686, 250.449963671875)">
		<text transform="matrix(2.6145 0 0 2.6145 -2.6152 5.995412e-04)" class="st4 st5">304</text>
	</g>
	<g transform="matrix(0.38248, 0, 0, 0.38248, 622.8459140234374, 377.6877345019531)">
		<g>
			<path class="st8" d="M87.6-355.2v26.2c0,2.4,2,4.4,4.4,4.4h66.2c2.4,0,4.4-2,4.4-4.4v-26.2c0-2.4-2-4.4-4.4-4.4H92
				C89.6-359.6,87.6-357.7,87.6-355.2z"/>
		</g>
	</g>
	<g transform="matrix(0.38248, 0, 0, 0.38248, 662.6437295666503, 250.449963671875)">
		<text transform="matrix(2.6145 0 0 2.6145 -2.615 5.995412e-04)" class="st4 st5">336</text>
	</g>
	<g transform="matrix(0.38248, 0, 0, 0.38248, 622.8459140234374, 377.6877345019531)">
		<g>
			<path class="st6" d="M-672.4-355.2v26.2c0,2.4,2,4.4,4.4,4.4h66.2c2.4,0,4.4-2,4.4-4.4v-26.2c0-2.4-2-4.4-4.4-4.4H-668
				C-670.4-359.6-672.4-357.7-672.4-355.2z"/>
		</g>
	</g>
	<g transform="matrix(0.38248, 0, 0, 0.38248, 371.95892373046865, 250.449963671875)">
		<text transform="matrix(2.6145 0 0 2.6145 -2.6144 5.995412e-04)" class="st4 st5">343</text>
	</g>
	<g transform="matrix(0.38248, 0, 0, 0.38248, 622.8459140234374, 377.6877345019531)">
		<g>
			<path class="st7" d="M-653.6-200.2v26.2c0,2.4,2,4.4,4.4,4.4h66.2c2.4,0,4.4-2,4.4-4.4v-26.2c0-2.4-2-4.4-4.4-4.4h-66.2
				C-651.6-204.6-653.6-202.7-653.6-200.2z"/>
		</g>
	</g>
	<g transform="matrix(0.38248, 0, 0, 0.38248, 379.1304237304687, 309.734363671875)">
		<text transform="matrix(2.6145 0 0 2.6145 -2.6134 0)" class="st4 st5">400</text>
	</g>
	<g transform="matrix(0.38248, 0, 0, 0.38248, 622.8459140234374, 377.6877345019531)">
		<g>
			<path class="st7" d="M-338.6-200.2v26.2c0,2.4,2,4.4,4.4,4.4h66.2c2.4,0,4.4-2,4.4-4.4v-26.2c0-2.4-2-4.4-4.4-4.4h-66.2
				C-336.6-204.6-338.6-202.7-338.6-200.2z"/>
		</g>
	</g>
	<g transform="matrix(0.38248, 0, 0, 0.38248, 499.61162373046864, 309.734363671875)">
		<text transform="matrix(2.6145 0 0 2.6145 -2.6153 0)" class="st4 st5">416</text>
	</g>
	<g transform="matrix(0.38248, 0, 0, 0.38248, 622.8459140234374, 377.6877345019531)">
		<g>
			<path class="st8" d="M258.3-200.2v26.2c0,2.4,2,4.4,4.4,4.4h66.2c2.4,0,4.4-2,4.4-4.4v-26.2c0-2.4-2-4.4-4.4-4.4h-66.2
				C260.2-204.6,258.3-202.7,258.3-200.2z"/>
		</g>
	</g>
	<g transform="matrix(0.38248, 0, 0, 0.38248, 727.9043737304687, 309.734363671875)">
		<text transform="matrix(2.6145 0 0 2.6145 -2.6147 0)" class="st4 st5">447</text>
	</g>
	<g transform="matrix(0.38248, 0, 0, 0.38248, 622.8459140234374, 377.6877345019531)">
		<g>
			<path class="st3" d="M-128.6-200.2v26.2c0,2.4,2,4.4,4.4,4.4H-58c2.4,0,4.4-2,4.4-4.4v-26.2c0-2.4-2-4.4-4.4-4.4h-66.2
				C-126.6-204.6-128.6-202.7-128.6-200.2z"/>
		</g>
	</g>
	<g transform="matrix(0.38248, 0, 0, 0.38248, 579.9324295666503, 309.734363671875)">
		<text transform="matrix(2.6145 0 0 2.6145 -2.614 0)" class="st4 st5">401</text>
	</g>
	<g transform="matrix(0.38248, 0, 0, 0.38248, 622.8459140234374, 377.6877345019531)">
		<g>
			<path class="st8" d="M-548.6-200.2v26.2c0,2.4,2,4.4,4.4,4.4h66.2c2.4,0,4.4-2,4.4-4.4v-26.2c0-2.4-2-4.4-4.4-4.4h-66.2
				C-546.6-204.6-548.6-202.7-548.6-200.2z"/>
		</g>
	</g>
	<g transform="matrix(0.38248, 0, 0, 0.38248, 419.2908237304687, 309.734363671875)">
		<text transform="matrix(2.6145 0 0 2.6145 -2.614 0)" class="st4 st5">450</text>
	</g>
	<g transform="matrix(0.38248, 0, 0, 0.38248, 622.8459140234374, 377.6877345019531)">
		<g>
			<path class="st3" d="M-23.6-200.2v26.2c0,2.4,2,4.4,4.4,4.4H47c2.4,0,4.4-2,4.4-4.4v-26.2c0-2.4-2-4.4-4.4-4.4h-66.2
				C-21.6-204.6-23.6-202.7-23.6-200.2z"/>
		</g>
	</g>
	<g transform="matrix(0.38248, 0, 0, 0.38248, 620.0928295666503, 309.734363671875)">
		<text transform="matrix(2.6145 0 0 2.6145 -2.6147 0)" class="st4 st5">402</text>
	</g>
	<g transform="matrix(0.38248, 0, 0, 0.38248, 622.8459140234374, 377.6877345019531)">
		<g>
			<path class="st8" d="M-233.6-200.2v26.2c0,2.4,2,4.4,4.4,4.4h66.2c2.4,0,4.4-2,4.4-4.4v-26.2c0-2.4-2-4.4-4.4-4.4h-66.2
				C-231.6-204.6-233.6-202.7-233.6-200.2z"/>
		</g>
	</g>
	<g transform="matrix(0.38248, 0, 0, 0.38248, 539.7720295666503, 309.734363671875)">
		<text transform="matrix(2.6145 0 0 2.6145 -2.616 0)" class="st4 st5">452</text>
	</g>
	<g transform="matrix(0.38248, 0, 0, 0.38248, 622.8459140234374, 377.6877345019531)">
		<g>
			<path class="st7" d="M153.3-200.2v26.2c0,2.4,2,4.4,4.4,4.4h66.2c2.4,0,4.4-2,4.4-4.4v-26.2c0-2.4-2-4.4-4.4-4.4h-66.2
				C155.2-204.6,153.3-202.7,153.3-200.2z"/>
		</g>
	</g>
	<g transform="matrix(0.38248, 0, 0, 0.38248, 687.7439795666503, 309.734363671875)">
		<text transform="matrix(2.6145 0 0 2.6145 -2.614 0)" class="st4 st5">417</text>
	</g>
	<g transform="matrix(0.38248, 0, 0, 0.38248, 622.8459140234374, 377.6877345019531)">
		<g>
			<path class="st8" d="M-443.6-200.2v26.2c0,2.4,2,4.4,4.4,4.4h66.2c2.4,0,4.4-2,4.4-4.4v-26.2c0-2.4-2-4.4-4.4-4.4h-66.2
				C-441.6-204.6-443.6-202.7-443.6-200.2z"/>
		</g>
	</g>
	<g transform="matrix(0.38248, 0, 0, 0.38248, 459.45122373046866, 309.734363671875)">
		<text transform="matrix(2.6145 0 0 2.6145 -2.6147 0)" class="st4 st5">454</text>
	</g>
	<g transform="matrix(0.38248, 0, 0, 0.38248, 622.8459140234374, 377.6877345019531)">
		<g>
			<path class="st3" d="M-147.4-885.2v26.2c0,2.4,2,4.4,4.4,4.4h66.2c2.4,0,4.4-2,4.4-4.4v-26.2c0-2.4-2-4.4-4.4-4.4H-143
				C-145.4-889.6-147.4-887.7-147.4-885.2z"/>
		</g>
	</g>
	<g transform="matrix(0.38248, 0, 0, 0.38248, 575.7840716564941, 47.735563671875006)">
		<text transform="matrix(2.6145 0 0 2.6145 -2.6142 7.185834e-04)" class="st4 st5">77</text>
	</g>
	<g transform="matrix(0.38248, 0, 0, 0.38248, 622.8459140234374, 377.6877345019531)">
		<g>
			<path class="st9" d="M-166.1-965.2v26.2c0,2.4,2,4.4,4.4,4.4h66.2c2.4,0,4.4-2,4.4-4.4v-26.2c0-2.4-2-4.4-4.4-4.4h-66.2
				C-164.1-969.6-166.1-967.7-166.1-965.2z"/>
		</g>
	</g>
	<g transform="matrix(0.38248, 0, 0, 0.38248, 568.6125716564941, 17.13716367187498)">
		<text transform="matrix(2.6145 0 0 2.6145 -2.6126 1.151204e-04)" class="st4 st5">51</text>
	</g>
	<g transform="matrix(0.38248, 0, 0, 0.38248, 622.8459140234374, 377.6877345019531)">
		<g>
			<path class="st3" d="M-147.4-680.2v26.2c0,2.4,2,4.4,4.4,4.4h66.2c2.4,0,4.4-2,4.4-4.4v-26.2c0-2.4-2-4.4-4.4-4.4H-143
				C-145.4-684.6-147.4-682.7-147.4-680.2z"/>
		</g>
	</g>
	<g transform="matrix(0.38248, 0, 0, 0.38248, 572.7609295666504, 126.14396367187501)">
		<text transform="matrix(2.6145 0 0 2.6145 -2.615 1.986215e-04)" class="st4 st5">151</text>
	</g>
	<g transform="matrix(0.38248, 0, 0, 0.38248, 622.8459140234374, 377.6877345019531)">
		<g>
			<path class="st7" d="M-147.4-790.2v26.2c0,2.4,2,4.4,4.4,4.4h66.2c2.4,0,4.4-2,4.4-4.4v-26.2c0-2.4-2-4.4-4.4-4.4H-143
				C-145.4-794.6-147.4-792.7-147.4-790.2z"/>
		</g>
	</g>
	<g transform="matrix(0.38248, 0, 0, 0.38248, 572.7609295666504, 84.07116367187501)">
		<text transform="matrix(2.6145 0 0 2.6145 -2.615 3.191343e-04)" class="st4 st5">104</text>
	</g>
	<g transform="matrix(0.38248, 0, 0, 0.38248, 622.8459140234374, 377.6877345019531)">
		<g>
			<path class="st7" d="M-586.1-680.2v26.2c0,2.4,2,4.4,4.4,4.4h66.2c2.4,0,4.4-2,4.4-4.4v-26.2c0-2.4-2-4.4-4.4-4.4h-66.2
				C-584.1-684.6-586.1-682.7-586.1-680.2z"/>
		</g>
	</g>
	<g transform="matrix(0.38248, 0, 0, 0.38248, 404.9478237304687, 126.14396367187501)">
		<text transform="matrix(2.6145 0 0 2.6145 -2.616 1.986215e-04)" class="st4 st5">149</text>
	</g>
	<g transform="matrix(0.38248, 0, 0, 0.38248, 622.8459140234374, 377.6877345019531)">
		<g>
			<path class="st8" d="M-252.4-790.2v26.2c0,2.4,2,4.4,4.4,4.4h66.2c2.4,0,4.4-2,4.4-4.4v-26.2c0-2.4-2-4.4-4.4-4.4H-248
				C-250.4-794.6-252.4-792.7-252.4-790.2z"/>
		</g>
	</g>
	<g transform="matrix(0.38248, 0, 0, 0.38248, 532.6005295666503, 84.07116367187501)">
		<text transform="matrix(2.6145 0 0 2.6145 -2.6144 3.191343e-04)" class="st4 st5">168</text>
	</g>
</g>
</svg>
