<?xml version="1.0" encoding="utf-8" standalone="no"?>
<!DOCTYPE svg PUBLIC "-//W3C//DTD SVG 1.1//EN"
  "http://www.w3.org/Graphics/SVG/1.1/DTD/svg11.dtd">
<!-- Created with matplotlib (https://matplotlib.org/) -->
<svg height="288pt" version="1.1" viewBox="0 0 432 288" width="432pt" xmlns="http://www.w3.org/2000/svg" xmlns:xlink="http://www.w3.org/1999/xlink">
 <defs>
  <style type="text/css">
*{stroke-linecap:butt;stroke-linejoin:round;}
  </style>
 </defs>
 <g id="figure_1">
  <g id="patch_1">
   <path d="M 0 288 
L 432 288 
L 432 0 
L 0 0 
z
" style="fill:#ffffff;"/>
  </g>
  <g id="axes_1">
   <g id="patch_2">
    <path d="M 54 252 
L 388.8 252 
L 388.8 34.56 
L 54 34.56 
z
" style="fill:#eaeaf2;"/>
   </g>
   <g id="matplotlib.axis_1">
    <g id="xtick_1">
     <g id="line2d_1">
      <path clip-path="url(#p6a854ed16a)" d="M 104.736086 252 
L 104.736086 34.56 
" style="fill:none;stroke:#ffffff;stroke-linecap:round;"/>
     </g>
     <g id="text_1">
      <!-- 0 -->
      <defs>
       <path d="M 4.15625 35.296875 
Q 4.15625 48 6.765625 55.734375 
Q 9.375 63.484375 14.515625 67.671875 
Q 19.671875 71.875 27.484375 71.875 
Q 33.25 71.875 37.59375 69.546875 
Q 41.9375 67.234375 44.765625 62.859375 
Q 47.609375 58.5 49.21875 52.21875 
Q 50.828125 45.953125 50.828125 35.296875 
Q 50.828125 22.703125 48.234375 14.96875 
Q 45.65625 7.234375 40.5 3 
Q 35.359375 -1.21875 27.484375 -1.21875 
Q 17.140625 -1.21875 11.234375 6.203125 
Q 4.15625 15.140625 4.15625 35.296875 
z
M 13.1875 35.296875 
Q 13.1875 17.671875 17.3125 11.828125 
Q 21.4375 6 27.484375 6 
Q 33.546875 6 37.671875 11.859375 
Q 41.796875 17.71875 41.796875 35.296875 
Q 41.796875 52.984375 37.671875 58.78125 
Q 33.546875 64.59375 27.390625 64.59375 
Q 21.34375 64.59375 17.71875 59.46875 
Q 13.1875 52.9375 13.1875 35.296875 
z
" id="ArialMT-48"/>
      </defs>
      <g style="fill:#262626;" transform="translate(101.677571 269.373594)scale(0.11 -0.11)">
       <use xlink:href="#ArialMT-48"/>
      </g>
     </g>
    </g>
    <g id="xtick_2">
     <g id="line2d_2">
      <path clip-path="url(#p6a854ed16a)" d="M 177.651032 252 
L 177.651032 34.56 
" style="fill:none;stroke:#ffffff;stroke-linecap:round;"/>
     </g>
     <g id="text_2">
      <!-- 5 -->
      <defs>
       <path d="M 4.15625 18.75 
L 13.375 19.53125 
Q 14.40625 12.796875 18.140625 9.390625 
Q 21.875 6 27.15625 6 
Q 33.5 6 37.890625 10.78125 
Q 42.28125 15.578125 42.28125 23.484375 
Q 42.28125 31 38.0625 35.34375 
Q 33.84375 39.703125 27 39.703125 
Q 22.75 39.703125 19.328125 37.765625 
Q 15.921875 35.84375 13.96875 32.765625 
L 5.71875 33.84375 
L 12.640625 70.609375 
L 48.25 70.609375 
L 48.25 62.203125 
L 19.671875 62.203125 
L 15.828125 42.96875 
Q 22.265625 47.46875 29.34375 47.46875 
Q 38.71875 47.46875 45.15625 40.96875 
Q 51.609375 34.46875 51.609375 24.265625 
Q 51.609375 14.546875 45.953125 7.46875 
Q 39.0625 -1.21875 27.15625 -1.21875 
Q 17.390625 -1.21875 11.203125 4.25 
Q 5.03125 9.71875 4.15625 18.75 
z
" id="ArialMT-53"/>
      </defs>
      <g style="fill:#262626;" transform="translate(174.592517 269.373594)scale(0.11 -0.11)">
       <use xlink:href="#ArialMT-53"/>
      </g>
     </g>
    </g>
    <g id="xtick_3">
     <g id="line2d_3">
      <path clip-path="url(#p6a854ed16a)" d="M 250.565978 252 
L 250.565978 34.56 
" style="fill:none;stroke:#ffffff;stroke-linecap:round;"/>
     </g>
     <g id="text_3">
      <!-- 10 -->
      <defs>
       <path d="M 37.25 0 
L 28.46875 0 
L 28.46875 56 
Q 25.296875 52.984375 20.140625 49.953125 
Q 14.984375 46.921875 10.890625 45.40625 
L 10.890625 53.90625 
Q 18.265625 57.375 23.78125 62.296875 
Q 29.296875 67.234375 31.59375 71.875 
L 37.25 71.875 
z
" id="ArialMT-49"/>
      </defs>
      <g style="fill:#262626;" transform="translate(244.448947 269.373594)scale(0.11 -0.11)">
       <use xlink:href="#ArialMT-49"/>
       <use x="55.615234" xlink:href="#ArialMT-48"/>
      </g>
     </g>
    </g>
    <g id="xtick_4">
     <g id="line2d_4">
      <path clip-path="url(#p6a854ed16a)" d="M 323.480925 252 
L 323.480925 34.56 
" style="fill:none;stroke:#ffffff;stroke-linecap:round;"/>
     </g>
     <g id="text_4">
      <!-- 15 -->
      <g style="fill:#262626;" transform="translate(317.363893 269.373594)scale(0.11 -0.11)">
       <use xlink:href="#ArialMT-49"/>
       <use x="55.615234" xlink:href="#ArialMT-53"/>
      </g>
     </g>
    </g>
    <g id="text_5">
     <!-- Present in # of profiles -->
     <defs>
      <path d="M 7.71875 0 
L 7.71875 71.578125 
L 34.71875 71.578125 
Q 41.84375 71.578125 45.609375 70.90625 
Q 50.875 70.015625 54.4375 67.546875 
Q 58.015625 65.09375 60.1875 60.640625 
Q 62.359375 56.203125 62.359375 50.875 
Q 62.359375 41.75 56.546875 35.421875 
Q 50.734375 29.109375 35.546875 29.109375 
L 17.1875 29.109375 
L 17.1875 0 
z
M 17.1875 37.546875 
L 35.6875 37.546875 
Q 44.875 37.546875 48.734375 40.96875 
Q 52.59375 44.390625 52.59375 50.59375 
Q 52.59375 55.078125 50.3125 58.265625 
Q 48.046875 61.46875 44.34375 62.5 
Q 41.9375 63.140625 35.5 63.140625 
L 17.1875 63.140625 
z
" id="ArialMT-80"/>
      <path d="M 6.5 0 
L 6.5 51.859375 
L 14.40625 51.859375 
L 14.40625 44 
Q 17.4375 49.515625 20 51.265625 
Q 22.5625 53.03125 25.640625 53.03125 
Q 30.078125 53.03125 34.671875 50.203125 
L 31.640625 42.046875 
Q 28.421875 43.953125 25.203125 43.953125 
Q 22.3125 43.953125 20.015625 42.21875 
Q 17.71875 40.484375 16.75 37.40625 
Q 15.28125 32.71875 15.28125 27.15625 
L 15.28125 0 
z
" id="ArialMT-114"/>
      <path d="M 42.09375 16.703125 
L 51.171875 15.578125 
Q 49.03125 7.625 43.21875 3.21875 
Q 37.40625 -1.171875 28.375 -1.171875 
Q 17 -1.171875 10.328125 5.828125 
Q 3.65625 12.84375 3.65625 25.484375 
Q 3.65625 38.578125 10.390625 45.796875 
Q 17.140625 53.03125 27.875 53.03125 
Q 38.28125 53.03125 44.875 45.953125 
Q 51.46875 38.875 51.46875 26.03125 
Q 51.46875 25.25 51.421875 23.6875 
L 12.75 23.6875 
Q 13.234375 15.140625 17.578125 10.59375 
Q 21.921875 6.0625 28.421875 6.0625 
Q 33.25 6.0625 36.671875 8.59375 
Q 40.09375 11.140625 42.09375 16.703125 
z
M 13.234375 30.90625 
L 42.1875 30.90625 
Q 41.609375 37.453125 38.875 40.71875 
Q 34.671875 45.796875 27.984375 45.796875 
Q 21.921875 45.796875 17.796875 41.75 
Q 13.671875 37.703125 13.234375 30.90625 
z
" id="ArialMT-101"/>
      <path d="M 3.078125 15.484375 
L 11.765625 16.84375 
Q 12.5 11.625 15.84375 8.84375 
Q 19.1875 6.0625 25.203125 6.0625 
Q 31.25 6.0625 34.171875 8.515625 
Q 37.109375 10.984375 37.109375 14.3125 
Q 37.109375 17.28125 34.515625 19 
Q 32.71875 20.171875 25.53125 21.96875 
Q 15.875 24.421875 12.140625 26.203125 
Q 8.40625 27.984375 6.46875 31.125 
Q 4.546875 34.28125 4.546875 38.09375 
Q 4.546875 41.546875 6.125 44.5 
Q 7.71875 47.46875 10.453125 49.421875 
Q 12.5 50.921875 16.03125 51.96875 
Q 19.578125 53.03125 23.640625 53.03125 
Q 29.734375 53.03125 34.34375 51.265625 
Q 38.96875 49.515625 41.15625 46.5 
Q 43.359375 43.5 44.1875 38.484375 
L 35.59375 37.3125 
Q 35.015625 41.3125 32.203125 43.546875 
Q 29.390625 45.796875 24.265625 45.796875 
Q 18.21875 45.796875 15.625 43.796875 
Q 13.03125 41.796875 13.03125 39.109375 
Q 13.03125 37.40625 14.109375 36.03125 
Q 15.1875 34.625 17.484375 33.6875 
Q 18.796875 33.203125 25.25 31.453125 
Q 34.578125 28.953125 38.25 27.359375 
Q 41.9375 25.78125 44.03125 22.75 
Q 46.140625 19.734375 46.140625 15.234375 
Q 46.140625 10.84375 43.578125 6.953125 
Q 41.015625 3.078125 36.171875 0.953125 
Q 31.34375 -1.171875 25.25 -1.171875 
Q 15.140625 -1.171875 9.84375 3.03125 
Q 4.546875 7.234375 3.078125 15.484375 
z
" id="ArialMT-115"/>
      <path d="M 6.59375 0 
L 6.59375 51.859375 
L 14.5 51.859375 
L 14.5 44.484375 
Q 20.21875 53.03125 31 53.03125 
Q 35.6875 53.03125 39.625 51.34375 
Q 43.5625 49.65625 45.515625 46.921875 
Q 47.46875 44.1875 48.25 40.4375 
Q 48.734375 37.984375 48.734375 31.890625 
L 48.734375 0 
L 39.9375 0 
L 39.9375 31.546875 
Q 39.9375 36.921875 38.90625 39.578125 
Q 37.890625 42.234375 35.28125 43.8125 
Q 32.671875 45.40625 29.15625 45.40625 
Q 23.53125 45.40625 19.453125 41.84375 
Q 15.375 38.28125 15.375 28.328125 
L 15.375 0 
z
" id="ArialMT-110"/>
      <path d="M 25.78125 7.859375 
L 27.046875 0.09375 
Q 23.34375 -0.6875 20.40625 -0.6875 
Q 15.625 -0.6875 12.984375 0.828125 
Q 10.359375 2.34375 9.28125 4.8125 
Q 8.203125 7.28125 8.203125 15.1875 
L 8.203125 45.015625 
L 1.765625 45.015625 
L 1.765625 51.859375 
L 8.203125 51.859375 
L 8.203125 64.703125 
L 16.9375 69.96875 
L 16.9375 51.859375 
L 25.78125 51.859375 
L 25.78125 45.015625 
L 16.9375 45.015625 
L 16.9375 14.703125 
Q 16.9375 10.9375 17.40625 9.859375 
Q 17.875 8.796875 18.921875 8.15625 
Q 19.96875 7.515625 21.921875 7.515625 
Q 23.390625 7.515625 25.78125 7.859375 
z
" id="ArialMT-116"/>
      <path id="ArialMT-32"/>
      <path d="M 6.640625 61.46875 
L 6.640625 71.578125 
L 15.4375 71.578125 
L 15.4375 61.46875 
z
M 6.640625 0 
L 6.640625 51.859375 
L 15.4375 51.859375 
L 15.4375 0 
z
" id="ArialMT-105"/>
      <path d="M 5.03125 -1.21875 
L 9.28125 19.578125 
L 1.03125 19.578125 
L 1.03125 26.859375 
L 10.75 26.859375 
L 14.359375 44.578125 
L 1.03125 44.578125 
L 1.03125 51.859375 
L 15.828125 51.859375 
L 20.0625 72.796875 
L 27.390625 72.796875 
L 23.140625 51.859375 
L 38.53125 51.859375 
L 42.78125 72.796875 
L 50.140625 72.796875 
L 45.90625 51.859375 
L 54.34375 51.859375 
L 54.34375 44.578125 
L 44.4375 44.578125 
L 40.765625 26.859375 
L 54.34375 26.859375 
L 54.34375 19.578125 
L 39.3125 19.578125 
L 35.0625 -1.21875 
L 27.734375 -1.21875 
L 31.9375 19.578125 
L 16.609375 19.578125 
L 12.359375 -1.21875 
z
M 18.0625 26.859375 
L 33.40625 26.859375 
L 37.0625 44.578125 
L 21.6875 44.578125 
z
" id="ArialMT-35"/>
      <path d="M 3.328125 25.921875 
Q 3.328125 40.328125 11.328125 47.265625 
Q 18.015625 53.03125 27.640625 53.03125 
Q 38.328125 53.03125 45.109375 46.015625 
Q 51.90625 39.015625 51.90625 26.65625 
Q 51.90625 16.65625 48.90625 10.90625 
Q 45.90625 5.171875 40.15625 2 
Q 34.421875 -1.171875 27.640625 -1.171875 
Q 16.75 -1.171875 10.03125 5.8125 
Q 3.328125 12.796875 3.328125 25.921875 
z
M 12.359375 25.921875 
Q 12.359375 15.96875 16.703125 11.015625 
Q 21.046875 6.0625 27.640625 6.0625 
Q 34.1875 6.0625 38.53125 11.03125 
Q 42.875 16.015625 42.875 26.21875 
Q 42.875 35.84375 38.5 40.796875 
Q 34.125 45.75 27.640625 45.75 
Q 21.046875 45.75 16.703125 40.8125 
Q 12.359375 35.890625 12.359375 25.921875 
z
" id="ArialMT-111"/>
      <path d="M 8.6875 0 
L 8.6875 45.015625 
L 0.921875 45.015625 
L 0.921875 51.859375 
L 8.6875 51.859375 
L 8.6875 57.375 
Q 8.6875 62.59375 9.625 65.140625 
Q 10.890625 68.5625 14.078125 70.671875 
Q 17.28125 72.796875 23.046875 72.796875 
Q 26.765625 72.796875 31.25 71.921875 
L 29.9375 64.265625 
Q 27.203125 64.75 24.75 64.75 
Q 20.75 64.75 19.09375 63.03125 
Q 17.4375 61.328125 17.4375 56.640625 
L 17.4375 51.859375 
L 27.546875 51.859375 
L 27.546875 45.015625 
L 17.4375 45.015625 
L 17.4375 0 
z
" id="ArialMT-102"/>
      <path d="M 6.59375 -19.875 
L 6.59375 51.859375 
L 14.59375 51.859375 
L 14.59375 45.125 
Q 17.4375 49.078125 21 51.046875 
Q 24.5625 53.03125 29.640625 53.03125 
Q 36.28125 53.03125 41.359375 49.609375 
Q 46.4375 46.1875 49.015625 39.953125 
Q 51.609375 33.734375 51.609375 26.3125 
Q 51.609375 18.359375 48.75 11.984375 
Q 45.90625 5.609375 40.453125 2.21875 
Q 35.015625 -1.171875 29 -1.171875 
Q 24.609375 -1.171875 21.109375 0.6875 
Q 17.625 2.546875 15.375 5.375 
L 15.375 -19.875 
z
M 14.546875 25.640625 
Q 14.546875 15.625 18.59375 10.84375 
Q 22.65625 6.0625 28.421875 6.0625 
Q 34.28125 6.0625 38.453125 11.015625 
Q 42.625 15.96875 42.625 26.375 
Q 42.625 36.28125 38.546875 41.203125 
Q 34.46875 46.140625 28.8125 46.140625 
Q 23.1875 46.140625 18.859375 40.890625 
Q 14.546875 35.640625 14.546875 25.640625 
z
" id="ArialMT-112"/>
      <path d="M 6.390625 0 
L 6.390625 71.578125 
L 15.1875 71.578125 
L 15.1875 0 
z
" id="ArialMT-108"/>
     </defs>
     <g style="fill:#262626;" transform="translate(146.782031 286.479375)scale(0.15 -0.15)">
      <use xlink:href="#ArialMT-80"/>
      <use x="66.699219" xlink:href="#ArialMT-114"/>
      <use x="100" xlink:href="#ArialMT-101"/>
      <use x="155.615234" xlink:href="#ArialMT-115"/>
      <use x="205.615234" xlink:href="#ArialMT-101"/>
      <use x="261.230469" xlink:href="#ArialMT-110"/>
      <use x="316.845703" xlink:href="#ArialMT-116"/>
      <use x="344.628906" xlink:href="#ArialMT-32"/>
      <use x="372.412109" xlink:href="#ArialMT-105"/>
      <use x="394.628906" xlink:href="#ArialMT-110"/>
      <use x="450.244141" xlink:href="#ArialMT-32"/>
      <use x="478.027344" xlink:href="#ArialMT-35"/>
      <use x="533.642578" xlink:href="#ArialMT-32"/>
      <use x="561.425781" xlink:href="#ArialMT-111"/>
      <use x="617.041016" xlink:href="#ArialMT-102"/>
      <use x="644.824219" xlink:href="#ArialMT-32"/>
      <use x="672.607422" xlink:href="#ArialMT-112"/>
      <use x="728.222656" xlink:href="#ArialMT-114"/>
      <use x="761.523438" xlink:href="#ArialMT-111"/>
      <use x="817.138672" xlink:href="#ArialMT-102"/>
      <use x="844.921875" xlink:href="#ArialMT-105"/>
      <use x="867.138672" xlink:href="#ArialMT-108"/>
      <use x="889.355469" xlink:href="#ArialMT-101"/>
      <use x="944.970703" xlink:href="#ArialMT-115"/>
     </g>
    </g>
   </g>
   <g id="matplotlib.axis_2">
    <g id="ytick_1">
     <g id="line2d_5">
      <path clip-path="url(#p6a854ed16a)" d="M 54 252 
L 388.8 252 
" style="fill:none;stroke:#ffffff;stroke-linecap:round;"/>
     </g>
     <g id="text_6">
      <!-- 0.0 -->
      <defs>
       <path d="M 9.078125 0 
L 9.078125 10.015625 
L 19.09375 10.015625 
L 19.09375 0 
z
" id="ArialMT-46"/>
      </defs>
      <g style="fill:#262626;" transform="translate(29.21 255.936797)scale(0.11 -0.11)">
       <use xlink:href="#ArialMT-48"/>
       <use x="55.615234" xlink:href="#ArialMT-46"/>
       <use x="83.398438" xlink:href="#ArialMT-48"/>
      </g>
     </g>
    </g>
    <g id="ytick_2">
     <g id="line2d_6">
      <path clip-path="url(#p6a854ed16a)" d="M 54 225.317613 
L 388.8 225.317613 
" style="fill:none;stroke:#ffffff;stroke-linecap:round;"/>
     </g>
     <g id="text_7">
      <!-- 0.1 -->
      <g style="fill:#262626;" transform="translate(29.21 229.25441)scale(0.11 -0.11)">
       <use xlink:href="#ArialMT-48"/>
       <use x="55.615234" xlink:href="#ArialMT-46"/>
       <use x="83.398438" xlink:href="#ArialMT-49"/>
      </g>
     </g>
    </g>
    <g id="ytick_3">
     <g id="line2d_7">
      <path clip-path="url(#p6a854ed16a)" d="M 54 198.635226 
L 388.8 198.635226 
" style="fill:none;stroke:#ffffff;stroke-linecap:round;"/>
     </g>
     <g id="text_8">
      <!-- 0.2 -->
      <defs>
       <path d="M 50.34375 8.453125 
L 50.34375 0 
L 3.03125 0 
Q 2.9375 3.171875 4.046875 6.109375 
Q 5.859375 10.9375 9.828125 15.625 
Q 13.8125 20.3125 21.34375 26.46875 
Q 33.015625 36.03125 37.109375 41.625 
Q 41.21875 47.21875 41.21875 52.203125 
Q 41.21875 57.421875 37.46875 61 
Q 33.734375 64.59375 27.734375 64.59375 
Q 21.390625 64.59375 17.578125 60.78125 
Q 13.765625 56.984375 13.71875 50.25 
L 4.6875 51.171875 
Q 5.609375 61.28125 11.65625 66.578125 
Q 17.71875 71.875 27.9375 71.875 
Q 38.234375 71.875 44.234375 66.15625 
Q 50.25 60.453125 50.25 52 
Q 50.25 47.703125 48.484375 43.546875 
Q 46.734375 39.40625 42.65625 34.8125 
Q 38.578125 30.21875 29.109375 22.21875 
Q 21.1875 15.578125 18.9375 13.203125 
Q 16.703125 10.84375 15.234375 8.453125 
z
" id="ArialMT-50"/>
      </defs>
      <g style="fill:#262626;" transform="translate(29.21 202.572023)scale(0.11 -0.11)">
       <use xlink:href="#ArialMT-48"/>
       <use x="55.615234" xlink:href="#ArialMT-46"/>
       <use x="83.398438" xlink:href="#ArialMT-50"/>
      </g>
     </g>
    </g>
    <g id="ytick_4">
     <g id="line2d_8">
      <path clip-path="url(#p6a854ed16a)" d="M 54 171.952839 
L 388.8 171.952839 
" style="fill:none;stroke:#ffffff;stroke-linecap:round;"/>
     </g>
     <g id="text_9">
      <!-- 0.3 -->
      <defs>
       <path d="M 4.203125 18.890625 
L 12.984375 20.0625 
Q 14.5 12.59375 18.140625 9.296875 
Q 21.78125 6 27 6 
Q 33.203125 6 37.46875 10.296875 
Q 41.75 14.59375 41.75 20.953125 
Q 41.75 27 37.796875 30.921875 
Q 33.84375 34.859375 27.734375 34.859375 
Q 25.25 34.859375 21.53125 33.890625 
L 22.515625 41.609375 
Q 23.390625 41.5 23.921875 41.5 
Q 29.546875 41.5 34.03125 44.421875 
Q 38.53125 47.359375 38.53125 53.46875 
Q 38.53125 58.296875 35.25 61.46875 
Q 31.984375 64.65625 26.8125 64.65625 
Q 21.6875 64.65625 18.265625 61.421875 
Q 14.84375 58.203125 13.875 51.765625 
L 5.078125 53.328125 
Q 6.6875 62.15625 12.390625 67.015625 
Q 18.109375 71.875 26.609375 71.875 
Q 32.46875 71.875 37.390625 69.359375 
Q 42.328125 66.84375 44.9375 62.5 
Q 47.5625 58.15625 47.5625 53.265625 
Q 47.5625 48.640625 45.0625 44.828125 
Q 42.578125 41.015625 37.703125 38.765625 
Q 44.046875 37.3125 47.5625 32.6875 
Q 51.078125 28.078125 51.078125 21.140625 
Q 51.078125 11.765625 44.234375 5.25 
Q 37.40625 -1.265625 26.953125 -1.265625 
Q 17.53125 -1.265625 11.296875 4.34375 
Q 5.078125 9.96875 4.203125 18.890625 
z
" id="ArialMT-51"/>
      </defs>
      <g style="fill:#262626;" transform="translate(29.21 175.889636)scale(0.11 -0.11)">
       <use xlink:href="#ArialMT-48"/>
       <use x="55.615234" xlink:href="#ArialMT-46"/>
       <use x="83.398438" xlink:href="#ArialMT-51"/>
      </g>
     </g>
    </g>
    <g id="ytick_5">
     <g id="line2d_9">
      <path clip-path="url(#p6a854ed16a)" d="M 54 145.270452 
L 388.8 145.270452 
" style="fill:none;stroke:#ffffff;stroke-linecap:round;"/>
     </g>
     <g id="text_10">
      <!-- 0.4 -->
      <defs>
       <path d="M 32.328125 0 
L 32.328125 17.140625 
L 1.265625 17.140625 
L 1.265625 25.203125 
L 33.9375 71.578125 
L 41.109375 71.578125 
L 41.109375 25.203125 
L 50.78125 25.203125 
L 50.78125 17.140625 
L 41.109375 17.140625 
L 41.109375 0 
z
M 32.328125 25.203125 
L 32.328125 57.46875 
L 9.90625 25.203125 
z
" id="ArialMT-52"/>
      </defs>
      <g style="fill:#262626;" transform="translate(29.21 149.207249)scale(0.11 -0.11)">
       <use xlink:href="#ArialMT-48"/>
       <use x="55.615234" xlink:href="#ArialMT-46"/>
       <use x="83.398438" xlink:href="#ArialMT-52"/>
      </g>
     </g>
    </g>
    <g id="ytick_6">
     <g id="line2d_10">
      <path clip-path="url(#p6a854ed16a)" d="M 54 118.588065 
L 388.8 118.588065 
" style="fill:none;stroke:#ffffff;stroke-linecap:round;"/>
     </g>
     <g id="text_11">
      <!-- 0.5 -->
      <g style="fill:#262626;" transform="translate(29.21 122.524862)scale(0.11 -0.11)">
       <use xlink:href="#ArialMT-48"/>
       <use x="55.615234" xlink:href="#ArialMT-46"/>
       <use x="83.398438" xlink:href="#ArialMT-53"/>
      </g>
     </g>
    </g>
    <g id="ytick_7">
     <g id="line2d_11">
      <path clip-path="url(#p6a854ed16a)" d="M 54 91.905678 
L 388.8 91.905678 
" style="fill:none;stroke:#ffffff;stroke-linecap:round;"/>
     </g>
     <g id="text_12">
      <!-- 0.6 -->
      <defs>
       <path d="M 49.75 54.046875 
L 41.015625 53.375 
Q 39.84375 58.546875 37.703125 60.890625 
Q 34.125 64.65625 28.90625 64.65625 
Q 24.703125 64.65625 21.53125 62.3125 
Q 17.390625 59.28125 14.984375 53.46875 
Q 12.59375 47.65625 12.5 36.921875 
Q 15.671875 41.75 20.265625 44.09375 
Q 24.859375 46.4375 29.890625 46.4375 
Q 38.671875 46.4375 44.84375 39.96875 
Q 51.03125 33.5 51.03125 23.25 
Q 51.03125 16.5 48.125 10.71875 
Q 45.21875 4.9375 40.140625 1.859375 
Q 35.0625 -1.21875 28.609375 -1.21875 
Q 17.625 -1.21875 10.6875 6.859375 
Q 3.765625 14.9375 3.765625 33.5 
Q 3.765625 54.25 11.421875 63.671875 
Q 18.109375 71.875 29.4375 71.875 
Q 37.890625 71.875 43.28125 67.140625 
Q 48.6875 62.40625 49.75 54.046875 
z
M 13.875 23.1875 
Q 13.875 18.65625 15.796875 14.5 
Q 17.71875 10.359375 21.1875 8.171875 
Q 24.65625 6 28.46875 6 
Q 34.03125 6 38.03125 10.484375 
Q 42.046875 14.984375 42.046875 22.703125 
Q 42.046875 30.125 38.078125 34.390625 
Q 34.125 38.671875 28.125 38.671875 
Q 22.171875 38.671875 18.015625 34.390625 
Q 13.875 30.125 13.875 23.1875 
z
" id="ArialMT-54"/>
      </defs>
      <g style="fill:#262626;" transform="translate(29.21 95.842475)scale(0.11 -0.11)">
       <use xlink:href="#ArialMT-48"/>
       <use x="55.615234" xlink:href="#ArialMT-46"/>
       <use x="83.398438" xlink:href="#ArialMT-54"/>
      </g>
     </g>
    </g>
    <g id="ytick_8">
     <g id="line2d_12">
      <path clip-path="url(#p6a854ed16a)" d="M 54 65.223291 
L 388.8 65.223291 
" style="fill:none;stroke:#ffffff;stroke-linecap:round;"/>
     </g>
     <g id="text_13">
      <!-- 0.7 -->
      <defs>
       <path d="M 4.734375 62.203125 
L 4.734375 70.65625 
L 51.078125 70.65625 
L 51.078125 63.8125 
Q 44.234375 56.546875 37.515625 44.484375 
Q 30.8125 32.421875 27.15625 19.671875 
Q 24.515625 10.6875 23.78125 0 
L 14.75 0 
Q 14.890625 8.453125 18.0625 20.40625 
Q 21.234375 32.375 27.171875 43.484375 
Q 33.109375 54.59375 39.796875 62.203125 
z
" id="ArialMT-55"/>
      </defs>
      <g style="fill:#262626;" transform="translate(29.21 69.160088)scale(0.11 -0.11)">
       <use xlink:href="#ArialMT-48"/>
       <use x="55.615234" xlink:href="#ArialMT-46"/>
       <use x="83.398438" xlink:href="#ArialMT-55"/>
      </g>
     </g>
    </g>
    <g id="ytick_9">
     <g id="line2d_13">
      <path clip-path="url(#p6a854ed16a)" d="M 54 38.540904 
L 388.8 38.540904 
" style="fill:none;stroke:#ffffff;stroke-linecap:round;"/>
     </g>
     <g id="text_14">
      <!-- 0.8 -->
      <defs>
       <path d="M 17.671875 38.8125 
Q 12.203125 40.828125 9.5625 44.53125 
Q 6.9375 48.25 6.9375 53.421875 
Q 6.9375 61.234375 12.546875 66.546875 
Q 18.171875 71.875 27.484375 71.875 
Q 36.859375 71.875 42.578125 66.421875 
Q 48.296875 60.984375 48.296875 53.171875 
Q 48.296875 48.1875 45.671875 44.5 
Q 43.0625 40.828125 37.75 38.8125 
Q 44.34375 36.671875 47.78125 31.875 
Q 51.21875 27.09375 51.21875 20.453125 
Q 51.21875 11.28125 44.71875 5.03125 
Q 38.234375 -1.21875 27.640625 -1.21875 
Q 17.046875 -1.21875 10.546875 5.046875 
Q 4.046875 11.328125 4.046875 20.703125 
Q 4.046875 27.6875 7.59375 32.390625 
Q 11.140625 37.109375 17.671875 38.8125 
z
M 15.921875 53.71875 
Q 15.921875 48.640625 19.1875 45.40625 
Q 22.46875 42.1875 27.6875 42.1875 
Q 32.765625 42.1875 36.015625 45.375 
Q 39.265625 48.578125 39.265625 53.21875 
Q 39.265625 58.0625 35.90625 61.359375 
Q 32.5625 64.65625 27.59375 64.65625 
Q 22.5625 64.65625 19.234375 61.421875 
Q 15.921875 58.203125 15.921875 53.71875 
z
M 13.09375 20.65625 
Q 13.09375 16.890625 14.875 13.375 
Q 16.65625 9.859375 20.171875 7.921875 
Q 23.6875 6 27.734375 6 
Q 34.03125 6 38.125 10.046875 
Q 42.234375 14.109375 42.234375 20.359375 
Q 42.234375 26.703125 38.015625 30.859375 
Q 33.796875 35.015625 27.4375 35.015625 
Q 21.234375 35.015625 17.15625 30.90625 
Q 13.09375 26.8125 13.09375 20.65625 
z
" id="ArialMT-56"/>
      </defs>
      <g style="fill:#262626;" transform="translate(29.21 42.477701)scale(0.11 -0.11)">
       <use xlink:href="#ArialMT-48"/>
       <use x="55.615234" xlink:href="#ArialMT-46"/>
       <use x="83.398438" xlink:href="#ArialMT-56"/>
      </g>
     </g>
    </g>
    <g id="text_15">
     <!-- Probalbilty -->
     <defs>
      <path d="M 14.703125 0 
L 6.546875 0 
L 6.546875 71.578125 
L 15.328125 71.578125 
L 15.328125 46.046875 
Q 20.90625 53.03125 29.546875 53.03125 
Q 34.328125 53.03125 38.59375 51.09375 
Q 42.875 49.171875 45.625 45.671875 
Q 48.390625 42.1875 49.953125 37.25 
Q 51.515625 32.328125 51.515625 26.703125 
Q 51.515625 13.375 44.921875 6.09375 
Q 38.328125 -1.171875 29.109375 -1.171875 
Q 19.921875 -1.171875 14.703125 6.5 
z
M 14.59375 26.3125 
Q 14.59375 17 17.140625 12.84375 
Q 21.296875 6.0625 28.375 6.0625 
Q 34.125 6.0625 38.328125 11.0625 
Q 42.53125 16.0625 42.53125 25.984375 
Q 42.53125 36.140625 38.5 40.96875 
Q 34.46875 45.796875 28.765625 45.796875 
Q 23 45.796875 18.796875 40.796875 
Q 14.59375 35.796875 14.59375 26.3125 
z
" id="ArialMT-98"/>
      <path d="M 40.4375 6.390625 
Q 35.546875 2.25 31.03125 0.53125 
Q 26.515625 -1.171875 21.34375 -1.171875 
Q 12.796875 -1.171875 8.203125 3 
Q 3.609375 7.171875 3.609375 13.671875 
Q 3.609375 17.484375 5.34375 20.625 
Q 7.078125 23.78125 9.890625 25.6875 
Q 12.703125 27.59375 16.21875 28.5625 
Q 18.796875 29.25 24.03125 29.890625 
Q 34.671875 31.15625 39.703125 32.90625 
Q 39.75 34.71875 39.75 35.203125 
Q 39.75 40.578125 37.25 42.78125 
Q 33.890625 45.75 27.25 45.75 
Q 21.046875 45.75 18.09375 43.578125 
Q 15.140625 41.40625 13.71875 35.890625 
L 5.125 37.0625 
Q 6.296875 42.578125 8.984375 45.96875 
Q 11.671875 49.359375 16.75 51.1875 
Q 21.828125 53.03125 28.515625 53.03125 
Q 35.15625 53.03125 39.296875 51.46875 
Q 43.453125 49.90625 45.40625 47.53125 
Q 47.359375 45.171875 48.140625 41.546875 
Q 48.578125 39.3125 48.578125 33.453125 
L 48.578125 21.734375 
Q 48.578125 9.46875 49.140625 6.21875 
Q 49.703125 2.984375 51.375 0 
L 42.1875 0 
Q 40.828125 2.734375 40.4375 6.390625 
z
M 39.703125 26.03125 
Q 34.90625 24.078125 25.34375 22.703125 
Q 19.921875 21.921875 17.671875 20.9375 
Q 15.4375 19.96875 14.203125 18.09375 
Q 12.984375 16.21875 12.984375 13.921875 
Q 12.984375 10.40625 15.640625 8.0625 
Q 18.3125 5.71875 23.4375 5.71875 
Q 28.515625 5.71875 32.46875 7.9375 
Q 36.421875 10.15625 38.28125 14.015625 
Q 39.703125 17 39.703125 22.796875 
z
" id="ArialMT-97"/>
      <path d="M 6.203125 -19.96875 
L 5.21875 -11.71875 
Q 8.109375 -12.5 10.25 -12.5 
Q 13.1875 -12.5 14.9375 -11.515625 
Q 16.703125 -10.546875 17.828125 -8.796875 
Q 18.65625 -7.46875 20.515625 -2.25 
Q 20.75 -1.515625 21.296875 -0.09375 
L 1.609375 51.859375 
L 11.078125 51.859375 
L 21.875 21.828125 
Q 23.96875 16.109375 25.640625 9.8125 
Q 27.15625 15.875 29.25 21.625 
L 40.328125 51.859375 
L 49.125 51.859375 
L 29.390625 -0.875 
Q 26.21875 -9.421875 24.46875 -12.640625 
Q 22.125 -17 19.09375 -19.015625 
Q 16.0625 -21.046875 11.859375 -21.046875 
Q 9.328125 -21.046875 6.203125 -19.96875 
z
" id="ArialMT-121"/>
     </defs>
     <g style="fill:#262626;" transform="translate(22.052969 178.295625)rotate(-90)scale(0.15 -0.15)">
      <use xlink:href="#ArialMT-80"/>
      <use x="66.699219" xlink:href="#ArialMT-114"/>
      <use x="100" xlink:href="#ArialMT-111"/>
      <use x="155.615234" xlink:href="#ArialMT-98"/>
      <use x="211.230469" xlink:href="#ArialMT-97"/>
      <use x="266.845703" xlink:href="#ArialMT-108"/>
      <use x="289.0625" xlink:href="#ArialMT-98"/>
      <use x="344.677734" xlink:href="#ArialMT-105"/>
      <use x="366.894531" xlink:href="#ArialMT-108"/>
      <use x="389.111328" xlink:href="#ArialMT-116"/>
      <use x="416.894531" xlink:href="#ArialMT-121"/>
     </g>
    </g>
   </g>
   <g id="patch_3">
    <path clip-path="url(#p6a854ed16a)" d="M 104.736086 252 
L 119.319075 252 
L 119.319075 252 
L 104.736086 252 
z
" style="fill:#808080;opacity:0.4;stroke:#808080;stroke-linejoin:miter;"/>
   </g>
   <g id="patch_4">
    <path clip-path="url(#p6a854ed16a)" d="M 119.319075 252 
L 133.902065 252 
L 133.902065 241.671334 
L 119.319075 241.671334 
z
" style="fill:#808080;opacity:0.4;stroke:#808080;stroke-linejoin:miter;"/>
   </g>
   <g id="patch_5">
    <path clip-path="url(#p6a854ed16a)" d="M 133.902065 252 
L 148.485054 252 
L 148.485054 252 
L 133.902065 252 
z
" style="fill:#808080;opacity:0.4;stroke:#808080;stroke-linejoin:miter;"/>
   </g>
   <g id="patch_6">
    <path clip-path="url(#p6a854ed16a)" d="M 148.485054 252 
L 163.068043 252 
L 163.068043 252 
L 148.485054 252 
z
" style="fill:#808080;opacity:0.4;stroke:#808080;stroke-linejoin:miter;"/>
   </g>
   <g id="patch_7">
    <path clip-path="url(#p6a854ed16a)" d="M 163.068043 252 
L 177.651032 252 
L 177.651032 250.278556 
L 163.068043 250.278556 
z
" style="fill:#808080;opacity:0.4;stroke:#808080;stroke-linejoin:miter;"/>
   </g>
   <g id="patch_8">
    <path clip-path="url(#p6a854ed16a)" d="M 177.651032 252 
L 192.234022 252 
L 192.234022 217.571114 
L 177.651032 217.571114 
z
" style="fill:#808080;opacity:0.4;stroke:#808080;stroke-linejoin:miter;"/>
   </g>
   <g id="patch_9">
    <path clip-path="url(#p6a854ed16a)" d="M 192.234022 252 
L 206.817011 252 
L 206.817011 205.521003 
L 192.234022 205.521003 
z
" style="fill:#808080;opacity:0.4;stroke:#808080;stroke-linejoin:miter;"/>
   </g>
   <g id="patch_10">
    <path clip-path="url(#p6a854ed16a)" d="M 206.817011 252 
L 221.4 252 
L 221.4 236.507001 
L 206.817011 236.507001 
z
" style="fill:#808080;opacity:0.4;stroke:#808080;stroke-linejoin:miter;"/>
   </g>
   <g id="patch_11">
    <path clip-path="url(#p6a854ed16a)" d="M 221.4 252 
L 235.982989 252 
L 235.982989 231.342668 
L 221.4 231.342668 
z
" style="fill:#808080;opacity:0.4;stroke:#808080;stroke-linejoin:miter;"/>
   </g>
   <g id="patch_12">
    <path clip-path="url(#p6a854ed16a)" d="M 235.982989 252 
L 250.565978 252 
L 250.565978 207.242448 
L 235.982989 207.242448 
z
" style="fill:#808080;opacity:0.4;stroke:#808080;stroke-linejoin:miter;"/>
   </g>
   <g id="patch_13">
    <path clip-path="url(#p6a854ed16a)" d="M 250.565978 252 
L 265.148968 252 
L 265.148968 215.849669 
L 250.565978 215.849669 
z
" style="fill:#808080;opacity:0.4;stroke:#808080;stroke-linejoin:miter;"/>
   </g>
   <g id="patch_14">
    <path clip-path="url(#p6a854ed16a)" d="M 265.148968 252 
L 279.731957 252 
L 279.731957 233.064112 
L 265.148968 233.064112 
z
" style="fill:#808080;opacity:0.4;stroke:#808080;stroke-linejoin:miter;"/>
   </g>
   <g id="patch_15">
    <path clip-path="url(#p6a854ed16a)" d="M 279.731957 252 
L 294.314946 252 
L 294.314946 238.228445 
L 279.731957 238.228445 
z
" style="fill:#808080;opacity:0.4;stroke:#808080;stroke-linejoin:miter;"/>
   </g>
   <g id="patch_16">
    <path clip-path="url(#p6a854ed16a)" d="M 294.314946 252 
L 308.897935 252 
L 308.897935 241.671334 
L 294.314946 241.671334 
z
" style="fill:#808080;opacity:0.4;stroke:#808080;stroke-linejoin:miter;"/>
   </g>
   <g id="patch_17">
    <path clip-path="url(#p6a854ed16a)" d="M 308.897935 252 
L 323.480925 252 
L 323.480925 243.392778 
L 308.897935 243.392778 
z
" style="fill:#808080;opacity:0.4;stroke:#808080;stroke-linejoin:miter;"/>
   </g>
   <g id="patch_18">
    <path clip-path="url(#p6a854ed16a)" d="M 323.480925 252 
L 338.063914 252 
L 338.063914 246.835667 
L 323.480925 246.835667 
z
" style="fill:#808080;opacity:0.4;stroke:#808080;stroke-linejoin:miter;"/>
   </g>
   <g id="patch_19">
    <path clip-path="url(#p6a854ed16a)" d="M 104.736086 252 
L 119.319075 252 
L 119.319075 252 
L 104.736086 252 
z
" style="fill:#00008b;opacity:0.4;stroke:#00008b;stroke-linejoin:miter;"/>
   </g>
   <g id="patch_20">
    <path clip-path="url(#p6a854ed16a)" d="M 119.319075 252 
L 133.902065 252 
L 133.902065 67.648963 
L 119.319075 67.648963 
z
" style="fill:#00008b;opacity:0.4;stroke:#00008b;stroke-linejoin:miter;"/>
   </g>
   <g id="patch_21">
    <path clip-path="url(#p6a854ed16a)" d="M 133.902065 252 
L 148.485054 252 
L 148.485054 227.743285 
L 133.902065 227.743285 
z
" style="fill:#00008b;opacity:0.4;stroke:#00008b;stroke-linejoin:miter;"/>
   </g>
   <g id="patch_22">
    <path clip-path="url(#p6a854ed16a)" d="M 148.485054 252 
L 163.068043 252 
L 163.068043 242.297314 
L 148.485054 242.297314 
z
" style="fill:#00008b;opacity:0.4;stroke:#00008b;stroke-linejoin:miter;"/>
   </g>
   <g id="patch_23">
    <path clip-path="url(#p6a854ed16a)" d="M 163.068043 252 
L 177.651032 252 
L 177.651032 242.297314 
L 163.068043 242.297314 
z
" style="fill:#00008b;opacity:0.4;stroke:#00008b;stroke-linejoin:miter;"/>
   </g>
   <g id="patch_24">
    <path clip-path="url(#p6a854ed16a)" d="M 177.651032 252 
L 192.234022 252 
L 192.234022 237.445971 
L 177.651032 237.445971 
z
" style="fill:#00008b;opacity:0.4;stroke:#00008b;stroke-linejoin:miter;"/>
   </g>
   <g id="patch_25">
    <path clip-path="url(#p6a854ed16a)" d="M 192.234022 252 
L 206.817011 252 
L 206.817011 247.148657 
L 192.234022 247.148657 
z
" style="fill:#00008b;opacity:0.4;stroke:#00008b;stroke-linejoin:miter;"/>
   </g>
   <g id="patch_26">
    <path clip-path="url(#p6a854ed16a)" d="M 206.817011 252 
L 221.4 252 
L 221.4 247.148657 
L 206.817011 247.148657 
z
" style="fill:#00008b;opacity:0.4;stroke:#00008b;stroke-linejoin:miter;"/>
   </g>
   <g id="patch_27">
    <path clip-path="url(#p6a854ed16a)" d="M 221.4 252 
L 235.982989 252 
L 235.982989 252 
L 221.4 252 
z
" style="fill:#00008b;opacity:0.4;stroke:#00008b;stroke-linejoin:miter;"/>
   </g>
   <g id="patch_28">
    <path clip-path="url(#p6a854ed16a)" d="M 235.982989 252 
L 250.565978 252 
L 250.565978 237.445971 
L 235.982989 237.445971 
z
" style="fill:#00008b;opacity:0.4;stroke:#00008b;stroke-linejoin:miter;"/>
   </g>
   <g id="patch_29">
    <path clip-path="url(#p6a854ed16a)" d="M 250.565978 252 
L 265.148968 252 
L 265.148968 252 
L 250.565978 252 
z
" style="fill:#00008b;opacity:0.4;stroke:#00008b;stroke-linejoin:miter;"/>
   </g>
   <g id="patch_30">
    <path clip-path="url(#p6a854ed16a)" d="M 265.148968 252 
L 279.731957 252 
L 279.731957 252 
L 265.148968 252 
z
" style="fill:#00008b;opacity:0.4;stroke:#00008b;stroke-linejoin:miter;"/>
   </g>
   <g id="patch_31">
    <path clip-path="url(#p6a854ed16a)" d="M 279.731957 252 
L 294.314946 252 
L 294.314946 252 
L 279.731957 252 
z
" style="fill:#00008b;opacity:0.4;stroke:#00008b;stroke-linejoin:miter;"/>
   </g>
   <g id="patch_32">
    <path clip-path="url(#p6a854ed16a)" d="M 294.314946 252 
L 308.897935 252 
L 308.897935 252 
L 294.314946 252 
z
" style="fill:#00008b;opacity:0.4;stroke:#00008b;stroke-linejoin:miter;"/>
   </g>
   <g id="patch_33">
    <path clip-path="url(#p6a854ed16a)" d="M 308.897935 252 
L 323.480925 252 
L 323.480925 252 
L 308.897935 252 
z
" style="fill:#00008b;opacity:0.4;stroke:#00008b;stroke-linejoin:miter;"/>
   </g>
   <g id="patch_34">
    <path clip-path="url(#p6a854ed16a)" d="M 323.480925 252 
L 338.063914 252 
L 338.063914 252 
L 323.480925 252 
z
" style="fill:#00008b;opacity:0.4;stroke:#00008b;stroke-linejoin:miter;"/>
   </g>
   <g id="patch_35">
    <path clip-path="url(#p6a854ed16a)" d="M 104.736086 252 
L 119.319075 252 
L 119.319075 252 
L 104.736086 252 
z
" style="fill:#f08080;opacity:0.4;stroke:#ff0000;stroke-linejoin:miter;"/>
   </g>
   <g id="patch_36">
    <path clip-path="url(#p6a854ed16a)" d="M 119.319075 252 
L 133.902065 252 
L 133.902065 239.990315 
L 119.319075 239.990315 
z
" style="fill:#f08080;opacity:0.4;stroke:#ff0000;stroke-linejoin:miter;"/>
   </g>
   <g id="patch_37">
    <path clip-path="url(#p6a854ed16a)" d="M 133.902065 252 
L 148.485054 252 
L 148.485054 252 
L 133.902065 252 
z
" style="fill:#f08080;opacity:0.4;stroke:#ff0000;stroke-linejoin:miter;"/>
   </g>
   <g id="patch_38">
    <path clip-path="url(#p6a854ed16a)" d="M 148.485054 252 
L 163.068043 252 
L 163.068043 252 
L 148.485054 252 
z
" style="fill:#f08080;opacity:0.4;stroke:#ff0000;stroke-linejoin:miter;"/>
   </g>
   <g id="patch_39">
    <path clip-path="url(#p6a854ed16a)" d="M 163.068043 252 
L 177.651032 252 
L 177.651032 230.069271 
L 163.068043 230.069271 
z
" style="fill:#f08080;opacity:0.4;stroke:#ff0000;stroke-linejoin:miter;"/>
   </g>
   <g id="patch_40">
    <path clip-path="url(#p6a854ed16a)" d="M 177.651032 252 
L 192.234022 252 
L 192.234022 183.597012 
L 177.651032 183.597012 
z
" style="fill:#f08080;opacity:0.4;stroke:#ff0000;stroke-linejoin:miter;"/>
   </g>
   <g id="patch_41">
    <path clip-path="url(#p6a854ed16a)" d="M 192.234022 252 
L 206.817011 252 
L 206.817011 191.951575 
L 192.234022 191.951575 
z
" style="fill:#f08080;opacity:0.4;stroke:#ff0000;stroke-linejoin:miter;"/>
   </g>
   <g id="patch_42">
    <path clip-path="url(#p6a854ed16a)" d="M 206.817011 252 
L 221.4 252 
L 221.4 235.290873 
L 206.817011 235.290873 
z
" style="fill:#f08080;opacity:0.4;stroke:#ff0000;stroke-linejoin:miter;"/>
   </g>
   <g id="patch_43">
    <path clip-path="url(#p6a854ed16a)" d="M 221.4 252 
L 235.982989 252 
L 235.982989 232.680072 
L 221.4 232.680072 
z
" style="fill:#f08080;opacity:0.4;stroke:#ff0000;stroke-linejoin:miter;"/>
   </g>
   <g id="patch_44">
    <path clip-path="url(#p6a854ed16a)" d="M 235.982989 252 
L 250.565978 252 
L 250.565978 221.714708 
L 235.982989 221.714708 
z
" style="fill:#f08080;opacity:0.4;stroke:#ff0000;stroke-linejoin:miter;"/>
   </g>
   <g id="patch_45">
    <path clip-path="url(#p6a854ed16a)" d="M 250.565978 252 
L 265.148968 252 
L 265.148968 233.724392 
L 250.565978 233.724392 
z
" style="fill:#f08080;opacity:0.4;stroke:#ff0000;stroke-linejoin:miter;"/>
   </g>
   <g id="patch_46">
    <path clip-path="url(#p6a854ed16a)" d="M 265.148968 252 
L 279.731957 252 
L 279.731957 244.167597 
L 265.148968 244.167597 
z
" style="fill:#f08080;opacity:0.4;stroke:#ff0000;stroke-linejoin:miter;"/>
   </g>
   <g id="patch_47">
    <path clip-path="url(#p6a854ed16a)" d="M 279.731957 252 
L 294.314946 252 
L 294.314946 246.778398 
L 279.731957 246.778398 
z
" style="fill:#f08080;opacity:0.4;stroke:#ff0000;stroke-linejoin:miter;"/>
   </g>
   <g id="patch_48">
    <path clip-path="url(#p6a854ed16a)" d="M 294.314946 252 
L 308.897935 252 
L 308.897935 248.867039 
L 294.314946 248.867039 
z
" style="fill:#f08080;opacity:0.4;stroke:#ff0000;stroke-linejoin:miter;"/>
   </g>
   <g id="patch_49">
    <path clip-path="url(#p6a854ed16a)" d="M 308.897935 252 
L 323.480925 252 
L 323.480925 249.389199 
L 308.897935 249.389199 
z
" style="fill:#f08080;opacity:0.4;stroke:#ff0000;stroke-linejoin:miter;"/>
   </g>
   <g id="patch_50">
    <path clip-path="url(#p6a854ed16a)" d="M 323.480925 252 
L 338.063914 252 
L 338.063914 250.95568 
L 323.480925 250.95568 
z
" style="fill:#f08080;opacity:0.4;stroke:#ff0000;stroke-linejoin:miter;"/>
   </g>
   <g id="line2d_14">
    <path clip-path="url(#p6a854ed16a)" d="M 69.218182 251.942956 
L 78.804438 251.801625 
L 85.99413 251.497891 
L 93.183822 250.931693 
L 100.373515 250.104868 
L 109.959771 248.931903 
L 114.752899 248.535314 
L 119.546027 248.37415 
L 124.339155 248.456786 
L 138.71854 249.029113 
L 141.115104 248.911206 
L 143.511668 248.656206 
L 145.908232 248.237971 
L 148.304796 247.63391 
L 150.70136 246.826324 
L 153.097924 245.80378 
L 155.494488 244.562485 
L 157.891052 243.107537 
L 160.287616 241.453911 
L 165.080744 237.662628 
L 174.667001 229.443472 
L 177.063565 227.593242 
L 179.460129 225.941202 
L 181.856693 224.534277 
L 184.253257 223.407231 
L 186.649821 222.579947 
L 189.046385 222.055673 
L 191.442949 221.82046 
L 193.839513 221.843886 
L 196.236077 222.081065 
L 201.029205 222.964675 
L 205.822334 223.963061 
L 208.218898 224.352012 
L 210.615462 224.602646 
L 213.012026 224.683148 
L 215.40859 224.577722 
L 217.805154 224.287266 
L 220.201718 223.828755 
L 224.994846 222.543965 
L 232.184538 220.432897 
L 234.581102 219.893071 
L 236.977666 219.513298 
L 239.37423 219.327617 
L 241.770795 219.358785 
L 244.167359 219.617554 
L 246.563923 220.102836 
L 248.960487 220.802689 
L 251.357051 221.695944 
L 253.753615 222.754293 
L 258.546743 225.23143 
L 270.529563 231.956493 
L 275.322691 234.330426 
L 280.11582 236.383001 
L 284.908948 238.117008 
L 289.702076 239.577943 
L 294.495204 240.83206 
L 301.684896 242.478296 
L 332.840229 249.096209 
L 340.029921 250.266668 
L 344.823049 250.856196 
L 352.012742 251.454851 
L 359.202434 251.775521 
L 368.78869 251.936345 
L 373.581818 251.949607 
L 373.581818 251.949607 
" style="fill:none;stroke:#808080;stroke-linecap:round;stroke-width:2;"/>
   </g>
   <g id="line2d_15">
    <path clip-path="url(#p6a854ed16a)" d="M 103.909904 249.426024 
L 105.071182 247.246517 
L 106.232459 243.470943 
L 107.393737 237.367571 
L 108.555015 228.096045 
L 109.716292 214.853898 
L 110.87757 197.104315 
L 112.038847 174.852466 
L 114.361403 120.967677 
L 115.52268 93.627883 
L 116.683958 69.947263 
L 117.845235 52.938034 
L 119.006513 44.914286 
L 120.167791 46.948582 
L 121.329068 58.599113 
L 122.490346 77.999472 
L 127.135456 174.087123 
L 128.296734 190.709262 
L 129.458012 202.622311 
L 130.619289 210.479692 
L 131.780567 215.381305 
L 132.941844 218.532717 
L 135.2644 223.405134 
L 136.425677 226.156243 
L 139.90951 235.243906 
L 141.070788 237.603145 
L 142.232065 239.259411 
L 143.393343 240.195728 
L 144.55462 240.538276 
L 145.715898 240.510952 
L 146.877176 240.37137 
L 148.038453 240.345806 
L 149.199731 240.578301 
L 150.361008 241.104322 
L 153.844841 243.387829 
L 155.006119 243.826537 
L 156.167397 243.887519 
L 157.328674 243.55597 
L 158.489952 242.910698 
L 160.812507 241.331538 
L 161.973785 240.768602 
L 163.135062 240.538454 
L 164.29634 240.670875 
L 165.457617 241.092535 
L 167.780173 242.108317 
L 168.94145 242.282746 
L 170.102728 242.01351 
L 171.264005 241.248154 
L 172.425283 240.054336 
L 174.747838 237.181247 
L 175.909116 236.040993 
L 177.070394 235.431425 
L 178.231671 235.496326 
L 179.392949 236.251875 
L 180.554226 237.586301 
L 184.038059 242.79735 
L 185.199337 244.174448 
L 186.360614 245.147291 
L 187.521892 245.718763 
L 188.68317 245.970434 
L 193.32828 246.299474 
L 195.650835 247.032996 
L 197.97339 247.774668 
L 199.134668 247.943507 
L 200.295946 247.915974 
L 201.457223 247.701743 
L 204.941056 246.638385 
L 206.102334 246.461011 
L 207.263611 246.498575 
L 208.424889 246.772453 
L 209.586167 247.260668 
L 211.908722 248.634138 
L 214.231277 250.038042 
L 215.392555 250.60676 
L 216.553832 251.051543 
L 217.71511 251.369162 
L 218.876387 251.565364 
L 220.037665 251.645229 
L 221.198943 251.60445 
L 222.36022 251.423057 
L 223.521498 251.062894 
L 224.682775 250.47023 
L 225.844053 249.584822 
L 227.005331 248.355856 
L 228.166608 246.763271 
L 229.327886 244.840063 
L 232.811719 238.452331 
L 233.972996 236.84404 
L 235.134274 235.875376 
L 236.295552 235.685361 
L 237.456829 236.302089 
L 238.618107 237.635914 
L 239.779384 239.500805 
L 243.263217 245.90734 
L 244.424495 247.659544 
L 245.585772 249.049343 
L 246.74705 250.066285 
L 247.908328 250.730923 
L 249.069605 251.061837 
L 250.230883 251.03922 
L 251.39216 250.565851 
L 251.39216 250.565851 
" style="fill:none;stroke:#00008b;stroke-linecap:round;stroke-width:2;"/>
   </g>
   <g id="line2d_16">
    <path clip-path="url(#p6a854ed16a)" d="M 84.749623 251.925861 
L 91.205546 251.681178 
L 95.509495 251.268685 
L 99.813444 250.536689 
L 104.117393 249.448824 
L 112.725291 246.871691 
L 114.877265 246.397016 
L 117.02924 246.084698 
L 119.181214 245.964274 
L 121.333189 246.04553 
L 123.485163 246.316044 
L 127.789112 247.272011 
L 132.093061 248.384926 
L 134.245035 248.829595 
L 136.39701 249.111419 
L 138.548984 249.171351 
L 140.700959 248.957383 
L 142.852933 248.424538 
L 145.004907 247.53471 
L 147.156882 246.256806 
L 149.308856 244.567393 
L 151.460831 242.451823 
L 153.612805 239.905768 
L 155.76478 236.937189 
L 157.916754 233.568846 
L 160.068728 229.841403 
L 164.372677 221.581006 
L 168.676626 212.942676 
L 170.828601 208.823848 
L 172.980575 205.044605 
L 175.13255 201.754335 
L 177.284524 199.083143 
L 179.436498 197.131731 
L 181.588473 195.965439 
L 183.740447 195.612677 
L 185.892422 196.066554 
L 188.044396 197.287817 
L 190.196371 199.207496 
L 192.348345 201.728749 
L 194.50032 204.728696 
L 198.804268 211.566716 
L 203.108217 218.428114 
L 205.260192 221.483108 
L 207.412166 224.131135 
L 209.564141 226.300915 
L 211.716115 227.961406 
L 213.868089 229.118958 
L 216.020064 229.811035 
L 218.172038 230.098358 
L 220.324013 230.057152 
L 222.475987 229.772554 
L 226.779936 228.828387 
L 231.083885 227.949905 
L 233.235859 227.717026 
L 235.387834 227.691174 
L 237.539808 227.901457 
L 239.691783 228.357032 
L 241.843757 229.048353 
L 243.995732 229.950467 
L 246.147706 231.027577 
L 250.451655 233.537913 
L 259.059553 238.850787 
L 263.363502 241.159697 
L 267.66745 243.063991 
L 271.971399 244.557155 
L 276.275348 245.703366 
L 280.579297 246.593249 
L 287.03522 247.610803 
L 293.491144 248.369268 
L 302.099041 249.113204 
L 336.530633 251.642666 
L 345.13853 251.897726 
L 355.898402 251.967369 
L 358.050377 251.953808 
L 358.050377 251.953808 
" style="fill:none;stroke:#f08080;stroke-linecap:round;stroke-width:2;"/>
   </g>
   <g id="patch_51">
    <path d="M 54 252 
L 54 34.56 
" style="fill:none;stroke:#ffffff;stroke-linecap:square;stroke-linejoin:miter;stroke-width:1.25;"/>
   </g>
   <g id="patch_52">
    <path d="M 388.8 252 
L 388.8 34.56 
" style="fill:none;stroke:#ffffff;stroke-linecap:square;stroke-linejoin:miter;stroke-width:1.25;"/>
   </g>
   <g id="patch_53">
    <path d="M 54 252 
L 388.8 252 
" style="fill:none;stroke:#ffffff;stroke-linecap:square;stroke-linejoin:miter;stroke-width:1.25;"/>
   </g>
   <g id="patch_54">
    <path d="M 54 34.56 
L 388.8 34.56 
" style="fill:none;stroke:#ffffff;stroke-linecap:square;stroke-linejoin:miter;stroke-width:1.25;"/>
   </g>
   <g id="text_16">
    <!-- Distribution of nodes presenting in profiles -->
    <defs>
     <path d="M 7.71875 0 
L 7.71875 71.578125 
L 32.375 71.578125 
Q 40.71875 71.578125 45.125 70.5625 
Q 51.265625 69.140625 55.609375 65.4375 
Q 61.28125 60.640625 64.078125 53.1875 
Q 66.890625 45.75 66.890625 36.1875 
Q 66.890625 28.03125 64.984375 21.734375 
Q 63.09375 15.4375 60.109375 11.296875 
Q 57.125 7.171875 53.578125 4.796875 
Q 50.046875 2.4375 45.046875 1.21875 
Q 40.046875 0 33.546875 0 
z
M 17.1875 8.453125 
L 32.46875 8.453125 
Q 39.546875 8.453125 43.578125 9.765625 
Q 47.609375 11.078125 50 13.484375 
Q 53.375 16.84375 55.25 22.53125 
Q 57.125 28.21875 57.125 36.328125 
Q 57.125 47.5625 53.4375 53.59375 
Q 49.75 59.625 44.484375 61.671875 
Q 40.671875 63.140625 32.234375 63.140625 
L 17.1875 63.140625 
z
" id="ArialMT-68"/>
     <path d="M 40.578125 0 
L 40.578125 7.625 
Q 34.515625 -1.171875 24.125 -1.171875 
Q 19.53125 -1.171875 15.546875 0.578125 
Q 11.578125 2.34375 9.640625 5 
Q 7.71875 7.671875 6.9375 11.53125 
Q 6.390625 14.109375 6.390625 19.734375 
L 6.390625 51.859375 
L 15.1875 51.859375 
L 15.1875 23.09375 
Q 15.1875 16.21875 15.71875 13.8125 
Q 16.546875 10.359375 19.234375 8.375 
Q 21.921875 6.390625 25.875 6.390625 
Q 29.828125 6.390625 33.296875 8.421875 
Q 36.765625 10.453125 38.203125 13.9375 
Q 39.65625 17.4375 39.65625 24.078125 
L 39.65625 51.859375 
L 48.4375 51.859375 
L 48.4375 0 
z
" id="ArialMT-117"/>
     <path d="M 40.234375 0 
L 40.234375 6.546875 
Q 35.296875 -1.171875 25.734375 -1.171875 
Q 19.53125 -1.171875 14.328125 2.25 
Q 9.125 5.671875 6.265625 11.796875 
Q 3.421875 17.921875 3.421875 25.875 
Q 3.421875 33.640625 6 39.96875 
Q 8.59375 46.296875 13.765625 49.65625 
Q 18.953125 53.03125 25.34375 53.03125 
Q 30.03125 53.03125 33.6875 51.046875 
Q 37.359375 49.078125 39.65625 45.90625 
L 39.65625 71.578125 
L 48.390625 71.578125 
L 48.390625 0 
z
M 12.453125 25.875 
Q 12.453125 15.921875 16.640625 10.984375 
Q 20.84375 6.0625 26.5625 6.0625 
Q 32.328125 6.0625 36.34375 10.765625 
Q 40.375 15.484375 40.375 25.140625 
Q 40.375 35.796875 36.265625 40.765625 
Q 32.171875 45.75 26.171875 45.75 
Q 20.3125 45.75 16.375 40.96875 
Q 12.453125 36.1875 12.453125 25.875 
z
" id="ArialMT-100"/>
     <path d="M 4.984375 -4.296875 
L 13.53125 -5.5625 
Q 14.0625 -9.515625 16.5 -11.328125 
Q 19.78125 -13.765625 25.4375 -13.765625 
Q 31.546875 -13.765625 34.859375 -11.328125 
Q 38.1875 -8.890625 39.359375 -4.5 
Q 40.046875 -1.8125 39.984375 6.78125 
Q 34.234375 0 25.640625 0 
Q 14.9375 0 9.078125 7.71875 
Q 3.21875 15.4375 3.21875 26.21875 
Q 3.21875 33.640625 5.90625 39.90625 
Q 8.59375 46.1875 13.6875 49.609375 
Q 18.796875 53.03125 25.6875 53.03125 
Q 34.859375 53.03125 40.828125 45.609375 
L 40.828125 51.859375 
L 48.921875 51.859375 
L 48.921875 7.03125 
Q 48.921875 -5.078125 46.453125 -10.125 
Q 44 -15.1875 38.640625 -18.109375 
Q 33.296875 -21.046875 25.484375 -21.046875 
Q 16.21875 -21.046875 10.5 -16.875 
Q 4.78125 -12.703125 4.984375 -4.296875 
z
M 12.25 26.859375 
Q 12.25 16.65625 16.296875 11.96875 
Q 20.359375 7.28125 26.46875 7.28125 
Q 32.515625 7.28125 36.609375 11.9375 
Q 40.71875 16.609375 40.71875 26.5625 
Q 40.71875 36.078125 36.5 40.90625 
Q 32.28125 45.75 26.3125 45.75 
Q 20.453125 45.75 16.34375 40.984375 
Q 12.25 36.234375 12.25 26.859375 
z
" id="ArialMT-103"/>
    </defs>
    <g style="fill:#262626;" transform="translate(81.747656 28.56)scale(0.15 -0.15)">
     <use xlink:href="#ArialMT-68"/>
     <use x="72.216797" xlink:href="#ArialMT-105"/>
     <use x="94.433594" xlink:href="#ArialMT-115"/>
     <use x="144.433594" xlink:href="#ArialMT-116"/>
     <use x="172.216797" xlink:href="#ArialMT-114"/>
     <use x="205.517578" xlink:href="#ArialMT-105"/>
     <use x="227.734375" xlink:href="#ArialMT-98"/>
     <use x="283.349609" xlink:href="#ArialMT-117"/>
     <use x="338.964844" xlink:href="#ArialMT-116"/>
     <use x="366.748047" xlink:href="#ArialMT-105"/>
     <use x="388.964844" xlink:href="#ArialMT-111"/>
     <use x="444.580078" xlink:href="#ArialMT-110"/>
     <use x="500.195312" xlink:href="#ArialMT-32"/>
     <use x="527.978516" xlink:href="#ArialMT-111"/>
     <use x="583.59375" xlink:href="#ArialMT-102"/>
     <use x="611.376953" xlink:href="#ArialMT-32"/>
     <use x="639.160156" xlink:href="#ArialMT-110"/>
     <use x="694.775391" xlink:href="#ArialMT-111"/>
     <use x="750.390625" xlink:href="#ArialMT-100"/>
     <use x="806.005859" xlink:href="#ArialMT-101"/>
     <use x="861.621094" xlink:href="#ArialMT-115"/>
     <use x="911.621094" xlink:href="#ArialMT-32"/>
     <use x="939.404297" xlink:href="#ArialMT-112"/>
     <use x="995.019531" xlink:href="#ArialMT-114"/>
     <use x="1028.320312" xlink:href="#ArialMT-101"/>
     <use x="1083.935547" xlink:href="#ArialMT-115"/>
     <use x="1133.935547" xlink:href="#ArialMT-101"/>
     <use x="1189.550781" xlink:href="#ArialMT-110"/>
     <use x="1245.166016" xlink:href="#ArialMT-116"/>
     <use x="1272.949219" xlink:href="#ArialMT-105"/>
     <use x="1295.166016" xlink:href="#ArialMT-110"/>
     <use x="1350.78125" xlink:href="#ArialMT-103"/>
     <use x="1406.396484" xlink:href="#ArialMT-32"/>
     <use x="1434.179688" xlink:href="#ArialMT-105"/>
     <use x="1456.396484" xlink:href="#ArialMT-110"/>
     <use x="1512.011719" xlink:href="#ArialMT-32"/>
     <use x="1539.794922" xlink:href="#ArialMT-112"/>
     <use x="1595.410156" xlink:href="#ArialMT-114"/>
     <use x="1628.710938" xlink:href="#ArialMT-111"/>
     <use x="1684.326172" xlink:href="#ArialMT-102"/>
     <use x="1712.109375" xlink:href="#ArialMT-105"/>
     <use x="1734.326172" xlink:href="#ArialMT-108"/>
     <use x="1756.542969" xlink:href="#ArialMT-101"/>
     <use x="1812.158203" xlink:href="#ArialMT-115"/>
    </g>
   </g>
   <g id="legend_1">
    <g id="patch_55">
     <path d="M 252.351875 90.436563 
L 381.1 90.436563 
Q 383.3 90.436563 383.3 88.236563 
L 383.3 42.26 
Q 383.3 40.06 381.1 40.06 
L 252.351875 40.06 
Q 250.151875 40.06 250.151875 42.26 
L 250.151875 88.236563 
Q 250.151875 90.436563 252.351875 90.436563 
z
" style="fill:#eaeaf2;opacity:0.8;stroke:#cccccc;stroke-linejoin:miter;"/>
    </g>
    <g id="patch_56">
     <path d="M 254.551875 52.467656 
L 276.551875 52.467656 
L 276.551875 44.767656 
L 254.551875 44.767656 
z
" style="fill:#808080;opacity:0.4;stroke:#808080;stroke-linejoin:miter;"/>
    </g>
    <g id="text_17">
     <!-- Selected_substruc. -->
     <defs>
      <path d="M 4.5 23 
L 13.421875 23.78125 
Q 14.0625 18.40625 16.375 14.96875 
Q 18.703125 11.53125 23.578125 9.40625 
Q 28.46875 7.28125 34.578125 7.28125 
Q 39.984375 7.28125 44.140625 8.890625 
Q 48.296875 10.5 50.3125 13.296875 
Q 52.34375 16.109375 52.34375 19.4375 
Q 52.34375 22.796875 50.390625 25.3125 
Q 48.4375 27.828125 43.953125 29.546875 
Q 41.0625 30.671875 31.203125 33.03125 
Q 21.34375 35.40625 17.390625 37.5 
Q 12.25 40.1875 9.734375 44.15625 
Q 7.234375 48.140625 7.234375 53.078125 
Q 7.234375 58.5 10.296875 63.203125 
Q 13.375 67.921875 19.28125 70.359375 
Q 25.203125 72.796875 32.421875 72.796875 
Q 40.375 72.796875 46.453125 70.234375 
Q 52.546875 67.671875 55.8125 62.6875 
Q 59.078125 57.71875 59.328125 51.421875 
L 50.25 50.734375 
Q 49.515625 57.515625 45.28125 60.984375 
Q 41.0625 64.453125 32.8125 64.453125 
Q 24.21875 64.453125 20.28125 61.296875 
Q 16.359375 58.15625 16.359375 53.71875 
Q 16.359375 49.859375 19.140625 47.359375 
Q 21.875 44.875 33.421875 42.265625 
Q 44.96875 39.65625 49.265625 37.703125 
Q 55.515625 34.8125 58.484375 30.390625 
Q 61.46875 25.984375 61.46875 20.21875 
Q 61.46875 14.5 58.203125 9.4375 
Q 54.9375 4.390625 48.796875 1.578125 
Q 42.671875 -1.21875 35.015625 -1.21875 
Q 25.296875 -1.21875 18.71875 1.609375 
Q 12.15625 4.4375 8.421875 10.125 
Q 4.6875 15.828125 4.5 23 
z
" id="ArialMT-83"/>
      <path d="M 40.4375 19 
L 49.078125 17.875 
Q 47.65625 8.9375 41.8125 3.875 
Q 35.984375 -1.171875 27.484375 -1.171875 
Q 16.84375 -1.171875 10.375 5.78125 
Q 3.90625 12.75 3.90625 25.734375 
Q 3.90625 34.125 6.6875 40.421875 
Q 9.46875 46.734375 15.15625 49.875 
Q 20.84375 53.03125 27.546875 53.03125 
Q 35.984375 53.03125 41.359375 48.75 
Q 46.734375 44.484375 48.25 36.625 
L 39.703125 35.296875 
Q 38.484375 40.53125 35.375 43.15625 
Q 32.28125 45.796875 27.875 45.796875 
Q 21.234375 45.796875 17.078125 41.03125 
Q 12.9375 36.28125 12.9375 25.984375 
Q 12.9375 15.53125 16.9375 10.796875 
Q 20.953125 6.0625 27.390625 6.0625 
Q 32.5625 6.0625 36.03125 9.234375 
Q 39.5 12.40625 40.4375 19 
z
" id="ArialMT-99"/>
      <path d="M -1.515625 -19.875 
L -1.515625 -13.53125 
L 56.734375 -13.53125 
L 56.734375 -19.875 
z
" id="ArialMT-95"/>
     </defs>
     <g style="fill:#262626;" transform="translate(285.351875 52.467656)scale(0.11 -0.11)">
      <use xlink:href="#ArialMT-83"/>
      <use x="66.699219" xlink:href="#ArialMT-101"/>
      <use x="122.314453" xlink:href="#ArialMT-108"/>
      <use x="144.53125" xlink:href="#ArialMT-101"/>
      <use x="200.146484" xlink:href="#ArialMT-99"/>
      <use x="250.146484" xlink:href="#ArialMT-116"/>
      <use x="277.929688" xlink:href="#ArialMT-101"/>
      <use x="333.544922" xlink:href="#ArialMT-100"/>
      <use x="389.160156" xlink:href="#ArialMT-95"/>
      <use x="444.775391" xlink:href="#ArialMT-115"/>
      <use x="494.775391" xlink:href="#ArialMT-117"/>
      <use x="550.390625" xlink:href="#ArialMT-98"/>
      <use x="606.005859" xlink:href="#ArialMT-115"/>
      <use x="656.005859" xlink:href="#ArialMT-116"/>
      <use x="683.789062" xlink:href="#ArialMT-114"/>
      <use x="717.089844" xlink:href="#ArialMT-117"/>
      <use x="772.705078" xlink:href="#ArialMT-99"/>
      <use x="822.705078" xlink:href="#ArialMT-46"/>
     </g>
    </g>
    <g id="patch_57">
     <path d="M 254.551875 68.161563 
L 276.551875 68.161563 
L 276.551875 60.461562 
L 254.551875 60.461562 
z
" style="fill:#00008b;opacity:0.4;stroke:#00008b;stroke-linejoin:miter;"/>
    </g>
    <g id="text_18">
     <!-- Glycan -->
     <defs>
      <path d="M 41.21875 28.078125 
L 41.21875 36.46875 
L 71.53125 36.53125 
L 71.53125 9.96875 
Q 64.546875 4.390625 57.125 1.578125 
Q 49.703125 -1.21875 41.890625 -1.21875 
Q 31.34375 -1.21875 22.71875 3.296875 
Q 14.109375 7.8125 9.71875 16.359375 
Q 5.328125 24.90625 5.328125 35.453125 
Q 5.328125 45.90625 9.6875 54.953125 
Q 14.0625 64.015625 22.265625 68.40625 
Q 30.46875 72.796875 41.15625 72.796875 
Q 48.921875 72.796875 55.1875 70.28125 
Q 61.46875 67.78125 65.03125 63.28125 
Q 68.609375 58.796875 70.453125 51.5625 
L 61.921875 49.21875 
Q 60.296875 54.6875 57.90625 57.8125 
Q 55.515625 60.9375 51.0625 62.8125 
Q 46.625 64.703125 41.21875 64.703125 
Q 34.71875 64.703125 29.984375 62.71875 
Q 25.25 60.75 22.34375 57.515625 
Q 19.4375 54.296875 17.828125 50.4375 
Q 15.09375 43.796875 15.09375 36.03125 
Q 15.09375 26.46875 18.390625 20.015625 
Q 21.6875 13.578125 27.984375 10.453125 
Q 34.28125 7.328125 41.359375 7.328125 
Q 47.515625 7.328125 53.375 9.6875 
Q 59.234375 12.0625 62.25 14.75 
L 62.25 28.078125 
z
" id="ArialMT-71"/>
     </defs>
     <g style="fill:#262626;" transform="translate(285.351875 68.161563)scale(0.11 -0.11)">
      <use xlink:href="#ArialMT-71"/>
      <use x="77.783203" xlink:href="#ArialMT-108"/>
      <use x="100" xlink:href="#ArialMT-121"/>
      <use x="150" xlink:href="#ArialMT-99"/>
      <use x="200" xlink:href="#ArialMT-97"/>
      <use x="255.615234" xlink:href="#ArialMT-110"/>
     </g>
    </g>
    <g id="patch_58">
     <path d="M 254.551875 83.850313 
L 276.551875 83.850313 
L 276.551875 76.150312 
L 254.551875 76.150312 
z
" style="fill:#f08080;opacity:0.4;stroke:#ff0000;stroke-linejoin:miter;"/>
    </g>
    <g id="text_19">
     <!-- Substruc. -->
     <g style="fill:#262626;" transform="translate(285.351875 83.850313)scale(0.11 -0.11)">
      <use xlink:href="#ArialMT-83"/>
      <use x="66.699219" xlink:href="#ArialMT-117"/>
      <use x="122.314453" xlink:href="#ArialMT-98"/>
      <use x="177.929688" xlink:href="#ArialMT-115"/>
      <use x="227.929688" xlink:href="#ArialMT-116"/>
      <use x="255.712891" xlink:href="#ArialMT-114"/>
      <use x="289.013672" xlink:href="#ArialMT-117"/>
      <use x="344.628906" xlink:href="#ArialMT-99"/>
      <use x="394.628906" xlink:href="#ArialMT-46"/>
     </g>
    </g>
   </g>
  </g>
 </g>
 <defs>
  <clipPath id="p6a854ed16a">
   <rect height="217.44" width="334.8" x="54" y="34.56"/>
  </clipPath>
 </defs>
</svg>
