<?xml version="1.0" encoding="utf-8" standalone="no"?>
<!DOCTYPE svg PUBLIC "-//W3C//DTD SVG 1.1//EN"
  "http://www.w3.org/Graphics/SVG/1.1/DTD/svg11.dtd">
<!-- Created with matplotlib (https://matplotlib.org/) -->
<svg height="180pt" version="1.1" viewBox="0 0 1080 180" width="1080pt" xmlns="http://www.w3.org/2000/svg" xmlns:xlink="http://www.w3.org/1999/xlink">
 <defs>
  <style type="text/css">
*{stroke-linecap:butt;stroke-linejoin:round;}
  </style>
 </defs>
 <g id="figure_1">
  <g id="patch_1">
   <path d="M 0 180 
L 1080 180 
L 1080 0 
L 0 0 
z
" style="fill:#ffffff;"/>
  </g>
  <g id="axes_1">
   <g id="patch_2">
    <path d="M 135 157.5 
L 279.310345 157.5 
L 279.310345 21.6 
L 135 21.6 
z
" style="fill:#ffffff;"/>
   </g>
   <g id="patch_3">
    <path clip-path="url(#pb5d0492576)" d="M 192.122845 102.133333 
L 177.090517 102.133333 
" style="stroke:#000000;stroke-linejoin:miter;stroke-width:0.5;"/>
   </g>
   <g id="patch_4">
    <path clip-path="url(#pb5d0492576)" d="M 207.155172 89.55 
L 192.122845 102.133333 
" style="stroke:#000000;stroke-linejoin:miter;stroke-width:0.5;"/>
   </g>
   <g id="patch_5">
    <path clip-path="url(#pb5d0492576)" d="M 207.155172 89.55 
L 192.122845 76.966667 
" style="stroke:#000000;stroke-linejoin:miter;stroke-width:0.5;"/>
   </g>
   <g id="patch_6">
    <path clip-path="url(#pb5d0492576)" d="M 222.1875 89.55 
L 207.155172 89.55 
" style="stroke:#000000;stroke-linejoin:miter;stroke-width:0.5;"/>
   </g>
   <g id="patch_7">
    <path clip-path="url(#pb5d0492576)" d="M 237.219828 89.55 
L 222.1875 89.55 
" style="stroke:#000000;stroke-linejoin:miter;stroke-width:0.5;"/>
   </g>
   <g id="patch_8">
    <path clip-path="url(#pb5d0492576)" d="M 237.219828 89.55 
L 237.219828 76.966667 
" style="stroke:#000000;stroke-linejoin:miter;stroke-width:0.5;"/>
   </g>
   <g id="d7f4d4b4d8d54053a92324765045ac71-1-node">
    <path clip-path="url(#pb5d0492576)" d="M 239.625 85.523333 
L 239.625 93.576667 
L 234.814655 93.576667 
L 234.814655 85.523333 
L 239.625 85.523333 
z
" style="fill:#0000ff;stroke:#ffffff;stroke-linejoin:miter;stroke-width:0.5;"/>
   </g>
   <g id="d7f4d4b4d8d54053a92324765045ac71-4-node">
    <path clip-path="url(#pb5d0492576)" d="M 224.592672 85.523333 
L 224.592672 93.576667 
L 219.782328 93.576667 
L 219.782328 85.523333 
L 224.592672 85.523333 
z
" style="fill:#0000ff;stroke:#ffffff;stroke-linejoin:miter;stroke-width:0.5;"/>
   </g>
   <g id="d7f4d4b4d8d54053a92324765045ac71-6-node">
    <path clip-path="url(#pb5d0492576)" d="M 207.155172 93.576667 
C 207.793032 93.576667 208.404852 93.152392 208.855886 92.397283 
C 209.306921 91.642175 209.560345 90.617884 209.560345 89.55 
C 209.560345 88.482116 209.306921 87.457825 208.855886 86.702717 
C 208.404852 85.947608 207.793032 85.523333 207.155172 85.523333 
C 206.517313 85.523333 205.905493 85.947608 205.454459 86.702717 
C 205.003424 87.457825 204.75 88.482116 204.75 89.55 
C 204.75 90.617884 205.003424 91.642175 205.454459 92.397283 
C 205.905493 93.152392 206.517313 93.576667 207.155172 93.576667 
z
" style="fill:#00c832;stroke:#ffffff;stroke-linejoin:miter;stroke-width:0.5;"/>
   </g>
   <g id="d7f4d4b4d8d54053a92324765045ac71-8-node">
    <path clip-path="url(#pb5d0492576)" d="M 192.122845 106.16 
C 192.760704 106.16 193.372524 105.735725 193.823559 104.980617 
C 194.274593 104.225508 194.528017 103.201218 194.528017 102.133333 
C 194.528017 101.065449 194.274593 100.041158 193.823559 99.28605 
C 193.372524 98.530942 192.760704 98.106667 192.122845 98.106667 
C 191.484986 98.106667 190.873166 98.530942 190.422131 99.28605 
C 189.971097 100.041158 189.717672 101.065449 189.717672 102.133333 
C 189.717672 103.201218 189.971097 104.225508 190.422131 104.980617 
C 190.873166 105.735725 191.484986 106.16 192.122845 106.16 
z
" style="fill:#00c832;stroke:#ffffff;stroke-linejoin:miter;stroke-width:0.5;"/>
   </g>
   <g id="d7f4d4b4d8d54053a92324765045ac71-9-node">
    <path clip-path="url(#pb5d0492576)" d="M 179.49569 98.106667 
L 179.49569 106.16 
L 174.685345 106.16 
L 174.685345 98.106667 
L 179.49569 98.106667 
z
" style="fill:#0000ff;stroke:#ffffff;stroke-linejoin:miter;stroke-width:0.5;"/>
   </g>
   <g id="d7f4d4b4d8d54053a92324765045ac71-7-node">
    <path clip-path="url(#pb5d0492576)" d="M 192.122845 80.993333 
C 192.760704 80.993333 193.372524 80.569058 193.823559 79.81395 
C 194.274593 79.058842 194.528017 78.034551 194.528017 76.966667 
C 194.528017 75.898782 194.274593 74.874492 193.823559 74.119383 
C 193.372524 73.364275 192.760704 72.94 192.122845 72.94 
C 191.484986 72.94 190.873166 73.364275 190.422131 74.119383 
C 189.971097 74.874492 189.717672 75.898782 189.717672 76.966667 
C 189.717672 78.034551 189.971097 79.058842 190.422131 79.81395 
C 190.873166 80.569058 191.484986 80.993333 192.122845 80.993333 
z
" style="fill:#00c832;stroke:#ffffff;stroke-linejoin:miter;stroke-width:0.5;"/>
   </g>
   <g id="d7f4d4b4d8d54053a92324765045ac71-3-node">
    <path clip-path="url(#pb5d0492576)" d="M 237.219828 72.94 
L 235.136887 78.98 
L 239.302768 78.98 
z
" style="fill:#ff0000;stroke:#ffffff;stroke-linejoin:miter;stroke-width:0.5;"/>
   </g>
   <g id="patch_9">
    <path d="M 135 157.5 
L 135 21.6 
" style="fill:none;stroke:#ffffff;stroke-linecap:square;stroke-linejoin:miter;stroke-width:1.25;"/>
   </g>
   <g id="patch_10">
    <path d="M 279.310345 157.5 
L 279.310345 21.6 
" style="fill:none;stroke:#ffffff;stroke-linecap:square;stroke-linejoin:miter;stroke-width:1.25;"/>
   </g>
   <g id="patch_11">
    <path d="M 135 157.5 
L 279.310345 157.5 
" style="fill:none;stroke:#ffffff;stroke-linecap:square;stroke-linejoin:miter;stroke-width:1.25;"/>
   </g>
   <g id="patch_12">
    <path d="M 135 21.6 
L 279.310345 21.6 
" style="fill:none;stroke:#ffffff;stroke-linecap:square;stroke-linejoin:miter;stroke-width:1.25;"/>
   </g>
   <g id="text_1">
    <!-- 120:1 -->
    <defs>
     <path d="M 37.25 0 
L 28.46875 0 
L 28.46875 56 
Q 25.296875 52.984375 20.140625 49.953125 
Q 14.984375 46.921875 10.890625 45.40625 
L 10.890625 53.90625 
Q 18.265625 57.375 23.78125 62.296875 
Q 29.296875 67.234375 31.59375 71.875 
L 37.25 71.875 
z
" id="ArialMT-49"/>
     <path d="M 50.34375 8.453125 
L 50.34375 0 
L 3.03125 0 
Q 2.9375 3.171875 4.046875 6.109375 
Q 5.859375 10.9375 9.828125 15.625 
Q 13.8125 20.3125 21.34375 26.46875 
Q 33.015625 36.03125 37.109375 41.625 
Q 41.21875 47.21875 41.21875 52.203125 
Q 41.21875 57.421875 37.46875 61 
Q 33.734375 64.59375 27.734375 64.59375 
Q 21.390625 64.59375 17.578125 60.78125 
Q 13.765625 56.984375 13.71875 50.25 
L 4.6875 51.171875 
Q 5.609375 61.28125 11.65625 66.578125 
Q 17.71875 71.875 27.9375 71.875 
Q 38.234375 71.875 44.234375 66.15625 
Q 50.25 60.453125 50.25 52 
Q 50.25 47.703125 48.484375 43.546875 
Q 46.734375 39.40625 42.65625 34.8125 
Q 38.578125 30.21875 29.109375 22.21875 
Q 21.1875 15.578125 18.9375 13.203125 
Q 16.703125 10.84375 15.234375 8.453125 
z
" id="ArialMT-50"/>
     <path d="M 4.15625 35.296875 
Q 4.15625 48 6.765625 55.734375 
Q 9.375 63.484375 14.515625 67.671875 
Q 19.671875 71.875 27.484375 71.875 
Q 33.25 71.875 37.59375 69.546875 
Q 41.9375 67.234375 44.765625 62.859375 
Q 47.609375 58.5 49.21875 52.21875 
Q 50.828125 45.953125 50.828125 35.296875 
Q 50.828125 22.703125 48.234375 14.96875 
Q 45.65625 7.234375 40.5 3 
Q 35.359375 -1.21875 27.484375 -1.21875 
Q 17.140625 -1.21875 11.234375 6.203125 
Q 4.15625 15.140625 4.15625 35.296875 
z
M 13.1875 35.296875 
Q 13.1875 17.671875 17.3125 11.828125 
Q 21.4375 6 27.484375 6 
Q 33.546875 6 37.671875 11.859375 
Q 41.796875 17.71875 41.796875 35.296875 
Q 41.796875 52.984375 37.671875 58.78125 
Q 33.546875 64.59375 27.390625 64.59375 
Q 21.34375 64.59375 17.71875 59.46875 
Q 13.1875 52.9375 13.1875 35.296875 
z
" id="ArialMT-48"/>
     <path d="M 9.03125 41.84375 
L 9.03125 51.859375 
L 19.046875 51.859375 
L 19.046875 41.84375 
z
M 9.03125 0 
L 9.03125 10.015625 
L 19.046875 10.015625 
L 19.046875 0 
z
" id="ArialMT-58"/>
    </defs>
    <g style="fill:#262626;" transform="translate(192.142047 15.6)scale(0.12 -0.12)">
     <use xlink:href="#ArialMT-49"/>
     <use x="55.615234" xlink:href="#ArialMT-50"/>
     <use x="111.230469" xlink:href="#ArialMT-48"/>
     <use x="166.845703" xlink:href="#ArialMT-58"/>
     <use x="194.628906" xlink:href="#ArialMT-49"/>
    </g>
   </g>
  </g>
  <g id="axes_2">
   <g id="patch_13">
    <path d="M 308.172414 157.5 
L 452.482759 157.5 
L 452.482759 21.6 
L 308.172414 21.6 
z
" style="fill:#ffffff;"/>
   </g>
   <g id="patch_14">
    <path clip-path="url(#p7c0596936b)" d="M 365.295259 102.133333 
L 350.262931 102.133333 
" style="stroke:#000000;stroke-linejoin:miter;stroke-width:0.5;"/>
   </g>
   <g id="patch_15">
    <path clip-path="url(#p7c0596936b)" d="M 380.327586 89.55 
L 365.295259 102.133333 
" style="stroke:#000000;stroke-linejoin:miter;stroke-width:0.5;"/>
   </g>
   <g id="patch_16">
    <path clip-path="url(#p7c0596936b)" d="M 365.295259 76.966667 
L 350.262931 76.966667 
" style="stroke:#000000;stroke-linejoin:miter;stroke-width:0.5;"/>
   </g>
   <g id="patch_17">
    <path clip-path="url(#p7c0596936b)" d="M 380.327586 89.55 
L 365.295259 76.966667 
" style="stroke:#000000;stroke-linejoin:miter;stroke-width:0.5;"/>
   </g>
   <g id="patch_18">
    <path clip-path="url(#p7c0596936b)" d="M 395.359914 89.55 
L 380.327586 89.55 
" style="stroke:#000000;stroke-linejoin:miter;stroke-width:0.5;"/>
   </g>
   <g id="patch_19">
    <path clip-path="url(#p7c0596936b)" d="M 410.392241 89.55 
L 395.359914 89.55 
" style="stroke:#000000;stroke-linejoin:miter;stroke-width:0.5;"/>
   </g>
   <g id="patch_20">
    <path clip-path="url(#p7c0596936b)" d="M 410.392241 89.55 
L 410.392241 76.966667 
" style="stroke:#000000;stroke-linejoin:miter;stroke-width:0.5;"/>
   </g>
   <g id="5b001a4b37444b42acd26c91444774ab-1-node">
    <path clip-path="url(#p7c0596936b)" d="M 412.797414 85.523333 
L 412.797414 93.576667 
L 407.987069 93.576667 
L 407.987069 85.523333 
L 412.797414 85.523333 
z
" style="fill:#0000ff;stroke:#ffffff;stroke-linejoin:miter;stroke-width:0.5;"/>
   </g>
   <g id="5b001a4b37444b42acd26c91444774ab-4-node">
    <path clip-path="url(#p7c0596936b)" d="M 397.765086 85.523333 
L 397.765086 93.576667 
L 392.954741 93.576667 
L 392.954741 85.523333 
L 397.765086 85.523333 
z
" style="fill:#0000ff;stroke:#ffffff;stroke-linejoin:miter;stroke-width:0.5;"/>
   </g>
   <g id="5b001a4b37444b42acd26c91444774ab-6-node">
    <path clip-path="url(#p7c0596936b)" d="M 380.327586 93.576667 
C 380.965445 93.576667 381.577265 93.152392 382.0283 92.397283 
C 382.479334 91.642175 382.732759 90.617884 382.732759 89.55 
C 382.732759 88.482116 382.479334 87.457825 382.0283 86.702717 
C 381.577265 85.947608 380.965445 85.523333 380.327586 85.523333 
C 379.689727 85.523333 379.077907 85.947608 378.626872 86.702717 
C 378.175838 87.457825 377.922414 88.482116 377.922414 89.55 
C 377.922414 90.617884 378.175838 91.642175 378.626872 92.397283 
C 379.077907 93.152392 379.689727 93.576667 380.327586 93.576667 
z
" style="fill:#00c832;stroke:#ffffff;stroke-linejoin:miter;stroke-width:0.5;"/>
   </g>
   <g id="5b001a4b37444b42acd26c91444774ab-10-node">
    <path clip-path="url(#p7c0596936b)" d="M 365.295259 106.16 
C 365.933118 106.16 366.544938 105.735725 366.995972 104.980617 
C 367.447007 104.225508 367.700431 103.201218 367.700431 102.133333 
C 367.700431 101.065449 367.447007 100.041158 366.995972 99.28605 
C 366.544938 98.530942 365.933118 98.106667 365.295259 98.106667 
C 364.657399 98.106667 364.045579 98.530942 363.594545 99.28605 
C 363.14351 100.041158 362.890086 101.065449 362.890086 102.133333 
C 362.890086 103.201218 363.14351 104.225508 363.594545 104.980617 
C 364.045579 105.735725 364.657399 106.16 365.295259 106.16 
z
" style="fill:#00c832;stroke:#ffffff;stroke-linejoin:miter;stroke-width:0.5;"/>
   </g>
   <g id="5b001a4b37444b42acd26c91444774ab-11-node">
    <path clip-path="url(#p7c0596936b)" d="M 352.668103 98.106667 
L 352.668103 106.16 
L 347.857759 106.16 
L 347.857759 98.106667 
L 352.668103 98.106667 
z
" style="fill:#0000ff;stroke:#ffffff;stroke-linejoin:miter;stroke-width:0.5;"/>
   </g>
   <g id="5b001a4b37444b42acd26c91444774ab-7-node">
    <path clip-path="url(#p7c0596936b)" d="M 365.295259 80.993333 
C 365.933118 80.993333 366.544938 80.569058 366.995972 79.81395 
C 367.447007 79.058842 367.700431 78.034551 367.700431 76.966667 
C 367.700431 75.898782 367.447007 74.874492 366.995972 74.119383 
C 366.544938 73.364275 365.933118 72.94 365.295259 72.94 
C 364.657399 72.94 364.045579 73.364275 363.594545 74.119383 
C 363.14351 74.874492 362.890086 75.898782 362.890086 76.966667 
C 362.890086 78.034551 363.14351 79.058842 363.594545 79.81395 
C 364.045579 80.569058 364.657399 80.993333 365.295259 80.993333 
z
" style="fill:#00c832;stroke:#ffffff;stroke-linejoin:miter;stroke-width:0.5;"/>
   </g>
   <g id="5b001a4b37444b42acd26c91444774ab-8-node">
    <path clip-path="url(#p7c0596936b)" d="M 352.668103 72.94 
L 352.668103 80.993333 
L 347.857759 80.993333 
L 347.857759 72.94 
L 352.668103 72.94 
z
" style="fill:#0000ff;stroke:#ffffff;stroke-linejoin:miter;stroke-width:0.5;"/>
   </g>
   <g id="5b001a4b37444b42acd26c91444774ab-3-node">
    <path clip-path="url(#p7c0596936b)" d="M 410.392241 72.94 
L 408.309301 78.98 
L 412.475182 78.98 
z
" style="fill:#ff0000;stroke:#ffffff;stroke-linejoin:miter;stroke-width:0.5;"/>
   </g>
   <g id="patch_21">
    <path d="M 308.172414 157.5 
L 308.172414 21.6 
" style="fill:none;stroke:#ffffff;stroke-linecap:square;stroke-linejoin:miter;stroke-width:1.25;"/>
   </g>
   <g id="patch_22">
    <path d="M 452.482759 157.5 
L 452.482759 21.6 
" style="fill:none;stroke:#ffffff;stroke-linecap:square;stroke-linejoin:miter;stroke-width:1.25;"/>
   </g>
   <g id="patch_23">
    <path d="M 308.172414 157.5 
L 452.482759 157.5 
" style="fill:none;stroke:#ffffff;stroke-linecap:square;stroke-linejoin:miter;stroke-width:1.25;"/>
   </g>
   <g id="patch_24">
    <path d="M 308.172414 21.6 
L 452.482759 21.6 
" style="fill:none;stroke:#ffffff;stroke-linecap:square;stroke-linejoin:miter;stroke-width:1.25;"/>
   </g>
   <g id="text_2">
    <!-- 168:1 -->
    <defs>
     <path d="M 49.75 54.046875 
L 41.015625 53.375 
Q 39.84375 58.546875 37.703125 60.890625 
Q 34.125 64.65625 28.90625 64.65625 
Q 24.703125 64.65625 21.53125 62.3125 
Q 17.390625 59.28125 14.984375 53.46875 
Q 12.59375 47.65625 12.5 36.921875 
Q 15.671875 41.75 20.265625 44.09375 
Q 24.859375 46.4375 29.890625 46.4375 
Q 38.671875 46.4375 44.84375 39.96875 
Q 51.03125 33.5 51.03125 23.25 
Q 51.03125 16.5 48.125 10.71875 
Q 45.21875 4.9375 40.140625 1.859375 
Q 35.0625 -1.21875 28.609375 -1.21875 
Q 17.625 -1.21875 10.6875 6.859375 
Q 3.765625 14.9375 3.765625 33.5 
Q 3.765625 54.25 11.421875 63.671875 
Q 18.109375 71.875 29.4375 71.875 
Q 37.890625 71.875 43.28125 67.140625 
Q 48.6875 62.40625 49.75 54.046875 
z
M 13.875 23.1875 
Q 13.875 18.65625 15.796875 14.5 
Q 17.71875 10.359375 21.1875 8.171875 
Q 24.65625 6 28.46875 6 
Q 34.03125 6 38.03125 10.484375 
Q 42.046875 14.984375 42.046875 22.703125 
Q 42.046875 30.125 38.078125 34.390625 
Q 34.125 38.671875 28.125 38.671875 
Q 22.171875 38.671875 18.015625 34.390625 
Q 13.875 30.125 13.875 23.1875 
z
" id="ArialMT-54"/>
     <path d="M 17.671875 38.8125 
Q 12.203125 40.828125 9.5625 44.53125 
Q 6.9375 48.25 6.9375 53.421875 
Q 6.9375 61.234375 12.546875 66.546875 
Q 18.171875 71.875 27.484375 71.875 
Q 36.859375 71.875 42.578125 66.421875 
Q 48.296875 60.984375 48.296875 53.171875 
Q 48.296875 48.1875 45.671875 44.5 
Q 43.0625 40.828125 37.75 38.8125 
Q 44.34375 36.671875 47.78125 31.875 
Q 51.21875 27.09375 51.21875 20.453125 
Q 51.21875 11.28125 44.71875 5.03125 
Q 38.234375 -1.21875 27.640625 -1.21875 
Q 17.046875 -1.21875 10.546875 5.046875 
Q 4.046875 11.328125 4.046875 20.703125 
Q 4.046875 27.6875 7.59375 32.390625 
Q 11.140625 37.109375 17.671875 38.8125 
z
M 15.921875 53.71875 
Q 15.921875 48.640625 19.1875 45.40625 
Q 22.46875 42.1875 27.6875 42.1875 
Q 32.765625 42.1875 36.015625 45.375 
Q 39.265625 48.578125 39.265625 53.21875 
Q 39.265625 58.0625 35.90625 61.359375 
Q 32.5625 64.65625 27.59375 64.65625 
Q 22.5625 64.65625 19.234375 61.421875 
Q 15.921875 58.203125 15.921875 53.71875 
z
M 13.09375 20.65625 
Q 13.09375 16.890625 14.875 13.375 
Q 16.65625 9.859375 20.171875 7.921875 
Q 23.6875 6 27.734375 6 
Q 34.03125 6 38.125 10.046875 
Q 42.234375 14.109375 42.234375 20.359375 
Q 42.234375 26.703125 38.015625 30.859375 
Q 33.796875 35.015625 27.4375 35.015625 
Q 21.234375 35.015625 17.15625 30.90625 
Q 13.09375 26.8125 13.09375 20.65625 
z
" id="ArialMT-56"/>
    </defs>
    <g style="fill:#262626;" transform="translate(365.314461 15.6)scale(0.12 -0.12)">
     <use xlink:href="#ArialMT-49"/>
     <use x="55.615234" xlink:href="#ArialMT-54"/>
     <use x="111.230469" xlink:href="#ArialMT-56"/>
     <use x="166.845703" xlink:href="#ArialMT-58"/>
     <use x="194.628906" xlink:href="#ArialMT-49"/>
    </g>
   </g>
  </g>
  <g id="axes_3">
   <g id="patch_25">
    <path d="M 481.344828 157.5 
L 625.655172 157.5 
L 625.655172 21.6 
L 481.344828 21.6 
z
" style="fill:#ffffff;"/>
   </g>
   <g id="patch_26">
    <path clip-path="url(#p053b94db9e)" d="M 533.821317 102.133333 
L 520.702194 102.133333 
" style="stroke:#000000;stroke-linejoin:miter;stroke-width:0.5;"/>
   </g>
   <g id="patch_27">
    <path clip-path="url(#p053b94db9e)" d="M 546.940439 102.133333 
L 533.821317 102.133333 
" style="stroke:#000000;stroke-linejoin:miter;stroke-width:0.5;"/>
   </g>
   <g id="patch_28">
    <path clip-path="url(#p053b94db9e)" d="M 560.059561 89.55 
L 546.940439 102.133333 
" style="stroke:#000000;stroke-linejoin:miter;stroke-width:0.5;"/>
   </g>
   <g id="patch_29">
    <path clip-path="url(#p053b94db9e)" d="M 560.059561 89.55 
L 546.940439 76.966667 
" style="stroke:#000000;stroke-linejoin:miter;stroke-width:0.5;"/>
   </g>
   <g id="patch_30">
    <path clip-path="url(#p053b94db9e)" d="M 573.178683 89.55 
L 560.059561 89.55 
" style="stroke:#000000;stroke-linejoin:miter;stroke-width:0.5;"/>
   </g>
   <g id="patch_31">
    <path clip-path="url(#p053b94db9e)" d="M 586.297806 89.55 
L 573.178683 89.55 
" style="stroke:#000000;stroke-linejoin:miter;stroke-width:0.5;"/>
   </g>
   <g id="patch_32">
    <path clip-path="url(#p053b94db9e)" d="M 586.297806 89.55 
L 586.297806 76.966667 
" style="stroke:#000000;stroke-linejoin:miter;stroke-width:0.5;"/>
   </g>
   <g id="3abd98660f1943f4a8c6b78e9321ad03-1-node">
    <path clip-path="url(#p053b94db9e)" d="M 588.396865 85.523333 
L 588.396865 93.576667 
L 584.198746 93.576667 
L 584.198746 85.523333 
L 588.396865 85.523333 
z
" style="fill:#0000ff;stroke:#ffffff;stroke-linejoin:miter;stroke-width:0.5;"/>
   </g>
   <g id="3abd98660f1943f4a8c6b78e9321ad03-4-node">
    <path clip-path="url(#p053b94db9e)" d="M 575.277743 85.523333 
L 575.277743 93.576667 
L 571.079624 93.576667 
L 571.079624 85.523333 
L 575.277743 85.523333 
z
" style="fill:#0000ff;stroke:#ffffff;stroke-linejoin:miter;stroke-width:0.5;"/>
   </g>
   <g id="3abd98660f1943f4a8c6b78e9321ad03-6-node">
    <path clip-path="url(#p053b94db9e)" d="M 560.059561 93.576667 
C 560.616238 93.576667 561.15019 93.152392 561.54382 92.397283 
C 561.937451 91.642175 562.158621 90.617884 562.158621 89.55 
C 562.158621 88.482116 561.937451 87.457825 561.54382 86.702717 
C 561.15019 85.947608 560.616238 85.523333 560.059561 85.523333 
C 559.502884 85.523333 558.968932 85.947608 558.575302 86.702717 
C 558.181672 87.457825 557.960502 88.482116 557.960502 89.55 
C 557.960502 90.617884 558.181672 91.642175 558.575302 92.397283 
C 558.968932 93.152392 559.502884 93.576667 560.059561 93.576667 
z
" style="fill:#00c832;stroke:#ffffff;stroke-linejoin:miter;stroke-width:0.5;"/>
   </g>
   <g id="3abd98660f1943f4a8c6b78e9321ad03-8-node">
    <path clip-path="url(#p053b94db9e)" d="M 546.940439 106.16 
C 547.497116 106.16 548.031068 105.735725 548.424698 104.980617 
C 548.818328 104.225508 549.039498 103.201218 549.039498 102.133333 
C 549.039498 101.065449 548.818328 100.041158 548.424698 99.28605 
C 548.031068 98.530942 547.497116 98.106667 546.940439 98.106667 
C 546.383762 98.106667 545.84981 98.530942 545.45618 99.28605 
C 545.062549 100.041158 544.841379 101.065449 544.841379 102.133333 
C 544.841379 103.201218 545.062549 104.225508 545.45618 104.980617 
C 545.84981 105.735725 546.383762 106.16 546.940439 106.16 
z
" style="fill:#00c832;stroke:#ffffff;stroke-linejoin:miter;stroke-width:0.5;"/>
   </g>
   <g id="3abd98660f1943f4a8c6b78e9321ad03-9-node">
    <path clip-path="url(#p053b94db9e)" d="M 535.920376 98.106667 
L 535.920376 106.16 
L 531.722257 106.16 
L 531.722257 98.106667 
L 535.920376 98.106667 
z
" style="fill:#0000ff;stroke:#ffffff;stroke-linejoin:miter;stroke-width:0.5;"/>
   </g>
   <g id="3abd98660f1943f4a8c6b78e9321ad03-11-node">
    <path clip-path="url(#p053b94db9e)" d="M 520.702194 106.16 
C 521.258871 106.16 521.792823 105.735725 522.186454 104.980617 
C 522.580084 104.225508 522.801254 103.201218 522.801254 102.133333 
C 522.801254 101.065449 522.580084 100.041158 522.186454 99.28605 
C 521.792823 98.530942 521.258871 98.106667 520.702194 98.106667 
C 520.145517 98.106667 519.611565 98.530942 519.217935 99.28605 
C 518.824305 100.041158 518.603135 101.065449 518.603135 102.133333 
C 518.603135 103.201218 518.824305 104.225508 519.217935 104.980617 
C 519.611565 105.735725 520.145517 106.16 520.702194 106.16 
z
" style="fill:#ffff00;stroke:#ffffff;stroke-linejoin:miter;stroke-width:0.5;"/>
   </g>
   <g id="3abd98660f1943f4a8c6b78e9321ad03-7-node">
    <path clip-path="url(#p053b94db9e)" d="M 546.940439 80.993333 
C 547.497116 80.993333 548.031068 80.569058 548.424698 79.81395 
C 548.818328 79.058842 549.039498 78.034551 549.039498 76.966667 
C 549.039498 75.898782 548.818328 74.874492 548.424698 74.119383 
C 548.031068 73.364275 547.497116 72.94 546.940439 72.94 
C 546.383762 72.94 545.84981 73.364275 545.45618 74.119383 
C 545.062549 74.874492 544.841379 75.898782 544.841379 76.966667 
C 544.841379 78.034551 545.062549 79.058842 545.45618 79.81395 
C 545.84981 80.569058 546.383762 80.993333 546.940439 80.993333 
z
" style="fill:#00c832;stroke:#ffffff;stroke-linejoin:miter;stroke-width:0.5;"/>
   </g>
   <g id="3abd98660f1943f4a8c6b78e9321ad03-3-node">
    <path clip-path="url(#p053b94db9e)" d="M 586.297806 72.94 
L 584.479967 78.98 
L 588.115645 78.98 
z
" style="fill:#ff0000;stroke:#ffffff;stroke-linejoin:miter;stroke-width:0.5;"/>
   </g>
   <g id="patch_33">
    <path d="M 481.344828 157.5 
L 481.344828 21.6 
" style="fill:none;stroke:#ffffff;stroke-linecap:square;stroke-linejoin:miter;stroke-width:1.25;"/>
   </g>
   <g id="patch_34">
    <path d="M 625.655172 157.5 
L 625.655172 21.6 
" style="fill:none;stroke:#ffffff;stroke-linecap:square;stroke-linejoin:miter;stroke-width:1.25;"/>
   </g>
   <g id="patch_35">
    <path d="M 481.344828 157.5 
L 625.655172 157.5 
" style="fill:none;stroke:#ffffff;stroke-linecap:square;stroke-linejoin:miter;stroke-width:1.25;"/>
   </g>
   <g id="patch_36">
    <path d="M 481.344828 21.6 
L 625.655172 21.6 
" style="fill:none;stroke:#ffffff;stroke-linecap:square;stroke-linejoin:miter;stroke-width:1.25;"/>
   </g>
   <g id="text_3">
    <!-- 167:1 -->
    <defs>
     <path d="M 4.734375 62.203125 
L 4.734375 70.65625 
L 51.078125 70.65625 
L 51.078125 63.8125 
Q 44.234375 56.546875 37.515625 44.484375 
Q 30.8125 32.421875 27.15625 19.671875 
Q 24.515625 10.6875 23.78125 0 
L 14.75 0 
Q 14.890625 8.453125 18.0625 20.40625 
Q 21.234375 32.375 27.171875 43.484375 
Q 33.109375 54.59375 39.796875 62.203125 
z
" id="ArialMT-55"/>
    </defs>
    <g style="fill:#262626;" transform="translate(538.486875 15.6)scale(0.12 -0.12)">
     <use xlink:href="#ArialMT-49"/>
     <use x="55.615234" xlink:href="#ArialMT-54"/>
     <use x="111.230469" xlink:href="#ArialMT-55"/>
     <use x="166.845703" xlink:href="#ArialMT-58"/>
     <use x="194.628906" xlink:href="#ArialMT-49"/>
    </g>
   </g>
  </g>
  <g id="axes_4">
   <g id="patch_37">
    <path d="M 654.517241 157.5 
L 798.827586 157.5 
L 798.827586 21.6 
L 654.517241 21.6 
z
" style="fill:#ffffff;"/>
   </g>
   <g id="patch_38">
    <path clip-path="url(#p85fce36cfa)" d="M 706.99373 102.133333 
L 693.874608 102.133333 
" style="stroke:#000000;stroke-linejoin:miter;stroke-width:0.5;"/>
   </g>
   <g id="patch_39">
    <path clip-path="url(#p85fce36cfa)" d="M 720.112853 102.133333 
L 706.99373 102.133333 
" style="stroke:#000000;stroke-linejoin:miter;stroke-width:0.5;"/>
   </g>
   <g id="patch_40">
    <path clip-path="url(#p85fce36cfa)" d="M 733.231975 89.55 
L 720.112853 102.133333 
" style="stroke:#000000;stroke-linejoin:miter;stroke-width:0.5;"/>
   </g>
   <g id="patch_41">
    <path clip-path="url(#p85fce36cfa)" d="M 720.112853 76.966667 
L 706.99373 76.966667 
" style="stroke:#000000;stroke-linejoin:miter;stroke-width:0.5;"/>
   </g>
   <g id="patch_42">
    <path clip-path="url(#p85fce36cfa)" d="M 733.231975 89.55 
L 720.112853 76.966667 
" style="stroke:#000000;stroke-linejoin:miter;stroke-width:0.5;"/>
   </g>
   <g id="patch_43">
    <path clip-path="url(#p85fce36cfa)" d="M 746.351097 89.55 
L 733.231975 89.55 
" style="stroke:#000000;stroke-linejoin:miter;stroke-width:0.5;"/>
   </g>
   <g id="patch_44">
    <path clip-path="url(#p85fce36cfa)" d="M 759.470219 89.55 
L 746.351097 89.55 
" style="stroke:#000000;stroke-linejoin:miter;stroke-width:0.5;"/>
   </g>
   <g id="patch_45">
    <path clip-path="url(#p85fce36cfa)" d="M 759.470219 89.55 
L 759.470219 76.966667 
" style="stroke:#000000;stroke-linejoin:miter;stroke-width:0.5;"/>
   </g>
   <g id="13bdf7b3642f40d3844db60ff73dab2a-1-node">
    <path clip-path="url(#p85fce36cfa)" d="M 761.569279 85.523333 
L 761.569279 93.576667 
L 757.37116 93.576667 
L 757.37116 85.523333 
L 761.569279 85.523333 
z
" style="fill:#0000ff;stroke:#ffffff;stroke-linejoin:miter;stroke-width:0.5;"/>
   </g>
   <g id="13bdf7b3642f40d3844db60ff73dab2a-4-node">
    <path clip-path="url(#p85fce36cfa)" d="M 748.450157 85.523333 
L 748.450157 93.576667 
L 744.252038 93.576667 
L 744.252038 85.523333 
L 748.450157 85.523333 
z
" style="fill:#0000ff;stroke:#ffffff;stroke-linejoin:miter;stroke-width:0.5;"/>
   </g>
   <g id="13bdf7b3642f40d3844db60ff73dab2a-6-node">
    <path clip-path="url(#p85fce36cfa)" d="M 733.231975 93.576667 
C 733.788652 93.576667 734.322604 93.152392 734.716234 92.397283 
C 735.109864 91.642175 735.331034 90.617884 735.331034 89.55 
C 735.331034 88.482116 735.109864 87.457825 734.716234 86.702717 
C 734.322604 85.947608 733.788652 85.523333 733.231975 85.523333 
C 732.675298 85.523333 732.141346 85.947608 731.747716 86.702717 
C 731.354086 87.457825 731.132915 88.482116 731.132915 89.55 
C 731.132915 90.617884 731.354086 91.642175 731.747716 92.397283 
C 732.141346 93.152392 732.675298 93.576667 733.231975 93.576667 
z
" style="fill:#00c832;stroke:#ffffff;stroke-linejoin:miter;stroke-width:0.5;"/>
   </g>
   <g id="13bdf7b3642f40d3844db60ff73dab2a-10-node">
    <path clip-path="url(#p85fce36cfa)" d="M 720.112853 106.16 
C 720.66953 106.16 721.203482 105.735725 721.597112 104.980617 
C 721.990742 104.225508 722.211912 103.201218 722.211912 102.133333 
C 722.211912 101.065449 721.990742 100.041158 721.597112 99.28605 
C 721.203482 98.530942 720.66953 98.106667 720.112853 98.106667 
C 719.556176 98.106667 719.022224 98.530942 718.628593 99.28605 
C 718.234963 100.041158 718.013793 101.065449 718.013793 102.133333 
C 718.013793 103.201218 718.234963 104.225508 718.628593 104.980617 
C 719.022224 105.735725 719.556176 106.16 720.112853 106.16 
z
" style="fill:#00c832;stroke:#ffffff;stroke-linejoin:miter;stroke-width:0.5;"/>
   </g>
   <g id="13bdf7b3642f40d3844db60ff73dab2a-11-node">
    <path clip-path="url(#p85fce36cfa)" d="M 709.09279 98.106667 
L 709.09279 106.16 
L 704.894671 106.16 
L 704.894671 98.106667 
L 709.09279 98.106667 
z
" style="fill:#0000ff;stroke:#ffffff;stroke-linejoin:miter;stroke-width:0.5;"/>
   </g>
   <g id="13bdf7b3642f40d3844db60ff73dab2a-13-node">
    <path clip-path="url(#p85fce36cfa)" d="M 693.874608 106.16 
C 694.431285 106.16 694.965237 105.735725 695.358867 104.980617 
C 695.752498 104.225508 695.973668 103.201218 695.973668 102.133333 
C 695.973668 101.065449 695.752498 100.041158 695.358867 99.28605 
C 694.965237 98.530942 694.431285 98.106667 693.874608 98.106667 
C 693.317931 98.106667 692.783979 98.530942 692.390349 99.28605 
C 691.996719 100.041158 691.775549 101.065449 691.775549 102.133333 
C 691.775549 103.201218 691.996719 104.225508 692.390349 104.980617 
C 692.783979 105.735725 693.317931 106.16 693.874608 106.16 
z
" style="fill:#ffff00;stroke:#ffffff;stroke-linejoin:miter;stroke-width:0.5;"/>
   </g>
   <g id="13bdf7b3642f40d3844db60ff73dab2a-7-node">
    <path clip-path="url(#p85fce36cfa)" d="M 720.112853 80.993333 
C 720.66953 80.993333 721.203482 80.569058 721.597112 79.81395 
C 721.990742 79.058842 722.211912 78.034551 722.211912 76.966667 
C 722.211912 75.898782 721.990742 74.874492 721.597112 74.119383 
C 721.203482 73.364275 720.66953 72.94 720.112853 72.94 
C 719.556176 72.94 719.022224 73.364275 718.628593 74.119383 
C 718.234963 74.874492 718.013793 75.898782 718.013793 76.966667 
C 718.013793 78.034551 718.234963 79.058842 718.628593 79.81395 
C 719.022224 80.569058 719.556176 80.993333 720.112853 80.993333 
z
" style="fill:#00c832;stroke:#ffffff;stroke-linejoin:miter;stroke-width:0.5;"/>
   </g>
   <g id="13bdf7b3642f40d3844db60ff73dab2a-8-node">
    <path clip-path="url(#p85fce36cfa)" d="M 709.09279 72.94 
L 709.09279 80.993333 
L 704.894671 80.993333 
L 704.894671 72.94 
L 709.09279 72.94 
z
" style="fill:#0000ff;stroke:#ffffff;stroke-linejoin:miter;stroke-width:0.5;"/>
   </g>
   <g id="13bdf7b3642f40d3844db60ff73dab2a-3-node">
    <path clip-path="url(#p85fce36cfa)" d="M 759.470219 72.94 
L 757.652381 78.98 
L 761.288058 78.98 
z
" style="fill:#ff0000;stroke:#ffffff;stroke-linejoin:miter;stroke-width:0.5;"/>
   </g>
   <g id="patch_46">
    <path d="M 654.517241 157.5 
L 654.517241 21.6 
" style="fill:none;stroke:#ffffff;stroke-linecap:square;stroke-linejoin:miter;stroke-width:1.25;"/>
   </g>
   <g id="patch_47">
    <path d="M 798.827586 157.5 
L 798.827586 21.6 
" style="fill:none;stroke:#ffffff;stroke-linecap:square;stroke-linejoin:miter;stroke-width:1.25;"/>
   </g>
   <g id="patch_48">
    <path d="M 654.517241 157.5 
L 798.827586 157.5 
" style="fill:none;stroke:#ffffff;stroke-linecap:square;stroke-linejoin:miter;stroke-width:1.25;"/>
   </g>
   <g id="patch_49">
    <path d="M 654.517241 21.6 
L 798.827586 21.6 
" style="fill:none;stroke:#ffffff;stroke-linecap:square;stroke-linejoin:miter;stroke-width:1.25;"/>
   </g>
   <g id="text_4">
    <!-- 232:1 -->
    <defs>
     <path d="M 4.203125 18.890625 
L 12.984375 20.0625 
Q 14.5 12.59375 18.140625 9.296875 
Q 21.78125 6 27 6 
Q 33.203125 6 37.46875 10.296875 
Q 41.75 14.59375 41.75 20.953125 
Q 41.75 27 37.796875 30.921875 
Q 33.84375 34.859375 27.734375 34.859375 
Q 25.25 34.859375 21.53125 33.890625 
L 22.515625 41.609375 
Q 23.390625 41.5 23.921875 41.5 
Q 29.546875 41.5 34.03125 44.421875 
Q 38.53125 47.359375 38.53125 53.46875 
Q 38.53125 58.296875 35.25 61.46875 
Q 31.984375 64.65625 26.8125 64.65625 
Q 21.6875 64.65625 18.265625 61.421875 
Q 14.84375 58.203125 13.875 51.765625 
L 5.078125 53.328125 
Q 6.6875 62.15625 12.390625 67.015625 
Q 18.109375 71.875 26.609375 71.875 
Q 32.46875 71.875 37.390625 69.359375 
Q 42.328125 66.84375 44.9375 62.5 
Q 47.5625 58.15625 47.5625 53.265625 
Q 47.5625 48.640625 45.0625 44.828125 
Q 42.578125 41.015625 37.703125 38.765625 
Q 44.046875 37.3125 47.5625 32.6875 
Q 51.078125 28.078125 51.078125 21.140625 
Q 51.078125 11.765625 44.234375 5.25 
Q 37.40625 -1.265625 26.953125 -1.265625 
Q 17.53125 -1.265625 11.296875 4.34375 
Q 5.078125 9.96875 4.203125 18.890625 
z
" id="ArialMT-51"/>
    </defs>
    <g style="fill:#262626;" transform="translate(711.659289 15.6)scale(0.12 -0.12)">
     <use xlink:href="#ArialMT-50"/>
     <use x="55.615234" xlink:href="#ArialMT-51"/>
     <use x="111.230469" xlink:href="#ArialMT-50"/>
     <use x="166.845703" xlink:href="#ArialMT-58"/>
     <use x="194.628906" xlink:href="#ArialMT-49"/>
    </g>
   </g>
  </g>
  <g id="axes_5">
   <g id="patch_50">
    <path d="M 827.689655 157.5 
L 972 157.5 
L 972 21.6 
L 827.689655 21.6 
z
" style="fill:#ffffff;"/>
   </g>
   <g id="patch_51">
    <path clip-path="url(#pf98b9bb475)" d="M 880.166144 102.133333 
L 867.047022 102.133333 
" style="stroke:#000000;stroke-linejoin:miter;stroke-width:0.5;"/>
   </g>
   <g id="patch_52">
    <path clip-path="url(#pf98b9bb475)" d="M 893.285266 102.133333 
L 880.166144 102.133333 
" style="stroke:#000000;stroke-linejoin:miter;stroke-width:0.5;"/>
   </g>
   <g id="patch_53">
    <path clip-path="url(#pf98b9bb475)" d="M 906.404389 89.55 
L 893.285266 102.133333 
" style="stroke:#000000;stroke-linejoin:miter;stroke-width:0.5;"/>
   </g>
   <g id="patch_54">
    <path clip-path="url(#pf98b9bb475)" d="M 880.166144 76.966667 
L 867.047022 76.966667 
" style="stroke:#000000;stroke-linejoin:miter;stroke-width:0.5;"/>
   </g>
   <g id="patch_55">
    <path clip-path="url(#pf98b9bb475)" d="M 893.285266 76.966667 
L 880.166144 76.966667 
" style="stroke:#000000;stroke-linejoin:miter;stroke-width:0.5;"/>
   </g>
   <g id="patch_56">
    <path clip-path="url(#pf98b9bb475)" d="M 906.404389 89.55 
L 893.285266 76.966667 
" style="stroke:#000000;stroke-linejoin:miter;stroke-width:0.5;"/>
   </g>
   <g id="patch_57">
    <path clip-path="url(#pf98b9bb475)" d="M 919.523511 89.55 
L 906.404389 89.55 
" style="stroke:#000000;stroke-linejoin:miter;stroke-width:0.5;"/>
   </g>
   <g id="patch_58">
    <path clip-path="url(#pf98b9bb475)" d="M 932.642633 89.55 
L 919.523511 89.55 
" style="stroke:#000000;stroke-linejoin:miter;stroke-width:0.5;"/>
   </g>
   <g id="patch_59">
    <path clip-path="url(#pf98b9bb475)" d="M 932.642633 89.55 
L 932.642633 76.966667 
" style="stroke:#000000;stroke-linejoin:miter;stroke-width:0.5;"/>
   </g>
   <g id="d481aed9470f4284a3eb75d43e06f982-1-node">
    <path clip-path="url(#pf98b9bb475)" d="M 934.741693 85.523333 
L 934.741693 93.576667 
L 930.543574 93.576667 
L 930.543574 85.523333 
L 934.741693 85.523333 
z
" style="fill:#0000ff;stroke:#ffffff;stroke-linejoin:miter;stroke-width:0.5;"/>
   </g>
   <g id="d481aed9470f4284a3eb75d43e06f982-4-node">
    <path clip-path="url(#pf98b9bb475)" d="M 921.622571 85.523333 
L 921.622571 93.576667 
L 917.424451 93.576667 
L 917.424451 85.523333 
L 921.622571 85.523333 
z
" style="fill:#0000ff;stroke:#ffffff;stroke-linejoin:miter;stroke-width:0.5;"/>
   </g>
   <g id="d481aed9470f4284a3eb75d43e06f982-6-node">
    <path clip-path="url(#pf98b9bb475)" d="M 906.404389 93.576667 
C 906.961066 93.576667 907.495018 93.152392 907.888648 92.397283 
C 908.282278 91.642175 908.503448 90.617884 908.503448 89.55 
C 908.503448 88.482116 908.282278 87.457825 907.888648 86.702717 
C 907.495018 85.947608 906.961066 85.523333 906.404389 85.523333 
C 905.847712 85.523333 905.31376 85.947608 904.920129 86.702717 
C 904.526499 87.457825 904.305329 88.482116 904.305329 89.55 
C 904.305329 90.617884 904.526499 91.642175 904.920129 92.397283 
C 905.31376 93.152392 905.847712 93.576667 906.404389 93.576667 
z
" style="fill:#00c832;stroke:#ffffff;stroke-linejoin:miter;stroke-width:0.5;"/>
   </g>
   <g id="d481aed9470f4284a3eb75d43e06f982-11-node">
    <path clip-path="url(#pf98b9bb475)" d="M 893.285266 106.16 
C 893.841944 106.16 894.375896 105.735725 894.769526 104.980617 
C 895.163156 104.225508 895.384326 103.201218 895.384326 102.133333 
C 895.384326 101.065449 895.163156 100.041158 894.769526 99.28605 
C 894.375896 98.530942 893.841944 98.106667 893.285266 98.106667 
C 892.728589 98.106667 892.194637 98.530942 891.801007 99.28605 
C 891.407377 100.041158 891.186207 101.065449 891.186207 102.133333 
C 891.186207 103.201218 891.407377 104.225508 891.801007 104.980617 
C 892.194637 105.735725 892.728589 106.16 893.285266 106.16 
z
" style="fill:#00c832;stroke:#ffffff;stroke-linejoin:miter;stroke-width:0.5;"/>
   </g>
   <g id="d481aed9470f4284a3eb75d43e06f982-12-node">
    <path clip-path="url(#pf98b9bb475)" d="M 882.265204 98.106667 
L 882.265204 106.16 
L 878.067085 106.16 
L 878.067085 98.106667 
L 882.265204 98.106667 
z
" style="fill:#0000ff;stroke:#ffffff;stroke-linejoin:miter;stroke-width:0.5;"/>
   </g>
   <g id="d481aed9470f4284a3eb75d43e06f982-14-node">
    <path clip-path="url(#pf98b9bb475)" d="M 867.047022 106.16 
C 867.603699 106.16 868.137651 105.735725 868.531281 104.980617 
C 868.924911 104.225508 869.146082 103.201218 869.146082 102.133333 
C 869.146082 101.065449 868.924911 100.041158 868.531281 99.28605 
C 868.137651 98.530942 867.603699 98.106667 867.047022 98.106667 
C 866.490345 98.106667 865.956393 98.530942 865.562763 99.28605 
C 865.169133 100.041158 864.947962 101.065449 864.947962 102.133333 
C 864.947962 103.201218 865.169133 104.225508 865.562763 104.980617 
C 865.956393 105.735725 866.490345 106.16 867.047022 106.16 
z
" style="fill:#ffff00;stroke:#ffffff;stroke-linejoin:miter;stroke-width:0.5;"/>
   </g>
   <g id="d481aed9470f4284a3eb75d43e06f982-7-node">
    <path clip-path="url(#pf98b9bb475)" d="M 893.285266 80.993333 
C 893.841944 80.993333 894.375896 80.569058 894.769526 79.81395 
C 895.163156 79.058842 895.384326 78.034551 895.384326 76.966667 
C 895.384326 75.898782 895.163156 74.874492 894.769526 74.119383 
C 894.375896 73.364275 893.841944 72.94 893.285266 72.94 
C 892.728589 72.94 892.194637 73.364275 891.801007 74.119383 
C 891.407377 74.874492 891.186207 75.898782 891.186207 76.966667 
C 891.186207 78.034551 891.407377 79.058842 891.801007 79.81395 
C 892.194637 80.569058 892.728589 80.993333 893.285266 80.993333 
z
" style="fill:#00c832;stroke:#ffffff;stroke-linejoin:miter;stroke-width:0.5;"/>
   </g>
   <g id="d481aed9470f4284a3eb75d43e06f982-8-node">
    <path clip-path="url(#pf98b9bb475)" d="M 882.265204 72.94 
L 882.265204 80.993333 
L 878.067085 80.993333 
L 878.067085 72.94 
L 882.265204 72.94 
z
" style="fill:#0000ff;stroke:#ffffff;stroke-linejoin:miter;stroke-width:0.5;"/>
   </g>
   <g id="d481aed9470f4284a3eb75d43e06f982-10-node">
    <path clip-path="url(#pf98b9bb475)" d="M 867.047022 80.993333 
C 867.603699 80.993333 868.137651 80.569058 868.531281 79.81395 
C 868.924911 79.058842 869.146082 78.034551 869.146082 76.966667 
C 869.146082 75.898782 868.924911 74.874492 868.531281 74.119383 
C 868.137651 73.364275 867.603699 72.94 867.047022 72.94 
C 866.490345 72.94 865.956393 73.364275 865.562763 74.119383 
C 865.169133 74.874492 864.947962 75.898782 864.947962 76.966667 
C 864.947962 78.034551 865.169133 79.058842 865.562763 79.81395 
C 865.956393 80.569058 866.490345 80.993333 867.047022 80.993333 
z
" style="fill:#ffff00;stroke:#ffffff;stroke-linejoin:miter;stroke-width:0.5;"/>
   </g>
   <g id="d481aed9470f4284a3eb75d43e06f982-3-node">
    <path clip-path="url(#pf98b9bb475)" d="M 932.642633 72.94 
L 930.824794 78.98 
L 934.460472 78.98 
z
" style="fill:#ff0000;stroke:#ffffff;stroke-linejoin:miter;stroke-width:0.5;"/>
   </g>
   <g id="patch_60">
    <path d="M 827.689655 157.5 
L 827.689655 21.6 
" style="fill:none;stroke:#ffffff;stroke-linecap:square;stroke-linejoin:miter;stroke-width:1.25;"/>
   </g>
   <g id="patch_61">
    <path d="M 972 157.5 
L 972 21.6 
" style="fill:none;stroke:#ffffff;stroke-linecap:square;stroke-linejoin:miter;stroke-width:1.25;"/>
   </g>
   <g id="patch_62">
    <path d="M 827.689655 157.5 
L 972 157.5 
" style="fill:none;stroke:#ffffff;stroke-linecap:square;stroke-linejoin:miter;stroke-width:1.25;"/>
   </g>
   <g id="patch_63">
    <path d="M 827.689655 21.6 
L 972 21.6 
" style="fill:none;stroke:#ffffff;stroke-linecap:square;stroke-linejoin:miter;stroke-width:1.25;"/>
   </g>
   <g id="text_5">
    <!-- 316:1 -->
    <g style="fill:#262626;" transform="translate(884.831703 15.6)scale(0.12 -0.12)">
     <use xlink:href="#ArialMT-51"/>
     <use x="55.615234" xlink:href="#ArialMT-49"/>
     <use x="111.230469" xlink:href="#ArialMT-54"/>
     <use x="166.845703" xlink:href="#ArialMT-58"/>
     <use x="194.628906" xlink:href="#ArialMT-49"/>
    </g>
   </g>
  </g>
 </g>
 <defs>
  <clipPath id="pb5d0492576">
   <rect height="135.9" width="144.310345" x="135" y="21.6"/>
  </clipPath>
  <clipPath id="p7c0596936b">
   <rect height="135.9" width="144.310345" x="308.172414" y="21.6"/>
  </clipPath>
  <clipPath id="p053b94db9e">
   <rect height="135.9" width="144.310345" x="481.344828" y="21.6"/>
  </clipPath>
  <clipPath id="p85fce36cfa">
   <rect height="135.9" width="144.310345" x="654.517241" y="21.6"/>
  </clipPath>
  <clipPath id="pf98b9bb475">
   <rect height="135.9" width="144.310345" x="827.689655" y="21.6"/>
  </clipPath>
 </defs>
</svg>
