<?xml version="1.0" encoding="utf-8" standalone="no"?>
<!DOCTYPE svg PUBLIC "-//W3C//DTD SVG 1.1//EN"
  "http://www.w3.org/Graphics/SVG/1.1/DTD/svg11.dtd">
<!-- Created with matplotlib (https://matplotlib.org/) -->
<svg height="180pt" version="1.1" viewBox="0 0 1080 180" width="1080pt" xmlns="http://www.w3.org/2000/svg" xmlns:xlink="http://www.w3.org/1999/xlink">
 <defs>
  <style type="text/css">
*{stroke-linecap:butt;stroke-linejoin:round;}
  </style>
 </defs>
 <g id="figure_1">
  <g id="patch_1">
   <path d="M 0 180 
L 1080 180 
L 1080 0 
L 0 0 
z
" style="fill:#ffffff;"/>
  </g>
  <g id="axes_1">
   <g id="patch_2">
    <path d="M 135 157.5 
L 279.310345 157.5 
L 279.310345 21.6 
L 135 21.6 
z
" style="fill:#ffffff;"/>
   </g>
   <g id="patch_3">
    <path clip-path="url(#p0c054254b6)" d="M 180.636605 104.205882 
L 168.302387 104.205882 
" style="stroke:#000000;stroke-linejoin:miter;stroke-width:0.5;"/>
   </g>
   <g id="patch_4">
    <path clip-path="url(#p0c054254b6)" d="M 192.970822 104.205882 
L 180.636605 104.205882 
" style="stroke:#000000;stroke-linejoin:miter;stroke-width:0.5;"/>
   </g>
   <g id="patch_5">
    <path clip-path="url(#p0c054254b6)" d="M 205.30504 104.205882 
L 192.970822 104.205882 
" style="stroke:#000000;stroke-linejoin:miter;stroke-width:0.5;"/>
   </g>
   <g id="patch_6">
    <path clip-path="url(#p0c054254b6)" d="M 217.639257 104.205882 
L 205.30504 104.205882 
" style="stroke:#000000;stroke-linejoin:miter;stroke-width:0.5;"/>
   </g>
   <g id="patch_7">
    <path clip-path="url(#p0c054254b6)" d="M 229.973475 90.882353 
L 217.639257 104.205882 
" style="stroke:#000000;stroke-linejoin:miter;stroke-width:0.5;"/>
   </g>
   <g id="patch_8">
    <path clip-path="url(#p0c054254b6)" d="M 180.636605 77.558824 
L 168.302387 77.558824 
" style="stroke:#000000;stroke-linejoin:miter;stroke-width:0.5;"/>
   </g>
   <g id="patch_9">
    <path clip-path="url(#p0c054254b6)" d="M 192.970822 77.558824 
L 180.636605 77.558824 
" style="stroke:#000000;stroke-linejoin:miter;stroke-width:0.5;"/>
   </g>
   <g id="patch_10">
    <path clip-path="url(#p0c054254b6)" d="M 205.30504 77.558824 
L 192.970822 77.558824 
" style="stroke:#000000;stroke-linejoin:miter;stroke-width:0.5;"/>
   </g>
   <g id="patch_11">
    <path clip-path="url(#p0c054254b6)" d="M 217.639257 77.558824 
L 205.30504 77.558824 
" style="stroke:#000000;stroke-linejoin:miter;stroke-width:0.5;"/>
   </g>
   <g id="patch_12">
    <path clip-path="url(#p0c054254b6)" d="M 229.973475 90.882353 
L 217.639257 77.558824 
" style="stroke:#000000;stroke-linejoin:miter;stroke-width:0.5;"/>
   </g>
   <g id="patch_13">
    <path clip-path="url(#p0c054254b6)" d="M 242.307692 90.882353 
L 229.973475 90.882353 
" style="stroke:#000000;stroke-linejoin:miter;stroke-width:0.5;"/>
   </g>
   <g id="patch_14">
    <path clip-path="url(#p0c054254b6)" d="M 254.64191 90.882353 
L 242.307692 90.882353 
" style="stroke:#000000;stroke-linejoin:miter;stroke-width:0.5;"/>
   </g>
   <g id="patch_15">
    <path clip-path="url(#p0c054254b6)" d="M 254.64191 90.882353 
L 254.64191 77.558824 
" style="stroke:#000000;stroke-linejoin:miter;stroke-width:0.5;"/>
   </g>
   <g id="bd098d90c9214a4da8e5c7cf279b0aa0-1-node">
    <path clip-path="url(#p0c054254b6)" d="M 256.738727 86.352353 
L 256.738727 95.412353 
L 252.545093 95.412353 
L 252.545093 86.352353 
L 256.738727 86.352353 
z
" style="fill:#0000ff;stroke:#ffffff;stroke-linejoin:miter;stroke-width:0.5;"/>
   </g>
   <g id="bd098d90c9214a4da8e5c7cf279b0aa0-4-node">
    <path clip-path="url(#p0c054254b6)" d="M 244.404509 86.352353 
L 244.404509 95.412353 
L 240.210875 95.412353 
L 240.210875 86.352353 
L 244.404509 86.352353 
z
" style="fill:#0000ff;stroke:#ffffff;stroke-linejoin:miter;stroke-width:0.5;"/>
   </g>
   <g id="bd098d90c9214a4da8e5c7cf279b0aa0-6-node">
    <path clip-path="url(#p0c054254b6)" d="M 229.973475 95.412353 
C 230.529557 95.412353 231.062939 94.935044 231.456148 94.085547 
C 231.849358 93.23605 232.070292 92.083723 232.070292 90.882353 
C 232.070292 89.680983 231.849358 88.528656 231.456148 87.679159 
C 231.062939 86.829662 230.529557 86.352353 229.973475 86.352353 
C 229.417392 86.352353 228.884011 86.829662 228.490801 87.679159 
C 228.097592 88.528656 227.876658 89.680983 227.876658 90.882353 
C 227.876658 92.083723 228.097592 93.23605 228.490801 94.085547 
C 228.884011 94.935044 229.417392 95.412353 229.973475 95.412353 
z
" style="fill:#00c832;stroke:#ffffff;stroke-linejoin:miter;stroke-width:0.5;"/>
   </g>
   <g id="bd098d90c9214a4da8e5c7cf279b0aa0-14-node">
    <path clip-path="url(#p0c054254b6)" d="M 217.639257 108.735882 
C 218.19534 108.735882 218.728721 108.258573 219.121931 107.409076 
C 219.51514 106.559579 219.736074 105.407252 219.736074 104.205882 
C 219.736074 103.004512 219.51514 101.852186 219.121931 101.002689 
C 218.728721 100.153192 218.19534 99.675882 217.639257 99.675882 
C 217.083175 99.675882 216.549793 100.153192 216.156584 101.002689 
C 215.763374 101.852186 215.54244 103.004512 215.54244 104.205882 
C 215.54244 105.407252 215.763374 106.559579 216.156584 107.409076 
C 216.549793 108.258573 217.083175 108.735882 217.639257 108.735882 
z
" style="fill:#00c832;stroke:#ffffff;stroke-linejoin:miter;stroke-width:0.5;"/>
   </g>
   <g id="bd098d90c9214a4da8e5c7cf279b0aa0-15-node">
    <path clip-path="url(#p0c054254b6)" d="M 207.401857 99.675882 
L 207.401857 108.735882 
L 203.208223 108.735882 
L 203.208223 99.675882 
L 207.401857 99.675882 
z
" style="fill:#0000ff;stroke:#ffffff;stroke-linejoin:miter;stroke-width:0.5;"/>
   </g>
   <g id="bd098d90c9214a4da8e5c7cf279b0aa0-17-node">
    <path clip-path="url(#p0c054254b6)" d="M 192.970822 108.735882 
C 193.526905 108.735882 194.060286 108.258573 194.453496 107.409076 
C 194.846705 106.559579 195.067639 105.407252 195.067639 104.205882 
C 195.067639 103.004512 194.846705 101.852186 194.453496 101.002689 
C 194.060286 100.153192 193.526905 99.675882 192.970822 99.675882 
C 192.41474 99.675882 191.881358 100.153192 191.488149 101.002689 
C 191.094939 101.852186 190.874005 103.004512 190.874005 104.205882 
C 190.874005 105.407252 191.094939 106.559579 191.488149 107.409076 
C 191.881358 108.258573 192.41474 108.735882 192.970822 108.735882 
z
" style="fill:#ffff00;stroke:#ffffff;stroke-linejoin:miter;stroke-width:0.5;"/>
   </g>
   <g id="bd098d90c9214a4da8e5c7cf279b0aa0-18-node">
    <path clip-path="url(#p0c054254b6)" d="M 182.733422 99.675882 
L 182.733422 108.735882 
L 178.539788 108.735882 
L 178.539788 99.675882 
L 182.733422 99.675882 
z
" style="fill:#0000ff;stroke:#ffffff;stroke-linejoin:miter;stroke-width:0.5;"/>
   </g>
   <g id="bd098d90c9214a4da8e5c7cf279b0aa0-20-node">
    <path clip-path="url(#p0c054254b6)" d="M 168.302387 108.735882 
C 168.85847 108.735882 169.391851 108.258573 169.785061 107.409076 
C 170.17827 106.559579 170.399204 105.407252 170.399204 104.205882 
C 170.399204 103.004512 170.17827 101.852186 169.785061 101.002689 
C 169.391851 100.153192 168.85847 99.675882 168.302387 99.675882 
C 167.746305 99.675882 167.212923 100.153192 166.819714 101.002689 
C 166.426504 101.852186 166.20557 103.004512 166.20557 104.205882 
C 166.20557 105.407252 166.426504 106.559579 166.819714 107.409076 
C 167.212923 108.258573 167.746305 108.735882 168.302387 108.735882 
z
" style="fill:#ffff00;stroke:#ffffff;stroke-linejoin:miter;stroke-width:0.5;"/>
   </g>
   <g id="bd098d90c9214a4da8e5c7cf279b0aa0-7-node">
    <path clip-path="url(#p0c054254b6)" d="M 217.639257 82.088824 
C 218.19534 82.088824 218.728721 81.611514 219.121931 80.762017 
C 219.51514 79.91252 219.736074 78.760194 219.736074 77.558824 
C 219.736074 76.357453 219.51514 75.205127 219.121931 74.35563 
C 218.728721 73.506133 218.19534 73.028824 217.639257 73.028824 
C 217.083175 73.028824 216.549793 73.506133 216.156584 74.35563 
C 215.763374 75.205127 215.54244 76.357453 215.54244 77.558824 
C 215.54244 78.760194 215.763374 79.91252 216.156584 80.762017 
C 216.549793 81.611514 217.083175 82.088824 217.639257 82.088824 
z
" style="fill:#00c832;stroke:#ffffff;stroke-linejoin:miter;stroke-width:0.5;"/>
   </g>
   <g id="bd098d90c9214a4da8e5c7cf279b0aa0-8-node">
    <path clip-path="url(#p0c054254b6)" d="M 207.401857 73.028824 
L 207.401857 82.088824 
L 203.208223 82.088824 
L 203.208223 73.028824 
L 207.401857 73.028824 
z
" style="fill:#0000ff;stroke:#ffffff;stroke-linejoin:miter;stroke-width:0.5;"/>
   </g>
   <g id="bd098d90c9214a4da8e5c7cf279b0aa0-10-node">
    <path clip-path="url(#p0c054254b6)" d="M 192.970822 82.088824 
C 193.526905 82.088824 194.060286 81.611514 194.453496 80.762017 
C 194.846705 79.91252 195.067639 78.760194 195.067639 77.558824 
C 195.067639 76.357453 194.846705 75.205127 194.453496 74.35563 
C 194.060286 73.506133 193.526905 73.028824 192.970822 73.028824 
C 192.41474 73.028824 191.881358 73.506133 191.488149 74.35563 
C 191.094939 75.205127 190.874005 76.357453 190.874005 77.558824 
C 190.874005 78.760194 191.094939 79.91252 191.488149 80.762017 
C 191.881358 81.611514 192.41474 82.088824 192.970822 82.088824 
z
" style="fill:#ffff00;stroke:#ffffff;stroke-linejoin:miter;stroke-width:0.5;"/>
   </g>
   <g id="bd098d90c9214a4da8e5c7cf279b0aa0-11-node">
    <path clip-path="url(#p0c054254b6)" d="M 182.733422 73.028824 
L 182.733422 82.088824 
L 178.539788 82.088824 
L 178.539788 73.028824 
L 182.733422 73.028824 
z
" style="fill:#0000ff;stroke:#ffffff;stroke-linejoin:miter;stroke-width:0.5;"/>
   </g>
   <g id="bd098d90c9214a4da8e5c7cf279b0aa0-13-node">
    <path clip-path="url(#p0c054254b6)" d="M 168.302387 82.088824 
C 168.85847 82.088824 169.391851 81.611514 169.785061 80.762017 
C 170.17827 79.91252 170.399204 78.760194 170.399204 77.558824 
C 170.399204 76.357453 170.17827 75.205127 169.785061 74.35563 
C 169.391851 73.506133 168.85847 73.028824 168.302387 73.028824 
C 167.746305 73.028824 167.212923 73.506133 166.819714 74.35563 
C 166.426504 75.205127 166.20557 76.357453 166.20557 77.558824 
C 166.20557 78.760194 166.426504 79.91252 166.819714 80.762017 
C 167.212923 81.611514 167.746305 82.088824 168.302387 82.088824 
z
" style="fill:#ffff00;stroke:#ffffff;stroke-linejoin:miter;stroke-width:0.5;"/>
   </g>
   <g id="bd098d90c9214a4da8e5c7cf279b0aa0-3-node">
    <path clip-path="url(#p0c054254b6)" d="M 254.64191 73.028824 
L 252.826013 79.823824 
L 256.457807 79.823824 
z
" style="fill:#ff0000;stroke:#ffffff;stroke-linejoin:miter;stroke-width:0.5;"/>
   </g>
   <g id="patch_16">
    <path d="M 135 157.5 
L 135 21.6 
" style="fill:none;stroke:#ffffff;stroke-linecap:square;stroke-linejoin:miter;stroke-width:1.25;"/>
   </g>
   <g id="patch_17">
    <path d="M 279.310345 157.5 
L 279.310345 21.6 
" style="fill:none;stroke:#ffffff;stroke-linecap:square;stroke-linejoin:miter;stroke-width:1.25;"/>
   </g>
   <g id="patch_18">
    <path d="M 135 157.5 
L 279.310345 157.5 
" style="fill:none;stroke:#ffffff;stroke-linecap:square;stroke-linejoin:miter;stroke-width:1.25;"/>
   </g>
   <g id="patch_19">
    <path d="M 135 21.6 
L 279.310345 21.6 
" style="fill:none;stroke:#ffffff;stroke-linecap:square;stroke-linejoin:miter;stroke-width:1.25;"/>
   </g>
   <g id="text_1">
    <!-- 920:6.0 -->
    <defs>
     <path d="M 5.46875 16.546875 
L 13.921875 17.328125 
Q 14.984375 11.375 18.015625 8.6875 
Q 21.046875 6 25.78125 6 
Q 29.828125 6 32.875 7.859375 
Q 35.9375 9.71875 37.890625 12.8125 
Q 39.84375 15.921875 41.15625 21.1875 
Q 42.484375 26.46875 42.484375 31.9375 
Q 42.484375 32.515625 42.4375 33.6875 
Q 39.796875 29.5 35.234375 26.875 
Q 30.671875 24.265625 25.34375 24.265625 
Q 16.453125 24.265625 10.296875 30.703125 
Q 4.15625 37.15625 4.15625 47.703125 
Q 4.15625 58.59375 10.578125 65.234375 
Q 17 71.875 26.65625 71.875 
Q 33.640625 71.875 39.421875 68.109375 
Q 45.21875 64.359375 48.21875 57.390625 
Q 51.21875 50.4375 51.21875 37.25 
Q 51.21875 23.53125 48.234375 15.40625 
Q 45.265625 7.28125 39.375 3.03125 
Q 33.5 -1.21875 25.59375 -1.21875 
Q 17.1875 -1.21875 11.859375 3.4375 
Q 6.546875 8.109375 5.46875 16.546875 
z
M 41.453125 48.140625 
Q 41.453125 55.71875 37.421875 60.15625 
Q 33.40625 64.59375 27.734375 64.59375 
Q 21.875 64.59375 17.53125 59.8125 
Q 13.1875 55.03125 13.1875 47.40625 
Q 13.1875 40.578125 17.3125 36.296875 
Q 21.4375 32.03125 27.484375 32.03125 
Q 33.59375 32.03125 37.515625 36.296875 
Q 41.453125 40.578125 41.453125 48.140625 
z
" id="ArialMT-57"/>
     <path d="M 50.34375 8.453125 
L 50.34375 0 
L 3.03125 0 
Q 2.9375 3.171875 4.046875 6.109375 
Q 5.859375 10.9375 9.828125 15.625 
Q 13.8125 20.3125 21.34375 26.46875 
Q 33.015625 36.03125 37.109375 41.625 
Q 41.21875 47.21875 41.21875 52.203125 
Q 41.21875 57.421875 37.46875 61 
Q 33.734375 64.59375 27.734375 64.59375 
Q 21.390625 64.59375 17.578125 60.78125 
Q 13.765625 56.984375 13.71875 50.25 
L 4.6875 51.171875 
Q 5.609375 61.28125 11.65625 66.578125 
Q 17.71875 71.875 27.9375 71.875 
Q 38.234375 71.875 44.234375 66.15625 
Q 50.25 60.453125 50.25 52 
Q 50.25 47.703125 48.484375 43.546875 
Q 46.734375 39.40625 42.65625 34.8125 
Q 38.578125 30.21875 29.109375 22.21875 
Q 21.1875 15.578125 18.9375 13.203125 
Q 16.703125 10.84375 15.234375 8.453125 
z
" id="ArialMT-50"/>
     <path d="M 4.15625 35.296875 
Q 4.15625 48 6.765625 55.734375 
Q 9.375 63.484375 14.515625 67.671875 
Q 19.671875 71.875 27.484375 71.875 
Q 33.25 71.875 37.59375 69.546875 
Q 41.9375 67.234375 44.765625 62.859375 
Q 47.609375 58.5 49.21875 52.21875 
Q 50.828125 45.953125 50.828125 35.296875 
Q 50.828125 22.703125 48.234375 14.96875 
Q 45.65625 7.234375 40.5 3 
Q 35.359375 -1.21875 27.484375 -1.21875 
Q 17.140625 -1.21875 11.234375 6.203125 
Q 4.15625 15.140625 4.15625 35.296875 
z
M 13.1875 35.296875 
Q 13.1875 17.671875 17.3125 11.828125 
Q 21.4375 6 27.484375 6 
Q 33.546875 6 37.671875 11.859375 
Q 41.796875 17.71875 41.796875 35.296875 
Q 41.796875 52.984375 37.671875 58.78125 
Q 33.546875 64.59375 27.390625 64.59375 
Q 21.34375 64.59375 17.71875 59.46875 
Q 13.1875 52.9375 13.1875 35.296875 
z
" id="ArialMT-48"/>
     <path d="M 9.03125 41.84375 
L 9.03125 51.859375 
L 19.046875 51.859375 
L 19.046875 41.84375 
z
M 9.03125 0 
L 9.03125 10.015625 
L 19.046875 10.015625 
L 19.046875 0 
z
" id="ArialMT-58"/>
     <path d="M 49.75 54.046875 
L 41.015625 53.375 
Q 39.84375 58.546875 37.703125 60.890625 
Q 34.125 64.65625 28.90625 64.65625 
Q 24.703125 64.65625 21.53125 62.3125 
Q 17.390625 59.28125 14.984375 53.46875 
Q 12.59375 47.65625 12.5 36.921875 
Q 15.671875 41.75 20.265625 44.09375 
Q 24.859375 46.4375 29.890625 46.4375 
Q 38.671875 46.4375 44.84375 39.96875 
Q 51.03125 33.5 51.03125 23.25 
Q 51.03125 16.5 48.125 10.71875 
Q 45.21875 4.9375 40.140625 1.859375 
Q 35.0625 -1.21875 28.609375 -1.21875 
Q 17.625 -1.21875 10.6875 6.859375 
Q 3.765625 14.9375 3.765625 33.5 
Q 3.765625 54.25 11.421875 63.671875 
Q 18.109375 71.875 29.4375 71.875 
Q 37.890625 71.875 43.28125 67.140625 
Q 48.6875 62.40625 49.75 54.046875 
z
M 13.875 23.1875 
Q 13.875 18.65625 15.796875 14.5 
Q 17.71875 10.359375 21.1875 8.171875 
Q 24.65625 6 28.46875 6 
Q 34.03125 6 38.03125 10.484375 
Q 42.046875 14.984375 42.046875 22.703125 
Q 42.046875 30.125 38.078125 34.390625 
Q 34.125 38.671875 28.125 38.671875 
Q 22.171875 38.671875 18.015625 34.390625 
Q 13.875 30.125 13.875 23.1875 
z
" id="ArialMT-54"/>
     <path d="M 9.078125 0 
L 9.078125 10.015625 
L 19.09375 10.015625 
L 19.09375 0 
z
" id="ArialMT-46"/>
    </defs>
    <g style="fill:#262626;" transform="translate(187.13861 15.6)scale(0.12 -0.12)">
     <use xlink:href="#ArialMT-57"/>
     <use x="55.615234" xlink:href="#ArialMT-50"/>
     <use x="111.230469" xlink:href="#ArialMT-48"/>
     <use x="166.845703" xlink:href="#ArialMT-58"/>
     <use x="194.628906" xlink:href="#ArialMT-54"/>
     <use x="250.244141" xlink:href="#ArialMT-46"/>
     <use x="278.027344" xlink:href="#ArialMT-48"/>
    </g>
   </g>
  </g>
  <g id="axes_2">
   <g id="patch_20">
    <path d="M 308.172414 157.5 
L 452.482759 157.5 
L 452.482759 21.6 
L 308.172414 21.6 
z
" style="fill:#ffffff;"/>
   </g>
   <g id="patch_21">
    <path clip-path="url(#p1ca499afee)" d="M 348.662367 104.205882 
L 338.280327 104.205882 
" style="stroke:#000000;stroke-linejoin:miter;stroke-width:0.5;"/>
   </g>
   <g id="patch_22">
    <path clip-path="url(#p1ca499afee)" d="M 359.044406 104.205882 
L 348.662367 104.205882 
" style="stroke:#000000;stroke-linejoin:miter;stroke-width:0.5;"/>
   </g>
   <g id="patch_23">
    <path clip-path="url(#p1ca499afee)" d="M 369.426445 104.205882 
L 359.044406 104.205882 
" style="stroke:#000000;stroke-linejoin:miter;stroke-width:0.5;"/>
   </g>
   <g id="patch_24">
    <path clip-path="url(#p1ca499afee)" d="M 379.808484 104.205882 
L 369.426445 104.205882 
" style="stroke:#000000;stroke-linejoin:miter;stroke-width:0.5;"/>
   </g>
   <g id="patch_25">
    <path clip-path="url(#p1ca499afee)" d="M 390.190523 104.205882 
L 379.808484 104.205882 
" style="stroke:#000000;stroke-linejoin:miter;stroke-width:0.5;"/>
   </g>
   <g id="patch_26">
    <path clip-path="url(#p1ca499afee)" d="M 400.572563 104.205882 
L 390.190523 104.205882 
" style="stroke:#000000;stroke-linejoin:miter;stroke-width:0.5;"/>
   </g>
   <g id="patch_27">
    <path clip-path="url(#p1ca499afee)" d="M 410.954602 90.882353 
L 400.572563 104.205882 
" style="stroke:#000000;stroke-linejoin:miter;stroke-width:0.5;"/>
   </g>
   <g id="patch_28">
    <path clip-path="url(#p1ca499afee)" d="M 369.426445 77.558824 
L 359.044406 77.558824 
" style="stroke:#000000;stroke-linejoin:miter;stroke-width:0.5;"/>
   </g>
   <g id="patch_29">
    <path clip-path="url(#p1ca499afee)" d="M 379.808484 77.558824 
L 369.426445 77.558824 
" style="stroke:#000000;stroke-linejoin:miter;stroke-width:0.5;"/>
   </g>
   <g id="patch_30">
    <path clip-path="url(#p1ca499afee)" d="M 390.190523 77.558824 
L 379.808484 77.558824 
" style="stroke:#000000;stroke-linejoin:miter;stroke-width:0.5;"/>
   </g>
   <g id="patch_31">
    <path clip-path="url(#p1ca499afee)" d="M 400.572563 77.558824 
L 390.190523 77.558824 
" style="stroke:#000000;stroke-linejoin:miter;stroke-width:0.5;"/>
   </g>
   <g id="patch_32">
    <path clip-path="url(#p1ca499afee)" d="M 410.954602 90.882353 
L 400.572563 77.558824 
" style="stroke:#000000;stroke-linejoin:miter;stroke-width:0.5;"/>
   </g>
   <g id="patch_33">
    <path clip-path="url(#p1ca499afee)" d="M 421.336641 90.882353 
L 410.954602 90.882353 
" style="stroke:#000000;stroke-linejoin:miter;stroke-width:0.5;"/>
   </g>
   <g id="patch_34">
    <path clip-path="url(#p1ca499afee)" d="M 431.71868 90.882353 
L 421.336641 90.882353 
" style="stroke:#000000;stroke-linejoin:miter;stroke-width:0.5;"/>
   </g>
   <g id="patch_35">
    <path clip-path="url(#p1ca499afee)" d="M 431.71868 90.882353 
L 431.71868 77.558824 
" style="stroke:#000000;stroke-linejoin:miter;stroke-width:0.5;"/>
   </g>
   <g id="d5faa6a9eeba4adf9df85dfe9879066d-1-node">
    <path clip-path="url(#p1ca499afee)" d="M 433.483627 86.352353 
L 433.483627 95.412353 
L 429.953734 95.412353 
L 429.953734 86.352353 
L 433.483627 86.352353 
z
" style="fill:#0000ff;stroke:#ffffff;stroke-linejoin:miter;stroke-width:0.5;"/>
   </g>
   <g id="d5faa6a9eeba4adf9df85dfe9879066d-4-node">
    <path clip-path="url(#p1ca499afee)" d="M 423.101588 86.352353 
L 423.101588 95.412353 
L 419.571694 95.412353 
L 419.571694 86.352353 
L 423.101588 86.352353 
z
" style="fill:#0000ff;stroke:#ffffff;stroke-linejoin:miter;stroke-width:0.5;"/>
   </g>
   <g id="d5faa6a9eeba4adf9df85dfe9879066d-6-node">
    <path clip-path="url(#p1ca499afee)" d="M 410.954602 95.412353 
C 411.422671 95.412353 411.871633 94.935044 412.202608 94.085547 
C 412.533583 93.23605 412.719548 92.083723 412.719548 90.882353 
C 412.719548 89.680983 412.533583 88.528656 412.202608 87.679159 
C 411.871633 86.829662 411.422671 86.352353 410.954602 86.352353 
C 410.486533 86.352353 410.037571 86.829662 409.706596 87.679159 
C 409.375621 88.528656 409.189655 89.680983 409.189655 90.882353 
C 409.189655 92.083723 409.375621 93.23605 409.706596 94.085547 
C 410.037571 94.935044 410.486533 95.412353 410.954602 95.412353 
z
" style="fill:#00c832;stroke:#ffffff;stroke-linejoin:miter;stroke-width:0.5;"/>
   </g>
   <g id="d5faa6a9eeba4adf9df85dfe9879066d-14-node">
    <path clip-path="url(#p1ca499afee)" d="M 400.572563 108.735882 
C 401.040632 108.735882 401.489593 108.258573 401.820568 107.409076 
C 402.151543 106.559579 402.337509 105.407252 402.337509 104.205882 
C 402.337509 103.004512 402.151543 101.852186 401.820568 101.002689 
C 401.489593 100.153192 401.040632 99.675882 400.572563 99.675882 
C 400.104493 99.675882 399.655532 100.153192 399.324557 101.002689 
C 398.993582 101.852186 398.807616 103.004512 398.807616 104.205882 
C 398.807616 105.407252 398.993582 106.559579 399.324557 107.409076 
C 399.655532 108.258573 400.104493 108.735882 400.572563 108.735882 
z
" style="fill:#00c832;stroke:#ffffff;stroke-linejoin:miter;stroke-width:0.5;"/>
   </g>
   <g id="d5faa6a9eeba4adf9df85dfe9879066d-15-node">
    <path clip-path="url(#p1ca499afee)" d="M 391.95547 99.675882 
L 391.95547 108.735882 
L 388.425577 108.735882 
L 388.425577 99.675882 
L 391.95547 99.675882 
z
" style="fill:#0000ff;stroke:#ffffff;stroke-linejoin:miter;stroke-width:0.5;"/>
   </g>
   <g id="d5faa6a9eeba4adf9df85dfe9879066d-17-node">
    <path clip-path="url(#p1ca499afee)" d="M 379.808484 108.735882 
C 380.276554 108.735882 380.725515 108.258573 381.05649 107.409076 
C 381.387465 106.559579 381.573431 105.407252 381.573431 104.205882 
C 381.573431 103.004512 381.387465 101.852186 381.05649 101.002689 
C 380.725515 100.153192 380.276554 99.675882 379.808484 99.675882 
C 379.340415 99.675882 378.891453 100.153192 378.560478 101.002689 
C 378.229503 101.852186 378.043538 103.004512 378.043538 104.205882 
C 378.043538 105.407252 378.229503 106.559579 378.560478 107.409076 
C 378.891453 108.258573 379.340415 108.735882 379.808484 108.735882 
z
" style="fill:#ffff00;stroke:#ffffff;stroke-linejoin:miter;stroke-width:0.5;"/>
   </g>
   <g id="d5faa6a9eeba4adf9df85dfe9879066d-18-node">
    <path clip-path="url(#p1ca499afee)" d="M 371.191392 99.675882 
L 371.191392 108.735882 
L 367.661498 108.735882 
L 367.661498 99.675882 
L 371.191392 99.675882 
z
" style="fill:#0000ff;stroke:#ffffff;stroke-linejoin:miter;stroke-width:0.5;"/>
   </g>
   <g id="d5faa6a9eeba4adf9df85dfe9879066d-20-node">
    <path clip-path="url(#p1ca499afee)" d="M 359.044406 108.735882 
C 359.512475 108.735882 359.961437 108.258573 360.292412 107.409076 
C 360.623387 106.559579 360.809353 105.407252 360.809353 104.205882 
C 360.809353 103.004512 360.623387 101.852186 360.292412 101.002689 
C 359.961437 100.153192 359.512475 99.675882 359.044406 99.675882 
C 358.576337 99.675882 358.127375 100.153192 357.7964 101.002689 
C 357.465425 101.852186 357.279459 103.004512 357.279459 104.205882 
C 357.279459 105.407252 357.465425 106.559579 357.7964 107.409076 
C 358.127375 108.258573 358.576337 108.735882 359.044406 108.735882 
z
" style="fill:#ffff00;stroke:#ffffff;stroke-linejoin:miter;stroke-width:0.5;"/>
   </g>
   <g id="d5faa6a9eeba4adf9df85dfe9879066d-21-node">
    <path clip-path="url(#p1ca499afee)" d="M 350.427313 99.675882 
L 350.427313 108.735882 
L 346.89742 108.735882 
L 346.89742 99.675882 
L 350.427313 99.675882 
z
" style="fill:#0000ff;stroke:#ffffff;stroke-linejoin:miter;stroke-width:0.5;"/>
   </g>
   <g id="d5faa6a9eeba4adf9df85dfe9879066d-23-node">
    <path clip-path="url(#p1ca499afee)" d="M 338.280327 108.735882 
C 338.748397 108.735882 339.197358 108.258573 339.528333 107.409076 
C 339.859308 106.559579 340.045274 105.407252 340.045274 104.205882 
C 340.045274 103.004512 339.859308 101.852186 339.528333 101.002689 
C 339.197358 100.153192 338.748397 99.675882 338.280327 99.675882 
C 337.812258 99.675882 337.363297 100.153192 337.032322 101.002689 
C 336.701347 101.852186 336.515381 103.004512 336.515381 104.205882 
C 336.515381 105.407252 336.701347 106.559579 337.032322 107.409076 
C 337.363297 108.258573 337.812258 108.735882 338.280327 108.735882 
z
" style="fill:#ffff00;stroke:#ffffff;stroke-linejoin:miter;stroke-width:0.5;"/>
   </g>
   <g id="d5faa6a9eeba4adf9df85dfe9879066d-7-node">
    <path clip-path="url(#p1ca499afee)" d="M 400.572563 82.088824 
C 401.040632 82.088824 401.489593 81.611514 401.820568 80.762017 
C 402.151543 79.91252 402.337509 78.760194 402.337509 77.558824 
C 402.337509 76.357453 402.151543 75.205127 401.820568 74.35563 
C 401.489593 73.506133 401.040632 73.028824 400.572563 73.028824 
C 400.104493 73.028824 399.655532 73.506133 399.324557 74.35563 
C 398.993582 75.205127 398.807616 76.357453 398.807616 77.558824 
C 398.807616 78.760194 398.993582 79.91252 399.324557 80.762017 
C 399.655532 81.611514 400.104493 82.088824 400.572563 82.088824 
z
" style="fill:#00c832;stroke:#ffffff;stroke-linejoin:miter;stroke-width:0.5;"/>
   </g>
   <g id="d5faa6a9eeba4adf9df85dfe9879066d-8-node">
    <path clip-path="url(#p1ca499afee)" d="M 391.95547 73.028824 
L 391.95547 82.088824 
L 388.425577 82.088824 
L 388.425577 73.028824 
L 391.95547 73.028824 
z
" style="fill:#0000ff;stroke:#ffffff;stroke-linejoin:miter;stroke-width:0.5;"/>
   </g>
   <g id="d5faa6a9eeba4adf9df85dfe9879066d-10-node">
    <path clip-path="url(#p1ca499afee)" d="M 379.808484 82.088824 
C 380.276554 82.088824 380.725515 81.611514 381.05649 80.762017 
C 381.387465 79.91252 381.573431 78.760194 381.573431 77.558824 
C 381.573431 76.357453 381.387465 75.205127 381.05649 74.35563 
C 380.725515 73.506133 380.276554 73.028824 379.808484 73.028824 
C 379.340415 73.028824 378.891453 73.506133 378.560478 74.35563 
C 378.229503 75.205127 378.043538 76.357453 378.043538 77.558824 
C 378.043538 78.760194 378.229503 79.91252 378.560478 80.762017 
C 378.891453 81.611514 379.340415 82.088824 379.808484 82.088824 
z
" style="fill:#ffff00;stroke:#ffffff;stroke-linejoin:miter;stroke-width:0.5;"/>
   </g>
   <g id="d5faa6a9eeba4adf9df85dfe9879066d-11-node">
    <path clip-path="url(#p1ca499afee)" d="M 371.191392 73.028824 
L 371.191392 82.088824 
L 367.661498 82.088824 
L 367.661498 73.028824 
L 371.191392 73.028824 
z
" style="fill:#0000ff;stroke:#ffffff;stroke-linejoin:miter;stroke-width:0.5;"/>
   </g>
   <g id="d5faa6a9eeba4adf9df85dfe9879066d-13-node">
    <path clip-path="url(#p1ca499afee)" d="M 359.044406 82.088824 
C 359.512475 82.088824 359.961437 81.611514 360.292412 80.762017 
C 360.623387 79.91252 360.809353 78.760194 360.809353 77.558824 
C 360.809353 76.357453 360.623387 75.205127 360.292412 74.35563 
C 359.961437 73.506133 359.512475 73.028824 359.044406 73.028824 
C 358.576337 73.028824 358.127375 73.506133 357.7964 74.35563 
C 357.465425 75.205127 357.279459 76.357453 357.279459 77.558824 
C 357.279459 78.760194 357.465425 79.91252 357.7964 80.762017 
C 358.127375 81.611514 358.576337 82.088824 359.044406 82.088824 
z
" style="fill:#ffff00;stroke:#ffffff;stroke-linejoin:miter;stroke-width:0.5;"/>
   </g>
   <g id="d5faa6a9eeba4adf9df85dfe9879066d-3-node">
    <path clip-path="url(#p1ca499afee)" d="M 431.71868 73.028824 
L 430.190192 79.823824 
L 433.247169 79.823824 
z
" style="fill:#ff0000;stroke:#ffffff;stroke-linejoin:miter;stroke-width:0.5;"/>
   </g>
   <g id="patch_36">
    <path d="M 308.172414 157.5 
L 308.172414 21.6 
" style="fill:none;stroke:#ffffff;stroke-linecap:square;stroke-linejoin:miter;stroke-width:1.25;"/>
   </g>
   <g id="patch_37">
    <path d="M 452.482759 157.5 
L 452.482759 21.6 
" style="fill:none;stroke:#ffffff;stroke-linecap:square;stroke-linejoin:miter;stroke-width:1.25;"/>
   </g>
   <g id="patch_38">
    <path d="M 308.172414 157.5 
L 452.482759 157.5 
" style="fill:none;stroke:#ffffff;stroke-linecap:square;stroke-linejoin:miter;stroke-width:1.25;"/>
   </g>
   <g id="patch_39">
    <path d="M 308.172414 21.6 
L 452.482759 21.6 
" style="fill:none;stroke:#ffffff;stroke-linecap:square;stroke-linejoin:miter;stroke-width:1.25;"/>
   </g>
   <g id="text_2">
    <!-- 1298:8.0 -->
    <defs>
     <path d="M 37.25 0 
L 28.46875 0 
L 28.46875 56 
Q 25.296875 52.984375 20.140625 49.953125 
Q 14.984375 46.921875 10.890625 45.40625 
L 10.890625 53.90625 
Q 18.265625 57.375 23.78125 62.296875 
Q 29.296875 67.234375 31.59375 71.875 
L 37.25 71.875 
z
" id="ArialMT-49"/>
     <path d="M 17.671875 38.8125 
Q 12.203125 40.828125 9.5625 44.53125 
Q 6.9375 48.25 6.9375 53.421875 
Q 6.9375 61.234375 12.546875 66.546875 
Q 18.171875 71.875 27.484375 71.875 
Q 36.859375 71.875 42.578125 66.421875 
Q 48.296875 60.984375 48.296875 53.171875 
Q 48.296875 48.1875 45.671875 44.5 
Q 43.0625 40.828125 37.75 38.8125 
Q 44.34375 36.671875 47.78125 31.875 
Q 51.21875 27.09375 51.21875 20.453125 
Q 51.21875 11.28125 44.71875 5.03125 
Q 38.234375 -1.21875 27.640625 -1.21875 
Q 17.046875 -1.21875 10.546875 5.046875 
Q 4.046875 11.328125 4.046875 20.703125 
Q 4.046875 27.6875 7.59375 32.390625 
Q 11.140625 37.109375 17.671875 38.8125 
z
M 15.921875 53.71875 
Q 15.921875 48.640625 19.1875 45.40625 
Q 22.46875 42.1875 27.6875 42.1875 
Q 32.765625 42.1875 36.015625 45.375 
Q 39.265625 48.578125 39.265625 53.21875 
Q 39.265625 58.0625 35.90625 61.359375 
Q 32.5625 64.65625 27.59375 64.65625 
Q 22.5625 64.65625 19.234375 61.421875 
Q 15.921875 58.203125 15.921875 53.71875 
z
M 13.09375 20.65625 
Q 13.09375 16.890625 14.875 13.375 
Q 16.65625 9.859375 20.171875 7.921875 
Q 23.6875 6 27.734375 6 
Q 34.03125 6 38.125 10.046875 
Q 42.234375 14.109375 42.234375 20.359375 
Q 42.234375 26.703125 38.015625 30.859375 
Q 33.796875 35.015625 27.4375 35.015625 
Q 21.234375 35.015625 17.15625 30.90625 
Q 13.09375 26.8125 13.09375 20.65625 
z
" id="ArialMT-56"/>
    </defs>
    <g style="fill:#262626;" transform="translate(356.974461 15.6)scale(0.12 -0.12)">
     <use xlink:href="#ArialMT-49"/>
     <use x="55.615234" xlink:href="#ArialMT-50"/>
     <use x="111.230469" xlink:href="#ArialMT-57"/>
     <use x="166.845703" xlink:href="#ArialMT-56"/>
     <use x="222.460938" xlink:href="#ArialMT-58"/>
     <use x="250.244141" xlink:href="#ArialMT-56"/>
     <use x="305.859375" xlink:href="#ArialMT-46"/>
     <use x="333.642578" xlink:href="#ArialMT-48"/>
    </g>
   </g>
  </g>
  <g id="axes_3">
   <g id="patch_40">
    <path d="M 481.344828 157.5 
L 625.655172 157.5 
L 625.655172 21.6 
L 481.344828 21.6 
z
" style="fill:#ffffff;"/>
   </g>
   <g id="patch_41">
    <path clip-path="url(#p8db373a500)" d="M 521.83478 104.205882 
L 511.452741 104.205882 
" style="stroke:#000000;stroke-linejoin:miter;stroke-width:0.5;"/>
   </g>
   <g id="patch_42">
    <path clip-path="url(#p8db373a500)" d="M 532.21682 104.205882 
L 521.83478 104.205882 
" style="stroke:#000000;stroke-linejoin:miter;stroke-width:0.5;"/>
   </g>
   <g id="patch_43">
    <path clip-path="url(#p8db373a500)" d="M 542.598859 104.205882 
L 532.21682 104.205882 
" style="stroke:#000000;stroke-linejoin:miter;stroke-width:0.5;"/>
   </g>
   <g id="patch_44">
    <path clip-path="url(#p8db373a500)" d="M 552.980898 104.205882 
L 542.598859 104.205882 
" style="stroke:#000000;stroke-linejoin:miter;stroke-width:0.5;"/>
   </g>
   <g id="patch_45">
    <path clip-path="url(#p8db373a500)" d="M 563.362937 104.205882 
L 552.980898 104.205882 
" style="stroke:#000000;stroke-linejoin:miter;stroke-width:0.5;"/>
   </g>
   <g id="patch_46">
    <path clip-path="url(#p8db373a500)" d="M 573.744976 104.205882 
L 563.362937 104.205882 
" style="stroke:#000000;stroke-linejoin:miter;stroke-width:0.5;"/>
   </g>
   <g id="patch_47">
    <path clip-path="url(#p8db373a500)" d="M 584.127016 90.882353 
L 573.744976 104.205882 
" style="stroke:#000000;stroke-linejoin:miter;stroke-width:0.5;"/>
   </g>
   <g id="patch_48">
    <path clip-path="url(#p8db373a500)" d="M 521.83478 77.558824 
L 511.452741 77.558824 
" style="stroke:#000000;stroke-linejoin:miter;stroke-width:0.5;"/>
   </g>
   <g id="patch_49">
    <path clip-path="url(#p8db373a500)" d="M 532.21682 77.558824 
L 521.83478 77.558824 
" style="stroke:#000000;stroke-linejoin:miter;stroke-width:0.5;"/>
   </g>
   <g id="patch_50">
    <path clip-path="url(#p8db373a500)" d="M 542.598859 77.558824 
L 532.21682 77.558824 
" style="stroke:#000000;stroke-linejoin:miter;stroke-width:0.5;"/>
   </g>
   <g id="patch_51">
    <path clip-path="url(#p8db373a500)" d="M 552.980898 77.558824 
L 542.598859 77.558824 
" style="stroke:#000000;stroke-linejoin:miter;stroke-width:0.5;"/>
   </g>
   <g id="patch_52">
    <path clip-path="url(#p8db373a500)" d="M 563.362937 77.558824 
L 552.980898 77.558824 
" style="stroke:#000000;stroke-linejoin:miter;stroke-width:0.5;"/>
   </g>
   <g id="patch_53">
    <path clip-path="url(#p8db373a500)" d="M 573.744976 77.558824 
L 563.362937 77.558824 
" style="stroke:#000000;stroke-linejoin:miter;stroke-width:0.5;"/>
   </g>
   <g id="patch_54">
    <path clip-path="url(#p8db373a500)" d="M 584.127016 90.882353 
L 573.744976 77.558824 
" style="stroke:#000000;stroke-linejoin:miter;stroke-width:0.5;"/>
   </g>
   <g id="patch_55">
    <path clip-path="url(#p8db373a500)" d="M 594.509055 90.882353 
L 584.127016 90.882353 
" style="stroke:#000000;stroke-linejoin:miter;stroke-width:0.5;"/>
   </g>
   <g id="patch_56">
    <path clip-path="url(#p8db373a500)" d="M 604.891094 90.882353 
L 594.509055 90.882353 
" style="stroke:#000000;stroke-linejoin:miter;stroke-width:0.5;"/>
   </g>
   <g id="patch_57">
    <path clip-path="url(#p8db373a500)" d="M 604.891094 90.882353 
L 604.891094 77.558824 
" style="stroke:#000000;stroke-linejoin:miter;stroke-width:0.5;"/>
   </g>
   <g id="070d426d5674408a9247f13c3043c942-1-node">
    <path clip-path="url(#p8db373a500)" d="M 606.656041 86.352353 
L 606.656041 95.412353 
L 603.126147 95.412353 
L 603.126147 86.352353 
L 606.656041 86.352353 
z
" style="fill:#0000ff;stroke:#ffffff;stroke-linejoin:miter;stroke-width:0.5;"/>
   </g>
   <g id="070d426d5674408a9247f13c3043c942-4-node">
    <path clip-path="url(#p8db373a500)" d="M 596.274001 86.352353 
L 596.274001 95.412353 
L 592.744108 95.412353 
L 592.744108 86.352353 
L 596.274001 86.352353 
z
" style="fill:#0000ff;stroke:#ffffff;stroke-linejoin:miter;stroke-width:0.5;"/>
   </g>
   <g id="070d426d5674408a9247f13c3043c942-6-node">
    <path clip-path="url(#p8db373a500)" d="M 584.127016 95.412353 
C 584.595085 95.412353 585.044046 94.935044 585.375021 94.085547 
C 585.705996 93.23605 585.891962 92.083723 585.891962 90.882353 
C 585.891962 89.680983 585.705996 88.528656 585.375021 87.679159 
C 585.044046 86.829662 584.595085 86.352353 584.127016 86.352353 
C 583.658946 86.352353 583.209985 86.829662 582.87901 87.679159 
C 582.548035 88.528656 582.362069 89.680983 582.362069 90.882353 
C 582.362069 92.083723 582.548035 93.23605 582.87901 94.085547 
C 583.209985 94.935044 583.658946 95.412353 584.127016 95.412353 
z
" style="fill:#00c832;stroke:#ffffff;stroke-linejoin:miter;stroke-width:0.5;"/>
   </g>
   <g id="070d426d5674408a9247f13c3043c942-17-node">
    <path clip-path="url(#p8db373a500)" d="M 573.744976 108.735882 
C 574.213046 108.735882 574.662007 108.258573 574.992982 107.409076 
C 575.323957 106.559579 575.509923 105.407252 575.509923 104.205882 
C 575.509923 103.004512 575.323957 101.852186 574.992982 101.002689 
C 574.662007 100.153192 574.213046 99.675882 573.744976 99.675882 
C 573.276907 99.675882 572.827946 100.153192 572.496971 101.002689 
C 572.165996 101.852186 571.98003 103.004512 571.98003 104.205882 
C 571.98003 105.407252 572.165996 106.559579 572.496971 107.409076 
C 572.827946 108.258573 573.276907 108.735882 573.744976 108.735882 
z
" style="fill:#00c832;stroke:#ffffff;stroke-linejoin:miter;stroke-width:0.5;"/>
   </g>
   <g id="070d426d5674408a9247f13c3043c942-18-node">
    <path clip-path="url(#p8db373a500)" d="M 565.127884 99.675882 
L 565.127884 108.735882 
L 561.597991 108.735882 
L 561.597991 99.675882 
L 565.127884 99.675882 
z
" style="fill:#0000ff;stroke:#ffffff;stroke-linejoin:miter;stroke-width:0.5;"/>
   </g>
   <g id="070d426d5674408a9247f13c3043c942-20-node">
    <path clip-path="url(#p8db373a500)" d="M 552.980898 108.735882 
C 553.448967 108.735882 553.897929 108.258573 554.228904 107.409076 
C 554.559879 106.559579 554.745845 105.407252 554.745845 104.205882 
C 554.745845 103.004512 554.559879 101.852186 554.228904 101.002689 
C 553.897929 100.153192 553.448967 99.675882 552.980898 99.675882 
C 552.512829 99.675882 552.063867 100.153192 551.732892 101.002689 
C 551.401917 101.852186 551.215951 103.004512 551.215951 104.205882 
C 551.215951 105.407252 551.401917 106.559579 551.732892 107.409076 
C 552.063867 108.258573 552.512829 108.735882 552.980898 108.735882 
z
" style="fill:#ffff00;stroke:#ffffff;stroke-linejoin:miter;stroke-width:0.5;"/>
   </g>
   <g id="070d426d5674408a9247f13c3043c942-21-node">
    <path clip-path="url(#p8db373a500)" d="M 544.363806 99.675882 
L 544.363806 108.735882 
L 540.833912 108.735882 
L 540.833912 99.675882 
L 544.363806 99.675882 
z
" style="fill:#0000ff;stroke:#ffffff;stroke-linejoin:miter;stroke-width:0.5;"/>
   </g>
   <g id="070d426d5674408a9247f13c3043c942-23-node">
    <path clip-path="url(#p8db373a500)" d="M 532.21682 108.735882 
C 532.684889 108.735882 533.13385 108.258573 533.464825 107.409076 
C 533.7958 106.559579 533.981766 105.407252 533.981766 104.205882 
C 533.981766 103.004512 533.7958 101.852186 533.464825 101.002689 
C 533.13385 100.153192 532.684889 99.675882 532.21682 99.675882 
C 531.74875 99.675882 531.299789 100.153192 530.968814 101.002689 
C 530.637839 101.852186 530.451873 103.004512 530.451873 104.205882 
C 530.451873 105.407252 530.637839 106.559579 530.968814 107.409076 
C 531.299789 108.258573 531.74875 108.735882 532.21682 108.735882 
z
" style="fill:#ffff00;stroke:#ffffff;stroke-linejoin:miter;stroke-width:0.5;"/>
   </g>
   <g id="070d426d5674408a9247f13c3043c942-24-node">
    <path clip-path="url(#p8db373a500)" d="M 523.599727 99.675882 
L 523.599727 108.735882 
L 520.069834 108.735882 
L 520.069834 99.675882 
L 523.599727 99.675882 
z
" style="fill:#0000ff;stroke:#ffffff;stroke-linejoin:miter;stroke-width:0.5;"/>
   </g>
   <g id="070d426d5674408a9247f13c3043c942-26-node">
    <path clip-path="url(#p8db373a500)" d="M 511.452741 108.735882 
C 511.920811 108.735882 512.369772 108.258573 512.700747 107.409076 
C 513.031722 106.559579 513.217688 105.407252 513.217688 104.205882 
C 513.217688 103.004512 513.031722 101.852186 512.700747 101.002689 
C 512.369772 100.153192 511.920811 99.675882 511.452741 99.675882 
C 510.984672 99.675882 510.53571 100.153192 510.204736 101.002689 
C 509.873761 101.852186 509.687795 103.004512 509.687795 104.205882 
C 509.687795 105.407252 509.873761 106.559579 510.204736 107.409076 
C 510.53571 108.258573 510.984672 108.735882 511.452741 108.735882 
z
" style="fill:#ffff00;stroke:#ffffff;stroke-linejoin:miter;stroke-width:0.5;"/>
   </g>
   <g id="070d426d5674408a9247f13c3043c942-7-node">
    <path clip-path="url(#p8db373a500)" d="M 573.744976 82.088824 
C 574.213046 82.088824 574.662007 81.611514 574.992982 80.762017 
C 575.323957 79.91252 575.509923 78.760194 575.509923 77.558824 
C 575.509923 76.357453 575.323957 75.205127 574.992982 74.35563 
C 574.662007 73.506133 574.213046 73.028824 573.744976 73.028824 
C 573.276907 73.028824 572.827946 73.506133 572.496971 74.35563 
C 572.165996 75.205127 571.98003 76.357453 571.98003 77.558824 
C 571.98003 78.760194 572.165996 79.91252 572.496971 80.762017 
C 572.827946 81.611514 573.276907 82.088824 573.744976 82.088824 
z
" style="fill:#00c832;stroke:#ffffff;stroke-linejoin:miter;stroke-width:0.5;"/>
   </g>
   <g id="070d426d5674408a9247f13c3043c942-8-node">
    <path clip-path="url(#p8db373a500)" d="M 565.127884 73.028824 
L 565.127884 82.088824 
L 561.597991 82.088824 
L 561.597991 73.028824 
L 565.127884 73.028824 
z
" style="fill:#0000ff;stroke:#ffffff;stroke-linejoin:miter;stroke-width:0.5;"/>
   </g>
   <g id="070d426d5674408a9247f13c3043c942-10-node">
    <path clip-path="url(#p8db373a500)" d="M 552.980898 82.088824 
C 553.448967 82.088824 553.897929 81.611514 554.228904 80.762017 
C 554.559879 79.91252 554.745845 78.760194 554.745845 77.558824 
C 554.745845 76.357453 554.559879 75.205127 554.228904 74.35563 
C 553.897929 73.506133 553.448967 73.028824 552.980898 73.028824 
C 552.512829 73.028824 552.063867 73.506133 551.732892 74.35563 
C 551.401917 75.205127 551.215951 76.357453 551.215951 77.558824 
C 551.215951 78.760194 551.401917 79.91252 551.732892 80.762017 
C 552.063867 81.611514 552.512829 82.088824 552.980898 82.088824 
z
" style="fill:#ffff00;stroke:#ffffff;stroke-linejoin:miter;stroke-width:0.5;"/>
   </g>
   <g id="070d426d5674408a9247f13c3043c942-11-node">
    <path clip-path="url(#p8db373a500)" d="M 544.363806 73.028824 
L 544.363806 82.088824 
L 540.833912 82.088824 
L 540.833912 73.028824 
L 544.363806 73.028824 
z
" style="fill:#0000ff;stroke:#ffffff;stroke-linejoin:miter;stroke-width:0.5;"/>
   </g>
   <g id="070d426d5674408a9247f13c3043c942-13-node">
    <path clip-path="url(#p8db373a500)" d="M 532.21682 82.088824 
C 532.684889 82.088824 533.13385 81.611514 533.464825 80.762017 
C 533.7958 79.91252 533.981766 78.760194 533.981766 77.558824 
C 533.981766 76.357453 533.7958 75.205127 533.464825 74.35563 
C 533.13385 73.506133 532.684889 73.028824 532.21682 73.028824 
C 531.74875 73.028824 531.299789 73.506133 530.968814 74.35563 
C 530.637839 75.205127 530.451873 76.357453 530.451873 77.558824 
C 530.451873 78.760194 530.637839 79.91252 530.968814 80.762017 
C 531.299789 81.611514 531.74875 82.088824 532.21682 82.088824 
z
" style="fill:#ffff00;stroke:#ffffff;stroke-linejoin:miter;stroke-width:0.5;"/>
   </g>
   <g id="070d426d5674408a9247f13c3043c942-14-node">
    <path clip-path="url(#p8db373a500)" d="M 523.599727 73.028824 
L 523.599727 82.088824 
L 520.069834 82.088824 
L 520.069834 73.028824 
L 523.599727 73.028824 
z
" style="fill:#0000ff;stroke:#ffffff;stroke-linejoin:miter;stroke-width:0.5;"/>
   </g>
   <g id="070d426d5674408a9247f13c3043c942-16-node">
    <path clip-path="url(#p8db373a500)" d="M 511.452741 82.088824 
C 511.920811 82.088824 512.369772 81.611514 512.700747 80.762017 
C 513.031722 79.91252 513.217688 78.760194 513.217688 77.558824 
C 513.217688 76.357453 513.031722 75.205127 512.700747 74.35563 
C 512.369772 73.506133 511.920811 73.028824 511.452741 73.028824 
C 510.984672 73.028824 510.53571 73.506133 510.204736 74.35563 
C 509.873761 75.205127 509.687795 76.357453 509.687795 77.558824 
C 509.687795 78.760194 509.873761 79.91252 510.204736 80.762017 
C 510.53571 81.611514 510.984672 82.088824 511.452741 82.088824 
z
" style="fill:#ffff00;stroke:#ffffff;stroke-linejoin:miter;stroke-width:0.5;"/>
   </g>
   <g id="070d426d5674408a9247f13c3043c942-3-node">
    <path clip-path="url(#p8db373a500)" d="M 604.891094 73.028824 
L 603.362605 79.823824 
L 606.419583 79.823824 
z
" style="fill:#ff0000;stroke:#ffffff;stroke-linejoin:miter;stroke-width:0.5;"/>
   </g>
   <g id="patch_58">
    <path d="M 481.344828 157.5 
L 481.344828 21.6 
" style="fill:none;stroke:#ffffff;stroke-linecap:square;stroke-linejoin:miter;stroke-width:1.25;"/>
   </g>
   <g id="patch_59">
    <path d="M 625.655172 157.5 
L 625.655172 21.6 
" style="fill:none;stroke:#ffffff;stroke-linecap:square;stroke-linejoin:miter;stroke-width:1.25;"/>
   </g>
   <g id="patch_60">
    <path d="M 481.344828 157.5 
L 625.655172 157.5 
" style="fill:none;stroke:#ffffff;stroke-linecap:square;stroke-linejoin:miter;stroke-width:1.25;"/>
   </g>
   <g id="patch_61">
    <path d="M 481.344828 21.6 
L 625.655172 21.6 
" style="fill:none;stroke:#ffffff;stroke-linecap:square;stroke-linejoin:miter;stroke-width:1.25;"/>
   </g>
   <g id="text_3">
    <!-- 1568:6.0 -->
    <defs>
     <path d="M 4.15625 18.75 
L 13.375 19.53125 
Q 14.40625 12.796875 18.140625 9.390625 
Q 21.875 6 27.15625 6 
Q 33.5 6 37.890625 10.78125 
Q 42.28125 15.578125 42.28125 23.484375 
Q 42.28125 31 38.0625 35.34375 
Q 33.84375 39.703125 27 39.703125 
Q 22.75 39.703125 19.328125 37.765625 
Q 15.921875 35.84375 13.96875 32.765625 
L 5.71875 33.84375 
L 12.640625 70.609375 
L 48.25 70.609375 
L 48.25 62.203125 
L 19.671875 62.203125 
L 15.828125 42.96875 
Q 22.265625 47.46875 29.34375 47.46875 
Q 38.71875 47.46875 45.15625 40.96875 
Q 51.609375 34.46875 51.609375 24.265625 
Q 51.609375 14.546875 45.953125 7.46875 
Q 39.0625 -1.21875 27.15625 -1.21875 
Q 17.390625 -1.21875 11.203125 4.25 
Q 5.03125 9.71875 4.15625 18.75 
z
" id="ArialMT-53"/>
    </defs>
    <g style="fill:#262626;" transform="translate(530.146875 15.6)scale(0.12 -0.12)">
     <use xlink:href="#ArialMT-49"/>
     <use x="55.615234" xlink:href="#ArialMT-53"/>
     <use x="111.230469" xlink:href="#ArialMT-54"/>
     <use x="166.845703" xlink:href="#ArialMT-56"/>
     <use x="222.460938" xlink:href="#ArialMT-58"/>
     <use x="250.244141" xlink:href="#ArialMT-54"/>
     <use x="305.859375" xlink:href="#ArialMT-46"/>
     <use x="333.642578" xlink:href="#ArialMT-48"/>
    </g>
   </g>
  </g>
  <g id="axes_4">
   <g id="patch_62">
    <path d="M 654.517241 157.5 
L 798.827586 157.5 
L 798.827586 21.6 
L 654.517241 21.6 
z
" style="fill:#eaeaf2;"/>
   </g>
   <g id="matplotlib.axis_1">
    <g id="xtick_1">
     <g id="line2d_1">
      <path clip-path="url(#p460a90be87)" d="M 654.517241 157.5 
L 654.517241 21.6 
" style="fill:none;stroke:#ffffff;stroke-linecap:round;"/>
     </g>
     <g id="text_4">
      <!-- 0.00 -->
      <g style="fill:#262626;" transform="translate(643.813726 174.873594)scale(0.11 -0.11)">
       <use xlink:href="#ArialMT-48"/>
       <use x="55.615234" xlink:href="#ArialMT-46"/>
       <use x="83.398438" xlink:href="#ArialMT-48"/>
       <use x="139.013672" xlink:href="#ArialMT-48"/>
      </g>
     </g>
    </g>
    <g id="xtick_2">
     <g id="line2d_2">
      <path clip-path="url(#p460a90be87)" d="M 690.594828 157.5 
L 690.594828 21.6 
" style="fill:none;stroke:#ffffff;stroke-linecap:round;"/>
     </g>
     <g id="text_5">
      <!-- 0.25 -->
      <g style="fill:#262626;" transform="translate(679.891312 174.873594)scale(0.11 -0.11)">
       <use xlink:href="#ArialMT-48"/>
       <use x="55.615234" xlink:href="#ArialMT-46"/>
       <use x="83.398438" xlink:href="#ArialMT-50"/>
       <use x="139.013672" xlink:href="#ArialMT-53"/>
      </g>
     </g>
    </g>
    <g id="xtick_3">
     <g id="line2d_3">
      <path clip-path="url(#p460a90be87)" d="M 726.672414 157.5 
L 726.672414 21.6 
" style="fill:none;stroke:#ffffff;stroke-linecap:round;"/>
     </g>
     <g id="text_6">
      <!-- 0.50 -->
      <g style="fill:#262626;" transform="translate(715.968898 174.873594)scale(0.11 -0.11)">
       <use xlink:href="#ArialMT-48"/>
       <use x="55.615234" xlink:href="#ArialMT-46"/>
       <use x="83.398438" xlink:href="#ArialMT-53"/>
       <use x="139.013672" xlink:href="#ArialMT-48"/>
      </g>
     </g>
    </g>
    <g id="xtick_4">
     <g id="line2d_4">
      <path clip-path="url(#p460a90be87)" d="M 762.75 157.5 
L 762.75 21.6 
" style="fill:none;stroke:#ffffff;stroke-linecap:round;"/>
     </g>
     <g id="text_7">
      <!-- 0.75 -->
      <defs>
       <path d="M 4.734375 62.203125 
L 4.734375 70.65625 
L 51.078125 70.65625 
L 51.078125 63.8125 
Q 44.234375 56.546875 37.515625 44.484375 
Q 30.8125 32.421875 27.15625 19.671875 
Q 24.515625 10.6875 23.78125 0 
L 14.75 0 
Q 14.890625 8.453125 18.0625 20.40625 
Q 21.234375 32.375 27.171875 43.484375 
Q 33.109375 54.59375 39.796875 62.203125 
z
" id="ArialMT-55"/>
      </defs>
      <g style="fill:#262626;" transform="translate(752.046484 174.873594)scale(0.11 -0.11)">
       <use xlink:href="#ArialMT-48"/>
       <use x="55.615234" xlink:href="#ArialMT-46"/>
       <use x="83.398438" xlink:href="#ArialMT-55"/>
       <use x="139.013672" xlink:href="#ArialMT-53"/>
      </g>
     </g>
    </g>
    <g id="xtick_5">
     <g id="line2d_5">
      <path clip-path="url(#p460a90be87)" d="M 798.827586 157.5 
L 798.827586 21.6 
" style="fill:none;stroke:#ffffff;stroke-linecap:round;"/>
     </g>
     <g id="text_8">
      <!-- 1.00 -->
      <g style="fill:#262626;" transform="translate(788.124071 174.873594)scale(0.11 -0.11)">
       <use xlink:href="#ArialMT-49"/>
       <use x="55.615234" xlink:href="#ArialMT-46"/>
       <use x="83.398438" xlink:href="#ArialMT-48"/>
       <use x="139.013672" xlink:href="#ArialMT-48"/>
      </g>
     </g>
    </g>
   </g>
   <g id="matplotlib.axis_2">
    <g id="ytick_1">
     <g id="line2d_6">
      <path clip-path="url(#p460a90be87)" d="M 654.517241 157.5 
L 798.827586 157.5 
" style="fill:none;stroke:#ffffff;stroke-linecap:round;"/>
     </g>
     <g id="text_9">
      <!-- 0.0 -->
      <g style="fill:#262626;" transform="translate(629.727241 161.436797)scale(0.11 -0.11)">
       <use xlink:href="#ArialMT-48"/>
       <use x="55.615234" xlink:href="#ArialMT-46"/>
       <use x="83.398438" xlink:href="#ArialMT-48"/>
      </g>
     </g>
    </g>
    <g id="ytick_2">
     <g id="line2d_7">
      <path clip-path="url(#p460a90be87)" d="M 654.517241 130.32 
L 798.827586 130.32 
" style="fill:none;stroke:#ffffff;stroke-linecap:round;"/>
     </g>
     <g id="text_10">
      <!-- 0.2 -->
      <g style="fill:#262626;" transform="translate(629.727241 134.256797)scale(0.11 -0.11)">
       <use xlink:href="#ArialMT-48"/>
       <use x="55.615234" xlink:href="#ArialMT-46"/>
       <use x="83.398438" xlink:href="#ArialMT-50"/>
      </g>
     </g>
    </g>
    <g id="ytick_3">
     <g id="line2d_8">
      <path clip-path="url(#p460a90be87)" d="M 654.517241 103.14 
L 798.827586 103.14 
" style="fill:none;stroke:#ffffff;stroke-linecap:round;"/>
     </g>
     <g id="text_11">
      <!-- 0.4 -->
      <defs>
       <path d="M 32.328125 0 
L 32.328125 17.140625 
L 1.265625 17.140625 
L 1.265625 25.203125 
L 33.9375 71.578125 
L 41.109375 71.578125 
L 41.109375 25.203125 
L 50.78125 25.203125 
L 50.78125 17.140625 
L 41.109375 17.140625 
L 41.109375 0 
z
M 32.328125 25.203125 
L 32.328125 57.46875 
L 9.90625 25.203125 
z
" id="ArialMT-52"/>
      </defs>
      <g style="fill:#262626;" transform="translate(629.727241 107.076797)scale(0.11 -0.11)">
       <use xlink:href="#ArialMT-48"/>
       <use x="55.615234" xlink:href="#ArialMT-46"/>
       <use x="83.398438" xlink:href="#ArialMT-52"/>
      </g>
     </g>
    </g>
    <g id="ytick_4">
     <g id="line2d_9">
      <path clip-path="url(#p460a90be87)" d="M 654.517241 75.96 
L 798.827586 75.96 
" style="fill:none;stroke:#ffffff;stroke-linecap:round;"/>
     </g>
     <g id="text_12">
      <!-- 0.6 -->
      <g style="fill:#262626;" transform="translate(629.727241 79.896797)scale(0.11 -0.11)">
       <use xlink:href="#ArialMT-48"/>
       <use x="55.615234" xlink:href="#ArialMT-46"/>
       <use x="83.398438" xlink:href="#ArialMT-54"/>
      </g>
     </g>
    </g>
    <g id="ytick_5">
     <g id="line2d_10">
      <path clip-path="url(#p460a90be87)" d="M 654.517241 48.78 
L 798.827586 48.78 
" style="fill:none;stroke:#ffffff;stroke-linecap:round;"/>
     </g>
     <g id="text_13">
      <!-- 0.8 -->
      <g style="fill:#262626;" transform="translate(629.727241 52.716797)scale(0.11 -0.11)">
       <use xlink:href="#ArialMT-48"/>
       <use x="55.615234" xlink:href="#ArialMT-46"/>
       <use x="83.398438" xlink:href="#ArialMT-56"/>
      </g>
     </g>
    </g>
    <g id="ytick_6">
     <g id="line2d_11">
      <path clip-path="url(#p460a90be87)" d="M 654.517241 21.6 
L 798.827586 21.6 
" style="fill:none;stroke:#ffffff;stroke-linecap:round;"/>
     </g>
     <g id="text_14">
      <!-- 1.0 -->
      <g style="fill:#262626;" transform="translate(629.727241 25.536797)scale(0.11 -0.11)">
       <use xlink:href="#ArialMT-49"/>
       <use x="55.615234" xlink:href="#ArialMT-46"/>
       <use x="83.398438" xlink:href="#ArialMT-48"/>
      </g>
     </g>
    </g>
   </g>
   <g id="patch_63">
    <path d="M 654.517241 157.5 
L 654.517241 21.6 
" style="fill:none;stroke:#ffffff;stroke-linecap:square;stroke-linejoin:miter;stroke-width:1.25;"/>
   </g>
   <g id="patch_64">
    <path d="M 798.827586 157.5 
L 798.827586 21.6 
" style="fill:none;stroke:#ffffff;stroke-linecap:square;stroke-linejoin:miter;stroke-width:1.25;"/>
   </g>
   <g id="patch_65">
    <path d="M 654.517241 157.5 
L 798.827586 157.5 
" style="fill:none;stroke:#ffffff;stroke-linecap:square;stroke-linejoin:miter;stroke-width:1.25;"/>
   </g>
   <g id="patch_66">
    <path d="M 654.517241 21.6 
L 798.827586 21.6 
" style="fill:none;stroke:#ffffff;stroke-linecap:square;stroke-linejoin:miter;stroke-width:1.25;"/>
   </g>
  </g>
  <g id="axes_5">
   <g id="patch_67">
    <path d="M 827.689655 157.5 
L 972 157.5 
L 972 21.6 
L 827.689655 21.6 
z
" style="fill:#eaeaf2;"/>
   </g>
   <g id="matplotlib.axis_3">
    <g id="xtick_6">
     <g id="line2d_12">
      <path clip-path="url(#pb3fbd009cd)" d="M 827.689655 157.5 
L 827.689655 21.6 
" style="fill:none;stroke:#ffffff;stroke-linecap:round;"/>
     </g>
     <g id="text_15">
      <!-- 0.00 -->
      <g style="fill:#262626;" transform="translate(816.98614 174.873594)scale(0.11 -0.11)">
       <use xlink:href="#ArialMT-48"/>
       <use x="55.615234" xlink:href="#ArialMT-46"/>
       <use x="83.398438" xlink:href="#ArialMT-48"/>
       <use x="139.013672" xlink:href="#ArialMT-48"/>
      </g>
     </g>
    </g>
    <g id="xtick_7">
     <g id="line2d_13">
      <path clip-path="url(#pb3fbd009cd)" d="M 863.767241 157.5 
L 863.767241 21.6 
" style="fill:none;stroke:#ffffff;stroke-linecap:round;"/>
     </g>
     <g id="text_16">
      <!-- 0.25 -->
      <g style="fill:#262626;" transform="translate(853.063726 174.873594)scale(0.11 -0.11)">
       <use xlink:href="#ArialMT-48"/>
       <use x="55.615234" xlink:href="#ArialMT-46"/>
       <use x="83.398438" xlink:href="#ArialMT-50"/>
       <use x="139.013672" xlink:href="#ArialMT-53"/>
      </g>
     </g>
    </g>
    <g id="xtick_8">
     <g id="line2d_14">
      <path clip-path="url(#pb3fbd009cd)" d="M 899.844828 157.5 
L 899.844828 21.6 
" style="fill:none;stroke:#ffffff;stroke-linecap:round;"/>
     </g>
     <g id="text_17">
      <!-- 0.50 -->
      <g style="fill:#262626;" transform="translate(889.141312 174.873594)scale(0.11 -0.11)">
       <use xlink:href="#ArialMT-48"/>
       <use x="55.615234" xlink:href="#ArialMT-46"/>
       <use x="83.398438" xlink:href="#ArialMT-53"/>
       <use x="139.013672" xlink:href="#ArialMT-48"/>
      </g>
     </g>
    </g>
    <g id="xtick_9">
     <g id="line2d_15">
      <path clip-path="url(#pb3fbd009cd)" d="M 935.922414 157.5 
L 935.922414 21.6 
" style="fill:none;stroke:#ffffff;stroke-linecap:round;"/>
     </g>
     <g id="text_18">
      <!-- 0.75 -->
      <g style="fill:#262626;" transform="translate(925.218898 174.873594)scale(0.11 -0.11)">
       <use xlink:href="#ArialMT-48"/>
       <use x="55.615234" xlink:href="#ArialMT-46"/>
       <use x="83.398438" xlink:href="#ArialMT-55"/>
       <use x="139.013672" xlink:href="#ArialMT-53"/>
      </g>
     </g>
    </g>
    <g id="xtick_10">
     <g id="line2d_16">
      <path clip-path="url(#pb3fbd009cd)" d="M 972 157.5 
L 972 21.6 
" style="fill:none;stroke:#ffffff;stroke-linecap:round;"/>
     </g>
     <g id="text_19">
      <!-- 1.00 -->
      <g style="fill:#262626;" transform="translate(961.296484 174.873594)scale(0.11 -0.11)">
       <use xlink:href="#ArialMT-49"/>
       <use x="55.615234" xlink:href="#ArialMT-46"/>
       <use x="83.398438" xlink:href="#ArialMT-48"/>
       <use x="139.013672" xlink:href="#ArialMT-48"/>
      </g>
     </g>
    </g>
   </g>
   <g id="matplotlib.axis_4">
    <g id="ytick_7">
     <g id="line2d_17">
      <path clip-path="url(#pb3fbd009cd)" d="M 827.689655 157.5 
L 972 157.5 
" style="fill:none;stroke:#ffffff;stroke-linecap:round;"/>
     </g>
     <g id="text_20">
      <!-- 0.0 -->
      <g style="fill:#262626;" transform="translate(802.899655 161.436797)scale(0.11 -0.11)">
       <use xlink:href="#ArialMT-48"/>
       <use x="55.615234" xlink:href="#ArialMT-46"/>
       <use x="83.398438" xlink:href="#ArialMT-48"/>
      </g>
     </g>
    </g>
    <g id="ytick_8">
     <g id="line2d_18">
      <path clip-path="url(#pb3fbd009cd)" d="M 827.689655 130.32 
L 972 130.32 
" style="fill:none;stroke:#ffffff;stroke-linecap:round;"/>
     </g>
     <g id="text_21">
      <!-- 0.2 -->
      <g style="fill:#262626;" transform="translate(802.899655 134.256797)scale(0.11 -0.11)">
       <use xlink:href="#ArialMT-48"/>
       <use x="55.615234" xlink:href="#ArialMT-46"/>
       <use x="83.398438" xlink:href="#ArialMT-50"/>
      </g>
     </g>
    </g>
    <g id="ytick_9">
     <g id="line2d_19">
      <path clip-path="url(#pb3fbd009cd)" d="M 827.689655 103.14 
L 972 103.14 
" style="fill:none;stroke:#ffffff;stroke-linecap:round;"/>
     </g>
     <g id="text_22">
      <!-- 0.4 -->
      <g style="fill:#262626;" transform="translate(802.899655 107.076797)scale(0.11 -0.11)">
       <use xlink:href="#ArialMT-48"/>
       <use x="55.615234" xlink:href="#ArialMT-46"/>
       <use x="83.398438" xlink:href="#ArialMT-52"/>
      </g>
     </g>
    </g>
    <g id="ytick_10">
     <g id="line2d_20">
      <path clip-path="url(#pb3fbd009cd)" d="M 827.689655 75.96 
L 972 75.96 
" style="fill:none;stroke:#ffffff;stroke-linecap:round;"/>
     </g>
     <g id="text_23">
      <!-- 0.6 -->
      <g style="fill:#262626;" transform="translate(802.899655 79.896797)scale(0.11 -0.11)">
       <use xlink:href="#ArialMT-48"/>
       <use x="55.615234" xlink:href="#ArialMT-46"/>
       <use x="83.398438" xlink:href="#ArialMT-54"/>
      </g>
     </g>
    </g>
    <g id="ytick_11">
     <g id="line2d_21">
      <path clip-path="url(#pb3fbd009cd)" d="M 827.689655 48.78 
L 972 48.78 
" style="fill:none;stroke:#ffffff;stroke-linecap:round;"/>
     </g>
     <g id="text_24">
      <!-- 0.8 -->
      <g style="fill:#262626;" transform="translate(802.899655 52.716797)scale(0.11 -0.11)">
       <use xlink:href="#ArialMT-48"/>
       <use x="55.615234" xlink:href="#ArialMT-46"/>
       <use x="83.398438" xlink:href="#ArialMT-56"/>
      </g>
     </g>
    </g>
    <g id="ytick_12">
     <g id="line2d_22">
      <path clip-path="url(#pb3fbd009cd)" d="M 827.689655 21.6 
L 972 21.6 
" style="fill:none;stroke:#ffffff;stroke-linecap:round;"/>
     </g>
     <g id="text_25">
      <!-- 1.0 -->
      <g style="fill:#262626;" transform="translate(802.899655 25.536797)scale(0.11 -0.11)">
       <use xlink:href="#ArialMT-49"/>
       <use x="55.615234" xlink:href="#ArialMT-46"/>
       <use x="83.398438" xlink:href="#ArialMT-48"/>
      </g>
     </g>
    </g>
   </g>
   <g id="patch_68">
    <path d="M 827.689655 157.5 
L 827.689655 21.6 
" style="fill:none;stroke:#ffffff;stroke-linecap:square;stroke-linejoin:miter;stroke-width:1.25;"/>
   </g>
   <g id="patch_69">
    <path d="M 972 157.5 
L 972 21.6 
" style="fill:none;stroke:#ffffff;stroke-linecap:square;stroke-linejoin:miter;stroke-width:1.25;"/>
   </g>
   <g id="patch_70">
    <path d="M 827.689655 157.5 
L 972 157.5 
" style="fill:none;stroke:#ffffff;stroke-linecap:square;stroke-linejoin:miter;stroke-width:1.25;"/>
   </g>
   <g id="patch_71">
    <path d="M 827.689655 21.6 
L 972 21.6 
" style="fill:none;stroke:#ffffff;stroke-linecap:square;stroke-linejoin:miter;stroke-width:1.25;"/>
   </g>
   <g id="text_26">
    <!-- 7 -->
    <g style="fill:#262626;" transform="translate(896.508265 15.6)scale(0.12 -0.12)">
     <use xlink:href="#ArialMT-55"/>
    </g>
   </g>
  </g>
 </g>
 <defs>
  <clipPath id="p0c054254b6">
   <rect height="135.9" width="144.310345" x="135" y="21.6"/>
  </clipPath>
  <clipPath id="p1ca499afee">
   <rect height="135.9" width="144.310345" x="308.172414" y="21.6"/>
  </clipPath>
  <clipPath id="p8db373a500">
   <rect height="135.9" width="144.310345" x="481.344828" y="21.6"/>
  </clipPath>
  <clipPath id="p460a90be87">
   <rect height="135.9" width="144.310345" x="654.517241" y="21.6"/>
  </clipPath>
  <clipPath id="pb3fbd009cd">
   <rect height="135.9" width="144.310345" x="827.689655" y="21.6"/>
  </clipPath>
 </defs>
</svg>
