<?xml version="1.0" encoding="utf-8" standalone="no"?>
<!DOCTYPE svg PUBLIC "-//W3C//DTD SVG 1.1//EN"
  "http://www.w3.org/Graphics/SVG/1.1/DTD/svg11.dtd">
<!-- Created with matplotlib (https://matplotlib.org/) -->
<svg height="180pt" version="1.1" viewBox="0 0 1080 180" width="1080pt" xmlns="http://www.w3.org/2000/svg" xmlns:xlink="http://www.w3.org/1999/xlink">
 <defs>
  <style type="text/css">
*{stroke-linecap:butt;stroke-linejoin:round;}
  </style>
 </defs>
 <g id="figure_1">
  <g id="patch_1">
   <path d="M 0 180 
L 1080 180 
L 1080 0 
L 0 0 
z
" style="fill:#ffffff;"/>
  </g>
  <g id="axes_1">
   <g id="patch_2">
    <path d="M 135 157.5 
L 279.310345 157.5 
L 279.310345 21.6 
L 135 21.6 
z
" style="fill:#ffffff;"/>
   </g>
   <g id="patch_3">
    <path clip-path="url(#p8be0eb604f)" d="M 183.87931 102.133333 
L 172.241379 102.133333 
" style="stroke:#000000;stroke-linejoin:miter;stroke-width:0.5;"/>
   </g>
   <g id="patch_4">
    <path clip-path="url(#p8be0eb604f)" d="M 195.517241 102.133333 
L 183.87931 102.133333 
" style="stroke:#000000;stroke-linejoin:miter;stroke-width:0.5;"/>
   </g>
   <g id="patch_5">
    <path clip-path="url(#p8be0eb604f)" d="M 207.155172 102.133333 
L 195.517241 102.133333 
" style="stroke:#000000;stroke-linejoin:miter;stroke-width:0.5;"/>
   </g>
   <g id="patch_6">
    <path clip-path="url(#p8be0eb604f)" d="M 218.793103 89.55 
L 207.155172 102.133333 
" style="stroke:#000000;stroke-linejoin:miter;stroke-width:0.5;"/>
   </g>
   <g id="patch_7">
    <path clip-path="url(#p8be0eb604f)" d="M 195.517241 76.966667 
L 183.87931 76.966667 
" style="stroke:#000000;stroke-linejoin:miter;stroke-width:0.5;"/>
   </g>
   <g id="patch_8">
    <path clip-path="url(#p8be0eb604f)" d="M 207.155172 76.966667 
L 195.517241 76.966667 
" style="stroke:#000000;stroke-linejoin:miter;stroke-width:0.5;"/>
   </g>
   <g id="patch_9">
    <path clip-path="url(#p8be0eb604f)" d="M 218.793103 89.55 
L 207.155172 76.966667 
" style="stroke:#000000;stroke-linejoin:miter;stroke-width:0.5;"/>
   </g>
   <g id="patch_10">
    <path clip-path="url(#p8be0eb604f)" d="M 230.431034 89.55 
L 218.793103 89.55 
" style="stroke:#000000;stroke-linejoin:miter;stroke-width:0.5;"/>
   </g>
   <g id="patch_11">
    <path clip-path="url(#p8be0eb604f)" d="M 242.068966 89.55 
L 230.431034 89.55 
" style="stroke:#000000;stroke-linejoin:miter;stroke-width:0.5;"/>
   </g>
   <g id="daad902b7232483da32cc9717d18a497-1-node">
    <path clip-path="url(#p8be0eb604f)" d="M 243.931034 85.523333 
L 243.931034 93.576667 
L 240.206897 93.576667 
L 240.206897 85.523333 
L 243.931034 85.523333 
z
" style="fill:#0000ff;stroke:#ffffff;stroke-linejoin:miter;stroke-width:0.5;"/>
   </g>
   <g id="daad902b7232483da32cc9717d18a497-3-node">
    <path clip-path="url(#p8be0eb604f)" d="M 232.293103 85.523333 
L 232.293103 93.576667 
L 228.568966 93.576667 
L 228.568966 85.523333 
L 232.293103 85.523333 
z
" style="fill:#0000ff;stroke:#ffffff;stroke-linejoin:miter;stroke-width:0.5;"/>
   </g>
   <g id="daad902b7232483da32cc9717d18a497-5-node">
    <path clip-path="url(#p8be0eb604f)" d="M 218.793103 93.576667 
C 219.28693 93.576667 219.760597 93.152392 220.109785 92.397283 
C 220.458973 91.642175 220.655172 90.617884 220.655172 89.55 
C 220.655172 88.482116 220.458973 87.457825 220.109785 86.702717 
C 219.760597 85.947608 219.28693 85.523333 218.793103 85.523333 
C 218.299277 85.523333 217.82561 85.947608 217.476422 86.702717 
C 217.127234 87.457825 216.931034 88.482116 216.931034 89.55 
C 216.931034 90.617884 217.127234 91.642175 217.476422 92.397283 
C 217.82561 93.152392 218.299277 93.576667 218.793103 93.576667 
z
" style="fill:#00c832;stroke:#ffffff;stroke-linejoin:miter;stroke-width:0.5;"/>
   </g>
   <g id="daad902b7232483da32cc9717d18a497-10-node">
    <path clip-path="url(#p8be0eb604f)" d="M 207.155172 106.16 
C 207.648999 106.16 208.122666 105.735725 208.471854 104.980617 
C 208.821042 104.225508 209.017241 103.201218 209.017241 102.133333 
C 209.017241 101.065449 208.821042 100.041158 208.471854 99.28605 
C 208.122666 98.530942 207.648999 98.106667 207.155172 98.106667 
C 206.661346 98.106667 206.187679 98.530942 205.838491 99.28605 
C 205.489303 100.041158 205.293103 101.065449 205.293103 102.133333 
C 205.293103 103.201218 205.489303 104.225508 205.838491 104.980617 
C 206.187679 105.735725 206.661346 106.16 207.155172 106.16 
z
" style="fill:#00c832;stroke:#ffffff;stroke-linejoin:miter;stroke-width:0.5;"/>
   </g>
   <g id="daad902b7232483da32cc9717d18a497-11-node">
    <path clip-path="url(#p8be0eb604f)" d="M 197.37931 98.106667 
L 197.37931 106.16 
L 193.655172 106.16 
L 193.655172 98.106667 
L 197.37931 98.106667 
z
" style="fill:#0000ff;stroke:#ffffff;stroke-linejoin:miter;stroke-width:0.5;"/>
   </g>
   <g id="daad902b7232483da32cc9717d18a497-13-node">
    <path clip-path="url(#p8be0eb604f)" d="M 183.87931 106.16 
C 184.373137 106.16 184.846804 105.735725 185.195992 104.980617 
C 185.54518 104.225508 185.741379 103.201218 185.741379 102.133333 
C 185.741379 101.065449 185.54518 100.041158 185.195992 99.28605 
C 184.846804 98.530942 184.373137 98.106667 183.87931 98.106667 
C 183.385484 98.106667 182.911817 98.530942 182.562629 99.28605 
C 182.213441 100.041158 182.017241 101.065449 182.017241 102.133333 
C 182.017241 103.201218 182.213441 104.225508 182.562629 104.980617 
C 182.911817 105.735725 183.385484 106.16 183.87931 106.16 
z
" style="fill:#ffff00;stroke:#ffffff;stroke-linejoin:miter;stroke-width:0.5;"/>
   </g>
   <g id="daad902b7232483da32cc9717d18a497-14-node">
    <path clip-path="url(#p8be0eb604f)" d="M 174.103448 98.106667 
L 174.103448 106.16 
L 170.37931 106.16 
L 170.37931 98.106667 
L 174.103448 98.106667 
z
" style="fill:#0000ff;stroke:#ffffff;stroke-linejoin:miter;stroke-width:0.5;"/>
   </g>
   <g id="daad902b7232483da32cc9717d18a497-6-node">
    <path clip-path="url(#p8be0eb604f)" d="M 207.155172 80.993333 
C 207.648999 80.993333 208.122666 80.569058 208.471854 79.81395 
C 208.821042 79.058842 209.017241 78.034551 209.017241 76.966667 
C 209.017241 75.898782 208.821042 74.874492 208.471854 74.119383 
C 208.122666 73.364275 207.648999 72.94 207.155172 72.94 
C 206.661346 72.94 206.187679 73.364275 205.838491 74.119383 
C 205.489303 74.874492 205.293103 75.898782 205.293103 76.966667 
C 205.293103 78.034551 205.489303 79.058842 205.838491 79.81395 
C 206.187679 80.569058 206.661346 80.993333 207.155172 80.993333 
z
" style="fill:#00c832;stroke:#ffffff;stroke-linejoin:miter;stroke-width:0.5;"/>
   </g>
   <g id="daad902b7232483da32cc9717d18a497-7-node">
    <path clip-path="url(#p8be0eb604f)" d="M 197.37931 72.94 
L 197.37931 80.993333 
L 193.655172 80.993333 
L 193.655172 72.94 
L 197.37931 72.94 
z
" style="fill:#0000ff;stroke:#ffffff;stroke-linejoin:miter;stroke-width:0.5;"/>
   </g>
   <g id="daad902b7232483da32cc9717d18a497-9-node">
    <path clip-path="url(#p8be0eb604f)" d="M 183.87931 80.993333 
C 184.373137 80.993333 184.846804 80.569058 185.195992 79.81395 
C 185.54518 79.058842 185.741379 78.034551 185.741379 76.966667 
C 185.741379 75.898782 185.54518 74.874492 185.195992 74.119383 
C 184.846804 73.364275 184.373137 72.94 183.87931 72.94 
C 183.385484 72.94 182.911817 73.364275 182.562629 74.119383 
C 182.213441 74.874492 182.017241 75.898782 182.017241 76.966667 
C 182.017241 78.034551 182.213441 79.058842 182.562629 79.81395 
C 182.911817 80.569058 183.385484 80.993333 183.87931 80.993333 
z
" style="fill:#ffff00;stroke:#ffffff;stroke-linejoin:miter;stroke-width:0.5;"/>
   </g>
   <g id="patch_12">
    <path d="M 135 157.5 
L 135 21.6 
" style="fill:none;stroke:#ffffff;stroke-linecap:square;stroke-linejoin:miter;stroke-width:1.25;"/>
   </g>
   <g id="patch_13">
    <path d="M 279.310345 157.5 
L 279.310345 21.6 
" style="fill:none;stroke:#ffffff;stroke-linecap:square;stroke-linejoin:miter;stroke-width:1.25;"/>
   </g>
   <g id="patch_14">
    <path d="M 135 157.5 
L 279.310345 157.5 
" style="fill:none;stroke:#ffffff;stroke-linecap:square;stroke-linejoin:miter;stroke-width:1.25;"/>
   </g>
   <g id="patch_15">
    <path d="M 135 21.6 
L 279.310345 21.6 
" style="fill:none;stroke:#ffffff;stroke-linecap:square;stroke-linejoin:miter;stroke-width:1.25;"/>
   </g>
   <g id="text_1">
    <!-- 322:2.0 -->
    <defs>
     <path d="M 4.203125 18.890625 
L 12.984375 20.0625 
Q 14.5 12.59375 18.140625 9.296875 
Q 21.78125 6 27 6 
Q 33.203125 6 37.46875 10.296875 
Q 41.75 14.59375 41.75 20.953125 
Q 41.75 27 37.796875 30.921875 
Q 33.84375 34.859375 27.734375 34.859375 
Q 25.25 34.859375 21.53125 33.890625 
L 22.515625 41.609375 
Q 23.390625 41.5 23.921875 41.5 
Q 29.546875 41.5 34.03125 44.421875 
Q 38.53125 47.359375 38.53125 53.46875 
Q 38.53125 58.296875 35.25 61.46875 
Q 31.984375 64.65625 26.8125 64.65625 
Q 21.6875 64.65625 18.265625 61.421875 
Q 14.84375 58.203125 13.875 51.765625 
L 5.078125 53.328125 
Q 6.6875 62.15625 12.390625 67.015625 
Q 18.109375 71.875 26.609375 71.875 
Q 32.46875 71.875 37.390625 69.359375 
Q 42.328125 66.84375 44.9375 62.5 
Q 47.5625 58.15625 47.5625 53.265625 
Q 47.5625 48.640625 45.0625 44.828125 
Q 42.578125 41.015625 37.703125 38.765625 
Q 44.046875 37.3125 47.5625 32.6875 
Q 51.078125 28.078125 51.078125 21.140625 
Q 51.078125 11.765625 44.234375 5.25 
Q 37.40625 -1.265625 26.953125 -1.265625 
Q 17.53125 -1.265625 11.296875 4.34375 
Q 5.078125 9.96875 4.203125 18.890625 
z
" id="ArialMT-51"/>
     <path d="M 50.34375 8.453125 
L 50.34375 0 
L 3.03125 0 
Q 2.9375 3.171875 4.046875 6.109375 
Q 5.859375 10.9375 9.828125 15.625 
Q 13.8125 20.3125 21.34375 26.46875 
Q 33.015625 36.03125 37.109375 41.625 
Q 41.21875 47.21875 41.21875 52.203125 
Q 41.21875 57.421875 37.46875 61 
Q 33.734375 64.59375 27.734375 64.59375 
Q 21.390625 64.59375 17.578125 60.78125 
Q 13.765625 56.984375 13.71875 50.25 
L 4.6875 51.171875 
Q 5.609375 61.28125 11.65625 66.578125 
Q 17.71875 71.875 27.9375 71.875 
Q 38.234375 71.875 44.234375 66.15625 
Q 50.25 60.453125 50.25 52 
Q 50.25 47.703125 48.484375 43.546875 
Q 46.734375 39.40625 42.65625 34.8125 
Q 38.578125 30.21875 29.109375 22.21875 
Q 21.1875 15.578125 18.9375 13.203125 
Q 16.703125 10.84375 15.234375 8.453125 
z
" id="ArialMT-50"/>
     <path d="M 9.03125 41.84375 
L 9.03125 51.859375 
L 19.046875 51.859375 
L 19.046875 41.84375 
z
M 9.03125 0 
L 9.03125 10.015625 
L 19.046875 10.015625 
L 19.046875 0 
z
" id="ArialMT-58"/>
     <path d="M 9.078125 0 
L 9.078125 10.015625 
L 19.09375 10.015625 
L 19.09375 0 
z
" id="ArialMT-46"/>
     <path d="M 4.15625 35.296875 
Q 4.15625 48 6.765625 55.734375 
Q 9.375 63.484375 14.515625 67.671875 
Q 19.671875 71.875 27.484375 71.875 
Q 33.25 71.875 37.59375 69.546875 
Q 41.9375 67.234375 44.765625 62.859375 
Q 47.609375 58.5 49.21875 52.21875 
Q 50.828125 45.953125 50.828125 35.296875 
Q 50.828125 22.703125 48.234375 14.96875 
Q 45.65625 7.234375 40.5 3 
Q 35.359375 -1.21875 27.484375 -1.21875 
Q 17.140625 -1.21875 11.234375 6.203125 
Q 4.15625 15.140625 4.15625 35.296875 
z
M 13.1875 35.296875 
Q 13.1875 17.671875 17.3125 11.828125 
Q 21.4375 6 27.484375 6 
Q 33.546875 6 37.671875 11.859375 
Q 41.796875 17.71875 41.796875 35.296875 
Q 41.796875 52.984375 37.671875 58.78125 
Q 33.546875 64.59375 27.390625 64.59375 
Q 21.34375 64.59375 17.71875 59.46875 
Q 13.1875 52.9375 13.1875 35.296875 
z
" id="ArialMT-48"/>
    </defs>
    <g style="fill:#262626;" transform="translate(187.13861 15.6)scale(0.12 -0.12)">
     <use xlink:href="#ArialMT-51"/>
     <use x="55.615234" xlink:href="#ArialMT-50"/>
     <use x="111.230469" xlink:href="#ArialMT-50"/>
     <use x="166.845703" xlink:href="#ArialMT-58"/>
     <use x="194.628906" xlink:href="#ArialMT-50"/>
     <use x="250.244141" xlink:href="#ArialMT-46"/>
     <use x="278.027344" xlink:href="#ArialMT-48"/>
    </g>
   </g>
  </g>
  <g id="axes_2">
   <g id="patch_16">
    <path d="M 308.172414 157.5 
L 452.482759 157.5 
L 452.482759 21.6 
L 308.172414 21.6 
z
" style="fill:#ffffff;"/>
   </g>
   <g id="patch_17">
    <path clip-path="url(#p409308ff16)" d="M 354.184408 102.133333 
L 343.727136 102.133333 
" style="stroke:#000000;stroke-linejoin:miter;stroke-width:0.5;"/>
   </g>
   <g id="patch_18">
    <path clip-path="url(#p409308ff16)" d="M 364.641679 102.133333 
L 354.184408 102.133333 
" style="stroke:#000000;stroke-linejoin:miter;stroke-width:0.5;"/>
   </g>
   <g id="patch_19">
    <path clip-path="url(#p409308ff16)" d="M 375.098951 102.133333 
L 364.641679 102.133333 
" style="stroke:#000000;stroke-linejoin:miter;stroke-width:0.5;"/>
   </g>
   <g id="patch_20">
    <path clip-path="url(#p409308ff16)" d="M 385.556222 102.133333 
L 375.098951 102.133333 
" style="stroke:#000000;stroke-linejoin:miter;stroke-width:0.5;"/>
   </g>
   <g id="patch_21">
    <path clip-path="url(#p409308ff16)" d="M 396.013493 89.55 
L 385.556222 102.133333 
" style="stroke:#000000;stroke-linejoin:miter;stroke-width:0.5;"/>
   </g>
   <g id="patch_22">
    <path clip-path="url(#p409308ff16)" d="M 375.098951 76.966667 
L 364.641679 76.966667 
" style="stroke:#000000;stroke-linejoin:miter;stroke-width:0.5;"/>
   </g>
   <g id="patch_23">
    <path clip-path="url(#p409308ff16)" d="M 385.556222 76.966667 
L 375.098951 76.966667 
" style="stroke:#000000;stroke-linejoin:miter;stroke-width:0.5;"/>
   </g>
   <g id="patch_24">
    <path clip-path="url(#p409308ff16)" d="M 396.013493 89.55 
L 385.556222 76.966667 
" style="stroke:#000000;stroke-linejoin:miter;stroke-width:0.5;"/>
   </g>
   <g id="patch_25">
    <path clip-path="url(#p409308ff16)" d="M 406.470765 89.55 
L 396.013493 89.55 
" style="stroke:#000000;stroke-linejoin:miter;stroke-width:0.5;"/>
   </g>
   <g id="patch_26">
    <path clip-path="url(#p409308ff16)" d="M 416.928036 89.55 
L 406.470765 89.55 
" style="stroke:#000000;stroke-linejoin:miter;stroke-width:0.5;"/>
   </g>
   <g id="0916fd07de284bc184c167989a24a8aa-1-node">
    <path clip-path="url(#p409308ff16)" d="M 418.601199 85.523333 
L 418.601199 93.576667 
L 415.254873 93.576667 
L 415.254873 85.523333 
L 418.601199 85.523333 
z
" style="fill:#0000ff;stroke:#ffffff;stroke-linejoin:miter;stroke-width:0.5;"/>
   </g>
   <g id="0916fd07de284bc184c167989a24a8aa-3-node">
    <path clip-path="url(#p409308ff16)" d="M 408.143928 85.523333 
L 408.143928 93.576667 
L 404.797601 93.576667 
L 404.797601 85.523333 
L 408.143928 85.523333 
z
" style="fill:#0000ff;stroke:#ffffff;stroke-linejoin:miter;stroke-width:0.5;"/>
   </g>
   <g id="0916fd07de284bc184c167989a24a8aa-5-node">
    <path clip-path="url(#p409308ff16)" d="M 396.013493 93.576667 
C 396.457221 93.576667 396.882835 93.152392 397.196598 92.397283 
C 397.510362 91.642175 397.686657 90.617884 397.686657 89.55 
C 397.686657 88.482116 397.510362 87.457825 397.196598 86.702717 
C 396.882835 85.947608 396.457221 85.523333 396.013493 85.523333 
C 395.569765 85.523333 395.144151 85.947608 394.830388 86.702717 
C 394.516625 87.457825 394.34033 88.482116 394.34033 89.55 
C 394.34033 90.617884 394.516625 91.642175 394.830388 92.397283 
C 395.144151 93.152392 395.569765 93.576667 396.013493 93.576667 
z
" style="fill:#00c832;stroke:#ffffff;stroke-linejoin:miter;stroke-width:0.5;"/>
   </g>
   <g id="0916fd07de284bc184c167989a24a8aa-10-node">
    <path clip-path="url(#p409308ff16)" d="M 385.556222 106.16 
C 385.99995 106.16 386.425564 105.735725 386.739327 104.980617 
C 387.05309 104.225508 387.229385 103.201218 387.229385 102.133333 
C 387.229385 101.065449 387.05309 100.041158 386.739327 99.28605 
C 386.425564 98.530942 385.99995 98.106667 385.556222 98.106667 
C 385.112494 98.106667 384.68688 98.530942 384.373117 99.28605 
C 384.059354 100.041158 383.883058 101.065449 383.883058 102.133333 
C 383.883058 103.201218 384.059354 104.225508 384.373117 104.980617 
C 384.68688 105.735725 385.112494 106.16 385.556222 106.16 
z
" style="fill:#00c832;stroke:#ffffff;stroke-linejoin:miter;stroke-width:0.5;"/>
   </g>
   <g id="0916fd07de284bc184c167989a24a8aa-11-node">
    <path clip-path="url(#p409308ff16)" d="M 376.772114 98.106667 
L 376.772114 106.16 
L 373.425787 106.16 
L 373.425787 98.106667 
L 376.772114 98.106667 
z
" style="fill:#0000ff;stroke:#ffffff;stroke-linejoin:miter;stroke-width:0.5;"/>
   </g>
   <g id="0916fd07de284bc184c167989a24a8aa-13-node">
    <path clip-path="url(#p409308ff16)" d="M 364.641679 106.16 
C 365.085407 106.16 365.511021 105.735725 365.824784 104.980617 
C 366.138548 104.225508 366.314843 103.201218 366.314843 102.133333 
C 366.314843 101.065449 366.138548 100.041158 365.824784 99.28605 
C 365.511021 98.530942 365.085407 98.106667 364.641679 98.106667 
C 364.197951 98.106667 363.772337 98.530942 363.458574 99.28605 
C 363.144811 100.041158 362.968516 101.065449 362.968516 102.133333 
C 362.968516 103.201218 363.144811 104.225508 363.458574 104.980617 
C 363.772337 105.735725 364.197951 106.16 364.641679 106.16 
z
" style="fill:#ffff00;stroke:#ffffff;stroke-linejoin:miter;stroke-width:0.5;"/>
   </g>
   <g id="0916fd07de284bc184c167989a24a8aa-14-node">
    <path clip-path="url(#p409308ff16)" d="M 355.857571 98.106667 
L 355.857571 106.16 
L 352.511244 106.16 
L 352.511244 98.106667 
L 355.857571 98.106667 
z
" style="fill:#0000ff;stroke:#ffffff;stroke-linejoin:miter;stroke-width:0.5;"/>
   </g>
   <g id="0916fd07de284bc184c167989a24a8aa-16-node">
    <path clip-path="url(#p409308ff16)" d="M 343.727136 106.16 
C 344.170865 106.16 344.596478 105.735725 344.910242 104.980617 
C 345.224005 104.225508 345.4003 103.201218 345.4003 102.133333 
C 345.4003 101.065449 345.224005 100.041158 344.910242 99.28605 
C 344.596478 98.530942 344.170865 98.106667 343.727136 98.106667 
C 343.283408 98.106667 342.857794 98.530942 342.544031 99.28605 
C 342.230268 100.041158 342.053973 101.065449 342.053973 102.133333 
C 342.053973 103.201218 342.230268 104.225508 342.544031 104.980617 
C 342.857794 105.735725 343.283408 106.16 343.727136 106.16 
z
" style="fill:#ffff00;stroke:#ffffff;stroke-linejoin:miter;stroke-width:0.5;"/>
   </g>
   <g id="0916fd07de284bc184c167989a24a8aa-6-node">
    <path clip-path="url(#p409308ff16)" d="M 385.556222 80.993333 
C 385.99995 80.993333 386.425564 80.569058 386.739327 79.81395 
C 387.05309 79.058842 387.229385 78.034551 387.229385 76.966667 
C 387.229385 75.898782 387.05309 74.874492 386.739327 74.119383 
C 386.425564 73.364275 385.99995 72.94 385.556222 72.94 
C 385.112494 72.94 384.68688 73.364275 384.373117 74.119383 
C 384.059354 74.874492 383.883058 75.898782 383.883058 76.966667 
C 383.883058 78.034551 384.059354 79.058842 384.373117 79.81395 
C 384.68688 80.569058 385.112494 80.993333 385.556222 80.993333 
z
" style="fill:#00c832;stroke:#ffffff;stroke-linejoin:miter;stroke-width:0.5;"/>
   </g>
   <g id="0916fd07de284bc184c167989a24a8aa-7-node">
    <path clip-path="url(#p409308ff16)" d="M 376.772114 72.94 
L 376.772114 80.993333 
L 373.425787 80.993333 
L 373.425787 72.94 
L 376.772114 72.94 
z
" style="fill:#0000ff;stroke:#ffffff;stroke-linejoin:miter;stroke-width:0.5;"/>
   </g>
   <g id="0916fd07de284bc184c167989a24a8aa-9-node">
    <path clip-path="url(#p409308ff16)" d="M 364.641679 80.993333 
C 365.085407 80.993333 365.511021 80.569058 365.824784 79.81395 
C 366.138548 79.058842 366.314843 78.034551 366.314843 76.966667 
C 366.314843 75.898782 366.138548 74.874492 365.824784 74.119383 
C 365.511021 73.364275 365.085407 72.94 364.641679 72.94 
C 364.197951 72.94 363.772337 73.364275 363.458574 74.119383 
C 363.144811 74.874492 362.968516 75.898782 362.968516 76.966667 
C 362.968516 78.034551 363.144811 79.058842 363.458574 79.81395 
C 363.772337 80.569058 364.197951 80.993333 364.641679 80.993333 
z
" style="fill:#ffff00;stroke:#ffffff;stroke-linejoin:miter;stroke-width:0.5;"/>
   </g>
   <g id="patch_27">
    <path d="M 308.172414 157.5 
L 308.172414 21.6 
" style="fill:none;stroke:#ffffff;stroke-linecap:square;stroke-linejoin:miter;stroke-width:1.25;"/>
   </g>
   <g id="patch_28">
    <path d="M 452.482759 157.5 
L 452.482759 21.6 
" style="fill:none;stroke:#ffffff;stroke-linecap:square;stroke-linejoin:miter;stroke-width:1.25;"/>
   </g>
   <g id="patch_29">
    <path d="M 308.172414 157.5 
L 452.482759 157.5 
" style="fill:none;stroke:#ffffff;stroke-linecap:square;stroke-linejoin:miter;stroke-width:1.25;"/>
   </g>
   <g id="patch_30">
    <path d="M 308.172414 21.6 
L 452.482759 21.6 
" style="fill:none;stroke:#ffffff;stroke-linecap:square;stroke-linejoin:miter;stroke-width:1.25;"/>
   </g>
   <g id="text_2">
    <!-- 430:2.0 -->
    <defs>
     <path d="M 32.328125 0 
L 32.328125 17.140625 
L 1.265625 17.140625 
L 1.265625 25.203125 
L 33.9375 71.578125 
L 41.109375 71.578125 
L 41.109375 25.203125 
L 50.78125 25.203125 
L 50.78125 17.140625 
L 41.109375 17.140625 
L 41.109375 0 
z
M 32.328125 25.203125 
L 32.328125 57.46875 
L 9.90625 25.203125 
z
" id="ArialMT-52"/>
    </defs>
    <g style="fill:#262626;" transform="translate(360.311024 15.6)scale(0.12 -0.12)">
     <use xlink:href="#ArialMT-52"/>
     <use x="55.615234" xlink:href="#ArialMT-51"/>
     <use x="111.230469" xlink:href="#ArialMT-48"/>
     <use x="166.845703" xlink:href="#ArialMT-58"/>
     <use x="194.628906" xlink:href="#ArialMT-50"/>
     <use x="250.244141" xlink:href="#ArialMT-46"/>
     <use x="278.027344" xlink:href="#ArialMT-48"/>
    </g>
   </g>
  </g>
  <g id="axes_3">
   <g id="patch_31">
    <path d="M 481.344828 157.5 
L 625.655172 157.5 
L 625.655172 21.6 
L 481.344828 21.6 
z
" style="fill:#ffffff;"/>
   </g>
   <g id="patch_32">
    <path clip-path="url(#pa6d26c3e2c)" d="M 523.07312 102.133333 
L 514.379726 102.133333 
" style="stroke:#000000;stroke-linejoin:miter;stroke-width:0.5;"/>
   </g>
   <g id="patch_33">
    <path clip-path="url(#pa6d26c3e2c)" d="M 531.766514 102.133333 
L 523.07312 102.133333 
" style="stroke:#000000;stroke-linejoin:miter;stroke-width:0.5;"/>
   </g>
   <g id="patch_34">
    <path clip-path="url(#pa6d26c3e2c)" d="M 540.459909 102.133333 
L 531.766514 102.133333 
" style="stroke:#000000;stroke-linejoin:miter;stroke-width:0.5;"/>
   </g>
   <g id="patch_35">
    <path clip-path="url(#pa6d26c3e2c)" d="M 549.153303 102.133333 
L 540.459909 102.133333 
" style="stroke:#000000;stroke-linejoin:miter;stroke-width:0.5;"/>
   </g>
   <g id="patch_36">
    <path clip-path="url(#pa6d26c3e2c)" d="M 557.846697 102.133333 
L 549.153303 102.133333 
" style="stroke:#000000;stroke-linejoin:miter;stroke-width:0.5;"/>
   </g>
   <g id="patch_37">
    <path clip-path="url(#pa6d26c3e2c)" d="M 566.540091 102.133333 
L 557.846697 102.133333 
" style="stroke:#000000;stroke-linejoin:miter;stroke-width:0.5;"/>
   </g>
   <g id="patch_38">
    <path clip-path="url(#pa6d26c3e2c)" d="M 575.233486 89.55 
L 566.540091 102.133333 
" style="stroke:#000000;stroke-linejoin:miter;stroke-width:0.5;"/>
   </g>
   <g id="patch_39">
    <path clip-path="url(#pa6d26c3e2c)" d="M 557.846697 76.966667 
L 549.153303 76.966667 
" style="stroke:#000000;stroke-linejoin:miter;stroke-width:0.5;"/>
   </g>
   <g id="patch_40">
    <path clip-path="url(#pa6d26c3e2c)" d="M 566.540091 76.966667 
L 557.846697 76.966667 
" style="stroke:#000000;stroke-linejoin:miter;stroke-width:0.5;"/>
   </g>
   <g id="patch_41">
    <path clip-path="url(#pa6d26c3e2c)" d="M 575.233486 89.55 
L 566.540091 76.966667 
" style="stroke:#000000;stroke-linejoin:miter;stroke-width:0.5;"/>
   </g>
   <g id="patch_42">
    <path clip-path="url(#pa6d26c3e2c)" d="M 583.92688 89.55 
L 575.233486 89.55 
" style="stroke:#000000;stroke-linejoin:miter;stroke-width:0.5;"/>
   </g>
   <g id="patch_43">
    <path clip-path="url(#pa6d26c3e2c)" d="M 592.620274 89.55 
L 583.92688 89.55 
" style="stroke:#000000;stroke-linejoin:miter;stroke-width:0.5;"/>
   </g>
   <g id="e4242fc5547946f6ae4b117adfe74fb3-1-node">
    <path clip-path="url(#pa6d26c3e2c)" d="M 594.011217 85.523333 
L 594.011217 93.576667 
L 591.229331 93.576667 
L 591.229331 85.523333 
L 594.011217 85.523333 
z
" style="fill:#0000ff;stroke:#ffffff;stroke-linejoin:miter;stroke-width:0.5;"/>
   </g>
   <g id="e4242fc5547946f6ae4b117adfe74fb3-3-node">
    <path clip-path="url(#pa6d26c3e2c)" d="M 585.317823 85.523333 
L 585.317823 93.576667 
L 582.535937 93.576667 
L 582.535937 85.523333 
L 585.317823 85.523333 
z
" style="fill:#0000ff;stroke:#ffffff;stroke-linejoin:miter;stroke-width:0.5;"/>
   </g>
   <g id="e4242fc5547946f6ae4b117adfe74fb3-5-node">
    <path clip-path="url(#pa6d26c3e2c)" d="M 575.233486 93.576667 
C 575.602368 93.576667 575.956192 93.152392 576.217031 92.397283 
C 576.47787 91.642175 576.624429 90.617884 576.624429 89.55 
C 576.624429 88.482116 576.47787 87.457825 576.217031 86.702717 
C 575.956192 85.947608 575.602368 85.523333 575.233486 85.523333 
C 574.864603 85.523333 574.51078 85.947608 574.24994 86.702717 
C 573.989101 87.457825 573.842543 88.482116 573.842543 89.55 
C 573.842543 90.617884 573.989101 91.642175 574.24994 92.397283 
C 574.51078 93.152392 574.864603 93.576667 575.233486 93.576667 
z
" style="fill:#00c832;stroke:#ffffff;stroke-linejoin:miter;stroke-width:0.5;"/>
   </g>
   <g id="e4242fc5547946f6ae4b117adfe74fb3-10-node">
    <path clip-path="url(#pa6d26c3e2c)" d="M 566.540091 106.16 
C 566.908974 106.16 567.262797 105.735725 567.523637 104.980617 
C 567.784476 104.225508 567.931034 103.201218 567.931034 102.133333 
C 567.931034 101.065449 567.784476 100.041158 567.523637 99.28605 
C 567.262797 98.530942 566.908974 98.106667 566.540091 98.106667 
C 566.171209 98.106667 565.817385 98.530942 565.556546 99.28605 
C 565.295707 100.041158 565.149148 101.065449 565.149148 102.133333 
C 565.149148 103.201218 565.295707 104.225508 565.556546 104.980617 
C 565.817385 105.735725 566.171209 106.16 566.540091 106.16 
z
" style="fill:#00c832;stroke:#ffffff;stroke-linejoin:miter;stroke-width:0.5;"/>
   </g>
   <g id="e4242fc5547946f6ae4b117adfe74fb3-11-node">
    <path clip-path="url(#pa6d26c3e2c)" d="M 559.23764 98.106667 
L 559.23764 106.16 
L 556.455754 106.16 
L 556.455754 98.106667 
L 559.23764 98.106667 
z
" style="fill:#0000ff;stroke:#ffffff;stroke-linejoin:miter;stroke-width:0.5;"/>
   </g>
   <g id="e4242fc5547946f6ae4b117adfe74fb3-13-node">
    <path clip-path="url(#pa6d26c3e2c)" d="M 549.153303 106.16 
C 549.522185 106.16 549.876009 105.735725 550.136848 104.980617 
C 550.397687 104.225508 550.544246 103.201218 550.544246 102.133333 
C 550.544246 101.065449 550.397687 100.041158 550.136848 99.28605 
C 549.876009 98.530942 549.522185 98.106667 549.153303 98.106667 
C 548.78442 98.106667 548.430597 98.530942 548.169758 99.28605 
C 547.908918 100.041158 547.76236 101.065449 547.76236 102.133333 
C 547.76236 103.201218 547.908918 104.225508 548.169758 104.980617 
C 548.430597 105.735725 548.78442 106.16 549.153303 106.16 
z
" style="fill:#ffff00;stroke:#ffffff;stroke-linejoin:miter;stroke-width:0.5;"/>
   </g>
   <g id="e4242fc5547946f6ae4b117adfe74fb3-14-node">
    <path clip-path="url(#pa6d26c3e2c)" d="M 541.850852 98.106667 
L 541.850852 106.16 
L 539.068966 106.16 
L 539.068966 98.106667 
L 541.850852 98.106667 
z
" style="fill:#0000ff;stroke:#ffffff;stroke-linejoin:miter;stroke-width:0.5;"/>
   </g>
   <g id="e4242fc5547946f6ae4b117adfe74fb3-16-node">
    <path clip-path="url(#pa6d26c3e2c)" d="M 531.766514 106.16 
C 532.135397 106.16 532.48922 105.735725 532.75006 104.980617 
C 533.010899 104.225508 533.157457 103.201218 533.157457 102.133333 
C 533.157457 101.065449 533.010899 100.041158 532.75006 99.28605 
C 532.48922 98.530942 532.135397 98.106667 531.766514 98.106667 
C 531.397632 98.106667 531.043808 98.530942 530.782969 99.28605 
C 530.52213 100.041158 530.375571 101.065449 530.375571 102.133333 
C 530.375571 103.201218 530.52213 104.225508 530.782969 104.980617 
C 531.043808 105.735725 531.397632 106.16 531.766514 106.16 
z
" style="fill:#ffff00;stroke:#ffffff;stroke-linejoin:miter;stroke-width:0.5;"/>
   </g>
   <g id="e4242fc5547946f6ae4b117adfe74fb3-17-node">
    <path clip-path="url(#pa6d26c3e2c)" d="M 524.464063 98.106667 
L 524.464063 106.16 
L 521.682177 106.16 
L 521.682177 98.106667 
L 524.464063 98.106667 
z
" style="fill:#0000ff;stroke:#ffffff;stroke-linejoin:miter;stroke-width:0.5;"/>
   </g>
   <g id="e4242fc5547946f6ae4b117adfe74fb3-19-node">
    <path clip-path="url(#pa6d26c3e2c)" d="M 514.379726 106.16 
C 514.748608 106.16 515.102432 105.735725 515.363271 104.980617 
C 515.62411 104.225508 515.770669 103.201218 515.770669 102.133333 
C 515.770669 101.065449 515.62411 100.041158 515.363271 99.28605 
C 515.102432 98.530942 514.748608 98.106667 514.379726 98.106667 
C 514.010843 98.106667 513.65702 98.530942 513.396181 99.28605 
C 513.135341 100.041158 512.988783 101.065449 512.988783 102.133333 
C 512.988783 103.201218 513.135341 104.225508 513.396181 104.980617 
C 513.65702 105.735725 514.010843 106.16 514.379726 106.16 
z
" style="fill:#ffff00;stroke:#ffffff;stroke-linejoin:miter;stroke-width:0.5;"/>
   </g>
   <g id="e4242fc5547946f6ae4b117adfe74fb3-6-node">
    <path clip-path="url(#pa6d26c3e2c)" d="M 566.540091 80.993333 
C 566.908974 80.993333 567.262797 80.569058 567.523637 79.81395 
C 567.784476 79.058842 567.931034 78.034551 567.931034 76.966667 
C 567.931034 75.898782 567.784476 74.874492 567.523637 74.119383 
C 567.262797 73.364275 566.908974 72.94 566.540091 72.94 
C 566.171209 72.94 565.817385 73.364275 565.556546 74.119383 
C 565.295707 74.874492 565.149148 75.898782 565.149148 76.966667 
C 565.149148 78.034551 565.295707 79.058842 565.556546 79.81395 
C 565.817385 80.569058 566.171209 80.993333 566.540091 80.993333 
z
" style="fill:#00c832;stroke:#ffffff;stroke-linejoin:miter;stroke-width:0.5;"/>
   </g>
   <g id="e4242fc5547946f6ae4b117adfe74fb3-7-node">
    <path clip-path="url(#pa6d26c3e2c)" d="M 559.23764 72.94 
L 559.23764 80.993333 
L 556.455754 80.993333 
L 556.455754 72.94 
L 559.23764 72.94 
z
" style="fill:#0000ff;stroke:#ffffff;stroke-linejoin:miter;stroke-width:0.5;"/>
   </g>
   <g id="e4242fc5547946f6ae4b117adfe74fb3-9-node">
    <path clip-path="url(#pa6d26c3e2c)" d="M 549.153303 80.993333 
C 549.522185 80.993333 549.876009 80.569058 550.136848 79.81395 
C 550.397687 79.058842 550.544246 78.034551 550.544246 76.966667 
C 550.544246 75.898782 550.397687 74.874492 550.136848 74.119383 
C 549.876009 73.364275 549.522185 72.94 549.153303 72.94 
C 548.78442 72.94 548.430597 73.364275 548.169758 74.119383 
C 547.908918 74.874492 547.76236 75.898782 547.76236 76.966667 
C 547.76236 78.034551 547.908918 79.058842 548.169758 79.81395 
C 548.430597 80.569058 548.78442 80.993333 549.153303 80.993333 
z
" style="fill:#ffff00;stroke:#ffffff;stroke-linejoin:miter;stroke-width:0.5;"/>
   </g>
   <g id="patch_44">
    <path d="M 481.344828 157.5 
L 481.344828 21.6 
" style="fill:none;stroke:#ffffff;stroke-linecap:square;stroke-linejoin:miter;stroke-width:1.25;"/>
   </g>
   <g id="patch_45">
    <path d="M 625.655172 157.5 
L 625.655172 21.6 
" style="fill:none;stroke:#ffffff;stroke-linecap:square;stroke-linejoin:miter;stroke-width:1.25;"/>
   </g>
   <g id="patch_46">
    <path d="M 481.344828 157.5 
L 625.655172 157.5 
" style="fill:none;stroke:#ffffff;stroke-linecap:square;stroke-linejoin:miter;stroke-width:1.25;"/>
   </g>
   <g id="patch_47">
    <path d="M 481.344828 21.6 
L 625.655172 21.6 
" style="fill:none;stroke:#ffffff;stroke-linecap:square;stroke-linejoin:miter;stroke-width:1.25;"/>
   </g>
   <g id="text_3">
    <!-- 729:6.0 -->
    <defs>
     <path d="M 4.734375 62.203125 
L 4.734375 70.65625 
L 51.078125 70.65625 
L 51.078125 63.8125 
Q 44.234375 56.546875 37.515625 44.484375 
Q 30.8125 32.421875 27.15625 19.671875 
Q 24.515625 10.6875 23.78125 0 
L 14.75 0 
Q 14.890625 8.453125 18.0625 20.40625 
Q 21.234375 32.375 27.171875 43.484375 
Q 33.109375 54.59375 39.796875 62.203125 
z
" id="ArialMT-55"/>
     <path d="M 5.46875 16.546875 
L 13.921875 17.328125 
Q 14.984375 11.375 18.015625 8.6875 
Q 21.046875 6 25.78125 6 
Q 29.828125 6 32.875 7.859375 
Q 35.9375 9.71875 37.890625 12.8125 
Q 39.84375 15.921875 41.15625 21.1875 
Q 42.484375 26.46875 42.484375 31.9375 
Q 42.484375 32.515625 42.4375 33.6875 
Q 39.796875 29.5 35.234375 26.875 
Q 30.671875 24.265625 25.34375 24.265625 
Q 16.453125 24.265625 10.296875 30.703125 
Q 4.15625 37.15625 4.15625 47.703125 
Q 4.15625 58.59375 10.578125 65.234375 
Q 17 71.875 26.65625 71.875 
Q 33.640625 71.875 39.421875 68.109375 
Q 45.21875 64.359375 48.21875 57.390625 
Q 51.21875 50.4375 51.21875 37.25 
Q 51.21875 23.53125 48.234375 15.40625 
Q 45.265625 7.28125 39.375 3.03125 
Q 33.5 -1.21875 25.59375 -1.21875 
Q 17.1875 -1.21875 11.859375 3.4375 
Q 6.546875 8.109375 5.46875 16.546875 
z
M 41.453125 48.140625 
Q 41.453125 55.71875 37.421875 60.15625 
Q 33.40625 64.59375 27.734375 64.59375 
Q 21.875 64.59375 17.53125 59.8125 
Q 13.1875 55.03125 13.1875 47.40625 
Q 13.1875 40.578125 17.3125 36.296875 
Q 21.4375 32.03125 27.484375 32.03125 
Q 33.59375 32.03125 37.515625 36.296875 
Q 41.453125 40.578125 41.453125 48.140625 
z
" id="ArialMT-57"/>
     <path d="M 49.75 54.046875 
L 41.015625 53.375 
Q 39.84375 58.546875 37.703125 60.890625 
Q 34.125 64.65625 28.90625 64.65625 
Q 24.703125 64.65625 21.53125 62.3125 
Q 17.390625 59.28125 14.984375 53.46875 
Q 12.59375 47.65625 12.5 36.921875 
Q 15.671875 41.75 20.265625 44.09375 
Q 24.859375 46.4375 29.890625 46.4375 
Q 38.671875 46.4375 44.84375 39.96875 
Q 51.03125 33.5 51.03125 23.25 
Q 51.03125 16.5 48.125 10.71875 
Q 45.21875 4.9375 40.140625 1.859375 
Q 35.0625 -1.21875 28.609375 -1.21875 
Q 17.625 -1.21875 10.6875 6.859375 
Q 3.765625 14.9375 3.765625 33.5 
Q 3.765625 54.25 11.421875 63.671875 
Q 18.109375 71.875 29.4375 71.875 
Q 37.890625 71.875 43.28125 67.140625 
Q 48.6875 62.40625 49.75 54.046875 
z
M 13.875 23.1875 
Q 13.875 18.65625 15.796875 14.5 
Q 17.71875 10.359375 21.1875 8.171875 
Q 24.65625 6 28.46875 6 
Q 34.03125 6 38.03125 10.484375 
Q 42.046875 14.984375 42.046875 22.703125 
Q 42.046875 30.125 38.078125 34.390625 
Q 34.125 38.671875 28.125 38.671875 
Q 22.171875 38.671875 18.015625 34.390625 
Q 13.875 30.125 13.875 23.1875 
z
" id="ArialMT-54"/>
    </defs>
    <g style="fill:#262626;" transform="translate(533.483438 15.6)scale(0.12 -0.12)">
     <use xlink:href="#ArialMT-55"/>
     <use x="55.615234" xlink:href="#ArialMT-50"/>
     <use x="111.230469" xlink:href="#ArialMT-57"/>
     <use x="166.845703" xlink:href="#ArialMT-58"/>
     <use x="194.628906" xlink:href="#ArialMT-54"/>
     <use x="250.244141" xlink:href="#ArialMT-46"/>
     <use x="278.027344" xlink:href="#ArialMT-48"/>
    </g>
   </g>
  </g>
  <g id="axes_4">
   <g id="patch_48">
    <path d="M 654.517241 157.5 
L 798.827586 157.5 
L 798.827586 21.6 
L 654.517241 21.6 
z
" style="fill:#eaeaf2;"/>
   </g>
   <g id="matplotlib.axis_1">
    <g id="xtick_1">
     <g id="line2d_1">
      <path clip-path="url(#p33f0a5e87a)" d="M 654.517241 157.5 
L 654.517241 21.6 
" style="fill:none;stroke:#ffffff;stroke-linecap:round;"/>
     </g>
     <g id="text_4">
      <!-- 0.00 -->
      <g style="fill:#262626;" transform="translate(643.813726 174.873594)scale(0.11 -0.11)">
       <use xlink:href="#ArialMT-48"/>
       <use x="55.615234" xlink:href="#ArialMT-46"/>
       <use x="83.398438" xlink:href="#ArialMT-48"/>
       <use x="139.013672" xlink:href="#ArialMT-48"/>
      </g>
     </g>
    </g>
    <g id="xtick_2">
     <g id="line2d_2">
      <path clip-path="url(#p33f0a5e87a)" d="M 690.594828 157.5 
L 690.594828 21.6 
" style="fill:none;stroke:#ffffff;stroke-linecap:round;"/>
     </g>
     <g id="text_5">
      <!-- 0.25 -->
      <defs>
       <path d="M 4.15625 18.75 
L 13.375 19.53125 
Q 14.40625 12.796875 18.140625 9.390625 
Q 21.875 6 27.15625 6 
Q 33.5 6 37.890625 10.78125 
Q 42.28125 15.578125 42.28125 23.484375 
Q 42.28125 31 38.0625 35.34375 
Q 33.84375 39.703125 27 39.703125 
Q 22.75 39.703125 19.328125 37.765625 
Q 15.921875 35.84375 13.96875 32.765625 
L 5.71875 33.84375 
L 12.640625 70.609375 
L 48.25 70.609375 
L 48.25 62.203125 
L 19.671875 62.203125 
L 15.828125 42.96875 
Q 22.265625 47.46875 29.34375 47.46875 
Q 38.71875 47.46875 45.15625 40.96875 
Q 51.609375 34.46875 51.609375 24.265625 
Q 51.609375 14.546875 45.953125 7.46875 
Q 39.0625 -1.21875 27.15625 -1.21875 
Q 17.390625 -1.21875 11.203125 4.25 
Q 5.03125 9.71875 4.15625 18.75 
z
" id="ArialMT-53"/>
      </defs>
      <g style="fill:#262626;" transform="translate(679.891312 174.873594)scale(0.11 -0.11)">
       <use xlink:href="#ArialMT-48"/>
       <use x="55.615234" xlink:href="#ArialMT-46"/>
       <use x="83.398438" xlink:href="#ArialMT-50"/>
       <use x="139.013672" xlink:href="#ArialMT-53"/>
      </g>
     </g>
    </g>
    <g id="xtick_3">
     <g id="line2d_3">
      <path clip-path="url(#p33f0a5e87a)" d="M 726.672414 157.5 
L 726.672414 21.6 
" style="fill:none;stroke:#ffffff;stroke-linecap:round;"/>
     </g>
     <g id="text_6">
      <!-- 0.50 -->
      <g style="fill:#262626;" transform="translate(715.968898 174.873594)scale(0.11 -0.11)">
       <use xlink:href="#ArialMT-48"/>
       <use x="55.615234" xlink:href="#ArialMT-46"/>
       <use x="83.398438" xlink:href="#ArialMT-53"/>
       <use x="139.013672" xlink:href="#ArialMT-48"/>
      </g>
     </g>
    </g>
    <g id="xtick_4">
     <g id="line2d_4">
      <path clip-path="url(#p33f0a5e87a)" d="M 762.75 157.5 
L 762.75 21.6 
" style="fill:none;stroke:#ffffff;stroke-linecap:round;"/>
     </g>
     <g id="text_7">
      <!-- 0.75 -->
      <g style="fill:#262626;" transform="translate(752.046484 174.873594)scale(0.11 -0.11)">
       <use xlink:href="#ArialMT-48"/>
       <use x="55.615234" xlink:href="#ArialMT-46"/>
       <use x="83.398438" xlink:href="#ArialMT-55"/>
       <use x="139.013672" xlink:href="#ArialMT-53"/>
      </g>
     </g>
    </g>
    <g id="xtick_5">
     <g id="line2d_5">
      <path clip-path="url(#p33f0a5e87a)" d="M 798.827586 157.5 
L 798.827586 21.6 
" style="fill:none;stroke:#ffffff;stroke-linecap:round;"/>
     </g>
     <g id="text_8">
      <!-- 1.00 -->
      <defs>
       <path d="M 37.25 0 
L 28.46875 0 
L 28.46875 56 
Q 25.296875 52.984375 20.140625 49.953125 
Q 14.984375 46.921875 10.890625 45.40625 
L 10.890625 53.90625 
Q 18.265625 57.375 23.78125 62.296875 
Q 29.296875 67.234375 31.59375 71.875 
L 37.25 71.875 
z
" id="ArialMT-49"/>
      </defs>
      <g style="fill:#262626;" transform="translate(788.124071 174.873594)scale(0.11 -0.11)">
       <use xlink:href="#ArialMT-49"/>
       <use x="55.615234" xlink:href="#ArialMT-46"/>
       <use x="83.398438" xlink:href="#ArialMT-48"/>
       <use x="139.013672" xlink:href="#ArialMT-48"/>
      </g>
     </g>
    </g>
   </g>
   <g id="matplotlib.axis_2">
    <g id="ytick_1">
     <g id="line2d_6">
      <path clip-path="url(#p33f0a5e87a)" d="M 654.517241 157.5 
L 798.827586 157.5 
" style="fill:none;stroke:#ffffff;stroke-linecap:round;"/>
     </g>
     <g id="text_9">
      <!-- 0.0 -->
      <g style="fill:#262626;" transform="translate(629.727241 161.436797)scale(0.11 -0.11)">
       <use xlink:href="#ArialMT-48"/>
       <use x="55.615234" xlink:href="#ArialMT-46"/>
       <use x="83.398438" xlink:href="#ArialMT-48"/>
      </g>
     </g>
    </g>
    <g id="ytick_2">
     <g id="line2d_7">
      <path clip-path="url(#p33f0a5e87a)" d="M 654.517241 130.32 
L 798.827586 130.32 
" style="fill:none;stroke:#ffffff;stroke-linecap:round;"/>
     </g>
     <g id="text_10">
      <!-- 0.2 -->
      <g style="fill:#262626;" transform="translate(629.727241 134.256797)scale(0.11 -0.11)">
       <use xlink:href="#ArialMT-48"/>
       <use x="55.615234" xlink:href="#ArialMT-46"/>
       <use x="83.398438" xlink:href="#ArialMT-50"/>
      </g>
     </g>
    </g>
    <g id="ytick_3">
     <g id="line2d_8">
      <path clip-path="url(#p33f0a5e87a)" d="M 654.517241 103.14 
L 798.827586 103.14 
" style="fill:none;stroke:#ffffff;stroke-linecap:round;"/>
     </g>
     <g id="text_11">
      <!-- 0.4 -->
      <g style="fill:#262626;" transform="translate(629.727241 107.076797)scale(0.11 -0.11)">
       <use xlink:href="#ArialMT-48"/>
       <use x="55.615234" xlink:href="#ArialMT-46"/>
       <use x="83.398438" xlink:href="#ArialMT-52"/>
      </g>
     </g>
    </g>
    <g id="ytick_4">
     <g id="line2d_9">
      <path clip-path="url(#p33f0a5e87a)" d="M 654.517241 75.96 
L 798.827586 75.96 
" style="fill:none;stroke:#ffffff;stroke-linecap:round;"/>
     </g>
     <g id="text_12">
      <!-- 0.6 -->
      <g style="fill:#262626;" transform="translate(629.727241 79.896797)scale(0.11 -0.11)">
       <use xlink:href="#ArialMT-48"/>
       <use x="55.615234" xlink:href="#ArialMT-46"/>
       <use x="83.398438" xlink:href="#ArialMT-54"/>
      </g>
     </g>
    </g>
    <g id="ytick_5">
     <g id="line2d_10">
      <path clip-path="url(#p33f0a5e87a)" d="M 654.517241 48.78 
L 798.827586 48.78 
" style="fill:none;stroke:#ffffff;stroke-linecap:round;"/>
     </g>
     <g id="text_13">
      <!-- 0.8 -->
      <defs>
       <path d="M 17.671875 38.8125 
Q 12.203125 40.828125 9.5625 44.53125 
Q 6.9375 48.25 6.9375 53.421875 
Q 6.9375 61.234375 12.546875 66.546875 
Q 18.171875 71.875 27.484375 71.875 
Q 36.859375 71.875 42.578125 66.421875 
Q 48.296875 60.984375 48.296875 53.171875 
Q 48.296875 48.1875 45.671875 44.5 
Q 43.0625 40.828125 37.75 38.8125 
Q 44.34375 36.671875 47.78125 31.875 
Q 51.21875 27.09375 51.21875 20.453125 
Q 51.21875 11.28125 44.71875 5.03125 
Q 38.234375 -1.21875 27.640625 -1.21875 
Q 17.046875 -1.21875 10.546875 5.046875 
Q 4.046875 11.328125 4.046875 20.703125 
Q 4.046875 27.6875 7.59375 32.390625 
Q 11.140625 37.109375 17.671875 38.8125 
z
M 15.921875 53.71875 
Q 15.921875 48.640625 19.1875 45.40625 
Q 22.46875 42.1875 27.6875 42.1875 
Q 32.765625 42.1875 36.015625 45.375 
Q 39.265625 48.578125 39.265625 53.21875 
Q 39.265625 58.0625 35.90625 61.359375 
Q 32.5625 64.65625 27.59375 64.65625 
Q 22.5625 64.65625 19.234375 61.421875 
Q 15.921875 58.203125 15.921875 53.71875 
z
M 13.09375 20.65625 
Q 13.09375 16.890625 14.875 13.375 
Q 16.65625 9.859375 20.171875 7.921875 
Q 23.6875 6 27.734375 6 
Q 34.03125 6 38.125 10.046875 
Q 42.234375 14.109375 42.234375 20.359375 
Q 42.234375 26.703125 38.015625 30.859375 
Q 33.796875 35.015625 27.4375 35.015625 
Q 21.234375 35.015625 17.15625 30.90625 
Q 13.09375 26.8125 13.09375 20.65625 
z
" id="ArialMT-56"/>
      </defs>
      <g style="fill:#262626;" transform="translate(629.727241 52.716797)scale(0.11 -0.11)">
       <use xlink:href="#ArialMT-48"/>
       <use x="55.615234" xlink:href="#ArialMT-46"/>
       <use x="83.398438" xlink:href="#ArialMT-56"/>
      </g>
     </g>
    </g>
    <g id="ytick_6">
     <g id="line2d_11">
      <path clip-path="url(#p33f0a5e87a)" d="M 654.517241 21.6 
L 798.827586 21.6 
" style="fill:none;stroke:#ffffff;stroke-linecap:round;"/>
     </g>
     <g id="text_14">
      <!-- 1.0 -->
      <g style="fill:#262626;" transform="translate(629.727241 25.536797)scale(0.11 -0.11)">
       <use xlink:href="#ArialMT-49"/>
       <use x="55.615234" xlink:href="#ArialMT-46"/>
       <use x="83.398438" xlink:href="#ArialMT-48"/>
      </g>
     </g>
    </g>
   </g>
   <g id="patch_49">
    <path d="M 654.517241 157.5 
L 654.517241 21.6 
" style="fill:none;stroke:#ffffff;stroke-linecap:square;stroke-linejoin:miter;stroke-width:1.25;"/>
   </g>
   <g id="patch_50">
    <path d="M 798.827586 157.5 
L 798.827586 21.6 
" style="fill:none;stroke:#ffffff;stroke-linecap:square;stroke-linejoin:miter;stroke-width:1.25;"/>
   </g>
   <g id="patch_51">
    <path d="M 654.517241 157.5 
L 798.827586 157.5 
" style="fill:none;stroke:#ffffff;stroke-linecap:square;stroke-linejoin:miter;stroke-width:1.25;"/>
   </g>
   <g id="patch_52">
    <path d="M 654.517241 21.6 
L 798.827586 21.6 
" style="fill:none;stroke:#ffffff;stroke-linecap:square;stroke-linejoin:miter;stroke-width:1.25;"/>
   </g>
  </g>
  <g id="axes_5">
   <g id="patch_53">
    <path d="M 827.689655 157.5 
L 972 157.5 
L 972 21.6 
L 827.689655 21.6 
z
" style="fill:#eaeaf2;"/>
   </g>
   <g id="matplotlib.axis_3">
    <g id="xtick_6">
     <g id="line2d_12">
      <path clip-path="url(#pc788a2ea38)" d="M 827.689655 157.5 
L 827.689655 21.6 
" style="fill:none;stroke:#ffffff;stroke-linecap:round;"/>
     </g>
     <g id="text_15">
      <!-- 0.00 -->
      <g style="fill:#262626;" transform="translate(816.98614 174.873594)scale(0.11 -0.11)">
       <use xlink:href="#ArialMT-48"/>
       <use x="55.615234" xlink:href="#ArialMT-46"/>
       <use x="83.398438" xlink:href="#ArialMT-48"/>
       <use x="139.013672" xlink:href="#ArialMT-48"/>
      </g>
     </g>
    </g>
    <g id="xtick_7">
     <g id="line2d_13">
      <path clip-path="url(#pc788a2ea38)" d="M 863.767241 157.5 
L 863.767241 21.6 
" style="fill:none;stroke:#ffffff;stroke-linecap:round;"/>
     </g>
     <g id="text_16">
      <!-- 0.25 -->
      <g style="fill:#262626;" transform="translate(853.063726 174.873594)scale(0.11 -0.11)">
       <use xlink:href="#ArialMT-48"/>
       <use x="55.615234" xlink:href="#ArialMT-46"/>
       <use x="83.398438" xlink:href="#ArialMT-50"/>
       <use x="139.013672" xlink:href="#ArialMT-53"/>
      </g>
     </g>
    </g>
    <g id="xtick_8">
     <g id="line2d_14">
      <path clip-path="url(#pc788a2ea38)" d="M 899.844828 157.5 
L 899.844828 21.6 
" style="fill:none;stroke:#ffffff;stroke-linecap:round;"/>
     </g>
     <g id="text_17">
      <!-- 0.50 -->
      <g style="fill:#262626;" transform="translate(889.141312 174.873594)scale(0.11 -0.11)">
       <use xlink:href="#ArialMT-48"/>
       <use x="55.615234" xlink:href="#ArialMT-46"/>
       <use x="83.398438" xlink:href="#ArialMT-53"/>
       <use x="139.013672" xlink:href="#ArialMT-48"/>
      </g>
     </g>
    </g>
    <g id="xtick_9">
     <g id="line2d_15">
      <path clip-path="url(#pc788a2ea38)" d="M 935.922414 157.5 
L 935.922414 21.6 
" style="fill:none;stroke:#ffffff;stroke-linecap:round;"/>
     </g>
     <g id="text_18">
      <!-- 0.75 -->
      <g style="fill:#262626;" transform="translate(925.218898 174.873594)scale(0.11 -0.11)">
       <use xlink:href="#ArialMT-48"/>
       <use x="55.615234" xlink:href="#ArialMT-46"/>
       <use x="83.398438" xlink:href="#ArialMT-55"/>
       <use x="139.013672" xlink:href="#ArialMT-53"/>
      </g>
     </g>
    </g>
    <g id="xtick_10">
     <g id="line2d_16">
      <path clip-path="url(#pc788a2ea38)" d="M 972 157.5 
L 972 21.6 
" style="fill:none;stroke:#ffffff;stroke-linecap:round;"/>
     </g>
     <g id="text_19">
      <!-- 1.00 -->
      <g style="fill:#262626;" transform="translate(961.296484 174.873594)scale(0.11 -0.11)">
       <use xlink:href="#ArialMT-49"/>
       <use x="55.615234" xlink:href="#ArialMT-46"/>
       <use x="83.398438" xlink:href="#ArialMT-48"/>
       <use x="139.013672" xlink:href="#ArialMT-48"/>
      </g>
     </g>
    </g>
   </g>
   <g id="matplotlib.axis_4">
    <g id="ytick_7">
     <g id="line2d_17">
      <path clip-path="url(#pc788a2ea38)" d="M 827.689655 157.5 
L 972 157.5 
" style="fill:none;stroke:#ffffff;stroke-linecap:round;"/>
     </g>
     <g id="text_20">
      <!-- 0.0 -->
      <g style="fill:#262626;" transform="translate(802.899655 161.436797)scale(0.11 -0.11)">
       <use xlink:href="#ArialMT-48"/>
       <use x="55.615234" xlink:href="#ArialMT-46"/>
       <use x="83.398438" xlink:href="#ArialMT-48"/>
      </g>
     </g>
    </g>
    <g id="ytick_8">
     <g id="line2d_18">
      <path clip-path="url(#pc788a2ea38)" d="M 827.689655 130.32 
L 972 130.32 
" style="fill:none;stroke:#ffffff;stroke-linecap:round;"/>
     </g>
     <g id="text_21">
      <!-- 0.2 -->
      <g style="fill:#262626;" transform="translate(802.899655 134.256797)scale(0.11 -0.11)">
       <use xlink:href="#ArialMT-48"/>
       <use x="55.615234" xlink:href="#ArialMT-46"/>
       <use x="83.398438" xlink:href="#ArialMT-50"/>
      </g>
     </g>
    </g>
    <g id="ytick_9">
     <g id="line2d_19">
      <path clip-path="url(#pc788a2ea38)" d="M 827.689655 103.14 
L 972 103.14 
" style="fill:none;stroke:#ffffff;stroke-linecap:round;"/>
     </g>
     <g id="text_22">
      <!-- 0.4 -->
      <g style="fill:#262626;" transform="translate(802.899655 107.076797)scale(0.11 -0.11)">
       <use xlink:href="#ArialMT-48"/>
       <use x="55.615234" xlink:href="#ArialMT-46"/>
       <use x="83.398438" xlink:href="#ArialMT-52"/>
      </g>
     </g>
    </g>
    <g id="ytick_10">
     <g id="line2d_20">
      <path clip-path="url(#pc788a2ea38)" d="M 827.689655 75.96 
L 972 75.96 
" style="fill:none;stroke:#ffffff;stroke-linecap:round;"/>
     </g>
     <g id="text_23">
      <!-- 0.6 -->
      <g style="fill:#262626;" transform="translate(802.899655 79.896797)scale(0.11 -0.11)">
       <use xlink:href="#ArialMT-48"/>
       <use x="55.615234" xlink:href="#ArialMT-46"/>
       <use x="83.398438" xlink:href="#ArialMT-54"/>
      </g>
     </g>
    </g>
    <g id="ytick_11">
     <g id="line2d_21">
      <path clip-path="url(#pc788a2ea38)" d="M 827.689655 48.78 
L 972 48.78 
" style="fill:none;stroke:#ffffff;stroke-linecap:round;"/>
     </g>
     <g id="text_24">
      <!-- 0.8 -->
      <g style="fill:#262626;" transform="translate(802.899655 52.716797)scale(0.11 -0.11)">
       <use xlink:href="#ArialMT-48"/>
       <use x="55.615234" xlink:href="#ArialMT-46"/>
       <use x="83.398438" xlink:href="#ArialMT-56"/>
      </g>
     </g>
    </g>
    <g id="ytick_12">
     <g id="line2d_22">
      <path clip-path="url(#pc788a2ea38)" d="M 827.689655 21.6 
L 972 21.6 
" style="fill:none;stroke:#ffffff;stroke-linecap:round;"/>
     </g>
     <g id="text_25">
      <!-- 1.0 -->
      <g style="fill:#262626;" transform="translate(802.899655 25.536797)scale(0.11 -0.11)">
       <use xlink:href="#ArialMT-49"/>
       <use x="55.615234" xlink:href="#ArialMT-46"/>
       <use x="83.398438" xlink:href="#ArialMT-48"/>
      </g>
     </g>
    </g>
   </g>
   <g id="patch_54">
    <path d="M 827.689655 157.5 
L 827.689655 21.6 
" style="fill:none;stroke:#ffffff;stroke-linecap:square;stroke-linejoin:miter;stroke-width:1.25;"/>
   </g>
   <g id="patch_55">
    <path d="M 972 157.5 
L 972 21.6 
" style="fill:none;stroke:#ffffff;stroke-linecap:square;stroke-linejoin:miter;stroke-width:1.25;"/>
   </g>
   <g id="patch_56">
    <path d="M 827.689655 157.5 
L 972 157.5 
" style="fill:none;stroke:#ffffff;stroke-linecap:square;stroke-linejoin:miter;stroke-width:1.25;"/>
   </g>
   <g id="patch_57">
    <path d="M 827.689655 21.6 
L 972 21.6 
" style="fill:none;stroke:#ffffff;stroke-linecap:square;stroke-linejoin:miter;stroke-width:1.25;"/>
   </g>
   <g id="text_26">
    <!-- 16 -->
    <g style="fill:#262626;" transform="translate(893.171703 15.6)scale(0.12 -0.12)">
     <use xlink:href="#ArialMT-49"/>
     <use x="55.615234" xlink:href="#ArialMT-54"/>
    </g>
   </g>
  </g>
 </g>
 <defs>
  <clipPath id="p8be0eb604f">
   <rect height="135.9" width="144.310345" x="135" y="21.6"/>
  </clipPath>
  <clipPath id="p409308ff16">
   <rect height="135.9" width="144.310345" x="308.172414" y="21.6"/>
  </clipPath>
  <clipPath id="pa6d26c3e2c">
   <rect height="135.9" width="144.310345" x="481.344828" y="21.6"/>
  </clipPath>
  <clipPath id="p33f0a5e87a">
   <rect height="135.9" width="144.310345" x="654.517241" y="21.6"/>
  </clipPath>
  <clipPath id="pc788a2ea38">
   <rect height="135.9" width="144.310345" x="827.689655" y="21.6"/>
  </clipPath>
 </defs>
</svg>
