<?xml version="1.0" encoding="utf-8" standalone="no"?>
<!DOCTYPE svg PUBLIC "-//W3C//DTD SVG 1.1//EN"
  "http://www.w3.org/Graphics/SVG/1.1/DTD/svg11.dtd">
<!-- Created with matplotlib (https://matplotlib.org/) -->
<svg height="180pt" version="1.1" viewBox="0 0 1080 180" width="1080pt" xmlns="http://www.w3.org/2000/svg" xmlns:xlink="http://www.w3.org/1999/xlink">
 <defs>
  <style type="text/css">
*{stroke-linecap:butt;stroke-linejoin:round;}
  </style>
 </defs>
 <g id="figure_1">
  <g id="patch_1">
   <path d="M 0 180 
L 1080 180 
L 1080 0 
L 0 0 
z
" style="fill:#ffffff;"/>
  </g>
  <g id="axes_1">
   <g id="patch_2">
    <path d="M 135 157.5 
L 279.310345 157.5 
L 279.310345 21.6 
L 135 21.6 
z
" style="fill:#ffffff;"/>
   </g>
   <g id="patch_3">
    <path clip-path="url(#p538aafc1de)" d="M 181.011994 102.133333 
L 170.554723 102.133333 
" style="stroke:#000000;stroke-linejoin:miter;stroke-width:0.5;"/>
   </g>
   <g id="patch_4">
    <path clip-path="url(#p538aafc1de)" d="M 191.469265 102.133333 
L 181.011994 102.133333 
" style="stroke:#000000;stroke-linejoin:miter;stroke-width:0.5;"/>
   </g>
   <g id="patch_5">
    <path clip-path="url(#p538aafc1de)" d="M 201.926537 102.133333 
L 191.469265 102.133333 
" style="stroke:#000000;stroke-linejoin:miter;stroke-width:0.5;"/>
   </g>
   <g id="patch_6">
    <path clip-path="url(#p538aafc1de)" d="M 212.383808 102.133333 
L 201.926537 102.133333 
" style="stroke:#000000;stroke-linejoin:miter;stroke-width:0.5;"/>
   </g>
   <g id="patch_7">
    <path clip-path="url(#p538aafc1de)" d="M 222.841079 89.55 
L 212.383808 102.133333 
" style="stroke:#000000;stroke-linejoin:miter;stroke-width:0.5;"/>
   </g>
   <g id="patch_8">
    <path clip-path="url(#p538aafc1de)" d="M 181.011994 76.966667 
L 170.554723 76.966667 
" style="stroke:#000000;stroke-linejoin:miter;stroke-width:0.5;"/>
   </g>
   <g id="patch_9">
    <path clip-path="url(#p538aafc1de)" d="M 191.469265 76.966667 
L 181.011994 76.966667 
" style="stroke:#000000;stroke-linejoin:miter;stroke-width:0.5;"/>
   </g>
   <g id="patch_10">
    <path clip-path="url(#p538aafc1de)" d="M 201.926537 76.966667 
L 191.469265 76.966667 
" style="stroke:#000000;stroke-linejoin:miter;stroke-width:0.5;"/>
   </g>
   <g id="patch_11">
    <path clip-path="url(#p538aafc1de)" d="M 212.383808 76.966667 
L 201.926537 76.966667 
" style="stroke:#000000;stroke-linejoin:miter;stroke-width:0.5;"/>
   </g>
   <g id="patch_12">
    <path clip-path="url(#p538aafc1de)" d="M 222.841079 89.55 
L 212.383808 76.966667 
" style="stroke:#000000;stroke-linejoin:miter;stroke-width:0.5;"/>
   </g>
   <g id="patch_13">
    <path clip-path="url(#p538aafc1de)" d="M 233.298351 89.55 
L 222.841079 89.55 
" style="stroke:#000000;stroke-linejoin:miter;stroke-width:0.5;"/>
   </g>
   <g id="patch_14">
    <path clip-path="url(#p538aafc1de)" d="M 243.755622 89.55 
L 233.298351 89.55 
" style="stroke:#000000;stroke-linejoin:miter;stroke-width:0.5;"/>
   </g>
   <g id="patch_15">
    <path clip-path="url(#p538aafc1de)" d="M 243.755622 89.55 
L 243.755622 76.966667 
" style="stroke:#000000;stroke-linejoin:miter;stroke-width:0.5;"/>
   </g>
   <g id="0ca195f9d2ed4bb8a5b27602eee1ab11-1-node">
    <path clip-path="url(#p538aafc1de)" d="M 245.428786 85.523333 
L 245.428786 93.576667 
L 242.082459 93.576667 
L 242.082459 85.523333 
L 245.428786 85.523333 
z
" style="fill:#0000ff;stroke:#ffffff;stroke-linejoin:miter;stroke-width:0.5;"/>
   </g>
   <g id="0ca195f9d2ed4bb8a5b27602eee1ab11-4-node">
    <path clip-path="url(#p538aafc1de)" d="M 234.971514 85.523333 
L 234.971514 93.576667 
L 231.625187 93.576667 
L 231.625187 85.523333 
L 234.971514 85.523333 
z
" style="fill:#0000ff;stroke:#ffffff;stroke-linejoin:miter;stroke-width:0.5;"/>
   </g>
   <g id="0ca195f9d2ed4bb8a5b27602eee1ab11-6-node">
    <path clip-path="url(#p538aafc1de)" d="M 222.841079 93.576667 
C 223.284808 93.576667 223.710421 93.152392 224.024185 92.397283 
C 224.337948 91.642175 224.514243 90.617884 224.514243 89.55 
C 224.514243 88.482116 224.337948 87.457825 224.024185 86.702717 
C 223.710421 85.947608 223.284808 85.523333 222.841079 85.523333 
C 222.397351 85.523333 221.971737 85.947608 221.657974 86.702717 
C 221.344211 87.457825 221.167916 88.482116 221.167916 89.55 
C 221.167916 90.617884 221.344211 91.642175 221.657974 92.397283 
C 221.971737 93.152392 222.397351 93.576667 222.841079 93.576667 
z
" style="fill:#00c832;stroke:#ffffff;stroke-linejoin:miter;stroke-width:0.5;"/>
   </g>
   <g id="0ca195f9d2ed4bb8a5b27602eee1ab11-14-node">
    <path clip-path="url(#p538aafc1de)" d="M 212.383808 106.16 
C 212.827536 106.16 213.25315 105.735725 213.566913 104.980617 
C 213.880676 104.225508 214.056972 103.201218 214.056972 102.133333 
C 214.056972 101.065449 213.880676 100.041158 213.566913 99.28605 
C 213.25315 98.530942 212.827536 98.106667 212.383808 98.106667 
C 211.94008 98.106667 211.514466 98.530942 211.200703 99.28605 
C 210.88694 100.041158 210.710645 101.065449 210.710645 102.133333 
C 210.710645 103.201218 210.88694 104.225508 211.200703 104.980617 
C 211.514466 105.735725 211.94008 106.16 212.383808 106.16 
z
" style="fill:#00c832;stroke:#ffffff;stroke-linejoin:miter;stroke-width:0.5;"/>
   </g>
   <g id="0ca195f9d2ed4bb8a5b27602eee1ab11-15-node">
    <path clip-path="url(#p538aafc1de)" d="M 203.5997 98.106667 
L 203.5997 106.16 
L 200.253373 106.16 
L 200.253373 98.106667 
L 203.5997 98.106667 
z
" style="fill:#0000ff;stroke:#ffffff;stroke-linejoin:miter;stroke-width:0.5;"/>
   </g>
   <g id="0ca195f9d2ed4bb8a5b27602eee1ab11-17-node">
    <path clip-path="url(#p538aafc1de)" d="M 191.469265 106.16 
C 191.912993 106.16 192.338607 105.735725 192.652371 104.980617 
C 192.966134 104.225508 193.142429 103.201218 193.142429 102.133333 
C 193.142429 101.065449 192.966134 100.041158 192.652371 99.28605 
C 192.338607 98.530942 191.912993 98.106667 191.469265 98.106667 
C 191.025537 98.106667 190.599923 98.530942 190.28616 99.28605 
C 189.972397 100.041158 189.796102 101.065449 189.796102 102.133333 
C 189.796102 103.201218 189.972397 104.225508 190.28616 104.980617 
C 190.599923 105.735725 191.025537 106.16 191.469265 106.16 
z
" style="fill:#ffff00;stroke:#ffffff;stroke-linejoin:miter;stroke-width:0.5;"/>
   </g>
   <g id="0ca195f9d2ed4bb8a5b27602eee1ab11-18-node">
    <path clip-path="url(#p538aafc1de)" d="M 182.685157 98.106667 
L 182.685157 106.16 
L 179.338831 106.16 
L 179.338831 98.106667 
L 182.685157 98.106667 
z
" style="fill:#0000ff;stroke:#ffffff;stroke-linejoin:miter;stroke-width:0.5;"/>
   </g>
   <g id="0ca195f9d2ed4bb8a5b27602eee1ab11-20-node">
    <path clip-path="url(#p538aafc1de)" d="M 170.554723 106.16 
C 170.998451 106.16 171.424065 105.735725 171.737828 104.980617 
C 172.051591 104.225508 172.227886 103.201218 172.227886 102.133333 
C 172.227886 101.065449 172.051591 100.041158 171.737828 99.28605 
C 171.424065 98.530942 170.998451 98.106667 170.554723 98.106667 
C 170.110995 98.106667 169.685381 98.530942 169.371617 99.28605 
C 169.057854 100.041158 168.881559 101.065449 168.881559 102.133333 
C 168.881559 103.201218 169.057854 104.225508 169.371617 104.980617 
C 169.685381 105.735725 170.110995 106.16 170.554723 106.16 
z
" style="fill:#ffff00;stroke:#ffffff;stroke-linejoin:miter;stroke-width:0.5;"/>
   </g>
   <g id="0ca195f9d2ed4bb8a5b27602eee1ab11-7-node">
    <path clip-path="url(#p538aafc1de)" d="M 212.383808 80.993333 
C 212.827536 80.993333 213.25315 80.569058 213.566913 79.81395 
C 213.880676 79.058842 214.056972 78.034551 214.056972 76.966667 
C 214.056972 75.898782 213.880676 74.874492 213.566913 74.119383 
C 213.25315 73.364275 212.827536 72.94 212.383808 72.94 
C 211.94008 72.94 211.514466 73.364275 211.200703 74.119383 
C 210.88694 74.874492 210.710645 75.898782 210.710645 76.966667 
C 210.710645 78.034551 210.88694 79.058842 211.200703 79.81395 
C 211.514466 80.569058 211.94008 80.993333 212.383808 80.993333 
z
" style="fill:#00c832;stroke:#ffffff;stroke-linejoin:miter;stroke-width:0.5;"/>
   </g>
   <g id="0ca195f9d2ed4bb8a5b27602eee1ab11-8-node">
    <path clip-path="url(#p538aafc1de)" d="M 203.5997 72.94 
L 203.5997 80.993333 
L 200.253373 80.993333 
L 200.253373 72.94 
L 203.5997 72.94 
z
" style="fill:#0000ff;stroke:#ffffff;stroke-linejoin:miter;stroke-width:0.5;"/>
   </g>
   <g id="0ca195f9d2ed4bb8a5b27602eee1ab11-10-node">
    <path clip-path="url(#p538aafc1de)" d="M 191.469265 80.993333 
C 191.912993 80.993333 192.338607 80.569058 192.652371 79.81395 
C 192.966134 79.058842 193.142429 78.034551 193.142429 76.966667 
C 193.142429 75.898782 192.966134 74.874492 192.652371 74.119383 
C 192.338607 73.364275 191.912993 72.94 191.469265 72.94 
C 191.025537 72.94 190.599923 73.364275 190.28616 74.119383 
C 189.972397 74.874492 189.796102 75.898782 189.796102 76.966667 
C 189.796102 78.034551 189.972397 79.058842 190.28616 79.81395 
C 190.599923 80.569058 191.025537 80.993333 191.469265 80.993333 
z
" style="fill:#ffff00;stroke:#ffffff;stroke-linejoin:miter;stroke-width:0.5;"/>
   </g>
   <g id="0ca195f9d2ed4bb8a5b27602eee1ab11-11-node">
    <path clip-path="url(#p538aafc1de)" d="M 182.685157 72.94 
L 182.685157 80.993333 
L 179.338831 80.993333 
L 179.338831 72.94 
L 182.685157 72.94 
z
" style="fill:#0000ff;stroke:#ffffff;stroke-linejoin:miter;stroke-width:0.5;"/>
   </g>
   <g id="0ca195f9d2ed4bb8a5b27602eee1ab11-13-node">
    <path clip-path="url(#p538aafc1de)" d="M 170.554723 80.993333 
C 170.998451 80.993333 171.424065 80.569058 171.737828 79.81395 
C 172.051591 79.058842 172.227886 78.034551 172.227886 76.966667 
C 172.227886 75.898782 172.051591 74.874492 171.737828 74.119383 
C 171.424065 73.364275 170.998451 72.94 170.554723 72.94 
C 170.110995 72.94 169.685381 73.364275 169.371617 74.119383 
C 169.057854 74.874492 168.881559 75.898782 168.881559 76.966667 
C 168.881559 78.034551 169.057854 79.058842 169.371617 79.81395 
C 169.685381 80.569058 170.110995 80.993333 170.554723 80.993333 
z
" style="fill:#ffff00;stroke:#ffffff;stroke-linejoin:miter;stroke-width:0.5;"/>
   </g>
   <g id="0ca195f9d2ed4bb8a5b27602eee1ab11-3-node">
    <path clip-path="url(#p538aafc1de)" d="M 243.755622 72.94 
L 242.30662 78.98 
L 245.204624 78.98 
z
" style="fill:#ff0000;stroke:#ffffff;stroke-linejoin:miter;stroke-width:0.5;"/>
   </g>
   <g id="patch_16">
    <path d="M 135 157.5 
L 135 21.6 
" style="fill:none;stroke:#ffffff;stroke-linecap:square;stroke-linejoin:miter;stroke-width:1.25;"/>
   </g>
   <g id="patch_17">
    <path d="M 279.310345 157.5 
L 279.310345 21.6 
" style="fill:none;stroke:#ffffff;stroke-linecap:square;stroke-linejoin:miter;stroke-width:1.25;"/>
   </g>
   <g id="patch_18">
    <path d="M 135 157.5 
L 279.310345 157.5 
" style="fill:none;stroke:#ffffff;stroke-linecap:square;stroke-linejoin:miter;stroke-width:1.25;"/>
   </g>
   <g id="patch_19">
    <path d="M 135 21.6 
L 279.310345 21.6 
" style="fill:none;stroke:#ffffff;stroke-linecap:square;stroke-linejoin:miter;stroke-width:1.25;"/>
   </g>
   <g id="text_1">
    <!-- 920:6.0 -->
    <defs>
     <path d="M 5.46875 16.546875 
L 13.921875 17.328125 
Q 14.984375 11.375 18.015625 8.6875 
Q 21.046875 6 25.78125 6 
Q 29.828125 6 32.875 7.859375 
Q 35.9375 9.71875 37.890625 12.8125 
Q 39.84375 15.921875 41.15625 21.1875 
Q 42.484375 26.46875 42.484375 31.9375 
Q 42.484375 32.515625 42.4375 33.6875 
Q 39.796875 29.5 35.234375 26.875 
Q 30.671875 24.265625 25.34375 24.265625 
Q 16.453125 24.265625 10.296875 30.703125 
Q 4.15625 37.15625 4.15625 47.703125 
Q 4.15625 58.59375 10.578125 65.234375 
Q 17 71.875 26.65625 71.875 
Q 33.640625 71.875 39.421875 68.109375 
Q 45.21875 64.359375 48.21875 57.390625 
Q 51.21875 50.4375 51.21875 37.25 
Q 51.21875 23.53125 48.234375 15.40625 
Q 45.265625 7.28125 39.375 3.03125 
Q 33.5 -1.21875 25.59375 -1.21875 
Q 17.1875 -1.21875 11.859375 3.4375 
Q 6.546875 8.109375 5.46875 16.546875 
z
M 41.453125 48.140625 
Q 41.453125 55.71875 37.421875 60.15625 
Q 33.40625 64.59375 27.734375 64.59375 
Q 21.875 64.59375 17.53125 59.8125 
Q 13.1875 55.03125 13.1875 47.40625 
Q 13.1875 40.578125 17.3125 36.296875 
Q 21.4375 32.03125 27.484375 32.03125 
Q 33.59375 32.03125 37.515625 36.296875 
Q 41.453125 40.578125 41.453125 48.140625 
z
" id="ArialMT-57"/>
     <path d="M 50.34375 8.453125 
L 50.34375 0 
L 3.03125 0 
Q 2.9375 3.171875 4.046875 6.109375 
Q 5.859375 10.9375 9.828125 15.625 
Q 13.8125 20.3125 21.34375 26.46875 
Q 33.015625 36.03125 37.109375 41.625 
Q 41.21875 47.21875 41.21875 52.203125 
Q 41.21875 57.421875 37.46875 61 
Q 33.734375 64.59375 27.734375 64.59375 
Q 21.390625 64.59375 17.578125 60.78125 
Q 13.765625 56.984375 13.71875 50.25 
L 4.6875 51.171875 
Q 5.609375 61.28125 11.65625 66.578125 
Q 17.71875 71.875 27.9375 71.875 
Q 38.234375 71.875 44.234375 66.15625 
Q 50.25 60.453125 50.25 52 
Q 50.25 47.703125 48.484375 43.546875 
Q 46.734375 39.40625 42.65625 34.8125 
Q 38.578125 30.21875 29.109375 22.21875 
Q 21.1875 15.578125 18.9375 13.203125 
Q 16.703125 10.84375 15.234375 8.453125 
z
" id="ArialMT-50"/>
     <path d="M 4.15625 35.296875 
Q 4.15625 48 6.765625 55.734375 
Q 9.375 63.484375 14.515625 67.671875 
Q 19.671875 71.875 27.484375 71.875 
Q 33.25 71.875 37.59375 69.546875 
Q 41.9375 67.234375 44.765625 62.859375 
Q 47.609375 58.5 49.21875 52.21875 
Q 50.828125 45.953125 50.828125 35.296875 
Q 50.828125 22.703125 48.234375 14.96875 
Q 45.65625 7.234375 40.5 3 
Q 35.359375 -1.21875 27.484375 -1.21875 
Q 17.140625 -1.21875 11.234375 6.203125 
Q 4.15625 15.140625 4.15625 35.296875 
z
M 13.1875 35.296875 
Q 13.1875 17.671875 17.3125 11.828125 
Q 21.4375 6 27.484375 6 
Q 33.546875 6 37.671875 11.859375 
Q 41.796875 17.71875 41.796875 35.296875 
Q 41.796875 52.984375 37.671875 58.78125 
Q 33.546875 64.59375 27.390625 64.59375 
Q 21.34375 64.59375 17.71875 59.46875 
Q 13.1875 52.9375 13.1875 35.296875 
z
" id="ArialMT-48"/>
     <path d="M 9.03125 41.84375 
L 9.03125 51.859375 
L 19.046875 51.859375 
L 19.046875 41.84375 
z
M 9.03125 0 
L 9.03125 10.015625 
L 19.046875 10.015625 
L 19.046875 0 
z
" id="ArialMT-58"/>
     <path d="M 49.75 54.046875 
L 41.015625 53.375 
Q 39.84375 58.546875 37.703125 60.890625 
Q 34.125 64.65625 28.90625 64.65625 
Q 24.703125 64.65625 21.53125 62.3125 
Q 17.390625 59.28125 14.984375 53.46875 
Q 12.59375 47.65625 12.5 36.921875 
Q 15.671875 41.75 20.265625 44.09375 
Q 24.859375 46.4375 29.890625 46.4375 
Q 38.671875 46.4375 44.84375 39.96875 
Q 51.03125 33.5 51.03125 23.25 
Q 51.03125 16.5 48.125 10.71875 
Q 45.21875 4.9375 40.140625 1.859375 
Q 35.0625 -1.21875 28.609375 -1.21875 
Q 17.625 -1.21875 10.6875 6.859375 
Q 3.765625 14.9375 3.765625 33.5 
Q 3.765625 54.25 11.421875 63.671875 
Q 18.109375 71.875 29.4375 71.875 
Q 37.890625 71.875 43.28125 67.140625 
Q 48.6875 62.40625 49.75 54.046875 
z
M 13.875 23.1875 
Q 13.875 18.65625 15.796875 14.5 
Q 17.71875 10.359375 21.1875 8.171875 
Q 24.65625 6 28.46875 6 
Q 34.03125 6 38.03125 10.484375 
Q 42.046875 14.984375 42.046875 22.703125 
Q 42.046875 30.125 38.078125 34.390625 
Q 34.125 38.671875 28.125 38.671875 
Q 22.171875 38.671875 18.015625 34.390625 
Q 13.875 30.125 13.875 23.1875 
z
" id="ArialMT-54"/>
     <path d="M 9.078125 0 
L 9.078125 10.015625 
L 19.09375 10.015625 
L 19.09375 0 
z
" id="ArialMT-46"/>
    </defs>
    <g style="fill:#262626;" transform="translate(187.13861 15.6)scale(0.12 -0.12)">
     <use xlink:href="#ArialMT-57"/>
     <use x="55.615234" xlink:href="#ArialMT-50"/>
     <use x="111.230469" xlink:href="#ArialMT-48"/>
     <use x="166.845703" xlink:href="#ArialMT-58"/>
     <use x="194.628906" xlink:href="#ArialMT-54"/>
     <use x="250.244141" xlink:href="#ArialMT-46"/>
     <use x="278.027344" xlink:href="#ArialMT-48"/>
    </g>
   </g>
  </g>
  <g id="axes_2">
   <g id="patch_20">
    <path d="M 308.172414 157.5 
L 452.482759 157.5 
L 452.482759 21.6 
L 308.172414 21.6 
z
" style="fill:#ffffff;"/>
   </g>
   <g id="patch_21">
    <path clip-path="url(#p346bcb2eab)" d="M 349.900706 102.133333 
L 341.207312 102.133333 
" style="stroke:#000000;stroke-linejoin:miter;stroke-width:0.5;"/>
   </g>
   <g id="patch_22">
    <path clip-path="url(#p346bcb2eab)" d="M 358.594101 102.133333 
L 349.900706 102.133333 
" style="stroke:#000000;stroke-linejoin:miter;stroke-width:0.5;"/>
   </g>
   <g id="patch_23">
    <path clip-path="url(#p346bcb2eab)" d="M 367.287495 102.133333 
L 358.594101 102.133333 
" style="stroke:#000000;stroke-linejoin:miter;stroke-width:0.5;"/>
   </g>
   <g id="patch_24">
    <path clip-path="url(#p346bcb2eab)" d="M 375.980889 102.133333 
L 367.287495 102.133333 
" style="stroke:#000000;stroke-linejoin:miter;stroke-width:0.5;"/>
   </g>
   <g id="patch_25">
    <path clip-path="url(#p346bcb2eab)" d="M 384.674283 102.133333 
L 375.980889 102.133333 
" style="stroke:#000000;stroke-linejoin:miter;stroke-width:0.5;"/>
   </g>
   <g id="patch_26">
    <path clip-path="url(#p346bcb2eab)" d="M 393.367678 102.133333 
L 384.674283 102.133333 
" style="stroke:#000000;stroke-linejoin:miter;stroke-width:0.5;"/>
   </g>
   <g id="patch_27">
    <path clip-path="url(#p346bcb2eab)" d="M 402.061072 89.55 
L 393.367678 102.133333 
" style="stroke:#000000;stroke-linejoin:miter;stroke-width:0.5;"/>
   </g>
   <g id="patch_28">
    <path clip-path="url(#p346bcb2eab)" d="M 367.287495 76.966667 
L 358.594101 76.966667 
" style="stroke:#000000;stroke-linejoin:miter;stroke-width:0.5;"/>
   </g>
   <g id="patch_29">
    <path clip-path="url(#p346bcb2eab)" d="M 375.980889 76.966667 
L 367.287495 76.966667 
" style="stroke:#000000;stroke-linejoin:miter;stroke-width:0.5;"/>
   </g>
   <g id="patch_30">
    <path clip-path="url(#p346bcb2eab)" d="M 384.674283 76.966667 
L 375.980889 76.966667 
" style="stroke:#000000;stroke-linejoin:miter;stroke-width:0.5;"/>
   </g>
   <g id="patch_31">
    <path clip-path="url(#p346bcb2eab)" d="M 393.367678 76.966667 
L 384.674283 76.966667 
" style="stroke:#000000;stroke-linejoin:miter;stroke-width:0.5;"/>
   </g>
   <g id="patch_32">
    <path clip-path="url(#p346bcb2eab)" d="M 402.061072 89.55 
L 393.367678 76.966667 
" style="stroke:#000000;stroke-linejoin:miter;stroke-width:0.5;"/>
   </g>
   <g id="patch_33">
    <path clip-path="url(#p346bcb2eab)" d="M 410.754466 89.55 
L 402.061072 89.55 
" style="stroke:#000000;stroke-linejoin:miter;stroke-width:0.5;"/>
   </g>
   <g id="patch_34">
    <path clip-path="url(#p346bcb2eab)" d="M 419.44786 89.55 
L 410.754466 89.55 
" style="stroke:#000000;stroke-linejoin:miter;stroke-width:0.5;"/>
   </g>
   <g id="patch_35">
    <path clip-path="url(#p346bcb2eab)" d="M 419.44786 89.55 
L 419.44786 76.966667 
" style="stroke:#000000;stroke-linejoin:miter;stroke-width:0.5;"/>
   </g>
   <g id="e08995b689a1487ea0f94d4c0393d168-1-node">
    <path clip-path="url(#p346bcb2eab)" d="M 420.838803 85.523333 
L 420.838803 93.576667 
L 418.056917 93.576667 
L 418.056917 85.523333 
L 420.838803 85.523333 
z
" style="fill:#0000ff;stroke:#ffffff;stroke-linejoin:miter;stroke-width:0.5;"/>
   </g>
   <g id="e08995b689a1487ea0f94d4c0393d168-4-node">
    <path clip-path="url(#p346bcb2eab)" d="M 412.145409 85.523333 
L 412.145409 93.576667 
L 409.363523 93.576667 
L 409.363523 85.523333 
L 412.145409 85.523333 
z
" style="fill:#0000ff;stroke:#ffffff;stroke-linejoin:miter;stroke-width:0.5;"/>
   </g>
   <g id="e08995b689a1487ea0f94d4c0393d168-6-node">
    <path clip-path="url(#p346bcb2eab)" d="M 402.061072 93.576667 
C 402.429954 93.576667 402.783778 93.152392 403.044617 92.397283 
C 403.305456 91.642175 403.452015 90.617884 403.452015 89.55 
C 403.452015 88.482116 403.305456 87.457825 403.044617 86.702717 
C 402.783778 85.947608 402.429954 85.523333 402.061072 85.523333 
C 401.692189 85.523333 401.338366 85.947608 401.077527 86.702717 
C 400.816687 87.457825 400.670129 88.482116 400.670129 89.55 
C 400.670129 90.617884 400.816687 91.642175 401.077527 92.397283 
C 401.338366 93.152392 401.692189 93.576667 402.061072 93.576667 
z
" style="fill:#00c832;stroke:#ffffff;stroke-linejoin:miter;stroke-width:0.5;"/>
   </g>
   <g id="e08995b689a1487ea0f94d4c0393d168-14-node">
    <path clip-path="url(#p346bcb2eab)" d="M 393.367678 106.16 
C 393.73656 106.16 394.090384 105.735725 394.351223 104.980617 
C 394.612062 104.225508 394.758621 103.201218 394.758621 102.133333 
C 394.758621 101.065449 394.612062 100.041158 394.351223 99.28605 
C 394.090384 98.530942 393.73656 98.106667 393.367678 98.106667 
C 392.998795 98.106667 392.644972 98.530942 392.384132 99.28605 
C 392.123293 100.041158 391.976735 101.065449 391.976735 102.133333 
C 391.976735 103.201218 392.123293 104.225508 392.384132 104.980617 
C 392.644972 105.735725 392.998795 106.16 393.367678 106.16 
z
" style="fill:#00c832;stroke:#ffffff;stroke-linejoin:miter;stroke-width:0.5;"/>
   </g>
   <g id="e08995b689a1487ea0f94d4c0393d168-15-node">
    <path clip-path="url(#p346bcb2eab)" d="M 386.065226 98.106667 
L 386.065226 106.16 
L 383.28334 106.16 
L 383.28334 98.106667 
L 386.065226 98.106667 
z
" style="fill:#0000ff;stroke:#ffffff;stroke-linejoin:miter;stroke-width:0.5;"/>
   </g>
   <g id="e08995b689a1487ea0f94d4c0393d168-17-node">
    <path clip-path="url(#p346bcb2eab)" d="M 375.980889 106.16 
C 376.349771 106.16 376.703595 105.735725 376.964434 104.980617 
C 377.225274 104.225508 377.371832 103.201218 377.371832 102.133333 
C 377.371832 101.065449 377.225274 100.041158 376.964434 99.28605 
C 376.703595 98.530942 376.349771 98.106667 375.980889 98.106667 
C 375.612007 98.106667 375.258183 98.530942 374.997344 99.28605 
C 374.736505 100.041158 374.589946 101.065449 374.589946 102.133333 
C 374.589946 103.201218 374.736505 104.225508 374.997344 104.980617 
C 375.258183 105.735725 375.612007 106.16 375.980889 106.16 
z
" style="fill:#ffff00;stroke:#ffffff;stroke-linejoin:miter;stroke-width:0.5;"/>
   </g>
   <g id="e08995b689a1487ea0f94d4c0393d168-18-node">
    <path clip-path="url(#p346bcb2eab)" d="M 368.678438 98.106667 
L 368.678438 106.16 
L 365.896552 106.16 
L 365.896552 98.106667 
L 368.678438 98.106667 
z
" style="fill:#0000ff;stroke:#ffffff;stroke-linejoin:miter;stroke-width:0.5;"/>
   </g>
   <g id="e08995b689a1487ea0f94d4c0393d168-20-node">
    <path clip-path="url(#p346bcb2eab)" d="M 358.594101 106.16 
C 358.962983 106.16 359.316807 105.735725 359.577646 104.980617 
C 359.838485 104.225508 359.985044 103.201218 359.985044 102.133333 
C 359.985044 101.065449 359.838485 100.041158 359.577646 99.28605 
C 359.316807 98.530942 358.962983 98.106667 358.594101 98.106667 
C 358.225218 98.106667 357.871395 98.530942 357.610555 99.28605 
C 357.349716 100.041158 357.203157 101.065449 357.203157 102.133333 
C 357.203157 103.201218 357.349716 104.225508 357.610555 104.980617 
C 357.871395 105.735725 358.225218 106.16 358.594101 106.16 
z
" style="fill:#ffff00;stroke:#ffffff;stroke-linejoin:miter;stroke-width:0.5;"/>
   </g>
   <g id="e08995b689a1487ea0f94d4c0393d168-21-node">
    <path clip-path="url(#p346bcb2eab)" d="M 351.291649 98.106667 
L 351.291649 106.16 
L 348.509763 106.16 
L 348.509763 98.106667 
L 351.291649 98.106667 
z
" style="fill:#0000ff;stroke:#ffffff;stroke-linejoin:miter;stroke-width:0.5;"/>
   </g>
   <g id="e08995b689a1487ea0f94d4c0393d168-23-node">
    <path clip-path="url(#p346bcb2eab)" d="M 341.207312 106.16 
C 341.576194 106.16 341.930018 105.735725 342.190857 104.980617 
C 342.451697 104.225508 342.598255 103.201218 342.598255 102.133333 
C 342.598255 101.065449 342.451697 100.041158 342.190857 99.28605 
C 341.930018 98.530942 341.576194 98.106667 341.207312 98.106667 
C 340.83843 98.106667 340.484606 98.530942 340.223767 99.28605 
C 339.962927 100.041158 339.816369 101.065449 339.816369 102.133333 
C 339.816369 103.201218 339.962927 104.225508 340.223767 104.980617 
C 340.484606 105.735725 340.83843 106.16 341.207312 106.16 
z
" style="fill:#ffff00;stroke:#ffffff;stroke-linejoin:miter;stroke-width:0.5;"/>
   </g>
   <g id="e08995b689a1487ea0f94d4c0393d168-7-node">
    <path clip-path="url(#p346bcb2eab)" d="M 393.367678 80.993333 
C 393.73656 80.993333 394.090384 80.569058 394.351223 79.81395 
C 394.612062 79.058842 394.758621 78.034551 394.758621 76.966667 
C 394.758621 75.898782 394.612062 74.874492 394.351223 74.119383 
C 394.090384 73.364275 393.73656 72.94 393.367678 72.94 
C 392.998795 72.94 392.644972 73.364275 392.384132 74.119383 
C 392.123293 74.874492 391.976735 75.898782 391.976735 76.966667 
C 391.976735 78.034551 392.123293 79.058842 392.384132 79.81395 
C 392.644972 80.569058 392.998795 80.993333 393.367678 80.993333 
z
" style="fill:#00c832;stroke:#ffffff;stroke-linejoin:miter;stroke-width:0.5;"/>
   </g>
   <g id="e08995b689a1487ea0f94d4c0393d168-8-node">
    <path clip-path="url(#p346bcb2eab)" d="M 386.065226 72.94 
L 386.065226 80.993333 
L 383.28334 80.993333 
L 383.28334 72.94 
L 386.065226 72.94 
z
" style="fill:#0000ff;stroke:#ffffff;stroke-linejoin:miter;stroke-width:0.5;"/>
   </g>
   <g id="e08995b689a1487ea0f94d4c0393d168-10-node">
    <path clip-path="url(#p346bcb2eab)" d="M 375.980889 80.993333 
C 376.349771 80.993333 376.703595 80.569058 376.964434 79.81395 
C 377.225274 79.058842 377.371832 78.034551 377.371832 76.966667 
C 377.371832 75.898782 377.225274 74.874492 376.964434 74.119383 
C 376.703595 73.364275 376.349771 72.94 375.980889 72.94 
C 375.612007 72.94 375.258183 73.364275 374.997344 74.119383 
C 374.736505 74.874492 374.589946 75.898782 374.589946 76.966667 
C 374.589946 78.034551 374.736505 79.058842 374.997344 79.81395 
C 375.258183 80.569058 375.612007 80.993333 375.980889 80.993333 
z
" style="fill:#ffff00;stroke:#ffffff;stroke-linejoin:miter;stroke-width:0.5;"/>
   </g>
   <g id="e08995b689a1487ea0f94d4c0393d168-11-node">
    <path clip-path="url(#p346bcb2eab)" d="M 368.678438 72.94 
L 368.678438 80.993333 
L 365.896552 80.993333 
L 365.896552 72.94 
L 368.678438 72.94 
z
" style="fill:#0000ff;stroke:#ffffff;stroke-linejoin:miter;stroke-width:0.5;"/>
   </g>
   <g id="e08995b689a1487ea0f94d4c0393d168-13-node">
    <path clip-path="url(#p346bcb2eab)" d="M 358.594101 80.993333 
C 358.962983 80.993333 359.316807 80.569058 359.577646 79.81395 
C 359.838485 79.058842 359.985044 78.034551 359.985044 76.966667 
C 359.985044 75.898782 359.838485 74.874492 359.577646 74.119383 
C 359.316807 73.364275 358.962983 72.94 358.594101 72.94 
C 358.225218 72.94 357.871395 73.364275 357.610555 74.119383 
C 357.349716 74.874492 357.203157 75.898782 357.203157 76.966667 
C 357.203157 78.034551 357.349716 79.058842 357.610555 79.81395 
C 357.871395 80.569058 358.225218 80.993333 358.594101 80.993333 
z
" style="fill:#ffff00;stroke:#ffffff;stroke-linejoin:miter;stroke-width:0.5;"/>
   </g>
   <g id="e08995b689a1487ea0f94d4c0393d168-3-node">
    <path clip-path="url(#p346bcb2eab)" d="M 419.44786 72.94 
L 418.243268 78.98 
L 420.652452 78.98 
z
" style="fill:#ff0000;stroke:#ffffff;stroke-linejoin:miter;stroke-width:0.5;"/>
   </g>
   <g id="patch_36">
    <path d="M 308.172414 157.5 
L 308.172414 21.6 
" style="fill:none;stroke:#ffffff;stroke-linecap:square;stroke-linejoin:miter;stroke-width:1.25;"/>
   </g>
   <g id="patch_37">
    <path d="M 452.482759 157.5 
L 452.482759 21.6 
" style="fill:none;stroke:#ffffff;stroke-linecap:square;stroke-linejoin:miter;stroke-width:1.25;"/>
   </g>
   <g id="patch_38">
    <path d="M 308.172414 157.5 
L 452.482759 157.5 
" style="fill:none;stroke:#ffffff;stroke-linecap:square;stroke-linejoin:miter;stroke-width:1.25;"/>
   </g>
   <g id="patch_39">
    <path d="M 308.172414 21.6 
L 452.482759 21.6 
" style="fill:none;stroke:#ffffff;stroke-linecap:square;stroke-linejoin:miter;stroke-width:1.25;"/>
   </g>
   <g id="text_2">
    <!-- 1298:8.0 -->
    <defs>
     <path d="M 37.25 0 
L 28.46875 0 
L 28.46875 56 
Q 25.296875 52.984375 20.140625 49.953125 
Q 14.984375 46.921875 10.890625 45.40625 
L 10.890625 53.90625 
Q 18.265625 57.375 23.78125 62.296875 
Q 29.296875 67.234375 31.59375 71.875 
L 37.25 71.875 
z
" id="ArialMT-49"/>
     <path d="M 17.671875 38.8125 
Q 12.203125 40.828125 9.5625 44.53125 
Q 6.9375 48.25 6.9375 53.421875 
Q 6.9375 61.234375 12.546875 66.546875 
Q 18.171875 71.875 27.484375 71.875 
Q 36.859375 71.875 42.578125 66.421875 
Q 48.296875 60.984375 48.296875 53.171875 
Q 48.296875 48.1875 45.671875 44.5 
Q 43.0625 40.828125 37.75 38.8125 
Q 44.34375 36.671875 47.78125 31.875 
Q 51.21875 27.09375 51.21875 20.453125 
Q 51.21875 11.28125 44.71875 5.03125 
Q 38.234375 -1.21875 27.640625 -1.21875 
Q 17.046875 -1.21875 10.546875 5.046875 
Q 4.046875 11.328125 4.046875 20.703125 
Q 4.046875 27.6875 7.59375 32.390625 
Q 11.140625 37.109375 17.671875 38.8125 
z
M 15.921875 53.71875 
Q 15.921875 48.640625 19.1875 45.40625 
Q 22.46875 42.1875 27.6875 42.1875 
Q 32.765625 42.1875 36.015625 45.375 
Q 39.265625 48.578125 39.265625 53.21875 
Q 39.265625 58.0625 35.90625 61.359375 
Q 32.5625 64.65625 27.59375 64.65625 
Q 22.5625 64.65625 19.234375 61.421875 
Q 15.921875 58.203125 15.921875 53.71875 
z
M 13.09375 20.65625 
Q 13.09375 16.890625 14.875 13.375 
Q 16.65625 9.859375 20.171875 7.921875 
Q 23.6875 6 27.734375 6 
Q 34.03125 6 38.125 10.046875 
Q 42.234375 14.109375 42.234375 20.359375 
Q 42.234375 26.703125 38.015625 30.859375 
Q 33.796875 35.015625 27.4375 35.015625 
Q 21.234375 35.015625 17.15625 30.90625 
Q 13.09375 26.8125 13.09375 20.65625 
z
" id="ArialMT-56"/>
    </defs>
    <g style="fill:#262626;" transform="translate(356.974461 15.6)scale(0.12 -0.12)">
     <use xlink:href="#ArialMT-49"/>
     <use x="55.615234" xlink:href="#ArialMT-50"/>
     <use x="111.230469" xlink:href="#ArialMT-57"/>
     <use x="166.845703" xlink:href="#ArialMT-56"/>
     <use x="222.460938" xlink:href="#ArialMT-58"/>
     <use x="250.244141" xlink:href="#ArialMT-56"/>
     <use x="305.859375" xlink:href="#ArialMT-46"/>
     <use x="333.642578" xlink:href="#ArialMT-48"/>
    </g>
   </g>
  </g>
  <g id="axes_3">
   <g id="patch_40">
    <path d="M 481.344828 157.5 
L 625.655172 157.5 
L 625.655172 21.6 
L 481.344828 21.6 
z
" style="fill:#ffffff;"/>
   </g>
   <g id="patch_41">
    <path clip-path="url(#pcb034ff0bb)" d="M 523.07312 102.133333 
L 514.379726 102.133333 
" style="stroke:#000000;stroke-linejoin:miter;stroke-width:0.5;"/>
   </g>
   <g id="patch_42">
    <path clip-path="url(#pcb034ff0bb)" d="M 531.766514 102.133333 
L 523.07312 102.133333 
" style="stroke:#000000;stroke-linejoin:miter;stroke-width:0.5;"/>
   </g>
   <g id="patch_43">
    <path clip-path="url(#pcb034ff0bb)" d="M 540.459909 102.133333 
L 531.766514 102.133333 
" style="stroke:#000000;stroke-linejoin:miter;stroke-width:0.5;"/>
   </g>
   <g id="patch_44">
    <path clip-path="url(#pcb034ff0bb)" d="M 549.153303 102.133333 
L 540.459909 102.133333 
" style="stroke:#000000;stroke-linejoin:miter;stroke-width:0.5;"/>
   </g>
   <g id="patch_45">
    <path clip-path="url(#pcb034ff0bb)" d="M 557.846697 102.133333 
L 549.153303 102.133333 
" style="stroke:#000000;stroke-linejoin:miter;stroke-width:0.5;"/>
   </g>
   <g id="patch_46">
    <path clip-path="url(#pcb034ff0bb)" d="M 566.540091 102.133333 
L 557.846697 102.133333 
" style="stroke:#000000;stroke-linejoin:miter;stroke-width:0.5;"/>
   </g>
   <g id="patch_47">
    <path clip-path="url(#pcb034ff0bb)" d="M 575.233486 89.55 
L 566.540091 102.133333 
" style="stroke:#000000;stroke-linejoin:miter;stroke-width:0.5;"/>
   </g>
   <g id="patch_48">
    <path clip-path="url(#pcb034ff0bb)" d="M 523.07312 76.966667 
L 514.379726 76.966667 
" style="stroke:#000000;stroke-linejoin:miter;stroke-width:0.5;"/>
   </g>
   <g id="patch_49">
    <path clip-path="url(#pcb034ff0bb)" d="M 531.766514 76.966667 
L 523.07312 76.966667 
" style="stroke:#000000;stroke-linejoin:miter;stroke-width:0.5;"/>
   </g>
   <g id="patch_50">
    <path clip-path="url(#pcb034ff0bb)" d="M 540.459909 76.966667 
L 531.766514 76.966667 
" style="stroke:#000000;stroke-linejoin:miter;stroke-width:0.5;"/>
   </g>
   <g id="patch_51">
    <path clip-path="url(#pcb034ff0bb)" d="M 549.153303 76.966667 
L 540.459909 76.966667 
" style="stroke:#000000;stroke-linejoin:miter;stroke-width:0.5;"/>
   </g>
   <g id="patch_52">
    <path clip-path="url(#pcb034ff0bb)" d="M 557.846697 76.966667 
L 549.153303 76.966667 
" style="stroke:#000000;stroke-linejoin:miter;stroke-width:0.5;"/>
   </g>
   <g id="patch_53">
    <path clip-path="url(#pcb034ff0bb)" d="M 566.540091 76.966667 
L 557.846697 76.966667 
" style="stroke:#000000;stroke-linejoin:miter;stroke-width:0.5;"/>
   </g>
   <g id="patch_54">
    <path clip-path="url(#pcb034ff0bb)" d="M 575.233486 89.55 
L 566.540091 76.966667 
" style="stroke:#000000;stroke-linejoin:miter;stroke-width:0.5;"/>
   </g>
   <g id="patch_55">
    <path clip-path="url(#pcb034ff0bb)" d="M 583.92688 89.55 
L 575.233486 89.55 
" style="stroke:#000000;stroke-linejoin:miter;stroke-width:0.5;"/>
   </g>
   <g id="patch_56">
    <path clip-path="url(#pcb034ff0bb)" d="M 592.620274 89.55 
L 583.92688 89.55 
" style="stroke:#000000;stroke-linejoin:miter;stroke-width:0.5;"/>
   </g>
   <g id="patch_57">
    <path clip-path="url(#pcb034ff0bb)" d="M 592.620274 89.55 
L 592.620274 76.966667 
" style="stroke:#000000;stroke-linejoin:miter;stroke-width:0.5;"/>
   </g>
   <g id="b5436ddf2aad46548971c6d6a9dfd100-1-node">
    <path clip-path="url(#pcb034ff0bb)" d="M 594.011217 85.523333 
L 594.011217 93.576667 
L 591.229331 93.576667 
L 591.229331 85.523333 
L 594.011217 85.523333 
z
" style="fill:#0000ff;stroke:#ffffff;stroke-linejoin:miter;stroke-width:0.5;"/>
   </g>
   <g id="b5436ddf2aad46548971c6d6a9dfd100-4-node">
    <path clip-path="url(#pcb034ff0bb)" d="M 585.317823 85.523333 
L 585.317823 93.576667 
L 582.535937 93.576667 
L 582.535937 85.523333 
L 585.317823 85.523333 
z
" style="fill:#0000ff;stroke:#ffffff;stroke-linejoin:miter;stroke-width:0.5;"/>
   </g>
   <g id="b5436ddf2aad46548971c6d6a9dfd100-6-node">
    <path clip-path="url(#pcb034ff0bb)" d="M 575.233486 93.576667 
C 575.602368 93.576667 575.956192 93.152392 576.217031 92.397283 
C 576.47787 91.642175 576.624429 90.617884 576.624429 89.55 
C 576.624429 88.482116 576.47787 87.457825 576.217031 86.702717 
C 575.956192 85.947608 575.602368 85.523333 575.233486 85.523333 
C 574.864603 85.523333 574.51078 85.947608 574.24994 86.702717 
C 573.989101 87.457825 573.842543 88.482116 573.842543 89.55 
C 573.842543 90.617884 573.989101 91.642175 574.24994 92.397283 
C 574.51078 93.152392 574.864603 93.576667 575.233486 93.576667 
z
" style="fill:#00c832;stroke:#ffffff;stroke-linejoin:miter;stroke-width:0.5;"/>
   </g>
   <g id="b5436ddf2aad46548971c6d6a9dfd100-17-node">
    <path clip-path="url(#pcb034ff0bb)" d="M 566.540091 106.16 
C 566.908974 106.16 567.262797 105.735725 567.523637 104.980617 
C 567.784476 104.225508 567.931034 103.201218 567.931034 102.133333 
C 567.931034 101.065449 567.784476 100.041158 567.523637 99.28605 
C 567.262797 98.530942 566.908974 98.106667 566.540091 98.106667 
C 566.171209 98.106667 565.817385 98.530942 565.556546 99.28605 
C 565.295707 100.041158 565.149148 101.065449 565.149148 102.133333 
C 565.149148 103.201218 565.295707 104.225508 565.556546 104.980617 
C 565.817385 105.735725 566.171209 106.16 566.540091 106.16 
z
" style="fill:#00c832;stroke:#ffffff;stroke-linejoin:miter;stroke-width:0.5;"/>
   </g>
   <g id="b5436ddf2aad46548971c6d6a9dfd100-18-node">
    <path clip-path="url(#pcb034ff0bb)" d="M 559.23764 98.106667 
L 559.23764 106.16 
L 556.455754 106.16 
L 556.455754 98.106667 
L 559.23764 98.106667 
z
" style="fill:#0000ff;stroke:#ffffff;stroke-linejoin:miter;stroke-width:0.5;"/>
   </g>
   <g id="b5436ddf2aad46548971c6d6a9dfd100-20-node">
    <path clip-path="url(#pcb034ff0bb)" d="M 549.153303 106.16 
C 549.522185 106.16 549.876009 105.735725 550.136848 104.980617 
C 550.397687 104.225508 550.544246 103.201218 550.544246 102.133333 
C 550.544246 101.065449 550.397687 100.041158 550.136848 99.28605 
C 549.876009 98.530942 549.522185 98.106667 549.153303 98.106667 
C 548.78442 98.106667 548.430597 98.530942 548.169758 99.28605 
C 547.908918 100.041158 547.76236 101.065449 547.76236 102.133333 
C 547.76236 103.201218 547.908918 104.225508 548.169758 104.980617 
C 548.430597 105.735725 548.78442 106.16 549.153303 106.16 
z
" style="fill:#ffff00;stroke:#ffffff;stroke-linejoin:miter;stroke-width:0.5;"/>
   </g>
   <g id="b5436ddf2aad46548971c6d6a9dfd100-21-node">
    <path clip-path="url(#pcb034ff0bb)" d="M 541.850852 98.106667 
L 541.850852 106.16 
L 539.068966 106.16 
L 539.068966 98.106667 
L 541.850852 98.106667 
z
" style="fill:#0000ff;stroke:#ffffff;stroke-linejoin:miter;stroke-width:0.5;"/>
   </g>
   <g id="b5436ddf2aad46548971c6d6a9dfd100-23-node">
    <path clip-path="url(#pcb034ff0bb)" d="M 531.766514 106.16 
C 532.135397 106.16 532.48922 105.735725 532.75006 104.980617 
C 533.010899 104.225508 533.157457 103.201218 533.157457 102.133333 
C 533.157457 101.065449 533.010899 100.041158 532.75006 99.28605 
C 532.48922 98.530942 532.135397 98.106667 531.766514 98.106667 
C 531.397632 98.106667 531.043808 98.530942 530.782969 99.28605 
C 530.52213 100.041158 530.375571 101.065449 530.375571 102.133333 
C 530.375571 103.201218 530.52213 104.225508 530.782969 104.980617 
C 531.043808 105.735725 531.397632 106.16 531.766514 106.16 
z
" style="fill:#ffff00;stroke:#ffffff;stroke-linejoin:miter;stroke-width:0.5;"/>
   </g>
   <g id="b5436ddf2aad46548971c6d6a9dfd100-24-node">
    <path clip-path="url(#pcb034ff0bb)" d="M 524.464063 98.106667 
L 524.464063 106.16 
L 521.682177 106.16 
L 521.682177 98.106667 
L 524.464063 98.106667 
z
" style="fill:#0000ff;stroke:#ffffff;stroke-linejoin:miter;stroke-width:0.5;"/>
   </g>
   <g id="b5436ddf2aad46548971c6d6a9dfd100-26-node">
    <path clip-path="url(#pcb034ff0bb)" d="M 514.379726 106.16 
C 514.748608 106.16 515.102432 105.735725 515.363271 104.980617 
C 515.62411 104.225508 515.770669 103.201218 515.770669 102.133333 
C 515.770669 101.065449 515.62411 100.041158 515.363271 99.28605 
C 515.102432 98.530942 514.748608 98.106667 514.379726 98.106667 
C 514.010843 98.106667 513.65702 98.530942 513.396181 99.28605 
C 513.135341 100.041158 512.988783 101.065449 512.988783 102.133333 
C 512.988783 103.201218 513.135341 104.225508 513.396181 104.980617 
C 513.65702 105.735725 514.010843 106.16 514.379726 106.16 
z
" style="fill:#ffff00;stroke:#ffffff;stroke-linejoin:miter;stroke-width:0.5;"/>
   </g>
   <g id="b5436ddf2aad46548971c6d6a9dfd100-7-node">
    <path clip-path="url(#pcb034ff0bb)" d="M 566.540091 80.993333 
C 566.908974 80.993333 567.262797 80.569058 567.523637 79.81395 
C 567.784476 79.058842 567.931034 78.034551 567.931034 76.966667 
C 567.931034 75.898782 567.784476 74.874492 567.523637 74.119383 
C 567.262797 73.364275 566.908974 72.94 566.540091 72.94 
C 566.171209 72.94 565.817385 73.364275 565.556546 74.119383 
C 565.295707 74.874492 565.149148 75.898782 565.149148 76.966667 
C 565.149148 78.034551 565.295707 79.058842 565.556546 79.81395 
C 565.817385 80.569058 566.171209 80.993333 566.540091 80.993333 
z
" style="fill:#00c832;stroke:#ffffff;stroke-linejoin:miter;stroke-width:0.5;"/>
   </g>
   <g id="b5436ddf2aad46548971c6d6a9dfd100-8-node">
    <path clip-path="url(#pcb034ff0bb)" d="M 559.23764 72.94 
L 559.23764 80.993333 
L 556.455754 80.993333 
L 556.455754 72.94 
L 559.23764 72.94 
z
" style="fill:#0000ff;stroke:#ffffff;stroke-linejoin:miter;stroke-width:0.5;"/>
   </g>
   <g id="b5436ddf2aad46548971c6d6a9dfd100-10-node">
    <path clip-path="url(#pcb034ff0bb)" d="M 549.153303 80.993333 
C 549.522185 80.993333 549.876009 80.569058 550.136848 79.81395 
C 550.397687 79.058842 550.544246 78.034551 550.544246 76.966667 
C 550.544246 75.898782 550.397687 74.874492 550.136848 74.119383 
C 549.876009 73.364275 549.522185 72.94 549.153303 72.94 
C 548.78442 72.94 548.430597 73.364275 548.169758 74.119383 
C 547.908918 74.874492 547.76236 75.898782 547.76236 76.966667 
C 547.76236 78.034551 547.908918 79.058842 548.169758 79.81395 
C 548.430597 80.569058 548.78442 80.993333 549.153303 80.993333 
z
" style="fill:#ffff00;stroke:#ffffff;stroke-linejoin:miter;stroke-width:0.5;"/>
   </g>
   <g id="b5436ddf2aad46548971c6d6a9dfd100-11-node">
    <path clip-path="url(#pcb034ff0bb)" d="M 541.850852 72.94 
L 541.850852 80.993333 
L 539.068966 80.993333 
L 539.068966 72.94 
L 541.850852 72.94 
z
" style="fill:#0000ff;stroke:#ffffff;stroke-linejoin:miter;stroke-width:0.5;"/>
   </g>
   <g id="b5436ddf2aad46548971c6d6a9dfd100-13-node">
    <path clip-path="url(#pcb034ff0bb)" d="M 531.766514 80.993333 
C 532.135397 80.993333 532.48922 80.569058 532.75006 79.81395 
C 533.010899 79.058842 533.157457 78.034551 533.157457 76.966667 
C 533.157457 75.898782 533.010899 74.874492 532.75006 74.119383 
C 532.48922 73.364275 532.135397 72.94 531.766514 72.94 
C 531.397632 72.94 531.043808 73.364275 530.782969 74.119383 
C 530.52213 74.874492 530.375571 75.898782 530.375571 76.966667 
C 530.375571 78.034551 530.52213 79.058842 530.782969 79.81395 
C 531.043808 80.569058 531.397632 80.993333 531.766514 80.993333 
z
" style="fill:#ffff00;stroke:#ffffff;stroke-linejoin:miter;stroke-width:0.5;"/>
   </g>
   <g id="b5436ddf2aad46548971c6d6a9dfd100-14-node">
    <path clip-path="url(#pcb034ff0bb)" d="M 524.464063 72.94 
L 524.464063 80.993333 
L 521.682177 80.993333 
L 521.682177 72.94 
L 524.464063 72.94 
z
" style="fill:#0000ff;stroke:#ffffff;stroke-linejoin:miter;stroke-width:0.5;"/>
   </g>
   <g id="b5436ddf2aad46548971c6d6a9dfd100-16-node">
    <path clip-path="url(#pcb034ff0bb)" d="M 514.379726 80.993333 
C 514.748608 80.993333 515.102432 80.569058 515.363271 79.81395 
C 515.62411 79.058842 515.770669 78.034551 515.770669 76.966667 
C 515.770669 75.898782 515.62411 74.874492 515.363271 74.119383 
C 515.102432 73.364275 514.748608 72.94 514.379726 72.94 
C 514.010843 72.94 513.65702 73.364275 513.396181 74.119383 
C 513.135341 74.874492 512.988783 75.898782 512.988783 76.966667 
C 512.988783 78.034551 513.135341 79.058842 513.396181 79.81395 
C 513.65702 80.569058 514.010843 80.993333 514.379726 80.993333 
z
" style="fill:#ffff00;stroke:#ffffff;stroke-linejoin:miter;stroke-width:0.5;"/>
   </g>
   <g id="b5436ddf2aad46548971c6d6a9dfd100-3-node">
    <path clip-path="url(#pcb034ff0bb)" d="M 592.620274 72.94 
L 591.415682 78.98 
L 593.824866 78.98 
z
" style="fill:#ff0000;stroke:#ffffff;stroke-linejoin:miter;stroke-width:0.5;"/>
   </g>
   <g id="patch_58">
    <path d="M 481.344828 157.5 
L 481.344828 21.6 
" style="fill:none;stroke:#ffffff;stroke-linecap:square;stroke-linejoin:miter;stroke-width:1.25;"/>
   </g>
   <g id="patch_59">
    <path d="M 625.655172 157.5 
L 625.655172 21.6 
" style="fill:none;stroke:#ffffff;stroke-linecap:square;stroke-linejoin:miter;stroke-width:1.25;"/>
   </g>
   <g id="patch_60">
    <path d="M 481.344828 157.5 
L 625.655172 157.5 
" style="fill:none;stroke:#ffffff;stroke-linecap:square;stroke-linejoin:miter;stroke-width:1.25;"/>
   </g>
   <g id="patch_61">
    <path d="M 481.344828 21.6 
L 625.655172 21.6 
" style="fill:none;stroke:#ffffff;stroke-linecap:square;stroke-linejoin:miter;stroke-width:1.25;"/>
   </g>
   <g id="text_3">
    <!-- 1568:6.0 -->
    <defs>
     <path d="M 4.15625 18.75 
L 13.375 19.53125 
Q 14.40625 12.796875 18.140625 9.390625 
Q 21.875 6 27.15625 6 
Q 33.5 6 37.890625 10.78125 
Q 42.28125 15.578125 42.28125 23.484375 
Q 42.28125 31 38.0625 35.34375 
Q 33.84375 39.703125 27 39.703125 
Q 22.75 39.703125 19.328125 37.765625 
Q 15.921875 35.84375 13.96875 32.765625 
L 5.71875 33.84375 
L 12.640625 70.609375 
L 48.25 70.609375 
L 48.25 62.203125 
L 19.671875 62.203125 
L 15.828125 42.96875 
Q 22.265625 47.46875 29.34375 47.46875 
Q 38.71875 47.46875 45.15625 40.96875 
Q 51.609375 34.46875 51.609375 24.265625 
Q 51.609375 14.546875 45.953125 7.46875 
Q 39.0625 -1.21875 27.15625 -1.21875 
Q 17.390625 -1.21875 11.203125 4.25 
Q 5.03125 9.71875 4.15625 18.75 
z
" id="ArialMT-53"/>
    </defs>
    <g style="fill:#262626;" transform="translate(530.146875 15.6)scale(0.12 -0.12)">
     <use xlink:href="#ArialMT-49"/>
     <use x="55.615234" xlink:href="#ArialMT-53"/>
     <use x="111.230469" xlink:href="#ArialMT-54"/>
     <use x="166.845703" xlink:href="#ArialMT-56"/>
     <use x="222.460938" xlink:href="#ArialMT-58"/>
     <use x="250.244141" xlink:href="#ArialMT-54"/>
     <use x="305.859375" xlink:href="#ArialMT-46"/>
     <use x="333.642578" xlink:href="#ArialMT-48"/>
    </g>
   </g>
  </g>
  <g id="axes_4">
   <g id="patch_62">
    <path d="M 654.517241 157.5 
L 798.827586 157.5 
L 798.827586 21.6 
L 654.517241 21.6 
z
" style="fill:#eaeaf2;"/>
   </g>
   <g id="matplotlib.axis_1">
    <g id="xtick_1">
     <g id="line2d_1">
      <path clip-path="url(#p017aad3ed3)" d="M 654.517241 157.5 
L 654.517241 21.6 
" style="fill:none;stroke:#ffffff;stroke-linecap:round;"/>
     </g>
     <g id="text_4">
      <!-- 0.00 -->
      <g style="fill:#262626;" transform="translate(643.813726 174.873594)scale(0.11 -0.11)">
       <use xlink:href="#ArialMT-48"/>
       <use x="55.615234" xlink:href="#ArialMT-46"/>
       <use x="83.398438" xlink:href="#ArialMT-48"/>
       <use x="139.013672" xlink:href="#ArialMT-48"/>
      </g>
     </g>
    </g>
    <g id="xtick_2">
     <g id="line2d_2">
      <path clip-path="url(#p017aad3ed3)" d="M 690.594828 157.5 
L 690.594828 21.6 
" style="fill:none;stroke:#ffffff;stroke-linecap:round;"/>
     </g>
     <g id="text_5">
      <!-- 0.25 -->
      <g style="fill:#262626;" transform="translate(679.891312 174.873594)scale(0.11 -0.11)">
       <use xlink:href="#ArialMT-48"/>
       <use x="55.615234" xlink:href="#ArialMT-46"/>
       <use x="83.398438" xlink:href="#ArialMT-50"/>
       <use x="139.013672" xlink:href="#ArialMT-53"/>
      </g>
     </g>
    </g>
    <g id="xtick_3">
     <g id="line2d_3">
      <path clip-path="url(#p017aad3ed3)" d="M 726.672414 157.5 
L 726.672414 21.6 
" style="fill:none;stroke:#ffffff;stroke-linecap:round;"/>
     </g>
     <g id="text_6">
      <!-- 0.50 -->
      <g style="fill:#262626;" transform="translate(715.968898 174.873594)scale(0.11 -0.11)">
       <use xlink:href="#ArialMT-48"/>
       <use x="55.615234" xlink:href="#ArialMT-46"/>
       <use x="83.398438" xlink:href="#ArialMT-53"/>
       <use x="139.013672" xlink:href="#ArialMT-48"/>
      </g>
     </g>
    </g>
    <g id="xtick_4">
     <g id="line2d_4">
      <path clip-path="url(#p017aad3ed3)" d="M 762.75 157.5 
L 762.75 21.6 
" style="fill:none;stroke:#ffffff;stroke-linecap:round;"/>
     </g>
     <g id="text_7">
      <!-- 0.75 -->
      <defs>
       <path d="M 4.734375 62.203125 
L 4.734375 70.65625 
L 51.078125 70.65625 
L 51.078125 63.8125 
Q 44.234375 56.546875 37.515625 44.484375 
Q 30.8125 32.421875 27.15625 19.671875 
Q 24.515625 10.6875 23.78125 0 
L 14.75 0 
Q 14.890625 8.453125 18.0625 20.40625 
Q 21.234375 32.375 27.171875 43.484375 
Q 33.109375 54.59375 39.796875 62.203125 
z
" id="ArialMT-55"/>
      </defs>
      <g style="fill:#262626;" transform="translate(752.046484 174.873594)scale(0.11 -0.11)">
       <use xlink:href="#ArialMT-48"/>
       <use x="55.615234" xlink:href="#ArialMT-46"/>
       <use x="83.398438" xlink:href="#ArialMT-55"/>
       <use x="139.013672" xlink:href="#ArialMT-53"/>
      </g>
     </g>
    </g>
    <g id="xtick_5">
     <g id="line2d_5">
      <path clip-path="url(#p017aad3ed3)" d="M 798.827586 157.5 
L 798.827586 21.6 
" style="fill:none;stroke:#ffffff;stroke-linecap:round;"/>
     </g>
     <g id="text_8">
      <!-- 1.00 -->
      <g style="fill:#262626;" transform="translate(788.124071 174.873594)scale(0.11 -0.11)">
       <use xlink:href="#ArialMT-49"/>
       <use x="55.615234" xlink:href="#ArialMT-46"/>
       <use x="83.398438" xlink:href="#ArialMT-48"/>
       <use x="139.013672" xlink:href="#ArialMT-48"/>
      </g>
     </g>
    </g>
   </g>
   <g id="matplotlib.axis_2">
    <g id="ytick_1">
     <g id="line2d_6">
      <path clip-path="url(#p017aad3ed3)" d="M 654.517241 157.5 
L 798.827586 157.5 
" style="fill:none;stroke:#ffffff;stroke-linecap:round;"/>
     </g>
     <g id="text_9">
      <!-- 0.0 -->
      <g style="fill:#262626;" transform="translate(629.727241 161.436797)scale(0.11 -0.11)">
       <use xlink:href="#ArialMT-48"/>
       <use x="55.615234" xlink:href="#ArialMT-46"/>
       <use x="83.398438" xlink:href="#ArialMT-48"/>
      </g>
     </g>
    </g>
    <g id="ytick_2">
     <g id="line2d_7">
      <path clip-path="url(#p017aad3ed3)" d="M 654.517241 130.32 
L 798.827586 130.32 
" style="fill:none;stroke:#ffffff;stroke-linecap:round;"/>
     </g>
     <g id="text_10">
      <!-- 0.2 -->
      <g style="fill:#262626;" transform="translate(629.727241 134.256797)scale(0.11 -0.11)">
       <use xlink:href="#ArialMT-48"/>
       <use x="55.615234" xlink:href="#ArialMT-46"/>
       <use x="83.398438" xlink:href="#ArialMT-50"/>
      </g>
     </g>
    </g>
    <g id="ytick_3">
     <g id="line2d_8">
      <path clip-path="url(#p017aad3ed3)" d="M 654.517241 103.14 
L 798.827586 103.14 
" style="fill:none;stroke:#ffffff;stroke-linecap:round;"/>
     </g>
     <g id="text_11">
      <!-- 0.4 -->
      <defs>
       <path d="M 32.328125 0 
L 32.328125 17.140625 
L 1.265625 17.140625 
L 1.265625 25.203125 
L 33.9375 71.578125 
L 41.109375 71.578125 
L 41.109375 25.203125 
L 50.78125 25.203125 
L 50.78125 17.140625 
L 41.109375 17.140625 
L 41.109375 0 
z
M 32.328125 25.203125 
L 32.328125 57.46875 
L 9.90625 25.203125 
z
" id="ArialMT-52"/>
      </defs>
      <g style="fill:#262626;" transform="translate(629.727241 107.076797)scale(0.11 -0.11)">
       <use xlink:href="#ArialMT-48"/>
       <use x="55.615234" xlink:href="#ArialMT-46"/>
       <use x="83.398438" xlink:href="#ArialMT-52"/>
      </g>
     </g>
    </g>
    <g id="ytick_4">
     <g id="line2d_9">
      <path clip-path="url(#p017aad3ed3)" d="M 654.517241 75.96 
L 798.827586 75.96 
" style="fill:none;stroke:#ffffff;stroke-linecap:round;"/>
     </g>
     <g id="text_12">
      <!-- 0.6 -->
      <g style="fill:#262626;" transform="translate(629.727241 79.896797)scale(0.11 -0.11)">
       <use xlink:href="#ArialMT-48"/>
       <use x="55.615234" xlink:href="#ArialMT-46"/>
       <use x="83.398438" xlink:href="#ArialMT-54"/>
      </g>
     </g>
    </g>
    <g id="ytick_5">
     <g id="line2d_10">
      <path clip-path="url(#p017aad3ed3)" d="M 654.517241 48.78 
L 798.827586 48.78 
" style="fill:none;stroke:#ffffff;stroke-linecap:round;"/>
     </g>
     <g id="text_13">
      <!-- 0.8 -->
      <g style="fill:#262626;" transform="translate(629.727241 52.716797)scale(0.11 -0.11)">
       <use xlink:href="#ArialMT-48"/>
       <use x="55.615234" xlink:href="#ArialMT-46"/>
       <use x="83.398438" xlink:href="#ArialMT-56"/>
      </g>
     </g>
    </g>
    <g id="ytick_6">
     <g id="line2d_11">
      <path clip-path="url(#p017aad3ed3)" d="M 654.517241 21.6 
L 798.827586 21.6 
" style="fill:none;stroke:#ffffff;stroke-linecap:round;"/>
     </g>
     <g id="text_14">
      <!-- 1.0 -->
      <g style="fill:#262626;" transform="translate(629.727241 25.536797)scale(0.11 -0.11)">
       <use xlink:href="#ArialMT-49"/>
       <use x="55.615234" xlink:href="#ArialMT-46"/>
       <use x="83.398438" xlink:href="#ArialMT-48"/>
      </g>
     </g>
    </g>
   </g>
   <g id="patch_63">
    <path d="M 654.517241 157.5 
L 654.517241 21.6 
" style="fill:none;stroke:#ffffff;stroke-linecap:square;stroke-linejoin:miter;stroke-width:1.25;"/>
   </g>
   <g id="patch_64">
    <path d="M 798.827586 157.5 
L 798.827586 21.6 
" style="fill:none;stroke:#ffffff;stroke-linecap:square;stroke-linejoin:miter;stroke-width:1.25;"/>
   </g>
   <g id="patch_65">
    <path d="M 654.517241 157.5 
L 798.827586 157.5 
" style="fill:none;stroke:#ffffff;stroke-linecap:square;stroke-linejoin:miter;stroke-width:1.25;"/>
   </g>
   <g id="patch_66">
    <path d="M 654.517241 21.6 
L 798.827586 21.6 
" style="fill:none;stroke:#ffffff;stroke-linecap:square;stroke-linejoin:miter;stroke-width:1.25;"/>
   </g>
  </g>
  <g id="axes_5">
   <g id="patch_67">
    <path d="M 827.689655 157.5 
L 972 157.5 
L 972 21.6 
L 827.689655 21.6 
z
" style="fill:#eaeaf2;"/>
   </g>
   <g id="matplotlib.axis_3">
    <g id="xtick_6">
     <g id="line2d_12">
      <path clip-path="url(#p22a2073655)" d="M 827.689655 157.5 
L 827.689655 21.6 
" style="fill:none;stroke:#ffffff;stroke-linecap:round;"/>
     </g>
     <g id="text_15">
      <!-- 0.00 -->
      <g style="fill:#262626;" transform="translate(816.98614 174.873594)scale(0.11 -0.11)">
       <use xlink:href="#ArialMT-48"/>
       <use x="55.615234" xlink:href="#ArialMT-46"/>
       <use x="83.398438" xlink:href="#ArialMT-48"/>
       <use x="139.013672" xlink:href="#ArialMT-48"/>
      </g>
     </g>
    </g>
    <g id="xtick_7">
     <g id="line2d_13">
      <path clip-path="url(#p22a2073655)" d="M 863.767241 157.5 
L 863.767241 21.6 
" style="fill:none;stroke:#ffffff;stroke-linecap:round;"/>
     </g>
     <g id="text_16">
      <!-- 0.25 -->
      <g style="fill:#262626;" transform="translate(853.063726 174.873594)scale(0.11 -0.11)">
       <use xlink:href="#ArialMT-48"/>
       <use x="55.615234" xlink:href="#ArialMT-46"/>
       <use x="83.398438" xlink:href="#ArialMT-50"/>
       <use x="139.013672" xlink:href="#ArialMT-53"/>
      </g>
     </g>
    </g>
    <g id="xtick_8">
     <g id="line2d_14">
      <path clip-path="url(#p22a2073655)" d="M 899.844828 157.5 
L 899.844828 21.6 
" style="fill:none;stroke:#ffffff;stroke-linecap:round;"/>
     </g>
     <g id="text_17">
      <!-- 0.50 -->
      <g style="fill:#262626;" transform="translate(889.141312 174.873594)scale(0.11 -0.11)">
       <use xlink:href="#ArialMT-48"/>
       <use x="55.615234" xlink:href="#ArialMT-46"/>
       <use x="83.398438" xlink:href="#ArialMT-53"/>
       <use x="139.013672" xlink:href="#ArialMT-48"/>
      </g>
     </g>
    </g>
    <g id="xtick_9">
     <g id="line2d_15">
      <path clip-path="url(#p22a2073655)" d="M 935.922414 157.5 
L 935.922414 21.6 
" style="fill:none;stroke:#ffffff;stroke-linecap:round;"/>
     </g>
     <g id="text_18">
      <!-- 0.75 -->
      <g style="fill:#262626;" transform="translate(925.218898 174.873594)scale(0.11 -0.11)">
       <use xlink:href="#ArialMT-48"/>
       <use x="55.615234" xlink:href="#ArialMT-46"/>
       <use x="83.398438" xlink:href="#ArialMT-55"/>
       <use x="139.013672" xlink:href="#ArialMT-53"/>
      </g>
     </g>
    </g>
    <g id="xtick_10">
     <g id="line2d_16">
      <path clip-path="url(#p22a2073655)" d="M 972 157.5 
L 972 21.6 
" style="fill:none;stroke:#ffffff;stroke-linecap:round;"/>
     </g>
     <g id="text_19">
      <!-- 1.00 -->
      <g style="fill:#262626;" transform="translate(961.296484 174.873594)scale(0.11 -0.11)">
       <use xlink:href="#ArialMT-49"/>
       <use x="55.615234" xlink:href="#ArialMT-46"/>
       <use x="83.398438" xlink:href="#ArialMT-48"/>
       <use x="139.013672" xlink:href="#ArialMT-48"/>
      </g>
     </g>
    </g>
   </g>
   <g id="matplotlib.axis_4">
    <g id="ytick_7">
     <g id="line2d_17">
      <path clip-path="url(#p22a2073655)" d="M 827.689655 157.5 
L 972 157.5 
" style="fill:none;stroke:#ffffff;stroke-linecap:round;"/>
     </g>
     <g id="text_20">
      <!-- 0.0 -->
      <g style="fill:#262626;" transform="translate(802.899655 161.436797)scale(0.11 -0.11)">
       <use xlink:href="#ArialMT-48"/>
       <use x="55.615234" xlink:href="#ArialMT-46"/>
       <use x="83.398438" xlink:href="#ArialMT-48"/>
      </g>
     </g>
    </g>
    <g id="ytick_8">
     <g id="line2d_18">
      <path clip-path="url(#p22a2073655)" d="M 827.689655 130.32 
L 972 130.32 
" style="fill:none;stroke:#ffffff;stroke-linecap:round;"/>
     </g>
     <g id="text_21">
      <!-- 0.2 -->
      <g style="fill:#262626;" transform="translate(802.899655 134.256797)scale(0.11 -0.11)">
       <use xlink:href="#ArialMT-48"/>
       <use x="55.615234" xlink:href="#ArialMT-46"/>
       <use x="83.398438" xlink:href="#ArialMT-50"/>
      </g>
     </g>
    </g>
    <g id="ytick_9">
     <g id="line2d_19">
      <path clip-path="url(#p22a2073655)" d="M 827.689655 103.14 
L 972 103.14 
" style="fill:none;stroke:#ffffff;stroke-linecap:round;"/>
     </g>
     <g id="text_22">
      <!-- 0.4 -->
      <g style="fill:#262626;" transform="translate(802.899655 107.076797)scale(0.11 -0.11)">
       <use xlink:href="#ArialMT-48"/>
       <use x="55.615234" xlink:href="#ArialMT-46"/>
       <use x="83.398438" xlink:href="#ArialMT-52"/>
      </g>
     </g>
    </g>
    <g id="ytick_10">
     <g id="line2d_20">
      <path clip-path="url(#p22a2073655)" d="M 827.689655 75.96 
L 972 75.96 
" style="fill:none;stroke:#ffffff;stroke-linecap:round;"/>
     </g>
     <g id="text_23">
      <!-- 0.6 -->
      <g style="fill:#262626;" transform="translate(802.899655 79.896797)scale(0.11 -0.11)">
       <use xlink:href="#ArialMT-48"/>
       <use x="55.615234" xlink:href="#ArialMT-46"/>
       <use x="83.398438" xlink:href="#ArialMT-54"/>
      </g>
     </g>
    </g>
    <g id="ytick_11">
     <g id="line2d_21">
      <path clip-path="url(#p22a2073655)" d="M 827.689655 48.78 
L 972 48.78 
" style="fill:none;stroke:#ffffff;stroke-linecap:round;"/>
     </g>
     <g id="text_24">
      <!-- 0.8 -->
      <g style="fill:#262626;" transform="translate(802.899655 52.716797)scale(0.11 -0.11)">
       <use xlink:href="#ArialMT-48"/>
       <use x="55.615234" xlink:href="#ArialMT-46"/>
       <use x="83.398438" xlink:href="#ArialMT-56"/>
      </g>
     </g>
    </g>
    <g id="ytick_12">
     <g id="line2d_22">
      <path clip-path="url(#p22a2073655)" d="M 827.689655 21.6 
L 972 21.6 
" style="fill:none;stroke:#ffffff;stroke-linecap:round;"/>
     </g>
     <g id="text_25">
      <!-- 1.0 -->
      <g style="fill:#262626;" transform="translate(802.899655 25.536797)scale(0.11 -0.11)">
       <use xlink:href="#ArialMT-49"/>
       <use x="55.615234" xlink:href="#ArialMT-46"/>
       <use x="83.398438" xlink:href="#ArialMT-48"/>
      </g>
     </g>
    </g>
   </g>
   <g id="patch_68">
    <path d="M 827.689655 157.5 
L 827.689655 21.6 
" style="fill:none;stroke:#ffffff;stroke-linecap:square;stroke-linejoin:miter;stroke-width:1.25;"/>
   </g>
   <g id="patch_69">
    <path d="M 972 157.5 
L 972 21.6 
" style="fill:none;stroke:#ffffff;stroke-linecap:square;stroke-linejoin:miter;stroke-width:1.25;"/>
   </g>
   <g id="patch_70">
    <path d="M 827.689655 157.5 
L 972 157.5 
" style="fill:none;stroke:#ffffff;stroke-linecap:square;stroke-linejoin:miter;stroke-width:1.25;"/>
   </g>
   <g id="patch_71">
    <path d="M 827.689655 21.6 
L 972 21.6 
" style="fill:none;stroke:#ffffff;stroke-linecap:square;stroke-linejoin:miter;stroke-width:1.25;"/>
   </g>
   <g id="text_26">
    <!-- 29 -->
    <g style="fill:#262626;" transform="translate(893.171703 15.6)scale(0.12 -0.12)">
     <use xlink:href="#ArialMT-50"/>
     <use x="55.615234" xlink:href="#ArialMT-57"/>
    </g>
   </g>
  </g>
 </g>
 <defs>
  <clipPath id="p538aafc1de">
   <rect height="135.9" width="144.310345" x="135" y="21.6"/>
  </clipPath>
  <clipPath id="p346bcb2eab">
   <rect height="135.9" width="144.310345" x="308.172414" y="21.6"/>
  </clipPath>
  <clipPath id="pcb034ff0bb">
   <rect height="135.9" width="144.310345" x="481.344828" y="21.6"/>
  </clipPath>
  <clipPath id="p017aad3ed3">
   <rect height="135.9" width="144.310345" x="654.517241" y="21.6"/>
  </clipPath>
  <clipPath id="p22a2073655">
   <rect height="135.9" width="144.310345" x="827.689655" y="21.6"/>
  </clipPath>
 </defs>
</svg>
