<?xml version="1.0" encoding="utf-8" standalone="no"?>
<!DOCTYPE svg PUBLIC "-//W3C//DTD SVG 1.1//EN"
  "http://www.w3.org/Graphics/SVG/1.1/DTD/svg11.dtd">
<!-- Created with matplotlib (https://matplotlib.org/) -->
<svg height="180pt" version="1.1" viewBox="0 0 1080 180" width="1080pt" xmlns="http://www.w3.org/2000/svg" xmlns:xlink="http://www.w3.org/1999/xlink">
 <defs>
  <style type="text/css">
*{stroke-linecap:butt;stroke-linejoin:round;}
  </style>
 </defs>
 <g id="figure_1">
  <g id="patch_1">
   <path d="M 0 180 
L 1080 180 
L 1080 0 
L 0 0 
z
" style="fill:#ffffff;"/>
  </g>
  <g id="axes_1">
   <g id="patch_2">
    <path d="M 135 157.5 
L 279.310345 157.5 
L 279.310345 21.6 
L 135 21.6 
z
" style="fill:#ffffff;"/>
   </g>
   <g id="patch_3">
    <path clip-path="url(#pee7ac7cb1a)" d="M 192.970822 120.267123 
L 180.636605 120.267123 
" style="stroke:#000000;stroke-linejoin:miter;stroke-width:0.5;"/>
   </g>
   <g id="patch_4">
    <path clip-path="url(#pee7ac7cb1a)" d="M 205.30504 120.267123 
L 192.970822 120.267123 
" style="stroke:#000000;stroke-linejoin:miter;stroke-width:0.5;"/>
   </g>
   <g id="patch_5">
    <path clip-path="url(#pee7ac7cb1a)" d="M 217.639257 110.958904 
L 205.30504 120.267123 
" style="stroke:#000000;stroke-linejoin:miter;stroke-width:0.5;"/>
   </g>
   <g id="patch_6">
    <path clip-path="url(#pee7ac7cb1a)" d="M 192.970822 101.650685 
L 180.636605 101.650685 
" style="stroke:#000000;stroke-linejoin:miter;stroke-width:0.5;"/>
   </g>
   <g id="patch_7">
    <path clip-path="url(#pee7ac7cb1a)" d="M 205.30504 101.650685 
L 192.970822 101.650685 
" style="stroke:#000000;stroke-linejoin:miter;stroke-width:0.5;"/>
   </g>
   <g id="patch_8">
    <path clip-path="url(#pee7ac7cb1a)" d="M 217.639257 110.958904 
L 205.30504 101.650685 
" style="stroke:#000000;stroke-linejoin:miter;stroke-width:0.5;"/>
   </g>
   <g id="patch_9">
    <path clip-path="url(#pee7ac7cb1a)" d="M 229.973475 92.342466 
L 217.639257 110.958904 
" style="stroke:#000000;stroke-linejoin:miter;stroke-width:0.5;"/>
   </g>
   <g id="patch_10">
    <path clip-path="url(#pee7ac7cb1a)" d="M 180.636605 83.034247 
L 168.302387 83.034247 
" style="stroke:#000000;stroke-linejoin:miter;stroke-width:0.5;"/>
   </g>
   <g id="patch_11">
    <path clip-path="url(#pee7ac7cb1a)" d="M 192.970822 83.034247 
L 180.636605 83.034247 
" style="stroke:#000000;stroke-linejoin:miter;stroke-width:0.5;"/>
   </g>
   <g id="patch_12">
    <path clip-path="url(#pee7ac7cb1a)" d="M 205.30504 83.034247 
L 192.970822 83.034247 
" style="stroke:#000000;stroke-linejoin:miter;stroke-width:0.5;"/>
   </g>
   <g id="patch_13">
    <path clip-path="url(#pee7ac7cb1a)" d="M 217.639257 73.726027 
L 205.30504 83.034247 
" style="stroke:#000000;stroke-linejoin:miter;stroke-width:0.5;"/>
   </g>
   <g id="patch_14">
    <path clip-path="url(#pee7ac7cb1a)" d="M 192.970822 64.417808 
L 180.636605 64.417808 
" style="stroke:#000000;stroke-linejoin:miter;stroke-width:0.5;"/>
   </g>
   <g id="patch_15">
    <path clip-path="url(#pee7ac7cb1a)" d="M 205.30504 64.417808 
L 192.970822 64.417808 
" style="stroke:#000000;stroke-linejoin:miter;stroke-width:0.5;"/>
   </g>
   <g id="patch_16">
    <path clip-path="url(#pee7ac7cb1a)" d="M 217.639257 73.726027 
L 205.30504 64.417808 
" style="stroke:#000000;stroke-linejoin:miter;stroke-width:0.5;"/>
   </g>
   <g id="patch_17">
    <path clip-path="url(#pee7ac7cb1a)" d="M 229.973475 92.342466 
L 217.639257 73.726027 
" style="stroke:#000000;stroke-linejoin:miter;stroke-width:0.5;"/>
   </g>
   <g id="patch_18">
    <path clip-path="url(#pee7ac7cb1a)" d="M 242.307692 92.342466 
L 229.973475 92.342466 
" style="stroke:#000000;stroke-linejoin:miter;stroke-width:0.5;"/>
   </g>
   <g id="patch_19">
    <path clip-path="url(#pee7ac7cb1a)" d="M 254.64191 92.342466 
L 242.307692 92.342466 
" style="stroke:#000000;stroke-linejoin:miter;stroke-width:0.5;"/>
   </g>
   <g id="15a1b4d15943472ca1212705e43ed16a-1-node">
    <path clip-path="url(#pee7ac7cb1a)" d="M 256.738727 89.177671 
L 256.738727 95.50726 
L 252.545093 95.50726 
L 252.545093 89.177671 
L 256.738727 89.177671 
z
" style="fill:#0000ff;stroke:#ffffff;stroke-linejoin:miter;stroke-width:0.5;"/>
   </g>
   <g id="15a1b4d15943472ca1212705e43ed16a-3-node">
    <path clip-path="url(#pee7ac7cb1a)" d="M 244.404509 89.177671 
L 244.404509 95.50726 
L 240.210875 95.50726 
L 240.210875 89.177671 
L 244.404509 89.177671 
z
" style="fill:#0000ff;stroke:#ffffff;stroke-linejoin:miter;stroke-width:0.5;"/>
   </g>
   <g id="15a1b4d15943472ca1212705e43ed16a-5-node">
    <path clip-path="url(#pee7ac7cb1a)" d="M 229.973475 95.50726 
C 230.529557 95.50726 231.062939 95.173798 231.456148 94.580313 
C 231.849358 93.986829 232.070292 93.181779 232.070292 92.342466 
C 232.070292 91.503152 231.849358 90.698102 231.456148 90.104618 
C 231.062939 89.511134 230.529557 89.177671 229.973475 89.177671 
C 229.417392 89.177671 228.884011 89.511134 228.490801 90.104618 
C 228.097592 90.698102 227.876658 91.503152 227.876658 92.342466 
C 227.876658 93.181779 228.097592 93.986829 228.490801 94.580313 
C 228.884011 95.173798 229.417392 95.50726 229.973475 95.50726 
z
" style="fill:#00c832;stroke:#ffffff;stroke-linejoin:miter;stroke-width:0.5;"/>
   </g>
   <g id="15a1b4d15943472ca1212705e43ed16a-18-node">
    <path clip-path="url(#pee7ac7cb1a)" d="M 217.639257 114.123699 
C 218.19534 114.123699 218.728721 113.790236 219.121931 113.196752 
C 219.51514 112.603268 219.736074 111.798217 219.736074 110.958904 
C 219.736074 110.119591 219.51514 109.314541 219.121931 108.721056 
C 218.728721 108.127572 218.19534 107.79411 217.639257 107.79411 
C 217.083175 107.79411 216.549793 108.127572 216.156584 108.721056 
C 215.763374 109.314541 215.54244 110.119591 215.54244 110.958904 
C 215.54244 111.798217 215.763374 112.603268 216.156584 113.196752 
C 216.549793 113.790236 217.083175 114.123699 217.639257 114.123699 
z
" style="fill:#00c832;stroke:#ffffff;stroke-linejoin:miter;stroke-width:0.5;"/>
   </g>
   <g id="15a1b4d15943472ca1212705e43ed16a-24-node">
    <path clip-path="url(#pee7ac7cb1a)" d="M 207.401857 117.102329 
L 207.401857 123.431918 
L 203.208223 123.431918 
L 203.208223 117.102329 
L 207.401857 117.102329 
z
" style="fill:#0000ff;stroke:#ffffff;stroke-linejoin:miter;stroke-width:0.5;"/>
   </g>
   <g id="15a1b4d15943472ca1212705e43ed16a-26-node">
    <path clip-path="url(#pee7ac7cb1a)" d="M 192.970822 123.431918 
C 193.526905 123.431918 194.060286 123.098455 194.453496 122.504971 
C 194.846705 121.911487 195.067639 121.106437 195.067639 120.267123 
C 195.067639 119.42781 194.846705 118.62276 194.453496 118.029276 
C 194.060286 117.435791 193.526905 117.102329 192.970822 117.102329 
C 192.41474 117.102329 191.881358 117.435791 191.488149 118.029276 
C 191.094939 118.62276 190.874005 119.42781 190.874005 120.267123 
C 190.874005 121.106437 191.094939 121.911487 191.488149 122.504971 
C 191.881358 123.098455 192.41474 123.431918 192.970822 123.431918 
z
" style="fill:#ffff00;stroke:#ffffff;stroke-linejoin:miter;stroke-width:0.5;"/>
   </g>
   <g id="15a1b4d15943472ca1212705e43ed16a-27-node">
    <path clip-path="url(#pee7ac7cb1a)" d="M 180.636605 117.102329 
L 178.539788 120.267123 
L 180.636605 123.431918 
L 182.733422 120.267123 
z
" style="fill:#c800c8;stroke:#ffffff;stroke-linejoin:miter;stroke-width:0.5;"/>
   </g>
   <g id="15a1b4d15943472ca1212705e43ed16a-19-node">
    <path clip-path="url(#pee7ac7cb1a)" d="M 207.401857 98.48589 
L 207.401857 104.815479 
L 203.208223 104.815479 
L 203.208223 98.48589 
L 207.401857 98.48589 
z
" style="fill:#0000ff;stroke:#ffffff;stroke-linejoin:miter;stroke-width:0.5;"/>
   </g>
   <g id="15a1b4d15943472ca1212705e43ed16a-21-node">
    <path clip-path="url(#pee7ac7cb1a)" d="M 192.970822 104.815479 
C 193.526905 104.815479 194.060286 104.482017 194.453496 103.888533 
C 194.846705 103.295048 195.067639 102.489998 195.067639 101.650685 
C 195.067639 100.811372 194.846705 100.006321 194.453496 99.412837 
C 194.060286 98.819353 193.526905 98.48589 192.970822 98.48589 
C 192.41474 98.48589 191.881358 98.819353 191.488149 99.412837 
C 191.094939 100.006321 190.874005 100.811372 190.874005 101.650685 
C 190.874005 102.489998 191.094939 103.295048 191.488149 103.888533 
C 191.881358 104.482017 192.41474 104.815479 192.970822 104.815479 
z
" style="fill:#ffff00;stroke:#ffffff;stroke-linejoin:miter;stroke-width:0.5;"/>
   </g>
   <g id="15a1b4d15943472ca1212705e43ed16a-22-node">
    <path clip-path="url(#pee7ac7cb1a)" d="M 180.636605 98.48589 
L 178.539788 101.650685 
L 180.636605 104.815479 
L 182.733422 101.650685 
z
" style="fill:#c800c8;stroke:#ffffff;stroke-linejoin:miter;stroke-width:0.5;"/>
   </g>
   <g id="15a1b4d15943472ca1212705e43ed16a-6-node">
    <path clip-path="url(#pee7ac7cb1a)" d="M 217.639257 76.890822 
C 218.19534 76.890822 218.728721 76.557359 219.121931 75.963875 
C 219.51514 75.370391 219.736074 74.565341 219.736074 73.726027 
C 219.736074 72.886714 219.51514 72.081664 219.121931 71.48818 
C 218.728721 70.894696 218.19534 70.561233 217.639257 70.561233 
C 217.083175 70.561233 216.549793 70.894696 216.156584 71.48818 
C 215.763374 72.081664 215.54244 72.886714 215.54244 73.726027 
C 215.54244 74.565341 215.763374 75.370391 216.156584 75.963875 
C 216.549793 76.557359 217.083175 76.890822 217.639257 76.890822 
z
" style="fill:#00c832;stroke:#ffffff;stroke-linejoin:miter;stroke-width:0.5;"/>
   </g>
   <g id="15a1b4d15943472ca1212705e43ed16a-12-node">
    <path clip-path="url(#pee7ac7cb1a)" d="M 207.401857 79.869452 
L 207.401857 86.199041 
L 203.208223 86.199041 
L 203.208223 79.869452 
L 207.401857 79.869452 
z
" style="fill:#0000ff;stroke:#ffffff;stroke-linejoin:miter;stroke-width:0.5;"/>
   </g>
   <g id="15a1b4d15943472ca1212705e43ed16a-14-node">
    <path clip-path="url(#pee7ac7cb1a)" d="M 192.970822 86.199041 
C 193.526905 86.199041 194.060286 85.865578 194.453496 85.272094 
C 194.846705 84.67861 195.067639 83.87356 195.067639 83.034247 
C 195.067639 82.194933 194.846705 81.389883 194.453496 80.796399 
C 194.060286 80.202915 193.526905 79.869452 192.970822 79.869452 
C 192.41474 79.869452 191.881358 80.202915 191.488149 80.796399 
C 191.094939 81.389883 190.874005 82.194933 190.874005 83.034247 
C 190.874005 83.87356 191.094939 84.67861 191.488149 85.272094 
C 191.881358 85.865578 192.41474 86.199041 192.970822 86.199041 
z
" style="fill:#ffff00;stroke:#ffffff;stroke-linejoin:miter;stroke-width:0.5;"/>
   </g>
   <g id="15a1b4d15943472ca1212705e43ed16a-15-node">
    <path clip-path="url(#pee7ac7cb1a)" d="M 182.733422 79.869452 
L 182.733422 86.199041 
L 178.539788 86.199041 
L 178.539788 79.869452 
L 182.733422 79.869452 
z
" style="fill:#0000ff;stroke:#ffffff;stroke-linejoin:miter;stroke-width:0.5;"/>
   </g>
   <g id="15a1b4d15943472ca1212705e43ed16a-17-node">
    <path clip-path="url(#pee7ac7cb1a)" d="M 168.302387 86.199041 
C 168.85847 86.199041 169.391851 85.865578 169.785061 85.272094 
C 170.17827 84.67861 170.399204 83.87356 170.399204 83.034247 
C 170.399204 82.194933 170.17827 81.389883 169.785061 80.796399 
C 169.391851 80.202915 168.85847 79.869452 168.302387 79.869452 
C 167.746305 79.869452 167.212923 80.202915 166.819714 80.796399 
C 166.426504 81.389883 166.20557 82.194933 166.20557 83.034247 
C 166.20557 83.87356 166.426504 84.67861 166.819714 85.272094 
C 167.212923 85.865578 167.746305 86.199041 168.302387 86.199041 
z
" style="fill:#ffff00;stroke:#ffffff;stroke-linejoin:miter;stroke-width:0.5;"/>
   </g>
   <g id="15a1b4d15943472ca1212705e43ed16a-7-node">
    <path clip-path="url(#pee7ac7cb1a)" d="M 207.401857 61.253014 
L 207.401857 67.582603 
L 203.208223 67.582603 
L 203.208223 61.253014 
L 207.401857 61.253014 
z
" style="fill:#0000ff;stroke:#ffffff;stroke-linejoin:miter;stroke-width:0.5;"/>
   </g>
   <g id="15a1b4d15943472ca1212705e43ed16a-9-node">
    <path clip-path="url(#pee7ac7cb1a)" d="M 192.970822 67.582603 
C 193.526905 67.582603 194.060286 67.24914 194.453496 66.655656 
C 194.846705 66.062172 195.067639 65.257122 195.067639 64.417808 
C 195.067639 63.578495 194.846705 62.773445 194.453496 62.179961 
C 194.060286 61.586476 193.526905 61.253014 192.970822 61.253014 
C 192.41474 61.253014 191.881358 61.586476 191.488149 62.179961 
C 191.094939 62.773445 190.874005 63.578495 190.874005 64.417808 
C 190.874005 65.257122 191.094939 66.062172 191.488149 66.655656 
C 191.881358 67.24914 192.41474 67.582603 192.970822 67.582603 
z
" style="fill:#ffff00;stroke:#ffffff;stroke-linejoin:miter;stroke-width:0.5;"/>
   </g>
   <g id="15a1b4d15943472ca1212705e43ed16a-10-node">
    <path clip-path="url(#pee7ac7cb1a)" d="M 180.636605 61.253014 
L 178.539788 64.417808 
L 180.636605 67.582603 
L 182.733422 64.417808 
z
" style="fill:#c800c8;stroke:#ffffff;stroke-linejoin:miter;stroke-width:0.5;"/>
   </g>
   <g id="patch_20">
    <path d="M 135 157.5 
L 135 21.6 
" style="fill:none;stroke:#ffffff;stroke-linecap:square;stroke-linejoin:miter;stroke-width:1.25;"/>
   </g>
   <g id="patch_21">
    <path d="M 279.310345 157.5 
L 279.310345 21.6 
" style="fill:none;stroke:#ffffff;stroke-linecap:square;stroke-linejoin:miter;stroke-width:1.25;"/>
   </g>
   <g id="patch_22">
    <path d="M 135 157.5 
L 279.310345 157.5 
" style="fill:none;stroke:#ffffff;stroke-linecap:square;stroke-linejoin:miter;stroke-width:1.25;"/>
   </g>
   <g id="patch_23">
    <path d="M 135 21.6 
L 279.310345 21.6 
" style="fill:none;stroke:#ffffff;stroke-linecap:square;stroke-linejoin:miter;stroke-width:1.25;"/>
   </g>
   <g id="text_1">
    <!-- 1571:15.3333 -->
    <defs>
     <path d="M 37.25 0 
L 28.46875 0 
L 28.46875 56 
Q 25.296875 52.984375 20.140625 49.953125 
Q 14.984375 46.921875 10.890625 45.40625 
L 10.890625 53.90625 
Q 18.265625 57.375 23.78125 62.296875 
Q 29.296875 67.234375 31.59375 71.875 
L 37.25 71.875 
z
" id="ArialMT-49"/>
     <path d="M 4.15625 18.75 
L 13.375 19.53125 
Q 14.40625 12.796875 18.140625 9.390625 
Q 21.875 6 27.15625 6 
Q 33.5 6 37.890625 10.78125 
Q 42.28125 15.578125 42.28125 23.484375 
Q 42.28125 31 38.0625 35.34375 
Q 33.84375 39.703125 27 39.703125 
Q 22.75 39.703125 19.328125 37.765625 
Q 15.921875 35.84375 13.96875 32.765625 
L 5.71875 33.84375 
L 12.640625 70.609375 
L 48.25 70.609375 
L 48.25 62.203125 
L 19.671875 62.203125 
L 15.828125 42.96875 
Q 22.265625 47.46875 29.34375 47.46875 
Q 38.71875 47.46875 45.15625 40.96875 
Q 51.609375 34.46875 51.609375 24.265625 
Q 51.609375 14.546875 45.953125 7.46875 
Q 39.0625 -1.21875 27.15625 -1.21875 
Q 17.390625 -1.21875 11.203125 4.25 
Q 5.03125 9.71875 4.15625 18.75 
z
" id="ArialMT-53"/>
     <path d="M 4.734375 62.203125 
L 4.734375 70.65625 
L 51.078125 70.65625 
L 51.078125 63.8125 
Q 44.234375 56.546875 37.515625 44.484375 
Q 30.8125 32.421875 27.15625 19.671875 
Q 24.515625 10.6875 23.78125 0 
L 14.75 0 
Q 14.890625 8.453125 18.0625 20.40625 
Q 21.234375 32.375 27.171875 43.484375 
Q 33.109375 54.59375 39.796875 62.203125 
z
" id="ArialMT-55"/>
     <path d="M 9.03125 41.84375 
L 9.03125 51.859375 
L 19.046875 51.859375 
L 19.046875 41.84375 
z
M 9.03125 0 
L 9.03125 10.015625 
L 19.046875 10.015625 
L 19.046875 0 
z
" id="ArialMT-58"/>
     <path d="M 9.078125 0 
L 9.078125 10.015625 
L 19.09375 10.015625 
L 19.09375 0 
z
" id="ArialMT-46"/>
     <path d="M 4.203125 18.890625 
L 12.984375 20.0625 
Q 14.5 12.59375 18.140625 9.296875 
Q 21.78125 6 27 6 
Q 33.203125 6 37.46875 10.296875 
Q 41.75 14.59375 41.75 20.953125 
Q 41.75 27 37.796875 30.921875 
Q 33.84375 34.859375 27.734375 34.859375 
Q 25.25 34.859375 21.53125 33.890625 
L 22.515625 41.609375 
Q 23.390625 41.5 23.921875 41.5 
Q 29.546875 41.5 34.03125 44.421875 
Q 38.53125 47.359375 38.53125 53.46875 
Q 38.53125 58.296875 35.25 61.46875 
Q 31.984375 64.65625 26.8125 64.65625 
Q 21.6875 64.65625 18.265625 61.421875 
Q 14.84375 58.203125 13.875 51.765625 
L 5.078125 53.328125 
Q 6.6875 62.15625 12.390625 67.015625 
Q 18.109375 71.875 26.609375 71.875 
Q 32.46875 71.875 37.390625 69.359375 
Q 42.328125 66.84375 44.9375 62.5 
Q 47.5625 58.15625 47.5625 53.265625 
Q 47.5625 48.640625 45.0625 44.828125 
Q 42.578125 41.015625 37.703125 38.765625 
Q 44.046875 37.3125 47.5625 32.6875 
Q 51.078125 28.078125 51.078125 21.140625 
Q 51.078125 11.765625 44.234375 5.25 
Q 37.40625 -1.265625 26.953125 -1.265625 
Q 17.53125 -1.265625 11.296875 4.34375 
Q 5.078125 9.96875 4.203125 18.890625 
z
" id="ArialMT-51"/>
    </defs>
    <g style="fill:#262626;" transform="translate(170.455797 15.6)scale(0.12 -0.12)">
     <use xlink:href="#ArialMT-49"/>
     <use x="55.615234" xlink:href="#ArialMT-53"/>
     <use x="111.230469" xlink:href="#ArialMT-55"/>
     <use x="166.845703" xlink:href="#ArialMT-49"/>
     <use x="222.460938" xlink:href="#ArialMT-58"/>
     <use x="250.244141" xlink:href="#ArialMT-49"/>
     <use x="305.859375" xlink:href="#ArialMT-53"/>
     <use x="361.474609" xlink:href="#ArialMT-46"/>
     <use x="389.257812" xlink:href="#ArialMT-51"/>
     <use x="444.873047" xlink:href="#ArialMT-51"/>
     <use x="500.488281" xlink:href="#ArialMT-51"/>
     <use x="556.103516" xlink:href="#ArialMT-51"/>
    </g>
   </g>
  </g>
  <g id="axes_2">
   <g id="patch_24">
    <path d="M 308.172414 157.5 
L 452.482759 157.5 
L 452.482759 21.6 
L 308.172414 21.6 
z
" style="fill:#ffffff;"/>
   </g>
   <g id="patch_25">
    <path clip-path="url(#p711caa8645)" d="M 385.137931 113.66129 
L 375.517241 113.66129 
" style="stroke:#000000;stroke-linejoin:miter;stroke-width:0.5;"/>
   </g>
   <g id="patch_26">
    <path clip-path="url(#p711caa8645)" d="M 394.758621 113.66129 
L 385.137931 113.66129 
" style="stroke:#000000;stroke-linejoin:miter;stroke-width:0.5;"/>
   </g>
   <g id="patch_27">
    <path clip-path="url(#p711caa8645)" d="M 404.37931 113.66129 
L 394.758621 113.66129 
" style="stroke:#000000;stroke-linejoin:miter;stroke-width:0.5;"/>
   </g>
   <g id="patch_28">
    <path clip-path="url(#p711caa8645)" d="M 414 97.221774 
L 404.37931 113.66129 
" style="stroke:#000000;stroke-linejoin:miter;stroke-width:0.5;"/>
   </g>
   <g id="patch_29">
    <path clip-path="url(#p711caa8645)" d="M 385.137931 91.741935 
L 375.517241 91.741935 
" style="stroke:#000000;stroke-linejoin:miter;stroke-width:0.5;"/>
   </g>
   <g id="patch_30">
    <path clip-path="url(#p711caa8645)" d="M 394.758621 91.741935 
L 385.137931 91.741935 
" style="stroke:#000000;stroke-linejoin:miter;stroke-width:0.5;"/>
   </g>
   <g id="patch_31">
    <path clip-path="url(#p711caa8645)" d="M 404.37931 80.782258 
L 394.758621 91.741935 
" style="stroke:#000000;stroke-linejoin:miter;stroke-width:0.5;"/>
   </g>
   <g id="patch_32">
    <path clip-path="url(#p711caa8645)" d="M 346.655172 69.822581 
L 337.034483 69.822581 
" style="stroke:#000000;stroke-linejoin:miter;stroke-width:0.5;"/>
   </g>
   <g id="patch_33">
    <path clip-path="url(#p711caa8645)" d="M 356.275862 69.822581 
L 346.655172 69.822581 
" style="stroke:#000000;stroke-linejoin:miter;stroke-width:0.5;"/>
   </g>
   <g id="patch_34">
    <path clip-path="url(#p711caa8645)" d="M 365.896552 69.822581 
L 356.275862 69.822581 
" style="stroke:#000000;stroke-linejoin:miter;stroke-width:0.5;"/>
   </g>
   <g id="patch_35">
    <path clip-path="url(#p711caa8645)" d="M 375.517241 69.822581 
L 365.896552 69.822581 
" style="stroke:#000000;stroke-linejoin:miter;stroke-width:0.5;"/>
   </g>
   <g id="patch_36">
    <path clip-path="url(#p711caa8645)" d="M 385.137931 69.822581 
L 375.517241 69.822581 
" style="stroke:#000000;stroke-linejoin:miter;stroke-width:0.5;"/>
   </g>
   <g id="patch_37">
    <path clip-path="url(#p711caa8645)" d="M 394.758621 69.822581 
L 385.137931 69.822581 
" style="stroke:#000000;stroke-linejoin:miter;stroke-width:0.5;"/>
   </g>
   <g id="patch_38">
    <path clip-path="url(#p711caa8645)" d="M 404.37931 80.782258 
L 394.758621 69.822581 
" style="stroke:#000000;stroke-linejoin:miter;stroke-width:0.5;"/>
   </g>
   <g id="patch_39">
    <path clip-path="url(#p711caa8645)" d="M 414 97.221774 
L 404.37931 80.782258 
" style="stroke:#000000;stroke-linejoin:miter;stroke-width:0.5;"/>
   </g>
   <g id="patch_40">
    <path clip-path="url(#p711caa8645)" d="M 423.62069 97.221774 
L 414 97.221774 
" style="stroke:#000000;stroke-linejoin:miter;stroke-width:0.5;"/>
   </g>
   <g id="patch_41">
    <path clip-path="url(#p711caa8645)" d="M 433.241379 97.221774 
L 423.62069 97.221774 
" style="stroke:#000000;stroke-linejoin:miter;stroke-width:0.5;"/>
   </g>
   <g id="29af75b5402e4640821ba9ae20088df9-1-node">
    <path clip-path="url(#p711caa8645)" d="M 434.876897 93.495484 
L 434.876897 100.948065 
L 431.605862 100.948065 
L 431.605862 93.495484 
L 434.876897 93.495484 
z
" style="fill:#0000ff;stroke:#ffffff;stroke-linejoin:miter;stroke-width:0.5;"/>
   </g>
   <g id="29af75b5402e4640821ba9ae20088df9-3-node">
    <path clip-path="url(#p711caa8645)" d="M 425.256207 93.495484 
L 425.256207 100.948065 
L 421.985172 100.948065 
L 421.985172 93.495484 
L 425.256207 93.495484 
z
" style="fill:#0000ff;stroke:#ffffff;stroke-linejoin:miter;stroke-width:0.5;"/>
   </g>
   <g id="29af75b5402e4640821ba9ae20088df9-5-node">
    <path clip-path="url(#p711caa8645)" d="M 414 100.948065 
C 414.433744 100.948065 414.849782 100.555439 415.156485 99.856659 
C 415.463189 99.15788 415.635517 98.209998 415.635517 97.221774 
C 415.635517 96.23355 415.463189 95.285669 415.156485 94.586889 
C 414.849782 93.888109 414.433744 93.495484 414 93.495484 
C 413.566256 93.495484 413.150218 93.888109 412.843515 94.586889 
C 412.536811 95.285669 412.364483 96.23355 412.364483 97.221774 
C 412.364483 98.209998 412.536811 99.15788 412.843515 99.856659 
C 413.150218 100.555439 413.566256 100.948065 414 100.948065 
z
" style="fill:#00c832;stroke:#ffffff;stroke-linejoin:miter;stroke-width:0.5;"/>
   </g>
   <g id="29af75b5402e4640821ba9ae20088df9-23-node">
    <path clip-path="url(#p711caa8645)" d="M 404.37931 117.387581 
C 404.813055 117.387581 405.229092 116.994955 405.535796 116.296175 
C 405.842499 115.597396 406.014828 114.649514 406.014828 113.66129 
C 406.014828 112.673067 405.842499 111.725185 405.535796 111.026405 
C 405.229092 110.327625 404.813055 109.935 404.37931 109.935 
C 403.945566 109.935 403.529529 110.327625 403.222825 111.026405 
C 402.916122 111.725185 402.743793 112.673067 402.743793 113.66129 
C 402.743793 114.649514 402.916122 115.597396 403.222825 116.296175 
C 403.529529 116.994955 403.945566 117.387581 404.37931 117.387581 
z
" style="fill:#00c832;stroke:#ffffff;stroke-linejoin:miter;stroke-width:0.5;"/>
   </g>
   <g id="29af75b5402e4640821ba9ae20088df9-24-node">
    <path clip-path="url(#p711caa8645)" d="M 396.394138 109.935 
L 396.394138 117.387581 
L 393.123103 117.387581 
L 393.123103 109.935 
L 396.394138 109.935 
z
" style="fill:#0000ff;stroke:#ffffff;stroke-linejoin:miter;stroke-width:0.5;"/>
   </g>
   <g id="29af75b5402e4640821ba9ae20088df9-26-node">
    <path clip-path="url(#p711caa8645)" d="M 385.137931 117.387581 
C 385.571675 117.387581 385.987713 116.994955 386.294416 116.296175 
C 386.60112 115.597396 386.773448 114.649514 386.773448 113.66129 
C 386.773448 112.673067 386.60112 111.725185 386.294416 111.026405 
C 385.987713 110.327625 385.571675 109.935 385.137931 109.935 
C 384.704187 109.935 384.288149 110.327625 383.981446 111.026405 
C 383.674742 111.725185 383.502414 112.673067 383.502414 113.66129 
C 383.502414 114.649514 383.674742 115.597396 383.981446 116.296175 
C 384.288149 116.994955 384.704187 117.387581 385.137931 117.387581 
z
" style="fill:#ffff00;stroke:#ffffff;stroke-linejoin:miter;stroke-width:0.5;"/>
   </g>
   <g id="29af75b5402e4640821ba9ae20088df9-27-node">
    <path clip-path="url(#p711caa8645)" d="M 375.517241 109.935 
L 373.881724 113.66129 
L 375.517241 117.387581 
L 377.152759 113.66129 
z
" style="fill:#c800c8;stroke:#ffffff;stroke-linejoin:miter;stroke-width:0.5;"/>
   </g>
   <g id="29af75b5402e4640821ba9ae20088df9-6-node">
    <path clip-path="url(#p711caa8645)" d="M 404.37931 84.508548 
C 404.813055 84.508548 405.229092 84.115923 405.535796 83.417143 
C 405.842499 82.718364 406.014828 81.770482 406.014828 80.782258 
C 406.014828 79.794034 405.842499 78.846153 405.535796 78.147373 
C 405.229092 77.448593 404.813055 77.055968 404.37931 77.055968 
C 403.945566 77.055968 403.529529 77.448593 403.222825 78.147373 
C 402.916122 78.846153 402.743793 79.794034 402.743793 80.782258 
C 402.743793 81.770482 402.916122 82.718364 403.222825 83.417143 
C 403.529529 84.115923 403.945566 84.508548 404.37931 84.508548 
z
" style="fill:#00c832;stroke:#ffffff;stroke-linejoin:miter;stroke-width:0.5;"/>
   </g>
   <g id="29af75b5402e4640821ba9ae20088df9-18-node">
    <path clip-path="url(#p711caa8645)" d="M 396.394138 88.015645 
L 396.394138 95.468226 
L 393.123103 95.468226 
L 393.123103 88.015645 
L 396.394138 88.015645 
z
" style="fill:#0000ff;stroke:#ffffff;stroke-linejoin:miter;stroke-width:0.5;"/>
   </g>
   <g id="29af75b5402e4640821ba9ae20088df9-20-node">
    <path clip-path="url(#p711caa8645)" d="M 385.137931 95.468226 
C 385.571675 95.468226 385.987713 95.0756 386.294416 94.376821 
C 386.60112 93.678041 386.773448 92.730159 386.773448 91.741935 
C 386.773448 90.753712 386.60112 89.80583 386.294416 89.10705 
C 385.987713 88.408271 385.571675 88.015645 385.137931 88.015645 
C 384.704187 88.015645 384.288149 88.408271 383.981446 89.10705 
C 383.674742 89.80583 383.502414 90.753712 383.502414 91.741935 
C 383.502414 92.730159 383.674742 93.678041 383.981446 94.376821 
C 384.288149 95.0756 384.704187 95.468226 385.137931 95.468226 
z
" style="fill:#ffff00;stroke:#ffffff;stroke-linejoin:miter;stroke-width:0.5;"/>
   </g>
   <g id="29af75b5402e4640821ba9ae20088df9-21-node">
    <path clip-path="url(#p711caa8645)" d="M 375.517241 88.015645 
L 373.881724 91.741935 
L 375.517241 95.468226 
L 377.152759 91.741935 
z
" style="fill:#c800c8;stroke:#ffffff;stroke-linejoin:miter;stroke-width:0.5;"/>
   </g>
   <g id="29af75b5402e4640821ba9ae20088df9-7-node">
    <path clip-path="url(#p711caa8645)" d="M 396.394138 66.09629 
L 396.394138 73.548871 
L 393.123103 73.548871 
L 393.123103 66.09629 
L 396.394138 66.09629 
z
" style="fill:#0000ff;stroke:#ffffff;stroke-linejoin:miter;stroke-width:0.5;"/>
   </g>
   <g id="29af75b5402e4640821ba9ae20088df9-9-node">
    <path clip-path="url(#p711caa8645)" d="M 385.137931 73.548871 
C 385.571675 73.548871 385.987713 73.156246 386.294416 72.457466 
C 386.60112 71.758686 386.773448 70.810804 386.773448 69.822581 
C 386.773448 68.834357 386.60112 67.886475 386.294416 67.187695 
C 385.987713 66.488916 385.571675 66.09629 385.137931 66.09629 
C 384.704187 66.09629 384.288149 66.488916 383.981446 67.187695 
C 383.674742 67.886475 383.502414 68.834357 383.502414 69.822581 
C 383.502414 70.810804 383.674742 71.758686 383.981446 72.457466 
C 384.288149 73.156246 384.704187 73.548871 385.137931 73.548871 
z
" style="fill:#ffff00;stroke:#ffffff;stroke-linejoin:miter;stroke-width:0.5;"/>
   </g>
   <g id="29af75b5402e4640821ba9ae20088df9-10-node">
    <path clip-path="url(#p711caa8645)" d="M 377.152759 66.09629 
L 377.152759 73.548871 
L 373.881724 73.548871 
L 373.881724 66.09629 
L 377.152759 66.09629 
z
" style="fill:#0000ff;stroke:#ffffff;stroke-linejoin:miter;stroke-width:0.5;"/>
   </g>
   <g id="29af75b5402e4640821ba9ae20088df9-12-node">
    <path clip-path="url(#p711caa8645)" d="M 365.896552 73.548871 
C 366.330296 73.548871 366.746334 73.156246 367.053037 72.457466 
C 367.359741 71.758686 367.532069 70.810804 367.532069 69.822581 
C 367.532069 68.834357 367.359741 67.886475 367.053037 67.187695 
C 366.746334 66.488916 366.330296 66.09629 365.896552 66.09629 
C 365.462807 66.09629 365.04677 66.488916 364.740066 67.187695 
C 364.433363 67.886475 364.261034 68.834357 364.261034 69.822581 
C 364.261034 70.810804 364.433363 71.758686 364.740066 72.457466 
C 365.04677 73.156246 365.462807 73.548871 365.896552 73.548871 
z
" style="fill:#ffff00;stroke:#ffffff;stroke-linejoin:miter;stroke-width:0.5;"/>
   </g>
   <g id="29af75b5402e4640821ba9ae20088df9-13-node">
    <path clip-path="url(#p711caa8645)" d="M 357.911379 66.09629 
L 357.911379 73.548871 
L 354.640345 73.548871 
L 354.640345 66.09629 
L 357.911379 66.09629 
z
" style="fill:#0000ff;stroke:#ffffff;stroke-linejoin:miter;stroke-width:0.5;"/>
   </g>
   <g id="29af75b5402e4640821ba9ae20088df9-15-node">
    <path clip-path="url(#p711caa8645)" d="M 346.655172 73.548871 
C 347.088917 73.548871 347.504954 73.156246 347.811658 72.457466 
C 348.118361 71.758686 348.29069 70.810804 348.29069 69.822581 
C 348.29069 68.834357 348.118361 67.886475 347.811658 67.187695 
C 347.504954 66.488916 347.088917 66.09629 346.655172 66.09629 
C 346.221428 66.09629 345.805391 66.488916 345.498687 67.187695 
C 345.191984 67.886475 345.019655 68.834357 345.019655 69.822581 
C 345.019655 70.810804 345.191984 71.758686 345.498687 72.457466 
C 345.805391 73.156246 346.221428 73.548871 346.655172 73.548871 
z
" style="fill:#ffff00;stroke:#ffffff;stroke-linejoin:miter;stroke-width:0.5;"/>
   </g>
   <g id="29af75b5402e4640821ba9ae20088df9-16-node">
    <path clip-path="url(#p711caa8645)" d="M 337.034483 66.09629 
L 335.398966 69.822581 
L 337.034483 73.548871 
L 338.67 69.822581 
z
" style="fill:#c800c8;stroke:#ffffff;stroke-linejoin:miter;stroke-width:0.5;"/>
   </g>
   <g id="patch_42">
    <path d="M 308.172414 157.5 
L 308.172414 21.6 
" style="fill:none;stroke:#ffffff;stroke-linecap:square;stroke-linejoin:miter;stroke-width:1.25;"/>
   </g>
   <g id="patch_43">
    <path d="M 452.482759 157.5 
L 452.482759 21.6 
" style="fill:none;stroke:#ffffff;stroke-linecap:square;stroke-linejoin:miter;stroke-width:1.25;"/>
   </g>
   <g id="patch_44">
    <path d="M 308.172414 157.5 
L 452.482759 157.5 
" style="fill:none;stroke:#ffffff;stroke-linecap:square;stroke-linejoin:miter;stroke-width:1.25;"/>
   </g>
   <g id="patch_45">
    <path d="M 308.172414 21.6 
L 452.482759 21.6 
" style="fill:none;stroke:#ffffff;stroke-linecap:square;stroke-linejoin:miter;stroke-width:1.25;"/>
   </g>
   <g id="text_2">
    <!-- 1584:30.0 -->
    <defs>
     <path d="M 17.671875 38.8125 
Q 12.203125 40.828125 9.5625 44.53125 
Q 6.9375 48.25 6.9375 53.421875 
Q 6.9375 61.234375 12.546875 66.546875 
Q 18.171875 71.875 27.484375 71.875 
Q 36.859375 71.875 42.578125 66.421875 
Q 48.296875 60.984375 48.296875 53.171875 
Q 48.296875 48.1875 45.671875 44.5 
Q 43.0625 40.828125 37.75 38.8125 
Q 44.34375 36.671875 47.78125 31.875 
Q 51.21875 27.09375 51.21875 20.453125 
Q 51.21875 11.28125 44.71875 5.03125 
Q 38.234375 -1.21875 27.640625 -1.21875 
Q 17.046875 -1.21875 10.546875 5.046875 
Q 4.046875 11.328125 4.046875 20.703125 
Q 4.046875 27.6875 7.59375 32.390625 
Q 11.140625 37.109375 17.671875 38.8125 
z
M 15.921875 53.71875 
Q 15.921875 48.640625 19.1875 45.40625 
Q 22.46875 42.1875 27.6875 42.1875 
Q 32.765625 42.1875 36.015625 45.375 
Q 39.265625 48.578125 39.265625 53.21875 
Q 39.265625 58.0625 35.90625 61.359375 
Q 32.5625 64.65625 27.59375 64.65625 
Q 22.5625 64.65625 19.234375 61.421875 
Q 15.921875 58.203125 15.921875 53.71875 
z
M 13.09375 20.65625 
Q 13.09375 16.890625 14.875 13.375 
Q 16.65625 9.859375 20.171875 7.921875 
Q 23.6875 6 27.734375 6 
Q 34.03125 6 38.125 10.046875 
Q 42.234375 14.109375 42.234375 20.359375 
Q 42.234375 26.703125 38.015625 30.859375 
Q 33.796875 35.015625 27.4375 35.015625 
Q 21.234375 35.015625 17.15625 30.90625 
Q 13.09375 26.8125 13.09375 20.65625 
z
" id="ArialMT-56"/>
     <path d="M 32.328125 0 
L 32.328125 17.140625 
L 1.265625 17.140625 
L 1.265625 25.203125 
L 33.9375 71.578125 
L 41.109375 71.578125 
L 41.109375 25.203125 
L 50.78125 25.203125 
L 50.78125 17.140625 
L 41.109375 17.140625 
L 41.109375 0 
z
M 32.328125 25.203125 
L 32.328125 57.46875 
L 9.90625 25.203125 
z
" id="ArialMT-52"/>
     <path d="M 4.15625 35.296875 
Q 4.15625 48 6.765625 55.734375 
Q 9.375 63.484375 14.515625 67.671875 
Q 19.671875 71.875 27.484375 71.875 
Q 33.25 71.875 37.59375 69.546875 
Q 41.9375 67.234375 44.765625 62.859375 
Q 47.609375 58.5 49.21875 52.21875 
Q 50.828125 45.953125 50.828125 35.296875 
Q 50.828125 22.703125 48.234375 14.96875 
Q 45.65625 7.234375 40.5 3 
Q 35.359375 -1.21875 27.484375 -1.21875 
Q 17.140625 -1.21875 11.234375 6.203125 
Q 4.15625 15.140625 4.15625 35.296875 
z
M 13.1875 35.296875 
Q 13.1875 17.671875 17.3125 11.828125 
Q 21.4375 6 27.484375 6 
Q 33.546875 6 37.671875 11.859375 
Q 41.796875 17.71875 41.796875 35.296875 
Q 41.796875 52.984375 37.671875 58.78125 
Q 33.546875 64.59375 27.390625 64.59375 
Q 21.34375 64.59375 17.71875 59.46875 
Q 13.1875 52.9375 13.1875 35.296875 
z
" id="ArialMT-48"/>
    </defs>
    <g style="fill:#262626;" transform="translate(353.637899 15.6)scale(0.12 -0.12)">
     <use xlink:href="#ArialMT-49"/>
     <use x="55.615234" xlink:href="#ArialMT-53"/>
     <use x="111.230469" xlink:href="#ArialMT-56"/>
     <use x="166.845703" xlink:href="#ArialMT-52"/>
     <use x="222.460938" xlink:href="#ArialMT-58"/>
     <use x="250.244141" xlink:href="#ArialMT-51"/>
     <use x="305.859375" xlink:href="#ArialMT-48"/>
     <use x="361.474609" xlink:href="#ArialMT-46"/>
     <use x="389.257812" xlink:href="#ArialMT-48"/>
    </g>
   </g>
  </g>
  <g id="axes_3">
   <g id="patch_46">
    <path d="M 481.344828 157.5 
L 625.655172 157.5 
L 625.655172 21.6 
L 481.344828 21.6 
z
" style="fill:#ffffff;"/>
   </g>
   <g id="patch_47">
    <path clip-path="url(#pf3e938a299)" d="M 546.735453 120.267123 
L 535.461207 120.267123 
" style="stroke:#000000;stroke-linejoin:miter;stroke-width:0.5;"/>
   </g>
   <g id="patch_48">
    <path clip-path="url(#pf3e938a299)" d="M 558.009698 120.267123 
L 546.735453 120.267123 
" style="stroke:#000000;stroke-linejoin:miter;stroke-width:0.5;"/>
   </g>
   <g id="patch_49">
    <path clip-path="url(#pf3e938a299)" d="M 569.283944 110.958904 
L 558.009698 120.267123 
" style="stroke:#000000;stroke-linejoin:miter;stroke-width:0.5;"/>
   </g>
   <g id="patch_50">
    <path clip-path="url(#pf3e938a299)" d="M 546.735453 101.650685 
L 535.461207 101.650685 
" style="stroke:#000000;stroke-linejoin:miter;stroke-width:0.5;"/>
   </g>
   <g id="patch_51">
    <path clip-path="url(#pf3e938a299)" d="M 558.009698 101.650685 
L 546.735453 101.650685 
" style="stroke:#000000;stroke-linejoin:miter;stroke-width:0.5;"/>
   </g>
   <g id="patch_52">
    <path clip-path="url(#pf3e938a299)" d="M 569.283944 110.958904 
L 558.009698 101.650685 
" style="stroke:#000000;stroke-linejoin:miter;stroke-width:0.5;"/>
   </g>
   <g id="patch_53">
    <path clip-path="url(#pf3e938a299)" d="M 580.55819 92.342466 
L 569.283944 110.958904 
" style="stroke:#000000;stroke-linejoin:miter;stroke-width:0.5;"/>
   </g>
   <g id="patch_54">
    <path clip-path="url(#pf3e938a299)" d="M 524.186961 83.034247 
L 512.912716 83.034247 
" style="stroke:#000000;stroke-linejoin:miter;stroke-width:0.5;"/>
   </g>
   <g id="patch_55">
    <path clip-path="url(#pf3e938a299)" d="M 535.461207 83.034247 
L 524.186961 83.034247 
" style="stroke:#000000;stroke-linejoin:miter;stroke-width:0.5;"/>
   </g>
   <g id="patch_56">
    <path clip-path="url(#pf3e938a299)" d="M 546.735453 83.034247 
L 535.461207 83.034247 
" style="stroke:#000000;stroke-linejoin:miter;stroke-width:0.5;"/>
   </g>
   <g id="patch_57">
    <path clip-path="url(#pf3e938a299)" d="M 558.009698 83.034247 
L 546.735453 83.034247 
" style="stroke:#000000;stroke-linejoin:miter;stroke-width:0.5;"/>
   </g>
   <g id="patch_58">
    <path clip-path="url(#pf3e938a299)" d="M 569.283944 73.726027 
L 558.009698 83.034247 
" style="stroke:#000000;stroke-linejoin:miter;stroke-width:0.5;"/>
   </g>
   <g id="patch_59">
    <path clip-path="url(#pf3e938a299)" d="M 546.735453 64.417808 
L 535.461207 64.417808 
" style="stroke:#000000;stroke-linejoin:miter;stroke-width:0.5;"/>
   </g>
   <g id="patch_60">
    <path clip-path="url(#pf3e938a299)" d="M 558.009698 64.417808 
L 546.735453 64.417808 
" style="stroke:#000000;stroke-linejoin:miter;stroke-width:0.5;"/>
   </g>
   <g id="patch_61">
    <path clip-path="url(#pf3e938a299)" d="M 569.283944 73.726027 
L 558.009698 64.417808 
" style="stroke:#000000;stroke-linejoin:miter;stroke-width:0.5;"/>
   </g>
   <g id="patch_62">
    <path clip-path="url(#pf3e938a299)" d="M 580.55819 92.342466 
L 569.283944 73.726027 
" style="stroke:#000000;stroke-linejoin:miter;stroke-width:0.5;"/>
   </g>
   <g id="patch_63">
    <path clip-path="url(#pf3e938a299)" d="M 591.832435 92.342466 
L 580.55819 92.342466 
" style="stroke:#000000;stroke-linejoin:miter;stroke-width:0.5;"/>
   </g>
   <g id="patch_64">
    <path clip-path="url(#pf3e938a299)" d="M 603.106681 92.342466 
L 591.832435 92.342466 
" style="stroke:#000000;stroke-linejoin:miter;stroke-width:0.5;"/>
   </g>
   <g id="a0d33006c73d4656983b4c955f058aeb-1-node">
    <path clip-path="url(#pf3e938a299)" d="M 605.023303 89.177671 
L 605.023303 95.50726 
L 601.190059 95.50726 
L 601.190059 89.177671 
L 605.023303 89.177671 
z
" style="fill:#0000ff;stroke:#ffffff;stroke-linejoin:miter;stroke-width:0.5;"/>
   </g>
   <g id="a0d33006c73d4656983b4c955f058aeb-3-node">
    <path clip-path="url(#pf3e938a299)" d="M 593.749057 89.177671 
L 593.749057 95.50726 
L 589.915814 95.50726 
L 589.915814 89.177671 
L 593.749057 89.177671 
z
" style="fill:#0000ff;stroke:#ffffff;stroke-linejoin:miter;stroke-width:0.5;"/>
   </g>
   <g id="a0d33006c73d4656983b4c955f058aeb-5-node">
    <path clip-path="url(#pf3e938a299)" d="M 580.55819 95.50726 
C 581.066484 95.50726 581.554028 95.173798 581.913446 94.580313 
C 582.272864 93.986829 582.474811 93.181779 582.474811 92.342466 
C 582.474811 91.503152 582.272864 90.698102 581.913446 90.104618 
C 581.554028 89.511134 581.066484 89.177671 580.55819 89.177671 
C 580.049896 89.177671 579.562352 89.511134 579.202933 90.104618 
C 578.843515 90.698102 578.641568 91.503152 578.641568 92.342466 
C 578.641568 93.181779 578.843515 93.986829 579.202933 94.580313 
C 579.562352 95.173798 580.049896 95.50726 580.55819 95.50726 
z
" style="fill:#00c832;stroke:#ffffff;stroke-linejoin:miter;stroke-width:0.5;"/>
   </g>
   <g id="a0d33006c73d4656983b4c955f058aeb-20-node">
    <path clip-path="url(#pf3e938a299)" d="M 569.283944 114.123699 
C 569.792238 114.123699 570.279782 113.790236 570.6392 113.196752 
C 570.998618 112.603268 571.200566 111.798217 571.200566 110.958904 
C 571.200566 110.119591 570.998618 109.314541 570.6392 108.721056 
C 570.279782 108.127572 569.792238 107.79411 569.283944 107.79411 
C 568.77565 107.79411 568.288106 108.127572 567.928688 108.721056 
C 567.56927 109.314541 567.367322 110.119591 567.367322 110.958904 
C 567.367322 111.798217 567.56927 112.603268 567.928688 113.196752 
C 568.288106 113.790236 568.77565 114.123699 569.283944 114.123699 
z
" style="fill:#00c832;stroke:#ffffff;stroke-linejoin:miter;stroke-width:0.5;"/>
   </g>
   <g id="a0d33006c73d4656983b4c955f058aeb-26-node">
    <path clip-path="url(#pf3e938a299)" d="M 559.92632 117.102329 
L 559.92632 123.431918 
L 556.093077 123.431918 
L 556.093077 117.102329 
L 559.92632 117.102329 
z
" style="fill:#0000ff;stroke:#ffffff;stroke-linejoin:miter;stroke-width:0.5;"/>
   </g>
   <g id="a0d33006c73d4656983b4c955f058aeb-28-node">
    <path clip-path="url(#pf3e938a299)" d="M 546.735453 123.431918 
C 547.243747 123.431918 547.731291 123.098455 548.090709 122.504971 
C 548.450127 121.911487 548.652074 121.106437 548.652074 120.267123 
C 548.652074 119.42781 548.450127 118.62276 548.090709 118.029276 
C 547.731291 117.435791 547.243747 117.102329 546.735453 117.102329 
C 546.227159 117.102329 545.739614 117.435791 545.380196 118.029276 
C 545.020778 118.62276 544.818831 119.42781 544.818831 120.267123 
C 544.818831 121.106437 545.020778 121.911487 545.380196 122.504971 
C 545.739614 123.098455 546.227159 123.431918 546.735453 123.431918 
z
" style="fill:#ffff00;stroke:#ffffff;stroke-linejoin:miter;stroke-width:0.5;"/>
   </g>
   <g id="a0d33006c73d4656983b4c955f058aeb-29-node">
    <path clip-path="url(#pf3e938a299)" d="M 535.461207 117.102329 
L 533.544585 120.267123 
L 535.461207 123.431918 
L 537.377829 120.267123 
z
" style="fill:#c800c8;stroke:#ffffff;stroke-linejoin:miter;stroke-width:0.5;"/>
   </g>
   <g id="a0d33006c73d4656983b4c955f058aeb-21-node">
    <path clip-path="url(#pf3e938a299)" d="M 559.92632 98.48589 
L 559.92632 104.815479 
L 556.093077 104.815479 
L 556.093077 98.48589 
L 559.92632 98.48589 
z
" style="fill:#0000ff;stroke:#ffffff;stroke-linejoin:miter;stroke-width:0.5;"/>
   </g>
   <g id="a0d33006c73d4656983b4c955f058aeb-23-node">
    <path clip-path="url(#pf3e938a299)" d="M 546.735453 104.815479 
C 547.243747 104.815479 547.731291 104.482017 548.090709 103.888533 
C 548.450127 103.295048 548.652074 102.489998 548.652074 101.650685 
C 548.652074 100.811372 548.450127 100.006321 548.090709 99.412837 
C 547.731291 98.819353 547.243747 98.48589 546.735453 98.48589 
C 546.227159 98.48589 545.739614 98.819353 545.380196 99.412837 
C 545.020778 100.006321 544.818831 100.811372 544.818831 101.650685 
C 544.818831 102.489998 545.020778 103.295048 545.380196 103.888533 
C 545.739614 104.482017 546.227159 104.815479 546.735453 104.815479 
z
" style="fill:#ffff00;stroke:#ffffff;stroke-linejoin:miter;stroke-width:0.5;"/>
   </g>
   <g id="a0d33006c73d4656983b4c955f058aeb-24-node">
    <path clip-path="url(#pf3e938a299)" d="M 535.461207 98.48589 
L 533.544585 101.650685 
L 535.461207 104.815479 
L 537.377829 101.650685 
z
" style="fill:#c800c8;stroke:#ffffff;stroke-linejoin:miter;stroke-width:0.5;"/>
   </g>
   <g id="a0d33006c73d4656983b4c955f058aeb-6-node">
    <path clip-path="url(#pf3e938a299)" d="M 569.283944 76.890822 
C 569.792238 76.890822 570.279782 76.557359 570.6392 75.963875 
C 570.998618 75.370391 571.200566 74.565341 571.200566 73.726027 
C 571.200566 72.886714 570.998618 72.081664 570.6392 71.48818 
C 570.279782 70.894696 569.792238 70.561233 569.283944 70.561233 
C 568.77565 70.561233 568.288106 70.894696 567.928688 71.48818 
C 567.56927 72.081664 567.367322 72.886714 567.367322 73.726027 
C 567.367322 74.565341 567.56927 75.370391 567.928688 75.963875 
C 568.288106 76.557359 568.77565 76.890822 569.283944 76.890822 
z
" style="fill:#00c832;stroke:#ffffff;stroke-linejoin:miter;stroke-width:0.5;"/>
   </g>
   <g id="a0d33006c73d4656983b4c955f058aeb-12-node">
    <path clip-path="url(#pf3e938a299)" d="M 559.92632 79.869452 
L 559.92632 86.199041 
L 556.093077 86.199041 
L 556.093077 79.869452 
L 559.92632 79.869452 
z
" style="fill:#0000ff;stroke:#ffffff;stroke-linejoin:miter;stroke-width:0.5;"/>
   </g>
   <g id="a0d33006c73d4656983b4c955f058aeb-14-node">
    <path clip-path="url(#pf3e938a299)" d="M 546.735453 86.199041 
C 547.243747 86.199041 547.731291 85.865578 548.090709 85.272094 
C 548.450127 84.67861 548.652074 83.87356 548.652074 83.034247 
C 548.652074 82.194933 548.450127 81.389883 548.090709 80.796399 
C 547.731291 80.202915 547.243747 79.869452 546.735453 79.869452 
C 546.227159 79.869452 545.739614 80.202915 545.380196 80.796399 
C 545.020778 81.389883 544.818831 82.194933 544.818831 83.034247 
C 544.818831 83.87356 545.020778 84.67861 545.380196 85.272094 
C 545.739614 85.865578 546.227159 86.199041 546.735453 86.199041 
z
" style="fill:#ffff00;stroke:#ffffff;stroke-linejoin:miter;stroke-width:0.5;"/>
   </g>
   <g id="a0d33006c73d4656983b4c955f058aeb-15-node">
    <path clip-path="url(#pf3e938a299)" d="M 537.377829 79.869452 
L 537.377829 86.199041 
L 533.544585 86.199041 
L 533.544585 79.869452 
L 537.377829 79.869452 
z
" style="fill:#0000ff;stroke:#ffffff;stroke-linejoin:miter;stroke-width:0.5;"/>
   </g>
   <g id="a0d33006c73d4656983b4c955f058aeb-17-node">
    <path clip-path="url(#pf3e938a299)" d="M 524.186961 86.199041 
C 524.695255 86.199041 525.182799 85.865578 525.542217 85.272094 
C 525.901636 84.67861 526.103583 83.87356 526.103583 83.034247 
C 526.103583 82.194933 525.901636 81.389883 525.542217 80.796399 
C 525.182799 80.202915 524.695255 79.869452 524.186961 79.869452 
C 523.678667 79.869452 523.191123 80.202915 522.831705 80.796399 
C 522.472287 81.389883 522.270339 82.194933 522.270339 83.034247 
C 522.270339 83.87356 522.472287 84.67861 522.831705 85.272094 
C 523.191123 85.865578 523.678667 86.199041 524.186961 86.199041 
z
" style="fill:#ffff00;stroke:#ffffff;stroke-linejoin:miter;stroke-width:0.5;"/>
   </g>
   <g id="a0d33006c73d4656983b4c955f058aeb-18-node">
    <path clip-path="url(#pf3e938a299)" d="M 512.912716 79.869452 
L 510.996094 83.034247 
L 512.912716 86.199041 
L 514.829337 83.034247 
z
" style="fill:#c800c8;stroke:#ffffff;stroke-linejoin:miter;stroke-width:0.5;"/>
   </g>
   <g id="a0d33006c73d4656983b4c955f058aeb-7-node">
    <path clip-path="url(#pf3e938a299)" d="M 559.92632 61.253014 
L 559.92632 67.582603 
L 556.093077 67.582603 
L 556.093077 61.253014 
L 559.92632 61.253014 
z
" style="fill:#0000ff;stroke:#ffffff;stroke-linejoin:miter;stroke-width:0.5;"/>
   </g>
   <g id="a0d33006c73d4656983b4c955f058aeb-9-node">
    <path clip-path="url(#pf3e938a299)" d="M 546.735453 67.582603 
C 547.243747 67.582603 547.731291 67.24914 548.090709 66.655656 
C 548.450127 66.062172 548.652074 65.257122 548.652074 64.417808 
C 548.652074 63.578495 548.450127 62.773445 548.090709 62.179961 
C 547.731291 61.586476 547.243747 61.253014 546.735453 61.253014 
C 546.227159 61.253014 545.739614 61.586476 545.380196 62.179961 
C 545.020778 62.773445 544.818831 63.578495 544.818831 64.417808 
C 544.818831 65.257122 545.020778 66.062172 545.380196 66.655656 
C 545.739614 67.24914 546.227159 67.582603 546.735453 67.582603 
z
" style="fill:#ffff00;stroke:#ffffff;stroke-linejoin:miter;stroke-width:0.5;"/>
   </g>
   <g id="a0d33006c73d4656983b4c955f058aeb-10-node">
    <path clip-path="url(#pf3e938a299)" d="M 535.461207 61.253014 
L 533.544585 64.417808 
L 535.461207 67.582603 
L 537.377829 64.417808 
z
" style="fill:#c800c8;stroke:#ffffff;stroke-linejoin:miter;stroke-width:0.5;"/>
   </g>
   <g id="patch_65">
    <path d="M 481.344828 157.5 
L 481.344828 21.6 
" style="fill:none;stroke:#ffffff;stroke-linecap:square;stroke-linejoin:miter;stroke-width:1.25;"/>
   </g>
   <g id="patch_66">
    <path d="M 625.655172 157.5 
L 625.655172 21.6 
" style="fill:none;stroke:#ffffff;stroke-linecap:square;stroke-linejoin:miter;stroke-width:1.25;"/>
   </g>
   <g id="patch_67">
    <path d="M 481.344828 157.5 
L 625.655172 157.5 
" style="fill:none;stroke:#ffffff;stroke-linecap:square;stroke-linejoin:miter;stroke-width:1.25;"/>
   </g>
   <g id="patch_68">
    <path d="M 481.344828 21.6 
L 625.655172 21.6 
" style="fill:none;stroke:#ffffff;stroke-linecap:square;stroke-linejoin:miter;stroke-width:1.25;"/>
   </g>
   <g id="text_3">
    <!-- 1641:4.0 -->
    <defs>
     <path d="M 49.75 54.046875 
L 41.015625 53.375 
Q 39.84375 58.546875 37.703125 60.890625 
Q 34.125 64.65625 28.90625 64.65625 
Q 24.703125 64.65625 21.53125 62.3125 
Q 17.390625 59.28125 14.984375 53.46875 
Q 12.59375 47.65625 12.5 36.921875 
Q 15.671875 41.75 20.265625 44.09375 
Q 24.859375 46.4375 29.890625 46.4375 
Q 38.671875 46.4375 44.84375 39.96875 
Q 51.03125 33.5 51.03125 23.25 
Q 51.03125 16.5 48.125 10.71875 
Q 45.21875 4.9375 40.140625 1.859375 
Q 35.0625 -1.21875 28.609375 -1.21875 
Q 17.625 -1.21875 10.6875 6.859375 
Q 3.765625 14.9375 3.765625 33.5 
Q 3.765625 54.25 11.421875 63.671875 
Q 18.109375 71.875 29.4375 71.875 
Q 37.890625 71.875 43.28125 67.140625 
Q 48.6875 62.40625 49.75 54.046875 
z
M 13.875 23.1875 
Q 13.875 18.65625 15.796875 14.5 
Q 17.71875 10.359375 21.1875 8.171875 
Q 24.65625 6 28.46875 6 
Q 34.03125 6 38.03125 10.484375 
Q 42.046875 14.984375 42.046875 22.703125 
Q 42.046875 30.125 38.078125 34.390625 
Q 34.125 38.671875 28.125 38.671875 
Q 22.171875 38.671875 18.015625 34.390625 
Q 13.875 30.125 13.875 23.1875 
z
" id="ArialMT-54"/>
    </defs>
    <g style="fill:#262626;" transform="translate(530.146875 15.6)scale(0.12 -0.12)">
     <use xlink:href="#ArialMT-49"/>
     <use x="55.615234" xlink:href="#ArialMT-54"/>
     <use x="111.230469" xlink:href="#ArialMT-52"/>
     <use x="166.845703" xlink:href="#ArialMT-49"/>
     <use x="222.460938" xlink:href="#ArialMT-58"/>
     <use x="250.244141" xlink:href="#ArialMT-52"/>
     <use x="305.859375" xlink:href="#ArialMT-46"/>
     <use x="333.642578" xlink:href="#ArialMT-48"/>
    </g>
   </g>
  </g>
  <g id="axes_4">
   <g id="patch_69">
    <path d="M 654.517241 157.5 
L 798.827586 157.5 
L 798.827586 21.6 
L 654.517241 21.6 
z
" style="fill:#ffffff;"/>
   </g>
   <g id="patch_70">
    <path clip-path="url(#p8067d14ce8)" d="M 731.482759 120.267123 
L 721.862069 120.267123 
" style="stroke:#000000;stroke-linejoin:miter;stroke-width:0.5;"/>
   </g>
   <g id="patch_71">
    <path clip-path="url(#p8067d14ce8)" d="M 741.103448 120.267123 
L 731.482759 120.267123 
" style="stroke:#000000;stroke-linejoin:miter;stroke-width:0.5;"/>
   </g>
   <g id="patch_72">
    <path clip-path="url(#p8067d14ce8)" d="M 750.724138 110.958904 
L 741.103448 120.267123 
" style="stroke:#000000;stroke-linejoin:miter;stroke-width:0.5;"/>
   </g>
   <g id="patch_73">
    <path clip-path="url(#p8067d14ce8)" d="M 731.482759 101.650685 
L 721.862069 101.650685 
" style="stroke:#000000;stroke-linejoin:miter;stroke-width:0.5;"/>
   </g>
   <g id="patch_74">
    <path clip-path="url(#p8067d14ce8)" d="M 741.103448 101.650685 
L 731.482759 101.650685 
" style="stroke:#000000;stroke-linejoin:miter;stroke-width:0.5;"/>
   </g>
   <g id="patch_75">
    <path clip-path="url(#p8067d14ce8)" d="M 750.724138 110.958904 
L 741.103448 101.650685 
" style="stroke:#000000;stroke-linejoin:miter;stroke-width:0.5;"/>
   </g>
   <g id="patch_76">
    <path clip-path="url(#p8067d14ce8)" d="M 760.344828 92.342466 
L 750.724138 110.958904 
" style="stroke:#000000;stroke-linejoin:miter;stroke-width:0.5;"/>
   </g>
   <g id="patch_77">
    <path clip-path="url(#p8067d14ce8)" d="M 731.482759 83.034247 
L 721.862069 83.034247 
" style="stroke:#000000;stroke-linejoin:miter;stroke-width:0.5;"/>
   </g>
   <g id="patch_78">
    <path clip-path="url(#p8067d14ce8)" d="M 741.103448 83.034247 
L 731.482759 83.034247 
" style="stroke:#000000;stroke-linejoin:miter;stroke-width:0.5;"/>
   </g>
   <g id="patch_79">
    <path clip-path="url(#p8067d14ce8)" d="M 750.724138 73.726027 
L 741.103448 83.034247 
" style="stroke:#000000;stroke-linejoin:miter;stroke-width:0.5;"/>
   </g>
   <g id="patch_80">
    <path clip-path="url(#p8067d14ce8)" d="M 693 64.417808 
L 683.37931 64.417808 
" style="stroke:#000000;stroke-linejoin:miter;stroke-width:0.5;"/>
   </g>
   <g id="patch_81">
    <path clip-path="url(#p8067d14ce8)" d="M 702.62069 64.417808 
L 693 64.417808 
" style="stroke:#000000;stroke-linejoin:miter;stroke-width:0.5;"/>
   </g>
   <g id="patch_82">
    <path clip-path="url(#p8067d14ce8)" d="M 712.241379 64.417808 
L 702.62069 64.417808 
" style="stroke:#000000;stroke-linejoin:miter;stroke-width:0.5;"/>
   </g>
   <g id="patch_83">
    <path clip-path="url(#p8067d14ce8)" d="M 721.862069 64.417808 
L 712.241379 64.417808 
" style="stroke:#000000;stroke-linejoin:miter;stroke-width:0.5;"/>
   </g>
   <g id="patch_84">
    <path clip-path="url(#p8067d14ce8)" d="M 731.482759 64.417808 
L 721.862069 64.417808 
" style="stroke:#000000;stroke-linejoin:miter;stroke-width:0.5;"/>
   </g>
   <g id="patch_85">
    <path clip-path="url(#p8067d14ce8)" d="M 741.103448 64.417808 
L 731.482759 64.417808 
" style="stroke:#000000;stroke-linejoin:miter;stroke-width:0.5;"/>
   </g>
   <g id="patch_86">
    <path clip-path="url(#p8067d14ce8)" d="M 750.724138 73.726027 
L 741.103448 64.417808 
" style="stroke:#000000;stroke-linejoin:miter;stroke-width:0.5;"/>
   </g>
   <g id="patch_87">
    <path clip-path="url(#p8067d14ce8)" d="M 760.344828 92.342466 
L 750.724138 73.726027 
" style="stroke:#000000;stroke-linejoin:miter;stroke-width:0.5;"/>
   </g>
   <g id="patch_88">
    <path clip-path="url(#p8067d14ce8)" d="M 769.965517 92.342466 
L 760.344828 92.342466 
" style="stroke:#000000;stroke-linejoin:miter;stroke-width:0.5;"/>
   </g>
   <g id="patch_89">
    <path clip-path="url(#p8067d14ce8)" d="M 779.586207 92.342466 
L 769.965517 92.342466 
" style="stroke:#000000;stroke-linejoin:miter;stroke-width:0.5;"/>
   </g>
   <g id="a744f96584d34196870843722f6e013e-1-node">
    <path clip-path="url(#p8067d14ce8)" d="M 781.221724 89.177671 
L 781.221724 95.50726 
L 777.95069 95.50726 
L 777.95069 89.177671 
L 781.221724 89.177671 
z
" style="fill:#0000ff;stroke:#ffffff;stroke-linejoin:miter;stroke-width:0.5;"/>
   </g>
   <g id="a744f96584d34196870843722f6e013e-3-node">
    <path clip-path="url(#p8067d14ce8)" d="M 771.601034 89.177671 
L 771.601034 95.50726 
L 768.33 95.50726 
L 768.33 89.177671 
L 771.601034 89.177671 
z
" style="fill:#0000ff;stroke:#ffffff;stroke-linejoin:miter;stroke-width:0.5;"/>
   </g>
   <g id="a744f96584d34196870843722f6e013e-5-node">
    <path clip-path="url(#p8067d14ce8)" d="M 760.344828 95.50726 
C 760.778572 95.50726 761.194609 95.173798 761.501313 94.580313 
C 761.808016 93.986829 761.980345 93.181779 761.980345 92.342466 
C 761.980345 91.503152 761.808016 90.698102 761.501313 90.104618 
C 761.194609 89.511134 760.778572 89.177671 760.344828 89.177671 
C 759.911083 89.177671 759.495046 89.511134 759.188342 90.104618 
C 758.881639 90.698102 758.70931 91.503152 758.70931 92.342466 
C 758.70931 93.181779 758.881639 93.986829 759.188342 94.580313 
C 759.495046 95.173798 759.911083 95.50726 760.344828 95.50726 
z
" style="fill:#00c832;stroke:#ffffff;stroke-linejoin:miter;stroke-width:0.5;"/>
   </g>
   <g id="a744f96584d34196870843722f6e013e-23-node">
    <path clip-path="url(#p8067d14ce8)" d="M 750.724138 114.123699 
C 751.157882 114.123699 751.57392 113.790236 751.880623 113.196752 
C 752.187327 112.603268 752.359655 111.798217 752.359655 110.958904 
C 752.359655 110.119591 752.187327 109.314541 751.880623 108.721056 
C 751.57392 108.127572 751.157882 107.79411 750.724138 107.79411 
C 750.290394 107.79411 749.874356 108.127572 749.567653 108.721056 
C 749.260949 109.314541 749.088621 110.119591 749.088621 110.958904 
C 749.088621 111.798217 749.260949 112.603268 749.567653 113.196752 
C 749.874356 113.790236 750.290394 114.123699 750.724138 114.123699 
z
" style="fill:#00c832;stroke:#ffffff;stroke-linejoin:miter;stroke-width:0.5;"/>
   </g>
   <g id="a744f96584d34196870843722f6e013e-29-node">
    <path clip-path="url(#p8067d14ce8)" d="M 742.738966 117.102329 
L 742.738966 123.431918 
L 739.467931 123.431918 
L 739.467931 117.102329 
L 742.738966 117.102329 
z
" style="fill:#0000ff;stroke:#ffffff;stroke-linejoin:miter;stroke-width:0.5;"/>
   </g>
   <g id="a744f96584d34196870843722f6e013e-31-node">
    <path clip-path="url(#p8067d14ce8)" d="M 731.482759 123.431918 
C 731.916503 123.431918 732.33254 123.098455 732.639244 122.504971 
C 732.945947 121.911487 733.118276 121.106437 733.118276 120.267123 
C 733.118276 119.42781 732.945947 118.62276 732.639244 118.029276 
C 732.33254 117.435791 731.916503 117.102329 731.482759 117.102329 
C 731.049014 117.102329 730.632977 117.435791 730.326273 118.029276 
C 730.01957 118.62276 729.847241 119.42781 729.847241 120.267123 
C 729.847241 121.106437 730.01957 121.911487 730.326273 122.504971 
C 730.632977 123.098455 731.049014 123.431918 731.482759 123.431918 
z
" style="fill:#ffff00;stroke:#ffffff;stroke-linejoin:miter;stroke-width:0.5;"/>
   </g>
   <g id="a744f96584d34196870843722f6e013e-32-node">
    <path clip-path="url(#p8067d14ce8)" d="M 721.862069 117.102329 
L 720.226552 120.267123 
L 721.862069 123.431918 
L 723.497586 120.267123 
z
" style="fill:#c800c8;stroke:#ffffff;stroke-linejoin:miter;stroke-width:0.5;"/>
   </g>
   <g id="a744f96584d34196870843722f6e013e-24-node">
    <path clip-path="url(#p8067d14ce8)" d="M 742.738966 98.48589 
L 742.738966 104.815479 
L 739.467931 104.815479 
L 739.467931 98.48589 
L 742.738966 98.48589 
z
" style="fill:#0000ff;stroke:#ffffff;stroke-linejoin:miter;stroke-width:0.5;"/>
   </g>
   <g id="a744f96584d34196870843722f6e013e-26-node">
    <path clip-path="url(#p8067d14ce8)" d="M 731.482759 104.815479 
C 731.916503 104.815479 732.33254 104.482017 732.639244 103.888533 
C 732.945947 103.295048 733.118276 102.489998 733.118276 101.650685 
C 733.118276 100.811372 732.945947 100.006321 732.639244 99.412837 
C 732.33254 98.819353 731.916503 98.48589 731.482759 98.48589 
C 731.049014 98.48589 730.632977 98.819353 730.326273 99.412837 
C 730.01957 100.006321 729.847241 100.811372 729.847241 101.650685 
C 729.847241 102.489998 730.01957 103.295048 730.326273 103.888533 
C 730.632977 104.482017 731.049014 104.815479 731.482759 104.815479 
z
" style="fill:#ffff00;stroke:#ffffff;stroke-linejoin:miter;stroke-width:0.5;"/>
   </g>
   <g id="a744f96584d34196870843722f6e013e-27-node">
    <path clip-path="url(#p8067d14ce8)" d="M 721.862069 98.48589 
L 720.226552 101.650685 
L 721.862069 104.815479 
L 723.497586 101.650685 
z
" style="fill:#c800c8;stroke:#ffffff;stroke-linejoin:miter;stroke-width:0.5;"/>
   </g>
   <g id="a744f96584d34196870843722f6e013e-6-node">
    <path clip-path="url(#p8067d14ce8)" d="M 750.724138 76.890822 
C 751.157882 76.890822 751.57392 76.557359 751.880623 75.963875 
C 752.187327 75.370391 752.359655 74.565341 752.359655 73.726027 
C 752.359655 72.886714 752.187327 72.081664 751.880623 71.48818 
C 751.57392 70.894696 751.157882 70.561233 750.724138 70.561233 
C 750.290394 70.561233 749.874356 70.894696 749.567653 71.48818 
C 749.260949 72.081664 749.088621 72.886714 749.088621 73.726027 
C 749.088621 74.565341 749.260949 75.370391 749.567653 75.963875 
C 749.874356 76.557359 750.290394 76.890822 750.724138 76.890822 
z
" style="fill:#00c832;stroke:#ffffff;stroke-linejoin:miter;stroke-width:0.5;"/>
   </g>
   <g id="a744f96584d34196870843722f6e013e-18-node">
    <path clip-path="url(#p8067d14ce8)" d="M 742.738966 79.869452 
L 742.738966 86.199041 
L 739.467931 86.199041 
L 739.467931 79.869452 
L 742.738966 79.869452 
z
" style="fill:#0000ff;stroke:#ffffff;stroke-linejoin:miter;stroke-width:0.5;"/>
   </g>
   <g id="a744f96584d34196870843722f6e013e-20-node">
    <path clip-path="url(#p8067d14ce8)" d="M 731.482759 86.199041 
C 731.916503 86.199041 732.33254 85.865578 732.639244 85.272094 
C 732.945947 84.67861 733.118276 83.87356 733.118276 83.034247 
C 733.118276 82.194933 732.945947 81.389883 732.639244 80.796399 
C 732.33254 80.202915 731.916503 79.869452 731.482759 79.869452 
C 731.049014 79.869452 730.632977 80.202915 730.326273 80.796399 
C 730.01957 81.389883 729.847241 82.194933 729.847241 83.034247 
C 729.847241 83.87356 730.01957 84.67861 730.326273 85.272094 
C 730.632977 85.865578 731.049014 86.199041 731.482759 86.199041 
z
" style="fill:#ffff00;stroke:#ffffff;stroke-linejoin:miter;stroke-width:0.5;"/>
   </g>
   <g id="a744f96584d34196870843722f6e013e-21-node">
    <path clip-path="url(#p8067d14ce8)" d="M 721.862069 79.869452 
L 720.226552 83.034247 
L 721.862069 86.199041 
L 723.497586 83.034247 
z
" style="fill:#c800c8;stroke:#ffffff;stroke-linejoin:miter;stroke-width:0.5;"/>
   </g>
   <g id="a744f96584d34196870843722f6e013e-7-node">
    <path clip-path="url(#p8067d14ce8)" d="M 742.738966 61.253014 
L 742.738966 67.582603 
L 739.467931 67.582603 
L 739.467931 61.253014 
L 742.738966 61.253014 
z
" style="fill:#0000ff;stroke:#ffffff;stroke-linejoin:miter;stroke-width:0.5;"/>
   </g>
   <g id="a744f96584d34196870843722f6e013e-9-node">
    <path clip-path="url(#p8067d14ce8)" d="M 731.482759 67.582603 
C 731.916503 67.582603 732.33254 67.24914 732.639244 66.655656 
C 732.945947 66.062172 733.118276 65.257122 733.118276 64.417808 
C 733.118276 63.578495 732.945947 62.773445 732.639244 62.179961 
C 732.33254 61.586476 731.916503 61.253014 731.482759 61.253014 
C 731.049014 61.253014 730.632977 61.586476 730.326273 62.179961 
C 730.01957 62.773445 729.847241 63.578495 729.847241 64.417808 
C 729.847241 65.257122 730.01957 66.062172 730.326273 66.655656 
C 730.632977 67.24914 731.049014 67.582603 731.482759 67.582603 
z
" style="fill:#ffff00;stroke:#ffffff;stroke-linejoin:miter;stroke-width:0.5;"/>
   </g>
   <g id="a744f96584d34196870843722f6e013e-10-node">
    <path clip-path="url(#p8067d14ce8)" d="M 723.497586 61.253014 
L 723.497586 67.582603 
L 720.226552 67.582603 
L 720.226552 61.253014 
L 723.497586 61.253014 
z
" style="fill:#0000ff;stroke:#ffffff;stroke-linejoin:miter;stroke-width:0.5;"/>
   </g>
   <g id="a744f96584d34196870843722f6e013e-12-node">
    <path clip-path="url(#p8067d14ce8)" d="M 712.241379 67.582603 
C 712.675124 67.582603 713.091161 67.24914 713.397865 66.655656 
C 713.704568 66.062172 713.876897 65.257122 713.876897 64.417808 
C 713.876897 63.578495 713.704568 62.773445 713.397865 62.179961 
C 713.091161 61.586476 712.675124 61.253014 712.241379 61.253014 
C 711.807635 61.253014 711.391597 61.586476 711.084894 62.179961 
C 710.77819 62.773445 710.605862 63.578495 710.605862 64.417808 
C 710.605862 65.257122 710.77819 66.062172 711.084894 66.655656 
C 711.391597 67.24914 711.807635 67.582603 712.241379 67.582603 
z
" style="fill:#ffff00;stroke:#ffffff;stroke-linejoin:miter;stroke-width:0.5;"/>
   </g>
   <g id="a744f96584d34196870843722f6e013e-13-node">
    <path clip-path="url(#p8067d14ce8)" d="M 704.256207 61.253014 
L 704.256207 67.582603 
L 700.985172 67.582603 
L 700.985172 61.253014 
L 704.256207 61.253014 
z
" style="fill:#0000ff;stroke:#ffffff;stroke-linejoin:miter;stroke-width:0.5;"/>
   </g>
   <g id="a744f96584d34196870843722f6e013e-15-node">
    <path clip-path="url(#p8067d14ce8)" d="M 693 67.582603 
C 693.433744 67.582603 693.849782 67.24914 694.156485 66.655656 
C 694.463189 66.062172 694.635517 65.257122 694.635517 64.417808 
C 694.635517 63.578495 694.463189 62.773445 694.156485 62.179961 
C 693.849782 61.586476 693.433744 61.253014 693 61.253014 
C 692.566256 61.253014 692.150218 61.586476 691.843515 62.179961 
C 691.536811 62.773445 691.364483 63.578495 691.364483 64.417808 
C 691.364483 65.257122 691.536811 66.062172 691.843515 66.655656 
C 692.150218 67.24914 692.566256 67.582603 693 67.582603 
z
" style="fill:#ffff00;stroke:#ffffff;stroke-linejoin:miter;stroke-width:0.5;"/>
   </g>
   <g id="a744f96584d34196870843722f6e013e-16-node">
    <path clip-path="url(#p8067d14ce8)" d="M 683.37931 61.253014 
L 681.743793 64.417808 
L 683.37931 67.582603 
L 685.014828 64.417808 
z
" style="fill:#c800c8;stroke:#ffffff;stroke-linejoin:miter;stroke-width:0.5;"/>
   </g>
   <g id="patch_90">
    <path d="M 654.517241 157.5 
L 654.517241 21.6 
" style="fill:none;stroke:#ffffff;stroke-linecap:square;stroke-linejoin:miter;stroke-width:1.25;"/>
   </g>
   <g id="patch_91">
    <path d="M 798.827586 157.5 
L 798.827586 21.6 
" style="fill:none;stroke:#ffffff;stroke-linecap:square;stroke-linejoin:miter;stroke-width:1.25;"/>
   </g>
   <g id="patch_92">
    <path d="M 654.517241 157.5 
L 798.827586 157.5 
" style="fill:none;stroke:#ffffff;stroke-linecap:square;stroke-linejoin:miter;stroke-width:1.25;"/>
   </g>
   <g id="patch_93">
    <path d="M 654.517241 21.6 
L 798.827586 21.6 
" style="fill:none;stroke:#ffffff;stroke-linecap:square;stroke-linejoin:miter;stroke-width:1.25;"/>
   </g>
   <g id="text_4">
    <!-- 1695:54.0 -->
    <defs>
     <path d="M 5.46875 16.546875 
L 13.921875 17.328125 
Q 14.984375 11.375 18.015625 8.6875 
Q 21.046875 6 25.78125 6 
Q 29.828125 6 32.875 7.859375 
Q 35.9375 9.71875 37.890625 12.8125 
Q 39.84375 15.921875 41.15625 21.1875 
Q 42.484375 26.46875 42.484375 31.9375 
Q 42.484375 32.515625 42.4375 33.6875 
Q 39.796875 29.5 35.234375 26.875 
Q 30.671875 24.265625 25.34375 24.265625 
Q 16.453125 24.265625 10.296875 30.703125 
Q 4.15625 37.15625 4.15625 47.703125 
Q 4.15625 58.59375 10.578125 65.234375 
Q 17 71.875 26.65625 71.875 
Q 33.640625 71.875 39.421875 68.109375 
Q 45.21875 64.359375 48.21875 57.390625 
Q 51.21875 50.4375 51.21875 37.25 
Q 51.21875 23.53125 48.234375 15.40625 
Q 45.265625 7.28125 39.375 3.03125 
Q 33.5 -1.21875 25.59375 -1.21875 
Q 17.1875 -1.21875 11.859375 3.4375 
Q 6.546875 8.109375 5.46875 16.546875 
z
M 41.453125 48.140625 
Q 41.453125 55.71875 37.421875 60.15625 
Q 33.40625 64.59375 27.734375 64.59375 
Q 21.875 64.59375 17.53125 59.8125 
Q 13.1875 55.03125 13.1875 47.40625 
Q 13.1875 40.578125 17.3125 36.296875 
Q 21.4375 32.03125 27.484375 32.03125 
Q 33.59375 32.03125 37.515625 36.296875 
Q 41.453125 40.578125 41.453125 48.140625 
z
" id="ArialMT-57"/>
    </defs>
    <g style="fill:#262626;" transform="translate(699.982726 15.6)scale(0.12 -0.12)">
     <use xlink:href="#ArialMT-49"/>
     <use x="55.615234" xlink:href="#ArialMT-54"/>
     <use x="111.230469" xlink:href="#ArialMT-57"/>
     <use x="166.845703" xlink:href="#ArialMT-53"/>
     <use x="222.460938" xlink:href="#ArialMT-58"/>
     <use x="250.244141" xlink:href="#ArialMT-53"/>
     <use x="305.859375" xlink:href="#ArialMT-52"/>
     <use x="361.474609" xlink:href="#ArialMT-46"/>
     <use x="389.257812" xlink:href="#ArialMT-48"/>
    </g>
   </g>
  </g>
  <g id="axes_5">
   <g id="patch_94">
    <path d="M 827.689655 157.5 
L 972 157.5 
L 972 21.6 
L 827.689655 21.6 
z
" style="fill:#eaeaf2;"/>
   </g>
   <g id="matplotlib.axis_1">
    <g id="xtick_1">
     <g id="line2d_1">
      <path clip-path="url(#p34e7aa6e7f)" d="M 827.689655 157.5 
L 827.689655 21.6 
" style="fill:none;stroke:#ffffff;stroke-linecap:round;"/>
     </g>
     <g id="text_5">
      <!-- 0.00 -->
      <g style="fill:#262626;" transform="translate(816.98614 174.873594)scale(0.11 -0.11)">
       <use xlink:href="#ArialMT-48"/>
       <use x="55.615234" xlink:href="#ArialMT-46"/>
       <use x="83.398438" xlink:href="#ArialMT-48"/>
       <use x="139.013672" xlink:href="#ArialMT-48"/>
      </g>
     </g>
    </g>
    <g id="xtick_2">
     <g id="line2d_2">
      <path clip-path="url(#p34e7aa6e7f)" d="M 863.767241 157.5 
L 863.767241 21.6 
" style="fill:none;stroke:#ffffff;stroke-linecap:round;"/>
     </g>
     <g id="text_6">
      <!-- 0.25 -->
      <defs>
       <path d="M 50.34375 8.453125 
L 50.34375 0 
L 3.03125 0 
Q 2.9375 3.171875 4.046875 6.109375 
Q 5.859375 10.9375 9.828125 15.625 
Q 13.8125 20.3125 21.34375 26.46875 
Q 33.015625 36.03125 37.109375 41.625 
Q 41.21875 47.21875 41.21875 52.203125 
Q 41.21875 57.421875 37.46875 61 
Q 33.734375 64.59375 27.734375 64.59375 
Q 21.390625 64.59375 17.578125 60.78125 
Q 13.765625 56.984375 13.71875 50.25 
L 4.6875 51.171875 
Q 5.609375 61.28125 11.65625 66.578125 
Q 17.71875 71.875 27.9375 71.875 
Q 38.234375 71.875 44.234375 66.15625 
Q 50.25 60.453125 50.25 52 
Q 50.25 47.703125 48.484375 43.546875 
Q 46.734375 39.40625 42.65625 34.8125 
Q 38.578125 30.21875 29.109375 22.21875 
Q 21.1875 15.578125 18.9375 13.203125 
Q 16.703125 10.84375 15.234375 8.453125 
z
" id="ArialMT-50"/>
      </defs>
      <g style="fill:#262626;" transform="translate(853.063726 174.873594)scale(0.11 -0.11)">
       <use xlink:href="#ArialMT-48"/>
       <use x="55.615234" xlink:href="#ArialMT-46"/>
       <use x="83.398438" xlink:href="#ArialMT-50"/>
       <use x="139.013672" xlink:href="#ArialMT-53"/>
      </g>
     </g>
    </g>
    <g id="xtick_3">
     <g id="line2d_3">
      <path clip-path="url(#p34e7aa6e7f)" d="M 899.844828 157.5 
L 899.844828 21.6 
" style="fill:none;stroke:#ffffff;stroke-linecap:round;"/>
     </g>
     <g id="text_7">
      <!-- 0.50 -->
      <g style="fill:#262626;" transform="translate(889.141312 174.873594)scale(0.11 -0.11)">
       <use xlink:href="#ArialMT-48"/>
       <use x="55.615234" xlink:href="#ArialMT-46"/>
       <use x="83.398438" xlink:href="#ArialMT-53"/>
       <use x="139.013672" xlink:href="#ArialMT-48"/>
      </g>
     </g>
    </g>
    <g id="xtick_4">
     <g id="line2d_4">
      <path clip-path="url(#p34e7aa6e7f)" d="M 935.922414 157.5 
L 935.922414 21.6 
" style="fill:none;stroke:#ffffff;stroke-linecap:round;"/>
     </g>
     <g id="text_8">
      <!-- 0.75 -->
      <g style="fill:#262626;" transform="translate(925.218898 174.873594)scale(0.11 -0.11)">
       <use xlink:href="#ArialMT-48"/>
       <use x="55.615234" xlink:href="#ArialMT-46"/>
       <use x="83.398438" xlink:href="#ArialMT-55"/>
       <use x="139.013672" xlink:href="#ArialMT-53"/>
      </g>
     </g>
    </g>
    <g id="xtick_5">
     <g id="line2d_5">
      <path clip-path="url(#p34e7aa6e7f)" d="M 972 157.5 
L 972 21.6 
" style="fill:none;stroke:#ffffff;stroke-linecap:round;"/>
     </g>
     <g id="text_9">
      <!-- 1.00 -->
      <g style="fill:#262626;" transform="translate(961.296484 174.873594)scale(0.11 -0.11)">
       <use xlink:href="#ArialMT-49"/>
       <use x="55.615234" xlink:href="#ArialMT-46"/>
       <use x="83.398438" xlink:href="#ArialMT-48"/>
       <use x="139.013672" xlink:href="#ArialMT-48"/>
      </g>
     </g>
    </g>
   </g>
   <g id="matplotlib.axis_2">
    <g id="ytick_1">
     <g id="line2d_6">
      <path clip-path="url(#p34e7aa6e7f)" d="M 827.689655 157.5 
L 972 157.5 
" style="fill:none;stroke:#ffffff;stroke-linecap:round;"/>
     </g>
     <g id="text_10">
      <!-- 0.0 -->
      <g style="fill:#262626;" transform="translate(802.899655 161.436797)scale(0.11 -0.11)">
       <use xlink:href="#ArialMT-48"/>
       <use x="55.615234" xlink:href="#ArialMT-46"/>
       <use x="83.398438" xlink:href="#ArialMT-48"/>
      </g>
     </g>
    </g>
    <g id="ytick_2">
     <g id="line2d_7">
      <path clip-path="url(#p34e7aa6e7f)" d="M 827.689655 130.32 
L 972 130.32 
" style="fill:none;stroke:#ffffff;stroke-linecap:round;"/>
     </g>
     <g id="text_11">
      <!-- 0.2 -->
      <g style="fill:#262626;" transform="translate(802.899655 134.256797)scale(0.11 -0.11)">
       <use xlink:href="#ArialMT-48"/>
       <use x="55.615234" xlink:href="#ArialMT-46"/>
       <use x="83.398438" xlink:href="#ArialMT-50"/>
      </g>
     </g>
    </g>
    <g id="ytick_3">
     <g id="line2d_8">
      <path clip-path="url(#p34e7aa6e7f)" d="M 827.689655 103.14 
L 972 103.14 
" style="fill:none;stroke:#ffffff;stroke-linecap:round;"/>
     </g>
     <g id="text_12">
      <!-- 0.4 -->
      <g style="fill:#262626;" transform="translate(802.899655 107.076797)scale(0.11 -0.11)">
       <use xlink:href="#ArialMT-48"/>
       <use x="55.615234" xlink:href="#ArialMT-46"/>
       <use x="83.398438" xlink:href="#ArialMT-52"/>
      </g>
     </g>
    </g>
    <g id="ytick_4">
     <g id="line2d_9">
      <path clip-path="url(#p34e7aa6e7f)" d="M 827.689655 75.96 
L 972 75.96 
" style="fill:none;stroke:#ffffff;stroke-linecap:round;"/>
     </g>
     <g id="text_13">
      <!-- 0.6 -->
      <g style="fill:#262626;" transform="translate(802.899655 79.896797)scale(0.11 -0.11)">
       <use xlink:href="#ArialMT-48"/>
       <use x="55.615234" xlink:href="#ArialMT-46"/>
       <use x="83.398438" xlink:href="#ArialMT-54"/>
      </g>
     </g>
    </g>
    <g id="ytick_5">
     <g id="line2d_10">
      <path clip-path="url(#p34e7aa6e7f)" d="M 827.689655 48.78 
L 972 48.78 
" style="fill:none;stroke:#ffffff;stroke-linecap:round;"/>
     </g>
     <g id="text_14">
      <!-- 0.8 -->
      <g style="fill:#262626;" transform="translate(802.899655 52.716797)scale(0.11 -0.11)">
       <use xlink:href="#ArialMT-48"/>
       <use x="55.615234" xlink:href="#ArialMT-46"/>
       <use x="83.398438" xlink:href="#ArialMT-56"/>
      </g>
     </g>
    </g>
    <g id="ytick_6">
     <g id="line2d_11">
      <path clip-path="url(#p34e7aa6e7f)" d="M 827.689655 21.6 
L 972 21.6 
" style="fill:none;stroke:#ffffff;stroke-linecap:round;"/>
     </g>
     <g id="text_15">
      <!-- 1.0 -->
      <g style="fill:#262626;" transform="translate(802.899655 25.536797)scale(0.11 -0.11)">
       <use xlink:href="#ArialMT-49"/>
       <use x="55.615234" xlink:href="#ArialMT-46"/>
       <use x="83.398438" xlink:href="#ArialMT-48"/>
      </g>
     </g>
    </g>
   </g>
   <g id="patch_95">
    <path d="M 827.689655 157.5 
L 827.689655 21.6 
" style="fill:none;stroke:#ffffff;stroke-linecap:square;stroke-linejoin:miter;stroke-width:1.25;"/>
   </g>
   <g id="patch_96">
    <path d="M 972 157.5 
L 972 21.6 
" style="fill:none;stroke:#ffffff;stroke-linecap:square;stroke-linejoin:miter;stroke-width:1.25;"/>
   </g>
   <g id="patch_97">
    <path d="M 827.689655 157.5 
L 972 157.5 
" style="fill:none;stroke:#ffffff;stroke-linecap:square;stroke-linejoin:miter;stroke-width:1.25;"/>
   </g>
   <g id="patch_98">
    <path d="M 827.689655 21.6 
L 972 21.6 
" style="fill:none;stroke:#ffffff;stroke-linecap:square;stroke-linejoin:miter;stroke-width:1.25;"/>
   </g>
   <g id="text_16">
    <!-- 5 -->
    <g style="fill:#262626;" transform="translate(896.508265 15.6)scale(0.12 -0.12)">
     <use xlink:href="#ArialMT-53"/>
    </g>
   </g>
  </g>
 </g>
 <defs>
  <clipPath id="pee7ac7cb1a">
   <rect height="135.9" width="144.310345" x="135" y="21.6"/>
  </clipPath>
  <clipPath id="p711caa8645">
   <rect height="135.9" width="144.310345" x="308.172414" y="21.6"/>
  </clipPath>
  <clipPath id="pf3e938a299">
   <rect height="135.9" width="144.310345" x="481.344828" y="21.6"/>
  </clipPath>
  <clipPath id="p8067d14ce8">
   <rect height="135.9" width="144.310345" x="654.517241" y="21.6"/>
  </clipPath>
  <clipPath id="p34e7aa6e7f">
   <rect height="135.9" width="144.310345" x="827.689655" y="21.6"/>
  </clipPath>
 </defs>
</svg>
