<?xml version="1.0" encoding="utf-8" standalone="no"?>
<!DOCTYPE svg PUBLIC "-//W3C//DTD SVG 1.1//EN"
  "http://www.w3.org/Graphics/SVG/1.1/DTD/svg11.dtd">
<!-- Created with matplotlib (https://matplotlib.org/) -->
<svg height="180pt" version="1.1" viewBox="0 0 1080 180" width="1080pt" xmlns="http://www.w3.org/2000/svg" xmlns:xlink="http://www.w3.org/1999/xlink">
 <defs>
  <style type="text/css">
*{stroke-linecap:butt;stroke-linejoin:round;}
  </style>
 </defs>
 <g id="figure_1">
  <g id="patch_1">
   <path d="M 0 180 
L 1080 180 
L 1080 0 
L 0 0 
z
" style="fill:#ffffff;"/>
  </g>
  <g id="axes_1">
   <g id="patch_2">
    <path d="M 135 157.5 
L 279.310345 157.5 
L 279.310345 21.6 
L 135 21.6 
z
" style="fill:#ffffff;"/>
   </g>
   <g id="patch_3">
    <path clip-path="url(#p38e97be62f)" d="M 218.793103 95.119672 
L 207.155172 106.259016 
" style="stroke:#000000;stroke-linejoin:miter;stroke-width:0.5;"/>
   </g>
   <g id="patch_4">
    <path clip-path="url(#p38e97be62f)" d="M 195.517241 95.119672 
L 183.87931 95.119672 
" style="stroke:#000000;stroke-linejoin:miter;stroke-width:0.5;"/>
   </g>
   <g id="patch_5">
    <path clip-path="url(#p38e97be62f)" d="M 207.155172 83.980328 
L 195.517241 95.119672 
" style="stroke:#000000;stroke-linejoin:miter;stroke-width:0.5;"/>
   </g>
   <g id="patch_6">
    <path clip-path="url(#p38e97be62f)" d="M 183.87931 72.840984 
L 172.241379 72.840984 
" style="stroke:#000000;stroke-linejoin:miter;stroke-width:0.5;"/>
   </g>
   <g id="patch_7">
    <path clip-path="url(#p38e97be62f)" d="M 195.517241 72.840984 
L 183.87931 72.840984 
" style="stroke:#000000;stroke-linejoin:miter;stroke-width:0.5;"/>
   </g>
   <g id="patch_8">
    <path clip-path="url(#p38e97be62f)" d="M 207.155172 83.980328 
L 195.517241 72.840984 
" style="stroke:#000000;stroke-linejoin:miter;stroke-width:0.5;"/>
   </g>
   <g id="patch_9">
    <path clip-path="url(#p38e97be62f)" d="M 218.793103 95.119672 
L 207.155172 83.980328 
" style="stroke:#000000;stroke-linejoin:miter;stroke-width:0.5;"/>
   </g>
   <g id="patch_10">
    <path clip-path="url(#p38e97be62f)" d="M 230.431034 95.119672 
L 218.793103 95.119672 
" style="stroke:#000000;stroke-linejoin:miter;stroke-width:0.5;"/>
   </g>
   <g id="patch_11">
    <path clip-path="url(#p38e97be62f)" d="M 242.068966 95.119672 
L 230.431034 95.119672 
" style="stroke:#000000;stroke-linejoin:miter;stroke-width:0.5;"/>
   </g>
   <g id="patch_12">
    <path clip-path="url(#p38e97be62f)" d="M 242.068966 95.119672 
L 242.068966 83.980328 
" style="stroke:#000000;stroke-linejoin:miter;stroke-width:0.5;"/>
   </g>
   <g id="9fbbd952459f4080986372424f74be69-1-node">
    <path clip-path="url(#p38e97be62f)" d="M 243.931034 91.555082 
L 243.931034 98.684262 
L 240.206897 98.684262 
L 240.206897 91.555082 
L 243.931034 91.555082 
z
" style="fill:#0000ff;stroke:#ffffff;stroke-linejoin:miter;stroke-width:0.5;"/>
   </g>
   <g id="9fbbd952459f4080986372424f74be69-4-node">
    <path clip-path="url(#p38e97be62f)" d="M 232.293103 91.555082 
L 232.293103 98.684262 
L 228.568966 98.684262 
L 228.568966 91.555082 
L 232.293103 91.555082 
z
" style="fill:#0000ff;stroke:#ffffff;stroke-linejoin:miter;stroke-width:0.5;"/>
   </g>
   <g id="9fbbd952459f4080986372424f74be69-6-node">
    <path clip-path="url(#p38e97be62f)" d="M 218.793103 98.684262 
C 219.28693 98.684262 219.760597 98.308675 220.109785 97.640218 
C 220.458973 96.971761 220.655172 96.065012 220.655172 95.119672 
C 220.655172 94.174332 220.458973 93.267583 220.109785 92.599126 
C 219.760597 91.93067 219.28693 91.555082 218.793103 91.555082 
C 218.299277 91.555082 217.82561 91.93067 217.476422 92.599126 
C 217.127234 93.267583 216.931034 94.174332 216.931034 95.119672 
C 216.931034 96.065012 217.127234 96.971761 217.476422 97.640218 
C 217.82561 98.308675 218.299277 98.684262 218.793103 98.684262 
z
" style="fill:#00c832;stroke:#ffffff;stroke-linejoin:miter;stroke-width:0.5;"/>
   </g>
   <g id="9fbbd952459f4080986372424f74be69-16-node">
    <path clip-path="url(#p38e97be62f)" d="M 207.155172 109.823607 
C 207.648999 109.823607 208.122666 109.448019 208.471854 108.779562 
C 208.821042 108.111106 209.017241 107.204357 209.017241 106.259016 
C 209.017241 105.313676 208.821042 104.406927 208.471854 103.738471 
C 208.122666 103.070014 207.648999 102.694426 207.155172 102.694426 
C 206.661346 102.694426 206.187679 103.070014 205.838491 103.738471 
C 205.489303 104.406927 205.293103 105.313676 205.293103 106.259016 
C 205.293103 107.204357 205.489303 108.111106 205.838491 108.779562 
C 206.187679 109.448019 206.661346 109.823607 207.155172 109.823607 
z
" style="fill:#00c832;stroke:#ffffff;stroke-linejoin:miter;stroke-width:0.5;"/>
   </g>
   <g id="9fbbd952459f4080986372424f74be69-7-node">
    <path clip-path="url(#p38e97be62f)" d="M 207.155172 87.544918 
C 207.648999 87.544918 208.122666 87.16933 208.471854 86.500874 
C 208.821042 85.832417 209.017241 84.925668 209.017241 83.980328 
C 209.017241 83.034988 208.821042 82.128239 208.471854 81.459782 
C 208.122666 80.791325 207.648999 80.415738 207.155172 80.415738 
C 206.661346 80.415738 206.187679 80.791325 205.838491 81.459782 
C 205.489303 82.128239 205.293103 83.034988 205.293103 83.980328 
C 205.293103 84.925668 205.489303 85.832417 205.838491 86.500874 
C 206.187679 87.16933 206.661346 87.544918 207.155172 87.544918 
z
" style="fill:#00c832;stroke:#ffffff;stroke-linejoin:miter;stroke-width:0.5;"/>
   </g>
   <g id="9fbbd952459f4080986372424f74be69-13-node">
    <path clip-path="url(#p38e97be62f)" d="M 197.37931 91.555082 
L 197.37931 98.684262 
L 193.655172 98.684262 
L 193.655172 91.555082 
L 197.37931 91.555082 
z
" style="fill:#0000ff;stroke:#ffffff;stroke-linejoin:miter;stroke-width:0.5;"/>
   </g>
   <g id="9fbbd952459f4080986372424f74be69-15-node">
    <path clip-path="url(#p38e97be62f)" d="M 183.87931 98.684262 
C 184.373137 98.684262 184.846804 98.308675 185.195992 97.640218 
C 185.54518 96.971761 185.741379 96.065012 185.741379 95.119672 
C 185.741379 94.174332 185.54518 93.267583 185.195992 92.599126 
C 184.846804 91.93067 184.373137 91.555082 183.87931 91.555082 
C 183.385484 91.555082 182.911817 91.93067 182.562629 92.599126 
C 182.213441 93.267583 182.017241 94.174332 182.017241 95.119672 
C 182.017241 96.065012 182.213441 96.971761 182.562629 97.640218 
C 182.911817 98.308675 183.385484 98.684262 183.87931 98.684262 
z
" style="fill:#ffff00;stroke:#ffffff;stroke-linejoin:miter;stroke-width:0.5;"/>
   </g>
   <g id="9fbbd952459f4080986372424f74be69-8-node">
    <path clip-path="url(#p38e97be62f)" d="M 197.37931 69.276393 
L 197.37931 76.405574 
L 193.655172 76.405574 
L 193.655172 69.276393 
L 197.37931 69.276393 
z
" style="fill:#0000ff;stroke:#ffffff;stroke-linejoin:miter;stroke-width:0.5;"/>
   </g>
   <g id="9fbbd952459f4080986372424f74be69-10-node">
    <path clip-path="url(#p38e97be62f)" d="M 183.87931 76.405574 
C 184.373137 76.405574 184.846804 76.029986 185.195992 75.361529 
C 185.54518 74.693073 185.741379 73.786324 185.741379 72.840984 
C 185.741379 71.895643 185.54518 70.988894 185.195992 70.320438 
C 184.846804 69.651981 184.373137 69.276393 183.87931 69.276393 
C 183.385484 69.276393 182.911817 69.651981 182.562629 70.320438 
C 182.213441 70.988894 182.017241 71.895643 182.017241 72.840984 
C 182.017241 73.786324 182.213441 74.693073 182.562629 75.361529 
C 182.911817 76.029986 183.385484 76.405574 183.87931 76.405574 
z
" style="fill:#ffff00;stroke:#ffffff;stroke-linejoin:miter;stroke-width:0.5;"/>
   </g>
   <g id="9fbbd952459f4080986372424f74be69-11-node">
    <path clip-path="url(#p38e97be62f)" d="M 174.103448 69.276393 
L 174.103448 76.405574 
L 170.37931 76.405574 
L 170.37931 69.276393 
L 174.103448 69.276393 
z
" style="fill:#0000ff;stroke:#ffffff;stroke-linejoin:miter;stroke-width:0.5;"/>
   </g>
   <g id="9fbbd952459f4080986372424f74be69-3-node">
    <path clip-path="url(#p38e97be62f)" d="M 242.068966 80.415738 
L 240.456366 85.762623 
L 243.681565 85.762623 
z
" style="fill:#ff0000;stroke:#ffffff;stroke-linejoin:miter;stroke-width:0.5;"/>
   </g>
   <g id="patch_13">
    <path d="M 135 157.5 
L 135 21.6 
" style="fill:none;stroke:#ffffff;stroke-linecap:square;stroke-linejoin:miter;stroke-width:1.25;"/>
   </g>
   <g id="patch_14">
    <path d="M 279.310345 157.5 
L 279.310345 21.6 
" style="fill:none;stroke:#ffffff;stroke-linecap:square;stroke-linejoin:miter;stroke-width:1.25;"/>
   </g>
   <g id="patch_15">
    <path d="M 135 157.5 
L 279.310345 157.5 
" style="fill:none;stroke:#ffffff;stroke-linecap:square;stroke-linejoin:miter;stroke-width:1.25;"/>
   </g>
   <g id="patch_16">
    <path d="M 135 21.6 
L 279.310345 21.6 
" style="fill:none;stroke:#ffffff;stroke-linecap:square;stroke-linejoin:miter;stroke-width:1.25;"/>
   </g>
   <g id="text_1">
    <!-- 440:2.0 -->
    <defs>
     <path d="M 32.328125 0 
L 32.328125 17.140625 
L 1.265625 17.140625 
L 1.265625 25.203125 
L 33.9375 71.578125 
L 41.109375 71.578125 
L 41.109375 25.203125 
L 50.78125 25.203125 
L 50.78125 17.140625 
L 41.109375 17.140625 
L 41.109375 0 
z
M 32.328125 25.203125 
L 32.328125 57.46875 
L 9.90625 25.203125 
z
" id="ArialMT-52"/>
     <path d="M 4.15625 35.296875 
Q 4.15625 48 6.765625 55.734375 
Q 9.375 63.484375 14.515625 67.671875 
Q 19.671875 71.875 27.484375 71.875 
Q 33.25 71.875 37.59375 69.546875 
Q 41.9375 67.234375 44.765625 62.859375 
Q 47.609375 58.5 49.21875 52.21875 
Q 50.828125 45.953125 50.828125 35.296875 
Q 50.828125 22.703125 48.234375 14.96875 
Q 45.65625 7.234375 40.5 3 
Q 35.359375 -1.21875 27.484375 -1.21875 
Q 17.140625 -1.21875 11.234375 6.203125 
Q 4.15625 15.140625 4.15625 35.296875 
z
M 13.1875 35.296875 
Q 13.1875 17.671875 17.3125 11.828125 
Q 21.4375 6 27.484375 6 
Q 33.546875 6 37.671875 11.859375 
Q 41.796875 17.71875 41.796875 35.296875 
Q 41.796875 52.984375 37.671875 58.78125 
Q 33.546875 64.59375 27.390625 64.59375 
Q 21.34375 64.59375 17.71875 59.46875 
Q 13.1875 52.9375 13.1875 35.296875 
z
" id="ArialMT-48"/>
     <path d="M 9.03125 41.84375 
L 9.03125 51.859375 
L 19.046875 51.859375 
L 19.046875 41.84375 
z
M 9.03125 0 
L 9.03125 10.015625 
L 19.046875 10.015625 
L 19.046875 0 
z
" id="ArialMT-58"/>
     <path d="M 50.34375 8.453125 
L 50.34375 0 
L 3.03125 0 
Q 2.9375 3.171875 4.046875 6.109375 
Q 5.859375 10.9375 9.828125 15.625 
Q 13.8125 20.3125 21.34375 26.46875 
Q 33.015625 36.03125 37.109375 41.625 
Q 41.21875 47.21875 41.21875 52.203125 
Q 41.21875 57.421875 37.46875 61 
Q 33.734375 64.59375 27.734375 64.59375 
Q 21.390625 64.59375 17.578125 60.78125 
Q 13.765625 56.984375 13.71875 50.25 
L 4.6875 51.171875 
Q 5.609375 61.28125 11.65625 66.578125 
Q 17.71875 71.875 27.9375 71.875 
Q 38.234375 71.875 44.234375 66.15625 
Q 50.25 60.453125 50.25 52 
Q 50.25 47.703125 48.484375 43.546875 
Q 46.734375 39.40625 42.65625 34.8125 
Q 38.578125 30.21875 29.109375 22.21875 
Q 21.1875 15.578125 18.9375 13.203125 
Q 16.703125 10.84375 15.234375 8.453125 
z
" id="ArialMT-50"/>
     <path d="M 9.078125 0 
L 9.078125 10.015625 
L 19.09375 10.015625 
L 19.09375 0 
z
" id="ArialMT-46"/>
    </defs>
    <g style="fill:#262626;" transform="translate(187.13861 15.6)scale(0.12 -0.12)">
     <use xlink:href="#ArialMT-52"/>
     <use x="55.615234" xlink:href="#ArialMT-52"/>
     <use x="111.230469" xlink:href="#ArialMT-48"/>
     <use x="166.845703" xlink:href="#ArialMT-58"/>
     <use x="194.628906" xlink:href="#ArialMT-50"/>
     <use x="250.244141" xlink:href="#ArialMT-46"/>
     <use x="278.027344" xlink:href="#ArialMT-48"/>
    </g>
   </g>
  </g>
  <g id="axes_2">
   <g id="patch_17">
    <path d="M 308.172414 157.5 
L 452.482759 157.5 
L 452.482759 21.6 
L 308.172414 21.6 
z
" style="fill:#ffffff;"/>
   </g>
   <g id="patch_18">
    <path clip-path="url(#p01e88a84c5)" d="M 396.013493 95.119672 
L 385.556222 106.259016 
" style="stroke:#000000;stroke-linejoin:miter;stroke-width:0.5;"/>
   </g>
   <g id="patch_19">
    <path clip-path="url(#p01e88a84c5)" d="M 375.098951 95.119672 
L 364.641679 95.119672 
" style="stroke:#000000;stroke-linejoin:miter;stroke-width:0.5;"/>
   </g>
   <g id="patch_20">
    <path clip-path="url(#p01e88a84c5)" d="M 385.556222 83.980328 
L 375.098951 95.119672 
" style="stroke:#000000;stroke-linejoin:miter;stroke-width:0.5;"/>
   </g>
   <g id="patch_21">
    <path clip-path="url(#p01e88a84c5)" d="M 354.184408 72.840984 
L 343.727136 72.840984 
" style="stroke:#000000;stroke-linejoin:miter;stroke-width:0.5;"/>
   </g>
   <g id="patch_22">
    <path clip-path="url(#p01e88a84c5)" d="M 364.641679 72.840984 
L 354.184408 72.840984 
" style="stroke:#000000;stroke-linejoin:miter;stroke-width:0.5;"/>
   </g>
   <g id="patch_23">
    <path clip-path="url(#p01e88a84c5)" d="M 375.098951 72.840984 
L 364.641679 72.840984 
" style="stroke:#000000;stroke-linejoin:miter;stroke-width:0.5;"/>
   </g>
   <g id="patch_24">
    <path clip-path="url(#p01e88a84c5)" d="M 385.556222 83.980328 
L 375.098951 72.840984 
" style="stroke:#000000;stroke-linejoin:miter;stroke-width:0.5;"/>
   </g>
   <g id="patch_25">
    <path clip-path="url(#p01e88a84c5)" d="M 396.013493 95.119672 
L 385.556222 83.980328 
" style="stroke:#000000;stroke-linejoin:miter;stroke-width:0.5;"/>
   </g>
   <g id="patch_26">
    <path clip-path="url(#p01e88a84c5)" d="M 406.470765 95.119672 
L 396.013493 95.119672 
" style="stroke:#000000;stroke-linejoin:miter;stroke-width:0.5;"/>
   </g>
   <g id="patch_27">
    <path clip-path="url(#p01e88a84c5)" d="M 416.928036 95.119672 
L 406.470765 95.119672 
" style="stroke:#000000;stroke-linejoin:miter;stroke-width:0.5;"/>
   </g>
   <g id="patch_28">
    <path clip-path="url(#p01e88a84c5)" d="M 416.928036 95.119672 
L 416.928036 83.980328 
" style="stroke:#000000;stroke-linejoin:miter;stroke-width:0.5;"/>
   </g>
   <g id="ab8f8de05d5642e58f20032e64a47aab-1-node">
    <path clip-path="url(#p01e88a84c5)" d="M 418.601199 91.555082 
L 418.601199 98.684262 
L 415.254873 98.684262 
L 415.254873 91.555082 
L 418.601199 91.555082 
z
" style="fill:#0000ff;stroke:#ffffff;stroke-linejoin:miter;stroke-width:0.5;"/>
   </g>
   <g id="ab8f8de05d5642e58f20032e64a47aab-4-node">
    <path clip-path="url(#p01e88a84c5)" d="M 408.143928 91.555082 
L 408.143928 98.684262 
L 404.797601 98.684262 
L 404.797601 91.555082 
L 408.143928 91.555082 
z
" style="fill:#0000ff;stroke:#ffffff;stroke-linejoin:miter;stroke-width:0.5;"/>
   </g>
   <g id="ab8f8de05d5642e58f20032e64a47aab-6-node">
    <path clip-path="url(#p01e88a84c5)" d="M 396.013493 98.684262 
C 396.457221 98.684262 396.882835 98.308675 397.196598 97.640218 
C 397.510362 96.971761 397.686657 96.065012 397.686657 95.119672 
C 397.686657 94.174332 397.510362 93.267583 397.196598 92.599126 
C 396.882835 91.93067 396.457221 91.555082 396.013493 91.555082 
C 395.569765 91.555082 395.144151 91.93067 394.830388 92.599126 
C 394.516625 93.267583 394.34033 94.174332 394.34033 95.119672 
C 394.34033 96.065012 394.516625 96.971761 394.830388 97.640218 
C 395.144151 98.308675 395.569765 98.684262 396.013493 98.684262 
z
" style="fill:#00c832;stroke:#ffffff;stroke-linejoin:miter;stroke-width:0.5;"/>
   </g>
   <g id="ab8f8de05d5642e58f20032e64a47aab-17-node">
    <path clip-path="url(#p01e88a84c5)" d="M 385.556222 109.823607 
C 385.99995 109.823607 386.425564 109.448019 386.739327 108.779562 
C 387.05309 108.111106 387.229385 107.204357 387.229385 106.259016 
C 387.229385 105.313676 387.05309 104.406927 386.739327 103.738471 
C 386.425564 103.070014 385.99995 102.694426 385.556222 102.694426 
C 385.112494 102.694426 384.68688 103.070014 384.373117 103.738471 
C 384.059354 104.406927 383.883058 105.313676 383.883058 106.259016 
C 383.883058 107.204357 384.059354 108.111106 384.373117 108.779562 
C 384.68688 109.448019 385.112494 109.823607 385.556222 109.823607 
z
" style="fill:#00c832;stroke:#ffffff;stroke-linejoin:miter;stroke-width:0.5;"/>
   </g>
   <g id="ab8f8de05d5642e58f20032e64a47aab-7-node">
    <path clip-path="url(#p01e88a84c5)" d="M 385.556222 87.544918 
C 385.99995 87.544918 386.425564 87.16933 386.739327 86.500874 
C 387.05309 85.832417 387.229385 84.925668 387.229385 83.980328 
C 387.229385 83.034988 387.05309 82.128239 386.739327 81.459782 
C 386.425564 80.791325 385.99995 80.415738 385.556222 80.415738 
C 385.112494 80.415738 384.68688 80.791325 384.373117 81.459782 
C 384.059354 82.128239 383.883058 83.034988 383.883058 83.980328 
C 383.883058 84.925668 384.059354 85.832417 384.373117 86.500874 
C 384.68688 87.16933 385.112494 87.544918 385.556222 87.544918 
z
" style="fill:#00c832;stroke:#ffffff;stroke-linejoin:miter;stroke-width:0.5;"/>
   </g>
   <g id="ab8f8de05d5642e58f20032e64a47aab-14-node">
    <path clip-path="url(#p01e88a84c5)" d="M 376.772114 91.555082 
L 376.772114 98.684262 
L 373.425787 98.684262 
L 373.425787 91.555082 
L 376.772114 91.555082 
z
" style="fill:#0000ff;stroke:#ffffff;stroke-linejoin:miter;stroke-width:0.5;"/>
   </g>
   <g id="ab8f8de05d5642e58f20032e64a47aab-16-node">
    <path clip-path="url(#p01e88a84c5)" d="M 364.641679 98.684262 
C 365.085407 98.684262 365.511021 98.308675 365.824784 97.640218 
C 366.138548 96.971761 366.314843 96.065012 366.314843 95.119672 
C 366.314843 94.174332 366.138548 93.267583 365.824784 92.599126 
C 365.511021 91.93067 365.085407 91.555082 364.641679 91.555082 
C 364.197951 91.555082 363.772337 91.93067 363.458574 92.599126 
C 363.144811 93.267583 362.968516 94.174332 362.968516 95.119672 
C 362.968516 96.065012 363.144811 96.971761 363.458574 97.640218 
C 363.772337 98.308675 364.197951 98.684262 364.641679 98.684262 
z
" style="fill:#ffff00;stroke:#ffffff;stroke-linejoin:miter;stroke-width:0.5;"/>
   </g>
   <g id="ab8f8de05d5642e58f20032e64a47aab-8-node">
    <path clip-path="url(#p01e88a84c5)" d="M 376.772114 69.276393 
L 376.772114 76.405574 
L 373.425787 76.405574 
L 373.425787 69.276393 
L 376.772114 69.276393 
z
" style="fill:#0000ff;stroke:#ffffff;stroke-linejoin:miter;stroke-width:0.5;"/>
   </g>
   <g id="ab8f8de05d5642e58f20032e64a47aab-10-node">
    <path clip-path="url(#p01e88a84c5)" d="M 364.641679 76.405574 
C 365.085407 76.405574 365.511021 76.029986 365.824784 75.361529 
C 366.138548 74.693073 366.314843 73.786324 366.314843 72.840984 
C 366.314843 71.895643 366.138548 70.988894 365.824784 70.320438 
C 365.511021 69.651981 365.085407 69.276393 364.641679 69.276393 
C 364.197951 69.276393 363.772337 69.651981 363.458574 70.320438 
C 363.144811 70.988894 362.968516 71.895643 362.968516 72.840984 
C 362.968516 73.786324 363.144811 74.693073 363.458574 75.361529 
C 363.772337 76.029986 364.197951 76.405574 364.641679 76.405574 
z
" style="fill:#ffff00;stroke:#ffffff;stroke-linejoin:miter;stroke-width:0.5;"/>
   </g>
   <g id="ab8f8de05d5642e58f20032e64a47aab-11-node">
    <path clip-path="url(#p01e88a84c5)" d="M 355.857571 69.276393 
L 355.857571 76.405574 
L 352.511244 76.405574 
L 352.511244 69.276393 
L 355.857571 69.276393 
z
" style="fill:#0000ff;stroke:#ffffff;stroke-linejoin:miter;stroke-width:0.5;"/>
   </g>
   <g id="ab8f8de05d5642e58f20032e64a47aab-13-node">
    <path clip-path="url(#p01e88a84c5)" d="M 343.727136 76.405574 
C 344.170865 76.405574 344.596478 76.029986 344.910242 75.361529 
C 345.224005 74.693073 345.4003 73.786324 345.4003 72.840984 
C 345.4003 71.895643 345.224005 70.988894 344.910242 70.320438 
C 344.596478 69.651981 344.170865 69.276393 343.727136 69.276393 
C 343.283408 69.276393 342.857794 69.651981 342.544031 70.320438 
C 342.230268 70.988894 342.053973 71.895643 342.053973 72.840984 
C 342.053973 73.786324 342.230268 74.693073 342.544031 75.361529 
C 342.857794 76.029986 343.283408 76.405574 343.727136 76.405574 
z
" style="fill:#ffff00;stroke:#ffffff;stroke-linejoin:miter;stroke-width:0.5;"/>
   </g>
   <g id="ab8f8de05d5642e58f20032e64a47aab-3-node">
    <path clip-path="url(#p01e88a84c5)" d="M 416.928036 80.415738 
L 415.479034 85.762623 
L 418.377038 85.762623 
z
" style="fill:#ff0000;stroke:#ffffff;stroke-linejoin:miter;stroke-width:0.5;"/>
   </g>
   <g id="patch_29">
    <path d="M 308.172414 157.5 
L 308.172414 21.6 
" style="fill:none;stroke:#ffffff;stroke-linecap:square;stroke-linejoin:miter;stroke-width:1.25;"/>
   </g>
   <g id="patch_30">
    <path d="M 452.482759 157.5 
L 452.482759 21.6 
" style="fill:none;stroke:#ffffff;stroke-linecap:square;stroke-linejoin:miter;stroke-width:1.25;"/>
   </g>
   <g id="patch_31">
    <path d="M 308.172414 157.5 
L 452.482759 157.5 
" style="fill:none;stroke:#ffffff;stroke-linecap:square;stroke-linejoin:miter;stroke-width:1.25;"/>
   </g>
   <g id="patch_32">
    <path d="M 308.172414 21.6 
L 452.482759 21.6 
" style="fill:none;stroke:#ffffff;stroke-linecap:square;stroke-linejoin:miter;stroke-width:1.25;"/>
   </g>
   <g id="text_2">
    <!-- 641:2.0 -->
    <defs>
     <path d="M 49.75 54.046875 
L 41.015625 53.375 
Q 39.84375 58.546875 37.703125 60.890625 
Q 34.125 64.65625 28.90625 64.65625 
Q 24.703125 64.65625 21.53125 62.3125 
Q 17.390625 59.28125 14.984375 53.46875 
Q 12.59375 47.65625 12.5 36.921875 
Q 15.671875 41.75 20.265625 44.09375 
Q 24.859375 46.4375 29.890625 46.4375 
Q 38.671875 46.4375 44.84375 39.96875 
Q 51.03125 33.5 51.03125 23.25 
Q 51.03125 16.5 48.125 10.71875 
Q 45.21875 4.9375 40.140625 1.859375 
Q 35.0625 -1.21875 28.609375 -1.21875 
Q 17.625 -1.21875 10.6875 6.859375 
Q 3.765625 14.9375 3.765625 33.5 
Q 3.765625 54.25 11.421875 63.671875 
Q 18.109375 71.875 29.4375 71.875 
Q 37.890625 71.875 43.28125 67.140625 
Q 48.6875 62.40625 49.75 54.046875 
z
M 13.875 23.1875 
Q 13.875 18.65625 15.796875 14.5 
Q 17.71875 10.359375 21.1875 8.171875 
Q 24.65625 6 28.46875 6 
Q 34.03125 6 38.03125 10.484375 
Q 42.046875 14.984375 42.046875 22.703125 
Q 42.046875 30.125 38.078125 34.390625 
Q 34.125 38.671875 28.125 38.671875 
Q 22.171875 38.671875 18.015625 34.390625 
Q 13.875 30.125 13.875 23.1875 
z
" id="ArialMT-54"/>
     <path d="M 37.25 0 
L 28.46875 0 
L 28.46875 56 
Q 25.296875 52.984375 20.140625 49.953125 
Q 14.984375 46.921875 10.890625 45.40625 
L 10.890625 53.90625 
Q 18.265625 57.375 23.78125 62.296875 
Q 29.296875 67.234375 31.59375 71.875 
L 37.25 71.875 
z
" id="ArialMT-49"/>
    </defs>
    <g style="fill:#262626;" transform="translate(360.311024 15.6)scale(0.12 -0.12)">
     <use xlink:href="#ArialMT-54"/>
     <use x="55.615234" xlink:href="#ArialMT-52"/>
     <use x="111.230469" xlink:href="#ArialMT-49"/>
     <use x="166.845703" xlink:href="#ArialMT-58"/>
     <use x="194.628906" xlink:href="#ArialMT-50"/>
     <use x="250.244141" xlink:href="#ArialMT-46"/>
     <use x="278.027344" xlink:href="#ArialMT-48"/>
    </g>
   </g>
  </g>
  <g id="axes_3">
   <g id="patch_33">
    <path d="M 481.344828 157.5 
L 625.655172 157.5 
L 625.655172 21.6 
L 481.344828 21.6 
z
" style="fill:#ffffff;"/>
   </g>
   <g id="patch_34">
    <path clip-path="url(#pd67d3bf1bf)" d="M 569.185907 95.119672 
L 558.728636 106.259016 
" style="stroke:#000000;stroke-linejoin:miter;stroke-width:0.5;"/>
   </g>
   <g id="patch_35">
    <path clip-path="url(#pd67d3bf1bf)" d="M 537.814093 95.119672 
L 527.356822 95.119672 
" style="stroke:#000000;stroke-linejoin:miter;stroke-width:0.5;"/>
   </g>
   <g id="patch_36">
    <path clip-path="url(#pd67d3bf1bf)" d="M 548.271364 95.119672 
L 537.814093 95.119672 
" style="stroke:#000000;stroke-linejoin:miter;stroke-width:0.5;"/>
   </g>
   <g id="patch_37">
    <path clip-path="url(#pd67d3bf1bf)" d="M 558.728636 83.980328 
L 548.271364 95.119672 
" style="stroke:#000000;stroke-linejoin:miter;stroke-width:0.5;"/>
   </g>
   <g id="patch_38">
    <path clip-path="url(#pd67d3bf1bf)" d="M 527.356822 72.840984 
L 516.89955 72.840984 
" style="stroke:#000000;stroke-linejoin:miter;stroke-width:0.5;"/>
   </g>
   <g id="patch_39">
    <path clip-path="url(#pd67d3bf1bf)" d="M 537.814093 72.840984 
L 527.356822 72.840984 
" style="stroke:#000000;stroke-linejoin:miter;stroke-width:0.5;"/>
   </g>
   <g id="patch_40">
    <path clip-path="url(#pd67d3bf1bf)" d="M 548.271364 72.840984 
L 537.814093 72.840984 
" style="stroke:#000000;stroke-linejoin:miter;stroke-width:0.5;"/>
   </g>
   <g id="patch_41">
    <path clip-path="url(#pd67d3bf1bf)" d="M 558.728636 83.980328 
L 548.271364 72.840984 
" style="stroke:#000000;stroke-linejoin:miter;stroke-width:0.5;"/>
   </g>
   <g id="patch_42">
    <path clip-path="url(#pd67d3bf1bf)" d="M 569.185907 95.119672 
L 558.728636 83.980328 
" style="stroke:#000000;stroke-linejoin:miter;stroke-width:0.5;"/>
   </g>
   <g id="patch_43">
    <path clip-path="url(#pd67d3bf1bf)" d="M 579.643178 95.119672 
L 569.185907 95.119672 
" style="stroke:#000000;stroke-linejoin:miter;stroke-width:0.5;"/>
   </g>
   <g id="patch_44">
    <path clip-path="url(#pd67d3bf1bf)" d="M 590.10045 95.119672 
L 579.643178 95.119672 
" style="stroke:#000000;stroke-linejoin:miter;stroke-width:0.5;"/>
   </g>
   <g id="patch_45">
    <path clip-path="url(#pd67d3bf1bf)" d="M 590.10045 95.119672 
L 590.10045 83.980328 
" style="stroke:#000000;stroke-linejoin:miter;stroke-width:0.5;"/>
   </g>
   <g id="a2e1261832b24d20bb347dcb6b601378-1-node">
    <path clip-path="url(#pd67d3bf1bf)" d="M 591.773613 91.555082 
L 591.773613 98.684262 
L 588.427286 98.684262 
L 588.427286 91.555082 
L 591.773613 91.555082 
z
" style="fill:#0000ff;stroke:#ffffff;stroke-linejoin:miter;stroke-width:0.5;"/>
   </g>
   <g id="a2e1261832b24d20bb347dcb6b601378-4-node">
    <path clip-path="url(#pd67d3bf1bf)" d="M 581.316342 91.555082 
L 581.316342 98.684262 
L 577.970015 98.684262 
L 577.970015 91.555082 
L 581.316342 91.555082 
z
" style="fill:#0000ff;stroke:#ffffff;stroke-linejoin:miter;stroke-width:0.5;"/>
   </g>
   <g id="a2e1261832b24d20bb347dcb6b601378-6-node">
    <path clip-path="url(#pd67d3bf1bf)" d="M 569.185907 98.684262 
C 569.629635 98.684262 570.055249 98.308675 570.369012 97.640218 
C 570.682775 96.971761 570.85907 96.065012 570.85907 95.119672 
C 570.85907 94.174332 570.682775 93.267583 570.369012 92.599126 
C 570.055249 91.93067 569.629635 91.555082 569.185907 91.555082 
C 568.742179 91.555082 568.316565 91.93067 568.002802 92.599126 
C 567.689039 93.267583 567.512744 94.174332 567.512744 95.119672 
C 567.512744 96.065012 567.689039 96.971761 568.002802 97.640218 
C 568.316565 98.308675 568.742179 98.684262 569.185907 98.684262 
z
" style="fill:#00c832;stroke:#ffffff;stroke-linejoin:miter;stroke-width:0.5;"/>
   </g>
   <g id="a2e1261832b24d20bb347dcb6b601378-19-node">
    <path clip-path="url(#pd67d3bf1bf)" d="M 558.728636 109.823607 
C 559.172364 109.823607 559.597978 109.448019 559.911741 108.779562 
C 560.225504 108.111106 560.401799 107.204357 560.401799 106.259016 
C 560.401799 105.313676 560.225504 104.406927 559.911741 103.738471 
C 559.597978 103.070014 559.172364 102.694426 558.728636 102.694426 
C 558.284908 102.694426 557.859294 103.070014 557.54553 103.738471 
C 557.231767 104.406927 557.055472 105.313676 557.055472 106.259016 
C 557.055472 107.204357 557.231767 108.111106 557.54553 108.779562 
C 557.859294 109.448019 558.284908 109.823607 558.728636 109.823607 
z
" style="fill:#00c832;stroke:#ffffff;stroke-linejoin:miter;stroke-width:0.5;"/>
   </g>
   <g id="a2e1261832b24d20bb347dcb6b601378-7-node">
    <path clip-path="url(#pd67d3bf1bf)" d="M 558.728636 87.544918 
C 559.172364 87.544918 559.597978 87.16933 559.911741 86.500874 
C 560.225504 85.832417 560.401799 84.925668 560.401799 83.980328 
C 560.401799 83.034988 560.225504 82.128239 559.911741 81.459782 
C 559.597978 80.791325 559.172364 80.415738 558.728636 80.415738 
C 558.284908 80.415738 557.859294 80.791325 557.54553 81.459782 
C 557.231767 82.128239 557.055472 83.034988 557.055472 83.980328 
C 557.055472 84.925668 557.231767 85.832417 557.54553 86.500874 
C 557.859294 87.16933 558.284908 87.544918 558.728636 87.544918 
z
" style="fill:#00c832;stroke:#ffffff;stroke-linejoin:miter;stroke-width:0.5;"/>
   </g>
   <g id="a2e1261832b24d20bb347dcb6b601378-14-node">
    <path clip-path="url(#pd67d3bf1bf)" d="M 549.944528 91.555082 
L 549.944528 98.684262 
L 546.598201 98.684262 
L 546.598201 91.555082 
L 549.944528 91.555082 
z
" style="fill:#0000ff;stroke:#ffffff;stroke-linejoin:miter;stroke-width:0.5;"/>
   </g>
   <g id="a2e1261832b24d20bb347dcb6b601378-16-node">
    <path clip-path="url(#pd67d3bf1bf)" d="M 537.814093 98.684262 
C 538.257821 98.684262 538.683435 98.308675 538.997198 97.640218 
C 539.310961 96.971761 539.487256 96.065012 539.487256 95.119672 
C 539.487256 94.174332 539.310961 93.267583 538.997198 92.599126 
C 538.683435 91.93067 538.257821 91.555082 537.814093 91.555082 
C 537.370365 91.555082 536.944751 91.93067 536.630988 92.599126 
C 536.317225 93.267583 536.14093 94.174332 536.14093 95.119672 
C 536.14093 96.065012 536.317225 96.971761 536.630988 97.640218 
C 536.944751 98.308675 537.370365 98.684262 537.814093 98.684262 
z
" style="fill:#ffff00;stroke:#ffffff;stroke-linejoin:miter;stroke-width:0.5;"/>
   </g>
   <g id="a2e1261832b24d20bb347dcb6b601378-17-node">
    <path clip-path="url(#pd67d3bf1bf)" d="M 527.356822 91.555082 
L 525.683658 95.119672 
L 527.356822 98.684262 
L 529.029985 95.119672 
z
" style="fill:#c800c8;stroke:#ffffff;stroke-linejoin:miter;stroke-width:0.5;"/>
   </g>
   <g id="a2e1261832b24d20bb347dcb6b601378-8-node">
    <path clip-path="url(#pd67d3bf1bf)" d="M 549.944528 69.276393 
L 549.944528 76.405574 
L 546.598201 76.405574 
L 546.598201 69.276393 
L 549.944528 69.276393 
z
" style="fill:#0000ff;stroke:#ffffff;stroke-linejoin:miter;stroke-width:0.5;"/>
   </g>
   <g id="a2e1261832b24d20bb347dcb6b601378-10-node">
    <path clip-path="url(#pd67d3bf1bf)" d="M 537.814093 76.405574 
C 538.257821 76.405574 538.683435 76.029986 538.997198 75.361529 
C 539.310961 74.693073 539.487256 73.786324 539.487256 72.840984 
C 539.487256 71.895643 539.310961 70.988894 538.997198 70.320438 
C 538.683435 69.651981 538.257821 69.276393 537.814093 69.276393 
C 537.370365 69.276393 536.944751 69.651981 536.630988 70.320438 
C 536.317225 70.988894 536.14093 71.895643 536.14093 72.840984 
C 536.14093 73.786324 536.317225 74.693073 536.630988 75.361529 
C 536.944751 76.029986 537.370365 76.405574 537.814093 76.405574 
z
" style="fill:#ffff00;stroke:#ffffff;stroke-linejoin:miter;stroke-width:0.5;"/>
   </g>
   <g id="a2e1261832b24d20bb347dcb6b601378-11-node">
    <path clip-path="url(#pd67d3bf1bf)" d="M 529.029985 69.276393 
L 529.029985 76.405574 
L 525.683658 76.405574 
L 525.683658 69.276393 
L 529.029985 69.276393 
z
" style="fill:#0000ff;stroke:#ffffff;stroke-linejoin:miter;stroke-width:0.5;"/>
   </g>
   <g id="a2e1261832b24d20bb347dcb6b601378-13-node">
    <path clip-path="url(#pd67d3bf1bf)" d="M 516.89955 76.405574 
C 517.343278 76.405574 517.768892 76.029986 518.082655 75.361529 
C 518.396419 74.693073 518.572714 73.786324 518.572714 72.840984 
C 518.572714 71.895643 518.396419 70.988894 518.082655 70.320438 
C 517.768892 69.651981 517.343278 69.276393 516.89955 69.276393 
C 516.455822 69.276393 516.030208 69.651981 515.716445 70.320438 
C 515.402682 70.988894 515.226387 71.895643 515.226387 72.840984 
C 515.226387 73.786324 515.402682 74.693073 515.716445 75.361529 
C 516.030208 76.029986 516.455822 76.405574 516.89955 76.405574 
z
" style="fill:#ffff00;stroke:#ffffff;stroke-linejoin:miter;stroke-width:0.5;"/>
   </g>
   <g id="a2e1261832b24d20bb347dcb6b601378-3-node">
    <path clip-path="url(#pd67d3bf1bf)" d="M 590.10045 80.415738 
L 588.651448 85.762623 
L 591.549452 85.762623 
z
" style="fill:#ff0000;stroke:#ffffff;stroke-linejoin:miter;stroke-width:0.5;"/>
   </g>
   <g id="patch_46">
    <path d="M 481.344828 157.5 
L 481.344828 21.6 
" style="fill:none;stroke:#ffffff;stroke-linecap:square;stroke-linejoin:miter;stroke-width:1.25;"/>
   </g>
   <g id="patch_47">
    <path d="M 625.655172 157.5 
L 625.655172 21.6 
" style="fill:none;stroke:#ffffff;stroke-linecap:square;stroke-linejoin:miter;stroke-width:1.25;"/>
   </g>
   <g id="patch_48">
    <path d="M 481.344828 157.5 
L 625.655172 157.5 
" style="fill:none;stroke:#ffffff;stroke-linecap:square;stroke-linejoin:miter;stroke-width:1.25;"/>
   </g>
   <g id="patch_49">
    <path d="M 481.344828 21.6 
L 625.655172 21.6 
" style="fill:none;stroke:#ffffff;stroke-linecap:square;stroke-linejoin:miter;stroke-width:1.25;"/>
   </g>
   <g id="text_3">
    <!-- 814:2.0 -->
    <defs>
     <path d="M 17.671875 38.8125 
Q 12.203125 40.828125 9.5625 44.53125 
Q 6.9375 48.25 6.9375 53.421875 
Q 6.9375 61.234375 12.546875 66.546875 
Q 18.171875 71.875 27.484375 71.875 
Q 36.859375 71.875 42.578125 66.421875 
Q 48.296875 60.984375 48.296875 53.171875 
Q 48.296875 48.1875 45.671875 44.5 
Q 43.0625 40.828125 37.75 38.8125 
Q 44.34375 36.671875 47.78125 31.875 
Q 51.21875 27.09375 51.21875 20.453125 
Q 51.21875 11.28125 44.71875 5.03125 
Q 38.234375 -1.21875 27.640625 -1.21875 
Q 17.046875 -1.21875 10.546875 5.046875 
Q 4.046875 11.328125 4.046875 20.703125 
Q 4.046875 27.6875 7.59375 32.390625 
Q 11.140625 37.109375 17.671875 38.8125 
z
M 15.921875 53.71875 
Q 15.921875 48.640625 19.1875 45.40625 
Q 22.46875 42.1875 27.6875 42.1875 
Q 32.765625 42.1875 36.015625 45.375 
Q 39.265625 48.578125 39.265625 53.21875 
Q 39.265625 58.0625 35.90625 61.359375 
Q 32.5625 64.65625 27.59375 64.65625 
Q 22.5625 64.65625 19.234375 61.421875 
Q 15.921875 58.203125 15.921875 53.71875 
z
M 13.09375 20.65625 
Q 13.09375 16.890625 14.875 13.375 
Q 16.65625 9.859375 20.171875 7.921875 
Q 23.6875 6 27.734375 6 
Q 34.03125 6 38.125 10.046875 
Q 42.234375 14.109375 42.234375 20.359375 
Q 42.234375 26.703125 38.015625 30.859375 
Q 33.796875 35.015625 27.4375 35.015625 
Q 21.234375 35.015625 17.15625 30.90625 
Q 13.09375 26.8125 13.09375 20.65625 
z
" id="ArialMT-56"/>
    </defs>
    <g style="fill:#262626;" transform="translate(533.483438 15.6)scale(0.12 -0.12)">
     <use xlink:href="#ArialMT-56"/>
     <use x="55.615234" xlink:href="#ArialMT-49"/>
     <use x="111.230469" xlink:href="#ArialMT-52"/>
     <use x="166.845703" xlink:href="#ArialMT-58"/>
     <use x="194.628906" xlink:href="#ArialMT-50"/>
     <use x="250.244141" xlink:href="#ArialMT-46"/>
     <use x="278.027344" xlink:href="#ArialMT-48"/>
    </g>
   </g>
  </g>
  <g id="axes_4">
   <g id="patch_50">
    <path d="M 654.517241 157.5 
L 798.827586 157.5 
L 798.827586 21.6 
L 654.517241 21.6 
z
" style="fill:#ffffff;"/>
   </g>
   <g id="patch_51">
    <path clip-path="url(#p3c621c2c40)" d="M 745.660617 95.119672 
L 736.166515 106.259016 
" style="stroke:#000000;stroke-linejoin:miter;stroke-width:0.5;"/>
   </g>
   <g id="patch_52">
    <path clip-path="url(#p3c621c2c40)" d="M 717.178312 95.119672 
L 707.684211 95.119672 
" style="stroke:#000000;stroke-linejoin:miter;stroke-width:0.5;"/>
   </g>
   <g id="patch_53">
    <path clip-path="url(#p3c621c2c40)" d="M 726.672414 95.119672 
L 717.178312 95.119672 
" style="stroke:#000000;stroke-linejoin:miter;stroke-width:0.5;"/>
   </g>
   <g id="patch_54">
    <path clip-path="url(#p3c621c2c40)" d="M 736.166515 83.980328 
L 726.672414 95.119672 
" style="stroke:#000000;stroke-linejoin:miter;stroke-width:0.5;"/>
   </g>
   <g id="patch_55">
    <path clip-path="url(#p3c621c2c40)" d="M 698.190109 72.840984 
L 688.696007 72.840984 
" style="stroke:#000000;stroke-linejoin:miter;stroke-width:0.5;"/>
   </g>
   <g id="patch_56">
    <path clip-path="url(#p3c621c2c40)" d="M 707.684211 72.840984 
L 698.190109 72.840984 
" style="stroke:#000000;stroke-linejoin:miter;stroke-width:0.5;"/>
   </g>
   <g id="patch_57">
    <path clip-path="url(#p3c621c2c40)" d="M 717.178312 72.840984 
L 707.684211 72.840984 
" style="stroke:#000000;stroke-linejoin:miter;stroke-width:0.5;"/>
   </g>
   <g id="patch_58">
    <path clip-path="url(#p3c621c2c40)" d="M 726.672414 72.840984 
L 717.178312 72.840984 
" style="stroke:#000000;stroke-linejoin:miter;stroke-width:0.5;"/>
   </g>
   <g id="patch_59">
    <path clip-path="url(#p3c621c2c40)" d="M 736.166515 83.980328 
L 726.672414 72.840984 
" style="stroke:#000000;stroke-linejoin:miter;stroke-width:0.5;"/>
   </g>
   <g id="patch_60">
    <path clip-path="url(#p3c621c2c40)" d="M 745.660617 95.119672 
L 736.166515 83.980328 
" style="stroke:#000000;stroke-linejoin:miter;stroke-width:0.5;"/>
   </g>
   <g id="patch_61">
    <path clip-path="url(#p3c621c2c40)" d="M 755.154719 95.119672 
L 745.660617 95.119672 
" style="stroke:#000000;stroke-linejoin:miter;stroke-width:0.5;"/>
   </g>
   <g id="patch_62">
    <path clip-path="url(#p3c621c2c40)" d="M 764.64882 95.119672 
L 755.154719 95.119672 
" style="stroke:#000000;stroke-linejoin:miter;stroke-width:0.5;"/>
   </g>
   <g id="patch_63">
    <path clip-path="url(#p3c621c2c40)" d="M 764.64882 95.119672 
L 764.64882 83.980328 
" style="stroke:#000000;stroke-linejoin:miter;stroke-width:0.5;"/>
   </g>
   <g id="9840003c9d4b4cd090cf9ac1ca20065d-1-node">
    <path clip-path="url(#p3c621c2c40)" d="M 766.167877 91.555082 
L 766.167877 98.684262 
L 763.129764 98.684262 
L 763.129764 91.555082 
L 766.167877 91.555082 
z
" style="fill:#0000ff;stroke:#ffffff;stroke-linejoin:miter;stroke-width:0.5;"/>
   </g>
   <g id="9840003c9d4b4cd090cf9ac1ca20065d-4-node">
    <path clip-path="url(#p3c621c2c40)" d="M 756.673775 91.555082 
L 756.673775 98.684262 
L 753.635662 98.684262 
L 753.635662 91.555082 
L 756.673775 91.555082 
z
" style="fill:#0000ff;stroke:#ffffff;stroke-linejoin:miter;stroke-width:0.5;"/>
   </g>
   <g id="9840003c9d4b4cd090cf9ac1ca20065d-6-node">
    <path clip-path="url(#p3c621c2c40)" d="M 745.660617 98.684262 
C 746.063475 98.684262 746.449888 98.308675 746.734752 97.640218 
C 747.019616 96.971761 747.179673 96.065012 747.179673 95.119672 
C 747.179673 94.174332 747.019616 93.267583 746.734752 92.599126 
C 746.449888 91.93067 746.063475 91.555082 745.660617 91.555082 
C 745.257759 91.555082 744.871346 91.93067 744.586482 92.599126 
C 744.301618 93.267583 744.141561 94.174332 744.141561 95.119672 
C 744.141561 96.065012 744.301618 96.971761 744.586482 97.640218 
C 744.871346 98.308675 745.257759 98.684262 745.660617 98.684262 
z
" style="fill:#00c832;stroke:#ffffff;stroke-linejoin:miter;stroke-width:0.5;"/>
   </g>
   <g id="9840003c9d4b4cd090cf9ac1ca20065d-21-node">
    <path clip-path="url(#p3c621c2c40)" d="M 736.166515 109.823607 
C 736.569374 109.823607 736.955786 109.448019 737.24065 108.779562 
C 737.525514 108.111106 737.685572 107.204357 737.685572 106.259016 
C 737.685572 105.313676 737.525514 104.406927 737.24065 103.738471 
C 736.955786 103.070014 736.569374 102.694426 736.166515 102.694426 
C 735.763657 102.694426 735.377244 103.070014 735.09238 103.738471 
C 734.807517 104.406927 734.647459 105.313676 734.647459 106.259016 
C 734.647459 107.204357 734.807517 108.111106 735.09238 108.779562 
C 735.377244 109.448019 735.763657 109.823607 736.166515 109.823607 
z
" style="fill:#00c832;stroke:#ffffff;stroke-linejoin:miter;stroke-width:0.5;"/>
   </g>
   <g id="9840003c9d4b4cd090cf9ac1ca20065d-7-node">
    <path clip-path="url(#p3c621c2c40)" d="M 736.166515 87.544918 
C 736.569374 87.544918 736.955786 87.16933 737.24065 86.500874 
C 737.525514 85.832417 737.685572 84.925668 737.685572 83.980328 
C 737.685572 83.034988 737.525514 82.128239 737.24065 81.459782 
C 736.955786 80.791325 736.569374 80.415738 736.166515 80.415738 
C 735.763657 80.415738 735.377244 80.791325 735.09238 81.459782 
C 734.807517 82.128239 734.647459 83.034988 734.647459 83.980328 
C 734.647459 84.925668 734.807517 85.832417 735.09238 86.500874 
C 735.377244 87.16933 735.763657 87.544918 736.166515 87.544918 
z
" style="fill:#00c832;stroke:#ffffff;stroke-linejoin:miter;stroke-width:0.5;"/>
   </g>
   <g id="9840003c9d4b4cd090cf9ac1ca20065d-16-node">
    <path clip-path="url(#p3c621c2c40)" d="M 728.19147 91.555082 
L 728.19147 98.684262 
L 725.153358 98.684262 
L 725.153358 91.555082 
L 728.19147 91.555082 
z
" style="fill:#0000ff;stroke:#ffffff;stroke-linejoin:miter;stroke-width:0.5;"/>
   </g>
   <g id="9840003c9d4b4cd090cf9ac1ca20065d-18-node">
    <path clip-path="url(#p3c621c2c40)" d="M 717.178312 98.684262 
C 717.581171 98.684262 717.967583 98.308675 718.252447 97.640218 
C 718.537311 96.971761 718.697368 96.065012 718.697368 95.119672 
C 718.697368 94.174332 718.537311 93.267583 718.252447 92.599126 
C 717.967583 91.93067 717.581171 91.555082 717.178312 91.555082 
C 716.775454 91.555082 716.389041 91.93067 716.104177 92.599126 
C 715.819313 93.267583 715.659256 94.174332 715.659256 95.119672 
C 715.659256 96.065012 715.819313 96.971761 716.104177 97.640218 
C 716.389041 98.308675 716.775454 98.684262 717.178312 98.684262 
z
" style="fill:#ffff00;stroke:#ffffff;stroke-linejoin:miter;stroke-width:0.5;"/>
   </g>
   <g id="9840003c9d4b4cd090cf9ac1ca20065d-19-node">
    <path clip-path="url(#p3c621c2c40)" d="M 707.684211 91.555082 
L 706.165154 95.119672 
L 707.684211 98.684262 
L 709.203267 95.119672 
z
" style="fill:#c800c8;stroke:#ffffff;stroke-linejoin:miter;stroke-width:0.5;"/>
   </g>
   <g id="9840003c9d4b4cd090cf9ac1ca20065d-8-node">
    <path clip-path="url(#p3c621c2c40)" d="M 728.19147 69.276393 
L 728.19147 76.405574 
L 725.153358 76.405574 
L 725.153358 69.276393 
L 728.19147 69.276393 
z
" style="fill:#0000ff;stroke:#ffffff;stroke-linejoin:miter;stroke-width:0.5;"/>
   </g>
   <g id="9840003c9d4b4cd090cf9ac1ca20065d-10-node">
    <path clip-path="url(#p3c621c2c40)" d="M 717.178312 76.405574 
C 717.581171 76.405574 717.967583 76.029986 718.252447 75.361529 
C 718.537311 74.693073 718.697368 73.786324 718.697368 72.840984 
C 718.697368 71.895643 718.537311 70.988894 718.252447 70.320438 
C 717.967583 69.651981 717.581171 69.276393 717.178312 69.276393 
C 716.775454 69.276393 716.389041 69.651981 716.104177 70.320438 
C 715.819313 70.988894 715.659256 71.895643 715.659256 72.840984 
C 715.659256 73.786324 715.819313 74.693073 716.104177 75.361529 
C 716.389041 76.029986 716.775454 76.405574 717.178312 76.405574 
z
" style="fill:#ffff00;stroke:#ffffff;stroke-linejoin:miter;stroke-width:0.5;"/>
   </g>
   <g id="9840003c9d4b4cd090cf9ac1ca20065d-11-node">
    <path clip-path="url(#p3c621c2c40)" d="M 709.203267 69.276393 
L 709.203267 76.405574 
L 706.165154 76.405574 
L 706.165154 69.276393 
L 709.203267 69.276393 
z
" style="fill:#0000ff;stroke:#ffffff;stroke-linejoin:miter;stroke-width:0.5;"/>
   </g>
   <g id="9840003c9d4b4cd090cf9ac1ca20065d-13-node">
    <path clip-path="url(#p3c621c2c40)" d="M 698.190109 76.405574 
C 698.592967 76.405574 698.97938 76.029986 699.264244 75.361529 
C 699.549108 74.693073 699.709165 73.786324 699.709165 72.840984 
C 699.709165 71.895643 699.549108 70.988894 699.264244 70.320438 
C 698.97938 69.651981 698.592967 69.276393 698.190109 69.276393 
C 697.78725 69.276393 697.400838 69.651981 697.115974 70.320438 
C 696.83111 70.988894 696.671053 71.895643 696.671053 72.840984 
C 696.671053 73.786324 696.83111 74.693073 697.115974 75.361529 
C 697.400838 76.029986 697.78725 76.405574 698.190109 76.405574 
z
" style="fill:#ffff00;stroke:#ffffff;stroke-linejoin:miter;stroke-width:0.5;"/>
   </g>
   <g id="9840003c9d4b4cd090cf9ac1ca20065d-14-node">
    <path clip-path="url(#p3c621c2c40)" d="M 688.696007 69.276393 
L 687.176951 72.840984 
L 688.696007 76.405574 
L 690.215064 72.840984 
z
" style="fill:#c800c8;stroke:#ffffff;stroke-linejoin:miter;stroke-width:0.5;"/>
   </g>
   <g id="9840003c9d4b4cd090cf9ac1ca20065d-3-node">
    <path clip-path="url(#p3c621c2c40)" d="M 764.64882 80.415738 
L 763.333279 85.762623 
L 765.964362 85.762623 
z
" style="fill:#ff0000;stroke:#ffffff;stroke-linejoin:miter;stroke-width:0.5;"/>
   </g>
   <g id="patch_64">
    <path d="M 654.517241 157.5 
L 654.517241 21.6 
" style="fill:none;stroke:#ffffff;stroke-linecap:square;stroke-linejoin:miter;stroke-width:1.25;"/>
   </g>
   <g id="patch_65">
    <path d="M 798.827586 157.5 
L 798.827586 21.6 
" style="fill:none;stroke:#ffffff;stroke-linecap:square;stroke-linejoin:miter;stroke-width:1.25;"/>
   </g>
   <g id="patch_66">
    <path d="M 654.517241 157.5 
L 798.827586 157.5 
" style="fill:none;stroke:#ffffff;stroke-linecap:square;stroke-linejoin:miter;stroke-width:1.25;"/>
   </g>
   <g id="patch_67">
    <path d="M 654.517241 21.6 
L 798.827586 21.6 
" style="fill:none;stroke:#ffffff;stroke-linecap:square;stroke-linejoin:miter;stroke-width:1.25;"/>
   </g>
   <g id="text_4">
    <!-- 986:3.0 -->
    <defs>
     <path d="M 5.46875 16.546875 
L 13.921875 17.328125 
Q 14.984375 11.375 18.015625 8.6875 
Q 21.046875 6 25.78125 6 
Q 29.828125 6 32.875 7.859375 
Q 35.9375 9.71875 37.890625 12.8125 
Q 39.84375 15.921875 41.15625 21.1875 
Q 42.484375 26.46875 42.484375 31.9375 
Q 42.484375 32.515625 42.4375 33.6875 
Q 39.796875 29.5 35.234375 26.875 
Q 30.671875 24.265625 25.34375 24.265625 
Q 16.453125 24.265625 10.296875 30.703125 
Q 4.15625 37.15625 4.15625 47.703125 
Q 4.15625 58.59375 10.578125 65.234375 
Q 17 71.875 26.65625 71.875 
Q 33.640625 71.875 39.421875 68.109375 
Q 45.21875 64.359375 48.21875 57.390625 
Q 51.21875 50.4375 51.21875 37.25 
Q 51.21875 23.53125 48.234375 15.40625 
Q 45.265625 7.28125 39.375 3.03125 
Q 33.5 -1.21875 25.59375 -1.21875 
Q 17.1875 -1.21875 11.859375 3.4375 
Q 6.546875 8.109375 5.46875 16.546875 
z
M 41.453125 48.140625 
Q 41.453125 55.71875 37.421875 60.15625 
Q 33.40625 64.59375 27.734375 64.59375 
Q 21.875 64.59375 17.53125 59.8125 
Q 13.1875 55.03125 13.1875 47.40625 
Q 13.1875 40.578125 17.3125 36.296875 
Q 21.4375 32.03125 27.484375 32.03125 
Q 33.59375 32.03125 37.515625 36.296875 
Q 41.453125 40.578125 41.453125 48.140625 
z
" id="ArialMT-57"/>
     <path d="M 4.203125 18.890625 
L 12.984375 20.0625 
Q 14.5 12.59375 18.140625 9.296875 
Q 21.78125 6 27 6 
Q 33.203125 6 37.46875 10.296875 
Q 41.75 14.59375 41.75 20.953125 
Q 41.75 27 37.796875 30.921875 
Q 33.84375 34.859375 27.734375 34.859375 
Q 25.25 34.859375 21.53125 33.890625 
L 22.515625 41.609375 
Q 23.390625 41.5 23.921875 41.5 
Q 29.546875 41.5 34.03125 44.421875 
Q 38.53125 47.359375 38.53125 53.46875 
Q 38.53125 58.296875 35.25 61.46875 
Q 31.984375 64.65625 26.8125 64.65625 
Q 21.6875 64.65625 18.265625 61.421875 
Q 14.84375 58.203125 13.875 51.765625 
L 5.078125 53.328125 
Q 6.6875 62.15625 12.390625 67.015625 
Q 18.109375 71.875 26.609375 71.875 
Q 32.46875 71.875 37.390625 69.359375 
Q 42.328125 66.84375 44.9375 62.5 
Q 47.5625 58.15625 47.5625 53.265625 
Q 47.5625 48.640625 45.0625 44.828125 
Q 42.578125 41.015625 37.703125 38.765625 
Q 44.046875 37.3125 47.5625 32.6875 
Q 51.078125 28.078125 51.078125 21.140625 
Q 51.078125 11.765625 44.234375 5.25 
Q 37.40625 -1.265625 26.953125 -1.265625 
Q 17.53125 -1.265625 11.296875 4.34375 
Q 5.078125 9.96875 4.203125 18.890625 
z
" id="ArialMT-51"/>
    </defs>
    <g style="fill:#262626;" transform="translate(706.655851 15.6)scale(0.12 -0.12)">
     <use xlink:href="#ArialMT-57"/>
     <use x="55.615234" xlink:href="#ArialMT-56"/>
     <use x="111.230469" xlink:href="#ArialMT-54"/>
     <use x="166.845703" xlink:href="#ArialMT-58"/>
     <use x="194.628906" xlink:href="#ArialMT-51"/>
     <use x="250.244141" xlink:href="#ArialMT-46"/>
     <use x="278.027344" xlink:href="#ArialMT-48"/>
    </g>
   </g>
  </g>
  <g id="axes_5">
   <g id="patch_68">
    <path d="M 827.689655 157.5 
L 972 157.5 
L 972 21.6 
L 827.689655 21.6 
z
" style="fill:#eaeaf2;"/>
   </g>
   <g id="matplotlib.axis_1">
    <g id="xtick_1">
     <g id="line2d_1">
      <path clip-path="url(#p8bf2f3d02f)" d="M 827.689655 157.5 
L 827.689655 21.6 
" style="fill:none;stroke:#ffffff;stroke-linecap:round;"/>
     </g>
     <g id="text_5">
      <!-- 0.00 -->
      <g style="fill:#262626;" transform="translate(816.98614 174.873594)scale(0.11 -0.11)">
       <use xlink:href="#ArialMT-48"/>
       <use x="55.615234" xlink:href="#ArialMT-46"/>
       <use x="83.398438" xlink:href="#ArialMT-48"/>
       <use x="139.013672" xlink:href="#ArialMT-48"/>
      </g>
     </g>
    </g>
    <g id="xtick_2">
     <g id="line2d_2">
      <path clip-path="url(#p8bf2f3d02f)" d="M 863.767241 157.5 
L 863.767241 21.6 
" style="fill:none;stroke:#ffffff;stroke-linecap:round;"/>
     </g>
     <g id="text_6">
      <!-- 0.25 -->
      <defs>
       <path d="M 4.15625 18.75 
L 13.375 19.53125 
Q 14.40625 12.796875 18.140625 9.390625 
Q 21.875 6 27.15625 6 
Q 33.5 6 37.890625 10.78125 
Q 42.28125 15.578125 42.28125 23.484375 
Q 42.28125 31 38.0625 35.34375 
Q 33.84375 39.703125 27 39.703125 
Q 22.75 39.703125 19.328125 37.765625 
Q 15.921875 35.84375 13.96875 32.765625 
L 5.71875 33.84375 
L 12.640625 70.609375 
L 48.25 70.609375 
L 48.25 62.203125 
L 19.671875 62.203125 
L 15.828125 42.96875 
Q 22.265625 47.46875 29.34375 47.46875 
Q 38.71875 47.46875 45.15625 40.96875 
Q 51.609375 34.46875 51.609375 24.265625 
Q 51.609375 14.546875 45.953125 7.46875 
Q 39.0625 -1.21875 27.15625 -1.21875 
Q 17.390625 -1.21875 11.203125 4.25 
Q 5.03125 9.71875 4.15625 18.75 
z
" id="ArialMT-53"/>
      </defs>
      <g style="fill:#262626;" transform="translate(853.063726 174.873594)scale(0.11 -0.11)">
       <use xlink:href="#ArialMT-48"/>
       <use x="55.615234" xlink:href="#ArialMT-46"/>
       <use x="83.398438" xlink:href="#ArialMT-50"/>
       <use x="139.013672" xlink:href="#ArialMT-53"/>
      </g>
     </g>
    </g>
    <g id="xtick_3">
     <g id="line2d_3">
      <path clip-path="url(#p8bf2f3d02f)" d="M 899.844828 157.5 
L 899.844828 21.6 
" style="fill:none;stroke:#ffffff;stroke-linecap:round;"/>
     </g>
     <g id="text_7">
      <!-- 0.50 -->
      <g style="fill:#262626;" transform="translate(889.141312 174.873594)scale(0.11 -0.11)">
       <use xlink:href="#ArialMT-48"/>
       <use x="55.615234" xlink:href="#ArialMT-46"/>
       <use x="83.398438" xlink:href="#ArialMT-53"/>
       <use x="139.013672" xlink:href="#ArialMT-48"/>
      </g>
     </g>
    </g>
    <g id="xtick_4">
     <g id="line2d_4">
      <path clip-path="url(#p8bf2f3d02f)" d="M 935.922414 157.5 
L 935.922414 21.6 
" style="fill:none;stroke:#ffffff;stroke-linecap:round;"/>
     </g>
     <g id="text_8">
      <!-- 0.75 -->
      <defs>
       <path d="M 4.734375 62.203125 
L 4.734375 70.65625 
L 51.078125 70.65625 
L 51.078125 63.8125 
Q 44.234375 56.546875 37.515625 44.484375 
Q 30.8125 32.421875 27.15625 19.671875 
Q 24.515625 10.6875 23.78125 0 
L 14.75 0 
Q 14.890625 8.453125 18.0625 20.40625 
Q 21.234375 32.375 27.171875 43.484375 
Q 33.109375 54.59375 39.796875 62.203125 
z
" id="ArialMT-55"/>
      </defs>
      <g style="fill:#262626;" transform="translate(925.218898 174.873594)scale(0.11 -0.11)">
       <use xlink:href="#ArialMT-48"/>
       <use x="55.615234" xlink:href="#ArialMT-46"/>
       <use x="83.398438" xlink:href="#ArialMT-55"/>
       <use x="139.013672" xlink:href="#ArialMT-53"/>
      </g>
     </g>
    </g>
    <g id="xtick_5">
     <g id="line2d_5">
      <path clip-path="url(#p8bf2f3d02f)" d="M 972 157.5 
L 972 21.6 
" style="fill:none;stroke:#ffffff;stroke-linecap:round;"/>
     </g>
     <g id="text_9">
      <!-- 1.00 -->
      <g style="fill:#262626;" transform="translate(961.296484 174.873594)scale(0.11 -0.11)">
       <use xlink:href="#ArialMT-49"/>
       <use x="55.615234" xlink:href="#ArialMT-46"/>
       <use x="83.398438" xlink:href="#ArialMT-48"/>
       <use x="139.013672" xlink:href="#ArialMT-48"/>
      </g>
     </g>
    </g>
   </g>
   <g id="matplotlib.axis_2">
    <g id="ytick_1">
     <g id="line2d_6">
      <path clip-path="url(#p8bf2f3d02f)" d="M 827.689655 157.5 
L 972 157.5 
" style="fill:none;stroke:#ffffff;stroke-linecap:round;"/>
     </g>
     <g id="text_10">
      <!-- 0.0 -->
      <g style="fill:#262626;" transform="translate(802.899655 161.436797)scale(0.11 -0.11)">
       <use xlink:href="#ArialMT-48"/>
       <use x="55.615234" xlink:href="#ArialMT-46"/>
       <use x="83.398438" xlink:href="#ArialMT-48"/>
      </g>
     </g>
    </g>
    <g id="ytick_2">
     <g id="line2d_7">
      <path clip-path="url(#p8bf2f3d02f)" d="M 827.689655 130.32 
L 972 130.32 
" style="fill:none;stroke:#ffffff;stroke-linecap:round;"/>
     </g>
     <g id="text_11">
      <!-- 0.2 -->
      <g style="fill:#262626;" transform="translate(802.899655 134.256797)scale(0.11 -0.11)">
       <use xlink:href="#ArialMT-48"/>
       <use x="55.615234" xlink:href="#ArialMT-46"/>
       <use x="83.398438" xlink:href="#ArialMT-50"/>
      </g>
     </g>
    </g>
    <g id="ytick_3">
     <g id="line2d_8">
      <path clip-path="url(#p8bf2f3d02f)" d="M 827.689655 103.14 
L 972 103.14 
" style="fill:none;stroke:#ffffff;stroke-linecap:round;"/>
     </g>
     <g id="text_12">
      <!-- 0.4 -->
      <g style="fill:#262626;" transform="translate(802.899655 107.076797)scale(0.11 -0.11)">
       <use xlink:href="#ArialMT-48"/>
       <use x="55.615234" xlink:href="#ArialMT-46"/>
       <use x="83.398438" xlink:href="#ArialMT-52"/>
      </g>
     </g>
    </g>
    <g id="ytick_4">
     <g id="line2d_9">
      <path clip-path="url(#p8bf2f3d02f)" d="M 827.689655 75.96 
L 972 75.96 
" style="fill:none;stroke:#ffffff;stroke-linecap:round;"/>
     </g>
     <g id="text_13">
      <!-- 0.6 -->
      <g style="fill:#262626;" transform="translate(802.899655 79.896797)scale(0.11 -0.11)">
       <use xlink:href="#ArialMT-48"/>
       <use x="55.615234" xlink:href="#ArialMT-46"/>
       <use x="83.398438" xlink:href="#ArialMT-54"/>
      </g>
     </g>
    </g>
    <g id="ytick_5">
     <g id="line2d_10">
      <path clip-path="url(#p8bf2f3d02f)" d="M 827.689655 48.78 
L 972 48.78 
" style="fill:none;stroke:#ffffff;stroke-linecap:round;"/>
     </g>
     <g id="text_14">
      <!-- 0.8 -->
      <g style="fill:#262626;" transform="translate(802.899655 52.716797)scale(0.11 -0.11)">
       <use xlink:href="#ArialMT-48"/>
       <use x="55.615234" xlink:href="#ArialMT-46"/>
       <use x="83.398438" xlink:href="#ArialMT-56"/>
      </g>
     </g>
    </g>
    <g id="ytick_6">
     <g id="line2d_11">
      <path clip-path="url(#p8bf2f3d02f)" d="M 827.689655 21.6 
L 972 21.6 
" style="fill:none;stroke:#ffffff;stroke-linecap:round;"/>
     </g>
     <g id="text_15">
      <!-- 1.0 -->
      <g style="fill:#262626;" transform="translate(802.899655 25.536797)scale(0.11 -0.11)">
       <use xlink:href="#ArialMT-49"/>
       <use x="55.615234" xlink:href="#ArialMT-46"/>
       <use x="83.398438" xlink:href="#ArialMT-48"/>
      </g>
     </g>
    </g>
   </g>
   <g id="patch_69">
    <path d="M 827.689655 157.5 
L 827.689655 21.6 
" style="fill:none;stroke:#ffffff;stroke-linecap:square;stroke-linejoin:miter;stroke-width:1.25;"/>
   </g>
   <g id="patch_70">
    <path d="M 972 157.5 
L 972 21.6 
" style="fill:none;stroke:#ffffff;stroke-linecap:square;stroke-linejoin:miter;stroke-width:1.25;"/>
   </g>
   <g id="patch_71">
    <path d="M 827.689655 157.5 
L 972 157.5 
" style="fill:none;stroke:#ffffff;stroke-linecap:square;stroke-linejoin:miter;stroke-width:1.25;"/>
   </g>
   <g id="patch_72">
    <path d="M 827.689655 21.6 
L 972 21.6 
" style="fill:none;stroke:#ffffff;stroke-linecap:square;stroke-linejoin:miter;stroke-width:1.25;"/>
   </g>
   <g id="text_16">
    <!-- 22 -->
    <g style="fill:#262626;" transform="translate(893.171703 15.6)scale(0.12 -0.12)">
     <use xlink:href="#ArialMT-50"/>
     <use x="55.615234" xlink:href="#ArialMT-50"/>
    </g>
   </g>
  </g>
 </g>
 <defs>
  <clipPath id="p38e97be62f">
   <rect height="135.9" width="144.310345" x="135" y="21.6"/>
  </clipPath>
  <clipPath id="p01e88a84c5">
   <rect height="135.9" width="144.310345" x="308.172414" y="21.6"/>
  </clipPath>
  <clipPath id="pd67d3bf1bf">
   <rect height="135.9" width="144.310345" x="481.344828" y="21.6"/>
  </clipPath>
  <clipPath id="p3c621c2c40">
   <rect height="135.9" width="144.310345" x="654.517241" y="21.6"/>
  </clipPath>
  <clipPath id="p8bf2f3d02f">
   <rect height="135.9" width="144.310345" x="827.689655" y="21.6"/>
  </clipPath>
 </defs>
</svg>
