<?xml version="1.0" encoding="utf-8" standalone="no"?>
<!DOCTYPE svg PUBLIC "-//W3C//DTD SVG 1.1//EN"
  "http://www.w3.org/Graphics/SVG/1.1/DTD/svg11.dtd">
<!-- Created with matplotlib (https://matplotlib.org/) -->
<svg height="360pt" version="1.1" viewBox="0 0 1080 360" width="1080pt" xmlns="http://www.w3.org/2000/svg" xmlns:xlink="http://www.w3.org/1999/xlink">
 <defs>
  <style type="text/css">
*{stroke-linecap:butt;stroke-linejoin:round;}
  </style>
 </defs>
 <g id="figure_1">
  <g id="patch_1">
   <path d="M 0 360 
L 1080 360 
L 1080 0 
L 0 0 
z
" style="fill:#ffffff;"/>
  </g>
  <g id="axes_1">
   <g id="patch_2">
    <path d="M 135 166.745455 
L 279.310345 166.745455 
L 279.310345 43.2 
L 135 43.2 
z
" style="fill:#ffffff;"/>
   </g>
   <g id="patch_3">
    <path clip-path="url(#pdf7528e8f2)" d="M 192.122845 110.036066 
L 177.090517 120.162742 
" style="stroke:#000000;stroke-linejoin:miter;stroke-width:0.5;"/>
   </g>
   <g id="patch_4">
    <path clip-path="url(#pdf7528e8f2)" d="M 192.122845 110.036066 
L 177.090517 99.909389 
" style="stroke:#000000;stroke-linejoin:miter;stroke-width:0.5;"/>
   </g>
   <g id="patch_5">
    <path clip-path="url(#pdf7528e8f2)" d="M 207.155172 99.909389 
L 192.122845 110.036066 
" style="stroke:#000000;stroke-linejoin:miter;stroke-width:0.5;"/>
   </g>
   <g id="patch_6">
    <path clip-path="url(#pdf7528e8f2)" d="M 207.155172 99.909389 
L 192.122845 89.782712 
" style="stroke:#000000;stroke-linejoin:miter;stroke-width:0.5;"/>
   </g>
   <g id="patch_7">
    <path clip-path="url(#pdf7528e8f2)" d="M 222.1875 99.909389 
L 207.155172 99.909389 
" style="stroke:#000000;stroke-linejoin:miter;stroke-width:0.5;"/>
   </g>
   <g id="patch_8">
    <path clip-path="url(#pdf7528e8f2)" d="M 237.219828 99.909389 
L 222.1875 99.909389 
" style="stroke:#000000;stroke-linejoin:miter;stroke-width:0.5;"/>
   </g>
   <g id="f61e3e816e964326ab4f4993d2466141-1-node">
    <path clip-path="url(#pdf7528e8f2)" d="M 239.625 96.668852 
L 239.625 103.149925 
L 234.814655 103.149925 
L 234.814655 96.668852 
L 239.625 96.668852 
z
" style="fill:#0000ff;stroke:#ffffff;stroke-linejoin:miter;stroke-width:0.5;"/>
   </g>
   <g id="f61e3e816e964326ab4f4993d2466141-3-node">
    <path clip-path="url(#pdf7528e8f2)" d="M 224.592672 96.668852 
L 224.592672 103.149925 
L 219.782328 103.149925 
L 219.782328 96.668852 
L 224.592672 96.668852 
z
" style="fill:#0000ff;stroke:#ffffff;stroke-linejoin:miter;stroke-width:0.5;"/>
   </g>
   <g id="f61e3e816e964326ab4f4993d2466141-5-node">
    <path clip-path="url(#pdf7528e8f2)" d="M 207.155172 103.149925 
C 207.793032 103.149925 208.404852 102.808482 208.855886 102.200794 
C 209.306921 101.593107 209.560345 100.768789 209.560345 99.909389 
C 209.560345 99.049989 209.306921 98.225671 208.855886 97.617984 
C 208.404852 97.010296 207.793032 96.668852 207.155172 96.668852 
C 206.517313 96.668852 205.905493 97.010296 205.454459 97.617984 
C 205.003424 98.225671 204.75 99.049989 204.75 99.909389 
C 204.75 100.768789 205.003424 101.593107 205.454459 102.200794 
C 205.905493 102.808482 206.517313 103.149925 207.155172 103.149925 
z
" style="fill:#00c832;stroke:#ffffff;stroke-linejoin:miter;stroke-width:0.5;"/>
   </g>
   <g id="f61e3e816e964326ab4f4993d2466141-7-node">
    <path clip-path="url(#pdf7528e8f2)" d="M 192.122845 113.276602 
C 192.760704 113.276602 193.372524 112.935159 193.823559 112.327471 
C 194.274593 111.719783 194.528017 110.895466 194.528017 110.036066 
C 194.528017 109.176665 194.274593 108.352348 193.823559 107.74466 
C 193.372524 107.136972 192.760704 106.795529 192.122845 106.795529 
C 191.484986 106.795529 190.873166 107.136972 190.422131 107.74466 
C 189.971097 108.352348 189.717672 109.176665 189.717672 110.036066 
C 189.717672 110.895466 189.971097 111.719783 190.422131 112.327471 
C 190.873166 112.935159 191.484986 113.276602 192.122845 113.276602 
z
" style="fill:#00c832;stroke:#ffffff;stroke-linejoin:miter;stroke-width:0.5;"/>
   </g>
   <g id="f61e3e816e964326ab4f4993d2466141-10-node">
    <path clip-path="url(#pdf7528e8f2)" d="M 179.49569 116.922206 
L 179.49569 123.403279 
L 174.685345 123.403279 
L 174.685345 116.922206 
L 179.49569 116.922206 
z
" style="fill:#0000ff;stroke:#ffffff;stroke-linejoin:miter;stroke-width:0.5;"/>
   </g>
   <g id="f61e3e816e964326ab4f4993d2466141-8-node">
    <path clip-path="url(#pdf7528e8f2)" d="M 179.49569 96.668852 
L 179.49569 103.149925 
L 174.685345 103.149925 
L 174.685345 96.668852 
L 179.49569 96.668852 
z
" style="fill:#0000ff;stroke:#ffffff;stroke-linejoin:miter;stroke-width:0.5;"/>
   </g>
   <g id="f61e3e816e964326ab4f4993d2466141-6-node">
    <path clip-path="url(#pdf7528e8f2)" d="M 192.122845 93.023249 
C 192.760704 93.023249 193.372524 92.681806 193.823559 92.074118 
C 194.274593 91.46643 194.528017 90.642113 194.528017 89.782712 
C 194.528017 88.923312 194.274593 88.098995 193.823559 87.491307 
C 193.372524 86.883619 192.760704 86.542176 192.122845 86.542176 
C 191.484986 86.542176 190.873166 86.883619 190.422131 87.491307 
C 189.971097 88.098995 189.717672 88.923312 189.717672 89.782712 
C 189.717672 90.642113 189.971097 91.46643 190.422131 92.074118 
C 190.873166 92.681806 191.484986 93.023249 192.122845 93.023249 
z
" style="fill:#00c832;stroke:#ffffff;stroke-linejoin:miter;stroke-width:0.5;"/>
   </g>
   <g id="patch_9">
    <path d="M 135 166.745455 
L 135 43.2 
" style="fill:none;stroke:#ffffff;stroke-linecap:square;stroke-linejoin:miter;stroke-width:1.25;"/>
   </g>
   <g id="patch_10">
    <path d="M 279.310345 166.745455 
L 279.310345 43.2 
" style="fill:none;stroke:#ffffff;stroke-linecap:square;stroke-linejoin:miter;stroke-width:1.25;"/>
   </g>
   <g id="patch_11">
    <path d="M 135 166.745455 
L 279.310345 166.745455 
" style="fill:none;stroke:#ffffff;stroke-linecap:square;stroke-linejoin:miter;stroke-width:1.25;"/>
   </g>
   <g id="patch_12">
    <path d="M 135 43.2 
L 279.310345 43.2 
" style="fill:none;stroke:#ffffff;stroke-linecap:square;stroke-linejoin:miter;stroke-width:1.25;"/>
   </g>
   <g id="text_1">
    <!-- 114:1 -->
    <defs>
     <path d="M 37.25 0 
L 28.46875 0 
L 28.46875 56 
Q 25.296875 52.984375 20.140625 49.953125 
Q 14.984375 46.921875 10.890625 45.40625 
L 10.890625 53.90625 
Q 18.265625 57.375 23.78125 62.296875 
Q 29.296875 67.234375 31.59375 71.875 
L 37.25 71.875 
z
" id="ArialMT-49"/>
     <path d="M 32.328125 0 
L 32.328125 17.140625 
L 1.265625 17.140625 
L 1.265625 25.203125 
L 33.9375 71.578125 
L 41.109375 71.578125 
L 41.109375 25.203125 
L 50.78125 25.203125 
L 50.78125 17.140625 
L 41.109375 17.140625 
L 41.109375 0 
z
M 32.328125 25.203125 
L 32.328125 57.46875 
L 9.90625 25.203125 
z
" id="ArialMT-52"/>
     <path d="M 9.03125 41.84375 
L 9.03125 51.859375 
L 19.046875 51.859375 
L 19.046875 41.84375 
z
M 9.03125 0 
L 9.03125 10.015625 
L 19.046875 10.015625 
L 19.046875 0 
z
" id="ArialMT-58"/>
    </defs>
    <g style="fill:#262626;" transform="translate(192.14861 37.2)scale(0.12 -0.12)">
     <use xlink:href="#ArialMT-49"/>
     <use x="55.505859" xlink:href="#ArialMT-49"/>
     <use x="111.121094" xlink:href="#ArialMT-52"/>
     <use x="166.736328" xlink:href="#ArialMT-58"/>
     <use x="194.519531" xlink:href="#ArialMT-49"/>
    </g>
   </g>
  </g>
  <g id="axes_2">
   <g id="patch_13">
    <path d="M 308.172414 166.745455 
L 452.482759 166.745455 
L 452.482759 43.2 
L 308.172414 43.2 
z
" style="fill:#ffffff;"/>
   </g>
   <g id="patch_14">
    <path clip-path="url(#p91ac95e1d9)" d="M 360.648903 120.162742 
L 347.529781 120.162742 
" style="stroke:#000000;stroke-linejoin:miter;stroke-width:0.5;"/>
   </g>
   <g id="patch_15">
    <path clip-path="url(#p91ac95e1d9)" d="M 373.768025 110.036066 
L 360.648903 120.162742 
" style="stroke:#000000;stroke-linejoin:miter;stroke-width:0.5;"/>
   </g>
   <g id="patch_16">
    <path clip-path="url(#p91ac95e1d9)" d="M 373.768025 110.036066 
L 360.648903 99.909389 
" style="stroke:#000000;stroke-linejoin:miter;stroke-width:0.5;"/>
   </g>
   <g id="patch_17">
    <path clip-path="url(#p91ac95e1d9)" d="M 386.887147 99.909389 
L 373.768025 110.036066 
" style="stroke:#000000;stroke-linejoin:miter;stroke-width:0.5;"/>
   </g>
   <g id="patch_18">
    <path clip-path="url(#p91ac95e1d9)" d="M 386.887147 99.909389 
L 373.768025 89.782712 
" style="stroke:#000000;stroke-linejoin:miter;stroke-width:0.5;"/>
   </g>
   <g id="patch_19">
    <path clip-path="url(#p91ac95e1d9)" d="M 400.00627 99.909389 
L 386.887147 99.909389 
" style="stroke:#000000;stroke-linejoin:miter;stroke-width:0.5;"/>
   </g>
   <g id="patch_20">
    <path clip-path="url(#p91ac95e1d9)" d="M 413.125392 99.909389 
L 400.00627 99.909389 
" style="stroke:#000000;stroke-linejoin:miter;stroke-width:0.5;"/>
   </g>
   <g id="bc94868bfa7d4d02bf2d730b7af7cc76-1-node">
    <path clip-path="url(#p91ac95e1d9)" d="M 415.224451 96.668852 
L 415.224451 103.149925 
L 411.026332 103.149925 
L 411.026332 96.668852 
L 415.224451 96.668852 
z
" style="fill:#0000ff;stroke:#ffffff;stroke-linejoin:miter;stroke-width:0.5;"/>
   </g>
   <g id="bc94868bfa7d4d02bf2d730b7af7cc76-3-node">
    <path clip-path="url(#p91ac95e1d9)" d="M 402.105329 96.668852 
L 402.105329 103.149925 
L 397.90721 103.149925 
L 397.90721 96.668852 
L 402.105329 96.668852 
z
" style="fill:#0000ff;stroke:#ffffff;stroke-linejoin:miter;stroke-width:0.5;"/>
   </g>
   <g id="bc94868bfa7d4d02bf2d730b7af7cc76-5-node">
    <path clip-path="url(#p91ac95e1d9)" d="M 386.887147 103.149925 
C 387.443824 103.149925 387.977776 102.808482 388.371407 102.200794 
C 388.765037 101.593107 388.986207 100.768789 388.986207 99.909389 
C 388.986207 99.049989 388.765037 98.225671 388.371407 97.617984 
C 387.977776 97.010296 387.443824 96.668852 386.887147 96.668852 
C 386.33047 96.668852 385.796518 97.010296 385.402888 97.617984 
C 385.009258 98.225671 384.788088 99.049989 384.788088 99.909389 
C 384.788088 100.768789 385.009258 101.593107 385.402888 102.200794 
C 385.796518 102.808482 386.33047 103.149925 386.887147 103.149925 
z
" style="fill:#00c832;stroke:#ffffff;stroke-linejoin:miter;stroke-width:0.5;"/>
   </g>
   <g id="bc94868bfa7d4d02bf2d730b7af7cc76-7-node">
    <path clip-path="url(#p91ac95e1d9)" d="M 373.768025 113.276602 
C 374.324702 113.276602 374.858654 112.935159 375.252284 112.327471 
C 375.645914 111.719783 375.867085 110.895466 375.867085 110.036066 
C 375.867085 109.176665 375.645914 108.352348 375.252284 107.74466 
C 374.858654 107.136972 374.324702 106.795529 373.768025 106.795529 
C 373.211348 106.795529 372.677396 107.136972 372.283766 107.74466 
C 371.890136 108.352348 371.668966 109.176665 371.668966 110.036066 
C 371.668966 110.895466 371.890136 111.719783 372.283766 112.327471 
C 372.677396 112.935159 373.211348 113.276602 373.768025 113.276602 
z
" style="fill:#00c832;stroke:#ffffff;stroke-linejoin:miter;stroke-width:0.5;"/>
   </g>
   <g id="bc94868bfa7d4d02bf2d730b7af7cc76-10-node">
    <path clip-path="url(#p91ac95e1d9)" d="M 362.747962 116.922206 
L 362.747962 123.403279 
L 358.549843 123.403279 
L 358.549843 116.922206 
L 362.747962 116.922206 
z
" style="fill:#0000ff;stroke:#ffffff;stroke-linejoin:miter;stroke-width:0.5;"/>
   </g>
   <g id="bc94868bfa7d4d02bf2d730b7af7cc76-12-node">
    <path clip-path="url(#p91ac95e1d9)" d="M 347.529781 123.403279 
C 348.086458 123.403279 348.62041 123.061835 349.01404 122.454148 
C 349.40767 121.84646 349.62884 121.022143 349.62884 120.162742 
C 349.62884 119.303342 349.40767 118.479025 349.01404 117.871337 
C 348.62041 117.263649 348.086458 116.922206 347.529781 116.922206 
C 346.973103 116.922206 346.439151 117.263649 346.045521 117.871337 
C 345.651891 118.479025 345.430721 119.303342 345.430721 120.162742 
C 345.430721 121.022143 345.651891 121.84646 346.045521 122.454148 
C 346.439151 123.061835 346.973103 123.403279 347.529781 123.403279 
z
" style="fill:#ffff00;stroke:#ffffff;stroke-linejoin:miter;stroke-width:0.5;"/>
   </g>
   <g id="bc94868bfa7d4d02bf2d730b7af7cc76-8-node">
    <path clip-path="url(#p91ac95e1d9)" d="M 362.747962 96.668852 
L 362.747962 103.149925 
L 358.549843 103.149925 
L 358.549843 96.668852 
L 362.747962 96.668852 
z
" style="fill:#0000ff;stroke:#ffffff;stroke-linejoin:miter;stroke-width:0.5;"/>
   </g>
   <g id="bc94868bfa7d4d02bf2d730b7af7cc76-6-node">
    <path clip-path="url(#p91ac95e1d9)" d="M 373.768025 93.023249 
C 374.324702 93.023249 374.858654 92.681806 375.252284 92.074118 
C 375.645914 91.46643 375.867085 90.642113 375.867085 89.782712 
C 375.867085 88.923312 375.645914 88.098995 375.252284 87.491307 
C 374.858654 86.883619 374.324702 86.542176 373.768025 86.542176 
C 373.211348 86.542176 372.677396 86.883619 372.283766 87.491307 
C 371.890136 88.098995 371.668966 88.923312 371.668966 89.782712 
C 371.668966 90.642113 371.890136 91.46643 372.283766 92.074118 
C 372.677396 92.681806 373.211348 93.023249 373.768025 93.023249 
z
" style="fill:#00c832;stroke:#ffffff;stroke-linejoin:miter;stroke-width:0.5;"/>
   </g>
   <g id="patch_21">
    <path d="M 308.172414 166.745455 
L 308.172414 43.2 
" style="fill:none;stroke:#ffffff;stroke-linecap:square;stroke-linejoin:miter;stroke-width:1.25;"/>
   </g>
   <g id="patch_22">
    <path d="M 452.482759 166.745455 
L 452.482759 43.2 
" style="fill:none;stroke:#ffffff;stroke-linecap:square;stroke-linejoin:miter;stroke-width:1.25;"/>
   </g>
   <g id="patch_23">
    <path d="M 308.172414 166.745455 
L 452.482759 166.745455 
" style="fill:none;stroke:#ffffff;stroke-linecap:square;stroke-linejoin:miter;stroke-width:1.25;"/>
   </g>
   <g id="patch_24">
    <path d="M 308.172414 43.2 
L 452.482759 43.2 
" style="fill:none;stroke:#ffffff;stroke-linecap:square;stroke-linejoin:miter;stroke-width:1.25;"/>
   </g>
   <g id="text_2">
    <!-- 150:1 -->
    <defs>
     <path d="M 4.15625 18.75 
L 13.375 19.53125 
Q 14.40625 12.796875 18.140625 9.390625 
Q 21.875 6 27.15625 6 
Q 33.5 6 37.890625 10.78125 
Q 42.28125 15.578125 42.28125 23.484375 
Q 42.28125 31 38.0625 35.34375 
Q 33.84375 39.703125 27 39.703125 
Q 22.75 39.703125 19.328125 37.765625 
Q 15.921875 35.84375 13.96875 32.765625 
L 5.71875 33.84375 
L 12.640625 70.609375 
L 48.25 70.609375 
L 48.25 62.203125 
L 19.671875 62.203125 
L 15.828125 42.96875 
Q 22.265625 47.46875 29.34375 47.46875 
Q 38.71875 47.46875 45.15625 40.96875 
Q 51.609375 34.46875 51.609375 24.265625 
Q 51.609375 14.546875 45.953125 7.46875 
Q 39.0625 -1.21875 27.15625 -1.21875 
Q 17.390625 -1.21875 11.203125 4.25 
Q 5.03125 9.71875 4.15625 18.75 
z
" id="ArialMT-53"/>
     <path d="M 4.15625 35.296875 
Q 4.15625 48 6.765625 55.734375 
Q 9.375 63.484375 14.515625 67.671875 
Q 19.671875 71.875 27.484375 71.875 
Q 33.25 71.875 37.59375 69.546875 
Q 41.9375 67.234375 44.765625 62.859375 
Q 47.609375 58.5 49.21875 52.21875 
Q 50.828125 45.953125 50.828125 35.296875 
Q 50.828125 22.703125 48.234375 14.96875 
Q 45.65625 7.234375 40.5 3 
Q 35.359375 -1.21875 27.484375 -1.21875 
Q 17.140625 -1.21875 11.234375 6.203125 
Q 4.15625 15.140625 4.15625 35.296875 
z
M 13.1875 35.296875 
Q 13.1875 17.671875 17.3125 11.828125 
Q 21.4375 6 27.484375 6 
Q 33.546875 6 37.671875 11.859375 
Q 41.796875 17.71875 41.796875 35.296875 
Q 41.796875 52.984375 37.671875 58.78125 
Q 33.546875 64.59375 27.390625 64.59375 
Q 21.34375 64.59375 17.71875 59.46875 
Q 13.1875 52.9375 13.1875 35.296875 
z
" id="ArialMT-48"/>
    </defs>
    <g style="fill:#262626;" transform="translate(365.314461 37.2)scale(0.12 -0.12)">
     <use xlink:href="#ArialMT-49"/>
     <use x="55.615234" xlink:href="#ArialMT-53"/>
     <use x="111.230469" xlink:href="#ArialMT-48"/>
     <use x="166.845703" xlink:href="#ArialMT-58"/>
     <use x="194.628906" xlink:href="#ArialMT-49"/>
    </g>
   </g>
  </g>
  <g id="axes_3">
   <g id="patch_25">
    <path d="M 481.344828 166.745455 
L 625.655172 166.745455 
L 625.655172 43.2 
L 481.344828 43.2 
z
" style="fill:#ffffff;"/>
   </g>
   <g id="patch_26">
    <path clip-path="url(#pd93940e618)" d="M 538.467672 110.036066 
L 523.435345 120.162742 
" style="stroke:#000000;stroke-linejoin:miter;stroke-width:0.5;"/>
   </g>
   <g id="patch_27">
    <path clip-path="url(#pd93940e618)" d="M 538.467672 110.036066 
L 523.435345 99.909389 
" style="stroke:#000000;stroke-linejoin:miter;stroke-width:0.5;"/>
   </g>
   <g id="patch_28">
    <path clip-path="url(#pd93940e618)" d="M 553.5 99.909389 
L 538.467672 110.036066 
" style="stroke:#000000;stroke-linejoin:miter;stroke-width:0.5;"/>
   </g>
   <g id="patch_29">
    <path clip-path="url(#pd93940e618)" d="M 553.5 99.909389 
L 538.467672 89.782712 
" style="stroke:#000000;stroke-linejoin:miter;stroke-width:0.5;"/>
   </g>
   <g id="patch_30">
    <path clip-path="url(#pd93940e618)" d="M 568.532328 99.909389 
L 553.5 99.909389 
" style="stroke:#000000;stroke-linejoin:miter;stroke-width:0.5;"/>
   </g>
   <g id="patch_31">
    <path clip-path="url(#pd93940e618)" d="M 583.564655 99.909389 
L 568.532328 99.909389 
" style="stroke:#000000;stroke-linejoin:miter;stroke-width:0.5;"/>
   </g>
   <g id="patch_32">
    <path clip-path="url(#pd93940e618)" d="M 583.564655 99.909389 
L 583.564655 89.782712 
" style="stroke:#000000;stroke-linejoin:miter;stroke-width:0.5;"/>
   </g>
   <g id="94c17ba0977a4d139b6eb87928abd1a2-1-node">
    <path clip-path="url(#pd93940e618)" d="M 585.969828 96.668852 
L 585.969828 103.149925 
L 581.159483 103.149925 
L 581.159483 96.668852 
L 585.969828 96.668852 
z
" style="fill:#0000ff;stroke:#ffffff;stroke-linejoin:miter;stroke-width:0.5;"/>
   </g>
   <g id="94c17ba0977a4d139b6eb87928abd1a2-4-node">
    <path clip-path="url(#pd93940e618)" d="M 570.9375 96.668852 
L 570.9375 103.149925 
L 566.127155 103.149925 
L 566.127155 96.668852 
L 570.9375 96.668852 
z
" style="fill:#0000ff;stroke:#ffffff;stroke-linejoin:miter;stroke-width:0.5;"/>
   </g>
   <g id="94c17ba0977a4d139b6eb87928abd1a2-6-node">
    <path clip-path="url(#pd93940e618)" d="M 553.5 103.149925 
C 554.137859 103.149925 554.749679 102.808482 555.200714 102.200794 
C 555.651748 101.593107 555.905172 100.768789 555.905172 99.909389 
C 555.905172 99.049989 555.651748 98.225671 555.200714 97.617984 
C 554.749679 97.010296 554.137859 96.668852 553.5 96.668852 
C 552.862141 96.668852 552.250321 97.010296 551.799286 97.617984 
C 551.348252 98.225671 551.094828 99.049989 551.094828 99.909389 
C 551.094828 100.768789 551.348252 101.593107 551.799286 102.200794 
C 552.250321 102.808482 552.862141 103.149925 553.5 103.149925 
z
" style="fill:#00c832;stroke:#ffffff;stroke-linejoin:miter;stroke-width:0.5;"/>
   </g>
   <g id="94c17ba0977a4d139b6eb87928abd1a2-8-node">
    <path clip-path="url(#pd93940e618)" d="M 538.467672 113.276602 
C 539.105532 113.276602 539.717352 112.935159 540.168386 112.327471 
C 540.619421 111.719783 540.872845 110.895466 540.872845 110.036066 
C 540.872845 109.176665 540.619421 108.352348 540.168386 107.74466 
C 539.717352 107.136972 539.105532 106.795529 538.467672 106.795529 
C 537.829813 106.795529 537.217993 107.136972 536.766959 107.74466 
C 536.315924 108.352348 536.0625 109.176665 536.0625 110.036066 
C 536.0625 110.895466 536.315924 111.719783 536.766959 112.327471 
C 537.217993 112.935159 537.829813 113.276602 538.467672 113.276602 
z
" style="fill:#00c832;stroke:#ffffff;stroke-linejoin:miter;stroke-width:0.5;"/>
   </g>
   <g id="94c17ba0977a4d139b6eb87928abd1a2-11-node">
    <path clip-path="url(#pd93940e618)" d="M 525.840517 116.922206 
L 525.840517 123.403279 
L 521.030172 123.403279 
L 521.030172 116.922206 
L 525.840517 116.922206 
z
" style="fill:#0000ff;stroke:#ffffff;stroke-linejoin:miter;stroke-width:0.5;"/>
   </g>
   <g id="94c17ba0977a4d139b6eb87928abd1a2-9-node">
    <path clip-path="url(#pd93940e618)" d="M 525.840517 96.668852 
L 525.840517 103.149925 
L 521.030172 103.149925 
L 521.030172 96.668852 
L 525.840517 96.668852 
z
" style="fill:#0000ff;stroke:#ffffff;stroke-linejoin:miter;stroke-width:0.5;"/>
   </g>
   <g id="94c17ba0977a4d139b6eb87928abd1a2-7-node">
    <path clip-path="url(#pd93940e618)" d="M 538.467672 93.023249 
C 539.105532 93.023249 539.717352 92.681806 540.168386 92.074118 
C 540.619421 91.46643 540.872845 90.642113 540.872845 89.782712 
C 540.872845 88.923312 540.619421 88.098995 540.168386 87.491307 
C 539.717352 86.883619 539.105532 86.542176 538.467672 86.542176 
C 537.829813 86.542176 537.217993 86.883619 536.766959 87.491307 
C 536.315924 88.098995 536.0625 88.923312 536.0625 89.782712 
C 536.0625 90.642113 536.315924 91.46643 536.766959 92.074118 
C 537.217993 92.681806 537.829813 93.023249 538.467672 93.023249 
z
" style="fill:#00c832;stroke:#ffffff;stroke-linejoin:miter;stroke-width:0.5;"/>
   </g>
   <g id="94c17ba0977a4d139b6eb87928abd1a2-3-node">
    <path clip-path="url(#pd93940e618)" d="M 583.564655 86.542176 
L 581.481715 91.402981 
L 585.647596 91.402981 
z
" style="fill:#ff0000;stroke:#ffffff;stroke-linejoin:miter;stroke-width:0.5;"/>
   </g>
   <g id="patch_33">
    <path d="M 481.344828 166.745455 
L 481.344828 43.2 
" style="fill:none;stroke:#ffffff;stroke-linecap:square;stroke-linejoin:miter;stroke-width:1.25;"/>
   </g>
   <g id="patch_34">
    <path d="M 625.655172 166.745455 
L 625.655172 43.2 
" style="fill:none;stroke:#ffffff;stroke-linecap:square;stroke-linejoin:miter;stroke-width:1.25;"/>
   </g>
   <g id="patch_35">
    <path d="M 481.344828 166.745455 
L 625.655172 166.745455 
" style="fill:none;stroke:#ffffff;stroke-linecap:square;stroke-linejoin:miter;stroke-width:1.25;"/>
   </g>
   <g id="patch_36">
    <path d="M 481.344828 43.2 
L 625.655172 43.2 
" style="fill:none;stroke:#ffffff;stroke-linecap:square;stroke-linejoin:miter;stroke-width:1.25;"/>
   </g>
   <g id="text_3">
    <!-- 184:1 -->
    <defs>
     <path d="M 17.671875 38.8125 
Q 12.203125 40.828125 9.5625 44.53125 
Q 6.9375 48.25 6.9375 53.421875 
Q 6.9375 61.234375 12.546875 66.546875 
Q 18.171875 71.875 27.484375 71.875 
Q 36.859375 71.875 42.578125 66.421875 
Q 48.296875 60.984375 48.296875 53.171875 
Q 48.296875 48.1875 45.671875 44.5 
Q 43.0625 40.828125 37.75 38.8125 
Q 44.34375 36.671875 47.78125 31.875 
Q 51.21875 27.09375 51.21875 20.453125 
Q 51.21875 11.28125 44.71875 5.03125 
Q 38.234375 -1.21875 27.640625 -1.21875 
Q 17.046875 -1.21875 10.546875 5.046875 
Q 4.046875 11.328125 4.046875 20.703125 
Q 4.046875 27.6875 7.59375 32.390625 
Q 11.140625 37.109375 17.671875 38.8125 
z
M 15.921875 53.71875 
Q 15.921875 48.640625 19.1875 45.40625 
Q 22.46875 42.1875 27.6875 42.1875 
Q 32.765625 42.1875 36.015625 45.375 
Q 39.265625 48.578125 39.265625 53.21875 
Q 39.265625 58.0625 35.90625 61.359375 
Q 32.5625 64.65625 27.59375 64.65625 
Q 22.5625 64.65625 19.234375 61.421875 
Q 15.921875 58.203125 15.921875 53.71875 
z
M 13.09375 20.65625 
Q 13.09375 16.890625 14.875 13.375 
Q 16.65625 9.859375 20.171875 7.921875 
Q 23.6875 6 27.734375 6 
Q 34.03125 6 38.125 10.046875 
Q 42.234375 14.109375 42.234375 20.359375 
Q 42.234375 26.703125 38.015625 30.859375 
Q 33.796875 35.015625 27.4375 35.015625 
Q 21.234375 35.015625 17.15625 30.90625 
Q 13.09375 26.8125 13.09375 20.65625 
z
" id="ArialMT-56"/>
    </defs>
    <g style="fill:#262626;" transform="translate(538.486875 37.2)scale(0.12 -0.12)">
     <use xlink:href="#ArialMT-49"/>
     <use x="55.615234" xlink:href="#ArialMT-56"/>
     <use x="111.230469" xlink:href="#ArialMT-52"/>
     <use x="166.845703" xlink:href="#ArialMT-58"/>
     <use x="194.628906" xlink:href="#ArialMT-49"/>
    </g>
   </g>
  </g>
  <g id="axes_4">
   <g id="patch_37">
    <path d="M 654.517241 166.745455 
L 798.827586 166.745455 
L 798.827586 43.2 
L 654.517241 43.2 
z
" style="fill:#ffffff;"/>
   </g>
   <g id="patch_38">
    <path clip-path="url(#pe344d51c21)" d="M 706.99373 120.162742 
L 693.874608 120.162742 
" style="stroke:#000000;stroke-linejoin:miter;stroke-width:0.5;"/>
   </g>
   <g id="patch_39">
    <path clip-path="url(#pe344d51c21)" d="M 720.112853 110.036066 
L 706.99373 120.162742 
" style="stroke:#000000;stroke-linejoin:miter;stroke-width:0.5;"/>
   </g>
   <g id="patch_40">
    <path clip-path="url(#pe344d51c21)" d="M 706.99373 99.909389 
L 693.874608 99.909389 
" style="stroke:#000000;stroke-linejoin:miter;stroke-width:0.5;"/>
   </g>
   <g id="patch_41">
    <path clip-path="url(#pe344d51c21)" d="M 720.112853 110.036066 
L 706.99373 99.909389 
" style="stroke:#000000;stroke-linejoin:miter;stroke-width:0.5;"/>
   </g>
   <g id="patch_42">
    <path clip-path="url(#pe344d51c21)" d="M 733.231975 99.909389 
L 720.112853 110.036066 
" style="stroke:#000000;stroke-linejoin:miter;stroke-width:0.5;"/>
   </g>
   <g id="patch_43">
    <path clip-path="url(#pe344d51c21)" d="M 733.231975 99.909389 
L 720.112853 89.782712 
" style="stroke:#000000;stroke-linejoin:miter;stroke-width:0.5;"/>
   </g>
   <g id="patch_44">
    <path clip-path="url(#pe344d51c21)" d="M 746.351097 99.909389 
L 733.231975 99.909389 
" style="stroke:#000000;stroke-linejoin:miter;stroke-width:0.5;"/>
   </g>
   <g id="patch_45">
    <path clip-path="url(#pe344d51c21)" d="M 759.470219 99.909389 
L 746.351097 99.909389 
" style="stroke:#000000;stroke-linejoin:miter;stroke-width:0.5;"/>
   </g>
   <g id="7dc3a56ff8c645b397aa3d94740fc7a7-1-node">
    <path clip-path="url(#pe344d51c21)" d="M 761.569279 96.668852 
L 761.569279 103.149925 
L 757.37116 103.149925 
L 757.37116 96.668852 
L 761.569279 96.668852 
z
" style="fill:#0000ff;stroke:#ffffff;stroke-linejoin:miter;stroke-width:0.5;"/>
   </g>
   <g id="7dc3a56ff8c645b397aa3d94740fc7a7-3-node">
    <path clip-path="url(#pe344d51c21)" d="M 748.450157 96.668852 
L 748.450157 103.149925 
L 744.252038 103.149925 
L 744.252038 96.668852 
L 748.450157 96.668852 
z
" style="fill:#0000ff;stroke:#ffffff;stroke-linejoin:miter;stroke-width:0.5;"/>
   </g>
   <g id="7dc3a56ff8c645b397aa3d94740fc7a7-5-node">
    <path clip-path="url(#pe344d51c21)" d="M 733.231975 103.149925 
C 733.788652 103.149925 734.322604 102.808482 734.716234 102.200794 
C 735.109864 101.593107 735.331034 100.768789 735.331034 99.909389 
C 735.331034 99.049989 735.109864 98.225671 734.716234 97.617984 
C 734.322604 97.010296 733.788652 96.668852 733.231975 96.668852 
C 732.675298 96.668852 732.141346 97.010296 731.747716 97.617984 
C 731.354086 98.225671 731.132915 99.049989 731.132915 99.909389 
C 731.132915 100.768789 731.354086 101.593107 731.747716 102.200794 
C 732.141346 102.808482 732.675298 103.149925 733.231975 103.149925 
z
" style="fill:#00c832;stroke:#ffffff;stroke-linejoin:miter;stroke-width:0.5;"/>
   </g>
   <g id="7dc3a56ff8c645b397aa3d94740fc7a7-7-node">
    <path clip-path="url(#pe344d51c21)" d="M 720.112853 113.276602 
C 720.66953 113.276602 721.203482 112.935159 721.597112 112.327471 
C 721.990742 111.719783 722.211912 110.895466 722.211912 110.036066 
C 722.211912 109.176665 721.990742 108.352348 721.597112 107.74466 
C 721.203482 107.136972 720.66953 106.795529 720.112853 106.795529 
C 719.556176 106.795529 719.022224 107.136972 718.628593 107.74466 
C 718.234963 108.352348 718.013793 109.176665 718.013793 110.036066 
C 718.013793 110.895466 718.234963 111.719783 718.628593 112.327471 
C 719.022224 112.935159 719.556176 113.276602 720.112853 113.276602 
z
" style="fill:#00c832;stroke:#ffffff;stroke-linejoin:miter;stroke-width:0.5;"/>
   </g>
   <g id="7dc3a56ff8c645b397aa3d94740fc7a7-11-node">
    <path clip-path="url(#pe344d51c21)" d="M 709.09279 116.922206 
L 709.09279 123.403279 
L 704.894671 123.403279 
L 704.894671 116.922206 
L 709.09279 116.922206 
z
" style="fill:#0000ff;stroke:#ffffff;stroke-linejoin:miter;stroke-width:0.5;"/>
   </g>
   <g id="7dc3a56ff8c645b397aa3d94740fc7a7-13-node">
    <path clip-path="url(#pe344d51c21)" d="M 693.874608 123.403279 
C 694.431285 123.403279 694.965237 123.061835 695.358867 122.454148 
C 695.752498 121.84646 695.973668 121.022143 695.973668 120.162742 
C 695.973668 119.303342 695.752498 118.479025 695.358867 117.871337 
C 694.965237 117.263649 694.431285 116.922206 693.874608 116.922206 
C 693.317931 116.922206 692.783979 117.263649 692.390349 117.871337 
C 691.996719 118.479025 691.775549 119.303342 691.775549 120.162742 
C 691.775549 121.022143 691.996719 121.84646 692.390349 122.454148 
C 692.783979 123.061835 693.317931 123.403279 693.874608 123.403279 
z
" style="fill:#ffff00;stroke:#ffffff;stroke-linejoin:miter;stroke-width:0.5;"/>
   </g>
   <g id="7dc3a56ff8c645b397aa3d94740fc7a7-8-node">
    <path clip-path="url(#pe344d51c21)" d="M 709.09279 96.668852 
L 709.09279 103.149925 
L 704.894671 103.149925 
L 704.894671 96.668852 
L 709.09279 96.668852 
z
" style="fill:#0000ff;stroke:#ffffff;stroke-linejoin:miter;stroke-width:0.5;"/>
   </g>
   <g id="7dc3a56ff8c645b397aa3d94740fc7a7-10-node">
    <path clip-path="url(#pe344d51c21)" d="M 693.874608 103.149925 
C 694.431285 103.149925 694.965237 102.808482 695.358867 102.200794 
C 695.752498 101.593107 695.973668 100.768789 695.973668 99.909389 
C 695.973668 99.049989 695.752498 98.225671 695.358867 97.617984 
C 694.965237 97.010296 694.431285 96.668852 693.874608 96.668852 
C 693.317931 96.668852 692.783979 97.010296 692.390349 97.617984 
C 691.996719 98.225671 691.775549 99.049989 691.775549 99.909389 
C 691.775549 100.768789 691.996719 101.593107 692.390349 102.200794 
C 692.783979 102.808482 693.317931 103.149925 693.874608 103.149925 
z
" style="fill:#ffff00;stroke:#ffffff;stroke-linejoin:miter;stroke-width:0.5;"/>
   </g>
   <g id="7dc3a56ff8c645b397aa3d94740fc7a7-6-node">
    <path clip-path="url(#pe344d51c21)" d="M 720.112853 93.023249 
C 720.66953 93.023249 721.203482 92.681806 721.597112 92.074118 
C 721.990742 91.46643 722.211912 90.642113 722.211912 89.782712 
C 722.211912 88.923312 721.990742 88.098995 721.597112 87.491307 
C 721.203482 86.883619 720.66953 86.542176 720.112853 86.542176 
C 719.556176 86.542176 719.022224 86.883619 718.628593 87.491307 
C 718.234963 88.098995 718.013793 88.923312 718.013793 89.782712 
C 718.013793 90.642113 718.234963 91.46643 718.628593 92.074118 
C 719.022224 92.681806 719.556176 93.023249 720.112853 93.023249 
z
" style="fill:#00c832;stroke:#ffffff;stroke-linejoin:miter;stroke-width:0.5;"/>
   </g>
   <g id="patch_46">
    <path d="M 654.517241 166.745455 
L 654.517241 43.2 
" style="fill:none;stroke:#ffffff;stroke-linecap:square;stroke-linejoin:miter;stroke-width:1.25;"/>
   </g>
   <g id="patch_47">
    <path d="M 798.827586 166.745455 
L 798.827586 43.2 
" style="fill:none;stroke:#ffffff;stroke-linecap:square;stroke-linejoin:miter;stroke-width:1.25;"/>
   </g>
   <g id="patch_48">
    <path d="M 654.517241 166.745455 
L 798.827586 166.745455 
" style="fill:none;stroke:#ffffff;stroke-linecap:square;stroke-linejoin:miter;stroke-width:1.25;"/>
   </g>
   <g id="patch_49">
    <path d="M 654.517241 43.2 
L 798.827586 43.2 
" style="fill:none;stroke:#ffffff;stroke-linecap:square;stroke-linejoin:miter;stroke-width:1.25;"/>
   </g>
   <g id="text_4">
    <!-- 212:1 -->
    <defs>
     <path d="M 50.34375 8.453125 
L 50.34375 0 
L 3.03125 0 
Q 2.9375 3.171875 4.046875 6.109375 
Q 5.859375 10.9375 9.828125 15.625 
Q 13.8125 20.3125 21.34375 26.46875 
Q 33.015625 36.03125 37.109375 41.625 
Q 41.21875 47.21875 41.21875 52.203125 
Q 41.21875 57.421875 37.46875 61 
Q 33.734375 64.59375 27.734375 64.59375 
Q 21.390625 64.59375 17.578125 60.78125 
Q 13.765625 56.984375 13.71875 50.25 
L 4.6875 51.171875 
Q 5.609375 61.28125 11.65625 66.578125 
Q 17.71875 71.875 27.9375 71.875 
Q 38.234375 71.875 44.234375 66.15625 
Q 50.25 60.453125 50.25 52 
Q 50.25 47.703125 48.484375 43.546875 
Q 46.734375 39.40625 42.65625 34.8125 
Q 38.578125 30.21875 29.109375 22.21875 
Q 21.1875 15.578125 18.9375 13.203125 
Q 16.703125 10.84375 15.234375 8.453125 
z
" id="ArialMT-50"/>
    </defs>
    <g style="fill:#262626;" transform="translate(711.659289 37.2)scale(0.12 -0.12)">
     <use xlink:href="#ArialMT-50"/>
     <use x="55.615234" xlink:href="#ArialMT-49"/>
     <use x="111.230469" xlink:href="#ArialMT-50"/>
     <use x="166.845703" xlink:href="#ArialMT-58"/>
     <use x="194.628906" xlink:href="#ArialMT-49"/>
    </g>
   </g>
  </g>
  <g id="axes_5">
   <g id="patch_50">
    <path d="M 827.689655 166.745455 
L 972 166.745455 
L 972 43.2 
L 827.689655 43.2 
z
" style="fill:#ffffff;"/>
   </g>
   <g id="patch_51">
    <path clip-path="url(#p5b654d6db1)" d="M 899.844828 110.036066 
L 888.206897 120.162742 
" style="stroke:#000000;stroke-linejoin:miter;stroke-width:0.5;"/>
   </g>
   <g id="patch_52">
    <path clip-path="url(#p5b654d6db1)" d="M 876.568966 99.909389 
L 864.931034 99.909389 
" style="stroke:#000000;stroke-linejoin:miter;stroke-width:0.5;"/>
   </g>
   <g id="patch_53">
    <path clip-path="url(#p5b654d6db1)" d="M 888.206897 99.909389 
L 876.568966 99.909389 
" style="stroke:#000000;stroke-linejoin:miter;stroke-width:0.5;"/>
   </g>
   <g id="patch_54">
    <path clip-path="url(#p5b654d6db1)" d="M 899.844828 110.036066 
L 888.206897 99.909389 
" style="stroke:#000000;stroke-linejoin:miter;stroke-width:0.5;"/>
   </g>
   <g id="patch_55">
    <path clip-path="url(#p5b654d6db1)" d="M 911.482759 99.909389 
L 899.844828 110.036066 
" style="stroke:#000000;stroke-linejoin:miter;stroke-width:0.5;"/>
   </g>
   <g id="patch_56">
    <path clip-path="url(#p5b654d6db1)" d="M 911.482759 99.909389 
L 899.844828 89.782712 
" style="stroke:#000000;stroke-linejoin:miter;stroke-width:0.5;"/>
   </g>
   <g id="patch_57">
    <path clip-path="url(#p5b654d6db1)" d="M 923.12069 99.909389 
L 911.482759 99.909389 
" style="stroke:#000000;stroke-linejoin:miter;stroke-width:0.5;"/>
   </g>
   <g id="patch_58">
    <path clip-path="url(#p5b654d6db1)" d="M 934.758621 99.909389 
L 923.12069 99.909389 
" style="stroke:#000000;stroke-linejoin:miter;stroke-width:0.5;"/>
   </g>
   <g id="f0a2018d99714b4b86e7fc97d9c5bba1-1-node">
    <path clip-path="url(#p5b654d6db1)" d="M 936.62069 96.668852 
L 936.62069 103.149925 
L 932.896552 103.149925 
L 932.896552 96.668852 
L 936.62069 96.668852 
z
" style="fill:#0000ff;stroke:#ffffff;stroke-linejoin:miter;stroke-width:0.5;"/>
   </g>
   <g id="f0a2018d99714b4b86e7fc97d9c5bba1-3-node">
    <path clip-path="url(#p5b654d6db1)" d="M 924.982759 96.668852 
L 924.982759 103.149925 
L 921.258621 103.149925 
L 921.258621 96.668852 
L 924.982759 96.668852 
z
" style="fill:#0000ff;stroke:#ffffff;stroke-linejoin:miter;stroke-width:0.5;"/>
   </g>
   <g id="f0a2018d99714b4b86e7fc97d9c5bba1-5-node">
    <path clip-path="url(#p5b654d6db1)" d="M 911.482759 103.149925 
C 911.976585 103.149925 912.450252 102.808482 912.79944 102.200794 
C 913.148628 101.593107 913.344828 100.768789 913.344828 99.909389 
C 913.344828 99.049989 913.148628 98.225671 912.79944 97.617984 
C 912.450252 97.010296 911.976585 96.668852 911.482759 96.668852 
C 910.988932 96.668852 910.515265 97.010296 910.166077 97.617984 
C 909.816889 98.225671 909.62069 99.049989 909.62069 99.909389 
C 909.62069 100.768789 909.816889 101.593107 910.166077 102.200794 
C 910.515265 102.808482 910.988932 103.149925 911.482759 103.149925 
z
" style="fill:#00c832;stroke:#ffffff;stroke-linejoin:miter;stroke-width:0.5;"/>
   </g>
   <g id="f0a2018d99714b4b86e7fc97d9c5bba1-7-node">
    <path clip-path="url(#p5b654d6db1)" d="M 899.844828 113.276602 
C 900.338654 113.276602 900.812321 112.935159 901.161509 112.327471 
C 901.510697 111.719783 901.706897 110.895466 901.706897 110.036066 
C 901.706897 109.176665 901.510697 108.352348 901.161509 107.74466 
C 900.812321 107.136972 900.338654 106.795529 899.844828 106.795529 
C 899.351001 106.795529 898.877334 107.136972 898.528146 107.74466 
C 898.178958 108.352348 897.982759 109.176665 897.982759 110.036066 
C 897.982759 110.895466 898.178958 111.719783 898.528146 112.327471 
C 898.877334 112.935159 899.351001 113.276602 899.844828 113.276602 
z
" style="fill:#00c832;stroke:#ffffff;stroke-linejoin:miter;stroke-width:0.5;"/>
   </g>
   <g id="f0a2018d99714b4b86e7fc97d9c5bba1-13-node">
    <path clip-path="url(#p5b654d6db1)" d="M 890.068966 116.922206 
L 890.068966 123.403279 
L 886.344828 123.403279 
L 886.344828 116.922206 
L 890.068966 116.922206 
z
" style="fill:#0000ff;stroke:#ffffff;stroke-linejoin:miter;stroke-width:0.5;"/>
   </g>
   <g id="f0a2018d99714b4b86e7fc97d9c5bba1-8-node">
    <path clip-path="url(#p5b654d6db1)" d="M 890.068966 96.668852 
L 890.068966 103.149925 
L 886.344828 103.149925 
L 886.344828 96.668852 
L 890.068966 96.668852 
z
" style="fill:#0000ff;stroke:#ffffff;stroke-linejoin:miter;stroke-width:0.5;"/>
   </g>
   <g id="f0a2018d99714b4b86e7fc97d9c5bba1-10-node">
    <path clip-path="url(#p5b654d6db1)" d="M 876.568966 103.149925 
C 877.062792 103.149925 877.536459 102.808482 877.885647 102.200794 
C 878.234835 101.593107 878.431034 100.768789 878.431034 99.909389 
C 878.431034 99.049989 878.234835 98.225671 877.885647 97.617984 
C 877.536459 97.010296 877.062792 96.668852 876.568966 96.668852 
C 876.075139 96.668852 875.601472 97.010296 875.252284 97.617984 
C 874.903096 98.225671 874.706897 99.049989 874.706897 99.909389 
C 874.706897 100.768789 874.903096 101.593107 875.252284 102.200794 
C 875.601472 102.808482 876.075139 103.149925 876.568966 103.149925 
z
" style="fill:#ffff00;stroke:#ffffff;stroke-linejoin:miter;stroke-width:0.5;"/>
   </g>
   <g id="f0a2018d99714b4b86e7fc97d9c5bba1-11-node">
    <path clip-path="url(#p5b654d6db1)" d="M 864.931034 96.668852 
L 863.068966 99.909389 
L 864.931034 103.149925 
L 866.793103 99.909389 
z
" style="fill:#c800c8;stroke:#ffffff;stroke-linejoin:miter;stroke-width:0.5;"/>
   </g>
   <g id="f0a2018d99714b4b86e7fc97d9c5bba1-6-node">
    <path clip-path="url(#p5b654d6db1)" d="M 899.844828 93.023249 
C 900.338654 93.023249 900.812321 92.681806 901.161509 92.074118 
C 901.510697 91.46643 901.706897 90.642113 901.706897 89.782712 
C 901.706897 88.923312 901.510697 88.098995 901.161509 87.491307 
C 900.812321 86.883619 900.338654 86.542176 899.844828 86.542176 
C 899.351001 86.542176 898.877334 86.883619 898.528146 87.491307 
C 898.178958 88.098995 897.982759 88.923312 897.982759 89.782712 
C 897.982759 90.642113 898.178958 91.46643 898.528146 92.074118 
C 898.877334 92.681806 899.351001 93.023249 899.844828 93.023249 
z
" style="fill:#00c832;stroke:#ffffff;stroke-linejoin:miter;stroke-width:0.5;"/>
   </g>
   <g id="patch_59">
    <path d="M 827.689655 166.745455 
L 827.689655 43.2 
" style="fill:none;stroke:#ffffff;stroke-linecap:square;stroke-linejoin:miter;stroke-width:1.25;"/>
   </g>
   <g id="patch_60">
    <path d="M 972 166.745455 
L 972 43.2 
" style="fill:none;stroke:#ffffff;stroke-linecap:square;stroke-linejoin:miter;stroke-width:1.25;"/>
   </g>
   <g id="patch_61">
    <path d="M 827.689655 166.745455 
L 972 166.745455 
" style="fill:none;stroke:#ffffff;stroke-linecap:square;stroke-linejoin:miter;stroke-width:1.25;"/>
   </g>
   <g id="patch_62">
    <path d="M 827.689655 43.2 
L 972 43.2 
" style="fill:none;stroke:#ffffff;stroke-linecap:square;stroke-linejoin:miter;stroke-width:1.25;"/>
   </g>
   <g id="text_5">
    <!-- 213:1 -->
    <defs>
     <path d="M 4.203125 18.890625 
L 12.984375 20.0625 
Q 14.5 12.59375 18.140625 9.296875 
Q 21.78125 6 27 6 
Q 33.203125 6 37.46875 10.296875 
Q 41.75 14.59375 41.75 20.953125 
Q 41.75 27 37.796875 30.921875 
Q 33.84375 34.859375 27.734375 34.859375 
Q 25.25 34.859375 21.53125 33.890625 
L 22.515625 41.609375 
Q 23.390625 41.5 23.921875 41.5 
Q 29.546875 41.5 34.03125 44.421875 
Q 38.53125 47.359375 38.53125 53.46875 
Q 38.53125 58.296875 35.25 61.46875 
Q 31.984375 64.65625 26.8125 64.65625 
Q 21.6875 64.65625 18.265625 61.421875 
Q 14.84375 58.203125 13.875 51.765625 
L 5.078125 53.328125 
Q 6.6875 62.15625 12.390625 67.015625 
Q 18.109375 71.875 26.609375 71.875 
Q 32.46875 71.875 37.390625 69.359375 
Q 42.328125 66.84375 44.9375 62.5 
Q 47.5625 58.15625 47.5625 53.265625 
Q 47.5625 48.640625 45.0625 44.828125 
Q 42.578125 41.015625 37.703125 38.765625 
Q 44.046875 37.3125 47.5625 32.6875 
Q 51.078125 28.078125 51.078125 21.140625 
Q 51.078125 11.765625 44.234375 5.25 
Q 37.40625 -1.265625 26.953125 -1.265625 
Q 17.53125 -1.265625 11.296875 4.34375 
Q 5.078125 9.96875 4.203125 18.890625 
z
" id="ArialMT-51"/>
    </defs>
    <g style="fill:#262626;" transform="translate(884.831703 37.2)scale(0.12 -0.12)">
     <use xlink:href="#ArialMT-50"/>
     <use x="55.615234" xlink:href="#ArialMT-49"/>
     <use x="111.230469" xlink:href="#ArialMT-51"/>
     <use x="166.845703" xlink:href="#ArialMT-58"/>
     <use x="194.628906" xlink:href="#ArialMT-49"/>
    </g>
   </g>
  </g>
  <g id="axes_6">
   <g id="patch_63">
    <path d="M 135 315 
L 279.310345 315 
L 279.310345 191.454545 
L 135 191.454545 
z
" style="fill:#ffffff;"/>
   </g>
   <g id="patch_64">
    <path clip-path="url(#p661f999218)" d="M 187.476489 268.417288 
L 174.357367 268.417288 
" style="stroke:#000000;stroke-linejoin:miter;stroke-width:0.5;"/>
   </g>
   <g id="patch_65">
    <path clip-path="url(#p661f999218)" d="M 200.595611 258.290611 
L 187.476489 268.417288 
" style="stroke:#000000;stroke-linejoin:miter;stroke-width:0.5;"/>
   </g>
   <g id="patch_66">
    <path clip-path="url(#p661f999218)" d="M 200.595611 258.290611 
L 187.476489 248.163934 
" style="stroke:#000000;stroke-linejoin:miter;stroke-width:0.5;"/>
   </g>
   <g id="patch_67">
    <path clip-path="url(#p661f999218)" d="M 213.714734 248.163934 
L 200.595611 258.290611 
" style="stroke:#000000;stroke-linejoin:miter;stroke-width:0.5;"/>
   </g>
   <g id="patch_68">
    <path clip-path="url(#p661f999218)" d="M 213.714734 248.163934 
L 200.595611 238.037258 
" style="stroke:#000000;stroke-linejoin:miter;stroke-width:0.5;"/>
   </g>
   <g id="patch_69">
    <path clip-path="url(#p661f999218)" d="M 226.833856 248.163934 
L 213.714734 248.163934 
" style="stroke:#000000;stroke-linejoin:miter;stroke-width:0.5;"/>
   </g>
   <g id="patch_70">
    <path clip-path="url(#p661f999218)" d="M 239.952978 248.163934 
L 226.833856 248.163934 
" style="stroke:#000000;stroke-linejoin:miter;stroke-width:0.5;"/>
   </g>
   <g id="patch_71">
    <path clip-path="url(#p661f999218)" d="M 239.952978 248.163934 
L 239.952978 238.037258 
" style="stroke:#000000;stroke-linejoin:miter;stroke-width:0.5;"/>
   </g>
   <g id="3dc04550f0ab44489ead10baa58b0bfd-1-node">
    <path clip-path="url(#p661f999218)" d="M 242.052038 244.923398 
L 242.052038 251.404471 
L 237.853918 251.404471 
L 237.853918 244.923398 
L 242.052038 244.923398 
z
" style="fill:#0000ff;stroke:#ffffff;stroke-linejoin:miter;stroke-width:0.5;"/>
   </g>
   <g id="3dc04550f0ab44489ead10baa58b0bfd-4-node">
    <path clip-path="url(#p661f999218)" d="M 228.932915 244.923398 
L 228.932915 251.404471 
L 224.734796 251.404471 
L 224.734796 244.923398 
L 228.932915 244.923398 
z
" style="fill:#0000ff;stroke:#ffffff;stroke-linejoin:miter;stroke-width:0.5;"/>
   </g>
   <g id="3dc04550f0ab44489ead10baa58b0bfd-6-node">
    <path clip-path="url(#p661f999218)" d="M 213.714734 251.404471 
C 214.271411 251.404471 214.805363 251.063028 215.198993 250.45534 
C 215.592623 249.847652 215.813793 249.023335 215.813793 248.163934 
C 215.813793 247.304534 215.592623 246.480217 215.198993 245.872529 
C 214.805363 245.264841 214.271411 244.923398 213.714734 244.923398 
C 213.158056 244.923398 212.624104 245.264841 212.230474 245.872529 
C 211.836844 246.480217 211.615674 247.304534 211.615674 248.163934 
C 211.615674 249.023335 211.836844 249.847652 212.230474 250.45534 
C 212.624104 251.063028 213.158056 251.404471 213.714734 251.404471 
z
" style="fill:#00c832;stroke:#ffffff;stroke-linejoin:miter;stroke-width:0.5;"/>
   </g>
   <g id="3dc04550f0ab44489ead10baa58b0bfd-8-node">
    <path clip-path="url(#p661f999218)" d="M 200.595611 261.531148 
C 201.152288 261.531148 201.68624 261.189704 202.079871 260.582016 
C 202.473501 259.974329 202.694671 259.150011 202.694671 258.290611 
C 202.694671 257.431211 202.473501 256.606893 202.079871 255.999206 
C 201.68624 255.391518 201.152288 255.050075 200.595611 255.050075 
C 200.038934 255.050075 199.504982 255.391518 199.111352 255.999206 
C 198.717722 256.606893 198.496552 257.431211 198.496552 258.290611 
C 198.496552 259.150011 198.717722 259.974329 199.111352 260.582016 
C 199.504982 261.189704 200.038934 261.531148 200.595611 261.531148 
z
" style="fill:#00c832;stroke:#ffffff;stroke-linejoin:miter;stroke-width:0.5;"/>
   </g>
   <g id="3dc04550f0ab44489ead10baa58b0bfd-11-node">
    <path clip-path="url(#p661f999218)" d="M 189.575549 265.176751 
L 189.575549 271.657824 
L 185.377429 271.657824 
L 185.377429 265.176751 
L 189.575549 265.176751 
z
" style="fill:#0000ff;stroke:#ffffff;stroke-linejoin:miter;stroke-width:0.5;"/>
   </g>
   <g id="3dc04550f0ab44489ead10baa58b0bfd-13-node">
    <path clip-path="url(#p661f999218)" d="M 174.357367 271.657824 
C 174.914044 271.657824 175.447996 271.316381 175.841626 270.708693 
C 176.235256 270.101005 176.456426 269.276688 176.456426 268.417288 
C 176.456426 267.557887 176.235256 266.73357 175.841626 266.125882 
C 175.447996 265.518194 174.914044 265.176751 174.357367 265.176751 
C 173.80069 265.176751 173.266738 265.518194 172.873108 266.125882 
C 172.479477 266.73357 172.258307 267.557887 172.258307 268.417288 
C 172.258307 269.276688 172.479477 270.101005 172.873108 270.708693 
C 173.266738 271.316381 173.80069 271.657824 174.357367 271.657824 
z
" style="fill:#ffff00;stroke:#ffffff;stroke-linejoin:miter;stroke-width:0.5;"/>
   </g>
   <g id="3dc04550f0ab44489ead10baa58b0bfd-9-node">
    <path clip-path="url(#p661f999218)" d="M 189.575549 244.923398 
L 189.575549 251.404471 
L 185.377429 251.404471 
L 185.377429 244.923398 
L 189.575549 244.923398 
z
" style="fill:#0000ff;stroke:#ffffff;stroke-linejoin:miter;stroke-width:0.5;"/>
   </g>
   <g id="3dc04550f0ab44489ead10baa58b0bfd-7-node">
    <path clip-path="url(#p661f999218)" d="M 200.595611 241.277794 
C 201.152288 241.277794 201.68624 240.936351 202.079871 240.328663 
C 202.473501 239.720975 202.694671 238.896658 202.694671 238.037258 
C 202.694671 237.177857 202.473501 236.35354 202.079871 235.745852 
C 201.68624 235.138165 201.152288 234.796721 200.595611 234.796721 
C 200.038934 234.796721 199.504982 235.138165 199.111352 235.745852 
C 198.717722 236.35354 198.496552 237.177857 198.496552 238.037258 
C 198.496552 238.896658 198.717722 239.720975 199.111352 240.328663 
C 199.504982 240.936351 200.038934 241.277794 200.595611 241.277794 
z
" style="fill:#00c832;stroke:#ffffff;stroke-linejoin:miter;stroke-width:0.5;"/>
   </g>
   <g id="3dc04550f0ab44489ead10baa58b0bfd-3-node">
    <path clip-path="url(#p661f999218)" d="M 239.952978 234.796721 
L 238.135139 239.657526 
L 241.770817 239.657526 
z
" style="fill:#ff0000;stroke:#ffffff;stroke-linejoin:miter;stroke-width:0.5;"/>
   </g>
   <g id="patch_72">
    <path d="M 135 315 
L 135 191.454545 
" style="fill:none;stroke:#ffffff;stroke-linecap:square;stroke-linejoin:miter;stroke-width:1.25;"/>
   </g>
   <g id="patch_73">
    <path d="M 279.310345 315 
L 279.310345 191.454545 
" style="fill:none;stroke:#ffffff;stroke-linecap:square;stroke-linejoin:miter;stroke-width:1.25;"/>
   </g>
   <g id="patch_74">
    <path d="M 135 315 
L 279.310345 315 
" style="fill:none;stroke:#ffffff;stroke-linecap:square;stroke-linejoin:miter;stroke-width:1.25;"/>
   </g>
   <g id="patch_75">
    <path d="M 135 191.454545 
L 279.310345 191.454545 
" style="fill:none;stroke:#ffffff;stroke-linecap:square;stroke-linejoin:miter;stroke-width:1.25;"/>
   </g>
   <g id="text_6">
    <!-- 249:1 -->
    <defs>
     <path d="M 5.46875 16.546875 
L 13.921875 17.328125 
Q 14.984375 11.375 18.015625 8.6875 
Q 21.046875 6 25.78125 6 
Q 29.828125 6 32.875 7.859375 
Q 35.9375 9.71875 37.890625 12.8125 
Q 39.84375 15.921875 41.15625 21.1875 
Q 42.484375 26.46875 42.484375 31.9375 
Q 42.484375 32.515625 42.4375 33.6875 
Q 39.796875 29.5 35.234375 26.875 
Q 30.671875 24.265625 25.34375 24.265625 
Q 16.453125 24.265625 10.296875 30.703125 
Q 4.15625 37.15625 4.15625 47.703125 
Q 4.15625 58.59375 10.578125 65.234375 
Q 17 71.875 26.65625 71.875 
Q 33.640625 71.875 39.421875 68.109375 
Q 45.21875 64.359375 48.21875 57.390625 
Q 51.21875 50.4375 51.21875 37.25 
Q 51.21875 23.53125 48.234375 15.40625 
Q 45.265625 7.28125 39.375 3.03125 
Q 33.5 -1.21875 25.59375 -1.21875 
Q 17.1875 -1.21875 11.859375 3.4375 
Q 6.546875 8.109375 5.46875 16.546875 
z
M 41.453125 48.140625 
Q 41.453125 55.71875 37.421875 60.15625 
Q 33.40625 64.59375 27.734375 64.59375 
Q 21.875 64.59375 17.53125 59.8125 
Q 13.1875 55.03125 13.1875 47.40625 
Q 13.1875 40.578125 17.3125 36.296875 
Q 21.4375 32.03125 27.484375 32.03125 
Q 33.59375 32.03125 37.515625 36.296875 
Q 41.453125 40.578125 41.453125 48.140625 
z
" id="ArialMT-57"/>
    </defs>
    <g style="fill:#262626;" transform="translate(192.142047 185.454545)scale(0.12 -0.12)">
     <use xlink:href="#ArialMT-50"/>
     <use x="55.615234" xlink:href="#ArialMT-52"/>
     <use x="111.230469" xlink:href="#ArialMT-57"/>
     <use x="166.845703" xlink:href="#ArialMT-58"/>
     <use x="194.628906" xlink:href="#ArialMT-49"/>
    </g>
   </g>
  </g>
  <g id="axes_7">
   <g id="patch_76">
    <path d="M 308.172414 315 
L 452.482759 315 
L 452.482759 191.454545 
L 308.172414 191.454545 
z
" style="fill:#ffffff;"/>
   </g>
   <g id="patch_77">
    <path clip-path="url(#pcdf0ff671e)" d="M 368.689655 268.417288 
L 357.051724 268.417288 
" style="stroke:#000000;stroke-linejoin:miter;stroke-width:0.5;"/>
   </g>
   <g id="patch_78">
    <path clip-path="url(#pcdf0ff671e)" d="M 380.327586 258.290611 
L 368.689655 268.417288 
" style="stroke:#000000;stroke-linejoin:miter;stroke-width:0.5;"/>
   </g>
   <g id="patch_79">
    <path clip-path="url(#pcdf0ff671e)" d="M 357.051724 248.163934 
L 345.413793 248.163934 
" style="stroke:#000000;stroke-linejoin:miter;stroke-width:0.5;"/>
   </g>
   <g id="patch_80">
    <path clip-path="url(#pcdf0ff671e)" d="M 368.689655 248.163934 
L 357.051724 248.163934 
" style="stroke:#000000;stroke-linejoin:miter;stroke-width:0.5;"/>
   </g>
   <g id="patch_81">
    <path clip-path="url(#pcdf0ff671e)" d="M 380.327586 258.290611 
L 368.689655 248.163934 
" style="stroke:#000000;stroke-linejoin:miter;stroke-width:0.5;"/>
   </g>
   <g id="patch_82">
    <path clip-path="url(#pcdf0ff671e)" d="M 391.965517 248.163934 
L 380.327586 258.290611 
" style="stroke:#000000;stroke-linejoin:miter;stroke-width:0.5;"/>
   </g>
   <g id="patch_83">
    <path clip-path="url(#pcdf0ff671e)" d="M 391.965517 248.163934 
L 380.327586 238.037258 
" style="stroke:#000000;stroke-linejoin:miter;stroke-width:0.5;"/>
   </g>
   <g id="patch_84">
    <path clip-path="url(#pcdf0ff671e)" d="M 403.603448 248.163934 
L 391.965517 248.163934 
" style="stroke:#000000;stroke-linejoin:miter;stroke-width:0.5;"/>
   </g>
   <g id="patch_85">
    <path clip-path="url(#pcdf0ff671e)" d="M 415.241379 248.163934 
L 403.603448 248.163934 
" style="stroke:#000000;stroke-linejoin:miter;stroke-width:0.5;"/>
   </g>
   <g id="94e0efd9df5d405e8835cbda73914daf-1-node">
    <path clip-path="url(#pcdf0ff671e)" d="M 417.103448 244.923398 
L 417.103448 251.404471 
L 413.37931 251.404471 
L 413.37931 244.923398 
L 417.103448 244.923398 
z
" style="fill:#0000ff;stroke:#ffffff;stroke-linejoin:miter;stroke-width:0.5;"/>
   </g>
   <g id="94e0efd9df5d405e8835cbda73914daf-3-node">
    <path clip-path="url(#pcdf0ff671e)" d="M 405.465517 244.923398 
L 405.465517 251.404471 
L 401.741379 251.404471 
L 401.741379 244.923398 
L 405.465517 244.923398 
z
" style="fill:#0000ff;stroke:#ffffff;stroke-linejoin:miter;stroke-width:0.5;"/>
   </g>
   <g id="94e0efd9df5d405e8835cbda73914daf-5-node">
    <path clip-path="url(#pcdf0ff671e)" d="M 391.965517 251.404471 
C 392.459344 251.404471 392.933011 251.063028 393.282199 250.45534 
C 393.631387 249.847652 393.827586 249.023335 393.827586 248.163934 
C 393.827586 247.304534 393.631387 246.480217 393.282199 245.872529 
C 392.933011 245.264841 392.459344 244.923398 391.965517 244.923398 
C 391.471691 244.923398 390.998024 245.264841 390.648836 245.872529 
C 390.299648 246.480217 390.103448 247.304534 390.103448 248.163934 
C 390.103448 249.023335 390.299648 249.847652 390.648836 250.45534 
C 390.998024 251.063028 391.471691 251.404471 391.965517 251.404471 
z
" style="fill:#00c832;stroke:#ffffff;stroke-linejoin:miter;stroke-width:0.5;"/>
   </g>
   <g id="94e0efd9df5d405e8835cbda73914daf-7-node">
    <path clip-path="url(#pcdf0ff671e)" d="M 380.327586 261.531148 
C 380.821413 261.531148 381.29508 261.189704 381.644268 260.582016 
C 381.993456 259.974329 382.189655 259.150011 382.189655 258.290611 
C 382.189655 257.431211 381.993456 256.606893 381.644268 255.999206 
C 381.29508 255.391518 380.821413 255.050075 380.327586 255.050075 
C 379.83376 255.050075 379.360093 255.391518 379.010905 255.999206 
C 378.661717 256.606893 378.465517 257.431211 378.465517 258.290611 
C 378.465517 259.150011 378.661717 259.974329 379.010905 260.582016 
C 379.360093 261.189704 379.83376 261.531148 380.327586 261.531148 
z
" style="fill:#00c832;stroke:#ffffff;stroke-linejoin:miter;stroke-width:0.5;"/>
   </g>
   <g id="94e0efd9df5d405e8835cbda73914daf-13-node">
    <path clip-path="url(#pcdf0ff671e)" d="M 370.551724 265.176751 
L 370.551724 271.657824 
L 366.827586 271.657824 
L 366.827586 265.176751 
L 370.551724 265.176751 
z
" style="fill:#0000ff;stroke:#ffffff;stroke-linejoin:miter;stroke-width:0.5;"/>
   </g>
   <g id="94e0efd9df5d405e8835cbda73914daf-15-node">
    <path clip-path="url(#pcdf0ff671e)" d="M 357.051724 271.657824 
C 357.545551 271.657824 358.019218 271.316381 358.368406 270.708693 
C 358.717594 270.101005 358.913793 269.276688 358.913793 268.417288 
C 358.913793 267.557887 358.717594 266.73357 358.368406 266.125882 
C 358.019218 265.518194 357.545551 265.176751 357.051724 265.176751 
C 356.557898 265.176751 356.084231 265.518194 355.735043 266.125882 
C 355.385855 266.73357 355.189655 267.557887 355.189655 268.417288 
C 355.189655 269.276688 355.385855 270.101005 355.735043 270.708693 
C 356.084231 271.316381 356.557898 271.657824 357.051724 271.657824 
z
" style="fill:#ffff00;stroke:#ffffff;stroke-linejoin:miter;stroke-width:0.5;"/>
   </g>
   <g id="94e0efd9df5d405e8835cbda73914daf-8-node">
    <path clip-path="url(#pcdf0ff671e)" d="M 370.551724 244.923398 
L 370.551724 251.404471 
L 366.827586 251.404471 
L 366.827586 244.923398 
L 370.551724 244.923398 
z
" style="fill:#0000ff;stroke:#ffffff;stroke-linejoin:miter;stroke-width:0.5;"/>
   </g>
   <g id="94e0efd9df5d405e8835cbda73914daf-10-node">
    <path clip-path="url(#pcdf0ff671e)" d="M 357.051724 251.404471 
C 357.545551 251.404471 358.019218 251.063028 358.368406 250.45534 
C 358.717594 249.847652 358.913793 249.023335 358.913793 248.163934 
C 358.913793 247.304534 358.717594 246.480217 358.368406 245.872529 
C 358.019218 245.264841 357.545551 244.923398 357.051724 244.923398 
C 356.557898 244.923398 356.084231 245.264841 355.735043 245.872529 
C 355.385855 246.480217 355.189655 247.304534 355.189655 248.163934 
C 355.189655 249.023335 355.385855 249.847652 355.735043 250.45534 
C 356.084231 251.063028 356.557898 251.404471 357.051724 251.404471 
z
" style="fill:#ffff00;stroke:#ffffff;stroke-linejoin:miter;stroke-width:0.5;"/>
   </g>
   <g id="94e0efd9df5d405e8835cbda73914daf-11-node">
    <path clip-path="url(#pcdf0ff671e)" d="M 345.413793 244.923398 
L 343.551724 248.163934 
L 345.413793 251.404471 
L 347.275862 248.163934 
z
" style="fill:#c800c8;stroke:#ffffff;stroke-linejoin:miter;stroke-width:0.5;"/>
   </g>
   <g id="94e0efd9df5d405e8835cbda73914daf-6-node">
    <path clip-path="url(#pcdf0ff671e)" d="M 380.327586 241.277794 
C 380.821413 241.277794 381.29508 240.936351 381.644268 240.328663 
C 381.993456 239.720975 382.189655 238.896658 382.189655 238.037258 
C 382.189655 237.177857 381.993456 236.35354 381.644268 235.745852 
C 381.29508 235.138165 380.821413 234.796721 380.327586 234.796721 
C 379.83376 234.796721 379.360093 235.138165 379.010905 235.745852 
C 378.661717 236.35354 378.465517 237.177857 378.465517 238.037258 
C 378.465517 238.896658 378.661717 239.720975 379.010905 240.328663 
C 379.360093 240.936351 379.83376 241.277794 380.327586 241.277794 
z
" style="fill:#00c832;stroke:#ffffff;stroke-linejoin:miter;stroke-width:0.5;"/>
   </g>
   <g id="patch_86">
    <path d="M 308.172414 315 
L 308.172414 191.454545 
" style="fill:none;stroke:#ffffff;stroke-linecap:square;stroke-linejoin:miter;stroke-width:1.25;"/>
   </g>
   <g id="patch_87">
    <path d="M 452.482759 315 
L 452.482759 191.454545 
" style="fill:none;stroke:#ffffff;stroke-linecap:square;stroke-linejoin:miter;stroke-width:1.25;"/>
   </g>
   <g id="patch_88">
    <path d="M 308.172414 315 
L 452.482759 315 
" style="fill:none;stroke:#ffffff;stroke-linecap:square;stroke-linejoin:miter;stroke-width:1.25;"/>
   </g>
   <g id="patch_89">
    <path d="M 308.172414 191.454545 
L 452.482759 191.454545 
" style="fill:none;stroke:#ffffff;stroke-linecap:square;stroke-linejoin:miter;stroke-width:1.25;"/>
   </g>
   <g id="text_7">
    <!-- 287:1 -->
    <defs>
     <path d="M 4.734375 62.203125 
L 4.734375 70.65625 
L 51.078125 70.65625 
L 51.078125 63.8125 
Q 44.234375 56.546875 37.515625 44.484375 
Q 30.8125 32.421875 27.15625 19.671875 
Q 24.515625 10.6875 23.78125 0 
L 14.75 0 
Q 14.890625 8.453125 18.0625 20.40625 
Q 21.234375 32.375 27.171875 43.484375 
Q 33.109375 54.59375 39.796875 62.203125 
z
" id="ArialMT-55"/>
    </defs>
    <g style="fill:#262626;" transform="translate(365.314461 185.454545)scale(0.12 -0.12)">
     <use xlink:href="#ArialMT-50"/>
     <use x="55.615234" xlink:href="#ArialMT-56"/>
     <use x="111.230469" xlink:href="#ArialMT-55"/>
     <use x="166.845703" xlink:href="#ArialMT-58"/>
     <use x="194.628906" xlink:href="#ArialMT-49"/>
    </g>
   </g>
  </g>
  <g id="axes_8">
   <g id="patch_90">
    <path d="M 481.344828 315 
L 625.655172 315 
L 625.655172 191.454545 
L 481.344828 191.454545 
z
" style="fill:#ffffff;"/>
   </g>
   <g id="patch_91">
    <path clip-path="url(#p0ee5467b84)" d="M 533.821317 268.417288 
L 520.702194 268.417288 
" style="stroke:#000000;stroke-linejoin:miter;stroke-width:0.5;"/>
   </g>
   <g id="patch_92">
    <path clip-path="url(#p0ee5467b84)" d="M 546.940439 258.290611 
L 533.821317 268.417288 
" style="stroke:#000000;stroke-linejoin:miter;stroke-width:0.5;"/>
   </g>
   <g id="patch_93">
    <path clip-path="url(#p0ee5467b84)" d="M 533.821317 248.163934 
L 520.702194 248.163934 
" style="stroke:#000000;stroke-linejoin:miter;stroke-width:0.5;"/>
   </g>
   <g id="patch_94">
    <path clip-path="url(#p0ee5467b84)" d="M 546.940439 258.290611 
L 533.821317 248.163934 
" style="stroke:#000000;stroke-linejoin:miter;stroke-width:0.5;"/>
   </g>
   <g id="patch_95">
    <path clip-path="url(#p0ee5467b84)" d="M 560.059561 248.163934 
L 546.940439 258.290611 
" style="stroke:#000000;stroke-linejoin:miter;stroke-width:0.5;"/>
   </g>
   <g id="patch_96">
    <path clip-path="url(#p0ee5467b84)" d="M 560.059561 248.163934 
L 546.940439 238.037258 
" style="stroke:#000000;stroke-linejoin:miter;stroke-width:0.5;"/>
   </g>
   <g id="patch_97">
    <path clip-path="url(#p0ee5467b84)" d="M 573.178683 248.163934 
L 560.059561 248.163934 
" style="stroke:#000000;stroke-linejoin:miter;stroke-width:0.5;"/>
   </g>
   <g id="patch_98">
    <path clip-path="url(#p0ee5467b84)" d="M 586.297806 248.163934 
L 573.178683 248.163934 
" style="stroke:#000000;stroke-linejoin:miter;stroke-width:0.5;"/>
   </g>
   <g id="patch_99">
    <path clip-path="url(#p0ee5467b84)" d="M 586.297806 248.163934 
L 586.297806 238.037258 
" style="stroke:#000000;stroke-linejoin:miter;stroke-width:0.5;"/>
   </g>
   <g id="80824bb1f5d842168c15968bc252bb33-1-node">
    <path clip-path="url(#p0ee5467b84)" d="M 588.396865 244.923398 
L 588.396865 251.404471 
L 584.198746 251.404471 
L 584.198746 244.923398 
L 588.396865 244.923398 
z
" style="fill:#0000ff;stroke:#ffffff;stroke-linejoin:miter;stroke-width:0.5;"/>
   </g>
   <g id="80824bb1f5d842168c15968bc252bb33-4-node">
    <path clip-path="url(#p0ee5467b84)" d="M 575.277743 244.923398 
L 575.277743 251.404471 
L 571.079624 251.404471 
L 571.079624 244.923398 
L 575.277743 244.923398 
z
" style="fill:#0000ff;stroke:#ffffff;stroke-linejoin:miter;stroke-width:0.5;"/>
   </g>
   <g id="80824bb1f5d842168c15968bc252bb33-6-node">
    <path clip-path="url(#p0ee5467b84)" d="M 560.059561 251.404471 
C 560.616238 251.404471 561.15019 251.063028 561.54382 250.45534 
C 561.937451 249.847652 562.158621 249.023335 562.158621 248.163934 
C 562.158621 247.304534 561.937451 246.480217 561.54382 245.872529 
C 561.15019 245.264841 560.616238 244.923398 560.059561 244.923398 
C 559.502884 244.923398 558.968932 245.264841 558.575302 245.872529 
C 558.181672 246.480217 557.960502 247.304534 557.960502 248.163934 
C 557.960502 249.023335 558.181672 249.847652 558.575302 250.45534 
C 558.968932 251.063028 559.502884 251.404471 560.059561 251.404471 
z
" style="fill:#00c832;stroke:#ffffff;stroke-linejoin:miter;stroke-width:0.5;"/>
   </g>
   <g id="80824bb1f5d842168c15968bc252bb33-8-node">
    <path clip-path="url(#p0ee5467b84)" d="M 546.940439 261.531148 
C 547.497116 261.531148 548.031068 261.189704 548.424698 260.582016 
C 548.818328 259.974329 549.039498 259.150011 549.039498 258.290611 
C 549.039498 257.431211 548.818328 256.606893 548.424698 255.999206 
C 548.031068 255.391518 547.497116 255.050075 546.940439 255.050075 
C 546.383762 255.050075 545.84981 255.391518 545.45618 255.999206 
C 545.062549 256.606893 544.841379 257.431211 544.841379 258.290611 
C 544.841379 259.150011 545.062549 259.974329 545.45618 260.582016 
C 545.84981 261.189704 546.383762 261.531148 546.940439 261.531148 
z
" style="fill:#00c832;stroke:#ffffff;stroke-linejoin:miter;stroke-width:0.5;"/>
   </g>
   <g id="80824bb1f5d842168c15968bc252bb33-12-node">
    <path clip-path="url(#p0ee5467b84)" d="M 535.920376 265.176751 
L 535.920376 271.657824 
L 531.722257 271.657824 
L 531.722257 265.176751 
L 535.920376 265.176751 
z
" style="fill:#0000ff;stroke:#ffffff;stroke-linejoin:miter;stroke-width:0.5;"/>
   </g>
   <g id="80824bb1f5d842168c15968bc252bb33-14-node">
    <path clip-path="url(#p0ee5467b84)" d="M 520.702194 271.657824 
C 521.258871 271.657824 521.792823 271.316381 522.186454 270.708693 
C 522.580084 270.101005 522.801254 269.276688 522.801254 268.417288 
C 522.801254 267.557887 522.580084 266.73357 522.186454 266.125882 
C 521.792823 265.518194 521.258871 265.176751 520.702194 265.176751 
C 520.145517 265.176751 519.611565 265.518194 519.217935 266.125882 
C 518.824305 266.73357 518.603135 267.557887 518.603135 268.417288 
C 518.603135 269.276688 518.824305 270.101005 519.217935 270.708693 
C 519.611565 271.316381 520.145517 271.657824 520.702194 271.657824 
z
" style="fill:#ffff00;stroke:#ffffff;stroke-linejoin:miter;stroke-width:0.5;"/>
   </g>
   <g id="80824bb1f5d842168c15968bc252bb33-9-node">
    <path clip-path="url(#p0ee5467b84)" d="M 535.920376 244.923398 
L 535.920376 251.404471 
L 531.722257 251.404471 
L 531.722257 244.923398 
L 535.920376 244.923398 
z
" style="fill:#0000ff;stroke:#ffffff;stroke-linejoin:miter;stroke-width:0.5;"/>
   </g>
   <g id="80824bb1f5d842168c15968bc252bb33-11-node">
    <path clip-path="url(#p0ee5467b84)" d="M 520.702194 251.404471 
C 521.258871 251.404471 521.792823 251.063028 522.186454 250.45534 
C 522.580084 249.847652 522.801254 249.023335 522.801254 248.163934 
C 522.801254 247.304534 522.580084 246.480217 522.186454 245.872529 
C 521.792823 245.264841 521.258871 244.923398 520.702194 244.923398 
C 520.145517 244.923398 519.611565 245.264841 519.217935 245.872529 
C 518.824305 246.480217 518.603135 247.304534 518.603135 248.163934 
C 518.603135 249.023335 518.824305 249.847652 519.217935 250.45534 
C 519.611565 251.063028 520.145517 251.404471 520.702194 251.404471 
z
" style="fill:#ffff00;stroke:#ffffff;stroke-linejoin:miter;stroke-width:0.5;"/>
   </g>
   <g id="80824bb1f5d842168c15968bc252bb33-7-node">
    <path clip-path="url(#p0ee5467b84)" d="M 546.940439 241.277794 
C 547.497116 241.277794 548.031068 240.936351 548.424698 240.328663 
C 548.818328 239.720975 549.039498 238.896658 549.039498 238.037258 
C 549.039498 237.177857 548.818328 236.35354 548.424698 235.745852 
C 548.031068 235.138165 547.497116 234.796721 546.940439 234.796721 
C 546.383762 234.796721 545.84981 235.138165 545.45618 235.745852 
C 545.062549 236.35354 544.841379 237.177857 544.841379 238.037258 
C 544.841379 238.896658 545.062549 239.720975 545.45618 240.328663 
C 545.84981 240.936351 546.383762 241.277794 546.940439 241.277794 
z
" style="fill:#00c832;stroke:#ffffff;stroke-linejoin:miter;stroke-width:0.5;"/>
   </g>
   <g id="80824bb1f5d842168c15968bc252bb33-3-node">
    <path clip-path="url(#p0ee5467b84)" d="M 586.297806 234.796721 
L 584.479967 239.657526 
L 588.115645 239.657526 
z
" style="fill:#ff0000;stroke:#ffffff;stroke-linejoin:miter;stroke-width:0.5;"/>
   </g>
   <g id="patch_100">
    <path d="M 481.344828 315 
L 481.344828 191.454545 
" style="fill:none;stroke:#ffffff;stroke-linecap:square;stroke-linejoin:miter;stroke-width:1.25;"/>
   </g>
   <g id="patch_101">
    <path d="M 625.655172 315 
L 625.655172 191.454545 
" style="fill:none;stroke:#ffffff;stroke-linecap:square;stroke-linejoin:miter;stroke-width:1.25;"/>
   </g>
   <g id="patch_102">
    <path d="M 481.344828 315 
L 625.655172 315 
" style="fill:none;stroke:#ffffff;stroke-linecap:square;stroke-linejoin:miter;stroke-width:1.25;"/>
   </g>
   <g id="patch_103">
    <path d="M 481.344828 191.454545 
L 625.655172 191.454545 
" style="fill:none;stroke:#ffffff;stroke-linecap:square;stroke-linejoin:miter;stroke-width:1.25;"/>
   </g>
   <g id="text_8">
    <!-- 328:1 -->
    <g style="fill:#262626;" transform="translate(538.486875 185.454545)scale(0.12 -0.12)">
     <use xlink:href="#ArialMT-51"/>
     <use x="55.615234" xlink:href="#ArialMT-50"/>
     <use x="111.230469" xlink:href="#ArialMT-56"/>
     <use x="166.845703" xlink:href="#ArialMT-58"/>
     <use x="194.628906" xlink:href="#ArialMT-49"/>
    </g>
   </g>
  </g>
  <g id="axes_9">
   <g id="patch_104">
    <path d="M 654.517241 315 
L 798.827586 315 
L 798.827586 191.454545 
L 654.517241 191.454545 
z
" style="fill:#ffffff;"/>
   </g>
   <g id="patch_105">
    <path clip-path="url(#pa24e043d07)" d="M 738.310345 258.290611 
L 726.672414 268.417288 
" style="stroke:#000000;stroke-linejoin:miter;stroke-width:0.5;"/>
   </g>
   <g id="patch_106">
    <path clip-path="url(#pa24e043d07)" d="M 726.672414 248.163934 
L 715.034483 258.290611 
" style="stroke:#000000;stroke-linejoin:miter;stroke-width:0.5;"/>
   </g>
   <g id="patch_107">
    <path clip-path="url(#pa24e043d07)" d="M 703.396552 238.037258 
L 691.758621 238.037258 
" style="stroke:#000000;stroke-linejoin:miter;stroke-width:0.5;"/>
   </g>
   <g id="patch_108">
    <path clip-path="url(#pa24e043d07)" d="M 715.034483 238.037258 
L 703.396552 238.037258 
" style="stroke:#000000;stroke-linejoin:miter;stroke-width:0.5;"/>
   </g>
   <g id="patch_109">
    <path clip-path="url(#pa24e043d07)" d="M 726.672414 248.163934 
L 715.034483 238.037258 
" style="stroke:#000000;stroke-linejoin:miter;stroke-width:0.5;"/>
   </g>
   <g id="patch_110">
    <path clip-path="url(#pa24e043d07)" d="M 738.310345 258.290611 
L 726.672414 248.163934 
" style="stroke:#000000;stroke-linejoin:miter;stroke-width:0.5;"/>
   </g>
   <g id="patch_111">
    <path clip-path="url(#pa24e043d07)" d="M 749.948276 258.290611 
L 738.310345 258.290611 
" style="stroke:#000000;stroke-linejoin:miter;stroke-width:0.5;"/>
   </g>
   <g id="patch_112">
    <path clip-path="url(#pa24e043d07)" d="M 761.586207 258.290611 
L 749.948276 258.290611 
" style="stroke:#000000;stroke-linejoin:miter;stroke-width:0.5;"/>
   </g>
   <g id="patch_113">
    <path clip-path="url(#pa24e043d07)" d="M 761.586207 258.290611 
L 761.586207 248.163934 
" style="stroke:#000000;stroke-linejoin:miter;stroke-width:0.5;"/>
   </g>
   <g id="ef1c8a64e77e4e92bd2d5442cf86a264-1-node">
    <path clip-path="url(#pa24e043d07)" d="M 763.448276 255.050075 
L 763.448276 261.531148 
L 759.724138 261.531148 
L 759.724138 255.050075 
L 763.448276 255.050075 
z
" style="fill:#0000ff;stroke:#ffffff;stroke-linejoin:miter;stroke-width:0.5;"/>
   </g>
   <g id="ef1c8a64e77e4e92bd2d5442cf86a264-4-node">
    <path clip-path="url(#pa24e043d07)" d="M 751.810345 255.050075 
L 751.810345 261.531148 
L 748.086207 261.531148 
L 748.086207 255.050075 
L 751.810345 255.050075 
z
" style="fill:#0000ff;stroke:#ffffff;stroke-linejoin:miter;stroke-width:0.5;"/>
   </g>
   <g id="ef1c8a64e77e4e92bd2d5442cf86a264-6-node">
    <path clip-path="url(#pa24e043d07)" d="M 738.310345 261.531148 
C 738.804171 261.531148 739.277838 261.189704 739.627026 260.582016 
C 739.976214 259.974329 740.172414 259.150011 740.172414 258.290611 
C 740.172414 257.431211 739.976214 256.606893 739.627026 255.999206 
C 739.277838 255.391518 738.804171 255.050075 738.310345 255.050075 
C 737.816518 255.050075 737.342851 255.391518 736.993663 255.999206 
C 736.644475 256.606893 736.448276 257.431211 736.448276 258.290611 
C 736.448276 259.150011 736.644475 259.974329 736.993663 260.582016 
C 737.342851 261.189704 737.816518 261.531148 738.310345 261.531148 
z
" style="fill:#00c832;stroke:#ffffff;stroke-linejoin:miter;stroke-width:0.5;"/>
   </g>
   <g id="ef1c8a64e77e4e92bd2d5442cf86a264-15-node">
    <path clip-path="url(#pa24e043d07)" d="M 726.672414 271.657824 
C 727.16624 271.657824 727.639907 271.316381 727.989095 270.708693 
C 728.338283 270.101005 728.534483 269.276688 728.534483 268.417288 
C 728.534483 267.557887 728.338283 266.73357 727.989095 266.125882 
C 727.639907 265.518194 727.16624 265.176751 726.672414 265.176751 
C 726.178587 265.176751 725.70492 265.518194 725.355732 266.125882 
C 725.006544 266.73357 724.810345 267.557887 724.810345 268.417288 
C 724.810345 269.276688 725.006544 270.101005 725.355732 270.708693 
C 725.70492 271.316381 726.178587 271.657824 726.672414 271.657824 
z
" style="fill:#00c832;stroke:#ffffff;stroke-linejoin:miter;stroke-width:0.5;"/>
   </g>
   <g id="ef1c8a64e77e4e92bd2d5442cf86a264-7-node">
    <path clip-path="url(#pa24e043d07)" d="M 726.672414 251.404471 
C 727.16624 251.404471 727.639907 251.063028 727.989095 250.45534 
C 728.338283 249.847652 728.534483 249.023335 728.534483 248.163934 
C 728.534483 247.304534 728.338283 246.480217 727.989095 245.872529 
C 727.639907 245.264841 727.16624 244.923398 726.672414 244.923398 
C 726.178587 244.923398 725.70492 245.264841 725.355732 245.872529 
C 725.006544 246.480217 724.810345 247.304534 724.810345 248.163934 
C 724.810345 249.023335 725.006544 249.847652 725.355732 250.45534 
C 725.70492 251.063028 726.178587 251.404471 726.672414 251.404471 
z
" style="fill:#00c832;stroke:#ffffff;stroke-linejoin:miter;stroke-width:0.5;"/>
   </g>
   <g id="ef1c8a64e77e4e92bd2d5442cf86a264-13-node">
    <path clip-path="url(#pa24e043d07)" d="M 716.896552 255.050075 
L 716.896552 261.531148 
L 713.172414 261.531148 
L 713.172414 255.050075 
L 716.896552 255.050075 
z
" style="fill:#0000ff;stroke:#ffffff;stroke-linejoin:miter;stroke-width:0.5;"/>
   </g>
   <g id="ef1c8a64e77e4e92bd2d5442cf86a264-8-node">
    <path clip-path="url(#pa24e043d07)" d="M 716.896552 234.796721 
L 716.896552 241.277794 
L 713.172414 241.277794 
L 713.172414 234.796721 
L 716.896552 234.796721 
z
" style="fill:#0000ff;stroke:#ffffff;stroke-linejoin:miter;stroke-width:0.5;"/>
   </g>
   <g id="ef1c8a64e77e4e92bd2d5442cf86a264-10-node">
    <path clip-path="url(#pa24e043d07)" d="M 703.396552 241.277794 
C 703.890378 241.277794 704.364045 240.936351 704.713233 240.328663 
C 705.062421 239.720975 705.258621 238.896658 705.258621 238.037258 
C 705.258621 237.177857 705.062421 236.35354 704.713233 235.745852 
C 704.364045 235.138165 703.890378 234.796721 703.396552 234.796721 
C 702.902725 234.796721 702.429058 235.138165 702.07987 235.745852 
C 701.730682 236.35354 701.534483 237.177857 701.534483 238.037258 
C 701.534483 238.896658 701.730682 239.720975 702.07987 240.328663 
C 702.429058 240.936351 702.902725 241.277794 703.396552 241.277794 
z
" style="fill:#ffff00;stroke:#ffffff;stroke-linejoin:miter;stroke-width:0.5;"/>
   </g>
   <g id="ef1c8a64e77e4e92bd2d5442cf86a264-11-node">
    <path clip-path="url(#pa24e043d07)" d="M 691.758621 234.796721 
L 689.896552 238.037258 
L 691.758621 241.277794 
L 693.62069 238.037258 
z
" style="fill:#c800c8;stroke:#ffffff;stroke-linejoin:miter;stroke-width:0.5;"/>
   </g>
   <g id="ef1c8a64e77e4e92bd2d5442cf86a264-3-node">
    <path clip-path="url(#pa24e043d07)" d="M 761.586207 244.923398 
L 759.973608 249.784203 
L 763.198806 249.784203 
z
" style="fill:#ff0000;stroke:#ffffff;stroke-linejoin:miter;stroke-width:0.5;"/>
   </g>
   <g id="patch_114">
    <path d="M 654.517241 315 
L 654.517241 191.454545 
" style="fill:none;stroke:#ffffff;stroke-linecap:square;stroke-linejoin:miter;stroke-width:1.25;"/>
   </g>
   <g id="patch_115">
    <path d="M 798.827586 315 
L 798.827586 191.454545 
" style="fill:none;stroke:#ffffff;stroke-linecap:square;stroke-linejoin:miter;stroke-width:1.25;"/>
   </g>
   <g id="patch_116">
    <path d="M 654.517241 315 
L 798.827586 315 
" style="fill:none;stroke:#ffffff;stroke-linecap:square;stroke-linejoin:miter;stroke-width:1.25;"/>
   </g>
   <g id="patch_117">
    <path d="M 654.517241 191.454545 
L 798.827586 191.454545 
" style="fill:none;stroke:#ffffff;stroke-linecap:square;stroke-linejoin:miter;stroke-width:1.25;"/>
   </g>
   <g id="text_9">
    <!-- 344:1 -->
    <g style="fill:#262626;" transform="translate(711.659289 185.454545)scale(0.12 -0.12)">
     <use xlink:href="#ArialMT-51"/>
     <use x="55.615234" xlink:href="#ArialMT-52"/>
     <use x="111.230469" xlink:href="#ArialMT-52"/>
     <use x="166.845703" xlink:href="#ArialMT-58"/>
     <use x="194.628906" xlink:href="#ArialMT-49"/>
    </g>
   </g>
  </g>
  <g id="axes_10">
   <g id="patch_118">
    <path d="M 827.689655 315 
L 972 315 
L 972 191.454545 
L 827.689655 191.454545 
z
" style="fill:#ffffff;"/>
   </g>
   <g id="patch_119">
    <path clip-path="url(#p9ca3863886)" d="M 911.482759 258.290611 
L 899.844828 268.417288 
" style="stroke:#000000;stroke-linejoin:miter;stroke-width:0.5;"/>
   </g>
   <g id="patch_120">
    <path clip-path="url(#p9ca3863886)" d="M 888.206897 258.290611 
L 876.568966 258.290611 
" style="stroke:#000000;stroke-linejoin:miter;stroke-width:0.5;"/>
   </g>
   <g id="patch_121">
    <path clip-path="url(#p9ca3863886)" d="M 899.844828 248.163934 
L 888.206897 258.290611 
" style="stroke:#000000;stroke-linejoin:miter;stroke-width:0.5;"/>
   </g>
   <g id="patch_122">
    <path clip-path="url(#p9ca3863886)" d="M 876.568966 238.037258 
L 864.931034 238.037258 
" style="stroke:#000000;stroke-linejoin:miter;stroke-width:0.5;"/>
   </g>
   <g id="patch_123">
    <path clip-path="url(#p9ca3863886)" d="M 888.206897 238.037258 
L 876.568966 238.037258 
" style="stroke:#000000;stroke-linejoin:miter;stroke-width:0.5;"/>
   </g>
   <g id="patch_124">
    <path clip-path="url(#p9ca3863886)" d="M 899.844828 248.163934 
L 888.206897 238.037258 
" style="stroke:#000000;stroke-linejoin:miter;stroke-width:0.5;"/>
   </g>
   <g id="patch_125">
    <path clip-path="url(#p9ca3863886)" d="M 911.482759 258.290611 
L 899.844828 248.163934 
" style="stroke:#000000;stroke-linejoin:miter;stroke-width:0.5;"/>
   </g>
   <g id="patch_126">
    <path clip-path="url(#p9ca3863886)" d="M 923.12069 258.290611 
L 911.482759 258.290611 
" style="stroke:#000000;stroke-linejoin:miter;stroke-width:0.5;"/>
   </g>
   <g id="patch_127">
    <path clip-path="url(#p9ca3863886)" d="M 934.758621 258.290611 
L 923.12069 258.290611 
" style="stroke:#000000;stroke-linejoin:miter;stroke-width:0.5;"/>
   </g>
   <g id="patch_128">
    <path clip-path="url(#p9ca3863886)" d="M 934.758621 258.290611 
L 934.758621 248.163934 
" style="stroke:#000000;stroke-linejoin:miter;stroke-width:0.5;"/>
   </g>
   <g id="be0167ebe0ae491e8bf243981d26f34f-1-node">
    <path clip-path="url(#p9ca3863886)" d="M 936.62069 255.050075 
L 936.62069 261.531148 
L 932.896552 261.531148 
L 932.896552 255.050075 
L 936.62069 255.050075 
z
" style="fill:#0000ff;stroke:#ffffff;stroke-linejoin:miter;stroke-width:0.5;"/>
   </g>
   <g id="be0167ebe0ae491e8bf243981d26f34f-4-node">
    <path clip-path="url(#p9ca3863886)" d="M 924.982759 255.050075 
L 924.982759 261.531148 
L 921.258621 261.531148 
L 921.258621 255.050075 
L 924.982759 255.050075 
z
" style="fill:#0000ff;stroke:#ffffff;stroke-linejoin:miter;stroke-width:0.5;"/>
   </g>
   <g id="be0167ebe0ae491e8bf243981d26f34f-6-node">
    <path clip-path="url(#p9ca3863886)" d="M 911.482759 261.531148 
C 911.976585 261.531148 912.450252 261.189704 912.79944 260.582016 
C 913.148628 259.974329 913.344828 259.150011 913.344828 258.290611 
C 913.344828 257.431211 913.148628 256.606893 912.79944 255.999206 
C 912.450252 255.391518 911.976585 255.050075 911.482759 255.050075 
C 910.988932 255.050075 910.515265 255.391518 910.166077 255.999206 
C 909.816889 256.606893 909.62069 257.431211 909.62069 258.290611 
C 909.62069 259.150011 909.816889 259.974329 910.166077 260.582016 
C 910.515265 261.189704 910.988932 261.531148 911.482759 261.531148 
z
" style="fill:#00c832;stroke:#ffffff;stroke-linejoin:miter;stroke-width:0.5;"/>
   </g>
   <g id="be0167ebe0ae491e8bf243981d26f34f-16-node">
    <path clip-path="url(#p9ca3863886)" d="M 899.844828 271.657824 
C 900.338654 271.657824 900.812321 271.316381 901.161509 270.708693 
C 901.510697 270.101005 901.706897 269.276688 901.706897 268.417288 
C 901.706897 267.557887 901.510697 266.73357 901.161509 266.125882 
C 900.812321 265.518194 900.338654 265.176751 899.844828 265.176751 
C 899.351001 265.176751 898.877334 265.518194 898.528146 266.125882 
C 898.178958 266.73357 897.982759 267.557887 897.982759 268.417288 
C 897.982759 269.276688 898.178958 270.101005 898.528146 270.708693 
C 898.877334 271.316381 899.351001 271.657824 899.844828 271.657824 
z
" style="fill:#00c832;stroke:#ffffff;stroke-linejoin:miter;stroke-width:0.5;"/>
   </g>
   <g id="be0167ebe0ae491e8bf243981d26f34f-7-node">
    <path clip-path="url(#p9ca3863886)" d="M 899.844828 251.404471 
C 900.338654 251.404471 900.812321 251.063028 901.161509 250.45534 
C 901.510697 249.847652 901.706897 249.023335 901.706897 248.163934 
C 901.706897 247.304534 901.510697 246.480217 901.161509 245.872529 
C 900.812321 245.264841 900.338654 244.923398 899.844828 244.923398 
C 899.351001 244.923398 898.877334 245.264841 898.528146 245.872529 
C 898.178958 246.480217 897.982759 247.304534 897.982759 248.163934 
C 897.982759 249.023335 898.178958 249.847652 898.528146 250.45534 
C 898.877334 251.063028 899.351001 251.404471 899.844828 251.404471 
z
" style="fill:#00c832;stroke:#ffffff;stroke-linejoin:miter;stroke-width:0.5;"/>
   </g>
   <g id="be0167ebe0ae491e8bf243981d26f34f-13-node">
    <path clip-path="url(#p9ca3863886)" d="M 890.068966 255.050075 
L 890.068966 261.531148 
L 886.344828 261.531148 
L 886.344828 255.050075 
L 890.068966 255.050075 
z
" style="fill:#0000ff;stroke:#ffffff;stroke-linejoin:miter;stroke-width:0.5;"/>
   </g>
   <g id="be0167ebe0ae491e8bf243981d26f34f-15-node">
    <path clip-path="url(#p9ca3863886)" d="M 876.568966 261.531148 
C 877.062792 261.531148 877.536459 261.189704 877.885647 260.582016 
C 878.234835 259.974329 878.431034 259.150011 878.431034 258.290611 
C 878.431034 257.431211 878.234835 256.606893 877.885647 255.999206 
C 877.536459 255.391518 877.062792 255.050075 876.568966 255.050075 
C 876.075139 255.050075 875.601472 255.391518 875.252284 255.999206 
C 874.903096 256.606893 874.706897 257.431211 874.706897 258.290611 
C 874.706897 259.150011 874.903096 259.974329 875.252284 260.582016 
C 875.601472 261.189704 876.075139 261.531148 876.568966 261.531148 
z
" style="fill:#ffff00;stroke:#ffffff;stroke-linejoin:miter;stroke-width:0.5;"/>
   </g>
   <g id="be0167ebe0ae491e8bf243981d26f34f-8-node">
    <path clip-path="url(#p9ca3863886)" d="M 890.068966 234.796721 
L 890.068966 241.277794 
L 886.344828 241.277794 
L 886.344828 234.796721 
L 890.068966 234.796721 
z
" style="fill:#0000ff;stroke:#ffffff;stroke-linejoin:miter;stroke-width:0.5;"/>
   </g>
   <g id="be0167ebe0ae491e8bf243981d26f34f-10-node">
    <path clip-path="url(#p9ca3863886)" d="M 876.568966 241.277794 
C 877.062792 241.277794 877.536459 240.936351 877.885647 240.328663 
C 878.234835 239.720975 878.431034 238.896658 878.431034 238.037258 
C 878.431034 237.177857 878.234835 236.35354 877.885647 235.745852 
C 877.536459 235.138165 877.062792 234.796721 876.568966 234.796721 
C 876.075139 234.796721 875.601472 235.138165 875.252284 235.745852 
C 874.903096 236.35354 874.706897 237.177857 874.706897 238.037258 
C 874.706897 238.896658 874.903096 239.720975 875.252284 240.328663 
C 875.601472 240.936351 876.075139 241.277794 876.568966 241.277794 
z
" style="fill:#ffff00;stroke:#ffffff;stroke-linejoin:miter;stroke-width:0.5;"/>
   </g>
   <g id="be0167ebe0ae491e8bf243981d26f34f-11-node">
    <path clip-path="url(#p9ca3863886)" d="M 864.931034 234.796721 
L 863.068966 238.037258 
L 864.931034 241.277794 
L 866.793103 238.037258 
z
" style="fill:#c800c8;stroke:#ffffff;stroke-linejoin:miter;stroke-width:0.5;"/>
   </g>
   <g id="be0167ebe0ae491e8bf243981d26f34f-3-node">
    <path clip-path="url(#p9ca3863886)" d="M 934.758621 244.923398 
L 933.146022 249.784203 
L 936.37122 249.784203 
z
" style="fill:#ff0000;stroke:#ffffff;stroke-linejoin:miter;stroke-width:0.5;"/>
   </g>
   <g id="patch_129">
    <path d="M 827.689655 315 
L 827.689655 191.454545 
" style="fill:none;stroke:#ffffff;stroke-linecap:square;stroke-linejoin:miter;stroke-width:1.25;"/>
   </g>
   <g id="patch_130">
    <path d="M 972 315 
L 972 191.454545 
" style="fill:none;stroke:#ffffff;stroke-linecap:square;stroke-linejoin:miter;stroke-width:1.25;"/>
   </g>
   <g id="patch_131">
    <path d="M 827.689655 315 
L 972 315 
" style="fill:none;stroke:#ffffff;stroke-linecap:square;stroke-linejoin:miter;stroke-width:1.25;"/>
   </g>
   <g id="patch_132">
    <path d="M 827.689655 191.454545 
L 972 191.454545 
" style="fill:none;stroke:#ffffff;stroke-linecap:square;stroke-linejoin:miter;stroke-width:1.25;"/>
   </g>
   <g id="text_10">
    <!-- 451:1 -->
    <g style="fill:#262626;" transform="translate(884.831703 185.454545)scale(0.12 -0.12)">
     <use xlink:href="#ArialMT-52"/>
     <use x="55.615234" xlink:href="#ArialMT-53"/>
     <use x="111.230469" xlink:href="#ArialMT-49"/>
     <use x="166.845703" xlink:href="#ArialMT-58"/>
     <use x="194.628906" xlink:href="#ArialMT-49"/>
    </g>
   </g>
  </g>
 </g>
 <defs>
  <clipPath id="pdf7528e8f2">
   <rect height="123.545455" width="144.310345" x="135" y="43.2"/>
  </clipPath>
  <clipPath id="p91ac95e1d9">
   <rect height="123.545455" width="144.310345" x="308.172414" y="43.2"/>
  </clipPath>
  <clipPath id="pd93940e618">
   <rect height="123.545455" width="144.310345" x="481.344828" y="43.2"/>
  </clipPath>
  <clipPath id="pe344d51c21">
   <rect height="123.545455" width="144.310345" x="654.517241" y="43.2"/>
  </clipPath>
  <clipPath id="p5b654d6db1">
   <rect height="123.545455" width="144.310345" x="827.689655" y="43.2"/>
  </clipPath>
  <clipPath id="p661f999218">
   <rect height="123.545455" width="144.310345" x="135" y="191.454545"/>
  </clipPath>
  <clipPath id="pcdf0ff671e">
   <rect height="123.545455" width="144.310345" x="308.172414" y="191.454545"/>
  </clipPath>
  <clipPath id="p0ee5467b84">
   <rect height="123.545455" width="144.310345" x="481.344828" y="191.454545"/>
  </clipPath>
  <clipPath id="pa24e043d07">
   <rect height="123.545455" width="144.310345" x="654.517241" y="191.454545"/>
  </clipPath>
  <clipPath id="p9ca3863886">
   <rect height="123.545455" width="144.310345" x="827.689655" y="191.454545"/>
  </clipPath>
 </defs>
</svg>
