<?xml version="1.0" encoding="utf-8" standalone="no"?>
<!DOCTYPE svg PUBLIC "-//W3C//DTD SVG 1.1//EN"
  "http://www.w3.org/Graphics/SVG/1.1/DTD/svg11.dtd">
<!-- Created with matplotlib (https://matplotlib.org/) -->
<svg height="180pt" version="1.1" viewBox="0 0 1080 180" width="1080pt" xmlns="http://www.w3.org/2000/svg" xmlns:xlink="http://www.w3.org/1999/xlink">
 <defs>
  <style type="text/css">
*{stroke-linecap:butt;stroke-linejoin:round;}
  </style>
 </defs>
 <g id="figure_1">
  <g id="patch_1">
   <path d="M 0 180 
L 1080 180 
L 1080 0 
L 0 0 
z
" style="fill:#ffffff;"/>
  </g>
  <g id="axes_1">
   <g id="patch_2">
    <path d="M 135 157.5 
L 279.310345 157.5 
L 279.310345 21.6 
L 135 21.6 
z
" style="fill:#ffffff;"/>
   </g>
   <g id="patch_3">
    <path clip-path="url(#p539b7c6fdb)" d="M 195.517241 114.409756 
L 183.87931 114.409756 
" style="stroke:#000000;stroke-linejoin:miter;stroke-width:0.5;"/>
   </g>
   <g id="patch_4">
    <path clip-path="url(#p539b7c6fdb)" d="M 207.155172 106.123171 
L 195.517241 114.409756 
" style="stroke:#000000;stroke-linejoin:miter;stroke-width:0.5;"/>
   </g>
   <g id="patch_5">
    <path clip-path="url(#p539b7c6fdb)" d="M 195.517241 97.836585 
L 183.87931 97.836585 
" style="stroke:#000000;stroke-linejoin:miter;stroke-width:0.5;"/>
   </g>
   <g id="patch_6">
    <path clip-path="url(#p539b7c6fdb)" d="M 207.155172 106.123171 
L 195.517241 97.836585 
" style="stroke:#000000;stroke-linejoin:miter;stroke-width:0.5;"/>
   </g>
   <g id="patch_7">
    <path clip-path="url(#p539b7c6fdb)" d="M 218.793103 89.55 
L 207.155172 106.123171 
" style="stroke:#000000;stroke-linejoin:miter;stroke-width:0.5;"/>
   </g>
   <g id="patch_8">
    <path clip-path="url(#p539b7c6fdb)" d="M 195.517241 81.263415 
L 183.87931 81.263415 
" style="stroke:#000000;stroke-linejoin:miter;stroke-width:0.5;"/>
   </g>
   <g id="patch_9">
    <path clip-path="url(#p539b7c6fdb)" d="M 207.155172 72.976829 
L 195.517241 81.263415 
" style="stroke:#000000;stroke-linejoin:miter;stroke-width:0.5;"/>
   </g>
   <g id="patch_10">
    <path clip-path="url(#p539b7c6fdb)" d="M 183.87931 64.690244 
L 172.241379 64.690244 
" style="stroke:#000000;stroke-linejoin:miter;stroke-width:0.5;"/>
   </g>
   <g id="patch_11">
    <path clip-path="url(#p539b7c6fdb)" d="M 195.517241 64.690244 
L 183.87931 64.690244 
" style="stroke:#000000;stroke-linejoin:miter;stroke-width:0.5;"/>
   </g>
   <g id="patch_12">
    <path clip-path="url(#p539b7c6fdb)" d="M 207.155172 72.976829 
L 195.517241 64.690244 
" style="stroke:#000000;stroke-linejoin:miter;stroke-width:0.5;"/>
   </g>
   <g id="patch_13">
    <path clip-path="url(#p539b7c6fdb)" d="M 218.793103 89.55 
L 207.155172 72.976829 
" style="stroke:#000000;stroke-linejoin:miter;stroke-width:0.5;"/>
   </g>
   <g id="patch_14">
    <path clip-path="url(#p539b7c6fdb)" d="M 230.431034 89.55 
L 218.793103 89.55 
" style="stroke:#000000;stroke-linejoin:miter;stroke-width:0.5;"/>
   </g>
   <g id="patch_15">
    <path clip-path="url(#p539b7c6fdb)" d="M 242.068966 89.55 
L 230.431034 89.55 
" style="stroke:#000000;stroke-linejoin:miter;stroke-width:0.5;"/>
   </g>
   <g id="6279775443c5453db13b1deee6f50653-1-node">
    <path clip-path="url(#p539b7c6fdb)" d="M 243.931034 86.898293 
L 243.931034 92.201707 
L 240.206897 92.201707 
L 240.206897 86.898293 
L 243.931034 86.898293 
z
" style="fill:#0000ff;stroke:#ffffff;stroke-linejoin:miter;stroke-width:0.5;"/>
   </g>
   <g id="6279775443c5453db13b1deee6f50653-3-node">
    <path clip-path="url(#p539b7c6fdb)" d="M 232.293103 86.898293 
L 232.293103 92.201707 
L 228.568966 92.201707 
L 228.568966 86.898293 
L 232.293103 86.898293 
z
" style="fill:#0000ff;stroke:#ffffff;stroke-linejoin:miter;stroke-width:0.5;"/>
   </g>
   <g id="6279775443c5453db13b1deee6f50653-5-node">
    <path clip-path="url(#p539b7c6fdb)" d="M 218.793103 92.201707 
C 219.28693 92.201707 219.760597 91.922307 220.109785 91.42504 
C 220.458973 90.927774 220.655172 90.253241 220.655172 89.55 
C 220.655172 88.846759 220.458973 88.172226 220.109785 87.67496 
C 219.760597 87.177693 219.28693 86.898293 218.793103 86.898293 
C 218.299277 86.898293 217.82561 87.177693 217.476422 87.67496 
C 217.127234 88.172226 216.931034 88.846759 216.931034 89.55 
C 216.931034 90.253241 217.127234 90.927774 217.476422 91.42504 
C 217.82561 91.922307 218.299277 92.201707 218.793103 92.201707 
z
" style="fill:#00c832;stroke:#ffffff;stroke-linejoin:miter;stroke-width:0.5;"/>
   </g>
   <g id="6279775443c5453db13b1deee6f50653-15-node">
    <path clip-path="url(#p539b7c6fdb)" d="M 207.155172 108.774878 
C 207.648999 108.774878 208.122666 108.495477 208.471854 107.998211 
C 208.821042 107.500944 209.017241 106.826412 209.017241 106.123171 
C 209.017241 105.41993 208.821042 104.745397 208.471854 104.248131 
C 208.122666 103.750864 207.648999 103.471463 207.155172 103.471463 
C 206.661346 103.471463 206.187679 103.750864 205.838491 104.248131 
C 205.489303 104.745397 205.293103 105.41993 205.293103 106.123171 
C 205.293103 106.826412 205.489303 107.500944 205.838491 107.998211 
C 206.187679 108.495477 206.661346 108.774878 207.155172 108.774878 
z
" style="fill:#00c832;stroke:#ffffff;stroke-linejoin:miter;stroke-width:0.5;"/>
   </g>
   <g id="6279775443c5453db13b1deee6f50653-19-node">
    <path clip-path="url(#p539b7c6fdb)" d="M 197.37931 111.758049 
L 197.37931 117.061463 
L 193.655172 117.061463 
L 193.655172 111.758049 
L 197.37931 111.758049 
z
" style="fill:#0000ff;stroke:#ffffff;stroke-linejoin:miter;stroke-width:0.5;"/>
   </g>
   <g id="6279775443c5453db13b1deee6f50653-21-node">
    <path clip-path="url(#p539b7c6fdb)" d="M 183.87931 117.061463 
C 184.373137 117.061463 184.846804 116.782063 185.195992 116.284796 
C 185.54518 115.78753 185.741379 115.112997 185.741379 114.409756 
C 185.741379 113.706515 185.54518 113.031982 185.195992 112.534716 
C 184.846804 112.037449 184.373137 111.758049 183.87931 111.758049 
C 183.385484 111.758049 182.911817 112.037449 182.562629 112.534716 
C 182.213441 113.031982 182.017241 113.706515 182.017241 114.409756 
C 182.017241 115.112997 182.213441 115.78753 182.562629 116.284796 
C 182.911817 116.782063 183.385484 117.061463 183.87931 117.061463 
z
" style="fill:#ffff00;stroke:#ffffff;stroke-linejoin:miter;stroke-width:0.5;"/>
   </g>
   <g id="6279775443c5453db13b1deee6f50653-16-node">
    <path clip-path="url(#p539b7c6fdb)" d="M 197.37931 95.184878 
L 197.37931 100.488293 
L 193.655172 100.488293 
L 193.655172 95.184878 
L 197.37931 95.184878 
z
" style="fill:#0000ff;stroke:#ffffff;stroke-linejoin:miter;stroke-width:0.5;"/>
   </g>
   <g id="6279775443c5453db13b1deee6f50653-18-node">
    <path clip-path="url(#p539b7c6fdb)" d="M 183.87931 100.488293 
C 184.373137 100.488293 184.846804 100.208892 185.195992 99.711626 
C 185.54518 99.214359 185.741379 98.539826 185.741379 97.836585 
C 185.741379 97.133344 185.54518 96.458812 185.195992 95.961545 
C 184.846804 95.464279 184.373137 95.184878 183.87931 95.184878 
C 183.385484 95.184878 182.911817 95.464279 182.562629 95.961545 
C 182.213441 96.458812 182.017241 97.133344 182.017241 97.836585 
C 182.017241 98.539826 182.213441 99.214359 182.562629 99.711626 
C 182.911817 100.208892 183.385484 100.488293 183.87931 100.488293 
z
" style="fill:#ffff00;stroke:#ffffff;stroke-linejoin:miter;stroke-width:0.5;"/>
   </g>
   <g id="6279775443c5453db13b1deee6f50653-6-node">
    <path clip-path="url(#p539b7c6fdb)" d="M 207.155172 75.628537 
C 207.648999 75.628537 208.122666 75.349136 208.471854 74.851869 
C 208.821042 74.354603 209.017241 73.68007 209.017241 72.976829 
C 209.017241 72.273588 208.821042 71.599056 208.471854 71.101789 
C 208.122666 70.604523 207.648999 70.325122 207.155172 70.325122 
C 206.661346 70.325122 206.187679 70.604523 205.838491 71.101789 
C 205.489303 71.599056 205.293103 72.273588 205.293103 72.976829 
C 205.293103 73.68007 205.489303 74.354603 205.838491 74.851869 
C 206.187679 75.349136 206.661346 75.628537 207.155172 75.628537 
z
" style="fill:#00c832;stroke:#ffffff;stroke-linejoin:miter;stroke-width:0.5;"/>
   </g>
   <g id="6279775443c5453db13b1deee6f50653-12-node">
    <path clip-path="url(#p539b7c6fdb)" d="M 197.37931 78.611707 
L 197.37931 83.915122 
L 193.655172 83.915122 
L 193.655172 78.611707 
L 197.37931 78.611707 
z
" style="fill:#0000ff;stroke:#ffffff;stroke-linejoin:miter;stroke-width:0.5;"/>
   </g>
   <g id="6279775443c5453db13b1deee6f50653-14-node">
    <path clip-path="url(#p539b7c6fdb)" d="M 183.87931 83.915122 
C 184.373137 83.915122 184.846804 83.635721 185.195992 83.138455 
C 185.54518 82.641188 185.741379 81.966656 185.741379 81.263415 
C 185.741379 80.560174 185.54518 79.885641 185.195992 79.388374 
C 184.846804 78.891108 184.373137 78.611707 183.87931 78.611707 
C 183.385484 78.611707 182.911817 78.891108 182.562629 79.388374 
C 182.213441 79.885641 182.017241 80.560174 182.017241 81.263415 
C 182.017241 81.966656 182.213441 82.641188 182.562629 83.138455 
C 182.911817 83.635721 183.385484 83.915122 183.87931 83.915122 
z
" style="fill:#ffff00;stroke:#ffffff;stroke-linejoin:miter;stroke-width:0.5;"/>
   </g>
   <g id="6279775443c5453db13b1deee6f50653-7-node">
    <path clip-path="url(#p539b7c6fdb)" d="M 197.37931 62.038537 
L 197.37931 67.341951 
L 193.655172 67.341951 
L 193.655172 62.038537 
L 197.37931 62.038537 
z
" style="fill:#0000ff;stroke:#ffffff;stroke-linejoin:miter;stroke-width:0.5;"/>
   </g>
   <g id="6279775443c5453db13b1deee6f50653-9-node">
    <path clip-path="url(#p539b7c6fdb)" d="M 183.87931 67.341951 
C 184.373137 67.341951 184.846804 67.062551 185.195992 66.565284 
C 185.54518 66.068018 185.741379 65.393485 185.741379 64.690244 
C 185.741379 63.987003 185.54518 63.31247 185.195992 62.815204 
C 184.846804 62.317937 184.373137 62.038537 183.87931 62.038537 
C 183.385484 62.038537 182.911817 62.317937 182.562629 62.815204 
C 182.213441 63.31247 182.017241 63.987003 182.017241 64.690244 
C 182.017241 65.393485 182.213441 66.068018 182.562629 66.565284 
C 182.911817 67.062551 183.385484 67.341951 183.87931 67.341951 
z
" style="fill:#ffff00;stroke:#ffffff;stroke-linejoin:miter;stroke-width:0.5;"/>
   </g>
   <g id="6279775443c5453db13b1deee6f50653-10-node">
    <path clip-path="url(#p539b7c6fdb)" d="M 174.103448 62.038537 
L 174.103448 67.341951 
L 170.37931 67.341951 
L 170.37931 62.038537 
L 174.103448 62.038537 
z
" style="fill:#0000ff;stroke:#ffffff;stroke-linejoin:miter;stroke-width:0.5;"/>
   </g>
   <g id="patch_16">
    <path d="M 135 157.5 
L 135 21.6 
" style="fill:none;stroke:#ffffff;stroke-linecap:square;stroke-linejoin:miter;stroke-width:1.25;"/>
   </g>
   <g id="patch_17">
    <path d="M 279.310345 157.5 
L 279.310345 21.6 
" style="fill:none;stroke:#ffffff;stroke-linecap:square;stroke-linejoin:miter;stroke-width:1.25;"/>
   </g>
   <g id="patch_18">
    <path d="M 135 157.5 
L 279.310345 157.5 
" style="fill:none;stroke:#ffffff;stroke-linecap:square;stroke-linejoin:miter;stroke-width:1.25;"/>
   </g>
   <g id="patch_19">
    <path d="M 135 21.6 
L 279.310345 21.6 
" style="fill:none;stroke:#ffffff;stroke-linecap:square;stroke-linejoin:miter;stroke-width:1.25;"/>
   </g>
   <g id="text_1">
    <!-- 923:9.0 -->
    <defs>
     <path d="M 5.46875 16.546875 
L 13.921875 17.328125 
Q 14.984375 11.375 18.015625 8.6875 
Q 21.046875 6 25.78125 6 
Q 29.828125 6 32.875 7.859375 
Q 35.9375 9.71875 37.890625 12.8125 
Q 39.84375 15.921875 41.15625 21.1875 
Q 42.484375 26.46875 42.484375 31.9375 
Q 42.484375 32.515625 42.4375 33.6875 
Q 39.796875 29.5 35.234375 26.875 
Q 30.671875 24.265625 25.34375 24.265625 
Q 16.453125 24.265625 10.296875 30.703125 
Q 4.15625 37.15625 4.15625 47.703125 
Q 4.15625 58.59375 10.578125 65.234375 
Q 17 71.875 26.65625 71.875 
Q 33.640625 71.875 39.421875 68.109375 
Q 45.21875 64.359375 48.21875 57.390625 
Q 51.21875 50.4375 51.21875 37.25 
Q 51.21875 23.53125 48.234375 15.40625 
Q 45.265625 7.28125 39.375 3.03125 
Q 33.5 -1.21875 25.59375 -1.21875 
Q 17.1875 -1.21875 11.859375 3.4375 
Q 6.546875 8.109375 5.46875 16.546875 
z
M 41.453125 48.140625 
Q 41.453125 55.71875 37.421875 60.15625 
Q 33.40625 64.59375 27.734375 64.59375 
Q 21.875 64.59375 17.53125 59.8125 
Q 13.1875 55.03125 13.1875 47.40625 
Q 13.1875 40.578125 17.3125 36.296875 
Q 21.4375 32.03125 27.484375 32.03125 
Q 33.59375 32.03125 37.515625 36.296875 
Q 41.453125 40.578125 41.453125 48.140625 
z
" id="ArialMT-57"/>
     <path d="M 50.34375 8.453125 
L 50.34375 0 
L 3.03125 0 
Q 2.9375 3.171875 4.046875 6.109375 
Q 5.859375 10.9375 9.828125 15.625 
Q 13.8125 20.3125 21.34375 26.46875 
Q 33.015625 36.03125 37.109375 41.625 
Q 41.21875 47.21875 41.21875 52.203125 
Q 41.21875 57.421875 37.46875 61 
Q 33.734375 64.59375 27.734375 64.59375 
Q 21.390625 64.59375 17.578125 60.78125 
Q 13.765625 56.984375 13.71875 50.25 
L 4.6875 51.171875 
Q 5.609375 61.28125 11.65625 66.578125 
Q 17.71875 71.875 27.9375 71.875 
Q 38.234375 71.875 44.234375 66.15625 
Q 50.25 60.453125 50.25 52 
Q 50.25 47.703125 48.484375 43.546875 
Q 46.734375 39.40625 42.65625 34.8125 
Q 38.578125 30.21875 29.109375 22.21875 
Q 21.1875 15.578125 18.9375 13.203125 
Q 16.703125 10.84375 15.234375 8.453125 
z
" id="ArialMT-50"/>
     <path d="M 4.203125 18.890625 
L 12.984375 20.0625 
Q 14.5 12.59375 18.140625 9.296875 
Q 21.78125 6 27 6 
Q 33.203125 6 37.46875 10.296875 
Q 41.75 14.59375 41.75 20.953125 
Q 41.75 27 37.796875 30.921875 
Q 33.84375 34.859375 27.734375 34.859375 
Q 25.25 34.859375 21.53125 33.890625 
L 22.515625 41.609375 
Q 23.390625 41.5 23.921875 41.5 
Q 29.546875 41.5 34.03125 44.421875 
Q 38.53125 47.359375 38.53125 53.46875 
Q 38.53125 58.296875 35.25 61.46875 
Q 31.984375 64.65625 26.8125 64.65625 
Q 21.6875 64.65625 18.265625 61.421875 
Q 14.84375 58.203125 13.875 51.765625 
L 5.078125 53.328125 
Q 6.6875 62.15625 12.390625 67.015625 
Q 18.109375 71.875 26.609375 71.875 
Q 32.46875 71.875 37.390625 69.359375 
Q 42.328125 66.84375 44.9375 62.5 
Q 47.5625 58.15625 47.5625 53.265625 
Q 47.5625 48.640625 45.0625 44.828125 
Q 42.578125 41.015625 37.703125 38.765625 
Q 44.046875 37.3125 47.5625 32.6875 
Q 51.078125 28.078125 51.078125 21.140625 
Q 51.078125 11.765625 44.234375 5.25 
Q 37.40625 -1.265625 26.953125 -1.265625 
Q 17.53125 -1.265625 11.296875 4.34375 
Q 5.078125 9.96875 4.203125 18.890625 
z
" id="ArialMT-51"/>
     <path d="M 9.03125 41.84375 
L 9.03125 51.859375 
L 19.046875 51.859375 
L 19.046875 41.84375 
z
M 9.03125 0 
L 9.03125 10.015625 
L 19.046875 10.015625 
L 19.046875 0 
z
" id="ArialMT-58"/>
     <path d="M 9.078125 0 
L 9.078125 10.015625 
L 19.09375 10.015625 
L 19.09375 0 
z
" id="ArialMT-46"/>
     <path d="M 4.15625 35.296875 
Q 4.15625 48 6.765625 55.734375 
Q 9.375 63.484375 14.515625 67.671875 
Q 19.671875 71.875 27.484375 71.875 
Q 33.25 71.875 37.59375 69.546875 
Q 41.9375 67.234375 44.765625 62.859375 
Q 47.609375 58.5 49.21875 52.21875 
Q 50.828125 45.953125 50.828125 35.296875 
Q 50.828125 22.703125 48.234375 14.96875 
Q 45.65625 7.234375 40.5 3 
Q 35.359375 -1.21875 27.484375 -1.21875 
Q 17.140625 -1.21875 11.234375 6.203125 
Q 4.15625 15.140625 4.15625 35.296875 
z
M 13.1875 35.296875 
Q 13.1875 17.671875 17.3125 11.828125 
Q 21.4375 6 27.484375 6 
Q 33.546875 6 37.671875 11.859375 
Q 41.796875 17.71875 41.796875 35.296875 
Q 41.796875 52.984375 37.671875 58.78125 
Q 33.546875 64.59375 27.390625 64.59375 
Q 21.34375 64.59375 17.71875 59.46875 
Q 13.1875 52.9375 13.1875 35.296875 
z
" id="ArialMT-48"/>
    </defs>
    <g style="fill:#262626;" transform="translate(187.13861 15.6)scale(0.12 -0.12)">
     <use xlink:href="#ArialMT-57"/>
     <use x="55.615234" xlink:href="#ArialMT-50"/>
     <use x="111.230469" xlink:href="#ArialMT-51"/>
     <use x="166.845703" xlink:href="#ArialMT-58"/>
     <use x="194.628906" xlink:href="#ArialMT-57"/>
     <use x="250.244141" xlink:href="#ArialMT-46"/>
     <use x="278.027344" xlink:href="#ArialMT-48"/>
    </g>
   </g>
  </g>
  <g id="axes_2">
   <g id="patch_20">
    <path d="M 308.172414 157.5 
L 452.482759 157.5 
L 452.482759 21.6 
L 308.172414 21.6 
z
" style="fill:#ffffff;"/>
   </g>
   <g id="patch_21">
    <path clip-path="url(#pa400704c41)" d="M 375.098951 114.409756 
L 364.641679 114.409756 
" style="stroke:#000000;stroke-linejoin:miter;stroke-width:0.5;"/>
   </g>
   <g id="patch_22">
    <path clip-path="url(#pa400704c41)" d="M 385.556222 106.123171 
L 375.098951 114.409756 
" style="stroke:#000000;stroke-linejoin:miter;stroke-width:0.5;"/>
   </g>
   <g id="patch_23">
    <path clip-path="url(#pa400704c41)" d="M 375.098951 97.836585 
L 364.641679 97.836585 
" style="stroke:#000000;stroke-linejoin:miter;stroke-width:0.5;"/>
   </g>
   <g id="patch_24">
    <path clip-path="url(#pa400704c41)" d="M 385.556222 106.123171 
L 375.098951 97.836585 
" style="stroke:#000000;stroke-linejoin:miter;stroke-width:0.5;"/>
   </g>
   <g id="patch_25">
    <path clip-path="url(#pa400704c41)" d="M 396.013493 89.55 
L 385.556222 106.123171 
" style="stroke:#000000;stroke-linejoin:miter;stroke-width:0.5;"/>
   </g>
   <g id="patch_26">
    <path clip-path="url(#pa400704c41)" d="M 354.184408 81.263415 
L 343.727136 81.263415 
" style="stroke:#000000;stroke-linejoin:miter;stroke-width:0.5;"/>
   </g>
   <g id="patch_27">
    <path clip-path="url(#pa400704c41)" d="M 364.641679 81.263415 
L 354.184408 81.263415 
" style="stroke:#000000;stroke-linejoin:miter;stroke-width:0.5;"/>
   </g>
   <g id="patch_28">
    <path clip-path="url(#pa400704c41)" d="M 375.098951 81.263415 
L 364.641679 81.263415 
" style="stroke:#000000;stroke-linejoin:miter;stroke-width:0.5;"/>
   </g>
   <g id="patch_29">
    <path clip-path="url(#pa400704c41)" d="M 385.556222 72.976829 
L 375.098951 81.263415 
" style="stroke:#000000;stroke-linejoin:miter;stroke-width:0.5;"/>
   </g>
   <g id="patch_30">
    <path clip-path="url(#pa400704c41)" d="M 375.098951 64.690244 
L 364.641679 64.690244 
" style="stroke:#000000;stroke-linejoin:miter;stroke-width:0.5;"/>
   </g>
   <g id="patch_31">
    <path clip-path="url(#pa400704c41)" d="M 385.556222 72.976829 
L 375.098951 64.690244 
" style="stroke:#000000;stroke-linejoin:miter;stroke-width:0.5;"/>
   </g>
   <g id="patch_32">
    <path clip-path="url(#pa400704c41)" d="M 396.013493 89.55 
L 385.556222 72.976829 
" style="stroke:#000000;stroke-linejoin:miter;stroke-width:0.5;"/>
   </g>
   <g id="patch_33">
    <path clip-path="url(#pa400704c41)" d="M 406.470765 89.55 
L 396.013493 89.55 
" style="stroke:#000000;stroke-linejoin:miter;stroke-width:0.5;"/>
   </g>
   <g id="patch_34">
    <path clip-path="url(#pa400704c41)" d="M 416.928036 89.55 
L 406.470765 89.55 
" style="stroke:#000000;stroke-linejoin:miter;stroke-width:0.5;"/>
   </g>
   <g id="b7769cfd5b4f4ddfb548bc9bb46dca6f-1-node">
    <path clip-path="url(#pa400704c41)" d="M 418.601199 86.898293 
L 418.601199 92.201707 
L 415.254873 92.201707 
L 415.254873 86.898293 
L 418.601199 86.898293 
z
" style="fill:#0000ff;stroke:#ffffff;stroke-linejoin:miter;stroke-width:0.5;"/>
   </g>
   <g id="b7769cfd5b4f4ddfb548bc9bb46dca6f-3-node">
    <path clip-path="url(#pa400704c41)" d="M 408.143928 86.898293 
L 408.143928 92.201707 
L 404.797601 92.201707 
L 404.797601 86.898293 
L 408.143928 86.898293 
z
" style="fill:#0000ff;stroke:#ffffff;stroke-linejoin:miter;stroke-width:0.5;"/>
   </g>
   <g id="b7769cfd5b4f4ddfb548bc9bb46dca6f-5-node">
    <path clip-path="url(#pa400704c41)" d="M 396.013493 92.201707 
C 396.457221 92.201707 396.882835 91.922307 397.196598 91.42504 
C 397.510362 90.927774 397.686657 90.253241 397.686657 89.55 
C 397.686657 88.846759 397.510362 88.172226 397.196598 87.67496 
C 396.882835 87.177693 396.457221 86.898293 396.013493 86.898293 
C 395.569765 86.898293 395.144151 87.177693 394.830388 87.67496 
C 394.516625 88.172226 394.34033 88.846759 394.34033 89.55 
C 394.34033 90.253241 394.516625 90.927774 394.830388 91.42504 
C 395.144151 91.922307 395.569765 92.201707 396.013493 92.201707 
z
" style="fill:#00c832;stroke:#ffffff;stroke-linejoin:miter;stroke-width:0.5;"/>
   </g>
   <g id="b7769cfd5b4f4ddfb548bc9bb46dca6f-16-node">
    <path clip-path="url(#pa400704c41)" d="M 385.556222 108.774878 
C 385.99995 108.774878 386.425564 108.495477 386.739327 107.998211 
C 387.05309 107.500944 387.229385 106.826412 387.229385 106.123171 
C 387.229385 105.41993 387.05309 104.745397 386.739327 104.248131 
C 386.425564 103.750864 385.99995 103.471463 385.556222 103.471463 
C 385.112494 103.471463 384.68688 103.750864 384.373117 104.248131 
C 384.059354 104.745397 383.883058 105.41993 383.883058 106.123171 
C 383.883058 106.826412 384.059354 107.500944 384.373117 107.998211 
C 384.68688 108.495477 385.112494 108.774878 385.556222 108.774878 
z
" style="fill:#00c832;stroke:#ffffff;stroke-linejoin:miter;stroke-width:0.5;"/>
   </g>
   <g id="b7769cfd5b4f4ddfb548bc9bb46dca6f-20-node">
    <path clip-path="url(#pa400704c41)" d="M 376.772114 111.758049 
L 376.772114 117.061463 
L 373.425787 117.061463 
L 373.425787 111.758049 
L 376.772114 111.758049 
z
" style="fill:#0000ff;stroke:#ffffff;stroke-linejoin:miter;stroke-width:0.5;"/>
   </g>
   <g id="b7769cfd5b4f4ddfb548bc9bb46dca6f-22-node">
    <path clip-path="url(#pa400704c41)" d="M 364.641679 117.061463 
C 365.085407 117.061463 365.511021 116.782063 365.824784 116.284796 
C 366.138548 115.78753 366.314843 115.112997 366.314843 114.409756 
C 366.314843 113.706515 366.138548 113.031982 365.824784 112.534716 
C 365.511021 112.037449 365.085407 111.758049 364.641679 111.758049 
C 364.197951 111.758049 363.772337 112.037449 363.458574 112.534716 
C 363.144811 113.031982 362.968516 113.706515 362.968516 114.409756 
C 362.968516 115.112997 363.144811 115.78753 363.458574 116.284796 
C 363.772337 116.782063 364.197951 117.061463 364.641679 117.061463 
z
" style="fill:#ffff00;stroke:#ffffff;stroke-linejoin:miter;stroke-width:0.5;"/>
   </g>
   <g id="b7769cfd5b4f4ddfb548bc9bb46dca6f-17-node">
    <path clip-path="url(#pa400704c41)" d="M 376.772114 95.184878 
L 376.772114 100.488293 
L 373.425787 100.488293 
L 373.425787 95.184878 
L 376.772114 95.184878 
z
" style="fill:#0000ff;stroke:#ffffff;stroke-linejoin:miter;stroke-width:0.5;"/>
   </g>
   <g id="b7769cfd5b4f4ddfb548bc9bb46dca6f-19-node">
    <path clip-path="url(#pa400704c41)" d="M 364.641679 100.488293 
C 365.085407 100.488293 365.511021 100.208892 365.824784 99.711626 
C 366.138548 99.214359 366.314843 98.539826 366.314843 97.836585 
C 366.314843 97.133344 366.138548 96.458812 365.824784 95.961545 
C 365.511021 95.464279 365.085407 95.184878 364.641679 95.184878 
C 364.197951 95.184878 363.772337 95.464279 363.458574 95.961545 
C 363.144811 96.458812 362.968516 97.133344 362.968516 97.836585 
C 362.968516 98.539826 363.144811 99.214359 363.458574 99.711626 
C 363.772337 100.208892 364.197951 100.488293 364.641679 100.488293 
z
" style="fill:#ffff00;stroke:#ffffff;stroke-linejoin:miter;stroke-width:0.5;"/>
   </g>
   <g id="b7769cfd5b4f4ddfb548bc9bb46dca6f-6-node">
    <path clip-path="url(#pa400704c41)" d="M 385.556222 75.628537 
C 385.99995 75.628537 386.425564 75.349136 386.739327 74.851869 
C 387.05309 74.354603 387.229385 73.68007 387.229385 72.976829 
C 387.229385 72.273588 387.05309 71.599056 386.739327 71.101789 
C 386.425564 70.604523 385.99995 70.325122 385.556222 70.325122 
C 385.112494 70.325122 384.68688 70.604523 384.373117 71.101789 
C 384.059354 71.599056 383.883058 72.273588 383.883058 72.976829 
C 383.883058 73.68007 384.059354 74.354603 384.373117 74.851869 
C 384.68688 75.349136 385.112494 75.628537 385.556222 75.628537 
z
" style="fill:#00c832;stroke:#ffffff;stroke-linejoin:miter;stroke-width:0.5;"/>
   </g>
   <g id="b7769cfd5b4f4ddfb548bc9bb46dca6f-10-node">
    <path clip-path="url(#pa400704c41)" d="M 376.772114 78.611707 
L 376.772114 83.915122 
L 373.425787 83.915122 
L 373.425787 78.611707 
L 376.772114 78.611707 
z
" style="fill:#0000ff;stroke:#ffffff;stroke-linejoin:miter;stroke-width:0.5;"/>
   </g>
   <g id="b7769cfd5b4f4ddfb548bc9bb46dca6f-12-node">
    <path clip-path="url(#pa400704c41)" d="M 364.641679 83.915122 
C 365.085407 83.915122 365.511021 83.635721 365.824784 83.138455 
C 366.138548 82.641188 366.314843 81.966656 366.314843 81.263415 
C 366.314843 80.560174 366.138548 79.885641 365.824784 79.388374 
C 365.511021 78.891108 365.085407 78.611707 364.641679 78.611707 
C 364.197951 78.611707 363.772337 78.891108 363.458574 79.388374 
C 363.144811 79.885641 362.968516 80.560174 362.968516 81.263415 
C 362.968516 81.966656 363.144811 82.641188 363.458574 83.138455 
C 363.772337 83.635721 364.197951 83.915122 364.641679 83.915122 
z
" style="fill:#ffff00;stroke:#ffffff;stroke-linejoin:miter;stroke-width:0.5;"/>
   </g>
   <g id="b7769cfd5b4f4ddfb548bc9bb46dca6f-13-node">
    <path clip-path="url(#pa400704c41)" d="M 355.857571 78.611707 
L 355.857571 83.915122 
L 352.511244 83.915122 
L 352.511244 78.611707 
L 355.857571 78.611707 
z
" style="fill:#0000ff;stroke:#ffffff;stroke-linejoin:miter;stroke-width:0.5;"/>
   </g>
   <g id="b7769cfd5b4f4ddfb548bc9bb46dca6f-15-node">
    <path clip-path="url(#pa400704c41)" d="M 343.727136 83.915122 
C 344.170865 83.915122 344.596478 83.635721 344.910242 83.138455 
C 345.224005 82.641188 345.4003 81.966656 345.4003 81.263415 
C 345.4003 80.560174 345.224005 79.885641 344.910242 79.388374 
C 344.596478 78.891108 344.170865 78.611707 343.727136 78.611707 
C 343.283408 78.611707 342.857794 78.891108 342.544031 79.388374 
C 342.230268 79.885641 342.053973 80.560174 342.053973 81.263415 
C 342.053973 81.966656 342.230268 82.641188 342.544031 83.138455 
C 342.857794 83.635721 343.283408 83.915122 343.727136 83.915122 
z
" style="fill:#ffff00;stroke:#ffffff;stroke-linejoin:miter;stroke-width:0.5;"/>
   </g>
   <g id="b7769cfd5b4f4ddfb548bc9bb46dca6f-7-node">
    <path clip-path="url(#pa400704c41)" d="M 376.772114 62.038537 
L 376.772114 67.341951 
L 373.425787 67.341951 
L 373.425787 62.038537 
L 376.772114 62.038537 
z
" style="fill:#0000ff;stroke:#ffffff;stroke-linejoin:miter;stroke-width:0.5;"/>
   </g>
   <g id="b7769cfd5b4f4ddfb548bc9bb46dca6f-9-node">
    <path clip-path="url(#pa400704c41)" d="M 364.641679 67.341951 
C 365.085407 67.341951 365.511021 67.062551 365.824784 66.565284 
C 366.138548 66.068018 366.314843 65.393485 366.314843 64.690244 
C 366.314843 63.987003 366.138548 63.31247 365.824784 62.815204 
C 365.511021 62.317937 365.085407 62.038537 364.641679 62.038537 
C 364.197951 62.038537 363.772337 62.317937 363.458574 62.815204 
C 363.144811 63.31247 362.968516 63.987003 362.968516 64.690244 
C 362.968516 65.393485 363.144811 66.068018 363.458574 66.565284 
C 363.772337 67.062551 364.197951 67.341951 364.641679 67.341951 
z
" style="fill:#ffff00;stroke:#ffffff;stroke-linejoin:miter;stroke-width:0.5;"/>
   </g>
   <g id="patch_35">
    <path d="M 308.172414 157.5 
L 308.172414 21.6 
" style="fill:none;stroke:#ffffff;stroke-linecap:square;stroke-linejoin:miter;stroke-width:1.25;"/>
   </g>
   <g id="patch_36">
    <path d="M 452.482759 157.5 
L 452.482759 21.6 
" style="fill:none;stroke:#ffffff;stroke-linecap:square;stroke-linejoin:miter;stroke-width:1.25;"/>
   </g>
   <g id="patch_37">
    <path d="M 308.172414 157.5 
L 452.482759 157.5 
" style="fill:none;stroke:#ffffff;stroke-linecap:square;stroke-linejoin:miter;stroke-width:1.25;"/>
   </g>
   <g id="patch_38">
    <path d="M 308.172414 21.6 
L 452.482759 21.6 
" style="fill:none;stroke:#ffffff;stroke-linecap:square;stroke-linejoin:miter;stroke-width:1.25;"/>
   </g>
   <g id="text_2">
    <!-- 1158:9.0 -->
    <defs>
     <path d="M 37.25 0 
L 28.46875 0 
L 28.46875 56 
Q 25.296875 52.984375 20.140625 49.953125 
Q 14.984375 46.921875 10.890625 45.40625 
L 10.890625 53.90625 
Q 18.265625 57.375 23.78125 62.296875 
Q 29.296875 67.234375 31.59375 71.875 
L 37.25 71.875 
z
" id="ArialMT-49"/>
     <path d="M 4.15625 18.75 
L 13.375 19.53125 
Q 14.40625 12.796875 18.140625 9.390625 
Q 21.875 6 27.15625 6 
Q 33.5 6 37.890625 10.78125 
Q 42.28125 15.578125 42.28125 23.484375 
Q 42.28125 31 38.0625 35.34375 
Q 33.84375 39.703125 27 39.703125 
Q 22.75 39.703125 19.328125 37.765625 
Q 15.921875 35.84375 13.96875 32.765625 
L 5.71875 33.84375 
L 12.640625 70.609375 
L 48.25 70.609375 
L 48.25 62.203125 
L 19.671875 62.203125 
L 15.828125 42.96875 
Q 22.265625 47.46875 29.34375 47.46875 
Q 38.71875 47.46875 45.15625 40.96875 
Q 51.609375 34.46875 51.609375 24.265625 
Q 51.609375 14.546875 45.953125 7.46875 
Q 39.0625 -1.21875 27.15625 -1.21875 
Q 17.390625 -1.21875 11.203125 4.25 
Q 5.03125 9.71875 4.15625 18.75 
z
" id="ArialMT-53"/>
     <path d="M 17.671875 38.8125 
Q 12.203125 40.828125 9.5625 44.53125 
Q 6.9375 48.25 6.9375 53.421875 
Q 6.9375 61.234375 12.546875 66.546875 
Q 18.171875 71.875 27.484375 71.875 
Q 36.859375 71.875 42.578125 66.421875 
Q 48.296875 60.984375 48.296875 53.171875 
Q 48.296875 48.1875 45.671875 44.5 
Q 43.0625 40.828125 37.75 38.8125 
Q 44.34375 36.671875 47.78125 31.875 
Q 51.21875 27.09375 51.21875 20.453125 
Q 51.21875 11.28125 44.71875 5.03125 
Q 38.234375 -1.21875 27.640625 -1.21875 
Q 17.046875 -1.21875 10.546875 5.046875 
Q 4.046875 11.328125 4.046875 20.703125 
Q 4.046875 27.6875 7.59375 32.390625 
Q 11.140625 37.109375 17.671875 38.8125 
z
M 15.921875 53.71875 
Q 15.921875 48.640625 19.1875 45.40625 
Q 22.46875 42.1875 27.6875 42.1875 
Q 32.765625 42.1875 36.015625 45.375 
Q 39.265625 48.578125 39.265625 53.21875 
Q 39.265625 58.0625 35.90625 61.359375 
Q 32.5625 64.65625 27.59375 64.65625 
Q 22.5625 64.65625 19.234375 61.421875 
Q 15.921875 58.203125 15.921875 53.71875 
z
M 13.09375 20.65625 
Q 13.09375 16.890625 14.875 13.375 
Q 16.65625 9.859375 20.171875 7.921875 
Q 23.6875 6 27.734375 6 
Q 34.03125 6 38.125 10.046875 
Q 42.234375 14.109375 42.234375 20.359375 
Q 42.234375 26.703125 38.015625 30.859375 
Q 33.796875 35.015625 27.4375 35.015625 
Q 21.234375 35.015625 17.15625 30.90625 
Q 13.09375 26.8125 13.09375 20.65625 
z
" id="ArialMT-56"/>
    </defs>
    <g style="fill:#262626;" transform="translate(356.981024 15.6)scale(0.12 -0.12)">
     <use xlink:href="#ArialMT-49"/>
     <use x="55.505859" xlink:href="#ArialMT-49"/>
     <use x="111.121094" xlink:href="#ArialMT-53"/>
     <use x="166.736328" xlink:href="#ArialMT-56"/>
     <use x="222.351562" xlink:href="#ArialMT-58"/>
     <use x="250.134766" xlink:href="#ArialMT-57"/>
     <use x="305.75" xlink:href="#ArialMT-46"/>
     <use x="333.533203" xlink:href="#ArialMT-48"/>
    </g>
   </g>
  </g>
  <g id="axes_3">
   <g id="patch_39">
    <path d="M 481.344828 157.5 
L 625.655172 157.5 
L 625.655172 21.6 
L 481.344828 21.6 
z
" style="fill:#ffffff;"/>
   </g>
   <g id="patch_40">
    <path clip-path="url(#pac54062694)" d="M 557.846697 114.409756 
L 549.153303 114.409756 
" style="stroke:#000000;stroke-linejoin:miter;stroke-width:0.5;"/>
   </g>
   <g id="patch_41">
    <path clip-path="url(#pac54062694)" d="M 566.540091 106.123171 
L 557.846697 114.409756 
" style="stroke:#000000;stroke-linejoin:miter;stroke-width:0.5;"/>
   </g>
   <g id="patch_42">
    <path clip-path="url(#pac54062694)" d="M 557.846697 97.836585 
L 549.153303 97.836585 
" style="stroke:#000000;stroke-linejoin:miter;stroke-width:0.5;"/>
   </g>
   <g id="patch_43">
    <path clip-path="url(#pac54062694)" d="M 566.540091 106.123171 
L 557.846697 97.836585 
" style="stroke:#000000;stroke-linejoin:miter;stroke-width:0.5;"/>
   </g>
   <g id="patch_44">
    <path clip-path="url(#pac54062694)" d="M 575.233486 89.55 
L 566.540091 106.123171 
" style="stroke:#000000;stroke-linejoin:miter;stroke-width:0.5;"/>
   </g>
   <g id="patch_45">
    <path clip-path="url(#pac54062694)" d="M 557.846697 81.263415 
L 549.153303 81.263415 
" style="stroke:#000000;stroke-linejoin:miter;stroke-width:0.5;"/>
   </g>
   <g id="patch_46">
    <path clip-path="url(#pac54062694)" d="M 566.540091 72.976829 
L 557.846697 81.263415 
" style="stroke:#000000;stroke-linejoin:miter;stroke-width:0.5;"/>
   </g>
   <g id="patch_47">
    <path clip-path="url(#pac54062694)" d="M 523.07312 64.690244 
L 514.379726 64.690244 
" style="stroke:#000000;stroke-linejoin:miter;stroke-width:0.5;"/>
   </g>
   <g id="patch_48">
    <path clip-path="url(#pac54062694)" d="M 531.766514 64.690244 
L 523.07312 64.690244 
" style="stroke:#000000;stroke-linejoin:miter;stroke-width:0.5;"/>
   </g>
   <g id="patch_49">
    <path clip-path="url(#pac54062694)" d="M 540.459909 64.690244 
L 531.766514 64.690244 
" style="stroke:#000000;stroke-linejoin:miter;stroke-width:0.5;"/>
   </g>
   <g id="patch_50">
    <path clip-path="url(#pac54062694)" d="M 549.153303 64.690244 
L 540.459909 64.690244 
" style="stroke:#000000;stroke-linejoin:miter;stroke-width:0.5;"/>
   </g>
   <g id="patch_51">
    <path clip-path="url(#pac54062694)" d="M 557.846697 64.690244 
L 549.153303 64.690244 
" style="stroke:#000000;stroke-linejoin:miter;stroke-width:0.5;"/>
   </g>
   <g id="patch_52">
    <path clip-path="url(#pac54062694)" d="M 566.540091 72.976829 
L 557.846697 64.690244 
" style="stroke:#000000;stroke-linejoin:miter;stroke-width:0.5;"/>
   </g>
   <g id="patch_53">
    <path clip-path="url(#pac54062694)" d="M 575.233486 89.55 
L 566.540091 72.976829 
" style="stroke:#000000;stroke-linejoin:miter;stroke-width:0.5;"/>
   </g>
   <g id="patch_54">
    <path clip-path="url(#pac54062694)" d="M 583.92688 89.55 
L 575.233486 89.55 
" style="stroke:#000000;stroke-linejoin:miter;stroke-width:0.5;"/>
   </g>
   <g id="patch_55">
    <path clip-path="url(#pac54062694)" d="M 592.620274 89.55 
L 583.92688 89.55 
" style="stroke:#000000;stroke-linejoin:miter;stroke-width:0.5;"/>
   </g>
   <g id="d121152ff3d7416886afb85c68c4ce83-1-node">
    <path clip-path="url(#pac54062694)" d="M 594.011217 86.898293 
L 594.011217 92.201707 
L 591.229331 92.201707 
L 591.229331 86.898293 
L 594.011217 86.898293 
z
" style="fill:#0000ff;stroke:#ffffff;stroke-linejoin:miter;stroke-width:0.5;"/>
   </g>
   <g id="d121152ff3d7416886afb85c68c4ce83-3-node">
    <path clip-path="url(#pac54062694)" d="M 585.317823 86.898293 
L 585.317823 92.201707 
L 582.535937 92.201707 
L 582.535937 86.898293 
L 585.317823 86.898293 
z
" style="fill:#0000ff;stroke:#ffffff;stroke-linejoin:miter;stroke-width:0.5;"/>
   </g>
   <g id="d121152ff3d7416886afb85c68c4ce83-5-node">
    <path clip-path="url(#pac54062694)" d="M 575.233486 92.201707 
C 575.602368 92.201707 575.956192 91.922307 576.217031 91.42504 
C 576.47787 90.927774 576.624429 90.253241 576.624429 89.55 
C 576.624429 88.846759 576.47787 88.172226 576.217031 87.67496 
C 575.956192 87.177693 575.602368 86.898293 575.233486 86.898293 
C 574.864603 86.898293 574.51078 87.177693 574.24994 87.67496 
C 573.989101 88.172226 573.842543 88.846759 573.842543 89.55 
C 573.842543 90.253241 573.989101 90.927774 574.24994 91.42504 
C 574.51078 91.922307 574.864603 92.201707 575.233486 92.201707 
z
" style="fill:#00c832;stroke:#ffffff;stroke-linejoin:miter;stroke-width:0.5;"/>
   </g>
   <g id="d121152ff3d7416886afb85c68c4ce83-19-node">
    <path clip-path="url(#pac54062694)" d="M 566.540091 108.774878 
C 566.908974 108.774878 567.262797 108.495477 567.523637 107.998211 
C 567.784476 107.500944 567.931034 106.826412 567.931034 106.123171 
C 567.931034 105.41993 567.784476 104.745397 567.523637 104.248131 
C 567.262797 103.750864 566.908974 103.471463 566.540091 103.471463 
C 566.171209 103.471463 565.817385 103.750864 565.556546 104.248131 
C 565.295707 104.745397 565.149148 105.41993 565.149148 106.123171 
C 565.149148 106.826412 565.295707 107.500944 565.556546 107.998211 
C 565.817385 108.495477 566.171209 108.774878 566.540091 108.774878 
z
" style="fill:#00c832;stroke:#ffffff;stroke-linejoin:miter;stroke-width:0.5;"/>
   </g>
   <g id="d121152ff3d7416886afb85c68c4ce83-23-node">
    <path clip-path="url(#pac54062694)" d="M 559.23764 111.758049 
L 559.23764 117.061463 
L 556.455754 117.061463 
L 556.455754 111.758049 
L 559.23764 111.758049 
z
" style="fill:#0000ff;stroke:#ffffff;stroke-linejoin:miter;stroke-width:0.5;"/>
   </g>
   <g id="d121152ff3d7416886afb85c68c4ce83-25-node">
    <path clip-path="url(#pac54062694)" d="M 549.153303 117.061463 
C 549.522185 117.061463 549.876009 116.782063 550.136848 116.284796 
C 550.397687 115.78753 550.544246 115.112997 550.544246 114.409756 
C 550.544246 113.706515 550.397687 113.031982 550.136848 112.534716 
C 549.876009 112.037449 549.522185 111.758049 549.153303 111.758049 
C 548.78442 111.758049 548.430597 112.037449 548.169758 112.534716 
C 547.908918 113.031982 547.76236 113.706515 547.76236 114.409756 
C 547.76236 115.112997 547.908918 115.78753 548.169758 116.284796 
C 548.430597 116.782063 548.78442 117.061463 549.153303 117.061463 
z
" style="fill:#ffff00;stroke:#ffffff;stroke-linejoin:miter;stroke-width:0.5;"/>
   </g>
   <g id="d121152ff3d7416886afb85c68c4ce83-20-node">
    <path clip-path="url(#pac54062694)" d="M 559.23764 95.184878 
L 559.23764 100.488293 
L 556.455754 100.488293 
L 556.455754 95.184878 
L 559.23764 95.184878 
z
" style="fill:#0000ff;stroke:#ffffff;stroke-linejoin:miter;stroke-width:0.5;"/>
   </g>
   <g id="d121152ff3d7416886afb85c68c4ce83-22-node">
    <path clip-path="url(#pac54062694)" d="M 549.153303 100.488293 
C 549.522185 100.488293 549.876009 100.208892 550.136848 99.711626 
C 550.397687 99.214359 550.544246 98.539826 550.544246 97.836585 
C 550.544246 97.133344 550.397687 96.458812 550.136848 95.961545 
C 549.876009 95.464279 549.522185 95.184878 549.153303 95.184878 
C 548.78442 95.184878 548.430597 95.464279 548.169758 95.961545 
C 547.908918 96.458812 547.76236 97.133344 547.76236 97.836585 
C 547.76236 98.539826 547.908918 99.214359 548.169758 99.711626 
C 548.430597 100.208892 548.78442 100.488293 549.153303 100.488293 
z
" style="fill:#ffff00;stroke:#ffffff;stroke-linejoin:miter;stroke-width:0.5;"/>
   </g>
   <g id="d121152ff3d7416886afb85c68c4ce83-6-node">
    <path clip-path="url(#pac54062694)" d="M 566.540091 75.628537 
C 566.908974 75.628537 567.262797 75.349136 567.523637 74.851869 
C 567.784476 74.354603 567.931034 73.68007 567.931034 72.976829 
C 567.931034 72.273588 567.784476 71.599056 567.523637 71.101789 
C 567.262797 70.604523 566.908974 70.325122 566.540091 70.325122 
C 566.171209 70.325122 565.817385 70.604523 565.556546 71.101789 
C 565.295707 71.599056 565.149148 72.273588 565.149148 72.976829 
C 565.149148 73.68007 565.295707 74.354603 565.556546 74.851869 
C 565.817385 75.349136 566.171209 75.628537 566.540091 75.628537 
z
" style="fill:#00c832;stroke:#ffffff;stroke-linejoin:miter;stroke-width:0.5;"/>
   </g>
   <g id="d121152ff3d7416886afb85c68c4ce83-16-node">
    <path clip-path="url(#pac54062694)" d="M 559.23764 78.611707 
L 559.23764 83.915122 
L 556.455754 83.915122 
L 556.455754 78.611707 
L 559.23764 78.611707 
z
" style="fill:#0000ff;stroke:#ffffff;stroke-linejoin:miter;stroke-width:0.5;"/>
   </g>
   <g id="d121152ff3d7416886afb85c68c4ce83-18-node">
    <path clip-path="url(#pac54062694)" d="M 549.153303 83.915122 
C 549.522185 83.915122 549.876009 83.635721 550.136848 83.138455 
C 550.397687 82.641188 550.544246 81.966656 550.544246 81.263415 
C 550.544246 80.560174 550.397687 79.885641 550.136848 79.388374 
C 549.876009 78.891108 549.522185 78.611707 549.153303 78.611707 
C 548.78442 78.611707 548.430597 78.891108 548.169758 79.388374 
C 547.908918 79.885641 547.76236 80.560174 547.76236 81.263415 
C 547.76236 81.966656 547.908918 82.641188 548.169758 83.138455 
C 548.430597 83.635721 548.78442 83.915122 549.153303 83.915122 
z
" style="fill:#ffff00;stroke:#ffffff;stroke-linejoin:miter;stroke-width:0.5;"/>
   </g>
   <g id="d121152ff3d7416886afb85c68c4ce83-7-node">
    <path clip-path="url(#pac54062694)" d="M 559.23764 62.038537 
L 559.23764 67.341951 
L 556.455754 67.341951 
L 556.455754 62.038537 
L 559.23764 62.038537 
z
" style="fill:#0000ff;stroke:#ffffff;stroke-linejoin:miter;stroke-width:0.5;"/>
   </g>
   <g id="d121152ff3d7416886afb85c68c4ce83-9-node">
    <path clip-path="url(#pac54062694)" d="M 549.153303 67.341951 
C 549.522185 67.341951 549.876009 67.062551 550.136848 66.565284 
C 550.397687 66.068018 550.544246 65.393485 550.544246 64.690244 
C 550.544246 63.987003 550.397687 63.31247 550.136848 62.815204 
C 549.876009 62.317937 549.522185 62.038537 549.153303 62.038537 
C 548.78442 62.038537 548.430597 62.317937 548.169758 62.815204 
C 547.908918 63.31247 547.76236 63.987003 547.76236 64.690244 
C 547.76236 65.393485 547.908918 66.068018 548.169758 66.565284 
C 548.430597 67.062551 548.78442 67.341951 549.153303 67.341951 
z
" style="fill:#ffff00;stroke:#ffffff;stroke-linejoin:miter;stroke-width:0.5;"/>
   </g>
   <g id="d121152ff3d7416886afb85c68c4ce83-10-node">
    <path clip-path="url(#pac54062694)" d="M 541.850852 62.038537 
L 541.850852 67.341951 
L 539.068966 67.341951 
L 539.068966 62.038537 
L 541.850852 62.038537 
z
" style="fill:#0000ff;stroke:#ffffff;stroke-linejoin:miter;stroke-width:0.5;"/>
   </g>
   <g id="d121152ff3d7416886afb85c68c4ce83-12-node">
    <path clip-path="url(#pac54062694)" d="M 531.766514 67.341951 
C 532.135397 67.341951 532.48922 67.062551 532.75006 66.565284 
C 533.010899 66.068018 533.157457 65.393485 533.157457 64.690244 
C 533.157457 63.987003 533.010899 63.31247 532.75006 62.815204 
C 532.48922 62.317937 532.135397 62.038537 531.766514 62.038537 
C 531.397632 62.038537 531.043808 62.317937 530.782969 62.815204 
C 530.52213 63.31247 530.375571 63.987003 530.375571 64.690244 
C 530.375571 65.393485 530.52213 66.068018 530.782969 66.565284 
C 531.043808 67.062551 531.397632 67.341951 531.766514 67.341951 
z
" style="fill:#ffff00;stroke:#ffffff;stroke-linejoin:miter;stroke-width:0.5;"/>
   </g>
   <g id="d121152ff3d7416886afb85c68c4ce83-13-node">
    <path clip-path="url(#pac54062694)" d="M 524.464063 62.038537 
L 524.464063 67.341951 
L 521.682177 67.341951 
L 521.682177 62.038537 
L 524.464063 62.038537 
z
" style="fill:#0000ff;stroke:#ffffff;stroke-linejoin:miter;stroke-width:0.5;"/>
   </g>
   <g id="d121152ff3d7416886afb85c68c4ce83-15-node">
    <path clip-path="url(#pac54062694)" d="M 514.379726 67.341951 
C 514.748608 67.341951 515.102432 67.062551 515.363271 66.565284 
C 515.62411 66.068018 515.770669 65.393485 515.770669 64.690244 
C 515.770669 63.987003 515.62411 63.31247 515.363271 62.815204 
C 515.102432 62.317937 514.748608 62.038537 514.379726 62.038537 
C 514.010843 62.038537 513.65702 62.317937 513.396181 62.815204 
C 513.135341 63.31247 512.988783 63.987003 512.988783 64.690244 
C 512.988783 65.393485 513.135341 66.068018 513.396181 66.565284 
C 513.65702 67.062551 514.010843 67.341951 514.379726 67.341951 
z
" style="fill:#ffff00;stroke:#ffffff;stroke-linejoin:miter;stroke-width:0.5;"/>
   </g>
   <g id="patch_56">
    <path d="M 481.344828 157.5 
L 481.344828 21.6 
" style="fill:none;stroke:#ffffff;stroke-linecap:square;stroke-linejoin:miter;stroke-width:1.25;"/>
   </g>
   <g id="patch_57">
    <path d="M 625.655172 157.5 
L 625.655172 21.6 
" style="fill:none;stroke:#ffffff;stroke-linecap:square;stroke-linejoin:miter;stroke-width:1.25;"/>
   </g>
   <g id="patch_58">
    <path d="M 481.344828 157.5 
L 625.655172 157.5 
" style="fill:none;stroke:#ffffff;stroke-linecap:square;stroke-linejoin:miter;stroke-width:1.25;"/>
   </g>
   <g id="patch_59">
    <path d="M 481.344828 21.6 
L 625.655172 21.6 
" style="fill:none;stroke:#ffffff;stroke-linecap:square;stroke-linejoin:miter;stroke-width:1.25;"/>
   </g>
   <g id="text_3">
    <!-- 1535:18.0 -->
    <g style="fill:#262626;" transform="translate(526.810313 15.6)scale(0.12 -0.12)">
     <use xlink:href="#ArialMT-49"/>
     <use x="55.615234" xlink:href="#ArialMT-53"/>
     <use x="111.230469" xlink:href="#ArialMT-51"/>
     <use x="166.845703" xlink:href="#ArialMT-53"/>
     <use x="222.460938" xlink:href="#ArialMT-58"/>
     <use x="250.244141" xlink:href="#ArialMT-49"/>
     <use x="305.859375" xlink:href="#ArialMT-56"/>
     <use x="361.474609" xlink:href="#ArialMT-46"/>
     <use x="389.257812" xlink:href="#ArialMT-48"/>
    </g>
   </g>
  </g>
  <g id="axes_4">
   <g id="patch_60">
    <path d="M 654.517241 157.5 
L 798.827586 157.5 
L 798.827586 21.6 
L 654.517241 21.6 
z
" style="fill:#eaeaf2;"/>
   </g>
   <g id="matplotlib.axis_1">
    <g id="xtick_1">
     <g id="line2d_1">
      <path clip-path="url(#p48716a2d46)" d="M 654.517241 157.5 
L 654.517241 21.6 
" style="fill:none;stroke:#ffffff;stroke-linecap:round;"/>
     </g>
     <g id="text_4">
      <!-- 0.00 -->
      <g style="fill:#262626;" transform="translate(643.813726 174.873594)scale(0.11 -0.11)">
       <use xlink:href="#ArialMT-48"/>
       <use x="55.615234" xlink:href="#ArialMT-46"/>
       <use x="83.398438" xlink:href="#ArialMT-48"/>
       <use x="139.013672" xlink:href="#ArialMT-48"/>
      </g>
     </g>
    </g>
    <g id="xtick_2">
     <g id="line2d_2">
      <path clip-path="url(#p48716a2d46)" d="M 690.594828 157.5 
L 690.594828 21.6 
" style="fill:none;stroke:#ffffff;stroke-linecap:round;"/>
     </g>
     <g id="text_5">
      <!-- 0.25 -->
      <g style="fill:#262626;" transform="translate(679.891312 174.873594)scale(0.11 -0.11)">
       <use xlink:href="#ArialMT-48"/>
       <use x="55.615234" xlink:href="#ArialMT-46"/>
       <use x="83.398438" xlink:href="#ArialMT-50"/>
       <use x="139.013672" xlink:href="#ArialMT-53"/>
      </g>
     </g>
    </g>
    <g id="xtick_3">
     <g id="line2d_3">
      <path clip-path="url(#p48716a2d46)" d="M 726.672414 157.5 
L 726.672414 21.6 
" style="fill:none;stroke:#ffffff;stroke-linecap:round;"/>
     </g>
     <g id="text_6">
      <!-- 0.50 -->
      <g style="fill:#262626;" transform="translate(715.968898 174.873594)scale(0.11 -0.11)">
       <use xlink:href="#ArialMT-48"/>
       <use x="55.615234" xlink:href="#ArialMT-46"/>
       <use x="83.398438" xlink:href="#ArialMT-53"/>
       <use x="139.013672" xlink:href="#ArialMT-48"/>
      </g>
     </g>
    </g>
    <g id="xtick_4">
     <g id="line2d_4">
      <path clip-path="url(#p48716a2d46)" d="M 762.75 157.5 
L 762.75 21.6 
" style="fill:none;stroke:#ffffff;stroke-linecap:round;"/>
     </g>
     <g id="text_7">
      <!-- 0.75 -->
      <defs>
       <path d="M 4.734375 62.203125 
L 4.734375 70.65625 
L 51.078125 70.65625 
L 51.078125 63.8125 
Q 44.234375 56.546875 37.515625 44.484375 
Q 30.8125 32.421875 27.15625 19.671875 
Q 24.515625 10.6875 23.78125 0 
L 14.75 0 
Q 14.890625 8.453125 18.0625 20.40625 
Q 21.234375 32.375 27.171875 43.484375 
Q 33.109375 54.59375 39.796875 62.203125 
z
" id="ArialMT-55"/>
      </defs>
      <g style="fill:#262626;" transform="translate(752.046484 174.873594)scale(0.11 -0.11)">
       <use xlink:href="#ArialMT-48"/>
       <use x="55.615234" xlink:href="#ArialMT-46"/>
       <use x="83.398438" xlink:href="#ArialMT-55"/>
       <use x="139.013672" xlink:href="#ArialMT-53"/>
      </g>
     </g>
    </g>
    <g id="xtick_5">
     <g id="line2d_5">
      <path clip-path="url(#p48716a2d46)" d="M 798.827586 157.5 
L 798.827586 21.6 
" style="fill:none;stroke:#ffffff;stroke-linecap:round;"/>
     </g>
     <g id="text_8">
      <!-- 1.00 -->
      <g style="fill:#262626;" transform="translate(788.124071 174.873594)scale(0.11 -0.11)">
       <use xlink:href="#ArialMT-49"/>
       <use x="55.615234" xlink:href="#ArialMT-46"/>
       <use x="83.398438" xlink:href="#ArialMT-48"/>
       <use x="139.013672" xlink:href="#ArialMT-48"/>
      </g>
     </g>
    </g>
   </g>
   <g id="matplotlib.axis_2">
    <g id="ytick_1">
     <g id="line2d_6">
      <path clip-path="url(#p48716a2d46)" d="M 654.517241 157.5 
L 798.827586 157.5 
" style="fill:none;stroke:#ffffff;stroke-linecap:round;"/>
     </g>
     <g id="text_9">
      <!-- 0.0 -->
      <g style="fill:#262626;" transform="translate(629.727241 161.436797)scale(0.11 -0.11)">
       <use xlink:href="#ArialMT-48"/>
       <use x="55.615234" xlink:href="#ArialMT-46"/>
       <use x="83.398438" xlink:href="#ArialMT-48"/>
      </g>
     </g>
    </g>
    <g id="ytick_2">
     <g id="line2d_7">
      <path clip-path="url(#p48716a2d46)" d="M 654.517241 130.32 
L 798.827586 130.32 
" style="fill:none;stroke:#ffffff;stroke-linecap:round;"/>
     </g>
     <g id="text_10">
      <!-- 0.2 -->
      <g style="fill:#262626;" transform="translate(629.727241 134.256797)scale(0.11 -0.11)">
       <use xlink:href="#ArialMT-48"/>
       <use x="55.615234" xlink:href="#ArialMT-46"/>
       <use x="83.398438" xlink:href="#ArialMT-50"/>
      </g>
     </g>
    </g>
    <g id="ytick_3">
     <g id="line2d_8">
      <path clip-path="url(#p48716a2d46)" d="M 654.517241 103.14 
L 798.827586 103.14 
" style="fill:none;stroke:#ffffff;stroke-linecap:round;"/>
     </g>
     <g id="text_11">
      <!-- 0.4 -->
      <defs>
       <path d="M 32.328125 0 
L 32.328125 17.140625 
L 1.265625 17.140625 
L 1.265625 25.203125 
L 33.9375 71.578125 
L 41.109375 71.578125 
L 41.109375 25.203125 
L 50.78125 25.203125 
L 50.78125 17.140625 
L 41.109375 17.140625 
L 41.109375 0 
z
M 32.328125 25.203125 
L 32.328125 57.46875 
L 9.90625 25.203125 
z
" id="ArialMT-52"/>
      </defs>
      <g style="fill:#262626;" transform="translate(629.727241 107.076797)scale(0.11 -0.11)">
       <use xlink:href="#ArialMT-48"/>
       <use x="55.615234" xlink:href="#ArialMT-46"/>
       <use x="83.398438" xlink:href="#ArialMT-52"/>
      </g>
     </g>
    </g>
    <g id="ytick_4">
     <g id="line2d_9">
      <path clip-path="url(#p48716a2d46)" d="M 654.517241 75.96 
L 798.827586 75.96 
" style="fill:none;stroke:#ffffff;stroke-linecap:round;"/>
     </g>
     <g id="text_12">
      <!-- 0.6 -->
      <defs>
       <path d="M 49.75 54.046875 
L 41.015625 53.375 
Q 39.84375 58.546875 37.703125 60.890625 
Q 34.125 64.65625 28.90625 64.65625 
Q 24.703125 64.65625 21.53125 62.3125 
Q 17.390625 59.28125 14.984375 53.46875 
Q 12.59375 47.65625 12.5 36.921875 
Q 15.671875 41.75 20.265625 44.09375 
Q 24.859375 46.4375 29.890625 46.4375 
Q 38.671875 46.4375 44.84375 39.96875 
Q 51.03125 33.5 51.03125 23.25 
Q 51.03125 16.5 48.125 10.71875 
Q 45.21875 4.9375 40.140625 1.859375 
Q 35.0625 -1.21875 28.609375 -1.21875 
Q 17.625 -1.21875 10.6875 6.859375 
Q 3.765625 14.9375 3.765625 33.5 
Q 3.765625 54.25 11.421875 63.671875 
Q 18.109375 71.875 29.4375 71.875 
Q 37.890625 71.875 43.28125 67.140625 
Q 48.6875 62.40625 49.75 54.046875 
z
M 13.875 23.1875 
Q 13.875 18.65625 15.796875 14.5 
Q 17.71875 10.359375 21.1875 8.171875 
Q 24.65625 6 28.46875 6 
Q 34.03125 6 38.03125 10.484375 
Q 42.046875 14.984375 42.046875 22.703125 
Q 42.046875 30.125 38.078125 34.390625 
Q 34.125 38.671875 28.125 38.671875 
Q 22.171875 38.671875 18.015625 34.390625 
Q 13.875 30.125 13.875 23.1875 
z
" id="ArialMT-54"/>
      </defs>
      <g style="fill:#262626;" transform="translate(629.727241 79.896797)scale(0.11 -0.11)">
       <use xlink:href="#ArialMT-48"/>
       <use x="55.615234" xlink:href="#ArialMT-46"/>
       <use x="83.398438" xlink:href="#ArialMT-54"/>
      </g>
     </g>
    </g>
    <g id="ytick_5">
     <g id="line2d_10">
      <path clip-path="url(#p48716a2d46)" d="M 654.517241 48.78 
L 798.827586 48.78 
" style="fill:none;stroke:#ffffff;stroke-linecap:round;"/>
     </g>
     <g id="text_13">
      <!-- 0.8 -->
      <g style="fill:#262626;" transform="translate(629.727241 52.716797)scale(0.11 -0.11)">
       <use xlink:href="#ArialMT-48"/>
       <use x="55.615234" xlink:href="#ArialMT-46"/>
       <use x="83.398438" xlink:href="#ArialMT-56"/>
      </g>
     </g>
    </g>
    <g id="ytick_6">
     <g id="line2d_11">
      <path clip-path="url(#p48716a2d46)" d="M 654.517241 21.6 
L 798.827586 21.6 
" style="fill:none;stroke:#ffffff;stroke-linecap:round;"/>
     </g>
     <g id="text_14">
      <!-- 1.0 -->
      <g style="fill:#262626;" transform="translate(629.727241 25.536797)scale(0.11 -0.11)">
       <use xlink:href="#ArialMT-49"/>
       <use x="55.615234" xlink:href="#ArialMT-46"/>
       <use x="83.398438" xlink:href="#ArialMT-48"/>
      </g>
     </g>
    </g>
   </g>
   <g id="patch_61">
    <path d="M 654.517241 157.5 
L 654.517241 21.6 
" style="fill:none;stroke:#ffffff;stroke-linecap:square;stroke-linejoin:miter;stroke-width:1.25;"/>
   </g>
   <g id="patch_62">
    <path d="M 798.827586 157.5 
L 798.827586 21.6 
" style="fill:none;stroke:#ffffff;stroke-linecap:square;stroke-linejoin:miter;stroke-width:1.25;"/>
   </g>
   <g id="patch_63">
    <path d="M 654.517241 157.5 
L 798.827586 157.5 
" style="fill:none;stroke:#ffffff;stroke-linecap:square;stroke-linejoin:miter;stroke-width:1.25;"/>
   </g>
   <g id="patch_64">
    <path d="M 654.517241 21.6 
L 798.827586 21.6 
" style="fill:none;stroke:#ffffff;stroke-linecap:square;stroke-linejoin:miter;stroke-width:1.25;"/>
   </g>
  </g>
  <g id="axes_5">
   <g id="patch_65">
    <path d="M 827.689655 157.5 
L 972 157.5 
L 972 21.6 
L 827.689655 21.6 
z
" style="fill:#eaeaf2;"/>
   </g>
   <g id="matplotlib.axis_3">
    <g id="xtick_6">
     <g id="line2d_12">
      <path clip-path="url(#pb19f9c6922)" d="M 827.689655 157.5 
L 827.689655 21.6 
" style="fill:none;stroke:#ffffff;stroke-linecap:round;"/>
     </g>
     <g id="text_15">
      <!-- 0.00 -->
      <g style="fill:#262626;" transform="translate(816.98614 174.873594)scale(0.11 -0.11)">
       <use xlink:href="#ArialMT-48"/>
       <use x="55.615234" xlink:href="#ArialMT-46"/>
       <use x="83.398438" xlink:href="#ArialMT-48"/>
       <use x="139.013672" xlink:href="#ArialMT-48"/>
      </g>
     </g>
    </g>
    <g id="xtick_7">
     <g id="line2d_13">
      <path clip-path="url(#pb19f9c6922)" d="M 863.767241 157.5 
L 863.767241 21.6 
" style="fill:none;stroke:#ffffff;stroke-linecap:round;"/>
     </g>
     <g id="text_16">
      <!-- 0.25 -->
      <g style="fill:#262626;" transform="translate(853.063726 174.873594)scale(0.11 -0.11)">
       <use xlink:href="#ArialMT-48"/>
       <use x="55.615234" xlink:href="#ArialMT-46"/>
       <use x="83.398438" xlink:href="#ArialMT-50"/>
       <use x="139.013672" xlink:href="#ArialMT-53"/>
      </g>
     </g>
    </g>
    <g id="xtick_8">
     <g id="line2d_14">
      <path clip-path="url(#pb19f9c6922)" d="M 899.844828 157.5 
L 899.844828 21.6 
" style="fill:none;stroke:#ffffff;stroke-linecap:round;"/>
     </g>
     <g id="text_17">
      <!-- 0.50 -->
      <g style="fill:#262626;" transform="translate(889.141312 174.873594)scale(0.11 -0.11)">
       <use xlink:href="#ArialMT-48"/>
       <use x="55.615234" xlink:href="#ArialMT-46"/>
       <use x="83.398438" xlink:href="#ArialMT-53"/>
       <use x="139.013672" xlink:href="#ArialMT-48"/>
      </g>
     </g>
    </g>
    <g id="xtick_9">
     <g id="line2d_15">
      <path clip-path="url(#pb19f9c6922)" d="M 935.922414 157.5 
L 935.922414 21.6 
" style="fill:none;stroke:#ffffff;stroke-linecap:round;"/>
     </g>
     <g id="text_18">
      <!-- 0.75 -->
      <g style="fill:#262626;" transform="translate(925.218898 174.873594)scale(0.11 -0.11)">
       <use xlink:href="#ArialMT-48"/>
       <use x="55.615234" xlink:href="#ArialMT-46"/>
       <use x="83.398438" xlink:href="#ArialMT-55"/>
       <use x="139.013672" xlink:href="#ArialMT-53"/>
      </g>
     </g>
    </g>
    <g id="xtick_10">
     <g id="line2d_16">
      <path clip-path="url(#pb19f9c6922)" d="M 972 157.5 
L 972 21.6 
" style="fill:none;stroke:#ffffff;stroke-linecap:round;"/>
     </g>
     <g id="text_19">
      <!-- 1.00 -->
      <g style="fill:#262626;" transform="translate(961.296484 174.873594)scale(0.11 -0.11)">
       <use xlink:href="#ArialMT-49"/>
       <use x="55.615234" xlink:href="#ArialMT-46"/>
       <use x="83.398438" xlink:href="#ArialMT-48"/>
       <use x="139.013672" xlink:href="#ArialMT-48"/>
      </g>
     </g>
    </g>
   </g>
   <g id="matplotlib.axis_4">
    <g id="ytick_7">
     <g id="line2d_17">
      <path clip-path="url(#pb19f9c6922)" d="M 827.689655 157.5 
L 972 157.5 
" style="fill:none;stroke:#ffffff;stroke-linecap:round;"/>
     </g>
     <g id="text_20">
      <!-- 0.0 -->
      <g style="fill:#262626;" transform="translate(802.899655 161.436797)scale(0.11 -0.11)">
       <use xlink:href="#ArialMT-48"/>
       <use x="55.615234" xlink:href="#ArialMT-46"/>
       <use x="83.398438" xlink:href="#ArialMT-48"/>
      </g>
     </g>
    </g>
    <g id="ytick_8">
     <g id="line2d_18">
      <path clip-path="url(#pb19f9c6922)" d="M 827.689655 130.32 
L 972 130.32 
" style="fill:none;stroke:#ffffff;stroke-linecap:round;"/>
     </g>
     <g id="text_21">
      <!-- 0.2 -->
      <g style="fill:#262626;" transform="translate(802.899655 134.256797)scale(0.11 -0.11)">
       <use xlink:href="#ArialMT-48"/>
       <use x="55.615234" xlink:href="#ArialMT-46"/>
       <use x="83.398438" xlink:href="#ArialMT-50"/>
      </g>
     </g>
    </g>
    <g id="ytick_9">
     <g id="line2d_19">
      <path clip-path="url(#pb19f9c6922)" d="M 827.689655 103.14 
L 972 103.14 
" style="fill:none;stroke:#ffffff;stroke-linecap:round;"/>
     </g>
     <g id="text_22">
      <!-- 0.4 -->
      <g style="fill:#262626;" transform="translate(802.899655 107.076797)scale(0.11 -0.11)">
       <use xlink:href="#ArialMT-48"/>
       <use x="55.615234" xlink:href="#ArialMT-46"/>
       <use x="83.398438" xlink:href="#ArialMT-52"/>
      </g>
     </g>
    </g>
    <g id="ytick_10">
     <g id="line2d_20">
      <path clip-path="url(#pb19f9c6922)" d="M 827.689655 75.96 
L 972 75.96 
" style="fill:none;stroke:#ffffff;stroke-linecap:round;"/>
     </g>
     <g id="text_23">
      <!-- 0.6 -->
      <g style="fill:#262626;" transform="translate(802.899655 79.896797)scale(0.11 -0.11)">
       <use xlink:href="#ArialMT-48"/>
       <use x="55.615234" xlink:href="#ArialMT-46"/>
       <use x="83.398438" xlink:href="#ArialMT-54"/>
      </g>
     </g>
    </g>
    <g id="ytick_11">
     <g id="line2d_21">
      <path clip-path="url(#pb19f9c6922)" d="M 827.689655 48.78 
L 972 48.78 
" style="fill:none;stroke:#ffffff;stroke-linecap:round;"/>
     </g>
     <g id="text_24">
      <!-- 0.8 -->
      <g style="fill:#262626;" transform="translate(802.899655 52.716797)scale(0.11 -0.11)">
       <use xlink:href="#ArialMT-48"/>
       <use x="55.615234" xlink:href="#ArialMT-46"/>
       <use x="83.398438" xlink:href="#ArialMT-56"/>
      </g>
     </g>
    </g>
    <g id="ytick_12">
     <g id="line2d_22">
      <path clip-path="url(#pb19f9c6922)" d="M 827.689655 21.6 
L 972 21.6 
" style="fill:none;stroke:#ffffff;stroke-linecap:round;"/>
     </g>
     <g id="text_25">
      <!-- 1.0 -->
      <g style="fill:#262626;" transform="translate(802.899655 25.536797)scale(0.11 -0.11)">
       <use xlink:href="#ArialMT-49"/>
       <use x="55.615234" xlink:href="#ArialMT-46"/>
       <use x="83.398438" xlink:href="#ArialMT-48"/>
      </g>
     </g>
    </g>
   </g>
   <g id="patch_66">
    <path d="M 827.689655 157.5 
L 827.689655 21.6 
" style="fill:none;stroke:#ffffff;stroke-linecap:square;stroke-linejoin:miter;stroke-width:1.25;"/>
   </g>
   <g id="patch_67">
    <path d="M 972 157.5 
L 972 21.6 
" style="fill:none;stroke:#ffffff;stroke-linecap:square;stroke-linejoin:miter;stroke-width:1.25;"/>
   </g>
   <g id="patch_68">
    <path d="M 827.689655 157.5 
L 972 157.5 
" style="fill:none;stroke:#ffffff;stroke-linecap:square;stroke-linejoin:miter;stroke-width:1.25;"/>
   </g>
   <g id="patch_69">
    <path d="M 827.689655 21.6 
L 972 21.6 
" style="fill:none;stroke:#ffffff;stroke-linecap:square;stroke-linejoin:miter;stroke-width:1.25;"/>
   </g>
   <g id="text_26">
    <!-- 28 -->
    <g style="fill:#262626;" transform="translate(893.171703 15.6)scale(0.12 -0.12)">
     <use xlink:href="#ArialMT-50"/>
     <use x="55.615234" xlink:href="#ArialMT-56"/>
    </g>
   </g>
  </g>
 </g>
 <defs>
  <clipPath id="p539b7c6fdb">
   <rect height="135.9" width="144.310345" x="135" y="21.6"/>
  </clipPath>
  <clipPath id="pa400704c41">
   <rect height="135.9" width="144.310345" x="308.172414" y="21.6"/>
  </clipPath>
  <clipPath id="pac54062694">
   <rect height="135.9" width="144.310345" x="481.344828" y="21.6"/>
  </clipPath>
  <clipPath id="p48716a2d46">
   <rect height="135.9" width="144.310345" x="654.517241" y="21.6"/>
  </clipPath>
  <clipPath id="pb19f9c6922">
   <rect height="135.9" width="144.310345" x="827.689655" y="21.6"/>
  </clipPath>
 </defs>
</svg>
