<?xml version="1.0" encoding="utf-8" standalone="no"?>
<!DOCTYPE svg PUBLIC "-//W3C//DTD SVG 1.1//EN"
  "http://www.w3.org/Graphics/SVG/1.1/DTD/svg11.dtd">
<!-- Created with matplotlib (https://matplotlib.org/) -->
<svg height="180pt" version="1.1" viewBox="0 0 1080 180" width="1080pt" xmlns="http://www.w3.org/2000/svg" xmlns:xlink="http://www.w3.org/1999/xlink">
 <defs>
  <style type="text/css">
*{stroke-linecap:butt;stroke-linejoin:round;}
  </style>
 </defs>
 <g id="figure_1">
  <g id="patch_1">
   <path d="M 0 180 
L 1080 180 
L 1080 0 
L 0 0 
z
" style="fill:#ffffff;"/>
  </g>
  <g id="axes_1">
   <g id="patch_2">
    <path d="M 135 157.5 
L 279.310345 157.5 
L 279.310345 21.6 
L 135 21.6 
z
" style="fill:#ffffff;"/>
   </g>
   <g id="patch_3">
    <path clip-path="url(#pd3b25733b9)" d="M 191.469265 114.409756 
L 181.011994 114.409756 
" style="stroke:#000000;stroke-linejoin:miter;stroke-width:0.5;"/>
   </g>
   <g id="patch_4">
    <path clip-path="url(#pd3b25733b9)" d="M 201.926537 114.409756 
L 191.469265 114.409756 
" style="stroke:#000000;stroke-linejoin:miter;stroke-width:0.5;"/>
   </g>
   <g id="patch_5">
    <path clip-path="url(#pd3b25733b9)" d="M 212.383808 106.123171 
L 201.926537 114.409756 
" style="stroke:#000000;stroke-linejoin:miter;stroke-width:0.5;"/>
   </g>
   <g id="patch_6">
    <path clip-path="url(#pd3b25733b9)" d="M 191.469265 97.836585 
L 181.011994 97.836585 
" style="stroke:#000000;stroke-linejoin:miter;stroke-width:0.5;"/>
   </g>
   <g id="patch_7">
    <path clip-path="url(#pd3b25733b9)" d="M 201.926537 97.836585 
L 191.469265 97.836585 
" style="stroke:#000000;stroke-linejoin:miter;stroke-width:0.5;"/>
   </g>
   <g id="patch_8">
    <path clip-path="url(#pd3b25733b9)" d="M 212.383808 106.123171 
L 201.926537 97.836585 
" style="stroke:#000000;stroke-linejoin:miter;stroke-width:0.5;"/>
   </g>
   <g id="patch_9">
    <path clip-path="url(#pd3b25733b9)" d="M 222.841079 89.55 
L 212.383808 106.123171 
" style="stroke:#000000;stroke-linejoin:miter;stroke-width:0.5;"/>
   </g>
   <g id="patch_10">
    <path clip-path="url(#pd3b25733b9)" d="M 181.011994 81.263415 
L 170.554723 81.263415 
" style="stroke:#000000;stroke-linejoin:miter;stroke-width:0.5;"/>
   </g>
   <g id="patch_11">
    <path clip-path="url(#pd3b25733b9)" d="M 191.469265 81.263415 
L 181.011994 81.263415 
" style="stroke:#000000;stroke-linejoin:miter;stroke-width:0.5;"/>
   </g>
   <g id="patch_12">
    <path clip-path="url(#pd3b25733b9)" d="M 201.926537 81.263415 
L 191.469265 81.263415 
" style="stroke:#000000;stroke-linejoin:miter;stroke-width:0.5;"/>
   </g>
   <g id="patch_13">
    <path clip-path="url(#pd3b25733b9)" d="M 212.383808 72.976829 
L 201.926537 81.263415 
" style="stroke:#000000;stroke-linejoin:miter;stroke-width:0.5;"/>
   </g>
   <g id="patch_14">
    <path clip-path="url(#pd3b25733b9)" d="M 191.469265 64.690244 
L 181.011994 64.690244 
" style="stroke:#000000;stroke-linejoin:miter;stroke-width:0.5;"/>
   </g>
   <g id="patch_15">
    <path clip-path="url(#pd3b25733b9)" d="M 201.926537 64.690244 
L 191.469265 64.690244 
" style="stroke:#000000;stroke-linejoin:miter;stroke-width:0.5;"/>
   </g>
   <g id="patch_16">
    <path clip-path="url(#pd3b25733b9)" d="M 212.383808 72.976829 
L 201.926537 64.690244 
" style="stroke:#000000;stroke-linejoin:miter;stroke-width:0.5;"/>
   </g>
   <g id="patch_17">
    <path clip-path="url(#pd3b25733b9)" d="M 222.841079 89.55 
L 212.383808 72.976829 
" style="stroke:#000000;stroke-linejoin:miter;stroke-width:0.5;"/>
   </g>
   <g id="patch_18">
    <path clip-path="url(#pd3b25733b9)" d="M 233.298351 89.55 
L 222.841079 89.55 
" style="stroke:#000000;stroke-linejoin:miter;stroke-width:0.5;"/>
   </g>
   <g id="patch_19">
    <path clip-path="url(#pd3b25733b9)" d="M 243.755622 89.55 
L 233.298351 89.55 
" style="stroke:#000000;stroke-linejoin:miter;stroke-width:0.5;"/>
   </g>
   <g id="988866d8cf474eddba550eebef870879-1-node">
    <path clip-path="url(#pd3b25733b9)" d="M 245.428786 86.898293 
L 245.428786 92.201707 
L 242.082459 92.201707 
L 242.082459 86.898293 
L 245.428786 86.898293 
z
" style="fill:#0000ff;stroke:#ffffff;stroke-linejoin:miter;stroke-width:0.5;"/>
   </g>
   <g id="988866d8cf474eddba550eebef870879-3-node">
    <path clip-path="url(#pd3b25733b9)" d="M 234.971514 86.898293 
L 234.971514 92.201707 
L 231.625187 92.201707 
L 231.625187 86.898293 
L 234.971514 86.898293 
z
" style="fill:#0000ff;stroke:#ffffff;stroke-linejoin:miter;stroke-width:0.5;"/>
   </g>
   <g id="988866d8cf474eddba550eebef870879-5-node">
    <path clip-path="url(#pd3b25733b9)" d="M 222.841079 92.201707 
C 223.284808 92.201707 223.710421 91.922307 224.024185 91.42504 
C 224.337948 90.927774 224.514243 90.253241 224.514243 89.55 
C 224.514243 88.846759 224.337948 88.172226 224.024185 87.67496 
C 223.710421 87.177693 223.284808 86.898293 222.841079 86.898293 
C 222.397351 86.898293 221.971737 87.177693 221.657974 87.67496 
C 221.344211 88.172226 221.167916 88.846759 221.167916 89.55 
C 221.167916 90.253241 221.344211 90.927774 221.657974 91.42504 
C 221.971737 91.922307 222.397351 92.201707 222.841079 92.201707 
z
" style="fill:#00c832;stroke:#ffffff;stroke-linejoin:miter;stroke-width:0.5;"/>
   </g>
   <g id="988866d8cf474eddba550eebef870879-18-node">
    <path clip-path="url(#pd3b25733b9)" d="M 212.383808 108.774878 
C 212.827536 108.774878 213.25315 108.495477 213.566913 107.998211 
C 213.880676 107.500944 214.056972 106.826412 214.056972 106.123171 
C 214.056972 105.41993 213.880676 104.745397 213.566913 104.248131 
C 213.25315 103.750864 212.827536 103.471463 212.383808 103.471463 
C 211.94008 103.471463 211.514466 103.750864 211.200703 104.248131 
C 210.88694 104.745397 210.710645 105.41993 210.710645 106.123171 
C 210.710645 106.826412 210.88694 107.500944 211.200703 107.998211 
C 211.514466 108.495477 211.94008 108.774878 212.383808 108.774878 
z
" style="fill:#00c832;stroke:#ffffff;stroke-linejoin:miter;stroke-width:0.5;"/>
   </g>
   <g id="988866d8cf474eddba550eebef870879-24-node">
    <path clip-path="url(#pd3b25733b9)" d="M 203.5997 111.758049 
L 203.5997 117.061463 
L 200.253373 117.061463 
L 200.253373 111.758049 
L 203.5997 111.758049 
z
" style="fill:#0000ff;stroke:#ffffff;stroke-linejoin:miter;stroke-width:0.5;"/>
   </g>
   <g id="988866d8cf474eddba550eebef870879-26-node">
    <path clip-path="url(#pd3b25733b9)" d="M 191.469265 117.061463 
C 191.912993 117.061463 192.338607 116.782063 192.652371 116.284796 
C 192.966134 115.78753 193.142429 115.112997 193.142429 114.409756 
C 193.142429 113.706515 192.966134 113.031982 192.652371 112.534716 
C 192.338607 112.037449 191.912993 111.758049 191.469265 111.758049 
C 191.025537 111.758049 190.599923 112.037449 190.28616 112.534716 
C 189.972397 113.031982 189.796102 113.706515 189.796102 114.409756 
C 189.796102 115.112997 189.972397 115.78753 190.28616 116.284796 
C 190.599923 116.782063 191.025537 117.061463 191.469265 117.061463 
z
" style="fill:#ffff00;stroke:#ffffff;stroke-linejoin:miter;stroke-width:0.5;"/>
   </g>
   <g id="988866d8cf474eddba550eebef870879-27-node">
    <path clip-path="url(#pd3b25733b9)" d="M 181.011994 111.758049 
L 179.338831 114.409756 
L 181.011994 117.061463 
L 182.685157 114.409756 
z
" style="fill:#c800c8;stroke:#ffffff;stroke-linejoin:miter;stroke-width:0.5;"/>
   </g>
   <g id="988866d8cf474eddba550eebef870879-19-node">
    <path clip-path="url(#pd3b25733b9)" d="M 203.5997 95.184878 
L 203.5997 100.488293 
L 200.253373 100.488293 
L 200.253373 95.184878 
L 203.5997 95.184878 
z
" style="fill:#0000ff;stroke:#ffffff;stroke-linejoin:miter;stroke-width:0.5;"/>
   </g>
   <g id="988866d8cf474eddba550eebef870879-21-node">
    <path clip-path="url(#pd3b25733b9)" d="M 191.469265 100.488293 
C 191.912993 100.488293 192.338607 100.208892 192.652371 99.711626 
C 192.966134 99.214359 193.142429 98.539826 193.142429 97.836585 
C 193.142429 97.133344 192.966134 96.458812 192.652371 95.961545 
C 192.338607 95.464279 191.912993 95.184878 191.469265 95.184878 
C 191.025537 95.184878 190.599923 95.464279 190.28616 95.961545 
C 189.972397 96.458812 189.796102 97.133344 189.796102 97.836585 
C 189.796102 98.539826 189.972397 99.214359 190.28616 99.711626 
C 190.599923 100.208892 191.025537 100.488293 191.469265 100.488293 
z
" style="fill:#ffff00;stroke:#ffffff;stroke-linejoin:miter;stroke-width:0.5;"/>
   </g>
   <g id="988866d8cf474eddba550eebef870879-22-node">
    <path clip-path="url(#pd3b25733b9)" d="M 181.011994 95.184878 
L 179.338831 97.836585 
L 181.011994 100.488293 
L 182.685157 97.836585 
z
" style="fill:#c800c8;stroke:#ffffff;stroke-linejoin:miter;stroke-width:0.5;"/>
   </g>
   <g id="988866d8cf474eddba550eebef870879-6-node">
    <path clip-path="url(#pd3b25733b9)" d="M 212.383808 75.628537 
C 212.827536 75.628537 213.25315 75.349136 213.566913 74.851869 
C 213.880676 74.354603 214.056972 73.68007 214.056972 72.976829 
C 214.056972 72.273588 213.880676 71.599056 213.566913 71.101789 
C 213.25315 70.604523 212.827536 70.325122 212.383808 70.325122 
C 211.94008 70.325122 211.514466 70.604523 211.200703 71.101789 
C 210.88694 71.599056 210.710645 72.273588 210.710645 72.976829 
C 210.710645 73.68007 210.88694 74.354603 211.200703 74.851869 
C 211.514466 75.349136 211.94008 75.628537 212.383808 75.628537 
z
" style="fill:#00c832;stroke:#ffffff;stroke-linejoin:miter;stroke-width:0.5;"/>
   </g>
   <g id="988866d8cf474eddba550eebef870879-12-node">
    <path clip-path="url(#pd3b25733b9)" d="M 203.5997 78.611707 
L 203.5997 83.915122 
L 200.253373 83.915122 
L 200.253373 78.611707 
L 203.5997 78.611707 
z
" style="fill:#0000ff;stroke:#ffffff;stroke-linejoin:miter;stroke-width:0.5;"/>
   </g>
   <g id="988866d8cf474eddba550eebef870879-14-node">
    <path clip-path="url(#pd3b25733b9)" d="M 191.469265 83.915122 
C 191.912993 83.915122 192.338607 83.635721 192.652371 83.138455 
C 192.966134 82.641188 193.142429 81.966656 193.142429 81.263415 
C 193.142429 80.560174 192.966134 79.885641 192.652371 79.388374 
C 192.338607 78.891108 191.912993 78.611707 191.469265 78.611707 
C 191.025537 78.611707 190.599923 78.891108 190.28616 79.388374 
C 189.972397 79.885641 189.796102 80.560174 189.796102 81.263415 
C 189.796102 81.966656 189.972397 82.641188 190.28616 83.138455 
C 190.599923 83.635721 191.025537 83.915122 191.469265 83.915122 
z
" style="fill:#ffff00;stroke:#ffffff;stroke-linejoin:miter;stroke-width:0.5;"/>
   </g>
   <g id="988866d8cf474eddba550eebef870879-15-node">
    <path clip-path="url(#pd3b25733b9)" d="M 182.685157 78.611707 
L 182.685157 83.915122 
L 179.338831 83.915122 
L 179.338831 78.611707 
L 182.685157 78.611707 
z
" style="fill:#0000ff;stroke:#ffffff;stroke-linejoin:miter;stroke-width:0.5;"/>
   </g>
   <g id="988866d8cf474eddba550eebef870879-17-node">
    <path clip-path="url(#pd3b25733b9)" d="M 170.554723 83.915122 
C 170.998451 83.915122 171.424065 83.635721 171.737828 83.138455 
C 172.051591 82.641188 172.227886 81.966656 172.227886 81.263415 
C 172.227886 80.560174 172.051591 79.885641 171.737828 79.388374 
C 171.424065 78.891108 170.998451 78.611707 170.554723 78.611707 
C 170.110995 78.611707 169.685381 78.891108 169.371617 79.388374 
C 169.057854 79.885641 168.881559 80.560174 168.881559 81.263415 
C 168.881559 81.966656 169.057854 82.641188 169.371617 83.138455 
C 169.685381 83.635721 170.110995 83.915122 170.554723 83.915122 
z
" style="fill:#ffff00;stroke:#ffffff;stroke-linejoin:miter;stroke-width:0.5;"/>
   </g>
   <g id="988866d8cf474eddba550eebef870879-7-node">
    <path clip-path="url(#pd3b25733b9)" d="M 203.5997 62.038537 
L 203.5997 67.341951 
L 200.253373 67.341951 
L 200.253373 62.038537 
L 203.5997 62.038537 
z
" style="fill:#0000ff;stroke:#ffffff;stroke-linejoin:miter;stroke-width:0.5;"/>
   </g>
   <g id="988866d8cf474eddba550eebef870879-9-node">
    <path clip-path="url(#pd3b25733b9)" d="M 191.469265 67.341951 
C 191.912993 67.341951 192.338607 67.062551 192.652371 66.565284 
C 192.966134 66.068018 193.142429 65.393485 193.142429 64.690244 
C 193.142429 63.987003 192.966134 63.31247 192.652371 62.815204 
C 192.338607 62.317937 191.912993 62.038537 191.469265 62.038537 
C 191.025537 62.038537 190.599923 62.317937 190.28616 62.815204 
C 189.972397 63.31247 189.796102 63.987003 189.796102 64.690244 
C 189.796102 65.393485 189.972397 66.068018 190.28616 66.565284 
C 190.599923 67.062551 191.025537 67.341951 191.469265 67.341951 
z
" style="fill:#ffff00;stroke:#ffffff;stroke-linejoin:miter;stroke-width:0.5;"/>
   </g>
   <g id="988866d8cf474eddba550eebef870879-10-node">
    <path clip-path="url(#pd3b25733b9)" d="M 181.011994 62.038537 
L 179.338831 64.690244 
L 181.011994 67.341951 
L 182.685157 64.690244 
z
" style="fill:#c800c8;stroke:#ffffff;stroke-linejoin:miter;stroke-width:0.5;"/>
   </g>
   <g id="patch_20">
    <path d="M 135 157.5 
L 135 21.6 
" style="fill:none;stroke:#ffffff;stroke-linecap:square;stroke-linejoin:miter;stroke-width:1.25;"/>
   </g>
   <g id="patch_21">
    <path d="M 279.310345 157.5 
L 279.310345 21.6 
" style="fill:none;stroke:#ffffff;stroke-linecap:square;stroke-linejoin:miter;stroke-width:1.25;"/>
   </g>
   <g id="patch_22">
    <path d="M 135 157.5 
L 279.310345 157.5 
" style="fill:none;stroke:#ffffff;stroke-linecap:square;stroke-linejoin:miter;stroke-width:1.25;"/>
   </g>
   <g id="patch_23">
    <path d="M 135 21.6 
L 279.310345 21.6 
" style="fill:none;stroke:#ffffff;stroke-linecap:square;stroke-linejoin:miter;stroke-width:1.25;"/>
   </g>
   <g id="text_1">
    <!-- 1571:8.0 -->
    <defs>
     <path d="M 37.25 0 
L 28.46875 0 
L 28.46875 56 
Q 25.296875 52.984375 20.140625 49.953125 
Q 14.984375 46.921875 10.890625 45.40625 
L 10.890625 53.90625 
Q 18.265625 57.375 23.78125 62.296875 
Q 29.296875 67.234375 31.59375 71.875 
L 37.25 71.875 
z
" id="ArialMT-49"/>
     <path d="M 4.15625 18.75 
L 13.375 19.53125 
Q 14.40625 12.796875 18.140625 9.390625 
Q 21.875 6 27.15625 6 
Q 33.5 6 37.890625 10.78125 
Q 42.28125 15.578125 42.28125 23.484375 
Q 42.28125 31 38.0625 35.34375 
Q 33.84375 39.703125 27 39.703125 
Q 22.75 39.703125 19.328125 37.765625 
Q 15.921875 35.84375 13.96875 32.765625 
L 5.71875 33.84375 
L 12.640625 70.609375 
L 48.25 70.609375 
L 48.25 62.203125 
L 19.671875 62.203125 
L 15.828125 42.96875 
Q 22.265625 47.46875 29.34375 47.46875 
Q 38.71875 47.46875 45.15625 40.96875 
Q 51.609375 34.46875 51.609375 24.265625 
Q 51.609375 14.546875 45.953125 7.46875 
Q 39.0625 -1.21875 27.15625 -1.21875 
Q 17.390625 -1.21875 11.203125 4.25 
Q 5.03125 9.71875 4.15625 18.75 
z
" id="ArialMT-53"/>
     <path d="M 4.734375 62.203125 
L 4.734375 70.65625 
L 51.078125 70.65625 
L 51.078125 63.8125 
Q 44.234375 56.546875 37.515625 44.484375 
Q 30.8125 32.421875 27.15625 19.671875 
Q 24.515625 10.6875 23.78125 0 
L 14.75 0 
Q 14.890625 8.453125 18.0625 20.40625 
Q 21.234375 32.375 27.171875 43.484375 
Q 33.109375 54.59375 39.796875 62.203125 
z
" id="ArialMT-55"/>
     <path d="M 9.03125 41.84375 
L 9.03125 51.859375 
L 19.046875 51.859375 
L 19.046875 41.84375 
z
M 9.03125 0 
L 9.03125 10.015625 
L 19.046875 10.015625 
L 19.046875 0 
z
" id="ArialMT-58"/>
     <path d="M 17.671875 38.8125 
Q 12.203125 40.828125 9.5625 44.53125 
Q 6.9375 48.25 6.9375 53.421875 
Q 6.9375 61.234375 12.546875 66.546875 
Q 18.171875 71.875 27.484375 71.875 
Q 36.859375 71.875 42.578125 66.421875 
Q 48.296875 60.984375 48.296875 53.171875 
Q 48.296875 48.1875 45.671875 44.5 
Q 43.0625 40.828125 37.75 38.8125 
Q 44.34375 36.671875 47.78125 31.875 
Q 51.21875 27.09375 51.21875 20.453125 
Q 51.21875 11.28125 44.71875 5.03125 
Q 38.234375 -1.21875 27.640625 -1.21875 
Q 17.046875 -1.21875 10.546875 5.046875 
Q 4.046875 11.328125 4.046875 20.703125 
Q 4.046875 27.6875 7.59375 32.390625 
Q 11.140625 37.109375 17.671875 38.8125 
z
M 15.921875 53.71875 
Q 15.921875 48.640625 19.1875 45.40625 
Q 22.46875 42.1875 27.6875 42.1875 
Q 32.765625 42.1875 36.015625 45.375 
Q 39.265625 48.578125 39.265625 53.21875 
Q 39.265625 58.0625 35.90625 61.359375 
Q 32.5625 64.65625 27.59375 64.65625 
Q 22.5625 64.65625 19.234375 61.421875 
Q 15.921875 58.203125 15.921875 53.71875 
z
M 13.09375 20.65625 
Q 13.09375 16.890625 14.875 13.375 
Q 16.65625 9.859375 20.171875 7.921875 
Q 23.6875 6 27.734375 6 
Q 34.03125 6 38.125 10.046875 
Q 42.234375 14.109375 42.234375 20.359375 
Q 42.234375 26.703125 38.015625 30.859375 
Q 33.796875 35.015625 27.4375 35.015625 
Q 21.234375 35.015625 17.15625 30.90625 
Q 13.09375 26.8125 13.09375 20.65625 
z
" id="ArialMT-56"/>
     <path d="M 9.078125 0 
L 9.078125 10.015625 
L 19.09375 10.015625 
L 19.09375 0 
z
" id="ArialMT-46"/>
     <path d="M 4.15625 35.296875 
Q 4.15625 48 6.765625 55.734375 
Q 9.375 63.484375 14.515625 67.671875 
Q 19.671875 71.875 27.484375 71.875 
Q 33.25 71.875 37.59375 69.546875 
Q 41.9375 67.234375 44.765625 62.859375 
Q 47.609375 58.5 49.21875 52.21875 
Q 50.828125 45.953125 50.828125 35.296875 
Q 50.828125 22.703125 48.234375 14.96875 
Q 45.65625 7.234375 40.5 3 
Q 35.359375 -1.21875 27.484375 -1.21875 
Q 17.140625 -1.21875 11.234375 6.203125 
Q 4.15625 15.140625 4.15625 35.296875 
z
M 13.1875 35.296875 
Q 13.1875 17.671875 17.3125 11.828125 
Q 21.4375 6 27.484375 6 
Q 33.546875 6 37.671875 11.859375 
Q 41.796875 17.71875 41.796875 35.296875 
Q 41.796875 52.984375 37.671875 58.78125 
Q 33.546875 64.59375 27.390625 64.59375 
Q 21.34375 64.59375 17.71875 59.46875 
Q 13.1875 52.9375 13.1875 35.296875 
z
" id="ArialMT-48"/>
    </defs>
    <g style="fill:#262626;" transform="translate(183.802047 15.6)scale(0.12 -0.12)">
     <use xlink:href="#ArialMT-49"/>
     <use x="55.615234" xlink:href="#ArialMT-53"/>
     <use x="111.230469" xlink:href="#ArialMT-55"/>
     <use x="166.845703" xlink:href="#ArialMT-49"/>
     <use x="222.460938" xlink:href="#ArialMT-58"/>
     <use x="250.244141" xlink:href="#ArialMT-56"/>
     <use x="305.859375" xlink:href="#ArialMT-46"/>
     <use x="333.642578" xlink:href="#ArialMT-48"/>
    </g>
   </g>
  </g>
  <g id="axes_2">
   <g id="patch_24">
    <path d="M 308.172414 157.5 
L 452.482759 157.5 
L 452.482759 21.6 
L 308.172414 21.6 
z
" style="fill:#ffffff;"/>
   </g>
   <g id="patch_25">
    <path clip-path="url(#pff5b77c754)" d="M 370.833485 114.409756 
L 361.339383 114.409756 
" style="stroke:#000000;stroke-linejoin:miter;stroke-width:0.5;"/>
   </g>
   <g id="patch_26">
    <path clip-path="url(#pff5b77c754)" d="M 380.327586 114.409756 
L 370.833485 114.409756 
" style="stroke:#000000;stroke-linejoin:miter;stroke-width:0.5;"/>
   </g>
   <g id="patch_27">
    <path clip-path="url(#pff5b77c754)" d="M 389.821688 106.123171 
L 380.327586 114.409756 
" style="stroke:#000000;stroke-linejoin:miter;stroke-width:0.5;"/>
   </g>
   <g id="patch_28">
    <path clip-path="url(#pff5b77c754)" d="M 370.833485 97.836585 
L 361.339383 97.836585 
" style="stroke:#000000;stroke-linejoin:miter;stroke-width:0.5;"/>
   </g>
   <g id="patch_29">
    <path clip-path="url(#pff5b77c754)" d="M 380.327586 97.836585 
L 370.833485 97.836585 
" style="stroke:#000000;stroke-linejoin:miter;stroke-width:0.5;"/>
   </g>
   <g id="patch_30">
    <path clip-path="url(#pff5b77c754)" d="M 389.821688 106.123171 
L 380.327586 97.836585 
" style="stroke:#000000;stroke-linejoin:miter;stroke-width:0.5;"/>
   </g>
   <g id="patch_31">
    <path clip-path="url(#pff5b77c754)" d="M 399.315789 89.55 
L 389.821688 106.123171 
" style="stroke:#000000;stroke-linejoin:miter;stroke-width:0.5;"/>
   </g>
   <g id="patch_32">
    <path clip-path="url(#pff5b77c754)" d="M 351.845281 81.263415 
L 342.35118 81.263415 
" style="stroke:#000000;stroke-linejoin:miter;stroke-width:0.5;"/>
   </g>
   <g id="patch_33">
    <path clip-path="url(#pff5b77c754)" d="M 361.339383 81.263415 
L 351.845281 81.263415 
" style="stroke:#000000;stroke-linejoin:miter;stroke-width:0.5;"/>
   </g>
   <g id="patch_34">
    <path clip-path="url(#pff5b77c754)" d="M 370.833485 81.263415 
L 361.339383 81.263415 
" style="stroke:#000000;stroke-linejoin:miter;stroke-width:0.5;"/>
   </g>
   <g id="patch_35">
    <path clip-path="url(#pff5b77c754)" d="M 380.327586 81.263415 
L 370.833485 81.263415 
" style="stroke:#000000;stroke-linejoin:miter;stroke-width:0.5;"/>
   </g>
   <g id="patch_36">
    <path clip-path="url(#pff5b77c754)" d="M 389.821688 72.976829 
L 380.327586 81.263415 
" style="stroke:#000000;stroke-linejoin:miter;stroke-width:0.5;"/>
   </g>
   <g id="patch_37">
    <path clip-path="url(#pff5b77c754)" d="M 370.833485 64.690244 
L 361.339383 64.690244 
" style="stroke:#000000;stroke-linejoin:miter;stroke-width:0.5;"/>
   </g>
   <g id="patch_38">
    <path clip-path="url(#pff5b77c754)" d="M 380.327586 64.690244 
L 370.833485 64.690244 
" style="stroke:#000000;stroke-linejoin:miter;stroke-width:0.5;"/>
   </g>
   <g id="patch_39">
    <path clip-path="url(#pff5b77c754)" d="M 389.821688 72.976829 
L 380.327586 64.690244 
" style="stroke:#000000;stroke-linejoin:miter;stroke-width:0.5;"/>
   </g>
   <g id="patch_40">
    <path clip-path="url(#pff5b77c754)" d="M 399.315789 89.55 
L 389.821688 72.976829 
" style="stroke:#000000;stroke-linejoin:miter;stroke-width:0.5;"/>
   </g>
   <g id="patch_41">
    <path clip-path="url(#pff5b77c754)" d="M 408.809891 89.55 
L 399.315789 89.55 
" style="stroke:#000000;stroke-linejoin:miter;stroke-width:0.5;"/>
   </g>
   <g id="patch_42">
    <path clip-path="url(#pff5b77c754)" d="M 418.303993 89.55 
L 408.809891 89.55 
" style="stroke:#000000;stroke-linejoin:miter;stroke-width:0.5;"/>
   </g>
   <g id="784ec62bdd074edfb07bff00f5c68155-1-node">
    <path clip-path="url(#pff5b77c754)" d="M 419.823049 86.898293 
L 419.823049 92.201707 
L 416.784936 92.201707 
L 416.784936 86.898293 
L 419.823049 86.898293 
z
" style="fill:#0000ff;stroke:#ffffff;stroke-linejoin:miter;stroke-width:0.5;"/>
   </g>
   <g id="784ec62bdd074edfb07bff00f5c68155-3-node">
    <path clip-path="url(#pff5b77c754)" d="M 410.328947 86.898293 
L 410.328947 92.201707 
L 407.290835 92.201707 
L 407.290835 86.898293 
L 410.328947 86.898293 
z
" style="fill:#0000ff;stroke:#ffffff;stroke-linejoin:miter;stroke-width:0.5;"/>
   </g>
   <g id="784ec62bdd074edfb07bff00f5c68155-5-node">
    <path clip-path="url(#pff5b77c754)" d="M 399.315789 92.201707 
C 399.718648 92.201707 400.105061 91.922307 400.389924 91.42504 
C 400.674788 90.927774 400.834846 90.253241 400.834846 89.55 
C 400.834846 88.846759 400.674788 88.172226 400.389924 87.67496 
C 400.105061 87.177693 399.718648 86.898293 399.315789 86.898293 
C 398.912931 86.898293 398.526518 87.177693 398.241654 87.67496 
C 397.956791 88.172226 397.796733 88.846759 397.796733 89.55 
C 397.796733 90.253241 397.956791 90.927774 398.241654 91.42504 
C 398.526518 91.922307 398.912931 92.201707 399.315789 92.201707 
z
" style="fill:#00c832;stroke:#ffffff;stroke-linejoin:miter;stroke-width:0.5;"/>
   </g>
   <g id="784ec62bdd074edfb07bff00f5c68155-20-node">
    <path clip-path="url(#pff5b77c754)" d="M 389.821688 108.774878 
C 390.224546 108.774878 390.610959 108.495477 390.895823 107.998211 
C 391.180687 107.500944 391.340744 106.826412 391.340744 106.123171 
C 391.340744 105.41993 391.180687 104.745397 390.895823 104.248131 
C 390.610959 103.750864 390.224546 103.471463 389.821688 103.471463 
C 389.418829 103.471463 389.032417 103.750864 388.747553 104.248131 
C 388.462689 104.745397 388.302632 105.41993 388.302632 106.123171 
C 388.302632 106.826412 388.462689 107.500944 388.747553 107.998211 
C 389.032417 108.495477 389.418829 108.774878 389.821688 108.774878 
z
" style="fill:#00c832;stroke:#ffffff;stroke-linejoin:miter;stroke-width:0.5;"/>
   </g>
   <g id="784ec62bdd074edfb07bff00f5c68155-26-node">
    <path clip-path="url(#pff5b77c754)" d="M 381.846642 111.758049 
L 381.846642 117.061463 
L 378.80853 117.061463 
L 378.80853 111.758049 
L 381.846642 111.758049 
z
" style="fill:#0000ff;stroke:#ffffff;stroke-linejoin:miter;stroke-width:0.5;"/>
   </g>
   <g id="784ec62bdd074edfb07bff00f5c68155-28-node">
    <path clip-path="url(#pff5b77c754)" d="M 370.833485 117.061463 
C 371.236343 117.061463 371.622756 116.782063 371.90762 116.284796 
C 372.192483 115.78753 372.352541 115.112997 372.352541 114.409756 
C 372.352541 113.706515 372.192483 113.031982 371.90762 112.534716 
C 371.622756 112.037449 371.236343 111.758049 370.833485 111.758049 
C 370.430626 111.758049 370.044214 112.037449 369.75935 112.534716 
C 369.474486 113.031982 369.314428 113.706515 369.314428 114.409756 
C 369.314428 115.112997 369.474486 115.78753 369.75935 116.284796 
C 370.044214 116.782063 370.430626 117.061463 370.833485 117.061463 
z
" style="fill:#ffff00;stroke:#ffffff;stroke-linejoin:miter;stroke-width:0.5;"/>
   </g>
   <g id="784ec62bdd074edfb07bff00f5c68155-29-node">
    <path clip-path="url(#pff5b77c754)" d="M 361.339383 111.758049 
L 359.820327 114.409756 
L 361.339383 117.061463 
L 362.858439 114.409756 
z
" style="fill:#c800c8;stroke:#ffffff;stroke-linejoin:miter;stroke-width:0.5;"/>
   </g>
   <g id="784ec62bdd074edfb07bff00f5c68155-21-node">
    <path clip-path="url(#pff5b77c754)" d="M 381.846642 95.184878 
L 381.846642 100.488293 
L 378.80853 100.488293 
L 378.80853 95.184878 
L 381.846642 95.184878 
z
" style="fill:#0000ff;stroke:#ffffff;stroke-linejoin:miter;stroke-width:0.5;"/>
   </g>
   <g id="784ec62bdd074edfb07bff00f5c68155-23-node">
    <path clip-path="url(#pff5b77c754)" d="M 370.833485 100.488293 
C 371.236343 100.488293 371.622756 100.208892 371.90762 99.711626 
C 372.192483 99.214359 372.352541 98.539826 372.352541 97.836585 
C 372.352541 97.133344 372.192483 96.458812 371.90762 95.961545 
C 371.622756 95.464279 371.236343 95.184878 370.833485 95.184878 
C 370.430626 95.184878 370.044214 95.464279 369.75935 95.961545 
C 369.474486 96.458812 369.314428 97.133344 369.314428 97.836585 
C 369.314428 98.539826 369.474486 99.214359 369.75935 99.711626 
C 370.044214 100.208892 370.430626 100.488293 370.833485 100.488293 
z
" style="fill:#ffff00;stroke:#ffffff;stroke-linejoin:miter;stroke-width:0.5;"/>
   </g>
   <g id="784ec62bdd074edfb07bff00f5c68155-24-node">
    <path clip-path="url(#pff5b77c754)" d="M 361.339383 95.184878 
L 359.820327 97.836585 
L 361.339383 100.488293 
L 362.858439 97.836585 
z
" style="fill:#c800c8;stroke:#ffffff;stroke-linejoin:miter;stroke-width:0.5;"/>
   </g>
   <g id="784ec62bdd074edfb07bff00f5c68155-6-node">
    <path clip-path="url(#pff5b77c754)" d="M 389.821688 75.628537 
C 390.224546 75.628537 390.610959 75.349136 390.895823 74.851869 
C 391.180687 74.354603 391.340744 73.68007 391.340744 72.976829 
C 391.340744 72.273588 391.180687 71.599056 390.895823 71.101789 
C 390.610959 70.604523 390.224546 70.325122 389.821688 70.325122 
C 389.418829 70.325122 389.032417 70.604523 388.747553 71.101789 
C 388.462689 71.599056 388.302632 72.273588 388.302632 72.976829 
C 388.302632 73.68007 388.462689 74.354603 388.747553 74.851869 
C 389.032417 75.349136 389.418829 75.628537 389.821688 75.628537 
z
" style="fill:#00c832;stroke:#ffffff;stroke-linejoin:miter;stroke-width:0.5;"/>
   </g>
   <g id="784ec62bdd074edfb07bff00f5c68155-12-node">
    <path clip-path="url(#pff5b77c754)" d="M 381.846642 78.611707 
L 381.846642 83.915122 
L 378.80853 83.915122 
L 378.80853 78.611707 
L 381.846642 78.611707 
z
" style="fill:#0000ff;stroke:#ffffff;stroke-linejoin:miter;stroke-width:0.5;"/>
   </g>
   <g id="784ec62bdd074edfb07bff00f5c68155-14-node">
    <path clip-path="url(#pff5b77c754)" d="M 370.833485 83.915122 
C 371.236343 83.915122 371.622756 83.635721 371.90762 83.138455 
C 372.192483 82.641188 372.352541 81.966656 372.352541 81.263415 
C 372.352541 80.560174 372.192483 79.885641 371.90762 79.388374 
C 371.622756 78.891108 371.236343 78.611707 370.833485 78.611707 
C 370.430626 78.611707 370.044214 78.891108 369.75935 79.388374 
C 369.474486 79.885641 369.314428 80.560174 369.314428 81.263415 
C 369.314428 81.966656 369.474486 82.641188 369.75935 83.138455 
C 370.044214 83.635721 370.430626 83.915122 370.833485 83.915122 
z
" style="fill:#ffff00;stroke:#ffffff;stroke-linejoin:miter;stroke-width:0.5;"/>
   </g>
   <g id="784ec62bdd074edfb07bff00f5c68155-15-node">
    <path clip-path="url(#pff5b77c754)" d="M 362.858439 78.611707 
L 362.858439 83.915122 
L 359.820327 83.915122 
L 359.820327 78.611707 
L 362.858439 78.611707 
z
" style="fill:#0000ff;stroke:#ffffff;stroke-linejoin:miter;stroke-width:0.5;"/>
   </g>
   <g id="784ec62bdd074edfb07bff00f5c68155-17-node">
    <path clip-path="url(#pff5b77c754)" d="M 351.845281 83.915122 
C 352.24814 83.915122 352.634552 83.635721 352.919416 83.138455 
C 353.20428 82.641188 353.364338 81.966656 353.364338 81.263415 
C 353.364338 80.560174 353.20428 79.885641 352.919416 79.388374 
C 352.634552 78.891108 352.24814 78.611707 351.845281 78.611707 
C 351.442423 78.611707 351.05601 78.891108 350.771146 79.388374 
C 350.486282 79.885641 350.326225 80.560174 350.326225 81.263415 
C 350.326225 81.966656 350.486282 82.641188 350.771146 83.138455 
C 351.05601 83.635721 351.442423 83.915122 351.845281 83.915122 
z
" style="fill:#ffff00;stroke:#ffffff;stroke-linejoin:miter;stroke-width:0.5;"/>
   </g>
   <g id="784ec62bdd074edfb07bff00f5c68155-18-node">
    <path clip-path="url(#pff5b77c754)" d="M 342.35118 78.611707 
L 340.832123 81.263415 
L 342.35118 83.915122 
L 343.870236 81.263415 
z
" style="fill:#c800c8;stroke:#ffffff;stroke-linejoin:miter;stroke-width:0.5;"/>
   </g>
   <g id="784ec62bdd074edfb07bff00f5c68155-7-node">
    <path clip-path="url(#pff5b77c754)" d="M 381.846642 62.038537 
L 381.846642 67.341951 
L 378.80853 67.341951 
L 378.80853 62.038537 
L 381.846642 62.038537 
z
" style="fill:#0000ff;stroke:#ffffff;stroke-linejoin:miter;stroke-width:0.5;"/>
   </g>
   <g id="784ec62bdd074edfb07bff00f5c68155-9-node">
    <path clip-path="url(#pff5b77c754)" d="M 370.833485 67.341951 
C 371.236343 67.341951 371.622756 67.062551 371.90762 66.565284 
C 372.192483 66.068018 372.352541 65.393485 372.352541 64.690244 
C 372.352541 63.987003 372.192483 63.31247 371.90762 62.815204 
C 371.622756 62.317937 371.236343 62.038537 370.833485 62.038537 
C 370.430626 62.038537 370.044214 62.317937 369.75935 62.815204 
C 369.474486 63.31247 369.314428 63.987003 369.314428 64.690244 
C 369.314428 65.393485 369.474486 66.068018 369.75935 66.565284 
C 370.044214 67.062551 370.430626 67.341951 370.833485 67.341951 
z
" style="fill:#ffff00;stroke:#ffffff;stroke-linejoin:miter;stroke-width:0.5;"/>
   </g>
   <g id="784ec62bdd074edfb07bff00f5c68155-10-node">
    <path clip-path="url(#pff5b77c754)" d="M 361.339383 62.038537 
L 359.820327 64.690244 
L 361.339383 67.341951 
L 362.858439 64.690244 
z
" style="fill:#c800c8;stroke:#ffffff;stroke-linejoin:miter;stroke-width:0.5;"/>
   </g>
   <g id="patch_43">
    <path d="M 308.172414 157.5 
L 308.172414 21.6 
" style="fill:none;stroke:#ffffff;stroke-linecap:square;stroke-linejoin:miter;stroke-width:1.25;"/>
   </g>
   <g id="patch_44">
    <path d="M 452.482759 157.5 
L 452.482759 21.6 
" style="fill:none;stroke:#ffffff;stroke-linecap:square;stroke-linejoin:miter;stroke-width:1.25;"/>
   </g>
   <g id="patch_45">
    <path d="M 308.172414 157.5 
L 452.482759 157.5 
" style="fill:none;stroke:#ffffff;stroke-linecap:square;stroke-linejoin:miter;stroke-width:1.25;"/>
   </g>
   <g id="patch_46">
    <path d="M 308.172414 21.6 
L 452.482759 21.6 
" style="fill:none;stroke:#ffffff;stroke-linecap:square;stroke-linejoin:miter;stroke-width:1.25;"/>
   </g>
   <g id="text_2">
    <!-- 1641:4.0 -->
    <defs>
     <path d="M 49.75 54.046875 
L 41.015625 53.375 
Q 39.84375 58.546875 37.703125 60.890625 
Q 34.125 64.65625 28.90625 64.65625 
Q 24.703125 64.65625 21.53125 62.3125 
Q 17.390625 59.28125 14.984375 53.46875 
Q 12.59375 47.65625 12.5 36.921875 
Q 15.671875 41.75 20.265625 44.09375 
Q 24.859375 46.4375 29.890625 46.4375 
Q 38.671875 46.4375 44.84375 39.96875 
Q 51.03125 33.5 51.03125 23.25 
Q 51.03125 16.5 48.125 10.71875 
Q 45.21875 4.9375 40.140625 1.859375 
Q 35.0625 -1.21875 28.609375 -1.21875 
Q 17.625 -1.21875 10.6875 6.859375 
Q 3.765625 14.9375 3.765625 33.5 
Q 3.765625 54.25 11.421875 63.671875 
Q 18.109375 71.875 29.4375 71.875 
Q 37.890625 71.875 43.28125 67.140625 
Q 48.6875 62.40625 49.75 54.046875 
z
M 13.875 23.1875 
Q 13.875 18.65625 15.796875 14.5 
Q 17.71875 10.359375 21.1875 8.171875 
Q 24.65625 6 28.46875 6 
Q 34.03125 6 38.03125 10.484375 
Q 42.046875 14.984375 42.046875 22.703125 
Q 42.046875 30.125 38.078125 34.390625 
Q 34.125 38.671875 28.125 38.671875 
Q 22.171875 38.671875 18.015625 34.390625 
Q 13.875 30.125 13.875 23.1875 
z
" id="ArialMT-54"/>
     <path d="M 32.328125 0 
L 32.328125 17.140625 
L 1.265625 17.140625 
L 1.265625 25.203125 
L 33.9375 71.578125 
L 41.109375 71.578125 
L 41.109375 25.203125 
L 50.78125 25.203125 
L 50.78125 17.140625 
L 41.109375 17.140625 
L 41.109375 0 
z
M 32.328125 25.203125 
L 32.328125 57.46875 
L 9.90625 25.203125 
z
" id="ArialMT-52"/>
    </defs>
    <g style="fill:#262626;" transform="translate(356.974461 15.6)scale(0.12 -0.12)">
     <use xlink:href="#ArialMT-49"/>
     <use x="55.615234" xlink:href="#ArialMT-54"/>
     <use x="111.230469" xlink:href="#ArialMT-52"/>
     <use x="166.845703" xlink:href="#ArialMT-49"/>
     <use x="222.460938" xlink:href="#ArialMT-58"/>
     <use x="250.244141" xlink:href="#ArialMT-52"/>
     <use x="305.859375" xlink:href="#ArialMT-46"/>
     <use x="333.642578" xlink:href="#ArialMT-48"/>
    </g>
   </g>
  </g>
  <g id="axes_3">
   <g id="patch_47">
    <path d="M 481.344828 157.5 
L 625.655172 157.5 
L 625.655172 21.6 
L 481.344828 21.6 
z
" style="fill:#ffffff;"/>
   </g>
   <g id="patch_48">
    <path clip-path="url(#pce3d06ed8f)" d="M 553.5 114.409756 
L 545.482759 114.409756 
" style="stroke:#000000;stroke-linejoin:miter;stroke-width:0.5;"/>
   </g>
   <g id="patch_49">
    <path clip-path="url(#pce3d06ed8f)" d="M 561.517241 114.409756 
L 553.5 114.409756 
" style="stroke:#000000;stroke-linejoin:miter;stroke-width:0.5;"/>
   </g>
   <g id="patch_50">
    <path clip-path="url(#pce3d06ed8f)" d="M 569.534483 106.123171 
L 561.517241 114.409756 
" style="stroke:#000000;stroke-linejoin:miter;stroke-width:0.5;"/>
   </g>
   <g id="patch_51">
    <path clip-path="url(#pce3d06ed8f)" d="M 553.5 97.836585 
L 545.482759 97.836585 
" style="stroke:#000000;stroke-linejoin:miter;stroke-width:0.5;"/>
   </g>
   <g id="patch_52">
    <path clip-path="url(#pce3d06ed8f)" d="M 561.517241 97.836585 
L 553.5 97.836585 
" style="stroke:#000000;stroke-linejoin:miter;stroke-width:0.5;"/>
   </g>
   <g id="patch_53">
    <path clip-path="url(#pce3d06ed8f)" d="M 569.534483 106.123171 
L 561.517241 97.836585 
" style="stroke:#000000;stroke-linejoin:miter;stroke-width:0.5;"/>
   </g>
   <g id="patch_54">
    <path clip-path="url(#pce3d06ed8f)" d="M 577.551724 89.55 
L 569.534483 106.123171 
" style="stroke:#000000;stroke-linejoin:miter;stroke-width:0.5;"/>
   </g>
   <g id="patch_55">
    <path clip-path="url(#pce3d06ed8f)" d="M 553.5 81.263415 
L 545.482759 81.263415 
" style="stroke:#000000;stroke-linejoin:miter;stroke-width:0.5;"/>
   </g>
   <g id="patch_56">
    <path clip-path="url(#pce3d06ed8f)" d="M 561.517241 81.263415 
L 553.5 81.263415 
" style="stroke:#000000;stroke-linejoin:miter;stroke-width:0.5;"/>
   </g>
   <g id="patch_57">
    <path clip-path="url(#pce3d06ed8f)" d="M 569.534483 72.976829 
L 561.517241 81.263415 
" style="stroke:#000000;stroke-linejoin:miter;stroke-width:0.5;"/>
   </g>
   <g id="patch_58">
    <path clip-path="url(#pce3d06ed8f)" d="M 521.431034 64.690244 
L 513.413793 64.690244 
" style="stroke:#000000;stroke-linejoin:miter;stroke-width:0.5;"/>
   </g>
   <g id="patch_59">
    <path clip-path="url(#pce3d06ed8f)" d="M 529.448276 64.690244 
L 521.431034 64.690244 
" style="stroke:#000000;stroke-linejoin:miter;stroke-width:0.5;"/>
   </g>
   <g id="patch_60">
    <path clip-path="url(#pce3d06ed8f)" d="M 537.465517 64.690244 
L 529.448276 64.690244 
" style="stroke:#000000;stroke-linejoin:miter;stroke-width:0.5;"/>
   </g>
   <g id="patch_61">
    <path clip-path="url(#pce3d06ed8f)" d="M 545.482759 64.690244 
L 537.465517 64.690244 
" style="stroke:#000000;stroke-linejoin:miter;stroke-width:0.5;"/>
   </g>
   <g id="patch_62">
    <path clip-path="url(#pce3d06ed8f)" d="M 553.5 64.690244 
L 545.482759 64.690244 
" style="stroke:#000000;stroke-linejoin:miter;stroke-width:0.5;"/>
   </g>
   <g id="patch_63">
    <path clip-path="url(#pce3d06ed8f)" d="M 561.517241 64.690244 
L 553.5 64.690244 
" style="stroke:#000000;stroke-linejoin:miter;stroke-width:0.5;"/>
   </g>
   <g id="patch_64">
    <path clip-path="url(#pce3d06ed8f)" d="M 569.534483 72.976829 
L 561.517241 64.690244 
" style="stroke:#000000;stroke-linejoin:miter;stroke-width:0.5;"/>
   </g>
   <g id="patch_65">
    <path clip-path="url(#pce3d06ed8f)" d="M 577.551724 89.55 
L 569.534483 72.976829 
" style="stroke:#000000;stroke-linejoin:miter;stroke-width:0.5;"/>
   </g>
   <g id="patch_66">
    <path clip-path="url(#pce3d06ed8f)" d="M 585.568966 89.55 
L 577.551724 89.55 
" style="stroke:#000000;stroke-linejoin:miter;stroke-width:0.5;"/>
   </g>
   <g id="patch_67">
    <path clip-path="url(#pce3d06ed8f)" d="M 593.586207 89.55 
L 585.568966 89.55 
" style="stroke:#000000;stroke-linejoin:miter;stroke-width:0.5;"/>
   </g>
   <g id="abd1b328043f41929830cc9c0897d3e3-1-node">
    <path clip-path="url(#pce3d06ed8f)" d="M 594.868966 86.898293 
L 594.868966 92.201707 
L 592.303448 92.201707 
L 592.303448 86.898293 
L 594.868966 86.898293 
z
" style="fill:#0000ff;stroke:#ffffff;stroke-linejoin:miter;stroke-width:0.5;"/>
   </g>
   <g id="abd1b328043f41929830cc9c0897d3e3-3-node">
    <path clip-path="url(#pce3d06ed8f)" d="M 586.851724 86.898293 
L 586.851724 92.201707 
L 584.286207 92.201707 
L 584.286207 86.898293 
L 586.851724 86.898293 
z
" style="fill:#0000ff;stroke:#ffffff;stroke-linejoin:miter;stroke-width:0.5;"/>
   </g>
   <g id="abd1b328043f41929830cc9c0897d3e3-5-node">
    <path clip-path="url(#pce3d06ed8f)" d="M 577.551724 92.201707 
C 577.891916 92.201707 578.21822 91.922307 578.458771 91.42504 
C 578.699323 90.927774 578.834483 90.253241 578.834483 89.55 
C 578.834483 88.846759 578.699323 88.172226 578.458771 87.67496 
C 578.21822 87.177693 577.891916 86.898293 577.551724 86.898293 
C 577.211533 86.898293 576.885229 87.177693 576.644677 87.67496 
C 576.404125 88.172226 576.268966 88.846759 576.268966 89.55 
C 576.268966 90.253241 576.404125 90.927774 576.644677 91.42504 
C 576.885229 91.922307 577.211533 92.201707 577.551724 92.201707 
z
" style="fill:#00c832;stroke:#ffffff;stroke-linejoin:miter;stroke-width:0.5;"/>
   </g>
   <g id="abd1b328043f41929830cc9c0897d3e3-23-node">
    <path clip-path="url(#pce3d06ed8f)" d="M 569.534483 108.774878 
C 569.874674 108.774878 570.200978 108.495477 570.44153 107.998211 
C 570.682082 107.500944 570.817241 106.826412 570.817241 106.123171 
C 570.817241 105.41993 570.682082 104.745397 570.44153 104.248131 
C 570.200978 103.750864 569.874674 103.471463 569.534483 103.471463 
C 569.194291 103.471463 568.867987 103.750864 568.627435 104.248131 
C 568.386884 104.745397 568.251724 105.41993 568.251724 106.123171 
C 568.251724 106.826412 568.386884 107.500944 568.627435 107.998211 
C 568.867987 108.495477 569.194291 108.774878 569.534483 108.774878 
z
" style="fill:#00c832;stroke:#ffffff;stroke-linejoin:miter;stroke-width:0.5;"/>
   </g>
   <g id="abd1b328043f41929830cc9c0897d3e3-29-node">
    <path clip-path="url(#pce3d06ed8f)" d="M 562.8 111.758049 
L 562.8 117.061463 
L 560.234483 117.061463 
L 560.234483 111.758049 
L 562.8 111.758049 
z
" style="fill:#0000ff;stroke:#ffffff;stroke-linejoin:miter;stroke-width:0.5;"/>
   </g>
   <g id="abd1b328043f41929830cc9c0897d3e3-31-node">
    <path clip-path="url(#pce3d06ed8f)" d="M 553.5 117.061463 
C 553.840192 117.061463 554.166496 116.782063 554.407047 116.284796 
C 554.647599 115.78753 554.782759 115.112997 554.782759 114.409756 
C 554.782759 113.706515 554.647599 113.031982 554.407047 112.534716 
C 554.166496 112.037449 553.840192 111.758049 553.5 111.758049 
C 553.159808 111.758049 552.833504 112.037449 552.592953 112.534716 
C 552.352401 113.031982 552.217241 113.706515 552.217241 114.409756 
C 552.217241 115.112997 552.352401 115.78753 552.592953 116.284796 
C 552.833504 116.782063 553.159808 117.061463 553.5 117.061463 
z
" style="fill:#ffff00;stroke:#ffffff;stroke-linejoin:miter;stroke-width:0.5;"/>
   </g>
   <g id="abd1b328043f41929830cc9c0897d3e3-32-node">
    <path clip-path="url(#pce3d06ed8f)" d="M 545.482759 111.758049 
L 544.2 114.409756 
L 545.482759 117.061463 
L 546.765517 114.409756 
z
" style="fill:#c800c8;stroke:#ffffff;stroke-linejoin:miter;stroke-width:0.5;"/>
   </g>
   <g id="abd1b328043f41929830cc9c0897d3e3-24-node">
    <path clip-path="url(#pce3d06ed8f)" d="M 562.8 95.184878 
L 562.8 100.488293 
L 560.234483 100.488293 
L 560.234483 95.184878 
L 562.8 95.184878 
z
" style="fill:#0000ff;stroke:#ffffff;stroke-linejoin:miter;stroke-width:0.5;"/>
   </g>
   <g id="abd1b328043f41929830cc9c0897d3e3-26-node">
    <path clip-path="url(#pce3d06ed8f)" d="M 553.5 100.488293 
C 553.840192 100.488293 554.166496 100.208892 554.407047 99.711626 
C 554.647599 99.214359 554.782759 98.539826 554.782759 97.836585 
C 554.782759 97.133344 554.647599 96.458812 554.407047 95.961545 
C 554.166496 95.464279 553.840192 95.184878 553.5 95.184878 
C 553.159808 95.184878 552.833504 95.464279 552.592953 95.961545 
C 552.352401 96.458812 552.217241 97.133344 552.217241 97.836585 
C 552.217241 98.539826 552.352401 99.214359 552.592953 99.711626 
C 552.833504 100.208892 553.159808 100.488293 553.5 100.488293 
z
" style="fill:#ffff00;stroke:#ffffff;stroke-linejoin:miter;stroke-width:0.5;"/>
   </g>
   <g id="abd1b328043f41929830cc9c0897d3e3-27-node">
    <path clip-path="url(#pce3d06ed8f)" d="M 545.482759 95.184878 
L 544.2 97.836585 
L 545.482759 100.488293 
L 546.765517 97.836585 
z
" style="fill:#c800c8;stroke:#ffffff;stroke-linejoin:miter;stroke-width:0.5;"/>
   </g>
   <g id="abd1b328043f41929830cc9c0897d3e3-6-node">
    <path clip-path="url(#pce3d06ed8f)" d="M 569.534483 75.628537 
C 569.874674 75.628537 570.200978 75.349136 570.44153 74.851869 
C 570.682082 74.354603 570.817241 73.68007 570.817241 72.976829 
C 570.817241 72.273588 570.682082 71.599056 570.44153 71.101789 
C 570.200978 70.604523 569.874674 70.325122 569.534483 70.325122 
C 569.194291 70.325122 568.867987 70.604523 568.627435 71.101789 
C 568.386884 71.599056 568.251724 72.273588 568.251724 72.976829 
C 568.251724 73.68007 568.386884 74.354603 568.627435 74.851869 
C 568.867987 75.349136 569.194291 75.628537 569.534483 75.628537 
z
" style="fill:#00c832;stroke:#ffffff;stroke-linejoin:miter;stroke-width:0.5;"/>
   </g>
   <g id="abd1b328043f41929830cc9c0897d3e3-18-node">
    <path clip-path="url(#pce3d06ed8f)" d="M 562.8 78.611707 
L 562.8 83.915122 
L 560.234483 83.915122 
L 560.234483 78.611707 
L 562.8 78.611707 
z
" style="fill:#0000ff;stroke:#ffffff;stroke-linejoin:miter;stroke-width:0.5;"/>
   </g>
   <g id="abd1b328043f41929830cc9c0897d3e3-20-node">
    <path clip-path="url(#pce3d06ed8f)" d="M 553.5 83.915122 
C 553.840192 83.915122 554.166496 83.635721 554.407047 83.138455 
C 554.647599 82.641188 554.782759 81.966656 554.782759 81.263415 
C 554.782759 80.560174 554.647599 79.885641 554.407047 79.388374 
C 554.166496 78.891108 553.840192 78.611707 553.5 78.611707 
C 553.159808 78.611707 552.833504 78.891108 552.592953 79.388374 
C 552.352401 79.885641 552.217241 80.560174 552.217241 81.263415 
C 552.217241 81.966656 552.352401 82.641188 552.592953 83.138455 
C 552.833504 83.635721 553.159808 83.915122 553.5 83.915122 
z
" style="fill:#ffff00;stroke:#ffffff;stroke-linejoin:miter;stroke-width:0.5;"/>
   </g>
   <g id="abd1b328043f41929830cc9c0897d3e3-21-node">
    <path clip-path="url(#pce3d06ed8f)" d="M 545.482759 78.611707 
L 544.2 81.263415 
L 545.482759 83.915122 
L 546.765517 81.263415 
z
" style="fill:#c800c8;stroke:#ffffff;stroke-linejoin:miter;stroke-width:0.5;"/>
   </g>
   <g id="abd1b328043f41929830cc9c0897d3e3-7-node">
    <path clip-path="url(#pce3d06ed8f)" d="M 562.8 62.038537 
L 562.8 67.341951 
L 560.234483 67.341951 
L 560.234483 62.038537 
L 562.8 62.038537 
z
" style="fill:#0000ff;stroke:#ffffff;stroke-linejoin:miter;stroke-width:0.5;"/>
   </g>
   <g id="abd1b328043f41929830cc9c0897d3e3-9-node">
    <path clip-path="url(#pce3d06ed8f)" d="M 553.5 67.341951 
C 553.840192 67.341951 554.166496 67.062551 554.407047 66.565284 
C 554.647599 66.068018 554.782759 65.393485 554.782759 64.690244 
C 554.782759 63.987003 554.647599 63.31247 554.407047 62.815204 
C 554.166496 62.317937 553.840192 62.038537 553.5 62.038537 
C 553.159808 62.038537 552.833504 62.317937 552.592953 62.815204 
C 552.352401 63.31247 552.217241 63.987003 552.217241 64.690244 
C 552.217241 65.393485 552.352401 66.068018 552.592953 66.565284 
C 552.833504 67.062551 553.159808 67.341951 553.5 67.341951 
z
" style="fill:#ffff00;stroke:#ffffff;stroke-linejoin:miter;stroke-width:0.5;"/>
   </g>
   <g id="abd1b328043f41929830cc9c0897d3e3-10-node">
    <path clip-path="url(#pce3d06ed8f)" d="M 546.765517 62.038537 
L 546.765517 67.341951 
L 544.2 67.341951 
L 544.2 62.038537 
L 546.765517 62.038537 
z
" style="fill:#0000ff;stroke:#ffffff;stroke-linejoin:miter;stroke-width:0.5;"/>
   </g>
   <g id="abd1b328043f41929830cc9c0897d3e3-12-node">
    <path clip-path="url(#pce3d06ed8f)" d="M 537.465517 67.341951 
C 537.805709 67.341951 538.132013 67.062551 538.372565 66.565284 
C 538.613116 66.068018 538.748276 65.393485 538.748276 64.690244 
C 538.748276 63.987003 538.613116 63.31247 538.372565 62.815204 
C 538.132013 62.317937 537.805709 62.038537 537.465517 62.038537 
C 537.125326 62.038537 536.799022 62.317937 536.55847 62.815204 
C 536.317918 63.31247 536.182759 63.987003 536.182759 64.690244 
C 536.182759 65.393485 536.317918 66.068018 536.55847 66.565284 
C 536.799022 67.062551 537.125326 67.341951 537.465517 67.341951 
z
" style="fill:#ffff00;stroke:#ffffff;stroke-linejoin:miter;stroke-width:0.5;"/>
   </g>
   <g id="abd1b328043f41929830cc9c0897d3e3-13-node">
    <path clip-path="url(#pce3d06ed8f)" d="M 530.731034 62.038537 
L 530.731034 67.341951 
L 528.165517 67.341951 
L 528.165517 62.038537 
L 530.731034 62.038537 
z
" style="fill:#0000ff;stroke:#ffffff;stroke-linejoin:miter;stroke-width:0.5;"/>
   </g>
   <g id="abd1b328043f41929830cc9c0897d3e3-15-node">
    <path clip-path="url(#pce3d06ed8f)" d="M 521.431034 67.341951 
C 521.771226 67.341951 522.09753 67.062551 522.338082 66.565284 
C 522.578634 66.068018 522.713793 65.393485 522.713793 64.690244 
C 522.713793 63.987003 522.578634 63.31247 522.338082 62.815204 
C 522.09753 62.317937 521.771226 62.038537 521.431034 62.038537 
C 521.090843 62.038537 520.764539 62.317937 520.523987 62.815204 
C 520.283435 63.31247 520.148276 63.987003 520.148276 64.690244 
C 520.148276 65.393485 520.283435 66.068018 520.523987 66.565284 
C 520.764539 67.062551 521.090843 67.341951 521.431034 67.341951 
z
" style="fill:#ffff00;stroke:#ffffff;stroke-linejoin:miter;stroke-width:0.5;"/>
   </g>
   <g id="abd1b328043f41929830cc9c0897d3e3-16-node">
    <path clip-path="url(#pce3d06ed8f)" d="M 513.413793 62.038537 
L 512.131034 64.690244 
L 513.413793 67.341951 
L 514.696552 64.690244 
z
" style="fill:#c800c8;stroke:#ffffff;stroke-linejoin:miter;stroke-width:0.5;"/>
   </g>
   <g id="patch_68">
    <path d="M 481.344828 157.5 
L 481.344828 21.6 
" style="fill:none;stroke:#ffffff;stroke-linecap:square;stroke-linejoin:miter;stroke-width:1.25;"/>
   </g>
   <g id="patch_69">
    <path d="M 625.655172 157.5 
L 625.655172 21.6 
" style="fill:none;stroke:#ffffff;stroke-linecap:square;stroke-linejoin:miter;stroke-width:1.25;"/>
   </g>
   <g id="patch_70">
    <path d="M 481.344828 157.5 
L 625.655172 157.5 
" style="fill:none;stroke:#ffffff;stroke-linecap:square;stroke-linejoin:miter;stroke-width:1.25;"/>
   </g>
   <g id="patch_71">
    <path d="M 481.344828 21.6 
L 625.655172 21.6 
" style="fill:none;stroke:#ffffff;stroke-linecap:square;stroke-linejoin:miter;stroke-width:1.25;"/>
   </g>
   <g id="text_3">
    <!-- 1695:54.0 -->
    <defs>
     <path d="M 5.46875 16.546875 
L 13.921875 17.328125 
Q 14.984375 11.375 18.015625 8.6875 
Q 21.046875 6 25.78125 6 
Q 29.828125 6 32.875 7.859375 
Q 35.9375 9.71875 37.890625 12.8125 
Q 39.84375 15.921875 41.15625 21.1875 
Q 42.484375 26.46875 42.484375 31.9375 
Q 42.484375 32.515625 42.4375 33.6875 
Q 39.796875 29.5 35.234375 26.875 
Q 30.671875 24.265625 25.34375 24.265625 
Q 16.453125 24.265625 10.296875 30.703125 
Q 4.15625 37.15625 4.15625 47.703125 
Q 4.15625 58.59375 10.578125 65.234375 
Q 17 71.875 26.65625 71.875 
Q 33.640625 71.875 39.421875 68.109375 
Q 45.21875 64.359375 48.21875 57.390625 
Q 51.21875 50.4375 51.21875 37.25 
Q 51.21875 23.53125 48.234375 15.40625 
Q 45.265625 7.28125 39.375 3.03125 
Q 33.5 -1.21875 25.59375 -1.21875 
Q 17.1875 -1.21875 11.859375 3.4375 
Q 6.546875 8.109375 5.46875 16.546875 
z
M 41.453125 48.140625 
Q 41.453125 55.71875 37.421875 60.15625 
Q 33.40625 64.59375 27.734375 64.59375 
Q 21.875 64.59375 17.53125 59.8125 
Q 13.1875 55.03125 13.1875 47.40625 
Q 13.1875 40.578125 17.3125 36.296875 
Q 21.4375 32.03125 27.484375 32.03125 
Q 33.59375 32.03125 37.515625 36.296875 
Q 41.453125 40.578125 41.453125 48.140625 
z
" id="ArialMT-57"/>
    </defs>
    <g style="fill:#262626;" transform="translate(526.810313 15.6)scale(0.12 -0.12)">
     <use xlink:href="#ArialMT-49"/>
     <use x="55.615234" xlink:href="#ArialMT-54"/>
     <use x="111.230469" xlink:href="#ArialMT-57"/>
     <use x="166.845703" xlink:href="#ArialMT-53"/>
     <use x="222.460938" xlink:href="#ArialMT-58"/>
     <use x="250.244141" xlink:href="#ArialMT-53"/>
     <use x="305.859375" xlink:href="#ArialMT-52"/>
     <use x="361.474609" xlink:href="#ArialMT-46"/>
     <use x="389.257812" xlink:href="#ArialMT-48"/>
    </g>
   </g>
  </g>
  <g id="axes_4">
   <g id="patch_72">
    <path d="M 654.517241 157.5 
L 798.827586 157.5 
L 798.827586 21.6 
L 654.517241 21.6 
z
" style="fill:#eaeaf2;"/>
   </g>
   <g id="matplotlib.axis_1">
    <g id="xtick_1">
     <g id="line2d_1">
      <path clip-path="url(#pd85d3d50d6)" d="M 654.517241 157.5 
L 654.517241 21.6 
" style="fill:none;stroke:#ffffff;stroke-linecap:round;"/>
     </g>
     <g id="text_4">
      <!-- 0.00 -->
      <g style="fill:#262626;" transform="translate(643.813726 174.873594)scale(0.11 -0.11)">
       <use xlink:href="#ArialMT-48"/>
       <use x="55.615234" xlink:href="#ArialMT-46"/>
       <use x="83.398438" xlink:href="#ArialMT-48"/>
       <use x="139.013672" xlink:href="#ArialMT-48"/>
      </g>
     </g>
    </g>
    <g id="xtick_2">
     <g id="line2d_2">
      <path clip-path="url(#pd85d3d50d6)" d="M 690.594828 157.5 
L 690.594828 21.6 
" style="fill:none;stroke:#ffffff;stroke-linecap:round;"/>
     </g>
     <g id="text_5">
      <!-- 0.25 -->
      <defs>
       <path d="M 50.34375 8.453125 
L 50.34375 0 
L 3.03125 0 
Q 2.9375 3.171875 4.046875 6.109375 
Q 5.859375 10.9375 9.828125 15.625 
Q 13.8125 20.3125 21.34375 26.46875 
Q 33.015625 36.03125 37.109375 41.625 
Q 41.21875 47.21875 41.21875 52.203125 
Q 41.21875 57.421875 37.46875 61 
Q 33.734375 64.59375 27.734375 64.59375 
Q 21.390625 64.59375 17.578125 60.78125 
Q 13.765625 56.984375 13.71875 50.25 
L 4.6875 51.171875 
Q 5.609375 61.28125 11.65625 66.578125 
Q 17.71875 71.875 27.9375 71.875 
Q 38.234375 71.875 44.234375 66.15625 
Q 50.25 60.453125 50.25 52 
Q 50.25 47.703125 48.484375 43.546875 
Q 46.734375 39.40625 42.65625 34.8125 
Q 38.578125 30.21875 29.109375 22.21875 
Q 21.1875 15.578125 18.9375 13.203125 
Q 16.703125 10.84375 15.234375 8.453125 
z
" id="ArialMT-50"/>
      </defs>
      <g style="fill:#262626;" transform="translate(679.891312 174.873594)scale(0.11 -0.11)">
       <use xlink:href="#ArialMT-48"/>
       <use x="55.615234" xlink:href="#ArialMT-46"/>
       <use x="83.398438" xlink:href="#ArialMT-50"/>
       <use x="139.013672" xlink:href="#ArialMT-53"/>
      </g>
     </g>
    </g>
    <g id="xtick_3">
     <g id="line2d_3">
      <path clip-path="url(#pd85d3d50d6)" d="M 726.672414 157.5 
L 726.672414 21.6 
" style="fill:none;stroke:#ffffff;stroke-linecap:round;"/>
     </g>
     <g id="text_6">
      <!-- 0.50 -->
      <g style="fill:#262626;" transform="translate(715.968898 174.873594)scale(0.11 -0.11)">
       <use xlink:href="#ArialMT-48"/>
       <use x="55.615234" xlink:href="#ArialMT-46"/>
       <use x="83.398438" xlink:href="#ArialMT-53"/>
       <use x="139.013672" xlink:href="#ArialMT-48"/>
      </g>
     </g>
    </g>
    <g id="xtick_4">
     <g id="line2d_4">
      <path clip-path="url(#pd85d3d50d6)" d="M 762.75 157.5 
L 762.75 21.6 
" style="fill:none;stroke:#ffffff;stroke-linecap:round;"/>
     </g>
     <g id="text_7">
      <!-- 0.75 -->
      <g style="fill:#262626;" transform="translate(752.046484 174.873594)scale(0.11 -0.11)">
       <use xlink:href="#ArialMT-48"/>
       <use x="55.615234" xlink:href="#ArialMT-46"/>
       <use x="83.398438" xlink:href="#ArialMT-55"/>
       <use x="139.013672" xlink:href="#ArialMT-53"/>
      </g>
     </g>
    </g>
    <g id="xtick_5">
     <g id="line2d_5">
      <path clip-path="url(#pd85d3d50d6)" d="M 798.827586 157.5 
L 798.827586 21.6 
" style="fill:none;stroke:#ffffff;stroke-linecap:round;"/>
     </g>
     <g id="text_8">
      <!-- 1.00 -->
      <g style="fill:#262626;" transform="translate(788.124071 174.873594)scale(0.11 -0.11)">
       <use xlink:href="#ArialMT-49"/>
       <use x="55.615234" xlink:href="#ArialMT-46"/>
       <use x="83.398438" xlink:href="#ArialMT-48"/>
       <use x="139.013672" xlink:href="#ArialMT-48"/>
      </g>
     </g>
    </g>
   </g>
   <g id="matplotlib.axis_2">
    <g id="ytick_1">
     <g id="line2d_6">
      <path clip-path="url(#pd85d3d50d6)" d="M 654.517241 157.5 
L 798.827586 157.5 
" style="fill:none;stroke:#ffffff;stroke-linecap:round;"/>
     </g>
     <g id="text_9">
      <!-- 0.0 -->
      <g style="fill:#262626;" transform="translate(629.727241 161.436797)scale(0.11 -0.11)">
       <use xlink:href="#ArialMT-48"/>
       <use x="55.615234" xlink:href="#ArialMT-46"/>
       <use x="83.398438" xlink:href="#ArialMT-48"/>
      </g>
     </g>
    </g>
    <g id="ytick_2">
     <g id="line2d_7">
      <path clip-path="url(#pd85d3d50d6)" d="M 654.517241 130.32 
L 798.827586 130.32 
" style="fill:none;stroke:#ffffff;stroke-linecap:round;"/>
     </g>
     <g id="text_10">
      <!-- 0.2 -->
      <g style="fill:#262626;" transform="translate(629.727241 134.256797)scale(0.11 -0.11)">
       <use xlink:href="#ArialMT-48"/>
       <use x="55.615234" xlink:href="#ArialMT-46"/>
       <use x="83.398438" xlink:href="#ArialMT-50"/>
      </g>
     </g>
    </g>
    <g id="ytick_3">
     <g id="line2d_8">
      <path clip-path="url(#pd85d3d50d6)" d="M 654.517241 103.14 
L 798.827586 103.14 
" style="fill:none;stroke:#ffffff;stroke-linecap:round;"/>
     </g>
     <g id="text_11">
      <!-- 0.4 -->
      <g style="fill:#262626;" transform="translate(629.727241 107.076797)scale(0.11 -0.11)">
       <use xlink:href="#ArialMT-48"/>
       <use x="55.615234" xlink:href="#ArialMT-46"/>
       <use x="83.398438" xlink:href="#ArialMT-52"/>
      </g>
     </g>
    </g>
    <g id="ytick_4">
     <g id="line2d_9">
      <path clip-path="url(#pd85d3d50d6)" d="M 654.517241 75.96 
L 798.827586 75.96 
" style="fill:none;stroke:#ffffff;stroke-linecap:round;"/>
     </g>
     <g id="text_12">
      <!-- 0.6 -->
      <g style="fill:#262626;" transform="translate(629.727241 79.896797)scale(0.11 -0.11)">
       <use xlink:href="#ArialMT-48"/>
       <use x="55.615234" xlink:href="#ArialMT-46"/>
       <use x="83.398438" xlink:href="#ArialMT-54"/>
      </g>
     </g>
    </g>
    <g id="ytick_5">
     <g id="line2d_10">
      <path clip-path="url(#pd85d3d50d6)" d="M 654.517241 48.78 
L 798.827586 48.78 
" style="fill:none;stroke:#ffffff;stroke-linecap:round;"/>
     </g>
     <g id="text_13">
      <!-- 0.8 -->
      <g style="fill:#262626;" transform="translate(629.727241 52.716797)scale(0.11 -0.11)">
       <use xlink:href="#ArialMT-48"/>
       <use x="55.615234" xlink:href="#ArialMT-46"/>
       <use x="83.398438" xlink:href="#ArialMT-56"/>
      </g>
     </g>
    </g>
    <g id="ytick_6">
     <g id="line2d_11">
      <path clip-path="url(#pd85d3d50d6)" d="M 654.517241 21.6 
L 798.827586 21.6 
" style="fill:none;stroke:#ffffff;stroke-linecap:round;"/>
     </g>
     <g id="text_14">
      <!-- 1.0 -->
      <g style="fill:#262626;" transform="translate(629.727241 25.536797)scale(0.11 -0.11)">
       <use xlink:href="#ArialMT-49"/>
       <use x="55.615234" xlink:href="#ArialMT-46"/>
       <use x="83.398438" xlink:href="#ArialMT-48"/>
      </g>
     </g>
    </g>
   </g>
   <g id="patch_73">
    <path d="M 654.517241 157.5 
L 654.517241 21.6 
" style="fill:none;stroke:#ffffff;stroke-linecap:square;stroke-linejoin:miter;stroke-width:1.25;"/>
   </g>
   <g id="patch_74">
    <path d="M 798.827586 157.5 
L 798.827586 21.6 
" style="fill:none;stroke:#ffffff;stroke-linecap:square;stroke-linejoin:miter;stroke-width:1.25;"/>
   </g>
   <g id="patch_75">
    <path d="M 654.517241 157.5 
L 798.827586 157.5 
" style="fill:none;stroke:#ffffff;stroke-linecap:square;stroke-linejoin:miter;stroke-width:1.25;"/>
   </g>
   <g id="patch_76">
    <path d="M 654.517241 21.6 
L 798.827586 21.6 
" style="fill:none;stroke:#ffffff;stroke-linecap:square;stroke-linejoin:miter;stroke-width:1.25;"/>
   </g>
  </g>
  <g id="axes_5">
   <g id="patch_77">
    <path d="M 827.689655 157.5 
L 972 157.5 
L 972 21.6 
L 827.689655 21.6 
z
" style="fill:#eaeaf2;"/>
   </g>
   <g id="matplotlib.axis_3">
    <g id="xtick_6">
     <g id="line2d_12">
      <path clip-path="url(#p4be0c77549)" d="M 827.689655 157.5 
L 827.689655 21.6 
" style="fill:none;stroke:#ffffff;stroke-linecap:round;"/>
     </g>
     <g id="text_15">
      <!-- 0.00 -->
      <g style="fill:#262626;" transform="translate(816.98614 174.873594)scale(0.11 -0.11)">
       <use xlink:href="#ArialMT-48"/>
       <use x="55.615234" xlink:href="#ArialMT-46"/>
       <use x="83.398438" xlink:href="#ArialMT-48"/>
       <use x="139.013672" xlink:href="#ArialMT-48"/>
      </g>
     </g>
    </g>
    <g id="xtick_7">
     <g id="line2d_13">
      <path clip-path="url(#p4be0c77549)" d="M 863.767241 157.5 
L 863.767241 21.6 
" style="fill:none;stroke:#ffffff;stroke-linecap:round;"/>
     </g>
     <g id="text_16">
      <!-- 0.25 -->
      <g style="fill:#262626;" transform="translate(853.063726 174.873594)scale(0.11 -0.11)">
       <use xlink:href="#ArialMT-48"/>
       <use x="55.615234" xlink:href="#ArialMT-46"/>
       <use x="83.398438" xlink:href="#ArialMT-50"/>
       <use x="139.013672" xlink:href="#ArialMT-53"/>
      </g>
     </g>
    </g>
    <g id="xtick_8">
     <g id="line2d_14">
      <path clip-path="url(#p4be0c77549)" d="M 899.844828 157.5 
L 899.844828 21.6 
" style="fill:none;stroke:#ffffff;stroke-linecap:round;"/>
     </g>
     <g id="text_17">
      <!-- 0.50 -->
      <g style="fill:#262626;" transform="translate(889.141312 174.873594)scale(0.11 -0.11)">
       <use xlink:href="#ArialMT-48"/>
       <use x="55.615234" xlink:href="#ArialMT-46"/>
       <use x="83.398438" xlink:href="#ArialMT-53"/>
       <use x="139.013672" xlink:href="#ArialMT-48"/>
      </g>
     </g>
    </g>
    <g id="xtick_9">
     <g id="line2d_15">
      <path clip-path="url(#p4be0c77549)" d="M 935.922414 157.5 
L 935.922414 21.6 
" style="fill:none;stroke:#ffffff;stroke-linecap:round;"/>
     </g>
     <g id="text_18">
      <!-- 0.75 -->
      <g style="fill:#262626;" transform="translate(925.218898 174.873594)scale(0.11 -0.11)">
       <use xlink:href="#ArialMT-48"/>
       <use x="55.615234" xlink:href="#ArialMT-46"/>
       <use x="83.398438" xlink:href="#ArialMT-55"/>
       <use x="139.013672" xlink:href="#ArialMT-53"/>
      </g>
     </g>
    </g>
    <g id="xtick_10">
     <g id="line2d_16">
      <path clip-path="url(#p4be0c77549)" d="M 972 157.5 
L 972 21.6 
" style="fill:none;stroke:#ffffff;stroke-linecap:round;"/>
     </g>
     <g id="text_19">
      <!-- 1.00 -->
      <g style="fill:#262626;" transform="translate(961.296484 174.873594)scale(0.11 -0.11)">
       <use xlink:href="#ArialMT-49"/>
       <use x="55.615234" xlink:href="#ArialMT-46"/>
       <use x="83.398438" xlink:href="#ArialMT-48"/>
       <use x="139.013672" xlink:href="#ArialMT-48"/>
      </g>
     </g>
    </g>
   </g>
   <g id="matplotlib.axis_4">
    <g id="ytick_7">
     <g id="line2d_17">
      <path clip-path="url(#p4be0c77549)" d="M 827.689655 157.5 
L 972 157.5 
" style="fill:none;stroke:#ffffff;stroke-linecap:round;"/>
     </g>
     <g id="text_20">
      <!-- 0.0 -->
      <g style="fill:#262626;" transform="translate(802.899655 161.436797)scale(0.11 -0.11)">
       <use xlink:href="#ArialMT-48"/>
       <use x="55.615234" xlink:href="#ArialMT-46"/>
       <use x="83.398438" xlink:href="#ArialMT-48"/>
      </g>
     </g>
    </g>
    <g id="ytick_8">
     <g id="line2d_18">
      <path clip-path="url(#p4be0c77549)" d="M 827.689655 130.32 
L 972 130.32 
" style="fill:none;stroke:#ffffff;stroke-linecap:round;"/>
     </g>
     <g id="text_21">
      <!-- 0.2 -->
      <g style="fill:#262626;" transform="translate(802.899655 134.256797)scale(0.11 -0.11)">
       <use xlink:href="#ArialMT-48"/>
       <use x="55.615234" xlink:href="#ArialMT-46"/>
       <use x="83.398438" xlink:href="#ArialMT-50"/>
      </g>
     </g>
    </g>
    <g id="ytick_9">
     <g id="line2d_19">
      <path clip-path="url(#p4be0c77549)" d="M 827.689655 103.14 
L 972 103.14 
" style="fill:none;stroke:#ffffff;stroke-linecap:round;"/>
     </g>
     <g id="text_22">
      <!-- 0.4 -->
      <g style="fill:#262626;" transform="translate(802.899655 107.076797)scale(0.11 -0.11)">
       <use xlink:href="#ArialMT-48"/>
       <use x="55.615234" xlink:href="#ArialMT-46"/>
       <use x="83.398438" xlink:href="#ArialMT-52"/>
      </g>
     </g>
    </g>
    <g id="ytick_10">
     <g id="line2d_20">
      <path clip-path="url(#p4be0c77549)" d="M 827.689655 75.96 
L 972 75.96 
" style="fill:none;stroke:#ffffff;stroke-linecap:round;"/>
     </g>
     <g id="text_23">
      <!-- 0.6 -->
      <g style="fill:#262626;" transform="translate(802.899655 79.896797)scale(0.11 -0.11)">
       <use xlink:href="#ArialMT-48"/>
       <use x="55.615234" xlink:href="#ArialMT-46"/>
       <use x="83.398438" xlink:href="#ArialMT-54"/>
      </g>
     </g>
    </g>
    <g id="ytick_11">
     <g id="line2d_21">
      <path clip-path="url(#p4be0c77549)" d="M 827.689655 48.78 
L 972 48.78 
" style="fill:none;stroke:#ffffff;stroke-linecap:round;"/>
     </g>
     <g id="text_24">
      <!-- 0.8 -->
      <g style="fill:#262626;" transform="translate(802.899655 52.716797)scale(0.11 -0.11)">
       <use xlink:href="#ArialMT-48"/>
       <use x="55.615234" xlink:href="#ArialMT-46"/>
       <use x="83.398438" xlink:href="#ArialMT-56"/>
      </g>
     </g>
    </g>
    <g id="ytick_12">
     <g id="line2d_22">
      <path clip-path="url(#p4be0c77549)" d="M 827.689655 21.6 
L 972 21.6 
" style="fill:none;stroke:#ffffff;stroke-linecap:round;"/>
     </g>
     <g id="text_25">
      <!-- 1.0 -->
      <g style="fill:#262626;" transform="translate(802.899655 25.536797)scale(0.11 -0.11)">
       <use xlink:href="#ArialMT-49"/>
       <use x="55.615234" xlink:href="#ArialMT-46"/>
       <use x="83.398438" xlink:href="#ArialMT-48"/>
      </g>
     </g>
    </g>
   </g>
   <g id="patch_78">
    <path d="M 827.689655 157.5 
L 827.689655 21.6 
" style="fill:none;stroke:#ffffff;stroke-linecap:square;stroke-linejoin:miter;stroke-width:1.25;"/>
   </g>
   <g id="patch_79">
    <path d="M 972 157.5 
L 972 21.6 
" style="fill:none;stroke:#ffffff;stroke-linecap:square;stroke-linejoin:miter;stroke-width:1.25;"/>
   </g>
   <g id="patch_80">
    <path d="M 827.689655 157.5 
L 972 157.5 
" style="fill:none;stroke:#ffffff;stroke-linecap:square;stroke-linejoin:miter;stroke-width:1.25;"/>
   </g>
   <g id="patch_81">
    <path d="M 827.689655 21.6 
L 972 21.6 
" style="fill:none;stroke:#ffffff;stroke-linecap:square;stroke-linejoin:miter;stroke-width:1.25;"/>
   </g>
   <g id="text_26">
    <!-- 34 -->
    <defs>
     <path d="M 4.203125 18.890625 
L 12.984375 20.0625 
Q 14.5 12.59375 18.140625 9.296875 
Q 21.78125 6 27 6 
Q 33.203125 6 37.46875 10.296875 
Q 41.75 14.59375 41.75 20.953125 
Q 41.75 27 37.796875 30.921875 
Q 33.84375 34.859375 27.734375 34.859375 
Q 25.25 34.859375 21.53125 33.890625 
L 22.515625 41.609375 
Q 23.390625 41.5 23.921875 41.5 
Q 29.546875 41.5 34.03125 44.421875 
Q 38.53125 47.359375 38.53125 53.46875 
Q 38.53125 58.296875 35.25 61.46875 
Q 31.984375 64.65625 26.8125 64.65625 
Q 21.6875 64.65625 18.265625 61.421875 
Q 14.84375 58.203125 13.875 51.765625 
L 5.078125 53.328125 
Q 6.6875 62.15625 12.390625 67.015625 
Q 18.109375 71.875 26.609375 71.875 
Q 32.46875 71.875 37.390625 69.359375 
Q 42.328125 66.84375 44.9375 62.5 
Q 47.5625 58.15625 47.5625 53.265625 
Q 47.5625 48.640625 45.0625 44.828125 
Q 42.578125 41.015625 37.703125 38.765625 
Q 44.046875 37.3125 47.5625 32.6875 
Q 51.078125 28.078125 51.078125 21.140625 
Q 51.078125 11.765625 44.234375 5.25 
Q 37.40625 -1.265625 26.953125 -1.265625 
Q 17.53125 -1.265625 11.296875 4.34375 
Q 5.078125 9.96875 4.203125 18.890625 
z
" id="ArialMT-51"/>
    </defs>
    <g style="fill:#262626;" transform="translate(893.171703 15.6)scale(0.12 -0.12)">
     <use xlink:href="#ArialMT-51"/>
     <use x="55.615234" xlink:href="#ArialMT-52"/>
    </g>
   </g>
  </g>
 </g>
 <defs>
  <clipPath id="pd3b25733b9">
   <rect height="135.9" width="144.310345" x="135" y="21.6"/>
  </clipPath>
  <clipPath id="pff5b77c754">
   <rect height="135.9" width="144.310345" x="308.172414" y="21.6"/>
  </clipPath>
  <clipPath id="pce3d06ed8f">
   <rect height="135.9" width="144.310345" x="481.344828" y="21.6"/>
  </clipPath>
  <clipPath id="pd85d3d50d6">
   <rect height="135.9" width="144.310345" x="654.517241" y="21.6"/>
  </clipPath>
  <clipPath id="p4be0c77549">
   <rect height="135.9" width="144.310345" x="827.689655" y="21.6"/>
  </clipPath>
 </defs>
</svg>
