<?xml version="1.0" encoding="utf-8" standalone="no"?>
<!DOCTYPE svg PUBLIC "-//W3C//DTD SVG 1.1//EN"
  "http://www.w3.org/Graphics/SVG/1.1/DTD/svg11.dtd">
<!-- Created with matplotlib (https://matplotlib.org/) -->
<svg height="180pt" version="1.1" viewBox="0 0 1080 180" width="1080pt" xmlns="http://www.w3.org/2000/svg" xmlns:xlink="http://www.w3.org/1999/xlink">
 <defs>
  <style type="text/css">
*{stroke-linecap:butt;stroke-linejoin:round;}
  </style>
 </defs>
 <g id="figure_1">
  <g id="patch_1">
   <path d="M 0 180 
L 1080 180 
L 1080 0 
L 0 0 
z
" style="fill:#ffffff;"/>
  </g>
  <g id="axes_1">
   <g id="patch_2">
    <path d="M 135 157.5 
L 279.310345 157.5 
L 279.310345 21.6 
L 135 21.6 
z
" style="fill:#ffffff;"/>
   </g>
   <g id="patch_3">
    <path clip-path="url(#pd86d5293da)" d="M 195.517241 109.535294 
L 183.87931 109.535294 
" style="stroke:#000000;stroke-linejoin:miter;stroke-width:0.5;"/>
   </g>
   <g id="patch_4">
    <path clip-path="url(#pd86d5293da)" d="M 207.155172 109.535294 
L 195.517241 109.535294 
" style="stroke:#000000;stroke-linejoin:miter;stroke-width:0.5;"/>
   </g>
   <g id="patch_5">
    <path clip-path="url(#pd86d5293da)" d="M 218.793103 94.546324 
L 207.155172 109.535294 
" style="stroke:#000000;stroke-linejoin:miter;stroke-width:0.5;"/>
   </g>
   <g id="patch_6">
    <path clip-path="url(#pd86d5293da)" d="M 195.517241 89.55 
L 183.87931 89.55 
" style="stroke:#000000;stroke-linejoin:miter;stroke-width:0.5;"/>
   </g>
   <g id="patch_7">
    <path clip-path="url(#pd86d5293da)" d="M 207.155172 79.557353 
L 195.517241 89.55 
" style="stroke:#000000;stroke-linejoin:miter;stroke-width:0.5;"/>
   </g>
   <g id="patch_8">
    <path clip-path="url(#pd86d5293da)" d="M 183.87931 69.564706 
L 172.241379 69.564706 
" style="stroke:#000000;stroke-linejoin:miter;stroke-width:0.5;"/>
   </g>
   <g id="patch_9">
    <path clip-path="url(#pd86d5293da)" d="M 195.517241 69.564706 
L 183.87931 69.564706 
" style="stroke:#000000;stroke-linejoin:miter;stroke-width:0.5;"/>
   </g>
   <g id="patch_10">
    <path clip-path="url(#pd86d5293da)" d="M 207.155172 79.557353 
L 195.517241 69.564706 
" style="stroke:#000000;stroke-linejoin:miter;stroke-width:0.5;"/>
   </g>
   <g id="patch_11">
    <path clip-path="url(#pd86d5293da)" d="M 218.793103 94.546324 
L 207.155172 79.557353 
" style="stroke:#000000;stroke-linejoin:miter;stroke-width:0.5;"/>
   </g>
   <g id="patch_12">
    <path clip-path="url(#pd86d5293da)" d="M 230.431034 94.546324 
L 218.793103 94.546324 
" style="stroke:#000000;stroke-linejoin:miter;stroke-width:0.5;"/>
   </g>
   <g id="patch_13">
    <path clip-path="url(#pd86d5293da)" d="M 242.068966 94.546324 
L 230.431034 94.546324 
" style="stroke:#000000;stroke-linejoin:miter;stroke-width:0.5;"/>
   </g>
   <g id="8d5166eb060c44edb15dc1797d1a40e3-1-node">
    <path clip-path="url(#pd86d5293da)" d="M 243.931034 91.348676 
L 243.931034 97.743971 
L 240.206897 97.743971 
L 240.206897 91.348676 
L 243.931034 91.348676 
z
" style="fill:#0000ff;stroke:#ffffff;stroke-linejoin:miter;stroke-width:0.5;"/>
   </g>
   <g id="8d5166eb060c44edb15dc1797d1a40e3-3-node">
    <path clip-path="url(#pd86d5293da)" d="M 232.293103 91.348676 
L 232.293103 97.743971 
L 228.568966 97.743971 
L 228.568966 91.348676 
L 232.293103 91.348676 
z
" style="fill:#0000ff;stroke:#ffffff;stroke-linejoin:miter;stroke-width:0.5;"/>
   </g>
   <g id="8d5166eb060c44edb15dc1797d1a40e3-5-node">
    <path clip-path="url(#pd86d5293da)" d="M 218.793103 97.743971 
C 219.28693 97.743971 219.760597 97.407046 220.109785 96.807401 
C 220.458973 96.207757 220.655172 95.394349 220.655172 94.546324 
C 220.655172 93.698298 220.458973 92.88489 220.109785 92.285246 
C 219.760597 91.685601 219.28693 91.348676 218.793103 91.348676 
C 218.299277 91.348676 217.82561 91.685601 217.476422 92.285246 
C 217.127234 92.88489 216.931034 93.698298 216.931034 94.546324 
C 216.931034 95.394349 217.127234 96.207757 217.476422 96.807401 
C 217.82561 97.407046 218.299277 97.743971 218.793103 97.743971 
z
" style="fill:#00c832;stroke:#ffffff;stroke-linejoin:miter;stroke-width:0.5;"/>
   </g>
   <g id="8d5166eb060c44edb15dc1797d1a40e3-15-node">
    <path clip-path="url(#pd86d5293da)" d="M 207.155172 112.732941 
C 207.648999 112.732941 208.122666 112.396017 208.471854 111.796372 
C 208.821042 111.196727 209.017241 110.38332 209.017241 109.535294 
C 209.017241 108.687268 208.821042 107.873861 208.471854 107.274216 
C 208.122666 106.674571 207.648999 106.337647 207.155172 106.337647 
C 206.661346 106.337647 206.187679 106.674571 205.838491 107.274216 
C 205.489303 107.873861 205.293103 108.687268 205.293103 109.535294 
C 205.293103 110.38332 205.489303 111.196727 205.838491 111.796372 
C 206.187679 112.396017 206.661346 112.732941 207.155172 112.732941 
z
" style="fill:#00c832;stroke:#ffffff;stroke-linejoin:miter;stroke-width:0.5;"/>
   </g>
   <g id="8d5166eb060c44edb15dc1797d1a40e3-16-node">
    <path clip-path="url(#pd86d5293da)" d="M 197.37931 106.337647 
L 197.37931 112.732941 
L 193.655172 112.732941 
L 193.655172 106.337647 
L 197.37931 106.337647 
z
" style="fill:#0000ff;stroke:#ffffff;stroke-linejoin:miter;stroke-width:0.5;"/>
   </g>
   <g id="8d5166eb060c44edb15dc1797d1a40e3-18-node">
    <path clip-path="url(#pd86d5293da)" d="M 183.87931 112.732941 
C 184.373137 112.732941 184.846804 112.396017 185.195992 111.796372 
C 185.54518 111.196727 185.741379 110.38332 185.741379 109.535294 
C 185.741379 108.687268 185.54518 107.873861 185.195992 107.274216 
C 184.846804 106.674571 184.373137 106.337647 183.87931 106.337647 
C 183.385484 106.337647 182.911817 106.674571 182.562629 107.274216 
C 182.213441 107.873861 182.017241 108.687268 182.017241 109.535294 
C 182.017241 110.38332 182.213441 111.196727 182.562629 111.796372 
C 182.911817 112.396017 183.385484 112.732941 183.87931 112.732941 
z
" style="fill:#ffff00;stroke:#ffffff;stroke-linejoin:miter;stroke-width:0.5;"/>
   </g>
   <g id="8d5166eb060c44edb15dc1797d1a40e3-6-node">
    <path clip-path="url(#pd86d5293da)" d="M 207.155172 82.755 
C 207.648999 82.755 208.122666 82.418076 208.471854 81.818431 
C 208.821042 81.218786 209.017241 80.405379 209.017241 79.557353 
C 209.017241 78.709327 208.821042 77.89592 208.471854 77.296275 
C 208.122666 76.69663 207.648999 76.359706 207.155172 76.359706 
C 206.661346 76.359706 206.187679 76.69663 205.838491 77.296275 
C 205.489303 77.89592 205.293103 78.709327 205.293103 79.557353 
C 205.293103 80.405379 205.489303 81.218786 205.838491 81.818431 
C 206.187679 82.418076 206.661346 82.755 207.155172 82.755 
z
" style="fill:#00c832;stroke:#ffffff;stroke-linejoin:miter;stroke-width:0.5;"/>
   </g>
   <g id="8d5166eb060c44edb15dc1797d1a40e3-12-node">
    <path clip-path="url(#pd86d5293da)" d="M 197.37931 86.352353 
L 197.37931 92.747647 
L 193.655172 92.747647 
L 193.655172 86.352353 
L 197.37931 86.352353 
z
" style="fill:#0000ff;stroke:#ffffff;stroke-linejoin:miter;stroke-width:0.5;"/>
   </g>
   <g id="8d5166eb060c44edb15dc1797d1a40e3-14-node">
    <path clip-path="url(#pd86d5293da)" d="M 183.87931 92.747647 
C 184.373137 92.747647 184.846804 92.410723 185.195992 91.811078 
C 185.54518 91.211433 185.741379 90.398026 185.741379 89.55 
C 185.741379 88.701974 185.54518 87.888567 185.195992 87.288922 
C 184.846804 86.689277 184.373137 86.352353 183.87931 86.352353 
C 183.385484 86.352353 182.911817 86.689277 182.562629 87.288922 
C 182.213441 87.888567 182.017241 88.701974 182.017241 89.55 
C 182.017241 90.398026 182.213441 91.211433 182.562629 91.811078 
C 182.911817 92.410723 183.385484 92.747647 183.87931 92.747647 
z
" style="fill:#ffff00;stroke:#ffffff;stroke-linejoin:miter;stroke-width:0.5;"/>
   </g>
   <g id="8d5166eb060c44edb15dc1797d1a40e3-7-node">
    <path clip-path="url(#pd86d5293da)" d="M 197.37931 66.367059 
L 197.37931 72.762353 
L 193.655172 72.762353 
L 193.655172 66.367059 
L 197.37931 66.367059 
z
" style="fill:#0000ff;stroke:#ffffff;stroke-linejoin:miter;stroke-width:0.5;"/>
   </g>
   <g id="8d5166eb060c44edb15dc1797d1a40e3-9-node">
    <path clip-path="url(#pd86d5293da)" d="M 183.87931 72.762353 
C 184.373137 72.762353 184.846804 72.425429 185.195992 71.825784 
C 185.54518 71.226139 185.741379 70.412732 185.741379 69.564706 
C 185.741379 68.71668 185.54518 67.903273 185.195992 67.303628 
C 184.846804 66.703983 184.373137 66.367059 183.87931 66.367059 
C 183.385484 66.367059 182.911817 66.703983 182.562629 67.303628 
C 182.213441 67.903273 182.017241 68.71668 182.017241 69.564706 
C 182.017241 70.412732 182.213441 71.226139 182.562629 71.825784 
C 182.911817 72.425429 183.385484 72.762353 183.87931 72.762353 
z
" style="fill:#ffff00;stroke:#ffffff;stroke-linejoin:miter;stroke-width:0.5;"/>
   </g>
   <g id="8d5166eb060c44edb15dc1797d1a40e3-10-node">
    <path clip-path="url(#pd86d5293da)" d="M 174.103448 66.367059 
L 174.103448 72.762353 
L 170.37931 72.762353 
L 170.37931 66.367059 
L 174.103448 66.367059 
z
" style="fill:#0000ff;stroke:#ffffff;stroke-linejoin:miter;stroke-width:0.5;"/>
   </g>
   <g id="patch_14">
    <path d="M 135 157.5 
L 135 21.6 
" style="fill:none;stroke:#ffffff;stroke-linecap:square;stroke-linejoin:miter;stroke-width:1.25;"/>
   </g>
   <g id="patch_15">
    <path d="M 279.310345 157.5 
L 279.310345 21.6 
" style="fill:none;stroke:#ffffff;stroke-linecap:square;stroke-linejoin:miter;stroke-width:1.25;"/>
   </g>
   <g id="patch_16">
    <path d="M 135 157.5 
L 279.310345 157.5 
" style="fill:none;stroke:#ffffff;stroke-linecap:square;stroke-linejoin:miter;stroke-width:1.25;"/>
   </g>
   <g id="patch_17">
    <path d="M 135 21.6 
L 279.310345 21.6 
" style="fill:none;stroke:#ffffff;stroke-linecap:square;stroke-linejoin:miter;stroke-width:1.25;"/>
   </g>
   <g id="text_1">
    <!-- 575:4.0 -->
    <defs>
     <path d="M 4.15625 18.75 
L 13.375 19.53125 
Q 14.40625 12.796875 18.140625 9.390625 
Q 21.875 6 27.15625 6 
Q 33.5 6 37.890625 10.78125 
Q 42.28125 15.578125 42.28125 23.484375 
Q 42.28125 31 38.0625 35.34375 
Q 33.84375 39.703125 27 39.703125 
Q 22.75 39.703125 19.328125 37.765625 
Q 15.921875 35.84375 13.96875 32.765625 
L 5.71875 33.84375 
L 12.640625 70.609375 
L 48.25 70.609375 
L 48.25 62.203125 
L 19.671875 62.203125 
L 15.828125 42.96875 
Q 22.265625 47.46875 29.34375 47.46875 
Q 38.71875 47.46875 45.15625 40.96875 
Q 51.609375 34.46875 51.609375 24.265625 
Q 51.609375 14.546875 45.953125 7.46875 
Q 39.0625 -1.21875 27.15625 -1.21875 
Q 17.390625 -1.21875 11.203125 4.25 
Q 5.03125 9.71875 4.15625 18.75 
z
" id="ArialMT-53"/>
     <path d="M 4.734375 62.203125 
L 4.734375 70.65625 
L 51.078125 70.65625 
L 51.078125 63.8125 
Q 44.234375 56.546875 37.515625 44.484375 
Q 30.8125 32.421875 27.15625 19.671875 
Q 24.515625 10.6875 23.78125 0 
L 14.75 0 
Q 14.890625 8.453125 18.0625 20.40625 
Q 21.234375 32.375 27.171875 43.484375 
Q 33.109375 54.59375 39.796875 62.203125 
z
" id="ArialMT-55"/>
     <path d="M 9.03125 41.84375 
L 9.03125 51.859375 
L 19.046875 51.859375 
L 19.046875 41.84375 
z
M 9.03125 0 
L 9.03125 10.015625 
L 19.046875 10.015625 
L 19.046875 0 
z
" id="ArialMT-58"/>
     <path d="M 32.328125 0 
L 32.328125 17.140625 
L 1.265625 17.140625 
L 1.265625 25.203125 
L 33.9375 71.578125 
L 41.109375 71.578125 
L 41.109375 25.203125 
L 50.78125 25.203125 
L 50.78125 17.140625 
L 41.109375 17.140625 
L 41.109375 0 
z
M 32.328125 25.203125 
L 32.328125 57.46875 
L 9.90625 25.203125 
z
" id="ArialMT-52"/>
     <path d="M 9.078125 0 
L 9.078125 10.015625 
L 19.09375 10.015625 
L 19.09375 0 
z
" id="ArialMT-46"/>
     <path d="M 4.15625 35.296875 
Q 4.15625 48 6.765625 55.734375 
Q 9.375 63.484375 14.515625 67.671875 
Q 19.671875 71.875 27.484375 71.875 
Q 33.25 71.875 37.59375 69.546875 
Q 41.9375 67.234375 44.765625 62.859375 
Q 47.609375 58.5 49.21875 52.21875 
Q 50.828125 45.953125 50.828125 35.296875 
Q 50.828125 22.703125 48.234375 14.96875 
Q 45.65625 7.234375 40.5 3 
Q 35.359375 -1.21875 27.484375 -1.21875 
Q 17.140625 -1.21875 11.234375 6.203125 
Q 4.15625 15.140625 4.15625 35.296875 
z
M 13.1875 35.296875 
Q 13.1875 17.671875 17.3125 11.828125 
Q 21.4375 6 27.484375 6 
Q 33.546875 6 37.671875 11.859375 
Q 41.796875 17.71875 41.796875 35.296875 
Q 41.796875 52.984375 37.671875 58.78125 
Q 33.546875 64.59375 27.390625 64.59375 
Q 21.34375 64.59375 17.71875 59.46875 
Q 13.1875 52.9375 13.1875 35.296875 
z
" id="ArialMT-48"/>
    </defs>
    <g style="fill:#262626;" transform="translate(187.13861 15.6)scale(0.12 -0.12)">
     <use xlink:href="#ArialMT-53"/>
     <use x="55.615234" xlink:href="#ArialMT-55"/>
     <use x="111.230469" xlink:href="#ArialMT-53"/>
     <use x="166.845703" xlink:href="#ArialMT-58"/>
     <use x="194.628906" xlink:href="#ArialMT-52"/>
     <use x="250.244141" xlink:href="#ArialMT-46"/>
     <use x="278.027344" xlink:href="#ArialMT-48"/>
    </g>
   </g>
  </g>
  <g id="axes_2">
   <g id="patch_18">
    <path d="M 308.172414 157.5 
L 452.482759 157.5 
L 452.482759 21.6 
L 308.172414 21.6 
z
" style="fill:#ffffff;"/>
   </g>
   <g id="patch_19">
    <path clip-path="url(#p3ad08ef6b5)" d="M 375.098951 109.535294 
L 364.641679 109.535294 
" style="stroke:#000000;stroke-linejoin:miter;stroke-width:0.5;"/>
   </g>
   <g id="patch_20">
    <path clip-path="url(#p3ad08ef6b5)" d="M 385.556222 109.535294 
L 375.098951 109.535294 
" style="stroke:#000000;stroke-linejoin:miter;stroke-width:0.5;"/>
   </g>
   <g id="patch_21">
    <path clip-path="url(#p3ad08ef6b5)" d="M 396.013493 94.546324 
L 385.556222 109.535294 
" style="stroke:#000000;stroke-linejoin:miter;stroke-width:0.5;"/>
   </g>
   <g id="patch_22">
    <path clip-path="url(#p3ad08ef6b5)" d="M 354.184408 89.55 
L 343.727136 89.55 
" style="stroke:#000000;stroke-linejoin:miter;stroke-width:0.5;"/>
   </g>
   <g id="patch_23">
    <path clip-path="url(#p3ad08ef6b5)" d="M 364.641679 89.55 
L 354.184408 89.55 
" style="stroke:#000000;stroke-linejoin:miter;stroke-width:0.5;"/>
   </g>
   <g id="patch_24">
    <path clip-path="url(#p3ad08ef6b5)" d="M 375.098951 89.55 
L 364.641679 89.55 
" style="stroke:#000000;stroke-linejoin:miter;stroke-width:0.5;"/>
   </g>
   <g id="patch_25">
    <path clip-path="url(#p3ad08ef6b5)" d="M 385.556222 79.557353 
L 375.098951 89.55 
" style="stroke:#000000;stroke-linejoin:miter;stroke-width:0.5;"/>
   </g>
   <g id="patch_26">
    <path clip-path="url(#p3ad08ef6b5)" d="M 375.098951 69.564706 
L 364.641679 69.564706 
" style="stroke:#000000;stroke-linejoin:miter;stroke-width:0.5;"/>
   </g>
   <g id="patch_27">
    <path clip-path="url(#p3ad08ef6b5)" d="M 385.556222 79.557353 
L 375.098951 69.564706 
" style="stroke:#000000;stroke-linejoin:miter;stroke-width:0.5;"/>
   </g>
   <g id="patch_28">
    <path clip-path="url(#p3ad08ef6b5)" d="M 396.013493 94.546324 
L 385.556222 79.557353 
" style="stroke:#000000;stroke-linejoin:miter;stroke-width:0.5;"/>
   </g>
   <g id="patch_29">
    <path clip-path="url(#p3ad08ef6b5)" d="M 406.470765 94.546324 
L 396.013493 94.546324 
" style="stroke:#000000;stroke-linejoin:miter;stroke-width:0.5;"/>
   </g>
   <g id="patch_30">
    <path clip-path="url(#p3ad08ef6b5)" d="M 416.928036 94.546324 
L 406.470765 94.546324 
" style="stroke:#000000;stroke-linejoin:miter;stroke-width:0.5;"/>
   </g>
   <g id="728d6fd745d74724974bbcfccaaf36d2-1-node">
    <path clip-path="url(#p3ad08ef6b5)" d="M 418.601199 91.348676 
L 418.601199 97.743971 
L 415.254873 97.743971 
L 415.254873 91.348676 
L 418.601199 91.348676 
z
" style="fill:#0000ff;stroke:#ffffff;stroke-linejoin:miter;stroke-width:0.5;"/>
   </g>
   <g id="728d6fd745d74724974bbcfccaaf36d2-3-node">
    <path clip-path="url(#p3ad08ef6b5)" d="M 408.143928 91.348676 
L 408.143928 97.743971 
L 404.797601 97.743971 
L 404.797601 91.348676 
L 408.143928 91.348676 
z
" style="fill:#0000ff;stroke:#ffffff;stroke-linejoin:miter;stroke-width:0.5;"/>
   </g>
   <g id="728d6fd745d74724974bbcfccaaf36d2-5-node">
    <path clip-path="url(#p3ad08ef6b5)" d="M 396.013493 97.743971 
C 396.457221 97.743971 396.882835 97.407046 397.196598 96.807401 
C 397.510362 96.207757 397.686657 95.394349 397.686657 94.546324 
C 397.686657 93.698298 397.510362 92.88489 397.196598 92.285246 
C 396.882835 91.685601 396.457221 91.348676 396.013493 91.348676 
C 395.569765 91.348676 395.144151 91.685601 394.830388 92.285246 
C 394.516625 92.88489 394.34033 93.698298 394.34033 94.546324 
C 394.34033 95.394349 394.516625 96.207757 394.830388 96.807401 
C 395.144151 97.407046 395.569765 97.743971 396.013493 97.743971 
z
" style="fill:#00c832;stroke:#ffffff;stroke-linejoin:miter;stroke-width:0.5;"/>
   </g>
   <g id="728d6fd745d74724974bbcfccaaf36d2-16-node">
    <path clip-path="url(#p3ad08ef6b5)" d="M 385.556222 112.732941 
C 385.99995 112.732941 386.425564 112.396017 386.739327 111.796372 
C 387.05309 111.196727 387.229385 110.38332 387.229385 109.535294 
C 387.229385 108.687268 387.05309 107.873861 386.739327 107.274216 
C 386.425564 106.674571 385.99995 106.337647 385.556222 106.337647 
C 385.112494 106.337647 384.68688 106.674571 384.373117 107.274216 
C 384.059354 107.873861 383.883058 108.687268 383.883058 109.535294 
C 383.883058 110.38332 384.059354 111.196727 384.373117 111.796372 
C 384.68688 112.396017 385.112494 112.732941 385.556222 112.732941 
z
" style="fill:#00c832;stroke:#ffffff;stroke-linejoin:miter;stroke-width:0.5;"/>
   </g>
   <g id="728d6fd745d74724974bbcfccaaf36d2-17-node">
    <path clip-path="url(#p3ad08ef6b5)" d="M 376.772114 106.337647 
L 376.772114 112.732941 
L 373.425787 112.732941 
L 373.425787 106.337647 
L 376.772114 106.337647 
z
" style="fill:#0000ff;stroke:#ffffff;stroke-linejoin:miter;stroke-width:0.5;"/>
   </g>
   <g id="728d6fd745d74724974bbcfccaaf36d2-19-node">
    <path clip-path="url(#p3ad08ef6b5)" d="M 364.641679 112.732941 
C 365.085407 112.732941 365.511021 112.396017 365.824784 111.796372 
C 366.138548 111.196727 366.314843 110.38332 366.314843 109.535294 
C 366.314843 108.687268 366.138548 107.873861 365.824784 107.274216 
C 365.511021 106.674571 365.085407 106.337647 364.641679 106.337647 
C 364.197951 106.337647 363.772337 106.674571 363.458574 107.274216 
C 363.144811 107.873861 362.968516 108.687268 362.968516 109.535294 
C 362.968516 110.38332 363.144811 111.196727 363.458574 111.796372 
C 363.772337 112.396017 364.197951 112.732941 364.641679 112.732941 
z
" style="fill:#ffff00;stroke:#ffffff;stroke-linejoin:miter;stroke-width:0.5;"/>
   </g>
   <g id="728d6fd745d74724974bbcfccaaf36d2-6-node">
    <path clip-path="url(#p3ad08ef6b5)" d="M 385.556222 82.755 
C 385.99995 82.755 386.425564 82.418076 386.739327 81.818431 
C 387.05309 81.218786 387.229385 80.405379 387.229385 79.557353 
C 387.229385 78.709327 387.05309 77.89592 386.739327 77.296275 
C 386.425564 76.69663 385.99995 76.359706 385.556222 76.359706 
C 385.112494 76.359706 384.68688 76.69663 384.373117 77.296275 
C 384.059354 77.89592 383.883058 78.709327 383.883058 79.557353 
C 383.883058 80.405379 384.059354 81.218786 384.373117 81.818431 
C 384.68688 82.418076 385.112494 82.755 385.556222 82.755 
z
" style="fill:#00c832;stroke:#ffffff;stroke-linejoin:miter;stroke-width:0.5;"/>
   </g>
   <g id="728d6fd745d74724974bbcfccaaf36d2-10-node">
    <path clip-path="url(#p3ad08ef6b5)" d="M 376.772114 86.352353 
L 376.772114 92.747647 
L 373.425787 92.747647 
L 373.425787 86.352353 
L 376.772114 86.352353 
z
" style="fill:#0000ff;stroke:#ffffff;stroke-linejoin:miter;stroke-width:0.5;"/>
   </g>
   <g id="728d6fd745d74724974bbcfccaaf36d2-12-node">
    <path clip-path="url(#p3ad08ef6b5)" d="M 364.641679 92.747647 
C 365.085407 92.747647 365.511021 92.410723 365.824784 91.811078 
C 366.138548 91.211433 366.314843 90.398026 366.314843 89.55 
C 366.314843 88.701974 366.138548 87.888567 365.824784 87.288922 
C 365.511021 86.689277 365.085407 86.352353 364.641679 86.352353 
C 364.197951 86.352353 363.772337 86.689277 363.458574 87.288922 
C 363.144811 87.888567 362.968516 88.701974 362.968516 89.55 
C 362.968516 90.398026 363.144811 91.211433 363.458574 91.811078 
C 363.772337 92.410723 364.197951 92.747647 364.641679 92.747647 
z
" style="fill:#ffff00;stroke:#ffffff;stroke-linejoin:miter;stroke-width:0.5;"/>
   </g>
   <g id="728d6fd745d74724974bbcfccaaf36d2-13-node">
    <path clip-path="url(#p3ad08ef6b5)" d="M 355.857571 86.352353 
L 355.857571 92.747647 
L 352.511244 92.747647 
L 352.511244 86.352353 
L 355.857571 86.352353 
z
" style="fill:#0000ff;stroke:#ffffff;stroke-linejoin:miter;stroke-width:0.5;"/>
   </g>
   <g id="728d6fd745d74724974bbcfccaaf36d2-15-node">
    <path clip-path="url(#p3ad08ef6b5)" d="M 343.727136 92.747647 
C 344.170865 92.747647 344.596478 92.410723 344.910242 91.811078 
C 345.224005 91.211433 345.4003 90.398026 345.4003 89.55 
C 345.4003 88.701974 345.224005 87.888567 344.910242 87.288922 
C 344.596478 86.689277 344.170865 86.352353 343.727136 86.352353 
C 343.283408 86.352353 342.857794 86.689277 342.544031 87.288922 
C 342.230268 87.888567 342.053973 88.701974 342.053973 89.55 
C 342.053973 90.398026 342.230268 91.211433 342.544031 91.811078 
C 342.857794 92.410723 343.283408 92.747647 343.727136 92.747647 
z
" style="fill:#ffff00;stroke:#ffffff;stroke-linejoin:miter;stroke-width:0.5;"/>
   </g>
   <g id="728d6fd745d74724974bbcfccaaf36d2-7-node">
    <path clip-path="url(#p3ad08ef6b5)" d="M 376.772114 66.367059 
L 376.772114 72.762353 
L 373.425787 72.762353 
L 373.425787 66.367059 
L 376.772114 66.367059 
z
" style="fill:#0000ff;stroke:#ffffff;stroke-linejoin:miter;stroke-width:0.5;"/>
   </g>
   <g id="728d6fd745d74724974bbcfccaaf36d2-9-node">
    <path clip-path="url(#p3ad08ef6b5)" d="M 364.641679 72.762353 
C 365.085407 72.762353 365.511021 72.425429 365.824784 71.825784 
C 366.138548 71.226139 366.314843 70.412732 366.314843 69.564706 
C 366.314843 68.71668 366.138548 67.903273 365.824784 67.303628 
C 365.511021 66.703983 365.085407 66.367059 364.641679 66.367059 
C 364.197951 66.367059 363.772337 66.703983 363.458574 67.303628 
C 363.144811 67.903273 362.968516 68.71668 362.968516 69.564706 
C 362.968516 70.412732 363.144811 71.226139 363.458574 71.825784 
C 363.772337 72.425429 364.197951 72.762353 364.641679 72.762353 
z
" style="fill:#ffff00;stroke:#ffffff;stroke-linejoin:miter;stroke-width:0.5;"/>
   </g>
   <g id="patch_31">
    <path d="M 308.172414 157.5 
L 308.172414 21.6 
" style="fill:none;stroke:#ffffff;stroke-linecap:square;stroke-linejoin:miter;stroke-width:1.25;"/>
   </g>
   <g id="patch_32">
    <path d="M 452.482759 157.5 
L 452.482759 21.6 
" style="fill:none;stroke:#ffffff;stroke-linecap:square;stroke-linejoin:miter;stroke-width:1.25;"/>
   </g>
   <g id="patch_33">
    <path d="M 308.172414 157.5 
L 452.482759 157.5 
" style="fill:none;stroke:#ffffff;stroke-linecap:square;stroke-linejoin:miter;stroke-width:1.25;"/>
   </g>
   <g id="patch_34">
    <path d="M 308.172414 21.6 
L 452.482759 21.6 
" style="fill:none;stroke:#ffffff;stroke-linecap:square;stroke-linejoin:miter;stroke-width:1.25;"/>
   </g>
   <g id="text_2">
    <!-- 800:4.0 -->
    <defs>
     <path d="M 17.671875 38.8125 
Q 12.203125 40.828125 9.5625 44.53125 
Q 6.9375 48.25 6.9375 53.421875 
Q 6.9375 61.234375 12.546875 66.546875 
Q 18.171875 71.875 27.484375 71.875 
Q 36.859375 71.875 42.578125 66.421875 
Q 48.296875 60.984375 48.296875 53.171875 
Q 48.296875 48.1875 45.671875 44.5 
Q 43.0625 40.828125 37.75 38.8125 
Q 44.34375 36.671875 47.78125 31.875 
Q 51.21875 27.09375 51.21875 20.453125 
Q 51.21875 11.28125 44.71875 5.03125 
Q 38.234375 -1.21875 27.640625 -1.21875 
Q 17.046875 -1.21875 10.546875 5.046875 
Q 4.046875 11.328125 4.046875 20.703125 
Q 4.046875 27.6875 7.59375 32.390625 
Q 11.140625 37.109375 17.671875 38.8125 
z
M 15.921875 53.71875 
Q 15.921875 48.640625 19.1875 45.40625 
Q 22.46875 42.1875 27.6875 42.1875 
Q 32.765625 42.1875 36.015625 45.375 
Q 39.265625 48.578125 39.265625 53.21875 
Q 39.265625 58.0625 35.90625 61.359375 
Q 32.5625 64.65625 27.59375 64.65625 
Q 22.5625 64.65625 19.234375 61.421875 
Q 15.921875 58.203125 15.921875 53.71875 
z
M 13.09375 20.65625 
Q 13.09375 16.890625 14.875 13.375 
Q 16.65625 9.859375 20.171875 7.921875 
Q 23.6875 6 27.734375 6 
Q 34.03125 6 38.125 10.046875 
Q 42.234375 14.109375 42.234375 20.359375 
Q 42.234375 26.703125 38.015625 30.859375 
Q 33.796875 35.015625 27.4375 35.015625 
Q 21.234375 35.015625 17.15625 30.90625 
Q 13.09375 26.8125 13.09375 20.65625 
z
" id="ArialMT-56"/>
    </defs>
    <g style="fill:#262626;" transform="translate(360.311024 15.6)scale(0.12 -0.12)">
     <use xlink:href="#ArialMT-56"/>
     <use x="55.615234" xlink:href="#ArialMT-48"/>
     <use x="111.230469" xlink:href="#ArialMT-48"/>
     <use x="166.845703" xlink:href="#ArialMT-58"/>
     <use x="194.628906" xlink:href="#ArialMT-52"/>
     <use x="250.244141" xlink:href="#ArialMT-46"/>
     <use x="278.027344" xlink:href="#ArialMT-48"/>
    </g>
   </g>
  </g>
  <g id="axes_3">
   <g id="patch_35">
    <path d="M 481.344828 157.5 
L 625.655172 157.5 
L 625.655172 21.6 
L 481.344828 21.6 
z
" style="fill:#ffffff;"/>
   </g>
   <g id="patch_36">
    <path clip-path="url(#p6e0dca36da)" d="M 557.846697 109.535294 
L 549.153303 109.535294 
" style="stroke:#000000;stroke-linejoin:miter;stroke-width:0.5;"/>
   </g>
   <g id="patch_37">
    <path clip-path="url(#p6e0dca36da)" d="M 566.540091 109.535294 
L 557.846697 109.535294 
" style="stroke:#000000;stroke-linejoin:miter;stroke-width:0.5;"/>
   </g>
   <g id="patch_38">
    <path clip-path="url(#p6e0dca36da)" d="M 575.233486 94.546324 
L 566.540091 109.535294 
" style="stroke:#000000;stroke-linejoin:miter;stroke-width:0.5;"/>
   </g>
   <g id="patch_39">
    <path clip-path="url(#p6e0dca36da)" d="M 557.846697 89.55 
L 549.153303 89.55 
" style="stroke:#000000;stroke-linejoin:miter;stroke-width:0.5;"/>
   </g>
   <g id="patch_40">
    <path clip-path="url(#p6e0dca36da)" d="M 566.540091 79.557353 
L 557.846697 89.55 
" style="stroke:#000000;stroke-linejoin:miter;stroke-width:0.5;"/>
   </g>
   <g id="patch_41">
    <path clip-path="url(#p6e0dca36da)" d="M 523.07312 69.564706 
L 514.379726 69.564706 
" style="stroke:#000000;stroke-linejoin:miter;stroke-width:0.5;"/>
   </g>
   <g id="patch_42">
    <path clip-path="url(#p6e0dca36da)" d="M 531.766514 69.564706 
L 523.07312 69.564706 
" style="stroke:#000000;stroke-linejoin:miter;stroke-width:0.5;"/>
   </g>
   <g id="patch_43">
    <path clip-path="url(#p6e0dca36da)" d="M 540.459909 69.564706 
L 531.766514 69.564706 
" style="stroke:#000000;stroke-linejoin:miter;stroke-width:0.5;"/>
   </g>
   <g id="patch_44">
    <path clip-path="url(#p6e0dca36da)" d="M 549.153303 69.564706 
L 540.459909 69.564706 
" style="stroke:#000000;stroke-linejoin:miter;stroke-width:0.5;"/>
   </g>
   <g id="patch_45">
    <path clip-path="url(#p6e0dca36da)" d="M 557.846697 69.564706 
L 549.153303 69.564706 
" style="stroke:#000000;stroke-linejoin:miter;stroke-width:0.5;"/>
   </g>
   <g id="patch_46">
    <path clip-path="url(#p6e0dca36da)" d="M 566.540091 79.557353 
L 557.846697 69.564706 
" style="stroke:#000000;stroke-linejoin:miter;stroke-width:0.5;"/>
   </g>
   <g id="patch_47">
    <path clip-path="url(#p6e0dca36da)" d="M 575.233486 94.546324 
L 566.540091 79.557353 
" style="stroke:#000000;stroke-linejoin:miter;stroke-width:0.5;"/>
   </g>
   <g id="patch_48">
    <path clip-path="url(#p6e0dca36da)" d="M 583.92688 94.546324 
L 575.233486 94.546324 
" style="stroke:#000000;stroke-linejoin:miter;stroke-width:0.5;"/>
   </g>
   <g id="patch_49">
    <path clip-path="url(#p6e0dca36da)" d="M 592.620274 94.546324 
L 583.92688 94.546324 
" style="stroke:#000000;stroke-linejoin:miter;stroke-width:0.5;"/>
   </g>
   <g id="6fc062bed04a48baa2d71af1605ea231-1-node">
    <path clip-path="url(#p6e0dca36da)" d="M 594.011217 91.348676 
L 594.011217 97.743971 
L 591.229331 97.743971 
L 591.229331 91.348676 
L 594.011217 91.348676 
z
" style="fill:#0000ff;stroke:#ffffff;stroke-linejoin:miter;stroke-width:0.5;"/>
   </g>
   <g id="6fc062bed04a48baa2d71af1605ea231-3-node">
    <path clip-path="url(#p6e0dca36da)" d="M 585.317823 91.348676 
L 585.317823 97.743971 
L 582.535937 97.743971 
L 582.535937 91.348676 
L 585.317823 91.348676 
z
" style="fill:#0000ff;stroke:#ffffff;stroke-linejoin:miter;stroke-width:0.5;"/>
   </g>
   <g id="6fc062bed04a48baa2d71af1605ea231-5-node">
    <path clip-path="url(#p6e0dca36da)" d="M 575.233486 97.743971 
C 575.602368 97.743971 575.956192 97.407046 576.217031 96.807401 
C 576.47787 96.207757 576.624429 95.394349 576.624429 94.546324 
C 576.624429 93.698298 576.47787 92.88489 576.217031 92.285246 
C 575.956192 91.685601 575.602368 91.348676 575.233486 91.348676 
C 574.864603 91.348676 574.51078 91.685601 574.24994 92.285246 
C 573.989101 92.88489 573.842543 93.698298 573.842543 94.546324 
C 573.842543 95.394349 573.989101 96.207757 574.24994 96.807401 
C 574.51078 97.407046 574.864603 97.743971 575.233486 97.743971 
z
" style="fill:#00c832;stroke:#ffffff;stroke-linejoin:miter;stroke-width:0.5;"/>
   </g>
   <g id="6fc062bed04a48baa2d71af1605ea231-19-node">
    <path clip-path="url(#p6e0dca36da)" d="M 566.540091 112.732941 
C 566.908974 112.732941 567.262797 112.396017 567.523637 111.796372 
C 567.784476 111.196727 567.931034 110.38332 567.931034 109.535294 
C 567.931034 108.687268 567.784476 107.873861 567.523637 107.274216 
C 567.262797 106.674571 566.908974 106.337647 566.540091 106.337647 
C 566.171209 106.337647 565.817385 106.674571 565.556546 107.274216 
C 565.295707 107.873861 565.149148 108.687268 565.149148 109.535294 
C 565.149148 110.38332 565.295707 111.196727 565.556546 111.796372 
C 565.817385 112.396017 566.171209 112.732941 566.540091 112.732941 
z
" style="fill:#00c832;stroke:#ffffff;stroke-linejoin:miter;stroke-width:0.5;"/>
   </g>
   <g id="6fc062bed04a48baa2d71af1605ea231-20-node">
    <path clip-path="url(#p6e0dca36da)" d="M 559.23764 106.337647 
L 559.23764 112.732941 
L 556.455754 112.732941 
L 556.455754 106.337647 
L 559.23764 106.337647 
z
" style="fill:#0000ff;stroke:#ffffff;stroke-linejoin:miter;stroke-width:0.5;"/>
   </g>
   <g id="6fc062bed04a48baa2d71af1605ea231-22-node">
    <path clip-path="url(#p6e0dca36da)" d="M 549.153303 112.732941 
C 549.522185 112.732941 549.876009 112.396017 550.136848 111.796372 
C 550.397687 111.196727 550.544246 110.38332 550.544246 109.535294 
C 550.544246 108.687268 550.397687 107.873861 550.136848 107.274216 
C 549.876009 106.674571 549.522185 106.337647 549.153303 106.337647 
C 548.78442 106.337647 548.430597 106.674571 548.169758 107.274216 
C 547.908918 107.873861 547.76236 108.687268 547.76236 109.535294 
C 547.76236 110.38332 547.908918 111.196727 548.169758 111.796372 
C 548.430597 112.396017 548.78442 112.732941 549.153303 112.732941 
z
" style="fill:#ffff00;stroke:#ffffff;stroke-linejoin:miter;stroke-width:0.5;"/>
   </g>
   <g id="6fc062bed04a48baa2d71af1605ea231-6-node">
    <path clip-path="url(#p6e0dca36da)" d="M 566.540091 82.755 
C 566.908974 82.755 567.262797 82.418076 567.523637 81.818431 
C 567.784476 81.218786 567.931034 80.405379 567.931034 79.557353 
C 567.931034 78.709327 567.784476 77.89592 567.523637 77.296275 
C 567.262797 76.69663 566.908974 76.359706 566.540091 76.359706 
C 566.171209 76.359706 565.817385 76.69663 565.556546 77.296275 
C 565.295707 77.89592 565.149148 78.709327 565.149148 79.557353 
C 565.149148 80.405379 565.295707 81.218786 565.556546 81.818431 
C 565.817385 82.418076 566.171209 82.755 566.540091 82.755 
z
" style="fill:#00c832;stroke:#ffffff;stroke-linejoin:miter;stroke-width:0.5;"/>
   </g>
   <g id="6fc062bed04a48baa2d71af1605ea231-16-node">
    <path clip-path="url(#p6e0dca36da)" d="M 559.23764 86.352353 
L 559.23764 92.747647 
L 556.455754 92.747647 
L 556.455754 86.352353 
L 559.23764 86.352353 
z
" style="fill:#0000ff;stroke:#ffffff;stroke-linejoin:miter;stroke-width:0.5;"/>
   </g>
   <g id="6fc062bed04a48baa2d71af1605ea231-18-node">
    <path clip-path="url(#p6e0dca36da)" d="M 549.153303 92.747647 
C 549.522185 92.747647 549.876009 92.410723 550.136848 91.811078 
C 550.397687 91.211433 550.544246 90.398026 550.544246 89.55 
C 550.544246 88.701974 550.397687 87.888567 550.136848 87.288922 
C 549.876009 86.689277 549.522185 86.352353 549.153303 86.352353 
C 548.78442 86.352353 548.430597 86.689277 548.169758 87.288922 
C 547.908918 87.888567 547.76236 88.701974 547.76236 89.55 
C 547.76236 90.398026 547.908918 91.211433 548.169758 91.811078 
C 548.430597 92.410723 548.78442 92.747647 549.153303 92.747647 
z
" style="fill:#ffff00;stroke:#ffffff;stroke-linejoin:miter;stroke-width:0.5;"/>
   </g>
   <g id="6fc062bed04a48baa2d71af1605ea231-7-node">
    <path clip-path="url(#p6e0dca36da)" d="M 559.23764 66.367059 
L 559.23764 72.762353 
L 556.455754 72.762353 
L 556.455754 66.367059 
L 559.23764 66.367059 
z
" style="fill:#0000ff;stroke:#ffffff;stroke-linejoin:miter;stroke-width:0.5;"/>
   </g>
   <g id="6fc062bed04a48baa2d71af1605ea231-9-node">
    <path clip-path="url(#p6e0dca36da)" d="M 549.153303 72.762353 
C 549.522185 72.762353 549.876009 72.425429 550.136848 71.825784 
C 550.397687 71.226139 550.544246 70.412732 550.544246 69.564706 
C 550.544246 68.71668 550.397687 67.903273 550.136848 67.303628 
C 549.876009 66.703983 549.522185 66.367059 549.153303 66.367059 
C 548.78442 66.367059 548.430597 66.703983 548.169758 67.303628 
C 547.908918 67.903273 547.76236 68.71668 547.76236 69.564706 
C 547.76236 70.412732 547.908918 71.226139 548.169758 71.825784 
C 548.430597 72.425429 548.78442 72.762353 549.153303 72.762353 
z
" style="fill:#ffff00;stroke:#ffffff;stroke-linejoin:miter;stroke-width:0.5;"/>
   </g>
   <g id="6fc062bed04a48baa2d71af1605ea231-10-node">
    <path clip-path="url(#p6e0dca36da)" d="M 541.850852 66.367059 
L 541.850852 72.762353 
L 539.068966 72.762353 
L 539.068966 66.367059 
L 541.850852 66.367059 
z
" style="fill:#0000ff;stroke:#ffffff;stroke-linejoin:miter;stroke-width:0.5;"/>
   </g>
   <g id="6fc062bed04a48baa2d71af1605ea231-12-node">
    <path clip-path="url(#p6e0dca36da)" d="M 531.766514 72.762353 
C 532.135397 72.762353 532.48922 72.425429 532.75006 71.825784 
C 533.010899 71.226139 533.157457 70.412732 533.157457 69.564706 
C 533.157457 68.71668 533.010899 67.903273 532.75006 67.303628 
C 532.48922 66.703983 532.135397 66.367059 531.766514 66.367059 
C 531.397632 66.367059 531.043808 66.703983 530.782969 67.303628 
C 530.52213 67.903273 530.375571 68.71668 530.375571 69.564706 
C 530.375571 70.412732 530.52213 71.226139 530.782969 71.825784 
C 531.043808 72.425429 531.397632 72.762353 531.766514 72.762353 
z
" style="fill:#ffff00;stroke:#ffffff;stroke-linejoin:miter;stroke-width:0.5;"/>
   </g>
   <g id="6fc062bed04a48baa2d71af1605ea231-13-node">
    <path clip-path="url(#p6e0dca36da)" d="M 524.464063 66.367059 
L 524.464063 72.762353 
L 521.682177 72.762353 
L 521.682177 66.367059 
L 524.464063 66.367059 
z
" style="fill:#0000ff;stroke:#ffffff;stroke-linejoin:miter;stroke-width:0.5;"/>
   </g>
   <g id="6fc062bed04a48baa2d71af1605ea231-15-node">
    <path clip-path="url(#p6e0dca36da)" d="M 514.379726 72.762353 
C 514.748608 72.762353 515.102432 72.425429 515.363271 71.825784 
C 515.62411 71.226139 515.770669 70.412732 515.770669 69.564706 
C 515.770669 68.71668 515.62411 67.903273 515.363271 67.303628 
C 515.102432 66.703983 514.748608 66.367059 514.379726 66.367059 
C 514.010843 66.367059 513.65702 66.703983 513.396181 67.303628 
C 513.135341 67.903273 512.988783 68.71668 512.988783 69.564706 
C 512.988783 70.412732 513.135341 71.226139 513.396181 71.825784 
C 513.65702 72.425429 514.010843 72.762353 514.379726 72.762353 
z
" style="fill:#ffff00;stroke:#ffffff;stroke-linejoin:miter;stroke-width:0.5;"/>
   </g>
   <g id="patch_50">
    <path d="M 481.344828 157.5 
L 481.344828 21.6 
" style="fill:none;stroke:#ffffff;stroke-linecap:square;stroke-linejoin:miter;stroke-width:1.25;"/>
   </g>
   <g id="patch_51">
    <path d="M 625.655172 157.5 
L 625.655172 21.6 
" style="fill:none;stroke:#ffffff;stroke-linecap:square;stroke-linejoin:miter;stroke-width:1.25;"/>
   </g>
   <g id="patch_52">
    <path d="M 481.344828 157.5 
L 625.655172 157.5 
" style="fill:none;stroke:#ffffff;stroke-linecap:square;stroke-linejoin:miter;stroke-width:1.25;"/>
   </g>
   <g id="patch_53">
    <path d="M 481.344828 21.6 
L 625.655172 21.6 
" style="fill:none;stroke:#ffffff;stroke-linecap:square;stroke-linejoin:miter;stroke-width:1.25;"/>
   </g>
   <g id="text_3">
    <!-- 1251:12.0 -->
    <defs>
     <path d="M 37.25 0 
L 28.46875 0 
L 28.46875 56 
Q 25.296875 52.984375 20.140625 49.953125 
Q 14.984375 46.921875 10.890625 45.40625 
L 10.890625 53.90625 
Q 18.265625 57.375 23.78125 62.296875 
Q 29.296875 67.234375 31.59375 71.875 
L 37.25 71.875 
z
" id="ArialMT-49"/>
     <path d="M 50.34375 8.453125 
L 50.34375 0 
L 3.03125 0 
Q 2.9375 3.171875 4.046875 6.109375 
Q 5.859375 10.9375 9.828125 15.625 
Q 13.8125 20.3125 21.34375 26.46875 
Q 33.015625 36.03125 37.109375 41.625 
Q 41.21875 47.21875 41.21875 52.203125 
Q 41.21875 57.421875 37.46875 61 
Q 33.734375 64.59375 27.734375 64.59375 
Q 21.390625 64.59375 17.578125 60.78125 
Q 13.765625 56.984375 13.71875 50.25 
L 4.6875 51.171875 
Q 5.609375 61.28125 11.65625 66.578125 
Q 17.71875 71.875 27.9375 71.875 
Q 38.234375 71.875 44.234375 66.15625 
Q 50.25 60.453125 50.25 52 
Q 50.25 47.703125 48.484375 43.546875 
Q 46.734375 39.40625 42.65625 34.8125 
Q 38.578125 30.21875 29.109375 22.21875 
Q 21.1875 15.578125 18.9375 13.203125 
Q 16.703125 10.84375 15.234375 8.453125 
z
" id="ArialMT-50"/>
    </defs>
    <g style="fill:#262626;" transform="translate(526.810313 15.6)scale(0.12 -0.12)">
     <use xlink:href="#ArialMT-49"/>
     <use x="55.615234" xlink:href="#ArialMT-50"/>
     <use x="111.230469" xlink:href="#ArialMT-53"/>
     <use x="166.845703" xlink:href="#ArialMT-49"/>
     <use x="222.460938" xlink:href="#ArialMT-58"/>
     <use x="250.244141" xlink:href="#ArialMT-49"/>
     <use x="305.859375" xlink:href="#ArialMT-50"/>
     <use x="361.474609" xlink:href="#ArialMT-46"/>
     <use x="389.257812" xlink:href="#ArialMT-48"/>
    </g>
   </g>
  </g>
  <g id="axes_4">
   <g id="patch_54">
    <path d="M 654.517241 157.5 
L 798.827586 157.5 
L 798.827586 21.6 
L 654.517241 21.6 
z
" style="fill:#eaeaf2;"/>
   </g>
   <g id="matplotlib.axis_1">
    <g id="xtick_1">
     <g id="line2d_1">
      <path clip-path="url(#p1afabdc1f0)" d="M 654.517241 157.5 
L 654.517241 21.6 
" style="fill:none;stroke:#ffffff;stroke-linecap:round;"/>
     </g>
     <g id="text_4">
      <!-- 0.00 -->
      <g style="fill:#262626;" transform="translate(643.813726 174.873594)scale(0.11 -0.11)">
       <use xlink:href="#ArialMT-48"/>
       <use x="55.615234" xlink:href="#ArialMT-46"/>
       <use x="83.398438" xlink:href="#ArialMT-48"/>
       <use x="139.013672" xlink:href="#ArialMT-48"/>
      </g>
     </g>
    </g>
    <g id="xtick_2">
     <g id="line2d_2">
      <path clip-path="url(#p1afabdc1f0)" d="M 690.594828 157.5 
L 690.594828 21.6 
" style="fill:none;stroke:#ffffff;stroke-linecap:round;"/>
     </g>
     <g id="text_5">
      <!-- 0.25 -->
      <g style="fill:#262626;" transform="translate(679.891312 174.873594)scale(0.11 -0.11)">
       <use xlink:href="#ArialMT-48"/>
       <use x="55.615234" xlink:href="#ArialMT-46"/>
       <use x="83.398438" xlink:href="#ArialMT-50"/>
       <use x="139.013672" xlink:href="#ArialMT-53"/>
      </g>
     </g>
    </g>
    <g id="xtick_3">
     <g id="line2d_3">
      <path clip-path="url(#p1afabdc1f0)" d="M 726.672414 157.5 
L 726.672414 21.6 
" style="fill:none;stroke:#ffffff;stroke-linecap:round;"/>
     </g>
     <g id="text_6">
      <!-- 0.50 -->
      <g style="fill:#262626;" transform="translate(715.968898 174.873594)scale(0.11 -0.11)">
       <use xlink:href="#ArialMT-48"/>
       <use x="55.615234" xlink:href="#ArialMT-46"/>
       <use x="83.398438" xlink:href="#ArialMT-53"/>
       <use x="139.013672" xlink:href="#ArialMT-48"/>
      </g>
     </g>
    </g>
    <g id="xtick_4">
     <g id="line2d_4">
      <path clip-path="url(#p1afabdc1f0)" d="M 762.75 157.5 
L 762.75 21.6 
" style="fill:none;stroke:#ffffff;stroke-linecap:round;"/>
     </g>
     <g id="text_7">
      <!-- 0.75 -->
      <g style="fill:#262626;" transform="translate(752.046484 174.873594)scale(0.11 -0.11)">
       <use xlink:href="#ArialMT-48"/>
       <use x="55.615234" xlink:href="#ArialMT-46"/>
       <use x="83.398438" xlink:href="#ArialMT-55"/>
       <use x="139.013672" xlink:href="#ArialMT-53"/>
      </g>
     </g>
    </g>
    <g id="xtick_5">
     <g id="line2d_5">
      <path clip-path="url(#p1afabdc1f0)" d="M 798.827586 157.5 
L 798.827586 21.6 
" style="fill:none;stroke:#ffffff;stroke-linecap:round;"/>
     </g>
     <g id="text_8">
      <!-- 1.00 -->
      <g style="fill:#262626;" transform="translate(788.124071 174.873594)scale(0.11 -0.11)">
       <use xlink:href="#ArialMT-49"/>
       <use x="55.615234" xlink:href="#ArialMT-46"/>
       <use x="83.398438" xlink:href="#ArialMT-48"/>
       <use x="139.013672" xlink:href="#ArialMT-48"/>
      </g>
     </g>
    </g>
   </g>
   <g id="matplotlib.axis_2">
    <g id="ytick_1">
     <g id="line2d_6">
      <path clip-path="url(#p1afabdc1f0)" d="M 654.517241 157.5 
L 798.827586 157.5 
" style="fill:none;stroke:#ffffff;stroke-linecap:round;"/>
     </g>
     <g id="text_9">
      <!-- 0.0 -->
      <g style="fill:#262626;" transform="translate(629.727241 161.436797)scale(0.11 -0.11)">
       <use xlink:href="#ArialMT-48"/>
       <use x="55.615234" xlink:href="#ArialMT-46"/>
       <use x="83.398438" xlink:href="#ArialMT-48"/>
      </g>
     </g>
    </g>
    <g id="ytick_2">
     <g id="line2d_7">
      <path clip-path="url(#p1afabdc1f0)" d="M 654.517241 130.32 
L 798.827586 130.32 
" style="fill:none;stroke:#ffffff;stroke-linecap:round;"/>
     </g>
     <g id="text_10">
      <!-- 0.2 -->
      <g style="fill:#262626;" transform="translate(629.727241 134.256797)scale(0.11 -0.11)">
       <use xlink:href="#ArialMT-48"/>
       <use x="55.615234" xlink:href="#ArialMT-46"/>
       <use x="83.398438" xlink:href="#ArialMT-50"/>
      </g>
     </g>
    </g>
    <g id="ytick_3">
     <g id="line2d_8">
      <path clip-path="url(#p1afabdc1f0)" d="M 654.517241 103.14 
L 798.827586 103.14 
" style="fill:none;stroke:#ffffff;stroke-linecap:round;"/>
     </g>
     <g id="text_11">
      <!-- 0.4 -->
      <g style="fill:#262626;" transform="translate(629.727241 107.076797)scale(0.11 -0.11)">
       <use xlink:href="#ArialMT-48"/>
       <use x="55.615234" xlink:href="#ArialMT-46"/>
       <use x="83.398438" xlink:href="#ArialMT-52"/>
      </g>
     </g>
    </g>
    <g id="ytick_4">
     <g id="line2d_9">
      <path clip-path="url(#p1afabdc1f0)" d="M 654.517241 75.96 
L 798.827586 75.96 
" style="fill:none;stroke:#ffffff;stroke-linecap:round;"/>
     </g>
     <g id="text_12">
      <!-- 0.6 -->
      <defs>
       <path d="M 49.75 54.046875 
L 41.015625 53.375 
Q 39.84375 58.546875 37.703125 60.890625 
Q 34.125 64.65625 28.90625 64.65625 
Q 24.703125 64.65625 21.53125 62.3125 
Q 17.390625 59.28125 14.984375 53.46875 
Q 12.59375 47.65625 12.5 36.921875 
Q 15.671875 41.75 20.265625 44.09375 
Q 24.859375 46.4375 29.890625 46.4375 
Q 38.671875 46.4375 44.84375 39.96875 
Q 51.03125 33.5 51.03125 23.25 
Q 51.03125 16.5 48.125 10.71875 
Q 45.21875 4.9375 40.140625 1.859375 
Q 35.0625 -1.21875 28.609375 -1.21875 
Q 17.625 -1.21875 10.6875 6.859375 
Q 3.765625 14.9375 3.765625 33.5 
Q 3.765625 54.25 11.421875 63.671875 
Q 18.109375 71.875 29.4375 71.875 
Q 37.890625 71.875 43.28125 67.140625 
Q 48.6875 62.40625 49.75 54.046875 
z
M 13.875 23.1875 
Q 13.875 18.65625 15.796875 14.5 
Q 17.71875 10.359375 21.1875 8.171875 
Q 24.65625 6 28.46875 6 
Q 34.03125 6 38.03125 10.484375 
Q 42.046875 14.984375 42.046875 22.703125 
Q 42.046875 30.125 38.078125 34.390625 
Q 34.125 38.671875 28.125 38.671875 
Q 22.171875 38.671875 18.015625 34.390625 
Q 13.875 30.125 13.875 23.1875 
z
" id="ArialMT-54"/>
      </defs>
      <g style="fill:#262626;" transform="translate(629.727241 79.896797)scale(0.11 -0.11)">
       <use xlink:href="#ArialMT-48"/>
       <use x="55.615234" xlink:href="#ArialMT-46"/>
       <use x="83.398438" xlink:href="#ArialMT-54"/>
      </g>
     </g>
    </g>
    <g id="ytick_5">
     <g id="line2d_10">
      <path clip-path="url(#p1afabdc1f0)" d="M 654.517241 48.78 
L 798.827586 48.78 
" style="fill:none;stroke:#ffffff;stroke-linecap:round;"/>
     </g>
     <g id="text_13">
      <!-- 0.8 -->
      <g style="fill:#262626;" transform="translate(629.727241 52.716797)scale(0.11 -0.11)">
       <use xlink:href="#ArialMT-48"/>
       <use x="55.615234" xlink:href="#ArialMT-46"/>
       <use x="83.398438" xlink:href="#ArialMT-56"/>
      </g>
     </g>
    </g>
    <g id="ytick_6">
     <g id="line2d_11">
      <path clip-path="url(#p1afabdc1f0)" d="M 654.517241 21.6 
L 798.827586 21.6 
" style="fill:none;stroke:#ffffff;stroke-linecap:round;"/>
     </g>
     <g id="text_14">
      <!-- 1.0 -->
      <g style="fill:#262626;" transform="translate(629.727241 25.536797)scale(0.11 -0.11)">
       <use xlink:href="#ArialMT-49"/>
       <use x="55.615234" xlink:href="#ArialMT-46"/>
       <use x="83.398438" xlink:href="#ArialMT-48"/>
      </g>
     </g>
    </g>
   </g>
   <g id="patch_55">
    <path d="M 654.517241 157.5 
L 654.517241 21.6 
" style="fill:none;stroke:#ffffff;stroke-linecap:square;stroke-linejoin:miter;stroke-width:1.25;"/>
   </g>
   <g id="patch_56">
    <path d="M 798.827586 157.5 
L 798.827586 21.6 
" style="fill:none;stroke:#ffffff;stroke-linecap:square;stroke-linejoin:miter;stroke-width:1.25;"/>
   </g>
   <g id="patch_57">
    <path d="M 654.517241 157.5 
L 798.827586 157.5 
" style="fill:none;stroke:#ffffff;stroke-linecap:square;stroke-linejoin:miter;stroke-width:1.25;"/>
   </g>
   <g id="patch_58">
    <path d="M 654.517241 21.6 
L 798.827586 21.6 
" style="fill:none;stroke:#ffffff;stroke-linecap:square;stroke-linejoin:miter;stroke-width:1.25;"/>
   </g>
  </g>
  <g id="axes_5">
   <g id="patch_59">
    <path d="M 827.689655 157.5 
L 972 157.5 
L 972 21.6 
L 827.689655 21.6 
z
" style="fill:#eaeaf2;"/>
   </g>
   <g id="matplotlib.axis_3">
    <g id="xtick_6">
     <g id="line2d_12">
      <path clip-path="url(#p8286f8a6c6)" d="M 827.689655 157.5 
L 827.689655 21.6 
" style="fill:none;stroke:#ffffff;stroke-linecap:round;"/>
     </g>
     <g id="text_15">
      <!-- 0.00 -->
      <g style="fill:#262626;" transform="translate(816.98614 174.873594)scale(0.11 -0.11)">
       <use xlink:href="#ArialMT-48"/>
       <use x="55.615234" xlink:href="#ArialMT-46"/>
       <use x="83.398438" xlink:href="#ArialMT-48"/>
       <use x="139.013672" xlink:href="#ArialMT-48"/>
      </g>
     </g>
    </g>
    <g id="xtick_7">
     <g id="line2d_13">
      <path clip-path="url(#p8286f8a6c6)" d="M 863.767241 157.5 
L 863.767241 21.6 
" style="fill:none;stroke:#ffffff;stroke-linecap:round;"/>
     </g>
     <g id="text_16">
      <!-- 0.25 -->
      <g style="fill:#262626;" transform="translate(853.063726 174.873594)scale(0.11 -0.11)">
       <use xlink:href="#ArialMT-48"/>
       <use x="55.615234" xlink:href="#ArialMT-46"/>
       <use x="83.398438" xlink:href="#ArialMT-50"/>
       <use x="139.013672" xlink:href="#ArialMT-53"/>
      </g>
     </g>
    </g>
    <g id="xtick_8">
     <g id="line2d_14">
      <path clip-path="url(#p8286f8a6c6)" d="M 899.844828 157.5 
L 899.844828 21.6 
" style="fill:none;stroke:#ffffff;stroke-linecap:round;"/>
     </g>
     <g id="text_17">
      <!-- 0.50 -->
      <g style="fill:#262626;" transform="translate(889.141312 174.873594)scale(0.11 -0.11)">
       <use xlink:href="#ArialMT-48"/>
       <use x="55.615234" xlink:href="#ArialMT-46"/>
       <use x="83.398438" xlink:href="#ArialMT-53"/>
       <use x="139.013672" xlink:href="#ArialMT-48"/>
      </g>
     </g>
    </g>
    <g id="xtick_9">
     <g id="line2d_15">
      <path clip-path="url(#p8286f8a6c6)" d="M 935.922414 157.5 
L 935.922414 21.6 
" style="fill:none;stroke:#ffffff;stroke-linecap:round;"/>
     </g>
     <g id="text_18">
      <!-- 0.75 -->
      <g style="fill:#262626;" transform="translate(925.218898 174.873594)scale(0.11 -0.11)">
       <use xlink:href="#ArialMT-48"/>
       <use x="55.615234" xlink:href="#ArialMT-46"/>
       <use x="83.398438" xlink:href="#ArialMT-55"/>
       <use x="139.013672" xlink:href="#ArialMT-53"/>
      </g>
     </g>
    </g>
    <g id="xtick_10">
     <g id="line2d_16">
      <path clip-path="url(#p8286f8a6c6)" d="M 972 157.5 
L 972 21.6 
" style="fill:none;stroke:#ffffff;stroke-linecap:round;"/>
     </g>
     <g id="text_19">
      <!-- 1.00 -->
      <g style="fill:#262626;" transform="translate(961.296484 174.873594)scale(0.11 -0.11)">
       <use xlink:href="#ArialMT-49"/>
       <use x="55.615234" xlink:href="#ArialMT-46"/>
       <use x="83.398438" xlink:href="#ArialMT-48"/>
       <use x="139.013672" xlink:href="#ArialMT-48"/>
      </g>
     </g>
    </g>
   </g>
   <g id="matplotlib.axis_4">
    <g id="ytick_7">
     <g id="line2d_17">
      <path clip-path="url(#p8286f8a6c6)" d="M 827.689655 157.5 
L 972 157.5 
" style="fill:none;stroke:#ffffff;stroke-linecap:round;"/>
     </g>
     <g id="text_20">
      <!-- 0.0 -->
      <g style="fill:#262626;" transform="translate(802.899655 161.436797)scale(0.11 -0.11)">
       <use xlink:href="#ArialMT-48"/>
       <use x="55.615234" xlink:href="#ArialMT-46"/>
       <use x="83.398438" xlink:href="#ArialMT-48"/>
      </g>
     </g>
    </g>
    <g id="ytick_8">
     <g id="line2d_18">
      <path clip-path="url(#p8286f8a6c6)" d="M 827.689655 130.32 
L 972 130.32 
" style="fill:none;stroke:#ffffff;stroke-linecap:round;"/>
     </g>
     <g id="text_21">
      <!-- 0.2 -->
      <g style="fill:#262626;" transform="translate(802.899655 134.256797)scale(0.11 -0.11)">
       <use xlink:href="#ArialMT-48"/>
       <use x="55.615234" xlink:href="#ArialMT-46"/>
       <use x="83.398438" xlink:href="#ArialMT-50"/>
      </g>
     </g>
    </g>
    <g id="ytick_9">
     <g id="line2d_19">
      <path clip-path="url(#p8286f8a6c6)" d="M 827.689655 103.14 
L 972 103.14 
" style="fill:none;stroke:#ffffff;stroke-linecap:round;"/>
     </g>
     <g id="text_22">
      <!-- 0.4 -->
      <g style="fill:#262626;" transform="translate(802.899655 107.076797)scale(0.11 -0.11)">
       <use xlink:href="#ArialMT-48"/>
       <use x="55.615234" xlink:href="#ArialMT-46"/>
       <use x="83.398438" xlink:href="#ArialMT-52"/>
      </g>
     </g>
    </g>
    <g id="ytick_10">
     <g id="line2d_20">
      <path clip-path="url(#p8286f8a6c6)" d="M 827.689655 75.96 
L 972 75.96 
" style="fill:none;stroke:#ffffff;stroke-linecap:round;"/>
     </g>
     <g id="text_23">
      <!-- 0.6 -->
      <g style="fill:#262626;" transform="translate(802.899655 79.896797)scale(0.11 -0.11)">
       <use xlink:href="#ArialMT-48"/>
       <use x="55.615234" xlink:href="#ArialMT-46"/>
       <use x="83.398438" xlink:href="#ArialMT-54"/>
      </g>
     </g>
    </g>
    <g id="ytick_11">
     <g id="line2d_21">
      <path clip-path="url(#p8286f8a6c6)" d="M 827.689655 48.78 
L 972 48.78 
" style="fill:none;stroke:#ffffff;stroke-linecap:round;"/>
     </g>
     <g id="text_24">
      <!-- 0.8 -->
      <g style="fill:#262626;" transform="translate(802.899655 52.716797)scale(0.11 -0.11)">
       <use xlink:href="#ArialMT-48"/>
       <use x="55.615234" xlink:href="#ArialMT-46"/>
       <use x="83.398438" xlink:href="#ArialMT-56"/>
      </g>
     </g>
    </g>
    <g id="ytick_12">
     <g id="line2d_22">
      <path clip-path="url(#p8286f8a6c6)" d="M 827.689655 21.6 
L 972 21.6 
" style="fill:none;stroke:#ffffff;stroke-linecap:round;"/>
     </g>
     <g id="text_25">
      <!-- 1.0 -->
      <g style="fill:#262626;" transform="translate(802.899655 25.536797)scale(0.11 -0.11)">
       <use xlink:href="#ArialMT-49"/>
       <use x="55.615234" xlink:href="#ArialMT-46"/>
       <use x="83.398438" xlink:href="#ArialMT-48"/>
      </g>
     </g>
    </g>
   </g>
   <g id="patch_60">
    <path d="M 827.689655 157.5 
L 827.689655 21.6 
" style="fill:none;stroke:#ffffff;stroke-linecap:square;stroke-linejoin:miter;stroke-width:1.25;"/>
   </g>
   <g id="patch_61">
    <path d="M 972 157.5 
L 972 21.6 
" style="fill:none;stroke:#ffffff;stroke-linecap:square;stroke-linejoin:miter;stroke-width:1.25;"/>
   </g>
   <g id="patch_62">
    <path d="M 827.689655 157.5 
L 972 157.5 
" style="fill:none;stroke:#ffffff;stroke-linecap:square;stroke-linejoin:miter;stroke-width:1.25;"/>
   </g>
   <g id="patch_63">
    <path d="M 827.689655 21.6 
L 972 21.6 
" style="fill:none;stroke:#ffffff;stroke-linecap:square;stroke-linejoin:miter;stroke-width:1.25;"/>
   </g>
   <g id="text_26">
    <!-- 24 -->
    <g style="fill:#262626;" transform="translate(893.171703 15.6)scale(0.12 -0.12)">
     <use xlink:href="#ArialMT-50"/>
     <use x="55.615234" xlink:href="#ArialMT-52"/>
    </g>
   </g>
  </g>
 </g>
 <defs>
  <clipPath id="pd86d5293da">
   <rect height="135.9" width="144.310345" x="135" y="21.6"/>
  </clipPath>
  <clipPath id="p3ad08ef6b5">
   <rect height="135.9" width="144.310345" x="308.172414" y="21.6"/>
  </clipPath>
  <clipPath id="p6e0dca36da">
   <rect height="135.9" width="144.310345" x="481.344828" y="21.6"/>
  </clipPath>
  <clipPath id="p1afabdc1f0">
   <rect height="135.9" width="144.310345" x="654.517241" y="21.6"/>
  </clipPath>
  <clipPath id="p8286f8a6c6">
   <rect height="135.9" width="144.310345" x="827.689655" y="21.6"/>
  </clipPath>
 </defs>
</svg>
