<?xml version="1.0" encoding="utf-8" standalone="no"?>
<!DOCTYPE svg PUBLIC "-//W3C//DTD SVG 1.1//EN"
  "http://www.w3.org/Graphics/SVG/1.1/DTD/svg11.dtd">
<!-- Created with matplotlib (https://matplotlib.org/) -->
<svg height="360pt" version="1.1" viewBox="0 0 1080 360" width="1080pt" xmlns="http://www.w3.org/2000/svg" xmlns:xlink="http://www.w3.org/1999/xlink">
 <defs>
  <style type="text/css">
*{stroke-linecap:butt;stroke-linejoin:round;}
  </style>
 </defs>
 <g id="figure_1">
  <g id="patch_1">
   <path d="M 0 360 
L 1080 360 
L 1080 0 
L 0 0 
z
" style="fill:#ffffff;"/>
  </g>
  <g id="axes_1">
   <g id="patch_2">
    <path d="M 135 166.745455 
L 279.310345 166.745455 
L 279.310345 43.2 
L 135 43.2 
z
" style="fill:#ffffff;"/>
   </g>
   <g id="patch_3">
    <path clip-path="url(#pf399444807)" d="M 193.41133 124.435367 
L 176.231527 132.897385 
" style="stroke:#000000;stroke-linejoin:miter;stroke-width:0.5;"/>
   </g>
   <g id="patch_4">
    <path clip-path="url(#pf399444807)" d="M 193.41133 124.435367 
L 176.231527 115.97335 
" style="stroke:#000000;stroke-linejoin:miter;stroke-width:0.5;"/>
   </g>
   <g id="patch_5">
    <path clip-path="url(#pf399444807)" d="M 210.591133 107.511333 
L 193.41133 124.435367 
" style="stroke:#000000;stroke-linejoin:miter;stroke-width:0.5;"/>
   </g>
   <g id="patch_6">
    <path clip-path="url(#pf399444807)" d="M 193.41133 90.587298 
L 176.231527 99.049315 
" style="stroke:#000000;stroke-linejoin:miter;stroke-width:0.5;"/>
   </g>
   <g id="patch_7">
    <path clip-path="url(#pf399444807)" d="M 193.41133 90.587298 
L 176.231527 82.12528 
" style="stroke:#000000;stroke-linejoin:miter;stroke-width:0.5;"/>
   </g>
   <g id="patch_8">
    <path clip-path="url(#pf399444807)" d="M 210.591133 107.511333 
L 193.41133 90.587298 
" style="stroke:#000000;stroke-linejoin:miter;stroke-width:0.5;"/>
   </g>
   <g id="patch_9">
    <path clip-path="url(#pf399444807)" d="M 227.770936 107.511333 
L 210.591133 107.511333 
" style="stroke:#000000;stroke-linejoin:miter;stroke-width:0.5;"/>
   </g>
   <g id="patch_10">
    <path clip-path="url(#pf399444807)" d="M 244.950739 107.511333 
L 227.770936 107.511333 
" style="stroke:#000000;stroke-linejoin:miter;stroke-width:0.5;"/>
   </g>
   <g id="311f8f3a61c245458d9bbd269e0d494f-1-node">
    <path clip-path="url(#pf399444807)" d="M 247.871305 104.634247 
L 247.871305 110.388418 
L 242.030172 110.388418 
L 242.030172 104.634247 
L 247.871305 104.634247 
z
" style="fill:#0000ff;stroke:#ffffff;stroke-linejoin:miter;stroke-width:0.5;"/>
   </g>
   <g id="311f8f3a61c245458d9bbd269e0d494f-3-node">
    <path clip-path="url(#pf399444807)" d="M 230.691502 104.634247 
L 230.691502 110.388418 
L 224.850369 110.388418 
L 224.850369 104.634247 
L 230.691502 104.634247 
z
" style="fill:#0000ff;stroke:#ffffff;stroke-linejoin:miter;stroke-width:0.5;"/>
   </g>
   <g id="311f8f3a61c245458d9bbd269e0d494f-5-node">
    <path clip-path="url(#pf399444807)" d="M 210.591133 110.388418 
C 211.365676 110.388418 212.108601 110.085271 212.656285 109.545739 
C 213.20397 109.006208 213.5117 108.274345 213.5117 107.511333 
C 213.5117 106.74832 213.20397 106.016457 212.656285 105.476926 
C 212.108601 104.937394 211.365676 104.634247 210.591133 104.634247 
C 209.81659 104.634247 209.073665 104.937394 208.525981 105.476926 
C 207.978296 106.016457 207.670567 106.74832 207.670567 107.511333 
C 207.670567 108.274345 207.978296 109.006208 208.525981 109.545739 
C 209.073665 110.085271 209.81659 110.388418 210.591133 110.388418 
z
" style="fill:#00c832;stroke:#ffffff;stroke-linejoin:miter;stroke-width:0.5;"/>
   </g>
   <g id="311f8f3a61c245458d9bbd269e0d494f-11-node">
    <path clip-path="url(#pf399444807)" d="M 193.41133 127.312453 
C 194.185873 127.312453 194.928798 127.009305 195.476482 126.469774 
C 196.024167 125.930243 196.331897 125.198379 196.331897 124.435367 
C 196.331897 123.672355 196.024167 122.940491 195.476482 122.40096 
C 194.928798 121.861429 194.185873 121.558281 193.41133 121.558281 
C 192.636787 121.558281 191.893862 121.861429 191.346178 122.40096 
C 190.798493 122.940491 190.490764 123.672355 190.490764 124.435367 
C 190.490764 125.198379 190.798493 125.930243 191.346178 126.469774 
C 191.893862 127.009305 192.636787 127.312453 193.41133 127.312453 
z
" style="fill:#00c832;stroke:#ffffff;stroke-linejoin:miter;stroke-width:0.5;"/>
   </g>
   <g id="311f8f3a61c245458d9bbd269e0d494f-14-node">
    <path clip-path="url(#pf399444807)" d="M 179.152094 130.020299 
L 179.152094 135.774471 
L 173.310961 135.774471 
L 173.310961 130.020299 
L 179.152094 130.020299 
z
" style="fill:#0000ff;stroke:#ffffff;stroke-linejoin:miter;stroke-width:0.5;"/>
   </g>
   <g id="311f8f3a61c245458d9bbd269e0d494f-12-node">
    <path clip-path="url(#pf399444807)" d="M 179.152094 113.096264 
L 179.152094 118.850436 
L 173.310961 118.850436 
L 173.310961 113.096264 
L 179.152094 113.096264 
z
" style="fill:#0000ff;stroke:#ffffff;stroke-linejoin:miter;stroke-width:0.5;"/>
   </g>
   <g id="311f8f3a61c245458d9bbd269e0d494f-6-node">
    <path clip-path="url(#pf399444807)" d="M 193.41133 93.464384 
C 194.185873 93.464384 194.928798 93.161236 195.476482 92.621705 
C 196.024167 92.082174 196.331897 91.35031 196.331897 90.587298 
C 196.331897 89.824286 196.024167 89.092422 195.476482 88.552891 
C 194.928798 88.01336 194.185873 87.710212 193.41133 87.710212 
C 192.636787 87.710212 191.893862 88.01336 191.346178 88.552891 
C 190.798493 89.092422 190.490764 89.824286 190.490764 90.587298 
C 190.490764 91.35031 190.798493 92.082174 191.346178 92.621705 
C 191.893862 93.161236 192.636787 93.464384 193.41133 93.464384 
z
" style="fill:#00c832;stroke:#ffffff;stroke-linejoin:miter;stroke-width:0.5;"/>
   </g>
   <g id="311f8f3a61c245458d9bbd269e0d494f-9-node">
    <path clip-path="url(#pf399444807)" d="M 179.152094 96.172229 
L 179.152094 101.926401 
L 173.310961 101.926401 
L 173.310961 96.172229 
L 179.152094 96.172229 
z
" style="fill:#0000ff;stroke:#ffffff;stroke-linejoin:miter;stroke-width:0.5;"/>
   </g>
   <g id="311f8f3a61c245458d9bbd269e0d494f-7-node">
    <path clip-path="url(#pf399444807)" d="M 179.152094 79.248194 
L 179.152094 85.002366 
L 173.310961 85.002366 
L 173.310961 79.248194 
L 179.152094 79.248194 
z
" style="fill:#0000ff;stroke:#ffffff;stroke-linejoin:miter;stroke-width:0.5;"/>
   </g>
   <g id="patch_11">
    <path d="M 135 166.745455 
L 135 43.2 
" style="fill:none;stroke:#ffffff;stroke-linecap:square;stroke-linejoin:miter;stroke-width:1.25;"/>
   </g>
   <g id="patch_12">
    <path d="M 279.310345 166.745455 
L 279.310345 43.2 
" style="fill:none;stroke:#ffffff;stroke-linecap:square;stroke-linejoin:miter;stroke-width:1.25;"/>
   </g>
   <g id="patch_13">
    <path d="M 135 166.745455 
L 279.310345 166.745455 
" style="fill:none;stroke:#ffffff;stroke-linecap:square;stroke-linejoin:miter;stroke-width:1.25;"/>
   </g>
   <g id="patch_14">
    <path d="M 135 43.2 
L 279.310345 43.2 
" style="fill:none;stroke:#ffffff;stroke-linecap:square;stroke-linejoin:miter;stroke-width:1.25;"/>
   </g>
   <g id="text_1">
    <!-- 227:1.3333 -->
    <defs>
     <path d="M 50.34375 8.453125 
L 50.34375 0 
L 3.03125 0 
Q 2.9375 3.171875 4.046875 6.109375 
Q 5.859375 10.9375 9.828125 15.625 
Q 13.8125 20.3125 21.34375 26.46875 
Q 33.015625 36.03125 37.109375 41.625 
Q 41.21875 47.21875 41.21875 52.203125 
Q 41.21875 57.421875 37.46875 61 
Q 33.734375 64.59375 27.734375 64.59375 
Q 21.390625 64.59375 17.578125 60.78125 
Q 13.765625 56.984375 13.71875 50.25 
L 4.6875 51.171875 
Q 5.609375 61.28125 11.65625 66.578125 
Q 17.71875 71.875 27.9375 71.875 
Q 38.234375 71.875 44.234375 66.15625 
Q 50.25 60.453125 50.25 52 
Q 50.25 47.703125 48.484375 43.546875 
Q 46.734375 39.40625 42.65625 34.8125 
Q 38.578125 30.21875 29.109375 22.21875 
Q 21.1875 15.578125 18.9375 13.203125 
Q 16.703125 10.84375 15.234375 8.453125 
z
" id="ArialMT-50"/>
     <path d="M 4.734375 62.203125 
L 4.734375 70.65625 
L 51.078125 70.65625 
L 51.078125 63.8125 
Q 44.234375 56.546875 37.515625 44.484375 
Q 30.8125 32.421875 27.15625 19.671875 
Q 24.515625 10.6875 23.78125 0 
L 14.75 0 
Q 14.890625 8.453125 18.0625 20.40625 
Q 21.234375 32.375 27.171875 43.484375 
Q 33.109375 54.59375 39.796875 62.203125 
z
" id="ArialMT-55"/>
     <path d="M 9.03125 41.84375 
L 9.03125 51.859375 
L 19.046875 51.859375 
L 19.046875 41.84375 
z
M 9.03125 0 
L 9.03125 10.015625 
L 19.046875 10.015625 
L 19.046875 0 
z
" id="ArialMT-58"/>
     <path d="M 37.25 0 
L 28.46875 0 
L 28.46875 56 
Q 25.296875 52.984375 20.140625 49.953125 
Q 14.984375 46.921875 10.890625 45.40625 
L 10.890625 53.90625 
Q 18.265625 57.375 23.78125 62.296875 
Q 29.296875 67.234375 31.59375 71.875 
L 37.25 71.875 
z
" id="ArialMT-49"/>
     <path d="M 9.078125 0 
L 9.078125 10.015625 
L 19.09375 10.015625 
L 19.09375 0 
z
" id="ArialMT-46"/>
     <path d="M 4.203125 18.890625 
L 12.984375 20.0625 
Q 14.5 12.59375 18.140625 9.296875 
Q 21.78125 6 27 6 
Q 33.203125 6 37.46875 10.296875 
Q 41.75 14.59375 41.75 20.953125 
Q 41.75 27 37.796875 30.921875 
Q 33.84375 34.859375 27.734375 34.859375 
Q 25.25 34.859375 21.53125 33.890625 
L 22.515625 41.609375 
Q 23.390625 41.5 23.921875 41.5 
Q 29.546875 41.5 34.03125 44.421875 
Q 38.53125 47.359375 38.53125 53.46875 
Q 38.53125 58.296875 35.25 61.46875 
Q 31.984375 64.65625 26.8125 64.65625 
Q 21.6875 64.65625 18.265625 61.421875 
Q 14.84375 58.203125 13.875 51.765625 
L 5.078125 53.328125 
Q 6.6875 62.15625 12.390625 67.015625 
Q 18.109375 71.875 26.609375 71.875 
Q 32.46875 71.875 37.390625 69.359375 
Q 42.328125 66.84375 44.9375 62.5 
Q 47.5625 58.15625 47.5625 53.265625 
Q 47.5625 48.640625 45.0625 44.828125 
Q 42.578125 41.015625 37.703125 38.765625 
Q 44.046875 37.3125 47.5625 32.6875 
Q 51.078125 28.078125 51.078125 21.140625 
Q 51.078125 11.765625 44.234375 5.25 
Q 37.40625 -1.265625 26.953125 -1.265625 
Q 17.53125 -1.265625 11.296875 4.34375 
Q 5.078125 9.96875 4.203125 18.890625 
z
" id="ArialMT-51"/>
    </defs>
    <g style="fill:#262626;" transform="translate(177.128922 37.2)scale(0.12 -0.12)">
     <use xlink:href="#ArialMT-50"/>
     <use x="55.615234" xlink:href="#ArialMT-50"/>
     <use x="111.230469" xlink:href="#ArialMT-55"/>
     <use x="166.845703" xlink:href="#ArialMT-58"/>
     <use x="194.628906" xlink:href="#ArialMT-49"/>
     <use x="250.244141" xlink:href="#ArialMT-46"/>
     <use x="278.027344" xlink:href="#ArialMT-51"/>
     <use x="333.642578" xlink:href="#ArialMT-51"/>
     <use x="389.257812" xlink:href="#ArialMT-51"/>
     <use x="444.873047" xlink:href="#ArialMT-51"/>
    </g>
   </g>
  </g>
  <g id="axes_2">
   <g id="patch_15">
    <path d="M 308.172414 166.745455 
L 452.482759 166.745455 
L 452.482759 43.2 
L 308.172414 43.2 
z
" style="fill:#ffffff;"/>
   </g>
   <g id="patch_16">
    <path clip-path="url(#p7a0e90f980)" d="M 366.583744 124.435367 
L 349.403941 132.897385 
" style="stroke:#000000;stroke-linejoin:miter;stroke-width:0.5;"/>
   </g>
   <g id="patch_17">
    <path clip-path="url(#p7a0e90f980)" d="M 366.583744 124.435367 
L 349.403941 115.97335 
" style="stroke:#000000;stroke-linejoin:miter;stroke-width:0.5;"/>
   </g>
   <g id="patch_18">
    <path clip-path="url(#p7a0e90f980)" d="M 383.763547 107.511333 
L 366.583744 124.435367 
" style="stroke:#000000;stroke-linejoin:miter;stroke-width:0.5;"/>
   </g>
   <g id="patch_19">
    <path clip-path="url(#p7a0e90f980)" d="M 366.583744 90.587298 
L 349.403941 99.049315 
" style="stroke:#000000;stroke-linejoin:miter;stroke-width:0.5;"/>
   </g>
   <g id="patch_20">
    <path clip-path="url(#p7a0e90f980)" d="M 366.583744 90.587298 
L 349.403941 82.12528 
" style="stroke:#000000;stroke-linejoin:miter;stroke-width:0.5;"/>
   </g>
   <g id="patch_21">
    <path clip-path="url(#p7a0e90f980)" d="M 383.763547 107.511333 
L 366.583744 90.587298 
" style="stroke:#000000;stroke-linejoin:miter;stroke-width:0.5;"/>
   </g>
   <g id="patch_22">
    <path clip-path="url(#p7a0e90f980)" d="M 400.94335 107.511333 
L 383.763547 107.511333 
" style="stroke:#000000;stroke-linejoin:miter;stroke-width:0.5;"/>
   </g>
   <g id="patch_23">
    <path clip-path="url(#p7a0e90f980)" d="M 418.123153 107.511333 
L 400.94335 107.511333 
" style="stroke:#000000;stroke-linejoin:miter;stroke-width:0.5;"/>
   </g>
   <g id="patch_24">
    <path clip-path="url(#p7a0e90f980)" d="M 418.123153 107.511333 
L 418.123153 99.049315 
" style="stroke:#000000;stroke-linejoin:miter;stroke-width:0.5;"/>
   </g>
   <g id="cc9c4a4e2b21415e89d3cb8cfd6a9264-1-node">
    <path clip-path="url(#p7a0e90f980)" d="M 421.043719 104.634247 
L 421.043719 110.388418 
L 415.202586 110.388418 
L 415.202586 104.634247 
L 421.043719 104.634247 
z
" style="fill:#0000ff;stroke:#ffffff;stroke-linejoin:miter;stroke-width:0.5;"/>
   </g>
   <g id="cc9c4a4e2b21415e89d3cb8cfd6a9264-4-node">
    <path clip-path="url(#p7a0e90f980)" d="M 403.863916 104.634247 
L 403.863916 110.388418 
L 398.022783 110.388418 
L 398.022783 104.634247 
L 403.863916 104.634247 
z
" style="fill:#0000ff;stroke:#ffffff;stroke-linejoin:miter;stroke-width:0.5;"/>
   </g>
   <g id="cc9c4a4e2b21415e89d3cb8cfd6a9264-6-node">
    <path clip-path="url(#p7a0e90f980)" d="M 383.763547 110.388418 
C 384.53809 110.388418 385.281014 110.085271 385.828699 109.545739 
C 386.376384 109.006208 386.684113 108.274345 386.684113 107.511333 
C 386.684113 106.74832 386.376384 106.016457 385.828699 105.476926 
C 385.281014 104.937394 384.53809 104.634247 383.763547 104.634247 
C 382.989004 104.634247 382.246079 104.937394 381.698394 105.476926 
C 381.15071 106.016457 380.84298 106.74832 380.84298 107.511333 
C 380.84298 108.274345 381.15071 109.006208 381.698394 109.545739 
C 382.246079 110.085271 382.989004 110.388418 383.763547 110.388418 
z
" style="fill:#00c832;stroke:#ffffff;stroke-linejoin:miter;stroke-width:0.5;"/>
   </g>
   <g id="cc9c4a4e2b21415e89d3cb8cfd6a9264-12-node">
    <path clip-path="url(#p7a0e90f980)" d="M 366.583744 127.312453 
C 367.358287 127.312453 368.101211 127.009305 368.648896 126.469774 
C 369.196581 125.930243 369.50431 125.198379 369.50431 124.435367 
C 369.50431 123.672355 369.196581 122.940491 368.648896 122.40096 
C 368.101211 121.861429 367.358287 121.558281 366.583744 121.558281 
C 365.809201 121.558281 365.066276 121.861429 364.518591 122.40096 
C 363.970907 122.940491 363.663177 123.672355 363.663177 124.435367 
C 363.663177 125.198379 363.970907 125.930243 364.518591 126.469774 
C 365.066276 127.009305 365.809201 127.312453 366.583744 127.312453 
z
" style="fill:#00c832;stroke:#ffffff;stroke-linejoin:miter;stroke-width:0.5;"/>
   </g>
   <g id="cc9c4a4e2b21415e89d3cb8cfd6a9264-15-node">
    <path clip-path="url(#p7a0e90f980)" d="M 352.324507 130.020299 
L 352.324507 135.774471 
L 346.483374 135.774471 
L 346.483374 130.020299 
L 352.324507 130.020299 
z
" style="fill:#0000ff;stroke:#ffffff;stroke-linejoin:miter;stroke-width:0.5;"/>
   </g>
   <g id="cc9c4a4e2b21415e89d3cb8cfd6a9264-13-node">
    <path clip-path="url(#p7a0e90f980)" d="M 352.324507 113.096264 
L 352.324507 118.850436 
L 346.483374 118.850436 
L 346.483374 113.096264 
L 352.324507 113.096264 
z
" style="fill:#0000ff;stroke:#ffffff;stroke-linejoin:miter;stroke-width:0.5;"/>
   </g>
   <g id="cc9c4a4e2b21415e89d3cb8cfd6a9264-7-node">
    <path clip-path="url(#p7a0e90f980)" d="M 366.583744 93.464384 
C 367.358287 93.464384 368.101211 93.161236 368.648896 92.621705 
C 369.196581 92.082174 369.50431 91.35031 369.50431 90.587298 
C 369.50431 89.824286 369.196581 89.092422 368.648896 88.552891 
C 368.101211 88.01336 367.358287 87.710212 366.583744 87.710212 
C 365.809201 87.710212 365.066276 88.01336 364.518591 88.552891 
C 363.970907 89.092422 363.663177 89.824286 363.663177 90.587298 
C 363.663177 91.35031 363.970907 92.082174 364.518591 92.621705 
C 365.066276 93.161236 365.809201 93.464384 366.583744 93.464384 
z
" style="fill:#00c832;stroke:#ffffff;stroke-linejoin:miter;stroke-width:0.5;"/>
   </g>
   <g id="cc9c4a4e2b21415e89d3cb8cfd6a9264-10-node">
    <path clip-path="url(#p7a0e90f980)" d="M 352.324507 96.172229 
L 352.324507 101.926401 
L 346.483374 101.926401 
L 346.483374 96.172229 
L 352.324507 96.172229 
z
" style="fill:#0000ff;stroke:#ffffff;stroke-linejoin:miter;stroke-width:0.5;"/>
   </g>
   <g id="cc9c4a4e2b21415e89d3cb8cfd6a9264-8-node">
    <path clip-path="url(#p7a0e90f980)" d="M 352.324507 79.248194 
L 352.324507 85.002366 
L 346.483374 85.002366 
L 346.483374 79.248194 
L 352.324507 79.248194 
z
" style="fill:#0000ff;stroke:#ffffff;stroke-linejoin:miter;stroke-width:0.5;"/>
   </g>
   <g id="cc9c4a4e2b21415e89d3cb8cfd6a9264-3-node">
    <path clip-path="url(#p7a0e90f980)" d="M 418.123153 96.172229 
L 415.593868 100.487858 
L 420.652437 100.487858 
z
" style="fill:#ff0000;stroke:#ffffff;stroke-linejoin:miter;stroke-width:0.5;"/>
   </g>
   <g id="patch_25">
    <path d="M 308.172414 166.745455 
L 308.172414 43.2 
" style="fill:none;stroke:#ffffff;stroke-linecap:square;stroke-linejoin:miter;stroke-width:1.25;"/>
   </g>
   <g id="patch_26">
    <path d="M 452.482759 166.745455 
L 452.482759 43.2 
" style="fill:none;stroke:#ffffff;stroke-linecap:square;stroke-linejoin:miter;stroke-width:1.25;"/>
   </g>
   <g id="patch_27">
    <path d="M 308.172414 166.745455 
L 452.482759 166.745455 
" style="fill:none;stroke:#ffffff;stroke-linecap:square;stroke-linejoin:miter;stroke-width:1.25;"/>
   </g>
   <g id="patch_28">
    <path d="M 308.172414 43.2 
L 452.482759 43.2 
" style="fill:none;stroke:#ffffff;stroke-linecap:square;stroke-linejoin:miter;stroke-width:1.25;"/>
   </g>
   <g id="text_2">
    <!-- 341:1.4444 -->
    <defs>
     <path d="M 32.328125 0 
L 32.328125 17.140625 
L 1.265625 17.140625 
L 1.265625 25.203125 
L 33.9375 71.578125 
L 41.109375 71.578125 
L 41.109375 25.203125 
L 50.78125 25.203125 
L 50.78125 17.140625 
L 41.109375 17.140625 
L 41.109375 0 
z
M 32.328125 25.203125 
L 32.328125 57.46875 
L 9.90625 25.203125 
z
" id="ArialMT-52"/>
    </defs>
    <g style="fill:#262626;" transform="translate(350.301336 37.2)scale(0.12 -0.12)">
     <use xlink:href="#ArialMT-51"/>
     <use x="55.615234" xlink:href="#ArialMT-52"/>
     <use x="111.230469" xlink:href="#ArialMT-49"/>
     <use x="166.845703" xlink:href="#ArialMT-58"/>
     <use x="194.628906" xlink:href="#ArialMT-49"/>
     <use x="250.244141" xlink:href="#ArialMT-46"/>
     <use x="278.027344" xlink:href="#ArialMT-52"/>
     <use x="333.642578" xlink:href="#ArialMT-52"/>
     <use x="389.257812" xlink:href="#ArialMT-52"/>
     <use x="444.873047" xlink:href="#ArialMT-52"/>
    </g>
   </g>
  </g>
  <g id="axes_3">
   <g id="patch_29">
    <path d="M 481.344828 166.745455 
L 625.655172 166.745455 
L 625.655172 43.2 
L 481.344828 43.2 
z
" style="fill:#ffffff;"/>
   </g>
   <g id="patch_30">
    <path clip-path="url(#pe0fd649b67)" d="M 534.511797 132.897385 
L 519.321234 132.897385 
" style="stroke:#000000;stroke-linejoin:miter;stroke-width:0.5;"/>
   </g>
   <g id="patch_31">
    <path clip-path="url(#pe0fd649b67)" d="M 549.702359 124.435367 
L 534.511797 132.897385 
" style="stroke:#000000;stroke-linejoin:miter;stroke-width:0.5;"/>
   </g>
   <g id="patch_32">
    <path clip-path="url(#pe0fd649b67)" d="M 549.702359 124.435367 
L 534.511797 115.97335 
" style="stroke:#000000;stroke-linejoin:miter;stroke-width:0.5;"/>
   </g>
   <g id="patch_33">
    <path clip-path="url(#pe0fd649b67)" d="M 564.892922 107.511333 
L 549.702359 124.435367 
" style="stroke:#000000;stroke-linejoin:miter;stroke-width:0.5;"/>
   </g>
   <g id="patch_34">
    <path clip-path="url(#pe0fd649b67)" d="M 549.702359 90.587298 
L 534.511797 99.049315 
" style="stroke:#000000;stroke-linejoin:miter;stroke-width:0.5;"/>
   </g>
   <g id="patch_35">
    <path clip-path="url(#pe0fd649b67)" d="M 549.702359 90.587298 
L 534.511797 82.12528 
" style="stroke:#000000;stroke-linejoin:miter;stroke-width:0.5;"/>
   </g>
   <g id="patch_36">
    <path clip-path="url(#pe0fd649b67)" d="M 564.892922 107.511333 
L 549.702359 90.587298 
" style="stroke:#000000;stroke-linejoin:miter;stroke-width:0.5;"/>
   </g>
   <g id="patch_37">
    <path clip-path="url(#pe0fd649b67)" d="M 580.083485 107.511333 
L 564.892922 107.511333 
" style="stroke:#000000;stroke-linejoin:miter;stroke-width:0.5;"/>
   </g>
   <g id="patch_38">
    <path clip-path="url(#pe0fd649b67)" d="M 595.274047 107.511333 
L 580.083485 107.511333 
" style="stroke:#000000;stroke-linejoin:miter;stroke-width:0.5;"/>
   </g>
   <g id="patch_39">
    <path clip-path="url(#pe0fd649b67)" d="M 595.274047 107.511333 
L 595.274047 99.049315 
" style="stroke:#000000;stroke-linejoin:miter;stroke-width:0.5;"/>
   </g>
   <g id="7014b8d13bf04671933a79003119e93d-1-node">
    <path clip-path="url(#pe0fd649b67)" d="M 597.856443 104.634247 
L 597.856443 110.388418 
L 592.691652 110.388418 
L 592.691652 104.634247 
L 597.856443 104.634247 
z
" style="fill:#0000ff;stroke:#ffffff;stroke-linejoin:miter;stroke-width:0.5;"/>
   </g>
   <g id="7014b8d13bf04671933a79003119e93d-4-node">
    <path clip-path="url(#pe0fd649b67)" d="M 582.66588 104.634247 
L 582.66588 110.388418 
L 577.501089 110.388418 
L 577.501089 104.634247 
L 582.66588 104.634247 
z
" style="fill:#0000ff;stroke:#ffffff;stroke-linejoin:miter;stroke-width:0.5;"/>
   </g>
   <g id="7014b8d13bf04671933a79003119e93d-6-node">
    <path clip-path="url(#pe0fd649b67)" d="M 564.892922 110.388418 
C 565.577781 110.388418 566.234683 110.085271 566.718951 109.545739 
C 567.20322 109.006208 567.475318 108.274345 567.475318 107.511333 
C 567.475318 106.74832 567.20322 106.016457 566.718951 105.476926 
C 566.234683 104.937394 565.577781 104.634247 564.892922 104.634247 
C 564.208063 104.634247 563.551161 104.937394 563.066892 105.476926 
C 562.582624 106.016457 562.310526 106.74832 562.310526 107.511333 
C 562.310526 108.274345 562.582624 109.006208 563.066892 109.545739 
C 563.551161 110.085271 564.208063 110.388418 564.892922 110.388418 
z
" style="fill:#00c832;stroke:#ffffff;stroke-linejoin:miter;stroke-width:0.5;"/>
   </g>
   <g id="7014b8d13bf04671933a79003119e93d-12-node">
    <path clip-path="url(#pe0fd649b67)" d="M 549.702359 127.312453 
C 550.387219 127.312453 551.04412 127.009305 551.528389 126.469774 
C 552.012657 125.930243 552.284755 125.198379 552.284755 124.435367 
C 552.284755 123.672355 552.012657 122.940491 551.528389 122.40096 
C 551.04412 121.861429 550.387219 121.558281 549.702359 121.558281 
C 549.0175 121.558281 548.360599 121.861429 547.87633 122.40096 
C 547.392061 122.940491 547.119964 123.672355 547.119964 124.435367 
C 547.119964 125.198379 547.392061 125.930243 547.87633 126.469774 
C 548.360599 127.009305 549.0175 127.312453 549.702359 127.312453 
z
" style="fill:#00c832;stroke:#ffffff;stroke-linejoin:miter;stroke-width:0.5;"/>
   </g>
   <g id="7014b8d13bf04671933a79003119e93d-15-node">
    <path clip-path="url(#pe0fd649b67)" d="M 537.094192 130.020299 
L 537.094192 135.774471 
L 531.929401 135.774471 
L 531.929401 130.020299 
L 537.094192 130.020299 
z
" style="fill:#0000ff;stroke:#ffffff;stroke-linejoin:miter;stroke-width:0.5;"/>
   </g>
   <g id="7014b8d13bf04671933a79003119e93d-17-node">
    <path clip-path="url(#pe0fd649b67)" d="M 519.321234 135.774471 
C 520.006093 135.774471 520.662995 135.471323 521.147264 134.931792 
C 521.631532 134.392261 521.90363 133.660397 521.90363 132.897385 
C 521.90363 132.134373 521.631532 131.402509 521.147264 130.862978 
C 520.662995 130.323447 520.006093 130.020299 519.321234 130.020299 
C 518.636375 130.020299 517.979473 130.323447 517.495205 130.862978 
C 517.010936 131.402509 516.738838 132.134373 516.738838 132.897385 
C 516.738838 133.660397 517.010936 134.392261 517.495205 134.931792 
C 517.979473 135.471323 518.636375 135.774471 519.321234 135.774471 
z
" style="fill:#ffff00;stroke:#ffffff;stroke-linejoin:miter;stroke-width:0.5;"/>
   </g>
   <g id="7014b8d13bf04671933a79003119e93d-13-node">
    <path clip-path="url(#pe0fd649b67)" d="M 537.094192 113.096264 
L 537.094192 118.850436 
L 531.929401 118.850436 
L 531.929401 113.096264 
L 537.094192 113.096264 
z
" style="fill:#0000ff;stroke:#ffffff;stroke-linejoin:miter;stroke-width:0.5;"/>
   </g>
   <g id="7014b8d13bf04671933a79003119e93d-7-node">
    <path clip-path="url(#pe0fd649b67)" d="M 549.702359 93.464384 
C 550.387219 93.464384 551.04412 93.161236 551.528389 92.621705 
C 552.012657 92.082174 552.284755 91.35031 552.284755 90.587298 
C 552.284755 89.824286 552.012657 89.092422 551.528389 88.552891 
C 551.04412 88.01336 550.387219 87.710212 549.702359 87.710212 
C 549.0175 87.710212 548.360599 88.01336 547.87633 88.552891 
C 547.392061 89.092422 547.119964 89.824286 547.119964 90.587298 
C 547.119964 91.35031 547.392061 92.082174 547.87633 92.621705 
C 548.360599 93.161236 549.0175 93.464384 549.702359 93.464384 
z
" style="fill:#00c832;stroke:#ffffff;stroke-linejoin:miter;stroke-width:0.5;"/>
   </g>
   <g id="7014b8d13bf04671933a79003119e93d-10-node">
    <path clip-path="url(#pe0fd649b67)" d="M 537.094192 96.172229 
L 537.094192 101.926401 
L 531.929401 101.926401 
L 531.929401 96.172229 
L 537.094192 96.172229 
z
" style="fill:#0000ff;stroke:#ffffff;stroke-linejoin:miter;stroke-width:0.5;"/>
   </g>
   <g id="7014b8d13bf04671933a79003119e93d-8-node">
    <path clip-path="url(#pe0fd649b67)" d="M 537.094192 79.248194 
L 537.094192 85.002366 
L 531.929401 85.002366 
L 531.929401 79.248194 
L 537.094192 79.248194 
z
" style="fill:#0000ff;stroke:#ffffff;stroke-linejoin:miter;stroke-width:0.5;"/>
   </g>
   <g id="7014b8d13bf04671933a79003119e93d-3-node">
    <path clip-path="url(#pe0fd649b67)" d="M 595.274047 96.172229 
L 593.037627 100.487858 
L 597.510467 100.487858 
z
" style="fill:#ff0000;stroke:#ffffff;stroke-linejoin:miter;stroke-width:0.5;"/>
   </g>
   <g id="patch_40">
    <path d="M 481.344828 166.745455 
L 481.344828 43.2 
" style="fill:none;stroke:#ffffff;stroke-linecap:square;stroke-linejoin:miter;stroke-width:1.25;"/>
   </g>
   <g id="patch_41">
    <path d="M 625.655172 166.745455 
L 625.655172 43.2 
" style="fill:none;stroke:#ffffff;stroke-linecap:square;stroke-linejoin:miter;stroke-width:1.25;"/>
   </g>
   <g id="patch_42">
    <path d="M 481.344828 166.745455 
L 625.655172 166.745455 
" style="fill:none;stroke:#ffffff;stroke-linecap:square;stroke-linejoin:miter;stroke-width:1.25;"/>
   </g>
   <g id="patch_43">
    <path d="M 481.344828 43.2 
L 625.655172 43.2 
" style="fill:none;stroke:#ffffff;stroke-linecap:square;stroke-linejoin:miter;stroke-width:1.25;"/>
   </g>
   <g id="text_3">
    <!-- 447:2.7037 -->
    <defs>
     <path d="M 4.15625 35.296875 
Q 4.15625 48 6.765625 55.734375 
Q 9.375 63.484375 14.515625 67.671875 
Q 19.671875 71.875 27.484375 71.875 
Q 33.25 71.875 37.59375 69.546875 
Q 41.9375 67.234375 44.765625 62.859375 
Q 47.609375 58.5 49.21875 52.21875 
Q 50.828125 45.953125 50.828125 35.296875 
Q 50.828125 22.703125 48.234375 14.96875 
Q 45.65625 7.234375 40.5 3 
Q 35.359375 -1.21875 27.484375 -1.21875 
Q 17.140625 -1.21875 11.234375 6.203125 
Q 4.15625 15.140625 4.15625 35.296875 
z
M 13.1875 35.296875 
Q 13.1875 17.671875 17.3125 11.828125 
Q 21.4375 6 27.484375 6 
Q 33.546875 6 37.671875 11.859375 
Q 41.796875 17.71875 41.796875 35.296875 
Q 41.796875 52.984375 37.671875 58.78125 
Q 33.546875 64.59375 27.390625 64.59375 
Q 21.34375 64.59375 17.71875 59.46875 
Q 13.1875 52.9375 13.1875 35.296875 
z
" id="ArialMT-48"/>
    </defs>
    <g style="fill:#262626;" transform="translate(523.47375 37.2)scale(0.12 -0.12)">
     <use xlink:href="#ArialMT-52"/>
     <use x="55.615234" xlink:href="#ArialMT-52"/>
     <use x="111.230469" xlink:href="#ArialMT-55"/>
     <use x="166.845703" xlink:href="#ArialMT-58"/>
     <use x="194.628906" xlink:href="#ArialMT-50"/>
     <use x="250.244141" xlink:href="#ArialMT-46"/>
     <use x="278.027344" xlink:href="#ArialMT-55"/>
     <use x="333.642578" xlink:href="#ArialMT-48"/>
     <use x="389.257812" xlink:href="#ArialMT-51"/>
     <use x="444.873047" xlink:href="#ArialMT-55"/>
    </g>
   </g>
  </g>
  <g id="axes_4">
   <g id="patch_44">
    <path d="M 654.517241 166.745455 
L 798.827586 166.745455 
L 798.827586 43.2 
L 654.517241 43.2 
z
" style="fill:#ffffff;"/>
   </g>
   <g id="patch_45">
    <path clip-path="url(#pfad5bc52d6)" d="M 707.684211 132.897385 
L 692.493648 132.897385 
" style="stroke:#000000;stroke-linejoin:miter;stroke-width:0.5;"/>
   </g>
   <g id="patch_46">
    <path clip-path="url(#pfad5bc52d6)" d="M 722.874773 124.435367 
L 707.684211 132.897385 
" style="stroke:#000000;stroke-linejoin:miter;stroke-width:0.5;"/>
   </g>
   <g id="patch_47">
    <path clip-path="url(#pfad5bc52d6)" d="M 707.684211 115.97335 
L 692.493648 115.97335 
" style="stroke:#000000;stroke-linejoin:miter;stroke-width:0.5;"/>
   </g>
   <g id="patch_48">
    <path clip-path="url(#pfad5bc52d6)" d="M 722.874773 124.435367 
L 707.684211 115.97335 
" style="stroke:#000000;stroke-linejoin:miter;stroke-width:0.5;"/>
   </g>
   <g id="patch_49">
    <path clip-path="url(#pfad5bc52d6)" d="M 738.065336 107.511333 
L 722.874773 124.435367 
" style="stroke:#000000;stroke-linejoin:miter;stroke-width:0.5;"/>
   </g>
   <g id="patch_50">
    <path clip-path="url(#pfad5bc52d6)" d="M 722.874773 90.587298 
L 707.684211 99.049315 
" style="stroke:#000000;stroke-linejoin:miter;stroke-width:0.5;"/>
   </g>
   <g id="patch_51">
    <path clip-path="url(#pfad5bc52d6)" d="M 722.874773 90.587298 
L 707.684211 82.12528 
" style="stroke:#000000;stroke-linejoin:miter;stroke-width:0.5;"/>
   </g>
   <g id="patch_52">
    <path clip-path="url(#pfad5bc52d6)" d="M 738.065336 107.511333 
L 722.874773 90.587298 
" style="stroke:#000000;stroke-linejoin:miter;stroke-width:0.5;"/>
   </g>
   <g id="patch_53">
    <path clip-path="url(#pfad5bc52d6)" d="M 753.255898 107.511333 
L 738.065336 107.511333 
" style="stroke:#000000;stroke-linejoin:miter;stroke-width:0.5;"/>
   </g>
   <g id="patch_54">
    <path clip-path="url(#pfad5bc52d6)" d="M 768.446461 107.511333 
L 753.255898 107.511333 
" style="stroke:#000000;stroke-linejoin:miter;stroke-width:0.5;"/>
   </g>
   <g id="patch_55">
    <path clip-path="url(#pfad5bc52d6)" d="M 768.446461 107.511333 
L 768.446461 99.049315 
" style="stroke:#000000;stroke-linejoin:miter;stroke-width:0.5;"/>
   </g>
   <g id="57e296a1945a466a94ba4902bada5a78-1-node">
    <path clip-path="url(#pfad5bc52d6)" d="M 771.028857 104.634247 
L 771.028857 110.388418 
L 765.864065 110.388418 
L 765.864065 104.634247 
L 771.028857 104.634247 
z
" style="fill:#0000ff;stroke:#ffffff;stroke-linejoin:miter;stroke-width:0.5;"/>
   </g>
   <g id="57e296a1945a466a94ba4902bada5a78-4-node">
    <path clip-path="url(#pfad5bc52d6)" d="M 755.838294 104.634247 
L 755.838294 110.388418 
L 750.673503 110.388418 
L 750.673503 104.634247 
L 755.838294 104.634247 
z
" style="fill:#0000ff;stroke:#ffffff;stroke-linejoin:miter;stroke-width:0.5;"/>
   </g>
   <g id="57e296a1945a466a94ba4902bada5a78-6-node">
    <path clip-path="url(#pfad5bc52d6)" d="M 738.065336 110.388418 
C 738.750195 110.388418 739.407097 110.085271 739.891365 109.545739 
C 740.375634 109.006208 740.647731 108.274345 740.647731 107.511333 
C 740.647731 106.74832 740.375634 106.016457 739.891365 105.476926 
C 739.407097 104.937394 738.750195 104.634247 738.065336 104.634247 
C 737.380476 104.634247 736.723575 104.937394 736.239306 105.476926 
C 735.755038 106.016457 735.48294 106.74832 735.48294 107.511333 
C 735.48294 108.274345 735.755038 109.006208 736.239306 109.545739 
C 736.723575 110.085271 737.380476 110.388418 738.065336 110.388418 
z
" style="fill:#00c832;stroke:#ffffff;stroke-linejoin:miter;stroke-width:0.5;"/>
   </g>
   <g id="57e296a1945a466a94ba4902bada5a78-12-node">
    <path clip-path="url(#pfad5bc52d6)" d="M 722.874773 127.312453 
C 723.559632 127.312453 724.216534 127.009305 724.700803 126.469774 
C 725.185071 125.930243 725.457169 125.198379 725.457169 124.435367 
C 725.457169 123.672355 725.185071 122.940491 724.700803 122.40096 
C 724.216534 121.861429 723.559632 121.558281 722.874773 121.558281 
C 722.189914 121.558281 721.533012 121.861429 721.048744 122.40096 
C 720.564475 122.940491 720.292377 123.672355 720.292377 124.435367 
C 720.292377 125.198379 720.564475 125.930243 721.048744 126.469774 
C 721.533012 127.009305 722.189914 127.312453 722.874773 127.312453 
z
" style="fill:#00c832;stroke:#ffffff;stroke-linejoin:miter;stroke-width:0.5;"/>
   </g>
   <g id="57e296a1945a466a94ba4902bada5a78-16-node">
    <path clip-path="url(#pfad5bc52d6)" d="M 710.266606 130.020299 
L 710.266606 135.774471 
L 705.101815 135.774471 
L 705.101815 130.020299 
L 710.266606 130.020299 
z
" style="fill:#0000ff;stroke:#ffffff;stroke-linejoin:miter;stroke-width:0.5;"/>
   </g>
   <g id="57e296a1945a466a94ba4902bada5a78-18-node">
    <path clip-path="url(#pfad5bc52d6)" d="M 692.493648 135.774471 
C 693.178507 135.774471 693.835409 135.471323 694.319677 134.931792 
C 694.803946 134.392261 695.076044 133.660397 695.076044 132.897385 
C 695.076044 132.134373 694.803946 131.402509 694.319677 130.862978 
C 693.835409 130.323447 693.178507 130.020299 692.493648 130.020299 
C 691.808789 130.020299 691.151887 130.323447 690.667618 130.862978 
C 690.18335 131.402509 689.911252 132.134373 689.911252 132.897385 
C 689.911252 133.660397 690.18335 134.392261 690.667618 134.931792 
C 691.151887 135.471323 691.808789 135.774471 692.493648 135.774471 
z
" style="fill:#ffff00;stroke:#ffffff;stroke-linejoin:miter;stroke-width:0.5;"/>
   </g>
   <g id="57e296a1945a466a94ba4902bada5a78-13-node">
    <path clip-path="url(#pfad5bc52d6)" d="M 710.266606 113.096264 
L 710.266606 118.850436 
L 705.101815 118.850436 
L 705.101815 113.096264 
L 710.266606 113.096264 
z
" style="fill:#0000ff;stroke:#ffffff;stroke-linejoin:miter;stroke-width:0.5;"/>
   </g>
   <g id="57e296a1945a466a94ba4902bada5a78-15-node">
    <path clip-path="url(#pfad5bc52d6)" d="M 692.493648 118.850436 
C 693.178507 118.850436 693.835409 118.547288 694.319677 118.007757 
C 694.803946 117.468226 695.076044 116.736362 695.076044 115.97335 
C 695.076044 115.210338 694.803946 114.478474 694.319677 113.938943 
C 693.835409 113.399412 693.178507 113.096264 692.493648 113.096264 
C 691.808789 113.096264 691.151887 113.399412 690.667618 113.938943 
C 690.18335 114.478474 689.911252 115.210338 689.911252 115.97335 
C 689.911252 116.736362 690.18335 117.468226 690.667618 118.007757 
C 691.151887 118.547288 691.808789 118.850436 692.493648 118.850436 
z
" style="fill:#ffff00;stroke:#ffffff;stroke-linejoin:miter;stroke-width:0.5;"/>
   </g>
   <g id="57e296a1945a466a94ba4902bada5a78-7-node">
    <path clip-path="url(#pfad5bc52d6)" d="M 722.874773 93.464384 
C 723.559632 93.464384 724.216534 93.161236 724.700803 92.621705 
C 725.185071 92.082174 725.457169 91.35031 725.457169 90.587298 
C 725.457169 89.824286 725.185071 89.092422 724.700803 88.552891 
C 724.216534 88.01336 723.559632 87.710212 722.874773 87.710212 
C 722.189914 87.710212 721.533012 88.01336 721.048744 88.552891 
C 720.564475 89.092422 720.292377 89.824286 720.292377 90.587298 
C 720.292377 91.35031 720.564475 92.082174 721.048744 92.621705 
C 721.533012 93.161236 722.189914 93.464384 722.874773 93.464384 
z
" style="fill:#00c832;stroke:#ffffff;stroke-linejoin:miter;stroke-width:0.5;"/>
   </g>
   <g id="57e296a1945a466a94ba4902bada5a78-10-node">
    <path clip-path="url(#pfad5bc52d6)" d="M 710.266606 96.172229 
L 710.266606 101.926401 
L 705.101815 101.926401 
L 705.101815 96.172229 
L 710.266606 96.172229 
z
" style="fill:#0000ff;stroke:#ffffff;stroke-linejoin:miter;stroke-width:0.5;"/>
   </g>
   <g id="57e296a1945a466a94ba4902bada5a78-8-node">
    <path clip-path="url(#pfad5bc52d6)" d="M 710.266606 79.248194 
L 710.266606 85.002366 
L 705.101815 85.002366 
L 705.101815 79.248194 
L 710.266606 79.248194 
z
" style="fill:#0000ff;stroke:#ffffff;stroke-linejoin:miter;stroke-width:0.5;"/>
   </g>
   <g id="57e296a1945a466a94ba4902bada5a78-3-node">
    <path clip-path="url(#pfad5bc52d6)" d="M 768.446461 96.172229 
L 766.210041 100.487858 
L 770.682881 100.487858 
z
" style="fill:#ff0000;stroke:#ffffff;stroke-linejoin:miter;stroke-width:0.5;"/>
   </g>
   <g id="patch_56">
    <path d="M 654.517241 166.745455 
L 654.517241 43.2 
" style="fill:none;stroke:#ffffff;stroke-linecap:square;stroke-linejoin:miter;stroke-width:1.25;"/>
   </g>
   <g id="patch_57">
    <path d="M 798.827586 166.745455 
L 798.827586 43.2 
" style="fill:none;stroke:#ffffff;stroke-linecap:square;stroke-linejoin:miter;stroke-width:1.25;"/>
   </g>
   <g id="patch_58">
    <path d="M 654.517241 166.745455 
L 798.827586 166.745455 
" style="fill:none;stroke:#ffffff;stroke-linecap:square;stroke-linejoin:miter;stroke-width:1.25;"/>
   </g>
   <g id="patch_59">
    <path d="M 654.517241 43.2 
L 798.827586 43.2 
" style="fill:none;stroke:#ffffff;stroke-linecap:square;stroke-linejoin:miter;stroke-width:1.25;"/>
   </g>
   <g id="text_4">
    <!-- 577:2.2593 -->
    <defs>
     <path d="M 4.15625 18.75 
L 13.375 19.53125 
Q 14.40625 12.796875 18.140625 9.390625 
Q 21.875 6 27.15625 6 
Q 33.5 6 37.890625 10.78125 
Q 42.28125 15.578125 42.28125 23.484375 
Q 42.28125 31 38.0625 35.34375 
Q 33.84375 39.703125 27 39.703125 
Q 22.75 39.703125 19.328125 37.765625 
Q 15.921875 35.84375 13.96875 32.765625 
L 5.71875 33.84375 
L 12.640625 70.609375 
L 48.25 70.609375 
L 48.25 62.203125 
L 19.671875 62.203125 
L 15.828125 42.96875 
Q 22.265625 47.46875 29.34375 47.46875 
Q 38.71875 47.46875 45.15625 40.96875 
Q 51.609375 34.46875 51.609375 24.265625 
Q 51.609375 14.546875 45.953125 7.46875 
Q 39.0625 -1.21875 27.15625 -1.21875 
Q 17.390625 -1.21875 11.203125 4.25 
Q 5.03125 9.71875 4.15625 18.75 
z
" id="ArialMT-53"/>
     <path d="M 5.46875 16.546875 
L 13.921875 17.328125 
Q 14.984375 11.375 18.015625 8.6875 
Q 21.046875 6 25.78125 6 
Q 29.828125 6 32.875 7.859375 
Q 35.9375 9.71875 37.890625 12.8125 
Q 39.84375 15.921875 41.15625 21.1875 
Q 42.484375 26.46875 42.484375 31.9375 
Q 42.484375 32.515625 42.4375 33.6875 
Q 39.796875 29.5 35.234375 26.875 
Q 30.671875 24.265625 25.34375 24.265625 
Q 16.453125 24.265625 10.296875 30.703125 
Q 4.15625 37.15625 4.15625 47.703125 
Q 4.15625 58.59375 10.578125 65.234375 
Q 17 71.875 26.65625 71.875 
Q 33.640625 71.875 39.421875 68.109375 
Q 45.21875 64.359375 48.21875 57.390625 
Q 51.21875 50.4375 51.21875 37.25 
Q 51.21875 23.53125 48.234375 15.40625 
Q 45.265625 7.28125 39.375 3.03125 
Q 33.5 -1.21875 25.59375 -1.21875 
Q 17.1875 -1.21875 11.859375 3.4375 
Q 6.546875 8.109375 5.46875 16.546875 
z
M 41.453125 48.140625 
Q 41.453125 55.71875 37.421875 60.15625 
Q 33.40625 64.59375 27.734375 64.59375 
Q 21.875 64.59375 17.53125 59.8125 
Q 13.1875 55.03125 13.1875 47.40625 
Q 13.1875 40.578125 17.3125 36.296875 
Q 21.4375 32.03125 27.484375 32.03125 
Q 33.59375 32.03125 37.515625 36.296875 
Q 41.453125 40.578125 41.453125 48.140625 
z
" id="ArialMT-57"/>
    </defs>
    <g style="fill:#262626;" transform="translate(696.646164 37.2)scale(0.12 -0.12)">
     <use xlink:href="#ArialMT-53"/>
     <use x="55.615234" xlink:href="#ArialMT-55"/>
     <use x="111.230469" xlink:href="#ArialMT-55"/>
     <use x="166.845703" xlink:href="#ArialMT-58"/>
     <use x="194.628906" xlink:href="#ArialMT-50"/>
     <use x="250.244141" xlink:href="#ArialMT-46"/>
     <use x="278.027344" xlink:href="#ArialMT-50"/>
     <use x="333.642578" xlink:href="#ArialMT-53"/>
     <use x="389.257812" xlink:href="#ArialMT-57"/>
     <use x="444.873047" xlink:href="#ArialMT-51"/>
    </g>
   </g>
  </g>
  <g id="axes_5">
   <g id="patch_60">
    <path d="M 827.689655 166.745455 
L 972 166.745455 
L 972 43.2 
L 827.689655 43.2 
z
" style="fill:#ffffff;"/>
   </g>
   <g id="patch_61">
    <path clip-path="url(#pe220517b1d)" d="M 880.856624 132.897385 
L 865.666062 132.897385 
" style="stroke:#000000;stroke-linejoin:miter;stroke-width:0.5;"/>
   </g>
   <g id="patch_62">
    <path clip-path="url(#pe220517b1d)" d="M 896.047187 124.435367 
L 880.856624 132.897385 
" style="stroke:#000000;stroke-linejoin:miter;stroke-width:0.5;"/>
   </g>
   <g id="patch_63">
    <path clip-path="url(#pe220517b1d)" d="M 880.856624 115.97335 
L 865.666062 115.97335 
" style="stroke:#000000;stroke-linejoin:miter;stroke-width:0.5;"/>
   </g>
   <g id="patch_64">
    <path clip-path="url(#pe220517b1d)" d="M 896.047187 124.435367 
L 880.856624 115.97335 
" style="stroke:#000000;stroke-linejoin:miter;stroke-width:0.5;"/>
   </g>
   <g id="patch_65">
    <path clip-path="url(#pe220517b1d)" d="M 911.23775 107.511333 
L 896.047187 124.435367 
" style="stroke:#000000;stroke-linejoin:miter;stroke-width:0.5;"/>
   </g>
   <g id="patch_66">
    <path clip-path="url(#pe220517b1d)" d="M 880.856624 99.049315 
L 865.666062 99.049315 
" style="stroke:#000000;stroke-linejoin:miter;stroke-width:0.5;"/>
   </g>
   <g id="patch_67">
    <path clip-path="url(#pe220517b1d)" d="M 896.047187 90.587298 
L 880.856624 99.049315 
" style="stroke:#000000;stroke-linejoin:miter;stroke-width:0.5;"/>
   </g>
   <g id="patch_68">
    <path clip-path="url(#pe220517b1d)" d="M 880.856624 82.12528 
L 865.666062 82.12528 
" style="stroke:#000000;stroke-linejoin:miter;stroke-width:0.5;"/>
   </g>
   <g id="patch_69">
    <path clip-path="url(#pe220517b1d)" d="M 896.047187 90.587298 
L 880.856624 82.12528 
" style="stroke:#000000;stroke-linejoin:miter;stroke-width:0.5;"/>
   </g>
   <g id="patch_70">
    <path clip-path="url(#pe220517b1d)" d="M 911.23775 107.511333 
L 896.047187 90.587298 
" style="stroke:#000000;stroke-linejoin:miter;stroke-width:0.5;"/>
   </g>
   <g id="patch_71">
    <path clip-path="url(#pe220517b1d)" d="M 926.428312 107.511333 
L 911.23775 107.511333 
" style="stroke:#000000;stroke-linejoin:miter;stroke-width:0.5;"/>
   </g>
   <g id="patch_72">
    <path clip-path="url(#pe220517b1d)" d="M 941.618875 107.511333 
L 926.428312 107.511333 
" style="stroke:#000000;stroke-linejoin:miter;stroke-width:0.5;"/>
   </g>
   <g id="87b9d3aa84c54ce386d9f45bfdcffd25-1-node">
    <path clip-path="url(#pe220517b1d)" d="M 944.20127 104.634247 
L 944.20127 110.388418 
L 939.036479 110.388418 
L 939.036479 104.634247 
L 944.20127 104.634247 
z
" style="fill:#0000ff;stroke:#ffffff;stroke-linejoin:miter;stroke-width:0.5;"/>
   </g>
   <g id="87b9d3aa84c54ce386d9f45bfdcffd25-3-node">
    <path clip-path="url(#pe220517b1d)" d="M 929.010708 104.634247 
L 929.010708 110.388418 
L 923.845917 110.388418 
L 923.845917 104.634247 
L 929.010708 104.634247 
z
" style="fill:#0000ff;stroke:#ffffff;stroke-linejoin:miter;stroke-width:0.5;"/>
   </g>
   <g id="87b9d3aa84c54ce386d9f45bfdcffd25-5-node">
    <path clip-path="url(#pe220517b1d)" d="M 911.23775 110.388418 
C 911.922609 110.388418 912.57951 110.085271 913.063779 109.545739 
C 913.548048 109.006208 913.820145 108.274345 913.820145 107.511333 
C 913.820145 106.74832 913.548048 106.016457 913.063779 105.476926 
C 912.57951 104.937394 911.922609 104.634247 911.23775 104.634247 
C 910.55289 104.634247 909.895989 104.937394 909.41172 105.476926 
C 908.927451 106.016457 908.655354 106.74832 908.655354 107.511333 
C 908.655354 108.274345 908.927451 109.006208 909.41172 109.545739 
C 909.895989 110.085271 910.55289 110.388418 911.23775 110.388418 
z
" style="fill:#00c832;stroke:#ffffff;stroke-linejoin:miter;stroke-width:0.5;"/>
   </g>
   <g id="87b9d3aa84c54ce386d9f45bfdcffd25-13-node">
    <path clip-path="url(#pe220517b1d)" d="M 896.047187 127.312453 
C 896.732046 127.312453 897.388948 127.009305 897.873216 126.469774 
C 898.357485 125.930243 898.629583 125.198379 898.629583 124.435367 
C 898.629583 123.672355 898.357485 122.940491 897.873216 122.40096 
C 897.388948 121.861429 896.732046 121.558281 896.047187 121.558281 
C 895.362328 121.558281 894.705426 121.861429 894.221157 122.40096 
C 893.736889 122.940491 893.464791 123.672355 893.464791 124.435367 
C 893.464791 125.198379 893.736889 125.930243 894.221157 126.469774 
C 894.705426 127.009305 895.362328 127.312453 896.047187 127.312453 
z
" style="fill:#00c832;stroke:#ffffff;stroke-linejoin:miter;stroke-width:0.5;"/>
   </g>
   <g id="87b9d3aa84c54ce386d9f45bfdcffd25-17-node">
    <path clip-path="url(#pe220517b1d)" d="M 883.43902 130.020299 
L 883.43902 135.774471 
L 878.274229 135.774471 
L 878.274229 130.020299 
L 883.43902 130.020299 
z
" style="fill:#0000ff;stroke:#ffffff;stroke-linejoin:miter;stroke-width:0.5;"/>
   </g>
   <g id="87b9d3aa84c54ce386d9f45bfdcffd25-19-node">
    <path clip-path="url(#pe220517b1d)" d="M 865.666062 135.774471 
C 866.350921 135.774471 867.007823 135.471323 867.492091 134.931792 
C 867.97636 134.392261 868.248457 133.660397 868.248457 132.897385 
C 868.248457 132.134373 867.97636 131.402509 867.492091 130.862978 
C 867.007823 130.323447 866.350921 130.020299 865.666062 130.020299 
C 864.981202 130.020299 864.324301 130.323447 863.840032 130.862978 
C 863.355764 131.402509 863.083666 132.134373 863.083666 132.897385 
C 863.083666 133.660397 863.355764 134.392261 863.840032 134.931792 
C 864.324301 135.471323 864.981202 135.774471 865.666062 135.774471 
z
" style="fill:#ffff00;stroke:#ffffff;stroke-linejoin:miter;stroke-width:0.5;"/>
   </g>
   <g id="87b9d3aa84c54ce386d9f45bfdcffd25-14-node">
    <path clip-path="url(#pe220517b1d)" d="M 883.43902 113.096264 
L 883.43902 118.850436 
L 878.274229 118.850436 
L 878.274229 113.096264 
L 883.43902 113.096264 
z
" style="fill:#0000ff;stroke:#ffffff;stroke-linejoin:miter;stroke-width:0.5;"/>
   </g>
   <g id="87b9d3aa84c54ce386d9f45bfdcffd25-16-node">
    <path clip-path="url(#pe220517b1d)" d="M 865.666062 118.850436 
C 866.350921 118.850436 867.007823 118.547288 867.492091 118.007757 
C 867.97636 117.468226 868.248457 116.736362 868.248457 115.97335 
C 868.248457 115.210338 867.97636 114.478474 867.492091 113.938943 
C 867.007823 113.399412 866.350921 113.096264 865.666062 113.096264 
C 864.981202 113.096264 864.324301 113.399412 863.840032 113.938943 
C 863.355764 114.478474 863.083666 115.210338 863.083666 115.97335 
C 863.083666 116.736362 863.355764 117.468226 863.840032 118.007757 
C 864.324301 118.547288 864.981202 118.850436 865.666062 118.850436 
z
" style="fill:#ffff00;stroke:#ffffff;stroke-linejoin:miter;stroke-width:0.5;"/>
   </g>
   <g id="87b9d3aa84c54ce386d9f45bfdcffd25-6-node">
    <path clip-path="url(#pe220517b1d)" d="M 896.047187 93.464384 
C 896.732046 93.464384 897.388948 93.161236 897.873216 92.621705 
C 898.357485 92.082174 898.629583 91.35031 898.629583 90.587298 
C 898.629583 89.824286 898.357485 89.092422 897.873216 88.552891 
C 897.388948 88.01336 896.732046 87.710212 896.047187 87.710212 
C 895.362328 87.710212 894.705426 88.01336 894.221157 88.552891 
C 893.736889 89.092422 893.464791 89.824286 893.464791 90.587298 
C 893.464791 91.35031 893.736889 92.082174 894.221157 92.621705 
C 894.705426 93.161236 895.362328 93.464384 896.047187 93.464384 
z
" style="fill:#00c832;stroke:#ffffff;stroke-linejoin:miter;stroke-width:0.5;"/>
   </g>
   <g id="87b9d3aa84c54ce386d9f45bfdcffd25-10-node">
    <path clip-path="url(#pe220517b1d)" d="M 883.43902 96.172229 
L 883.43902 101.926401 
L 878.274229 101.926401 
L 878.274229 96.172229 
L 883.43902 96.172229 
z
" style="fill:#0000ff;stroke:#ffffff;stroke-linejoin:miter;stroke-width:0.5;"/>
   </g>
   <g id="87b9d3aa84c54ce386d9f45bfdcffd25-12-node">
    <path clip-path="url(#pe220517b1d)" d="M 865.666062 101.926401 
C 866.350921 101.926401 867.007823 101.623253 867.492091 101.083722 
C 867.97636 100.544191 868.248457 99.812327 868.248457 99.049315 
C 868.248457 98.286303 867.97636 97.554439 867.492091 97.014908 
C 867.007823 96.475377 866.350921 96.172229 865.666062 96.172229 
C 864.981202 96.172229 864.324301 96.475377 863.840032 97.014908 
C 863.355764 97.554439 863.083666 98.286303 863.083666 99.049315 
C 863.083666 99.812327 863.355764 100.544191 863.840032 101.083722 
C 864.324301 101.623253 864.981202 101.926401 865.666062 101.926401 
z
" style="fill:#ffff00;stroke:#ffffff;stroke-linejoin:miter;stroke-width:0.5;"/>
   </g>
   <g id="87b9d3aa84c54ce386d9f45bfdcffd25-7-node">
    <path clip-path="url(#pe220517b1d)" d="M 883.43902 79.248194 
L 883.43902 85.002366 
L 878.274229 85.002366 
L 878.274229 79.248194 
L 883.43902 79.248194 
z
" style="fill:#0000ff;stroke:#ffffff;stroke-linejoin:miter;stroke-width:0.5;"/>
   </g>
   <g id="87b9d3aa84c54ce386d9f45bfdcffd25-9-node">
    <path clip-path="url(#pe220517b1d)" d="M 865.666062 85.002366 
C 866.350921 85.002366 867.007823 84.699218 867.492091 84.159687 
C 867.97636 83.620156 868.248457 82.888292 868.248457 82.12528 
C 868.248457 81.362268 867.97636 80.630404 867.492091 80.090873 
C 867.007823 79.551342 866.350921 79.248194 865.666062 79.248194 
C 864.981202 79.248194 864.324301 79.551342 863.840032 80.090873 
C 863.355764 80.630404 863.083666 81.362268 863.083666 82.12528 
C 863.083666 82.888292 863.355764 83.620156 863.840032 84.159687 
C 864.324301 84.699218 864.981202 85.002366 865.666062 85.002366 
z
" style="fill:#ffff00;stroke:#ffffff;stroke-linejoin:miter;stroke-width:0.5;"/>
   </g>
   <g id="patch_73">
    <path d="M 827.689655 166.745455 
L 827.689655 43.2 
" style="fill:none;stroke:#ffffff;stroke-linecap:square;stroke-linejoin:miter;stroke-width:1.25;"/>
   </g>
   <g id="patch_74">
    <path d="M 972 166.745455 
L 972 43.2 
" style="fill:none;stroke:#ffffff;stroke-linecap:square;stroke-linejoin:miter;stroke-width:1.25;"/>
   </g>
   <g id="patch_75">
    <path d="M 827.689655 166.745455 
L 972 166.745455 
" style="fill:none;stroke:#ffffff;stroke-linecap:square;stroke-linejoin:miter;stroke-width:1.25;"/>
   </g>
   <g id="patch_76">
    <path d="M 827.689655 43.2 
L 972 43.2 
" style="fill:none;stroke:#ffffff;stroke-linecap:square;stroke-linejoin:miter;stroke-width:1.25;"/>
   </g>
   <g id="text_5">
    <!-- 726:1.6574 -->
    <defs>
     <path d="M 49.75 54.046875 
L 41.015625 53.375 
Q 39.84375 58.546875 37.703125 60.890625 
Q 34.125 64.65625 28.90625 64.65625 
Q 24.703125 64.65625 21.53125 62.3125 
Q 17.390625 59.28125 14.984375 53.46875 
Q 12.59375 47.65625 12.5 36.921875 
Q 15.671875 41.75 20.265625 44.09375 
Q 24.859375 46.4375 29.890625 46.4375 
Q 38.671875 46.4375 44.84375 39.96875 
Q 51.03125 33.5 51.03125 23.25 
Q 51.03125 16.5 48.125 10.71875 
Q 45.21875 4.9375 40.140625 1.859375 
Q 35.0625 -1.21875 28.609375 -1.21875 
Q 17.625 -1.21875 10.6875 6.859375 
Q 3.765625 14.9375 3.765625 33.5 
Q 3.765625 54.25 11.421875 63.671875 
Q 18.109375 71.875 29.4375 71.875 
Q 37.890625 71.875 43.28125 67.140625 
Q 48.6875 62.40625 49.75 54.046875 
z
M 13.875 23.1875 
Q 13.875 18.65625 15.796875 14.5 
Q 17.71875 10.359375 21.1875 8.171875 
Q 24.65625 6 28.46875 6 
Q 34.03125 6 38.03125 10.484375 
Q 42.046875 14.984375 42.046875 22.703125 
Q 42.046875 30.125 38.078125 34.390625 
Q 34.125 38.671875 28.125 38.671875 
Q 22.171875 38.671875 18.015625 34.390625 
Q 13.875 30.125 13.875 23.1875 
z
" id="ArialMT-54"/>
    </defs>
    <g style="fill:#262626;" transform="translate(869.818578 37.2)scale(0.12 -0.12)">
     <use xlink:href="#ArialMT-55"/>
     <use x="55.615234" xlink:href="#ArialMT-50"/>
     <use x="111.230469" xlink:href="#ArialMT-54"/>
     <use x="166.845703" xlink:href="#ArialMT-58"/>
     <use x="194.628906" xlink:href="#ArialMT-49"/>
     <use x="250.244141" xlink:href="#ArialMT-46"/>
     <use x="278.027344" xlink:href="#ArialMT-54"/>
     <use x="333.642578" xlink:href="#ArialMT-53"/>
     <use x="389.257812" xlink:href="#ArialMT-55"/>
     <use x="444.873047" xlink:href="#ArialMT-52"/>
    </g>
   </g>
  </g>
  <g id="axes_6">
   <g id="patch_77">
    <path d="M 135 315 
L 279.310345 315 
L 279.310345 191.454545 
L 135 191.454545 
z
" style="fill:#ffffff;"/>
   </g>
   <g id="patch_78">
    <path clip-path="url(#p7a31d73cab)" d="M 188.166969 281.15193 
L 172.976407 281.15193 
" style="stroke:#000000;stroke-linejoin:miter;stroke-width:0.5;"/>
   </g>
   <g id="patch_79">
    <path clip-path="url(#p7a31d73cab)" d="M 203.357532 272.689913 
L 188.166969 281.15193 
" style="stroke:#000000;stroke-linejoin:miter;stroke-width:0.5;"/>
   </g>
   <g id="patch_80">
    <path clip-path="url(#p7a31d73cab)" d="M 188.166969 264.227895 
L 172.976407 264.227895 
" style="stroke:#000000;stroke-linejoin:miter;stroke-width:0.5;"/>
   </g>
   <g id="patch_81">
    <path clip-path="url(#p7a31d73cab)" d="M 203.357532 272.689913 
L 188.166969 264.227895 
" style="stroke:#000000;stroke-linejoin:miter;stroke-width:0.5;"/>
   </g>
   <g id="patch_82">
    <path clip-path="url(#p7a31d73cab)" d="M 218.548094 255.765878 
L 203.357532 272.689913 
" style="stroke:#000000;stroke-linejoin:miter;stroke-width:0.5;"/>
   </g>
   <g id="patch_83">
    <path clip-path="url(#p7a31d73cab)" d="M 188.166969 247.303861 
L 172.976407 247.303861 
" style="stroke:#000000;stroke-linejoin:miter;stroke-width:0.5;"/>
   </g>
   <g id="patch_84">
    <path clip-path="url(#p7a31d73cab)" d="M 203.357532 238.841843 
L 188.166969 247.303861 
" style="stroke:#000000;stroke-linejoin:miter;stroke-width:0.5;"/>
   </g>
   <g id="patch_85">
    <path clip-path="url(#p7a31d73cab)" d="M 188.166969 230.379826 
L 172.976407 230.379826 
" style="stroke:#000000;stroke-linejoin:miter;stroke-width:0.5;"/>
   </g>
   <g id="patch_86">
    <path clip-path="url(#p7a31d73cab)" d="M 203.357532 238.841843 
L 188.166969 230.379826 
" style="stroke:#000000;stroke-linejoin:miter;stroke-width:0.5;"/>
   </g>
   <g id="patch_87">
    <path clip-path="url(#p7a31d73cab)" d="M 218.548094 255.765878 
L 203.357532 238.841843 
" style="stroke:#000000;stroke-linejoin:miter;stroke-width:0.5;"/>
   </g>
   <g id="patch_88">
    <path clip-path="url(#p7a31d73cab)" d="M 233.738657 255.765878 
L 218.548094 255.765878 
" style="stroke:#000000;stroke-linejoin:miter;stroke-width:0.5;"/>
   </g>
   <g id="patch_89">
    <path clip-path="url(#p7a31d73cab)" d="M 248.92922 255.765878 
L 233.738657 255.765878 
" style="stroke:#000000;stroke-linejoin:miter;stroke-width:0.5;"/>
   </g>
   <g id="patch_90">
    <path clip-path="url(#p7a31d73cab)" d="M 248.92922 255.765878 
L 248.92922 247.303861 
" style="stroke:#000000;stroke-linejoin:miter;stroke-width:0.5;"/>
   </g>
   <g id="fd58ba3b45bf46359789337310b9a9a7-1-node">
    <path clip-path="url(#p7a31d73cab)" d="M 251.511615 252.888792 
L 251.511615 258.642964 
L 246.346824 258.642964 
L 246.346824 252.888792 
L 251.511615 252.888792 
z
" style="fill:#0000ff;stroke:#ffffff;stroke-linejoin:miter;stroke-width:0.5;"/>
   </g>
   <g id="fd58ba3b45bf46359789337310b9a9a7-4-node">
    <path clip-path="url(#p7a31d73cab)" d="M 236.321053 252.888792 
L 236.321053 258.642964 
L 231.156261 258.642964 
L 231.156261 252.888792 
L 236.321053 252.888792 
z
" style="fill:#0000ff;stroke:#ffffff;stroke-linejoin:miter;stroke-width:0.5;"/>
   </g>
   <g id="fd58ba3b45bf46359789337310b9a9a7-6-node">
    <path clip-path="url(#p7a31d73cab)" d="M 218.548094 258.642964 
C 219.232954 258.642964 219.889855 258.339816 220.374124 257.800285 
C 220.858393 257.260754 221.13049 256.52889 221.13049 255.765878 
C 221.13049 255.002866 220.858393 254.271002 220.374124 253.731471 
C 219.889855 253.19194 219.232954 252.888792 218.548094 252.888792 
C 217.863235 252.888792 217.206334 253.19194 216.722065 253.731471 
C 216.237796 254.271002 215.965699 255.002866 215.965699 255.765878 
C 215.965699 256.52889 216.237796 257.260754 216.722065 257.800285 
C 217.206334 258.339816 217.863235 258.642964 218.548094 258.642964 
z
" style="fill:#00c832;stroke:#ffffff;stroke-linejoin:miter;stroke-width:0.5;"/>
   </g>
   <g id="fd58ba3b45bf46359789337310b9a9a7-14-node">
    <path clip-path="url(#p7a31d73cab)" d="M 203.357532 275.566999 
C 204.042391 275.566999 204.699293 275.263851 205.183561 274.72432 
C 205.66783 274.184789 205.939927 273.452925 205.939927 272.689913 
C 205.939927 271.926901 205.66783 271.195037 205.183561 270.655506 
C 204.699293 270.115975 204.042391 269.812827 203.357532 269.812827 
C 202.672672 269.812827 202.015771 270.115975 201.531502 270.655506 
C 201.047234 271.195037 200.775136 271.926901 200.775136 272.689913 
C 200.775136 273.452925 201.047234 274.184789 201.531502 274.72432 
C 202.015771 275.263851 202.672672 275.566999 203.357532 275.566999 
z
" style="fill:#00c832;stroke:#ffffff;stroke-linejoin:miter;stroke-width:0.5;"/>
   </g>
   <g id="fd58ba3b45bf46359789337310b9a9a7-18-node">
    <path clip-path="url(#p7a31d73cab)" d="M 190.749365 278.274844 
L 190.749365 284.029016 
L 185.584574 284.029016 
L 185.584574 278.274844 
L 190.749365 278.274844 
z
" style="fill:#0000ff;stroke:#ffffff;stroke-linejoin:miter;stroke-width:0.5;"/>
   </g>
   <g id="fd58ba3b45bf46359789337310b9a9a7-20-node">
    <path clip-path="url(#p7a31d73cab)" d="M 172.976407 284.029016 
C 173.661266 284.029016 174.318167 283.725868 174.802436 283.186337 
C 175.286705 282.646806 175.558802 281.914942 175.558802 281.15193 
C 175.558802 280.388918 175.286705 279.657054 174.802436 279.117523 
C 174.318167 278.577992 173.661266 278.274844 172.976407 278.274844 
C 172.291547 278.274844 171.634646 278.577992 171.150377 279.117523 
C 170.666108 279.657054 170.394011 280.388918 170.394011 281.15193 
C 170.394011 281.914942 170.666108 282.646806 171.150377 283.186337 
C 171.634646 283.725868 172.291547 284.029016 172.976407 284.029016 
z
" style="fill:#ffff00;stroke:#ffffff;stroke-linejoin:miter;stroke-width:0.5;"/>
   </g>
   <g id="fd58ba3b45bf46359789337310b9a9a7-15-node">
    <path clip-path="url(#p7a31d73cab)" d="M 190.749365 261.350809 
L 190.749365 267.104981 
L 185.584574 267.104981 
L 185.584574 261.350809 
L 190.749365 261.350809 
z
" style="fill:#0000ff;stroke:#ffffff;stroke-linejoin:miter;stroke-width:0.5;"/>
   </g>
   <g id="fd58ba3b45bf46359789337310b9a9a7-17-node">
    <path clip-path="url(#p7a31d73cab)" d="M 172.976407 267.104981 
C 173.661266 267.104981 174.318167 266.801833 174.802436 266.262302 
C 175.286705 265.722771 175.558802 264.990907 175.558802 264.227895 
C 175.558802 263.464883 175.286705 262.733019 174.802436 262.193488 
C 174.318167 261.653957 173.661266 261.350809 172.976407 261.350809 
C 172.291547 261.350809 171.634646 261.653957 171.150377 262.193488 
C 170.666108 262.733019 170.394011 263.464883 170.394011 264.227895 
C 170.394011 264.990907 170.666108 265.722771 171.150377 266.262302 
C 171.634646 266.801833 172.291547 267.104981 172.976407 267.104981 
z
" style="fill:#ffff00;stroke:#ffffff;stroke-linejoin:miter;stroke-width:0.5;"/>
   </g>
   <g id="fd58ba3b45bf46359789337310b9a9a7-7-node">
    <path clip-path="url(#p7a31d73cab)" d="M 203.357532 241.718929 
C 204.042391 241.718929 204.699293 241.415781 205.183561 240.87625 
C 205.66783 240.336719 205.939927 239.604855 205.939927 238.841843 
C 205.939927 238.078831 205.66783 237.346967 205.183561 236.807436 
C 204.699293 236.267905 204.042391 235.964757 203.357532 235.964757 
C 202.672672 235.964757 202.015771 236.267905 201.531502 236.807436 
C 201.047234 237.346967 200.775136 238.078831 200.775136 238.841843 
C 200.775136 239.604855 201.047234 240.336719 201.531502 240.87625 
C 202.015771 241.415781 202.672672 241.718929 203.357532 241.718929 
z
" style="fill:#00c832;stroke:#ffffff;stroke-linejoin:miter;stroke-width:0.5;"/>
   </g>
   <g id="fd58ba3b45bf46359789337310b9a9a7-11-node">
    <path clip-path="url(#p7a31d73cab)" d="M 190.749365 244.426775 
L 190.749365 250.180946 
L 185.584574 250.180946 
L 185.584574 244.426775 
L 190.749365 244.426775 
z
" style="fill:#0000ff;stroke:#ffffff;stroke-linejoin:miter;stroke-width:0.5;"/>
   </g>
   <g id="fd58ba3b45bf46359789337310b9a9a7-13-node">
    <path clip-path="url(#p7a31d73cab)" d="M 172.976407 250.180946 
C 173.661266 250.180946 174.318167 249.877799 174.802436 249.338267 
C 175.286705 248.798736 175.558802 248.066873 175.558802 247.303861 
C 175.558802 246.540848 175.286705 245.808985 174.802436 245.269454 
C 174.318167 244.729923 173.661266 244.426775 172.976407 244.426775 
C 172.291547 244.426775 171.634646 244.729923 171.150377 245.269454 
C 170.666108 245.808985 170.394011 246.540848 170.394011 247.303861 
C 170.394011 248.066873 170.666108 248.798736 171.150377 249.338267 
C 171.634646 249.877799 172.291547 250.180946 172.976407 250.180946 
z
" style="fill:#ffff00;stroke:#ffffff;stroke-linejoin:miter;stroke-width:0.5;"/>
   </g>
   <g id="fd58ba3b45bf46359789337310b9a9a7-8-node">
    <path clip-path="url(#p7a31d73cab)" d="M 190.749365 227.50274 
L 190.749365 233.256912 
L 185.584574 233.256912 
L 185.584574 227.50274 
L 190.749365 227.50274 
z
" style="fill:#0000ff;stroke:#ffffff;stroke-linejoin:miter;stroke-width:0.5;"/>
   </g>
   <g id="fd58ba3b45bf46359789337310b9a9a7-10-node">
    <path clip-path="url(#p7a31d73cab)" d="M 172.976407 233.256912 
C 173.661266 233.256912 174.318167 232.953764 174.802436 232.414233 
C 175.286705 231.874702 175.558802 231.142838 175.558802 230.379826 
C 175.558802 229.616814 175.286705 228.88495 174.802436 228.345419 
C 174.318167 227.805888 173.661266 227.50274 172.976407 227.50274 
C 172.291547 227.50274 171.634646 227.805888 171.150377 228.345419 
C 170.666108 228.88495 170.394011 229.616814 170.394011 230.379826 
C 170.394011 231.142838 170.666108 231.874702 171.150377 232.414233 
C 171.634646 232.953764 172.291547 233.256912 172.976407 233.256912 
z
" style="fill:#ffff00;stroke:#ffffff;stroke-linejoin:miter;stroke-width:0.5;"/>
   </g>
   <g id="fd58ba3b45bf46359789337310b9a9a7-3-node">
    <path clip-path="url(#p7a31d73cab)" d="M 248.92922 244.426775 
L 246.692799 248.742403 
L 251.16564 248.742403 
z
" style="fill:#ff0000;stroke:#ffffff;stroke-linejoin:miter;stroke-width:0.5;"/>
   </g>
   <g id="patch_91">
    <path d="M 135 315 
L 135 191.454545 
" style="fill:none;stroke:#ffffff;stroke-linecap:square;stroke-linejoin:miter;stroke-width:1.25;"/>
   </g>
   <g id="patch_92">
    <path d="M 279.310345 315 
L 279.310345 191.454545 
" style="fill:none;stroke:#ffffff;stroke-linecap:square;stroke-linejoin:miter;stroke-width:1.25;"/>
   </g>
   <g id="patch_93">
    <path d="M 135 315 
L 279.310345 315 
" style="fill:none;stroke:#ffffff;stroke-linecap:square;stroke-linejoin:miter;stroke-width:1.25;"/>
   </g>
   <g id="patch_94">
    <path d="M 135 191.454545 
L 279.310345 191.454545 
" style="fill:none;stroke:#ffffff;stroke-linecap:square;stroke-linejoin:miter;stroke-width:1.25;"/>
   </g>
   <g id="text_6">
    <!-- 924:1.8858 -->
    <defs>
     <path d="M 17.671875 38.8125 
Q 12.203125 40.828125 9.5625 44.53125 
Q 6.9375 48.25 6.9375 53.421875 
Q 6.9375 61.234375 12.546875 66.546875 
Q 18.171875 71.875 27.484375 71.875 
Q 36.859375 71.875 42.578125 66.421875 
Q 48.296875 60.984375 48.296875 53.171875 
Q 48.296875 48.1875 45.671875 44.5 
Q 43.0625 40.828125 37.75 38.8125 
Q 44.34375 36.671875 47.78125 31.875 
Q 51.21875 27.09375 51.21875 20.453125 
Q 51.21875 11.28125 44.71875 5.03125 
Q 38.234375 -1.21875 27.640625 -1.21875 
Q 17.046875 -1.21875 10.546875 5.046875 
Q 4.046875 11.328125 4.046875 20.703125 
Q 4.046875 27.6875 7.59375 32.390625 
Q 11.140625 37.109375 17.671875 38.8125 
z
M 15.921875 53.71875 
Q 15.921875 48.640625 19.1875 45.40625 
Q 22.46875 42.1875 27.6875 42.1875 
Q 32.765625 42.1875 36.015625 45.375 
Q 39.265625 48.578125 39.265625 53.21875 
Q 39.265625 58.0625 35.90625 61.359375 
Q 32.5625 64.65625 27.59375 64.65625 
Q 22.5625 64.65625 19.234375 61.421875 
Q 15.921875 58.203125 15.921875 53.71875 
z
M 13.09375 20.65625 
Q 13.09375 16.890625 14.875 13.375 
Q 16.65625 9.859375 20.171875 7.921875 
Q 23.6875 6 27.734375 6 
Q 34.03125 6 38.125 10.046875 
Q 42.234375 14.109375 42.234375 20.359375 
Q 42.234375 26.703125 38.015625 30.859375 
Q 33.796875 35.015625 27.4375 35.015625 
Q 21.234375 35.015625 17.15625 30.90625 
Q 13.09375 26.8125 13.09375 20.65625 
z
" id="ArialMT-56"/>
    </defs>
    <g style="fill:#262626;" transform="translate(177.128922 185.454545)scale(0.12 -0.12)">
     <use xlink:href="#ArialMT-57"/>
     <use x="55.615234" xlink:href="#ArialMT-50"/>
     <use x="111.230469" xlink:href="#ArialMT-52"/>
     <use x="166.845703" xlink:href="#ArialMT-58"/>
     <use x="194.628906" xlink:href="#ArialMT-49"/>
     <use x="250.244141" xlink:href="#ArialMT-46"/>
     <use x="278.027344" xlink:href="#ArialMT-56"/>
     <use x="333.642578" xlink:href="#ArialMT-56"/>
     <use x="389.257812" xlink:href="#ArialMT-53"/>
     <use x="444.873047" xlink:href="#ArialMT-56"/>
    </g>
   </g>
  </g>
  <g id="axes_7">
   <g id="patch_95">
    <path d="M 308.172414 315 
L 452.482759 315 
L 452.482759 191.454545 
L 308.172414 191.454545 
z
" style="fill:#eaeaf2;"/>
   </g>
   <g id="matplotlib.axis_1">
    <g id="xtick_1">
     <g id="line2d_1">
      <path clip-path="url(#pa9983bd7fb)" d="M 308.172414 315 
L 308.172414 191.454545 
" style="fill:none;stroke:#ffffff;stroke-linecap:round;"/>
     </g>
     <g id="text_7">
      <!-- 0.00 -->
      <g style="fill:#262626;" transform="translate(297.468898 332.373594)scale(0.11 -0.11)">
       <use xlink:href="#ArialMT-48"/>
       <use x="55.615234" xlink:href="#ArialMT-46"/>
       <use x="83.398438" xlink:href="#ArialMT-48"/>
       <use x="139.013672" xlink:href="#ArialMT-48"/>
      </g>
     </g>
    </g>
    <g id="xtick_2">
     <g id="line2d_2">
      <path clip-path="url(#pa9983bd7fb)" d="M 344.25 315 
L 344.25 191.454545 
" style="fill:none;stroke:#ffffff;stroke-linecap:round;"/>
     </g>
     <g id="text_8">
      <!-- 0.25 -->
      <g style="fill:#262626;" transform="translate(333.546484 332.373594)scale(0.11 -0.11)">
       <use xlink:href="#ArialMT-48"/>
       <use x="55.615234" xlink:href="#ArialMT-46"/>
       <use x="83.398438" xlink:href="#ArialMT-50"/>
       <use x="139.013672" xlink:href="#ArialMT-53"/>
      </g>
     </g>
    </g>
    <g id="xtick_3">
     <g id="line2d_3">
      <path clip-path="url(#pa9983bd7fb)" d="M 380.327586 315 
L 380.327586 191.454545 
" style="fill:none;stroke:#ffffff;stroke-linecap:round;"/>
     </g>
     <g id="text_9">
      <!-- 0.50 -->
      <g style="fill:#262626;" transform="translate(369.624071 332.373594)scale(0.11 -0.11)">
       <use xlink:href="#ArialMT-48"/>
       <use x="55.615234" xlink:href="#ArialMT-46"/>
       <use x="83.398438" xlink:href="#ArialMT-53"/>
       <use x="139.013672" xlink:href="#ArialMT-48"/>
      </g>
     </g>
    </g>
    <g id="xtick_4">
     <g id="line2d_4">
      <path clip-path="url(#pa9983bd7fb)" d="M 416.405172 315 
L 416.405172 191.454545 
" style="fill:none;stroke:#ffffff;stroke-linecap:round;"/>
     </g>
     <g id="text_10">
      <!-- 0.75 -->
      <g style="fill:#262626;" transform="translate(405.701657 332.373594)scale(0.11 -0.11)">
       <use xlink:href="#ArialMT-48"/>
       <use x="55.615234" xlink:href="#ArialMT-46"/>
       <use x="83.398438" xlink:href="#ArialMT-55"/>
       <use x="139.013672" xlink:href="#ArialMT-53"/>
      </g>
     </g>
    </g>
    <g id="xtick_5">
     <g id="line2d_5">
      <path clip-path="url(#pa9983bd7fb)" d="M 452.482759 315 
L 452.482759 191.454545 
" style="fill:none;stroke:#ffffff;stroke-linecap:round;"/>
     </g>
     <g id="text_11">
      <!-- 1.00 -->
      <g style="fill:#262626;" transform="translate(441.779243 332.373594)scale(0.11 -0.11)">
       <use xlink:href="#ArialMT-49"/>
       <use x="55.615234" xlink:href="#ArialMT-46"/>
       <use x="83.398438" xlink:href="#ArialMT-48"/>
       <use x="139.013672" xlink:href="#ArialMT-48"/>
      </g>
     </g>
    </g>
   </g>
   <g id="matplotlib.axis_2">
    <g id="ytick_1">
     <g id="line2d_6">
      <path clip-path="url(#pa9983bd7fb)" d="M 308.172414 315 
L 452.482759 315 
" style="fill:none;stroke:#ffffff;stroke-linecap:round;"/>
     </g>
     <g id="text_12">
      <!-- 0.0 -->
      <g style="fill:#262626;" transform="translate(283.382414 318.936797)scale(0.11 -0.11)">
       <use xlink:href="#ArialMT-48"/>
       <use x="55.615234" xlink:href="#ArialMT-46"/>
       <use x="83.398438" xlink:href="#ArialMT-48"/>
      </g>
     </g>
    </g>
    <g id="ytick_2">
     <g id="line2d_7">
      <path clip-path="url(#pa9983bd7fb)" d="M 308.172414 290.290909 
L 452.482759 290.290909 
" style="fill:none;stroke:#ffffff;stroke-linecap:round;"/>
     </g>
     <g id="text_13">
      <!-- 0.2 -->
      <g style="fill:#262626;" transform="translate(283.382414 294.227706)scale(0.11 -0.11)">
       <use xlink:href="#ArialMT-48"/>
       <use x="55.615234" xlink:href="#ArialMT-46"/>
       <use x="83.398438" xlink:href="#ArialMT-50"/>
      </g>
     </g>
    </g>
    <g id="ytick_3">
     <g id="line2d_8">
      <path clip-path="url(#pa9983bd7fb)" d="M 308.172414 265.581818 
L 452.482759 265.581818 
" style="fill:none;stroke:#ffffff;stroke-linecap:round;"/>
     </g>
     <g id="text_14">
      <!-- 0.4 -->
      <g style="fill:#262626;" transform="translate(283.382414 269.518615)scale(0.11 -0.11)">
       <use xlink:href="#ArialMT-48"/>
       <use x="55.615234" xlink:href="#ArialMT-46"/>
       <use x="83.398438" xlink:href="#ArialMT-52"/>
      </g>
     </g>
    </g>
    <g id="ytick_4">
     <g id="line2d_9">
      <path clip-path="url(#pa9983bd7fb)" d="M 308.172414 240.872727 
L 452.482759 240.872727 
" style="fill:none;stroke:#ffffff;stroke-linecap:round;"/>
     </g>
     <g id="text_15">
      <!-- 0.6 -->
      <g style="fill:#262626;" transform="translate(283.382414 244.809524)scale(0.11 -0.11)">
       <use xlink:href="#ArialMT-48"/>
       <use x="55.615234" xlink:href="#ArialMT-46"/>
       <use x="83.398438" xlink:href="#ArialMT-54"/>
      </g>
     </g>
    </g>
    <g id="ytick_5">
     <g id="line2d_10">
      <path clip-path="url(#pa9983bd7fb)" d="M 308.172414 216.163636 
L 452.482759 216.163636 
" style="fill:none;stroke:#ffffff;stroke-linecap:round;"/>
     </g>
     <g id="text_16">
      <!-- 0.8 -->
      <g style="fill:#262626;" transform="translate(283.382414 220.100433)scale(0.11 -0.11)">
       <use xlink:href="#ArialMT-48"/>
       <use x="55.615234" xlink:href="#ArialMT-46"/>
       <use x="83.398438" xlink:href="#ArialMT-56"/>
      </g>
     </g>
    </g>
    <g id="ytick_6">
     <g id="line2d_11">
      <path clip-path="url(#pa9983bd7fb)" d="M 308.172414 191.454545 
L 452.482759 191.454545 
" style="fill:none;stroke:#ffffff;stroke-linecap:round;"/>
     </g>
     <g id="text_17">
      <!-- 1.0 -->
      <g style="fill:#262626;" transform="translate(283.382414 195.391342)scale(0.11 -0.11)">
       <use xlink:href="#ArialMT-49"/>
       <use x="55.615234" xlink:href="#ArialMT-46"/>
       <use x="83.398438" xlink:href="#ArialMT-48"/>
      </g>
     </g>
    </g>
   </g>
   <g id="patch_96">
    <path d="M 308.172414 315 
L 308.172414 191.454545 
" style="fill:none;stroke:#ffffff;stroke-linecap:square;stroke-linejoin:miter;stroke-width:1.25;"/>
   </g>
   <g id="patch_97">
    <path d="M 452.482759 315 
L 452.482759 191.454545 
" style="fill:none;stroke:#ffffff;stroke-linecap:square;stroke-linejoin:miter;stroke-width:1.25;"/>
   </g>
   <g id="patch_98">
    <path d="M 308.172414 315 
L 452.482759 315 
" style="fill:none;stroke:#ffffff;stroke-linecap:square;stroke-linejoin:miter;stroke-width:1.25;"/>
   </g>
   <g id="patch_99">
    <path d="M 308.172414 191.454545 
L 452.482759 191.454545 
" style="fill:none;stroke:#ffffff;stroke-linecap:square;stroke-linejoin:miter;stroke-width:1.25;"/>
   </g>
  </g>
  <g id="axes_8">
   <g id="patch_100">
    <path d="M 481.344828 315 
L 625.655172 315 
L 625.655172 191.454545 
L 481.344828 191.454545 
z
" style="fill:#eaeaf2;"/>
   </g>
   <g id="matplotlib.axis_3">
    <g id="xtick_6">
     <g id="line2d_12">
      <path clip-path="url(#p833074d766)" d="M 481.344828 315 
L 481.344828 191.454545 
" style="fill:none;stroke:#ffffff;stroke-linecap:round;"/>
     </g>
     <g id="text_18">
      <!-- 0.00 -->
      <g style="fill:#262626;" transform="translate(470.641312 332.373594)scale(0.11 -0.11)">
       <use xlink:href="#ArialMT-48"/>
       <use x="55.615234" xlink:href="#ArialMT-46"/>
       <use x="83.398438" xlink:href="#ArialMT-48"/>
       <use x="139.013672" xlink:href="#ArialMT-48"/>
      </g>
     </g>
    </g>
    <g id="xtick_7">
     <g id="line2d_13">
      <path clip-path="url(#p833074d766)" d="M 517.422414 315 
L 517.422414 191.454545 
" style="fill:none;stroke:#ffffff;stroke-linecap:round;"/>
     </g>
     <g id="text_19">
      <!-- 0.25 -->
      <g style="fill:#262626;" transform="translate(506.718898 332.373594)scale(0.11 -0.11)">
       <use xlink:href="#ArialMT-48"/>
       <use x="55.615234" xlink:href="#ArialMT-46"/>
       <use x="83.398438" xlink:href="#ArialMT-50"/>
       <use x="139.013672" xlink:href="#ArialMT-53"/>
      </g>
     </g>
    </g>
    <g id="xtick_8">
     <g id="line2d_14">
      <path clip-path="url(#p833074d766)" d="M 553.5 315 
L 553.5 191.454545 
" style="fill:none;stroke:#ffffff;stroke-linecap:round;"/>
     </g>
     <g id="text_20">
      <!-- 0.50 -->
      <g style="fill:#262626;" transform="translate(542.796484 332.373594)scale(0.11 -0.11)">
       <use xlink:href="#ArialMT-48"/>
       <use x="55.615234" xlink:href="#ArialMT-46"/>
       <use x="83.398438" xlink:href="#ArialMT-53"/>
       <use x="139.013672" xlink:href="#ArialMT-48"/>
      </g>
     </g>
    </g>
    <g id="xtick_9">
     <g id="line2d_15">
      <path clip-path="url(#p833074d766)" d="M 589.577586 315 
L 589.577586 191.454545 
" style="fill:none;stroke:#ffffff;stroke-linecap:round;"/>
     </g>
     <g id="text_21">
      <!-- 0.75 -->
      <g style="fill:#262626;" transform="translate(578.874071 332.373594)scale(0.11 -0.11)">
       <use xlink:href="#ArialMT-48"/>
       <use x="55.615234" xlink:href="#ArialMT-46"/>
       <use x="83.398438" xlink:href="#ArialMT-55"/>
       <use x="139.013672" xlink:href="#ArialMT-53"/>
      </g>
     </g>
    </g>
    <g id="xtick_10">
     <g id="line2d_16">
      <path clip-path="url(#p833074d766)" d="M 625.655172 315 
L 625.655172 191.454545 
" style="fill:none;stroke:#ffffff;stroke-linecap:round;"/>
     </g>
     <g id="text_22">
      <!-- 1.00 -->
      <g style="fill:#262626;" transform="translate(614.951657 332.373594)scale(0.11 -0.11)">
       <use xlink:href="#ArialMT-49"/>
       <use x="55.615234" xlink:href="#ArialMT-46"/>
       <use x="83.398438" xlink:href="#ArialMT-48"/>
       <use x="139.013672" xlink:href="#ArialMT-48"/>
      </g>
     </g>
    </g>
   </g>
   <g id="matplotlib.axis_4">
    <g id="ytick_7">
     <g id="line2d_17">
      <path clip-path="url(#p833074d766)" d="M 481.344828 315 
L 625.655172 315 
" style="fill:none;stroke:#ffffff;stroke-linecap:round;"/>
     </g>
     <g id="text_23">
      <!-- 0.0 -->
      <g style="fill:#262626;" transform="translate(456.554828 318.936797)scale(0.11 -0.11)">
       <use xlink:href="#ArialMT-48"/>
       <use x="55.615234" xlink:href="#ArialMT-46"/>
       <use x="83.398438" xlink:href="#ArialMT-48"/>
      </g>
     </g>
    </g>
    <g id="ytick_8">
     <g id="line2d_18">
      <path clip-path="url(#p833074d766)" d="M 481.344828 290.290909 
L 625.655172 290.290909 
" style="fill:none;stroke:#ffffff;stroke-linecap:round;"/>
     </g>
     <g id="text_24">
      <!-- 0.2 -->
      <g style="fill:#262626;" transform="translate(456.554828 294.227706)scale(0.11 -0.11)">
       <use xlink:href="#ArialMT-48"/>
       <use x="55.615234" xlink:href="#ArialMT-46"/>
       <use x="83.398438" xlink:href="#ArialMT-50"/>
      </g>
     </g>
    </g>
    <g id="ytick_9">
     <g id="line2d_19">
      <path clip-path="url(#p833074d766)" d="M 481.344828 265.581818 
L 625.655172 265.581818 
" style="fill:none;stroke:#ffffff;stroke-linecap:round;"/>
     </g>
     <g id="text_25">
      <!-- 0.4 -->
      <g style="fill:#262626;" transform="translate(456.554828 269.518615)scale(0.11 -0.11)">
       <use xlink:href="#ArialMT-48"/>
       <use x="55.615234" xlink:href="#ArialMT-46"/>
       <use x="83.398438" xlink:href="#ArialMT-52"/>
      </g>
     </g>
    </g>
    <g id="ytick_10">
     <g id="line2d_20">
      <path clip-path="url(#p833074d766)" d="M 481.344828 240.872727 
L 625.655172 240.872727 
" style="fill:none;stroke:#ffffff;stroke-linecap:round;"/>
     </g>
     <g id="text_26">
      <!-- 0.6 -->
      <g style="fill:#262626;" transform="translate(456.554828 244.809524)scale(0.11 -0.11)">
       <use xlink:href="#ArialMT-48"/>
       <use x="55.615234" xlink:href="#ArialMT-46"/>
       <use x="83.398438" xlink:href="#ArialMT-54"/>
      </g>
     </g>
    </g>
    <g id="ytick_11">
     <g id="line2d_21">
      <path clip-path="url(#p833074d766)" d="M 481.344828 216.163636 
L 625.655172 216.163636 
" style="fill:none;stroke:#ffffff;stroke-linecap:round;"/>
     </g>
     <g id="text_27">
      <!-- 0.8 -->
      <g style="fill:#262626;" transform="translate(456.554828 220.100433)scale(0.11 -0.11)">
       <use xlink:href="#ArialMT-48"/>
       <use x="55.615234" xlink:href="#ArialMT-46"/>
       <use x="83.398438" xlink:href="#ArialMT-56"/>
      </g>
     </g>
    </g>
    <g id="ytick_12">
     <g id="line2d_22">
      <path clip-path="url(#p833074d766)" d="M 481.344828 191.454545 
L 625.655172 191.454545 
" style="fill:none;stroke:#ffffff;stroke-linecap:round;"/>
     </g>
     <g id="text_28">
      <!-- 1.0 -->
      <g style="fill:#262626;" transform="translate(456.554828 195.391342)scale(0.11 -0.11)">
       <use xlink:href="#ArialMT-49"/>
       <use x="55.615234" xlink:href="#ArialMT-46"/>
       <use x="83.398438" xlink:href="#ArialMT-48"/>
      </g>
     </g>
    </g>
   </g>
   <g id="patch_101">
    <path d="M 481.344828 315 
L 481.344828 191.454545 
" style="fill:none;stroke:#ffffff;stroke-linecap:square;stroke-linejoin:miter;stroke-width:1.25;"/>
   </g>
   <g id="patch_102">
    <path d="M 625.655172 315 
L 625.655172 191.454545 
" style="fill:none;stroke:#ffffff;stroke-linecap:square;stroke-linejoin:miter;stroke-width:1.25;"/>
   </g>
   <g id="patch_103">
    <path d="M 481.344828 315 
L 625.655172 315 
" style="fill:none;stroke:#ffffff;stroke-linecap:square;stroke-linejoin:miter;stroke-width:1.25;"/>
   </g>
   <g id="patch_104">
    <path d="M 481.344828 191.454545 
L 625.655172 191.454545 
" style="fill:none;stroke:#ffffff;stroke-linecap:square;stroke-linejoin:miter;stroke-width:1.25;"/>
   </g>
  </g>
  <g id="axes_9">
   <g id="patch_105">
    <path d="M 654.517241 315 
L 798.827586 315 
L 798.827586 191.454545 
L 654.517241 191.454545 
z
" style="fill:#eaeaf2;"/>
   </g>
   <g id="matplotlib.axis_5">
    <g id="xtick_11">
     <g id="line2d_23">
      <path clip-path="url(#pb68669bb5d)" d="M 654.517241 315 
L 654.517241 191.454545 
" style="fill:none;stroke:#ffffff;stroke-linecap:round;"/>
     </g>
     <g id="text_29">
      <!-- 0.00 -->
      <g style="fill:#262626;" transform="translate(643.813726 332.373594)scale(0.11 -0.11)">
       <use xlink:href="#ArialMT-48"/>
       <use x="55.615234" xlink:href="#ArialMT-46"/>
       <use x="83.398438" xlink:href="#ArialMT-48"/>
       <use x="139.013672" xlink:href="#ArialMT-48"/>
      </g>
     </g>
    </g>
    <g id="xtick_12">
     <g id="line2d_24">
      <path clip-path="url(#pb68669bb5d)" d="M 690.594828 315 
L 690.594828 191.454545 
" style="fill:none;stroke:#ffffff;stroke-linecap:round;"/>
     </g>
     <g id="text_30">
      <!-- 0.25 -->
      <g style="fill:#262626;" transform="translate(679.891312 332.373594)scale(0.11 -0.11)">
       <use xlink:href="#ArialMT-48"/>
       <use x="55.615234" xlink:href="#ArialMT-46"/>
       <use x="83.398438" xlink:href="#ArialMT-50"/>
       <use x="139.013672" xlink:href="#ArialMT-53"/>
      </g>
     </g>
    </g>
    <g id="xtick_13">
     <g id="line2d_25">
      <path clip-path="url(#pb68669bb5d)" d="M 726.672414 315 
L 726.672414 191.454545 
" style="fill:none;stroke:#ffffff;stroke-linecap:round;"/>
     </g>
     <g id="text_31">
      <!-- 0.50 -->
      <g style="fill:#262626;" transform="translate(715.968898 332.373594)scale(0.11 -0.11)">
       <use xlink:href="#ArialMT-48"/>
       <use x="55.615234" xlink:href="#ArialMT-46"/>
       <use x="83.398438" xlink:href="#ArialMT-53"/>
       <use x="139.013672" xlink:href="#ArialMT-48"/>
      </g>
     </g>
    </g>
    <g id="xtick_14">
     <g id="line2d_26">
      <path clip-path="url(#pb68669bb5d)" d="M 762.75 315 
L 762.75 191.454545 
" style="fill:none;stroke:#ffffff;stroke-linecap:round;"/>
     </g>
     <g id="text_32">
      <!-- 0.75 -->
      <g style="fill:#262626;" transform="translate(752.046484 332.373594)scale(0.11 -0.11)">
       <use xlink:href="#ArialMT-48"/>
       <use x="55.615234" xlink:href="#ArialMT-46"/>
       <use x="83.398438" xlink:href="#ArialMT-55"/>
       <use x="139.013672" xlink:href="#ArialMT-53"/>
      </g>
     </g>
    </g>
    <g id="xtick_15">
     <g id="line2d_27">
      <path clip-path="url(#pb68669bb5d)" d="M 798.827586 315 
L 798.827586 191.454545 
" style="fill:none;stroke:#ffffff;stroke-linecap:round;"/>
     </g>
     <g id="text_33">
      <!-- 1.00 -->
      <g style="fill:#262626;" transform="translate(788.124071 332.373594)scale(0.11 -0.11)">
       <use xlink:href="#ArialMT-49"/>
       <use x="55.615234" xlink:href="#ArialMT-46"/>
       <use x="83.398438" xlink:href="#ArialMT-48"/>
       <use x="139.013672" xlink:href="#ArialMT-48"/>
      </g>
     </g>
    </g>
   </g>
   <g id="matplotlib.axis_6">
    <g id="ytick_13">
     <g id="line2d_28">
      <path clip-path="url(#pb68669bb5d)" d="M 654.517241 315 
L 798.827586 315 
" style="fill:none;stroke:#ffffff;stroke-linecap:round;"/>
     </g>
     <g id="text_34">
      <!-- 0.0 -->
      <g style="fill:#262626;" transform="translate(629.727241 318.936797)scale(0.11 -0.11)">
       <use xlink:href="#ArialMT-48"/>
       <use x="55.615234" xlink:href="#ArialMT-46"/>
       <use x="83.398438" xlink:href="#ArialMT-48"/>
      </g>
     </g>
    </g>
    <g id="ytick_14">
     <g id="line2d_29">
      <path clip-path="url(#pb68669bb5d)" d="M 654.517241 290.290909 
L 798.827586 290.290909 
" style="fill:none;stroke:#ffffff;stroke-linecap:round;"/>
     </g>
     <g id="text_35">
      <!-- 0.2 -->
      <g style="fill:#262626;" transform="translate(629.727241 294.227706)scale(0.11 -0.11)">
       <use xlink:href="#ArialMT-48"/>
       <use x="55.615234" xlink:href="#ArialMT-46"/>
       <use x="83.398438" xlink:href="#ArialMT-50"/>
      </g>
     </g>
    </g>
    <g id="ytick_15">
     <g id="line2d_30">
      <path clip-path="url(#pb68669bb5d)" d="M 654.517241 265.581818 
L 798.827586 265.581818 
" style="fill:none;stroke:#ffffff;stroke-linecap:round;"/>
     </g>
     <g id="text_36">
      <!-- 0.4 -->
      <g style="fill:#262626;" transform="translate(629.727241 269.518615)scale(0.11 -0.11)">
       <use xlink:href="#ArialMT-48"/>
       <use x="55.615234" xlink:href="#ArialMT-46"/>
       <use x="83.398438" xlink:href="#ArialMT-52"/>
      </g>
     </g>
    </g>
    <g id="ytick_16">
     <g id="line2d_31">
      <path clip-path="url(#pb68669bb5d)" d="M 654.517241 240.872727 
L 798.827586 240.872727 
" style="fill:none;stroke:#ffffff;stroke-linecap:round;"/>
     </g>
     <g id="text_37">
      <!-- 0.6 -->
      <g style="fill:#262626;" transform="translate(629.727241 244.809524)scale(0.11 -0.11)">
       <use xlink:href="#ArialMT-48"/>
       <use x="55.615234" xlink:href="#ArialMT-46"/>
       <use x="83.398438" xlink:href="#ArialMT-54"/>
      </g>
     </g>
    </g>
    <g id="ytick_17">
     <g id="line2d_32">
      <path clip-path="url(#pb68669bb5d)" d="M 654.517241 216.163636 
L 798.827586 216.163636 
" style="fill:none;stroke:#ffffff;stroke-linecap:round;"/>
     </g>
     <g id="text_38">
      <!-- 0.8 -->
      <g style="fill:#262626;" transform="translate(629.727241 220.100433)scale(0.11 -0.11)">
       <use xlink:href="#ArialMT-48"/>
       <use x="55.615234" xlink:href="#ArialMT-46"/>
       <use x="83.398438" xlink:href="#ArialMT-56"/>
      </g>
     </g>
    </g>
    <g id="ytick_18">
     <g id="line2d_33">
      <path clip-path="url(#pb68669bb5d)" d="M 654.517241 191.454545 
L 798.827586 191.454545 
" style="fill:none;stroke:#ffffff;stroke-linecap:round;"/>
     </g>
     <g id="text_39">
      <!-- 1.0 -->
      <g style="fill:#262626;" transform="translate(629.727241 195.391342)scale(0.11 -0.11)">
       <use xlink:href="#ArialMT-49"/>
       <use x="55.615234" xlink:href="#ArialMT-46"/>
       <use x="83.398438" xlink:href="#ArialMT-48"/>
      </g>
     </g>
    </g>
   </g>
   <g id="patch_106">
    <path d="M 654.517241 315 
L 654.517241 191.454545 
" style="fill:none;stroke:#ffffff;stroke-linecap:square;stroke-linejoin:miter;stroke-width:1.25;"/>
   </g>
   <g id="patch_107">
    <path d="M 798.827586 315 
L 798.827586 191.454545 
" style="fill:none;stroke:#ffffff;stroke-linecap:square;stroke-linejoin:miter;stroke-width:1.25;"/>
   </g>
   <g id="patch_108">
    <path d="M 654.517241 315 
L 798.827586 315 
" style="fill:none;stroke:#ffffff;stroke-linecap:square;stroke-linejoin:miter;stroke-width:1.25;"/>
   </g>
   <g id="patch_109">
    <path d="M 654.517241 191.454545 
L 798.827586 191.454545 
" style="fill:none;stroke:#ffffff;stroke-linecap:square;stroke-linejoin:miter;stroke-width:1.25;"/>
   </g>
  </g>
  <g id="axes_10">
   <g id="patch_110">
    <path d="M 827.689655 315 
L 972 315 
L 972 191.454545 
L 827.689655 191.454545 
z
" style="fill:#eaeaf2;"/>
   </g>
   <g id="matplotlib.axis_7">
    <g id="xtick_16">
     <g id="line2d_34">
      <path clip-path="url(#p9bf02dbdeb)" d="M 827.689655 315 
L 827.689655 191.454545 
" style="fill:none;stroke:#ffffff;stroke-linecap:round;"/>
     </g>
     <g id="text_40">
      <!-- 0.00 -->
      <g style="fill:#262626;" transform="translate(816.98614 332.373594)scale(0.11 -0.11)">
       <use xlink:href="#ArialMT-48"/>
       <use x="55.615234" xlink:href="#ArialMT-46"/>
       <use x="83.398438" xlink:href="#ArialMT-48"/>
       <use x="139.013672" xlink:href="#ArialMT-48"/>
      </g>
     </g>
    </g>
    <g id="xtick_17">
     <g id="line2d_35">
      <path clip-path="url(#p9bf02dbdeb)" d="M 863.767241 315 
L 863.767241 191.454545 
" style="fill:none;stroke:#ffffff;stroke-linecap:round;"/>
     </g>
     <g id="text_41">
      <!-- 0.25 -->
      <g style="fill:#262626;" transform="translate(853.063726 332.373594)scale(0.11 -0.11)">
       <use xlink:href="#ArialMT-48"/>
       <use x="55.615234" xlink:href="#ArialMT-46"/>
       <use x="83.398438" xlink:href="#ArialMT-50"/>
       <use x="139.013672" xlink:href="#ArialMT-53"/>
      </g>
     </g>
    </g>
    <g id="xtick_18">
     <g id="line2d_36">
      <path clip-path="url(#p9bf02dbdeb)" d="M 899.844828 315 
L 899.844828 191.454545 
" style="fill:none;stroke:#ffffff;stroke-linecap:round;"/>
     </g>
     <g id="text_42">
      <!-- 0.50 -->
      <g style="fill:#262626;" transform="translate(889.141312 332.373594)scale(0.11 -0.11)">
       <use xlink:href="#ArialMT-48"/>
       <use x="55.615234" xlink:href="#ArialMT-46"/>
       <use x="83.398438" xlink:href="#ArialMT-53"/>
       <use x="139.013672" xlink:href="#ArialMT-48"/>
      </g>
     </g>
    </g>
    <g id="xtick_19">
     <g id="line2d_37">
      <path clip-path="url(#p9bf02dbdeb)" d="M 935.922414 315 
L 935.922414 191.454545 
" style="fill:none;stroke:#ffffff;stroke-linecap:round;"/>
     </g>
     <g id="text_43">
      <!-- 0.75 -->
      <g style="fill:#262626;" transform="translate(925.218898 332.373594)scale(0.11 -0.11)">
       <use xlink:href="#ArialMT-48"/>
       <use x="55.615234" xlink:href="#ArialMT-46"/>
       <use x="83.398438" xlink:href="#ArialMT-55"/>
       <use x="139.013672" xlink:href="#ArialMT-53"/>
      </g>
     </g>
    </g>
    <g id="xtick_20">
     <g id="line2d_38">
      <path clip-path="url(#p9bf02dbdeb)" d="M 972 315 
L 972 191.454545 
" style="fill:none;stroke:#ffffff;stroke-linecap:round;"/>
     </g>
     <g id="text_44">
      <!-- 1.00 -->
      <g style="fill:#262626;" transform="translate(961.296484 332.373594)scale(0.11 -0.11)">
       <use xlink:href="#ArialMT-49"/>
       <use x="55.615234" xlink:href="#ArialMT-46"/>
       <use x="83.398438" xlink:href="#ArialMT-48"/>
       <use x="139.013672" xlink:href="#ArialMT-48"/>
      </g>
     </g>
    </g>
   </g>
   <g id="matplotlib.axis_8">
    <g id="ytick_19">
     <g id="line2d_39">
      <path clip-path="url(#p9bf02dbdeb)" d="M 827.689655 315 
L 972 315 
" style="fill:none;stroke:#ffffff;stroke-linecap:round;"/>
     </g>
     <g id="text_45">
      <!-- 0.0 -->
      <g style="fill:#262626;" transform="translate(802.899655 318.936797)scale(0.11 -0.11)">
       <use xlink:href="#ArialMT-48"/>
       <use x="55.615234" xlink:href="#ArialMT-46"/>
       <use x="83.398438" xlink:href="#ArialMT-48"/>
      </g>
     </g>
    </g>
    <g id="ytick_20">
     <g id="line2d_40">
      <path clip-path="url(#p9bf02dbdeb)" d="M 827.689655 290.290909 
L 972 290.290909 
" style="fill:none;stroke:#ffffff;stroke-linecap:round;"/>
     </g>
     <g id="text_46">
      <!-- 0.2 -->
      <g style="fill:#262626;" transform="translate(802.899655 294.227706)scale(0.11 -0.11)">
       <use xlink:href="#ArialMT-48"/>
       <use x="55.615234" xlink:href="#ArialMT-46"/>
       <use x="83.398438" xlink:href="#ArialMT-50"/>
      </g>
     </g>
    </g>
    <g id="ytick_21">
     <g id="line2d_41">
      <path clip-path="url(#p9bf02dbdeb)" d="M 827.689655 265.581818 
L 972 265.581818 
" style="fill:none;stroke:#ffffff;stroke-linecap:round;"/>
     </g>
     <g id="text_47">
      <!-- 0.4 -->
      <g style="fill:#262626;" transform="translate(802.899655 269.518615)scale(0.11 -0.11)">
       <use xlink:href="#ArialMT-48"/>
       <use x="55.615234" xlink:href="#ArialMT-46"/>
       <use x="83.398438" xlink:href="#ArialMT-52"/>
      </g>
     </g>
    </g>
    <g id="ytick_22">
     <g id="line2d_42">
      <path clip-path="url(#p9bf02dbdeb)" d="M 827.689655 240.872727 
L 972 240.872727 
" style="fill:none;stroke:#ffffff;stroke-linecap:round;"/>
     </g>
     <g id="text_48">
      <!-- 0.6 -->
      <g style="fill:#262626;" transform="translate(802.899655 244.809524)scale(0.11 -0.11)">
       <use xlink:href="#ArialMT-48"/>
       <use x="55.615234" xlink:href="#ArialMT-46"/>
       <use x="83.398438" xlink:href="#ArialMT-54"/>
      </g>
     </g>
    </g>
    <g id="ytick_23">
     <g id="line2d_43">
      <path clip-path="url(#p9bf02dbdeb)" d="M 827.689655 216.163636 
L 972 216.163636 
" style="fill:none;stroke:#ffffff;stroke-linecap:round;"/>
     </g>
     <g id="text_49">
      <!-- 0.8 -->
      <g style="fill:#262626;" transform="translate(802.899655 220.100433)scale(0.11 -0.11)">
       <use xlink:href="#ArialMT-48"/>
       <use x="55.615234" xlink:href="#ArialMT-46"/>
       <use x="83.398438" xlink:href="#ArialMT-56"/>
      </g>
     </g>
    </g>
    <g id="ytick_24">
     <g id="line2d_44">
      <path clip-path="url(#p9bf02dbdeb)" d="M 827.689655 191.454545 
L 972 191.454545 
" style="fill:none;stroke:#ffffff;stroke-linecap:round;"/>
     </g>
     <g id="text_50">
      <!-- 1.0 -->
      <g style="fill:#262626;" transform="translate(802.899655 195.391342)scale(0.11 -0.11)">
       <use xlink:href="#ArialMT-49"/>
       <use x="55.615234" xlink:href="#ArialMT-46"/>
       <use x="83.398438" xlink:href="#ArialMT-48"/>
      </g>
     </g>
    </g>
   </g>
   <g id="patch_111">
    <path d="M 827.689655 315 
L 827.689655 191.454545 
" style="fill:none;stroke:#ffffff;stroke-linecap:square;stroke-linejoin:miter;stroke-width:1.25;"/>
   </g>
   <g id="patch_112">
    <path d="M 972 315 
L 972 191.454545 
" style="fill:none;stroke:#ffffff;stroke-linecap:square;stroke-linejoin:miter;stroke-width:1.25;"/>
   </g>
   <g id="patch_113">
    <path d="M 827.689655 315 
L 972 315 
" style="fill:none;stroke:#ffffff;stroke-linecap:square;stroke-linejoin:miter;stroke-width:1.25;"/>
   </g>
   <g id="patch_114">
    <path d="M 827.689655 191.454545 
L 972 191.454545 
" style="fill:none;stroke:#ffffff;stroke-linecap:square;stroke-linejoin:miter;stroke-width:1.25;"/>
   </g>
   <g id="text_51">
    <!-- 12 -->
    <g style="fill:#262626;" transform="translate(893.171703 185.454545)scale(0.12 -0.12)">
     <use xlink:href="#ArialMT-49"/>
     <use x="55.615234" xlink:href="#ArialMT-50"/>
    </g>
   </g>
  </g>
 </g>
 <defs>
  <clipPath id="pf399444807">
   <rect height="123.545455" width="144.310345" x="135" y="43.2"/>
  </clipPath>
  <clipPath id="p7a0e90f980">
   <rect height="123.545455" width="144.310345" x="308.172414" y="43.2"/>
  </clipPath>
  <clipPath id="pe0fd649b67">
   <rect height="123.545455" width="144.310345" x="481.344828" y="43.2"/>
  </clipPath>
  <clipPath id="pfad5bc52d6">
   <rect height="123.545455" width="144.310345" x="654.517241" y="43.2"/>
  </clipPath>
  <clipPath id="pe220517b1d">
   <rect height="123.545455" width="144.310345" x="827.689655" y="43.2"/>
  </clipPath>
  <clipPath id="p7a31d73cab">
   <rect height="123.545455" width="144.310345" x="135" y="191.454545"/>
  </clipPath>
  <clipPath id="pa9983bd7fb">
   <rect height="123.545455" width="144.310345" x="308.172414" y="191.454545"/>
  </clipPath>
  <clipPath id="p833074d766">
   <rect height="123.545455" width="144.310345" x="481.344828" y="191.454545"/>
  </clipPath>
  <clipPath id="pb68669bb5d">
   <rect height="123.545455" width="144.310345" x="654.517241" y="191.454545"/>
  </clipPath>
  <clipPath id="p9bf02dbdeb">
   <rect height="123.545455" width="144.310345" x="827.689655" y="191.454545"/>
  </clipPath>
 </defs>
</svg>
