<?xml version="1.0" encoding="utf-8" standalone="no"?>
<!DOCTYPE svg PUBLIC "-//W3C//DTD SVG 1.1//EN"
  "http://www.w3.org/Graphics/SVG/1.1/DTD/svg11.dtd">
<!-- Created with matplotlib (https://matplotlib.org/) -->
<svg height="180pt" version="1.1" viewBox="0 0 1080 180" width="1080pt" xmlns="http://www.w3.org/2000/svg" xmlns:xlink="http://www.w3.org/1999/xlink">
 <defs>
  <style type="text/css">
*{stroke-linecap:butt;stroke-linejoin:round;}
  </style>
 </defs>
 <g id="figure_1">
  <g id="patch_1">
   <path d="M 0 180 
L 1080 180 
L 1080 0 
L 0 0 
z
" style="fill:#ffffff;"/>
  </g>
  <g id="axes_1">
   <g id="patch_2">
    <path d="M 135 157.5 
L 279.310345 157.5 
L 279.310345 21.6 
L 135 21.6 
z
" style="fill:#ffffff;"/>
   </g>
   <g id="patch_3">
    <path clip-path="url(#p72119a4773)" d="M 188.166969 113.66129 
L 172.976407 113.66129 
" style="stroke:#000000;stroke-linejoin:miter;stroke-width:0.5;"/>
   </g>
   <g id="patch_4">
    <path clip-path="url(#p72119a4773)" d="M 203.357532 102.701613 
L 188.166969 113.66129 
" style="stroke:#000000;stroke-linejoin:miter;stroke-width:0.5;"/>
   </g>
   <g id="patch_5">
    <path clip-path="url(#p72119a4773)" d="M 203.357532 102.701613 
L 188.166969 91.741935 
" style="stroke:#000000;stroke-linejoin:miter;stroke-width:0.5;"/>
   </g>
   <g id="patch_6">
    <path clip-path="url(#p72119a4773)" d="M 218.548094 86.262097 
L 203.357532 102.701613 
" style="stroke:#000000;stroke-linejoin:miter;stroke-width:0.5;"/>
   </g>
   <g id="patch_7">
    <path clip-path="url(#p72119a4773)" d="M 188.166969 69.822581 
L 172.976407 69.822581 
" style="stroke:#000000;stroke-linejoin:miter;stroke-width:0.5;"/>
   </g>
   <g id="patch_8">
    <path clip-path="url(#p72119a4773)" d="M 203.357532 69.822581 
L 188.166969 69.822581 
" style="stroke:#000000;stroke-linejoin:miter;stroke-width:0.5;"/>
   </g>
   <g id="patch_9">
    <path clip-path="url(#p72119a4773)" d="M 218.548094 86.262097 
L 203.357532 69.822581 
" style="stroke:#000000;stroke-linejoin:miter;stroke-width:0.5;"/>
   </g>
   <g id="patch_10">
    <path clip-path="url(#p72119a4773)" d="M 233.738657 86.262097 
L 218.548094 86.262097 
" style="stroke:#000000;stroke-linejoin:miter;stroke-width:0.5;"/>
   </g>
   <g id="patch_11">
    <path clip-path="url(#p72119a4773)" d="M 248.92922 86.262097 
L 233.738657 86.262097 
" style="stroke:#000000;stroke-linejoin:miter;stroke-width:0.5;"/>
   </g>
   <g id="11ba7ffa95be4d0a830460a2ea91ecb4-1-node">
    <path clip-path="url(#p72119a4773)" d="M 251.511615 82.535806 
L 251.511615 89.988387 
L 246.346824 89.988387 
L 246.346824 82.535806 
L 251.511615 82.535806 
z
" style="fill:#0000ff;stroke:#ffffff;stroke-linejoin:miter;stroke-width:0.5;"/>
   </g>
   <g id="11ba7ffa95be4d0a830460a2ea91ecb4-3-node">
    <path clip-path="url(#p72119a4773)" d="M 236.321053 82.535806 
L 236.321053 89.988387 
L 231.156261 89.988387 
L 231.156261 82.535806 
L 236.321053 82.535806 
z
" style="fill:#0000ff;stroke:#ffffff;stroke-linejoin:miter;stroke-width:0.5;"/>
   </g>
   <g id="11ba7ffa95be4d0a830460a2ea91ecb4-5-node">
    <path clip-path="url(#p72119a4773)" d="M 218.548094 89.988387 
C 219.232954 89.988387 219.889855 89.595762 220.374124 88.896982 
C 220.858393 88.198202 221.13049 87.250321 221.13049 86.262097 
C 221.13049 85.273873 220.858393 84.325991 220.374124 83.627212 
C 219.889855 82.928432 219.232954 82.535806 218.548094 82.535806 
C 217.863235 82.535806 217.206334 82.928432 216.722065 83.627212 
C 216.237796 84.325991 215.965699 85.273873 215.965699 86.262097 
C 215.965699 87.250321 216.237796 88.198202 216.722065 88.896982 
C 217.206334 89.595762 217.863235 89.988387 218.548094 89.988387 
z
" style="fill:#00c832;stroke:#ffffff;stroke-linejoin:miter;stroke-width:0.5;"/>
   </g>
   <g id="11ba7ffa95be4d0a830460a2ea91ecb4-10-node">
    <path clip-path="url(#p72119a4773)" d="M 203.357532 106.427903 
C 204.042391 106.427903 204.699293 106.035278 205.183561 105.336498 
C 205.66783 104.637718 205.939927 103.689837 205.939927 102.701613 
C 205.939927 101.713389 205.66783 100.765507 205.183561 100.066728 
C 204.699293 99.367948 204.042391 98.975323 203.357532 98.975323 
C 202.672672 98.975323 202.015771 99.367948 201.531502 100.066728 
C 201.047234 100.765507 200.775136 101.713389 200.775136 102.701613 
C 200.775136 103.689837 201.047234 104.637718 201.531502 105.336498 
C 202.015771 106.035278 202.672672 106.427903 203.357532 106.427903 
z
" style="fill:#00c832;stroke:#ffffff;stroke-linejoin:miter;stroke-width:0.5;"/>
   </g>
   <g id="11ba7ffa95be4d0a830460a2ea91ecb4-13-node">
    <path clip-path="url(#p72119a4773)" d="M 190.749365 109.935 
L 190.749365 117.387581 
L 185.584574 117.387581 
L 185.584574 109.935 
L 190.749365 109.935 
z
" style="fill:#0000ff;stroke:#ffffff;stroke-linejoin:miter;stroke-width:0.5;"/>
   </g>
   <g id="11ba7ffa95be4d0a830460a2ea91ecb4-15-node">
    <path clip-path="url(#p72119a4773)" d="M 172.976407 117.387581 
C 173.661266 117.387581 174.318167 116.994955 174.802436 116.296175 
C 175.286705 115.597396 175.558802 114.649514 175.558802 113.66129 
C 175.558802 112.673067 175.286705 111.725185 174.802436 111.026405 
C 174.318167 110.327625 173.661266 109.935 172.976407 109.935 
C 172.291547 109.935 171.634646 110.327625 171.150377 111.026405 
C 170.666108 111.725185 170.394011 112.673067 170.394011 113.66129 
C 170.394011 114.649514 170.666108 115.597396 171.150377 116.296175 
C 171.634646 116.994955 172.291547 117.387581 172.976407 117.387581 
z
" style="fill:#ffff00;stroke:#ffffff;stroke-linejoin:miter;stroke-width:0.5;"/>
   </g>
   <g id="11ba7ffa95be4d0a830460a2ea91ecb4-11-node">
    <path clip-path="url(#p72119a4773)" d="M 190.749365 88.015645 
L 190.749365 95.468226 
L 185.584574 95.468226 
L 185.584574 88.015645 
L 190.749365 88.015645 
z
" style="fill:#0000ff;stroke:#ffffff;stroke-linejoin:miter;stroke-width:0.5;"/>
   </g>
   <g id="11ba7ffa95be4d0a830460a2ea91ecb4-6-node">
    <path clip-path="url(#p72119a4773)" d="M 203.357532 73.548871 
C 204.042391 73.548871 204.699293 73.156246 205.183561 72.457466 
C 205.66783 71.758686 205.939927 70.810804 205.939927 69.822581 
C 205.939927 68.834357 205.66783 67.886475 205.183561 67.187695 
C 204.699293 66.488916 204.042391 66.09629 203.357532 66.09629 
C 202.672672 66.09629 202.015771 66.488916 201.531502 67.187695 
C 201.047234 67.886475 200.775136 68.834357 200.775136 69.822581 
C 200.775136 70.810804 201.047234 71.758686 201.531502 72.457466 
C 202.015771 73.156246 202.672672 73.548871 203.357532 73.548871 
z
" style="fill:#00c832;stroke:#ffffff;stroke-linejoin:miter;stroke-width:0.5;"/>
   </g>
   <g id="11ba7ffa95be4d0a830460a2ea91ecb4-7-node">
    <path clip-path="url(#p72119a4773)" d="M 190.749365 66.09629 
L 190.749365 73.548871 
L 185.584574 73.548871 
L 185.584574 66.09629 
L 190.749365 66.09629 
z
" style="fill:#0000ff;stroke:#ffffff;stroke-linejoin:miter;stroke-width:0.5;"/>
   </g>
   <g id="11ba7ffa95be4d0a830460a2ea91ecb4-9-node">
    <path clip-path="url(#p72119a4773)" d="M 172.976407 73.548871 
C 173.661266 73.548871 174.318167 73.156246 174.802436 72.457466 
C 175.286705 71.758686 175.558802 70.810804 175.558802 69.822581 
C 175.558802 68.834357 175.286705 67.886475 174.802436 67.187695 
C 174.318167 66.488916 173.661266 66.09629 172.976407 66.09629 
C 172.291547 66.09629 171.634646 66.488916 171.150377 67.187695 
C 170.666108 67.886475 170.394011 68.834357 170.394011 69.822581 
C 170.394011 70.810804 170.666108 71.758686 171.150377 72.457466 
C 171.634646 73.156246 172.291547 73.548871 172.976407 73.548871 
z
" style="fill:#ffff00;stroke:#ffffff;stroke-linejoin:miter;stroke-width:0.5;"/>
   </g>
   <g id="patch_12">
    <path d="M 135 157.5 
L 135 21.6 
" style="fill:none;stroke:#ffffff;stroke-linecap:square;stroke-linejoin:miter;stroke-width:1.25;"/>
   </g>
   <g id="patch_13">
    <path d="M 279.310345 157.5 
L 279.310345 21.6 
" style="fill:none;stroke:#ffffff;stroke-linecap:square;stroke-linejoin:miter;stroke-width:1.25;"/>
   </g>
   <g id="patch_14">
    <path d="M 135 157.5 
L 279.310345 157.5 
" style="fill:none;stroke:#ffffff;stroke-linecap:square;stroke-linejoin:miter;stroke-width:1.25;"/>
   </g>
   <g id="patch_15">
    <path d="M 135 21.6 
L 279.310345 21.6 
" style="fill:none;stroke:#ffffff;stroke-linecap:square;stroke-linejoin:miter;stroke-width:1.25;"/>
   </g>
   <g id="text_1">
    <!-- 302:1.6667 -->
    <defs>
     <path d="M 4.203125 18.890625 
L 12.984375 20.0625 
Q 14.5 12.59375 18.140625 9.296875 
Q 21.78125 6 27 6 
Q 33.203125 6 37.46875 10.296875 
Q 41.75 14.59375 41.75 20.953125 
Q 41.75 27 37.796875 30.921875 
Q 33.84375 34.859375 27.734375 34.859375 
Q 25.25 34.859375 21.53125 33.890625 
L 22.515625 41.609375 
Q 23.390625 41.5 23.921875 41.5 
Q 29.546875 41.5 34.03125 44.421875 
Q 38.53125 47.359375 38.53125 53.46875 
Q 38.53125 58.296875 35.25 61.46875 
Q 31.984375 64.65625 26.8125 64.65625 
Q 21.6875 64.65625 18.265625 61.421875 
Q 14.84375 58.203125 13.875 51.765625 
L 5.078125 53.328125 
Q 6.6875 62.15625 12.390625 67.015625 
Q 18.109375 71.875 26.609375 71.875 
Q 32.46875 71.875 37.390625 69.359375 
Q 42.328125 66.84375 44.9375 62.5 
Q 47.5625 58.15625 47.5625 53.265625 
Q 47.5625 48.640625 45.0625 44.828125 
Q 42.578125 41.015625 37.703125 38.765625 
Q 44.046875 37.3125 47.5625 32.6875 
Q 51.078125 28.078125 51.078125 21.140625 
Q 51.078125 11.765625 44.234375 5.25 
Q 37.40625 -1.265625 26.953125 -1.265625 
Q 17.53125 -1.265625 11.296875 4.34375 
Q 5.078125 9.96875 4.203125 18.890625 
z
" id="ArialMT-51"/>
     <path d="M 4.15625 35.296875 
Q 4.15625 48 6.765625 55.734375 
Q 9.375 63.484375 14.515625 67.671875 
Q 19.671875 71.875 27.484375 71.875 
Q 33.25 71.875 37.59375 69.546875 
Q 41.9375 67.234375 44.765625 62.859375 
Q 47.609375 58.5 49.21875 52.21875 
Q 50.828125 45.953125 50.828125 35.296875 
Q 50.828125 22.703125 48.234375 14.96875 
Q 45.65625 7.234375 40.5 3 
Q 35.359375 -1.21875 27.484375 -1.21875 
Q 17.140625 -1.21875 11.234375 6.203125 
Q 4.15625 15.140625 4.15625 35.296875 
z
M 13.1875 35.296875 
Q 13.1875 17.671875 17.3125 11.828125 
Q 21.4375 6 27.484375 6 
Q 33.546875 6 37.671875 11.859375 
Q 41.796875 17.71875 41.796875 35.296875 
Q 41.796875 52.984375 37.671875 58.78125 
Q 33.546875 64.59375 27.390625 64.59375 
Q 21.34375 64.59375 17.71875 59.46875 
Q 13.1875 52.9375 13.1875 35.296875 
z
" id="ArialMT-48"/>
     <path d="M 50.34375 8.453125 
L 50.34375 0 
L 3.03125 0 
Q 2.9375 3.171875 4.046875 6.109375 
Q 5.859375 10.9375 9.828125 15.625 
Q 13.8125 20.3125 21.34375 26.46875 
Q 33.015625 36.03125 37.109375 41.625 
Q 41.21875 47.21875 41.21875 52.203125 
Q 41.21875 57.421875 37.46875 61 
Q 33.734375 64.59375 27.734375 64.59375 
Q 21.390625 64.59375 17.578125 60.78125 
Q 13.765625 56.984375 13.71875 50.25 
L 4.6875 51.171875 
Q 5.609375 61.28125 11.65625 66.578125 
Q 17.71875 71.875 27.9375 71.875 
Q 38.234375 71.875 44.234375 66.15625 
Q 50.25 60.453125 50.25 52 
Q 50.25 47.703125 48.484375 43.546875 
Q 46.734375 39.40625 42.65625 34.8125 
Q 38.578125 30.21875 29.109375 22.21875 
Q 21.1875 15.578125 18.9375 13.203125 
Q 16.703125 10.84375 15.234375 8.453125 
z
" id="ArialMT-50"/>
     <path d="M 9.03125 41.84375 
L 9.03125 51.859375 
L 19.046875 51.859375 
L 19.046875 41.84375 
z
M 9.03125 0 
L 9.03125 10.015625 
L 19.046875 10.015625 
L 19.046875 0 
z
" id="ArialMT-58"/>
     <path d="M 37.25 0 
L 28.46875 0 
L 28.46875 56 
Q 25.296875 52.984375 20.140625 49.953125 
Q 14.984375 46.921875 10.890625 45.40625 
L 10.890625 53.90625 
Q 18.265625 57.375 23.78125 62.296875 
Q 29.296875 67.234375 31.59375 71.875 
L 37.25 71.875 
z
" id="ArialMT-49"/>
     <path d="M 9.078125 0 
L 9.078125 10.015625 
L 19.09375 10.015625 
L 19.09375 0 
z
" id="ArialMT-46"/>
     <path d="M 49.75 54.046875 
L 41.015625 53.375 
Q 39.84375 58.546875 37.703125 60.890625 
Q 34.125 64.65625 28.90625 64.65625 
Q 24.703125 64.65625 21.53125 62.3125 
Q 17.390625 59.28125 14.984375 53.46875 
Q 12.59375 47.65625 12.5 36.921875 
Q 15.671875 41.75 20.265625 44.09375 
Q 24.859375 46.4375 29.890625 46.4375 
Q 38.671875 46.4375 44.84375 39.96875 
Q 51.03125 33.5 51.03125 23.25 
Q 51.03125 16.5 48.125 10.71875 
Q 45.21875 4.9375 40.140625 1.859375 
Q 35.0625 -1.21875 28.609375 -1.21875 
Q 17.625 -1.21875 10.6875 6.859375 
Q 3.765625 14.9375 3.765625 33.5 
Q 3.765625 54.25 11.421875 63.671875 
Q 18.109375 71.875 29.4375 71.875 
Q 37.890625 71.875 43.28125 67.140625 
Q 48.6875 62.40625 49.75 54.046875 
z
M 13.875 23.1875 
Q 13.875 18.65625 15.796875 14.5 
Q 17.71875 10.359375 21.1875 8.171875 
Q 24.65625 6 28.46875 6 
Q 34.03125 6 38.03125 10.484375 
Q 42.046875 14.984375 42.046875 22.703125 
Q 42.046875 30.125 38.078125 34.390625 
Q 34.125 38.671875 28.125 38.671875 
Q 22.171875 38.671875 18.015625 34.390625 
Q 13.875 30.125 13.875 23.1875 
z
" id="ArialMT-54"/>
     <path d="M 4.734375 62.203125 
L 4.734375 70.65625 
L 51.078125 70.65625 
L 51.078125 63.8125 
Q 44.234375 56.546875 37.515625 44.484375 
Q 30.8125 32.421875 27.15625 19.671875 
Q 24.515625 10.6875 23.78125 0 
L 14.75 0 
Q 14.890625 8.453125 18.0625 20.40625 
Q 21.234375 32.375 27.171875 43.484375 
Q 33.109375 54.59375 39.796875 62.203125 
z
" id="ArialMT-55"/>
    </defs>
    <g style="fill:#262626;" transform="translate(177.128922 15.6)scale(0.12 -0.12)">
     <use xlink:href="#ArialMT-51"/>
     <use x="55.615234" xlink:href="#ArialMT-48"/>
     <use x="111.230469" xlink:href="#ArialMT-50"/>
     <use x="166.845703" xlink:href="#ArialMT-58"/>
     <use x="194.628906" xlink:href="#ArialMT-49"/>
     <use x="250.244141" xlink:href="#ArialMT-46"/>
     <use x="278.027344" xlink:href="#ArialMT-54"/>
     <use x="333.642578" xlink:href="#ArialMT-54"/>
     <use x="389.257812" xlink:href="#ArialMT-54"/>
     <use x="444.873047" xlink:href="#ArialMT-55"/>
    </g>
   </g>
  </g>
  <g id="axes_2">
   <g id="patch_16">
    <path d="M 308.172414 157.5 
L 452.482759 157.5 
L 452.482759 21.6 
L 308.172414 21.6 
z
" style="fill:#ffffff;"/>
   </g>
   <g id="patch_17">
    <path clip-path="url(#pa53c3ab0ef)" d="M 361.339383 113.66129 
L 346.14882 113.66129 
" style="stroke:#000000;stroke-linejoin:miter;stroke-width:0.5;"/>
   </g>
   <g id="patch_18">
    <path clip-path="url(#pa53c3ab0ef)" d="M 376.529946 102.701613 
L 361.339383 113.66129 
" style="stroke:#000000;stroke-linejoin:miter;stroke-width:0.5;"/>
   </g>
   <g id="patch_19">
    <path clip-path="url(#pa53c3ab0ef)" d="M 361.339383 91.741935 
L 346.14882 91.741935 
" style="stroke:#000000;stroke-linejoin:miter;stroke-width:0.5;"/>
   </g>
   <g id="patch_20">
    <path clip-path="url(#pa53c3ab0ef)" d="M 376.529946 102.701613 
L 361.339383 91.741935 
" style="stroke:#000000;stroke-linejoin:miter;stroke-width:0.5;"/>
   </g>
   <g id="patch_21">
    <path clip-path="url(#pa53c3ab0ef)" d="M 391.720508 86.262097 
L 376.529946 102.701613 
" style="stroke:#000000;stroke-linejoin:miter;stroke-width:0.5;"/>
   </g>
   <g id="patch_22">
    <path clip-path="url(#pa53c3ab0ef)" d="M 361.339383 69.822581 
L 346.14882 69.822581 
" style="stroke:#000000;stroke-linejoin:miter;stroke-width:0.5;"/>
   </g>
   <g id="patch_23">
    <path clip-path="url(#pa53c3ab0ef)" d="M 376.529946 69.822581 
L 361.339383 69.822581 
" style="stroke:#000000;stroke-linejoin:miter;stroke-width:0.5;"/>
   </g>
   <g id="patch_24">
    <path clip-path="url(#pa53c3ab0ef)" d="M 391.720508 86.262097 
L 376.529946 69.822581 
" style="stroke:#000000;stroke-linejoin:miter;stroke-width:0.5;"/>
   </g>
   <g id="patch_25">
    <path clip-path="url(#pa53c3ab0ef)" d="M 406.911071 86.262097 
L 391.720508 86.262097 
" style="stroke:#000000;stroke-linejoin:miter;stroke-width:0.5;"/>
   </g>
   <g id="patch_26">
    <path clip-path="url(#pa53c3ab0ef)" d="M 422.101633 86.262097 
L 406.911071 86.262097 
" style="stroke:#000000;stroke-linejoin:miter;stroke-width:0.5;"/>
   </g>
   <g id="dfeb10483b594f28aa1b99686472915a-1-node">
    <path clip-path="url(#pa53c3ab0ef)" d="M 424.684029 82.535806 
L 424.684029 89.988387 
L 419.519238 89.988387 
L 419.519238 82.535806 
L 424.684029 82.535806 
z
" style="fill:#0000ff;stroke:#ffffff;stroke-linejoin:miter;stroke-width:0.5;"/>
   </g>
   <g id="dfeb10483b594f28aa1b99686472915a-3-node">
    <path clip-path="url(#pa53c3ab0ef)" d="M 409.493466 82.535806 
L 409.493466 89.988387 
L 404.328675 89.988387 
L 404.328675 82.535806 
L 409.493466 82.535806 
z
" style="fill:#0000ff;stroke:#ffffff;stroke-linejoin:miter;stroke-width:0.5;"/>
   </g>
   <g id="dfeb10483b594f28aa1b99686472915a-5-node">
    <path clip-path="url(#pa53c3ab0ef)" d="M 391.720508 89.988387 
C 392.405367 89.988387 393.062269 89.595762 393.546538 88.896982 
C 394.030806 88.198202 394.302904 87.250321 394.302904 86.262097 
C 394.302904 85.273873 394.030806 84.325991 393.546538 83.627212 
C 393.062269 82.928432 392.405367 82.535806 391.720508 82.535806 
C 391.035649 82.535806 390.378747 82.928432 389.894479 83.627212 
C 389.41021 84.325991 389.138113 85.273873 389.138113 86.262097 
C 389.138113 87.250321 389.41021 88.198202 389.894479 88.896982 
C 390.378747 89.595762 391.035649 89.988387 391.720508 89.988387 
z
" style="fill:#00c832;stroke:#ffffff;stroke-linejoin:miter;stroke-width:0.5;"/>
   </g>
   <g id="dfeb10483b594f28aa1b99686472915a-10-node">
    <path clip-path="url(#pa53c3ab0ef)" d="M 376.529946 106.427903 
C 377.214805 106.427903 377.871706 106.035278 378.355975 105.336498 
C 378.840244 104.637718 379.112341 103.689837 379.112341 102.701613 
C 379.112341 101.713389 378.840244 100.765507 378.355975 100.066728 
C 377.871706 99.367948 377.214805 98.975323 376.529946 98.975323 
C 375.845086 98.975323 375.188185 99.367948 374.703916 100.066728 
C 374.219647 100.765507 373.94755 101.713389 373.94755 102.701613 
C 373.94755 103.689837 374.219647 104.637718 374.703916 105.336498 
C 375.188185 106.035278 375.845086 106.427903 376.529946 106.427903 
z
" style="fill:#00c832;stroke:#ffffff;stroke-linejoin:miter;stroke-width:0.5;"/>
   </g>
   <g id="dfeb10483b594f28aa1b99686472915a-14-node">
    <path clip-path="url(#pa53c3ab0ef)" d="M 363.921779 109.935 
L 363.921779 117.387581 
L 358.756987 117.387581 
L 358.756987 109.935 
L 363.921779 109.935 
z
" style="fill:#0000ff;stroke:#ffffff;stroke-linejoin:miter;stroke-width:0.5;"/>
   </g>
   <g id="dfeb10483b594f28aa1b99686472915a-16-node">
    <path clip-path="url(#pa53c3ab0ef)" d="M 346.14882 117.387581 
C 346.83368 117.387581 347.490581 116.994955 347.97485 116.296175 
C 348.459118 115.597396 348.731216 114.649514 348.731216 113.66129 
C 348.731216 112.673067 348.459118 111.725185 347.97485 111.026405 
C 347.490581 110.327625 346.83368 109.935 346.14882 109.935 
C 345.463961 109.935 344.80706 110.327625 344.322791 111.026405 
C 343.838522 111.725185 343.566425 112.673067 343.566425 113.66129 
C 343.566425 114.649514 343.838522 115.597396 344.322791 116.296175 
C 344.80706 116.994955 345.463961 117.387581 346.14882 117.387581 
z
" style="fill:#ffff00;stroke:#ffffff;stroke-linejoin:miter;stroke-width:0.5;"/>
   </g>
   <g id="dfeb10483b594f28aa1b99686472915a-11-node">
    <path clip-path="url(#pa53c3ab0ef)" d="M 363.921779 88.015645 
L 363.921779 95.468226 
L 358.756987 95.468226 
L 358.756987 88.015645 
L 363.921779 88.015645 
z
" style="fill:#0000ff;stroke:#ffffff;stroke-linejoin:miter;stroke-width:0.5;"/>
   </g>
   <g id="dfeb10483b594f28aa1b99686472915a-13-node">
    <path clip-path="url(#pa53c3ab0ef)" d="M 346.14882 95.468226 
C 346.83368 95.468226 347.490581 95.0756 347.97485 94.376821 
C 348.459118 93.678041 348.731216 92.730159 348.731216 91.741935 
C 348.731216 90.753712 348.459118 89.80583 347.97485 89.10705 
C 347.490581 88.408271 346.83368 88.015645 346.14882 88.015645 
C 345.463961 88.015645 344.80706 88.408271 344.322791 89.10705 
C 343.838522 89.80583 343.566425 90.753712 343.566425 91.741935 
C 343.566425 92.730159 343.838522 93.678041 344.322791 94.376821 
C 344.80706 95.0756 345.463961 95.468226 346.14882 95.468226 
z
" style="fill:#ffff00;stroke:#ffffff;stroke-linejoin:miter;stroke-width:0.5;"/>
   </g>
   <g id="dfeb10483b594f28aa1b99686472915a-6-node">
    <path clip-path="url(#pa53c3ab0ef)" d="M 376.529946 73.548871 
C 377.214805 73.548871 377.871706 73.156246 378.355975 72.457466 
C 378.840244 71.758686 379.112341 70.810804 379.112341 69.822581 
C 379.112341 68.834357 378.840244 67.886475 378.355975 67.187695 
C 377.871706 66.488916 377.214805 66.09629 376.529946 66.09629 
C 375.845086 66.09629 375.188185 66.488916 374.703916 67.187695 
C 374.219647 67.886475 373.94755 68.834357 373.94755 69.822581 
C 373.94755 70.810804 374.219647 71.758686 374.703916 72.457466 
C 375.188185 73.156246 375.845086 73.548871 376.529946 73.548871 
z
" style="fill:#00c832;stroke:#ffffff;stroke-linejoin:miter;stroke-width:0.5;"/>
   </g>
   <g id="dfeb10483b594f28aa1b99686472915a-7-node">
    <path clip-path="url(#pa53c3ab0ef)" d="M 363.921779 66.09629 
L 363.921779 73.548871 
L 358.756987 73.548871 
L 358.756987 66.09629 
L 363.921779 66.09629 
z
" style="fill:#0000ff;stroke:#ffffff;stroke-linejoin:miter;stroke-width:0.5;"/>
   </g>
   <g id="dfeb10483b594f28aa1b99686472915a-9-node">
    <path clip-path="url(#pa53c3ab0ef)" d="M 346.14882 73.548871 
C 346.83368 73.548871 347.490581 73.156246 347.97485 72.457466 
C 348.459118 71.758686 348.731216 70.810804 348.731216 69.822581 
C 348.731216 68.834357 348.459118 67.886475 347.97485 67.187695 
C 347.490581 66.488916 346.83368 66.09629 346.14882 66.09629 
C 345.463961 66.09629 344.80706 66.488916 344.322791 67.187695 
C 343.838522 67.886475 343.566425 68.834357 343.566425 69.822581 
C 343.566425 70.810804 343.838522 71.758686 344.322791 72.457466 
C 344.80706 73.156246 345.463961 73.548871 346.14882 73.548871 
z
" style="fill:#ffff00;stroke:#ffffff;stroke-linejoin:miter;stroke-width:0.5;"/>
   </g>
   <g id="patch_27">
    <path d="M 308.172414 157.5 
L 308.172414 21.6 
" style="fill:none;stroke:#ffffff;stroke-linecap:square;stroke-linejoin:miter;stroke-width:1.25;"/>
   </g>
   <g id="patch_28">
    <path d="M 452.482759 157.5 
L 452.482759 21.6 
" style="fill:none;stroke:#ffffff;stroke-linecap:square;stroke-linejoin:miter;stroke-width:1.25;"/>
   </g>
   <g id="patch_29">
    <path d="M 308.172414 157.5 
L 452.482759 157.5 
" style="fill:none;stroke:#ffffff;stroke-linecap:square;stroke-linejoin:miter;stroke-width:1.25;"/>
   </g>
   <g id="patch_30">
    <path d="M 308.172414 21.6 
L 452.482759 21.6 
" style="fill:none;stroke:#ffffff;stroke-linecap:square;stroke-linejoin:miter;stroke-width:1.25;"/>
   </g>
   <g id="text_2">
    <!-- 414:1.3333 -->
    <defs>
     <path d="M 32.328125 0 
L 32.328125 17.140625 
L 1.265625 17.140625 
L 1.265625 25.203125 
L 33.9375 71.578125 
L 41.109375 71.578125 
L 41.109375 25.203125 
L 50.78125 25.203125 
L 50.78125 17.140625 
L 41.109375 17.140625 
L 41.109375 0 
z
M 32.328125 25.203125 
L 32.328125 57.46875 
L 9.90625 25.203125 
z
" id="ArialMT-52"/>
    </defs>
    <g style="fill:#262626;" transform="translate(350.301336 15.6)scale(0.12 -0.12)">
     <use xlink:href="#ArialMT-52"/>
     <use x="55.615234" xlink:href="#ArialMT-49"/>
     <use x="111.230469" xlink:href="#ArialMT-52"/>
     <use x="166.845703" xlink:href="#ArialMT-58"/>
     <use x="194.628906" xlink:href="#ArialMT-49"/>
     <use x="250.244141" xlink:href="#ArialMT-46"/>
     <use x="278.027344" xlink:href="#ArialMT-51"/>
     <use x="333.642578" xlink:href="#ArialMT-51"/>
     <use x="389.257812" xlink:href="#ArialMT-51"/>
     <use x="444.873047" xlink:href="#ArialMT-51"/>
    </g>
   </g>
  </g>
  <g id="axes_3">
   <g id="patch_31">
    <path d="M 481.344828 157.5 
L 625.655172 157.5 
L 625.655172 21.6 
L 481.344828 21.6 
z
" style="fill:#ffffff;"/>
   </g>
   <g id="patch_32">
    <path clip-path="url(#p0502387863)" d="M 534.511797 113.66129 
L 519.321234 113.66129 
" style="stroke:#000000;stroke-linejoin:miter;stroke-width:0.5;"/>
   </g>
   <g id="patch_33">
    <path clip-path="url(#p0502387863)" d="M 549.702359 102.701613 
L 534.511797 113.66129 
" style="stroke:#000000;stroke-linejoin:miter;stroke-width:0.5;"/>
   </g>
   <g id="patch_34">
    <path clip-path="url(#p0502387863)" d="M 549.702359 102.701613 
L 534.511797 91.741935 
" style="stroke:#000000;stroke-linejoin:miter;stroke-width:0.5;"/>
   </g>
   <g id="patch_35">
    <path clip-path="url(#p0502387863)" d="M 564.892922 86.262097 
L 549.702359 102.701613 
" style="stroke:#000000;stroke-linejoin:miter;stroke-width:0.5;"/>
   </g>
   <g id="patch_36">
    <path clip-path="url(#p0502387863)" d="M 534.511797 69.822581 
L 519.321234 69.822581 
" style="stroke:#000000;stroke-linejoin:miter;stroke-width:0.5;"/>
   </g>
   <g id="patch_37">
    <path clip-path="url(#p0502387863)" d="M 549.702359 69.822581 
L 534.511797 69.822581 
" style="stroke:#000000;stroke-linejoin:miter;stroke-width:0.5;"/>
   </g>
   <g id="patch_38">
    <path clip-path="url(#p0502387863)" d="M 564.892922 86.262097 
L 549.702359 69.822581 
" style="stroke:#000000;stroke-linejoin:miter;stroke-width:0.5;"/>
   </g>
   <g id="patch_39">
    <path clip-path="url(#p0502387863)" d="M 580.083485 86.262097 
L 564.892922 86.262097 
" style="stroke:#000000;stroke-linejoin:miter;stroke-width:0.5;"/>
   </g>
   <g id="patch_40">
    <path clip-path="url(#p0502387863)" d="M 595.274047 86.262097 
L 580.083485 86.262097 
" style="stroke:#000000;stroke-linejoin:miter;stroke-width:0.5;"/>
   </g>
   <g id="patch_41">
    <path clip-path="url(#p0502387863)" d="M 595.274047 86.262097 
L 595.274047 75.302419 
" style="stroke:#000000;stroke-linejoin:miter;stroke-width:0.5;"/>
   </g>
   <g id="cc52b8aabc264e30bb3190d0b14272fa-1-node">
    <path clip-path="url(#p0502387863)" d="M 597.856443 82.535806 
L 597.856443 89.988387 
L 592.691652 89.988387 
L 592.691652 82.535806 
L 597.856443 82.535806 
z
" style="fill:#0000ff;stroke:#ffffff;stroke-linejoin:miter;stroke-width:0.5;"/>
   </g>
   <g id="cc52b8aabc264e30bb3190d0b14272fa-4-node">
    <path clip-path="url(#p0502387863)" d="M 582.66588 82.535806 
L 582.66588 89.988387 
L 577.501089 89.988387 
L 577.501089 82.535806 
L 582.66588 82.535806 
z
" style="fill:#0000ff;stroke:#ffffff;stroke-linejoin:miter;stroke-width:0.5;"/>
   </g>
   <g id="cc52b8aabc264e30bb3190d0b14272fa-6-node">
    <path clip-path="url(#p0502387863)" d="M 564.892922 89.988387 
C 565.577781 89.988387 566.234683 89.595762 566.718951 88.896982 
C 567.20322 88.198202 567.475318 87.250321 567.475318 86.262097 
C 567.475318 85.273873 567.20322 84.325991 566.718951 83.627212 
C 566.234683 82.928432 565.577781 82.535806 564.892922 82.535806 
C 564.208063 82.535806 563.551161 82.928432 563.066892 83.627212 
C 562.582624 84.325991 562.310526 85.273873 562.310526 86.262097 
C 562.310526 87.250321 562.582624 88.198202 563.066892 88.896982 
C 563.551161 89.595762 564.208063 89.988387 564.892922 89.988387 
z
" style="fill:#00c832;stroke:#ffffff;stroke-linejoin:miter;stroke-width:0.5;"/>
   </g>
   <g id="cc52b8aabc264e30bb3190d0b14272fa-11-node">
    <path clip-path="url(#p0502387863)" d="M 549.702359 106.427903 
C 550.387219 106.427903 551.04412 106.035278 551.528389 105.336498 
C 552.012657 104.637718 552.284755 103.689837 552.284755 102.701613 
C 552.284755 101.713389 552.012657 100.765507 551.528389 100.066728 
C 551.04412 99.367948 550.387219 98.975323 549.702359 98.975323 
C 549.0175 98.975323 548.360599 99.367948 547.87633 100.066728 
C 547.392061 100.765507 547.119964 101.713389 547.119964 102.701613 
C 547.119964 103.689837 547.392061 104.637718 547.87633 105.336498 
C 548.360599 106.035278 549.0175 106.427903 549.702359 106.427903 
z
" style="fill:#00c832;stroke:#ffffff;stroke-linejoin:miter;stroke-width:0.5;"/>
   </g>
   <g id="cc52b8aabc264e30bb3190d0b14272fa-14-node">
    <path clip-path="url(#p0502387863)" d="M 537.094192 109.935 
L 537.094192 117.387581 
L 531.929401 117.387581 
L 531.929401 109.935 
L 537.094192 109.935 
z
" style="fill:#0000ff;stroke:#ffffff;stroke-linejoin:miter;stroke-width:0.5;"/>
   </g>
   <g id="cc52b8aabc264e30bb3190d0b14272fa-16-node">
    <path clip-path="url(#p0502387863)" d="M 519.321234 117.387581 
C 520.006093 117.387581 520.662995 116.994955 521.147264 116.296175 
C 521.631532 115.597396 521.90363 114.649514 521.90363 113.66129 
C 521.90363 112.673067 521.631532 111.725185 521.147264 111.026405 
C 520.662995 110.327625 520.006093 109.935 519.321234 109.935 
C 518.636375 109.935 517.979473 110.327625 517.495205 111.026405 
C 517.010936 111.725185 516.738838 112.673067 516.738838 113.66129 
C 516.738838 114.649514 517.010936 115.597396 517.495205 116.296175 
C 517.979473 116.994955 518.636375 117.387581 519.321234 117.387581 
z
" style="fill:#ffff00;stroke:#ffffff;stroke-linejoin:miter;stroke-width:0.5;"/>
   </g>
   <g id="cc52b8aabc264e30bb3190d0b14272fa-12-node">
    <path clip-path="url(#p0502387863)" d="M 537.094192 88.015645 
L 537.094192 95.468226 
L 531.929401 95.468226 
L 531.929401 88.015645 
L 537.094192 88.015645 
z
" style="fill:#0000ff;stroke:#ffffff;stroke-linejoin:miter;stroke-width:0.5;"/>
   </g>
   <g id="cc52b8aabc264e30bb3190d0b14272fa-7-node">
    <path clip-path="url(#p0502387863)" d="M 549.702359 73.548871 
C 550.387219 73.548871 551.04412 73.156246 551.528389 72.457466 
C 552.012657 71.758686 552.284755 70.810804 552.284755 69.822581 
C 552.284755 68.834357 552.012657 67.886475 551.528389 67.187695 
C 551.04412 66.488916 550.387219 66.09629 549.702359 66.09629 
C 549.0175 66.09629 548.360599 66.488916 547.87633 67.187695 
C 547.392061 67.886475 547.119964 68.834357 547.119964 69.822581 
C 547.119964 70.810804 547.392061 71.758686 547.87633 72.457466 
C 548.360599 73.156246 549.0175 73.548871 549.702359 73.548871 
z
" style="fill:#00c832;stroke:#ffffff;stroke-linejoin:miter;stroke-width:0.5;"/>
   </g>
   <g id="cc52b8aabc264e30bb3190d0b14272fa-8-node">
    <path clip-path="url(#p0502387863)" d="M 537.094192 66.09629 
L 537.094192 73.548871 
L 531.929401 73.548871 
L 531.929401 66.09629 
L 537.094192 66.09629 
z
" style="fill:#0000ff;stroke:#ffffff;stroke-linejoin:miter;stroke-width:0.5;"/>
   </g>
   <g id="cc52b8aabc264e30bb3190d0b14272fa-10-node">
    <path clip-path="url(#p0502387863)" d="M 519.321234 73.548871 
C 520.006093 73.548871 520.662995 73.156246 521.147264 72.457466 
C 521.631532 71.758686 521.90363 70.810804 521.90363 69.822581 
C 521.90363 68.834357 521.631532 67.886475 521.147264 67.187695 
C 520.662995 66.488916 520.006093 66.09629 519.321234 66.09629 
C 518.636375 66.09629 517.979473 66.488916 517.495205 67.187695 
C 517.010936 67.886475 516.738838 68.834357 516.738838 69.822581 
C 516.738838 70.810804 517.010936 71.758686 517.495205 72.457466 
C 517.979473 73.156246 518.636375 73.548871 519.321234 73.548871 
z
" style="fill:#ffff00;stroke:#ffffff;stroke-linejoin:miter;stroke-width:0.5;"/>
   </g>
   <g id="cc52b8aabc264e30bb3190d0b14272fa-3-node">
    <path clip-path="url(#p0502387863)" d="M 595.274047 71.576129 
L 593.037627 77.165565 
L 597.510467 77.165565 
z
" style="fill:#ff0000;stroke:#ffffff;stroke-linejoin:miter;stroke-width:0.5;"/>
   </g>
   <g id="patch_42">
    <path d="M 481.344828 157.5 
L 481.344828 21.6 
" style="fill:none;stroke:#ffffff;stroke-linecap:square;stroke-linejoin:miter;stroke-width:1.25;"/>
   </g>
   <g id="patch_43">
    <path d="M 625.655172 157.5 
L 625.655172 21.6 
" style="fill:none;stroke:#ffffff;stroke-linecap:square;stroke-linejoin:miter;stroke-width:1.25;"/>
   </g>
   <g id="patch_44">
    <path d="M 481.344828 157.5 
L 625.655172 157.5 
" style="fill:none;stroke:#ffffff;stroke-linecap:square;stroke-linejoin:miter;stroke-width:1.25;"/>
   </g>
   <g id="patch_45">
    <path d="M 481.344828 21.6 
L 625.655172 21.6 
" style="fill:none;stroke:#ffffff;stroke-linecap:square;stroke-linejoin:miter;stroke-width:1.25;"/>
   </g>
   <g id="text_3">
    <!-- 439:2.1481 -->
    <defs>
     <path d="M 5.46875 16.546875 
L 13.921875 17.328125 
Q 14.984375 11.375 18.015625 8.6875 
Q 21.046875 6 25.78125 6 
Q 29.828125 6 32.875 7.859375 
Q 35.9375 9.71875 37.890625 12.8125 
Q 39.84375 15.921875 41.15625 21.1875 
Q 42.484375 26.46875 42.484375 31.9375 
Q 42.484375 32.515625 42.4375 33.6875 
Q 39.796875 29.5 35.234375 26.875 
Q 30.671875 24.265625 25.34375 24.265625 
Q 16.453125 24.265625 10.296875 30.703125 
Q 4.15625 37.15625 4.15625 47.703125 
Q 4.15625 58.59375 10.578125 65.234375 
Q 17 71.875 26.65625 71.875 
Q 33.640625 71.875 39.421875 68.109375 
Q 45.21875 64.359375 48.21875 57.390625 
Q 51.21875 50.4375 51.21875 37.25 
Q 51.21875 23.53125 48.234375 15.40625 
Q 45.265625 7.28125 39.375 3.03125 
Q 33.5 -1.21875 25.59375 -1.21875 
Q 17.1875 -1.21875 11.859375 3.4375 
Q 6.546875 8.109375 5.46875 16.546875 
z
M 41.453125 48.140625 
Q 41.453125 55.71875 37.421875 60.15625 
Q 33.40625 64.59375 27.734375 64.59375 
Q 21.875 64.59375 17.53125 59.8125 
Q 13.1875 55.03125 13.1875 47.40625 
Q 13.1875 40.578125 17.3125 36.296875 
Q 21.4375 32.03125 27.484375 32.03125 
Q 33.59375 32.03125 37.515625 36.296875 
Q 41.453125 40.578125 41.453125 48.140625 
z
" id="ArialMT-57"/>
     <path d="M 17.671875 38.8125 
Q 12.203125 40.828125 9.5625 44.53125 
Q 6.9375 48.25 6.9375 53.421875 
Q 6.9375 61.234375 12.546875 66.546875 
Q 18.171875 71.875 27.484375 71.875 
Q 36.859375 71.875 42.578125 66.421875 
Q 48.296875 60.984375 48.296875 53.171875 
Q 48.296875 48.1875 45.671875 44.5 
Q 43.0625 40.828125 37.75 38.8125 
Q 44.34375 36.671875 47.78125 31.875 
Q 51.21875 27.09375 51.21875 20.453125 
Q 51.21875 11.28125 44.71875 5.03125 
Q 38.234375 -1.21875 27.640625 -1.21875 
Q 17.046875 -1.21875 10.546875 5.046875 
Q 4.046875 11.328125 4.046875 20.703125 
Q 4.046875 27.6875 7.59375 32.390625 
Q 11.140625 37.109375 17.671875 38.8125 
z
M 15.921875 53.71875 
Q 15.921875 48.640625 19.1875 45.40625 
Q 22.46875 42.1875 27.6875 42.1875 
Q 32.765625 42.1875 36.015625 45.375 
Q 39.265625 48.578125 39.265625 53.21875 
Q 39.265625 58.0625 35.90625 61.359375 
Q 32.5625 64.65625 27.59375 64.65625 
Q 22.5625 64.65625 19.234375 61.421875 
Q 15.921875 58.203125 15.921875 53.71875 
z
M 13.09375 20.65625 
Q 13.09375 16.890625 14.875 13.375 
Q 16.65625 9.859375 20.171875 7.921875 
Q 23.6875 6 27.734375 6 
Q 34.03125 6 38.125 10.046875 
Q 42.234375 14.109375 42.234375 20.359375 
Q 42.234375 26.703125 38.015625 30.859375 
Q 33.796875 35.015625 27.4375 35.015625 
Q 21.234375 35.015625 17.15625 30.90625 
Q 13.09375 26.8125 13.09375 20.65625 
z
" id="ArialMT-56"/>
    </defs>
    <g style="fill:#262626;" transform="translate(523.47375 15.6)scale(0.12 -0.12)">
     <use xlink:href="#ArialMT-52"/>
     <use x="55.615234" xlink:href="#ArialMT-51"/>
     <use x="111.230469" xlink:href="#ArialMT-57"/>
     <use x="166.845703" xlink:href="#ArialMT-58"/>
     <use x="194.628906" xlink:href="#ArialMT-50"/>
     <use x="250.244141" xlink:href="#ArialMT-46"/>
     <use x="278.027344" xlink:href="#ArialMT-49"/>
     <use x="333.642578" xlink:href="#ArialMT-52"/>
     <use x="389.257812" xlink:href="#ArialMT-56"/>
     <use x="444.873047" xlink:href="#ArialMT-49"/>
    </g>
   </g>
  </g>
  <g id="axes_4">
   <g id="patch_46">
    <path d="M 654.517241 157.5 
L 798.827586 157.5 
L 798.827586 21.6 
L 654.517241 21.6 
z
" style="fill:#ffffff;"/>
   </g>
   <g id="patch_47">
    <path clip-path="url(#pc3a5f2e8bc)" d="M 707.684211 113.66129 
L 692.493648 113.66129 
" style="stroke:#000000;stroke-linejoin:miter;stroke-width:0.5;"/>
   </g>
   <g id="patch_48">
    <path clip-path="url(#pc3a5f2e8bc)" d="M 722.874773 102.701613 
L 707.684211 113.66129 
" style="stroke:#000000;stroke-linejoin:miter;stroke-width:0.5;"/>
   </g>
   <g id="patch_49">
    <path clip-path="url(#pc3a5f2e8bc)" d="M 707.684211 91.741935 
L 692.493648 91.741935 
" style="stroke:#000000;stroke-linejoin:miter;stroke-width:0.5;"/>
   </g>
   <g id="patch_50">
    <path clip-path="url(#pc3a5f2e8bc)" d="M 722.874773 102.701613 
L 707.684211 91.741935 
" style="stroke:#000000;stroke-linejoin:miter;stroke-width:0.5;"/>
   </g>
   <g id="patch_51">
    <path clip-path="url(#pc3a5f2e8bc)" d="M 738.065336 86.262097 
L 722.874773 102.701613 
" style="stroke:#000000;stroke-linejoin:miter;stroke-width:0.5;"/>
   </g>
   <g id="patch_52">
    <path clip-path="url(#pc3a5f2e8bc)" d="M 707.684211 69.822581 
L 692.493648 69.822581 
" style="stroke:#000000;stroke-linejoin:miter;stroke-width:0.5;"/>
   </g>
   <g id="patch_53">
    <path clip-path="url(#pc3a5f2e8bc)" d="M 722.874773 69.822581 
L 707.684211 69.822581 
" style="stroke:#000000;stroke-linejoin:miter;stroke-width:0.5;"/>
   </g>
   <g id="patch_54">
    <path clip-path="url(#pc3a5f2e8bc)" d="M 738.065336 86.262097 
L 722.874773 69.822581 
" style="stroke:#000000;stroke-linejoin:miter;stroke-width:0.5;"/>
   </g>
   <g id="patch_55">
    <path clip-path="url(#pc3a5f2e8bc)" d="M 753.255898 86.262097 
L 738.065336 86.262097 
" style="stroke:#000000;stroke-linejoin:miter;stroke-width:0.5;"/>
   </g>
   <g id="patch_56">
    <path clip-path="url(#pc3a5f2e8bc)" d="M 768.446461 86.262097 
L 753.255898 86.262097 
" style="stroke:#000000;stroke-linejoin:miter;stroke-width:0.5;"/>
   </g>
   <g id="patch_57">
    <path clip-path="url(#pc3a5f2e8bc)" d="M 768.446461 86.262097 
L 768.446461 75.302419 
" style="stroke:#000000;stroke-linejoin:miter;stroke-width:0.5;"/>
   </g>
   <g id="e7ed6e15c2714f728d26442a3a0bab64-1-node">
    <path clip-path="url(#pc3a5f2e8bc)" d="M 771.028857 82.535806 
L 771.028857 89.988387 
L 765.864065 89.988387 
L 765.864065 82.535806 
L 771.028857 82.535806 
z
" style="fill:#0000ff;stroke:#ffffff;stroke-linejoin:miter;stroke-width:0.5;"/>
   </g>
   <g id="e7ed6e15c2714f728d26442a3a0bab64-4-node">
    <path clip-path="url(#pc3a5f2e8bc)" d="M 755.838294 82.535806 
L 755.838294 89.988387 
L 750.673503 89.988387 
L 750.673503 82.535806 
L 755.838294 82.535806 
z
" style="fill:#0000ff;stroke:#ffffff;stroke-linejoin:miter;stroke-width:0.5;"/>
   </g>
   <g id="e7ed6e15c2714f728d26442a3a0bab64-6-node">
    <path clip-path="url(#pc3a5f2e8bc)" d="M 738.065336 89.988387 
C 738.750195 89.988387 739.407097 89.595762 739.891365 88.896982 
C 740.375634 88.198202 740.647731 87.250321 740.647731 86.262097 
C 740.647731 85.273873 740.375634 84.325991 739.891365 83.627212 
C 739.407097 82.928432 738.750195 82.535806 738.065336 82.535806 
C 737.380476 82.535806 736.723575 82.928432 736.239306 83.627212 
C 735.755038 84.325991 735.48294 85.273873 735.48294 86.262097 
C 735.48294 87.250321 735.755038 88.198202 736.239306 88.896982 
C 736.723575 89.595762 737.380476 89.988387 738.065336 89.988387 
z
" style="fill:#00c832;stroke:#ffffff;stroke-linejoin:miter;stroke-width:0.5;"/>
   </g>
   <g id="e7ed6e15c2714f728d26442a3a0bab64-11-node">
    <path clip-path="url(#pc3a5f2e8bc)" d="M 722.874773 106.427903 
C 723.559632 106.427903 724.216534 106.035278 724.700803 105.336498 
C 725.185071 104.637718 725.457169 103.689837 725.457169 102.701613 
C 725.457169 101.713389 725.185071 100.765507 724.700803 100.066728 
C 724.216534 99.367948 723.559632 98.975323 722.874773 98.975323 
C 722.189914 98.975323 721.533012 99.367948 721.048744 100.066728 
C 720.564475 100.765507 720.292377 101.713389 720.292377 102.701613 
C 720.292377 103.689837 720.564475 104.637718 721.048744 105.336498 
C 721.533012 106.035278 722.189914 106.427903 722.874773 106.427903 
z
" style="fill:#00c832;stroke:#ffffff;stroke-linejoin:miter;stroke-width:0.5;"/>
   </g>
   <g id="e7ed6e15c2714f728d26442a3a0bab64-15-node">
    <path clip-path="url(#pc3a5f2e8bc)" d="M 710.266606 109.935 
L 710.266606 117.387581 
L 705.101815 117.387581 
L 705.101815 109.935 
L 710.266606 109.935 
z
" style="fill:#0000ff;stroke:#ffffff;stroke-linejoin:miter;stroke-width:0.5;"/>
   </g>
   <g id="e7ed6e15c2714f728d26442a3a0bab64-17-node">
    <path clip-path="url(#pc3a5f2e8bc)" d="M 692.493648 117.387581 
C 693.178507 117.387581 693.835409 116.994955 694.319677 116.296175 
C 694.803946 115.597396 695.076044 114.649514 695.076044 113.66129 
C 695.076044 112.673067 694.803946 111.725185 694.319677 111.026405 
C 693.835409 110.327625 693.178507 109.935 692.493648 109.935 
C 691.808789 109.935 691.151887 110.327625 690.667618 111.026405 
C 690.18335 111.725185 689.911252 112.673067 689.911252 113.66129 
C 689.911252 114.649514 690.18335 115.597396 690.667618 116.296175 
C 691.151887 116.994955 691.808789 117.387581 692.493648 117.387581 
z
" style="fill:#ffff00;stroke:#ffffff;stroke-linejoin:miter;stroke-width:0.5;"/>
   </g>
   <g id="e7ed6e15c2714f728d26442a3a0bab64-12-node">
    <path clip-path="url(#pc3a5f2e8bc)" d="M 710.266606 88.015645 
L 710.266606 95.468226 
L 705.101815 95.468226 
L 705.101815 88.015645 
L 710.266606 88.015645 
z
" style="fill:#0000ff;stroke:#ffffff;stroke-linejoin:miter;stroke-width:0.5;"/>
   </g>
   <g id="e7ed6e15c2714f728d26442a3a0bab64-14-node">
    <path clip-path="url(#pc3a5f2e8bc)" d="M 692.493648 95.468226 
C 693.178507 95.468226 693.835409 95.0756 694.319677 94.376821 
C 694.803946 93.678041 695.076044 92.730159 695.076044 91.741935 
C 695.076044 90.753712 694.803946 89.80583 694.319677 89.10705 
C 693.835409 88.408271 693.178507 88.015645 692.493648 88.015645 
C 691.808789 88.015645 691.151887 88.408271 690.667618 89.10705 
C 690.18335 89.80583 689.911252 90.753712 689.911252 91.741935 
C 689.911252 92.730159 690.18335 93.678041 690.667618 94.376821 
C 691.151887 95.0756 691.808789 95.468226 692.493648 95.468226 
z
" style="fill:#ffff00;stroke:#ffffff;stroke-linejoin:miter;stroke-width:0.5;"/>
   </g>
   <g id="e7ed6e15c2714f728d26442a3a0bab64-7-node">
    <path clip-path="url(#pc3a5f2e8bc)" d="M 722.874773 73.548871 
C 723.559632 73.548871 724.216534 73.156246 724.700803 72.457466 
C 725.185071 71.758686 725.457169 70.810804 725.457169 69.822581 
C 725.457169 68.834357 725.185071 67.886475 724.700803 67.187695 
C 724.216534 66.488916 723.559632 66.09629 722.874773 66.09629 
C 722.189914 66.09629 721.533012 66.488916 721.048744 67.187695 
C 720.564475 67.886475 720.292377 68.834357 720.292377 69.822581 
C 720.292377 70.810804 720.564475 71.758686 721.048744 72.457466 
C 721.533012 73.156246 722.189914 73.548871 722.874773 73.548871 
z
" style="fill:#00c832;stroke:#ffffff;stroke-linejoin:miter;stroke-width:0.5;"/>
   </g>
   <g id="e7ed6e15c2714f728d26442a3a0bab64-8-node">
    <path clip-path="url(#pc3a5f2e8bc)" d="M 710.266606 66.09629 
L 710.266606 73.548871 
L 705.101815 73.548871 
L 705.101815 66.09629 
L 710.266606 66.09629 
z
" style="fill:#0000ff;stroke:#ffffff;stroke-linejoin:miter;stroke-width:0.5;"/>
   </g>
   <g id="e7ed6e15c2714f728d26442a3a0bab64-10-node">
    <path clip-path="url(#pc3a5f2e8bc)" d="M 692.493648 73.548871 
C 693.178507 73.548871 693.835409 73.156246 694.319677 72.457466 
C 694.803946 71.758686 695.076044 70.810804 695.076044 69.822581 
C 695.076044 68.834357 694.803946 67.886475 694.319677 67.187695 
C 693.835409 66.488916 693.178507 66.09629 692.493648 66.09629 
C 691.808789 66.09629 691.151887 66.488916 690.667618 67.187695 
C 690.18335 67.886475 689.911252 68.834357 689.911252 69.822581 
C 689.911252 70.810804 690.18335 71.758686 690.667618 72.457466 
C 691.151887 73.156246 691.808789 73.548871 692.493648 73.548871 
z
" style="fill:#ffff00;stroke:#ffffff;stroke-linejoin:miter;stroke-width:0.5;"/>
   </g>
   <g id="e7ed6e15c2714f728d26442a3a0bab64-3-node">
    <path clip-path="url(#pc3a5f2e8bc)" d="M 768.446461 71.576129 
L 766.210041 77.165565 
L 770.682881 77.165565 
z
" style="fill:#ff0000;stroke:#ffffff;stroke-linejoin:miter;stroke-width:0.5;"/>
   </g>
   <g id="patch_58">
    <path d="M 654.517241 157.5 
L 654.517241 21.6 
" style="fill:none;stroke:#ffffff;stroke-linecap:square;stroke-linejoin:miter;stroke-width:1.25;"/>
   </g>
   <g id="patch_59">
    <path d="M 798.827586 157.5 
L 798.827586 21.6 
" style="fill:none;stroke:#ffffff;stroke-linecap:square;stroke-linejoin:miter;stroke-width:1.25;"/>
   </g>
   <g id="patch_60">
    <path d="M 654.517241 157.5 
L 798.827586 157.5 
" style="fill:none;stroke:#ffffff;stroke-linecap:square;stroke-linejoin:miter;stroke-width:1.25;"/>
   </g>
   <g id="patch_61">
    <path d="M 654.517241 21.6 
L 798.827586 21.6 
" style="fill:none;stroke:#ffffff;stroke-linecap:square;stroke-linejoin:miter;stroke-width:1.25;"/>
   </g>
   <g id="text_4">
    <!-- 571:1.6296 -->
    <defs>
     <path d="M 4.15625 18.75 
L 13.375 19.53125 
Q 14.40625 12.796875 18.140625 9.390625 
Q 21.875 6 27.15625 6 
Q 33.5 6 37.890625 10.78125 
Q 42.28125 15.578125 42.28125 23.484375 
Q 42.28125 31 38.0625 35.34375 
Q 33.84375 39.703125 27 39.703125 
Q 22.75 39.703125 19.328125 37.765625 
Q 15.921875 35.84375 13.96875 32.765625 
L 5.71875 33.84375 
L 12.640625 70.609375 
L 48.25 70.609375 
L 48.25 62.203125 
L 19.671875 62.203125 
L 15.828125 42.96875 
Q 22.265625 47.46875 29.34375 47.46875 
Q 38.71875 47.46875 45.15625 40.96875 
Q 51.609375 34.46875 51.609375 24.265625 
Q 51.609375 14.546875 45.953125 7.46875 
Q 39.0625 -1.21875 27.15625 -1.21875 
Q 17.390625 -1.21875 11.203125 4.25 
Q 5.03125 9.71875 4.15625 18.75 
z
" id="ArialMT-53"/>
    </defs>
    <g style="fill:#262626;" transform="translate(696.646164 15.6)scale(0.12 -0.12)">
     <use xlink:href="#ArialMT-53"/>
     <use x="55.615234" xlink:href="#ArialMT-55"/>
     <use x="111.230469" xlink:href="#ArialMT-49"/>
     <use x="166.845703" xlink:href="#ArialMT-58"/>
     <use x="194.628906" xlink:href="#ArialMT-49"/>
     <use x="250.244141" xlink:href="#ArialMT-46"/>
     <use x="278.027344" xlink:href="#ArialMT-54"/>
     <use x="333.642578" xlink:href="#ArialMT-50"/>
     <use x="389.257812" xlink:href="#ArialMT-57"/>
     <use x="444.873047" xlink:href="#ArialMT-54"/>
    </g>
   </g>
  </g>
  <g id="axes_5">
   <g id="patch_62">
    <path d="M 827.689655 157.5 
L 972 157.5 
L 972 21.6 
L 827.689655 21.6 
z
" style="fill:#eaeaf2;"/>
   </g>
   <g id="matplotlib.axis_1">
    <g id="xtick_1">
     <g id="line2d_1">
      <path clip-path="url(#peb8c6b8b6f)" d="M 827.689655 157.5 
L 827.689655 21.6 
" style="fill:none;stroke:#ffffff;stroke-linecap:round;"/>
     </g>
     <g id="text_5">
      <!-- 0.00 -->
      <g style="fill:#262626;" transform="translate(816.98614 174.873594)scale(0.11 -0.11)">
       <use xlink:href="#ArialMT-48"/>
       <use x="55.615234" xlink:href="#ArialMT-46"/>
       <use x="83.398438" xlink:href="#ArialMT-48"/>
       <use x="139.013672" xlink:href="#ArialMT-48"/>
      </g>
     </g>
    </g>
    <g id="xtick_2">
     <g id="line2d_2">
      <path clip-path="url(#peb8c6b8b6f)" d="M 863.767241 157.5 
L 863.767241 21.6 
" style="fill:none;stroke:#ffffff;stroke-linecap:round;"/>
     </g>
     <g id="text_6">
      <!-- 0.25 -->
      <g style="fill:#262626;" transform="translate(853.063726 174.873594)scale(0.11 -0.11)">
       <use xlink:href="#ArialMT-48"/>
       <use x="55.615234" xlink:href="#ArialMT-46"/>
       <use x="83.398438" xlink:href="#ArialMT-50"/>
       <use x="139.013672" xlink:href="#ArialMT-53"/>
      </g>
     </g>
    </g>
    <g id="xtick_3">
     <g id="line2d_3">
      <path clip-path="url(#peb8c6b8b6f)" d="M 899.844828 157.5 
L 899.844828 21.6 
" style="fill:none;stroke:#ffffff;stroke-linecap:round;"/>
     </g>
     <g id="text_7">
      <!-- 0.50 -->
      <g style="fill:#262626;" transform="translate(889.141312 174.873594)scale(0.11 -0.11)">
       <use xlink:href="#ArialMT-48"/>
       <use x="55.615234" xlink:href="#ArialMT-46"/>
       <use x="83.398438" xlink:href="#ArialMT-53"/>
       <use x="139.013672" xlink:href="#ArialMT-48"/>
      </g>
     </g>
    </g>
    <g id="xtick_4">
     <g id="line2d_4">
      <path clip-path="url(#peb8c6b8b6f)" d="M 935.922414 157.5 
L 935.922414 21.6 
" style="fill:none;stroke:#ffffff;stroke-linecap:round;"/>
     </g>
     <g id="text_8">
      <!-- 0.75 -->
      <g style="fill:#262626;" transform="translate(925.218898 174.873594)scale(0.11 -0.11)">
       <use xlink:href="#ArialMT-48"/>
       <use x="55.615234" xlink:href="#ArialMT-46"/>
       <use x="83.398438" xlink:href="#ArialMT-55"/>
       <use x="139.013672" xlink:href="#ArialMT-53"/>
      </g>
     </g>
    </g>
    <g id="xtick_5">
     <g id="line2d_5">
      <path clip-path="url(#peb8c6b8b6f)" d="M 972 157.5 
L 972 21.6 
" style="fill:none;stroke:#ffffff;stroke-linecap:round;"/>
     </g>
     <g id="text_9">
      <!-- 1.00 -->
      <g style="fill:#262626;" transform="translate(961.296484 174.873594)scale(0.11 -0.11)">
       <use xlink:href="#ArialMT-49"/>
       <use x="55.615234" xlink:href="#ArialMT-46"/>
       <use x="83.398438" xlink:href="#ArialMT-48"/>
       <use x="139.013672" xlink:href="#ArialMT-48"/>
      </g>
     </g>
    </g>
   </g>
   <g id="matplotlib.axis_2">
    <g id="ytick_1">
     <g id="line2d_6">
      <path clip-path="url(#peb8c6b8b6f)" d="M 827.689655 157.5 
L 972 157.5 
" style="fill:none;stroke:#ffffff;stroke-linecap:round;"/>
     </g>
     <g id="text_10">
      <!-- 0.0 -->
      <g style="fill:#262626;" transform="translate(802.899655 161.436797)scale(0.11 -0.11)">
       <use xlink:href="#ArialMT-48"/>
       <use x="55.615234" xlink:href="#ArialMT-46"/>
       <use x="83.398438" xlink:href="#ArialMT-48"/>
      </g>
     </g>
    </g>
    <g id="ytick_2">
     <g id="line2d_7">
      <path clip-path="url(#peb8c6b8b6f)" d="M 827.689655 130.32 
L 972 130.32 
" style="fill:none;stroke:#ffffff;stroke-linecap:round;"/>
     </g>
     <g id="text_11">
      <!-- 0.2 -->
      <g style="fill:#262626;" transform="translate(802.899655 134.256797)scale(0.11 -0.11)">
       <use xlink:href="#ArialMT-48"/>
       <use x="55.615234" xlink:href="#ArialMT-46"/>
       <use x="83.398438" xlink:href="#ArialMT-50"/>
      </g>
     </g>
    </g>
    <g id="ytick_3">
     <g id="line2d_8">
      <path clip-path="url(#peb8c6b8b6f)" d="M 827.689655 103.14 
L 972 103.14 
" style="fill:none;stroke:#ffffff;stroke-linecap:round;"/>
     </g>
     <g id="text_12">
      <!-- 0.4 -->
      <g style="fill:#262626;" transform="translate(802.899655 107.076797)scale(0.11 -0.11)">
       <use xlink:href="#ArialMT-48"/>
       <use x="55.615234" xlink:href="#ArialMT-46"/>
       <use x="83.398438" xlink:href="#ArialMT-52"/>
      </g>
     </g>
    </g>
    <g id="ytick_4">
     <g id="line2d_9">
      <path clip-path="url(#peb8c6b8b6f)" d="M 827.689655 75.96 
L 972 75.96 
" style="fill:none;stroke:#ffffff;stroke-linecap:round;"/>
     </g>
     <g id="text_13">
      <!-- 0.6 -->
      <g style="fill:#262626;" transform="translate(802.899655 79.896797)scale(0.11 -0.11)">
       <use xlink:href="#ArialMT-48"/>
       <use x="55.615234" xlink:href="#ArialMT-46"/>
       <use x="83.398438" xlink:href="#ArialMT-54"/>
      </g>
     </g>
    </g>
    <g id="ytick_5">
     <g id="line2d_10">
      <path clip-path="url(#peb8c6b8b6f)" d="M 827.689655 48.78 
L 972 48.78 
" style="fill:none;stroke:#ffffff;stroke-linecap:round;"/>
     </g>
     <g id="text_14">
      <!-- 0.8 -->
      <g style="fill:#262626;" transform="translate(802.899655 52.716797)scale(0.11 -0.11)">
       <use xlink:href="#ArialMT-48"/>
       <use x="55.615234" xlink:href="#ArialMT-46"/>
       <use x="83.398438" xlink:href="#ArialMT-56"/>
      </g>
     </g>
    </g>
    <g id="ytick_6">
     <g id="line2d_11">
      <path clip-path="url(#peb8c6b8b6f)" d="M 827.689655 21.6 
L 972 21.6 
" style="fill:none;stroke:#ffffff;stroke-linecap:round;"/>
     </g>
     <g id="text_15">
      <!-- 1.0 -->
      <g style="fill:#262626;" transform="translate(802.899655 25.536797)scale(0.11 -0.11)">
       <use xlink:href="#ArialMT-49"/>
       <use x="55.615234" xlink:href="#ArialMT-46"/>
       <use x="83.398438" xlink:href="#ArialMT-48"/>
      </g>
     </g>
    </g>
   </g>
   <g id="patch_63">
    <path d="M 827.689655 157.5 
L 827.689655 21.6 
" style="fill:none;stroke:#ffffff;stroke-linecap:square;stroke-linejoin:miter;stroke-width:1.25;"/>
   </g>
   <g id="patch_64">
    <path d="M 972 157.5 
L 972 21.6 
" style="fill:none;stroke:#ffffff;stroke-linecap:square;stroke-linejoin:miter;stroke-width:1.25;"/>
   </g>
   <g id="patch_65">
    <path d="M 827.689655 157.5 
L 972 157.5 
" style="fill:none;stroke:#ffffff;stroke-linecap:square;stroke-linejoin:miter;stroke-width:1.25;"/>
   </g>
   <g id="patch_66">
    <path d="M 827.689655 21.6 
L 972 21.6 
" style="fill:none;stroke:#ffffff;stroke-linecap:square;stroke-linejoin:miter;stroke-width:1.25;"/>
   </g>
   <g id="text_16">
    <!-- 19 -->
    <g style="fill:#262626;" transform="translate(893.171703 15.6)scale(0.12 -0.12)">
     <use xlink:href="#ArialMT-49"/>
     <use x="55.615234" xlink:href="#ArialMT-57"/>
    </g>
   </g>
  </g>
 </g>
 <defs>
  <clipPath id="p72119a4773">
   <rect height="135.9" width="144.310345" x="135" y="21.6"/>
  </clipPath>
  <clipPath id="pa53c3ab0ef">
   <rect height="135.9" width="144.310345" x="308.172414" y="21.6"/>
  </clipPath>
  <clipPath id="p0502387863">
   <rect height="135.9" width="144.310345" x="481.344828" y="21.6"/>
  </clipPath>
  <clipPath id="pc3a5f2e8bc">
   <rect height="135.9" width="144.310345" x="654.517241" y="21.6"/>
  </clipPath>
  <clipPath id="peb8c6b8b6f">
   <rect height="135.9" width="144.310345" x="827.689655" y="21.6"/>
  </clipPath>
 </defs>
</svg>
