<?xml version="1.0" encoding="utf-8" standalone="no"?>
<!DOCTYPE svg PUBLIC "-//W3C//DTD SVG 1.1//EN"
  "http://www.w3.org/Graphics/SVG/1.1/DTD/svg11.dtd">
<!-- Created with matplotlib (https://matplotlib.org/) -->
<svg height="180pt" version="1.1" viewBox="0 0 1080 180" width="1080pt" xmlns="http://www.w3.org/2000/svg" xmlns:xlink="http://www.w3.org/1999/xlink">
 <defs>
  <style type="text/css">
*{stroke-linecap:butt;stroke-linejoin:round;}
  </style>
 </defs>
 <g id="figure_1">
  <g id="patch_1">
   <path d="M 0 180 
L 1080 180 
L 1080 0 
L 0 0 
z
" style="fill:#ffffff;"/>
  </g>
  <g id="axes_1">
   <g id="patch_2">
    <path d="M 135 157.5 
L 279.310345 157.5 
L 279.310345 21.6 
L 135 21.6 
z
" style="fill:#ffffff;"/>
   </g>
   <g id="patch_3">
    <path clip-path="url(#p82da2b2ee8)" d="M 193.41133 97.367257 
L 176.231527 109.393805 
" style="stroke:#000000;stroke-linejoin:miter;stroke-width:0.5;"/>
   </g>
   <g id="patch_4">
    <path clip-path="url(#p82da2b2ee8)" d="M 193.41133 97.367257 
L 176.231527 85.340708 
" style="stroke:#000000;stroke-linejoin:miter;stroke-width:0.5;"/>
   </g>
   <g id="patch_5">
    <path clip-path="url(#p82da2b2ee8)" d="M 210.591133 85.340708 
L 193.41133 97.367257 
" style="stroke:#000000;stroke-linejoin:miter;stroke-width:0.5;"/>
   </g>
   <g id="patch_6">
    <path clip-path="url(#p82da2b2ee8)" d="M 210.591133 85.340708 
L 193.41133 73.314159 
" style="stroke:#000000;stroke-linejoin:miter;stroke-width:0.5;"/>
   </g>
   <g id="patch_7">
    <path clip-path="url(#p82da2b2ee8)" d="M 227.770936 85.340708 
L 210.591133 85.340708 
" style="stroke:#000000;stroke-linejoin:miter;stroke-width:0.5;"/>
   </g>
   <g id="patch_8">
    <path clip-path="url(#p82da2b2ee8)" d="M 244.950739 85.340708 
L 227.770936 85.340708 
" style="stroke:#000000;stroke-linejoin:miter;stroke-width:0.5;"/>
   </g>
   <g id="patch_9">
    <path clip-path="url(#p82da2b2ee8)" d="M 244.950739 85.340708 
L 244.950739 73.314159 
" style="stroke:#000000;stroke-linejoin:miter;stroke-width:0.5;"/>
   </g>
   <g id="1d5da22a8912422d882a702994c9cd0b-1-node">
    <path clip-path="url(#p82da2b2ee8)" d="M 247.871305 81.251681 
L 247.871305 89.429735 
L 242.030172 89.429735 
L 242.030172 81.251681 
L 247.871305 81.251681 
z
" style="fill:#0000ff;stroke:#ffffff;stroke-linejoin:miter;stroke-width:0.5;"/>
   </g>
   <g id="1d5da22a8912422d882a702994c9cd0b-4-node">
    <path clip-path="url(#p82da2b2ee8)" d="M 230.691502 81.251681 
L 230.691502 89.429735 
L 224.850369 89.429735 
L 224.850369 81.251681 
L 230.691502 81.251681 
z
" style="fill:#0000ff;stroke:#ffffff;stroke-linejoin:miter;stroke-width:0.5;"/>
   </g>
   <g id="1d5da22a8912422d882a702994c9cd0b-6-node">
    <path clip-path="url(#p82da2b2ee8)" d="M 210.591133 89.429735 
C 211.365676 89.429735 212.108601 88.998889 212.656285 88.232086 
C 213.20397 87.465284 213.5117 86.42513 213.5117 85.340708 
C 213.5117 84.256285 213.20397 83.216132 212.656285 82.44933 
C 212.108601 81.682527 211.365676 81.251681 210.591133 81.251681 
C 209.81659 81.251681 209.073665 81.682527 208.525981 82.44933 
C 207.978296 83.216132 207.670567 84.256285 207.670567 85.340708 
C 207.670567 86.42513 207.978296 87.465284 208.525981 88.232086 
C 209.073665 88.998889 209.81659 89.429735 210.591133 89.429735 
z
" style="fill:#00c832;stroke:#ffffff;stroke-linejoin:miter;stroke-width:0.5;"/>
   </g>
   <g id="1d5da22a8912422d882a702994c9cd0b-8-node">
    <path clip-path="url(#p82da2b2ee8)" d="M 193.41133 101.456283 
C 194.185873 101.456283 194.928798 101.025438 195.476482 100.258635 
C 196.024167 99.491833 196.331897 98.451679 196.331897 97.367257 
C 196.331897 96.282834 196.024167 95.242681 195.476482 94.475878 
C 194.928798 93.709076 194.185873 93.27823 193.41133 93.27823 
C 192.636787 93.27823 191.893862 93.709076 191.346178 94.475878 
C 190.798493 95.242681 190.490764 96.282834 190.490764 97.367257 
C 190.490764 98.451679 190.798493 99.491833 191.346178 100.258635 
C 191.893862 101.025438 192.636787 101.456283 193.41133 101.456283 
z
" style="fill:#00c832;stroke:#ffffff;stroke-linejoin:miter;stroke-width:0.5;"/>
   </g>
   <g id="1d5da22a8912422d882a702994c9cd0b-11-node">
    <path clip-path="url(#p82da2b2ee8)" d="M 179.152094 105.304779 
L 179.152094 113.482832 
L 173.310961 113.482832 
L 173.310961 105.304779 
L 179.152094 105.304779 
z
" style="fill:#0000ff;stroke:#ffffff;stroke-linejoin:miter;stroke-width:0.5;"/>
   </g>
   <g id="1d5da22a8912422d882a702994c9cd0b-9-node">
    <path clip-path="url(#p82da2b2ee8)" d="M 179.152094 81.251681 
L 179.152094 89.429735 
L 173.310961 89.429735 
L 173.310961 81.251681 
L 179.152094 81.251681 
z
" style="fill:#0000ff;stroke:#ffffff;stroke-linejoin:miter;stroke-width:0.5;"/>
   </g>
   <g id="1d5da22a8912422d882a702994c9cd0b-7-node">
    <path clip-path="url(#p82da2b2ee8)" d="M 193.41133 77.403186 
C 194.185873 77.403186 194.928798 76.97234 195.476482 76.205538 
C 196.024167 75.438735 196.331897 74.398582 196.331897 73.314159 
C 196.331897 72.229737 196.024167 71.189583 195.476482 70.422781 
C 194.928798 69.655978 194.185873 69.225133 193.41133 69.225133 
C 192.636787 69.225133 191.893862 69.655978 191.346178 70.422781 
C 190.798493 71.189583 190.490764 72.229737 190.490764 73.314159 
C 190.490764 74.398582 190.798493 75.438735 191.346178 76.205538 
C 191.893862 76.97234 192.636787 77.403186 193.41133 77.403186 
z
" style="fill:#00c832;stroke:#ffffff;stroke-linejoin:miter;stroke-width:0.5;"/>
   </g>
   <g id="1d5da22a8912422d882a702994c9cd0b-3-node">
    <path clip-path="url(#p82da2b2ee8)" d="M 244.950739 69.225133 
L 242.421454 75.358673 
L 247.480024 75.358673 
z
" style="fill:#ff0000;stroke:#ffffff;stroke-linejoin:miter;stroke-width:0.5;"/>
   </g>
   <g id="patch_10">
    <path d="M 135 157.5 
L 135 21.6 
" style="fill:none;stroke:#ffffff;stroke-linecap:square;stroke-linejoin:miter;stroke-width:1.25;"/>
   </g>
   <g id="patch_11">
    <path d="M 279.310345 157.5 
L 279.310345 21.6 
" style="fill:none;stroke:#ffffff;stroke-linecap:square;stroke-linejoin:miter;stroke-width:1.25;"/>
   </g>
   <g id="patch_12">
    <path d="M 135 157.5 
L 279.310345 157.5 
" style="fill:none;stroke:#ffffff;stroke-linecap:square;stroke-linejoin:miter;stroke-width:1.25;"/>
   </g>
   <g id="patch_13">
    <path d="M 135 21.6 
L 279.310345 21.6 
" style="fill:none;stroke:#ffffff;stroke-linecap:square;stroke-linejoin:miter;stroke-width:1.25;"/>
   </g>
   <g id="text_1">
    <!-- 184:1.3333 -->
    <defs>
     <path d="M 37.25 0 
L 28.46875 0 
L 28.46875 56 
Q 25.296875 52.984375 20.140625 49.953125 
Q 14.984375 46.921875 10.890625 45.40625 
L 10.890625 53.90625 
Q 18.265625 57.375 23.78125 62.296875 
Q 29.296875 67.234375 31.59375 71.875 
L 37.25 71.875 
z
" id="ArialMT-49"/>
     <path d="M 17.671875 38.8125 
Q 12.203125 40.828125 9.5625 44.53125 
Q 6.9375 48.25 6.9375 53.421875 
Q 6.9375 61.234375 12.546875 66.546875 
Q 18.171875 71.875 27.484375 71.875 
Q 36.859375 71.875 42.578125 66.421875 
Q 48.296875 60.984375 48.296875 53.171875 
Q 48.296875 48.1875 45.671875 44.5 
Q 43.0625 40.828125 37.75 38.8125 
Q 44.34375 36.671875 47.78125 31.875 
Q 51.21875 27.09375 51.21875 20.453125 
Q 51.21875 11.28125 44.71875 5.03125 
Q 38.234375 -1.21875 27.640625 -1.21875 
Q 17.046875 -1.21875 10.546875 5.046875 
Q 4.046875 11.328125 4.046875 20.703125 
Q 4.046875 27.6875 7.59375 32.390625 
Q 11.140625 37.109375 17.671875 38.8125 
z
M 15.921875 53.71875 
Q 15.921875 48.640625 19.1875 45.40625 
Q 22.46875 42.1875 27.6875 42.1875 
Q 32.765625 42.1875 36.015625 45.375 
Q 39.265625 48.578125 39.265625 53.21875 
Q 39.265625 58.0625 35.90625 61.359375 
Q 32.5625 64.65625 27.59375 64.65625 
Q 22.5625 64.65625 19.234375 61.421875 
Q 15.921875 58.203125 15.921875 53.71875 
z
M 13.09375 20.65625 
Q 13.09375 16.890625 14.875 13.375 
Q 16.65625 9.859375 20.171875 7.921875 
Q 23.6875 6 27.734375 6 
Q 34.03125 6 38.125 10.046875 
Q 42.234375 14.109375 42.234375 20.359375 
Q 42.234375 26.703125 38.015625 30.859375 
Q 33.796875 35.015625 27.4375 35.015625 
Q 21.234375 35.015625 17.15625 30.90625 
Q 13.09375 26.8125 13.09375 20.65625 
z
" id="ArialMT-56"/>
     <path d="M 32.328125 0 
L 32.328125 17.140625 
L 1.265625 17.140625 
L 1.265625 25.203125 
L 33.9375 71.578125 
L 41.109375 71.578125 
L 41.109375 25.203125 
L 50.78125 25.203125 
L 50.78125 17.140625 
L 41.109375 17.140625 
L 41.109375 0 
z
M 32.328125 25.203125 
L 32.328125 57.46875 
L 9.90625 25.203125 
z
" id="ArialMT-52"/>
     <path d="M 9.03125 41.84375 
L 9.03125 51.859375 
L 19.046875 51.859375 
L 19.046875 41.84375 
z
M 9.03125 0 
L 9.03125 10.015625 
L 19.046875 10.015625 
L 19.046875 0 
z
" id="ArialMT-58"/>
     <path d="M 9.078125 0 
L 9.078125 10.015625 
L 19.09375 10.015625 
L 19.09375 0 
z
" id="ArialMT-46"/>
     <path d="M 4.203125 18.890625 
L 12.984375 20.0625 
Q 14.5 12.59375 18.140625 9.296875 
Q 21.78125 6 27 6 
Q 33.203125 6 37.46875 10.296875 
Q 41.75 14.59375 41.75 20.953125 
Q 41.75 27 37.796875 30.921875 
Q 33.84375 34.859375 27.734375 34.859375 
Q 25.25 34.859375 21.53125 33.890625 
L 22.515625 41.609375 
Q 23.390625 41.5 23.921875 41.5 
Q 29.546875 41.5 34.03125 44.421875 
Q 38.53125 47.359375 38.53125 53.46875 
Q 38.53125 58.296875 35.25 61.46875 
Q 31.984375 64.65625 26.8125 64.65625 
Q 21.6875 64.65625 18.265625 61.421875 
Q 14.84375 58.203125 13.875 51.765625 
L 5.078125 53.328125 
Q 6.6875 62.15625 12.390625 67.015625 
Q 18.109375 71.875 26.609375 71.875 
Q 32.46875 71.875 37.390625 69.359375 
Q 42.328125 66.84375 44.9375 62.5 
Q 47.5625 58.15625 47.5625 53.265625 
Q 47.5625 48.640625 45.0625 44.828125 
Q 42.578125 41.015625 37.703125 38.765625 
Q 44.046875 37.3125 47.5625 32.6875 
Q 51.078125 28.078125 51.078125 21.140625 
Q 51.078125 11.765625 44.234375 5.25 
Q 37.40625 -1.265625 26.953125 -1.265625 
Q 17.53125 -1.265625 11.296875 4.34375 
Q 5.078125 9.96875 4.203125 18.890625 
z
" id="ArialMT-51"/>
    </defs>
    <g style="fill:#262626;" transform="translate(177.128922 15.6)scale(0.12 -0.12)">
     <use xlink:href="#ArialMT-49"/>
     <use x="55.615234" xlink:href="#ArialMT-56"/>
     <use x="111.230469" xlink:href="#ArialMT-52"/>
     <use x="166.845703" xlink:href="#ArialMT-58"/>
     <use x="194.628906" xlink:href="#ArialMT-49"/>
     <use x="250.244141" xlink:href="#ArialMT-46"/>
     <use x="278.027344" xlink:href="#ArialMT-51"/>
     <use x="333.642578" xlink:href="#ArialMT-51"/>
     <use x="389.257812" xlink:href="#ArialMT-51"/>
     <use x="444.873047" xlink:href="#ArialMT-51"/>
    </g>
   </g>
  </g>
  <g id="axes_2">
   <g id="patch_14">
    <path d="M 308.172414 157.5 
L 452.482759 157.5 
L 452.482759 21.6 
L 308.172414 21.6 
z
" style="fill:#ffffff;"/>
   </g>
   <g id="patch_15">
    <path clip-path="url(#p6af65d7404)" d="M 361.339383 109.393805 
L 346.14882 109.393805 
" style="stroke:#000000;stroke-linejoin:miter;stroke-width:0.5;"/>
   </g>
   <g id="patch_16">
    <path clip-path="url(#p6af65d7404)" d="M 376.529946 97.367257 
L 361.339383 109.393805 
" style="stroke:#000000;stroke-linejoin:miter;stroke-width:0.5;"/>
   </g>
   <g id="patch_17">
    <path clip-path="url(#p6af65d7404)" d="M 361.339383 85.340708 
L 346.14882 85.340708 
" style="stroke:#000000;stroke-linejoin:miter;stroke-width:0.5;"/>
   </g>
   <g id="patch_18">
    <path clip-path="url(#p6af65d7404)" d="M 376.529946 97.367257 
L 361.339383 85.340708 
" style="stroke:#000000;stroke-linejoin:miter;stroke-width:0.5;"/>
   </g>
   <g id="patch_19">
    <path clip-path="url(#p6af65d7404)" d="M 391.720508 85.340708 
L 376.529946 97.367257 
" style="stroke:#000000;stroke-linejoin:miter;stroke-width:0.5;"/>
   </g>
   <g id="patch_20">
    <path clip-path="url(#p6af65d7404)" d="M 391.720508 85.340708 
L 376.529946 73.314159 
" style="stroke:#000000;stroke-linejoin:miter;stroke-width:0.5;"/>
   </g>
   <g id="patch_21">
    <path clip-path="url(#p6af65d7404)" d="M 406.911071 85.340708 
L 391.720508 85.340708 
" style="stroke:#000000;stroke-linejoin:miter;stroke-width:0.5;"/>
   </g>
   <g id="patch_22">
    <path clip-path="url(#p6af65d7404)" d="M 422.101633 85.340708 
L 406.911071 85.340708 
" style="stroke:#000000;stroke-linejoin:miter;stroke-width:0.5;"/>
   </g>
   <g id="patch_23">
    <path clip-path="url(#p6af65d7404)" d="M 422.101633 85.340708 
L 422.101633 73.314159 
" style="stroke:#000000;stroke-linejoin:miter;stroke-width:0.5;"/>
   </g>
   <g id="dd29919ddf694b4ba4ea842e5f85687a-1-node">
    <path clip-path="url(#p6af65d7404)" d="M 424.684029 81.251681 
L 424.684029 89.429735 
L 419.519238 89.429735 
L 419.519238 81.251681 
L 424.684029 81.251681 
z
" style="fill:#0000ff;stroke:#ffffff;stroke-linejoin:miter;stroke-width:0.5;"/>
   </g>
   <g id="dd29919ddf694b4ba4ea842e5f85687a-4-node">
    <path clip-path="url(#p6af65d7404)" d="M 409.493466 81.251681 
L 409.493466 89.429735 
L 404.328675 89.429735 
L 404.328675 81.251681 
L 409.493466 81.251681 
z
" style="fill:#0000ff;stroke:#ffffff;stroke-linejoin:miter;stroke-width:0.5;"/>
   </g>
   <g id="dd29919ddf694b4ba4ea842e5f85687a-6-node">
    <path clip-path="url(#p6af65d7404)" d="M 391.720508 89.429735 
C 392.405367 89.429735 393.062269 88.998889 393.546538 88.232086 
C 394.030806 87.465284 394.302904 86.42513 394.302904 85.340708 
C 394.302904 84.256285 394.030806 83.216132 393.546538 82.44933 
C 393.062269 81.682527 392.405367 81.251681 391.720508 81.251681 
C 391.035649 81.251681 390.378747 81.682527 389.894479 82.44933 
C 389.41021 83.216132 389.138113 84.256285 389.138113 85.340708 
C 389.138113 86.42513 389.41021 87.465284 389.894479 88.232086 
C 390.378747 88.998889 391.035649 89.429735 391.720508 89.429735 
z
" style="fill:#00c832;stroke:#ffffff;stroke-linejoin:miter;stroke-width:0.5;"/>
   </g>
   <g id="dd29919ddf694b4ba4ea842e5f85687a-8-node">
    <path clip-path="url(#p6af65d7404)" d="M 376.529946 101.456283 
C 377.214805 101.456283 377.871706 101.025438 378.355975 100.258635 
C 378.840244 99.491833 379.112341 98.451679 379.112341 97.367257 
C 379.112341 96.282834 378.840244 95.242681 378.355975 94.475878 
C 377.871706 93.709076 377.214805 93.27823 376.529946 93.27823 
C 375.845086 93.27823 375.188185 93.709076 374.703916 94.475878 
C 374.219647 95.242681 373.94755 96.282834 373.94755 97.367257 
C 373.94755 98.451679 374.219647 99.491833 374.703916 100.258635 
C 375.188185 101.025438 375.845086 101.456283 376.529946 101.456283 
z
" style="fill:#00c832;stroke:#ffffff;stroke-linejoin:miter;stroke-width:0.5;"/>
   </g>
   <g id="dd29919ddf694b4ba4ea842e5f85687a-12-node">
    <path clip-path="url(#p6af65d7404)" d="M 363.921779 105.304779 
L 363.921779 113.482832 
L 358.756987 113.482832 
L 358.756987 105.304779 
L 363.921779 105.304779 
z
" style="fill:#0000ff;stroke:#ffffff;stroke-linejoin:miter;stroke-width:0.5;"/>
   </g>
   <g id="dd29919ddf694b4ba4ea842e5f85687a-14-node">
    <path clip-path="url(#p6af65d7404)" d="M 346.14882 113.482832 
C 346.83368 113.482832 347.490581 113.051986 347.97485 112.285184 
C 348.459118 111.518381 348.731216 110.478228 348.731216 109.393805 
C 348.731216 108.309383 348.459118 107.269229 347.97485 106.502427 
C 347.490581 105.735624 346.83368 105.304779 346.14882 105.304779 
C 345.463961 105.304779 344.80706 105.735624 344.322791 106.502427 
C 343.838522 107.269229 343.566425 108.309383 343.566425 109.393805 
C 343.566425 110.478228 343.838522 111.518381 344.322791 112.285184 
C 344.80706 113.051986 345.463961 113.482832 346.14882 113.482832 
z
" style="fill:#ffff00;stroke:#ffffff;stroke-linejoin:miter;stroke-width:0.5;"/>
   </g>
   <g id="dd29919ddf694b4ba4ea842e5f85687a-9-node">
    <path clip-path="url(#p6af65d7404)" d="M 363.921779 81.251681 
L 363.921779 89.429735 
L 358.756987 89.429735 
L 358.756987 81.251681 
L 363.921779 81.251681 
z
" style="fill:#0000ff;stroke:#ffffff;stroke-linejoin:miter;stroke-width:0.5;"/>
   </g>
   <g id="dd29919ddf694b4ba4ea842e5f85687a-11-node">
    <path clip-path="url(#p6af65d7404)" d="M 346.14882 89.429735 
C 346.83368 89.429735 347.490581 88.998889 347.97485 88.232086 
C 348.459118 87.465284 348.731216 86.42513 348.731216 85.340708 
C 348.731216 84.256285 348.459118 83.216132 347.97485 82.44933 
C 347.490581 81.682527 346.83368 81.251681 346.14882 81.251681 
C 345.463961 81.251681 344.80706 81.682527 344.322791 82.44933 
C 343.838522 83.216132 343.566425 84.256285 343.566425 85.340708 
C 343.566425 86.42513 343.838522 87.465284 344.322791 88.232086 
C 344.80706 88.998889 345.463961 89.429735 346.14882 89.429735 
z
" style="fill:#ffff00;stroke:#ffffff;stroke-linejoin:miter;stroke-width:0.5;"/>
   </g>
   <g id="dd29919ddf694b4ba4ea842e5f85687a-7-node">
    <path clip-path="url(#p6af65d7404)" d="M 376.529946 77.403186 
C 377.214805 77.403186 377.871706 76.97234 378.355975 76.205538 
C 378.840244 75.438735 379.112341 74.398582 379.112341 73.314159 
C 379.112341 72.229737 378.840244 71.189583 378.355975 70.422781 
C 377.871706 69.655978 377.214805 69.225133 376.529946 69.225133 
C 375.845086 69.225133 375.188185 69.655978 374.703916 70.422781 
C 374.219647 71.189583 373.94755 72.229737 373.94755 73.314159 
C 373.94755 74.398582 374.219647 75.438735 374.703916 76.205538 
C 375.188185 76.97234 375.845086 77.403186 376.529946 77.403186 
z
" style="fill:#00c832;stroke:#ffffff;stroke-linejoin:miter;stroke-width:0.5;"/>
   </g>
   <g id="dd29919ddf694b4ba4ea842e5f85687a-3-node">
    <path clip-path="url(#p6af65d7404)" d="M 422.101633 69.225133 
L 419.865213 75.358673 
L 424.338054 75.358673 
z
" style="fill:#ff0000;stroke:#ffffff;stroke-linejoin:miter;stroke-width:0.5;"/>
   </g>
   <g id="patch_24">
    <path d="M 308.172414 157.5 
L 308.172414 21.6 
" style="fill:none;stroke:#ffffff;stroke-linecap:square;stroke-linejoin:miter;stroke-width:1.25;"/>
   </g>
   <g id="patch_25">
    <path d="M 452.482759 157.5 
L 452.482759 21.6 
" style="fill:none;stroke:#ffffff;stroke-linecap:square;stroke-linejoin:miter;stroke-width:1.25;"/>
   </g>
   <g id="patch_26">
    <path d="M 308.172414 157.5 
L 452.482759 157.5 
" style="fill:none;stroke:#ffffff;stroke-linecap:square;stroke-linejoin:miter;stroke-width:1.25;"/>
   </g>
   <g id="patch_27">
    <path d="M 308.172414 21.6 
L 452.482759 21.6 
" style="fill:none;stroke:#ffffff;stroke-linecap:square;stroke-linejoin:miter;stroke-width:1.25;"/>
   </g>
   <g id="text_2">
    <!-- 328:1.4444 -->
    <defs>
     <path d="M 50.34375 8.453125 
L 50.34375 0 
L 3.03125 0 
Q 2.9375 3.171875 4.046875 6.109375 
Q 5.859375 10.9375 9.828125 15.625 
Q 13.8125 20.3125 21.34375 26.46875 
Q 33.015625 36.03125 37.109375 41.625 
Q 41.21875 47.21875 41.21875 52.203125 
Q 41.21875 57.421875 37.46875 61 
Q 33.734375 64.59375 27.734375 64.59375 
Q 21.390625 64.59375 17.578125 60.78125 
Q 13.765625 56.984375 13.71875 50.25 
L 4.6875 51.171875 
Q 5.609375 61.28125 11.65625 66.578125 
Q 17.71875 71.875 27.9375 71.875 
Q 38.234375 71.875 44.234375 66.15625 
Q 50.25 60.453125 50.25 52 
Q 50.25 47.703125 48.484375 43.546875 
Q 46.734375 39.40625 42.65625 34.8125 
Q 38.578125 30.21875 29.109375 22.21875 
Q 21.1875 15.578125 18.9375 13.203125 
Q 16.703125 10.84375 15.234375 8.453125 
z
" id="ArialMT-50"/>
    </defs>
    <g style="fill:#262626;" transform="translate(350.301336 15.6)scale(0.12 -0.12)">
     <use xlink:href="#ArialMT-51"/>
     <use x="55.615234" xlink:href="#ArialMT-50"/>
     <use x="111.230469" xlink:href="#ArialMT-56"/>
     <use x="166.845703" xlink:href="#ArialMT-58"/>
     <use x="194.628906" xlink:href="#ArialMT-49"/>
     <use x="250.244141" xlink:href="#ArialMT-46"/>
     <use x="278.027344" xlink:href="#ArialMT-52"/>
     <use x="333.642578" xlink:href="#ArialMT-52"/>
     <use x="389.257812" xlink:href="#ArialMT-52"/>
     <use x="444.873047" xlink:href="#ArialMT-52"/>
    </g>
   </g>
  </g>
  <g id="axes_3">
   <g id="patch_28">
    <path d="M 481.344828 157.5 
L 625.655172 157.5 
L 625.655172 21.6 
L 481.344828 21.6 
z
" style="fill:#ffffff;"/>
   </g>
   <g id="patch_29">
    <path clip-path="url(#pc465734d8a)" d="M 571.198439 97.367257 
L 557.584255 109.393805 
" style="stroke:#000000;stroke-linejoin:miter;stroke-width:0.5;"/>
   </g>
   <g id="patch_30">
    <path clip-path="url(#pc465734d8a)" d="M 557.584255 85.340708 
L 543.970072 97.367257 
" style="stroke:#000000;stroke-linejoin:miter;stroke-width:0.5;"/>
   </g>
   <g id="patch_31">
    <path clip-path="url(#pc465734d8a)" d="M 530.355888 73.314159 
L 516.741705 73.314159 
" style="stroke:#000000;stroke-linejoin:miter;stroke-width:0.5;"/>
   </g>
   <g id="patch_32">
    <path clip-path="url(#pc465734d8a)" d="M 543.970072 73.314159 
L 530.355888 73.314159 
" style="stroke:#000000;stroke-linejoin:miter;stroke-width:0.5;"/>
   </g>
   <g id="patch_33">
    <path clip-path="url(#pc465734d8a)" d="M 557.584255 85.340708 
L 543.970072 73.314159 
" style="stroke:#000000;stroke-linejoin:miter;stroke-width:0.5;"/>
   </g>
   <g id="patch_34">
    <path clip-path="url(#pc465734d8a)" d="M 571.198439 97.367257 
L 557.584255 85.340708 
" style="stroke:#000000;stroke-linejoin:miter;stroke-width:0.5;"/>
   </g>
   <g id="patch_35">
    <path clip-path="url(#pc465734d8a)" d="M 584.812622 97.367257 
L 571.198439 97.367257 
" style="stroke:#000000;stroke-linejoin:miter;stroke-width:0.5;"/>
   </g>
   <g id="patch_36">
    <path clip-path="url(#pc465734d8a)" d="M 598.426805 97.367257 
L 584.812622 97.367257 
" style="stroke:#000000;stroke-linejoin:miter;stroke-width:0.5;"/>
   </g>
   <g id="patch_37">
    <path clip-path="url(#pc465734d8a)" d="M 598.426805 97.367257 
L 598.426805 85.340708 
" style="stroke:#000000;stroke-linejoin:miter;stroke-width:0.5;"/>
   </g>
   <g id="6b4907c20a9e40259c2dc3bd51274849-1-node">
    <path clip-path="url(#pc465734d8a)" d="M 600.741217 93.27823 
L 600.741217 101.456283 
L 596.112394 101.456283 
L 596.112394 93.27823 
L 600.741217 93.27823 
z
" style="fill:#0000ff;stroke:#ffffff;stroke-linejoin:miter;stroke-width:0.5;"/>
   </g>
   <g id="6b4907c20a9e40259c2dc3bd51274849-4-node">
    <path clip-path="url(#pc465734d8a)" d="M 587.127033 93.27823 
L 587.127033 101.456283 
L 582.498211 101.456283 
L 582.498211 93.27823 
L 587.127033 93.27823 
z
" style="fill:#0000ff;stroke:#ffffff;stroke-linejoin:miter;stroke-width:0.5;"/>
   </g>
   <g id="6b4907c20a9e40259c2dc3bd51274849-6-node">
    <path clip-path="url(#pc465734d8a)" d="M 571.198439 101.456283 
C 571.812228 101.456283 572.40096 101.025438 572.834974 100.258635 
C 573.268989 99.491833 573.51285 98.451679 573.51285 97.367257 
C 573.51285 96.282834 573.268989 95.242681 572.834974 94.475878 
C 572.40096 93.709076 571.812228 93.27823 571.198439 93.27823 
C 570.584649 93.27823 569.995917 93.709076 569.561903 94.475878 
C 569.127888 95.242681 568.884027 96.282834 568.884027 97.367257 
C 568.884027 98.451679 569.127888 99.491833 569.561903 100.258635 
C 569.995917 101.025438 570.584649 101.456283 571.198439 101.456283 
z
" style="fill:#00c832;stroke:#ffffff;stroke-linejoin:miter;stroke-width:0.5;"/>
   </g>
   <g id="6b4907c20a9e40259c2dc3bd51274849-15-node">
    <path clip-path="url(#pc465734d8a)" d="M 557.584255 113.482832 
C 558.198044 113.482832 558.786777 113.051986 559.220791 112.285184 
C 559.654805 111.518381 559.898666 110.478228 559.898666 109.393805 
C 559.898666 108.309383 559.654805 107.269229 559.220791 106.502427 
C 558.786777 105.735624 558.198044 105.304779 557.584255 105.304779 
C 556.970466 105.304779 556.381734 105.735624 555.947719 106.502427 
C 555.513705 107.269229 555.269844 108.309383 555.269844 109.393805 
C 555.269844 110.478228 555.513705 111.518381 555.947719 112.285184 
C 556.381734 113.051986 556.970466 113.482832 557.584255 113.482832 
z
" style="fill:#00c832;stroke:#ffffff;stroke-linejoin:miter;stroke-width:0.5;"/>
   </g>
   <g id="6b4907c20a9e40259c2dc3bd51274849-7-node">
    <path clip-path="url(#pc465734d8a)" d="M 557.584255 89.429735 
C 558.198044 89.429735 558.786777 88.998889 559.220791 88.232086 
C 559.654805 87.465284 559.898666 86.42513 559.898666 85.340708 
C 559.898666 84.256285 559.654805 83.216132 559.220791 82.44933 
C 558.786777 81.682527 558.198044 81.251681 557.584255 81.251681 
C 556.970466 81.251681 556.381734 81.682527 555.947719 82.44933 
C 555.513705 83.216132 555.269844 84.256285 555.269844 85.340708 
C 555.269844 86.42513 555.513705 87.465284 555.947719 88.232086 
C 556.381734 88.998889 556.970466 89.429735 557.584255 89.429735 
z
" style="fill:#00c832;stroke:#ffffff;stroke-linejoin:miter;stroke-width:0.5;"/>
   </g>
   <g id="6b4907c20a9e40259c2dc3bd51274849-13-node">
    <path clip-path="url(#pc465734d8a)" d="M 546.284483 93.27823 
L 546.284483 101.456283 
L 541.65566 101.456283 
L 541.65566 93.27823 
L 546.284483 93.27823 
z
" style="fill:#0000ff;stroke:#ffffff;stroke-linejoin:miter;stroke-width:0.5;"/>
   </g>
   <g id="6b4907c20a9e40259c2dc3bd51274849-8-node">
    <path clip-path="url(#pc465734d8a)" d="M 546.284483 69.225133 
L 546.284483 77.403186 
L 541.65566 77.403186 
L 541.65566 69.225133 
L 546.284483 69.225133 
z
" style="fill:#0000ff;stroke:#ffffff;stroke-linejoin:miter;stroke-width:0.5;"/>
   </g>
   <g id="6b4907c20a9e40259c2dc3bd51274849-10-node">
    <path clip-path="url(#pc465734d8a)" d="M 530.355888 77.403186 
C 530.969677 77.403186 531.55841 76.97234 531.992424 76.205538 
C 532.426438 75.438735 532.670299 74.398582 532.670299 73.314159 
C 532.670299 72.229737 532.426438 71.189583 531.992424 70.422781 
C 531.55841 69.655978 530.969677 69.225133 530.355888 69.225133 
C 529.742099 69.225133 529.153367 69.655978 528.719352 70.422781 
C 528.285338 71.189583 528.041477 72.229737 528.041477 73.314159 
C 528.041477 74.398582 528.285338 75.438735 528.719352 76.205538 
C 529.153367 76.97234 529.742099 77.403186 530.355888 77.403186 
z
" style="fill:#ffff00;stroke:#ffffff;stroke-linejoin:miter;stroke-width:0.5;"/>
   </g>
   <g id="6b4907c20a9e40259c2dc3bd51274849-11-node">
    <path clip-path="url(#pc465734d8a)" d="M 516.741705 69.225133 
L 514.427293 73.314159 
L 516.741705 77.403186 
L 519.056116 73.314159 
z
" style="fill:#c800c8;stroke:#ffffff;stroke-linejoin:miter;stroke-width:0.5;"/>
   </g>
   <g id="6b4907c20a9e40259c2dc3bd51274849-3-node">
    <path clip-path="url(#pc465734d8a)" d="M 598.426805 81.251681 
L 596.422467 87.385221 
L 600.431144 87.385221 
z
" style="fill:#ff0000;stroke:#ffffff;stroke-linejoin:miter;stroke-width:0.5;"/>
   </g>
   <g id="patch_38">
    <path d="M 481.344828 157.5 
L 481.344828 21.6 
" style="fill:none;stroke:#ffffff;stroke-linecap:square;stroke-linejoin:miter;stroke-width:1.25;"/>
   </g>
   <g id="patch_39">
    <path d="M 625.655172 157.5 
L 625.655172 21.6 
" style="fill:none;stroke:#ffffff;stroke-linecap:square;stroke-linejoin:miter;stroke-width:1.25;"/>
   </g>
   <g id="patch_40">
    <path d="M 481.344828 157.5 
L 625.655172 157.5 
" style="fill:none;stroke:#ffffff;stroke-linecap:square;stroke-linejoin:miter;stroke-width:1.25;"/>
   </g>
   <g id="patch_41">
    <path d="M 481.344828 21.6 
L 625.655172 21.6 
" style="fill:none;stroke:#ffffff;stroke-linecap:square;stroke-linejoin:miter;stroke-width:1.25;"/>
   </g>
   <g id="text_3">
    <!-- 344:2.0 -->
    <defs>
     <path d="M 4.15625 35.296875 
Q 4.15625 48 6.765625 55.734375 
Q 9.375 63.484375 14.515625 67.671875 
Q 19.671875 71.875 27.484375 71.875 
Q 33.25 71.875 37.59375 69.546875 
Q 41.9375 67.234375 44.765625 62.859375 
Q 47.609375 58.5 49.21875 52.21875 
Q 50.828125 45.953125 50.828125 35.296875 
Q 50.828125 22.703125 48.234375 14.96875 
Q 45.65625 7.234375 40.5 3 
Q 35.359375 -1.21875 27.484375 -1.21875 
Q 17.140625 -1.21875 11.234375 6.203125 
Q 4.15625 15.140625 4.15625 35.296875 
z
M 13.1875 35.296875 
Q 13.1875 17.671875 17.3125 11.828125 
Q 21.4375 6 27.484375 6 
Q 33.546875 6 37.671875 11.859375 
Q 41.796875 17.71875 41.796875 35.296875 
Q 41.796875 52.984375 37.671875 58.78125 
Q 33.546875 64.59375 27.390625 64.59375 
Q 21.34375 64.59375 17.71875 59.46875 
Q 13.1875 52.9375 13.1875 35.296875 
z
" id="ArialMT-48"/>
    </defs>
    <g style="fill:#262626;" transform="translate(533.483438 15.6)scale(0.12 -0.12)">
     <use xlink:href="#ArialMT-51"/>
     <use x="55.615234" xlink:href="#ArialMT-52"/>
     <use x="111.230469" xlink:href="#ArialMT-52"/>
     <use x="166.845703" xlink:href="#ArialMT-58"/>
     <use x="194.628906" xlink:href="#ArialMT-50"/>
     <use x="250.244141" xlink:href="#ArialMT-46"/>
     <use x="278.027344" xlink:href="#ArialMT-48"/>
    </g>
   </g>
  </g>
  <g id="axes_4">
   <g id="patch_42">
    <path d="M 654.517241 157.5 
L 798.827586 157.5 
L 798.827586 21.6 
L 654.517241 21.6 
z
" style="fill:#ffffff;"/>
   </g>
   <g id="patch_43">
    <path clip-path="url(#pcfc3c5309e)" d="M 744.370852 97.367257 
L 730.756669 109.393805 
" style="stroke:#000000;stroke-linejoin:miter;stroke-width:0.5;"/>
   </g>
   <g id="patch_44">
    <path clip-path="url(#pcfc3c5309e)" d="M 717.142485 97.367257 
L 703.528302 97.367257 
" style="stroke:#000000;stroke-linejoin:miter;stroke-width:0.5;"/>
   </g>
   <g id="patch_45">
    <path clip-path="url(#pcfc3c5309e)" d="M 730.756669 85.340708 
L 717.142485 97.367257 
" style="stroke:#000000;stroke-linejoin:miter;stroke-width:0.5;"/>
   </g>
   <g id="patch_46">
    <path clip-path="url(#pcfc3c5309e)" d="M 703.528302 73.314159 
L 689.914118 73.314159 
" style="stroke:#000000;stroke-linejoin:miter;stroke-width:0.5;"/>
   </g>
   <g id="patch_47">
    <path clip-path="url(#pcfc3c5309e)" d="M 717.142485 73.314159 
L 703.528302 73.314159 
" style="stroke:#000000;stroke-linejoin:miter;stroke-width:0.5;"/>
   </g>
   <g id="patch_48">
    <path clip-path="url(#pcfc3c5309e)" d="M 730.756669 85.340708 
L 717.142485 73.314159 
" style="stroke:#000000;stroke-linejoin:miter;stroke-width:0.5;"/>
   </g>
   <g id="patch_49">
    <path clip-path="url(#pcfc3c5309e)" d="M 744.370852 97.367257 
L 730.756669 85.340708 
" style="stroke:#000000;stroke-linejoin:miter;stroke-width:0.5;"/>
   </g>
   <g id="patch_50">
    <path clip-path="url(#pcfc3c5309e)" d="M 757.985036 97.367257 
L 744.370852 97.367257 
" style="stroke:#000000;stroke-linejoin:miter;stroke-width:0.5;"/>
   </g>
   <g id="patch_51">
    <path clip-path="url(#pcfc3c5309e)" d="M 771.599219 97.367257 
L 757.985036 97.367257 
" style="stroke:#000000;stroke-linejoin:miter;stroke-width:0.5;"/>
   </g>
   <g id="patch_52">
    <path clip-path="url(#pcfc3c5309e)" d="M 771.599219 97.367257 
L 771.599219 85.340708 
" style="stroke:#000000;stroke-linejoin:miter;stroke-width:0.5;"/>
   </g>
   <g id="93b00afe32a94822a176acb2102eec8b-1-node">
    <path clip-path="url(#pcfc3c5309e)" d="M 773.91363 93.27823 
L 773.91363 101.456283 
L 769.284808 101.456283 
L 769.284808 93.27823 
L 773.91363 93.27823 
z
" style="fill:#0000ff;stroke:#ffffff;stroke-linejoin:miter;stroke-width:0.5;"/>
   </g>
   <g id="93b00afe32a94822a176acb2102eec8b-4-node">
    <path clip-path="url(#pcfc3c5309e)" d="M 760.299447 93.27823 
L 760.299447 101.456283 
L 755.670625 101.456283 
L 755.670625 93.27823 
L 760.299447 93.27823 
z
" style="fill:#0000ff;stroke:#ffffff;stroke-linejoin:miter;stroke-width:0.5;"/>
   </g>
   <g id="93b00afe32a94822a176acb2102eec8b-6-node">
    <path clip-path="url(#pcfc3c5309e)" d="M 744.370852 101.456283 
C 744.984641 101.456283 745.573374 101.025438 746.007388 100.258635 
C 746.441403 99.491833 746.685264 98.451679 746.685264 97.367257 
C 746.685264 96.282834 746.441403 95.242681 746.007388 94.475878 
C 745.573374 93.709076 744.984641 93.27823 744.370852 93.27823 
C 743.757063 93.27823 743.168331 93.709076 742.734316 94.475878 
C 742.300302 95.242681 742.056441 96.282834 742.056441 97.367257 
C 742.056441 98.451679 742.300302 99.491833 742.734316 100.258635 
C 743.168331 101.025438 743.757063 101.456283 744.370852 101.456283 
z
" style="fill:#00c832;stroke:#ffffff;stroke-linejoin:miter;stroke-width:0.5;"/>
   </g>
   <g id="93b00afe32a94822a176acb2102eec8b-16-node">
    <path clip-path="url(#pcfc3c5309e)" d="M 730.756669 113.482832 
C 731.370458 113.482832 731.95919 113.051986 732.393205 112.285184 
C 732.827219 111.518381 733.07108 110.478228 733.07108 109.393805 
C 733.07108 108.309383 732.827219 107.269229 732.393205 106.502427 
C 731.95919 105.735624 731.370458 105.304779 730.756669 105.304779 
C 730.14288 105.304779 729.554147 105.735624 729.120133 106.502427 
C 728.686119 107.269229 728.442258 108.309383 728.442258 109.393805 
C 728.442258 110.478228 728.686119 111.518381 729.120133 112.285184 
C 729.554147 113.051986 730.14288 113.482832 730.756669 113.482832 
z
" style="fill:#00c832;stroke:#ffffff;stroke-linejoin:miter;stroke-width:0.5;"/>
   </g>
   <g id="93b00afe32a94822a176acb2102eec8b-7-node">
    <path clip-path="url(#pcfc3c5309e)" d="M 730.756669 89.429735 
C 731.370458 89.429735 731.95919 88.998889 732.393205 88.232086 
C 732.827219 87.465284 733.07108 86.42513 733.07108 85.340708 
C 733.07108 84.256285 732.827219 83.216132 732.393205 82.44933 
C 731.95919 81.682527 731.370458 81.251681 730.756669 81.251681 
C 730.14288 81.251681 729.554147 81.682527 729.120133 82.44933 
C 728.686119 83.216132 728.442258 84.256285 728.442258 85.340708 
C 728.442258 86.42513 728.686119 87.465284 729.120133 88.232086 
C 729.554147 88.998889 730.14288 89.429735 730.756669 89.429735 
z
" style="fill:#00c832;stroke:#ffffff;stroke-linejoin:miter;stroke-width:0.5;"/>
   </g>
   <g id="93b00afe32a94822a176acb2102eec8b-13-node">
    <path clip-path="url(#pcfc3c5309e)" d="M 719.456897 93.27823 
L 719.456897 101.456283 
L 714.828074 101.456283 
L 714.828074 93.27823 
L 719.456897 93.27823 
z
" style="fill:#0000ff;stroke:#ffffff;stroke-linejoin:miter;stroke-width:0.5;"/>
   </g>
   <g id="93b00afe32a94822a176acb2102eec8b-15-node">
    <path clip-path="url(#pcfc3c5309e)" d="M 703.528302 101.456283 
C 704.142091 101.456283 704.730823 101.025438 705.164838 100.258635 
C 705.598852 99.491833 705.842713 98.451679 705.842713 97.367257 
C 705.842713 96.282834 705.598852 95.242681 705.164838 94.475878 
C 704.730823 93.709076 704.142091 93.27823 703.528302 93.27823 
C 702.914513 93.27823 702.32578 93.709076 701.891766 94.475878 
C 701.457752 95.242681 701.213891 96.282834 701.213891 97.367257 
C 701.213891 98.451679 701.457752 99.491833 701.891766 100.258635 
C 702.32578 101.025438 702.914513 101.456283 703.528302 101.456283 
z
" style="fill:#ffff00;stroke:#ffffff;stroke-linejoin:miter;stroke-width:0.5;"/>
   </g>
   <g id="93b00afe32a94822a176acb2102eec8b-8-node">
    <path clip-path="url(#pcfc3c5309e)" d="M 719.456897 69.225133 
L 719.456897 77.403186 
L 714.828074 77.403186 
L 714.828074 69.225133 
L 719.456897 69.225133 
z
" style="fill:#0000ff;stroke:#ffffff;stroke-linejoin:miter;stroke-width:0.5;"/>
   </g>
   <g id="93b00afe32a94822a176acb2102eec8b-10-node">
    <path clip-path="url(#pcfc3c5309e)" d="M 703.528302 77.403186 
C 704.142091 77.403186 704.730823 76.97234 705.164838 76.205538 
C 705.598852 75.438735 705.842713 74.398582 705.842713 73.314159 
C 705.842713 72.229737 705.598852 71.189583 705.164838 70.422781 
C 704.730823 69.655978 704.142091 69.225133 703.528302 69.225133 
C 702.914513 69.225133 702.32578 69.655978 701.891766 70.422781 
C 701.457752 71.189583 701.213891 72.229737 701.213891 73.314159 
C 701.213891 74.398582 701.457752 75.438735 701.891766 76.205538 
C 702.32578 76.97234 702.914513 77.403186 703.528302 77.403186 
z
" style="fill:#ffff00;stroke:#ffffff;stroke-linejoin:miter;stroke-width:0.5;"/>
   </g>
   <g id="93b00afe32a94822a176acb2102eec8b-11-node">
    <path clip-path="url(#pcfc3c5309e)" d="M 689.914118 69.225133 
L 687.599707 73.314159 
L 689.914118 77.403186 
L 692.22853 73.314159 
z
" style="fill:#c800c8;stroke:#ffffff;stroke-linejoin:miter;stroke-width:0.5;"/>
   </g>
   <g id="93b00afe32a94822a176acb2102eec8b-3-node">
    <path clip-path="url(#pcfc3c5309e)" d="M 771.599219 81.251681 
L 769.59488 87.385221 
L 773.603558 87.385221 
z
" style="fill:#ff0000;stroke:#ffffff;stroke-linejoin:miter;stroke-width:0.5;"/>
   </g>
   <g id="patch_53">
    <path d="M 654.517241 157.5 
L 654.517241 21.6 
" style="fill:none;stroke:#ffffff;stroke-linecap:square;stroke-linejoin:miter;stroke-width:1.25;"/>
   </g>
   <g id="patch_54">
    <path d="M 798.827586 157.5 
L 798.827586 21.6 
" style="fill:none;stroke:#ffffff;stroke-linecap:square;stroke-linejoin:miter;stroke-width:1.25;"/>
   </g>
   <g id="patch_55">
    <path d="M 654.517241 157.5 
L 798.827586 157.5 
" style="fill:none;stroke:#ffffff;stroke-linecap:square;stroke-linejoin:miter;stroke-width:1.25;"/>
   </g>
   <g id="patch_56">
    <path d="M 654.517241 21.6 
L 798.827586 21.6 
" style="fill:none;stroke:#ffffff;stroke-linecap:square;stroke-linejoin:miter;stroke-width:1.25;"/>
   </g>
   <g id="text_4">
    <!-- 451:1.5185 -->
    <defs>
     <path d="M 4.15625 18.75 
L 13.375 19.53125 
Q 14.40625 12.796875 18.140625 9.390625 
Q 21.875 6 27.15625 6 
Q 33.5 6 37.890625 10.78125 
Q 42.28125 15.578125 42.28125 23.484375 
Q 42.28125 31 38.0625 35.34375 
Q 33.84375 39.703125 27 39.703125 
Q 22.75 39.703125 19.328125 37.765625 
Q 15.921875 35.84375 13.96875 32.765625 
L 5.71875 33.84375 
L 12.640625 70.609375 
L 48.25 70.609375 
L 48.25 62.203125 
L 19.671875 62.203125 
L 15.828125 42.96875 
Q 22.265625 47.46875 29.34375 47.46875 
Q 38.71875 47.46875 45.15625 40.96875 
Q 51.609375 34.46875 51.609375 24.265625 
Q 51.609375 14.546875 45.953125 7.46875 
Q 39.0625 -1.21875 27.15625 -1.21875 
Q 17.390625 -1.21875 11.203125 4.25 
Q 5.03125 9.71875 4.15625 18.75 
z
" id="ArialMT-53"/>
    </defs>
    <g style="fill:#262626;" transform="translate(696.646164 15.6)scale(0.12 -0.12)">
     <use xlink:href="#ArialMT-52"/>
     <use x="55.615234" xlink:href="#ArialMT-53"/>
     <use x="111.230469" xlink:href="#ArialMT-49"/>
     <use x="166.845703" xlink:href="#ArialMT-58"/>
     <use x="194.628906" xlink:href="#ArialMT-49"/>
     <use x="250.244141" xlink:href="#ArialMT-46"/>
     <use x="278.027344" xlink:href="#ArialMT-53"/>
     <use x="333.642578" xlink:href="#ArialMT-49"/>
     <use x="389.257812" xlink:href="#ArialMT-56"/>
     <use x="444.873047" xlink:href="#ArialMT-53"/>
    </g>
   </g>
  </g>
  <g id="axes_5">
   <g id="patch_57">
    <path d="M 827.689655 157.5 
L 972 157.5 
L 972 21.6 
L 827.689655 21.6 
z
" style="fill:#eaeaf2;"/>
   </g>
   <g id="matplotlib.axis_1">
    <g id="xtick_1">
     <g id="line2d_1">
      <path clip-path="url(#p100366b3c0)" d="M 827.689655 157.5 
L 827.689655 21.6 
" style="fill:none;stroke:#ffffff;stroke-linecap:round;"/>
     </g>
     <g id="text_5">
      <!-- 0.00 -->
      <g style="fill:#262626;" transform="translate(816.98614 174.873594)scale(0.11 -0.11)">
       <use xlink:href="#ArialMT-48"/>
       <use x="55.615234" xlink:href="#ArialMT-46"/>
       <use x="83.398438" xlink:href="#ArialMT-48"/>
       <use x="139.013672" xlink:href="#ArialMT-48"/>
      </g>
     </g>
    </g>
    <g id="xtick_2">
     <g id="line2d_2">
      <path clip-path="url(#p100366b3c0)" d="M 863.767241 157.5 
L 863.767241 21.6 
" style="fill:none;stroke:#ffffff;stroke-linecap:round;"/>
     </g>
     <g id="text_6">
      <!-- 0.25 -->
      <g style="fill:#262626;" transform="translate(853.063726 174.873594)scale(0.11 -0.11)">
       <use xlink:href="#ArialMT-48"/>
       <use x="55.615234" xlink:href="#ArialMT-46"/>
       <use x="83.398438" xlink:href="#ArialMT-50"/>
       <use x="139.013672" xlink:href="#ArialMT-53"/>
      </g>
     </g>
    </g>
    <g id="xtick_3">
     <g id="line2d_3">
      <path clip-path="url(#p100366b3c0)" d="M 899.844828 157.5 
L 899.844828 21.6 
" style="fill:none;stroke:#ffffff;stroke-linecap:round;"/>
     </g>
     <g id="text_7">
      <!-- 0.50 -->
      <g style="fill:#262626;" transform="translate(889.141312 174.873594)scale(0.11 -0.11)">
       <use xlink:href="#ArialMT-48"/>
       <use x="55.615234" xlink:href="#ArialMT-46"/>
       <use x="83.398438" xlink:href="#ArialMT-53"/>
       <use x="139.013672" xlink:href="#ArialMT-48"/>
      </g>
     </g>
    </g>
    <g id="xtick_4">
     <g id="line2d_4">
      <path clip-path="url(#p100366b3c0)" d="M 935.922414 157.5 
L 935.922414 21.6 
" style="fill:none;stroke:#ffffff;stroke-linecap:round;"/>
     </g>
     <g id="text_8">
      <!-- 0.75 -->
      <defs>
       <path d="M 4.734375 62.203125 
L 4.734375 70.65625 
L 51.078125 70.65625 
L 51.078125 63.8125 
Q 44.234375 56.546875 37.515625 44.484375 
Q 30.8125 32.421875 27.15625 19.671875 
Q 24.515625 10.6875 23.78125 0 
L 14.75 0 
Q 14.890625 8.453125 18.0625 20.40625 
Q 21.234375 32.375 27.171875 43.484375 
Q 33.109375 54.59375 39.796875 62.203125 
z
" id="ArialMT-55"/>
      </defs>
      <g style="fill:#262626;" transform="translate(925.218898 174.873594)scale(0.11 -0.11)">
       <use xlink:href="#ArialMT-48"/>
       <use x="55.615234" xlink:href="#ArialMT-46"/>
       <use x="83.398438" xlink:href="#ArialMT-55"/>
       <use x="139.013672" xlink:href="#ArialMT-53"/>
      </g>
     </g>
    </g>
    <g id="xtick_5">
     <g id="line2d_5">
      <path clip-path="url(#p100366b3c0)" d="M 972 157.5 
L 972 21.6 
" style="fill:none;stroke:#ffffff;stroke-linecap:round;"/>
     </g>
     <g id="text_9">
      <!-- 1.00 -->
      <g style="fill:#262626;" transform="translate(961.296484 174.873594)scale(0.11 -0.11)">
       <use xlink:href="#ArialMT-49"/>
       <use x="55.615234" xlink:href="#ArialMT-46"/>
       <use x="83.398438" xlink:href="#ArialMT-48"/>
       <use x="139.013672" xlink:href="#ArialMT-48"/>
      </g>
     </g>
    </g>
   </g>
   <g id="matplotlib.axis_2">
    <g id="ytick_1">
     <g id="line2d_6">
      <path clip-path="url(#p100366b3c0)" d="M 827.689655 157.5 
L 972 157.5 
" style="fill:none;stroke:#ffffff;stroke-linecap:round;"/>
     </g>
     <g id="text_10">
      <!-- 0.0 -->
      <g style="fill:#262626;" transform="translate(802.899655 161.436797)scale(0.11 -0.11)">
       <use xlink:href="#ArialMT-48"/>
       <use x="55.615234" xlink:href="#ArialMT-46"/>
       <use x="83.398438" xlink:href="#ArialMT-48"/>
      </g>
     </g>
    </g>
    <g id="ytick_2">
     <g id="line2d_7">
      <path clip-path="url(#p100366b3c0)" d="M 827.689655 130.32 
L 972 130.32 
" style="fill:none;stroke:#ffffff;stroke-linecap:round;"/>
     </g>
     <g id="text_11">
      <!-- 0.2 -->
      <g style="fill:#262626;" transform="translate(802.899655 134.256797)scale(0.11 -0.11)">
       <use xlink:href="#ArialMT-48"/>
       <use x="55.615234" xlink:href="#ArialMT-46"/>
       <use x="83.398438" xlink:href="#ArialMT-50"/>
      </g>
     </g>
    </g>
    <g id="ytick_3">
     <g id="line2d_8">
      <path clip-path="url(#p100366b3c0)" d="M 827.689655 103.14 
L 972 103.14 
" style="fill:none;stroke:#ffffff;stroke-linecap:round;"/>
     </g>
     <g id="text_12">
      <!-- 0.4 -->
      <g style="fill:#262626;" transform="translate(802.899655 107.076797)scale(0.11 -0.11)">
       <use xlink:href="#ArialMT-48"/>
       <use x="55.615234" xlink:href="#ArialMT-46"/>
       <use x="83.398438" xlink:href="#ArialMT-52"/>
      </g>
     </g>
    </g>
    <g id="ytick_4">
     <g id="line2d_9">
      <path clip-path="url(#p100366b3c0)" d="M 827.689655 75.96 
L 972 75.96 
" style="fill:none;stroke:#ffffff;stroke-linecap:round;"/>
     </g>
     <g id="text_13">
      <!-- 0.6 -->
      <defs>
       <path d="M 49.75 54.046875 
L 41.015625 53.375 
Q 39.84375 58.546875 37.703125 60.890625 
Q 34.125 64.65625 28.90625 64.65625 
Q 24.703125 64.65625 21.53125 62.3125 
Q 17.390625 59.28125 14.984375 53.46875 
Q 12.59375 47.65625 12.5 36.921875 
Q 15.671875 41.75 20.265625 44.09375 
Q 24.859375 46.4375 29.890625 46.4375 
Q 38.671875 46.4375 44.84375 39.96875 
Q 51.03125 33.5 51.03125 23.25 
Q 51.03125 16.5 48.125 10.71875 
Q 45.21875 4.9375 40.140625 1.859375 
Q 35.0625 -1.21875 28.609375 -1.21875 
Q 17.625 -1.21875 10.6875 6.859375 
Q 3.765625 14.9375 3.765625 33.5 
Q 3.765625 54.25 11.421875 63.671875 
Q 18.109375 71.875 29.4375 71.875 
Q 37.890625 71.875 43.28125 67.140625 
Q 48.6875 62.40625 49.75 54.046875 
z
M 13.875 23.1875 
Q 13.875 18.65625 15.796875 14.5 
Q 17.71875 10.359375 21.1875 8.171875 
Q 24.65625 6 28.46875 6 
Q 34.03125 6 38.03125 10.484375 
Q 42.046875 14.984375 42.046875 22.703125 
Q 42.046875 30.125 38.078125 34.390625 
Q 34.125 38.671875 28.125 38.671875 
Q 22.171875 38.671875 18.015625 34.390625 
Q 13.875 30.125 13.875 23.1875 
z
" id="ArialMT-54"/>
      </defs>
      <g style="fill:#262626;" transform="translate(802.899655 79.896797)scale(0.11 -0.11)">
       <use xlink:href="#ArialMT-48"/>
       <use x="55.615234" xlink:href="#ArialMT-46"/>
       <use x="83.398438" xlink:href="#ArialMT-54"/>
      </g>
     </g>
    </g>
    <g id="ytick_5">
     <g id="line2d_10">
      <path clip-path="url(#p100366b3c0)" d="M 827.689655 48.78 
L 972 48.78 
" style="fill:none;stroke:#ffffff;stroke-linecap:round;"/>
     </g>
     <g id="text_14">
      <!-- 0.8 -->
      <g style="fill:#262626;" transform="translate(802.899655 52.716797)scale(0.11 -0.11)">
       <use xlink:href="#ArialMT-48"/>
       <use x="55.615234" xlink:href="#ArialMT-46"/>
       <use x="83.398438" xlink:href="#ArialMT-56"/>
      </g>
     </g>
    </g>
    <g id="ytick_6">
     <g id="line2d_11">
      <path clip-path="url(#p100366b3c0)" d="M 827.689655 21.6 
L 972 21.6 
" style="fill:none;stroke:#ffffff;stroke-linecap:round;"/>
     </g>
     <g id="text_15">
      <!-- 1.0 -->
      <g style="fill:#262626;" transform="translate(802.899655 25.536797)scale(0.11 -0.11)">
       <use xlink:href="#ArialMT-49"/>
       <use x="55.615234" xlink:href="#ArialMT-46"/>
       <use x="83.398438" xlink:href="#ArialMT-48"/>
      </g>
     </g>
    </g>
   </g>
   <g id="patch_58">
    <path d="M 827.689655 157.5 
L 827.689655 21.6 
" style="fill:none;stroke:#ffffff;stroke-linecap:square;stroke-linejoin:miter;stroke-width:1.25;"/>
   </g>
   <g id="patch_59">
    <path d="M 972 157.5 
L 972 21.6 
" style="fill:none;stroke:#ffffff;stroke-linecap:square;stroke-linejoin:miter;stroke-width:1.25;"/>
   </g>
   <g id="patch_60">
    <path d="M 827.689655 157.5 
L 972 157.5 
" style="fill:none;stroke:#ffffff;stroke-linecap:square;stroke-linejoin:miter;stroke-width:1.25;"/>
   </g>
   <g id="patch_61">
    <path d="M 827.689655 21.6 
L 972 21.6 
" style="fill:none;stroke:#ffffff;stroke-linecap:square;stroke-linejoin:miter;stroke-width:1.25;"/>
   </g>
   <g id="text_16">
    <!-- 15 -->
    <g style="fill:#262626;" transform="translate(893.171703 15.6)scale(0.12 -0.12)">
     <use xlink:href="#ArialMT-49"/>
     <use x="55.615234" xlink:href="#ArialMT-53"/>
    </g>
   </g>
  </g>
 </g>
 <defs>
  <clipPath id="p82da2b2ee8">
   <rect height="135.9" width="144.310345" x="135" y="21.6"/>
  </clipPath>
  <clipPath id="p6af65d7404">
   <rect height="135.9" width="144.310345" x="308.172414" y="21.6"/>
  </clipPath>
  <clipPath id="pc465734d8a">
   <rect height="135.9" width="144.310345" x="481.344828" y="21.6"/>
  </clipPath>
  <clipPath id="pcfc3c5309e">
   <rect height="135.9" width="144.310345" x="654.517241" y="21.6"/>
  </clipPath>
  <clipPath id="p100366b3c0">
   <rect height="135.9" width="144.310345" x="827.689655" y="21.6"/>
  </clipPath>
 </defs>
</svg>
