<?xml version="1.0" encoding="utf-8" standalone="no"?>
<!DOCTYPE svg PUBLIC "-//W3C//DTD SVG 1.1//EN"
  "http://www.w3.org/Graphics/SVG/1.1/DTD/svg11.dtd">
<!-- Created with matplotlib (https://matplotlib.org/) -->
<svg height="180pt" version="1.1" viewBox="0 0 1080 180" width="1080pt" xmlns="http://www.w3.org/2000/svg" xmlns:xlink="http://www.w3.org/1999/xlink">
 <defs>
  <style type="text/css">
*{stroke-linecap:butt;stroke-linejoin:round;}
  </style>
 </defs>
 <g id="figure_1">
  <g id="patch_1">
   <path d="M 0 180 
L 1080 180 
L 1080 0 
L 0 0 
z
" style="fill:#ffffff;"/>
  </g>
  <g id="axes_1">
   <g id="patch_2">
    <path d="M 135 157.5 
L 279.310345 157.5 
L 279.310345 21.6 
L 135 21.6 
z
" style="fill:#ffffff;"/>
   </g>
   <g id="patch_3">
    <path clip-path="url(#p482b70f27f)" d="M 192.122845 106.123171 
L 177.090517 114.409756 
" style="stroke:#000000;stroke-linejoin:miter;stroke-width:0.5;"/>
   </g>
   <g id="patch_4">
    <path clip-path="url(#p482b70f27f)" d="M 192.122845 106.123171 
L 177.090517 97.836585 
" style="stroke:#000000;stroke-linejoin:miter;stroke-width:0.5;"/>
   </g>
   <g id="patch_5">
    <path clip-path="url(#p482b70f27f)" d="M 207.155172 89.55 
L 192.122845 106.123171 
" style="stroke:#000000;stroke-linejoin:miter;stroke-width:0.5;"/>
   </g>
   <g id="patch_6">
    <path clip-path="url(#p482b70f27f)" d="M 192.122845 72.976829 
L 177.090517 81.263415 
" style="stroke:#000000;stroke-linejoin:miter;stroke-width:0.5;"/>
   </g>
   <g id="patch_7">
    <path clip-path="url(#p482b70f27f)" d="M 192.122845 72.976829 
L 177.090517 64.690244 
" style="stroke:#000000;stroke-linejoin:miter;stroke-width:0.5;"/>
   </g>
   <g id="patch_8">
    <path clip-path="url(#p482b70f27f)" d="M 207.155172 89.55 
L 192.122845 72.976829 
" style="stroke:#000000;stroke-linejoin:miter;stroke-width:0.5;"/>
   </g>
   <g id="patch_9">
    <path clip-path="url(#p482b70f27f)" d="M 222.1875 89.55 
L 207.155172 89.55 
" style="stroke:#000000;stroke-linejoin:miter;stroke-width:0.5;"/>
   </g>
   <g id="patch_10">
    <path clip-path="url(#p482b70f27f)" d="M 237.219828 89.55 
L 222.1875 89.55 
" style="stroke:#000000;stroke-linejoin:miter;stroke-width:0.5;"/>
   </g>
   <g id="ca4bb84de76f458782db1c9b90bf41b0-1-node">
    <path clip-path="url(#p482b70f27f)" d="M 239.625 86.898293 
L 239.625 92.201707 
L 234.814655 92.201707 
L 234.814655 86.898293 
L 239.625 86.898293 
z
" style="fill:#0000ff;stroke:#ffffff;stroke-linejoin:miter;stroke-width:0.5;"/>
   </g>
   <g id="ca4bb84de76f458782db1c9b90bf41b0-3-node">
    <path clip-path="url(#p482b70f27f)" d="M 224.592672 86.898293 
L 224.592672 92.201707 
L 219.782328 92.201707 
L 219.782328 86.898293 
L 224.592672 86.898293 
z
" style="fill:#0000ff;stroke:#ffffff;stroke-linejoin:miter;stroke-width:0.5;"/>
   </g>
   <g id="ca4bb84de76f458782db1c9b90bf41b0-5-node">
    <path clip-path="url(#p482b70f27f)" d="M 207.155172 92.201707 
C 207.793032 92.201707 208.404852 91.922307 208.855886 91.42504 
C 209.306921 90.927774 209.560345 90.253241 209.560345 89.55 
C 209.560345 88.846759 209.306921 88.172226 208.855886 87.67496 
C 208.404852 87.177693 207.793032 86.898293 207.155172 86.898293 
C 206.517313 86.898293 205.905493 87.177693 205.454459 87.67496 
C 205.003424 88.172226 204.75 88.846759 204.75 89.55 
C 204.75 90.253241 205.003424 90.927774 205.454459 91.42504 
C 205.905493 91.922307 206.517313 92.201707 207.155172 92.201707 
z
" style="fill:#00c832;stroke:#ffffff;stroke-linejoin:miter;stroke-width:0.5;"/>
   </g>
   <g id="ca4bb84de76f458782db1c9b90bf41b0-11-node">
    <path clip-path="url(#p482b70f27f)" d="M 192.122845 108.774878 
C 192.760704 108.774878 193.372524 108.495477 193.823559 107.998211 
C 194.274593 107.500944 194.528017 106.826412 194.528017 106.123171 
C 194.528017 105.41993 194.274593 104.745397 193.823559 104.248131 
C 193.372524 103.750864 192.760704 103.471463 192.122845 103.471463 
C 191.484986 103.471463 190.873166 103.750864 190.422131 104.248131 
C 189.971097 104.745397 189.717672 105.41993 189.717672 106.123171 
C 189.717672 106.826412 189.971097 107.500944 190.422131 107.998211 
C 190.873166 108.495477 191.484986 108.774878 192.122845 108.774878 
z
" style="fill:#00c832;stroke:#ffffff;stroke-linejoin:miter;stroke-width:0.5;"/>
   </g>
   <g id="ca4bb84de76f458782db1c9b90bf41b0-14-node">
    <path clip-path="url(#p482b70f27f)" d="M 179.49569 111.758049 
L 179.49569 117.061463 
L 174.685345 117.061463 
L 174.685345 111.758049 
L 179.49569 111.758049 
z
" style="fill:#0000ff;stroke:#ffffff;stroke-linejoin:miter;stroke-width:0.5;"/>
   </g>
   <g id="ca4bb84de76f458782db1c9b90bf41b0-12-node">
    <path clip-path="url(#p482b70f27f)" d="M 179.49569 95.184878 
L 179.49569 100.488293 
L 174.685345 100.488293 
L 174.685345 95.184878 
L 179.49569 95.184878 
z
" style="fill:#0000ff;stroke:#ffffff;stroke-linejoin:miter;stroke-width:0.5;"/>
   </g>
   <g id="ca4bb84de76f458782db1c9b90bf41b0-6-node">
    <path clip-path="url(#p482b70f27f)" d="M 192.122845 75.628537 
C 192.760704 75.628537 193.372524 75.349136 193.823559 74.851869 
C 194.274593 74.354603 194.528017 73.68007 194.528017 72.976829 
C 194.528017 72.273588 194.274593 71.599056 193.823559 71.101789 
C 193.372524 70.604523 192.760704 70.325122 192.122845 70.325122 
C 191.484986 70.325122 190.873166 70.604523 190.422131 71.101789 
C 189.971097 71.599056 189.717672 72.273588 189.717672 72.976829 
C 189.717672 73.68007 189.971097 74.354603 190.422131 74.851869 
C 190.873166 75.349136 191.484986 75.628537 192.122845 75.628537 
z
" style="fill:#00c832;stroke:#ffffff;stroke-linejoin:miter;stroke-width:0.5;"/>
   </g>
   <g id="ca4bb84de76f458782db1c9b90bf41b0-9-node">
    <path clip-path="url(#p482b70f27f)" d="M 179.49569 78.611707 
L 179.49569 83.915122 
L 174.685345 83.915122 
L 174.685345 78.611707 
L 179.49569 78.611707 
z
" style="fill:#0000ff;stroke:#ffffff;stroke-linejoin:miter;stroke-width:0.5;"/>
   </g>
   <g id="ca4bb84de76f458782db1c9b90bf41b0-7-node">
    <path clip-path="url(#p482b70f27f)" d="M 179.49569 62.038537 
L 179.49569 67.341951 
L 174.685345 67.341951 
L 174.685345 62.038537 
L 179.49569 62.038537 
z
" style="fill:#0000ff;stroke:#ffffff;stroke-linejoin:miter;stroke-width:0.5;"/>
   </g>
   <g id="patch_11">
    <path d="M 135 157.5 
L 135 21.6 
" style="fill:none;stroke:#ffffff;stroke-linecap:square;stroke-linejoin:miter;stroke-width:1.25;"/>
   </g>
   <g id="patch_12">
    <path d="M 279.310345 157.5 
L 279.310345 21.6 
" style="fill:none;stroke:#ffffff;stroke-linecap:square;stroke-linejoin:miter;stroke-width:1.25;"/>
   </g>
   <g id="patch_13">
    <path d="M 135 157.5 
L 279.310345 157.5 
" style="fill:none;stroke:#ffffff;stroke-linecap:square;stroke-linejoin:miter;stroke-width:1.25;"/>
   </g>
   <g id="patch_14">
    <path d="M 135 21.6 
L 279.310345 21.6 
" style="fill:none;stroke:#ffffff;stroke-linecap:square;stroke-linejoin:miter;stroke-width:1.25;"/>
   </g>
   <g id="text_1">
    <!-- 227:1 -->
    <defs>
     <path d="M 50.34375 8.453125 
L 50.34375 0 
L 3.03125 0 
Q 2.9375 3.171875 4.046875 6.109375 
Q 5.859375 10.9375 9.828125 15.625 
Q 13.8125 20.3125 21.34375 26.46875 
Q 33.015625 36.03125 37.109375 41.625 
Q 41.21875 47.21875 41.21875 52.203125 
Q 41.21875 57.421875 37.46875 61 
Q 33.734375 64.59375 27.734375 64.59375 
Q 21.390625 64.59375 17.578125 60.78125 
Q 13.765625 56.984375 13.71875 50.25 
L 4.6875 51.171875 
Q 5.609375 61.28125 11.65625 66.578125 
Q 17.71875 71.875 27.9375 71.875 
Q 38.234375 71.875 44.234375 66.15625 
Q 50.25 60.453125 50.25 52 
Q 50.25 47.703125 48.484375 43.546875 
Q 46.734375 39.40625 42.65625 34.8125 
Q 38.578125 30.21875 29.109375 22.21875 
Q 21.1875 15.578125 18.9375 13.203125 
Q 16.703125 10.84375 15.234375 8.453125 
z
" id="ArialMT-50"/>
     <path d="M 4.734375 62.203125 
L 4.734375 70.65625 
L 51.078125 70.65625 
L 51.078125 63.8125 
Q 44.234375 56.546875 37.515625 44.484375 
Q 30.8125 32.421875 27.15625 19.671875 
Q 24.515625 10.6875 23.78125 0 
L 14.75 0 
Q 14.890625 8.453125 18.0625 20.40625 
Q 21.234375 32.375 27.171875 43.484375 
Q 33.109375 54.59375 39.796875 62.203125 
z
" id="ArialMT-55"/>
     <path d="M 9.03125 41.84375 
L 9.03125 51.859375 
L 19.046875 51.859375 
L 19.046875 41.84375 
z
M 9.03125 0 
L 9.03125 10.015625 
L 19.046875 10.015625 
L 19.046875 0 
z
" id="ArialMT-58"/>
     <path d="M 37.25 0 
L 28.46875 0 
L 28.46875 56 
Q 25.296875 52.984375 20.140625 49.953125 
Q 14.984375 46.921875 10.890625 45.40625 
L 10.890625 53.90625 
Q 18.265625 57.375 23.78125 62.296875 
Q 29.296875 67.234375 31.59375 71.875 
L 37.25 71.875 
z
" id="ArialMT-49"/>
    </defs>
    <g style="fill:#262626;" transform="translate(192.142047 15.6)scale(0.12 -0.12)">
     <use xlink:href="#ArialMT-50"/>
     <use x="55.615234" xlink:href="#ArialMT-50"/>
     <use x="111.230469" xlink:href="#ArialMT-55"/>
     <use x="166.845703" xlink:href="#ArialMT-58"/>
     <use x="194.628906" xlink:href="#ArialMT-49"/>
    </g>
   </g>
  </g>
  <g id="axes_2">
   <g id="patch_15">
    <path d="M 308.172414 157.5 
L 452.482759 157.5 
L 452.482759 21.6 
L 308.172414 21.6 
z
" style="fill:#ffffff;"/>
   </g>
   <g id="patch_16">
    <path clip-path="url(#pb8dad20d81)" d="M 360.648903 114.409756 
L 347.529781 114.409756 
" style="stroke:#000000;stroke-linejoin:miter;stroke-width:0.5;"/>
   </g>
   <g id="patch_17">
    <path clip-path="url(#pb8dad20d81)" d="M 373.768025 106.123171 
L 360.648903 114.409756 
" style="stroke:#000000;stroke-linejoin:miter;stroke-width:0.5;"/>
   </g>
   <g id="patch_18">
    <path clip-path="url(#pb8dad20d81)" d="M 373.768025 106.123171 
L 360.648903 97.836585 
" style="stroke:#000000;stroke-linejoin:miter;stroke-width:0.5;"/>
   </g>
   <g id="patch_19">
    <path clip-path="url(#pb8dad20d81)" d="M 386.887147 89.55 
L 373.768025 106.123171 
" style="stroke:#000000;stroke-linejoin:miter;stroke-width:0.5;"/>
   </g>
   <g id="patch_20">
    <path clip-path="url(#pb8dad20d81)" d="M 373.768025 72.976829 
L 360.648903 81.263415 
" style="stroke:#000000;stroke-linejoin:miter;stroke-width:0.5;"/>
   </g>
   <g id="patch_21">
    <path clip-path="url(#pb8dad20d81)" d="M 373.768025 72.976829 
L 360.648903 64.690244 
" style="stroke:#000000;stroke-linejoin:miter;stroke-width:0.5;"/>
   </g>
   <g id="patch_22">
    <path clip-path="url(#pb8dad20d81)" d="M 386.887147 89.55 
L 373.768025 72.976829 
" style="stroke:#000000;stroke-linejoin:miter;stroke-width:0.5;"/>
   </g>
   <g id="patch_23">
    <path clip-path="url(#pb8dad20d81)" d="M 400.00627 89.55 
L 386.887147 89.55 
" style="stroke:#000000;stroke-linejoin:miter;stroke-width:0.5;"/>
   </g>
   <g id="patch_24">
    <path clip-path="url(#pb8dad20d81)" d="M 413.125392 89.55 
L 400.00627 89.55 
" style="stroke:#000000;stroke-linejoin:miter;stroke-width:0.5;"/>
   </g>
   <g id="8574907a2a704a4681142fa0fcf7afd5-1-node">
    <path clip-path="url(#pb8dad20d81)" d="M 415.224451 86.898293 
L 415.224451 92.201707 
L 411.026332 92.201707 
L 411.026332 86.898293 
L 415.224451 86.898293 
z
" style="fill:#0000ff;stroke:#ffffff;stroke-linejoin:miter;stroke-width:0.5;"/>
   </g>
   <g id="8574907a2a704a4681142fa0fcf7afd5-3-node">
    <path clip-path="url(#pb8dad20d81)" d="M 402.105329 86.898293 
L 402.105329 92.201707 
L 397.90721 92.201707 
L 397.90721 86.898293 
L 402.105329 86.898293 
z
" style="fill:#0000ff;stroke:#ffffff;stroke-linejoin:miter;stroke-width:0.5;"/>
   </g>
   <g id="8574907a2a704a4681142fa0fcf7afd5-5-node">
    <path clip-path="url(#pb8dad20d81)" d="M 386.887147 92.201707 
C 387.443824 92.201707 387.977776 91.922307 388.371407 91.42504 
C 388.765037 90.927774 388.986207 90.253241 388.986207 89.55 
C 388.986207 88.846759 388.765037 88.172226 388.371407 87.67496 
C 387.977776 87.177693 387.443824 86.898293 386.887147 86.898293 
C 386.33047 86.898293 385.796518 87.177693 385.402888 87.67496 
C 385.009258 88.172226 384.788088 88.846759 384.788088 89.55 
C 384.788088 90.253241 385.009258 90.927774 385.402888 91.42504 
C 385.796518 91.922307 386.33047 92.201707 386.887147 92.201707 
z
" style="fill:#00c832;stroke:#ffffff;stroke-linejoin:miter;stroke-width:0.5;"/>
   </g>
   <g id="8574907a2a704a4681142fa0fcf7afd5-11-node">
    <path clip-path="url(#pb8dad20d81)" d="M 373.768025 108.774878 
C 374.324702 108.774878 374.858654 108.495477 375.252284 107.998211 
C 375.645914 107.500944 375.867085 106.826412 375.867085 106.123171 
C 375.867085 105.41993 375.645914 104.745397 375.252284 104.248131 
C 374.858654 103.750864 374.324702 103.471463 373.768025 103.471463 
C 373.211348 103.471463 372.677396 103.750864 372.283766 104.248131 
C 371.890136 104.745397 371.668966 105.41993 371.668966 106.123171 
C 371.668966 106.826412 371.890136 107.500944 372.283766 107.998211 
C 372.677396 108.495477 373.211348 108.774878 373.768025 108.774878 
z
" style="fill:#00c832;stroke:#ffffff;stroke-linejoin:miter;stroke-width:0.5;"/>
   </g>
   <g id="8574907a2a704a4681142fa0fcf7afd5-14-node">
    <path clip-path="url(#pb8dad20d81)" d="M 362.747962 111.758049 
L 362.747962 117.061463 
L 358.549843 117.061463 
L 358.549843 111.758049 
L 362.747962 111.758049 
z
" style="fill:#0000ff;stroke:#ffffff;stroke-linejoin:miter;stroke-width:0.5;"/>
   </g>
   <g id="8574907a2a704a4681142fa0fcf7afd5-16-node">
    <path clip-path="url(#pb8dad20d81)" d="M 347.529781 117.061463 
C 348.086458 117.061463 348.62041 116.782063 349.01404 116.284796 
C 349.40767 115.78753 349.62884 115.112997 349.62884 114.409756 
C 349.62884 113.706515 349.40767 113.031982 349.01404 112.534716 
C 348.62041 112.037449 348.086458 111.758049 347.529781 111.758049 
C 346.973103 111.758049 346.439151 112.037449 346.045521 112.534716 
C 345.651891 113.031982 345.430721 113.706515 345.430721 114.409756 
C 345.430721 115.112997 345.651891 115.78753 346.045521 116.284796 
C 346.439151 116.782063 346.973103 117.061463 347.529781 117.061463 
z
" style="fill:#ffff00;stroke:#ffffff;stroke-linejoin:miter;stroke-width:0.5;"/>
   </g>
   <g id="8574907a2a704a4681142fa0fcf7afd5-12-node">
    <path clip-path="url(#pb8dad20d81)" d="M 362.747962 95.184878 
L 362.747962 100.488293 
L 358.549843 100.488293 
L 358.549843 95.184878 
L 362.747962 95.184878 
z
" style="fill:#0000ff;stroke:#ffffff;stroke-linejoin:miter;stroke-width:0.5;"/>
   </g>
   <g id="8574907a2a704a4681142fa0fcf7afd5-6-node">
    <path clip-path="url(#pb8dad20d81)" d="M 373.768025 75.628537 
C 374.324702 75.628537 374.858654 75.349136 375.252284 74.851869 
C 375.645914 74.354603 375.867085 73.68007 375.867085 72.976829 
C 375.867085 72.273588 375.645914 71.599056 375.252284 71.101789 
C 374.858654 70.604523 374.324702 70.325122 373.768025 70.325122 
C 373.211348 70.325122 372.677396 70.604523 372.283766 71.101789 
C 371.890136 71.599056 371.668966 72.273588 371.668966 72.976829 
C 371.668966 73.68007 371.890136 74.354603 372.283766 74.851869 
C 372.677396 75.349136 373.211348 75.628537 373.768025 75.628537 
z
" style="fill:#00c832;stroke:#ffffff;stroke-linejoin:miter;stroke-width:0.5;"/>
   </g>
   <g id="8574907a2a704a4681142fa0fcf7afd5-9-node">
    <path clip-path="url(#pb8dad20d81)" d="M 362.747962 78.611707 
L 362.747962 83.915122 
L 358.549843 83.915122 
L 358.549843 78.611707 
L 362.747962 78.611707 
z
" style="fill:#0000ff;stroke:#ffffff;stroke-linejoin:miter;stroke-width:0.5;"/>
   </g>
   <g id="8574907a2a704a4681142fa0fcf7afd5-7-node">
    <path clip-path="url(#pb8dad20d81)" d="M 362.747962 62.038537 
L 362.747962 67.341951 
L 358.549843 67.341951 
L 358.549843 62.038537 
L 362.747962 62.038537 
z
" style="fill:#0000ff;stroke:#ffffff;stroke-linejoin:miter;stroke-width:0.5;"/>
   </g>
   <g id="patch_25">
    <path d="M 308.172414 157.5 
L 308.172414 21.6 
" style="fill:none;stroke:#ffffff;stroke-linecap:square;stroke-linejoin:miter;stroke-width:1.25;"/>
   </g>
   <g id="patch_26">
    <path d="M 452.482759 157.5 
L 452.482759 21.6 
" style="fill:none;stroke:#ffffff;stroke-linecap:square;stroke-linejoin:miter;stroke-width:1.25;"/>
   </g>
   <g id="patch_27">
    <path d="M 308.172414 157.5 
L 452.482759 157.5 
" style="fill:none;stroke:#ffffff;stroke-linecap:square;stroke-linejoin:miter;stroke-width:1.25;"/>
   </g>
   <g id="patch_28">
    <path d="M 308.172414 21.6 
L 452.482759 21.6 
" style="fill:none;stroke:#ffffff;stroke-linecap:square;stroke-linejoin:miter;stroke-width:1.25;"/>
   </g>
   <g id="text_2">
    <!-- 304:1 -->
    <defs>
     <path d="M 4.203125 18.890625 
L 12.984375 20.0625 
Q 14.5 12.59375 18.140625 9.296875 
Q 21.78125 6 27 6 
Q 33.203125 6 37.46875 10.296875 
Q 41.75 14.59375 41.75 20.953125 
Q 41.75 27 37.796875 30.921875 
Q 33.84375 34.859375 27.734375 34.859375 
Q 25.25 34.859375 21.53125 33.890625 
L 22.515625 41.609375 
Q 23.390625 41.5 23.921875 41.5 
Q 29.546875 41.5 34.03125 44.421875 
Q 38.53125 47.359375 38.53125 53.46875 
Q 38.53125 58.296875 35.25 61.46875 
Q 31.984375 64.65625 26.8125 64.65625 
Q 21.6875 64.65625 18.265625 61.421875 
Q 14.84375 58.203125 13.875 51.765625 
L 5.078125 53.328125 
Q 6.6875 62.15625 12.390625 67.015625 
Q 18.109375 71.875 26.609375 71.875 
Q 32.46875 71.875 37.390625 69.359375 
Q 42.328125 66.84375 44.9375 62.5 
Q 47.5625 58.15625 47.5625 53.265625 
Q 47.5625 48.640625 45.0625 44.828125 
Q 42.578125 41.015625 37.703125 38.765625 
Q 44.046875 37.3125 47.5625 32.6875 
Q 51.078125 28.078125 51.078125 21.140625 
Q 51.078125 11.765625 44.234375 5.25 
Q 37.40625 -1.265625 26.953125 -1.265625 
Q 17.53125 -1.265625 11.296875 4.34375 
Q 5.078125 9.96875 4.203125 18.890625 
z
" id="ArialMT-51"/>
     <path d="M 4.15625 35.296875 
Q 4.15625 48 6.765625 55.734375 
Q 9.375 63.484375 14.515625 67.671875 
Q 19.671875 71.875 27.484375 71.875 
Q 33.25 71.875 37.59375 69.546875 
Q 41.9375 67.234375 44.765625 62.859375 
Q 47.609375 58.5 49.21875 52.21875 
Q 50.828125 45.953125 50.828125 35.296875 
Q 50.828125 22.703125 48.234375 14.96875 
Q 45.65625 7.234375 40.5 3 
Q 35.359375 -1.21875 27.484375 -1.21875 
Q 17.140625 -1.21875 11.234375 6.203125 
Q 4.15625 15.140625 4.15625 35.296875 
z
M 13.1875 35.296875 
Q 13.1875 17.671875 17.3125 11.828125 
Q 21.4375 6 27.484375 6 
Q 33.546875 6 37.671875 11.859375 
Q 41.796875 17.71875 41.796875 35.296875 
Q 41.796875 52.984375 37.671875 58.78125 
Q 33.546875 64.59375 27.390625 64.59375 
Q 21.34375 64.59375 17.71875 59.46875 
Q 13.1875 52.9375 13.1875 35.296875 
z
" id="ArialMT-48"/>
     <path d="M 32.328125 0 
L 32.328125 17.140625 
L 1.265625 17.140625 
L 1.265625 25.203125 
L 33.9375 71.578125 
L 41.109375 71.578125 
L 41.109375 25.203125 
L 50.78125 25.203125 
L 50.78125 17.140625 
L 41.109375 17.140625 
L 41.109375 0 
z
M 32.328125 25.203125 
L 32.328125 57.46875 
L 9.90625 25.203125 
z
" id="ArialMT-52"/>
    </defs>
    <g style="fill:#262626;" transform="translate(365.314461 15.6)scale(0.12 -0.12)">
     <use xlink:href="#ArialMT-51"/>
     <use x="55.615234" xlink:href="#ArialMT-48"/>
     <use x="111.230469" xlink:href="#ArialMT-52"/>
     <use x="166.845703" xlink:href="#ArialMT-58"/>
     <use x="194.628906" xlink:href="#ArialMT-49"/>
    </g>
   </g>
  </g>
  <g id="axes_3">
   <g id="patch_29">
    <path d="M 481.344828 157.5 
L 625.655172 157.5 
L 625.655172 21.6 
L 481.344828 21.6 
z
" style="fill:#ffffff;"/>
   </g>
   <g id="patch_30">
    <path clip-path="url(#p637ade7f07)" d="M 533.821317 114.409756 
L 520.702194 114.409756 
" style="stroke:#000000;stroke-linejoin:miter;stroke-width:0.5;"/>
   </g>
   <g id="patch_31">
    <path clip-path="url(#p637ade7f07)" d="M 546.940439 106.123171 
L 533.821317 114.409756 
" style="stroke:#000000;stroke-linejoin:miter;stroke-width:0.5;"/>
   </g>
   <g id="patch_32">
    <path clip-path="url(#p637ade7f07)" d="M 533.821317 97.836585 
L 520.702194 97.836585 
" style="stroke:#000000;stroke-linejoin:miter;stroke-width:0.5;"/>
   </g>
   <g id="patch_33">
    <path clip-path="url(#p637ade7f07)" d="M 546.940439 106.123171 
L 533.821317 97.836585 
" style="stroke:#000000;stroke-linejoin:miter;stroke-width:0.5;"/>
   </g>
   <g id="patch_34">
    <path clip-path="url(#p637ade7f07)" d="M 560.059561 89.55 
L 546.940439 106.123171 
" style="stroke:#000000;stroke-linejoin:miter;stroke-width:0.5;"/>
   </g>
   <g id="patch_35">
    <path clip-path="url(#p637ade7f07)" d="M 546.940439 72.976829 
L 533.821317 81.263415 
" style="stroke:#000000;stroke-linejoin:miter;stroke-width:0.5;"/>
   </g>
   <g id="patch_36">
    <path clip-path="url(#p637ade7f07)" d="M 546.940439 72.976829 
L 533.821317 64.690244 
" style="stroke:#000000;stroke-linejoin:miter;stroke-width:0.5;"/>
   </g>
   <g id="patch_37">
    <path clip-path="url(#p637ade7f07)" d="M 560.059561 89.55 
L 546.940439 72.976829 
" style="stroke:#000000;stroke-linejoin:miter;stroke-width:0.5;"/>
   </g>
   <g id="patch_38">
    <path clip-path="url(#p637ade7f07)" d="M 573.178683 89.55 
L 560.059561 89.55 
" style="stroke:#000000;stroke-linejoin:miter;stroke-width:0.5;"/>
   </g>
   <g id="patch_39">
    <path clip-path="url(#p637ade7f07)" d="M 586.297806 89.55 
L 573.178683 89.55 
" style="stroke:#000000;stroke-linejoin:miter;stroke-width:0.5;"/>
   </g>
   <g id="80da651afae34a1184f5e0923423ee12-1-node">
    <path clip-path="url(#p637ade7f07)" d="M 588.396865 86.898293 
L 588.396865 92.201707 
L 584.198746 92.201707 
L 584.198746 86.898293 
L 588.396865 86.898293 
z
" style="fill:#0000ff;stroke:#ffffff;stroke-linejoin:miter;stroke-width:0.5;"/>
   </g>
   <g id="80da651afae34a1184f5e0923423ee12-3-node">
    <path clip-path="url(#p637ade7f07)" d="M 575.277743 86.898293 
L 575.277743 92.201707 
L 571.079624 92.201707 
L 571.079624 86.898293 
L 575.277743 86.898293 
z
" style="fill:#0000ff;stroke:#ffffff;stroke-linejoin:miter;stroke-width:0.5;"/>
   </g>
   <g id="80da651afae34a1184f5e0923423ee12-5-node">
    <path clip-path="url(#p637ade7f07)" d="M 560.059561 92.201707 
C 560.616238 92.201707 561.15019 91.922307 561.54382 91.42504 
C 561.937451 90.927774 562.158621 90.253241 562.158621 89.55 
C 562.158621 88.846759 561.937451 88.172226 561.54382 87.67496 
C 561.15019 87.177693 560.616238 86.898293 560.059561 86.898293 
C 559.502884 86.898293 558.968932 87.177693 558.575302 87.67496 
C 558.181672 88.172226 557.960502 88.846759 557.960502 89.55 
C 557.960502 90.253241 558.181672 90.927774 558.575302 91.42504 
C 558.968932 91.922307 559.502884 92.201707 560.059561 92.201707 
z
" style="fill:#00c832;stroke:#ffffff;stroke-linejoin:miter;stroke-width:0.5;"/>
   </g>
   <g id="80da651afae34a1184f5e0923423ee12-11-node">
    <path clip-path="url(#p637ade7f07)" d="M 546.940439 108.774878 
C 547.497116 108.774878 548.031068 108.495477 548.424698 107.998211 
C 548.818328 107.500944 549.039498 106.826412 549.039498 106.123171 
C 549.039498 105.41993 548.818328 104.745397 548.424698 104.248131 
C 548.031068 103.750864 547.497116 103.471463 546.940439 103.471463 
C 546.383762 103.471463 545.84981 103.750864 545.45618 104.248131 
C 545.062549 104.745397 544.841379 105.41993 544.841379 106.123171 
C 544.841379 106.826412 545.062549 107.500944 545.45618 107.998211 
C 545.84981 108.495477 546.383762 108.774878 546.940439 108.774878 
z
" style="fill:#00c832;stroke:#ffffff;stroke-linejoin:miter;stroke-width:0.5;"/>
   </g>
   <g id="80da651afae34a1184f5e0923423ee12-15-node">
    <path clip-path="url(#p637ade7f07)" d="M 535.920376 111.758049 
L 535.920376 117.061463 
L 531.722257 117.061463 
L 531.722257 111.758049 
L 535.920376 111.758049 
z
" style="fill:#0000ff;stroke:#ffffff;stroke-linejoin:miter;stroke-width:0.5;"/>
   </g>
   <g id="80da651afae34a1184f5e0923423ee12-17-node">
    <path clip-path="url(#p637ade7f07)" d="M 520.702194 117.061463 
C 521.258871 117.061463 521.792823 116.782063 522.186454 116.284796 
C 522.580084 115.78753 522.801254 115.112997 522.801254 114.409756 
C 522.801254 113.706515 522.580084 113.031982 522.186454 112.534716 
C 521.792823 112.037449 521.258871 111.758049 520.702194 111.758049 
C 520.145517 111.758049 519.611565 112.037449 519.217935 112.534716 
C 518.824305 113.031982 518.603135 113.706515 518.603135 114.409756 
C 518.603135 115.112997 518.824305 115.78753 519.217935 116.284796 
C 519.611565 116.782063 520.145517 117.061463 520.702194 117.061463 
z
" style="fill:#ffff00;stroke:#ffffff;stroke-linejoin:miter;stroke-width:0.5;"/>
   </g>
   <g id="80da651afae34a1184f5e0923423ee12-12-node">
    <path clip-path="url(#p637ade7f07)" d="M 535.920376 95.184878 
L 535.920376 100.488293 
L 531.722257 100.488293 
L 531.722257 95.184878 
L 535.920376 95.184878 
z
" style="fill:#0000ff;stroke:#ffffff;stroke-linejoin:miter;stroke-width:0.5;"/>
   </g>
   <g id="80da651afae34a1184f5e0923423ee12-14-node">
    <path clip-path="url(#p637ade7f07)" d="M 520.702194 100.488293 
C 521.258871 100.488293 521.792823 100.208892 522.186454 99.711626 
C 522.580084 99.214359 522.801254 98.539826 522.801254 97.836585 
C 522.801254 97.133344 522.580084 96.458812 522.186454 95.961545 
C 521.792823 95.464279 521.258871 95.184878 520.702194 95.184878 
C 520.145517 95.184878 519.611565 95.464279 519.217935 95.961545 
C 518.824305 96.458812 518.603135 97.133344 518.603135 97.836585 
C 518.603135 98.539826 518.824305 99.214359 519.217935 99.711626 
C 519.611565 100.208892 520.145517 100.488293 520.702194 100.488293 
z
" style="fill:#ffff00;stroke:#ffffff;stroke-linejoin:miter;stroke-width:0.5;"/>
   </g>
   <g id="80da651afae34a1184f5e0923423ee12-6-node">
    <path clip-path="url(#p637ade7f07)" d="M 546.940439 75.628537 
C 547.497116 75.628537 548.031068 75.349136 548.424698 74.851869 
C 548.818328 74.354603 549.039498 73.68007 549.039498 72.976829 
C 549.039498 72.273588 548.818328 71.599056 548.424698 71.101789 
C 548.031068 70.604523 547.497116 70.325122 546.940439 70.325122 
C 546.383762 70.325122 545.84981 70.604523 545.45618 71.101789 
C 545.062549 71.599056 544.841379 72.273588 544.841379 72.976829 
C 544.841379 73.68007 545.062549 74.354603 545.45618 74.851869 
C 545.84981 75.349136 546.383762 75.628537 546.940439 75.628537 
z
" style="fill:#00c832;stroke:#ffffff;stroke-linejoin:miter;stroke-width:0.5;"/>
   </g>
   <g id="80da651afae34a1184f5e0923423ee12-9-node">
    <path clip-path="url(#p637ade7f07)" d="M 535.920376 78.611707 
L 535.920376 83.915122 
L 531.722257 83.915122 
L 531.722257 78.611707 
L 535.920376 78.611707 
z
" style="fill:#0000ff;stroke:#ffffff;stroke-linejoin:miter;stroke-width:0.5;"/>
   </g>
   <g id="80da651afae34a1184f5e0923423ee12-7-node">
    <path clip-path="url(#p637ade7f07)" d="M 535.920376 62.038537 
L 535.920376 67.341951 
L 531.722257 67.341951 
L 531.722257 62.038537 
L 535.920376 62.038537 
z
" style="fill:#0000ff;stroke:#ffffff;stroke-linejoin:miter;stroke-width:0.5;"/>
   </g>
   <g id="patch_40">
    <path d="M 481.344828 157.5 
L 481.344828 21.6 
" style="fill:none;stroke:#ffffff;stroke-linecap:square;stroke-linejoin:miter;stroke-width:1.25;"/>
   </g>
   <g id="patch_41">
    <path d="M 625.655172 157.5 
L 625.655172 21.6 
" style="fill:none;stroke:#ffffff;stroke-linecap:square;stroke-linejoin:miter;stroke-width:1.25;"/>
   </g>
   <g id="patch_42">
    <path d="M 481.344828 157.5 
L 625.655172 157.5 
" style="fill:none;stroke:#ffffff;stroke-linecap:square;stroke-linejoin:miter;stroke-width:1.25;"/>
   </g>
   <g id="patch_43">
    <path d="M 481.344828 21.6 
L 625.655172 21.6 
" style="fill:none;stroke:#ffffff;stroke-linecap:square;stroke-linejoin:miter;stroke-width:1.25;"/>
   </g>
   <g id="text_3">
    <!-- 415:1 -->
    <defs>
     <path d="M 4.15625 18.75 
L 13.375 19.53125 
Q 14.40625 12.796875 18.140625 9.390625 
Q 21.875 6 27.15625 6 
Q 33.5 6 37.890625 10.78125 
Q 42.28125 15.578125 42.28125 23.484375 
Q 42.28125 31 38.0625 35.34375 
Q 33.84375 39.703125 27 39.703125 
Q 22.75 39.703125 19.328125 37.765625 
Q 15.921875 35.84375 13.96875 32.765625 
L 5.71875 33.84375 
L 12.640625 70.609375 
L 48.25 70.609375 
L 48.25 62.203125 
L 19.671875 62.203125 
L 15.828125 42.96875 
Q 22.265625 47.46875 29.34375 47.46875 
Q 38.71875 47.46875 45.15625 40.96875 
Q 51.609375 34.46875 51.609375 24.265625 
Q 51.609375 14.546875 45.953125 7.46875 
Q 39.0625 -1.21875 27.15625 -1.21875 
Q 17.390625 -1.21875 11.203125 4.25 
Q 5.03125 9.71875 4.15625 18.75 
z
" id="ArialMT-53"/>
    </defs>
    <g style="fill:#262626;" transform="translate(538.486875 15.6)scale(0.12 -0.12)">
     <use xlink:href="#ArialMT-52"/>
     <use x="55.615234" xlink:href="#ArialMT-49"/>
     <use x="111.230469" xlink:href="#ArialMT-53"/>
     <use x="166.845703" xlink:href="#ArialMT-58"/>
     <use x="194.628906" xlink:href="#ArialMT-49"/>
    </g>
   </g>
  </g>
  <g id="axes_4">
   <g id="patch_44">
    <path d="M 654.517241 157.5 
L 798.827586 157.5 
L 798.827586 21.6 
L 654.517241 21.6 
z
" style="fill:#ffffff;"/>
   </g>
   <g id="patch_45">
    <path clip-path="url(#p0647332405)" d="M 706.99373 114.409756 
L 693.874608 114.409756 
" style="stroke:#000000;stroke-linejoin:miter;stroke-width:0.5;"/>
   </g>
   <g id="patch_46">
    <path clip-path="url(#p0647332405)" d="M 720.112853 106.123171 
L 706.99373 114.409756 
" style="stroke:#000000;stroke-linejoin:miter;stroke-width:0.5;"/>
   </g>
   <g id="patch_47">
    <path clip-path="url(#p0647332405)" d="M 706.99373 97.836585 
L 693.874608 97.836585 
" style="stroke:#000000;stroke-linejoin:miter;stroke-width:0.5;"/>
   </g>
   <g id="patch_48">
    <path clip-path="url(#p0647332405)" d="M 720.112853 106.123171 
L 706.99373 97.836585 
" style="stroke:#000000;stroke-linejoin:miter;stroke-width:0.5;"/>
   </g>
   <g id="patch_49">
    <path clip-path="url(#p0647332405)" d="M 733.231975 89.55 
L 720.112853 106.123171 
" style="stroke:#000000;stroke-linejoin:miter;stroke-width:0.5;"/>
   </g>
   <g id="patch_50">
    <path clip-path="url(#p0647332405)" d="M 706.99373 81.263415 
L 693.874608 81.263415 
" style="stroke:#000000;stroke-linejoin:miter;stroke-width:0.5;"/>
   </g>
   <g id="patch_51">
    <path clip-path="url(#p0647332405)" d="M 720.112853 72.976829 
L 706.99373 81.263415 
" style="stroke:#000000;stroke-linejoin:miter;stroke-width:0.5;"/>
   </g>
   <g id="patch_52">
    <path clip-path="url(#p0647332405)" d="M 720.112853 72.976829 
L 706.99373 64.690244 
" style="stroke:#000000;stroke-linejoin:miter;stroke-width:0.5;"/>
   </g>
   <g id="patch_53">
    <path clip-path="url(#p0647332405)" d="M 733.231975 89.55 
L 720.112853 72.976829 
" style="stroke:#000000;stroke-linejoin:miter;stroke-width:0.5;"/>
   </g>
   <g id="patch_54">
    <path clip-path="url(#p0647332405)" d="M 746.351097 89.55 
L 733.231975 89.55 
" style="stroke:#000000;stroke-linejoin:miter;stroke-width:0.5;"/>
   </g>
   <g id="patch_55">
    <path clip-path="url(#p0647332405)" d="M 759.470219 89.55 
L 746.351097 89.55 
" style="stroke:#000000;stroke-linejoin:miter;stroke-width:0.5;"/>
   </g>
   <g id="5856311971f547999462b50027ffc9c0-1-node">
    <path clip-path="url(#p0647332405)" d="M 761.569279 86.898293 
L 761.569279 92.201707 
L 757.37116 92.201707 
L 757.37116 86.898293 
L 761.569279 86.898293 
z
" style="fill:#0000ff;stroke:#ffffff;stroke-linejoin:miter;stroke-width:0.5;"/>
   </g>
   <g id="5856311971f547999462b50027ffc9c0-3-node">
    <path clip-path="url(#p0647332405)" d="M 748.450157 86.898293 
L 748.450157 92.201707 
L 744.252038 92.201707 
L 744.252038 86.898293 
L 748.450157 86.898293 
z
" style="fill:#0000ff;stroke:#ffffff;stroke-linejoin:miter;stroke-width:0.5;"/>
   </g>
   <g id="5856311971f547999462b50027ffc9c0-5-node">
    <path clip-path="url(#p0647332405)" d="M 733.231975 92.201707 
C 733.788652 92.201707 734.322604 91.922307 734.716234 91.42504 
C 735.109864 90.927774 735.331034 90.253241 735.331034 89.55 
C 735.331034 88.846759 735.109864 88.172226 734.716234 87.67496 
C 734.322604 87.177693 733.788652 86.898293 733.231975 86.898293 
C 732.675298 86.898293 732.141346 87.177693 731.747716 87.67496 
C 731.354086 88.172226 731.132915 88.846759 731.132915 89.55 
C 731.132915 90.253241 731.354086 90.927774 731.747716 91.42504 
C 732.141346 91.922307 732.675298 92.201707 733.231975 92.201707 
z
" style="fill:#00c832;stroke:#ffffff;stroke-linejoin:miter;stroke-width:0.5;"/>
   </g>
   <g id="5856311971f547999462b50027ffc9c0-12-node">
    <path clip-path="url(#p0647332405)" d="M 720.112853 108.774878 
C 720.66953 108.774878 721.203482 108.495477 721.597112 107.998211 
C 721.990742 107.500944 722.211912 106.826412 722.211912 106.123171 
C 722.211912 105.41993 721.990742 104.745397 721.597112 104.248131 
C 721.203482 103.750864 720.66953 103.471463 720.112853 103.471463 
C 719.556176 103.471463 719.022224 103.750864 718.628593 104.248131 
C 718.234963 104.745397 718.013793 105.41993 718.013793 106.123171 
C 718.013793 106.826412 718.234963 107.500944 718.628593 107.998211 
C 719.022224 108.495477 719.556176 108.774878 720.112853 108.774878 
z
" style="fill:#00c832;stroke:#ffffff;stroke-linejoin:miter;stroke-width:0.5;"/>
   </g>
   <g id="5856311971f547999462b50027ffc9c0-16-node">
    <path clip-path="url(#p0647332405)" d="M 709.09279 111.758049 
L 709.09279 117.061463 
L 704.894671 117.061463 
L 704.894671 111.758049 
L 709.09279 111.758049 
z
" style="fill:#0000ff;stroke:#ffffff;stroke-linejoin:miter;stroke-width:0.5;"/>
   </g>
   <g id="5856311971f547999462b50027ffc9c0-18-node">
    <path clip-path="url(#p0647332405)" d="M 693.874608 117.061463 
C 694.431285 117.061463 694.965237 116.782063 695.358867 116.284796 
C 695.752498 115.78753 695.973668 115.112997 695.973668 114.409756 
C 695.973668 113.706515 695.752498 113.031982 695.358867 112.534716 
C 694.965237 112.037449 694.431285 111.758049 693.874608 111.758049 
C 693.317931 111.758049 692.783979 112.037449 692.390349 112.534716 
C 691.996719 113.031982 691.775549 113.706515 691.775549 114.409756 
C 691.775549 115.112997 691.996719 115.78753 692.390349 116.284796 
C 692.783979 116.782063 693.317931 117.061463 693.874608 117.061463 
z
" style="fill:#ffff00;stroke:#ffffff;stroke-linejoin:miter;stroke-width:0.5;"/>
   </g>
   <g id="5856311971f547999462b50027ffc9c0-13-node">
    <path clip-path="url(#p0647332405)" d="M 709.09279 95.184878 
L 709.09279 100.488293 
L 704.894671 100.488293 
L 704.894671 95.184878 
L 709.09279 95.184878 
z
" style="fill:#0000ff;stroke:#ffffff;stroke-linejoin:miter;stroke-width:0.5;"/>
   </g>
   <g id="5856311971f547999462b50027ffc9c0-15-node">
    <path clip-path="url(#p0647332405)" d="M 693.874608 100.488293 
C 694.431285 100.488293 694.965237 100.208892 695.358867 99.711626 
C 695.752498 99.214359 695.973668 98.539826 695.973668 97.836585 
C 695.973668 97.133344 695.752498 96.458812 695.358867 95.961545 
C 694.965237 95.464279 694.431285 95.184878 693.874608 95.184878 
C 693.317931 95.184878 692.783979 95.464279 692.390349 95.961545 
C 691.996719 96.458812 691.775549 97.133344 691.775549 97.836585 
C 691.775549 98.539826 691.996719 99.214359 692.390349 99.711626 
C 692.783979 100.208892 693.317931 100.488293 693.874608 100.488293 
z
" style="fill:#ffff00;stroke:#ffffff;stroke-linejoin:miter;stroke-width:0.5;"/>
   </g>
   <g id="5856311971f547999462b50027ffc9c0-6-node">
    <path clip-path="url(#p0647332405)" d="M 720.112853 75.628537 
C 720.66953 75.628537 721.203482 75.349136 721.597112 74.851869 
C 721.990742 74.354603 722.211912 73.68007 722.211912 72.976829 
C 722.211912 72.273588 721.990742 71.599056 721.597112 71.101789 
C 721.203482 70.604523 720.66953 70.325122 720.112853 70.325122 
C 719.556176 70.325122 719.022224 70.604523 718.628593 71.101789 
C 718.234963 71.599056 718.013793 72.273588 718.013793 72.976829 
C 718.013793 73.68007 718.234963 74.354603 718.628593 74.851869 
C 719.022224 75.349136 719.556176 75.628537 720.112853 75.628537 
z
" style="fill:#00c832;stroke:#ffffff;stroke-linejoin:miter;stroke-width:0.5;"/>
   </g>
   <g id="5856311971f547999462b50027ffc9c0-9-node">
    <path clip-path="url(#p0647332405)" d="M 709.09279 78.611707 
L 709.09279 83.915122 
L 704.894671 83.915122 
L 704.894671 78.611707 
L 709.09279 78.611707 
z
" style="fill:#0000ff;stroke:#ffffff;stroke-linejoin:miter;stroke-width:0.5;"/>
   </g>
   <g id="5856311971f547999462b50027ffc9c0-11-node">
    <path clip-path="url(#p0647332405)" d="M 693.874608 83.915122 
C 694.431285 83.915122 694.965237 83.635721 695.358867 83.138455 
C 695.752498 82.641188 695.973668 81.966656 695.973668 81.263415 
C 695.973668 80.560174 695.752498 79.885641 695.358867 79.388374 
C 694.965237 78.891108 694.431285 78.611707 693.874608 78.611707 
C 693.317931 78.611707 692.783979 78.891108 692.390349 79.388374 
C 691.996719 79.885641 691.775549 80.560174 691.775549 81.263415 
C 691.775549 81.966656 691.996719 82.641188 692.390349 83.138455 
C 692.783979 83.635721 693.317931 83.915122 693.874608 83.915122 
z
" style="fill:#ffff00;stroke:#ffffff;stroke-linejoin:miter;stroke-width:0.5;"/>
   </g>
   <g id="5856311971f547999462b50027ffc9c0-7-node">
    <path clip-path="url(#p0647332405)" d="M 709.09279 62.038537 
L 709.09279 67.341951 
L 704.894671 67.341951 
L 704.894671 62.038537 
L 709.09279 62.038537 
z
" style="fill:#0000ff;stroke:#ffffff;stroke-linejoin:miter;stroke-width:0.5;"/>
   </g>
   <g id="patch_56">
    <path d="M 654.517241 157.5 
L 654.517241 21.6 
" style="fill:none;stroke:#ffffff;stroke-linecap:square;stroke-linejoin:miter;stroke-width:1.25;"/>
   </g>
   <g id="patch_57">
    <path d="M 798.827586 157.5 
L 798.827586 21.6 
" style="fill:none;stroke:#ffffff;stroke-linecap:square;stroke-linejoin:miter;stroke-width:1.25;"/>
   </g>
   <g id="patch_58">
    <path d="M 654.517241 157.5 
L 798.827586 157.5 
" style="fill:none;stroke:#ffffff;stroke-linecap:square;stroke-linejoin:miter;stroke-width:1.25;"/>
   </g>
   <g id="patch_59">
    <path d="M 654.517241 21.6 
L 798.827586 21.6 
" style="fill:none;stroke:#ffffff;stroke-linecap:square;stroke-linejoin:miter;stroke-width:1.25;"/>
   </g>
   <g id="text_4">
    <!-- 556:2.0 -->
    <defs>
     <path d="M 49.75 54.046875 
L 41.015625 53.375 
Q 39.84375 58.546875 37.703125 60.890625 
Q 34.125 64.65625 28.90625 64.65625 
Q 24.703125 64.65625 21.53125 62.3125 
Q 17.390625 59.28125 14.984375 53.46875 
Q 12.59375 47.65625 12.5 36.921875 
Q 15.671875 41.75 20.265625 44.09375 
Q 24.859375 46.4375 29.890625 46.4375 
Q 38.671875 46.4375 44.84375 39.96875 
Q 51.03125 33.5 51.03125 23.25 
Q 51.03125 16.5 48.125 10.71875 
Q 45.21875 4.9375 40.140625 1.859375 
Q 35.0625 -1.21875 28.609375 -1.21875 
Q 17.625 -1.21875 10.6875 6.859375 
Q 3.765625 14.9375 3.765625 33.5 
Q 3.765625 54.25 11.421875 63.671875 
Q 18.109375 71.875 29.4375 71.875 
Q 37.890625 71.875 43.28125 67.140625 
Q 48.6875 62.40625 49.75 54.046875 
z
M 13.875 23.1875 
Q 13.875 18.65625 15.796875 14.5 
Q 17.71875 10.359375 21.1875 8.171875 
Q 24.65625 6 28.46875 6 
Q 34.03125 6 38.03125 10.484375 
Q 42.046875 14.984375 42.046875 22.703125 
Q 42.046875 30.125 38.078125 34.390625 
Q 34.125 38.671875 28.125 38.671875 
Q 22.171875 38.671875 18.015625 34.390625 
Q 13.875 30.125 13.875 23.1875 
z
" id="ArialMT-54"/>
     <path d="M 9.078125 0 
L 9.078125 10.015625 
L 19.09375 10.015625 
L 19.09375 0 
z
" id="ArialMT-46"/>
    </defs>
    <g style="fill:#262626;" transform="translate(706.655851 15.6)scale(0.12 -0.12)">
     <use xlink:href="#ArialMT-53"/>
     <use x="55.615234" xlink:href="#ArialMT-53"/>
     <use x="111.230469" xlink:href="#ArialMT-54"/>
     <use x="166.845703" xlink:href="#ArialMT-58"/>
     <use x="194.628906" xlink:href="#ArialMT-50"/>
     <use x="250.244141" xlink:href="#ArialMT-46"/>
     <use x="278.027344" xlink:href="#ArialMT-48"/>
    </g>
   </g>
  </g>
  <g id="axes_5">
   <g id="patch_60">
    <path d="M 827.689655 157.5 
L 972 157.5 
L 972 21.6 
L 827.689655 21.6 
z
" style="fill:#ffffff;"/>
   </g>
   <g id="patch_61">
    <path clip-path="url(#p77607a586f)" d="M 880.166144 114.409756 
L 867.047022 114.409756 
" style="stroke:#000000;stroke-linejoin:miter;stroke-width:0.5;"/>
   </g>
   <g id="patch_62">
    <path clip-path="url(#p77607a586f)" d="M 893.285266 106.123171 
L 880.166144 114.409756 
" style="stroke:#000000;stroke-linejoin:miter;stroke-width:0.5;"/>
   </g>
   <g id="patch_63">
    <path clip-path="url(#p77607a586f)" d="M 880.166144 97.836585 
L 867.047022 97.836585 
" style="stroke:#000000;stroke-linejoin:miter;stroke-width:0.5;"/>
   </g>
   <g id="patch_64">
    <path clip-path="url(#p77607a586f)" d="M 893.285266 106.123171 
L 880.166144 97.836585 
" style="stroke:#000000;stroke-linejoin:miter;stroke-width:0.5;"/>
   </g>
   <g id="patch_65">
    <path clip-path="url(#p77607a586f)" d="M 906.404389 89.55 
L 893.285266 106.123171 
" style="stroke:#000000;stroke-linejoin:miter;stroke-width:0.5;"/>
   </g>
   <g id="patch_66">
    <path clip-path="url(#p77607a586f)" d="M 880.166144 81.263415 
L 867.047022 81.263415 
" style="stroke:#000000;stroke-linejoin:miter;stroke-width:0.5;"/>
   </g>
   <g id="patch_67">
    <path clip-path="url(#p77607a586f)" d="M 893.285266 72.976829 
L 880.166144 81.263415 
" style="stroke:#000000;stroke-linejoin:miter;stroke-width:0.5;"/>
   </g>
   <g id="patch_68">
    <path clip-path="url(#p77607a586f)" d="M 880.166144 64.690244 
L 867.047022 64.690244 
" style="stroke:#000000;stroke-linejoin:miter;stroke-width:0.5;"/>
   </g>
   <g id="patch_69">
    <path clip-path="url(#p77607a586f)" d="M 893.285266 72.976829 
L 880.166144 64.690244 
" style="stroke:#000000;stroke-linejoin:miter;stroke-width:0.5;"/>
   </g>
   <g id="patch_70">
    <path clip-path="url(#p77607a586f)" d="M 906.404389 89.55 
L 893.285266 72.976829 
" style="stroke:#000000;stroke-linejoin:miter;stroke-width:0.5;"/>
   </g>
   <g id="patch_71">
    <path clip-path="url(#p77607a586f)" d="M 919.523511 89.55 
L 906.404389 89.55 
" style="stroke:#000000;stroke-linejoin:miter;stroke-width:0.5;"/>
   </g>
   <g id="patch_72">
    <path clip-path="url(#p77607a586f)" d="M 932.642633 89.55 
L 919.523511 89.55 
" style="stroke:#000000;stroke-linejoin:miter;stroke-width:0.5;"/>
   </g>
   <g id="84ec6d99daf242389650643d3af482d0-1-node">
    <path clip-path="url(#p77607a586f)" d="M 934.741693 86.898293 
L 934.741693 92.201707 
L 930.543574 92.201707 
L 930.543574 86.898293 
L 934.741693 86.898293 
z
" style="fill:#0000ff;stroke:#ffffff;stroke-linejoin:miter;stroke-width:0.5;"/>
   </g>
   <g id="84ec6d99daf242389650643d3af482d0-3-node">
    <path clip-path="url(#p77607a586f)" d="M 921.622571 86.898293 
L 921.622571 92.201707 
L 917.424451 92.201707 
L 917.424451 86.898293 
L 921.622571 86.898293 
z
" style="fill:#0000ff;stroke:#ffffff;stroke-linejoin:miter;stroke-width:0.5;"/>
   </g>
   <g id="84ec6d99daf242389650643d3af482d0-5-node">
    <path clip-path="url(#p77607a586f)" d="M 906.404389 92.201707 
C 906.961066 92.201707 907.495018 91.922307 907.888648 91.42504 
C 908.282278 90.927774 908.503448 90.253241 908.503448 89.55 
C 908.503448 88.846759 908.282278 88.172226 907.888648 87.67496 
C 907.495018 87.177693 906.961066 86.898293 906.404389 86.898293 
C 905.847712 86.898293 905.31376 87.177693 904.920129 87.67496 
C 904.526499 88.172226 904.305329 88.846759 904.305329 89.55 
C 904.305329 90.253241 904.526499 90.927774 904.920129 91.42504 
C 905.31376 91.922307 905.847712 92.201707 906.404389 92.201707 
z
" style="fill:#00c832;stroke:#ffffff;stroke-linejoin:miter;stroke-width:0.5;"/>
   </g>
   <g id="84ec6d99daf242389650643d3af482d0-13-node">
    <path clip-path="url(#p77607a586f)" d="M 893.285266 108.774878 
C 893.841944 108.774878 894.375896 108.495477 894.769526 107.998211 
C 895.163156 107.500944 895.384326 106.826412 895.384326 106.123171 
C 895.384326 105.41993 895.163156 104.745397 894.769526 104.248131 
C 894.375896 103.750864 893.841944 103.471463 893.285266 103.471463 
C 892.728589 103.471463 892.194637 103.750864 891.801007 104.248131 
C 891.407377 104.745397 891.186207 105.41993 891.186207 106.123171 
C 891.186207 106.826412 891.407377 107.500944 891.801007 107.998211 
C 892.194637 108.495477 892.728589 108.774878 893.285266 108.774878 
z
" style="fill:#00c832;stroke:#ffffff;stroke-linejoin:miter;stroke-width:0.5;"/>
   </g>
   <g id="84ec6d99daf242389650643d3af482d0-17-node">
    <path clip-path="url(#p77607a586f)" d="M 882.265204 111.758049 
L 882.265204 117.061463 
L 878.067085 117.061463 
L 878.067085 111.758049 
L 882.265204 111.758049 
z
" style="fill:#0000ff;stroke:#ffffff;stroke-linejoin:miter;stroke-width:0.5;"/>
   </g>
   <g id="84ec6d99daf242389650643d3af482d0-19-node">
    <path clip-path="url(#p77607a586f)" d="M 867.047022 117.061463 
C 867.603699 117.061463 868.137651 116.782063 868.531281 116.284796 
C 868.924911 115.78753 869.146082 115.112997 869.146082 114.409756 
C 869.146082 113.706515 868.924911 113.031982 868.531281 112.534716 
C 868.137651 112.037449 867.603699 111.758049 867.047022 111.758049 
C 866.490345 111.758049 865.956393 112.037449 865.562763 112.534716 
C 865.169133 113.031982 864.947962 113.706515 864.947962 114.409756 
C 864.947962 115.112997 865.169133 115.78753 865.562763 116.284796 
C 865.956393 116.782063 866.490345 117.061463 867.047022 117.061463 
z
" style="fill:#ffff00;stroke:#ffffff;stroke-linejoin:miter;stroke-width:0.5;"/>
   </g>
   <g id="84ec6d99daf242389650643d3af482d0-14-node">
    <path clip-path="url(#p77607a586f)" d="M 882.265204 95.184878 
L 882.265204 100.488293 
L 878.067085 100.488293 
L 878.067085 95.184878 
L 882.265204 95.184878 
z
" style="fill:#0000ff;stroke:#ffffff;stroke-linejoin:miter;stroke-width:0.5;"/>
   </g>
   <g id="84ec6d99daf242389650643d3af482d0-16-node">
    <path clip-path="url(#p77607a586f)" d="M 867.047022 100.488293 
C 867.603699 100.488293 868.137651 100.208892 868.531281 99.711626 
C 868.924911 99.214359 869.146082 98.539826 869.146082 97.836585 
C 869.146082 97.133344 868.924911 96.458812 868.531281 95.961545 
C 868.137651 95.464279 867.603699 95.184878 867.047022 95.184878 
C 866.490345 95.184878 865.956393 95.464279 865.562763 95.961545 
C 865.169133 96.458812 864.947962 97.133344 864.947962 97.836585 
C 864.947962 98.539826 865.169133 99.214359 865.562763 99.711626 
C 865.956393 100.208892 866.490345 100.488293 867.047022 100.488293 
z
" style="fill:#ffff00;stroke:#ffffff;stroke-linejoin:miter;stroke-width:0.5;"/>
   </g>
   <g id="84ec6d99daf242389650643d3af482d0-6-node">
    <path clip-path="url(#p77607a586f)" d="M 893.285266 75.628537 
C 893.841944 75.628537 894.375896 75.349136 894.769526 74.851869 
C 895.163156 74.354603 895.384326 73.68007 895.384326 72.976829 
C 895.384326 72.273588 895.163156 71.599056 894.769526 71.101789 
C 894.375896 70.604523 893.841944 70.325122 893.285266 70.325122 
C 892.728589 70.325122 892.194637 70.604523 891.801007 71.101789 
C 891.407377 71.599056 891.186207 72.273588 891.186207 72.976829 
C 891.186207 73.68007 891.407377 74.354603 891.801007 74.851869 
C 892.194637 75.349136 892.728589 75.628537 893.285266 75.628537 
z
" style="fill:#00c832;stroke:#ffffff;stroke-linejoin:miter;stroke-width:0.5;"/>
   </g>
   <g id="84ec6d99daf242389650643d3af482d0-10-node">
    <path clip-path="url(#p77607a586f)" d="M 882.265204 78.611707 
L 882.265204 83.915122 
L 878.067085 83.915122 
L 878.067085 78.611707 
L 882.265204 78.611707 
z
" style="fill:#0000ff;stroke:#ffffff;stroke-linejoin:miter;stroke-width:0.5;"/>
   </g>
   <g id="84ec6d99daf242389650643d3af482d0-12-node">
    <path clip-path="url(#p77607a586f)" d="M 867.047022 83.915122 
C 867.603699 83.915122 868.137651 83.635721 868.531281 83.138455 
C 868.924911 82.641188 869.146082 81.966656 869.146082 81.263415 
C 869.146082 80.560174 868.924911 79.885641 868.531281 79.388374 
C 868.137651 78.891108 867.603699 78.611707 867.047022 78.611707 
C 866.490345 78.611707 865.956393 78.891108 865.562763 79.388374 
C 865.169133 79.885641 864.947962 80.560174 864.947962 81.263415 
C 864.947962 81.966656 865.169133 82.641188 865.562763 83.138455 
C 865.956393 83.635721 866.490345 83.915122 867.047022 83.915122 
z
" style="fill:#ffff00;stroke:#ffffff;stroke-linejoin:miter;stroke-width:0.5;"/>
   </g>
   <g id="84ec6d99daf242389650643d3af482d0-7-node">
    <path clip-path="url(#p77607a586f)" d="M 882.265204 62.038537 
L 882.265204 67.341951 
L 878.067085 67.341951 
L 878.067085 62.038537 
L 882.265204 62.038537 
z
" style="fill:#0000ff;stroke:#ffffff;stroke-linejoin:miter;stroke-width:0.5;"/>
   </g>
   <g id="84ec6d99daf242389650643d3af482d0-9-node">
    <path clip-path="url(#p77607a586f)" d="M 867.047022 67.341951 
C 867.603699 67.341951 868.137651 67.062551 868.531281 66.565284 
C 868.924911 66.068018 869.146082 65.393485 869.146082 64.690244 
C 869.146082 63.987003 868.924911 63.31247 868.531281 62.815204 
C 868.137651 62.317937 867.603699 62.038537 867.047022 62.038537 
C 866.490345 62.038537 865.956393 62.317937 865.562763 62.815204 
C 865.169133 63.31247 864.947962 63.987003 864.947962 64.690244 
C 864.947962 65.393485 865.169133 66.068018 865.562763 66.565284 
C 865.956393 67.062551 866.490345 67.341951 867.047022 67.341951 
z
" style="fill:#ffff00;stroke:#ffffff;stroke-linejoin:miter;stroke-width:0.5;"/>
   </g>
   <g id="patch_73">
    <path d="M 827.689655 157.5 
L 827.689655 21.6 
" style="fill:none;stroke:#ffffff;stroke-linecap:square;stroke-linejoin:miter;stroke-width:1.25;"/>
   </g>
   <g id="patch_74">
    <path d="M 972 157.5 
L 972 21.6 
" style="fill:none;stroke:#ffffff;stroke-linecap:square;stroke-linejoin:miter;stroke-width:1.25;"/>
   </g>
   <g id="patch_75">
    <path d="M 827.689655 157.5 
L 972 157.5 
" style="fill:none;stroke:#ffffff;stroke-linecap:square;stroke-linejoin:miter;stroke-width:1.25;"/>
   </g>
   <g id="patch_76">
    <path d="M 827.689655 21.6 
L 972 21.6 
" style="fill:none;stroke:#ffffff;stroke-linecap:square;stroke-linejoin:miter;stroke-width:1.25;"/>
   </g>
   <g id="text_5">
    <!-- 726:1 -->
    <g style="fill:#262626;" transform="translate(884.831703 15.6)scale(0.12 -0.12)">
     <use xlink:href="#ArialMT-55"/>
     <use x="55.615234" xlink:href="#ArialMT-50"/>
     <use x="111.230469" xlink:href="#ArialMT-54"/>
     <use x="166.845703" xlink:href="#ArialMT-58"/>
     <use x="194.628906" xlink:href="#ArialMT-49"/>
    </g>
   </g>
  </g>
 </g>
 <defs>
  <clipPath id="p482b70f27f">
   <rect height="135.9" width="144.310345" x="135" y="21.6"/>
  </clipPath>
  <clipPath id="pb8dad20d81">
   <rect height="135.9" width="144.310345" x="308.172414" y="21.6"/>
  </clipPath>
  <clipPath id="p637ade7f07">
   <rect height="135.9" width="144.310345" x="481.344828" y="21.6"/>
  </clipPath>
  <clipPath id="p0647332405">
   <rect height="135.9" width="144.310345" x="654.517241" y="21.6"/>
  </clipPath>
  <clipPath id="p77607a586f">
   <rect height="135.9" width="144.310345" x="827.689655" y="21.6"/>
  </clipPath>
 </defs>
</svg>
