<?xml version="1.0" encoding="utf-8" standalone="no"?>
<!DOCTYPE svg PUBLIC "-//W3C//DTD SVG 1.1//EN"
  "http://www.w3.org/Graphics/SVG/1.1/DTD/svg11.dtd">
<!-- Created with matplotlib (https://matplotlib.org/) -->
<svg height="180pt" version="1.1" viewBox="0 0 1080 180" width="1080pt" xmlns="http://www.w3.org/2000/svg" xmlns:xlink="http://www.w3.org/1999/xlink">
 <defs>
  <style type="text/css">
*{stroke-linecap:butt;stroke-linejoin:round;}
  </style>
 </defs>
 <g id="figure_1">
  <g id="patch_1">
   <path d="M 0 180 
L 1080 180 
L 1080 0 
L 0 0 
z
" style="fill:#ffffff;"/>
  </g>
  <g id="axes_1">
   <g id="patch_2">
    <path d="M 135 157.5 
L 279.310345 157.5 
L 279.310345 21.6 
L 135 21.6 
z
" style="fill:#ffffff;"/>
   </g>
   <g id="patch_3">
    <path clip-path="url(#p23849e8992)" d="M 192.122845 102.133333 
L 177.090517 102.133333 
" style="stroke:#000000;stroke-linejoin:miter;stroke-width:0.5;"/>
   </g>
   <g id="patch_4">
    <path clip-path="url(#p23849e8992)" d="M 207.155172 89.55 
L 192.122845 102.133333 
" style="stroke:#000000;stroke-linejoin:miter;stroke-width:0.5;"/>
   </g>
   <g id="patch_5">
    <path clip-path="url(#p23849e8992)" d="M 207.155172 89.55 
L 192.122845 76.966667 
" style="stroke:#000000;stroke-linejoin:miter;stroke-width:0.5;"/>
   </g>
   <g id="patch_6">
    <path clip-path="url(#p23849e8992)" d="M 222.1875 89.55 
L 207.155172 89.55 
" style="stroke:#000000;stroke-linejoin:miter;stroke-width:0.5;"/>
   </g>
   <g id="patch_7">
    <path clip-path="url(#p23849e8992)" d="M 237.219828 89.55 
L 222.1875 89.55 
" style="stroke:#000000;stroke-linejoin:miter;stroke-width:0.5;"/>
   </g>
   <g id="1cdf1cfe011c4477bfea2135e9622fb7-1-node">
    <path clip-path="url(#p23849e8992)" d="M 239.625 85.523333 
L 239.625 93.576667 
L 234.814655 93.576667 
L 234.814655 85.523333 
L 239.625 85.523333 
z
" style="fill:#0000ff;stroke:#ffffff;stroke-linejoin:miter;stroke-width:0.5;"/>
   </g>
   <g id="1cdf1cfe011c4477bfea2135e9622fb7-3-node">
    <path clip-path="url(#p23849e8992)" d="M 224.592672 85.523333 
L 224.592672 93.576667 
L 219.782328 93.576667 
L 219.782328 85.523333 
L 224.592672 85.523333 
z
" style="fill:#0000ff;stroke:#ffffff;stroke-linejoin:miter;stroke-width:0.5;"/>
   </g>
   <g id="1cdf1cfe011c4477bfea2135e9622fb7-5-node">
    <path clip-path="url(#p23849e8992)" d="M 207.155172 93.576667 
C 207.793032 93.576667 208.404852 93.152392 208.855886 92.397283 
C 209.306921 91.642175 209.560345 90.617884 209.560345 89.55 
C 209.560345 88.482116 209.306921 87.457825 208.855886 86.702717 
C 208.404852 85.947608 207.793032 85.523333 207.155172 85.523333 
C 206.517313 85.523333 205.905493 85.947608 205.454459 86.702717 
C 205.003424 87.457825 204.75 88.482116 204.75 89.55 
C 204.75 90.617884 205.003424 91.642175 205.454459 92.397283 
C 205.905493 93.152392 206.517313 93.576667 207.155172 93.576667 
z
" style="fill:#00c832;stroke:#ffffff;stroke-linejoin:miter;stroke-width:0.5;"/>
   </g>
   <g id="1cdf1cfe011c4477bfea2135e9622fb7-7-node">
    <path clip-path="url(#p23849e8992)" d="M 192.122845 106.16 
C 192.760704 106.16 193.372524 105.735725 193.823559 104.980617 
C 194.274593 104.225508 194.528017 103.201218 194.528017 102.133333 
C 194.528017 101.065449 194.274593 100.041158 193.823559 99.28605 
C 193.372524 98.530942 192.760704 98.106667 192.122845 98.106667 
C 191.484986 98.106667 190.873166 98.530942 190.422131 99.28605 
C 189.971097 100.041158 189.717672 101.065449 189.717672 102.133333 
C 189.717672 103.201218 189.971097 104.225508 190.422131 104.980617 
C 190.873166 105.735725 191.484986 106.16 192.122845 106.16 
z
" style="fill:#00c832;stroke:#ffffff;stroke-linejoin:miter;stroke-width:0.5;"/>
   </g>
   <g id="1cdf1cfe011c4477bfea2135e9622fb7-8-node">
    <path clip-path="url(#p23849e8992)" d="M 179.49569 98.106667 
L 179.49569 106.16 
L 174.685345 106.16 
L 174.685345 98.106667 
L 179.49569 98.106667 
z
" style="fill:#0000ff;stroke:#ffffff;stroke-linejoin:miter;stroke-width:0.5;"/>
   </g>
   <g id="1cdf1cfe011c4477bfea2135e9622fb7-6-node">
    <path clip-path="url(#p23849e8992)" d="M 192.122845 80.993333 
C 192.760704 80.993333 193.372524 80.569058 193.823559 79.81395 
C 194.274593 79.058842 194.528017 78.034551 194.528017 76.966667 
C 194.528017 75.898782 194.274593 74.874492 193.823559 74.119383 
C 193.372524 73.364275 192.760704 72.94 192.122845 72.94 
C 191.484986 72.94 190.873166 73.364275 190.422131 74.119383 
C 189.971097 74.874492 189.717672 75.898782 189.717672 76.966667 
C 189.717672 78.034551 189.971097 79.058842 190.422131 79.81395 
C 190.873166 80.569058 191.484986 80.993333 192.122845 80.993333 
z
" style="fill:#00c832;stroke:#ffffff;stroke-linejoin:miter;stroke-width:0.5;"/>
   </g>
   <g id="patch_8">
    <path d="M 135 157.5 
L 135 21.6 
" style="fill:none;stroke:#ffffff;stroke-linecap:square;stroke-linejoin:miter;stroke-width:1.25;"/>
   </g>
   <g id="patch_9">
    <path d="M 279.310345 157.5 
L 279.310345 21.6 
" style="fill:none;stroke:#ffffff;stroke-linecap:square;stroke-linejoin:miter;stroke-width:1.25;"/>
   </g>
   <g id="patch_10">
    <path d="M 135 157.5 
L 279.310345 157.5 
" style="fill:none;stroke:#ffffff;stroke-linecap:square;stroke-linejoin:miter;stroke-width:1.25;"/>
   </g>
   <g id="patch_11">
    <path d="M 135 21.6 
L 279.310345 21.6 
" style="fill:none;stroke:#ffffff;stroke-linecap:square;stroke-linejoin:miter;stroke-width:1.25;"/>
   </g>
   <g id="text_1">
    <!-- 77:1 -->
    <defs>
     <path d="M 4.734375 62.203125 
L 4.734375 70.65625 
L 51.078125 70.65625 
L 51.078125 63.8125 
Q 44.234375 56.546875 37.515625 44.484375 
Q 30.8125 32.421875 27.15625 19.671875 
Q 24.515625 10.6875 23.78125 0 
L 14.75 0 
Q 14.890625 8.453125 18.0625 20.40625 
Q 21.234375 32.375 27.171875 43.484375 
Q 33.109375 54.59375 39.796875 62.203125 
z
" id="ArialMT-55"/>
     <path d="M 9.03125 41.84375 
L 9.03125 51.859375 
L 19.046875 51.859375 
L 19.046875 41.84375 
z
M 9.03125 0 
L 9.03125 10.015625 
L 19.046875 10.015625 
L 19.046875 0 
z
" id="ArialMT-58"/>
     <path d="M 37.25 0 
L 28.46875 0 
L 28.46875 56 
Q 25.296875 52.984375 20.140625 49.953125 
Q 14.984375 46.921875 10.890625 45.40625 
L 10.890625 53.90625 
Q 18.265625 57.375 23.78125 62.296875 
Q 29.296875 67.234375 31.59375 71.875 
L 37.25 71.875 
z
" id="ArialMT-49"/>
    </defs>
    <g style="fill:#262626;" transform="translate(195.47861 15.6)scale(0.12 -0.12)">
     <use xlink:href="#ArialMT-55"/>
     <use x="55.615234" xlink:href="#ArialMT-55"/>
     <use x="111.230469" xlink:href="#ArialMT-58"/>
     <use x="139.013672" xlink:href="#ArialMT-49"/>
    </g>
   </g>
  </g>
  <g id="axes_2">
   <g id="patch_12">
    <path d="M 308.172414 157.5 
L 452.482759 157.5 
L 452.482759 21.6 
L 308.172414 21.6 
z
" style="fill:#ffffff;"/>
   </g>
   <g id="patch_13">
    <path clip-path="url(#p7c75a02b29)" d="M 360.648903 102.133333 
L 347.529781 102.133333 
" style="stroke:#000000;stroke-linejoin:miter;stroke-width:0.5;"/>
   </g>
   <g id="patch_14">
    <path clip-path="url(#p7c75a02b29)" d="M 373.768025 102.133333 
L 360.648903 102.133333 
" style="stroke:#000000;stroke-linejoin:miter;stroke-width:0.5;"/>
   </g>
   <g id="patch_15">
    <path clip-path="url(#p7c75a02b29)" d="M 386.887147 89.55 
L 373.768025 102.133333 
" style="stroke:#000000;stroke-linejoin:miter;stroke-width:0.5;"/>
   </g>
   <g id="patch_16">
    <path clip-path="url(#p7c75a02b29)" d="M 386.887147 89.55 
L 373.768025 76.966667 
" style="stroke:#000000;stroke-linejoin:miter;stroke-width:0.5;"/>
   </g>
   <g id="patch_17">
    <path clip-path="url(#p7c75a02b29)" d="M 400.00627 89.55 
L 386.887147 89.55 
" style="stroke:#000000;stroke-linejoin:miter;stroke-width:0.5;"/>
   </g>
   <g id="patch_18">
    <path clip-path="url(#p7c75a02b29)" d="M 413.125392 89.55 
L 400.00627 89.55 
" style="stroke:#000000;stroke-linejoin:miter;stroke-width:0.5;"/>
   </g>
   <g id="bcb94133ca784087a6d58271c9b0081a-1-node">
    <path clip-path="url(#p7c75a02b29)" d="M 415.224451 85.523333 
L 415.224451 93.576667 
L 411.026332 93.576667 
L 411.026332 85.523333 
L 415.224451 85.523333 
z
" style="fill:#0000ff;stroke:#ffffff;stroke-linejoin:miter;stroke-width:0.5;"/>
   </g>
   <g id="bcb94133ca784087a6d58271c9b0081a-3-node">
    <path clip-path="url(#p7c75a02b29)" d="M 402.105329 85.523333 
L 402.105329 93.576667 
L 397.90721 93.576667 
L 397.90721 85.523333 
L 402.105329 85.523333 
z
" style="fill:#0000ff;stroke:#ffffff;stroke-linejoin:miter;stroke-width:0.5;"/>
   </g>
   <g id="bcb94133ca784087a6d58271c9b0081a-5-node">
    <path clip-path="url(#p7c75a02b29)" d="M 386.887147 93.576667 
C 387.443824 93.576667 387.977776 93.152392 388.371407 92.397283 
C 388.765037 91.642175 388.986207 90.617884 388.986207 89.55 
C 388.986207 88.482116 388.765037 87.457825 388.371407 86.702717 
C 387.977776 85.947608 387.443824 85.523333 386.887147 85.523333 
C 386.33047 85.523333 385.796518 85.947608 385.402888 86.702717 
C 385.009258 87.457825 384.788088 88.482116 384.788088 89.55 
C 384.788088 90.617884 385.009258 91.642175 385.402888 92.397283 
C 385.796518 93.152392 386.33047 93.576667 386.887147 93.576667 
z
" style="fill:#00c832;stroke:#ffffff;stroke-linejoin:miter;stroke-width:0.5;"/>
   </g>
   <g id="bcb94133ca784087a6d58271c9b0081a-7-node">
    <path clip-path="url(#p7c75a02b29)" d="M 373.768025 106.16 
C 374.324702 106.16 374.858654 105.735725 375.252284 104.980617 
C 375.645914 104.225508 375.867085 103.201218 375.867085 102.133333 
C 375.867085 101.065449 375.645914 100.041158 375.252284 99.28605 
C 374.858654 98.530942 374.324702 98.106667 373.768025 98.106667 
C 373.211348 98.106667 372.677396 98.530942 372.283766 99.28605 
C 371.890136 100.041158 371.668966 101.065449 371.668966 102.133333 
C 371.668966 103.201218 371.890136 104.225508 372.283766 104.980617 
C 372.677396 105.735725 373.211348 106.16 373.768025 106.16 
z
" style="fill:#00c832;stroke:#ffffff;stroke-linejoin:miter;stroke-width:0.5;"/>
   </g>
   <g id="bcb94133ca784087a6d58271c9b0081a-8-node">
    <path clip-path="url(#p7c75a02b29)" d="M 362.747962 98.106667 
L 362.747962 106.16 
L 358.549843 106.16 
L 358.549843 98.106667 
L 362.747962 98.106667 
z
" style="fill:#0000ff;stroke:#ffffff;stroke-linejoin:miter;stroke-width:0.5;"/>
   </g>
   <g id="bcb94133ca784087a6d58271c9b0081a-10-node">
    <path clip-path="url(#p7c75a02b29)" d="M 347.529781 106.16 
C 348.086458 106.16 348.62041 105.735725 349.01404 104.980617 
C 349.40767 104.225508 349.62884 103.201218 349.62884 102.133333 
C 349.62884 101.065449 349.40767 100.041158 349.01404 99.28605 
C 348.62041 98.530942 348.086458 98.106667 347.529781 98.106667 
C 346.973103 98.106667 346.439151 98.530942 346.045521 99.28605 
C 345.651891 100.041158 345.430721 101.065449 345.430721 102.133333 
C 345.430721 103.201218 345.651891 104.225508 346.045521 104.980617 
C 346.439151 105.735725 346.973103 106.16 347.529781 106.16 
z
" style="fill:#ffff00;stroke:#ffffff;stroke-linejoin:miter;stroke-width:0.5;"/>
   </g>
   <g id="bcb94133ca784087a6d58271c9b0081a-6-node">
    <path clip-path="url(#p7c75a02b29)" d="M 373.768025 80.993333 
C 374.324702 80.993333 374.858654 80.569058 375.252284 79.81395 
C 375.645914 79.058842 375.867085 78.034551 375.867085 76.966667 
C 375.867085 75.898782 375.645914 74.874492 375.252284 74.119383 
C 374.858654 73.364275 374.324702 72.94 373.768025 72.94 
C 373.211348 72.94 372.677396 73.364275 372.283766 74.119383 
C 371.890136 74.874492 371.668966 75.898782 371.668966 76.966667 
C 371.668966 78.034551 371.890136 79.058842 372.283766 79.81395 
C 372.677396 80.569058 373.211348 80.993333 373.768025 80.993333 
z
" style="fill:#00c832;stroke:#ffffff;stroke-linejoin:miter;stroke-width:0.5;"/>
   </g>
   <g id="patch_19">
    <path d="M 308.172414 157.5 
L 308.172414 21.6 
" style="fill:none;stroke:#ffffff;stroke-linecap:square;stroke-linejoin:miter;stroke-width:1.25;"/>
   </g>
   <g id="patch_20">
    <path d="M 452.482759 157.5 
L 452.482759 21.6 
" style="fill:none;stroke:#ffffff;stroke-linecap:square;stroke-linejoin:miter;stroke-width:1.25;"/>
   </g>
   <g id="patch_21">
    <path d="M 308.172414 157.5 
L 452.482759 157.5 
" style="fill:none;stroke:#ffffff;stroke-linecap:square;stroke-linejoin:miter;stroke-width:1.25;"/>
   </g>
   <g id="patch_22">
    <path d="M 308.172414 21.6 
L 452.482759 21.6 
" style="fill:none;stroke:#ffffff;stroke-linecap:square;stroke-linejoin:miter;stroke-width:1.25;"/>
   </g>
   <g id="text_2">
    <!-- 104:1 -->
    <defs>
     <path d="M 4.15625 35.296875 
Q 4.15625 48 6.765625 55.734375 
Q 9.375 63.484375 14.515625 67.671875 
Q 19.671875 71.875 27.484375 71.875 
Q 33.25 71.875 37.59375 69.546875 
Q 41.9375 67.234375 44.765625 62.859375 
Q 47.609375 58.5 49.21875 52.21875 
Q 50.828125 45.953125 50.828125 35.296875 
Q 50.828125 22.703125 48.234375 14.96875 
Q 45.65625 7.234375 40.5 3 
Q 35.359375 -1.21875 27.484375 -1.21875 
Q 17.140625 -1.21875 11.234375 6.203125 
Q 4.15625 15.140625 4.15625 35.296875 
z
M 13.1875 35.296875 
Q 13.1875 17.671875 17.3125 11.828125 
Q 21.4375 6 27.484375 6 
Q 33.546875 6 37.671875 11.859375 
Q 41.796875 17.71875 41.796875 35.296875 
Q 41.796875 52.984375 37.671875 58.78125 
Q 33.546875 64.59375 27.390625 64.59375 
Q 21.34375 64.59375 17.71875 59.46875 
Q 13.1875 52.9375 13.1875 35.296875 
z
" id="ArialMT-48"/>
     <path d="M 32.328125 0 
L 32.328125 17.140625 
L 1.265625 17.140625 
L 1.265625 25.203125 
L 33.9375 71.578125 
L 41.109375 71.578125 
L 41.109375 25.203125 
L 50.78125 25.203125 
L 50.78125 17.140625 
L 41.109375 17.140625 
L 41.109375 0 
z
M 32.328125 25.203125 
L 32.328125 57.46875 
L 9.90625 25.203125 
z
" id="ArialMT-52"/>
    </defs>
    <g style="fill:#262626;" transform="translate(365.314461 15.6)scale(0.12 -0.12)">
     <use xlink:href="#ArialMT-49"/>
     <use x="55.615234" xlink:href="#ArialMT-48"/>
     <use x="111.230469" xlink:href="#ArialMT-52"/>
     <use x="166.845703" xlink:href="#ArialMT-58"/>
     <use x="194.628906" xlink:href="#ArialMT-49"/>
    </g>
   </g>
  </g>
  <g id="axes_3">
   <g id="patch_23">
    <path d="M 481.344828 157.5 
L 625.655172 157.5 
L 625.655172 21.6 
L 481.344828 21.6 
z
" style="fill:#eaeaf2;"/>
   </g>
   <g id="matplotlib.axis_1">
    <g id="xtick_1">
     <g id="line2d_1">
      <path clip-path="url(#p4481d929ea)" d="M 481.344828 157.5 
L 481.344828 21.6 
" style="fill:none;stroke:#ffffff;stroke-linecap:round;"/>
     </g>
     <g id="text_3">
      <!-- 0.00 -->
      <defs>
       <path d="M 9.078125 0 
L 9.078125 10.015625 
L 19.09375 10.015625 
L 19.09375 0 
z
" id="ArialMT-46"/>
      </defs>
      <g style="fill:#262626;" transform="translate(470.641312 174.873594)scale(0.11 -0.11)">
       <use xlink:href="#ArialMT-48"/>
       <use x="55.615234" xlink:href="#ArialMT-46"/>
       <use x="83.398438" xlink:href="#ArialMT-48"/>
       <use x="139.013672" xlink:href="#ArialMT-48"/>
      </g>
     </g>
    </g>
    <g id="xtick_2">
     <g id="line2d_2">
      <path clip-path="url(#p4481d929ea)" d="M 517.422414 157.5 
L 517.422414 21.6 
" style="fill:none;stroke:#ffffff;stroke-linecap:round;"/>
     </g>
     <g id="text_4">
      <!-- 0.25 -->
      <defs>
       <path d="M 50.34375 8.453125 
L 50.34375 0 
L 3.03125 0 
Q 2.9375 3.171875 4.046875 6.109375 
Q 5.859375 10.9375 9.828125 15.625 
Q 13.8125 20.3125 21.34375 26.46875 
Q 33.015625 36.03125 37.109375 41.625 
Q 41.21875 47.21875 41.21875 52.203125 
Q 41.21875 57.421875 37.46875 61 
Q 33.734375 64.59375 27.734375 64.59375 
Q 21.390625 64.59375 17.578125 60.78125 
Q 13.765625 56.984375 13.71875 50.25 
L 4.6875 51.171875 
Q 5.609375 61.28125 11.65625 66.578125 
Q 17.71875 71.875 27.9375 71.875 
Q 38.234375 71.875 44.234375 66.15625 
Q 50.25 60.453125 50.25 52 
Q 50.25 47.703125 48.484375 43.546875 
Q 46.734375 39.40625 42.65625 34.8125 
Q 38.578125 30.21875 29.109375 22.21875 
Q 21.1875 15.578125 18.9375 13.203125 
Q 16.703125 10.84375 15.234375 8.453125 
z
" id="ArialMT-50"/>
       <path d="M 4.15625 18.75 
L 13.375 19.53125 
Q 14.40625 12.796875 18.140625 9.390625 
Q 21.875 6 27.15625 6 
Q 33.5 6 37.890625 10.78125 
Q 42.28125 15.578125 42.28125 23.484375 
Q 42.28125 31 38.0625 35.34375 
Q 33.84375 39.703125 27 39.703125 
Q 22.75 39.703125 19.328125 37.765625 
Q 15.921875 35.84375 13.96875 32.765625 
L 5.71875 33.84375 
L 12.640625 70.609375 
L 48.25 70.609375 
L 48.25 62.203125 
L 19.671875 62.203125 
L 15.828125 42.96875 
Q 22.265625 47.46875 29.34375 47.46875 
Q 38.71875 47.46875 45.15625 40.96875 
Q 51.609375 34.46875 51.609375 24.265625 
Q 51.609375 14.546875 45.953125 7.46875 
Q 39.0625 -1.21875 27.15625 -1.21875 
Q 17.390625 -1.21875 11.203125 4.25 
Q 5.03125 9.71875 4.15625 18.75 
z
" id="ArialMT-53"/>
      </defs>
      <g style="fill:#262626;" transform="translate(506.718898 174.873594)scale(0.11 -0.11)">
       <use xlink:href="#ArialMT-48"/>
       <use x="55.615234" xlink:href="#ArialMT-46"/>
       <use x="83.398438" xlink:href="#ArialMT-50"/>
       <use x="139.013672" xlink:href="#ArialMT-53"/>
      </g>
     </g>
    </g>
    <g id="xtick_3">
     <g id="line2d_3">
      <path clip-path="url(#p4481d929ea)" d="M 553.5 157.5 
L 553.5 21.6 
" style="fill:none;stroke:#ffffff;stroke-linecap:round;"/>
     </g>
     <g id="text_5">
      <!-- 0.50 -->
      <g style="fill:#262626;" transform="translate(542.796484 174.873594)scale(0.11 -0.11)">
       <use xlink:href="#ArialMT-48"/>
       <use x="55.615234" xlink:href="#ArialMT-46"/>
       <use x="83.398438" xlink:href="#ArialMT-53"/>
       <use x="139.013672" xlink:href="#ArialMT-48"/>
      </g>
     </g>
    </g>
    <g id="xtick_4">
     <g id="line2d_4">
      <path clip-path="url(#p4481d929ea)" d="M 589.577586 157.5 
L 589.577586 21.6 
" style="fill:none;stroke:#ffffff;stroke-linecap:round;"/>
     </g>
     <g id="text_6">
      <!-- 0.75 -->
      <g style="fill:#262626;" transform="translate(578.874071 174.873594)scale(0.11 -0.11)">
       <use xlink:href="#ArialMT-48"/>
       <use x="55.615234" xlink:href="#ArialMT-46"/>
       <use x="83.398438" xlink:href="#ArialMT-55"/>
       <use x="139.013672" xlink:href="#ArialMT-53"/>
      </g>
     </g>
    </g>
    <g id="xtick_5">
     <g id="line2d_5">
      <path clip-path="url(#p4481d929ea)" d="M 625.655172 157.5 
L 625.655172 21.6 
" style="fill:none;stroke:#ffffff;stroke-linecap:round;"/>
     </g>
     <g id="text_7">
      <!-- 1.00 -->
      <g style="fill:#262626;" transform="translate(614.951657 174.873594)scale(0.11 -0.11)">
       <use xlink:href="#ArialMT-49"/>
       <use x="55.615234" xlink:href="#ArialMT-46"/>
       <use x="83.398438" xlink:href="#ArialMT-48"/>
       <use x="139.013672" xlink:href="#ArialMT-48"/>
      </g>
     </g>
    </g>
   </g>
   <g id="matplotlib.axis_2">
    <g id="ytick_1">
     <g id="line2d_6">
      <path clip-path="url(#p4481d929ea)" d="M 481.344828 157.5 
L 625.655172 157.5 
" style="fill:none;stroke:#ffffff;stroke-linecap:round;"/>
     </g>
     <g id="text_8">
      <!-- 0.0 -->
      <g style="fill:#262626;" transform="translate(456.554828 161.436797)scale(0.11 -0.11)">
       <use xlink:href="#ArialMT-48"/>
       <use x="55.615234" xlink:href="#ArialMT-46"/>
       <use x="83.398438" xlink:href="#ArialMT-48"/>
      </g>
     </g>
    </g>
    <g id="ytick_2">
     <g id="line2d_7">
      <path clip-path="url(#p4481d929ea)" d="M 481.344828 130.32 
L 625.655172 130.32 
" style="fill:none;stroke:#ffffff;stroke-linecap:round;"/>
     </g>
     <g id="text_9">
      <!-- 0.2 -->
      <g style="fill:#262626;" transform="translate(456.554828 134.256797)scale(0.11 -0.11)">
       <use xlink:href="#ArialMT-48"/>
       <use x="55.615234" xlink:href="#ArialMT-46"/>
       <use x="83.398438" xlink:href="#ArialMT-50"/>
      </g>
     </g>
    </g>
    <g id="ytick_3">
     <g id="line2d_8">
      <path clip-path="url(#p4481d929ea)" d="M 481.344828 103.14 
L 625.655172 103.14 
" style="fill:none;stroke:#ffffff;stroke-linecap:round;"/>
     </g>
     <g id="text_10">
      <!-- 0.4 -->
      <g style="fill:#262626;" transform="translate(456.554828 107.076797)scale(0.11 -0.11)">
       <use xlink:href="#ArialMT-48"/>
       <use x="55.615234" xlink:href="#ArialMT-46"/>
       <use x="83.398438" xlink:href="#ArialMT-52"/>
      </g>
     </g>
    </g>
    <g id="ytick_4">
     <g id="line2d_9">
      <path clip-path="url(#p4481d929ea)" d="M 481.344828 75.96 
L 625.655172 75.96 
" style="fill:none;stroke:#ffffff;stroke-linecap:round;"/>
     </g>
     <g id="text_11">
      <!-- 0.6 -->
      <defs>
       <path d="M 49.75 54.046875 
L 41.015625 53.375 
Q 39.84375 58.546875 37.703125 60.890625 
Q 34.125 64.65625 28.90625 64.65625 
Q 24.703125 64.65625 21.53125 62.3125 
Q 17.390625 59.28125 14.984375 53.46875 
Q 12.59375 47.65625 12.5 36.921875 
Q 15.671875 41.75 20.265625 44.09375 
Q 24.859375 46.4375 29.890625 46.4375 
Q 38.671875 46.4375 44.84375 39.96875 
Q 51.03125 33.5 51.03125 23.25 
Q 51.03125 16.5 48.125 10.71875 
Q 45.21875 4.9375 40.140625 1.859375 
Q 35.0625 -1.21875 28.609375 -1.21875 
Q 17.625 -1.21875 10.6875 6.859375 
Q 3.765625 14.9375 3.765625 33.5 
Q 3.765625 54.25 11.421875 63.671875 
Q 18.109375 71.875 29.4375 71.875 
Q 37.890625 71.875 43.28125 67.140625 
Q 48.6875 62.40625 49.75 54.046875 
z
M 13.875 23.1875 
Q 13.875 18.65625 15.796875 14.5 
Q 17.71875 10.359375 21.1875 8.171875 
Q 24.65625 6 28.46875 6 
Q 34.03125 6 38.03125 10.484375 
Q 42.046875 14.984375 42.046875 22.703125 
Q 42.046875 30.125 38.078125 34.390625 
Q 34.125 38.671875 28.125 38.671875 
Q 22.171875 38.671875 18.015625 34.390625 
Q 13.875 30.125 13.875 23.1875 
z
" id="ArialMT-54"/>
      </defs>
      <g style="fill:#262626;" transform="translate(456.554828 79.896797)scale(0.11 -0.11)">
       <use xlink:href="#ArialMT-48"/>
       <use x="55.615234" xlink:href="#ArialMT-46"/>
       <use x="83.398438" xlink:href="#ArialMT-54"/>
      </g>
     </g>
    </g>
    <g id="ytick_5">
     <g id="line2d_10">
      <path clip-path="url(#p4481d929ea)" d="M 481.344828 48.78 
L 625.655172 48.78 
" style="fill:none;stroke:#ffffff;stroke-linecap:round;"/>
     </g>
     <g id="text_12">
      <!-- 0.8 -->
      <defs>
       <path d="M 17.671875 38.8125 
Q 12.203125 40.828125 9.5625 44.53125 
Q 6.9375 48.25 6.9375 53.421875 
Q 6.9375 61.234375 12.546875 66.546875 
Q 18.171875 71.875 27.484375 71.875 
Q 36.859375 71.875 42.578125 66.421875 
Q 48.296875 60.984375 48.296875 53.171875 
Q 48.296875 48.1875 45.671875 44.5 
Q 43.0625 40.828125 37.75 38.8125 
Q 44.34375 36.671875 47.78125 31.875 
Q 51.21875 27.09375 51.21875 20.453125 
Q 51.21875 11.28125 44.71875 5.03125 
Q 38.234375 -1.21875 27.640625 -1.21875 
Q 17.046875 -1.21875 10.546875 5.046875 
Q 4.046875 11.328125 4.046875 20.703125 
Q 4.046875 27.6875 7.59375 32.390625 
Q 11.140625 37.109375 17.671875 38.8125 
z
M 15.921875 53.71875 
Q 15.921875 48.640625 19.1875 45.40625 
Q 22.46875 42.1875 27.6875 42.1875 
Q 32.765625 42.1875 36.015625 45.375 
Q 39.265625 48.578125 39.265625 53.21875 
Q 39.265625 58.0625 35.90625 61.359375 
Q 32.5625 64.65625 27.59375 64.65625 
Q 22.5625 64.65625 19.234375 61.421875 
Q 15.921875 58.203125 15.921875 53.71875 
z
M 13.09375 20.65625 
Q 13.09375 16.890625 14.875 13.375 
Q 16.65625 9.859375 20.171875 7.921875 
Q 23.6875 6 27.734375 6 
Q 34.03125 6 38.125 10.046875 
Q 42.234375 14.109375 42.234375 20.359375 
Q 42.234375 26.703125 38.015625 30.859375 
Q 33.796875 35.015625 27.4375 35.015625 
Q 21.234375 35.015625 17.15625 30.90625 
Q 13.09375 26.8125 13.09375 20.65625 
z
" id="ArialMT-56"/>
      </defs>
      <g style="fill:#262626;" transform="translate(456.554828 52.716797)scale(0.11 -0.11)">
       <use xlink:href="#ArialMT-48"/>
       <use x="55.615234" xlink:href="#ArialMT-46"/>
       <use x="83.398438" xlink:href="#ArialMT-56"/>
      </g>
     </g>
    </g>
    <g id="ytick_6">
     <g id="line2d_11">
      <path clip-path="url(#p4481d929ea)" d="M 481.344828 21.6 
L 625.655172 21.6 
" style="fill:none;stroke:#ffffff;stroke-linecap:round;"/>
     </g>
     <g id="text_13">
      <!-- 1.0 -->
      <g style="fill:#262626;" transform="translate(456.554828 25.536797)scale(0.11 -0.11)">
       <use xlink:href="#ArialMT-49"/>
       <use x="55.615234" xlink:href="#ArialMT-46"/>
       <use x="83.398438" xlink:href="#ArialMT-48"/>
      </g>
     </g>
    </g>
   </g>
   <g id="patch_24">
    <path d="M 481.344828 157.5 
L 481.344828 21.6 
" style="fill:none;stroke:#ffffff;stroke-linecap:square;stroke-linejoin:miter;stroke-width:1.25;"/>
   </g>
   <g id="patch_25">
    <path d="M 625.655172 157.5 
L 625.655172 21.6 
" style="fill:none;stroke:#ffffff;stroke-linecap:square;stroke-linejoin:miter;stroke-width:1.25;"/>
   </g>
   <g id="patch_26">
    <path d="M 481.344828 157.5 
L 625.655172 157.5 
" style="fill:none;stroke:#ffffff;stroke-linecap:square;stroke-linejoin:miter;stroke-width:1.25;"/>
   </g>
   <g id="patch_27">
    <path d="M 481.344828 21.6 
L 625.655172 21.6 
" style="fill:none;stroke:#ffffff;stroke-linecap:square;stroke-linejoin:miter;stroke-width:1.25;"/>
   </g>
  </g>
  <g id="axes_4">
   <g id="patch_28">
    <path d="M 654.517241 157.5 
L 798.827586 157.5 
L 798.827586 21.6 
L 654.517241 21.6 
z
" style="fill:#eaeaf2;"/>
   </g>
   <g id="matplotlib.axis_3">
    <g id="xtick_6">
     <g id="line2d_12">
      <path clip-path="url(#pe3cfd3b1b9)" d="M 654.517241 157.5 
L 654.517241 21.6 
" style="fill:none;stroke:#ffffff;stroke-linecap:round;"/>
     </g>
     <g id="text_14">
      <!-- 0.00 -->
      <g style="fill:#262626;" transform="translate(643.813726 174.873594)scale(0.11 -0.11)">
       <use xlink:href="#ArialMT-48"/>
       <use x="55.615234" xlink:href="#ArialMT-46"/>
       <use x="83.398438" xlink:href="#ArialMT-48"/>
       <use x="139.013672" xlink:href="#ArialMT-48"/>
      </g>
     </g>
    </g>
    <g id="xtick_7">
     <g id="line2d_13">
      <path clip-path="url(#pe3cfd3b1b9)" d="M 690.594828 157.5 
L 690.594828 21.6 
" style="fill:none;stroke:#ffffff;stroke-linecap:round;"/>
     </g>
     <g id="text_15">
      <!-- 0.25 -->
      <g style="fill:#262626;" transform="translate(679.891312 174.873594)scale(0.11 -0.11)">
       <use xlink:href="#ArialMT-48"/>
       <use x="55.615234" xlink:href="#ArialMT-46"/>
       <use x="83.398438" xlink:href="#ArialMT-50"/>
       <use x="139.013672" xlink:href="#ArialMT-53"/>
      </g>
     </g>
    </g>
    <g id="xtick_8">
     <g id="line2d_14">
      <path clip-path="url(#pe3cfd3b1b9)" d="M 726.672414 157.5 
L 726.672414 21.6 
" style="fill:none;stroke:#ffffff;stroke-linecap:round;"/>
     </g>
     <g id="text_16">
      <!-- 0.50 -->
      <g style="fill:#262626;" transform="translate(715.968898 174.873594)scale(0.11 -0.11)">
       <use xlink:href="#ArialMT-48"/>
       <use x="55.615234" xlink:href="#ArialMT-46"/>
       <use x="83.398438" xlink:href="#ArialMT-53"/>
       <use x="139.013672" xlink:href="#ArialMT-48"/>
      </g>
     </g>
    </g>
    <g id="xtick_9">
     <g id="line2d_15">
      <path clip-path="url(#pe3cfd3b1b9)" d="M 762.75 157.5 
L 762.75 21.6 
" style="fill:none;stroke:#ffffff;stroke-linecap:round;"/>
     </g>
     <g id="text_17">
      <!-- 0.75 -->
      <g style="fill:#262626;" transform="translate(752.046484 174.873594)scale(0.11 -0.11)">
       <use xlink:href="#ArialMT-48"/>
       <use x="55.615234" xlink:href="#ArialMT-46"/>
       <use x="83.398438" xlink:href="#ArialMT-55"/>
       <use x="139.013672" xlink:href="#ArialMT-53"/>
      </g>
     </g>
    </g>
    <g id="xtick_10">
     <g id="line2d_16">
      <path clip-path="url(#pe3cfd3b1b9)" d="M 798.827586 157.5 
L 798.827586 21.6 
" style="fill:none;stroke:#ffffff;stroke-linecap:round;"/>
     </g>
     <g id="text_18">
      <!-- 1.00 -->
      <g style="fill:#262626;" transform="translate(788.124071 174.873594)scale(0.11 -0.11)">
       <use xlink:href="#ArialMT-49"/>
       <use x="55.615234" xlink:href="#ArialMT-46"/>
       <use x="83.398438" xlink:href="#ArialMT-48"/>
       <use x="139.013672" xlink:href="#ArialMT-48"/>
      </g>
     </g>
    </g>
   </g>
   <g id="matplotlib.axis_4">
    <g id="ytick_7">
     <g id="line2d_17">
      <path clip-path="url(#pe3cfd3b1b9)" d="M 654.517241 157.5 
L 798.827586 157.5 
" style="fill:none;stroke:#ffffff;stroke-linecap:round;"/>
     </g>
     <g id="text_19">
      <!-- 0.0 -->
      <g style="fill:#262626;" transform="translate(629.727241 161.436797)scale(0.11 -0.11)">
       <use xlink:href="#ArialMT-48"/>
       <use x="55.615234" xlink:href="#ArialMT-46"/>
       <use x="83.398438" xlink:href="#ArialMT-48"/>
      </g>
     </g>
    </g>
    <g id="ytick_8">
     <g id="line2d_18">
      <path clip-path="url(#pe3cfd3b1b9)" d="M 654.517241 130.32 
L 798.827586 130.32 
" style="fill:none;stroke:#ffffff;stroke-linecap:round;"/>
     </g>
     <g id="text_20">
      <!-- 0.2 -->
      <g style="fill:#262626;" transform="translate(629.727241 134.256797)scale(0.11 -0.11)">
       <use xlink:href="#ArialMT-48"/>
       <use x="55.615234" xlink:href="#ArialMT-46"/>
       <use x="83.398438" xlink:href="#ArialMT-50"/>
      </g>
     </g>
    </g>
    <g id="ytick_9">
     <g id="line2d_19">
      <path clip-path="url(#pe3cfd3b1b9)" d="M 654.517241 103.14 
L 798.827586 103.14 
" style="fill:none;stroke:#ffffff;stroke-linecap:round;"/>
     </g>
     <g id="text_21">
      <!-- 0.4 -->
      <g style="fill:#262626;" transform="translate(629.727241 107.076797)scale(0.11 -0.11)">
       <use xlink:href="#ArialMT-48"/>
       <use x="55.615234" xlink:href="#ArialMT-46"/>
       <use x="83.398438" xlink:href="#ArialMT-52"/>
      </g>
     </g>
    </g>
    <g id="ytick_10">
     <g id="line2d_20">
      <path clip-path="url(#pe3cfd3b1b9)" d="M 654.517241 75.96 
L 798.827586 75.96 
" style="fill:none;stroke:#ffffff;stroke-linecap:round;"/>
     </g>
     <g id="text_22">
      <!-- 0.6 -->
      <g style="fill:#262626;" transform="translate(629.727241 79.896797)scale(0.11 -0.11)">
       <use xlink:href="#ArialMT-48"/>
       <use x="55.615234" xlink:href="#ArialMT-46"/>
       <use x="83.398438" xlink:href="#ArialMT-54"/>
      </g>
     </g>
    </g>
    <g id="ytick_11">
     <g id="line2d_21">
      <path clip-path="url(#pe3cfd3b1b9)" d="M 654.517241 48.78 
L 798.827586 48.78 
" style="fill:none;stroke:#ffffff;stroke-linecap:round;"/>
     </g>
     <g id="text_23">
      <!-- 0.8 -->
      <g style="fill:#262626;" transform="translate(629.727241 52.716797)scale(0.11 -0.11)">
       <use xlink:href="#ArialMT-48"/>
       <use x="55.615234" xlink:href="#ArialMT-46"/>
       <use x="83.398438" xlink:href="#ArialMT-56"/>
      </g>
     </g>
    </g>
    <g id="ytick_12">
     <g id="line2d_22">
      <path clip-path="url(#pe3cfd3b1b9)" d="M 654.517241 21.6 
L 798.827586 21.6 
" style="fill:none;stroke:#ffffff;stroke-linecap:round;"/>
     </g>
     <g id="text_24">
      <!-- 1.0 -->
      <g style="fill:#262626;" transform="translate(629.727241 25.536797)scale(0.11 -0.11)">
       <use xlink:href="#ArialMT-49"/>
       <use x="55.615234" xlink:href="#ArialMT-46"/>
       <use x="83.398438" xlink:href="#ArialMT-48"/>
      </g>
     </g>
    </g>
   </g>
   <g id="patch_29">
    <path d="M 654.517241 157.5 
L 654.517241 21.6 
" style="fill:none;stroke:#ffffff;stroke-linecap:square;stroke-linejoin:miter;stroke-width:1.25;"/>
   </g>
   <g id="patch_30">
    <path d="M 798.827586 157.5 
L 798.827586 21.6 
" style="fill:none;stroke:#ffffff;stroke-linecap:square;stroke-linejoin:miter;stroke-width:1.25;"/>
   </g>
   <g id="patch_31">
    <path d="M 654.517241 157.5 
L 798.827586 157.5 
" style="fill:none;stroke:#ffffff;stroke-linecap:square;stroke-linejoin:miter;stroke-width:1.25;"/>
   </g>
   <g id="patch_32">
    <path d="M 654.517241 21.6 
L 798.827586 21.6 
" style="fill:none;stroke:#ffffff;stroke-linecap:square;stroke-linejoin:miter;stroke-width:1.25;"/>
   </g>
  </g>
  <g id="axes_5">
   <g id="patch_33">
    <path d="M 827.689655 157.5 
L 972 157.5 
L 972 21.6 
L 827.689655 21.6 
z
" style="fill:#eaeaf2;"/>
   </g>
   <g id="matplotlib.axis_5">
    <g id="xtick_11">
     <g id="line2d_23">
      <path clip-path="url(#p1dbf94ba4e)" d="M 827.689655 157.5 
L 827.689655 21.6 
" style="fill:none;stroke:#ffffff;stroke-linecap:round;"/>
     </g>
     <g id="text_25">
      <!-- 0.00 -->
      <g style="fill:#262626;" transform="translate(816.98614 174.873594)scale(0.11 -0.11)">
       <use xlink:href="#ArialMT-48"/>
       <use x="55.615234" xlink:href="#ArialMT-46"/>
       <use x="83.398438" xlink:href="#ArialMT-48"/>
       <use x="139.013672" xlink:href="#ArialMT-48"/>
      </g>
     </g>
    </g>
    <g id="xtick_12">
     <g id="line2d_24">
      <path clip-path="url(#p1dbf94ba4e)" d="M 863.767241 157.5 
L 863.767241 21.6 
" style="fill:none;stroke:#ffffff;stroke-linecap:round;"/>
     </g>
     <g id="text_26">
      <!-- 0.25 -->
      <g style="fill:#262626;" transform="translate(853.063726 174.873594)scale(0.11 -0.11)">
       <use xlink:href="#ArialMT-48"/>
       <use x="55.615234" xlink:href="#ArialMT-46"/>
       <use x="83.398438" xlink:href="#ArialMT-50"/>
       <use x="139.013672" xlink:href="#ArialMT-53"/>
      </g>
     </g>
    </g>
    <g id="xtick_13">
     <g id="line2d_25">
      <path clip-path="url(#p1dbf94ba4e)" d="M 899.844828 157.5 
L 899.844828 21.6 
" style="fill:none;stroke:#ffffff;stroke-linecap:round;"/>
     </g>
     <g id="text_27">
      <!-- 0.50 -->
      <g style="fill:#262626;" transform="translate(889.141312 174.873594)scale(0.11 -0.11)">
       <use xlink:href="#ArialMT-48"/>
       <use x="55.615234" xlink:href="#ArialMT-46"/>
       <use x="83.398438" xlink:href="#ArialMT-53"/>
       <use x="139.013672" xlink:href="#ArialMT-48"/>
      </g>
     </g>
    </g>
    <g id="xtick_14">
     <g id="line2d_26">
      <path clip-path="url(#p1dbf94ba4e)" d="M 935.922414 157.5 
L 935.922414 21.6 
" style="fill:none;stroke:#ffffff;stroke-linecap:round;"/>
     </g>
     <g id="text_28">
      <!-- 0.75 -->
      <g style="fill:#262626;" transform="translate(925.218898 174.873594)scale(0.11 -0.11)">
       <use xlink:href="#ArialMT-48"/>
       <use x="55.615234" xlink:href="#ArialMT-46"/>
       <use x="83.398438" xlink:href="#ArialMT-55"/>
       <use x="139.013672" xlink:href="#ArialMT-53"/>
      </g>
     </g>
    </g>
    <g id="xtick_15">
     <g id="line2d_27">
      <path clip-path="url(#p1dbf94ba4e)" d="M 972 157.5 
L 972 21.6 
" style="fill:none;stroke:#ffffff;stroke-linecap:round;"/>
     </g>
     <g id="text_29">
      <!-- 1.00 -->
      <g style="fill:#262626;" transform="translate(961.296484 174.873594)scale(0.11 -0.11)">
       <use xlink:href="#ArialMT-49"/>
       <use x="55.615234" xlink:href="#ArialMT-46"/>
       <use x="83.398438" xlink:href="#ArialMT-48"/>
       <use x="139.013672" xlink:href="#ArialMT-48"/>
      </g>
     </g>
    </g>
   </g>
   <g id="matplotlib.axis_6">
    <g id="ytick_13">
     <g id="line2d_28">
      <path clip-path="url(#p1dbf94ba4e)" d="M 827.689655 157.5 
L 972 157.5 
" style="fill:none;stroke:#ffffff;stroke-linecap:round;"/>
     </g>
     <g id="text_30">
      <!-- 0.0 -->
      <g style="fill:#262626;" transform="translate(802.899655 161.436797)scale(0.11 -0.11)">
       <use xlink:href="#ArialMT-48"/>
       <use x="55.615234" xlink:href="#ArialMT-46"/>
       <use x="83.398438" xlink:href="#ArialMT-48"/>
      </g>
     </g>
    </g>
    <g id="ytick_14">
     <g id="line2d_29">
      <path clip-path="url(#p1dbf94ba4e)" d="M 827.689655 130.32 
L 972 130.32 
" style="fill:none;stroke:#ffffff;stroke-linecap:round;"/>
     </g>
     <g id="text_31">
      <!-- 0.2 -->
      <g style="fill:#262626;" transform="translate(802.899655 134.256797)scale(0.11 -0.11)">
       <use xlink:href="#ArialMT-48"/>
       <use x="55.615234" xlink:href="#ArialMT-46"/>
       <use x="83.398438" xlink:href="#ArialMT-50"/>
      </g>
     </g>
    </g>
    <g id="ytick_15">
     <g id="line2d_30">
      <path clip-path="url(#p1dbf94ba4e)" d="M 827.689655 103.14 
L 972 103.14 
" style="fill:none;stroke:#ffffff;stroke-linecap:round;"/>
     </g>
     <g id="text_32">
      <!-- 0.4 -->
      <g style="fill:#262626;" transform="translate(802.899655 107.076797)scale(0.11 -0.11)">
       <use xlink:href="#ArialMT-48"/>
       <use x="55.615234" xlink:href="#ArialMT-46"/>
       <use x="83.398438" xlink:href="#ArialMT-52"/>
      </g>
     </g>
    </g>
    <g id="ytick_16">
     <g id="line2d_31">
      <path clip-path="url(#p1dbf94ba4e)" d="M 827.689655 75.96 
L 972 75.96 
" style="fill:none;stroke:#ffffff;stroke-linecap:round;"/>
     </g>
     <g id="text_33">
      <!-- 0.6 -->
      <g style="fill:#262626;" transform="translate(802.899655 79.896797)scale(0.11 -0.11)">
       <use xlink:href="#ArialMT-48"/>
       <use x="55.615234" xlink:href="#ArialMT-46"/>
       <use x="83.398438" xlink:href="#ArialMT-54"/>
      </g>
     </g>
    </g>
    <g id="ytick_17">
     <g id="line2d_32">
      <path clip-path="url(#p1dbf94ba4e)" d="M 827.689655 48.78 
L 972 48.78 
" style="fill:none;stroke:#ffffff;stroke-linecap:round;"/>
     </g>
     <g id="text_34">
      <!-- 0.8 -->
      <g style="fill:#262626;" transform="translate(802.899655 52.716797)scale(0.11 -0.11)">
       <use xlink:href="#ArialMT-48"/>
       <use x="55.615234" xlink:href="#ArialMT-46"/>
       <use x="83.398438" xlink:href="#ArialMT-56"/>
      </g>
     </g>
    </g>
    <g id="ytick_18">
     <g id="line2d_33">
      <path clip-path="url(#p1dbf94ba4e)" d="M 827.689655 21.6 
L 972 21.6 
" style="fill:none;stroke:#ffffff;stroke-linecap:round;"/>
     </g>
     <g id="text_35">
      <!-- 1.0 -->
      <g style="fill:#262626;" transform="translate(802.899655 25.536797)scale(0.11 -0.11)">
       <use xlink:href="#ArialMT-49"/>
       <use x="55.615234" xlink:href="#ArialMT-46"/>
       <use x="83.398438" xlink:href="#ArialMT-48"/>
      </g>
     </g>
    </g>
   </g>
   <g id="patch_34">
    <path d="M 827.689655 157.5 
L 827.689655 21.6 
" style="fill:none;stroke:#ffffff;stroke-linecap:square;stroke-linejoin:miter;stroke-width:1.25;"/>
   </g>
   <g id="patch_35">
    <path d="M 972 157.5 
L 972 21.6 
" style="fill:none;stroke:#ffffff;stroke-linecap:square;stroke-linejoin:miter;stroke-width:1.25;"/>
   </g>
   <g id="patch_36">
    <path d="M 827.689655 157.5 
L 972 157.5 
" style="fill:none;stroke:#ffffff;stroke-linecap:square;stroke-linejoin:miter;stroke-width:1.25;"/>
   </g>
   <g id="patch_37">
    <path d="M 827.689655 21.6 
L 972 21.6 
" style="fill:none;stroke:#ffffff;stroke-linecap:square;stroke-linejoin:miter;stroke-width:1.25;"/>
   </g>
   <g id="text_36">
    <!-- 1 -->
    <g style="fill:#262626;" transform="translate(896.508265 15.6)scale(0.12 -0.12)">
     <use xlink:href="#ArialMT-49"/>
    </g>
   </g>
  </g>
 </g>
 <defs>
  <clipPath id="p23849e8992">
   <rect height="135.9" width="144.310345" x="135" y="21.6"/>
  </clipPath>
  <clipPath id="p7c75a02b29">
   <rect height="135.9" width="144.310345" x="308.172414" y="21.6"/>
  </clipPath>
  <clipPath id="p4481d929ea">
   <rect height="135.9" width="144.310345" x="481.344828" y="21.6"/>
  </clipPath>
  <clipPath id="pe3cfd3b1b9">
   <rect height="135.9" width="144.310345" x="654.517241" y="21.6"/>
  </clipPath>
  <clipPath id="p1dbf94ba4e">
   <rect height="135.9" width="144.310345" x="827.689655" y="21.6"/>
  </clipPath>
 </defs>
</svg>
