<?xml version="1.0" encoding="utf-8" standalone="no"?>
<!DOCTYPE svg PUBLIC "-//W3C//DTD SVG 1.1//EN"
  "http://www.w3.org/Graphics/SVG/1.1/DTD/svg11.dtd">
<!-- Created with matplotlib (https://matplotlib.org/) -->
<svg height="180pt" version="1.1" viewBox="0 0 1080 180" width="1080pt" xmlns="http://www.w3.org/2000/svg" xmlns:xlink="http://www.w3.org/1999/xlink">
 <defs>
  <style type="text/css">
*{stroke-linecap:butt;stroke-linejoin:round;}
  </style>
 </defs>
 <g id="figure_1">
  <g id="patch_1">
   <path d="M 0 180 
L 1080 180 
L 1080 0 
L 0 0 
z
" style="fill:#ffffff;"/>
  </g>
  <g id="axes_1">
   <g id="patch_2">
    <path d="M 135 157.5 
L 279.310345 157.5 
L 279.310345 21.6 
L 135 21.6 
z
" style="fill:#ffffff;"/>
   </g>
   <g id="patch_3">
    <path clip-path="url(#pbd5306fe64)" d="M 211.239427 102.701613 
L 197.625244 113.66129 
" style="stroke:#000000;stroke-linejoin:miter;stroke-width:0.5;"/>
   </g>
   <g id="patch_4">
    <path clip-path="url(#pbd5306fe64)" d="M 211.239427 102.701613 
L 197.625244 91.741935 
" style="stroke:#000000;stroke-linejoin:miter;stroke-width:0.5;"/>
   </g>
   <g id="patch_5">
    <path clip-path="url(#pbd5306fe64)" d="M 224.853611 86.262097 
L 211.239427 102.701613 
" style="stroke:#000000;stroke-linejoin:miter;stroke-width:0.5;"/>
   </g>
   <g id="patch_6">
    <path clip-path="url(#pbd5306fe64)" d="M 184.011061 69.822581 
L 170.396877 69.822581 
" style="stroke:#000000;stroke-linejoin:miter;stroke-width:0.5;"/>
   </g>
   <g id="patch_7">
    <path clip-path="url(#pbd5306fe64)" d="M 197.625244 69.822581 
L 184.011061 69.822581 
" style="stroke:#000000;stroke-linejoin:miter;stroke-width:0.5;"/>
   </g>
   <g id="patch_8">
    <path clip-path="url(#pbd5306fe64)" d="M 211.239427 69.822581 
L 197.625244 69.822581 
" style="stroke:#000000;stroke-linejoin:miter;stroke-width:0.5;"/>
   </g>
   <g id="patch_9">
    <path clip-path="url(#pbd5306fe64)" d="M 224.853611 86.262097 
L 211.239427 69.822581 
" style="stroke:#000000;stroke-linejoin:miter;stroke-width:0.5;"/>
   </g>
   <g id="patch_10">
    <path clip-path="url(#pbd5306fe64)" d="M 238.467794 86.262097 
L 224.853611 86.262097 
" style="stroke:#000000;stroke-linejoin:miter;stroke-width:0.5;"/>
   </g>
   <g id="patch_11">
    <path clip-path="url(#pbd5306fe64)" d="M 252.081978 86.262097 
L 238.467794 86.262097 
" style="stroke:#000000;stroke-linejoin:miter;stroke-width:0.5;"/>
   </g>
   <g id="7c0ca6ace23b4c6da5ec9056ed09e2c3-1-node">
    <path clip-path="url(#pbd5306fe64)" d="M 254.396389 82.535806 
L 254.396389 89.988387 
L 249.767567 89.988387 
L 249.767567 82.535806 
L 254.396389 82.535806 
z
" style="fill:#0000ff;stroke:#ffffff;stroke-linejoin:miter;stroke-width:0.5;"/>
   </g>
   <g id="7c0ca6ace23b4c6da5ec9056ed09e2c3-3-node">
    <path clip-path="url(#pbd5306fe64)" d="M 240.782206 82.535806 
L 240.782206 89.988387 
L 236.153383 89.988387 
L 236.153383 82.535806 
L 240.782206 82.535806 
z
" style="fill:#0000ff;stroke:#ffffff;stroke-linejoin:miter;stroke-width:0.5;"/>
   </g>
   <g id="7c0ca6ace23b4c6da5ec9056ed09e2c3-5-node">
    <path clip-path="url(#pbd5306fe64)" d="M 224.853611 89.988387 
C 225.4674 89.988387 226.056132 89.595762 226.490147 88.896982 
C 226.924161 88.198202 227.168022 87.250321 227.168022 86.262097 
C 227.168022 85.273873 226.924161 84.325991 226.490147 83.627212 
C 226.056132 82.928432 225.4674 82.535806 224.853611 82.535806 
C 224.239822 82.535806 223.651089 82.928432 223.217075 83.627212 
C 222.783061 84.325991 222.5392 85.273873 222.5392 86.262097 
C 222.5392 87.250321 222.783061 88.198202 223.217075 88.896982 
C 223.651089 89.595762 224.239822 89.988387 224.853611 89.988387 
z
" style="fill:#00c832;stroke:#ffffff;stroke-linejoin:miter;stroke-width:0.5;"/>
   </g>
   <g id="7c0ca6ace23b4c6da5ec9056ed09e2c3-12-node">
    <path clip-path="url(#pbd5306fe64)" d="M 211.239427 106.427903 
C 211.853216 106.427903 212.441949 106.035278 212.875963 105.336498 
C 213.309978 104.637718 213.553839 103.689837 213.553839 102.701613 
C 213.553839 101.713389 213.309978 100.765507 212.875963 100.066728 
C 212.441949 99.367948 211.853216 98.975323 211.239427 98.975323 
C 210.625638 98.975323 210.036906 99.367948 209.602892 100.066728 
C 209.168877 100.765507 208.925016 101.713389 208.925016 102.701613 
C 208.925016 103.689837 209.168877 104.637718 209.602892 105.336498 
C 210.036906 106.035278 210.625638 106.427903 211.239427 106.427903 
z
" style="fill:#00c832;stroke:#ffffff;stroke-linejoin:miter;stroke-width:0.5;"/>
   </g>
   <g id="7c0ca6ace23b4c6da5ec9056ed09e2c3-15-node">
    <path clip-path="url(#pbd5306fe64)" d="M 199.939655 109.935 
L 199.939655 117.387581 
L 195.310833 117.387581 
L 195.310833 109.935 
L 199.939655 109.935 
z
" style="fill:#0000ff;stroke:#ffffff;stroke-linejoin:miter;stroke-width:0.5;"/>
   </g>
   <g id="7c0ca6ace23b4c6da5ec9056ed09e2c3-13-node">
    <path clip-path="url(#pbd5306fe64)" d="M 199.939655 88.015645 
L 199.939655 95.468226 
L 195.310833 95.468226 
L 195.310833 88.015645 
L 199.939655 88.015645 
z
" style="fill:#0000ff;stroke:#ffffff;stroke-linejoin:miter;stroke-width:0.5;"/>
   </g>
   <g id="7c0ca6ace23b4c6da5ec9056ed09e2c3-6-node">
    <path clip-path="url(#pbd5306fe64)" d="M 211.239427 73.548871 
C 211.853216 73.548871 212.441949 73.156246 212.875963 72.457466 
C 213.309978 71.758686 213.553839 70.810804 213.553839 69.822581 
C 213.553839 68.834357 213.309978 67.886475 212.875963 67.187695 
C 212.441949 66.488916 211.853216 66.09629 211.239427 66.09629 
C 210.625638 66.09629 210.036906 66.488916 209.602892 67.187695 
C 209.168877 67.886475 208.925016 68.834357 208.925016 69.822581 
C 208.925016 70.810804 209.168877 71.758686 209.602892 72.457466 
C 210.036906 73.156246 210.625638 73.548871 211.239427 73.548871 
z
" style="fill:#00c832;stroke:#ffffff;stroke-linejoin:miter;stroke-width:0.5;"/>
   </g>
   <g id="7c0ca6ace23b4c6da5ec9056ed09e2c3-7-node">
    <path clip-path="url(#pbd5306fe64)" d="M 199.939655 66.09629 
L 199.939655 73.548871 
L 195.310833 73.548871 
L 195.310833 66.09629 
L 199.939655 66.09629 
z
" style="fill:#0000ff;stroke:#ffffff;stroke-linejoin:miter;stroke-width:0.5;"/>
   </g>
   <g id="7c0ca6ace23b4c6da5ec9056ed09e2c3-9-node">
    <path clip-path="url(#pbd5306fe64)" d="M 184.011061 73.548871 
C 184.62485 73.548871 185.213582 73.156246 185.647596 72.457466 
C 186.081611 71.758686 186.325472 70.810804 186.325472 69.822581 
C 186.325472 68.834357 186.081611 67.886475 185.647596 67.187695 
C 185.213582 66.488916 184.62485 66.09629 184.011061 66.09629 
C 183.397271 66.09629 182.808539 66.488916 182.374525 67.187695 
C 181.94051 67.886475 181.696649 68.834357 181.696649 69.822581 
C 181.696649 70.810804 181.94051 71.758686 182.374525 72.457466 
C 182.808539 73.156246 183.397271 73.548871 184.011061 73.548871 
z
" style="fill:#ffff00;stroke:#ffffff;stroke-linejoin:miter;stroke-width:0.5;"/>
   </g>
   <g id="7c0ca6ace23b4c6da5ec9056ed09e2c3-10-node">
    <path clip-path="url(#pbd5306fe64)" d="M 170.396877 66.09629 
L 168.082466 69.822581 
L 170.396877 73.548871 
L 172.711288 69.822581 
z
" style="fill:#c800c8;stroke:#ffffff;stroke-linejoin:miter;stroke-width:0.5;"/>
   </g>
   <g id="patch_12">
    <path d="M 135 157.5 
L 135 21.6 
" style="fill:none;stroke:#ffffff;stroke-linecap:square;stroke-linejoin:miter;stroke-width:1.25;"/>
   </g>
   <g id="patch_13">
    <path d="M 279.310345 157.5 
L 279.310345 21.6 
" style="fill:none;stroke:#ffffff;stroke-linecap:square;stroke-linejoin:miter;stroke-width:1.25;"/>
   </g>
   <g id="patch_14">
    <path d="M 135 157.5 
L 279.310345 157.5 
" style="fill:none;stroke:#ffffff;stroke-linecap:square;stroke-linejoin:miter;stroke-width:1.25;"/>
   </g>
   <g id="patch_15">
    <path d="M 135 21.6 
L 279.310345 21.6 
" style="fill:none;stroke:#ffffff;stroke-linecap:square;stroke-linejoin:miter;stroke-width:1.25;"/>
   </g>
   <g id="text_1">
    <!-- 303:1.3333 -->
    <defs>
     <path d="M 4.203125 18.890625 
L 12.984375 20.0625 
Q 14.5 12.59375 18.140625 9.296875 
Q 21.78125 6 27 6 
Q 33.203125 6 37.46875 10.296875 
Q 41.75 14.59375 41.75 20.953125 
Q 41.75 27 37.796875 30.921875 
Q 33.84375 34.859375 27.734375 34.859375 
Q 25.25 34.859375 21.53125 33.890625 
L 22.515625 41.609375 
Q 23.390625 41.5 23.921875 41.5 
Q 29.546875 41.5 34.03125 44.421875 
Q 38.53125 47.359375 38.53125 53.46875 
Q 38.53125 58.296875 35.25 61.46875 
Q 31.984375 64.65625 26.8125 64.65625 
Q 21.6875 64.65625 18.265625 61.421875 
Q 14.84375 58.203125 13.875 51.765625 
L 5.078125 53.328125 
Q 6.6875 62.15625 12.390625 67.015625 
Q 18.109375 71.875 26.609375 71.875 
Q 32.46875 71.875 37.390625 69.359375 
Q 42.328125 66.84375 44.9375 62.5 
Q 47.5625 58.15625 47.5625 53.265625 
Q 47.5625 48.640625 45.0625 44.828125 
Q 42.578125 41.015625 37.703125 38.765625 
Q 44.046875 37.3125 47.5625 32.6875 
Q 51.078125 28.078125 51.078125 21.140625 
Q 51.078125 11.765625 44.234375 5.25 
Q 37.40625 -1.265625 26.953125 -1.265625 
Q 17.53125 -1.265625 11.296875 4.34375 
Q 5.078125 9.96875 4.203125 18.890625 
z
" id="ArialMT-51"/>
     <path d="M 4.15625 35.296875 
Q 4.15625 48 6.765625 55.734375 
Q 9.375 63.484375 14.515625 67.671875 
Q 19.671875 71.875 27.484375 71.875 
Q 33.25 71.875 37.59375 69.546875 
Q 41.9375 67.234375 44.765625 62.859375 
Q 47.609375 58.5 49.21875 52.21875 
Q 50.828125 45.953125 50.828125 35.296875 
Q 50.828125 22.703125 48.234375 14.96875 
Q 45.65625 7.234375 40.5 3 
Q 35.359375 -1.21875 27.484375 -1.21875 
Q 17.140625 -1.21875 11.234375 6.203125 
Q 4.15625 15.140625 4.15625 35.296875 
z
M 13.1875 35.296875 
Q 13.1875 17.671875 17.3125 11.828125 
Q 21.4375 6 27.484375 6 
Q 33.546875 6 37.671875 11.859375 
Q 41.796875 17.71875 41.796875 35.296875 
Q 41.796875 52.984375 37.671875 58.78125 
Q 33.546875 64.59375 27.390625 64.59375 
Q 21.34375 64.59375 17.71875 59.46875 
Q 13.1875 52.9375 13.1875 35.296875 
z
" id="ArialMT-48"/>
     <path d="M 9.03125 41.84375 
L 9.03125 51.859375 
L 19.046875 51.859375 
L 19.046875 41.84375 
z
M 9.03125 0 
L 9.03125 10.015625 
L 19.046875 10.015625 
L 19.046875 0 
z
" id="ArialMT-58"/>
     <path d="M 37.25 0 
L 28.46875 0 
L 28.46875 56 
Q 25.296875 52.984375 20.140625 49.953125 
Q 14.984375 46.921875 10.890625 45.40625 
L 10.890625 53.90625 
Q 18.265625 57.375 23.78125 62.296875 
Q 29.296875 67.234375 31.59375 71.875 
L 37.25 71.875 
z
" id="ArialMT-49"/>
     <path d="M 9.078125 0 
L 9.078125 10.015625 
L 19.09375 10.015625 
L 19.09375 0 
z
" id="ArialMT-46"/>
    </defs>
    <g style="fill:#262626;" transform="translate(177.128922 15.6)scale(0.12 -0.12)">
     <use xlink:href="#ArialMT-51"/>
     <use x="55.615234" xlink:href="#ArialMT-48"/>
     <use x="111.230469" xlink:href="#ArialMT-51"/>
     <use x="166.845703" xlink:href="#ArialMT-58"/>
     <use x="194.628906" xlink:href="#ArialMT-49"/>
     <use x="250.244141" xlink:href="#ArialMT-46"/>
     <use x="278.027344" xlink:href="#ArialMT-51"/>
     <use x="333.642578" xlink:href="#ArialMT-51"/>
     <use x="389.257812" xlink:href="#ArialMT-51"/>
     <use x="444.873047" xlink:href="#ArialMT-51"/>
    </g>
   </g>
  </g>
  <g id="axes_2">
   <g id="patch_16">
    <path d="M 308.172414 157.5 
L 452.482759 157.5 
L 452.482759 21.6 
L 308.172414 21.6 
z
" style="fill:#ffffff;"/>
   </g>
   <g id="patch_17">
    <path clip-path="url(#p0d7cb1582b)" d="M 398.026025 97.367257 
L 384.411841 109.393805 
" style="stroke:#000000;stroke-linejoin:miter;stroke-width:0.5;"/>
   </g>
   <g id="patch_18">
    <path clip-path="url(#p0d7cb1582b)" d="M 357.183474 97.367257 
L 343.569291 97.367257 
" style="stroke:#000000;stroke-linejoin:miter;stroke-width:0.5;"/>
   </g>
   <g id="patch_19">
    <path clip-path="url(#p0d7cb1582b)" d="M 370.797658 97.367257 
L 357.183474 97.367257 
" style="stroke:#000000;stroke-linejoin:miter;stroke-width:0.5;"/>
   </g>
   <g id="patch_20">
    <path clip-path="url(#p0d7cb1582b)" d="M 384.411841 85.340708 
L 370.797658 97.367257 
" style="stroke:#000000;stroke-linejoin:miter;stroke-width:0.5;"/>
   </g>
   <g id="patch_21">
    <path clip-path="url(#p0d7cb1582b)" d="M 357.183474 73.314159 
L 343.569291 73.314159 
" style="stroke:#000000;stroke-linejoin:miter;stroke-width:0.5;"/>
   </g>
   <g id="patch_22">
    <path clip-path="url(#p0d7cb1582b)" d="M 370.797658 73.314159 
L 357.183474 73.314159 
" style="stroke:#000000;stroke-linejoin:miter;stroke-width:0.5;"/>
   </g>
   <g id="patch_23">
    <path clip-path="url(#p0d7cb1582b)" d="M 384.411841 85.340708 
L 370.797658 73.314159 
" style="stroke:#000000;stroke-linejoin:miter;stroke-width:0.5;"/>
   </g>
   <g id="patch_24">
    <path clip-path="url(#p0d7cb1582b)" d="M 398.026025 97.367257 
L 384.411841 85.340708 
" style="stroke:#000000;stroke-linejoin:miter;stroke-width:0.5;"/>
   </g>
   <g id="patch_25">
    <path clip-path="url(#p0d7cb1582b)" d="M 411.640208 97.367257 
L 398.026025 97.367257 
" style="stroke:#000000;stroke-linejoin:miter;stroke-width:0.5;"/>
   </g>
   <g id="patch_26">
    <path clip-path="url(#p0d7cb1582b)" d="M 425.254392 97.367257 
L 411.640208 97.367257 
" style="stroke:#000000;stroke-linejoin:miter;stroke-width:0.5;"/>
   </g>
   <g id="8e40577479c2403ba7c16372df6ef23b-1-node">
    <path clip-path="url(#p0d7cb1582b)" d="M 427.568803 93.27823 
L 427.568803 101.456283 
L 422.93998 101.456283 
L 422.93998 93.27823 
L 427.568803 93.27823 
z
" style="fill:#0000ff;stroke:#ffffff;stroke-linejoin:miter;stroke-width:0.5;"/>
   </g>
   <g id="8e40577479c2403ba7c16372df6ef23b-3-node">
    <path clip-path="url(#p0d7cb1582b)" d="M 413.954619 93.27823 
L 413.954619 101.456283 
L 409.325797 101.456283 
L 409.325797 93.27823 
L 413.954619 93.27823 
z
" style="fill:#0000ff;stroke:#ffffff;stroke-linejoin:miter;stroke-width:0.5;"/>
   </g>
   <g id="8e40577479c2403ba7c16372df6ef23b-5-node">
    <path clip-path="url(#p0d7cb1582b)" d="M 398.026025 101.456283 
C 398.639814 101.456283 399.228546 101.025438 399.662561 100.258635 
C 400.096575 99.491833 400.340436 98.451679 400.340436 97.367257 
C 400.340436 96.282834 400.096575 95.242681 399.662561 94.475878 
C 399.228546 93.709076 398.639814 93.27823 398.026025 93.27823 
C 397.412236 93.27823 396.823503 93.709076 396.389489 94.475878 
C 395.955474 95.242681 395.711614 96.282834 395.711614 97.367257 
C 395.711614 98.451679 395.955474 99.491833 396.389489 100.258635 
C 396.823503 101.025438 397.412236 101.456283 398.026025 101.456283 
z
" style="fill:#00c832;stroke:#ffffff;stroke-linejoin:miter;stroke-width:0.5;"/>
   </g>
   <g id="8e40577479c2403ba7c16372df6ef23b-17-node">
    <path clip-path="url(#p0d7cb1582b)" d="M 384.411841 113.482832 
C 385.02563 113.482832 385.614363 113.051986 386.048377 112.285184 
C 386.482391 111.518381 386.726252 110.478228 386.726252 109.393805 
C 386.726252 108.309383 386.482391 107.269229 386.048377 106.502427 
C 385.614363 105.735624 385.02563 105.304779 384.411841 105.304779 
C 383.798052 105.304779 383.20932 105.735624 382.775305 106.502427 
C 382.341291 107.269229 382.09743 108.309383 382.09743 109.393805 
C 382.09743 110.478228 382.341291 111.518381 382.775305 112.285184 
C 383.20932 113.051986 383.798052 113.482832 384.411841 113.482832 
z
" style="fill:#00c832;stroke:#ffffff;stroke-linejoin:miter;stroke-width:0.5;"/>
   </g>
   <g id="8e40577479c2403ba7c16372df6ef23b-6-node">
    <path clip-path="url(#p0d7cb1582b)" d="M 384.411841 89.429735 
C 385.02563 89.429735 385.614363 88.998889 386.048377 88.232086 
C 386.482391 87.465284 386.726252 86.42513 386.726252 85.340708 
C 386.726252 84.256285 386.482391 83.216132 386.048377 82.44933 
C 385.614363 81.682527 385.02563 81.251681 384.411841 81.251681 
C 383.798052 81.251681 383.20932 81.682527 382.775305 82.44933 
C 382.341291 83.216132 382.09743 84.256285 382.09743 85.340708 
C 382.09743 86.42513 382.341291 87.465284 382.775305 88.232086 
C 383.20932 88.998889 383.798052 89.429735 384.411841 89.429735 
z
" style="fill:#00c832;stroke:#ffffff;stroke-linejoin:miter;stroke-width:0.5;"/>
   </g>
   <g id="8e40577479c2403ba7c16372df6ef23b-12-node">
    <path clip-path="url(#p0d7cb1582b)" d="M 373.112069 93.27823 
L 373.112069 101.456283 
L 368.483247 101.456283 
L 368.483247 93.27823 
L 373.112069 93.27823 
z
" style="fill:#0000ff;stroke:#ffffff;stroke-linejoin:miter;stroke-width:0.5;"/>
   </g>
   <g id="8e40577479c2403ba7c16372df6ef23b-14-node">
    <path clip-path="url(#p0d7cb1582b)" d="M 357.183474 101.456283 
C 357.797263 101.456283 358.385996 101.025438 358.82001 100.258635 
C 359.254025 99.491833 359.497885 98.451679 359.497885 97.367257 
C 359.497885 96.282834 359.254025 95.242681 358.82001 94.475878 
C 358.385996 93.709076 357.797263 93.27823 357.183474 93.27823 
C 356.569685 93.27823 355.980953 93.709076 355.546938 94.475878 
C 355.112924 95.242681 354.869063 96.282834 354.869063 97.367257 
C 354.869063 98.451679 355.112924 99.491833 355.546938 100.258635 
C 355.980953 101.025438 356.569685 101.456283 357.183474 101.456283 
z
" style="fill:#ffff00;stroke:#ffffff;stroke-linejoin:miter;stroke-width:0.5;"/>
   </g>
   <g id="8e40577479c2403ba7c16372df6ef23b-15-node">
    <path clip-path="url(#p0d7cb1582b)" d="M 343.569291 93.27823 
L 341.25488 97.367257 
L 343.569291 101.456283 
L 345.883702 97.367257 
z
" style="fill:#c800c8;stroke:#ffffff;stroke-linejoin:miter;stroke-width:0.5;"/>
   </g>
   <g id="8e40577479c2403ba7c16372df6ef23b-7-node">
    <path clip-path="url(#p0d7cb1582b)" d="M 373.112069 69.225133 
L 373.112069 77.403186 
L 368.483247 77.403186 
L 368.483247 69.225133 
L 373.112069 69.225133 
z
" style="fill:#0000ff;stroke:#ffffff;stroke-linejoin:miter;stroke-width:0.5;"/>
   </g>
   <g id="8e40577479c2403ba7c16372df6ef23b-9-node">
    <path clip-path="url(#p0d7cb1582b)" d="M 357.183474 77.403186 
C 357.797263 77.403186 358.385996 76.97234 358.82001 76.205538 
C 359.254025 75.438735 359.497885 74.398582 359.497885 73.314159 
C 359.497885 72.229737 359.254025 71.189583 358.82001 70.422781 
C 358.385996 69.655978 357.797263 69.225133 357.183474 69.225133 
C 356.569685 69.225133 355.980953 69.655978 355.546938 70.422781 
C 355.112924 71.189583 354.869063 72.229737 354.869063 73.314159 
C 354.869063 74.398582 355.112924 75.438735 355.546938 76.205538 
C 355.980953 76.97234 356.569685 77.403186 357.183474 77.403186 
z
" style="fill:#ffff00;stroke:#ffffff;stroke-linejoin:miter;stroke-width:0.5;"/>
   </g>
   <g id="8e40577479c2403ba7c16372df6ef23b-10-node">
    <path clip-path="url(#p0d7cb1582b)" d="M 343.569291 69.225133 
L 341.25488 73.314159 
L 343.569291 77.403186 
L 345.883702 73.314159 
z
" style="fill:#c800c8;stroke:#ffffff;stroke-linejoin:miter;stroke-width:0.5;"/>
   </g>
   <g id="patch_27">
    <path d="M 308.172414 157.5 
L 308.172414 21.6 
" style="fill:none;stroke:#ffffff;stroke-linecap:square;stroke-linejoin:miter;stroke-width:1.25;"/>
   </g>
   <g id="patch_28">
    <path d="M 452.482759 157.5 
L 452.482759 21.6 
" style="fill:none;stroke:#ffffff;stroke-linecap:square;stroke-linejoin:miter;stroke-width:1.25;"/>
   </g>
   <g id="patch_29">
    <path d="M 308.172414 157.5 
L 452.482759 157.5 
" style="fill:none;stroke:#ffffff;stroke-linecap:square;stroke-linejoin:miter;stroke-width:1.25;"/>
   </g>
   <g id="patch_30">
    <path d="M 308.172414 21.6 
L 452.482759 21.6 
" style="fill:none;stroke:#ffffff;stroke-linecap:square;stroke-linejoin:miter;stroke-width:1.25;"/>
   </g>
   <g id="text_2">
    <!-- 403:1.5185 -->
    <defs>
     <path d="M 32.328125 0 
L 32.328125 17.140625 
L 1.265625 17.140625 
L 1.265625 25.203125 
L 33.9375 71.578125 
L 41.109375 71.578125 
L 41.109375 25.203125 
L 50.78125 25.203125 
L 50.78125 17.140625 
L 41.109375 17.140625 
L 41.109375 0 
z
M 32.328125 25.203125 
L 32.328125 57.46875 
L 9.90625 25.203125 
z
" id="ArialMT-52"/>
     <path d="M 4.15625 18.75 
L 13.375 19.53125 
Q 14.40625 12.796875 18.140625 9.390625 
Q 21.875 6 27.15625 6 
Q 33.5 6 37.890625 10.78125 
Q 42.28125 15.578125 42.28125 23.484375 
Q 42.28125 31 38.0625 35.34375 
Q 33.84375 39.703125 27 39.703125 
Q 22.75 39.703125 19.328125 37.765625 
Q 15.921875 35.84375 13.96875 32.765625 
L 5.71875 33.84375 
L 12.640625 70.609375 
L 48.25 70.609375 
L 48.25 62.203125 
L 19.671875 62.203125 
L 15.828125 42.96875 
Q 22.265625 47.46875 29.34375 47.46875 
Q 38.71875 47.46875 45.15625 40.96875 
Q 51.609375 34.46875 51.609375 24.265625 
Q 51.609375 14.546875 45.953125 7.46875 
Q 39.0625 -1.21875 27.15625 -1.21875 
Q 17.390625 -1.21875 11.203125 4.25 
Q 5.03125 9.71875 4.15625 18.75 
z
" id="ArialMT-53"/>
     <path d="M 17.671875 38.8125 
Q 12.203125 40.828125 9.5625 44.53125 
Q 6.9375 48.25 6.9375 53.421875 
Q 6.9375 61.234375 12.546875 66.546875 
Q 18.171875 71.875 27.484375 71.875 
Q 36.859375 71.875 42.578125 66.421875 
Q 48.296875 60.984375 48.296875 53.171875 
Q 48.296875 48.1875 45.671875 44.5 
Q 43.0625 40.828125 37.75 38.8125 
Q 44.34375 36.671875 47.78125 31.875 
Q 51.21875 27.09375 51.21875 20.453125 
Q 51.21875 11.28125 44.71875 5.03125 
Q 38.234375 -1.21875 27.640625 -1.21875 
Q 17.046875 -1.21875 10.546875 5.046875 
Q 4.046875 11.328125 4.046875 20.703125 
Q 4.046875 27.6875 7.59375 32.390625 
Q 11.140625 37.109375 17.671875 38.8125 
z
M 15.921875 53.71875 
Q 15.921875 48.640625 19.1875 45.40625 
Q 22.46875 42.1875 27.6875 42.1875 
Q 32.765625 42.1875 36.015625 45.375 
Q 39.265625 48.578125 39.265625 53.21875 
Q 39.265625 58.0625 35.90625 61.359375 
Q 32.5625 64.65625 27.59375 64.65625 
Q 22.5625 64.65625 19.234375 61.421875 
Q 15.921875 58.203125 15.921875 53.71875 
z
M 13.09375 20.65625 
Q 13.09375 16.890625 14.875 13.375 
Q 16.65625 9.859375 20.171875 7.921875 
Q 23.6875 6 27.734375 6 
Q 34.03125 6 38.125 10.046875 
Q 42.234375 14.109375 42.234375 20.359375 
Q 42.234375 26.703125 38.015625 30.859375 
Q 33.796875 35.015625 27.4375 35.015625 
Q 21.234375 35.015625 17.15625 30.90625 
Q 13.09375 26.8125 13.09375 20.65625 
z
" id="ArialMT-56"/>
    </defs>
    <g style="fill:#262626;" transform="translate(350.301336 15.6)scale(0.12 -0.12)">
     <use xlink:href="#ArialMT-52"/>
     <use x="55.615234" xlink:href="#ArialMT-48"/>
     <use x="111.230469" xlink:href="#ArialMT-51"/>
     <use x="166.845703" xlink:href="#ArialMT-58"/>
     <use x="194.628906" xlink:href="#ArialMT-49"/>
     <use x="250.244141" xlink:href="#ArialMT-46"/>
     <use x="278.027344" xlink:href="#ArialMT-53"/>
     <use x="333.642578" xlink:href="#ArialMT-49"/>
     <use x="389.257812" xlink:href="#ArialMT-56"/>
     <use x="444.873047" xlink:href="#ArialMT-53"/>
    </g>
   </g>
  </g>
  <g id="axes_3">
   <g id="patch_31">
    <path d="M 481.344828 157.5 
L 625.655172 157.5 
L 625.655172 21.6 
L 481.344828 21.6 
z
" style="fill:#ffffff;"/>
   </g>
   <g id="patch_32">
    <path clip-path="url(#p51d9a3c0ea)" d="M 530.355888 113.66129 
L 516.741705 113.66129 
" style="stroke:#000000;stroke-linejoin:miter;stroke-width:0.5;"/>
   </g>
   <g id="patch_33">
    <path clip-path="url(#p51d9a3c0ea)" d="M 543.970072 113.66129 
L 530.355888 113.66129 
" style="stroke:#000000;stroke-linejoin:miter;stroke-width:0.5;"/>
   </g>
   <g id="patch_34">
    <path clip-path="url(#p51d9a3c0ea)" d="M 557.584255 113.66129 
L 543.970072 113.66129 
" style="stroke:#000000;stroke-linejoin:miter;stroke-width:0.5;"/>
   </g>
   <g id="patch_35">
    <path clip-path="url(#p51d9a3c0ea)" d="M 571.198439 97.221774 
L 557.584255 113.66129 
" style="stroke:#000000;stroke-linejoin:miter;stroke-width:0.5;"/>
   </g>
   <g id="patch_36">
    <path clip-path="url(#p51d9a3c0ea)" d="M 530.355888 91.741935 
L 516.741705 91.741935 
" style="stroke:#000000;stroke-linejoin:miter;stroke-width:0.5;"/>
   </g>
   <g id="patch_37">
    <path clip-path="url(#p51d9a3c0ea)" d="M 543.970072 91.741935 
L 530.355888 91.741935 
" style="stroke:#000000;stroke-linejoin:miter;stroke-width:0.5;"/>
   </g>
   <g id="patch_38">
    <path clip-path="url(#p51d9a3c0ea)" d="M 557.584255 80.782258 
L 543.970072 91.741935 
" style="stroke:#000000;stroke-linejoin:miter;stroke-width:0.5;"/>
   </g>
   <g id="patch_39">
    <path clip-path="url(#p51d9a3c0ea)" d="M 530.355888 69.822581 
L 516.741705 69.822581 
" style="stroke:#000000;stroke-linejoin:miter;stroke-width:0.5;"/>
   </g>
   <g id="patch_40">
    <path clip-path="url(#p51d9a3c0ea)" d="M 543.970072 69.822581 
L 530.355888 69.822581 
" style="stroke:#000000;stroke-linejoin:miter;stroke-width:0.5;"/>
   </g>
   <g id="patch_41">
    <path clip-path="url(#p51d9a3c0ea)" d="M 557.584255 80.782258 
L 543.970072 69.822581 
" style="stroke:#000000;stroke-linejoin:miter;stroke-width:0.5;"/>
   </g>
   <g id="patch_42">
    <path clip-path="url(#p51d9a3c0ea)" d="M 571.198439 97.221774 
L 557.584255 80.782258 
" style="stroke:#000000;stroke-linejoin:miter;stroke-width:0.5;"/>
   </g>
   <g id="patch_43">
    <path clip-path="url(#p51d9a3c0ea)" d="M 584.812622 97.221774 
L 571.198439 97.221774 
" style="stroke:#000000;stroke-linejoin:miter;stroke-width:0.5;"/>
   </g>
   <g id="patch_44">
    <path clip-path="url(#p51d9a3c0ea)" d="M 598.426805 97.221774 
L 584.812622 97.221774 
" style="stroke:#000000;stroke-linejoin:miter;stroke-width:0.5;"/>
   </g>
   <g id="b7be2292614744e2bc5bc2e28cf46105-1-node">
    <path clip-path="url(#p51d9a3c0ea)" d="M 600.741217 93.495484 
L 600.741217 100.948065 
L 596.112394 100.948065 
L 596.112394 93.495484 
L 600.741217 93.495484 
z
" style="fill:#0000ff;stroke:#ffffff;stroke-linejoin:miter;stroke-width:0.5;"/>
   </g>
   <g id="b7be2292614744e2bc5bc2e28cf46105-3-node">
    <path clip-path="url(#p51d9a3c0ea)" d="M 587.127033 93.495484 
L 587.127033 100.948065 
L 582.498211 100.948065 
L 582.498211 93.495484 
L 587.127033 93.495484 
z
" style="fill:#0000ff;stroke:#ffffff;stroke-linejoin:miter;stroke-width:0.5;"/>
   </g>
   <g id="b7be2292614744e2bc5bc2e28cf46105-5-node">
    <path clip-path="url(#p51d9a3c0ea)" d="M 571.198439 100.948065 
C 571.812228 100.948065 572.40096 100.555439 572.834974 99.856659 
C 573.268989 99.15788 573.51285 98.209998 573.51285 97.221774 
C 573.51285 96.23355 573.268989 95.285669 572.834974 94.586889 
C 572.40096 93.888109 571.812228 93.495484 571.198439 93.495484 
C 570.584649 93.495484 569.995917 93.888109 569.561903 94.586889 
C 569.127888 95.285669 568.884027 96.23355 568.884027 97.221774 
C 568.884027 98.209998 569.127888 99.15788 569.561903 99.856659 
C 569.995917 100.555439 570.584649 100.948065 571.198439 100.948065 
z
" style="fill:#00c832;stroke:#ffffff;stroke-linejoin:miter;stroke-width:0.5;"/>
   </g>
   <g id="b7be2292614744e2bc5bc2e28cf46105-17-node">
    <path clip-path="url(#p51d9a3c0ea)" d="M 557.584255 117.387581 
C 558.198044 117.387581 558.786777 116.994955 559.220791 116.296175 
C 559.654805 115.597396 559.898666 114.649514 559.898666 113.66129 
C 559.898666 112.673067 559.654805 111.725185 559.220791 111.026405 
C 558.786777 110.327625 558.198044 109.935 557.584255 109.935 
C 556.970466 109.935 556.381734 110.327625 555.947719 111.026405 
C 555.513705 111.725185 555.269844 112.673067 555.269844 113.66129 
C 555.269844 114.649514 555.513705 115.597396 555.947719 116.296175 
C 556.381734 116.994955 556.970466 117.387581 557.584255 117.387581 
z
" style="fill:#00c832;stroke:#ffffff;stroke-linejoin:miter;stroke-width:0.5;"/>
   </g>
   <g id="b7be2292614744e2bc5bc2e28cf46105-18-node">
    <path clip-path="url(#p51d9a3c0ea)" d="M 546.284483 109.935 
L 546.284483 117.387581 
L 541.65566 117.387581 
L 541.65566 109.935 
L 546.284483 109.935 
z
" style="fill:#0000ff;stroke:#ffffff;stroke-linejoin:miter;stroke-width:0.5;"/>
   </g>
   <g id="b7be2292614744e2bc5bc2e28cf46105-20-node">
    <path clip-path="url(#p51d9a3c0ea)" d="M 530.355888 117.387581 
C 530.969677 117.387581 531.55841 116.994955 531.992424 116.296175 
C 532.426438 115.597396 532.670299 114.649514 532.670299 113.66129 
C 532.670299 112.673067 532.426438 111.725185 531.992424 111.026405 
C 531.55841 110.327625 530.969677 109.935 530.355888 109.935 
C 529.742099 109.935 529.153367 110.327625 528.719352 111.026405 
C 528.285338 111.725185 528.041477 112.673067 528.041477 113.66129 
C 528.041477 114.649514 528.285338 115.597396 528.719352 116.296175 
C 529.153367 116.994955 529.742099 117.387581 530.355888 117.387581 
z
" style="fill:#ffff00;stroke:#ffffff;stroke-linejoin:miter;stroke-width:0.5;"/>
   </g>
   <g id="b7be2292614744e2bc5bc2e28cf46105-21-node">
    <path clip-path="url(#p51d9a3c0ea)" d="M 516.741705 109.935 
L 514.427293 113.66129 
L 516.741705 117.387581 
L 519.056116 113.66129 
z
" style="fill:#c800c8;stroke:#ffffff;stroke-linejoin:miter;stroke-width:0.5;"/>
   </g>
   <g id="b7be2292614744e2bc5bc2e28cf46105-6-node">
    <path clip-path="url(#p51d9a3c0ea)" d="M 557.584255 84.508548 
C 558.198044 84.508548 558.786777 84.115923 559.220791 83.417143 
C 559.654805 82.718364 559.898666 81.770482 559.898666 80.782258 
C 559.898666 79.794034 559.654805 78.846153 559.220791 78.147373 
C 558.786777 77.448593 558.198044 77.055968 557.584255 77.055968 
C 556.970466 77.055968 556.381734 77.448593 555.947719 78.147373 
C 555.513705 78.846153 555.269844 79.794034 555.269844 80.782258 
C 555.269844 81.770482 555.513705 82.718364 555.947719 83.417143 
C 556.381734 84.115923 556.970466 84.508548 557.584255 84.508548 
z
" style="fill:#00c832;stroke:#ffffff;stroke-linejoin:miter;stroke-width:0.5;"/>
   </g>
   <g id="b7be2292614744e2bc5bc2e28cf46105-12-node">
    <path clip-path="url(#p51d9a3c0ea)" d="M 546.284483 88.015645 
L 546.284483 95.468226 
L 541.65566 95.468226 
L 541.65566 88.015645 
L 546.284483 88.015645 
z
" style="fill:#0000ff;stroke:#ffffff;stroke-linejoin:miter;stroke-width:0.5;"/>
   </g>
   <g id="b7be2292614744e2bc5bc2e28cf46105-14-node">
    <path clip-path="url(#p51d9a3c0ea)" d="M 530.355888 95.468226 
C 530.969677 95.468226 531.55841 95.0756 531.992424 94.376821 
C 532.426438 93.678041 532.670299 92.730159 532.670299 91.741935 
C 532.670299 90.753712 532.426438 89.80583 531.992424 89.10705 
C 531.55841 88.408271 530.969677 88.015645 530.355888 88.015645 
C 529.742099 88.015645 529.153367 88.408271 528.719352 89.10705 
C 528.285338 89.80583 528.041477 90.753712 528.041477 91.741935 
C 528.041477 92.730159 528.285338 93.678041 528.719352 94.376821 
C 529.153367 95.0756 529.742099 95.468226 530.355888 95.468226 
z
" style="fill:#ffff00;stroke:#ffffff;stroke-linejoin:miter;stroke-width:0.5;"/>
   </g>
   <g id="b7be2292614744e2bc5bc2e28cf46105-15-node">
    <path clip-path="url(#p51d9a3c0ea)" d="M 516.741705 88.015645 
L 514.427293 91.741935 
L 516.741705 95.468226 
L 519.056116 91.741935 
z
" style="fill:#c800c8;stroke:#ffffff;stroke-linejoin:miter;stroke-width:0.5;"/>
   </g>
   <g id="b7be2292614744e2bc5bc2e28cf46105-7-node">
    <path clip-path="url(#p51d9a3c0ea)" d="M 546.284483 66.09629 
L 546.284483 73.548871 
L 541.65566 73.548871 
L 541.65566 66.09629 
L 546.284483 66.09629 
z
" style="fill:#0000ff;stroke:#ffffff;stroke-linejoin:miter;stroke-width:0.5;"/>
   </g>
   <g id="b7be2292614744e2bc5bc2e28cf46105-9-node">
    <path clip-path="url(#p51d9a3c0ea)" d="M 530.355888 73.548871 
C 530.969677 73.548871 531.55841 73.156246 531.992424 72.457466 
C 532.426438 71.758686 532.670299 70.810804 532.670299 69.822581 
C 532.670299 68.834357 532.426438 67.886475 531.992424 67.187695 
C 531.55841 66.488916 530.969677 66.09629 530.355888 66.09629 
C 529.742099 66.09629 529.153367 66.488916 528.719352 67.187695 
C 528.285338 67.886475 528.041477 68.834357 528.041477 69.822581 
C 528.041477 70.810804 528.285338 71.758686 528.719352 72.457466 
C 529.153367 73.156246 529.742099 73.548871 530.355888 73.548871 
z
" style="fill:#ffff00;stroke:#ffffff;stroke-linejoin:miter;stroke-width:0.5;"/>
   </g>
   <g id="b7be2292614744e2bc5bc2e28cf46105-10-node">
    <path clip-path="url(#p51d9a3c0ea)" d="M 516.741705 66.09629 
L 514.427293 69.822581 
L 516.741705 73.548871 
L 519.056116 69.822581 
z
" style="fill:#c800c8;stroke:#ffffff;stroke-linejoin:miter;stroke-width:0.5;"/>
   </g>
   <g id="patch_45">
    <path d="M 481.344828 157.5 
L 481.344828 21.6 
" style="fill:none;stroke:#ffffff;stroke-linecap:square;stroke-linejoin:miter;stroke-width:1.25;"/>
   </g>
   <g id="patch_46">
    <path d="M 625.655172 157.5 
L 625.655172 21.6 
" style="fill:none;stroke:#ffffff;stroke-linecap:square;stroke-linejoin:miter;stroke-width:1.25;"/>
   </g>
   <g id="patch_47">
    <path d="M 481.344828 157.5 
L 625.655172 157.5 
" style="fill:none;stroke:#ffffff;stroke-linecap:square;stroke-linejoin:miter;stroke-width:1.25;"/>
   </g>
   <g id="patch_48">
    <path d="M 481.344828 21.6 
L 625.655172 21.6 
" style="fill:none;stroke:#ffffff;stroke-linecap:square;stroke-linejoin:miter;stroke-width:1.25;"/>
   </g>
   <g id="text_3">
    <!-- 909:2.839 -->
    <defs>
     <path d="M 5.46875 16.546875 
L 13.921875 17.328125 
Q 14.984375 11.375 18.015625 8.6875 
Q 21.046875 6 25.78125 6 
Q 29.828125 6 32.875 7.859375 
Q 35.9375 9.71875 37.890625 12.8125 
Q 39.84375 15.921875 41.15625 21.1875 
Q 42.484375 26.46875 42.484375 31.9375 
Q 42.484375 32.515625 42.4375 33.6875 
Q 39.796875 29.5 35.234375 26.875 
Q 30.671875 24.265625 25.34375 24.265625 
Q 16.453125 24.265625 10.296875 30.703125 
Q 4.15625 37.15625 4.15625 47.703125 
Q 4.15625 58.59375 10.578125 65.234375 
Q 17 71.875 26.65625 71.875 
Q 33.640625 71.875 39.421875 68.109375 
Q 45.21875 64.359375 48.21875 57.390625 
Q 51.21875 50.4375 51.21875 37.25 
Q 51.21875 23.53125 48.234375 15.40625 
Q 45.265625 7.28125 39.375 3.03125 
Q 33.5 -1.21875 25.59375 -1.21875 
Q 17.1875 -1.21875 11.859375 3.4375 
Q 6.546875 8.109375 5.46875 16.546875 
z
M 41.453125 48.140625 
Q 41.453125 55.71875 37.421875 60.15625 
Q 33.40625 64.59375 27.734375 64.59375 
Q 21.875 64.59375 17.53125 59.8125 
Q 13.1875 55.03125 13.1875 47.40625 
Q 13.1875 40.578125 17.3125 36.296875 
Q 21.4375 32.03125 27.484375 32.03125 
Q 33.59375 32.03125 37.515625 36.296875 
Q 41.453125 40.578125 41.453125 48.140625 
z
" id="ArialMT-57"/>
     <path d="M 50.34375 8.453125 
L 50.34375 0 
L 3.03125 0 
Q 2.9375 3.171875 4.046875 6.109375 
Q 5.859375 10.9375 9.828125 15.625 
Q 13.8125 20.3125 21.34375 26.46875 
Q 33.015625 36.03125 37.109375 41.625 
Q 41.21875 47.21875 41.21875 52.203125 
Q 41.21875 57.421875 37.46875 61 
Q 33.734375 64.59375 27.734375 64.59375 
Q 21.390625 64.59375 17.578125 60.78125 
Q 13.765625 56.984375 13.71875 50.25 
L 4.6875 51.171875 
Q 5.609375 61.28125 11.65625 66.578125 
Q 17.71875 71.875 27.9375 71.875 
Q 38.234375 71.875 44.234375 66.15625 
Q 50.25 60.453125 50.25 52 
Q 50.25 47.703125 48.484375 43.546875 
Q 46.734375 39.40625 42.65625 34.8125 
Q 38.578125 30.21875 29.109375 22.21875 
Q 21.1875 15.578125 18.9375 13.203125 
Q 16.703125 10.84375 15.234375 8.453125 
z
" id="ArialMT-50"/>
    </defs>
    <g style="fill:#262626;" transform="translate(526.810313 15.6)scale(0.12 -0.12)">
     <use xlink:href="#ArialMT-57"/>
     <use x="55.615234" xlink:href="#ArialMT-48"/>
     <use x="111.230469" xlink:href="#ArialMT-57"/>
     <use x="166.845703" xlink:href="#ArialMT-58"/>
     <use x="194.628906" xlink:href="#ArialMT-50"/>
     <use x="250.244141" xlink:href="#ArialMT-46"/>
     <use x="278.027344" xlink:href="#ArialMT-56"/>
     <use x="333.642578" xlink:href="#ArialMT-51"/>
     <use x="389.257812" xlink:href="#ArialMT-57"/>
    </g>
   </g>
  </g>
  <g id="axes_4">
   <g id="patch_49">
    <path d="M 654.517241 157.5 
L 798.827586 157.5 
L 798.827586 21.6 
L 654.517241 21.6 
z
" style="fill:#eaeaf2;"/>
   </g>
   <g id="matplotlib.axis_1">
    <g id="xtick_1">
     <g id="line2d_1">
      <path clip-path="url(#p121b53183e)" d="M 654.517241 157.5 
L 654.517241 21.6 
" style="fill:none;stroke:#ffffff;stroke-linecap:round;"/>
     </g>
     <g id="text_4">
      <!-- 0.00 -->
      <g style="fill:#262626;" transform="translate(643.813726 174.873594)scale(0.11 -0.11)">
       <use xlink:href="#ArialMT-48"/>
       <use x="55.615234" xlink:href="#ArialMT-46"/>
       <use x="83.398438" xlink:href="#ArialMT-48"/>
       <use x="139.013672" xlink:href="#ArialMT-48"/>
      </g>
     </g>
    </g>
    <g id="xtick_2">
     <g id="line2d_2">
      <path clip-path="url(#p121b53183e)" d="M 690.594828 157.5 
L 690.594828 21.6 
" style="fill:none;stroke:#ffffff;stroke-linecap:round;"/>
     </g>
     <g id="text_5">
      <!-- 0.25 -->
      <g style="fill:#262626;" transform="translate(679.891312 174.873594)scale(0.11 -0.11)">
       <use xlink:href="#ArialMT-48"/>
       <use x="55.615234" xlink:href="#ArialMT-46"/>
       <use x="83.398438" xlink:href="#ArialMT-50"/>
       <use x="139.013672" xlink:href="#ArialMT-53"/>
      </g>
     </g>
    </g>
    <g id="xtick_3">
     <g id="line2d_3">
      <path clip-path="url(#p121b53183e)" d="M 726.672414 157.5 
L 726.672414 21.6 
" style="fill:none;stroke:#ffffff;stroke-linecap:round;"/>
     </g>
     <g id="text_6">
      <!-- 0.50 -->
      <g style="fill:#262626;" transform="translate(715.968898 174.873594)scale(0.11 -0.11)">
       <use xlink:href="#ArialMT-48"/>
       <use x="55.615234" xlink:href="#ArialMT-46"/>
       <use x="83.398438" xlink:href="#ArialMT-53"/>
       <use x="139.013672" xlink:href="#ArialMT-48"/>
      </g>
     </g>
    </g>
    <g id="xtick_4">
     <g id="line2d_4">
      <path clip-path="url(#p121b53183e)" d="M 762.75 157.5 
L 762.75 21.6 
" style="fill:none;stroke:#ffffff;stroke-linecap:round;"/>
     </g>
     <g id="text_7">
      <!-- 0.75 -->
      <defs>
       <path d="M 4.734375 62.203125 
L 4.734375 70.65625 
L 51.078125 70.65625 
L 51.078125 63.8125 
Q 44.234375 56.546875 37.515625 44.484375 
Q 30.8125 32.421875 27.15625 19.671875 
Q 24.515625 10.6875 23.78125 0 
L 14.75 0 
Q 14.890625 8.453125 18.0625 20.40625 
Q 21.234375 32.375 27.171875 43.484375 
Q 33.109375 54.59375 39.796875 62.203125 
z
" id="ArialMT-55"/>
      </defs>
      <g style="fill:#262626;" transform="translate(752.046484 174.873594)scale(0.11 -0.11)">
       <use xlink:href="#ArialMT-48"/>
       <use x="55.615234" xlink:href="#ArialMT-46"/>
       <use x="83.398438" xlink:href="#ArialMT-55"/>
       <use x="139.013672" xlink:href="#ArialMT-53"/>
      </g>
     </g>
    </g>
    <g id="xtick_5">
     <g id="line2d_5">
      <path clip-path="url(#p121b53183e)" d="M 798.827586 157.5 
L 798.827586 21.6 
" style="fill:none;stroke:#ffffff;stroke-linecap:round;"/>
     </g>
     <g id="text_8">
      <!-- 1.00 -->
      <g style="fill:#262626;" transform="translate(788.124071 174.873594)scale(0.11 -0.11)">
       <use xlink:href="#ArialMT-49"/>
       <use x="55.615234" xlink:href="#ArialMT-46"/>
       <use x="83.398438" xlink:href="#ArialMT-48"/>
       <use x="139.013672" xlink:href="#ArialMT-48"/>
      </g>
     </g>
    </g>
   </g>
   <g id="matplotlib.axis_2">
    <g id="ytick_1">
     <g id="line2d_6">
      <path clip-path="url(#p121b53183e)" d="M 654.517241 157.5 
L 798.827586 157.5 
" style="fill:none;stroke:#ffffff;stroke-linecap:round;"/>
     </g>
     <g id="text_9">
      <!-- 0.0 -->
      <g style="fill:#262626;" transform="translate(629.727241 161.436797)scale(0.11 -0.11)">
       <use xlink:href="#ArialMT-48"/>
       <use x="55.615234" xlink:href="#ArialMT-46"/>
       <use x="83.398438" xlink:href="#ArialMT-48"/>
      </g>
     </g>
    </g>
    <g id="ytick_2">
     <g id="line2d_7">
      <path clip-path="url(#p121b53183e)" d="M 654.517241 130.32 
L 798.827586 130.32 
" style="fill:none;stroke:#ffffff;stroke-linecap:round;"/>
     </g>
     <g id="text_10">
      <!-- 0.2 -->
      <g style="fill:#262626;" transform="translate(629.727241 134.256797)scale(0.11 -0.11)">
       <use xlink:href="#ArialMT-48"/>
       <use x="55.615234" xlink:href="#ArialMT-46"/>
       <use x="83.398438" xlink:href="#ArialMT-50"/>
      </g>
     </g>
    </g>
    <g id="ytick_3">
     <g id="line2d_8">
      <path clip-path="url(#p121b53183e)" d="M 654.517241 103.14 
L 798.827586 103.14 
" style="fill:none;stroke:#ffffff;stroke-linecap:round;"/>
     </g>
     <g id="text_11">
      <!-- 0.4 -->
      <g style="fill:#262626;" transform="translate(629.727241 107.076797)scale(0.11 -0.11)">
       <use xlink:href="#ArialMT-48"/>
       <use x="55.615234" xlink:href="#ArialMT-46"/>
       <use x="83.398438" xlink:href="#ArialMT-52"/>
      </g>
     </g>
    </g>
    <g id="ytick_4">
     <g id="line2d_9">
      <path clip-path="url(#p121b53183e)" d="M 654.517241 75.96 
L 798.827586 75.96 
" style="fill:none;stroke:#ffffff;stroke-linecap:round;"/>
     </g>
     <g id="text_12">
      <!-- 0.6 -->
      <defs>
       <path d="M 49.75 54.046875 
L 41.015625 53.375 
Q 39.84375 58.546875 37.703125 60.890625 
Q 34.125 64.65625 28.90625 64.65625 
Q 24.703125 64.65625 21.53125 62.3125 
Q 17.390625 59.28125 14.984375 53.46875 
Q 12.59375 47.65625 12.5 36.921875 
Q 15.671875 41.75 20.265625 44.09375 
Q 24.859375 46.4375 29.890625 46.4375 
Q 38.671875 46.4375 44.84375 39.96875 
Q 51.03125 33.5 51.03125 23.25 
Q 51.03125 16.5 48.125 10.71875 
Q 45.21875 4.9375 40.140625 1.859375 
Q 35.0625 -1.21875 28.609375 -1.21875 
Q 17.625 -1.21875 10.6875 6.859375 
Q 3.765625 14.9375 3.765625 33.5 
Q 3.765625 54.25 11.421875 63.671875 
Q 18.109375 71.875 29.4375 71.875 
Q 37.890625 71.875 43.28125 67.140625 
Q 48.6875 62.40625 49.75 54.046875 
z
M 13.875 23.1875 
Q 13.875 18.65625 15.796875 14.5 
Q 17.71875 10.359375 21.1875 8.171875 
Q 24.65625 6 28.46875 6 
Q 34.03125 6 38.03125 10.484375 
Q 42.046875 14.984375 42.046875 22.703125 
Q 42.046875 30.125 38.078125 34.390625 
Q 34.125 38.671875 28.125 38.671875 
Q 22.171875 38.671875 18.015625 34.390625 
Q 13.875 30.125 13.875 23.1875 
z
" id="ArialMT-54"/>
      </defs>
      <g style="fill:#262626;" transform="translate(629.727241 79.896797)scale(0.11 -0.11)">
       <use xlink:href="#ArialMT-48"/>
       <use x="55.615234" xlink:href="#ArialMT-46"/>
       <use x="83.398438" xlink:href="#ArialMT-54"/>
      </g>
     </g>
    </g>
    <g id="ytick_5">
     <g id="line2d_10">
      <path clip-path="url(#p121b53183e)" d="M 654.517241 48.78 
L 798.827586 48.78 
" style="fill:none;stroke:#ffffff;stroke-linecap:round;"/>
     </g>
     <g id="text_13">
      <!-- 0.8 -->
      <g style="fill:#262626;" transform="translate(629.727241 52.716797)scale(0.11 -0.11)">
       <use xlink:href="#ArialMT-48"/>
       <use x="55.615234" xlink:href="#ArialMT-46"/>
       <use x="83.398438" xlink:href="#ArialMT-56"/>
      </g>
     </g>
    </g>
    <g id="ytick_6">
     <g id="line2d_11">
      <path clip-path="url(#p121b53183e)" d="M 654.517241 21.6 
L 798.827586 21.6 
" style="fill:none;stroke:#ffffff;stroke-linecap:round;"/>
     </g>
     <g id="text_14">
      <!-- 1.0 -->
      <g style="fill:#262626;" transform="translate(629.727241 25.536797)scale(0.11 -0.11)">
       <use xlink:href="#ArialMT-49"/>
       <use x="55.615234" xlink:href="#ArialMT-46"/>
       <use x="83.398438" xlink:href="#ArialMT-48"/>
      </g>
     </g>
    </g>
   </g>
   <g id="patch_50">
    <path d="M 654.517241 157.5 
L 654.517241 21.6 
" style="fill:none;stroke:#ffffff;stroke-linecap:square;stroke-linejoin:miter;stroke-width:1.25;"/>
   </g>
   <g id="patch_51">
    <path d="M 798.827586 157.5 
L 798.827586 21.6 
" style="fill:none;stroke:#ffffff;stroke-linecap:square;stroke-linejoin:miter;stroke-width:1.25;"/>
   </g>
   <g id="patch_52">
    <path d="M 654.517241 157.5 
L 798.827586 157.5 
" style="fill:none;stroke:#ffffff;stroke-linecap:square;stroke-linejoin:miter;stroke-width:1.25;"/>
   </g>
   <g id="patch_53">
    <path d="M 654.517241 21.6 
L 798.827586 21.6 
" style="fill:none;stroke:#ffffff;stroke-linecap:square;stroke-linejoin:miter;stroke-width:1.25;"/>
   </g>
  </g>
  <g id="axes_5">
   <g id="patch_54">
    <path d="M 827.689655 157.5 
L 972 157.5 
L 972 21.6 
L 827.689655 21.6 
z
" style="fill:#eaeaf2;"/>
   </g>
   <g id="matplotlib.axis_3">
    <g id="xtick_6">
     <g id="line2d_12">
      <path clip-path="url(#pd709d060bb)" d="M 827.689655 157.5 
L 827.689655 21.6 
" style="fill:none;stroke:#ffffff;stroke-linecap:round;"/>
     </g>
     <g id="text_15">
      <!-- 0.00 -->
      <g style="fill:#262626;" transform="translate(816.98614 174.873594)scale(0.11 -0.11)">
       <use xlink:href="#ArialMT-48"/>
       <use x="55.615234" xlink:href="#ArialMT-46"/>
       <use x="83.398438" xlink:href="#ArialMT-48"/>
       <use x="139.013672" xlink:href="#ArialMT-48"/>
      </g>
     </g>
    </g>
    <g id="xtick_7">
     <g id="line2d_13">
      <path clip-path="url(#pd709d060bb)" d="M 863.767241 157.5 
L 863.767241 21.6 
" style="fill:none;stroke:#ffffff;stroke-linecap:round;"/>
     </g>
     <g id="text_16">
      <!-- 0.25 -->
      <g style="fill:#262626;" transform="translate(853.063726 174.873594)scale(0.11 -0.11)">
       <use xlink:href="#ArialMT-48"/>
       <use x="55.615234" xlink:href="#ArialMT-46"/>
       <use x="83.398438" xlink:href="#ArialMT-50"/>
       <use x="139.013672" xlink:href="#ArialMT-53"/>
      </g>
     </g>
    </g>
    <g id="xtick_8">
     <g id="line2d_14">
      <path clip-path="url(#pd709d060bb)" d="M 899.844828 157.5 
L 899.844828 21.6 
" style="fill:none;stroke:#ffffff;stroke-linecap:round;"/>
     </g>
     <g id="text_17">
      <!-- 0.50 -->
      <g style="fill:#262626;" transform="translate(889.141312 174.873594)scale(0.11 -0.11)">
       <use xlink:href="#ArialMT-48"/>
       <use x="55.615234" xlink:href="#ArialMT-46"/>
       <use x="83.398438" xlink:href="#ArialMT-53"/>
       <use x="139.013672" xlink:href="#ArialMT-48"/>
      </g>
     </g>
    </g>
    <g id="xtick_9">
     <g id="line2d_15">
      <path clip-path="url(#pd709d060bb)" d="M 935.922414 157.5 
L 935.922414 21.6 
" style="fill:none;stroke:#ffffff;stroke-linecap:round;"/>
     </g>
     <g id="text_18">
      <!-- 0.75 -->
      <g style="fill:#262626;" transform="translate(925.218898 174.873594)scale(0.11 -0.11)">
       <use xlink:href="#ArialMT-48"/>
       <use x="55.615234" xlink:href="#ArialMT-46"/>
       <use x="83.398438" xlink:href="#ArialMT-55"/>
       <use x="139.013672" xlink:href="#ArialMT-53"/>
      </g>
     </g>
    </g>
    <g id="xtick_10">
     <g id="line2d_16">
      <path clip-path="url(#pd709d060bb)" d="M 972 157.5 
L 972 21.6 
" style="fill:none;stroke:#ffffff;stroke-linecap:round;"/>
     </g>
     <g id="text_19">
      <!-- 1.00 -->
      <g style="fill:#262626;" transform="translate(961.296484 174.873594)scale(0.11 -0.11)">
       <use xlink:href="#ArialMT-49"/>
       <use x="55.615234" xlink:href="#ArialMT-46"/>
       <use x="83.398438" xlink:href="#ArialMT-48"/>
       <use x="139.013672" xlink:href="#ArialMT-48"/>
      </g>
     </g>
    </g>
   </g>
   <g id="matplotlib.axis_4">
    <g id="ytick_7">
     <g id="line2d_17">
      <path clip-path="url(#pd709d060bb)" d="M 827.689655 157.5 
L 972 157.5 
" style="fill:none;stroke:#ffffff;stroke-linecap:round;"/>
     </g>
     <g id="text_20">
      <!-- 0.0 -->
      <g style="fill:#262626;" transform="translate(802.899655 161.436797)scale(0.11 -0.11)">
       <use xlink:href="#ArialMT-48"/>
       <use x="55.615234" xlink:href="#ArialMT-46"/>
       <use x="83.398438" xlink:href="#ArialMT-48"/>
      </g>
     </g>
    </g>
    <g id="ytick_8">
     <g id="line2d_18">
      <path clip-path="url(#pd709d060bb)" d="M 827.689655 130.32 
L 972 130.32 
" style="fill:none;stroke:#ffffff;stroke-linecap:round;"/>
     </g>
     <g id="text_21">
      <!-- 0.2 -->
      <g style="fill:#262626;" transform="translate(802.899655 134.256797)scale(0.11 -0.11)">
       <use xlink:href="#ArialMT-48"/>
       <use x="55.615234" xlink:href="#ArialMT-46"/>
       <use x="83.398438" xlink:href="#ArialMT-50"/>
      </g>
     </g>
    </g>
    <g id="ytick_9">
     <g id="line2d_19">
      <path clip-path="url(#pd709d060bb)" d="M 827.689655 103.14 
L 972 103.14 
" style="fill:none;stroke:#ffffff;stroke-linecap:round;"/>
     </g>
     <g id="text_22">
      <!-- 0.4 -->
      <g style="fill:#262626;" transform="translate(802.899655 107.076797)scale(0.11 -0.11)">
       <use xlink:href="#ArialMT-48"/>
       <use x="55.615234" xlink:href="#ArialMT-46"/>
       <use x="83.398438" xlink:href="#ArialMT-52"/>
      </g>
     </g>
    </g>
    <g id="ytick_10">
     <g id="line2d_20">
      <path clip-path="url(#pd709d060bb)" d="M 827.689655 75.96 
L 972 75.96 
" style="fill:none;stroke:#ffffff;stroke-linecap:round;"/>
     </g>
     <g id="text_23">
      <!-- 0.6 -->
      <g style="fill:#262626;" transform="translate(802.899655 79.896797)scale(0.11 -0.11)">
       <use xlink:href="#ArialMT-48"/>
       <use x="55.615234" xlink:href="#ArialMT-46"/>
       <use x="83.398438" xlink:href="#ArialMT-54"/>
      </g>
     </g>
    </g>
    <g id="ytick_11">
     <g id="line2d_21">
      <path clip-path="url(#pd709d060bb)" d="M 827.689655 48.78 
L 972 48.78 
" style="fill:none;stroke:#ffffff;stroke-linecap:round;"/>
     </g>
     <g id="text_24">
      <!-- 0.8 -->
      <g style="fill:#262626;" transform="translate(802.899655 52.716797)scale(0.11 -0.11)">
       <use xlink:href="#ArialMT-48"/>
       <use x="55.615234" xlink:href="#ArialMT-46"/>
       <use x="83.398438" xlink:href="#ArialMT-56"/>
      </g>
     </g>
    </g>
    <g id="ytick_12">
     <g id="line2d_22">
      <path clip-path="url(#pd709d060bb)" d="M 827.689655 21.6 
L 972 21.6 
" style="fill:none;stroke:#ffffff;stroke-linecap:round;"/>
     </g>
     <g id="text_25">
      <!-- 1.0 -->
      <g style="fill:#262626;" transform="translate(802.899655 25.536797)scale(0.11 -0.11)">
       <use xlink:href="#ArialMT-49"/>
       <use x="55.615234" xlink:href="#ArialMT-46"/>
       <use x="83.398438" xlink:href="#ArialMT-48"/>
      </g>
     </g>
    </g>
   </g>
   <g id="patch_55">
    <path d="M 827.689655 157.5 
L 827.689655 21.6 
" style="fill:none;stroke:#ffffff;stroke-linecap:square;stroke-linejoin:miter;stroke-width:1.25;"/>
   </g>
   <g id="patch_56">
    <path d="M 972 157.5 
L 972 21.6 
" style="fill:none;stroke:#ffffff;stroke-linecap:square;stroke-linejoin:miter;stroke-width:1.25;"/>
   </g>
   <g id="patch_57">
    <path d="M 827.689655 157.5 
L 972 157.5 
" style="fill:none;stroke:#ffffff;stroke-linecap:square;stroke-linejoin:miter;stroke-width:1.25;"/>
   </g>
   <g id="patch_58">
    <path d="M 827.689655 21.6 
L 972 21.6 
" style="fill:none;stroke:#ffffff;stroke-linecap:square;stroke-linejoin:miter;stroke-width:1.25;"/>
   </g>
   <g id="text_26">
    <!-- 17 -->
    <g style="fill:#262626;" transform="translate(893.171703 15.6)scale(0.12 -0.12)">
     <use xlink:href="#ArialMT-49"/>
     <use x="55.615234" xlink:href="#ArialMT-55"/>
    </g>
   </g>
  </g>
 </g>
 <defs>
  <clipPath id="pbd5306fe64">
   <rect height="135.9" width="144.310345" x="135" y="21.6"/>
  </clipPath>
  <clipPath id="p0d7cb1582b">
   <rect height="135.9" width="144.310345" x="308.172414" y="21.6"/>
  </clipPath>
  <clipPath id="p51d9a3c0ea">
   <rect height="135.9" width="144.310345" x="481.344828" y="21.6"/>
  </clipPath>
  <clipPath id="p121b53183e">
   <rect height="135.9" width="144.310345" x="654.517241" y="21.6"/>
  </clipPath>
  <clipPath id="pd709d060bb">
   <rect height="135.9" width="144.310345" x="827.689655" y="21.6"/>
  </clipPath>
 </defs>
</svg>
