<?xml version="1.0" encoding="utf-8"?>
<!-- Generator: Adobe Illustrator 24.0.1, SVG Export Plug-In . SVG Version: 6.00 Build 0)  -->
<svg version="1.1" id="Layer_1" xmlns="http://www.w3.org/2000/svg" xmlns:xlink="http://www.w3.org/1999/xlink" x="0px" y="0px"
	 viewBox="0 0 432 288" style="enable-background:new 0 0 432 288;" xml:space="preserve">
<style type="text/css">
	.st0{fill:#EAEAF2;}
	.st1{clip-path:url(#SVGID_2_);fill:none;stroke:#FFFFFF;stroke-linecap:round;stroke-linejoin:round;}
	.st2{fill:#262626;}
	.st3{clip-path:url(#SVGID_4_);fill:none;stroke:#FFFFFF;stroke-linecap:round;stroke-linejoin:round;}
	.st4{clip-path:url(#SVGID_6_);fill:none;stroke:#FFFFFF;stroke-linecap:round;stroke-linejoin:round;}
	.st5{clip-path:url(#SVGID_8_);fill:none;stroke:#FFFFFF;stroke-linecap:round;stroke-linejoin:round;}
	.st6{clip-path:url(#SVGID_10_);fill:none;stroke:#FFFFFF;stroke-linecap:round;stroke-linejoin:round;}
	.st7{clip-path:url(#SVGID_12_);fill:none;stroke:#FFFFFF;stroke-linecap:round;stroke-linejoin:round;}
	.st8{clip-path:url(#SVGID_14_);fill:#5875A4;stroke:#4C4C4C;}
	.st9{clip-path:url(#SVGID_16_);fill:#CC8963;stroke:#4C4C4C;}
	.st10{clip-path:url(#SVGID_18_);fill:#5F9E6E;stroke:#4C4C4C;}
	.st11{clip-path:url(#SVGID_20_);fill:none;stroke:#4C4C4C;stroke-linecap:round;stroke-linejoin:round;}
	.st12{clip-path:url(#SVGID_22_);fill:none;stroke:#4C4C4C;stroke-linecap:round;stroke-linejoin:round;}
	.st13{clip-path:url(#SVGID_24_);fill:none;stroke:#4C4C4C;stroke-linecap:round;stroke-linejoin:round;}
	.st14{clip-path:url(#SVGID_26_);fill:none;stroke:#4C4C4C;stroke-linecap:round;stroke-linejoin:round;}
	.st15{clip-path:url(#SVGID_28_);fill:none;stroke:#4C4C4C;stroke-linecap:round;stroke-linejoin:round;}
	.st16{clip-path:url(#SVGID_30_);fill:none;stroke:#4C4C4C;stroke-linecap:round;stroke-linejoin:round;}
	.st17{clip-path:url(#SVGID_32_);fill:none;stroke:#4C4C4C;stroke-linecap:round;stroke-linejoin:round;}
	.st18{clip-path:url(#SVGID_34_);fill:none;stroke:#4C4C4C;stroke-linecap:round;stroke-linejoin:round;}
	.st19{clip-path:url(#SVGID_36_);fill:none;stroke:#4C4C4C;stroke-linecap:round;stroke-linejoin:round;}
	.st20{clip-path:url(#SVGID_38_);fill:none;stroke:#4C4C4C;stroke-linecap:round;stroke-linejoin:round;}
	.st21{clip-path:url(#SVGID_40_);fill:none;stroke:#4C4C4C;stroke-linecap:round;stroke-linejoin:round;}
	.st22{clip-path:url(#SVGID_42_);fill:none;stroke:#4C4C4C;stroke-linecap:round;stroke-linejoin:round;}
	.st23{clip-path:url(#SVGID_44_);fill:none;stroke:#4C4C4C;stroke-linecap:round;stroke-linejoin:round;}
	.st24{clip-path:url(#SVGID_46_);fill:none;stroke:#4C4C4C;stroke-linecap:round;stroke-linejoin:round;}
	.st25{clip-path:url(#SVGID_48_);fill:none;stroke:#4C4C4C;stroke-linecap:round;stroke-linejoin:round;}
	.st26{fill:none;stroke:#FFFFFF;stroke-width:1.25;stroke-linecap:square;}
	.st27{clip-path:url(#SVGID_50_);}
	.st28{fill:#404040;}
	.st29{clip-path:url(#SVGID_52_);}
	.st30{clip-path:url(#SVGID_54_);}
	.st31{clip-path:url(#SVGID_56_);}
	.st32{clip-path:url(#SVGID_58_);}
	.st33{clip-path:url(#SVGID_60_);}
	.st34{clip-path:url(#SVGID_62_);}
	.st35{clip-path:url(#SVGID_64_);}
	.st36{clip-path:url(#SVGID_66_);}
	.st37{clip-path:url(#SVGID_68_);}
	.st38{clip-path:url(#SVGID_70_);}
	.st39{clip-path:url(#SVGID_72_);}
	.st40{clip-path:url(#SVGID_74_);}
	.st41{clip-path:url(#SVGID_76_);}
	.st42{clip-path:url(#SVGID_78_);}
	.st43{clip-path:url(#SVGID_80_);}
	.st44{clip-path:url(#SVGID_82_);}
	.st45{clip-path:url(#SVGID_84_);}
	.st46{clip-path:url(#SVGID_86_);}
	.st47{clip-path:url(#SVGID_88_);}
	.st48{clip-path:url(#SVGID_90_);}
	.st49{clip-path:url(#SVGID_92_);}
	.st50{clip-path:url(#SVGID_94_);}
	.st51{clip-path:url(#SVGID_96_);}
	.st52{clip-path:url(#SVGID_98_);}
	.st53{clip-path:url(#SVGID_100_);}
	.st54{clip-path:url(#SVGID_102_);}
	.st55{clip-path:url(#SVGID_104_);}
	.st56{clip-path:url(#SVGID_106_);}
	.st57{clip-path:url(#SVGID_108_);}
	.st58{clip-path:url(#SVGID_110_);}
	.st59{clip-path:url(#SVGID_112_);}
	.st60{clip-path:url(#SVGID_114_);}
	.st61{clip-path:url(#SVGID_116_);}
	.st62{clip-path:url(#SVGID_118_);}
	.st63{clip-path:url(#SVGID_120_);}
	.st64{clip-path:url(#SVGID_122_);}
	.st65{clip-path:url(#SVGID_124_);}
	.st66{clip-path:url(#SVGID_126_);}
	.st67{clip-path:url(#SVGID_128_);}
	.st68{clip-path:url(#SVGID_130_);}
	.st69{clip-path:url(#SVGID_132_);}
	.st70{clip-path:url(#SVGID_134_);}
	.st71{clip-path:url(#SVGID_136_);}
	.st72{clip-path:url(#SVGID_138_);}
	.st73{clip-path:url(#SVGID_140_);}
	.st74{clip-path:url(#SVGID_142_);}
	.st75{clip-path:url(#SVGID_144_);}
</style>
<g id="patch_1">
</g>
<g id="patch_2">
	<path class="st0" d="M37.3,161.7h206.4v-134H37.3V161.7z"/>
</g>
<g id="ytick_1">
	<g id="line2d_1">
		<g>
			<defs>
				<rect id="SVGID_1_" x="36.5" y="29.4" width="206.4" height="134"/>
			</defs>
			<clipPath id="SVGID_2_">
				<use xlink:href="#SVGID_1_"  style="overflow:visible;"/>
			</clipPath>
			<path class="st1" d="M36.5,158.1h206.4"/>
		</g>
	</g>
	<g id="text_5">
		<g transform="translate(19.428594 247.280941)scale(0.11 -0.11)">
			<g>
				<path id="ArialMT-48" class="st2" d="M-35.9,810c0,5.2,0.5,9.4,1.6,12.6c1.1,3.2,2.7,5.6,4.8,7.4c2.1,1.7,4.8,2.6,8,2.6
					c2.4,0,4.4-0.5,6.2-1.4c1.8-1,3.3-2.3,4.4-4.1c1.2-1.8,2.1-4,2.7-6.6c0.7-2.6,1-6.1,1-10.4c0-5.2-0.5-9.4-1.6-12.5
					c-1.1-3.2-2.6-5.6-4.8-7.4c-2.1-1.7-4.8-2.6-8-2.6c-4.3,0-7.6,1.5-10,4.6C-34.5,795.8-35.9,801.8-35.9,810z M-30.3,810
					c0-7.2,0.8-12.1,2.5-14.5c1.7-2.4,3.8-3.6,6.3-3.6c2.5,0,4.6,1.2,6.3,3.6s2.5,7.2,2.5,14.4c0,7.3-0.8,12.1-2.5,14.5
					c-1.7,2.4-3.8,3.6-6.3,3.6c-2.5,0-4.5-1.1-6-3.2C-29.4,822.3-30.3,817.3-30.3,810z"/>
			</g>
			<g>
				<path id="ArialMT-46" class="st2" d="M1.4,788.3v6.2h6.2v-6.2H1.4z"/>
			</g>
			<g>
				<path id="ArialMT-48_1_" class="st2" d="M15.5,810c0,5.2,0.5,9.4,1.6,12.6c1.1,3.2,2.7,5.6,4.8,7.4c2.1,1.7,4.8,2.6,8,2.6
					c2.4,0,4.4-0.5,6.2-1.4c1.8-1,3.3-2.3,4.4-4.1c1.2-1.8,2.1-4,2.7-6.6c0.7-2.6,1-6.1,1-10.4c0-5.2-0.5-9.4-1.6-12.5
					c-1.1-3.2-2.6-5.6-4.8-7.4c-2.1-1.7-4.8-2.6-8-2.6c-4.3,0-7.6,1.5-10,4.6C16.9,795.8,15.5,801.8,15.5,810z M21.1,810
					c0-7.2,0.8-12.1,2.5-14.5c1.7-2.4,3.8-3.6,6.3-3.6c2.5,0,4.6,1.2,6.3,3.6s2.5,7.2,2.5,14.4c0,7.3-0.8,12.1-2.5,14.5
					c-1.7,2.4-3.8,3.6-6.3,3.6c-2.5,0-4.5-1.1-6-3.2C22,822.3,21.1,817.3,21.1,810z"/>
			</g>
			<g>
				<path id="ArialMT-37" class="st2" d="M50.8,821.8c0,3.2,0.8,5.8,2.4,8c1.6,2.2,3.9,3.3,6.9,3.3c2.8,0,5.1-1,6.9-3
					c1.8-2,2.7-4.9,2.7-8.7c0-3.7-0.9-6.6-2.8-8.6c-1.8-2-4.1-3-6.8-3c-2.7,0-4.9,1-6.7,3C51.7,814.8,50.8,817.8,50.8,821.8z
					 M60.2,829.4c-1.3,0-2.5-0.6-3.4-1.8c-0.9-1.2-1.3-3.3-1.3-6.4c0-2.8,0.4-4.8,1.3-6c0.9-1.1,2-1.7,3.3-1.7
					c1.4,0,2.5,0.6,3.4,1.7c0.9,1.2,1.3,3.3,1.3,6.4c0,2.9-0.5,4.9-1.4,6C62.7,828.9,61.6,829.4,60.2,829.4z M60.3,786.7l24.1,46.5
					h4.4l-24.1-46.5H60.3z M79.3,798.6c0,3.2,0.8,5.9,2.4,8.1s3.9,3.3,6.9,3.3c2.8,0,5.1-1,6.9-3c1.8-2,2.7-4.9,2.7-8.7
					c0-3.7-0.9-6.6-2.8-8.6s-4.1-3-6.8-3c-2.7,0-4.9,1-6.7,3C80.2,791.7,79.3,794.7,79.3,798.6z M88.8,806.3c-1.4,0-2.5-0.6-3.4-1.8
					c-0.9-1.2-1.3-3.3-1.3-6.4c0-2.8,0.4-4.8,1.3-6c0.9-1.2,2-1.7,3.4-1.7c1.4,0,2.5,0.6,3.4,1.7c0.9,1.2,1.3,3.3,1.3,6.4
					c0,2.8-0.5,4.8-1.4,6C91.3,805.7,90.1,806.3,88.8,806.3z"/>
			</g>
		</g>
	</g>
</g>
<g id="ytick_2">
	<g id="line2d_2">
		<g>
			<defs>
				<rect id="SVGID_3_" x="36.5" y="31.9" width="206.4" height="134"/>
			</defs>
			<clipPath id="SVGID_4_">
				<use xlink:href="#SVGID_3_"  style="overflow:visible;"/>
			</clipPath>
			<path class="st3" d="M36.5,134.9h206.4"/>
		</g>
	</g>
	<g id="text_6">
		<g transform="translate(13.311563 205.618242)scale(0.11 -0.11)">
			<g>
				<path id="ArialMT-50" class="st2" d="M13.9,625.8v-5.2h-29.2c0,1.3,0.2,2.6,0.6,3.8c0.7,2,1.9,3.9,3.6,5.9
					c1.6,1.9,4,4.2,7.1,6.7c4.8,3.9,8,7,9.7,9.3c1.7,2.3,2.5,4.5,2.5,6.5c0,2.1-0.8,4-2.3,5.4c-1.5,1.5-3.5,2.2-6,2.2
					c-2.6,0-4.7-0.8-6.3-2.4c-1.6-1.6-2.4-3.7-2.4-6.5l-5.6,0.6c0.4,4.2,1.8,7.3,4.3,9.5c2.5,2.2,5.8,3.3,10,3.3
					c4.2,0,7.6-1.2,10-3.5c2.5-2.3,3.7-5.3,3.7-8.7c0-1.8-0.4-3.5-1.1-5.2c-0.7-1.7-1.9-3.5-3.6-5.4s-4.5-4.5-8.4-7.8
					c-3.3-2.7-5.3-4.6-6.3-5.6c-0.9-1-1.7-1.9-2.3-2.9H13.9z"/>
			</g>
			<g>
				<path id="ArialMT-48_2_" class="st2" d="M19.7,642.4c0,5.2,0.5,9.4,1.6,12.6c1.1,3.2,2.7,5.6,4.8,7.4c2.1,1.7,4.8,2.6,8,2.6
					c2.4,0,4.4-0.5,6.2-1.4c1.8-1,3.3-2.3,4.4-4.1c1.2-1.8,2.1-4,2.7-6.6c0.7-2.6,1-6.1,1-10.4c0-5.2-0.5-9.4-1.6-12.5
					c-1.1-3.2-2.6-5.6-4.8-7.4c-2.1-1.7-4.8-2.6-8-2.6c-4.3,0-7.6,1.5-10,4.6C21.2,628.1,19.7,634.1,19.7,642.4z M25.3,642.4
					c0-7.2,0.8-12.1,2.5-14.5c1.7-2.4,3.8-3.6,6.3-3.6c2.5,0,4.6,1.2,6.3,3.6s2.5,7.2,2.5,14.4c0,7.3-0.8,12.1-2.5,14.5
					c-1.7,2.4-3.8,3.6-6.3,3.6c-2.5,0-4.5-1.1-6-3.2C26.2,654.6,25.3,649.6,25.3,642.4z"/>
			</g>
			<g>
				<path id="ArialMT-46_1_" class="st2" d="M57,620.6v6.2h6.2v-6.2H57z"/>
			</g>
			<g>
				<path id="ArialMT-48_3_" class="st2" d="M71.1,642.4c0,5.2,0.5,9.4,1.6,12.6c1.1,3.2,2.7,5.6,4.8,7.4c2.1,1.7,4.8,2.6,8,2.6
					c2.4,0,4.4-0.5,6.2-1.4c1.8-1,3.3-2.3,4.4-4.1c1.2-1.8,2.1-4,2.7-6.6c0.7-2.6,1-6.1,1-10.4c0-5.2-0.5-9.4-1.6-12.5
					c-1.1-3.2-2.6-5.6-4.8-7.4c-2.1-1.7-4.8-2.6-8-2.6c-4.3,0-7.6,1.5-10,4.6C72.6,628.1,71.1,634.1,71.1,642.4z M76.7,642.4
					c0-7.2,0.8-12.1,2.5-14.5c1.7-2.4,3.8-3.6,6.3-3.6c2.5,0,4.6,1.2,6.3,3.6c1.7,2.4,2.5,7.2,2.5,14.4c0,7.3-0.8,12.1-2.5,14.5
					c-1.7,2.4-3.8,3.6-6.3,3.6c-2.5,0-4.5-1.1-6-3.2C77.6,654.6,76.7,649.6,76.7,642.4z"/>
			</g>
			<g>
				<path id="ArialMT-37_1_" class="st2" d="M106.4,654.1c0,3.2,0.8,5.8,2.4,8c1.6,2.2,3.9,3.3,6.9,3.3c2.8,0,5.1-1,6.9-3
					c1.8-2,2.7-4.9,2.7-8.7c0-3.7-0.9-6.6-2.8-8.6s-4.1-3-6.8-3c-2.7,0-4.9,1-6.7,3C107.3,647.1,106.4,650.1,106.4,654.1z
					 M115.8,661.8c-1.3,0-2.5-0.6-3.4-1.8c-0.9-1.2-1.3-3.3-1.3-6.4c0-2.8,0.4-4.8,1.3-6c0.9-1.1,2-1.7,3.3-1.7
					c1.4,0,2.5,0.6,3.4,1.7c0.9,1.2,1.3,3.3,1.3,6.4c0,2.9-0.5,4.9-1.4,6C118.3,661.2,117.2,661.8,115.8,661.8z M115.9,619
					l24.1,46.5h4.4L120.4,619H115.9z M134.9,631c0,3.2,0.8,5.9,2.4,8.1c1.6,2.2,3.9,3.3,6.9,3.3c2.8,0,5.1-1,6.9-3
					c1.8-2,2.7-4.9,2.7-8.7c0-3.7-0.9-6.6-2.8-8.6c-1.8-2-4.1-3-6.8-3c-2.7,0-4.9,1-6.7,3C135.8,624,134.9,627,134.9,631z
					 M144.4,638.6c-1.4,0-2.5-0.6-3.4-1.8c-0.9-1.2-1.3-3.3-1.3-6.4c0-2.8,0.4-4.8,1.3-6c0.9-1.2,2-1.7,3.4-1.7
					c1.4,0,2.5,0.6,3.4,1.7s1.3,3.3,1.3,6.4c0,2.8-0.5,4.8-1.4,6C146.9,638,145.7,638.6,144.4,638.6z"/>
			</g>
		</g>
	</g>
</g>
<g id="ytick_3">
	<g id="line2d_3">
		<g>
			<defs>
				<rect id="SVGID_5_" x="36.5" y="31.9" width="206.4" height="134"/>
			</defs>
			<clipPath id="SVGID_6_">
				<use xlink:href="#SVGID_5_"  style="overflow:visible;"/>
			</clipPath>
			<path class="st4" d="M36.5,109.2h206.4"/>
		</g>
	</g>
	<g id="text_7">
		<g transform="translate(13.311563 163.955543)scale(0.11 -0.11)">
			<g>
				<path id="ArialMT-52" class="st2" d="M2.8,475.3v10.6h-19.1v5l20.1,28.6h4.4v-28.6h6v-5h-6v-10.6H2.8z M2.8,490.9v19.9
					L-11,490.9H2.8z"/>
			</g>
			<g>
				<path id="ArialMT-48_4_" class="st2" d="M19.7,497.1c0,5.2,0.5,9.4,1.6,12.6c1.1,3.2,2.7,5.6,4.8,7.4c2.1,1.7,4.8,2.6,8,2.6
					c2.4,0,4.4-0.5,6.2-1.4c1.8-1,3.3-2.3,4.4-4.1c1.2-1.8,2.1-4,2.7-6.6c0.7-2.6,1-6.1,1-10.4c0-5.2-0.5-9.4-1.6-12.5
					c-1.1-3.2-2.6-5.6-4.8-7.4c-2.1-1.7-4.8-2.6-8-2.6c-4.3,0-7.6,1.5-10,4.6C21.2,482.8,19.7,488.8,19.7,497.1z M25.3,497.1
					c0-7.2,0.8-12.1,2.5-14.5c1.7-2.4,3.8-3.6,6.3-3.6c2.5,0,4.6,1.2,6.3,3.6c1.7,2.4,2.5,7.2,2.5,14.4c0,7.3-0.8,12.1-2.5,14.5
					c-1.7,2.4-3.8,3.6-6.3,3.6c-2.5,0-4.5-1.1-6-3.2C26.2,509.3,25.3,504.4,25.3,497.1z"/>
			</g>
			<g>
				<path id="ArialMT-46_2_" class="st2" d="M57,475.3v6.2h6.2v-6.2H57z"/>
			</g>
			<g>
				<path id="ArialMT-48_5_" class="st2" d="M71.1,497.1c0,5.2,0.5,9.4,1.6,12.6c1.1,3.2,2.7,5.6,4.8,7.4c2.1,1.7,4.8,2.6,8,2.6
					c2.4,0,4.4-0.5,6.2-1.4c1.8-1,3.3-2.3,4.4-4.1c1.2-1.8,2.1-4,2.7-6.6c0.7-2.6,1-6.1,1-10.4c0-5.2-0.5-9.4-1.6-12.5
					c-1.1-3.2-2.6-5.6-4.8-7.4c-2.1-1.7-4.8-2.6-8-2.6c-4.3,0-7.6,1.5-10,4.6C72.6,482.8,71.1,488.8,71.1,497.1z M76.7,497.1
					c0-7.2,0.8-12.1,2.5-14.5c1.7-2.4,3.8-3.6,6.3-3.6c2.5,0,4.6,1.2,6.3,3.6c1.7,2.4,2.5,7.2,2.5,14.4c0,7.3-0.8,12.1-2.5,14.5
					c-1.7,2.4-3.8,3.6-6.3,3.6c-2.5,0-4.5-1.1-6-3.2C77.6,509.3,76.7,504.4,76.7,497.1z"/>
			</g>
			<g>
				<path id="ArialMT-37_2_" class="st2" d="M106.4,508.9c0,3.2,0.8,5.8,2.4,8c1.6,2.2,3.9,3.3,6.9,3.3c2.8,0,5.1-1,6.9-3
					c1.8-2,2.7-4.9,2.7-8.7c0-3.7-0.9-6.6-2.8-8.6s-4.1-3-6.8-3c-2.7,0-4.9,1-6.7,3C107.3,501.9,106.4,504.9,106.4,508.9z
					 M115.8,516.5c-1.3,0-2.5-0.6-3.4-1.8c-0.9-1.2-1.3-3.3-1.3-6.4c0-2.8,0.4-4.8,1.3-6c0.9-1.1,2-1.7,3.3-1.7
					c1.4,0,2.5,0.6,3.4,1.7c0.9,1.2,1.3,3.3,1.3,6.4c0,2.9-0.5,4.9-1.4,6C118.3,515.9,117.2,516.5,115.8,516.5z M115.9,473.7
					l24.1,46.5h4.4l-24.1-46.5H115.9z M134.9,485.7c0,3.2,0.8,5.9,2.4,8.1c1.6,2.2,3.9,3.3,6.9,3.3c2.8,0,5.1-1,6.9-3
					c1.8-2,2.7-4.9,2.7-8.7c0-3.7-0.9-6.6-2.8-8.6c-1.8-2-4.1-3-6.8-3c-2.7,0-4.9,1-6.7,3C135.8,478.7,134.9,481.7,134.9,485.7z
					 M144.4,493.3c-1.4,0-2.5-0.6-3.4-1.8c-0.9-1.2-1.3-3.3-1.3-6.4c0-2.8,0.4-4.8,1.3-6c0.9-1.2,2-1.7,3.4-1.7
					c1.4,0,2.5,0.6,3.4,1.7s1.3,3.3,1.3,6.4c0,2.8-0.5,4.8-1.4,6C146.9,492.7,145.7,493.3,144.4,493.3z"/>
			</g>
		</g>
	</g>
</g>
<g id="ytick_4">
	<g id="line2d_4">
		<g>
			<defs>
				<rect id="SVGID_7_" x="36.5" y="31.9" width="206.4" height="134"/>
			</defs>
			<clipPath id="SVGID_8_">
				<use xlink:href="#SVGID_7_"  style="overflow:visible;"/>
			</clipPath>
			<path class="st5" d="M36.5,83.6h206.4"/>
		</g>
	</g>
	<g id="text_8">
		<g transform="translate(13.311563 122.292844)scale(0.11 -0.11)">
			<g>
				<path id="ArialMT-54" class="st2" d="M13.5,363.4L8.1,363c-0.5,2.1-1.2,3.7-2,4.6c-1.5,1.5-3.3,2.3-5.4,2.3
					c-1.7,0-3.2-0.5-4.5-1.4c-1.7-1.2-3-3.1-4-5.5c-1-2.4-1.5-5.8-1.5-10.2c1.3,2,2.9,3.5,4.8,4.4s3.9,1.4,5.9,1.4
					c3.6,0,6.7-1.3,9.2-4c2.5-2.7,3.8-6.1,3.8-10.3c0-2.8-0.6-5.3-1.8-7.7c-1.2-2.4-2.8-4.2-4.9-5.5s-4.5-1.9-7.1-1.9
					c-4.5,0-8.2,1.7-11,5c-2.8,3.3-4.3,8.8-4.3,16.4c0,8.5,1.6,14.7,4.7,18.6c2.7,3.4,6.5,5.1,11.1,5.1c3.5,0,6.3-1,8.5-2.9
					C11.8,369.5,13.1,366.8,13.5,363.4z M-8.6,344.4c0-1.9,0.4-3.6,1.2-5.4c0.8-1.7,1.9-3,3.3-3.9c1.4-0.9,2.9-1.3,4.5-1.3
					c2.3,0,4.3,0.9,5.9,2.8c1.7,1.8,2.5,4.4,2.5,7.5c0,3.1-0.8,5.5-2.4,7.2c-1.6,1.8-3.7,2.6-6.1,2.6c-2.4,0-4.5-0.9-6.2-2.6
					C-7.7,349.5-8.6,347.2-8.6,344.4z"/>
			</g>
			<g>
				<path id="ArialMT-48_6_" class="st2" d="M19.7,351.8c0,5.2,0.5,9.4,1.6,12.6c1.1,3.2,2.7,5.6,4.8,7.4c2.1,1.7,4.8,2.6,8,2.6
					c2.4,0,4.4-0.5,6.2-1.4c1.8-1,3.3-2.3,4.4-4.1c1.2-1.8,2.1-4,2.7-6.6c0.7-2.6,1-6.1,1-10.4c0-5.2-0.5-9.4-1.6-12.5
					c-1.1-3.2-2.6-5.6-4.8-7.4c-2.1-1.7-4.8-2.6-8-2.6c-4.3,0-7.6,1.5-10,4.6C21.2,337.6,19.7,343.6,19.7,351.8z M25.3,351.8
					c0-7.2,0.8-12.1,2.5-14.5c1.7-2.4,3.8-3.6,6.3-3.6c2.5,0,4.6,1.2,6.3,3.6c1.7,2.4,2.5,7.2,2.5,14.4c0,7.3-0.8,12.1-2.5,14.5
					c-1.7,2.4-3.8,3.6-6.3,3.6c-2.5,0-4.5-1.1-6-3.2C26.2,364.1,25.3,359.1,25.3,351.8z"/>
			</g>
			<g>
				<path id="ArialMT-46_3_" class="st2" d="M57,330.1v6.2h6.2v-6.2H57z"/>
			</g>
			<g>
				<path id="ArialMT-48_7_" class="st2" d="M71.1,351.8c0,5.2,0.5,9.4,1.6,12.6c1.1,3.2,2.7,5.6,4.8,7.4c2.1,1.7,4.8,2.6,8,2.6
					c2.4,0,4.4-0.5,6.2-1.4c1.8-1,3.3-2.3,4.4-4.1c1.2-1.8,2.1-4,2.7-6.6c0.7-2.6,1-6.1,1-10.4c0-5.2-0.5-9.4-1.6-12.5
					c-1.1-3.2-2.6-5.6-4.8-7.4c-2.1-1.7-4.8-2.6-8-2.6c-4.3,0-7.6,1.5-10,4.6C72.6,337.6,71.1,343.6,71.1,351.8z M76.7,351.8
					c0-7.2,0.8-12.1,2.5-14.5c1.7-2.4,3.8-3.6,6.3-3.6c2.5,0,4.6,1.2,6.3,3.6c1.7,2.4,2.5,7.2,2.5,14.4c0,7.3-0.8,12.1-2.5,14.5
					c-1.7,2.4-3.8,3.6-6.3,3.6c-2.5,0-4.5-1.1-6-3.2C77.6,364.1,76.7,359.1,76.7,351.8z"/>
			</g>
			<g>
				<path id="ArialMT-37_3_" class="st2" d="M106.4,363.6c0,3.2,0.8,5.8,2.4,8c1.6,2.2,3.9,3.3,6.9,3.3c2.8,0,5.1-1,6.9-3
					c1.8-2,2.7-4.9,2.7-8.7c0-3.7-0.9-6.6-2.8-8.6s-4.1-3-6.8-3c-2.7,0-4.9,1-6.7,3C107.3,356.6,106.4,359.6,106.4,363.6z
					 M115.8,371.2c-1.3,0-2.5-0.6-3.4-1.8c-0.9-1.2-1.3-3.3-1.3-6.4c0-2.8,0.4-4.8,1.3-6c0.9-1.1,2-1.7,3.3-1.7
					c1.4,0,2.5,0.6,3.4,1.7c0.9,1.2,1.3,3.3,1.3,6.4c0,2.9-0.5,4.9-1.4,6C118.3,370.6,117.2,371.2,115.8,371.2z M115.9,328.5
					L140,375h4.4l-24.1-46.5H115.9z M134.9,340.4c0,3.2,0.8,5.9,2.4,8.1c1.6,2.2,3.9,3.3,6.9,3.3c2.8,0,5.1-1,6.9-3
					c1.8-2,2.7-4.9,2.7-8.7c0-3.7-0.9-6.6-2.8-8.6c-1.8-2-4.1-3-6.8-3c-2.7,0-4.9,1-6.7,3C135.8,333.4,134.9,336.4,134.9,340.4z
					 M144.4,348.1c-1.4,0-2.5-0.6-3.4-1.8c-0.9-1.2-1.3-3.3-1.3-6.4c0-2.8,0.4-4.8,1.3-6c0.9-1.2,2-1.7,3.4-1.7
					c1.4,0,2.5,0.6,3.4,1.7s1.3,3.3,1.3,6.4c0,2.8-0.5,4.8-1.4,6C146.9,347.5,145.7,348.1,144.4,348.1z"/>
			</g>
		</g>
	</g>
</g>
<g id="ytick_5">
	<g id="line2d_5">
		<g>
			<defs>
				<rect id="SVGID_9_" x="36.5" y="31.9" width="206.4" height="134"/>
			</defs>
			<clipPath id="SVGID_10_">
				<use xlink:href="#SVGID_9_"  style="overflow:visible;"/>
			</clipPath>
			<path class="st6" d="M36.5,57.9h206.4"/>
		</g>
	</g>
	<g id="text_9">
		<g transform="translate(13.311563 80.630145)scale(0.11 -0.11)">
			<g>
				<path id="ArialMT-56" class="st2" d="M-6.3,208.7c-2.2,0.8-3.9,2-5,3.5c-1.1,1.5-1.6,3.4-1.6,5.5c0,3.2,1.2,5.9,3.5,8.1
					c2.3,2.2,5.4,3.3,9.2,3.3c3.9,0,7-1.1,9.3-3.4c2.4-2.2,3.5-5,3.5-8.2c0-2-0.5-3.8-1.6-5.3c-1.1-1.5-2.7-2.7-4.9-3.5
					c2.7-0.9,4.8-2.3,6.2-4.3c1.4-2,2.1-4.3,2.1-7c0-3.8-1.3-6.9-4-9.5c-2.7-2.6-6.2-3.9-10.5-3.9s-7.9,1.3-10.5,3.9
					c-2.7,2.6-4,5.8-4,9.7c0,2.9,0.7,5.3,2.2,7.2C-11,206.7-8.9,208-6.3,208.7z M-7.3,217.9c0-2.1,0.7-3.8,2-5.1
					c1.3-1.3,3.1-2,5.2-2c2.1,0,3.8,0.7,5.1,2c1.3,1.3,2,2.9,2,4.8c0,2-0.7,3.7-2.1,5c-1.4,1.4-3.1,2-5.1,2c-2.1,0-3.8-0.7-5.2-2
					C-6.7,221.4-7.3,219.8-7.3,217.9z M-9.1,197.5c0-1.5,0.4-3,1.1-4.5s1.8-2.6,3.3-3.4c1.4-0.8,3-1.2,4.7-1.2
					c2.6,0,4.7,0.8,6.4,2.5c1.7,1.7,2.5,3.8,2.5,6.4c0,2.6-0.9,4.8-2.6,6.5c-1.7,1.7-3.9,2.6-6.5,2.6c-2.5,0-4.7-0.8-6.3-2.5
					C-8.2,202.2-9.1,200.1-9.1,197.5z"/>
			</g>
			<g>
				<path id="ArialMT-48_8_" class="st2" d="M19.7,206.6c0,5.2,0.5,9.4,1.6,12.6c1.1,3.2,2.7,5.6,4.8,7.4c2.1,1.7,4.8,2.6,8,2.6
					c2.4,0,4.4-0.5,6.2-1.4c1.8-1,3.3-2.3,4.4-4.1c1.2-1.8,2.1-4,2.7-6.6c0.7-2.6,1-6.1,1-10.4c0-5.2-0.5-9.4-1.6-12.5
					c-1.1-3.2-2.6-5.6-4.8-7.4c-2.1-1.7-4.8-2.6-8-2.6c-4.3,0-7.6,1.5-10,4.6C21.2,192.3,19.7,198.3,19.7,206.6z M25.3,206.6
					c0-7.2,0.8-12.1,2.5-14.5c1.7-2.4,3.8-3.6,6.3-3.6c2.5,0,4.6,1.2,6.3,3.6s2.5,7.2,2.5,14.4c0,7.3-0.8,12.1-2.5,14.5
					c-1.7,2.4-3.8,3.6-6.3,3.6c-2.5,0-4.5-1.1-6-3.2C26.2,218.8,25.3,213.8,25.3,206.6z"/>
			</g>
			<g>
				<path id="ArialMT-46_4_" class="st2" d="M57,184.8v6.2h6.2v-6.2H57z"/>
			</g>
			<g>
				<path id="ArialMT-48_9_" class="st2" d="M71.1,206.6c0,5.2,0.5,9.4,1.6,12.6c1.1,3.2,2.7,5.6,4.8,7.4c2.1,1.7,4.8,2.6,8,2.6
					c2.4,0,4.4-0.5,6.2-1.4c1.8-1,3.3-2.3,4.4-4.1c1.2-1.8,2.1-4,2.7-6.6c0.7-2.6,1-6.1,1-10.4c0-5.2-0.5-9.4-1.6-12.5
					c-1.1-3.2-2.6-5.6-4.8-7.4c-2.1-1.7-4.8-2.6-8-2.6c-4.3,0-7.6,1.5-10,4.6C72.6,192.3,71.1,198.3,71.1,206.6z M76.7,206.6
					c0-7.2,0.8-12.1,2.5-14.5c1.7-2.4,3.8-3.6,6.3-3.6c2.5,0,4.6,1.2,6.3,3.6c1.7,2.4,2.5,7.2,2.5,14.4c0,7.3-0.8,12.1-2.5,14.5
					c-1.7,2.4-3.8,3.6-6.3,3.6c-2.5,0-4.5-1.1-6-3.2C77.6,218.8,76.7,213.8,76.7,206.6z"/>
			</g>
			<g>
				<path id="ArialMT-37_4_" class="st2" d="M106.4,218.3c0,3.2,0.8,5.8,2.4,8c1.6,2.2,3.9,3.3,6.9,3.3c2.8,0,5.1-1,6.9-3
					c1.8-2,2.7-4.9,2.7-8.7c0-3.7-0.9-6.6-2.8-8.6c-1.8-2-4.1-3-6.8-3c-2.7,0-4.9,1-6.7,3C107.3,211.3,106.4,214.3,106.4,218.3z
					 M115.8,226c-1.3,0-2.5-0.6-3.4-1.8c-0.9-1.2-1.3-3.3-1.3-6.4c0-2.8,0.4-4.8,1.3-6c0.9-1.1,2-1.7,3.3-1.7c1.4,0,2.5,0.6,3.4,1.7
					c0.9,1.2,1.3,3.3,1.3,6.4c0,2.9-0.5,4.9-1.4,6C118.3,225.4,117.2,226,115.8,226z M115.9,183.2l24.1,46.5h4.4l-24.1-46.5H115.9z
					 M134.9,195.2c0,3.2,0.8,5.9,2.4,8.1c1.6,2.2,3.9,3.3,6.9,3.3c2.8,0,5.1-1,6.9-3c1.8-2,2.7-4.9,2.7-8.7c0-3.7-0.9-6.6-2.8-8.6
					c-1.8-2-4.1-3-6.8-3c-2.7,0-4.9,1-6.7,3C135.8,188.2,134.9,191.2,134.9,195.2z M144.4,202.8c-1.4,0-2.5-0.6-3.4-1.8
					c-0.9-1.2-1.3-3.3-1.3-6.4c0-2.8,0.4-4.8,1.3-6c0.9-1.2,2-1.7,3.4-1.7c1.4,0,2.5,0.6,3.4,1.7s1.3,3.3,1.3,6.4
					c0,2.8-0.5,4.8-1.4,6C146.9,202.2,145.7,202.8,144.4,202.8z"/>
			</g>
		</g>
	</g>
</g>
<g id="ytick_6">
	<g id="line2d_6">
		<g>
			<defs>
				<rect id="SVGID_11_" x="36.5" y="31.9" width="206.4" height="134"/>
			</defs>
			<clipPath id="SVGID_12_">
				<use xlink:href="#SVGID_11_"  style="overflow:visible;"/>
			</clipPath>
			<path class="st7" d="M36.5,32.2h206.4"/>
		</g>
	</g>
	<g id="text_10">
		<g transform="translate(7.194531 38.967446)scale(0.11 -0.11)">
			<g>
				<path id="ArialMT-49" class="st2" d="M27.1,39.5h-5.4v34.5c-1.3-1.2-3-2.5-5.1-3.7s-4-2.2-5.7-2.8v5.2c3,1.4,5.7,3.1,7.9,5.2
					c2.3,2,3.9,4,4.8,5.9h3.5V39.5z"/>
			</g>
			<g>
				<path id="ArialMT-48_10_" class="st2" d="M41,61.3c0,5.2,0.5,9.4,1.6,12.6c1.1,3.2,2.7,5.6,4.8,7.4c2.1,1.7,4.8,2.6,8,2.6
					c2.4,0,4.4-0.5,6.2-1.4c1.8-1,3.3-2.3,4.4-4.1c1.2-1.8,2.1-4,2.7-6.6c0.7-2.6,1-6.1,1-10.4c0-5.2-0.5-9.4-1.6-12.5
					c-1.1-3.2-2.6-5.6-4.8-7.4c-2.1-1.7-4.8-2.6-8-2.6c-4.3,0-7.6,1.5-10,4.6C42.5,47,41,53,41,61.3z M46.6,61.3
					c0-7.2,0.8-12.1,2.5-14.5c1.7-2.4,3.8-3.6,6.3-3.6c2.5,0,4.6,1.2,6.3,3.6c1.7,2.4,2.5,7.2,2.5,14.4c0,7.3-0.8,12.1-2.5,14.5
					c-1.7,2.4-3.8,3.6-6.3,3.6c-2.5,0-4.5-1.1-6-3.2C47.5,73.5,46.6,68.6,46.6,61.3z"/>
			</g>
			<g>
				<path id="ArialMT-48_11_" class="st2" d="M75.3,61.3c0,5.2,0.5,9.4,1.6,12.6c1.1,3.2,2.7,5.6,4.8,7.4c2.1,1.7,4.8,2.6,8,2.6
					c2.4,0,4.4-0.5,6.2-1.4c1.8-1,3.3-2.3,4.4-4.1c1.2-1.8,2.1-4,2.7-6.6c0.7-2.6,1-6.1,1-10.4c0-5.2-0.5-9.4-1.6-12.5
					c-1.1-3.2-2.6-5.6-4.8-7.4c-2.1-1.7-4.8-2.6-8-2.6c-4.3,0-7.6,1.5-10,4.6C76.8,47,75.3,53,75.3,61.3z M80.9,61.3
					c0-7.2,0.8-12.1,2.5-14.5c1.7-2.4,3.8-3.6,6.3-3.6c2.5,0,4.6,1.2,6.3,3.6c1.7,2.4,2.5,7.2,2.5,14.4c0,7.3-0.8,12.1-2.5,14.5
					c-1.7,2.4-3.8,3.6-6.3,3.6c-2.5,0-4.5-1.1-6-3.2C81.8,73.5,80.9,68.6,80.9,61.3z"/>
			</g>
			<g>
				<path id="ArialMT-46_5_" class="st2" d="M112.6,39.5v6.2h6.2v-6.2H112.6z"/>
			</g>
			<g>
				<path id="ArialMT-48_12_" class="st2" d="M126.7,61.3c0,5.2,0.5,9.4,1.6,12.6c1.1,3.2,2.7,5.6,4.8,7.4c2.1,1.7,4.8,2.6,8,2.6
					c2.4,0,4.4-0.5,6.2-1.4c1.8-1,3.3-2.3,4.4-4.1c1.2-1.8,2.1-4,2.7-6.6c0.7-2.6,1-6.1,1-10.4c0-5.2-0.5-9.4-1.6-12.5
					c-1.1-3.2-2.6-5.6-4.8-7.4c-2.1-1.7-4.8-2.6-8-2.6c-4.3,0-7.6,1.5-10,4.6C128.2,47,126.7,53,126.7,61.3z M132.3,61.3
					c0-7.2,0.8-12.1,2.5-14.5c1.7-2.4,3.8-3.6,6.3-3.6c2.5,0,4.6,1.2,6.3,3.6c1.7,2.4,2.5,7.2,2.5,14.4c0,7.3-0.8,12.1-2.5,14.5
					c-1.7,2.4-3.8,3.6-6.3,3.6c-2.5,0-4.5-1.1-6-3.2C133.2,73.5,132.3,68.6,132.3,61.3z"/>
			</g>
			<g>
				<path id="ArialMT-37_5_" class="st2" d="M162,73.1c0,3.2,0.8,5.8,2.4,8c1.6,2.2,3.9,3.3,6.9,3.3c2.8,0,5.1-1,6.9-3
					c1.8-2,2.7-4.9,2.7-8.7c0-3.7-0.9-6.6-2.8-8.6c-1.8-2-4.1-3-6.8-3c-2.7,0-4.9,1-6.7,3C162.9,66.1,162,69.1,162,73.1z
					 M171.4,80.7c-1.3,0-2.5-0.6-3.4-1.8c-0.9-1.2-1.3-3.3-1.3-6.4c0-2.8,0.4-4.8,1.3-6c0.9-1.1,2-1.7,3.3-1.7
					c1.4,0,2.5,0.6,3.4,1.7c0.9,1.2,1.3,3.3,1.3,6.4c0,2.9-0.5,4.9-1.4,6C173.9,80.1,172.8,80.7,171.4,80.7z M171.5,37.9l24.1,46.5
					h4.4L176,37.9H171.5z M190.6,49.9c0,3.2,0.8,5.9,2.4,8.1c1.6,2.2,3.9,3.3,6.9,3.3c2.8,0,5.1-1,6.9-3c1.8-2,2.7-4.9,2.7-8.7
					c0-3.7-0.9-6.6-2.8-8.6c-1.8-2-4.1-3-6.8-3c-2.7,0-4.9,1-6.7,3C191.4,42.9,190.6,45.9,190.6,49.9z M200,57.5
					c-1.4,0-2.5-0.6-3.4-1.8c-0.9-1.2-1.3-3.3-1.3-6.4c0-2.8,0.4-4.8,1.3-6c0.9-1.2,2-1.7,3.4-1.7c1.4,0,2.5,0.6,3.4,1.7
					s1.3,3.3,1.3,6.4c0,2.8-0.5,4.8-1.4,6C202.5,56.9,201.4,57.5,200,57.5z"/>
			</g>
		</g>
	</g>
</g>
<g>
	<defs>
		<rect id="SVGID_13_" x="36.5" y="31.9" width="206.4" height="134"/>
	</defs>
	<clipPath id="SVGID_14_">
		<use xlink:href="#SVGID_13_"  style="overflow:visible;"/>
	</clipPath>
	<path class="st8" d="M42.8,158.4h55v-1.3h-55V158.4z"/>
</g>
<g id="patch_4">
	<g>
		<defs>
			<rect id="SVGID_15_" x="36.5" y="31.9" width="206.4" height="134"/>
		</defs>
		<clipPath id="SVGID_16_">
			<use xlink:href="#SVGID_15_"  style="overflow:visible;"/>
		</clipPath>
		<path class="st9" d="M112.2,150h55V70.9h-55V150z"/>
	</g>
</g>
<g id="patch_5">
	<g>
		<defs>
			<rect id="SVGID_17_" x="36.5" y="31.9" width="206.4" height="134"/>
		</defs>
		<clipPath id="SVGID_18_">
			<use xlink:href="#SVGID_17_"  style="overflow:visible;"/>
		</clipPath>
		<path class="st10" d="M181,153.1h55v-27.9h-55V153.1z"/>
	</g>
</g>
<g id="line2d_7">
	<g>
		<defs>
			<rect id="SVGID_19_" x="36.5" y="31.9" width="206.4" height="134"/>
		</defs>
		<clipPath id="SVGID_20_">
			<use xlink:href="#SVGID_19_"  style="overflow:visible;"/>
		</clipPath>
		<path class="st11" d="M70.9,159.6v0.3"/>
	</g>
</g>
<g id="line2d_8">
	<g>
		<defs>
			<rect id="SVGID_21_" x="36.5" y="31.9" width="206.4" height="134"/>
		</defs>
		<clipPath id="SVGID_22_">
			<use xlink:href="#SVGID_21_"  style="overflow:visible;"/>
		</clipPath>
		<path class="st12" d="M70.9,158.3v-0.8"/>
	</g>
</g>
<g>
	<defs>
		<rect id="SVGID_23_" x="36.5" y="31.9" width="206.4" height="134"/>
	</defs>
	<clipPath id="SVGID_24_">
		<use xlink:href="#SVGID_23_"  style="overflow:visible;"/>
	</clipPath>
	<path class="st13" d="M57.1,159.9h27.5"/>
</g>
<g>
	<defs>
		<rect id="SVGID_25_" x="36.5" y="31.9" width="206.4" height="134"/>
	</defs>
	<clipPath id="SVGID_26_">
		<use xlink:href="#SVGID_25_"  style="overflow:visible;"/>
	</clipPath>
	<path class="st14" d="M57.1,157.6h27.5"/>
</g>
<g id="line2d_11">
</g>
<g id="line2d_12">
	<g>
		<defs>
			<rect id="SVGID_27_" x="36.5" y="31.9" width="206.4" height="134"/>
		</defs>
		<clipPath id="SVGID_28_">
			<use xlink:href="#SVGID_27_"  style="overflow:visible;"/>
		</clipPath>
		<path class="st15" d="M139.7,150v9.8"/>
	</g>
</g>
<g id="line2d_13">
	<g>
		<defs>
			<rect id="SVGID_29_" x="36.5" y="31.9" width="206.4" height="134"/>
		</defs>
		<clipPath id="SVGID_30_">
			<use xlink:href="#SVGID_29_"  style="overflow:visible;"/>
		</clipPath>
		<path class="st16" d="M139.7,70.9V38"/>
	</g>
</g>
<g id="line2d_14">
	<g>
		<defs>
			<rect id="SVGID_31_" x="36.5" y="31.9" width="206.4" height="134"/>
		</defs>
		<clipPath id="SVGID_32_">
			<use xlink:href="#SVGID_31_"  style="overflow:visible;"/>
		</clipPath>
		<path class="st17" d="M125.9,159.9h27.5"/>
	</g>
</g>
<g id="line2d_15">
	<g>
		<defs>
			<rect id="SVGID_33_" x="36.5" y="31.9" width="206.4" height="134"/>
		</defs>
		<clipPath id="SVGID_34_">
			<use xlink:href="#SVGID_33_"  style="overflow:visible;"/>
		</clipPath>
		<path class="st18" d="M125.9,38h27.5"/>
	</g>
</g>
<g id="line2d_16">
</g>
<g id="line2d_17">
	<g>
		<defs>
			<rect id="SVGID_35_" x="36.5" y="31.9" width="206.4" height="134"/>
		</defs>
		<clipPath id="SVGID_36_">
			<use xlink:href="#SVGID_35_"  style="overflow:visible;"/>
		</clipPath>
		<path class="st19" d="M208.5,153.1v6.7"/>
	</g>
</g>
<g id="line2d_18">
	<g>
		<defs>
			<rect id="SVGID_37_" x="36.5" y="31.9" width="206.4" height="134"/>
		</defs>
		<clipPath id="SVGID_38_">
			<use xlink:href="#SVGID_37_"  style="overflow:visible;"/>
		</clipPath>
		<path class="st20" d="M208.5,125.2v-1.9"/>
	</g>
</g>
<g>
	<defs>
		<rect id="SVGID_39_" x="36.5" y="31.9" width="206.4" height="134"/>
	</defs>
	<clipPath id="SVGID_40_">
		<use xlink:href="#SVGID_39_"  style="overflow:visible;"/>
	</clipPath>
	<path class="st21" d="M194.7,159.9h27.5"/>
</g>
<g id="line2d_20">
	<g>
		<defs>
			<rect id="SVGID_41_" x="36.5" y="31.9" width="206.4" height="134"/>
		</defs>
		<clipPath id="SVGID_42_">
			<use xlink:href="#SVGID_41_"  style="overflow:visible;"/>
		</clipPath>
		<path class="st22" d="M194.7,123.3h27.5"/>
	</g>
</g>
<g id="line2d_21">
</g>
<g>
	<defs>
		<rect id="SVGID_43_" x="36.1" y="31.9" width="206.4" height="134"/>
	</defs>
	<clipPath id="SVGID_44_">
		<use xlink:href="#SVGID_43_"  style="overflow:visible;"/>
	</clipPath>
	<path class="st23" d="M43,158.9h55"/>
</g>
<g id="line2d_23">
	<g>
		<defs>
			<rect id="SVGID_45_" x="36.5" y="31.9" width="206.4" height="134"/>
		</defs>
		<clipPath id="SVGID_46_">
			<use xlink:href="#SVGID_45_"  style="overflow:visible;"/>
		</clipPath>
		<path class="st24" d="M112.2,119.7h55"/>
	</g>
</g>
<g id="line2d_24">
	<g>
		<defs>
			<rect id="SVGID_47_" x="36.5" y="31.9" width="206.4" height="134"/>
		</defs>
		<clipPath id="SVGID_48_">
			<use xlink:href="#SVGID_47_"  style="overflow:visible;"/>
		</clipPath>
		<path class="st25" d="M181,139.9h55"/>
	</g>
</g>
<g id="patch_6">
	<path class="st26" d="M36.5,165.9v-134"/>
</g>
<g id="patch_7">
	<path class="st26" d="M242.9,165.9v-134"/>
</g>
<g id="patch_8">
	<path class="st26" d="M36.5,165.9h206.4"/>
</g>
<g id="patch_9">
	<path class="st26" d="M36.5,31.9h206.4"/>
</g>
<g>
	<defs>
		<rect id="SVGID_49_" x="36.5" y="31.9" width="206.4" height="134"/>
	</defs>
	<clipPath id="SVGID_50_">
		<use xlink:href="#SVGID_49_"  style="overflow:visible;"/>
	</clipPath>
	<g class="st27">
		<g>
			<path id="C0_0_8b65247d4c" class="st28" d="M70.9,161.4c0.4,0,0.8-0.2,1.1-0.5c0.3-0.3,0.5-0.7,0.5-1.1s-0.2-0.8-0.5-1.1
				c-0.3-0.3-0.7-0.5-1.1-0.5s-0.8,0.2-1.1,0.5c-0.3,0.3-0.5,0.7-0.5,1.1s0.2,0.8,0.5,1.1C70.1,161.2,70.5,161.4,70.9,161.4z"/>
		</g>
	</g>
</g>
<g>
	<defs>
		<rect id="SVGID_51_" x="36.5" y="31.9" width="206.4" height="134"/>
	</defs>
	<clipPath id="SVGID_52_">
		<use xlink:href="#SVGID_51_"  style="overflow:visible;"/>
	</clipPath>
	<g class="st29">
		<g>
			<path id="C0_0_8b65247d4c_1_" class="st28" d="M67.7,161.4c0.4,0,0.8-0.2,1.1-0.5c0.3-0.3,0.5-0.7,0.5-1.1s-0.2-0.8-0.5-1.1
				c-0.3-0.3-0.7-0.5-1.1-0.5s-0.8,0.2-1.1,0.5c-0.3,0.3-0.5,0.7-0.5,1.1s0.2,0.8,0.5,1.1C66.9,161.2,67.3,161.4,67.7,161.4z"/>
		</g>
	</g>
</g>
<g>
	<defs>
		<rect id="SVGID_53_" x="36.5" y="31.9" width="206.4" height="134"/>
	</defs>
	<clipPath id="SVGID_54_">
		<use xlink:href="#SVGID_53_"  style="overflow:visible;"/>
	</clipPath>
	<g class="st30">
		<g>
			<path id="C0_0_8b65247d4c_2_" class="st28" d="M74.1,161.1c0.4,0,0.8-0.2,1.1-0.5c0.3-0.3,0.5-0.7,0.5-1.1s-0.2-0.8-0.5-1.1
				c-0.3-0.3-0.7-0.5-1.1-0.5s-0.8,0.2-1.1,0.5c-0.3,0.3-0.5,0.7-0.5,1.1s0.2,0.8,0.5,1.1C73.3,161,73.7,161.1,74.1,161.1z"/>
		</g>
	</g>
</g>
<g>
	<defs>
		<rect id="SVGID_55_" x="36.5" y="31.9" width="206.4" height="134"/>
	</defs>
	<clipPath id="SVGID_56_">
		<use xlink:href="#SVGID_55_"  style="overflow:visible;"/>
	</clipPath>
	<g class="st31">
		<g>
			<path id="C0_0_8b65247d4c_3_" class="st28" d="M64.4,161.1c0.4,0,0.8-0.2,1.1-0.5c0.3-0.3,0.5-0.7,0.5-1.1s-0.2-0.8-0.5-1.1
				c-0.3-0.3-0.7-0.5-1.1-0.5s-0.8,0.2-1.1,0.5c-0.3,0.3-0.5,0.7-0.5,1.1s0.2,0.8,0.5,1.1C63.6,161,64,161.1,64.4,161.1z"/>
		</g>
	</g>
</g>
<g>
	<defs>
		<rect id="SVGID_57_" x="36.5" y="31.9" width="206.4" height="134"/>
	</defs>
	<clipPath id="SVGID_58_">
		<use xlink:href="#SVGID_57_"  style="overflow:visible;"/>
	</clipPath>
	<g class="st32">
		<g>
			<path id="C0_0_8b65247d4c_4_" class="st28" d="M77.4,161.1c0.4,0,0.8-0.2,1.1-0.5c0.3-0.3,0.5-0.7,0.5-1.1s-0.2-0.8-0.5-1.1
				c-0.3-0.3-0.7-0.5-1.1-0.5s-0.8,0.2-1.1,0.5c-0.3,0.3-0.5,0.7-0.5,1.1s0.2,0.8,0.5,1.1C76.6,161,77,161.1,77.4,161.1z"/>
		</g>
	</g>
</g>
<g>
	<defs>
		<rect id="SVGID_59_" x="36.5" y="31.9" width="206.4" height="134"/>
	</defs>
	<clipPath id="SVGID_60_">
		<use xlink:href="#SVGID_59_"  style="overflow:visible;"/>
	</clipPath>
	<g class="st33">
		<g>
			<path id="C0_0_8b65247d4c_5_" class="st28" d="M61.2,161.1c0.4,0,0.8-0.2,1.1-0.5c0.3-0.3,0.5-0.7,0.5-1.1s-0.2-0.8-0.5-1.1
				c-0.3-0.3-0.7-0.5-1.1-0.5c-0.4,0-0.8,0.2-1.1,0.5c-0.3,0.3-0.5,0.7-0.5,1.1s0.2,0.8,0.5,1.1C60.4,161,60.8,161.1,61.2,161.1z"/>
		</g>
	</g>
</g>
<g>
	<defs>
		<rect id="SVGID_61_" x="36.5" y="31.9" width="206.4" height="134"/>
	</defs>
	<clipPath id="SVGID_62_">
		<use xlink:href="#SVGID_61_"  style="overflow:visible;"/>
	</clipPath>
	<g class="st34">
		<g>
			<path id="C0_0_8b65247d4c_6_" class="st28" d="M80.6,160.6c0.4,0,0.8-0.2,1.1-0.5c0.3-0.3,0.5-0.7,0.5-1.1s-0.2-0.8-0.5-1.1
				c-0.3-0.3-0.7-0.5-1.1-0.5s-0.8,0.2-1.1,0.5c-0.3,0.3-0.5,0.7-0.5,1.1s0.2,0.8,0.5,1.1C79.8,160.5,80.2,160.6,80.6,160.6z"/>
		</g>
	</g>
</g>
<g>
	<defs>
		<rect id="SVGID_63_" x="36.5" y="31.9" width="206.4" height="134"/>
	</defs>
	<clipPath id="SVGID_64_">
		<use xlink:href="#SVGID_63_"  style="overflow:visible;"/>
	</clipPath>
	<g class="st35">
		<g>
			<path id="C0_0_8b65247d4c_7_" class="st28" d="M58,160.6c0.4,0,0.8-0.2,1.1-0.5c0.3-0.3,0.5-0.7,0.5-1.1s-0.2-0.8-0.5-1.1
				c-0.3-0.3-0.7-0.5-1.1-0.5c-0.4,0-0.8,0.2-1.1,0.5c-0.3,0.3-0.5,0.7-0.5,1.1s0.2,0.8,0.5,1.1C57.2,160.5,57.6,160.6,58,160.6z"/>
		</g>
	</g>
</g>
<g>
	<defs>
		<rect id="SVGID_65_" x="36.5" y="31.9" width="206.4" height="134"/>
	</defs>
	<clipPath id="SVGID_66_">
		<use xlink:href="#SVGID_65_"  style="overflow:visible;"/>
	</clipPath>
	<g class="st36">
		<g>
			<path id="C0_0_8b65247d4c_8_" class="st28" d="M83.8,160.4c0.4,0,0.8-0.2,1.1-0.5c0.3-0.3,0.5-0.7,0.5-1.1s-0.2-0.8-0.5-1.1
				c-0.3-0.3-0.7-0.5-1.1-0.5s-0.8,0.2-1.1,0.5c-0.3,0.3-0.5,0.7-0.5,1.1s0.2,0.8,0.5,1.1C83,160.2,83.4,160.4,83.8,160.4z"/>
		</g>
	</g>
</g>
<g>
	<defs>
		<rect id="SVGID_67_" x="36.5" y="31.9" width="206.4" height="134"/>
	</defs>
	<clipPath id="SVGID_68_">
		<use xlink:href="#SVGID_67_"  style="overflow:visible;"/>
	</clipPath>
	<g class="st37">
		<g>
			<path id="C0_0_8b65247d4c_9_" class="st28" d="M54.8,160.4c0.4,0,0.8-0.2,1.1-0.5c0.3-0.3,0.5-0.7,0.5-1.1s-0.2-0.8-0.5-1.1
				c-0.3-0.3-0.7-0.5-1.1-0.5s-0.8,0.2-1.1,0.5c-0.3,0.3-0.5,0.7-0.5,1.1s0.2,0.8,0.5,1.1C54,160.2,54.4,160.4,54.8,160.4z"/>
		</g>
	</g>
</g>
<g>
	<defs>
		<rect id="SVGID_69_" x="36.5" y="31.9" width="206.4" height="134"/>
	</defs>
	<clipPath id="SVGID_70_">
		<use xlink:href="#SVGID_69_"  style="overflow:visible;"/>
	</clipPath>
	<g class="st38">
		<g>
			<path id="C0_0_8b65247d4c_10_" class="st28" d="M87,160.4c0.4,0,0.8-0.2,1.1-0.5c0.3-0.3,0.5-0.7,0.5-1.1s-0.2-0.8-0.5-1.1
				c-0.3-0.3-0.7-0.5-1.1-0.5s-0.8,0.2-1.1,0.5c-0.3,0.3-0.5,0.7-0.5,1.1s0.2,0.8,0.5,1.1C86.2,160.2,86.6,160.4,87,160.4z"/>
		</g>
	</g>
</g>
<g>
	<defs>
		<rect id="SVGID_71_" x="36.5" y="31.9" width="206.4" height="134"/>
	</defs>
	<clipPath id="SVGID_72_">
		<use xlink:href="#SVGID_71_"  style="overflow:visible;"/>
	</clipPath>
	<g class="st39">
		<g>
			<path id="C0_0_8b65247d4c_11_" class="st28" d="M90.2,159.9c0.4,0,0.8-0.2,1.1-0.5c0.3-0.3,0.5-0.7,0.5-1.1s-0.2-0.8-0.5-1.1
				c-0.3-0.3-0.7-0.5-1.1-0.5s-0.8,0.2-1.1,0.5c-0.3,0.3-0.5,0.7-0.5,1.1s0.2,0.8,0.5,1.1C89.4,159.7,89.8,159.9,90.2,159.9z"/>
		</g>
	</g>
</g>
<g>
	<defs>
		<rect id="SVGID_73_" x="36.5" y="31.9" width="206.4" height="134"/>
	</defs>
	<clipPath id="SVGID_74_">
		<use xlink:href="#SVGID_73_"  style="overflow:visible;"/>
	</clipPath>
	<g class="st40">
		<g>
			<path id="C0_0_8b65247d4c_12_" class="st28" d="M51.6,159.9c0.4,0,0.8-0.2,1.1-0.5c0.3-0.3,0.5-0.7,0.5-1.1s-0.2-0.8-0.5-1.1
				c-0.3-0.3-0.7-0.5-1.1-0.5s-0.8,0.2-1.1,0.5c-0.3,0.3-0.5,0.7-0.5,1.1s0.2,0.8,0.5,1.1C50.8,159.7,51.2,159.9,51.6,159.9z"/>
		</g>
	</g>
</g>
<g>
	<defs>
		<rect id="SVGID_75_" x="36.5" y="31.9" width="206.4" height="134"/>
	</defs>
	<clipPath id="SVGID_76_">
		<use xlink:href="#SVGID_75_"  style="overflow:visible;"/>
	</clipPath>
	<g class="st41">
		<g>
			<path id="C0_0_8b65247d4c_13_" class="st28" d="M93.4,159.6c0.4,0,0.8-0.2,1.1-0.5c0.3-0.3,0.5-0.7,0.5-1.1s-0.2-0.8-0.5-1.1
				c-0.3-0.3-0.7-0.5-1.1-0.5s-0.8,0.2-1.1,0.5c-0.3,0.3-0.5,0.7-0.5,1.1s0.2,0.8,0.5,1.1C92.6,159.5,93,159.6,93.4,159.6z"/>
		</g>
	</g>
</g>
<g>
	<defs>
		<rect id="SVGID_77_" x="36.5" y="31.9" width="206.4" height="134"/>
	</defs>
	<clipPath id="SVGID_78_">
		<use xlink:href="#SVGID_77_"  style="overflow:visible;"/>
	</clipPath>
	<g class="st42">
		<g>
			<path id="C0_0_8b65247d4c_14_" class="st28" d="M48.4,159.4c0.4,0,0.8-0.2,1.1-0.5c0.3-0.3,0.5-0.7,0.5-1.1
				c0-0.4-0.2-0.8-0.5-1.1c-0.3-0.3-0.7-0.5-1.1-0.5c-0.4,0-0.8,0.2-1.1,0.5c-0.3,0.3-0.5,0.7-0.5,1.1c0,0.4,0.2,0.8,0.5,1.1
				C47.6,159.2,48,159.4,48.4,159.4z"/>
		</g>
	</g>
</g>
<g>
	<defs>
		<rect id="SVGID_79_" x="36.5" y="31.9" width="206.4" height="134"/>
	</defs>
	<clipPath id="SVGID_80_">
		<use xlink:href="#SVGID_79_"  style="overflow:visible;"/>
	</clipPath>
	<g class="st43">
		<g>
			<path id="C0_0_8b65247d4c_15_" class="st28" d="M96.6,159.1c0.4,0,0.8-0.2,1.1-0.5c0.3-0.3,0.5-0.7,0.5-1.1s-0.2-0.8-0.5-1.1
				c-0.3-0.3-0.7-0.5-1.1-0.5s-0.8,0.2-1.1,0.5c-0.3,0.3-0.5,0.7-0.5,1.1s0.2,0.8,0.5,1.1C95.8,159,96.2,159.1,96.6,159.1z"/>
		</g>
	</g>
</g>
<g id="PathCollection_2">
	<g>
		<defs>
			<rect id="SVGID_81_" x="36.5" y="31.9" width="206.4" height="134"/>
		</defs>
		<clipPath id="SVGID_82_">
			<use xlink:href="#SVGID_81_"  style="overflow:visible;"/>
		</clipPath>
		<g class="st44">
			<g>
				<path id="C1_0_1667531ff7" class="st28" d="M139.7,161.4c0.4,0,0.8-0.2,1.1-0.5c0.3-0.3,0.5-0.7,0.5-1.1s-0.2-0.8-0.5-1.1
					c-0.3-0.3-0.7-0.5-1.1-0.5s-0.8,0.2-1.1,0.5c-0.3,0.3-0.5,0.7-0.5,1.1s0.2,0.8,0.5,1.1C138.9,161.2,139.3,161.4,139.7,161.4z"/>
			</g>
		</g>
	</g>
	<g>
		<defs>
			<rect id="SVGID_83_" x="36.5" y="31.9" width="206.4" height="134"/>
		</defs>
		<clipPath id="SVGID_84_">
			<use xlink:href="#SVGID_83_"  style="overflow:visible;"/>
		</clipPath>
		<g class="st45">
			<g>
				<path id="C1_0_1667531ff7_1_" class="st28" d="M139.7,157.6c0.4,0,0.8-0.2,1.1-0.5c0.3-0.3,0.5-0.7,0.5-1.1s-0.2-0.8-0.5-1.1
					c-0.3-0.3-0.7-0.5-1.1-0.5s-0.8,0.2-1.1,0.5c-0.3,0.3-0.5,0.7-0.5,1.1s0.2,0.8,0.5,1.1C138.9,157.4,139.3,157.6,139.7,157.6z"/>
			</g>
		</g>
	</g>
	<g>
		<defs>
			<rect id="SVGID_85_" x="36.5" y="31.9" width="206.4" height="134"/>
		</defs>
		<clipPath id="SVGID_86_">
			<use xlink:href="#SVGID_85_"  style="overflow:visible;"/>
		</clipPath>
		<g class="st46">
			<g>
				<path id="C1_0_1667531ff7_2_" class="st28" d="M136.5,157.6c0.4,0,0.8-0.2,1.1-0.5c0.3-0.3,0.5-0.7,0.5-1.1s-0.2-0.8-0.5-1.1
					c-0.3-0.3-0.7-0.5-1.1-0.5s-0.8,0.2-1.1,0.5c-0.3,0.3-0.5,0.7-0.5,1.1s0.2,0.8,0.5,1.1C135.7,157.4,136.1,157.6,136.5,157.6z"/>
			</g>
		</g>
	</g>
	<g>
		<defs>
			<rect id="SVGID_87_" x="36.5" y="31.9" width="206.4" height="134"/>
		</defs>
		<clipPath id="SVGID_88_">
			<use xlink:href="#SVGID_87_"  style="overflow:visible;"/>
		</clipPath>
		<g class="st47">
			<g>
				<path id="C1_0_1667531ff7_3_" class="st28" d="M139.7,151.6c0.4,0,0.8-0.2,1.1-0.5c0.3-0.3,0.5-0.7,0.5-1.1s-0.2-0.8-0.5-1.1
					c-0.3-0.3-0.7-0.5-1.1-0.5s-0.8,0.2-1.1,0.5c-0.3,0.3-0.5,0.7-0.5,1.1s0.2,0.8,0.5,1.1C138.9,151.4,139.3,151.6,139.7,151.6z"/>
			</g>
		</g>
	</g>
	<g>
		<defs>
			<rect id="SVGID_89_" x="36.5" y="31.9" width="206.4" height="134"/>
		</defs>
		<clipPath id="SVGID_90_">
			<use xlink:href="#SVGID_89_"  style="overflow:visible;"/>
		</clipPath>
		<g class="st48">
			<g>
				<path id="C1_0_1667531ff7_4_" class="st28" d="M136.5,151.6c0.4,0,0.8-0.2,1.1-0.5c0.3-0.3,0.5-0.7,0.5-1.1s-0.2-0.8-0.5-1.1
					c-0.3-0.3-0.7-0.5-1.1-0.5s-0.8,0.2-1.1,0.5c-0.3,0.3-0.5,0.7-0.5,1.1s0.2,0.8,0.5,1.1C135.7,151.4,136.1,151.6,136.5,151.6z"/>
			</g>
		</g>
	</g>
	<g>
		<defs>
			<rect id="SVGID_91_" x="36.5" y="31.9" width="206.4" height="134"/>
		</defs>
		<clipPath id="SVGID_92_">
			<use xlink:href="#SVGID_91_"  style="overflow:visible;"/>
		</clipPath>
		<g class="st49">
			<g>
				<path id="C1_0_1667531ff7_5_" class="st28" d="M139.1,148.5c0.4,0,0.8-0.2,1.1-0.5c0.3-0.3,0.5-0.7,0.5-1.1s-0.2-0.8-0.5-1.1
					c-0.3-0.3-0.7-0.5-1.1-0.5s-0.8,0.2-1.1,0.5c-0.3,0.3-0.5,0.7-0.5,1.1s0.2,0.8,0.5,1.1C138.3,148.4,138.7,148.5,139.1,148.5z"/>
			</g>
		</g>
	</g>
	<g>
		<defs>
			<rect id="SVGID_93_" x="36.5" y="31.9" width="206.4" height="134"/>
		</defs>
		<clipPath id="SVGID_94_">
			<use xlink:href="#SVGID_93_"  style="overflow:visible;"/>
		</clipPath>
		<g class="st50">
			<g>
				<path id="C1_0_1667531ff7_6_" class="st28" d="M139.7,123.8c0.4,0,0.8-0.2,1.1-0.5c0.3-0.3,0.5-0.7,0.5-1.1s-0.2-0.8-0.5-1.1
					c-0.3-0.3-0.7-0.5-1.1-0.5s-0.8,0.2-1.1,0.5c-0.3,0.3-0.5,0.7-0.5,1.1s0.2,0.8,0.5,1.1C138.9,123.6,139.3,123.8,139.7,123.8z"/>
			</g>
		</g>
	</g>
	<g>
		<defs>
			<rect id="SVGID_95_" x="36.5" y="31.9" width="206.4" height="134"/>
		</defs>
		<clipPath id="SVGID_96_">
			<use xlink:href="#SVGID_95_"  style="overflow:visible;"/>
		</clipPath>
		<g class="st51">
			<g>
				<path id="C1_0_1667531ff7_7_" class="st28" d="M137.8,121.3c0.4,0,0.8-0.2,1.1-0.5c0.3-0.3,0.5-0.7,0.5-1.1s-0.2-0.8-0.5-1.1
					c-0.3-0.3-0.7-0.5-1.1-0.5s-0.8,0.2-1.1,0.5c-0.3,0.3-0.5,0.7-0.5,1.1s0.2,0.8,0.5,1.1C137,121.1,137.4,121.3,137.8,121.3z"/>
			</g>
		</g>
	</g>
	<g>
		<defs>
			<rect id="SVGID_97_" x="36.5" y="31.9" width="206.4" height="134"/>
		</defs>
		<clipPath id="SVGID_98_">
			<use xlink:href="#SVGID_97_"  style="overflow:visible;"/>
		</clipPath>
		<g class="st52">
			<g>
				<path id="C1_0_1667531ff7_8_" class="st28" d="M141.6,121.3c0.4,0,0.8-0.2,1.1-0.5c0.3-0.3,0.5-0.7,0.5-1.1s-0.2-0.8-0.5-1.1
					c-0.3-0.3-0.7-0.5-1.1-0.5c-0.4,0-0.8,0.2-1.1,0.5c-0.3,0.3-0.5,0.7-0.5,1.1s0.2,0.8,0.5,1.1
					C140.8,121.1,141.2,121.3,141.6,121.3z"/>
			</g>
		</g>
	</g>
	<g>
		<defs>
			<rect id="SVGID_99_" x="36.5" y="31.9" width="206.4" height="134"/>
		</defs>
		<clipPath id="SVGID_100_">
			<use xlink:href="#SVGID_99_"  style="overflow:visible;"/>
		</clipPath>
		<g class="st53">
			<g>
				<path id="C1_0_1667531ff7_9_" class="st28" d="M139.7,104.6c0.4,0,0.8-0.2,1.1-0.5c0.3-0.3,0.5-0.7,0.5-1.1s-0.2-0.8-0.5-1.1
					c-0.3-0.3-0.7-0.5-1.1-0.5s-0.8,0.2-1.1,0.5c-0.3,0.3-0.5,0.7-0.5,1.1s0.2,0.8,0.5,1.1C138.9,104.5,139.3,104.6,139.7,104.6z"/>
			</g>
		</g>
	</g>
	<g>
		<defs>
			<rect id="SVGID_101_" x="36.5" y="31.9" width="206.4" height="134"/>
		</defs>
		<clipPath id="SVGID_102_">
			<use xlink:href="#SVGID_101_"  style="overflow:visible;"/>
		</clipPath>
		<g class="st54">
			<g>
				<path id="C1_0_1667531ff7_10_" class="st28" d="M139.7,100.8c0.4,0,0.8-0.2,1.1-0.5c0.3-0.3,0.5-0.7,0.5-1.1s-0.2-0.8-0.5-1.1
					c-0.3-0.3-0.7-0.5-1.1-0.5s-0.8,0.2-1.1,0.5c-0.3,0.3-0.5,0.7-0.5,1.1s0.2,0.8,0.5,1.1C138.9,100.7,139.3,100.8,139.7,100.8z"/>
			</g>
		</g>
	</g>
	<g>
		<defs>
			<rect id="SVGID_103_" x="36.5" y="31.9" width="206.4" height="134"/>
		</defs>
		<clipPath id="SVGID_104_">
			<use xlink:href="#SVGID_103_"  style="overflow:visible;"/>
		</clipPath>
		<g class="st55">
			<g>
				<path id="C1_0_1667531ff7_11_" class="st28" d="M139.7,83.4c0.4,0,0.8-0.2,1.1-0.5c0.3-0.3,0.5-0.7,0.5-1.1
					c0-0.4-0.2-0.8-0.5-1.1c-0.3-0.3-0.7-0.5-1.1-0.5s-0.8,0.2-1.1,0.5c-0.3,0.3-0.5,0.7-0.5,1.1c0,0.4,0.2,0.8,0.5,1.1
					C138.9,83.3,139.3,83.4,139.7,83.4z"/>
			</g>
		</g>
	</g>
	<g>
		<defs>
			<rect id="SVGID_105_" x="36.5" y="31.9" width="206.4" height="134"/>
		</defs>
		<clipPath id="SVGID_106_">
			<use xlink:href="#SVGID_105_"  style="overflow:visible;"/>
		</clipPath>
		<g class="st56">
			<g>
				<path id="C1_0_1667531ff7_12_" class="st28" d="M139.7,39.5c0.4,0,0.8-0.2,1.1-0.5c0.3-0.3,0.5-0.7,0.5-1.1s-0.2-0.8-0.5-1.1
					c-0.3-0.3-0.7-0.5-1.1-0.5s-0.8,0.2-1.1,0.5c-0.3,0.3-0.5,0.7-0.5,1.1s0.2,0.8,0.5,1.1C138.9,39.4,139.3,39.5,139.7,39.5z"/>
			</g>
		</g>
	</g>
	<g>
		<defs>
			<rect id="SVGID_107_" x="36.5" y="31.9" width="206.4" height="134"/>
		</defs>
		<clipPath id="SVGID_108_">
			<use xlink:href="#SVGID_107_"  style="overflow:visible;"/>
		</clipPath>
		<g class="st57">
			<g>
				<path id="C1_0_1667531ff7_13_" class="st28" d="M136.5,39.5c0.4,0,0.8-0.2,1.1-0.5c0.3-0.3,0.5-0.7,0.5-1.1s-0.2-0.8-0.5-1.1
					c-0.3-0.3-0.7-0.5-1.1-0.5s-0.8,0.2-1.1,0.5c-0.3,0.3-0.5,0.7-0.5,1.1s0.2,0.8,0.5,1.1C135.7,39.4,136.1,39.5,136.5,39.5z"/>
			</g>
		</g>
	</g>
	<g>
		<defs>
			<rect id="SVGID_109_" x="36.5" y="31.9" width="206.4" height="134"/>
		</defs>
		<clipPath id="SVGID_110_">
			<use xlink:href="#SVGID_109_"  style="overflow:visible;"/>
		</clipPath>
		<g class="st58">
			<g>
				<path id="C1_0_1667531ff7_14_" class="st28" d="M142.9,39.5c0.4,0,0.8-0.2,1.1-0.5c0.3-0.3,0.5-0.7,0.5-1.1s-0.2-0.8-0.5-1.1
					c-0.3-0.3-0.7-0.5-1.1-0.5s-0.8,0.2-1.1,0.5c-0.3,0.3-0.5,0.7-0.5,1.1s0.2,0.8,0.5,1.1C142.1,39.4,142.5,39.5,142.9,39.5z"/>
			</g>
		</g>
	</g>
	<g>
		<defs>
			<rect id="SVGID_111_" x="36.5" y="31.9" width="206.4" height="134"/>
		</defs>
		<clipPath id="SVGID_112_">
			<use xlink:href="#SVGID_111_"  style="overflow:visible;"/>
		</clipPath>
		<g class="st59">
			<g>
				<path id="C1_0_1667531ff7_15_" class="st28" d="M133.2,39.5c0.4,0,0.8-0.2,1.1-0.5c0.3-0.3,0.5-0.7,0.5-1.1s-0.2-0.8-0.5-1.1
					c-0.3-0.3-0.7-0.5-1.1-0.5s-0.8,0.2-1.1,0.5c-0.3,0.3-0.5,0.7-0.5,1.1s0.2,0.8,0.5,1.1C132.4,39.4,132.8,39.5,133.2,39.5z"/>
			</g>
		</g>
	</g>
</g>
<g id="PathCollection_3">
	<g>
		<defs>
			<rect id="SVGID_113_" x="36.5" y="31.9" width="206.4" height="134"/>
		</defs>
		<clipPath id="SVGID_114_">
			<use xlink:href="#SVGID_113_"  style="overflow:visible;"/>
		</clipPath>
		<g class="st60">
			<g>
				<path id="C2_0_8a2dce3e58" class="st28" d="M208.5,161.4c0.4,0,0.8-0.2,1.1-0.5c0.3-0.3,0.5-0.7,0.5-1.1s-0.2-0.8-0.5-1.1
					c-0.3-0.3-0.7-0.5-1.1-0.5s-0.8,0.2-1.1,0.5c-0.3,0.3-0.5,0.7-0.5,1.1s0.2,0.8,0.5,1.1C207.7,161.2,208.1,161.4,208.5,161.4z"/>
			</g>
		</g>
	</g>
	<g>
		<defs>
			<rect id="SVGID_115_" x="36.5" y="31.9" width="206.4" height="134"/>
		</defs>
		<clipPath id="SVGID_116_">
			<use xlink:href="#SVGID_115_"  style="overflow:visible;"/>
		</clipPath>
		<g class="st61">
			<g>
				<path id="C2_0_8a2dce3e58_1_" class="st28" d="M211,157.6c0.4,0,0.8-0.2,1.1-0.5c0.3-0.3,0.5-0.7,0.5-1.1s-0.2-0.8-0.5-1.1
					c-0.3-0.3-0.7-0.5-1.1-0.5c-0.4,0-0.8,0.2-1.1,0.5c-0.3,0.3-0.5,0.7-0.5,1.1s0.2,0.8,0.5,1.1C210.2,157.4,210.6,157.6,211,157.6
					z"/>
			</g>
		</g>
	</g>
	<g>
		<defs>
			<rect id="SVGID_117_" x="36.5" y="31.9" width="206.4" height="134"/>
		</defs>
		<clipPath id="SVGID_118_">
			<use xlink:href="#SVGID_117_"  style="overflow:visible;"/>
		</clipPath>
		<g class="st62">
			<g>
				<path id="C2_0_8a2dce3e58_2_" class="st28" d="M205.3,157.6c0.4,0,0.8-0.2,1.1-0.5c0.3-0.3,0.5-0.7,0.5-1.1s-0.2-0.8-0.5-1.1
					c-0.3-0.3-0.7-0.5-1.1-0.5s-0.8,0.2-1.1,0.5c-0.3,0.3-0.5,0.7-0.5,1.1s0.2,0.8,0.5,1.1C204.5,157.4,204.9,157.6,205.3,157.6z"/>
			</g>
		</g>
	</g>
	<g>
		<defs>
			<rect id="SVGID_119_" x="36.5" y="31.9" width="206.4" height="134"/>
		</defs>
		<clipPath id="SVGID_120_">
			<use xlink:href="#SVGID_119_"  style="overflow:visible;"/>
		</clipPath>
		<g class="st63">
			<g>
				<path id="C2_0_8a2dce3e58_3_" class="st28" d="M208.4,156.3c0.4,0,0.8-0.2,1.1-0.5c0.3-0.3,0.5-0.7,0.5-1.1s-0.2-0.8-0.5-1.1
					c-0.3-0.3-0.7-0.5-1.1-0.5s-0.8,0.2-1.1,0.5c-0.3,0.3-0.5,0.7-0.5,1.1s0.2,0.8,0.5,1.1C207.6,156.2,208,156.3,208.4,156.3z"/>
			</g>
		</g>
	</g>
	<g>
		<defs>
			<rect id="SVGID_121_" x="36.5" y="31.9" width="206.4" height="134"/>
		</defs>
		<clipPath id="SVGID_122_">
			<use xlink:href="#SVGID_121_"  style="overflow:visible;"/>
		</clipPath>
		<g class="st64">
			<g>
				<path id="C2_0_8a2dce3e58_4_" class="st28" d="M208.5,154.1c0.4,0,0.8-0.2,1.1-0.5c0.3-0.3,0.5-0.7,0.5-1.1s-0.2-0.8-0.5-1.1
					c-0.3-0.3-0.7-0.5-1.1-0.5s-0.8,0.2-1.1,0.5c-0.3,0.3-0.5,0.7-0.5,1.1s0.2,0.8,0.5,1.1C207.7,153.9,208.1,154.1,208.5,154.1z"/>
			</g>
		</g>
	</g>
	<g>
		<defs>
			<rect id="SVGID_123_" x="36.5" y="31.9" width="206.4" height="134"/>
		</defs>
		<clipPath id="SVGID_124_">
			<use xlink:href="#SVGID_123_"  style="overflow:visible;"/>
		</clipPath>
		<g class="st65">
			<g>
				<path id="C2_0_8a2dce3e58_5_" class="st28" d="M205.3,154.1c0.4,0,0.8-0.2,1.1-0.5c0.3-0.3,0.5-0.7,0.5-1.1s-0.2-0.8-0.5-1.1
					c-0.3-0.3-0.7-0.5-1.1-0.5s-0.8,0.2-1.1,0.5c-0.3,0.3-0.5,0.7-0.5,1.1s0.2,0.8,0.5,1.1C204.5,153.9,204.9,154.1,205.3,154.1z"/>
			</g>
		</g>
	</g>
	<g>
		<defs>
			<rect id="SVGID_125_" x="36.5" y="31.9" width="206.4" height="134"/>
		</defs>
		<clipPath id="SVGID_126_">
			<use xlink:href="#SVGID_125_"  style="overflow:visible;"/>
		</clipPath>
		<g class="st66">
			<g>
				<path id="C2_0_8a2dce3e58_6_" class="st28" d="M208.5,146c0.4,0,0.8-0.2,1.1-0.5c0.3-0.3,0.5-0.7,0.5-1.1s-0.2-0.8-0.5-1.1
					c-0.3-0.3-0.7-0.5-1.1-0.5s-0.8,0.2-1.1,0.5c-0.3,0.3-0.5,0.7-0.5,1.1s0.2,0.8,0.5,1.1C207.7,145.8,208.1,146,208.5,146z"/>
			</g>
		</g>
	</g>
	<g>
		<defs>
			<rect id="SVGID_127_" x="36.5" y="31.9" width="206.4" height="134"/>
		</defs>
		<clipPath id="SVGID_128_">
			<use xlink:href="#SVGID_127_"  style="overflow:visible;"/>
		</clipPath>
		<g class="st67">
			<g>
				<path id="C2_0_8a2dce3e58_7_" class="st28" d="M206.6,143.5c0.4,0,0.8-0.2,1.1-0.5c0.3-0.3,0.5-0.7,0.5-1.1s-0.2-0.8-0.5-1.1
					c-0.3-0.3-0.7-0.5-1.1-0.5s-0.8,0.2-1.1,0.5c-0.3,0.3-0.5,0.7-0.5,1.1s0.2,0.8,0.5,1.1C205.8,143.3,206.2,143.5,206.6,143.5z"/>
			</g>
		</g>
	</g>
	<g>
		<defs>
			<rect id="SVGID_129_" x="36.5" y="31.9" width="206.4" height="134"/>
		</defs>
		<clipPath id="SVGID_130_">
			<use xlink:href="#SVGID_129_"  style="overflow:visible;"/>
		</clipPath>
		<g class="st68">
			<g>
				<path id="C2_0_8a2dce3e58_8_" class="st28" d="M208.5,139.4c0.4,0,0.8-0.2,1.1-0.5c0.3-0.3,0.5-0.7,0.5-1.1s-0.2-0.8-0.5-1.1
					c-0.3-0.3-0.7-0.5-1.1-0.5s-0.8,0.2-1.1,0.5c-0.3,0.3-0.5,0.7-0.5,1.1s0.2,0.8,0.5,1.1C207.7,139.3,208.1,139.4,208.5,139.4z"/>
			</g>
		</g>
	</g>
	<g>
		<defs>
			<rect id="SVGID_131_" x="36.5" y="31.9" width="206.4" height="134"/>
		</defs>
		<clipPath id="SVGID_132_">
			<use xlink:href="#SVGID_131_"  style="overflow:visible;"/>
		</clipPath>
		<g class="st69">
			<g>
				<path id="C2_0_8a2dce3e58_9_" class="st28" d="M205.3,139.4c0.4,0,0.8-0.2,1.1-0.5c0.3-0.3,0.5-0.7,0.5-1.1s-0.2-0.8-0.5-1.1
					c-0.3-0.3-0.7-0.5-1.1-0.5s-0.8,0.2-1.1,0.5c-0.3,0.3-0.5,0.7-0.5,1.1s0.2,0.8,0.5,1.1C204.5,139.3,204.9,139.4,205.3,139.4z"/>
			</g>
		</g>
	</g>
	<g>
		<defs>
			<rect id="SVGID_133_" x="36.5" y="31.9" width="206.4" height="134"/>
		</defs>
		<clipPath id="SVGID_134_">
			<use xlink:href="#SVGID_133_"  style="overflow:visible;"/>
		</clipPath>
		<g class="st70">
			<g>
				<path id="C2_0_8a2dce3e58_10_" class="st28" d="M211.3,137.9c0.4,0,0.8-0.2,1.1-0.5c0.3-0.3,0.5-0.7,0.5-1.1s-0.2-0.8-0.5-1.1
					c-0.3-0.3-0.7-0.5-1.1-0.5s-0.8,0.2-1.1,0.5c-0.3,0.3-0.5,0.7-0.5,1.1s0.2,0.8,0.5,1.1C210.5,137.8,210.9,137.9,211.3,137.9z"/>
			</g>
		</g>
	</g>
	<g>
		<defs>
			<rect id="SVGID_135_" x="36.5" y="33.1" width="206.4" height="134"/>
		</defs>
		<clipPath id="SVGID_136_">
			<use xlink:href="#SVGID_135_"  style="overflow:visible;"/>
		</clipPath>
		<g class="st71">
			<g>
				<path id="C2_0_8a2dce3e58_11_" class="st28" d="M208.5,128.6c0.4,0,0.8-0.2,1.1-0.5c0.3-0.3,0.5-0.7,0.5-1.1s-0.2-0.8-0.5-1.1
					c-0.3-0.3-0.7-0.5-1.1-0.5s-0.8,0.2-1.1,0.5c-0.3,0.3-0.5,0.7-0.5,1.1s0.2,0.8,0.5,1.1C207.7,128.4,208.1,128.6,208.5,128.6z"/>
			</g>
		</g>
	</g>
	<g>
		<defs>
			<rect id="SVGID_137_" x="36.5" y="31.9" width="206.4" height="134"/>
		</defs>
		<clipPath id="SVGID_138_">
			<use xlink:href="#SVGID_137_"  style="overflow:visible;"/>
		</clipPath>
		<g class="st72">
			<g>
				<path id="C2_0_8a2dce3e58_12_" class="st28" d="M206.6,124.8c0.4,0,0.8-0.2,1.1-0.5c0.3-0.3,0.5-0.7,0.5-1.1s-0.2-0.8-0.5-1.1
					c-0.3-0.3-0.7-0.5-1.1-0.5s-0.8,0.2-1.1,0.5c-0.3,0.3-0.5,0.7-0.5,1.1s0.2,0.8,0.5,1.1C205.8,124.6,206.2,124.8,206.6,124.8z"/>
			</g>
		</g>
	</g>
	<g>
		<defs>
			<rect id="SVGID_139_" x="36.5" y="31.9" width="206.4" height="134"/>
		</defs>
		<clipPath id="SVGID_140_">
			<use xlink:href="#SVGID_139_"  style="overflow:visible;"/>
		</clipPath>
		<g class="st73">
			<g>
				<path id="C2_0_8a2dce3e58_13_" class="st28" d="M210.4,124.8c0.4,0,0.8-0.2,1.1-0.5c0.3-0.3,0.5-0.7,0.5-1.1s-0.2-0.8-0.5-1.1
					c-0.3-0.3-0.7-0.5-1.1-0.5s-0.8,0.2-1.1,0.5c-0.3,0.3-0.5,0.7-0.5,1.1s0.2,0.8,0.5,1.1C209.6,124.6,210,124.8,210.4,124.8z"/>
			</g>
		</g>
	</g>
	<g>
		<defs>
			<rect id="SVGID_141_" x="36.5" y="31.9" width="206.4" height="134"/>
		</defs>
		<clipPath id="SVGID_142_">
			<use xlink:href="#SVGID_141_"  style="overflow:visible;"/>
		</clipPath>
		<g class="st74">
			<g>
				<path id="C2_0_8a2dce3e58_14_" class="st28" d="M203.4,124.8c0.4,0,0.8-0.2,1.1-0.5c0.3-0.3,0.5-0.7,0.5-1.1s-0.2-0.8-0.5-1.1
					c-0.3-0.3-0.7-0.5-1.1-0.5s-0.8,0.2-1.1,0.5c-0.3,0.3-0.5,0.7-0.5,1.1s0.2,0.8,0.5,1.1C202.6,124.6,203,124.8,203.4,124.8z"/>
			</g>
		</g>
	</g>
	<g>
		<defs>
			<rect id="SVGID_143_" x="36.5" y="31.9" width="206.4" height="134"/>
		</defs>
		<clipPath id="SVGID_144_">
			<use xlink:href="#SVGID_143_"  style="overflow:visible;"/>
		</clipPath>
		<g class="st75">
			<g>
				<path id="C2_0_8a2dce3e58_15_" class="st28" d="M213.6,124.8c0.4,0,0.8-0.2,1.1-0.5c0.3-0.3,0.5-0.7,0.5-1.1s-0.2-0.8-0.5-1.1
					c-0.3-0.3-0.7-0.5-1.1-0.5s-0.8,0.2-1.1,0.5c-0.3,0.3-0.5,0.7-0.5,1.1s0.2,0.8,0.5,1.1C212.8,124.6,213.2,124.8,213.6,124.8z"/>
			</g>
		</g>
	</g>
</g>
</svg>
