<?xml version="1.0" encoding="utf-8" standalone="no"?>
<!DOCTYPE svg PUBLIC "-//W3C//DTD SVG 1.1//EN"
  "http://www.w3.org/Graphics/SVG/1.1/DTD/svg11.dtd">
<!-- Created with matplotlib (https://matplotlib.org/) -->
<svg height="180pt" version="1.1" viewBox="0 0 1080 180" width="1080pt" xmlns="http://www.w3.org/2000/svg" xmlns:xlink="http://www.w3.org/1999/xlink">
 <defs>
  <style type="text/css">
*{stroke-linecap:butt;stroke-linejoin:round;}
  </style>
 </defs>
 <g id="figure_1">
  <g id="patch_1">
   <path d="M 0 180 
L 1080 180 
L 1080 0 
L 0 0 
z
" style="fill:#ffffff;"/>
  </g>
  <g id="axes_1">
   <g id="patch_2">
    <path d="M 135 157.5 
L 279.310345 157.5 
L 279.310345 21.6 
L 135 21.6 
z
" style="fill:#ffffff;"/>
   </g>
   <g id="patch_3">
    <path clip-path="url(#p7678312673)" d="M 193.078818 135.601422 
L 181.995074 135.601422 
" style="stroke:#000000;stroke-linejoin:miter;stroke-width:0.5;"/>
   </g>
   <g id="patch_4">
    <path clip-path="url(#p7678312673)" d="M 204.162562 135.601422 
L 193.078818 135.601422 
" style="stroke:#000000;stroke-linejoin:miter;stroke-width:0.5;"/>
   </g>
   <g id="patch_5">
    <path clip-path="url(#p7678312673)" d="M 215.246305 135.601422 
L 204.162562 135.601422 
" style="stroke:#000000;stroke-linejoin:miter;stroke-width:0.5;"/>
   </g>
   <g id="patch_6">
    <path clip-path="url(#p7678312673)" d="M 226.330049 135.601422 
L 215.246305 135.601422 
" style="stroke:#000000;stroke-linejoin:miter;stroke-width:0.5;"/>
   </g>
   <g id="patch_7">
    <path clip-path="url(#p7678312673)" d="M 237.413793 119.499526 
L 226.330049 135.601422 
" style="stroke:#000000;stroke-linejoin:miter;stroke-width:0.5;"/>
   </g>
   <g id="patch_8">
    <path clip-path="url(#p7678312673)" d="M 237.413793 119.499526 
L 226.330049 103.39763 
" style="stroke:#000000;stroke-linejoin:miter;stroke-width:0.5;"/>
   </g>
   <g id="patch_9">
    <path clip-path="url(#p7678312673)" d="M 248.497537 119.499526 
L 237.413793 119.499526 
" style="stroke:#000000;stroke-linejoin:miter;stroke-width:0.5;"/>
   </g>
   <g id="patch_10">
    <path clip-path="url(#p7678312673)" d="M 259.581281 119.499526 
L 248.497537 119.499526 
" style="stroke:#000000;stroke-linejoin:miter;stroke-width:0.5;"/>
   </g>
   <g id="ce77f160b67948fd90ebe4c5a732d6b4-1-node">
    <path clip-path="url(#p7678312673)" d="M 261.465517 114.024882 
L 261.465517 124.974171 
L 257.697044 124.974171 
L 257.697044 114.024882 
L 261.465517 114.024882 
z
" style="fill:#0000ff;stroke:#ffffff;stroke-linejoin:miter;stroke-width:0.5;"/>
   </g>
   <g id="ce77f160b67948fd90ebe4c5a732d6b4-3-node">
    <path clip-path="url(#p7678312673)" d="M 250.381773 114.024882 
L 250.381773 124.974171 
L 246.6133 124.974171 
L 246.6133 114.024882 
L 250.381773 114.024882 
z
" style="fill:#0000ff;stroke:#ffffff;stroke-linejoin:miter;stroke-width:0.5;"/>
   </g>
   <g id="ce77f160b67948fd90ebe4c5a732d6b4-5-node">
    <path clip-path="url(#p7678312673)" d="M 237.413793 124.974171 
C 237.913498 124.974171 238.392804 124.397328 238.746149 123.370684 
C 239.099495 122.344041 239.29803 120.951419 239.29803 119.499526 
C 239.29803 118.047633 239.099495 116.655011 238.746149 115.628368 
C 238.392804 114.601725 237.913498 114.024882 237.413793 114.024882 
C 236.914088 114.024882 236.434782 114.601725 236.081437 115.628368 
C 235.728092 116.655011 235.529557 118.047633 235.529557 119.499526 
C 235.529557 120.951419 235.728092 122.344041 236.081437 123.370684 
C 236.434782 124.397328 236.914088 124.974171 237.413793 124.974171 
z
" style="fill:#00c832;stroke:#ffffff;stroke-linejoin:miter;stroke-width:0.5;"/>
   </g>
   <g id="ce77f160b67948fd90ebe4c5a732d6b4-7-node">
    <path clip-path="url(#p7678312673)" d="M 226.330049 141.076066 
C 226.829755 141.076066 227.309061 140.499223 227.662406 139.47258 
C 228.015751 138.445937 228.214286 137.053315 228.214286 135.601422 
C 228.214286 134.149529 228.015751 132.756907 227.662406 131.730264 
C 227.309061 130.70362 226.829755 130.126777 226.330049 130.126777 
C 225.830344 130.126777 225.351038 130.70362 224.997693 131.730264 
C 224.644348 132.756907 224.445813 134.149529 224.445813 135.601422 
C 224.445813 137.053315 224.644348 138.445937 224.997693 139.47258 
C 225.351038 140.499223 225.830344 141.076066 226.330049 141.076066 
z
" style="fill:#00c832;stroke:#ffffff;stroke-linejoin:miter;stroke-width:0.5;"/>
   </g>
   <g id="ce77f160b67948fd90ebe4c5a732d6b4-8-node">
    <path clip-path="url(#p7678312673)" d="M 217.130542 130.126777 
L 217.130542 141.076066 
L 213.362069 141.076066 
L 213.362069 130.126777 
L 217.130542 130.126777 
z
" style="fill:#0000ff;stroke:#ffffff;stroke-linejoin:miter;stroke-width:0.5;"/>
   </g>
   <g id="ce77f160b67948fd90ebe4c5a732d6b4-10-node">
    <path clip-path="url(#p7678312673)" d="M 204.162562 141.076066 
C 204.662267 141.076066 205.141573 140.499223 205.494918 139.47258 
C 205.848263 138.445937 206.046798 137.053315 206.046798 135.601422 
C 206.046798 134.149529 205.848263 132.756907 205.494918 131.730264 
C 205.141573 130.70362 204.662267 130.126777 204.162562 130.126777 
C 203.662856 130.126777 203.18355 130.70362 202.830205 131.730264 
C 202.47686 132.756907 202.278325 134.149529 202.278325 135.601422 
C 202.278325 137.053315 202.47686 138.445937 202.830205 139.47258 
C 203.18355 140.499223 203.662856 141.076066 204.162562 141.076066 
z
" style="fill:#ffff00;stroke:#ffffff;stroke-linejoin:miter;stroke-width:0.5;"/>
   </g>
   <g id="ce77f160b67948fd90ebe4c5a732d6b4-11-node">
    <path clip-path="url(#p7678312673)" d="M 194.963054 130.126777 
L 194.963054 141.076066 
L 191.194581 141.076066 
L 191.194581 130.126777 
L 194.963054 130.126777 
z
" style="fill:#0000ff;stroke:#ffffff;stroke-linejoin:miter;stroke-width:0.5;"/>
   </g>
   <g id="ce77f160b67948fd90ebe4c5a732d6b4-13-node">
    <path clip-path="url(#p7678312673)" d="M 181.995074 141.076066 
C 182.494779 141.076066 182.974085 140.499223 183.32743 139.47258 
C 183.680775 138.445937 183.87931 137.053315 183.87931 135.601422 
C 183.87931 134.149529 183.680775 132.756907 183.32743 131.730264 
C 182.974085 130.70362 182.494779 130.126777 181.995074 130.126777 
C 181.495369 130.126777 181.016063 130.70362 180.662718 131.730264 
C 180.309372 132.756907 180.110837 134.149529 180.110837 135.601422 
C 180.110837 137.053315 180.309372 138.445937 180.662718 139.47258 
C 181.016063 140.499223 181.495369 141.076066 181.995074 141.076066 
z
" style="fill:#ffff00;stroke:#ffffff;stroke-linejoin:miter;stroke-width:0.5;"/>
   </g>
   <g id="ce77f160b67948fd90ebe4c5a732d6b4-6-node">
    <path clip-path="url(#p7678312673)" d="M 226.330049 108.872275 
C 226.829755 108.872275 227.309061 108.295432 227.662406 107.268789 
C 228.015751 106.242145 228.214286 104.849523 228.214286 103.39763 
C 228.214286 101.945738 228.015751 100.553115 227.662406 99.526472 
C 227.309061 98.499829 226.829755 97.922986 226.330049 97.922986 
C 225.830344 97.922986 225.351038 98.499829 224.997693 99.526472 
C 224.644348 100.553115 224.445813 101.945738 224.445813 103.39763 
C 224.445813 104.849523 224.644348 106.242145 224.997693 107.268789 
C 225.351038 108.295432 225.830344 108.872275 226.330049 108.872275 
z
" style="fill:#00c832;stroke:#ffffff;stroke-linejoin:miter;stroke-width:0.5;"/>
   </g>
   <g id="patch_11">
    <path d="M 135 157.5 
L 135 21.6 
" style="fill:none;stroke:#ffffff;stroke-linecap:square;stroke-linejoin:miter;stroke-width:1.25;"/>
   </g>
   <g id="patch_12">
    <path d="M 279.310345 157.5 
L 279.310345 21.6 
" style="fill:none;stroke:#ffffff;stroke-linecap:square;stroke-linejoin:miter;stroke-width:1.25;"/>
   </g>
   <g id="patch_13">
    <path d="M 135 157.5 
L 279.310345 157.5 
" style="fill:none;stroke:#ffffff;stroke-linecap:square;stroke-linejoin:miter;stroke-width:1.25;"/>
   </g>
   <g id="patch_14">
    <path d="M 135 21.6 
L 279.310345 21.6 
" style="fill:none;stroke:#ffffff;stroke-linecap:square;stroke-linejoin:miter;stroke-width:1.25;"/>
   </g>
   <g id="text_1">
    <!-- 46:2.0 -->
    <defs>
     <path d="M 32.328125 0 
L 32.328125 17.140625 
L 1.265625 17.140625 
L 1.265625 25.203125 
L 33.9375 71.578125 
L 41.109375 71.578125 
L 41.109375 25.203125 
L 50.78125 25.203125 
L 50.78125 17.140625 
L 41.109375 17.140625 
L 41.109375 0 
z
M 32.328125 25.203125 
L 32.328125 57.46875 
L 9.90625 25.203125 
z
" id="ArialMT-52"/>
     <path d="M 49.75 54.046875 
L 41.015625 53.375 
Q 39.84375 58.546875 37.703125 60.890625 
Q 34.125 64.65625 28.90625 64.65625 
Q 24.703125 64.65625 21.53125 62.3125 
Q 17.390625 59.28125 14.984375 53.46875 
Q 12.59375 47.65625 12.5 36.921875 
Q 15.671875 41.75 20.265625 44.09375 
Q 24.859375 46.4375 29.890625 46.4375 
Q 38.671875 46.4375 44.84375 39.96875 
Q 51.03125 33.5 51.03125 23.25 
Q 51.03125 16.5 48.125 10.71875 
Q 45.21875 4.9375 40.140625 1.859375 
Q 35.0625 -1.21875 28.609375 -1.21875 
Q 17.625 -1.21875 10.6875 6.859375 
Q 3.765625 14.9375 3.765625 33.5 
Q 3.765625 54.25 11.421875 63.671875 
Q 18.109375 71.875 29.4375 71.875 
Q 37.890625 71.875 43.28125 67.140625 
Q 48.6875 62.40625 49.75 54.046875 
z
M 13.875 23.1875 
Q 13.875 18.65625 15.796875 14.5 
Q 17.71875 10.359375 21.1875 8.171875 
Q 24.65625 6 28.46875 6 
Q 34.03125 6 38.03125 10.484375 
Q 42.046875 14.984375 42.046875 22.703125 
Q 42.046875 30.125 38.078125 34.390625 
Q 34.125 38.671875 28.125 38.671875 
Q 22.171875 38.671875 18.015625 34.390625 
Q 13.875 30.125 13.875 23.1875 
z
" id="ArialMT-54"/>
     <path d="M 9.03125 41.84375 
L 9.03125 51.859375 
L 19.046875 51.859375 
L 19.046875 41.84375 
z
M 9.03125 0 
L 9.03125 10.015625 
L 19.046875 10.015625 
L 19.046875 0 
z
" id="ArialMT-58"/>
     <path d="M 50.34375 8.453125 
L 50.34375 0 
L 3.03125 0 
Q 2.9375 3.171875 4.046875 6.109375 
Q 5.859375 10.9375 9.828125 15.625 
Q 13.8125 20.3125 21.34375 26.46875 
Q 33.015625 36.03125 37.109375 41.625 
Q 41.21875 47.21875 41.21875 52.203125 
Q 41.21875 57.421875 37.46875 61 
Q 33.734375 64.59375 27.734375 64.59375 
Q 21.390625 64.59375 17.578125 60.78125 
Q 13.765625 56.984375 13.71875 50.25 
L 4.6875 51.171875 
Q 5.609375 61.28125 11.65625 66.578125 
Q 17.71875 71.875 27.9375 71.875 
Q 38.234375 71.875 44.234375 66.15625 
Q 50.25 60.453125 50.25 52 
Q 50.25 47.703125 48.484375 43.546875 
Q 46.734375 39.40625 42.65625 34.8125 
Q 38.578125 30.21875 29.109375 22.21875 
Q 21.1875 15.578125 18.9375 13.203125 
Q 16.703125 10.84375 15.234375 8.453125 
z
" id="ArialMT-50"/>
     <path d="M 9.078125 0 
L 9.078125 10.015625 
L 19.09375 10.015625 
L 19.09375 0 
z
" id="ArialMT-46"/>
     <path d="M 4.15625 35.296875 
Q 4.15625 48 6.765625 55.734375 
Q 9.375 63.484375 14.515625 67.671875 
Q 19.671875 71.875 27.484375 71.875 
Q 33.25 71.875 37.59375 69.546875 
Q 41.9375 67.234375 44.765625 62.859375 
Q 47.609375 58.5 49.21875 52.21875 
Q 50.828125 45.953125 50.828125 35.296875 
Q 50.828125 22.703125 48.234375 14.96875 
Q 45.65625 7.234375 40.5 3 
Q 35.359375 -1.21875 27.484375 -1.21875 
Q 17.140625 -1.21875 11.234375 6.203125 
Q 4.15625 15.140625 4.15625 35.296875 
z
M 13.1875 35.296875 
Q 13.1875 17.671875 17.3125 11.828125 
Q 21.4375 6 27.484375 6 
Q 33.546875 6 37.671875 11.859375 
Q 41.796875 17.71875 41.796875 35.296875 
Q 41.796875 52.984375 37.671875 58.78125 
Q 33.546875 64.59375 27.390625 64.59375 
Q 21.34375 64.59375 17.71875 59.46875 
Q 13.1875 52.9375 13.1875 35.296875 
z
" id="ArialMT-48"/>
    </defs>
    <g style="fill:#262626;" transform="translate(190.475172 15.6)scale(0.12 -0.12)">
     <use xlink:href="#ArialMT-52"/>
     <use x="55.615234" xlink:href="#ArialMT-54"/>
     <use x="111.230469" xlink:href="#ArialMT-58"/>
     <use x="139.013672" xlink:href="#ArialMT-50"/>
     <use x="194.628906" xlink:href="#ArialMT-46"/>
     <use x="222.412109" xlink:href="#ArialMT-48"/>
    </g>
   </g>
  </g>
  <g id="axes_2">
   <g id="patch_15">
    <path d="M 308.172414 157.5 
L 452.482759 157.5 
L 452.482759 21.6 
L 308.172414 21.6 
z
" style="fill:#ffffff;"/>
   </g>
   <g id="patch_16">
    <path clip-path="url(#p9a2adeddf2)" d="M 366.251232 135.601422 
L 355.167488 135.601422 
" style="stroke:#000000;stroke-linejoin:miter;stroke-width:0.5;"/>
   </g>
   <g id="patch_17">
    <path clip-path="url(#p9a2adeddf2)" d="M 377.334975 135.601422 
L 366.251232 135.601422 
" style="stroke:#000000;stroke-linejoin:miter;stroke-width:0.5;"/>
   </g>
   <g id="patch_18">
    <path clip-path="url(#p9a2adeddf2)" d="M 388.418719 135.601422 
L 377.334975 135.601422 
" style="stroke:#000000;stroke-linejoin:miter;stroke-width:0.5;"/>
   </g>
   <g id="patch_19">
    <path clip-path="url(#p9a2adeddf2)" d="M 399.502463 135.601422 
L 388.418719 135.601422 
" style="stroke:#000000;stroke-linejoin:miter;stroke-width:0.5;"/>
   </g>
   <g id="patch_20">
    <path clip-path="url(#p9a2adeddf2)" d="M 410.586207 119.499526 
L 399.502463 135.601422 
" style="stroke:#000000;stroke-linejoin:miter;stroke-width:0.5;"/>
   </g>
   <g id="patch_21">
    <path clip-path="url(#p9a2adeddf2)" d="M 410.586207 119.499526 
L 399.502463 103.39763 
" style="stroke:#000000;stroke-linejoin:miter;stroke-width:0.5;"/>
   </g>
   <g id="patch_22">
    <path clip-path="url(#p9a2adeddf2)" d="M 421.669951 119.499526 
L 410.586207 119.499526 
" style="stroke:#000000;stroke-linejoin:miter;stroke-width:0.5;"/>
   </g>
   <g id="patch_23">
    <path clip-path="url(#p9a2adeddf2)" d="M 432.753695 119.499526 
L 421.669951 119.499526 
" style="stroke:#000000;stroke-linejoin:miter;stroke-width:0.5;"/>
   </g>
   <g id="patch_24">
    <path clip-path="url(#p9a2adeddf2)" d="M 432.753695 119.499526 
L 432.753695 103.39763 
" style="stroke:#000000;stroke-linejoin:miter;stroke-width:0.5;"/>
   </g>
   <g id="aba15e6d3c5d477b916f1b1c71bbc68b-1-node">
    <path clip-path="url(#p9a2adeddf2)" d="M 434.637931 114.024882 
L 434.637931 124.974171 
L 430.869458 124.974171 
L 430.869458 114.024882 
L 434.637931 114.024882 
z
" style="fill:#0000ff;stroke:#ffffff;stroke-linejoin:miter;stroke-width:0.5;"/>
   </g>
   <g id="aba15e6d3c5d477b916f1b1c71bbc68b-4-node">
    <path clip-path="url(#p9a2adeddf2)" d="M 423.554187 114.024882 
L 423.554187 124.974171 
L 419.785714 124.974171 
L 419.785714 114.024882 
L 423.554187 114.024882 
z
" style="fill:#0000ff;stroke:#ffffff;stroke-linejoin:miter;stroke-width:0.5;"/>
   </g>
   <g id="aba15e6d3c5d477b916f1b1c71bbc68b-6-node">
    <path clip-path="url(#p9a2adeddf2)" d="M 410.586207 124.974171 
C 411.085912 124.974171 411.565218 124.397328 411.918563 123.370684 
C 412.271908 122.344041 412.470443 120.951419 412.470443 119.499526 
C 412.470443 118.047633 412.271908 116.655011 411.918563 115.628368 
C 411.565218 114.601725 411.085912 114.024882 410.586207 114.024882 
C 410.086502 114.024882 409.607196 114.601725 409.253851 115.628368 
C 408.900505 116.655011 408.70197 118.047633 408.70197 119.499526 
C 408.70197 120.951419 408.900505 122.344041 409.253851 123.370684 
C 409.607196 124.397328 410.086502 124.974171 410.586207 124.974171 
z
" style="fill:#00c832;stroke:#ffffff;stroke-linejoin:miter;stroke-width:0.5;"/>
   </g>
   <g id="aba15e6d3c5d477b916f1b1c71bbc68b-8-node">
    <path clip-path="url(#p9a2adeddf2)" d="M 399.502463 141.076066 
C 400.002168 141.076066 400.481474 140.499223 400.834819 139.47258 
C 401.188164 138.445937 401.3867 137.053315 401.3867 135.601422 
C 401.3867 134.149529 401.188164 132.756907 400.834819 131.730264 
C 400.481474 130.70362 400.002168 130.126777 399.502463 130.126777 
C 399.002758 130.126777 398.523452 130.70362 398.170107 131.730264 
C 397.816762 132.756907 397.618227 134.149529 397.618227 135.601422 
C 397.618227 137.053315 397.816762 138.445937 398.170107 139.47258 
C 398.523452 140.499223 399.002758 141.076066 399.502463 141.076066 
z
" style="fill:#00c832;stroke:#ffffff;stroke-linejoin:miter;stroke-width:0.5;"/>
   </g>
   <g id="aba15e6d3c5d477b916f1b1c71bbc68b-9-node">
    <path clip-path="url(#p9a2adeddf2)" d="M 390.302956 130.126777 
L 390.302956 141.076066 
L 386.534483 141.076066 
L 386.534483 130.126777 
L 390.302956 130.126777 
z
" style="fill:#0000ff;stroke:#ffffff;stroke-linejoin:miter;stroke-width:0.5;"/>
   </g>
   <g id="aba15e6d3c5d477b916f1b1c71bbc68b-11-node">
    <path clip-path="url(#p9a2adeddf2)" d="M 377.334975 141.076066 
C 377.834681 141.076066 378.313987 140.499223 378.667332 139.47258 
C 379.020677 138.445937 379.219212 137.053315 379.219212 135.601422 
C 379.219212 134.149529 379.020677 132.756907 378.667332 131.730264 
C 378.313987 130.70362 377.834681 130.126777 377.334975 130.126777 
C 376.83527 130.126777 376.355964 130.70362 376.002619 131.730264 
C 375.649274 132.756907 375.450739 134.149529 375.450739 135.601422 
C 375.450739 137.053315 375.649274 138.445937 376.002619 139.47258 
C 376.355964 140.499223 376.83527 141.076066 377.334975 141.076066 
z
" style="fill:#ffff00;stroke:#ffffff;stroke-linejoin:miter;stroke-width:0.5;"/>
   </g>
   <g id="aba15e6d3c5d477b916f1b1c71bbc68b-12-node">
    <path clip-path="url(#p9a2adeddf2)" d="M 368.135468 130.126777 
L 368.135468 141.076066 
L 364.366995 141.076066 
L 364.366995 130.126777 
L 368.135468 130.126777 
z
" style="fill:#0000ff;stroke:#ffffff;stroke-linejoin:miter;stroke-width:0.5;"/>
   </g>
   <g id="aba15e6d3c5d477b916f1b1c71bbc68b-14-node">
    <path clip-path="url(#p9a2adeddf2)" d="M 355.167488 141.076066 
C 355.667193 141.076066 356.146499 140.499223 356.499844 139.47258 
C 356.853189 138.445937 357.051724 137.053315 357.051724 135.601422 
C 357.051724 134.149529 356.853189 132.756907 356.499844 131.730264 
C 356.146499 130.70362 355.667193 130.126777 355.167488 130.126777 
C 354.667782 130.126777 354.188476 130.70362 353.835131 131.730264 
C 353.481786 132.756907 353.283251 134.149529 353.283251 135.601422 
C 353.283251 137.053315 353.481786 138.445937 353.835131 139.47258 
C 354.188476 140.499223 354.667782 141.076066 355.167488 141.076066 
z
" style="fill:#ffff00;stroke:#ffffff;stroke-linejoin:miter;stroke-width:0.5;"/>
   </g>
   <g id="aba15e6d3c5d477b916f1b1c71bbc68b-7-node">
    <path clip-path="url(#p9a2adeddf2)" d="M 399.502463 108.872275 
C 400.002168 108.872275 400.481474 108.295432 400.834819 107.268789 
C 401.188164 106.242145 401.3867 104.849523 401.3867 103.39763 
C 401.3867 101.945738 401.188164 100.553115 400.834819 99.526472 
C 400.481474 98.499829 400.002168 97.922986 399.502463 97.922986 
C 399.002758 97.922986 398.523452 98.499829 398.170107 99.526472 
C 397.816762 100.553115 397.618227 101.945738 397.618227 103.39763 
C 397.618227 104.849523 397.816762 106.242145 398.170107 107.268789 
C 398.523452 108.295432 399.002758 108.872275 399.502463 108.872275 
z
" style="fill:#00c832;stroke:#ffffff;stroke-linejoin:miter;stroke-width:0.5;"/>
   </g>
   <g id="aba15e6d3c5d477b916f1b1c71bbc68b-3-node">
    <path clip-path="url(#p9a2adeddf2)" d="M 432.753695 97.922986 
L 431.121898 106.134953 
L 434.385491 106.134953 
z
" style="fill:#ff0000;stroke:#ffffff;stroke-linejoin:miter;stroke-width:0.5;"/>
   </g>
   <g id="patch_25">
    <path d="M 308.172414 157.5 
L 308.172414 21.6 
" style="fill:none;stroke:#ffffff;stroke-linecap:square;stroke-linejoin:miter;stroke-width:1.25;"/>
   </g>
   <g id="patch_26">
    <path d="M 452.482759 157.5 
L 452.482759 21.6 
" style="fill:none;stroke:#ffffff;stroke-linecap:square;stroke-linejoin:miter;stroke-width:1.25;"/>
   </g>
   <g id="patch_27">
    <path d="M 308.172414 157.5 
L 452.482759 157.5 
" style="fill:none;stroke:#ffffff;stroke-linecap:square;stroke-linejoin:miter;stroke-width:1.25;"/>
   </g>
   <g id="patch_28">
    <path d="M 308.172414 21.6 
L 452.482759 21.6 
" style="fill:none;stroke:#ffffff;stroke-linecap:square;stroke-linejoin:miter;stroke-width:1.25;"/>
   </g>
   <g id="text_2">
    <!-- 98:2.0 -->
    <defs>
     <path d="M 5.46875 16.546875 
L 13.921875 17.328125 
Q 14.984375 11.375 18.015625 8.6875 
Q 21.046875 6 25.78125 6 
Q 29.828125 6 32.875 7.859375 
Q 35.9375 9.71875 37.890625 12.8125 
Q 39.84375 15.921875 41.15625 21.1875 
Q 42.484375 26.46875 42.484375 31.9375 
Q 42.484375 32.515625 42.4375 33.6875 
Q 39.796875 29.5 35.234375 26.875 
Q 30.671875 24.265625 25.34375 24.265625 
Q 16.453125 24.265625 10.296875 30.703125 
Q 4.15625 37.15625 4.15625 47.703125 
Q 4.15625 58.59375 10.578125 65.234375 
Q 17 71.875 26.65625 71.875 
Q 33.640625 71.875 39.421875 68.109375 
Q 45.21875 64.359375 48.21875 57.390625 
Q 51.21875 50.4375 51.21875 37.25 
Q 51.21875 23.53125 48.234375 15.40625 
Q 45.265625 7.28125 39.375 3.03125 
Q 33.5 -1.21875 25.59375 -1.21875 
Q 17.1875 -1.21875 11.859375 3.4375 
Q 6.546875 8.109375 5.46875 16.546875 
z
M 41.453125 48.140625 
Q 41.453125 55.71875 37.421875 60.15625 
Q 33.40625 64.59375 27.734375 64.59375 
Q 21.875 64.59375 17.53125 59.8125 
Q 13.1875 55.03125 13.1875 47.40625 
Q 13.1875 40.578125 17.3125 36.296875 
Q 21.4375 32.03125 27.484375 32.03125 
Q 33.59375 32.03125 37.515625 36.296875 
Q 41.453125 40.578125 41.453125 48.140625 
z
" id="ArialMT-57"/>
     <path d="M 17.671875 38.8125 
Q 12.203125 40.828125 9.5625 44.53125 
Q 6.9375 48.25 6.9375 53.421875 
Q 6.9375 61.234375 12.546875 66.546875 
Q 18.171875 71.875 27.484375 71.875 
Q 36.859375 71.875 42.578125 66.421875 
Q 48.296875 60.984375 48.296875 53.171875 
Q 48.296875 48.1875 45.671875 44.5 
Q 43.0625 40.828125 37.75 38.8125 
Q 44.34375 36.671875 47.78125 31.875 
Q 51.21875 27.09375 51.21875 20.453125 
Q 51.21875 11.28125 44.71875 5.03125 
Q 38.234375 -1.21875 27.640625 -1.21875 
Q 17.046875 -1.21875 10.546875 5.046875 
Q 4.046875 11.328125 4.046875 20.703125 
Q 4.046875 27.6875 7.59375 32.390625 
Q 11.140625 37.109375 17.671875 38.8125 
z
M 15.921875 53.71875 
Q 15.921875 48.640625 19.1875 45.40625 
Q 22.46875 42.1875 27.6875 42.1875 
Q 32.765625 42.1875 36.015625 45.375 
Q 39.265625 48.578125 39.265625 53.21875 
Q 39.265625 58.0625 35.90625 61.359375 
Q 32.5625 64.65625 27.59375 64.65625 
Q 22.5625 64.65625 19.234375 61.421875 
Q 15.921875 58.203125 15.921875 53.71875 
z
M 13.09375 20.65625 
Q 13.09375 16.890625 14.875 13.375 
Q 16.65625 9.859375 20.171875 7.921875 
Q 23.6875 6 27.734375 6 
Q 34.03125 6 38.125 10.046875 
Q 42.234375 14.109375 42.234375 20.359375 
Q 42.234375 26.703125 38.015625 30.859375 
Q 33.796875 35.015625 27.4375 35.015625 
Q 21.234375 35.015625 17.15625 30.90625 
Q 13.09375 26.8125 13.09375 20.65625 
z
" id="ArialMT-56"/>
    </defs>
    <g style="fill:#262626;" transform="translate(363.647586 15.6)scale(0.12 -0.12)">
     <use xlink:href="#ArialMT-57"/>
     <use x="55.615234" xlink:href="#ArialMT-56"/>
     <use x="111.230469" xlink:href="#ArialMT-58"/>
     <use x="139.013672" xlink:href="#ArialMT-50"/>
     <use x="194.628906" xlink:href="#ArialMT-46"/>
     <use x="222.412109" xlink:href="#ArialMT-48"/>
    </g>
   </g>
  </g>
  <g id="axes_3">
   <g id="patch_29">
    <path d="M 481.344828 157.5 
L 625.655172 157.5 
L 625.655172 21.6 
L 481.344828 21.6 
z
" style="fill:#ffffff;"/>
   </g>
   <g id="patch_30">
    <path clip-path="url(#p3aac79d0ee)" d="M 535.530321 137.669099 
L 526.315101 137.669099 
" style="stroke:#000000;stroke-linejoin:miter;stroke-width:0.5;"/>
   </g>
   <g id="patch_31">
    <path clip-path="url(#p3aac79d0ee)" d="M 544.745541 137.669099 
L 535.530321 137.669099 
" style="stroke:#000000;stroke-linejoin:miter;stroke-width:0.5;"/>
   </g>
   <g id="patch_32">
    <path clip-path="url(#p3aac79d0ee)" d="M 553.960761 137.669099 
L 544.745541 137.669099 
" style="stroke:#000000;stroke-linejoin:miter;stroke-width:0.5;"/>
   </g>
   <g id="patch_33">
    <path clip-path="url(#p3aac79d0ee)" d="M 563.175981 137.669099 
L 553.960761 137.669099 
" style="stroke:#000000;stroke-linejoin:miter;stroke-width:0.5;"/>
   </g>
   <g id="patch_34">
    <path clip-path="url(#p3aac79d0ee)" d="M 572.391201 137.669099 
L 563.175981 137.669099 
" style="stroke:#000000;stroke-linejoin:miter;stroke-width:0.5;"/>
   </g>
   <g id="patch_35">
    <path clip-path="url(#p3aac79d0ee)" d="M 581.606421 137.669099 
L 572.391201 137.669099 
" style="stroke:#000000;stroke-linejoin:miter;stroke-width:0.5;"/>
   </g>
   <g id="patch_36">
    <path clip-path="url(#p3aac79d0ee)" d="M 590.821641 123.087554 
L 581.606421 137.669099 
" style="stroke:#000000;stroke-linejoin:miter;stroke-width:0.5;"/>
   </g>
   <g id="patch_37">
    <path clip-path="url(#p3aac79d0ee)" d="M 590.821641 123.087554 
L 581.606421 108.506009 
" style="stroke:#000000;stroke-linejoin:miter;stroke-width:0.5;"/>
   </g>
   <g id="patch_38">
    <path clip-path="url(#p3aac79d0ee)" d="M 600.036861 123.087554 
L 590.821641 123.087554 
" style="stroke:#000000;stroke-linejoin:miter;stroke-width:0.5;"/>
   </g>
   <g id="patch_39">
    <path clip-path="url(#p3aac79d0ee)" d="M 609.252081 123.087554 
L 600.036861 123.087554 
" style="stroke:#000000;stroke-linejoin:miter;stroke-width:0.5;"/>
   </g>
   <g id="d0f25258e261427eb0e6ac5fa1df2166-1-node">
    <path clip-path="url(#p3aac79d0ee)" d="M 610.818668 118.129828 
L 610.818668 128.045279 
L 607.685493 128.045279 
L 607.685493 118.129828 
L 610.818668 118.129828 
z
" style="fill:#0000ff;stroke:#ffffff;stroke-linejoin:miter;stroke-width:0.5;"/>
   </g>
   <g id="d0f25258e261427eb0e6ac5fa1df2166-3-node">
    <path clip-path="url(#p3aac79d0ee)" d="M 601.603448 118.129828 
L 601.603448 128.045279 
L 598.470273 128.045279 
L 598.470273 118.129828 
L 601.603448 118.129828 
z
" style="fill:#0000ff;stroke:#ffffff;stroke-linejoin:miter;stroke-width:0.5;"/>
   </g>
   <g id="d0f25258e261427eb0e6ac5fa1df2166-5-node">
    <path clip-path="url(#p3aac79d0ee)" d="M 590.821641 128.045279 
C 591.237105 128.045279 591.635608 127.522902 591.929385 126.593195 
C 592.223163 125.663488 592.388228 124.402358 592.388228 123.087554 
C 592.388228 121.77275 592.223163 120.511619 591.929385 119.581912 
C 591.635608 118.652206 591.237105 118.129828 590.821641 118.129828 
C 590.406177 118.129828 590.007674 118.652206 589.713896 119.581912 
C 589.420119 120.511619 589.255054 121.77275 589.255054 123.087554 
C 589.255054 124.402358 589.420119 125.663488 589.713896 126.593195 
C 590.007674 127.522902 590.406177 128.045279 590.821641 128.045279 
z
" style="fill:#00c832;stroke:#ffffff;stroke-linejoin:miter;stroke-width:0.5;"/>
   </g>
   <g id="d0f25258e261427eb0e6ac5fa1df2166-7-node">
    <path clip-path="url(#p3aac79d0ee)" d="M 581.606421 142.626824 
C 582.021885 142.626824 582.420388 142.104447 582.714165 141.17474 
C 583.007943 140.245033 583.173008 138.983903 583.173008 137.669099 
C 583.173008 136.354295 583.007943 135.093164 582.714165 134.163458 
C 582.420388 133.233751 582.021885 132.711373 581.606421 132.711373 
C 581.190957 132.711373 580.792454 133.233751 580.498676 134.163458 
C 580.204899 135.093164 580.039834 136.354295 580.039834 137.669099 
C 580.039834 138.983903 580.204899 140.245033 580.498676 141.17474 
C 580.792454 142.104447 581.190957 142.626824 581.606421 142.626824 
z
" style="fill:#00c832;stroke:#ffffff;stroke-linejoin:miter;stroke-width:0.5;"/>
   </g>
   <g id="d0f25258e261427eb0e6ac5fa1df2166-8-node">
    <path clip-path="url(#p3aac79d0ee)" d="M 573.957788 132.711373 
L 573.957788 142.626824 
L 570.824614 142.626824 
L 570.824614 132.711373 
L 573.957788 132.711373 
z
" style="fill:#0000ff;stroke:#ffffff;stroke-linejoin:miter;stroke-width:0.5;"/>
   </g>
   <g id="d0f25258e261427eb0e6ac5fa1df2166-10-node">
    <path clip-path="url(#p3aac79d0ee)" d="M 563.175981 142.626824 
C 563.591445 142.626824 563.989948 142.104447 564.283726 141.17474 
C 564.577503 140.245033 564.742568 138.983903 564.742568 137.669099 
C 564.742568 136.354295 564.577503 135.093164 564.283726 134.163458 
C 563.989948 133.233751 563.591445 132.711373 563.175981 132.711373 
C 562.760517 132.711373 562.362014 133.233751 562.068236 134.163458 
C 561.774459 135.093164 561.609394 136.354295 561.609394 137.669099 
C 561.609394 138.983903 561.774459 140.245033 562.068236 141.17474 
C 562.362014 142.104447 562.760517 142.626824 563.175981 142.626824 
z
" style="fill:#ffff00;stroke:#ffffff;stroke-linejoin:miter;stroke-width:0.5;"/>
   </g>
   <g id="d0f25258e261427eb0e6ac5fa1df2166-11-node">
    <path clip-path="url(#p3aac79d0ee)" d="M 555.527348 132.711373 
L 555.527348 142.626824 
L 552.394174 142.626824 
L 552.394174 132.711373 
L 555.527348 132.711373 
z
" style="fill:#0000ff;stroke:#ffffff;stroke-linejoin:miter;stroke-width:0.5;"/>
   </g>
   <g id="d0f25258e261427eb0e6ac5fa1df2166-13-node">
    <path clip-path="url(#p3aac79d0ee)" d="M 544.745541 142.626824 
C 545.161005 142.626824 545.559508 142.104447 545.853286 141.17474 
C 546.147063 140.245033 546.312128 138.983903 546.312128 137.669099 
C 546.312128 136.354295 546.147063 135.093164 545.853286 134.163458 
C 545.559508 133.233751 545.161005 132.711373 544.745541 132.711373 
C 544.330077 132.711373 543.931574 133.233751 543.637796 134.163458 
C 543.344019 135.093164 543.178954 136.354295 543.178954 137.669099 
C 543.178954 138.983903 543.344019 140.245033 543.637796 141.17474 
C 543.931574 142.104447 544.330077 142.626824 544.745541 142.626824 
z
" style="fill:#ffff00;stroke:#ffffff;stroke-linejoin:miter;stroke-width:0.5;"/>
   </g>
   <g id="d0f25258e261427eb0e6ac5fa1df2166-14-node">
    <path clip-path="url(#p3aac79d0ee)" d="M 537.096908 132.711373 
L 537.096908 142.626824 
L 533.963734 142.626824 
L 533.963734 132.711373 
L 537.096908 132.711373 
z
" style="fill:#0000ff;stroke:#ffffff;stroke-linejoin:miter;stroke-width:0.5;"/>
   </g>
   <g id="d0f25258e261427eb0e6ac5fa1df2166-16-node">
    <path clip-path="url(#p3aac79d0ee)" d="M 526.315101 142.626824 
C 526.730565 142.626824 527.129068 142.104447 527.422846 141.17474 
C 527.716623 140.245033 527.881688 138.983903 527.881688 137.669099 
C 527.881688 136.354295 527.716623 135.093164 527.422846 134.163458 
C 527.129068 133.233751 526.730565 132.711373 526.315101 132.711373 
C 525.899637 132.711373 525.501134 133.233751 525.207356 134.163458 
C 524.913579 135.093164 524.748514 136.354295 524.748514 137.669099 
C 524.748514 138.983903 524.913579 140.245033 525.207356 141.17474 
C 525.501134 142.104447 525.899637 142.626824 526.315101 142.626824 
z
" style="fill:#ffff00;stroke:#ffffff;stroke-linejoin:miter;stroke-width:0.5;"/>
   </g>
   <g id="d0f25258e261427eb0e6ac5fa1df2166-6-node">
    <path clip-path="url(#p3aac79d0ee)" d="M 581.606421 113.463734 
C 582.021885 113.463734 582.420388 112.941357 582.714165 112.01165 
C 583.007943 111.081943 583.173008 109.820813 583.173008 108.506009 
C 583.173008 107.191204 583.007943 105.930074 582.714165 105.000367 
C 582.420388 104.07066 582.021885 103.548283 581.606421 103.548283 
C 581.190957 103.548283 580.792454 104.07066 580.498676 105.000367 
C 580.204899 105.930074 580.039834 107.191204 580.039834 108.506009 
C 580.039834 109.820813 580.204899 111.081943 580.498676 112.01165 
C 580.792454 112.941357 581.190957 113.463734 581.606421 113.463734 
z
" style="fill:#00c832;stroke:#ffffff;stroke-linejoin:miter;stroke-width:0.5;"/>
   </g>
   <g id="patch_40">
    <path d="M 481.344828 157.5 
L 481.344828 21.6 
" style="fill:none;stroke:#ffffff;stroke-linecap:square;stroke-linejoin:miter;stroke-width:1.25;"/>
   </g>
   <g id="patch_41">
    <path d="M 625.655172 157.5 
L 625.655172 21.6 
" style="fill:none;stroke:#ffffff;stroke-linecap:square;stroke-linejoin:miter;stroke-width:1.25;"/>
   </g>
   <g id="patch_42">
    <path d="M 481.344828 157.5 
L 625.655172 157.5 
" style="fill:none;stroke:#ffffff;stroke-linecap:square;stroke-linejoin:miter;stroke-width:1.25;"/>
   </g>
   <g id="patch_43">
    <path d="M 481.344828 21.6 
L 625.655172 21.6 
" style="fill:none;stroke:#ffffff;stroke-linecap:square;stroke-linejoin:miter;stroke-width:1.25;"/>
   </g>
   <g id="text_3">
    <!-- 197:2.0 -->
    <defs>
     <path d="M 37.25 0 
L 28.46875 0 
L 28.46875 56 
Q 25.296875 52.984375 20.140625 49.953125 
Q 14.984375 46.921875 10.890625 45.40625 
L 10.890625 53.90625 
Q 18.265625 57.375 23.78125 62.296875 
Q 29.296875 67.234375 31.59375 71.875 
L 37.25 71.875 
z
" id="ArialMT-49"/>
     <path d="M 4.734375 62.203125 
L 4.734375 70.65625 
L 51.078125 70.65625 
L 51.078125 63.8125 
Q 44.234375 56.546875 37.515625 44.484375 
Q 30.8125 32.421875 27.15625 19.671875 
Q 24.515625 10.6875 23.78125 0 
L 14.75 0 
Q 14.890625 8.453125 18.0625 20.40625 
Q 21.234375 32.375 27.171875 43.484375 
Q 33.109375 54.59375 39.796875 62.203125 
z
" id="ArialMT-55"/>
    </defs>
    <g style="fill:#262626;" transform="translate(533.483438 15.6)scale(0.12 -0.12)">
     <use xlink:href="#ArialMT-49"/>
     <use x="55.615234" xlink:href="#ArialMT-57"/>
     <use x="111.230469" xlink:href="#ArialMT-55"/>
     <use x="166.845703" xlink:href="#ArialMT-58"/>
     <use x="194.628906" xlink:href="#ArialMT-50"/>
     <use x="250.244141" xlink:href="#ArialMT-46"/>
     <use x="278.027344" xlink:href="#ArialMT-48"/>
    </g>
   </g>
  </g>
  <g id="axes_4">
   <g id="patch_44">
    <path d="M 654.517241 157.5 
L 798.827586 157.5 
L 798.827586 21.6 
L 654.517241 21.6 
z
" style="fill:#ffffff;"/>
   </g>
   <g id="patch_45">
    <path clip-path="url(#p65f5afffd6)" d="M 708.702735 137.669099 
L 699.487515 137.669099 
" style="stroke:#000000;stroke-linejoin:miter;stroke-width:0.5;"/>
   </g>
   <g id="patch_46">
    <path clip-path="url(#p65f5afffd6)" d="M 717.917955 137.669099 
L 708.702735 137.669099 
" style="stroke:#000000;stroke-linejoin:miter;stroke-width:0.5;"/>
   </g>
   <g id="patch_47">
    <path clip-path="url(#p65f5afffd6)" d="M 727.133175 137.669099 
L 717.917955 137.669099 
" style="stroke:#000000;stroke-linejoin:miter;stroke-width:0.5;"/>
   </g>
   <g id="patch_48">
    <path clip-path="url(#p65f5afffd6)" d="M 736.348395 137.669099 
L 727.133175 137.669099 
" style="stroke:#000000;stroke-linejoin:miter;stroke-width:0.5;"/>
   </g>
   <g id="patch_49">
    <path clip-path="url(#p65f5afffd6)" d="M 745.563615 137.669099 
L 736.348395 137.669099 
" style="stroke:#000000;stroke-linejoin:miter;stroke-width:0.5;"/>
   </g>
   <g id="patch_50">
    <path clip-path="url(#p65f5afffd6)" d="M 754.778835 137.669099 
L 745.563615 137.669099 
" style="stroke:#000000;stroke-linejoin:miter;stroke-width:0.5;"/>
   </g>
   <g id="patch_51">
    <path clip-path="url(#p65f5afffd6)" d="M 763.994055 123.087554 
L 754.778835 137.669099 
" style="stroke:#000000;stroke-linejoin:miter;stroke-width:0.5;"/>
   </g>
   <g id="patch_52">
    <path clip-path="url(#p65f5afffd6)" d="M 763.994055 123.087554 
L 754.778835 108.506009 
" style="stroke:#000000;stroke-linejoin:miter;stroke-width:0.5;"/>
   </g>
   <g id="patch_53">
    <path clip-path="url(#p65f5afffd6)" d="M 773.209275 123.087554 
L 763.994055 123.087554 
" style="stroke:#000000;stroke-linejoin:miter;stroke-width:0.5;"/>
   </g>
   <g id="patch_54">
    <path clip-path="url(#p65f5afffd6)" d="M 782.424495 123.087554 
L 773.209275 123.087554 
" style="stroke:#000000;stroke-linejoin:miter;stroke-width:0.5;"/>
   </g>
   <g id="patch_55">
    <path clip-path="url(#p65f5afffd6)" d="M 782.424495 123.087554 
L 782.424495 108.506009 
" style="stroke:#000000;stroke-linejoin:miter;stroke-width:0.5;"/>
   </g>
   <g id="6f647c3c42754221ad17c6132dded845-1-node">
    <path clip-path="url(#p65f5afffd6)" d="M 783.991082 118.129828 
L 783.991082 128.045279 
L 780.857907 128.045279 
L 780.857907 118.129828 
L 783.991082 118.129828 
z
" style="fill:#0000ff;stroke:#ffffff;stroke-linejoin:miter;stroke-width:0.5;"/>
   </g>
   <g id="6f647c3c42754221ad17c6132dded845-4-node">
    <path clip-path="url(#p65f5afffd6)" d="M 774.775862 118.129828 
L 774.775862 128.045279 
L 771.642687 128.045279 
L 771.642687 118.129828 
L 774.775862 118.129828 
z
" style="fill:#0000ff;stroke:#ffffff;stroke-linejoin:miter;stroke-width:0.5;"/>
   </g>
   <g id="6f647c3c42754221ad17c6132dded845-6-node">
    <path clip-path="url(#p65f5afffd6)" d="M 763.994055 128.045279 
C 764.409519 128.045279 764.808022 127.522902 765.101799 126.593195 
C 765.395577 125.663488 765.560642 124.402358 765.560642 123.087554 
C 765.560642 121.77275 765.395577 120.511619 765.101799 119.581912 
C 764.808022 118.652206 764.409519 118.129828 763.994055 118.129828 
C 763.578591 118.129828 763.180087 118.652206 762.88631 119.581912 
C 762.592533 120.511619 762.427467 121.77275 762.427467 123.087554 
C 762.427467 124.402358 762.592533 125.663488 762.88631 126.593195 
C 763.180087 127.522902 763.578591 128.045279 763.994055 128.045279 
z
" style="fill:#00c832;stroke:#ffffff;stroke-linejoin:miter;stroke-width:0.5;"/>
   </g>
   <g id="6f647c3c42754221ad17c6132dded845-8-node">
    <path clip-path="url(#p65f5afffd6)" d="M 754.778835 142.626824 
C 755.194299 142.626824 755.592802 142.104447 755.886579 141.17474 
C 756.180357 140.245033 756.345422 138.983903 756.345422 137.669099 
C 756.345422 136.354295 756.180357 135.093164 755.886579 134.163458 
C 755.592802 133.233751 755.194299 132.711373 754.778835 132.711373 
C 754.363371 132.711373 753.964867 133.233751 753.67109 134.163458 
C 753.377313 135.093164 753.212247 136.354295 753.212247 137.669099 
C 753.212247 138.983903 753.377313 140.245033 753.67109 141.17474 
C 753.964867 142.104447 754.363371 142.626824 754.778835 142.626824 
z
" style="fill:#00c832;stroke:#ffffff;stroke-linejoin:miter;stroke-width:0.5;"/>
   </g>
   <g id="6f647c3c42754221ad17c6132dded845-9-node">
    <path clip-path="url(#p65f5afffd6)" d="M 747.130202 132.711373 
L 747.130202 142.626824 
L 743.997027 142.626824 
L 743.997027 132.711373 
L 747.130202 132.711373 
z
" style="fill:#0000ff;stroke:#ffffff;stroke-linejoin:miter;stroke-width:0.5;"/>
   </g>
   <g id="6f647c3c42754221ad17c6132dded845-11-node">
    <path clip-path="url(#p65f5afffd6)" d="M 736.348395 142.626824 
C 736.763859 142.626824 737.162362 142.104447 737.456139 141.17474 
C 737.749917 140.245033 737.914982 138.983903 737.914982 137.669099 
C 737.914982 136.354295 737.749917 135.093164 737.456139 134.163458 
C 737.162362 133.233751 736.763859 132.711373 736.348395 132.711373 
C 735.932931 132.711373 735.534427 133.233751 735.24065 134.163458 
C 734.946873 135.093164 734.781807 136.354295 734.781807 137.669099 
C 734.781807 138.983903 734.946873 140.245033 735.24065 141.17474 
C 735.534427 142.104447 735.932931 142.626824 736.348395 142.626824 
z
" style="fill:#ffff00;stroke:#ffffff;stroke-linejoin:miter;stroke-width:0.5;"/>
   </g>
   <g id="6f647c3c42754221ad17c6132dded845-12-node">
    <path clip-path="url(#p65f5afffd6)" d="M 728.699762 132.711373 
L 728.699762 142.626824 
L 725.566587 142.626824 
L 725.566587 132.711373 
L 728.699762 132.711373 
z
" style="fill:#0000ff;stroke:#ffffff;stroke-linejoin:miter;stroke-width:0.5;"/>
   </g>
   <g id="6f647c3c42754221ad17c6132dded845-14-node">
    <path clip-path="url(#p65f5afffd6)" d="M 717.917955 142.626824 
C 718.333419 142.626824 718.731922 142.104447 719.025699 141.17474 
C 719.319477 140.245033 719.484542 138.983903 719.484542 137.669099 
C 719.484542 136.354295 719.319477 135.093164 719.025699 134.163458 
C 718.731922 133.233751 718.333419 132.711373 717.917955 132.711373 
C 717.502491 132.711373 717.103988 133.233751 716.81021 134.163458 
C 716.516433 135.093164 716.351367 136.354295 716.351367 137.669099 
C 716.351367 138.983903 716.516433 140.245033 716.81021 141.17474 
C 717.103988 142.104447 717.502491 142.626824 717.917955 142.626824 
z
" style="fill:#ffff00;stroke:#ffffff;stroke-linejoin:miter;stroke-width:0.5;"/>
   </g>
   <g id="6f647c3c42754221ad17c6132dded845-15-node">
    <path clip-path="url(#p65f5afffd6)" d="M 710.269322 132.711373 
L 710.269322 142.626824 
L 707.136147 142.626824 
L 707.136147 132.711373 
L 710.269322 132.711373 
z
" style="fill:#0000ff;stroke:#ffffff;stroke-linejoin:miter;stroke-width:0.5;"/>
   </g>
   <g id="6f647c3c42754221ad17c6132dded845-17-node">
    <path clip-path="url(#p65f5afffd6)" d="M 699.487515 142.626824 
C 699.902979 142.626824 700.301482 142.104447 700.595259 141.17474 
C 700.889037 140.245033 701.054102 138.983903 701.054102 137.669099 
C 701.054102 136.354295 700.889037 135.093164 700.595259 134.163458 
C 700.301482 133.233751 699.902979 132.711373 699.487515 132.711373 
C 699.072051 132.711373 698.673548 133.233751 698.37977 134.163458 
C 698.085993 135.093164 697.920927 136.354295 697.920927 137.669099 
C 697.920927 138.983903 698.085993 140.245033 698.37977 141.17474 
C 698.673548 142.104447 699.072051 142.626824 699.487515 142.626824 
z
" style="fill:#ffff00;stroke:#ffffff;stroke-linejoin:miter;stroke-width:0.5;"/>
   </g>
   <g id="6f647c3c42754221ad17c6132dded845-7-node">
    <path clip-path="url(#p65f5afffd6)" d="M 754.778835 113.463734 
C 755.194299 113.463734 755.592802 112.941357 755.886579 112.01165 
C 756.180357 111.081943 756.345422 109.820813 756.345422 108.506009 
C 756.345422 107.191204 756.180357 105.930074 755.886579 105.000367 
C 755.592802 104.07066 755.194299 103.548283 754.778835 103.548283 
C 754.363371 103.548283 753.964867 104.07066 753.67109 105.000367 
C 753.377313 105.930074 753.212247 107.191204 753.212247 108.506009 
C 753.212247 109.820813 753.377313 111.081943 753.67109 112.01165 
C 753.964867 112.941357 754.363371 113.463734 754.778835 113.463734 
z
" style="fill:#00c832;stroke:#ffffff;stroke-linejoin:miter;stroke-width:0.5;"/>
   </g>
   <g id="6f647c3c42754221ad17c6132dded845-3-node">
    <path clip-path="url(#p65f5afffd6)" d="M 782.424495 103.548283 
L 781.06779 110.984871 
L 783.781199 110.984871 
z
" style="fill:#ff0000;stroke:#ffffff;stroke-linejoin:miter;stroke-width:0.5;"/>
   </g>
   <g id="patch_56">
    <path d="M 654.517241 157.5 
L 654.517241 21.6 
" style="fill:none;stroke:#ffffff;stroke-linecap:square;stroke-linejoin:miter;stroke-width:1.25;"/>
   </g>
   <g id="patch_57">
    <path d="M 798.827586 157.5 
L 798.827586 21.6 
" style="fill:none;stroke:#ffffff;stroke-linecap:square;stroke-linejoin:miter;stroke-width:1.25;"/>
   </g>
   <g id="patch_58">
    <path d="M 654.517241 157.5 
L 798.827586 157.5 
" style="fill:none;stroke:#ffffff;stroke-linecap:square;stroke-linejoin:miter;stroke-width:1.25;"/>
   </g>
   <g id="patch_59">
    <path d="M 654.517241 21.6 
L 798.827586 21.6 
" style="fill:none;stroke:#ffffff;stroke-linecap:square;stroke-linejoin:miter;stroke-width:1.25;"/>
   </g>
   <g id="text_4">
    <!-- 322:2.0 -->
    <defs>
     <path d="M 4.203125 18.890625 
L 12.984375 20.0625 
Q 14.5 12.59375 18.140625 9.296875 
Q 21.78125 6 27 6 
Q 33.203125 6 37.46875 10.296875 
Q 41.75 14.59375 41.75 20.953125 
Q 41.75 27 37.796875 30.921875 
Q 33.84375 34.859375 27.734375 34.859375 
Q 25.25 34.859375 21.53125 33.890625 
L 22.515625 41.609375 
Q 23.390625 41.5 23.921875 41.5 
Q 29.546875 41.5 34.03125 44.421875 
Q 38.53125 47.359375 38.53125 53.46875 
Q 38.53125 58.296875 35.25 61.46875 
Q 31.984375 64.65625 26.8125 64.65625 
Q 21.6875 64.65625 18.265625 61.421875 
Q 14.84375 58.203125 13.875 51.765625 
L 5.078125 53.328125 
Q 6.6875 62.15625 12.390625 67.015625 
Q 18.109375 71.875 26.609375 71.875 
Q 32.46875 71.875 37.390625 69.359375 
Q 42.328125 66.84375 44.9375 62.5 
Q 47.5625 58.15625 47.5625 53.265625 
Q 47.5625 48.640625 45.0625 44.828125 
Q 42.578125 41.015625 37.703125 38.765625 
Q 44.046875 37.3125 47.5625 32.6875 
Q 51.078125 28.078125 51.078125 21.140625 
Q 51.078125 11.765625 44.234375 5.25 
Q 37.40625 -1.265625 26.953125 -1.265625 
Q 17.53125 -1.265625 11.296875 4.34375 
Q 5.078125 9.96875 4.203125 18.890625 
z
" id="ArialMT-51"/>
    </defs>
    <g style="fill:#262626;" transform="translate(706.655851 15.6)scale(0.12 -0.12)">
     <use xlink:href="#ArialMT-51"/>
     <use x="55.615234" xlink:href="#ArialMT-50"/>
     <use x="111.230469" xlink:href="#ArialMT-50"/>
     <use x="166.845703" xlink:href="#ArialMT-58"/>
     <use x="194.628906" xlink:href="#ArialMT-50"/>
     <use x="250.244141" xlink:href="#ArialMT-46"/>
     <use x="278.027344" xlink:href="#ArialMT-48"/>
    </g>
   </g>
  </g>
  <g id="axes_5">
   <g id="patch_60">
    <path d="M 827.689655 157.5 
L 972 157.5 
L 972 21.6 
L 827.689655 21.6 
z
" style="fill:#eaeaf2;"/>
   </g>
   <g id="matplotlib.axis_1">
    <g id="xtick_1">
     <g id="line2d_1">
      <path clip-path="url(#p607ddef7f1)" d="M 827.689655 157.5 
L 827.689655 21.6 
" style="fill:none;stroke:#ffffff;stroke-linecap:round;"/>
     </g>
     <g id="text_5">
      <!-- 0.00 -->
      <g style="fill:#262626;" transform="translate(816.98614 174.873594)scale(0.11 -0.11)">
       <use xlink:href="#ArialMT-48"/>
       <use x="55.615234" xlink:href="#ArialMT-46"/>
       <use x="83.398438" xlink:href="#ArialMT-48"/>
       <use x="139.013672" xlink:href="#ArialMT-48"/>
      </g>
     </g>
    </g>
    <g id="xtick_2">
     <g id="line2d_2">
      <path clip-path="url(#p607ddef7f1)" d="M 863.767241 157.5 
L 863.767241 21.6 
" style="fill:none;stroke:#ffffff;stroke-linecap:round;"/>
     </g>
     <g id="text_6">
      <!-- 0.25 -->
      <defs>
       <path d="M 4.15625 18.75 
L 13.375 19.53125 
Q 14.40625 12.796875 18.140625 9.390625 
Q 21.875 6 27.15625 6 
Q 33.5 6 37.890625 10.78125 
Q 42.28125 15.578125 42.28125 23.484375 
Q 42.28125 31 38.0625 35.34375 
Q 33.84375 39.703125 27 39.703125 
Q 22.75 39.703125 19.328125 37.765625 
Q 15.921875 35.84375 13.96875 32.765625 
L 5.71875 33.84375 
L 12.640625 70.609375 
L 48.25 70.609375 
L 48.25 62.203125 
L 19.671875 62.203125 
L 15.828125 42.96875 
Q 22.265625 47.46875 29.34375 47.46875 
Q 38.71875 47.46875 45.15625 40.96875 
Q 51.609375 34.46875 51.609375 24.265625 
Q 51.609375 14.546875 45.953125 7.46875 
Q 39.0625 -1.21875 27.15625 -1.21875 
Q 17.390625 -1.21875 11.203125 4.25 
Q 5.03125 9.71875 4.15625 18.75 
z
" id="ArialMT-53"/>
      </defs>
      <g style="fill:#262626;" transform="translate(853.063726 174.873594)scale(0.11 -0.11)">
       <use xlink:href="#ArialMT-48"/>
       <use x="55.615234" xlink:href="#ArialMT-46"/>
       <use x="83.398438" xlink:href="#ArialMT-50"/>
       <use x="139.013672" xlink:href="#ArialMT-53"/>
      </g>
     </g>
    </g>
    <g id="xtick_3">
     <g id="line2d_3">
      <path clip-path="url(#p607ddef7f1)" d="M 899.844828 157.5 
L 899.844828 21.6 
" style="fill:none;stroke:#ffffff;stroke-linecap:round;"/>
     </g>
     <g id="text_7">
      <!-- 0.50 -->
      <g style="fill:#262626;" transform="translate(889.141312 174.873594)scale(0.11 -0.11)">
       <use xlink:href="#ArialMT-48"/>
       <use x="55.615234" xlink:href="#ArialMT-46"/>
       <use x="83.398438" xlink:href="#ArialMT-53"/>
       <use x="139.013672" xlink:href="#ArialMT-48"/>
      </g>
     </g>
    </g>
    <g id="xtick_4">
     <g id="line2d_4">
      <path clip-path="url(#p607ddef7f1)" d="M 935.922414 157.5 
L 935.922414 21.6 
" style="fill:none;stroke:#ffffff;stroke-linecap:round;"/>
     </g>
     <g id="text_8">
      <!-- 0.75 -->
      <g style="fill:#262626;" transform="translate(925.218898 174.873594)scale(0.11 -0.11)">
       <use xlink:href="#ArialMT-48"/>
       <use x="55.615234" xlink:href="#ArialMT-46"/>
       <use x="83.398438" xlink:href="#ArialMT-55"/>
       <use x="139.013672" xlink:href="#ArialMT-53"/>
      </g>
     </g>
    </g>
    <g id="xtick_5">
     <g id="line2d_5">
      <path clip-path="url(#p607ddef7f1)" d="M 972 157.5 
L 972 21.6 
" style="fill:none;stroke:#ffffff;stroke-linecap:round;"/>
     </g>
     <g id="text_9">
      <!-- 1.00 -->
      <g style="fill:#262626;" transform="translate(961.296484 174.873594)scale(0.11 -0.11)">
       <use xlink:href="#ArialMT-49"/>
       <use x="55.615234" xlink:href="#ArialMT-46"/>
       <use x="83.398438" xlink:href="#ArialMT-48"/>
       <use x="139.013672" xlink:href="#ArialMT-48"/>
      </g>
     </g>
    </g>
   </g>
   <g id="matplotlib.axis_2">
    <g id="ytick_1">
     <g id="line2d_6">
      <path clip-path="url(#p607ddef7f1)" d="M 827.689655 157.5 
L 972 157.5 
" style="fill:none;stroke:#ffffff;stroke-linecap:round;"/>
     </g>
     <g id="text_10">
      <!-- 0.0 -->
      <g style="fill:#262626;" transform="translate(802.899655 161.436797)scale(0.11 -0.11)">
       <use xlink:href="#ArialMT-48"/>
       <use x="55.615234" xlink:href="#ArialMT-46"/>
       <use x="83.398438" xlink:href="#ArialMT-48"/>
      </g>
     </g>
    </g>
    <g id="ytick_2">
     <g id="line2d_7">
      <path clip-path="url(#p607ddef7f1)" d="M 827.689655 130.32 
L 972 130.32 
" style="fill:none;stroke:#ffffff;stroke-linecap:round;"/>
     </g>
     <g id="text_11">
      <!-- 0.2 -->
      <g style="fill:#262626;" transform="translate(802.899655 134.256797)scale(0.11 -0.11)">
       <use xlink:href="#ArialMT-48"/>
       <use x="55.615234" xlink:href="#ArialMT-46"/>
       <use x="83.398438" xlink:href="#ArialMT-50"/>
      </g>
     </g>
    </g>
    <g id="ytick_3">
     <g id="line2d_8">
      <path clip-path="url(#p607ddef7f1)" d="M 827.689655 103.14 
L 972 103.14 
" style="fill:none;stroke:#ffffff;stroke-linecap:round;"/>
     </g>
     <g id="text_12">
      <!-- 0.4 -->
      <g style="fill:#262626;" transform="translate(802.899655 107.076797)scale(0.11 -0.11)">
       <use xlink:href="#ArialMT-48"/>
       <use x="55.615234" xlink:href="#ArialMT-46"/>
       <use x="83.398438" xlink:href="#ArialMT-52"/>
      </g>
     </g>
    </g>
    <g id="ytick_4">
     <g id="line2d_9">
      <path clip-path="url(#p607ddef7f1)" d="M 827.689655 75.96 
L 972 75.96 
" style="fill:none;stroke:#ffffff;stroke-linecap:round;"/>
     </g>
     <g id="text_13">
      <!-- 0.6 -->
      <g style="fill:#262626;" transform="translate(802.899655 79.896797)scale(0.11 -0.11)">
       <use xlink:href="#ArialMT-48"/>
       <use x="55.615234" xlink:href="#ArialMT-46"/>
       <use x="83.398438" xlink:href="#ArialMT-54"/>
      </g>
     </g>
    </g>
    <g id="ytick_5">
     <g id="line2d_10">
      <path clip-path="url(#p607ddef7f1)" d="M 827.689655 48.78 
L 972 48.78 
" style="fill:none;stroke:#ffffff;stroke-linecap:round;"/>
     </g>
     <g id="text_14">
      <!-- 0.8 -->
      <g style="fill:#262626;" transform="translate(802.899655 52.716797)scale(0.11 -0.11)">
       <use xlink:href="#ArialMT-48"/>
       <use x="55.615234" xlink:href="#ArialMT-46"/>
       <use x="83.398438" xlink:href="#ArialMT-56"/>
      </g>
     </g>
    </g>
    <g id="ytick_6">
     <g id="line2d_11">
      <path clip-path="url(#p607ddef7f1)" d="M 827.689655 21.6 
L 972 21.6 
" style="fill:none;stroke:#ffffff;stroke-linecap:round;"/>
     </g>
     <g id="text_15">
      <!-- 1.0 -->
      <g style="fill:#262626;" transform="translate(802.899655 25.536797)scale(0.11 -0.11)">
       <use xlink:href="#ArialMT-49"/>
       <use x="55.615234" xlink:href="#ArialMT-46"/>
       <use x="83.398438" xlink:href="#ArialMT-48"/>
      </g>
     </g>
    </g>
   </g>
   <g id="patch_61">
    <path d="M 827.689655 157.5 
L 827.689655 21.6 
" style="fill:none;stroke:#ffffff;stroke-linecap:square;stroke-linejoin:miter;stroke-width:1.25;"/>
   </g>
   <g id="patch_62">
    <path d="M 972 157.5 
L 972 21.6 
" style="fill:none;stroke:#ffffff;stroke-linecap:square;stroke-linejoin:miter;stroke-width:1.25;"/>
   </g>
   <g id="patch_63">
    <path d="M 827.689655 157.5 
L 972 157.5 
" style="fill:none;stroke:#ffffff;stroke-linecap:square;stroke-linejoin:miter;stroke-width:1.25;"/>
   </g>
   <g id="patch_64">
    <path d="M 827.689655 21.6 
L 972 21.6 
" style="fill:none;stroke:#ffffff;stroke-linecap:square;stroke-linejoin:miter;stroke-width:1.25;"/>
   </g>
   <g id="text_16">
    <!-- 29 -->
    <g style="fill:#262626;" transform="translate(893.171703 15.6)scale(0.12 -0.12)">
     <use xlink:href="#ArialMT-50"/>
     <use x="55.615234" xlink:href="#ArialMT-57"/>
    </g>
   </g>
  </g>
 </g>
 <defs>
  <clipPath id="p7678312673">
   <rect height="135.9" width="144.310345" x="135" y="21.6"/>
  </clipPath>
  <clipPath id="p9a2adeddf2">
   <rect height="135.9" width="144.310345" x="308.172414" y="21.6"/>
  </clipPath>
  <clipPath id="p3aac79d0ee">
   <rect height="135.9" width="144.310345" x="481.344828" y="21.6"/>
  </clipPath>
  <clipPath id="p65f5afffd6">
   <rect height="135.9" width="144.310345" x="654.517241" y="21.6"/>
  </clipPath>
  <clipPath id="p607ddef7f1">
   <rect height="135.9" width="144.310345" x="827.689655" y="21.6"/>
  </clipPath>
 </defs>
</svg>
