<?xml version="1.0" encoding="utf-8" standalone="no"?>
<!DOCTYPE svg PUBLIC "-//W3C//DTD SVG 1.1//EN"
  "http://www.w3.org/Graphics/SVG/1.1/DTD/svg11.dtd">
<!-- Created with matplotlib (https://matplotlib.org/) -->
<svg height="180pt" version="1.1" viewBox="0 0 1080 180" width="1080pt" xmlns="http://www.w3.org/2000/svg" xmlns:xlink="http://www.w3.org/1999/xlink">
 <defs>
  <style type="text/css">
*{stroke-linecap:butt;stroke-linejoin:round;}
  </style>
 </defs>
 <g id="figure_1">
  <g id="patch_1">
   <path d="M 0 180 
L 1080 180 
L 1080 0 
L 0 0 
z
" style="fill:#ffffff;"/>
  </g>
  <g id="axes_1">
   <g id="patch_2">
    <path d="M 135 157.5 
L 279.310345 157.5 
L 279.310345 21.6 
L 135 21.6 
z
" style="fill:#ffffff;"/>
   </g>
   <g id="patch_3">
    <path clip-path="url(#pff40b400a3)" d="M 237.951298 179.244 
L 230.51262 179.244 
" style="stroke:#000000;stroke-linejoin:miter;stroke-width:0.5;"/>
   </g>
   <g id="patch_4">
    <path clip-path="url(#pff40b400a3)" d="M 245.389975 179.244 
L 237.951298 179.244 
" style="stroke:#000000;stroke-linejoin:miter;stroke-width:0.5;"/>
   </g>
   <g id="patch_5">
    <path clip-path="url(#pff40b400a3)" d="M 252.828653 153.76275 
L 245.389975 179.244 
" style="stroke:#000000;stroke-linejoin:miter;stroke-width:0.5;"/>
   </g>
   <g id="patch_6">
    <path clip-path="url(#pff40b400a3)" d="M 237.951298 145.269 
L 230.51262 145.269 
" style="stroke:#000000;stroke-linejoin:miter;stroke-width:0.5;"/>
   </g>
   <g id="patch_7">
    <path clip-path="url(#pff40b400a3)" d="M 245.389975 128.2815 
L 237.951298 145.269 
" style="stroke:#000000;stroke-linejoin:miter;stroke-width:0.5;"/>
   </g>
   <g id="patch_8">
    <path clip-path="url(#pff40b400a3)" d="M 185.880555 111.294 
L 178.441877 111.294 
" style="stroke:#000000;stroke-linejoin:miter;stroke-width:0.5;"/>
   </g>
   <g id="patch_9">
    <path clip-path="url(#pff40b400a3)" d="M 193.319232 111.294 
L 185.880555 111.294 
" style="stroke:#000000;stroke-linejoin:miter;stroke-width:0.5;"/>
   </g>
   <g id="patch_10">
    <path clip-path="url(#pff40b400a3)" d="M 200.75791 111.294 
L 193.319232 111.294 
" style="stroke:#000000;stroke-linejoin:miter;stroke-width:0.5;"/>
   </g>
   <g id="patch_11">
    <path clip-path="url(#pff40b400a3)" d="M 208.196587 111.294 
L 200.75791 111.294 
" style="stroke:#000000;stroke-linejoin:miter;stroke-width:0.5;"/>
   </g>
   <g id="patch_12">
    <path clip-path="url(#pff40b400a3)" d="M 215.635265 111.294 
L 208.196587 111.294 
" style="stroke:#000000;stroke-linejoin:miter;stroke-width:0.5;"/>
   </g>
   <g id="patch_13">
    <path clip-path="url(#pff40b400a3)" d="M 223.073942 111.294 
L 215.635265 111.294 
" style="stroke:#000000;stroke-linejoin:miter;stroke-width:0.5;"/>
   </g>
   <g id="patch_14">
    <path clip-path="url(#pff40b400a3)" d="M 230.51262 111.294 
L 223.073942 111.294 
" style="stroke:#000000;stroke-linejoin:miter;stroke-width:0.5;"/>
   </g>
   <g id="patch_15">
    <path clip-path="url(#pff40b400a3)" d="M 237.951298 111.294 
L 230.51262 111.294 
" style="stroke:#000000;stroke-linejoin:miter;stroke-width:0.5;"/>
   </g>
   <g id="patch_16">
    <path clip-path="url(#pff40b400a3)" d="M 245.389975 128.2815 
L 237.951298 111.294 
" style="stroke:#000000;stroke-linejoin:miter;stroke-width:0.5;"/>
   </g>
   <g id="patch_17">
    <path clip-path="url(#pff40b400a3)" d="M 252.828653 153.76275 
L 245.389975 128.2815 
" style="stroke:#000000;stroke-linejoin:miter;stroke-width:0.5;"/>
   </g>
   <g id="patch_18">
    <path clip-path="url(#pff40b400a3)" d="M 260.26733 153.76275 
L 252.828653 153.76275 
" style="stroke:#000000;stroke-linejoin:miter;stroke-width:0.5;"/>
   </g>
   <g id="patch_19">
    <path clip-path="url(#pff40b400a3)" d="M 267.706008 153.76275 
L 260.26733 153.76275 
" style="stroke:#000000;stroke-linejoin:miter;stroke-width:0.5;"/>
   </g>
   <g id="8ace3dad3a854c4aa385a1e3c886c16e-1-node">
    <path clip-path="url(#pff40b400a3)" d="M 268.970583 147.987 
L 268.970583 159.5385 
L 266.441433 159.5385 
L 266.441433 147.987 
L 268.970583 147.987 
z
" style="fill:#0000ff;stroke:#ffffff;stroke-linejoin:miter;stroke-width:0.5;"/>
   </g>
   <g id="8ace3dad3a854c4aa385a1e3c886c16e-3-node">
    <path clip-path="url(#pff40b400a3)" d="M 261.531905 147.987 
L 261.531905 159.5385 
L 259.002755 159.5385 
L 259.002755 147.987 
L 261.531905 147.987 
z
" style="fill:#0000ff;stroke:#ffffff;stroke-linejoin:miter;stroke-width:0.5;"/>
   </g>
   <g id="8ace3dad3a854c4aa385a1e3c886c16e-5-node">
    <path clip-path="url(#pff40b400a3)" d="M 252.828653 159.5385 
C 253.164022 159.5385 253.4857 158.929931 253.722842 157.846822 
C 253.959984 156.763713 254.093228 155.294497 254.093228 153.76275 
C 254.093228 152.231003 253.959984 150.761787 253.722842 149.678678 
C 253.4857 148.595569 253.164022 147.987 252.828653 147.987 
C 252.493283 147.987 252.171605 148.595569 251.934463 149.678678 
C 251.697321 150.761787 251.564077 152.231003 251.564077 153.76275 
C 251.564077 155.294497 251.697321 156.763713 251.934463 157.846822 
C 252.171605 158.929931 252.493283 159.5385 252.828653 159.5385 
z
" style="fill:#00c832;stroke:#ffffff;stroke-linejoin:miter;stroke-width:0.5;"/>
   </g>
   <g id="8ace3dad3a854c4aa385a1e3c886c16e-24-node">
    <path clip-path="url(#pff40b400a3)" d="M 245.389975 185.01975 
C 245.725344 185.01975 246.047023 184.411181 246.284165 183.328072 
C 246.521307 182.244963 246.65455 180.775747 246.65455 179.244 
C 246.65455 177.712253 246.521307 176.243037 246.284165 175.159928 
C 246.047023 174.076819 245.725344 173.46825 245.389975 173.46825 
C 245.054606 173.46825 244.732927 174.076819 244.495785 175.159928 
C 244.258644 176.243037 244.1254 177.712253 244.1254 179.244 
C 244.1254 180.775747 244.258644 182.244963 244.495785 183.328072 
C 244.732927 184.411181 245.054606 185.01975 245.389975 185.01975 
z
" style="fill:#00c832;stroke:#ffffff;stroke-linejoin:miter;stroke-width:0.5;"/>
   </g>
   <g id="8ace3dad3a854c4aa385a1e3c886c16e-25-node">
    <path clip-path="url(#pff40b400a3)" d="M 239.215873 173.46825 
L 239.215873 185.01975 
L 236.686722 185.01975 
L 236.686722 173.46825 
L 239.215873 173.46825 
z
" style="fill:#0000ff;stroke:#ffffff;stroke-linejoin:miter;stroke-width:0.5;"/>
   </g>
   <g id="8ace3dad3a854c4aa385a1e3c886c16e-27-node">
    <path clip-path="url(#pff40b400a3)" d="M 230.51262 185.01975 
C 230.847989 185.01975 231.169668 184.411181 231.40681 183.328072 
C 231.643952 182.244963 231.777195 180.775747 231.777195 179.244 
C 231.777195 177.712253 231.643952 176.243037 231.40681 175.159928 
C 231.169668 174.076819 230.847989 173.46825 230.51262 173.46825 
C 230.177251 173.46825 229.855572 174.076819 229.61843 175.159928 
C 229.381288 176.243037 229.248045 177.712253 229.248045 179.244 
C 229.248045 180.775747 229.381288 182.244963 229.61843 183.328072 
C 229.855572 184.411181 230.177251 185.01975 230.51262 185.01975 
z
" style="fill:#ffff00;stroke:#ffffff;stroke-linejoin:miter;stroke-width:0.5;"/>
   </g>
   <g id="8ace3dad3a854c4aa385a1e3c886c16e-6-node">
    <path clip-path="url(#pff40b400a3)" d="M 245.389975 134.05725 
C 245.725344 134.05725 246.047023 133.448681 246.284165 132.365572 
C 246.521307 131.282463 246.65455 129.813247 246.65455 128.2815 
C 246.65455 126.749753 246.521307 125.280537 246.284165 124.197428 
C 246.047023 123.114319 245.725344 122.50575 245.389975 122.50575 
C 245.054606 122.50575 244.732927 123.114319 244.495785 124.197428 
C 244.258644 125.280537 244.1254 126.749753 244.1254 128.2815 
C 244.1254 129.813247 244.258644 131.282463 244.495785 132.365572 
C 244.732927 133.448681 245.054606 134.05725 245.389975 134.05725 
z
" style="fill:#00c832;stroke:#ffffff;stroke-linejoin:miter;stroke-width:0.5;"/>
   </g>
   <g id="8ace3dad3a854c4aa385a1e3c886c16e-21-node">
    <path clip-path="url(#pff40b400a3)" d="M 239.215873 139.49325 
L 239.215873 151.04475 
L 236.686722 151.04475 
L 236.686722 139.49325 
L 239.215873 139.49325 
z
" style="fill:#0000ff;stroke:#ffffff;stroke-linejoin:miter;stroke-width:0.5;"/>
   </g>
   <g id="8ace3dad3a854c4aa385a1e3c886c16e-23-node">
    <path clip-path="url(#pff40b400a3)" d="M 230.51262 151.04475 
C 230.847989 151.04475 231.169668 150.436181 231.40681 149.353072 
C 231.643952 148.269963 231.777195 146.800747 231.777195 145.269 
C 231.777195 143.737253 231.643952 142.268037 231.40681 141.184928 
C 231.169668 140.101819 230.847989 139.49325 230.51262 139.49325 
C 230.177251 139.49325 229.855572 140.101819 229.61843 141.184928 
C 229.381288 142.268037 229.248045 143.737253 229.248045 145.269 
C 229.248045 146.800747 229.381288 148.269963 229.61843 149.353072 
C 229.855572 150.436181 230.177251 151.04475 230.51262 151.04475 
z
" style="fill:#ffff00;stroke:#ffffff;stroke-linejoin:miter;stroke-width:0.5;"/>
   </g>
   <g id="8ace3dad3a854c4aa385a1e3c886c16e-7-node">
    <path clip-path="url(#pff40b400a3)" d="M 239.215873 105.51825 
L 239.215873 117.06975 
L 236.686722 117.06975 
L 236.686722 105.51825 
L 239.215873 105.51825 
z
" style="fill:#0000ff;stroke:#ffffff;stroke-linejoin:miter;stroke-width:0.5;"/>
   </g>
   <g id="8ace3dad3a854c4aa385a1e3c886c16e-9-node">
    <path clip-path="url(#pff40b400a3)" d="M 230.51262 117.06975 
C 230.847989 117.06975 231.169668 116.461181 231.40681 115.378072 
C 231.643952 114.294963 231.777195 112.825747 231.777195 111.294 
C 231.777195 109.762253 231.643952 108.293037 231.40681 107.209928 
C 231.169668 106.126819 230.847989 105.51825 230.51262 105.51825 
C 230.177251 105.51825 229.855572 106.126819 229.61843 107.209928 
C 229.381288 108.293037 229.248045 109.762253 229.248045 111.294 
C 229.248045 112.825747 229.381288 114.294963 229.61843 115.378072 
C 229.855572 116.461181 230.177251 117.06975 230.51262 117.06975 
z
" style="fill:#ffff00;stroke:#ffffff;stroke-linejoin:miter;stroke-width:0.5;"/>
   </g>
   <g id="8ace3dad3a854c4aa385a1e3c886c16e-10-node">
    <path clip-path="url(#pff40b400a3)" d="M 224.338518 105.51825 
L 224.338518 117.06975 
L 221.809367 117.06975 
L 221.809367 105.51825 
L 224.338518 105.51825 
z
" style="fill:#0000ff;stroke:#ffffff;stroke-linejoin:miter;stroke-width:0.5;"/>
   </g>
   <g id="8ace3dad3a854c4aa385a1e3c886c16e-12-node">
    <path clip-path="url(#pff40b400a3)" d="M 215.635265 117.06975 
C 215.970634 117.06975 216.292313 116.461181 216.529455 115.378072 
C 216.766596 114.294963 216.89984 112.825747 216.89984 111.294 
C 216.89984 109.762253 216.766596 108.293037 216.529455 107.209928 
C 216.292313 106.126819 215.970634 105.51825 215.635265 105.51825 
C 215.299896 105.51825 214.978217 106.126819 214.741075 107.209928 
C 214.503933 108.293037 214.37069 109.762253 214.37069 111.294 
C 214.37069 112.825747 214.503933 114.294963 214.741075 115.378072 
C 214.978217 116.461181 215.299896 117.06975 215.635265 117.06975 
z
" style="fill:#ffff00;stroke:#ffffff;stroke-linejoin:miter;stroke-width:0.5;"/>
   </g>
   <g id="8ace3dad3a854c4aa385a1e3c886c16e-13-node">
    <path clip-path="url(#pff40b400a3)" d="M 209.461162 105.51825 
L 209.461162 117.06975 
L 206.932012 117.06975 
L 206.932012 105.51825 
L 209.461162 105.51825 
z
" style="fill:#0000ff;stroke:#ffffff;stroke-linejoin:miter;stroke-width:0.5;"/>
   </g>
   <g id="8ace3dad3a854c4aa385a1e3c886c16e-15-node">
    <path clip-path="url(#pff40b400a3)" d="M 200.75791 117.06975 
C 201.093279 117.06975 201.414958 116.461181 201.652099 115.378072 
C 201.889241 114.294963 202.022485 112.825747 202.022485 111.294 
C 202.022485 109.762253 201.889241 108.293037 201.652099 107.209928 
C 201.414958 106.126819 201.093279 105.51825 200.75791 105.51825 
C 200.42254 105.51825 200.100862 106.126819 199.86372 107.209928 
C 199.626578 108.293037 199.493335 109.762253 199.493335 111.294 
C 199.493335 112.825747 199.626578 114.294963 199.86372 115.378072 
C 200.100862 116.461181 200.42254 117.06975 200.75791 117.06975 
z
" style="fill:#ffff00;stroke:#ffffff;stroke-linejoin:miter;stroke-width:0.5;"/>
   </g>
   <g id="8ace3dad3a854c4aa385a1e3c886c16e-16-node">
    <path clip-path="url(#pff40b400a3)" d="M 194.583807 105.51825 
L 194.583807 117.06975 
L 192.054657 117.06975 
L 192.054657 105.51825 
L 194.583807 105.51825 
z
" style="fill:#0000ff;stroke:#ffffff;stroke-linejoin:miter;stroke-width:0.5;"/>
   </g>
   <g id="8ace3dad3a854c4aa385a1e3c886c16e-18-node">
    <path clip-path="url(#pff40b400a3)" d="M 185.880555 117.06975 
C 186.215924 117.06975 186.537602 116.461181 186.774744 115.378072 
C 187.011886 114.294963 187.14513 112.825747 187.14513 111.294 
C 187.14513 109.762253 187.011886 108.293037 186.774744 107.209928 
C 186.537602 106.126819 186.215924 105.51825 185.880555 105.51825 
C 185.545185 105.51825 185.223507 106.126819 184.986365 107.209928 
C 184.749223 108.293037 184.615979 109.762253 184.615979 111.294 
C 184.615979 112.825747 184.749223 114.294963 184.986365 115.378072 
C 185.223507 116.461181 185.545185 117.06975 185.880555 117.06975 
z
" style="fill:#ffff00;stroke:#ffffff;stroke-linejoin:miter;stroke-width:0.5;"/>
   </g>
   <g id="8ace3dad3a854c4aa385a1e3c886c16e-19-node">
    <path clip-path="url(#pff40b400a3)" d="M 178.441877 105.51825 
L 177.177302 111.294 
L 178.441877 117.06975 
L 179.706452 111.294 
z
" style="fill:#c800c8;stroke:#ffffff;stroke-linejoin:miter;stroke-width:0.5;"/>
   </g>
   <g id="patch_20">
    <path d="M 135 157.5 
L 135 21.6 
" style="fill:none;stroke:#ffffff;stroke-linecap:square;stroke-linejoin:miter;stroke-width:1.25;"/>
   </g>
   <g id="patch_21">
    <path d="M 279.310345 157.5 
L 279.310345 21.6 
" style="fill:none;stroke:#ffffff;stroke-linecap:square;stroke-linejoin:miter;stroke-width:1.25;"/>
   </g>
   <g id="patch_22">
    <path d="M 135 157.5 
L 279.310345 157.5 
" style="fill:none;stroke:#ffffff;stroke-linecap:square;stroke-linejoin:miter;stroke-width:1.25;"/>
   </g>
   <g id="patch_23">
    <path d="M 135 21.6 
L 279.310345 21.6 
" style="fill:none;stroke:#ffffff;stroke-linecap:square;stroke-linejoin:miter;stroke-width:1.25;"/>
   </g>
   <g id="text_1">
    <!-- 1265:4.0 -->
    <defs>
     <path d="M 37.25 0 
L 28.46875 0 
L 28.46875 56 
Q 25.296875 52.984375 20.140625 49.953125 
Q 14.984375 46.921875 10.890625 45.40625 
L 10.890625 53.90625 
Q 18.265625 57.375 23.78125 62.296875 
Q 29.296875 67.234375 31.59375 71.875 
L 37.25 71.875 
z
" id="ArialMT-49"/>
     <path d="M 50.34375 8.453125 
L 50.34375 0 
L 3.03125 0 
Q 2.9375 3.171875 4.046875 6.109375 
Q 5.859375 10.9375 9.828125 15.625 
Q 13.8125 20.3125 21.34375 26.46875 
Q 33.015625 36.03125 37.109375 41.625 
Q 41.21875 47.21875 41.21875 52.203125 
Q 41.21875 57.421875 37.46875 61 
Q 33.734375 64.59375 27.734375 64.59375 
Q 21.390625 64.59375 17.578125 60.78125 
Q 13.765625 56.984375 13.71875 50.25 
L 4.6875 51.171875 
Q 5.609375 61.28125 11.65625 66.578125 
Q 17.71875 71.875 27.9375 71.875 
Q 38.234375 71.875 44.234375 66.15625 
Q 50.25 60.453125 50.25 52 
Q 50.25 47.703125 48.484375 43.546875 
Q 46.734375 39.40625 42.65625 34.8125 
Q 38.578125 30.21875 29.109375 22.21875 
Q 21.1875 15.578125 18.9375 13.203125 
Q 16.703125 10.84375 15.234375 8.453125 
z
" id="ArialMT-50"/>
     <path d="M 49.75 54.046875 
L 41.015625 53.375 
Q 39.84375 58.546875 37.703125 60.890625 
Q 34.125 64.65625 28.90625 64.65625 
Q 24.703125 64.65625 21.53125 62.3125 
Q 17.390625 59.28125 14.984375 53.46875 
Q 12.59375 47.65625 12.5 36.921875 
Q 15.671875 41.75 20.265625 44.09375 
Q 24.859375 46.4375 29.890625 46.4375 
Q 38.671875 46.4375 44.84375 39.96875 
Q 51.03125 33.5 51.03125 23.25 
Q 51.03125 16.5 48.125 10.71875 
Q 45.21875 4.9375 40.140625 1.859375 
Q 35.0625 -1.21875 28.609375 -1.21875 
Q 17.625 -1.21875 10.6875 6.859375 
Q 3.765625 14.9375 3.765625 33.5 
Q 3.765625 54.25 11.421875 63.671875 
Q 18.109375 71.875 29.4375 71.875 
Q 37.890625 71.875 43.28125 67.140625 
Q 48.6875 62.40625 49.75 54.046875 
z
M 13.875 23.1875 
Q 13.875 18.65625 15.796875 14.5 
Q 17.71875 10.359375 21.1875 8.171875 
Q 24.65625 6 28.46875 6 
Q 34.03125 6 38.03125 10.484375 
Q 42.046875 14.984375 42.046875 22.703125 
Q 42.046875 30.125 38.078125 34.390625 
Q 34.125 38.671875 28.125 38.671875 
Q 22.171875 38.671875 18.015625 34.390625 
Q 13.875 30.125 13.875 23.1875 
z
" id="ArialMT-54"/>
     <path d="M 4.15625 18.75 
L 13.375 19.53125 
Q 14.40625 12.796875 18.140625 9.390625 
Q 21.875 6 27.15625 6 
Q 33.5 6 37.890625 10.78125 
Q 42.28125 15.578125 42.28125 23.484375 
Q 42.28125 31 38.0625 35.34375 
Q 33.84375 39.703125 27 39.703125 
Q 22.75 39.703125 19.328125 37.765625 
Q 15.921875 35.84375 13.96875 32.765625 
L 5.71875 33.84375 
L 12.640625 70.609375 
L 48.25 70.609375 
L 48.25 62.203125 
L 19.671875 62.203125 
L 15.828125 42.96875 
Q 22.265625 47.46875 29.34375 47.46875 
Q 38.71875 47.46875 45.15625 40.96875 
Q 51.609375 34.46875 51.609375 24.265625 
Q 51.609375 14.546875 45.953125 7.46875 
Q 39.0625 -1.21875 27.15625 -1.21875 
Q 17.390625 -1.21875 11.203125 4.25 
Q 5.03125 9.71875 4.15625 18.75 
z
" id="ArialMT-53"/>
     <path d="M 9.03125 41.84375 
L 9.03125 51.859375 
L 19.046875 51.859375 
L 19.046875 41.84375 
z
M 9.03125 0 
L 9.03125 10.015625 
L 19.046875 10.015625 
L 19.046875 0 
z
" id="ArialMT-58"/>
     <path d="M 32.328125 0 
L 32.328125 17.140625 
L 1.265625 17.140625 
L 1.265625 25.203125 
L 33.9375 71.578125 
L 41.109375 71.578125 
L 41.109375 25.203125 
L 50.78125 25.203125 
L 50.78125 17.140625 
L 41.109375 17.140625 
L 41.109375 0 
z
M 32.328125 25.203125 
L 32.328125 57.46875 
L 9.90625 25.203125 
z
" id="ArialMT-52"/>
     <path d="M 9.078125 0 
L 9.078125 10.015625 
L 19.09375 10.015625 
L 19.09375 0 
z
" id="ArialMT-46"/>
     <path d="M 4.15625 35.296875 
Q 4.15625 48 6.765625 55.734375 
Q 9.375 63.484375 14.515625 67.671875 
Q 19.671875 71.875 27.484375 71.875 
Q 33.25 71.875 37.59375 69.546875 
Q 41.9375 67.234375 44.765625 62.859375 
Q 47.609375 58.5 49.21875 52.21875 
Q 50.828125 45.953125 50.828125 35.296875 
Q 50.828125 22.703125 48.234375 14.96875 
Q 45.65625 7.234375 40.5 3 
Q 35.359375 -1.21875 27.484375 -1.21875 
Q 17.140625 -1.21875 11.234375 6.203125 
Q 4.15625 15.140625 4.15625 35.296875 
z
M 13.1875 35.296875 
Q 13.1875 17.671875 17.3125 11.828125 
Q 21.4375 6 27.484375 6 
Q 33.546875 6 37.671875 11.859375 
Q 41.796875 17.71875 41.796875 35.296875 
Q 41.796875 52.984375 37.671875 58.78125 
Q 33.546875 64.59375 27.390625 64.59375 
Q 21.34375 64.59375 17.71875 59.46875 
Q 13.1875 52.9375 13.1875 35.296875 
z
" id="ArialMT-48"/>
    </defs>
    <g style="fill:#262626;" transform="translate(183.802047 15.6)scale(0.12 -0.12)">
     <use xlink:href="#ArialMT-49"/>
     <use x="55.615234" xlink:href="#ArialMT-50"/>
     <use x="111.230469" xlink:href="#ArialMT-54"/>
     <use x="166.845703" xlink:href="#ArialMT-53"/>
     <use x="222.460938" xlink:href="#ArialMT-58"/>
     <use x="250.244141" xlink:href="#ArialMT-52"/>
     <use x="305.859375" xlink:href="#ArialMT-46"/>
     <use x="333.642578" xlink:href="#ArialMT-48"/>
    </g>
   </g>
  </g>
  <g id="axes_2">
   <g id="patch_24">
    <path d="M 308.172414 157.5 
L 452.482759 157.5 
L 452.482759 21.6 
L 308.172414 21.6 
z
" style="fill:#ffffff;"/>
   </g>
   <g id="patch_25">
    <path clip-path="url(#pf5ddab7084)" d="M 411.123711 179.244 
L 403.685034 179.244 
" style="stroke:#000000;stroke-linejoin:miter;stroke-width:0.5;"/>
   </g>
   <g id="patch_26">
    <path clip-path="url(#pf5ddab7084)" d="M 418.562389 179.244 
L 411.123711 179.244 
" style="stroke:#000000;stroke-linejoin:miter;stroke-width:0.5;"/>
   </g>
   <g id="patch_27">
    <path clip-path="url(#pf5ddab7084)" d="M 426.001066 153.76275 
L 418.562389 179.244 
" style="stroke:#000000;stroke-linejoin:miter;stroke-width:0.5;"/>
   </g>
   <g id="patch_28">
    <path clip-path="url(#pf5ddab7084)" d="M 411.123711 145.269 
L 403.685034 145.269 
" style="stroke:#000000;stroke-linejoin:miter;stroke-width:0.5;"/>
   </g>
   <g id="patch_29">
    <path clip-path="url(#pf5ddab7084)" d="M 418.562389 128.2815 
L 411.123711 145.269 
" style="stroke:#000000;stroke-linejoin:miter;stroke-width:0.5;"/>
   </g>
   <g id="patch_30">
    <path clip-path="url(#pf5ddab7084)" d="M 359.052968 111.294 
L 351.614291 111.294 
" style="stroke:#000000;stroke-linejoin:miter;stroke-width:0.5;"/>
   </g>
   <g id="patch_31">
    <path clip-path="url(#pf5ddab7084)" d="M 366.491646 111.294 
L 359.052968 111.294 
" style="stroke:#000000;stroke-linejoin:miter;stroke-width:0.5;"/>
   </g>
   <g id="patch_32">
    <path clip-path="url(#pf5ddab7084)" d="M 373.930323 111.294 
L 366.491646 111.294 
" style="stroke:#000000;stroke-linejoin:miter;stroke-width:0.5;"/>
   </g>
   <g id="patch_33">
    <path clip-path="url(#pf5ddab7084)" d="M 381.369001 111.294 
L 373.930323 111.294 
" style="stroke:#000000;stroke-linejoin:miter;stroke-width:0.5;"/>
   </g>
   <g id="patch_34">
    <path clip-path="url(#pf5ddab7084)" d="M 388.807679 111.294 
L 381.369001 111.294 
" style="stroke:#000000;stroke-linejoin:miter;stroke-width:0.5;"/>
   </g>
   <g id="patch_35">
    <path clip-path="url(#pf5ddab7084)" d="M 396.246356 111.294 
L 388.807679 111.294 
" style="stroke:#000000;stroke-linejoin:miter;stroke-width:0.5;"/>
   </g>
   <g id="patch_36">
    <path clip-path="url(#pf5ddab7084)" d="M 403.685034 111.294 
L 396.246356 111.294 
" style="stroke:#000000;stroke-linejoin:miter;stroke-width:0.5;"/>
   </g>
   <g id="patch_37">
    <path clip-path="url(#pf5ddab7084)" d="M 411.123711 111.294 
L 403.685034 111.294 
" style="stroke:#000000;stroke-linejoin:miter;stroke-width:0.5;"/>
   </g>
   <g id="patch_38">
    <path clip-path="url(#pf5ddab7084)" d="M 418.562389 128.2815 
L 411.123711 111.294 
" style="stroke:#000000;stroke-linejoin:miter;stroke-width:0.5;"/>
   </g>
   <g id="patch_39">
    <path clip-path="url(#pf5ddab7084)" d="M 426.001066 153.76275 
L 418.562389 128.2815 
" style="stroke:#000000;stroke-linejoin:miter;stroke-width:0.5;"/>
   </g>
   <g id="patch_40">
    <path clip-path="url(#pf5ddab7084)" d="M 433.439744 153.76275 
L 426.001066 153.76275 
" style="stroke:#000000;stroke-linejoin:miter;stroke-width:0.5;"/>
   </g>
   <g id="patch_41">
    <path clip-path="url(#pf5ddab7084)" d="M 440.878422 153.76275 
L 433.439744 153.76275 
" style="stroke:#000000;stroke-linejoin:miter;stroke-width:0.5;"/>
   </g>
   <g id="patch_42">
    <path clip-path="url(#pf5ddab7084)" d="M 440.878422 153.76275 
L 440.878422 136.77525 
" style="stroke:#000000;stroke-linejoin:miter;stroke-width:0.5;"/>
   </g>
   <g id="7817fc92a50f4d9db3219cea5ecb276f-1-node">
    <path clip-path="url(#pf5ddab7084)" d="M 442.142997 147.987 
L 442.142997 159.5385 
L 439.613846 159.5385 
L 439.613846 147.987 
L 442.142997 147.987 
z
" style="fill:#0000ff;stroke:#ffffff;stroke-linejoin:miter;stroke-width:0.5;"/>
   </g>
   <g id="7817fc92a50f4d9db3219cea5ecb276f-4-node">
    <path clip-path="url(#pf5ddab7084)" d="M 434.704319 147.987 
L 434.704319 159.5385 
L 432.175169 159.5385 
L 432.175169 147.987 
L 434.704319 147.987 
z
" style="fill:#0000ff;stroke:#ffffff;stroke-linejoin:miter;stroke-width:0.5;"/>
   </g>
   <g id="7817fc92a50f4d9db3219cea5ecb276f-6-node">
    <path clip-path="url(#pf5ddab7084)" d="M 426.001066 159.5385 
C 426.336436 159.5385 426.658114 158.929931 426.895256 157.846822 
C 427.132398 156.763713 427.265642 155.294497 427.265642 153.76275 
C 427.265642 152.231003 427.132398 150.761787 426.895256 149.678678 
C 426.658114 148.595569 426.336436 147.987 426.001066 147.987 
C 425.665697 147.987 425.344019 148.595569 425.106877 149.678678 
C 424.869735 150.761787 424.736491 152.231003 424.736491 153.76275 
C 424.736491 155.294497 424.869735 156.763713 425.106877 157.846822 
C 425.344019 158.929931 425.665697 159.5385 426.001066 159.5385 
z
" style="fill:#00c832;stroke:#ffffff;stroke-linejoin:miter;stroke-width:0.5;"/>
   </g>
   <g id="7817fc92a50f4d9db3219cea5ecb276f-25-node">
    <path clip-path="url(#pf5ddab7084)" d="M 418.562389 185.01975 
C 418.897758 185.01975 419.219437 184.411181 419.456579 183.328072 
C 419.69372 182.244963 419.826964 180.775747 419.826964 179.244 
C 419.826964 177.712253 419.69372 176.243037 419.456579 175.159928 
C 419.219437 174.076819 418.897758 173.46825 418.562389 173.46825 
C 418.22702 173.46825 417.905341 174.076819 417.668199 175.159928 
C 417.431057 176.243037 417.297814 177.712253 417.297814 179.244 
C 417.297814 180.775747 417.431057 182.244963 417.668199 183.328072 
C 417.905341 184.411181 418.22702 185.01975 418.562389 185.01975 
z
" style="fill:#00c832;stroke:#ffffff;stroke-linejoin:miter;stroke-width:0.5;"/>
   </g>
   <g id="7817fc92a50f4d9db3219cea5ecb276f-26-node">
    <path clip-path="url(#pf5ddab7084)" d="M 412.388287 173.46825 
L 412.388287 185.01975 
L 409.859136 185.01975 
L 409.859136 173.46825 
L 412.388287 173.46825 
z
" style="fill:#0000ff;stroke:#ffffff;stroke-linejoin:miter;stroke-width:0.5;"/>
   </g>
   <g id="7817fc92a50f4d9db3219cea5ecb276f-28-node">
    <path clip-path="url(#pf5ddab7084)" d="M 403.685034 185.01975 
C 404.020403 185.01975 404.342082 184.411181 404.579223 183.328072 
C 404.816365 182.244963 404.949609 180.775747 404.949609 179.244 
C 404.949609 177.712253 404.816365 176.243037 404.579223 175.159928 
C 404.342082 174.076819 404.020403 173.46825 403.685034 173.46825 
C 403.349665 173.46825 403.027986 174.076819 402.790844 175.159928 
C 402.553702 176.243037 402.420459 177.712253 402.420459 179.244 
C 402.420459 180.775747 402.553702 182.244963 402.790844 183.328072 
C 403.027986 184.411181 403.349665 185.01975 403.685034 185.01975 
z
" style="fill:#ffff00;stroke:#ffffff;stroke-linejoin:miter;stroke-width:0.5;"/>
   </g>
   <g id="7817fc92a50f4d9db3219cea5ecb276f-7-node">
    <path clip-path="url(#pf5ddab7084)" d="M 418.562389 134.05725 
C 418.897758 134.05725 419.219437 133.448681 419.456579 132.365572 
C 419.69372 131.282463 419.826964 129.813247 419.826964 128.2815 
C 419.826964 126.749753 419.69372 125.280537 419.456579 124.197428 
C 419.219437 123.114319 418.897758 122.50575 418.562389 122.50575 
C 418.22702 122.50575 417.905341 123.114319 417.668199 124.197428 
C 417.431057 125.280537 417.297814 126.749753 417.297814 128.2815 
C 417.297814 129.813247 417.431057 131.282463 417.668199 132.365572 
C 417.905341 133.448681 418.22702 134.05725 418.562389 134.05725 
z
" style="fill:#00c832;stroke:#ffffff;stroke-linejoin:miter;stroke-width:0.5;"/>
   </g>
   <g id="7817fc92a50f4d9db3219cea5ecb276f-22-node">
    <path clip-path="url(#pf5ddab7084)" d="M 412.388287 139.49325 
L 412.388287 151.04475 
L 409.859136 151.04475 
L 409.859136 139.49325 
L 412.388287 139.49325 
z
" style="fill:#0000ff;stroke:#ffffff;stroke-linejoin:miter;stroke-width:0.5;"/>
   </g>
   <g id="7817fc92a50f4d9db3219cea5ecb276f-24-node">
    <path clip-path="url(#pf5ddab7084)" d="M 403.685034 151.04475 
C 404.020403 151.04475 404.342082 150.436181 404.579223 149.353072 
C 404.816365 148.269963 404.949609 146.800747 404.949609 145.269 
C 404.949609 143.737253 404.816365 142.268037 404.579223 141.184928 
C 404.342082 140.101819 404.020403 139.49325 403.685034 139.49325 
C 403.349665 139.49325 403.027986 140.101819 402.790844 141.184928 
C 402.553702 142.268037 402.420459 143.737253 402.420459 145.269 
C 402.420459 146.800747 402.553702 148.269963 402.790844 149.353072 
C 403.027986 150.436181 403.349665 151.04475 403.685034 151.04475 
z
" style="fill:#ffff00;stroke:#ffffff;stroke-linejoin:miter;stroke-width:0.5;"/>
   </g>
   <g id="7817fc92a50f4d9db3219cea5ecb276f-8-node">
    <path clip-path="url(#pf5ddab7084)" d="M 412.388287 105.51825 
L 412.388287 117.06975 
L 409.859136 117.06975 
L 409.859136 105.51825 
L 412.388287 105.51825 
z
" style="fill:#0000ff;stroke:#ffffff;stroke-linejoin:miter;stroke-width:0.5;"/>
   </g>
   <g id="7817fc92a50f4d9db3219cea5ecb276f-10-node">
    <path clip-path="url(#pf5ddab7084)" d="M 403.685034 117.06975 
C 404.020403 117.06975 404.342082 116.461181 404.579223 115.378072 
C 404.816365 114.294963 404.949609 112.825747 404.949609 111.294 
C 404.949609 109.762253 404.816365 108.293037 404.579223 107.209928 
C 404.342082 106.126819 404.020403 105.51825 403.685034 105.51825 
C 403.349665 105.51825 403.027986 106.126819 402.790844 107.209928 
C 402.553702 108.293037 402.420459 109.762253 402.420459 111.294 
C 402.420459 112.825747 402.553702 114.294963 402.790844 115.378072 
C 403.027986 116.461181 403.349665 117.06975 403.685034 117.06975 
z
" style="fill:#ffff00;stroke:#ffffff;stroke-linejoin:miter;stroke-width:0.5;"/>
   </g>
   <g id="7817fc92a50f4d9db3219cea5ecb276f-11-node">
    <path clip-path="url(#pf5ddab7084)" d="M 397.510931 105.51825 
L 397.510931 117.06975 
L 394.981781 117.06975 
L 394.981781 105.51825 
L 397.510931 105.51825 
z
" style="fill:#0000ff;stroke:#ffffff;stroke-linejoin:miter;stroke-width:0.5;"/>
   </g>
   <g id="7817fc92a50f4d9db3219cea5ecb276f-13-node">
    <path clip-path="url(#pf5ddab7084)" d="M 388.807679 117.06975 
C 389.143048 117.06975 389.464726 116.461181 389.701868 115.378072 
C 389.93901 114.294963 390.072254 112.825747 390.072254 111.294 
C 390.072254 109.762253 389.93901 108.293037 389.701868 107.209928 
C 389.464726 106.126819 389.143048 105.51825 388.807679 105.51825 
C 388.472309 105.51825 388.150631 106.126819 387.913489 107.209928 
C 387.676347 108.293037 387.543103 109.762253 387.543103 111.294 
C 387.543103 112.825747 387.676347 114.294963 387.913489 115.378072 
C 388.150631 116.461181 388.472309 117.06975 388.807679 117.06975 
z
" style="fill:#ffff00;stroke:#ffffff;stroke-linejoin:miter;stroke-width:0.5;"/>
   </g>
   <g id="7817fc92a50f4d9db3219cea5ecb276f-14-node">
    <path clip-path="url(#pf5ddab7084)" d="M 382.633576 105.51825 
L 382.633576 117.06975 
L 380.104426 117.06975 
L 380.104426 105.51825 
L 382.633576 105.51825 
z
" style="fill:#0000ff;stroke:#ffffff;stroke-linejoin:miter;stroke-width:0.5;"/>
   </g>
   <g id="7817fc92a50f4d9db3219cea5ecb276f-16-node">
    <path clip-path="url(#pf5ddab7084)" d="M 373.930323 117.06975 
C 374.265693 117.06975 374.587371 116.461181 374.824513 115.378072 
C 375.061655 114.294963 375.194899 112.825747 375.194899 111.294 
C 375.194899 109.762253 375.061655 108.293037 374.824513 107.209928 
C 374.587371 106.126819 374.265693 105.51825 373.930323 105.51825 
C 373.594954 105.51825 373.273276 106.126819 373.036134 107.209928 
C 372.798992 108.293037 372.665748 109.762253 372.665748 111.294 
C 372.665748 112.825747 372.798992 114.294963 373.036134 115.378072 
C 373.273276 116.461181 373.594954 117.06975 373.930323 117.06975 
z
" style="fill:#ffff00;stroke:#ffffff;stroke-linejoin:miter;stroke-width:0.5;"/>
   </g>
   <g id="7817fc92a50f4d9db3219cea5ecb276f-17-node">
    <path clip-path="url(#pf5ddab7084)" d="M 367.756221 105.51825 
L 367.756221 117.06975 
L 365.227071 117.06975 
L 365.227071 105.51825 
L 367.756221 105.51825 
z
" style="fill:#0000ff;stroke:#ffffff;stroke-linejoin:miter;stroke-width:0.5;"/>
   </g>
   <g id="7817fc92a50f4d9db3219cea5ecb276f-19-node">
    <path clip-path="url(#pf5ddab7084)" d="M 359.052968 117.06975 
C 359.388338 117.06975 359.710016 116.461181 359.947158 115.378072 
C 360.1843 114.294963 360.317544 112.825747 360.317544 111.294 
C 360.317544 109.762253 360.1843 108.293037 359.947158 107.209928 
C 359.710016 106.126819 359.388338 105.51825 359.052968 105.51825 
C 358.717599 105.51825 358.395921 106.126819 358.158779 107.209928 
C 357.921637 108.293037 357.788393 109.762253 357.788393 111.294 
C 357.788393 112.825747 357.921637 114.294963 358.158779 115.378072 
C 358.395921 116.461181 358.717599 117.06975 359.052968 117.06975 
z
" style="fill:#ffff00;stroke:#ffffff;stroke-linejoin:miter;stroke-width:0.5;"/>
   </g>
   <g id="7817fc92a50f4d9db3219cea5ecb276f-20-node">
    <path clip-path="url(#pf5ddab7084)" d="M 351.614291 105.51825 
L 350.349716 111.294 
L 351.614291 117.06975 
L 352.878866 111.294 
z
" style="fill:#c800c8;stroke:#ffffff;stroke-linejoin:miter;stroke-width:0.5;"/>
   </g>
   <g id="7817fc92a50f4d9db3219cea5ecb276f-3-node">
    <path clip-path="url(#pf5ddab7084)" d="M 440.878422 130.9995 
L 439.783267 139.663125 
L 441.973576 139.663125 
z
" style="fill:#ff0000;stroke:#ffffff;stroke-linejoin:miter;stroke-width:0.5;"/>
   </g>
   <g id="patch_43">
    <path d="M 308.172414 157.5 
L 308.172414 21.6 
" style="fill:none;stroke:#ffffff;stroke-linecap:square;stroke-linejoin:miter;stroke-width:1.25;"/>
   </g>
   <g id="patch_44">
    <path d="M 452.482759 157.5 
L 452.482759 21.6 
" style="fill:none;stroke:#ffffff;stroke-linecap:square;stroke-linejoin:miter;stroke-width:1.25;"/>
   </g>
   <g id="patch_45">
    <path d="M 308.172414 157.5 
L 452.482759 157.5 
" style="fill:none;stroke:#ffffff;stroke-linecap:square;stroke-linejoin:miter;stroke-width:1.25;"/>
   </g>
   <g id="patch_46">
    <path d="M 308.172414 21.6 
L 452.482759 21.6 
" style="fill:none;stroke:#ffffff;stroke-linecap:square;stroke-linejoin:miter;stroke-width:1.25;"/>
   </g>
   <g id="text_2">
    <!-- 1348:4.0 -->
    <defs>
     <path d="M 4.203125 18.890625 
L 12.984375 20.0625 
Q 14.5 12.59375 18.140625 9.296875 
Q 21.78125 6 27 6 
Q 33.203125 6 37.46875 10.296875 
Q 41.75 14.59375 41.75 20.953125 
Q 41.75 27 37.796875 30.921875 
Q 33.84375 34.859375 27.734375 34.859375 
Q 25.25 34.859375 21.53125 33.890625 
L 22.515625 41.609375 
Q 23.390625 41.5 23.921875 41.5 
Q 29.546875 41.5 34.03125 44.421875 
Q 38.53125 47.359375 38.53125 53.46875 
Q 38.53125 58.296875 35.25 61.46875 
Q 31.984375 64.65625 26.8125 64.65625 
Q 21.6875 64.65625 18.265625 61.421875 
Q 14.84375 58.203125 13.875 51.765625 
L 5.078125 53.328125 
Q 6.6875 62.15625 12.390625 67.015625 
Q 18.109375 71.875 26.609375 71.875 
Q 32.46875 71.875 37.390625 69.359375 
Q 42.328125 66.84375 44.9375 62.5 
Q 47.5625 58.15625 47.5625 53.265625 
Q 47.5625 48.640625 45.0625 44.828125 
Q 42.578125 41.015625 37.703125 38.765625 
Q 44.046875 37.3125 47.5625 32.6875 
Q 51.078125 28.078125 51.078125 21.140625 
Q 51.078125 11.765625 44.234375 5.25 
Q 37.40625 -1.265625 26.953125 -1.265625 
Q 17.53125 -1.265625 11.296875 4.34375 
Q 5.078125 9.96875 4.203125 18.890625 
z
" id="ArialMT-51"/>
     <path d="M 17.671875 38.8125 
Q 12.203125 40.828125 9.5625 44.53125 
Q 6.9375 48.25 6.9375 53.421875 
Q 6.9375 61.234375 12.546875 66.546875 
Q 18.171875 71.875 27.484375 71.875 
Q 36.859375 71.875 42.578125 66.421875 
Q 48.296875 60.984375 48.296875 53.171875 
Q 48.296875 48.1875 45.671875 44.5 
Q 43.0625 40.828125 37.75 38.8125 
Q 44.34375 36.671875 47.78125 31.875 
Q 51.21875 27.09375 51.21875 20.453125 
Q 51.21875 11.28125 44.71875 5.03125 
Q 38.234375 -1.21875 27.640625 -1.21875 
Q 17.046875 -1.21875 10.546875 5.046875 
Q 4.046875 11.328125 4.046875 20.703125 
Q 4.046875 27.6875 7.59375 32.390625 
Q 11.140625 37.109375 17.671875 38.8125 
z
M 15.921875 53.71875 
Q 15.921875 48.640625 19.1875 45.40625 
Q 22.46875 42.1875 27.6875 42.1875 
Q 32.765625 42.1875 36.015625 45.375 
Q 39.265625 48.578125 39.265625 53.21875 
Q 39.265625 58.0625 35.90625 61.359375 
Q 32.5625 64.65625 27.59375 64.65625 
Q 22.5625 64.65625 19.234375 61.421875 
Q 15.921875 58.203125 15.921875 53.71875 
z
M 13.09375 20.65625 
Q 13.09375 16.890625 14.875 13.375 
Q 16.65625 9.859375 20.171875 7.921875 
Q 23.6875 6 27.734375 6 
Q 34.03125 6 38.125 10.046875 
Q 42.234375 14.109375 42.234375 20.359375 
Q 42.234375 26.703125 38.015625 30.859375 
Q 33.796875 35.015625 27.4375 35.015625 
Q 21.234375 35.015625 17.15625 30.90625 
Q 13.09375 26.8125 13.09375 20.65625 
z
" id="ArialMT-56"/>
    </defs>
    <g style="fill:#262626;" transform="translate(356.974461 15.6)scale(0.12 -0.12)">
     <use xlink:href="#ArialMT-49"/>
     <use x="55.615234" xlink:href="#ArialMT-51"/>
     <use x="111.230469" xlink:href="#ArialMT-52"/>
     <use x="166.845703" xlink:href="#ArialMT-56"/>
     <use x="222.460938" xlink:href="#ArialMT-58"/>
     <use x="250.244141" xlink:href="#ArialMT-52"/>
     <use x="305.859375" xlink:href="#ArialMT-46"/>
     <use x="333.642578" xlink:href="#ArialMT-48"/>
    </g>
   </g>
  </g>
  <g id="axes_3">
   <g id="patch_47">
    <path d="M 481.344828 157.5 
L 625.655172 157.5 
L 625.655172 21.6 
L 481.344828 21.6 
z
" style="fill:#ffffff;"/>
   </g>
   <g id="patch_48">
    <path clip-path="url(#p3f5512f83a)" d="M 585.477006 173.848872 
L 577.953004 173.848872 
" style="stroke:#000000;stroke-linejoin:miter;stroke-width:0.5;"/>
   </g>
   <g id="patch_49">
    <path clip-path="url(#p3f5512f83a)" d="M 593.001007 161.076316 
L 585.477006 173.848872 
" style="stroke:#000000;stroke-linejoin:miter;stroke-width:0.5;"/>
   </g>
   <g id="patch_50">
    <path clip-path="url(#p3f5512f83a)" d="M 585.477006 148.303759 
L 577.953004 148.303759 
" style="stroke:#000000;stroke-linejoin:miter;stroke-width:0.5;"/>
   </g>
   <g id="patch_51">
    <path clip-path="url(#p3f5512f83a)" d="M 593.001007 161.076316 
L 585.477006 148.303759 
" style="stroke:#000000;stroke-linejoin:miter;stroke-width:0.5;"/>
   </g>
   <g id="patch_52">
    <path clip-path="url(#p3f5512f83a)" d="M 600.525008 135.531203 
L 593.001007 161.076316 
" style="stroke:#000000;stroke-linejoin:miter;stroke-width:0.5;"/>
   </g>
   <g id="patch_53">
    <path clip-path="url(#p3f5512f83a)" d="M 585.477006 122.758647 
L 577.953004 122.758647 
" style="stroke:#000000;stroke-linejoin:miter;stroke-width:0.5;"/>
   </g>
   <g id="patch_54">
    <path clip-path="url(#p3f5512f83a)" d="M 593.001007 109.98609 
L 585.477006 122.758647 
" style="stroke:#000000;stroke-linejoin:miter;stroke-width:0.5;"/>
   </g>
   <g id="patch_55">
    <path clip-path="url(#p3f5512f83a)" d="M 532.808996 97.213534 
L 525.284995 97.213534 
" style="stroke:#000000;stroke-linejoin:miter;stroke-width:0.5;"/>
   </g>
   <g id="patch_56">
    <path clip-path="url(#p3f5512f83a)" d="M 540.332998 97.213534 
L 532.808996 97.213534 
" style="stroke:#000000;stroke-linejoin:miter;stroke-width:0.5;"/>
   </g>
   <g id="patch_57">
    <path clip-path="url(#p3f5512f83a)" d="M 547.856999 97.213534 
L 540.332998 97.213534 
" style="stroke:#000000;stroke-linejoin:miter;stroke-width:0.5;"/>
   </g>
   <g id="patch_58">
    <path clip-path="url(#p3f5512f83a)" d="M 555.381 97.213534 
L 547.856999 97.213534 
" style="stroke:#000000;stroke-linejoin:miter;stroke-width:0.5;"/>
   </g>
   <g id="patch_59">
    <path clip-path="url(#p3f5512f83a)" d="M 562.905002 97.213534 
L 555.381 97.213534 
" style="stroke:#000000;stroke-linejoin:miter;stroke-width:0.5;"/>
   </g>
   <g id="patch_60">
    <path clip-path="url(#p3f5512f83a)" d="M 570.429003 97.213534 
L 562.905002 97.213534 
" style="stroke:#000000;stroke-linejoin:miter;stroke-width:0.5;"/>
   </g>
   <g id="patch_61">
    <path clip-path="url(#p3f5512f83a)" d="M 577.953004 97.213534 
L 570.429003 97.213534 
" style="stroke:#000000;stroke-linejoin:miter;stroke-width:0.5;"/>
   </g>
   <g id="patch_62">
    <path clip-path="url(#p3f5512f83a)" d="M 585.477006 97.213534 
L 577.953004 97.213534 
" style="stroke:#000000;stroke-linejoin:miter;stroke-width:0.5;"/>
   </g>
   <g id="patch_63">
    <path clip-path="url(#p3f5512f83a)" d="M 593.001007 109.98609 
L 585.477006 97.213534 
" style="stroke:#000000;stroke-linejoin:miter;stroke-width:0.5;"/>
   </g>
   <g id="patch_64">
    <path clip-path="url(#p3f5512f83a)" d="M 600.525008 135.531203 
L 593.001007 109.98609 
" style="stroke:#000000;stroke-linejoin:miter;stroke-width:0.5;"/>
   </g>
   <g id="patch_65">
    <path clip-path="url(#p3f5512f83a)" d="M 608.049009 135.531203 
L 600.525008 135.531203 
" style="stroke:#000000;stroke-linejoin:miter;stroke-width:0.5;"/>
   </g>
   <g id="patch_66">
    <path clip-path="url(#p3f5512f83a)" d="M 615.573011 135.531203 
L 608.049009 135.531203 
" style="stroke:#000000;stroke-linejoin:miter;stroke-width:0.5;"/>
   </g>
   <g id="80e8e62354b74be1b1170284beffed25-1-node">
    <path clip-path="url(#p3f5512f83a)" d="M 616.852091 131.188534 
L 616.852091 139.873872 
L 614.29393 139.873872 
L 614.29393 131.188534 
L 616.852091 131.188534 
z
" style="fill:#0000ff;stroke:#ffffff;stroke-linejoin:miter;stroke-width:0.5;"/>
   </g>
   <g id="80e8e62354b74be1b1170284beffed25-3-node">
    <path clip-path="url(#p3f5512f83a)" d="M 609.32809 131.188534 
L 609.32809 139.873872 
L 606.769929 139.873872 
L 606.769929 131.188534 
L 609.32809 131.188534 
z
" style="fill:#0000ff;stroke:#ffffff;stroke-linejoin:miter;stroke-width:0.5;"/>
   </g>
   <g id="80e8e62354b74be1b1170284beffed25-5-node">
    <path clip-path="url(#p3f5512f83a)" d="M 600.525008 139.873872 
C 600.864224 139.873872 601.189592 139.416301 601.429454 138.601934 
C 601.669316 137.787566 601.804088 136.682892 601.804088 135.531203 
C 601.804088 134.379514 601.669316 133.27484 601.429454 132.460472 
C 601.189592 131.646105 600.864224 131.188534 600.525008 131.188534 
C 600.185792 131.188534 599.860424 131.646105 599.620562 132.460472 
C 599.3807 133.27484 599.245928 134.379514 599.245928 135.531203 
C 599.245928 136.682892 599.3807 137.787566 599.620562 138.601934 
C 599.860424 139.416301 600.185792 139.873872 600.525008 139.873872 
z
" style="fill:#00c832;stroke:#ffffff;stroke-linejoin:miter;stroke-width:0.5;"/>
   </g>
   <g id="80e8e62354b74be1b1170284beffed25-24-node">
    <path clip-path="url(#p3f5512f83a)" d="M 593.001007 165.418985 
C 593.340223 165.418985 593.665591 164.961414 593.905453 164.147047 
C 594.145315 163.332679 594.280087 162.228005 594.280087 161.076316 
C 594.280087 159.924626 594.145315 158.819952 593.905453 158.005585 
C 593.665591 157.191218 593.340223 156.733647 593.001007 156.733647 
C 592.661791 156.733647 592.336422 157.191218 592.09656 158.005585 
C 591.856699 158.819952 591.721927 159.924626 591.721927 161.076316 
C 591.721927 162.228005 591.856699 163.332679 592.09656 164.147047 
C 592.336422 164.961414 592.661791 165.418985 593.001007 165.418985 
z
" style="fill:#00c832;stroke:#ffffff;stroke-linejoin:miter;stroke-width:0.5;"/>
   </g>
   <g id="80e8e62354b74be1b1170284beffed25-28-node">
    <path clip-path="url(#p3f5512f83a)" d="M 586.756086 169.506203 
L 586.756086 178.191541 
L 584.197925 178.191541 
L 584.197925 169.506203 
L 586.756086 169.506203 
z
" style="fill:#0000ff;stroke:#ffffff;stroke-linejoin:miter;stroke-width:0.5;"/>
   </g>
   <g id="80e8e62354b74be1b1170284beffed25-30-node">
    <path clip-path="url(#p3f5512f83a)" d="M 577.953004 178.191541 
C 578.29222 178.191541 578.617589 177.73397 578.857451 176.919603 
C 579.097312 176.105236 579.232084 175.000562 579.232084 173.848872 
C 579.232084 172.697183 579.097312 171.592509 578.857451 170.778141 
C 578.617589 169.963774 578.29222 169.506203 577.953004 169.506203 
C 577.613788 169.506203 577.28842 169.963774 577.048558 170.778141 
C 576.808696 171.592509 576.673924 172.697183 576.673924 173.848872 
C 576.673924 175.000562 576.808696 176.105236 577.048558 176.919603 
C 577.28842 177.73397 577.613788 178.191541 577.953004 178.191541 
z
" style="fill:#ffff00;stroke:#ffffff;stroke-linejoin:miter;stroke-width:0.5;"/>
   </g>
   <g id="80e8e62354b74be1b1170284beffed25-25-node">
    <path clip-path="url(#p3f5512f83a)" d="M 586.756086 143.96109 
L 586.756086 152.646429 
L 584.197925 152.646429 
L 584.197925 143.96109 
L 586.756086 143.96109 
z
" style="fill:#0000ff;stroke:#ffffff;stroke-linejoin:miter;stroke-width:0.5;"/>
   </g>
   <g id="80e8e62354b74be1b1170284beffed25-27-node">
    <path clip-path="url(#p3f5512f83a)" d="M 577.953004 152.646429 
C 578.29222 152.646429 578.617589 152.188858 578.857451 151.37449 
C 579.097312 150.560123 579.232084 149.455449 579.232084 148.303759 
C 579.232084 147.15207 579.097312 146.047396 578.857451 145.233029 
C 578.617589 144.418661 578.29222 143.96109 577.953004 143.96109 
C 577.613788 143.96109 577.28842 144.418661 577.048558 145.233029 
C 576.808696 146.047396 576.673924 147.15207 576.673924 148.303759 
C 576.673924 149.455449 576.808696 150.560123 577.048558 151.37449 
C 577.28842 152.188858 577.613788 152.646429 577.953004 152.646429 
z
" style="fill:#ffff00;stroke:#ffffff;stroke-linejoin:miter;stroke-width:0.5;"/>
   </g>
   <g id="80e8e62354b74be1b1170284beffed25-6-node">
    <path clip-path="url(#p3f5512f83a)" d="M 593.001007 114.328759 
C 593.340223 114.328759 593.665591 113.871188 593.905453 113.056821 
C 594.145315 112.242454 594.280087 111.13778 594.280087 109.98609 
C 594.280087 108.834401 594.145315 107.729727 593.905453 106.915359 
C 593.665591 106.100992 593.340223 105.643421 593.001007 105.643421 
C 592.661791 105.643421 592.336422 106.100992 592.09656 106.915359 
C 591.856699 107.729727 591.721927 108.834401 591.721927 109.98609 
C 591.721927 111.13778 591.856699 112.242454 592.09656 113.056821 
C 592.336422 113.871188 592.661791 114.328759 593.001007 114.328759 
z
" style="fill:#00c832;stroke:#ffffff;stroke-linejoin:miter;stroke-width:0.5;"/>
   </g>
   <g id="80e8e62354b74be1b1170284beffed25-21-node">
    <path clip-path="url(#p3f5512f83a)" d="M 586.756086 118.415977 
L 586.756086 127.101316 
L 584.197925 127.101316 
L 584.197925 118.415977 
L 586.756086 118.415977 
z
" style="fill:#0000ff;stroke:#ffffff;stroke-linejoin:miter;stroke-width:0.5;"/>
   </g>
   <g id="80e8e62354b74be1b1170284beffed25-23-node">
    <path clip-path="url(#p3f5512f83a)" d="M 577.953004 127.101316 
C 578.29222 127.101316 578.617589 126.643745 578.857451 125.829377 
C 579.097312 125.01501 579.232084 123.910336 579.232084 122.758647 
C 579.232084 121.606957 579.097312 120.502283 578.857451 119.687916 
C 578.617589 118.873548 578.29222 118.415977 577.953004 118.415977 
C 577.613788 118.415977 577.28842 118.873548 577.048558 119.687916 
C 576.808696 120.502283 576.673924 121.606957 576.673924 122.758647 
C 576.673924 123.910336 576.808696 125.01501 577.048558 125.829377 
C 577.28842 126.643745 577.613788 127.101316 577.953004 127.101316 
z
" style="fill:#ffff00;stroke:#ffffff;stroke-linejoin:miter;stroke-width:0.5;"/>
   </g>
   <g id="80e8e62354b74be1b1170284beffed25-7-node">
    <path clip-path="url(#p3f5512f83a)" d="M 586.756086 92.870865 
L 586.756086 101.556203 
L 584.197925 101.556203 
L 584.197925 92.870865 
L 586.756086 92.870865 
z
" style="fill:#0000ff;stroke:#ffffff;stroke-linejoin:miter;stroke-width:0.5;"/>
   </g>
   <g id="80e8e62354b74be1b1170284beffed25-9-node">
    <path clip-path="url(#p3f5512f83a)" d="M 577.953004 101.556203 
C 578.29222 101.556203 578.617589 101.098632 578.857451 100.284265 
C 579.097312 99.469897 579.232084 98.365223 579.232084 97.213534 
C 579.232084 96.061845 579.097312 94.95717 578.857451 94.142803 
C 578.617589 93.328436 578.29222 92.870865 577.953004 92.870865 
C 577.613788 92.870865 577.28842 93.328436 577.048558 94.142803 
C 576.808696 94.95717 576.673924 96.061845 576.673924 97.213534 
C 576.673924 98.365223 576.808696 99.469897 577.048558 100.284265 
C 577.28842 101.098632 577.613788 101.556203 577.953004 101.556203 
z
" style="fill:#ffff00;stroke:#ffffff;stroke-linejoin:miter;stroke-width:0.5;"/>
   </g>
   <g id="80e8e62354b74be1b1170284beffed25-10-node">
    <path clip-path="url(#p3f5512f83a)" d="M 571.708083 92.870865 
L 571.708083 101.556203 
L 569.149923 101.556203 
L 569.149923 92.870865 
L 571.708083 92.870865 
z
" style="fill:#0000ff;stroke:#ffffff;stroke-linejoin:miter;stroke-width:0.5;"/>
   </g>
   <g id="80e8e62354b74be1b1170284beffed25-12-node">
    <path clip-path="url(#p3f5512f83a)" d="M 562.905002 101.556203 
C 563.244218 101.556203 563.569586 101.098632 563.809448 100.284265 
C 564.04931 99.469897 564.184082 98.365223 564.184082 97.213534 
C 564.184082 96.061845 564.04931 94.95717 563.809448 94.142803 
C 563.569586 93.328436 563.244218 92.870865 562.905002 92.870865 
C 562.565786 92.870865 562.240417 93.328436 562.000555 94.142803 
C 561.760693 94.95717 561.625921 96.061845 561.625921 97.213534 
C 561.625921 98.365223 561.760693 99.469897 562.000555 100.284265 
C 562.240417 101.098632 562.565786 101.556203 562.905002 101.556203 
z
" style="fill:#ffff00;stroke:#ffffff;stroke-linejoin:miter;stroke-width:0.5;"/>
   </g>
   <g id="80e8e62354b74be1b1170284beffed25-13-node">
    <path clip-path="url(#p3f5512f83a)" d="M 556.660081 92.870865 
L 556.660081 101.556203 
L 554.10192 101.556203 
L 554.10192 92.870865 
L 556.660081 92.870865 
z
" style="fill:#0000ff;stroke:#ffffff;stroke-linejoin:miter;stroke-width:0.5;"/>
   </g>
   <g id="80e8e62354b74be1b1170284beffed25-15-node">
    <path clip-path="url(#p3f5512f83a)" d="M 547.856999 101.556203 
C 548.196215 101.556203 548.521583 101.098632 548.761445 100.284265 
C 549.001307 99.469897 549.136079 98.365223 549.136079 97.213534 
C 549.136079 96.061845 549.001307 94.95717 548.761445 94.142803 
C 548.521583 93.328436 548.196215 92.870865 547.856999 92.870865 
C 547.517783 92.870865 547.192415 93.328436 546.952553 94.142803 
C 546.712691 94.95717 546.577919 96.061845 546.577919 97.213534 
C 546.577919 98.365223 546.712691 99.469897 546.952553 100.284265 
C 547.192415 101.098632 547.517783 101.556203 547.856999 101.556203 
z
" style="fill:#ffff00;stroke:#ffffff;stroke-linejoin:miter;stroke-width:0.5;"/>
   </g>
   <g id="80e8e62354b74be1b1170284beffed25-16-node">
    <path clip-path="url(#p3f5512f83a)" d="M 541.612078 92.870865 
L 541.612078 101.556203 
L 539.053918 101.556203 
L 539.053918 92.870865 
L 541.612078 92.870865 
z
" style="fill:#0000ff;stroke:#ffffff;stroke-linejoin:miter;stroke-width:0.5;"/>
   </g>
   <g id="80e8e62354b74be1b1170284beffed25-18-node">
    <path clip-path="url(#p3f5512f83a)" d="M 532.808996 101.556203 
C 533.148212 101.556203 533.473581 101.098632 533.713443 100.284265 
C 533.953305 99.469897 534.088077 98.365223 534.088077 97.213534 
C 534.088077 96.061845 533.953305 94.95717 533.713443 94.142803 
C 533.473581 93.328436 533.148212 92.870865 532.808996 92.870865 
C 532.46978 92.870865 532.144412 93.328436 531.90455 94.142803 
C 531.664688 94.95717 531.529916 96.061845 531.529916 97.213534 
C 531.529916 98.365223 531.664688 99.469897 531.90455 100.284265 
C 532.144412 101.098632 532.46978 101.556203 532.808996 101.556203 
z
" style="fill:#ffff00;stroke:#ffffff;stroke-linejoin:miter;stroke-width:0.5;"/>
   </g>
   <g id="80e8e62354b74be1b1170284beffed25-19-node">
    <path clip-path="url(#p3f5512f83a)" d="M 525.284995 92.870865 
L 524.005915 97.213534 
L 525.284995 101.556203 
L 526.564075 97.213534 
z
" style="fill:#c800c8;stroke:#ffffff;stroke-linejoin:miter;stroke-width:0.5;"/>
   </g>
   <g id="patch_67">
    <path d="M 481.344828 157.5 
L 481.344828 21.6 
" style="fill:none;stroke:#ffffff;stroke-linecap:square;stroke-linejoin:miter;stroke-width:1.25;"/>
   </g>
   <g id="patch_68">
    <path d="M 625.655172 157.5 
L 625.655172 21.6 
" style="fill:none;stroke:#ffffff;stroke-linecap:square;stroke-linejoin:miter;stroke-width:1.25;"/>
   </g>
   <g id="patch_69">
    <path d="M 481.344828 157.5 
L 625.655172 157.5 
" style="fill:none;stroke:#ffffff;stroke-linecap:square;stroke-linejoin:miter;stroke-width:1.25;"/>
   </g>
   <g id="patch_70">
    <path d="M 481.344828 21.6 
L 625.655172 21.6 
" style="fill:none;stroke:#ffffff;stroke-linecap:square;stroke-linejoin:miter;stroke-width:1.25;"/>
   </g>
   <g id="text_3">
    <!-- 1389:8.0 -->
    <defs>
     <path d="M 5.46875 16.546875 
L 13.921875 17.328125 
Q 14.984375 11.375 18.015625 8.6875 
Q 21.046875 6 25.78125 6 
Q 29.828125 6 32.875 7.859375 
Q 35.9375 9.71875 37.890625 12.8125 
Q 39.84375 15.921875 41.15625 21.1875 
Q 42.484375 26.46875 42.484375 31.9375 
Q 42.484375 32.515625 42.4375 33.6875 
Q 39.796875 29.5 35.234375 26.875 
Q 30.671875 24.265625 25.34375 24.265625 
Q 16.453125 24.265625 10.296875 30.703125 
Q 4.15625 37.15625 4.15625 47.703125 
Q 4.15625 58.59375 10.578125 65.234375 
Q 17 71.875 26.65625 71.875 
Q 33.640625 71.875 39.421875 68.109375 
Q 45.21875 64.359375 48.21875 57.390625 
Q 51.21875 50.4375 51.21875 37.25 
Q 51.21875 23.53125 48.234375 15.40625 
Q 45.265625 7.28125 39.375 3.03125 
Q 33.5 -1.21875 25.59375 -1.21875 
Q 17.1875 -1.21875 11.859375 3.4375 
Q 6.546875 8.109375 5.46875 16.546875 
z
M 41.453125 48.140625 
Q 41.453125 55.71875 37.421875 60.15625 
Q 33.40625 64.59375 27.734375 64.59375 
Q 21.875 64.59375 17.53125 59.8125 
Q 13.1875 55.03125 13.1875 47.40625 
Q 13.1875 40.578125 17.3125 36.296875 
Q 21.4375 32.03125 27.484375 32.03125 
Q 33.59375 32.03125 37.515625 36.296875 
Q 41.453125 40.578125 41.453125 48.140625 
z
" id="ArialMT-57"/>
    </defs>
    <g style="fill:#262626;" transform="translate(530.146875 15.6)scale(0.12 -0.12)">
     <use xlink:href="#ArialMT-49"/>
     <use x="55.615234" xlink:href="#ArialMT-51"/>
     <use x="111.230469" xlink:href="#ArialMT-56"/>
     <use x="166.845703" xlink:href="#ArialMT-57"/>
     <use x="222.460938" xlink:href="#ArialMT-58"/>
     <use x="250.244141" xlink:href="#ArialMT-56"/>
     <use x="305.859375" xlink:href="#ArialMT-46"/>
     <use x="333.642578" xlink:href="#ArialMT-48"/>
    </g>
   </g>
  </g>
  <g id="axes_4">
   <g id="patch_71">
    <path d="M 654.517241 157.5 
L 798.827586 157.5 
L 798.827586 21.6 
L 654.517241 21.6 
z
" style="fill:#ffffff;"/>
   </g>
   <g id="patch_72">
    <path clip-path="url(#p04601d7e9e)" d="M 758.649419 173.848872 
L 751.125418 173.848872 
" style="stroke:#000000;stroke-linejoin:miter;stroke-width:0.5;"/>
   </g>
   <g id="patch_73">
    <path clip-path="url(#p04601d7e9e)" d="M 766.173421 161.076316 
L 758.649419 173.848872 
" style="stroke:#000000;stroke-linejoin:miter;stroke-width:0.5;"/>
   </g>
   <g id="patch_74">
    <path clip-path="url(#p04601d7e9e)" d="M 758.649419 148.303759 
L 751.125418 148.303759 
" style="stroke:#000000;stroke-linejoin:miter;stroke-width:0.5;"/>
   </g>
   <g id="patch_75">
    <path clip-path="url(#p04601d7e9e)" d="M 766.173421 161.076316 
L 758.649419 148.303759 
" style="stroke:#000000;stroke-linejoin:miter;stroke-width:0.5;"/>
   </g>
   <g id="patch_76">
    <path clip-path="url(#p04601d7e9e)" d="M 773.697422 135.531203 
L 766.173421 161.076316 
" style="stroke:#000000;stroke-linejoin:miter;stroke-width:0.5;"/>
   </g>
   <g id="patch_77">
    <path clip-path="url(#p04601d7e9e)" d="M 758.649419 122.758647 
L 751.125418 122.758647 
" style="stroke:#000000;stroke-linejoin:miter;stroke-width:0.5;"/>
   </g>
   <g id="patch_78">
    <path clip-path="url(#p04601d7e9e)" d="M 766.173421 109.98609 
L 758.649419 122.758647 
" style="stroke:#000000;stroke-linejoin:miter;stroke-width:0.5;"/>
   </g>
   <g id="patch_79">
    <path clip-path="url(#p04601d7e9e)" d="M 705.98141 97.213534 
L 698.457409 97.213534 
" style="stroke:#000000;stroke-linejoin:miter;stroke-width:0.5;"/>
   </g>
   <g id="patch_80">
    <path clip-path="url(#p04601d7e9e)" d="M 713.505412 97.213534 
L 705.98141 97.213534 
" style="stroke:#000000;stroke-linejoin:miter;stroke-width:0.5;"/>
   </g>
   <g id="patch_81">
    <path clip-path="url(#p04601d7e9e)" d="M 721.029413 97.213534 
L 713.505412 97.213534 
" style="stroke:#000000;stroke-linejoin:miter;stroke-width:0.5;"/>
   </g>
   <g id="patch_82">
    <path clip-path="url(#p04601d7e9e)" d="M 728.553414 97.213534 
L 721.029413 97.213534 
" style="stroke:#000000;stroke-linejoin:miter;stroke-width:0.5;"/>
   </g>
   <g id="patch_83">
    <path clip-path="url(#p04601d7e9e)" d="M 736.077415 97.213534 
L 728.553414 97.213534 
" style="stroke:#000000;stroke-linejoin:miter;stroke-width:0.5;"/>
   </g>
   <g id="patch_84">
    <path clip-path="url(#p04601d7e9e)" d="M 743.601417 97.213534 
L 736.077415 97.213534 
" style="stroke:#000000;stroke-linejoin:miter;stroke-width:0.5;"/>
   </g>
   <g id="patch_85">
    <path clip-path="url(#p04601d7e9e)" d="M 751.125418 97.213534 
L 743.601417 97.213534 
" style="stroke:#000000;stroke-linejoin:miter;stroke-width:0.5;"/>
   </g>
   <g id="patch_86">
    <path clip-path="url(#p04601d7e9e)" d="M 758.649419 97.213534 
L 751.125418 97.213534 
" style="stroke:#000000;stroke-linejoin:miter;stroke-width:0.5;"/>
   </g>
   <g id="patch_87">
    <path clip-path="url(#p04601d7e9e)" d="M 766.173421 109.98609 
L 758.649419 97.213534 
" style="stroke:#000000;stroke-linejoin:miter;stroke-width:0.5;"/>
   </g>
   <g id="patch_88">
    <path clip-path="url(#p04601d7e9e)" d="M 773.697422 135.531203 
L 766.173421 109.98609 
" style="stroke:#000000;stroke-linejoin:miter;stroke-width:0.5;"/>
   </g>
   <g id="patch_89">
    <path clip-path="url(#p04601d7e9e)" d="M 781.221423 135.531203 
L 773.697422 135.531203 
" style="stroke:#000000;stroke-linejoin:miter;stroke-width:0.5;"/>
   </g>
   <g id="patch_90">
    <path clip-path="url(#p04601d7e9e)" d="M 788.745424 135.531203 
L 781.221423 135.531203 
" style="stroke:#000000;stroke-linejoin:miter;stroke-width:0.5;"/>
   </g>
   <g id="patch_91">
    <path clip-path="url(#p04601d7e9e)" d="M 788.745424 135.531203 
L 788.745424 122.758647 
" style="stroke:#000000;stroke-linejoin:miter;stroke-width:0.5;"/>
   </g>
   <g id="163847c0082f41c3b8ae3a7f15c87169-1-node">
    <path clip-path="url(#p04601d7e9e)" d="M 790.024505 131.188534 
L 790.024505 139.873872 
L 787.466344 139.873872 
L 787.466344 131.188534 
L 790.024505 131.188534 
z
" style="fill:#0000ff;stroke:#ffffff;stroke-linejoin:miter;stroke-width:0.5;"/>
   </g>
   <g id="163847c0082f41c3b8ae3a7f15c87169-4-node">
    <path clip-path="url(#p04601d7e9e)" d="M 782.500503 131.188534 
L 782.500503 139.873872 
L 779.942343 139.873872 
L 779.942343 131.188534 
L 782.500503 131.188534 
z
" style="fill:#0000ff;stroke:#ffffff;stroke-linejoin:miter;stroke-width:0.5;"/>
   </g>
   <g id="163847c0082f41c3b8ae3a7f15c87169-6-node">
    <path clip-path="url(#p04601d7e9e)" d="M 773.697422 139.873872 
C 774.036638 139.873872 774.362006 139.416301 774.601868 138.601934 
C 774.84173 137.787566 774.976502 136.682892 774.976502 135.531203 
C 774.976502 134.379514 774.84173 133.27484 774.601868 132.460472 
C 774.362006 131.646105 774.036638 131.188534 773.697422 131.188534 
C 773.358206 131.188534 773.032838 131.646105 772.792976 132.460472 
C 772.553114 133.27484 772.418342 134.379514 772.418342 135.531203 
C 772.418342 136.682892 772.553114 137.787566 772.792976 138.601934 
C 773.032838 139.416301 773.358206 139.873872 773.697422 139.873872 
z
" style="fill:#00c832;stroke:#ffffff;stroke-linejoin:miter;stroke-width:0.5;"/>
   </g>
   <g id="163847c0082f41c3b8ae3a7f15c87169-25-node">
    <path clip-path="url(#p04601d7e9e)" d="M 766.173421 165.418985 
C 766.512637 165.418985 766.838005 164.961414 767.077867 164.147047 
C 767.317729 163.332679 767.452501 162.228005 767.452501 161.076316 
C 767.452501 159.924626 767.317729 158.819952 767.077867 158.005585 
C 766.838005 157.191218 766.512637 156.733647 766.173421 156.733647 
C 765.834205 156.733647 765.508836 157.191218 765.268974 158.005585 
C 765.029112 158.819952 764.89434 159.924626 764.89434 161.076316 
C 764.89434 162.228005 765.029112 163.332679 765.268974 164.147047 
C 765.508836 164.961414 765.834205 165.418985 766.173421 165.418985 
z
" style="fill:#00c832;stroke:#ffffff;stroke-linejoin:miter;stroke-width:0.5;"/>
   </g>
   <g id="163847c0082f41c3b8ae3a7f15c87169-29-node">
    <path clip-path="url(#p04601d7e9e)" d="M 759.9285 169.506203 
L 759.9285 178.191541 
L 757.370339 178.191541 
L 757.370339 169.506203 
L 759.9285 169.506203 
z
" style="fill:#0000ff;stroke:#ffffff;stroke-linejoin:miter;stroke-width:0.5;"/>
   </g>
   <g id="163847c0082f41c3b8ae3a7f15c87169-31-node">
    <path clip-path="url(#p04601d7e9e)" d="M 751.125418 178.191541 
C 751.464634 178.191541 751.790002 177.73397 752.029864 176.919603 
C 752.269726 176.105236 752.404498 175.000562 752.404498 173.848872 
C 752.404498 172.697183 752.269726 171.592509 752.029864 170.778141 
C 751.790002 169.963774 751.464634 169.506203 751.125418 169.506203 
C 750.786202 169.506203 750.460834 169.963774 750.220972 170.778141 
C 749.98111 171.592509 749.846338 172.697183 749.846338 173.848872 
C 749.846338 175.000562 749.98111 176.105236 750.220972 176.919603 
C 750.460834 177.73397 750.786202 178.191541 751.125418 178.191541 
z
" style="fill:#ffff00;stroke:#ffffff;stroke-linejoin:miter;stroke-width:0.5;"/>
   </g>
   <g id="163847c0082f41c3b8ae3a7f15c87169-26-node">
    <path clip-path="url(#p04601d7e9e)" d="M 759.9285 143.96109 
L 759.9285 152.646429 
L 757.370339 152.646429 
L 757.370339 143.96109 
L 759.9285 143.96109 
z
" style="fill:#0000ff;stroke:#ffffff;stroke-linejoin:miter;stroke-width:0.5;"/>
   </g>
   <g id="163847c0082f41c3b8ae3a7f15c87169-28-node">
    <path clip-path="url(#p04601d7e9e)" d="M 751.125418 152.646429 
C 751.464634 152.646429 751.790002 152.188858 752.029864 151.37449 
C 752.269726 150.560123 752.404498 149.455449 752.404498 148.303759 
C 752.404498 147.15207 752.269726 146.047396 752.029864 145.233029 
C 751.790002 144.418661 751.464634 143.96109 751.125418 143.96109 
C 750.786202 143.96109 750.460834 144.418661 750.220972 145.233029 
C 749.98111 146.047396 749.846338 147.15207 749.846338 148.303759 
C 749.846338 149.455449 749.98111 150.560123 750.220972 151.37449 
C 750.460834 152.188858 750.786202 152.646429 751.125418 152.646429 
z
" style="fill:#ffff00;stroke:#ffffff;stroke-linejoin:miter;stroke-width:0.5;"/>
   </g>
   <g id="163847c0082f41c3b8ae3a7f15c87169-7-node">
    <path clip-path="url(#p04601d7e9e)" d="M 766.173421 114.328759 
C 766.512637 114.328759 766.838005 113.871188 767.077867 113.056821 
C 767.317729 112.242454 767.452501 111.13778 767.452501 109.98609 
C 767.452501 108.834401 767.317729 107.729727 767.077867 106.915359 
C 766.838005 106.100992 766.512637 105.643421 766.173421 105.643421 
C 765.834205 105.643421 765.508836 106.100992 765.268974 106.915359 
C 765.029112 107.729727 764.89434 108.834401 764.89434 109.98609 
C 764.89434 111.13778 765.029112 112.242454 765.268974 113.056821 
C 765.508836 113.871188 765.834205 114.328759 766.173421 114.328759 
z
" style="fill:#00c832;stroke:#ffffff;stroke-linejoin:miter;stroke-width:0.5;"/>
   </g>
   <g id="163847c0082f41c3b8ae3a7f15c87169-22-node">
    <path clip-path="url(#p04601d7e9e)" d="M 759.9285 118.415977 
L 759.9285 127.101316 
L 757.370339 127.101316 
L 757.370339 118.415977 
L 759.9285 118.415977 
z
" style="fill:#0000ff;stroke:#ffffff;stroke-linejoin:miter;stroke-width:0.5;"/>
   </g>
   <g id="163847c0082f41c3b8ae3a7f15c87169-24-node">
    <path clip-path="url(#p04601d7e9e)" d="M 751.125418 127.101316 
C 751.464634 127.101316 751.790002 126.643745 752.029864 125.829377 
C 752.269726 125.01501 752.404498 123.910336 752.404498 122.758647 
C 752.404498 121.606957 752.269726 120.502283 752.029864 119.687916 
C 751.790002 118.873548 751.464634 118.415977 751.125418 118.415977 
C 750.786202 118.415977 750.460834 118.873548 750.220972 119.687916 
C 749.98111 120.502283 749.846338 121.606957 749.846338 122.758647 
C 749.846338 123.910336 749.98111 125.01501 750.220972 125.829377 
C 750.460834 126.643745 750.786202 127.101316 751.125418 127.101316 
z
" style="fill:#ffff00;stroke:#ffffff;stroke-linejoin:miter;stroke-width:0.5;"/>
   </g>
   <g id="163847c0082f41c3b8ae3a7f15c87169-8-node">
    <path clip-path="url(#p04601d7e9e)" d="M 759.9285 92.870865 
L 759.9285 101.556203 
L 757.370339 101.556203 
L 757.370339 92.870865 
L 759.9285 92.870865 
z
" style="fill:#0000ff;stroke:#ffffff;stroke-linejoin:miter;stroke-width:0.5;"/>
   </g>
   <g id="163847c0082f41c3b8ae3a7f15c87169-10-node">
    <path clip-path="url(#p04601d7e9e)" d="M 751.125418 101.556203 
C 751.464634 101.556203 751.790002 101.098632 752.029864 100.284265 
C 752.269726 99.469897 752.404498 98.365223 752.404498 97.213534 
C 752.404498 96.061845 752.269726 94.95717 752.029864 94.142803 
C 751.790002 93.328436 751.464634 92.870865 751.125418 92.870865 
C 750.786202 92.870865 750.460834 93.328436 750.220972 94.142803 
C 749.98111 94.95717 749.846338 96.061845 749.846338 97.213534 
C 749.846338 98.365223 749.98111 99.469897 750.220972 100.284265 
C 750.460834 101.098632 750.786202 101.556203 751.125418 101.556203 
z
" style="fill:#ffff00;stroke:#ffffff;stroke-linejoin:miter;stroke-width:0.5;"/>
   </g>
   <g id="163847c0082f41c3b8ae3a7f15c87169-11-node">
    <path clip-path="url(#p04601d7e9e)" d="M 744.880497 92.870865 
L 744.880497 101.556203 
L 742.322336 101.556203 
L 742.322336 92.870865 
L 744.880497 92.870865 
z
" style="fill:#0000ff;stroke:#ffffff;stroke-linejoin:miter;stroke-width:0.5;"/>
   </g>
   <g id="163847c0082f41c3b8ae3a7f15c87169-13-node">
    <path clip-path="url(#p04601d7e9e)" d="M 736.077415 101.556203 
C 736.416631 101.556203 736.742 101.098632 736.981862 100.284265 
C 737.221724 99.469897 737.356496 98.365223 737.356496 97.213534 
C 737.356496 96.061845 737.221724 94.95717 736.981862 94.142803 
C 736.742 93.328436 736.416631 92.870865 736.077415 92.870865 
C 735.738199 92.870865 735.412831 93.328436 735.172969 94.142803 
C 734.933107 94.95717 734.798335 96.061845 734.798335 97.213534 
C 734.798335 98.365223 734.933107 99.469897 735.172969 100.284265 
C 735.412831 101.098632 735.738199 101.556203 736.077415 101.556203 
z
" style="fill:#ffff00;stroke:#ffffff;stroke-linejoin:miter;stroke-width:0.5;"/>
   </g>
   <g id="163847c0082f41c3b8ae3a7f15c87169-14-node">
    <path clip-path="url(#p04601d7e9e)" d="M 729.832494 92.870865 
L 729.832494 101.556203 
L 727.274334 101.556203 
L 727.274334 92.870865 
L 729.832494 92.870865 
z
" style="fill:#0000ff;stroke:#ffffff;stroke-linejoin:miter;stroke-width:0.5;"/>
   </g>
   <g id="163847c0082f41c3b8ae3a7f15c87169-16-node">
    <path clip-path="url(#p04601d7e9e)" d="M 721.029413 101.556203 
C 721.368629 101.556203 721.693997 101.098632 721.933859 100.284265 
C 722.173721 99.469897 722.308493 98.365223 722.308493 97.213534 
C 722.308493 96.061845 722.173721 94.95717 721.933859 94.142803 
C 721.693997 93.328436 721.368629 92.870865 721.029413 92.870865 
C 720.690197 92.870865 720.364828 93.328436 720.124967 94.142803 
C 719.885105 94.95717 719.750333 96.061845 719.750333 97.213534 
C 719.750333 98.365223 719.885105 99.469897 720.124967 100.284265 
C 720.364828 101.098632 720.690197 101.556203 721.029413 101.556203 
z
" style="fill:#ffff00;stroke:#ffffff;stroke-linejoin:miter;stroke-width:0.5;"/>
   </g>
   <g id="163847c0082f41c3b8ae3a7f15c87169-17-node">
    <path clip-path="url(#p04601d7e9e)" d="M 714.784492 92.870865 
L 714.784492 101.556203 
L 712.226331 101.556203 
L 712.226331 92.870865 
L 714.784492 92.870865 
z
" style="fill:#0000ff;stroke:#ffffff;stroke-linejoin:miter;stroke-width:0.5;"/>
   </g>
   <g id="163847c0082f41c3b8ae3a7f15c87169-19-node">
    <path clip-path="url(#p04601d7e9e)" d="M 705.98141 101.556203 
C 706.320626 101.556203 706.645995 101.098632 706.885857 100.284265 
C 707.125718 99.469897 707.26049 98.365223 707.26049 97.213534 
C 707.26049 96.061845 707.125718 94.95717 706.885857 94.142803 
C 706.645995 93.328436 706.320626 92.870865 705.98141 92.870865 
C 705.642194 92.870865 705.316826 93.328436 705.076964 94.142803 
C 704.837102 94.95717 704.70233 96.061845 704.70233 97.213534 
C 704.70233 98.365223 704.837102 99.469897 705.076964 100.284265 
C 705.316826 101.098632 705.642194 101.556203 705.98141 101.556203 
z
" style="fill:#ffff00;stroke:#ffffff;stroke-linejoin:miter;stroke-width:0.5;"/>
   </g>
   <g id="163847c0082f41c3b8ae3a7f15c87169-20-node">
    <path clip-path="url(#p04601d7e9e)" d="M 698.457409 92.870865 
L 697.178329 97.213534 
L 698.457409 101.556203 
L 699.736489 97.213534 
z
" style="fill:#c800c8;stroke:#ffffff;stroke-linejoin:miter;stroke-width:0.5;"/>
   </g>
   <g id="163847c0082f41c3b8ae3a7f15c87169-3-node">
    <path clip-path="url(#p04601d7e9e)" d="M 788.745424 118.415977 
L 787.637709 124.929981 
L 789.85314 124.929981 
z
" style="fill:#ff0000;stroke:#ffffff;stroke-linejoin:miter;stroke-width:0.5;"/>
   </g>
   <g id="patch_92">
    <path d="M 654.517241 157.5 
L 654.517241 21.6 
" style="fill:none;stroke:#ffffff;stroke-linecap:square;stroke-linejoin:miter;stroke-width:1.25;"/>
   </g>
   <g id="patch_93">
    <path d="M 798.827586 157.5 
L 798.827586 21.6 
" style="fill:none;stroke:#ffffff;stroke-linecap:square;stroke-linejoin:miter;stroke-width:1.25;"/>
   </g>
   <g id="patch_94">
    <path d="M 654.517241 157.5 
L 798.827586 157.5 
" style="fill:none;stroke:#ffffff;stroke-linecap:square;stroke-linejoin:miter;stroke-width:1.25;"/>
   </g>
   <g id="patch_95">
    <path d="M 654.517241 21.6 
L 798.827586 21.6 
" style="fill:none;stroke:#ffffff;stroke-linecap:square;stroke-linejoin:miter;stroke-width:1.25;"/>
   </g>
   <g id="text_4">
    <!-- 1404:8.0 -->
    <g style="fill:#262626;" transform="translate(703.319289 15.6)scale(0.12 -0.12)">
     <use xlink:href="#ArialMT-49"/>
     <use x="55.615234" xlink:href="#ArialMT-52"/>
     <use x="111.230469" xlink:href="#ArialMT-48"/>
     <use x="166.845703" xlink:href="#ArialMT-52"/>
     <use x="222.460938" xlink:href="#ArialMT-58"/>
     <use x="250.244141" xlink:href="#ArialMT-56"/>
     <use x="305.859375" xlink:href="#ArialMT-46"/>
     <use x="333.642578" xlink:href="#ArialMT-48"/>
    </g>
   </g>
  </g>
  <g id="axes_5">
   <g id="patch_96">
    <path d="M 827.689655 157.5 
L 972 157.5 
L 972 21.6 
L 827.689655 21.6 
z
" style="fill:#eaeaf2;"/>
   </g>
   <g id="matplotlib.axis_1">
    <g id="xtick_1">
     <g id="line2d_1">
      <path clip-path="url(#p6d792407fe)" d="M 827.689655 157.5 
L 827.689655 21.6 
" style="fill:none;stroke:#ffffff;stroke-linecap:round;"/>
     </g>
     <g id="text_5">
      <!-- 0.00 -->
      <g style="fill:#262626;" transform="translate(816.98614 174.873594)scale(0.11 -0.11)">
       <use xlink:href="#ArialMT-48"/>
       <use x="55.615234" xlink:href="#ArialMT-46"/>
       <use x="83.398438" xlink:href="#ArialMT-48"/>
       <use x="139.013672" xlink:href="#ArialMT-48"/>
      </g>
     </g>
    </g>
    <g id="xtick_2">
     <g id="line2d_2">
      <path clip-path="url(#p6d792407fe)" d="M 863.767241 157.5 
L 863.767241 21.6 
" style="fill:none;stroke:#ffffff;stroke-linecap:round;"/>
     </g>
     <g id="text_6">
      <!-- 0.25 -->
      <g style="fill:#262626;" transform="translate(853.063726 174.873594)scale(0.11 -0.11)">
       <use xlink:href="#ArialMT-48"/>
       <use x="55.615234" xlink:href="#ArialMT-46"/>
       <use x="83.398438" xlink:href="#ArialMT-50"/>
       <use x="139.013672" xlink:href="#ArialMT-53"/>
      </g>
     </g>
    </g>
    <g id="xtick_3">
     <g id="line2d_3">
      <path clip-path="url(#p6d792407fe)" d="M 899.844828 157.5 
L 899.844828 21.6 
" style="fill:none;stroke:#ffffff;stroke-linecap:round;"/>
     </g>
     <g id="text_7">
      <!-- 0.50 -->
      <g style="fill:#262626;" transform="translate(889.141312 174.873594)scale(0.11 -0.11)">
       <use xlink:href="#ArialMT-48"/>
       <use x="55.615234" xlink:href="#ArialMT-46"/>
       <use x="83.398438" xlink:href="#ArialMT-53"/>
       <use x="139.013672" xlink:href="#ArialMT-48"/>
      </g>
     </g>
    </g>
    <g id="xtick_4">
     <g id="line2d_4">
      <path clip-path="url(#p6d792407fe)" d="M 935.922414 157.5 
L 935.922414 21.6 
" style="fill:none;stroke:#ffffff;stroke-linecap:round;"/>
     </g>
     <g id="text_8">
      <!-- 0.75 -->
      <defs>
       <path d="M 4.734375 62.203125 
L 4.734375 70.65625 
L 51.078125 70.65625 
L 51.078125 63.8125 
Q 44.234375 56.546875 37.515625 44.484375 
Q 30.8125 32.421875 27.15625 19.671875 
Q 24.515625 10.6875 23.78125 0 
L 14.75 0 
Q 14.890625 8.453125 18.0625 20.40625 
Q 21.234375 32.375 27.171875 43.484375 
Q 33.109375 54.59375 39.796875 62.203125 
z
" id="ArialMT-55"/>
      </defs>
      <g style="fill:#262626;" transform="translate(925.218898 174.873594)scale(0.11 -0.11)">
       <use xlink:href="#ArialMT-48"/>
       <use x="55.615234" xlink:href="#ArialMT-46"/>
       <use x="83.398438" xlink:href="#ArialMT-55"/>
       <use x="139.013672" xlink:href="#ArialMT-53"/>
      </g>
     </g>
    </g>
    <g id="xtick_5">
     <g id="line2d_5">
      <path clip-path="url(#p6d792407fe)" d="M 972 157.5 
L 972 21.6 
" style="fill:none;stroke:#ffffff;stroke-linecap:round;"/>
     </g>
     <g id="text_9">
      <!-- 1.00 -->
      <g style="fill:#262626;" transform="translate(961.296484 174.873594)scale(0.11 -0.11)">
       <use xlink:href="#ArialMT-49"/>
       <use x="55.615234" xlink:href="#ArialMT-46"/>
       <use x="83.398438" xlink:href="#ArialMT-48"/>
       <use x="139.013672" xlink:href="#ArialMT-48"/>
      </g>
     </g>
    </g>
   </g>
   <g id="matplotlib.axis_2">
    <g id="ytick_1">
     <g id="line2d_6">
      <path clip-path="url(#p6d792407fe)" d="M 827.689655 157.5 
L 972 157.5 
" style="fill:none;stroke:#ffffff;stroke-linecap:round;"/>
     </g>
     <g id="text_10">
      <!-- 0.0 -->
      <g style="fill:#262626;" transform="translate(802.899655 161.436797)scale(0.11 -0.11)">
       <use xlink:href="#ArialMT-48"/>
       <use x="55.615234" xlink:href="#ArialMT-46"/>
       <use x="83.398438" xlink:href="#ArialMT-48"/>
      </g>
     </g>
    </g>
    <g id="ytick_2">
     <g id="line2d_7">
      <path clip-path="url(#p6d792407fe)" d="M 827.689655 130.32 
L 972 130.32 
" style="fill:none;stroke:#ffffff;stroke-linecap:round;"/>
     </g>
     <g id="text_11">
      <!-- 0.2 -->
      <g style="fill:#262626;" transform="translate(802.899655 134.256797)scale(0.11 -0.11)">
       <use xlink:href="#ArialMT-48"/>
       <use x="55.615234" xlink:href="#ArialMT-46"/>
       <use x="83.398438" xlink:href="#ArialMT-50"/>
      </g>
     </g>
    </g>
    <g id="ytick_3">
     <g id="line2d_8">
      <path clip-path="url(#p6d792407fe)" d="M 827.689655 103.14 
L 972 103.14 
" style="fill:none;stroke:#ffffff;stroke-linecap:round;"/>
     </g>
     <g id="text_12">
      <!-- 0.4 -->
      <g style="fill:#262626;" transform="translate(802.899655 107.076797)scale(0.11 -0.11)">
       <use xlink:href="#ArialMT-48"/>
       <use x="55.615234" xlink:href="#ArialMT-46"/>
       <use x="83.398438" xlink:href="#ArialMT-52"/>
      </g>
     </g>
    </g>
    <g id="ytick_4">
     <g id="line2d_9">
      <path clip-path="url(#p6d792407fe)" d="M 827.689655 75.96 
L 972 75.96 
" style="fill:none;stroke:#ffffff;stroke-linecap:round;"/>
     </g>
     <g id="text_13">
      <!-- 0.6 -->
      <g style="fill:#262626;" transform="translate(802.899655 79.896797)scale(0.11 -0.11)">
       <use xlink:href="#ArialMT-48"/>
       <use x="55.615234" xlink:href="#ArialMT-46"/>
       <use x="83.398438" xlink:href="#ArialMT-54"/>
      </g>
     </g>
    </g>
    <g id="ytick_5">
     <g id="line2d_10">
      <path clip-path="url(#p6d792407fe)" d="M 827.689655 48.78 
L 972 48.78 
" style="fill:none;stroke:#ffffff;stroke-linecap:round;"/>
     </g>
     <g id="text_14">
      <!-- 0.8 -->
      <g style="fill:#262626;" transform="translate(802.899655 52.716797)scale(0.11 -0.11)">
       <use xlink:href="#ArialMT-48"/>
       <use x="55.615234" xlink:href="#ArialMT-46"/>
       <use x="83.398438" xlink:href="#ArialMT-56"/>
      </g>
     </g>
    </g>
    <g id="ytick_6">
     <g id="line2d_11">
      <path clip-path="url(#p6d792407fe)" d="M 827.689655 21.6 
L 972 21.6 
" style="fill:none;stroke:#ffffff;stroke-linecap:round;"/>
     </g>
     <g id="text_15">
      <!-- 1.0 -->
      <g style="fill:#262626;" transform="translate(802.899655 25.536797)scale(0.11 -0.11)">
       <use xlink:href="#ArialMT-49"/>
       <use x="55.615234" xlink:href="#ArialMT-46"/>
       <use x="83.398438" xlink:href="#ArialMT-48"/>
      </g>
     </g>
    </g>
   </g>
   <g id="patch_97">
    <path d="M 827.689655 157.5 
L 827.689655 21.6 
" style="fill:none;stroke:#ffffff;stroke-linecap:square;stroke-linejoin:miter;stroke-width:1.25;"/>
   </g>
   <g id="patch_98">
    <path d="M 972 157.5 
L 972 21.6 
" style="fill:none;stroke:#ffffff;stroke-linecap:square;stroke-linejoin:miter;stroke-width:1.25;"/>
   </g>
   <g id="patch_99">
    <path d="M 827.689655 157.5 
L 972 157.5 
" style="fill:none;stroke:#ffffff;stroke-linecap:square;stroke-linejoin:miter;stroke-width:1.25;"/>
   </g>
   <g id="patch_100">
    <path d="M 827.689655 21.6 
L 972 21.6 
" style="fill:none;stroke:#ffffff;stroke-linecap:square;stroke-linejoin:miter;stroke-width:1.25;"/>
   </g>
   <g id="text_16">
    <!-- 26 -->
    <g style="fill:#262626;" transform="translate(893.171703 15.6)scale(0.12 -0.12)">
     <use xlink:href="#ArialMT-50"/>
     <use x="55.615234" xlink:href="#ArialMT-54"/>
    </g>
   </g>
  </g>
 </g>
 <defs>
  <clipPath id="pff40b400a3">
   <rect height="135.9" width="144.310345" x="135" y="21.6"/>
  </clipPath>
  <clipPath id="pf5ddab7084">
   <rect height="135.9" width="144.310345" x="308.172414" y="21.6"/>
  </clipPath>
  <clipPath id="p3f5512f83a">
   <rect height="135.9" width="144.310345" x="481.344828" y="21.6"/>
  </clipPath>
  <clipPath id="p04601d7e9e">
   <rect height="135.9" width="144.310345" x="654.517241" y="21.6"/>
  </clipPath>
  <clipPath id="p6d792407fe">
   <rect height="135.9" width="144.310345" x="827.689655" y="21.6"/>
  </clipPath>
 </defs>
</svg>
