<?xml version="1.0" encoding="utf-8" standalone="no"?>
<!DOCTYPE svg PUBLIC "-//W3C//DTD SVG 1.1//EN"
  "http://www.w3.org/Graphics/SVG/1.1/DTD/svg11.dtd">
<!-- Created with matplotlib (https://matplotlib.org/) -->
<svg height="180pt" version="1.1" viewBox="0 0 1080 180" width="1080pt" xmlns="http://www.w3.org/2000/svg" xmlns:xlink="http://www.w3.org/1999/xlink">
 <defs>
  <style type="text/css">
*{stroke-linecap:butt;stroke-linejoin:round;}
  </style>
 </defs>
 <g id="figure_1">
  <g id="patch_1">
   <path d="M 0 180 
L 1080 180 
L 1080 0 
L 0 0 
z
" style="fill:#ffffff;"/>
  </g>
  <g id="axes_1">
   <g id="patch_2">
    <path d="M 135 157.5 
L 279.310345 157.5 
L 279.310345 21.6 
L 135 21.6 
z
" style="fill:#ffffff;"/>
   </g>
   <g id="patch_3">
    <path clip-path="url(#p865ac8432f)" d="M 205.351293 145.242353 
L 194.077047 145.242353 
" style="stroke:#000000;stroke-linejoin:miter;stroke-width:0.5;"/>
   </g>
   <g id="patch_4">
    <path clip-path="url(#p865ac8432f)" d="M 216.625539 145.242353 
L 205.351293 145.242353 
" style="stroke:#000000;stroke-linejoin:miter;stroke-width:0.5;"/>
   </g>
   <g id="patch_5">
    <path clip-path="url(#p865ac8432f)" d="M 227.899784 145.242353 
L 216.625539 145.242353 
" style="stroke:#000000;stroke-linejoin:miter;stroke-width:0.5;"/>
   </g>
   <g id="patch_6">
    <path clip-path="url(#p865ac8432f)" d="M 239.17403 125.257059 
L 227.899784 145.242353 
" style="stroke:#000000;stroke-linejoin:miter;stroke-width:0.5;"/>
   </g>
   <g id="patch_7">
    <path clip-path="url(#p865ac8432f)" d="M 205.351293 118.595294 
L 194.077047 118.595294 
" style="stroke:#000000;stroke-linejoin:miter;stroke-width:0.5;"/>
   </g>
   <g id="patch_8">
    <path clip-path="url(#p865ac8432f)" d="M 216.625539 118.595294 
L 205.351293 118.595294 
" style="stroke:#000000;stroke-linejoin:miter;stroke-width:0.5;"/>
   </g>
   <g id="patch_9">
    <path clip-path="url(#p865ac8432f)" d="M 227.899784 105.271765 
L 216.625539 118.595294 
" style="stroke:#000000;stroke-linejoin:miter;stroke-width:0.5;"/>
   </g>
   <g id="patch_10">
    <path clip-path="url(#p865ac8432f)" d="M 194.077047 91.948235 
L 182.802802 91.948235 
" style="stroke:#000000;stroke-linejoin:miter;stroke-width:0.5;"/>
   </g>
   <g id="patch_11">
    <path clip-path="url(#p865ac8432f)" d="M 205.351293 91.948235 
L 194.077047 91.948235 
" style="stroke:#000000;stroke-linejoin:miter;stroke-width:0.5;"/>
   </g>
   <g id="patch_12">
    <path clip-path="url(#p865ac8432f)" d="M 216.625539 91.948235 
L 205.351293 91.948235 
" style="stroke:#000000;stroke-linejoin:miter;stroke-width:0.5;"/>
   </g>
   <g id="patch_13">
    <path clip-path="url(#p865ac8432f)" d="M 227.899784 105.271765 
L 216.625539 91.948235 
" style="stroke:#000000;stroke-linejoin:miter;stroke-width:0.5;"/>
   </g>
   <g id="patch_14">
    <path clip-path="url(#p865ac8432f)" d="M 239.17403 125.257059 
L 227.899784 105.271765 
" style="stroke:#000000;stroke-linejoin:miter;stroke-width:0.5;"/>
   </g>
   <g id="patch_15">
    <path clip-path="url(#p865ac8432f)" d="M 250.448276 125.257059 
L 239.17403 125.257059 
" style="stroke:#000000;stroke-linejoin:miter;stroke-width:0.5;"/>
   </g>
   <g id="patch_16">
    <path clip-path="url(#p865ac8432f)" d="M 261.722522 125.257059 
L 250.448276 125.257059 
" style="stroke:#000000;stroke-linejoin:miter;stroke-width:0.5;"/>
   </g>
   <g id="c6439ed45a384c5fbfdbd50027a9e3a3-1-node">
    <path clip-path="url(#p865ac8432f)" d="M 263.639143 120.727059 
L 263.639143 129.787059 
L 259.8059 129.787059 
L 259.8059 120.727059 
L 263.639143 120.727059 
z
" style="fill:#0000ff;stroke:#ffffff;stroke-linejoin:miter;stroke-width:0.5;"/>
   </g>
   <g id="c6439ed45a384c5fbfdbd50027a9e3a3-3-node">
    <path clip-path="url(#p865ac8432f)" d="M 252.364898 120.727059 
L 252.364898 129.787059 
L 248.531654 129.787059 
L 248.531654 120.727059 
L 252.364898 120.727059 
z
" style="fill:#0000ff;stroke:#ffffff;stroke-linejoin:miter;stroke-width:0.5;"/>
   </g>
   <g id="c6439ed45a384c5fbfdbd50027a9e3a3-5-node">
    <path clip-path="url(#p865ac8432f)" d="M 239.17403 129.787059 
C 239.682324 129.787059 240.169868 129.309749 240.529286 128.460253 
C 240.888705 127.610756 241.090652 126.458429 241.090652 125.257059 
C 241.090652 124.055689 240.888705 122.903362 240.529286 122.053865 
C 240.169868 121.204368 239.682324 120.727059 239.17403 120.727059 
C 238.665736 120.727059 238.178192 121.204368 237.818774 122.053865 
C 237.459356 122.903362 237.257408 124.055689 237.257408 125.257059 
C 237.257408 126.458429 237.459356 127.610756 237.818774 128.460253 
C 238.178192 129.309749 238.665736 129.787059 239.17403 129.787059 
z
" style="fill:#00c832;stroke:#ffffff;stroke-linejoin:miter;stroke-width:0.5;"/>
   </g>
   <g id="c6439ed45a384c5fbfdbd50027a9e3a3-18-node">
    <path clip-path="url(#p865ac8432f)" d="M 227.899784 149.772353 
C 228.408079 149.772353 228.895623 149.295044 229.255041 148.445547 
C 229.614459 147.59605 229.816406 146.443723 229.816406 145.242353 
C 229.816406 144.040983 229.614459 142.888656 229.255041 142.039159 
C 228.895623 141.189662 228.408079 140.712353 227.899784 140.712353 
C 227.39149 140.712353 226.903946 141.189662 226.544528 142.039159 
C 226.18511 142.888656 225.983163 144.040983 225.983163 145.242353 
C 225.983163 146.443723 226.18511 147.59605 226.544528 148.445547 
C 226.903946 149.295044 227.39149 149.772353 227.899784 149.772353 
z
" style="fill:#00c832;stroke:#ffffff;stroke-linejoin:miter;stroke-width:0.5;"/>
   </g>
   <g id="c6439ed45a384c5fbfdbd50027a9e3a3-19-node">
    <path clip-path="url(#p865ac8432f)" d="M 218.542161 140.712353 
L 218.542161 149.772353 
L 214.708917 149.772353 
L 214.708917 140.712353 
L 218.542161 140.712353 
z
" style="fill:#0000ff;stroke:#ffffff;stroke-linejoin:miter;stroke-width:0.5;"/>
   </g>
   <g id="c6439ed45a384c5fbfdbd50027a9e3a3-21-node">
    <path clip-path="url(#p865ac8432f)" d="M 205.351293 149.772353 
C 205.859587 149.772353 206.347131 149.295044 206.706549 148.445547 
C 207.065968 147.59605 207.267915 146.443723 207.267915 145.242353 
C 207.267915 144.040983 207.065968 142.888656 206.706549 142.039159 
C 206.347131 141.189662 205.859587 140.712353 205.351293 140.712353 
C 204.842999 140.712353 204.355455 141.189662 203.996037 142.039159 
C 203.636619 142.888656 203.434671 144.040983 203.434671 145.242353 
C 203.434671 146.443723 203.636619 147.59605 203.996037 148.445547 
C 204.355455 149.295044 204.842999 149.772353 205.351293 149.772353 
z
" style="fill:#ffff00;stroke:#ffffff;stroke-linejoin:miter;stroke-width:0.5;"/>
   </g>
   <g id="c6439ed45a384c5fbfdbd50027a9e3a3-22-node">
    <path clip-path="url(#p865ac8432f)" d="M 194.077047 140.712353 
L 192.160426 145.242353 
L 194.077047 149.772353 
L 195.993669 145.242353 
z
" style="fill:#c800c8;stroke:#ffffff;stroke-linejoin:miter;stroke-width:0.5;"/>
   </g>
   <g id="c6439ed45a384c5fbfdbd50027a9e3a3-6-node">
    <path clip-path="url(#p865ac8432f)" d="M 227.899784 109.801765 
C 228.408079 109.801765 228.895623 109.324455 229.255041 108.474958 
C 229.614459 107.625462 229.816406 106.473135 229.816406 105.271765 
C 229.816406 104.070395 229.614459 102.918068 229.255041 102.068571 
C 228.895623 101.219074 228.408079 100.741765 227.899784 100.741765 
C 227.39149 100.741765 226.903946 101.219074 226.544528 102.068571 
C 226.18511 102.918068 225.983163 104.070395 225.983163 105.271765 
C 225.983163 106.473135 226.18511 107.625462 226.544528 108.474958 
C 226.903946 109.324455 227.39149 109.801765 227.899784 109.801765 
z
" style="fill:#00c832;stroke:#ffffff;stroke-linejoin:miter;stroke-width:0.5;"/>
   </g>
   <g id="c6439ed45a384c5fbfdbd50027a9e3a3-13-node">
    <path clip-path="url(#p865ac8432f)" d="M 218.542161 114.065294 
L 218.542161 123.125294 
L 214.708917 123.125294 
L 214.708917 114.065294 
L 218.542161 114.065294 
z
" style="fill:#0000ff;stroke:#ffffff;stroke-linejoin:miter;stroke-width:0.5;"/>
   </g>
   <g id="c6439ed45a384c5fbfdbd50027a9e3a3-15-node">
    <path clip-path="url(#p865ac8432f)" d="M 205.351293 123.125294 
C 205.859587 123.125294 206.347131 122.647985 206.706549 121.798488 
C 207.065968 120.948991 207.267915 119.796664 207.267915 118.595294 
C 207.267915 117.393924 207.065968 116.241597 206.706549 115.3921 
C 206.347131 114.542603 205.859587 114.065294 205.351293 114.065294 
C 204.842999 114.065294 204.355455 114.542603 203.996037 115.3921 
C 203.636619 116.241597 203.434671 117.393924 203.434671 118.595294 
C 203.434671 119.796664 203.636619 120.948991 203.996037 121.798488 
C 204.355455 122.647985 204.842999 123.125294 205.351293 123.125294 
z
" style="fill:#ffff00;stroke:#ffffff;stroke-linejoin:miter;stroke-width:0.5;"/>
   </g>
   <g id="c6439ed45a384c5fbfdbd50027a9e3a3-16-node">
    <path clip-path="url(#p865ac8432f)" d="M 194.077047 114.065294 
L 192.160426 118.595294 
L 194.077047 123.125294 
L 195.993669 118.595294 
z
" style="fill:#c800c8;stroke:#ffffff;stroke-linejoin:miter;stroke-width:0.5;"/>
   </g>
   <g id="c6439ed45a384c5fbfdbd50027a9e3a3-7-node">
    <path clip-path="url(#p865ac8432f)" d="M 218.542161 87.418235 
L 218.542161 96.478235 
L 214.708917 96.478235 
L 214.708917 87.418235 
L 218.542161 87.418235 
z
" style="fill:#0000ff;stroke:#ffffff;stroke-linejoin:miter;stroke-width:0.5;"/>
   </g>
   <g id="c6439ed45a384c5fbfdbd50027a9e3a3-9-node">
    <path clip-path="url(#p865ac8432f)" d="M 205.351293 96.478235 
C 205.859587 96.478235 206.347131 96.000926 206.706549 95.151429 
C 207.065968 94.301932 207.267915 93.149605 207.267915 91.948235 
C 207.267915 90.746865 207.065968 89.594538 206.706549 88.745042 
C 206.347131 87.895545 205.859587 87.418235 205.351293 87.418235 
C 204.842999 87.418235 204.355455 87.895545 203.996037 88.745042 
C 203.636619 89.594538 203.434671 90.746865 203.434671 91.948235 
C 203.434671 93.149605 203.636619 94.301932 203.996037 95.151429 
C 204.355455 96.000926 204.842999 96.478235 205.351293 96.478235 
z
" style="fill:#ffff00;stroke:#ffffff;stroke-linejoin:miter;stroke-width:0.5;"/>
   </g>
   <g id="c6439ed45a384c5fbfdbd50027a9e3a3-10-node">
    <path clip-path="url(#p865ac8432f)" d="M 195.993669 87.418235 
L 195.993669 96.478235 
L 192.160426 96.478235 
L 192.160426 87.418235 
L 195.993669 87.418235 
z
" style="fill:#0000ff;stroke:#ffffff;stroke-linejoin:miter;stroke-width:0.5;"/>
   </g>
   <g id="c6439ed45a384c5fbfdbd50027a9e3a3-12-node">
    <path clip-path="url(#p865ac8432f)" d="M 182.802802 96.478235 
C 183.311096 96.478235 183.79864 96.000926 184.158058 95.151429 
C 184.517476 94.301932 184.719423 93.149605 184.719423 91.948235 
C 184.719423 90.746865 184.517476 89.594538 184.158058 88.745042 
C 183.79864 87.895545 183.311096 87.418235 182.802802 87.418235 
C 182.294508 87.418235 181.806964 87.895545 181.447545 88.745042 
C 181.088127 89.594538 180.88618 90.746865 180.88618 91.948235 
C 180.88618 93.149605 181.088127 94.301932 181.447545 95.151429 
C 181.806964 96.000926 182.294508 96.478235 182.802802 96.478235 
z
" style="fill:#ffff00;stroke:#ffffff;stroke-linejoin:miter;stroke-width:0.5;"/>
   </g>
   <g id="patch_17">
    <path d="M 135 157.5 
L 135 21.6 
" style="fill:none;stroke:#ffffff;stroke-linecap:square;stroke-linejoin:miter;stroke-width:1.25;"/>
   </g>
   <g id="patch_18">
    <path d="M 279.310345 157.5 
L 279.310345 21.6 
" style="fill:none;stroke:#ffffff;stroke-linecap:square;stroke-linejoin:miter;stroke-width:1.25;"/>
   </g>
   <g id="patch_19">
    <path d="M 135 157.5 
L 279.310345 157.5 
" style="fill:none;stroke:#ffffff;stroke-linecap:square;stroke-linejoin:miter;stroke-width:1.25;"/>
   </g>
   <g id="patch_20">
    <path d="M 135 21.6 
L 279.310345 21.6 
" style="fill:none;stroke:#ffffff;stroke-linecap:square;stroke-linejoin:miter;stroke-width:1.25;"/>
   </g>
   <g id="text_1">
    <!-- 726:6.0 -->
    <defs>
     <path d="M 4.734375 62.203125 
L 4.734375 70.65625 
L 51.078125 70.65625 
L 51.078125 63.8125 
Q 44.234375 56.546875 37.515625 44.484375 
Q 30.8125 32.421875 27.15625 19.671875 
Q 24.515625 10.6875 23.78125 0 
L 14.75 0 
Q 14.890625 8.453125 18.0625 20.40625 
Q 21.234375 32.375 27.171875 43.484375 
Q 33.109375 54.59375 39.796875 62.203125 
z
" id="ArialMT-55"/>
     <path d="M 50.34375 8.453125 
L 50.34375 0 
L 3.03125 0 
Q 2.9375 3.171875 4.046875 6.109375 
Q 5.859375 10.9375 9.828125 15.625 
Q 13.8125 20.3125 21.34375 26.46875 
Q 33.015625 36.03125 37.109375 41.625 
Q 41.21875 47.21875 41.21875 52.203125 
Q 41.21875 57.421875 37.46875 61 
Q 33.734375 64.59375 27.734375 64.59375 
Q 21.390625 64.59375 17.578125 60.78125 
Q 13.765625 56.984375 13.71875 50.25 
L 4.6875 51.171875 
Q 5.609375 61.28125 11.65625 66.578125 
Q 17.71875 71.875 27.9375 71.875 
Q 38.234375 71.875 44.234375 66.15625 
Q 50.25 60.453125 50.25 52 
Q 50.25 47.703125 48.484375 43.546875 
Q 46.734375 39.40625 42.65625 34.8125 
Q 38.578125 30.21875 29.109375 22.21875 
Q 21.1875 15.578125 18.9375 13.203125 
Q 16.703125 10.84375 15.234375 8.453125 
z
" id="ArialMT-50"/>
     <path d="M 49.75 54.046875 
L 41.015625 53.375 
Q 39.84375 58.546875 37.703125 60.890625 
Q 34.125 64.65625 28.90625 64.65625 
Q 24.703125 64.65625 21.53125 62.3125 
Q 17.390625 59.28125 14.984375 53.46875 
Q 12.59375 47.65625 12.5 36.921875 
Q 15.671875 41.75 20.265625 44.09375 
Q 24.859375 46.4375 29.890625 46.4375 
Q 38.671875 46.4375 44.84375 39.96875 
Q 51.03125 33.5 51.03125 23.25 
Q 51.03125 16.5 48.125 10.71875 
Q 45.21875 4.9375 40.140625 1.859375 
Q 35.0625 -1.21875 28.609375 -1.21875 
Q 17.625 -1.21875 10.6875 6.859375 
Q 3.765625 14.9375 3.765625 33.5 
Q 3.765625 54.25 11.421875 63.671875 
Q 18.109375 71.875 29.4375 71.875 
Q 37.890625 71.875 43.28125 67.140625 
Q 48.6875 62.40625 49.75 54.046875 
z
M 13.875 23.1875 
Q 13.875 18.65625 15.796875 14.5 
Q 17.71875 10.359375 21.1875 8.171875 
Q 24.65625 6 28.46875 6 
Q 34.03125 6 38.03125 10.484375 
Q 42.046875 14.984375 42.046875 22.703125 
Q 42.046875 30.125 38.078125 34.390625 
Q 34.125 38.671875 28.125 38.671875 
Q 22.171875 38.671875 18.015625 34.390625 
Q 13.875 30.125 13.875 23.1875 
z
" id="ArialMT-54"/>
     <path d="M 9.03125 41.84375 
L 9.03125 51.859375 
L 19.046875 51.859375 
L 19.046875 41.84375 
z
M 9.03125 0 
L 9.03125 10.015625 
L 19.046875 10.015625 
L 19.046875 0 
z
" id="ArialMT-58"/>
     <path d="M 9.078125 0 
L 9.078125 10.015625 
L 19.09375 10.015625 
L 19.09375 0 
z
" id="ArialMT-46"/>
     <path d="M 4.15625 35.296875 
Q 4.15625 48 6.765625 55.734375 
Q 9.375 63.484375 14.515625 67.671875 
Q 19.671875 71.875 27.484375 71.875 
Q 33.25 71.875 37.59375 69.546875 
Q 41.9375 67.234375 44.765625 62.859375 
Q 47.609375 58.5 49.21875 52.21875 
Q 50.828125 45.953125 50.828125 35.296875 
Q 50.828125 22.703125 48.234375 14.96875 
Q 45.65625 7.234375 40.5 3 
Q 35.359375 -1.21875 27.484375 -1.21875 
Q 17.140625 -1.21875 11.234375 6.203125 
Q 4.15625 15.140625 4.15625 35.296875 
z
M 13.1875 35.296875 
Q 13.1875 17.671875 17.3125 11.828125 
Q 21.4375 6 27.484375 6 
Q 33.546875 6 37.671875 11.859375 
Q 41.796875 17.71875 41.796875 35.296875 
Q 41.796875 52.984375 37.671875 58.78125 
Q 33.546875 64.59375 27.390625 64.59375 
Q 21.34375 64.59375 17.71875 59.46875 
Q 13.1875 52.9375 13.1875 35.296875 
z
" id="ArialMT-48"/>
    </defs>
    <g style="fill:#262626;" transform="translate(187.13861 15.6)scale(0.12 -0.12)">
     <use xlink:href="#ArialMT-55"/>
     <use x="55.615234" xlink:href="#ArialMT-50"/>
     <use x="111.230469" xlink:href="#ArialMT-54"/>
     <use x="166.845703" xlink:href="#ArialMT-58"/>
     <use x="194.628906" xlink:href="#ArialMT-54"/>
     <use x="250.244141" xlink:href="#ArialMT-46"/>
     <use x="278.027344" xlink:href="#ArialMT-48"/>
    </g>
   </g>
  </g>
  <g id="axes_2">
   <g id="patch_21">
    <path d="M 308.172414 157.5 
L 452.482759 157.5 
L 452.482759 21.6 
L 308.172414 21.6 
z
" style="fill:#ffffff;"/>
   </g>
   <g id="patch_22">
    <path clip-path="url(#p2c83840430)" d="M 378.523707 145.242353 
L 367.249461 145.242353 
" style="stroke:#000000;stroke-linejoin:miter;stroke-width:0.5;"/>
   </g>
   <g id="patch_23">
    <path clip-path="url(#p2c83840430)" d="M 389.797953 145.242353 
L 378.523707 145.242353 
" style="stroke:#000000;stroke-linejoin:miter;stroke-width:0.5;"/>
   </g>
   <g id="patch_24">
    <path clip-path="url(#p2c83840430)" d="M 401.072198 145.242353 
L 389.797953 145.242353 
" style="stroke:#000000;stroke-linejoin:miter;stroke-width:0.5;"/>
   </g>
   <g id="patch_25">
    <path clip-path="url(#p2c83840430)" d="M 412.346444 125.257059 
L 401.072198 145.242353 
" style="stroke:#000000;stroke-linejoin:miter;stroke-width:0.5;"/>
   </g>
   <g id="patch_26">
    <path clip-path="url(#p2c83840430)" d="M 378.523707 118.595294 
L 367.249461 118.595294 
" style="stroke:#000000;stroke-linejoin:miter;stroke-width:0.5;"/>
   </g>
   <g id="patch_27">
    <path clip-path="url(#p2c83840430)" d="M 389.797953 118.595294 
L 378.523707 118.595294 
" style="stroke:#000000;stroke-linejoin:miter;stroke-width:0.5;"/>
   </g>
   <g id="patch_28">
    <path clip-path="url(#p2c83840430)" d="M 401.072198 105.271765 
L 389.797953 118.595294 
" style="stroke:#000000;stroke-linejoin:miter;stroke-width:0.5;"/>
   </g>
   <g id="patch_29">
    <path clip-path="url(#p2c83840430)" d="M 367.249461 91.948235 
L 355.975216 91.948235 
" style="stroke:#000000;stroke-linejoin:miter;stroke-width:0.5;"/>
   </g>
   <g id="patch_30">
    <path clip-path="url(#p2c83840430)" d="M 378.523707 91.948235 
L 367.249461 91.948235 
" style="stroke:#000000;stroke-linejoin:miter;stroke-width:0.5;"/>
   </g>
   <g id="patch_31">
    <path clip-path="url(#p2c83840430)" d="M 389.797953 91.948235 
L 378.523707 91.948235 
" style="stroke:#000000;stroke-linejoin:miter;stroke-width:0.5;"/>
   </g>
   <g id="patch_32">
    <path clip-path="url(#p2c83840430)" d="M 401.072198 105.271765 
L 389.797953 91.948235 
" style="stroke:#000000;stroke-linejoin:miter;stroke-width:0.5;"/>
   </g>
   <g id="patch_33">
    <path clip-path="url(#p2c83840430)" d="M 412.346444 125.257059 
L 401.072198 105.271765 
" style="stroke:#000000;stroke-linejoin:miter;stroke-width:0.5;"/>
   </g>
   <g id="patch_34">
    <path clip-path="url(#p2c83840430)" d="M 423.62069 125.257059 
L 412.346444 125.257059 
" style="stroke:#000000;stroke-linejoin:miter;stroke-width:0.5;"/>
   </g>
   <g id="patch_35">
    <path clip-path="url(#p2c83840430)" d="M 434.894935 125.257059 
L 423.62069 125.257059 
" style="stroke:#000000;stroke-linejoin:miter;stroke-width:0.5;"/>
   </g>
   <g id="patch_36">
    <path clip-path="url(#p2c83840430)" d="M 434.894935 125.257059 
L 434.894935 111.933529 
" style="stroke:#000000;stroke-linejoin:miter;stroke-width:0.5;"/>
   </g>
   <g id="3efbf035d1fc4cff991c677c746b1ae3-1-node">
    <path clip-path="url(#p2c83840430)" d="M 436.811557 120.727059 
L 436.811557 129.787059 
L 432.978314 129.787059 
L 432.978314 120.727059 
L 436.811557 120.727059 
z
" style="fill:#0000ff;stroke:#ffffff;stroke-linejoin:miter;stroke-width:0.5;"/>
   </g>
   <g id="3efbf035d1fc4cff991c677c746b1ae3-4-node">
    <path clip-path="url(#p2c83840430)" d="M 425.537311 120.727059 
L 425.537311 129.787059 
L 421.704068 129.787059 
L 421.704068 120.727059 
L 425.537311 120.727059 
z
" style="fill:#0000ff;stroke:#ffffff;stroke-linejoin:miter;stroke-width:0.5;"/>
   </g>
   <g id="3efbf035d1fc4cff991c677c746b1ae3-6-node">
    <path clip-path="url(#p2c83840430)" d="M 412.346444 129.787059 
C 412.854738 129.787059 413.342282 129.309749 413.7017 128.460253 
C 414.061118 127.610756 414.263066 126.458429 414.263066 125.257059 
C 414.263066 124.055689 414.061118 122.903362 413.7017 122.053865 
C 413.342282 121.204368 412.854738 120.727059 412.346444 120.727059 
C 411.83815 120.727059 411.350606 121.204368 410.991188 122.053865 
C 410.63177 122.903362 410.429822 124.055689 410.429822 125.257059 
C 410.429822 126.458429 410.63177 127.610756 410.991188 128.460253 
C 411.350606 129.309749 411.83815 129.787059 412.346444 129.787059 
z
" style="fill:#00c832;stroke:#ffffff;stroke-linejoin:miter;stroke-width:0.5;"/>
   </g>
   <g id="3efbf035d1fc4cff991c677c746b1ae3-19-node">
    <path clip-path="url(#p2c83840430)" d="M 401.072198 149.772353 
C 401.580492 149.772353 402.068036 149.295044 402.427455 148.445547 
C 402.786873 147.59605 402.98882 146.443723 402.98882 145.242353 
C 402.98882 144.040983 402.786873 142.888656 402.427455 142.039159 
C 402.068036 141.189662 401.580492 140.712353 401.072198 140.712353 
C 400.563904 140.712353 400.07636 141.189662 399.716942 142.039159 
C 399.357524 142.888656 399.155577 144.040983 399.155577 145.242353 
C 399.155577 146.443723 399.357524 147.59605 399.716942 148.445547 
C 400.07636 149.295044 400.563904 149.772353 401.072198 149.772353 
z
" style="fill:#00c832;stroke:#ffffff;stroke-linejoin:miter;stroke-width:0.5;"/>
   </g>
   <g id="3efbf035d1fc4cff991c677c746b1ae3-20-node">
    <path clip-path="url(#p2c83840430)" d="M 391.714574 140.712353 
L 391.714574 149.772353 
L 387.881331 149.772353 
L 387.881331 140.712353 
L 391.714574 140.712353 
z
" style="fill:#0000ff;stroke:#ffffff;stroke-linejoin:miter;stroke-width:0.5;"/>
   </g>
   <g id="3efbf035d1fc4cff991c677c746b1ae3-22-node">
    <path clip-path="url(#p2c83840430)" d="M 378.523707 149.772353 
C 379.032001 149.772353 379.519545 149.295044 379.878963 148.445547 
C 380.238381 147.59605 380.440329 146.443723 380.440329 145.242353 
C 380.440329 144.040983 380.238381 142.888656 379.878963 142.039159 
C 379.519545 141.189662 379.032001 140.712353 378.523707 140.712353 
C 378.015413 140.712353 377.527869 141.189662 377.168451 142.039159 
C 376.809032 142.888656 376.607085 144.040983 376.607085 145.242353 
C 376.607085 146.443723 376.809032 147.59605 377.168451 148.445547 
C 377.527869 149.295044 378.015413 149.772353 378.523707 149.772353 
z
" style="fill:#ffff00;stroke:#ffffff;stroke-linejoin:miter;stroke-width:0.5;"/>
   </g>
   <g id="3efbf035d1fc4cff991c677c746b1ae3-23-node">
    <path clip-path="url(#p2c83840430)" d="M 367.249461 140.712353 
L 365.332839 145.242353 
L 367.249461 149.772353 
L 369.166083 145.242353 
z
" style="fill:#c800c8;stroke:#ffffff;stroke-linejoin:miter;stroke-width:0.5;"/>
   </g>
   <g id="3efbf035d1fc4cff991c677c746b1ae3-7-node">
    <path clip-path="url(#p2c83840430)" d="M 401.072198 109.801765 
C 401.580492 109.801765 402.068036 109.324455 402.427455 108.474958 
C 402.786873 107.625462 402.98882 106.473135 402.98882 105.271765 
C 402.98882 104.070395 402.786873 102.918068 402.427455 102.068571 
C 402.068036 101.219074 401.580492 100.741765 401.072198 100.741765 
C 400.563904 100.741765 400.07636 101.219074 399.716942 102.068571 
C 399.357524 102.918068 399.155577 104.070395 399.155577 105.271765 
C 399.155577 106.473135 399.357524 107.625462 399.716942 108.474958 
C 400.07636 109.324455 400.563904 109.801765 401.072198 109.801765 
z
" style="fill:#00c832;stroke:#ffffff;stroke-linejoin:miter;stroke-width:0.5;"/>
   </g>
   <g id="3efbf035d1fc4cff991c677c746b1ae3-14-node">
    <path clip-path="url(#p2c83840430)" d="M 391.714574 114.065294 
L 391.714574 123.125294 
L 387.881331 123.125294 
L 387.881331 114.065294 
L 391.714574 114.065294 
z
" style="fill:#0000ff;stroke:#ffffff;stroke-linejoin:miter;stroke-width:0.5;"/>
   </g>
   <g id="3efbf035d1fc4cff991c677c746b1ae3-16-node">
    <path clip-path="url(#p2c83840430)" d="M 378.523707 123.125294 
C 379.032001 123.125294 379.519545 122.647985 379.878963 121.798488 
C 380.238381 120.948991 380.440329 119.796664 380.440329 118.595294 
C 380.440329 117.393924 380.238381 116.241597 379.878963 115.3921 
C 379.519545 114.542603 379.032001 114.065294 378.523707 114.065294 
C 378.015413 114.065294 377.527869 114.542603 377.168451 115.3921 
C 376.809032 116.241597 376.607085 117.393924 376.607085 118.595294 
C 376.607085 119.796664 376.809032 120.948991 377.168451 121.798488 
C 377.527869 122.647985 378.015413 123.125294 378.523707 123.125294 
z
" style="fill:#ffff00;stroke:#ffffff;stroke-linejoin:miter;stroke-width:0.5;"/>
   </g>
   <g id="3efbf035d1fc4cff991c677c746b1ae3-17-node">
    <path clip-path="url(#p2c83840430)" d="M 367.249461 114.065294 
L 365.332839 118.595294 
L 367.249461 123.125294 
L 369.166083 118.595294 
z
" style="fill:#c800c8;stroke:#ffffff;stroke-linejoin:miter;stroke-width:0.5;"/>
   </g>
   <g id="3efbf035d1fc4cff991c677c746b1ae3-8-node">
    <path clip-path="url(#p2c83840430)" d="M 391.714574 87.418235 
L 391.714574 96.478235 
L 387.881331 96.478235 
L 387.881331 87.418235 
L 391.714574 87.418235 
z
" style="fill:#0000ff;stroke:#ffffff;stroke-linejoin:miter;stroke-width:0.5;"/>
   </g>
   <g id="3efbf035d1fc4cff991c677c746b1ae3-10-node">
    <path clip-path="url(#p2c83840430)" d="M 378.523707 96.478235 
C 379.032001 96.478235 379.519545 96.000926 379.878963 95.151429 
C 380.238381 94.301932 380.440329 93.149605 380.440329 91.948235 
C 380.440329 90.746865 380.238381 89.594538 379.878963 88.745042 
C 379.519545 87.895545 379.032001 87.418235 378.523707 87.418235 
C 378.015413 87.418235 377.527869 87.895545 377.168451 88.745042 
C 376.809032 89.594538 376.607085 90.746865 376.607085 91.948235 
C 376.607085 93.149605 376.809032 94.301932 377.168451 95.151429 
C 377.527869 96.000926 378.015413 96.478235 378.523707 96.478235 
z
" style="fill:#ffff00;stroke:#ffffff;stroke-linejoin:miter;stroke-width:0.5;"/>
   </g>
   <g id="3efbf035d1fc4cff991c677c746b1ae3-11-node">
    <path clip-path="url(#p2c83840430)" d="M 369.166083 87.418235 
L 369.166083 96.478235 
L 365.332839 96.478235 
L 365.332839 87.418235 
L 369.166083 87.418235 
z
" style="fill:#0000ff;stroke:#ffffff;stroke-linejoin:miter;stroke-width:0.5;"/>
   </g>
   <g id="3efbf035d1fc4cff991c677c746b1ae3-13-node">
    <path clip-path="url(#p2c83840430)" d="M 355.975216 96.478235 
C 356.48351 96.478235 356.971054 96.000926 357.330472 95.151429 
C 357.68989 94.301932 357.891837 93.149605 357.891837 91.948235 
C 357.891837 90.746865 357.68989 89.594538 357.330472 88.745042 
C 356.971054 87.895545 356.48351 87.418235 355.975216 87.418235 
C 355.466921 87.418235 354.979377 87.895545 354.619959 88.745042 
C 354.260541 89.594538 354.058594 90.746865 354.058594 91.948235 
C 354.058594 93.149605 354.260541 94.301932 354.619959 95.151429 
C 354.979377 96.000926 355.466921 96.478235 355.975216 96.478235 
z
" style="fill:#ffff00;stroke:#ffffff;stroke-linejoin:miter;stroke-width:0.5;"/>
   </g>
   <g id="3efbf035d1fc4cff991c677c746b1ae3-3-node">
    <path clip-path="url(#p2c83840430)" d="M 434.894935 107.403529 
L 433.235092 114.198529 
L 436.554778 114.198529 
z
" style="fill:#ff0000;stroke:#ffffff;stroke-linejoin:miter;stroke-width:0.5;"/>
   </g>
   <g id="patch_37">
    <path d="M 308.172414 157.5 
L 308.172414 21.6 
" style="fill:none;stroke:#ffffff;stroke-linecap:square;stroke-linejoin:miter;stroke-width:1.25;"/>
   </g>
   <g id="patch_38">
    <path d="M 452.482759 157.5 
L 452.482759 21.6 
" style="fill:none;stroke:#ffffff;stroke-linecap:square;stroke-linejoin:miter;stroke-width:1.25;"/>
   </g>
   <g id="patch_39">
    <path d="M 308.172414 157.5 
L 452.482759 157.5 
" style="fill:none;stroke:#ffffff;stroke-linecap:square;stroke-linejoin:miter;stroke-width:1.25;"/>
   </g>
   <g id="patch_40">
    <path d="M 308.172414 21.6 
L 452.482759 21.6 
" style="fill:none;stroke:#ffffff;stroke-linecap:square;stroke-linejoin:miter;stroke-width:1.25;"/>
   </g>
   <g id="text_2">
    <!-- 893:6.0 -->
    <defs>
     <path d="M 17.671875 38.8125 
Q 12.203125 40.828125 9.5625 44.53125 
Q 6.9375 48.25 6.9375 53.421875 
Q 6.9375 61.234375 12.546875 66.546875 
Q 18.171875 71.875 27.484375 71.875 
Q 36.859375 71.875 42.578125 66.421875 
Q 48.296875 60.984375 48.296875 53.171875 
Q 48.296875 48.1875 45.671875 44.5 
Q 43.0625 40.828125 37.75 38.8125 
Q 44.34375 36.671875 47.78125 31.875 
Q 51.21875 27.09375 51.21875 20.453125 
Q 51.21875 11.28125 44.71875 5.03125 
Q 38.234375 -1.21875 27.640625 -1.21875 
Q 17.046875 -1.21875 10.546875 5.046875 
Q 4.046875 11.328125 4.046875 20.703125 
Q 4.046875 27.6875 7.59375 32.390625 
Q 11.140625 37.109375 17.671875 38.8125 
z
M 15.921875 53.71875 
Q 15.921875 48.640625 19.1875 45.40625 
Q 22.46875 42.1875 27.6875 42.1875 
Q 32.765625 42.1875 36.015625 45.375 
Q 39.265625 48.578125 39.265625 53.21875 
Q 39.265625 58.0625 35.90625 61.359375 
Q 32.5625 64.65625 27.59375 64.65625 
Q 22.5625 64.65625 19.234375 61.421875 
Q 15.921875 58.203125 15.921875 53.71875 
z
M 13.09375 20.65625 
Q 13.09375 16.890625 14.875 13.375 
Q 16.65625 9.859375 20.171875 7.921875 
Q 23.6875 6 27.734375 6 
Q 34.03125 6 38.125 10.046875 
Q 42.234375 14.109375 42.234375 20.359375 
Q 42.234375 26.703125 38.015625 30.859375 
Q 33.796875 35.015625 27.4375 35.015625 
Q 21.234375 35.015625 17.15625 30.90625 
Q 13.09375 26.8125 13.09375 20.65625 
z
" id="ArialMT-56"/>
     <path d="M 5.46875 16.546875 
L 13.921875 17.328125 
Q 14.984375 11.375 18.015625 8.6875 
Q 21.046875 6 25.78125 6 
Q 29.828125 6 32.875 7.859375 
Q 35.9375 9.71875 37.890625 12.8125 
Q 39.84375 15.921875 41.15625 21.1875 
Q 42.484375 26.46875 42.484375 31.9375 
Q 42.484375 32.515625 42.4375 33.6875 
Q 39.796875 29.5 35.234375 26.875 
Q 30.671875 24.265625 25.34375 24.265625 
Q 16.453125 24.265625 10.296875 30.703125 
Q 4.15625 37.15625 4.15625 47.703125 
Q 4.15625 58.59375 10.578125 65.234375 
Q 17 71.875 26.65625 71.875 
Q 33.640625 71.875 39.421875 68.109375 
Q 45.21875 64.359375 48.21875 57.390625 
Q 51.21875 50.4375 51.21875 37.25 
Q 51.21875 23.53125 48.234375 15.40625 
Q 45.265625 7.28125 39.375 3.03125 
Q 33.5 -1.21875 25.59375 -1.21875 
Q 17.1875 -1.21875 11.859375 3.4375 
Q 6.546875 8.109375 5.46875 16.546875 
z
M 41.453125 48.140625 
Q 41.453125 55.71875 37.421875 60.15625 
Q 33.40625 64.59375 27.734375 64.59375 
Q 21.875 64.59375 17.53125 59.8125 
Q 13.1875 55.03125 13.1875 47.40625 
Q 13.1875 40.578125 17.3125 36.296875 
Q 21.4375 32.03125 27.484375 32.03125 
Q 33.59375 32.03125 37.515625 36.296875 
Q 41.453125 40.578125 41.453125 48.140625 
z
" id="ArialMT-57"/>
     <path d="M 4.203125 18.890625 
L 12.984375 20.0625 
Q 14.5 12.59375 18.140625 9.296875 
Q 21.78125 6 27 6 
Q 33.203125 6 37.46875 10.296875 
Q 41.75 14.59375 41.75 20.953125 
Q 41.75 27 37.796875 30.921875 
Q 33.84375 34.859375 27.734375 34.859375 
Q 25.25 34.859375 21.53125 33.890625 
L 22.515625 41.609375 
Q 23.390625 41.5 23.921875 41.5 
Q 29.546875 41.5 34.03125 44.421875 
Q 38.53125 47.359375 38.53125 53.46875 
Q 38.53125 58.296875 35.25 61.46875 
Q 31.984375 64.65625 26.8125 64.65625 
Q 21.6875 64.65625 18.265625 61.421875 
Q 14.84375 58.203125 13.875 51.765625 
L 5.078125 53.328125 
Q 6.6875 62.15625 12.390625 67.015625 
Q 18.109375 71.875 26.609375 71.875 
Q 32.46875 71.875 37.390625 69.359375 
Q 42.328125 66.84375 44.9375 62.5 
Q 47.5625 58.15625 47.5625 53.265625 
Q 47.5625 48.640625 45.0625 44.828125 
Q 42.578125 41.015625 37.703125 38.765625 
Q 44.046875 37.3125 47.5625 32.6875 
Q 51.078125 28.078125 51.078125 21.140625 
Q 51.078125 11.765625 44.234375 5.25 
Q 37.40625 -1.265625 26.953125 -1.265625 
Q 17.53125 -1.265625 11.296875 4.34375 
Q 5.078125 9.96875 4.203125 18.890625 
z
" id="ArialMT-51"/>
    </defs>
    <g style="fill:#262626;" transform="translate(360.311024 15.6)scale(0.12 -0.12)">
     <use xlink:href="#ArialMT-56"/>
     <use x="55.615234" xlink:href="#ArialMT-57"/>
     <use x="111.230469" xlink:href="#ArialMT-51"/>
     <use x="166.845703" xlink:href="#ArialMT-58"/>
     <use x="194.628906" xlink:href="#ArialMT-54"/>
     <use x="250.244141" xlink:href="#ArialMT-46"/>
     <use x="278.027344" xlink:href="#ArialMT-48"/>
    </g>
   </g>
  </g>
  <g id="axes_3">
   <g id="patch_41">
    <path d="M 481.344828 157.5 
L 625.655172 157.5 
L 625.655172 21.6 
L 481.344828 21.6 
z
" style="fill:#ffffff;"/>
   </g>
   <g id="patch_42">
    <path clip-path="url(#pdb865a42bc)" d="M 558.61014 150.816393 
L 548.38986 150.816393 
" style="stroke:#000000;stroke-linejoin:miter;stroke-width:0.5;"/>
   </g>
   <g id="patch_43">
    <path clip-path="url(#pdb865a42bc)" d="M 568.830419 150.816393 
L 558.61014 150.816393 
" style="stroke:#000000;stroke-linejoin:miter;stroke-width:0.5;"/>
   </g>
   <g id="patch_44">
    <path clip-path="url(#pdb865a42bc)" d="M 579.050698 150.816393 
L 568.830419 150.816393 
" style="stroke:#000000;stroke-linejoin:miter;stroke-width:0.5;"/>
   </g>
   <g id="patch_45">
    <path clip-path="url(#pdb865a42bc)" d="M 589.270978 129.930123 
L 579.050698 150.816393 
" style="stroke:#000000;stroke-linejoin:miter;stroke-width:0.5;"/>
   </g>
   <g id="patch_46">
    <path clip-path="url(#pdb865a42bc)" d="M 558.61014 122.968033 
L 548.38986 122.968033 
" style="stroke:#000000;stroke-linejoin:miter;stroke-width:0.5;"/>
   </g>
   <g id="patch_47">
    <path clip-path="url(#pdb865a42bc)" d="M 568.830419 122.968033 
L 558.61014 122.968033 
" style="stroke:#000000;stroke-linejoin:miter;stroke-width:0.5;"/>
   </g>
   <g id="patch_48">
    <path clip-path="url(#pdb865a42bc)" d="M 579.050698 109.043852 
L 568.830419 122.968033 
" style="stroke:#000000;stroke-linejoin:miter;stroke-width:0.5;"/>
   </g>
   <g id="patch_49">
    <path clip-path="url(#pdb865a42bc)" d="M 538.169581 95.119672 
L 527.949302 95.119672 
" style="stroke:#000000;stroke-linejoin:miter;stroke-width:0.5;"/>
   </g>
   <g id="patch_50">
    <path clip-path="url(#pdb865a42bc)" d="M 548.38986 95.119672 
L 538.169581 95.119672 
" style="stroke:#000000;stroke-linejoin:miter;stroke-width:0.5;"/>
   </g>
   <g id="patch_51">
    <path clip-path="url(#pdb865a42bc)" d="M 558.61014 95.119672 
L 548.38986 95.119672 
" style="stroke:#000000;stroke-linejoin:miter;stroke-width:0.5;"/>
   </g>
   <g id="patch_52">
    <path clip-path="url(#pdb865a42bc)" d="M 568.830419 95.119672 
L 558.61014 95.119672 
" style="stroke:#000000;stroke-linejoin:miter;stroke-width:0.5;"/>
   </g>
   <g id="patch_53">
    <path clip-path="url(#pdb865a42bc)" d="M 579.050698 109.043852 
L 568.830419 95.119672 
" style="stroke:#000000;stroke-linejoin:miter;stroke-width:0.5;"/>
   </g>
   <g id="patch_54">
    <path clip-path="url(#pdb865a42bc)" d="M 589.270978 129.930123 
L 579.050698 109.043852 
" style="stroke:#000000;stroke-linejoin:miter;stroke-width:0.5;"/>
   </g>
   <g id="patch_55">
    <path clip-path="url(#pdb865a42bc)" d="M 599.491257 129.930123 
L 589.270978 129.930123 
" style="stroke:#000000;stroke-linejoin:miter;stroke-width:0.5;"/>
   </g>
   <g id="patch_56">
    <path clip-path="url(#pdb865a42bc)" d="M 609.711537 129.930123 
L 599.491257 129.930123 
" style="stroke:#000000;stroke-linejoin:miter;stroke-width:0.5;"/>
   </g>
   <g id="32113b12854b4ee2aa6c9cd5ea6d34b0-1-node">
    <path clip-path="url(#pdb865a42bc)" d="M 611.448984 125.195902 
L 611.448984 134.664344 
L 607.974089 134.664344 
L 607.974089 125.195902 
L 611.448984 125.195902 
z
" style="fill:#0000ff;stroke:#ffffff;stroke-linejoin:miter;stroke-width:0.5;"/>
   </g>
   <g id="32113b12854b4ee2aa6c9cd5ea6d34b0-3-node">
    <path clip-path="url(#pdb865a42bc)" d="M 601.228705 125.195902 
L 601.228705 134.664344 
L 597.75381 134.664344 
L 597.75381 125.195902 
L 601.228705 125.195902 
z
" style="fill:#0000ff;stroke:#ffffff;stroke-linejoin:miter;stroke-width:0.5;"/>
   </g>
   <g id="32113b12854b4ee2aa6c9cd5ea6d34b0-5-node">
    <path clip-path="url(#pdb865a42bc)" d="M 589.270978 134.664344 
C 589.731754 134.664344 590.173721 134.165517 590.499539 133.277723 
C 590.825357 132.389929 591.008425 131.185653 591.008425 129.930123 
C 591.008425 128.674593 590.825357 127.470317 590.499539 126.582523 
C 590.173721 125.694729 589.731754 125.195902 589.270978 125.195902 
C 588.810201 125.195902 588.368235 125.694729 588.042417 126.582523 
C 587.716599 127.470317 587.53353 128.674593 587.53353 129.930123 
C 587.53353 131.185653 587.716599 132.389929 588.042417 133.277723 
C 588.368235 134.165517 588.810201 134.664344 589.270978 134.664344 
z
" style="fill:#00c832;stroke:#ffffff;stroke-linejoin:miter;stroke-width:0.5;"/>
   </g>
   <g id="32113b12854b4ee2aa6c9cd5ea6d34b0-20-node">
    <path clip-path="url(#pdb865a42bc)" d="M 579.050698 155.550615 
C 579.511475 155.550615 579.953441 155.051787 580.279259 154.163993 
C 580.605078 153.2762 580.788146 152.071924 580.788146 150.816393 
C 580.788146 149.560863 580.605078 148.356587 580.279259 147.468793 
C 579.953441 146.581 579.511475 146.082172 579.050698 146.082172 
C 578.589922 146.082172 578.147956 146.581 577.822138 147.468793 
C 577.496319 148.356587 577.313251 149.560863 577.313251 150.816393 
C 577.313251 152.071924 577.496319 153.2762 577.822138 154.163993 
C 578.147956 155.051787 578.589922 155.550615 579.050698 155.550615 
z
" style="fill:#00c832;stroke:#ffffff;stroke-linejoin:miter;stroke-width:0.5;"/>
   </g>
   <g id="32113b12854b4ee2aa6c9cd5ea6d34b0-21-node">
    <path clip-path="url(#pdb865a42bc)" d="M 570.567867 146.082172 
L 570.567867 155.550615 
L 567.092972 155.550615 
L 567.092972 146.082172 
L 570.567867 146.082172 
z
" style="fill:#0000ff;stroke:#ffffff;stroke-linejoin:miter;stroke-width:0.5;"/>
   </g>
   <g id="32113b12854b4ee2aa6c9cd5ea6d34b0-23-node">
    <path clip-path="url(#pdb865a42bc)" d="M 558.61014 155.550615 
C 559.070916 155.550615 559.512882 155.051787 559.838701 154.163993 
C 560.164519 153.2762 560.347587 152.071924 560.347587 150.816393 
C 560.347587 149.560863 560.164519 148.356587 559.838701 147.468793 
C 559.512882 146.581 559.070916 146.082172 558.61014 146.082172 
C 558.149363 146.082172 557.707397 146.581 557.381579 147.468793 
C 557.055761 148.356587 556.872692 149.560863 556.872692 150.816393 
C 556.872692 152.071924 557.055761 153.2762 557.381579 154.163993 
C 557.707397 155.051787 558.149363 155.550615 558.61014 155.550615 
z
" style="fill:#ffff00;stroke:#ffffff;stroke-linejoin:miter;stroke-width:0.5;"/>
   </g>
   <g id="32113b12854b4ee2aa6c9cd5ea6d34b0-24-node">
    <path clip-path="url(#pdb865a42bc)" d="M 548.38986 146.082172 
L 546.652413 150.816393 
L 548.38986 155.550615 
L 550.127308 150.816393 
z
" style="fill:#c800c8;stroke:#ffffff;stroke-linejoin:miter;stroke-width:0.5;"/>
   </g>
   <g id="32113b12854b4ee2aa6c9cd5ea6d34b0-6-node">
    <path clip-path="url(#pdb865a42bc)" d="M 579.050698 113.778074 
C 579.511475 113.778074 579.953441 113.279246 580.279259 112.391452 
C 580.605078 111.503659 580.788146 110.299383 580.788146 109.043852 
C 580.788146 107.788322 580.605078 106.584046 580.279259 105.696252 
C 579.953441 104.808459 579.511475 104.309631 579.050698 104.309631 
C 578.589922 104.309631 578.147956 104.808459 577.822138 105.696252 
C 577.496319 106.584046 577.313251 107.788322 577.313251 109.043852 
C 577.313251 110.299383 577.496319 111.503659 577.822138 112.391452 
C 578.147956 113.279246 578.589922 113.778074 579.050698 113.778074 
z
" style="fill:#00c832;stroke:#ffffff;stroke-linejoin:miter;stroke-width:0.5;"/>
   </g>
   <g id="32113b12854b4ee2aa6c9cd5ea6d34b0-15-node">
    <path clip-path="url(#pdb865a42bc)" d="M 570.567867 118.233811 
L 570.567867 127.702254 
L 567.092972 127.702254 
L 567.092972 118.233811 
L 570.567867 118.233811 
z
" style="fill:#0000ff;stroke:#ffffff;stroke-linejoin:miter;stroke-width:0.5;"/>
   </g>
   <g id="32113b12854b4ee2aa6c9cd5ea6d34b0-17-node">
    <path clip-path="url(#pdb865a42bc)" d="M 558.61014 127.702254 
C 559.070916 127.702254 559.512882 127.203427 559.838701 126.315633 
C 560.164519 125.427839 560.347587 124.223563 560.347587 122.968033 
C 560.347587 121.712503 560.164519 120.508227 559.838701 119.620433 
C 559.512882 118.732639 559.070916 118.233811 558.61014 118.233811 
C 558.149363 118.233811 557.707397 118.732639 557.381579 119.620433 
C 557.055761 120.508227 556.872692 121.712503 556.872692 122.968033 
C 556.872692 124.223563 557.055761 125.427839 557.381579 126.315633 
C 557.707397 127.203427 558.149363 127.702254 558.61014 127.702254 
z
" style="fill:#ffff00;stroke:#ffffff;stroke-linejoin:miter;stroke-width:0.5;"/>
   </g>
   <g id="32113b12854b4ee2aa6c9cd5ea6d34b0-18-node">
    <path clip-path="url(#pdb865a42bc)" d="M 548.38986 118.233811 
L 546.652413 122.968033 
L 548.38986 127.702254 
L 550.127308 122.968033 
z
" style="fill:#c800c8;stroke:#ffffff;stroke-linejoin:miter;stroke-width:0.5;"/>
   </g>
   <g id="32113b12854b4ee2aa6c9cd5ea6d34b0-7-node">
    <path clip-path="url(#pdb865a42bc)" d="M 570.567867 90.385451 
L 570.567867 99.853893 
L 567.092972 99.853893 
L 567.092972 90.385451 
L 570.567867 90.385451 
z
" style="fill:#0000ff;stroke:#ffffff;stroke-linejoin:miter;stroke-width:0.5;"/>
   </g>
   <g id="32113b12854b4ee2aa6c9cd5ea6d34b0-9-node">
    <path clip-path="url(#pdb865a42bc)" d="M 558.61014 99.853893 
C 559.070916 99.853893 559.512882 99.355066 559.838701 98.467272 
C 560.164519 97.579478 560.347587 96.375202 560.347587 95.119672 
C 560.347587 93.864142 560.164519 92.659866 559.838701 91.772072 
C 559.512882 90.884278 559.070916 90.385451 558.61014 90.385451 
C 558.149363 90.385451 557.707397 90.884278 557.381579 91.772072 
C 557.055761 92.659866 556.872692 93.864142 556.872692 95.119672 
C 556.872692 96.375202 557.055761 97.579478 557.381579 98.467272 
C 557.707397 99.355066 558.149363 99.853893 558.61014 99.853893 
z
" style="fill:#ffff00;stroke:#ffffff;stroke-linejoin:miter;stroke-width:0.5;"/>
   </g>
   <g id="32113b12854b4ee2aa6c9cd5ea6d34b0-10-node">
    <path clip-path="url(#pdb865a42bc)" d="M 550.127308 90.385451 
L 550.127308 99.853893 
L 546.652413 99.853893 
L 546.652413 90.385451 
L 550.127308 90.385451 
z
" style="fill:#0000ff;stroke:#ffffff;stroke-linejoin:miter;stroke-width:0.5;"/>
   </g>
   <g id="32113b12854b4ee2aa6c9cd5ea6d34b0-12-node">
    <path clip-path="url(#pdb865a42bc)" d="M 538.169581 99.853893 
C 538.630357 99.853893 539.072324 99.355066 539.398142 98.467272 
C 539.72396 97.579478 539.907028 96.375202 539.907028 95.119672 
C 539.907028 93.864142 539.72396 92.659866 539.398142 91.772072 
C 539.072324 90.884278 538.630357 90.385451 538.169581 90.385451 
C 537.708804 90.385451 537.266838 90.884278 536.94102 91.772072 
C 536.615202 92.659866 536.432133 93.864142 536.432133 95.119672 
C 536.432133 96.375202 536.615202 97.579478 536.94102 98.467272 
C 537.266838 99.355066 537.708804 99.853893 538.169581 99.853893 
z
" style="fill:#ffff00;stroke:#ffffff;stroke-linejoin:miter;stroke-width:0.5;"/>
   </g>
   <g id="32113b12854b4ee2aa6c9cd5ea6d34b0-13-node">
    <path clip-path="url(#pdb865a42bc)" d="M 527.949302 90.385451 
L 526.211854 95.119672 
L 527.949302 99.853893 
L 529.686749 95.119672 
z
" style="fill:#c800c8;stroke:#ffffff;stroke-linejoin:miter;stroke-width:0.5;"/>
   </g>
   <g id="patch_57">
    <path d="M 481.344828 157.5 
L 481.344828 21.6 
" style="fill:none;stroke:#ffffff;stroke-linecap:square;stroke-linejoin:miter;stroke-width:1.25;"/>
   </g>
   <g id="patch_58">
    <path d="M 625.655172 157.5 
L 625.655172 21.6 
" style="fill:none;stroke:#ffffff;stroke-linecap:square;stroke-linejoin:miter;stroke-width:1.25;"/>
   </g>
   <g id="patch_59">
    <path d="M 481.344828 157.5 
L 625.655172 157.5 
" style="fill:none;stroke:#ffffff;stroke-linecap:square;stroke-linejoin:miter;stroke-width:1.25;"/>
   </g>
   <g id="patch_60">
    <path d="M 481.344828 21.6 
L 625.655172 21.6 
" style="fill:none;stroke:#ffffff;stroke-linecap:square;stroke-linejoin:miter;stroke-width:1.25;"/>
   </g>
   <g id="text_3">
    <!-- 956:3.0 -->
    <defs>
     <path d="M 4.15625 18.75 
L 13.375 19.53125 
Q 14.40625 12.796875 18.140625 9.390625 
Q 21.875 6 27.15625 6 
Q 33.5 6 37.890625 10.78125 
Q 42.28125 15.578125 42.28125 23.484375 
Q 42.28125 31 38.0625 35.34375 
Q 33.84375 39.703125 27 39.703125 
Q 22.75 39.703125 19.328125 37.765625 
Q 15.921875 35.84375 13.96875 32.765625 
L 5.71875 33.84375 
L 12.640625 70.609375 
L 48.25 70.609375 
L 48.25 62.203125 
L 19.671875 62.203125 
L 15.828125 42.96875 
Q 22.265625 47.46875 29.34375 47.46875 
Q 38.71875 47.46875 45.15625 40.96875 
Q 51.609375 34.46875 51.609375 24.265625 
Q 51.609375 14.546875 45.953125 7.46875 
Q 39.0625 -1.21875 27.15625 -1.21875 
Q 17.390625 -1.21875 11.203125 4.25 
Q 5.03125 9.71875 4.15625 18.75 
z
" id="ArialMT-53"/>
    </defs>
    <g style="fill:#262626;" transform="translate(533.483438 15.6)scale(0.12 -0.12)">
     <use xlink:href="#ArialMT-57"/>
     <use x="55.615234" xlink:href="#ArialMT-53"/>
     <use x="111.230469" xlink:href="#ArialMT-54"/>
     <use x="166.845703" xlink:href="#ArialMT-58"/>
     <use x="194.628906" xlink:href="#ArialMT-51"/>
     <use x="250.244141" xlink:href="#ArialMT-46"/>
     <use x="278.027344" xlink:href="#ArialMT-48"/>
    </g>
   </g>
  </g>
  <g id="axes_4">
   <g id="patch_61">
    <path d="M 654.517241 157.5 
L 798.827586 157.5 
L 798.827586 21.6 
L 654.517241 21.6 
z
" style="fill:#ffffff;"/>
   </g>
   <g id="patch_62">
    <path clip-path="url(#p91458e6408)" d="M 731.782553 150.816393 
L 721.562274 150.816393 
" style="stroke:#000000;stroke-linejoin:miter;stroke-width:0.5;"/>
   </g>
   <g id="patch_63">
    <path clip-path="url(#p91458e6408)" d="M 742.002833 150.816393 
L 731.782553 150.816393 
" style="stroke:#000000;stroke-linejoin:miter;stroke-width:0.5;"/>
   </g>
   <g id="patch_64">
    <path clip-path="url(#p91458e6408)" d="M 752.223112 150.816393 
L 742.002833 150.816393 
" style="stroke:#000000;stroke-linejoin:miter;stroke-width:0.5;"/>
   </g>
   <g id="patch_65">
    <path clip-path="url(#p91458e6408)" d="M 762.443392 129.930123 
L 752.223112 150.816393 
" style="stroke:#000000;stroke-linejoin:miter;stroke-width:0.5;"/>
   </g>
   <g id="patch_66">
    <path clip-path="url(#p91458e6408)" d="M 731.782553 122.968033 
L 721.562274 122.968033 
" style="stroke:#000000;stroke-linejoin:miter;stroke-width:0.5;"/>
   </g>
   <g id="patch_67">
    <path clip-path="url(#p91458e6408)" d="M 742.002833 122.968033 
L 731.782553 122.968033 
" style="stroke:#000000;stroke-linejoin:miter;stroke-width:0.5;"/>
   </g>
   <g id="patch_68">
    <path clip-path="url(#p91458e6408)" d="M 752.223112 109.043852 
L 742.002833 122.968033 
" style="stroke:#000000;stroke-linejoin:miter;stroke-width:0.5;"/>
   </g>
   <g id="patch_69">
    <path clip-path="url(#p91458e6408)" d="M 711.341995 95.119672 
L 701.121715 95.119672 
" style="stroke:#000000;stroke-linejoin:miter;stroke-width:0.5;"/>
   </g>
   <g id="patch_70">
    <path clip-path="url(#p91458e6408)" d="M 721.562274 95.119672 
L 711.341995 95.119672 
" style="stroke:#000000;stroke-linejoin:miter;stroke-width:0.5;"/>
   </g>
   <g id="patch_71">
    <path clip-path="url(#p91458e6408)" d="M 731.782553 95.119672 
L 721.562274 95.119672 
" style="stroke:#000000;stroke-linejoin:miter;stroke-width:0.5;"/>
   </g>
   <g id="patch_72">
    <path clip-path="url(#p91458e6408)" d="M 742.002833 95.119672 
L 731.782553 95.119672 
" style="stroke:#000000;stroke-linejoin:miter;stroke-width:0.5;"/>
   </g>
   <g id="patch_73">
    <path clip-path="url(#p91458e6408)" d="M 752.223112 109.043852 
L 742.002833 95.119672 
" style="stroke:#000000;stroke-linejoin:miter;stroke-width:0.5;"/>
   </g>
   <g id="patch_74">
    <path clip-path="url(#p91458e6408)" d="M 762.443392 129.930123 
L 752.223112 109.043852 
" style="stroke:#000000;stroke-linejoin:miter;stroke-width:0.5;"/>
   </g>
   <g id="patch_75">
    <path clip-path="url(#p91458e6408)" d="M 772.663671 129.930123 
L 762.443392 129.930123 
" style="stroke:#000000;stroke-linejoin:miter;stroke-width:0.5;"/>
   </g>
   <g id="patch_76">
    <path clip-path="url(#p91458e6408)" d="M 782.88395 129.930123 
L 772.663671 129.930123 
" style="stroke:#000000;stroke-linejoin:miter;stroke-width:0.5;"/>
   </g>
   <g id="patch_77">
    <path clip-path="url(#p91458e6408)" d="M 782.88395 129.930123 
L 782.88395 116.005943 
" style="stroke:#000000;stroke-linejoin:miter;stroke-width:0.5;"/>
   </g>
   <g id="1a1920593dfc48a89b04c618164fd1a0-1-node">
    <path clip-path="url(#p91458e6408)" d="M 784.621398 125.195902 
L 784.621398 134.664344 
L 781.146503 134.664344 
L 781.146503 125.195902 
L 784.621398 125.195902 
z
" style="fill:#0000ff;stroke:#ffffff;stroke-linejoin:miter;stroke-width:0.5;"/>
   </g>
   <g id="1a1920593dfc48a89b04c618164fd1a0-4-node">
    <path clip-path="url(#p91458e6408)" d="M 774.401118 125.195902 
L 774.401118 134.664344 
L 770.926224 134.664344 
L 770.926224 125.195902 
L 774.401118 125.195902 
z
" style="fill:#0000ff;stroke:#ffffff;stroke-linejoin:miter;stroke-width:0.5;"/>
   </g>
   <g id="1a1920593dfc48a89b04c618164fd1a0-6-node">
    <path clip-path="url(#p91458e6408)" d="M 762.443392 134.664344 
C 762.904168 134.664344 763.346134 134.165517 763.671953 133.277723 
C 763.997771 132.389929 764.180839 131.185653 764.180839 129.930123 
C 764.180839 128.674593 763.997771 127.470317 763.671953 126.582523 
C 763.346134 125.694729 762.904168 125.195902 762.443392 125.195902 
C 761.982615 125.195902 761.540649 125.694729 761.214831 126.582523 
C 760.889013 127.470317 760.705944 128.674593 760.705944 129.930123 
C 760.705944 131.185653 760.889013 132.389929 761.214831 133.277723 
C 761.540649 134.165517 761.982615 134.664344 762.443392 134.664344 
z
" style="fill:#00c832;stroke:#ffffff;stroke-linejoin:miter;stroke-width:0.5;"/>
   </g>
   <g id="1a1920593dfc48a89b04c618164fd1a0-21-node">
    <path clip-path="url(#p91458e6408)" d="M 752.223112 155.550615 
C 752.683889 155.550615 753.125855 155.051787 753.451673 154.163993 
C 753.777491 153.2762 753.96056 152.071924 753.96056 150.816393 
C 753.96056 149.560863 753.777491 148.356587 753.451673 147.468793 
C 753.125855 146.581 752.683889 146.082172 752.223112 146.082172 
C 751.762336 146.082172 751.320369 146.581 750.994551 147.468793 
C 750.668733 148.356587 750.485665 149.560863 750.485665 150.816393 
C 750.485665 152.071924 750.668733 153.2762 750.994551 154.163993 
C 751.320369 155.051787 751.762336 155.550615 752.223112 155.550615 
z
" style="fill:#00c832;stroke:#ffffff;stroke-linejoin:miter;stroke-width:0.5;"/>
   </g>
   <g id="1a1920593dfc48a89b04c618164fd1a0-22-node">
    <path clip-path="url(#p91458e6408)" d="M 743.74028 146.082172 
L 743.74028 155.550615 
L 740.265385 155.550615 
L 740.265385 146.082172 
L 743.74028 146.082172 
z
" style="fill:#0000ff;stroke:#ffffff;stroke-linejoin:miter;stroke-width:0.5;"/>
   </g>
   <g id="1a1920593dfc48a89b04c618164fd1a0-24-node">
    <path clip-path="url(#p91458e6408)" d="M 731.782553 155.550615 
C 732.24333 155.550615 732.685296 155.051787 733.011114 154.163993 
C 733.336933 153.2762 733.520001 152.071924 733.520001 150.816393 
C 733.520001 149.560863 733.336933 148.356587 733.011114 147.468793 
C 732.685296 146.581 732.24333 146.082172 731.782553 146.082172 
C 731.321777 146.082172 730.879811 146.581 730.553993 147.468793 
C 730.228174 148.356587 730.045106 149.560863 730.045106 150.816393 
C 730.045106 152.071924 730.228174 153.2762 730.553993 154.163993 
C 730.879811 155.051787 731.321777 155.550615 731.782553 155.550615 
z
" style="fill:#ffff00;stroke:#ffffff;stroke-linejoin:miter;stroke-width:0.5;"/>
   </g>
   <g id="1a1920593dfc48a89b04c618164fd1a0-25-node">
    <path clip-path="url(#p91458e6408)" d="M 721.562274 146.082172 
L 719.824827 150.816393 
L 721.562274 155.550615 
L 723.299722 150.816393 
z
" style="fill:#c800c8;stroke:#ffffff;stroke-linejoin:miter;stroke-width:0.5;"/>
   </g>
   <g id="1a1920593dfc48a89b04c618164fd1a0-7-node">
    <path clip-path="url(#p91458e6408)" d="M 752.223112 113.778074 
C 752.683889 113.778074 753.125855 113.279246 753.451673 112.391452 
C 753.777491 111.503659 753.96056 110.299383 753.96056 109.043852 
C 753.96056 107.788322 753.777491 106.584046 753.451673 105.696252 
C 753.125855 104.808459 752.683889 104.309631 752.223112 104.309631 
C 751.762336 104.309631 751.320369 104.808459 750.994551 105.696252 
C 750.668733 106.584046 750.485665 107.788322 750.485665 109.043852 
C 750.485665 110.299383 750.668733 111.503659 750.994551 112.391452 
C 751.320369 113.279246 751.762336 113.778074 752.223112 113.778074 
z
" style="fill:#00c832;stroke:#ffffff;stroke-linejoin:miter;stroke-width:0.5;"/>
   </g>
   <g id="1a1920593dfc48a89b04c618164fd1a0-16-node">
    <path clip-path="url(#p91458e6408)" d="M 743.74028 118.233811 
L 743.74028 127.702254 
L 740.265385 127.702254 
L 740.265385 118.233811 
L 743.74028 118.233811 
z
" style="fill:#0000ff;stroke:#ffffff;stroke-linejoin:miter;stroke-width:0.5;"/>
   </g>
   <g id="1a1920593dfc48a89b04c618164fd1a0-18-node">
    <path clip-path="url(#p91458e6408)" d="M 731.782553 127.702254 
C 732.24333 127.702254 732.685296 127.203427 733.011114 126.315633 
C 733.336933 125.427839 733.520001 124.223563 733.520001 122.968033 
C 733.520001 121.712503 733.336933 120.508227 733.011114 119.620433 
C 732.685296 118.732639 732.24333 118.233811 731.782553 118.233811 
C 731.321777 118.233811 730.879811 118.732639 730.553993 119.620433 
C 730.228174 120.508227 730.045106 121.712503 730.045106 122.968033 
C 730.045106 124.223563 730.228174 125.427839 730.553993 126.315633 
C 730.879811 127.203427 731.321777 127.702254 731.782553 127.702254 
z
" style="fill:#ffff00;stroke:#ffffff;stroke-linejoin:miter;stroke-width:0.5;"/>
   </g>
   <g id="1a1920593dfc48a89b04c618164fd1a0-19-node">
    <path clip-path="url(#p91458e6408)" d="M 721.562274 118.233811 
L 719.824827 122.968033 
L 721.562274 127.702254 
L 723.299722 122.968033 
z
" style="fill:#c800c8;stroke:#ffffff;stroke-linejoin:miter;stroke-width:0.5;"/>
   </g>
   <g id="1a1920593dfc48a89b04c618164fd1a0-8-node">
    <path clip-path="url(#p91458e6408)" d="M 743.74028 90.385451 
L 743.74028 99.853893 
L 740.265385 99.853893 
L 740.265385 90.385451 
L 743.74028 90.385451 
z
" style="fill:#0000ff;stroke:#ffffff;stroke-linejoin:miter;stroke-width:0.5;"/>
   </g>
   <g id="1a1920593dfc48a89b04c618164fd1a0-10-node">
    <path clip-path="url(#p91458e6408)" d="M 731.782553 99.853893 
C 732.24333 99.853893 732.685296 99.355066 733.011114 98.467272 
C 733.336933 97.579478 733.520001 96.375202 733.520001 95.119672 
C 733.520001 93.864142 733.336933 92.659866 733.011114 91.772072 
C 732.685296 90.884278 732.24333 90.385451 731.782553 90.385451 
C 731.321777 90.385451 730.879811 90.884278 730.553993 91.772072 
C 730.228174 92.659866 730.045106 93.864142 730.045106 95.119672 
C 730.045106 96.375202 730.228174 97.579478 730.553993 98.467272 
C 730.879811 99.355066 731.321777 99.853893 731.782553 99.853893 
z
" style="fill:#ffff00;stroke:#ffffff;stroke-linejoin:miter;stroke-width:0.5;"/>
   </g>
   <g id="1a1920593dfc48a89b04c618164fd1a0-11-node">
    <path clip-path="url(#p91458e6408)" d="M 723.299722 90.385451 
L 723.299722 99.853893 
L 719.824827 99.853893 
L 719.824827 90.385451 
L 723.299722 90.385451 
z
" style="fill:#0000ff;stroke:#ffffff;stroke-linejoin:miter;stroke-width:0.5;"/>
   </g>
   <g id="1a1920593dfc48a89b04c618164fd1a0-13-node">
    <path clip-path="url(#p91458e6408)" d="M 711.341995 99.853893 
C 711.802771 99.853893 712.244737 99.355066 712.570556 98.467272 
C 712.896374 97.579478 713.079442 96.375202 713.079442 95.119672 
C 713.079442 93.864142 712.896374 92.659866 712.570556 91.772072 
C 712.244737 90.884278 711.802771 90.385451 711.341995 90.385451 
C 710.881218 90.385451 710.439252 90.884278 710.113434 91.772072 
C 709.787616 92.659866 709.604547 93.864142 709.604547 95.119672 
C 709.604547 96.375202 709.787616 97.579478 710.113434 98.467272 
C 710.439252 99.355066 710.881218 99.853893 711.341995 99.853893 
z
" style="fill:#ffff00;stroke:#ffffff;stroke-linejoin:miter;stroke-width:0.5;"/>
   </g>
   <g id="1a1920593dfc48a89b04c618164fd1a0-14-node">
    <path clip-path="url(#p91458e6408)" d="M 701.121715 90.385451 
L 699.384268 95.119672 
L 701.121715 99.853893 
L 702.859163 95.119672 
z
" style="fill:#c800c8;stroke:#ffffff;stroke-linejoin:miter;stroke-width:0.5;"/>
   </g>
   <g id="1a1920593dfc48a89b04c618164fd1a0-3-node">
    <path clip-path="url(#p91458e6408)" d="M 782.88395 111.271721 
L 781.379277 118.373053 
L 784.388624 118.373053 
z
" style="fill:#ff0000;stroke:#ffffff;stroke-linejoin:miter;stroke-width:0.5;"/>
   </g>
   <g id="patch_78">
    <path d="M 654.517241 157.5 
L 654.517241 21.6 
" style="fill:none;stroke:#ffffff;stroke-linecap:square;stroke-linejoin:miter;stroke-width:1.25;"/>
   </g>
   <g id="patch_79">
    <path d="M 798.827586 157.5 
L 798.827586 21.6 
" style="fill:none;stroke:#ffffff;stroke-linecap:square;stroke-linejoin:miter;stroke-width:1.25;"/>
   </g>
   <g id="patch_80">
    <path d="M 654.517241 157.5 
L 798.827586 157.5 
" style="fill:none;stroke:#ffffff;stroke-linecap:square;stroke-linejoin:miter;stroke-width:1.25;"/>
   </g>
   <g id="patch_81">
    <path d="M 654.517241 21.6 
L 798.827586 21.6 
" style="fill:none;stroke:#ffffff;stroke-linecap:square;stroke-linejoin:miter;stroke-width:1.25;"/>
   </g>
   <g id="text_4">
    <!-- 1122:3.0 -->
    <defs>
     <path d="M 37.25 0 
L 28.46875 0 
L 28.46875 56 
Q 25.296875 52.984375 20.140625 49.953125 
Q 14.984375 46.921875 10.890625 45.40625 
L 10.890625 53.90625 
Q 18.265625 57.375 23.78125 62.296875 
Q 29.296875 67.234375 31.59375 71.875 
L 37.25 71.875 
z
" id="ArialMT-49"/>
    </defs>
    <g style="fill:#262626;" transform="translate(703.325851 15.6)scale(0.12 -0.12)">
     <use xlink:href="#ArialMT-49"/>
     <use x="55.505859" xlink:href="#ArialMT-49"/>
     <use x="111.121094" xlink:href="#ArialMT-50"/>
     <use x="166.736328" xlink:href="#ArialMT-50"/>
     <use x="222.351562" xlink:href="#ArialMT-58"/>
     <use x="250.134766" xlink:href="#ArialMT-51"/>
     <use x="305.75" xlink:href="#ArialMT-46"/>
     <use x="333.533203" xlink:href="#ArialMT-48"/>
    </g>
   </g>
  </g>
  <g id="axes_5">
   <g id="patch_82">
    <path d="M 827.689655 157.5 
L 972 157.5 
L 972 21.6 
L 827.689655 21.6 
z
" style="fill:#eaeaf2;"/>
   </g>
   <g id="matplotlib.axis_1">
    <g id="xtick_1">
     <g id="line2d_1">
      <path clip-path="url(#pa8d9ddaeaf)" d="M 827.689655 157.5 
L 827.689655 21.6 
" style="fill:none;stroke:#ffffff;stroke-linecap:round;"/>
     </g>
     <g id="text_5">
      <!-- 0.00 -->
      <g style="fill:#262626;" transform="translate(816.98614 174.873594)scale(0.11 -0.11)">
       <use xlink:href="#ArialMT-48"/>
       <use x="55.615234" xlink:href="#ArialMT-46"/>
       <use x="83.398438" xlink:href="#ArialMT-48"/>
       <use x="139.013672" xlink:href="#ArialMT-48"/>
      </g>
     </g>
    </g>
    <g id="xtick_2">
     <g id="line2d_2">
      <path clip-path="url(#pa8d9ddaeaf)" d="M 863.767241 157.5 
L 863.767241 21.6 
" style="fill:none;stroke:#ffffff;stroke-linecap:round;"/>
     </g>
     <g id="text_6">
      <!-- 0.25 -->
      <g style="fill:#262626;" transform="translate(853.063726 174.873594)scale(0.11 -0.11)">
       <use xlink:href="#ArialMT-48"/>
       <use x="55.615234" xlink:href="#ArialMT-46"/>
       <use x="83.398438" xlink:href="#ArialMT-50"/>
       <use x="139.013672" xlink:href="#ArialMT-53"/>
      </g>
     </g>
    </g>
    <g id="xtick_3">
     <g id="line2d_3">
      <path clip-path="url(#pa8d9ddaeaf)" d="M 899.844828 157.5 
L 899.844828 21.6 
" style="fill:none;stroke:#ffffff;stroke-linecap:round;"/>
     </g>
     <g id="text_7">
      <!-- 0.50 -->
      <g style="fill:#262626;" transform="translate(889.141312 174.873594)scale(0.11 -0.11)">
       <use xlink:href="#ArialMT-48"/>
       <use x="55.615234" xlink:href="#ArialMT-46"/>
       <use x="83.398438" xlink:href="#ArialMT-53"/>
       <use x="139.013672" xlink:href="#ArialMT-48"/>
      </g>
     </g>
    </g>
    <g id="xtick_4">
     <g id="line2d_4">
      <path clip-path="url(#pa8d9ddaeaf)" d="M 935.922414 157.5 
L 935.922414 21.6 
" style="fill:none;stroke:#ffffff;stroke-linecap:round;"/>
     </g>
     <g id="text_8">
      <!-- 0.75 -->
      <g style="fill:#262626;" transform="translate(925.218898 174.873594)scale(0.11 -0.11)">
       <use xlink:href="#ArialMT-48"/>
       <use x="55.615234" xlink:href="#ArialMT-46"/>
       <use x="83.398438" xlink:href="#ArialMT-55"/>
       <use x="139.013672" xlink:href="#ArialMT-53"/>
      </g>
     </g>
    </g>
    <g id="xtick_5">
     <g id="line2d_5">
      <path clip-path="url(#pa8d9ddaeaf)" d="M 972 157.5 
L 972 21.6 
" style="fill:none;stroke:#ffffff;stroke-linecap:round;"/>
     </g>
     <g id="text_9">
      <!-- 1.00 -->
      <g style="fill:#262626;" transform="translate(961.296484 174.873594)scale(0.11 -0.11)">
       <use xlink:href="#ArialMT-49"/>
       <use x="55.615234" xlink:href="#ArialMT-46"/>
       <use x="83.398438" xlink:href="#ArialMT-48"/>
       <use x="139.013672" xlink:href="#ArialMT-48"/>
      </g>
     </g>
    </g>
   </g>
   <g id="matplotlib.axis_2">
    <g id="ytick_1">
     <g id="line2d_6">
      <path clip-path="url(#pa8d9ddaeaf)" d="M 827.689655 157.5 
L 972 157.5 
" style="fill:none;stroke:#ffffff;stroke-linecap:round;"/>
     </g>
     <g id="text_10">
      <!-- 0.0 -->
      <g style="fill:#262626;" transform="translate(802.899655 161.436797)scale(0.11 -0.11)">
       <use xlink:href="#ArialMT-48"/>
       <use x="55.615234" xlink:href="#ArialMT-46"/>
       <use x="83.398438" xlink:href="#ArialMT-48"/>
      </g>
     </g>
    </g>
    <g id="ytick_2">
     <g id="line2d_7">
      <path clip-path="url(#pa8d9ddaeaf)" d="M 827.689655 130.32 
L 972 130.32 
" style="fill:none;stroke:#ffffff;stroke-linecap:round;"/>
     </g>
     <g id="text_11">
      <!-- 0.2 -->
      <g style="fill:#262626;" transform="translate(802.899655 134.256797)scale(0.11 -0.11)">
       <use xlink:href="#ArialMT-48"/>
       <use x="55.615234" xlink:href="#ArialMT-46"/>
       <use x="83.398438" xlink:href="#ArialMT-50"/>
      </g>
     </g>
    </g>
    <g id="ytick_3">
     <g id="line2d_8">
      <path clip-path="url(#pa8d9ddaeaf)" d="M 827.689655 103.14 
L 972 103.14 
" style="fill:none;stroke:#ffffff;stroke-linecap:round;"/>
     </g>
     <g id="text_12">
      <!-- 0.4 -->
      <defs>
       <path d="M 32.328125 0 
L 32.328125 17.140625 
L 1.265625 17.140625 
L 1.265625 25.203125 
L 33.9375 71.578125 
L 41.109375 71.578125 
L 41.109375 25.203125 
L 50.78125 25.203125 
L 50.78125 17.140625 
L 41.109375 17.140625 
L 41.109375 0 
z
M 32.328125 25.203125 
L 32.328125 57.46875 
L 9.90625 25.203125 
z
" id="ArialMT-52"/>
      </defs>
      <g style="fill:#262626;" transform="translate(802.899655 107.076797)scale(0.11 -0.11)">
       <use xlink:href="#ArialMT-48"/>
       <use x="55.615234" xlink:href="#ArialMT-46"/>
       <use x="83.398438" xlink:href="#ArialMT-52"/>
      </g>
     </g>
    </g>
    <g id="ytick_4">
     <g id="line2d_9">
      <path clip-path="url(#pa8d9ddaeaf)" d="M 827.689655 75.96 
L 972 75.96 
" style="fill:none;stroke:#ffffff;stroke-linecap:round;"/>
     </g>
     <g id="text_13">
      <!-- 0.6 -->
      <g style="fill:#262626;" transform="translate(802.899655 79.896797)scale(0.11 -0.11)">
       <use xlink:href="#ArialMT-48"/>
       <use x="55.615234" xlink:href="#ArialMT-46"/>
       <use x="83.398438" xlink:href="#ArialMT-54"/>
      </g>
     </g>
    </g>
    <g id="ytick_5">
     <g id="line2d_10">
      <path clip-path="url(#pa8d9ddaeaf)" d="M 827.689655 48.78 
L 972 48.78 
" style="fill:none;stroke:#ffffff;stroke-linecap:round;"/>
     </g>
     <g id="text_14">
      <!-- 0.8 -->
      <g style="fill:#262626;" transform="translate(802.899655 52.716797)scale(0.11 -0.11)">
       <use xlink:href="#ArialMT-48"/>
       <use x="55.615234" xlink:href="#ArialMT-46"/>
       <use x="83.398438" xlink:href="#ArialMT-56"/>
      </g>
     </g>
    </g>
    <g id="ytick_6">
     <g id="line2d_11">
      <path clip-path="url(#pa8d9ddaeaf)" d="M 827.689655 21.6 
L 972 21.6 
" style="fill:none;stroke:#ffffff;stroke-linecap:round;"/>
     </g>
     <g id="text_15">
      <!-- 1.0 -->
      <g style="fill:#262626;" transform="translate(802.899655 25.536797)scale(0.11 -0.11)">
       <use xlink:href="#ArialMT-49"/>
       <use x="55.615234" xlink:href="#ArialMT-46"/>
       <use x="83.398438" xlink:href="#ArialMT-48"/>
      </g>
     </g>
    </g>
   </g>
   <g id="patch_83">
    <path d="M 827.689655 157.5 
L 827.689655 21.6 
" style="fill:none;stroke:#ffffff;stroke-linecap:square;stroke-linejoin:miter;stroke-width:1.25;"/>
   </g>
   <g id="patch_84">
    <path d="M 972 157.5 
L 972 21.6 
" style="fill:none;stroke:#ffffff;stroke-linecap:square;stroke-linejoin:miter;stroke-width:1.25;"/>
   </g>
   <g id="patch_85">
    <path d="M 827.689655 157.5 
L 972 157.5 
" style="fill:none;stroke:#ffffff;stroke-linecap:square;stroke-linejoin:miter;stroke-width:1.25;"/>
   </g>
   <g id="patch_86">
    <path d="M 827.689655 21.6 
L 972 21.6 
" style="fill:none;stroke:#ffffff;stroke-linecap:square;stroke-linejoin:miter;stroke-width:1.25;"/>
   </g>
   <g id="text_16">
    <!-- 17 -->
    <g style="fill:#262626;" transform="translate(893.171703 15.6)scale(0.12 -0.12)">
     <use xlink:href="#ArialMT-49"/>
     <use x="55.615234" xlink:href="#ArialMT-55"/>
    </g>
   </g>
  </g>
 </g>
 <defs>
  <clipPath id="p865ac8432f">
   <rect height="135.9" width="144.310345" x="135" y="21.6"/>
  </clipPath>
  <clipPath id="p2c83840430">
   <rect height="135.9" width="144.310345" x="308.172414" y="21.6"/>
  </clipPath>
  <clipPath id="pdb865a42bc">
   <rect height="135.9" width="144.310345" x="481.344828" y="21.6"/>
  </clipPath>
  <clipPath id="p91458e6408">
   <rect height="135.9" width="144.310345" x="654.517241" y="21.6"/>
  </clipPath>
  <clipPath id="pa8d9ddaeaf">
   <rect height="135.9" width="144.310345" x="827.689655" y="21.6"/>
  </clipPath>
 </defs>
</svg>
