<?xml version="1.0" encoding="utf-8" standalone="no"?>
<!DOCTYPE svg PUBLIC "-//W3C//DTD SVG 1.1//EN"
  "http://www.w3.org/Graphics/SVG/1.1/DTD/svg11.dtd">
<!-- Created with matplotlib (https://matplotlib.org/) -->
<svg height="180pt" version="1.1" viewBox="0 0 1080 180" width="1080pt" xmlns="http://www.w3.org/2000/svg" xmlns:xlink="http://www.w3.org/1999/xlink">
 <defs>
  <style type="text/css">
*{stroke-linecap:butt;stroke-linejoin:round;}
  </style>
 </defs>
 <g id="figure_1">
  <g id="patch_1">
   <path d="M 0 180 
L 1080 180 
L 1080 0 
L 0 0 
z
" style="fill:#ffffff;"/>
  </g>
  <g id="axes_1">
   <g id="patch_2">
    <path d="M 135 157.5 
L 279.310345 157.5 
L 279.310345 21.6 
L 135 21.6 
z
" style="fill:#ffffff;"/>
   </g>
   <g id="patch_3">
    <path clip-path="url(#pf0fc9c0d2e)" d="M 212.855292 128.516588 
L 198.952561 128.516588 
" style="stroke:#000000;stroke-linejoin:miter;stroke-width:0.5;"/>
   </g>
   <g id="patch_4">
    <path clip-path="url(#pf0fc9c0d2e)" d="M 226.758023 112.414692 
L 212.855292 128.516588 
" style="stroke:#000000;stroke-linejoin:miter;stroke-width:0.5;"/>
   </g>
   <g id="patch_5">
    <path clip-path="url(#pf0fc9c0d2e)" d="M 198.952561 96.312796 
L 185.049831 96.312796 
" style="stroke:#000000;stroke-linejoin:miter;stroke-width:0.5;"/>
   </g>
   <g id="patch_6">
    <path clip-path="url(#pf0fc9c0d2e)" d="M 212.855292 96.312796 
L 198.952561 96.312796 
" style="stroke:#000000;stroke-linejoin:miter;stroke-width:0.5;"/>
   </g>
   <g id="patch_7">
    <path clip-path="url(#pf0fc9c0d2e)" d="M 226.758023 112.414692 
L 212.855292 96.312796 
" style="stroke:#000000;stroke-linejoin:miter;stroke-width:0.5;"/>
   </g>
   <g id="patch_8">
    <path clip-path="url(#pf0fc9c0d2e)" d="M 240.660753 112.414692 
L 226.758023 112.414692 
" style="stroke:#000000;stroke-linejoin:miter;stroke-width:0.5;"/>
   </g>
   <g id="patch_9">
    <path clip-path="url(#pf0fc9c0d2e)" d="M 254.563484 112.414692 
L 240.660753 112.414692 
" style="stroke:#000000;stroke-linejoin:miter;stroke-width:0.5;"/>
   </g>
   <g id="ab7c743150c84986a71545c84ad7c64b-1-node">
    <path clip-path="url(#pf0fc9c0d2e)" d="M 256.926948 106.940047 
L 256.926948 117.889336 
L 252.20002 117.889336 
L 252.20002 106.940047 
L 256.926948 106.940047 
z
" style="fill:#0000ff;stroke:#ffffff;stroke-linejoin:miter;stroke-width:0.5;"/>
   </g>
   <g id="ab7c743150c84986a71545c84ad7c64b-3-node">
    <path clip-path="url(#pf0fc9c0d2e)" d="M 243.024218 106.940047 
L 243.024218 117.889336 
L 238.297289 117.889336 
L 238.297289 106.940047 
L 243.024218 106.940047 
z
" style="fill:#0000ff;stroke:#ffffff;stroke-linejoin:miter;stroke-width:0.5;"/>
   </g>
   <g id="ab7c743150c84986a71545c84ad7c64b-5-node">
    <path clip-path="url(#pf0fc9c0d2e)" d="M 226.758023 117.889336 
C 227.384821 117.889336 227.986031 117.312493 228.429244 116.28585 
C 228.872457 115.259207 229.121487 113.866585 229.121487 112.414692 
C 229.121487 110.962799 228.872457 109.570177 228.429244 108.543534 
C 227.986031 107.51689 227.384821 106.940047 226.758023 106.940047 
C 226.131225 106.940047 225.530014 107.51689 225.086801 108.543534 
C 224.643588 109.570177 224.394559 110.962799 224.394559 112.414692 
C 224.394559 113.866585 224.643588 115.259207 225.086801 116.28585 
C 225.530014 117.312493 226.131225 117.889336 226.758023 117.889336 
z
" style="fill:#00c832;stroke:#ffffff;stroke-linejoin:miter;stroke-width:0.5;"/>
   </g>
   <g id="ab7c743150c84986a71545c84ad7c64b-10-node">
    <path clip-path="url(#pf0fc9c0d2e)" d="M 212.855292 133.991232 
C 213.48209 133.991232 214.0833 133.414389 214.526514 132.387746 
C 214.969727 131.361103 215.218756 129.96848 215.218756 128.516588 
C 215.218756 127.064695 214.969727 125.672073 214.526514 124.645429 
C 214.0833 123.618786 213.48209 123.041943 212.855292 123.041943 
C 212.228494 123.041943 211.627284 123.618786 211.18407 124.645429 
C 210.740857 125.672073 210.491828 127.064695 210.491828 128.516588 
C 210.491828 129.96848 210.740857 131.361103 211.18407 132.387746 
C 211.627284 133.414389 212.228494 133.991232 212.855292 133.991232 
z
" style="fill:#00c832;stroke:#ffffff;stroke-linejoin:miter;stroke-width:0.5;"/>
   </g>
   <g id="ab7c743150c84986a71545c84ad7c64b-11-node">
    <path clip-path="url(#pf0fc9c0d2e)" d="M 201.316026 123.041943 
L 201.316026 133.991232 
L 196.589097 133.991232 
L 196.589097 123.041943 
L 201.316026 123.041943 
z
" style="fill:#0000ff;stroke:#ffffff;stroke-linejoin:miter;stroke-width:0.5;"/>
   </g>
   <g id="ab7c743150c84986a71545c84ad7c64b-6-node">
    <path clip-path="url(#pf0fc9c0d2e)" d="M 212.855292 101.787441 
C 213.48209 101.787441 214.0833 101.210598 214.526514 100.183954 
C 214.969727 99.157311 215.218756 97.764689 215.218756 96.312796 
C 215.218756 94.860904 214.969727 93.468281 214.526514 92.441638 
C 214.0833 91.414995 213.48209 90.838152 212.855292 90.838152 
C 212.228494 90.838152 211.627284 91.414995 211.18407 92.441638 
C 210.740857 93.468281 210.491828 94.860904 210.491828 96.312796 
C 210.491828 97.764689 210.740857 99.157311 211.18407 100.183954 
C 211.627284 101.210598 212.228494 101.787441 212.855292 101.787441 
z
" style="fill:#00c832;stroke:#ffffff;stroke-linejoin:miter;stroke-width:0.5;"/>
   </g>
   <g id="ab7c743150c84986a71545c84ad7c64b-7-node">
    <path clip-path="url(#pf0fc9c0d2e)" d="M 201.316026 90.838152 
L 201.316026 101.787441 
L 196.589097 101.787441 
L 196.589097 90.838152 
L 201.316026 90.838152 
z
" style="fill:#0000ff;stroke:#ffffff;stroke-linejoin:miter;stroke-width:0.5;"/>
   </g>
   <g id="ab7c743150c84986a71545c84ad7c64b-9-node">
    <path clip-path="url(#pf0fc9c0d2e)" d="M 185.049831 101.787441 
C 185.676629 101.787441 186.277839 101.210598 186.721052 100.183954 
C 187.164265 99.157311 187.413295 97.764689 187.413295 96.312796 
C 187.413295 94.860904 187.164265 93.468281 186.721052 92.441638 
C 186.277839 91.414995 185.676629 90.838152 185.049831 90.838152 
C 184.423033 90.838152 183.821822 91.414995 183.378609 92.441638 
C 182.935396 93.468281 182.686366 94.860904 182.686366 96.312796 
C 182.686366 97.764689 182.935396 99.157311 183.378609 100.183954 
C 183.821822 101.210598 184.423033 101.787441 185.049831 101.787441 
z
" style="fill:#ffff00;stroke:#ffffff;stroke-linejoin:miter;stroke-width:0.5;"/>
   </g>
   <g id="patch_10">
    <path d="M 135 157.5 
L 135 21.6 
" style="fill:none;stroke:#ffffff;stroke-linecap:square;stroke-linejoin:miter;stroke-width:1.25;"/>
   </g>
   <g id="patch_11">
    <path d="M 279.310345 157.5 
L 279.310345 21.6 
" style="fill:none;stroke:#ffffff;stroke-linecap:square;stroke-linejoin:miter;stroke-width:1.25;"/>
   </g>
   <g id="patch_12">
    <path d="M 135 157.5 
L 279.310345 157.5 
" style="fill:none;stroke:#ffffff;stroke-linecap:square;stroke-linejoin:miter;stroke-width:1.25;"/>
   </g>
   <g id="patch_13">
    <path d="M 135 21.6 
L 279.310345 21.6 
" style="fill:none;stroke:#ffffff;stroke-linecap:square;stroke-linejoin:miter;stroke-width:1.25;"/>
   </g>
   <g id="text_1">
    <!-- 15:1 -->
    <defs>
     <path d="M 37.25 0 
L 28.46875 0 
L 28.46875 56 
Q 25.296875 52.984375 20.140625 49.953125 
Q 14.984375 46.921875 10.890625 45.40625 
L 10.890625 53.90625 
Q 18.265625 57.375 23.78125 62.296875 
Q 29.296875 67.234375 31.59375 71.875 
L 37.25 71.875 
z
" id="ArialMT-49"/>
     <path d="M 4.15625 18.75 
L 13.375 19.53125 
Q 14.40625 12.796875 18.140625 9.390625 
Q 21.875 6 27.15625 6 
Q 33.5 6 37.890625 10.78125 
Q 42.28125 15.578125 42.28125 23.484375 
Q 42.28125 31 38.0625 35.34375 
Q 33.84375 39.703125 27 39.703125 
Q 22.75 39.703125 19.328125 37.765625 
Q 15.921875 35.84375 13.96875 32.765625 
L 5.71875 33.84375 
L 12.640625 70.609375 
L 48.25 70.609375 
L 48.25 62.203125 
L 19.671875 62.203125 
L 15.828125 42.96875 
Q 22.265625 47.46875 29.34375 47.46875 
Q 38.71875 47.46875 45.15625 40.96875 
Q 51.609375 34.46875 51.609375 24.265625 
Q 51.609375 14.546875 45.953125 7.46875 
Q 39.0625 -1.21875 27.15625 -1.21875 
Q 17.390625 -1.21875 11.203125 4.25 
Q 5.03125 9.71875 4.15625 18.75 
z
" id="ArialMT-53"/>
     <path d="M 9.03125 41.84375 
L 9.03125 51.859375 
L 19.046875 51.859375 
L 19.046875 41.84375 
z
M 9.03125 0 
L 9.03125 10.015625 
L 19.046875 10.015625 
L 19.046875 0 
z
" id="ArialMT-58"/>
    </defs>
    <g style="fill:#262626;" transform="translate(195.47861 15.6)scale(0.12 -0.12)">
     <use xlink:href="#ArialMT-49"/>
     <use x="55.615234" xlink:href="#ArialMT-53"/>
     <use x="111.230469" xlink:href="#ArialMT-58"/>
     <use x="139.013672" xlink:href="#ArialMT-49"/>
    </g>
   </g>
  </g>
  <g id="axes_2">
   <g id="patch_14">
    <path d="M 308.172414 157.5 
L 452.482759 157.5 
L 452.482759 21.6 
L 308.172414 21.6 
z
" style="fill:#ffffff;"/>
   </g>
   <g id="patch_15">
    <path clip-path="url(#pbb3c0636df)" d="M 386.027706 128.516588 
L 372.124975 128.516588 
" style="stroke:#000000;stroke-linejoin:miter;stroke-width:0.5;"/>
   </g>
   <g id="patch_16">
    <path clip-path="url(#pbb3c0636df)" d="M 399.930437 112.414692 
L 386.027706 128.516588 
" style="stroke:#000000;stroke-linejoin:miter;stroke-width:0.5;"/>
   </g>
   <g id="patch_17">
    <path clip-path="url(#pbb3c0636df)" d="M 372.124975 96.312796 
L 358.222244 96.312796 
" style="stroke:#000000;stroke-linejoin:miter;stroke-width:0.5;"/>
   </g>
   <g id="patch_18">
    <path clip-path="url(#pbb3c0636df)" d="M 386.027706 96.312796 
L 372.124975 96.312796 
" style="stroke:#000000;stroke-linejoin:miter;stroke-width:0.5;"/>
   </g>
   <g id="patch_19">
    <path clip-path="url(#pbb3c0636df)" d="M 399.930437 112.414692 
L 386.027706 96.312796 
" style="stroke:#000000;stroke-linejoin:miter;stroke-width:0.5;"/>
   </g>
   <g id="patch_20">
    <path clip-path="url(#pbb3c0636df)" d="M 413.833167 112.414692 
L 399.930437 112.414692 
" style="stroke:#000000;stroke-linejoin:miter;stroke-width:0.5;"/>
   </g>
   <g id="patch_21">
    <path clip-path="url(#pbb3c0636df)" d="M 427.735898 112.414692 
L 413.833167 112.414692 
" style="stroke:#000000;stroke-linejoin:miter;stroke-width:0.5;"/>
   </g>
   <g id="patch_22">
    <path clip-path="url(#pbb3c0636df)" d="M 427.735898 112.414692 
L 427.735898 96.312796 
" style="stroke:#000000;stroke-linejoin:miter;stroke-width:0.5;"/>
   </g>
   <g id="49b645465a1b4d18bfb689ce4e481185-1-node">
    <path clip-path="url(#pbb3c0636df)" d="M 430.099362 106.940047 
L 430.099362 117.889336 
L 425.372434 117.889336 
L 425.372434 106.940047 
L 430.099362 106.940047 
z
" style="fill:#0000ff;stroke:#ffffff;stroke-linejoin:miter;stroke-width:0.5;"/>
   </g>
   <g id="49b645465a1b4d18bfb689ce4e481185-4-node">
    <path clip-path="url(#pbb3c0636df)" d="M 416.196631 106.940047 
L 416.196631 117.889336 
L 411.469703 117.889336 
L 411.469703 106.940047 
L 416.196631 106.940047 
z
" style="fill:#0000ff;stroke:#ffffff;stroke-linejoin:miter;stroke-width:0.5;"/>
   </g>
   <g id="49b645465a1b4d18bfb689ce4e481185-6-node">
    <path clip-path="url(#pbb3c0636df)" d="M 399.930437 117.889336 
C 400.557235 117.889336 401.158445 117.312493 401.601658 116.28585 
C 402.044871 115.259207 402.293901 113.866585 402.293901 112.414692 
C 402.293901 110.962799 402.044871 109.570177 401.601658 108.543534 
C 401.158445 107.51689 400.557235 106.940047 399.930437 106.940047 
C 399.303638 106.940047 398.702428 107.51689 398.259215 108.543534 
C 397.816002 109.570177 397.566972 110.962799 397.566972 112.414692 
C 397.566972 113.866585 397.816002 115.259207 398.259215 116.28585 
C 398.702428 117.312493 399.303638 117.889336 399.930437 117.889336 
z
" style="fill:#00c832;stroke:#ffffff;stroke-linejoin:miter;stroke-width:0.5;"/>
   </g>
   <g id="49b645465a1b4d18bfb689ce4e481185-11-node">
    <path clip-path="url(#pbb3c0636df)" d="M 386.027706 133.991232 
C 386.654504 133.991232 387.255714 133.414389 387.698927 132.387746 
C 388.142141 131.361103 388.39117 129.96848 388.39117 128.516588 
C 388.39117 127.064695 388.142141 125.672073 387.698927 124.645429 
C 387.255714 123.618786 386.654504 123.041943 386.027706 123.041943 
C 385.400908 123.041943 384.799697 123.618786 384.356484 124.645429 
C 383.913271 125.672073 383.664242 127.064695 383.664242 128.516588 
C 383.664242 129.96848 383.913271 131.361103 384.356484 132.387746 
C 384.799697 133.414389 385.400908 133.991232 386.027706 133.991232 
z
" style="fill:#00c832;stroke:#ffffff;stroke-linejoin:miter;stroke-width:0.5;"/>
   </g>
   <g id="49b645465a1b4d18bfb689ce4e481185-12-node">
    <path clip-path="url(#pbb3c0636df)" d="M 374.488439 123.041943 
L 374.488439 133.991232 
L 369.761511 133.991232 
L 369.761511 123.041943 
L 374.488439 123.041943 
z
" style="fill:#0000ff;stroke:#ffffff;stroke-linejoin:miter;stroke-width:0.5;"/>
   </g>
   <g id="49b645465a1b4d18bfb689ce4e481185-7-node">
    <path clip-path="url(#pbb3c0636df)" d="M 386.027706 101.787441 
C 386.654504 101.787441 387.255714 101.210598 387.698927 100.183954 
C 388.142141 99.157311 388.39117 97.764689 388.39117 96.312796 
C 388.39117 94.860904 388.142141 93.468281 387.698927 92.441638 
C 387.255714 91.414995 386.654504 90.838152 386.027706 90.838152 
C 385.400908 90.838152 384.799697 91.414995 384.356484 92.441638 
C 383.913271 93.468281 383.664242 94.860904 383.664242 96.312796 
C 383.664242 97.764689 383.913271 99.157311 384.356484 100.183954 
C 384.799697 101.210598 385.400908 101.787441 386.027706 101.787441 
z
" style="fill:#00c832;stroke:#ffffff;stroke-linejoin:miter;stroke-width:0.5;"/>
   </g>
   <g id="49b645465a1b4d18bfb689ce4e481185-8-node">
    <path clip-path="url(#pbb3c0636df)" d="M 374.488439 90.838152 
L 374.488439 101.787441 
L 369.761511 101.787441 
L 369.761511 90.838152 
L 374.488439 90.838152 
z
" style="fill:#0000ff;stroke:#ffffff;stroke-linejoin:miter;stroke-width:0.5;"/>
   </g>
   <g id="49b645465a1b4d18bfb689ce4e481185-10-node">
    <path clip-path="url(#pbb3c0636df)" d="M 358.222244 101.787441 
C 358.849042 101.787441 359.450253 101.210598 359.893466 100.183954 
C 360.336679 99.157311 360.585709 97.764689 360.585709 96.312796 
C 360.585709 94.860904 360.336679 93.468281 359.893466 92.441638 
C 359.450253 91.414995 358.849042 90.838152 358.222244 90.838152 
C 357.595446 90.838152 356.994236 91.414995 356.551023 92.441638 
C 356.10781 93.468281 355.85878 94.860904 355.85878 96.312796 
C 355.85878 97.764689 356.10781 99.157311 356.551023 100.183954 
C 356.994236 101.210598 357.595446 101.787441 358.222244 101.787441 
z
" style="fill:#ffff00;stroke:#ffffff;stroke-linejoin:miter;stroke-width:0.5;"/>
   </g>
   <g id="49b645465a1b4d18bfb689ce4e481185-3-node">
    <path clip-path="url(#pbb3c0636df)" d="M 427.735898 90.838152 
L 425.689078 99.050118 
L 429.782718 99.050118 
z
" style="fill:#ff0000;stroke:#ffffff;stroke-linejoin:miter;stroke-width:0.5;"/>
   </g>
   <g id="patch_23">
    <path d="M 308.172414 157.5 
L 308.172414 21.6 
" style="fill:none;stroke:#ffffff;stroke-linecap:square;stroke-linejoin:miter;stroke-width:1.25;"/>
   </g>
   <g id="patch_24">
    <path d="M 452.482759 157.5 
L 452.482759 21.6 
" style="fill:none;stroke:#ffffff;stroke-linecap:square;stroke-linejoin:miter;stroke-width:1.25;"/>
   </g>
   <g id="patch_25">
    <path d="M 308.172414 157.5 
L 452.482759 157.5 
" style="fill:none;stroke:#ffffff;stroke-linecap:square;stroke-linejoin:miter;stroke-width:1.25;"/>
   </g>
   <g id="patch_26">
    <path d="M 308.172414 21.6 
L 452.482759 21.6 
" style="fill:none;stroke:#ffffff;stroke-linecap:square;stroke-linejoin:miter;stroke-width:1.25;"/>
   </g>
   <g id="text_2">
    <!-- 29:1 -->
    <defs>
     <path d="M 50.34375 8.453125 
L 50.34375 0 
L 3.03125 0 
Q 2.9375 3.171875 4.046875 6.109375 
Q 5.859375 10.9375 9.828125 15.625 
Q 13.8125 20.3125 21.34375 26.46875 
Q 33.015625 36.03125 37.109375 41.625 
Q 41.21875 47.21875 41.21875 52.203125 
Q 41.21875 57.421875 37.46875 61 
Q 33.734375 64.59375 27.734375 64.59375 
Q 21.390625 64.59375 17.578125 60.78125 
Q 13.765625 56.984375 13.71875 50.25 
L 4.6875 51.171875 
Q 5.609375 61.28125 11.65625 66.578125 
Q 17.71875 71.875 27.9375 71.875 
Q 38.234375 71.875 44.234375 66.15625 
Q 50.25 60.453125 50.25 52 
Q 50.25 47.703125 48.484375 43.546875 
Q 46.734375 39.40625 42.65625 34.8125 
Q 38.578125 30.21875 29.109375 22.21875 
Q 21.1875 15.578125 18.9375 13.203125 
Q 16.703125 10.84375 15.234375 8.453125 
z
" id="ArialMT-50"/>
     <path d="M 5.46875 16.546875 
L 13.921875 17.328125 
Q 14.984375 11.375 18.015625 8.6875 
Q 21.046875 6 25.78125 6 
Q 29.828125 6 32.875 7.859375 
Q 35.9375 9.71875 37.890625 12.8125 
Q 39.84375 15.921875 41.15625 21.1875 
Q 42.484375 26.46875 42.484375 31.9375 
Q 42.484375 32.515625 42.4375 33.6875 
Q 39.796875 29.5 35.234375 26.875 
Q 30.671875 24.265625 25.34375 24.265625 
Q 16.453125 24.265625 10.296875 30.703125 
Q 4.15625 37.15625 4.15625 47.703125 
Q 4.15625 58.59375 10.578125 65.234375 
Q 17 71.875 26.65625 71.875 
Q 33.640625 71.875 39.421875 68.109375 
Q 45.21875 64.359375 48.21875 57.390625 
Q 51.21875 50.4375 51.21875 37.25 
Q 51.21875 23.53125 48.234375 15.40625 
Q 45.265625 7.28125 39.375 3.03125 
Q 33.5 -1.21875 25.59375 -1.21875 
Q 17.1875 -1.21875 11.859375 3.4375 
Q 6.546875 8.109375 5.46875 16.546875 
z
M 41.453125 48.140625 
Q 41.453125 55.71875 37.421875 60.15625 
Q 33.40625 64.59375 27.734375 64.59375 
Q 21.875 64.59375 17.53125 59.8125 
Q 13.1875 55.03125 13.1875 47.40625 
Q 13.1875 40.578125 17.3125 36.296875 
Q 21.4375 32.03125 27.484375 32.03125 
Q 33.59375 32.03125 37.515625 36.296875 
Q 41.453125 40.578125 41.453125 48.140625 
z
" id="ArialMT-57"/>
    </defs>
    <g style="fill:#262626;" transform="translate(368.651024 15.6)scale(0.12 -0.12)">
     <use xlink:href="#ArialMT-50"/>
     <use x="55.615234" xlink:href="#ArialMT-57"/>
     <use x="111.230469" xlink:href="#ArialMT-58"/>
     <use x="139.013672" xlink:href="#ArialMT-49"/>
    </g>
   </g>
  </g>
  <g id="axes_3">
   <g id="patch_27">
    <path d="M 481.344828 157.5 
L 625.655172 157.5 
L 625.655172 21.6 
L 481.344828 21.6 
z
" style="fill:#ffffff;"/>
   </g>
   <g id="patch_28">
    <path clip-path="url(#pdccfec2273)" d="M 545.297389 128.516588 
L 531.394658 128.516588 
" style="stroke:#000000;stroke-linejoin:miter;stroke-width:0.5;"/>
   </g>
   <g id="patch_29">
    <path clip-path="url(#pdccfec2273)" d="M 559.20012 128.516588 
L 545.297389 128.516588 
" style="stroke:#000000;stroke-linejoin:miter;stroke-width:0.5;"/>
   </g>
   <g id="patch_30">
    <path clip-path="url(#pdccfec2273)" d="M 573.10285 112.414692 
L 559.20012 128.516588 
" style="stroke:#000000;stroke-linejoin:miter;stroke-width:0.5;"/>
   </g>
   <g id="patch_31">
    <path clip-path="url(#pdccfec2273)" d="M 545.297389 96.312796 
L 531.394658 96.312796 
" style="stroke:#000000;stroke-linejoin:miter;stroke-width:0.5;"/>
   </g>
   <g id="patch_32">
    <path clip-path="url(#pdccfec2273)" d="M 559.20012 96.312796 
L 545.297389 96.312796 
" style="stroke:#000000;stroke-linejoin:miter;stroke-width:0.5;"/>
   </g>
   <g id="patch_33">
    <path clip-path="url(#pdccfec2273)" d="M 573.10285 112.414692 
L 559.20012 96.312796 
" style="stroke:#000000;stroke-linejoin:miter;stroke-width:0.5;"/>
   </g>
   <g id="patch_34">
    <path clip-path="url(#pdccfec2273)" d="M 587.005581 112.414692 
L 573.10285 112.414692 
" style="stroke:#000000;stroke-linejoin:miter;stroke-width:0.5;"/>
   </g>
   <g id="patch_35">
    <path clip-path="url(#pdccfec2273)" d="M 600.908312 112.414692 
L 587.005581 112.414692 
" style="stroke:#000000;stroke-linejoin:miter;stroke-width:0.5;"/>
   </g>
   <g id="ec0a8d867ea24d00b6e30020f922a3c2-1-node">
    <path clip-path="url(#pdccfec2273)" d="M 603.271776 106.940047 
L 603.271776 117.889336 
L 598.544848 117.889336 
L 598.544848 106.940047 
L 603.271776 106.940047 
z
" style="fill:#0000ff;stroke:#ffffff;stroke-linejoin:miter;stroke-width:0.5;"/>
   </g>
   <g id="ec0a8d867ea24d00b6e30020f922a3c2-3-node">
    <path clip-path="url(#pdccfec2273)" d="M 589.369045 106.940047 
L 589.369045 117.889336 
L 584.642117 117.889336 
L 584.642117 106.940047 
L 589.369045 106.940047 
z
" style="fill:#0000ff;stroke:#ffffff;stroke-linejoin:miter;stroke-width:0.5;"/>
   </g>
   <g id="ec0a8d867ea24d00b6e30020f922a3c2-5-node">
    <path clip-path="url(#pdccfec2273)" d="M 573.10285 117.889336 
C 573.729648 117.889336 574.330859 117.312493 574.774072 116.28585 
C 575.217285 115.259207 575.466315 113.866585 575.466315 112.414692 
C 575.466315 110.962799 575.217285 109.570177 574.774072 108.543534 
C 574.330859 107.51689 573.729648 106.940047 573.10285 106.940047 
C 572.476052 106.940047 571.874842 107.51689 571.431629 108.543534 
C 570.988416 109.570177 570.739386 110.962799 570.739386 112.414692 
C 570.739386 113.866585 570.988416 115.259207 571.431629 116.28585 
C 571.874842 117.312493 572.476052 117.889336 573.10285 117.889336 
z
" style="fill:#00c832;stroke:#ffffff;stroke-linejoin:miter;stroke-width:0.5;"/>
   </g>
   <g id="ec0a8d867ea24d00b6e30020f922a3c2-10-node">
    <path clip-path="url(#pdccfec2273)" d="M 559.20012 133.991232 
C 559.826918 133.991232 560.428128 133.414389 560.871341 132.387746 
C 561.314554 131.361103 561.563584 129.96848 561.563584 128.516588 
C 561.563584 127.064695 561.314554 125.672073 560.871341 124.645429 
C 560.428128 123.618786 559.826918 123.041943 559.20012 123.041943 
C 558.573322 123.041943 557.972111 123.618786 557.528898 124.645429 
C 557.085685 125.672073 556.836655 127.064695 556.836655 128.516588 
C 556.836655 129.96848 557.085685 131.361103 557.528898 132.387746 
C 557.972111 133.414389 558.573322 133.991232 559.20012 133.991232 
z
" style="fill:#00c832;stroke:#ffffff;stroke-linejoin:miter;stroke-width:0.5;"/>
   </g>
   <g id="ec0a8d867ea24d00b6e30020f922a3c2-11-node">
    <path clip-path="url(#pdccfec2273)" d="M 547.660853 123.041943 
L 547.660853 133.991232 
L 542.933925 133.991232 
L 542.933925 123.041943 
L 547.660853 123.041943 
z
" style="fill:#0000ff;stroke:#ffffff;stroke-linejoin:miter;stroke-width:0.5;"/>
   </g>
   <g id="ec0a8d867ea24d00b6e30020f922a3c2-13-node">
    <path clip-path="url(#pdccfec2273)" d="M 531.394658 133.991232 
C 532.021456 133.991232 532.622667 133.414389 533.06588 132.387746 
C 533.509093 131.361103 533.758122 129.96848 533.758122 128.516588 
C 533.758122 127.064695 533.509093 125.672073 533.06588 124.645429 
C 532.622667 123.618786 532.021456 123.041943 531.394658 123.041943 
C 530.76786 123.041943 530.16665 123.618786 529.723437 124.645429 
C 529.280223 125.672073 529.031194 127.064695 529.031194 128.516588 
C 529.031194 129.96848 529.280223 131.361103 529.723437 132.387746 
C 530.16665 133.414389 530.76786 133.991232 531.394658 133.991232 
z
" style="fill:#ffff00;stroke:#ffffff;stroke-linejoin:miter;stroke-width:0.5;"/>
   </g>
   <g id="ec0a8d867ea24d00b6e30020f922a3c2-6-node">
    <path clip-path="url(#pdccfec2273)" d="M 559.20012 101.787441 
C 559.826918 101.787441 560.428128 101.210598 560.871341 100.183954 
C 561.314554 99.157311 561.563584 97.764689 561.563584 96.312796 
C 561.563584 94.860904 561.314554 93.468281 560.871341 92.441638 
C 560.428128 91.414995 559.826918 90.838152 559.20012 90.838152 
C 558.573322 90.838152 557.972111 91.414995 557.528898 92.441638 
C 557.085685 93.468281 556.836655 94.860904 556.836655 96.312796 
C 556.836655 97.764689 557.085685 99.157311 557.528898 100.183954 
C 557.972111 101.210598 558.573322 101.787441 559.20012 101.787441 
z
" style="fill:#00c832;stroke:#ffffff;stroke-linejoin:miter;stroke-width:0.5;"/>
   </g>
   <g id="ec0a8d867ea24d00b6e30020f922a3c2-7-node">
    <path clip-path="url(#pdccfec2273)" d="M 547.660853 90.838152 
L 547.660853 101.787441 
L 542.933925 101.787441 
L 542.933925 90.838152 
L 547.660853 90.838152 
z
" style="fill:#0000ff;stroke:#ffffff;stroke-linejoin:miter;stroke-width:0.5;"/>
   </g>
   <g id="ec0a8d867ea24d00b6e30020f922a3c2-9-node">
    <path clip-path="url(#pdccfec2273)" d="M 531.394658 101.787441 
C 532.021456 101.787441 532.622667 101.210598 533.06588 100.183954 
C 533.509093 99.157311 533.758122 97.764689 533.758122 96.312796 
C 533.758122 94.860904 533.509093 93.468281 533.06588 92.441638 
C 532.622667 91.414995 532.021456 90.838152 531.394658 90.838152 
C 530.76786 90.838152 530.16665 91.414995 529.723437 92.441638 
C 529.280223 93.468281 529.031194 94.860904 529.031194 96.312796 
C 529.031194 97.764689 529.280223 99.157311 529.723437 100.183954 
C 530.16665 101.210598 530.76786 101.787441 531.394658 101.787441 
z
" style="fill:#ffff00;stroke:#ffffff;stroke-linejoin:miter;stroke-width:0.5;"/>
   </g>
   <g id="patch_36">
    <path d="M 481.344828 157.5 
L 481.344828 21.6 
" style="fill:none;stroke:#ffffff;stroke-linecap:square;stroke-linejoin:miter;stroke-width:1.25;"/>
   </g>
   <g id="patch_37">
    <path d="M 625.655172 157.5 
L 625.655172 21.6 
" style="fill:none;stroke:#ffffff;stroke-linecap:square;stroke-linejoin:miter;stroke-width:1.25;"/>
   </g>
   <g id="patch_38">
    <path d="M 481.344828 157.5 
L 625.655172 157.5 
" style="fill:none;stroke:#ffffff;stroke-linecap:square;stroke-linejoin:miter;stroke-width:1.25;"/>
   </g>
   <g id="patch_39">
    <path d="M 481.344828 21.6 
L 625.655172 21.6 
" style="fill:none;stroke:#ffffff;stroke-linecap:square;stroke-linejoin:miter;stroke-width:1.25;"/>
   </g>
   <g id="text_3">
    <!-- 34:2.0 -->
    <defs>
     <path d="M 4.203125 18.890625 
L 12.984375 20.0625 
Q 14.5 12.59375 18.140625 9.296875 
Q 21.78125 6 27 6 
Q 33.203125 6 37.46875 10.296875 
Q 41.75 14.59375 41.75 20.953125 
Q 41.75 27 37.796875 30.921875 
Q 33.84375 34.859375 27.734375 34.859375 
Q 25.25 34.859375 21.53125 33.890625 
L 22.515625 41.609375 
Q 23.390625 41.5 23.921875 41.5 
Q 29.546875 41.5 34.03125 44.421875 
Q 38.53125 47.359375 38.53125 53.46875 
Q 38.53125 58.296875 35.25 61.46875 
Q 31.984375 64.65625 26.8125 64.65625 
Q 21.6875 64.65625 18.265625 61.421875 
Q 14.84375 58.203125 13.875 51.765625 
L 5.078125 53.328125 
Q 6.6875 62.15625 12.390625 67.015625 
Q 18.109375 71.875 26.609375 71.875 
Q 32.46875 71.875 37.390625 69.359375 
Q 42.328125 66.84375 44.9375 62.5 
Q 47.5625 58.15625 47.5625 53.265625 
Q 47.5625 48.640625 45.0625 44.828125 
Q 42.578125 41.015625 37.703125 38.765625 
Q 44.046875 37.3125 47.5625 32.6875 
Q 51.078125 28.078125 51.078125 21.140625 
Q 51.078125 11.765625 44.234375 5.25 
Q 37.40625 -1.265625 26.953125 -1.265625 
Q 17.53125 -1.265625 11.296875 4.34375 
Q 5.078125 9.96875 4.203125 18.890625 
z
" id="ArialMT-51"/>
     <path d="M 32.328125 0 
L 32.328125 17.140625 
L 1.265625 17.140625 
L 1.265625 25.203125 
L 33.9375 71.578125 
L 41.109375 71.578125 
L 41.109375 25.203125 
L 50.78125 25.203125 
L 50.78125 17.140625 
L 41.109375 17.140625 
L 41.109375 0 
z
M 32.328125 25.203125 
L 32.328125 57.46875 
L 9.90625 25.203125 
z
" id="ArialMT-52"/>
     <path d="M 9.078125 0 
L 9.078125 10.015625 
L 19.09375 10.015625 
L 19.09375 0 
z
" id="ArialMT-46"/>
     <path d="M 4.15625 35.296875 
Q 4.15625 48 6.765625 55.734375 
Q 9.375 63.484375 14.515625 67.671875 
Q 19.671875 71.875 27.484375 71.875 
Q 33.25 71.875 37.59375 69.546875 
Q 41.9375 67.234375 44.765625 62.859375 
Q 47.609375 58.5 49.21875 52.21875 
Q 50.828125 45.953125 50.828125 35.296875 
Q 50.828125 22.703125 48.234375 14.96875 
Q 45.65625 7.234375 40.5 3 
Q 35.359375 -1.21875 27.484375 -1.21875 
Q 17.140625 -1.21875 11.234375 6.203125 
Q 4.15625 15.140625 4.15625 35.296875 
z
M 13.1875 35.296875 
Q 13.1875 17.671875 17.3125 11.828125 
Q 21.4375 6 27.484375 6 
Q 33.546875 6 37.671875 11.859375 
Q 41.796875 17.71875 41.796875 35.296875 
Q 41.796875 52.984375 37.671875 58.78125 
Q 33.546875 64.59375 27.390625 64.59375 
Q 21.34375 64.59375 17.71875 59.46875 
Q 13.1875 52.9375 13.1875 35.296875 
z
" id="ArialMT-48"/>
    </defs>
    <g style="fill:#262626;" transform="translate(536.82 15.6)scale(0.12 -0.12)">
     <use xlink:href="#ArialMT-51"/>
     <use x="55.615234" xlink:href="#ArialMT-52"/>
     <use x="111.230469" xlink:href="#ArialMT-58"/>
     <use x="139.013672" xlink:href="#ArialMT-50"/>
     <use x="194.628906" xlink:href="#ArialMT-46"/>
     <use x="222.412109" xlink:href="#ArialMT-48"/>
    </g>
   </g>
  </g>
  <g id="axes_4">
   <g id="patch_40">
    <path d="M 654.517241 157.5 
L 798.827586 157.5 
L 798.827586 21.6 
L 654.517241 21.6 
z
" style="fill:#ffffff;"/>
   </g>
   <g id="patch_41">
    <path clip-path="url(#p8819914655)" d="M 718.469803 128.516588 
L 704.567072 128.516588 
" style="stroke:#000000;stroke-linejoin:miter;stroke-width:0.5;"/>
   </g>
   <g id="patch_42">
    <path clip-path="url(#p8819914655)" d="M 732.372533 128.516588 
L 718.469803 128.516588 
" style="stroke:#000000;stroke-linejoin:miter;stroke-width:0.5;"/>
   </g>
   <g id="patch_43">
    <path clip-path="url(#p8819914655)" d="M 746.275264 112.414692 
L 732.372533 128.516588 
" style="stroke:#000000;stroke-linejoin:miter;stroke-width:0.5;"/>
   </g>
   <g id="patch_44">
    <path clip-path="url(#p8819914655)" d="M 718.469803 96.312796 
L 704.567072 96.312796 
" style="stroke:#000000;stroke-linejoin:miter;stroke-width:0.5;"/>
   </g>
   <g id="patch_45">
    <path clip-path="url(#p8819914655)" d="M 732.372533 96.312796 
L 718.469803 96.312796 
" style="stroke:#000000;stroke-linejoin:miter;stroke-width:0.5;"/>
   </g>
   <g id="patch_46">
    <path clip-path="url(#p8819914655)" d="M 746.275264 112.414692 
L 732.372533 96.312796 
" style="stroke:#000000;stroke-linejoin:miter;stroke-width:0.5;"/>
   </g>
   <g id="patch_47">
    <path clip-path="url(#p8819914655)" d="M 760.177995 112.414692 
L 746.275264 112.414692 
" style="stroke:#000000;stroke-linejoin:miter;stroke-width:0.5;"/>
   </g>
   <g id="patch_48">
    <path clip-path="url(#p8819914655)" d="M 774.080726 112.414692 
L 760.177995 112.414692 
" style="stroke:#000000;stroke-linejoin:miter;stroke-width:0.5;"/>
   </g>
   <g id="patch_49">
    <path clip-path="url(#p8819914655)" d="M 774.080726 112.414692 
L 774.080726 96.312796 
" style="stroke:#000000;stroke-linejoin:miter;stroke-width:0.5;"/>
   </g>
   <g id="b1d94910a2b444ec9b3a561c65ccfc31-1-node">
    <path clip-path="url(#p8819914655)" d="M 776.44419 106.940047 
L 776.44419 117.889336 
L 771.717261 117.889336 
L 771.717261 106.940047 
L 776.44419 106.940047 
z
" style="fill:#0000ff;stroke:#ffffff;stroke-linejoin:miter;stroke-width:0.5;"/>
   </g>
   <g id="b1d94910a2b444ec9b3a561c65ccfc31-4-node">
    <path clip-path="url(#p8819914655)" d="M 762.541459 106.940047 
L 762.541459 117.889336 
L 757.814531 117.889336 
L 757.814531 106.940047 
L 762.541459 106.940047 
z
" style="fill:#0000ff;stroke:#ffffff;stroke-linejoin:miter;stroke-width:0.5;"/>
   </g>
   <g id="b1d94910a2b444ec9b3a561c65ccfc31-6-node">
    <path clip-path="url(#p8819914655)" d="M 746.275264 117.889336 
C 746.902062 117.889336 747.503273 117.312493 747.946486 116.28585 
C 748.389699 115.259207 748.638728 113.866585 748.638728 112.414692 
C 748.638728 110.962799 748.389699 109.570177 747.946486 108.543534 
C 747.503273 107.51689 746.902062 106.940047 746.275264 106.940047 
C 745.648466 106.940047 745.047256 107.51689 744.604043 108.543534 
C 744.160829 109.570177 743.9118 110.962799 743.9118 112.414692 
C 743.9118 113.866585 744.160829 115.259207 744.604043 116.28585 
C 745.047256 117.312493 745.648466 117.889336 746.275264 117.889336 
z
" style="fill:#00c832;stroke:#ffffff;stroke-linejoin:miter;stroke-width:0.5;"/>
   </g>
   <g id="b1d94910a2b444ec9b3a561c65ccfc31-11-node">
    <path clip-path="url(#p8819914655)" d="M 732.372533 133.991232 
C 732.999331 133.991232 733.600542 133.414389 734.043755 132.387746 
C 734.486968 131.361103 734.735998 129.96848 734.735998 128.516588 
C 734.735998 127.064695 734.486968 125.672073 734.043755 124.645429 
C 733.600542 123.618786 732.999331 123.041943 732.372533 123.041943 
C 731.745735 123.041943 731.144525 123.618786 730.701312 124.645429 
C 730.258099 125.672073 730.009069 127.064695 730.009069 128.516588 
C 730.009069 129.96848 730.258099 131.361103 730.701312 132.387746 
C 731.144525 133.414389 731.745735 133.991232 732.372533 133.991232 
z
" style="fill:#00c832;stroke:#ffffff;stroke-linejoin:miter;stroke-width:0.5;"/>
   </g>
   <g id="b1d94910a2b444ec9b3a561c65ccfc31-12-node">
    <path clip-path="url(#p8819914655)" d="M 720.833267 123.041943 
L 720.833267 133.991232 
L 716.106338 133.991232 
L 716.106338 123.041943 
L 720.833267 123.041943 
z
" style="fill:#0000ff;stroke:#ffffff;stroke-linejoin:miter;stroke-width:0.5;"/>
   </g>
   <g id="b1d94910a2b444ec9b3a561c65ccfc31-14-node">
    <path clip-path="url(#p8819914655)" d="M 704.567072 133.991232 
C 705.19387 133.991232 705.79508 133.414389 706.238294 132.387746 
C 706.681507 131.361103 706.930536 129.96848 706.930536 128.516588 
C 706.930536 127.064695 706.681507 125.672073 706.238294 124.645429 
C 705.79508 123.618786 705.19387 123.041943 704.567072 123.041943 
C 703.940274 123.041943 703.339064 123.618786 702.89585 124.645429 
C 702.452637 125.672073 702.203608 127.064695 702.203608 128.516588 
C 702.203608 129.96848 702.452637 131.361103 702.89585 132.387746 
C 703.339064 133.414389 703.940274 133.991232 704.567072 133.991232 
z
" style="fill:#ffff00;stroke:#ffffff;stroke-linejoin:miter;stroke-width:0.5;"/>
   </g>
   <g id="b1d94910a2b444ec9b3a561c65ccfc31-7-node">
    <path clip-path="url(#p8819914655)" d="M 732.372533 101.787441 
C 732.999331 101.787441 733.600542 101.210598 734.043755 100.183954 
C 734.486968 99.157311 734.735998 97.764689 734.735998 96.312796 
C 734.735998 94.860904 734.486968 93.468281 734.043755 92.441638 
C 733.600542 91.414995 732.999331 90.838152 732.372533 90.838152 
C 731.745735 90.838152 731.144525 91.414995 730.701312 92.441638 
C 730.258099 93.468281 730.009069 94.860904 730.009069 96.312796 
C 730.009069 97.764689 730.258099 99.157311 730.701312 100.183954 
C 731.144525 101.210598 731.745735 101.787441 732.372533 101.787441 
z
" style="fill:#00c832;stroke:#ffffff;stroke-linejoin:miter;stroke-width:0.5;"/>
   </g>
   <g id="b1d94910a2b444ec9b3a561c65ccfc31-8-node">
    <path clip-path="url(#p8819914655)" d="M 720.833267 90.838152 
L 720.833267 101.787441 
L 716.106338 101.787441 
L 716.106338 90.838152 
L 720.833267 90.838152 
z
" style="fill:#0000ff;stroke:#ffffff;stroke-linejoin:miter;stroke-width:0.5;"/>
   </g>
   <g id="b1d94910a2b444ec9b3a561c65ccfc31-10-node">
    <path clip-path="url(#p8819914655)" d="M 704.567072 101.787441 
C 705.19387 101.787441 705.79508 101.210598 706.238294 100.183954 
C 706.681507 99.157311 706.930536 97.764689 706.930536 96.312796 
C 706.930536 94.860904 706.681507 93.468281 706.238294 92.441638 
C 705.79508 91.414995 705.19387 90.838152 704.567072 90.838152 
C 703.940274 90.838152 703.339064 91.414995 702.89585 92.441638 
C 702.452637 93.468281 702.203608 94.860904 702.203608 96.312796 
C 702.203608 97.764689 702.452637 99.157311 702.89585 100.183954 
C 703.339064 101.210598 703.940274 101.787441 704.567072 101.787441 
z
" style="fill:#ffff00;stroke:#ffffff;stroke-linejoin:miter;stroke-width:0.5;"/>
   </g>
   <g id="b1d94910a2b444ec9b3a561c65ccfc31-3-node">
    <path clip-path="url(#p8819914655)" d="M 774.080726 90.838152 
L 772.033905 99.050118 
L 776.127546 99.050118 
z
" style="fill:#ff0000;stroke:#ffffff;stroke-linejoin:miter;stroke-width:0.5;"/>
   </g>
   <g id="patch_50">
    <path d="M 654.517241 157.5 
L 654.517241 21.6 
" style="fill:none;stroke:#ffffff;stroke-linecap:square;stroke-linejoin:miter;stroke-width:1.25;"/>
   </g>
   <g id="patch_51">
    <path d="M 798.827586 157.5 
L 798.827586 21.6 
" style="fill:none;stroke:#ffffff;stroke-linecap:square;stroke-linejoin:miter;stroke-width:1.25;"/>
   </g>
   <g id="patch_52">
    <path d="M 654.517241 157.5 
L 798.827586 157.5 
" style="fill:none;stroke:#ffffff;stroke-linecap:square;stroke-linejoin:miter;stroke-width:1.25;"/>
   </g>
   <g id="patch_53">
    <path d="M 654.517241 21.6 
L 798.827586 21.6 
" style="fill:none;stroke:#ffffff;stroke-linecap:square;stroke-linejoin:miter;stroke-width:1.25;"/>
   </g>
   <g id="text_4">
    <!-- 65:2.0 -->
    <defs>
     <path d="M 49.75 54.046875 
L 41.015625 53.375 
Q 39.84375 58.546875 37.703125 60.890625 
Q 34.125 64.65625 28.90625 64.65625 
Q 24.703125 64.65625 21.53125 62.3125 
Q 17.390625 59.28125 14.984375 53.46875 
Q 12.59375 47.65625 12.5 36.921875 
Q 15.671875 41.75 20.265625 44.09375 
Q 24.859375 46.4375 29.890625 46.4375 
Q 38.671875 46.4375 44.84375 39.96875 
Q 51.03125 33.5 51.03125 23.25 
Q 51.03125 16.5 48.125 10.71875 
Q 45.21875 4.9375 40.140625 1.859375 
Q 35.0625 -1.21875 28.609375 -1.21875 
Q 17.625 -1.21875 10.6875 6.859375 
Q 3.765625 14.9375 3.765625 33.5 
Q 3.765625 54.25 11.421875 63.671875 
Q 18.109375 71.875 29.4375 71.875 
Q 37.890625 71.875 43.28125 67.140625 
Q 48.6875 62.40625 49.75 54.046875 
z
M 13.875 23.1875 
Q 13.875 18.65625 15.796875 14.5 
Q 17.71875 10.359375 21.1875 8.171875 
Q 24.65625 6 28.46875 6 
Q 34.03125 6 38.03125 10.484375 
Q 42.046875 14.984375 42.046875 22.703125 
Q 42.046875 30.125 38.078125 34.390625 
Q 34.125 38.671875 28.125 38.671875 
Q 22.171875 38.671875 18.015625 34.390625 
Q 13.875 30.125 13.875 23.1875 
z
" id="ArialMT-54"/>
    </defs>
    <g style="fill:#262626;" transform="translate(709.992414 15.6)scale(0.12 -0.12)">
     <use xlink:href="#ArialMT-54"/>
     <use x="55.615234" xlink:href="#ArialMT-53"/>
     <use x="111.230469" xlink:href="#ArialMT-58"/>
     <use x="139.013672" xlink:href="#ArialMT-50"/>
     <use x="194.628906" xlink:href="#ArialMT-46"/>
     <use x="222.412109" xlink:href="#ArialMT-48"/>
    </g>
   </g>
  </g>
  <g id="axes_5">
   <g id="patch_54">
    <path d="M 827.689655 157.5 
L 972 157.5 
L 972 21.6 
L 827.689655 21.6 
z
" style="fill:#eaeaf2;"/>
   </g>
   <g id="matplotlib.axis_1">
    <g id="xtick_1">
     <g id="line2d_1">
      <path clip-path="url(#p637bf14d3a)" d="M 827.689655 157.5 
L 827.689655 21.6 
" style="fill:none;stroke:#ffffff;stroke-linecap:round;"/>
     </g>
     <g id="text_5">
      <!-- 0.00 -->
      <g style="fill:#262626;" transform="translate(816.98614 174.873594)scale(0.11 -0.11)">
       <use xlink:href="#ArialMT-48"/>
       <use x="55.615234" xlink:href="#ArialMT-46"/>
       <use x="83.398438" xlink:href="#ArialMT-48"/>
       <use x="139.013672" xlink:href="#ArialMT-48"/>
      </g>
     </g>
    </g>
    <g id="xtick_2">
     <g id="line2d_2">
      <path clip-path="url(#p637bf14d3a)" d="M 863.767241 157.5 
L 863.767241 21.6 
" style="fill:none;stroke:#ffffff;stroke-linecap:round;"/>
     </g>
     <g id="text_6">
      <!-- 0.25 -->
      <g style="fill:#262626;" transform="translate(853.063726 174.873594)scale(0.11 -0.11)">
       <use xlink:href="#ArialMT-48"/>
       <use x="55.615234" xlink:href="#ArialMT-46"/>
       <use x="83.398438" xlink:href="#ArialMT-50"/>
       <use x="139.013672" xlink:href="#ArialMT-53"/>
      </g>
     </g>
    </g>
    <g id="xtick_3">
     <g id="line2d_3">
      <path clip-path="url(#p637bf14d3a)" d="M 899.844828 157.5 
L 899.844828 21.6 
" style="fill:none;stroke:#ffffff;stroke-linecap:round;"/>
     </g>
     <g id="text_7">
      <!-- 0.50 -->
      <g style="fill:#262626;" transform="translate(889.141312 174.873594)scale(0.11 -0.11)">
       <use xlink:href="#ArialMT-48"/>
       <use x="55.615234" xlink:href="#ArialMT-46"/>
       <use x="83.398438" xlink:href="#ArialMT-53"/>
       <use x="139.013672" xlink:href="#ArialMT-48"/>
      </g>
     </g>
    </g>
    <g id="xtick_4">
     <g id="line2d_4">
      <path clip-path="url(#p637bf14d3a)" d="M 935.922414 157.5 
L 935.922414 21.6 
" style="fill:none;stroke:#ffffff;stroke-linecap:round;"/>
     </g>
     <g id="text_8">
      <!-- 0.75 -->
      <defs>
       <path d="M 4.734375 62.203125 
L 4.734375 70.65625 
L 51.078125 70.65625 
L 51.078125 63.8125 
Q 44.234375 56.546875 37.515625 44.484375 
Q 30.8125 32.421875 27.15625 19.671875 
Q 24.515625 10.6875 23.78125 0 
L 14.75 0 
Q 14.890625 8.453125 18.0625 20.40625 
Q 21.234375 32.375 27.171875 43.484375 
Q 33.109375 54.59375 39.796875 62.203125 
z
" id="ArialMT-55"/>
      </defs>
      <g style="fill:#262626;" transform="translate(925.218898 174.873594)scale(0.11 -0.11)">
       <use xlink:href="#ArialMT-48"/>
       <use x="55.615234" xlink:href="#ArialMT-46"/>
       <use x="83.398438" xlink:href="#ArialMT-55"/>
       <use x="139.013672" xlink:href="#ArialMT-53"/>
      </g>
     </g>
    </g>
    <g id="xtick_5">
     <g id="line2d_5">
      <path clip-path="url(#p637bf14d3a)" d="M 972 157.5 
L 972 21.6 
" style="fill:none;stroke:#ffffff;stroke-linecap:round;"/>
     </g>
     <g id="text_9">
      <!-- 1.00 -->
      <g style="fill:#262626;" transform="translate(961.296484 174.873594)scale(0.11 -0.11)">
       <use xlink:href="#ArialMT-49"/>
       <use x="55.615234" xlink:href="#ArialMT-46"/>
       <use x="83.398438" xlink:href="#ArialMT-48"/>
       <use x="139.013672" xlink:href="#ArialMT-48"/>
      </g>
     </g>
    </g>
   </g>
   <g id="matplotlib.axis_2">
    <g id="ytick_1">
     <g id="line2d_6">
      <path clip-path="url(#p637bf14d3a)" d="M 827.689655 157.5 
L 972 157.5 
" style="fill:none;stroke:#ffffff;stroke-linecap:round;"/>
     </g>
     <g id="text_10">
      <!-- 0.0 -->
      <g style="fill:#262626;" transform="translate(802.899655 161.436797)scale(0.11 -0.11)">
       <use xlink:href="#ArialMT-48"/>
       <use x="55.615234" xlink:href="#ArialMT-46"/>
       <use x="83.398438" xlink:href="#ArialMT-48"/>
      </g>
     </g>
    </g>
    <g id="ytick_2">
     <g id="line2d_7">
      <path clip-path="url(#p637bf14d3a)" d="M 827.689655 130.32 
L 972 130.32 
" style="fill:none;stroke:#ffffff;stroke-linecap:round;"/>
     </g>
     <g id="text_11">
      <!-- 0.2 -->
      <g style="fill:#262626;" transform="translate(802.899655 134.256797)scale(0.11 -0.11)">
       <use xlink:href="#ArialMT-48"/>
       <use x="55.615234" xlink:href="#ArialMT-46"/>
       <use x="83.398438" xlink:href="#ArialMT-50"/>
      </g>
     </g>
    </g>
    <g id="ytick_3">
     <g id="line2d_8">
      <path clip-path="url(#p637bf14d3a)" d="M 827.689655 103.14 
L 972 103.14 
" style="fill:none;stroke:#ffffff;stroke-linecap:round;"/>
     </g>
     <g id="text_12">
      <!-- 0.4 -->
      <g style="fill:#262626;" transform="translate(802.899655 107.076797)scale(0.11 -0.11)">
       <use xlink:href="#ArialMT-48"/>
       <use x="55.615234" xlink:href="#ArialMT-46"/>
       <use x="83.398438" xlink:href="#ArialMT-52"/>
      </g>
     </g>
    </g>
    <g id="ytick_4">
     <g id="line2d_9">
      <path clip-path="url(#p637bf14d3a)" d="M 827.689655 75.96 
L 972 75.96 
" style="fill:none;stroke:#ffffff;stroke-linecap:round;"/>
     </g>
     <g id="text_13">
      <!-- 0.6 -->
      <g style="fill:#262626;" transform="translate(802.899655 79.896797)scale(0.11 -0.11)">
       <use xlink:href="#ArialMT-48"/>
       <use x="55.615234" xlink:href="#ArialMT-46"/>
       <use x="83.398438" xlink:href="#ArialMT-54"/>
      </g>
     </g>
    </g>
    <g id="ytick_5">
     <g id="line2d_10">
      <path clip-path="url(#p637bf14d3a)" d="M 827.689655 48.78 
L 972 48.78 
" style="fill:none;stroke:#ffffff;stroke-linecap:round;"/>
     </g>
     <g id="text_14">
      <!-- 0.8 -->
      <defs>
       <path d="M 17.671875 38.8125 
Q 12.203125 40.828125 9.5625 44.53125 
Q 6.9375 48.25 6.9375 53.421875 
Q 6.9375 61.234375 12.546875 66.546875 
Q 18.171875 71.875 27.484375 71.875 
Q 36.859375 71.875 42.578125 66.421875 
Q 48.296875 60.984375 48.296875 53.171875 
Q 48.296875 48.1875 45.671875 44.5 
Q 43.0625 40.828125 37.75 38.8125 
Q 44.34375 36.671875 47.78125 31.875 
Q 51.21875 27.09375 51.21875 20.453125 
Q 51.21875 11.28125 44.71875 5.03125 
Q 38.234375 -1.21875 27.640625 -1.21875 
Q 17.046875 -1.21875 10.546875 5.046875 
Q 4.046875 11.328125 4.046875 20.703125 
Q 4.046875 27.6875 7.59375 32.390625 
Q 11.140625 37.109375 17.671875 38.8125 
z
M 15.921875 53.71875 
Q 15.921875 48.640625 19.1875 45.40625 
Q 22.46875 42.1875 27.6875 42.1875 
Q 32.765625 42.1875 36.015625 45.375 
Q 39.265625 48.578125 39.265625 53.21875 
Q 39.265625 58.0625 35.90625 61.359375 
Q 32.5625 64.65625 27.59375 64.65625 
Q 22.5625 64.65625 19.234375 61.421875 
Q 15.921875 58.203125 15.921875 53.71875 
z
M 13.09375 20.65625 
Q 13.09375 16.890625 14.875 13.375 
Q 16.65625 9.859375 20.171875 7.921875 
Q 23.6875 6 27.734375 6 
Q 34.03125 6 38.125 10.046875 
Q 42.234375 14.109375 42.234375 20.359375 
Q 42.234375 26.703125 38.015625 30.859375 
Q 33.796875 35.015625 27.4375 35.015625 
Q 21.234375 35.015625 17.15625 30.90625 
Q 13.09375 26.8125 13.09375 20.65625 
z
" id="ArialMT-56"/>
      </defs>
      <g style="fill:#262626;" transform="translate(802.899655 52.716797)scale(0.11 -0.11)">
       <use xlink:href="#ArialMT-48"/>
       <use x="55.615234" xlink:href="#ArialMT-46"/>
       <use x="83.398438" xlink:href="#ArialMT-56"/>
      </g>
     </g>
    </g>
    <g id="ytick_6">
     <g id="line2d_11">
      <path clip-path="url(#p637bf14d3a)" d="M 827.689655 21.6 
L 972 21.6 
" style="fill:none;stroke:#ffffff;stroke-linecap:round;"/>
     </g>
     <g id="text_15">
      <!-- 1.0 -->
      <g style="fill:#262626;" transform="translate(802.899655 25.536797)scale(0.11 -0.11)">
       <use xlink:href="#ArialMT-49"/>
       <use x="55.615234" xlink:href="#ArialMT-46"/>
       <use x="83.398438" xlink:href="#ArialMT-48"/>
      </g>
     </g>
    </g>
   </g>
   <g id="patch_55">
    <path d="M 827.689655 157.5 
L 827.689655 21.6 
" style="fill:none;stroke:#ffffff;stroke-linecap:square;stroke-linejoin:miter;stroke-width:1.25;"/>
   </g>
   <g id="patch_56">
    <path d="M 972 157.5 
L 972 21.6 
" style="fill:none;stroke:#ffffff;stroke-linecap:square;stroke-linejoin:miter;stroke-width:1.25;"/>
   </g>
   <g id="patch_57">
    <path d="M 827.689655 157.5 
L 972 157.5 
" style="fill:none;stroke:#ffffff;stroke-linecap:square;stroke-linejoin:miter;stroke-width:1.25;"/>
   </g>
   <g id="patch_58">
    <path d="M 827.689655 21.6 
L 972 21.6 
" style="fill:none;stroke:#ffffff;stroke-linecap:square;stroke-linejoin:miter;stroke-width:1.25;"/>
   </g>
   <g id="text_16">
    <!-- 10 -->
    <g style="fill:#262626;" transform="translate(893.171703 15.6)scale(0.12 -0.12)">
     <use xlink:href="#ArialMT-49"/>
     <use x="55.615234" xlink:href="#ArialMT-48"/>
    </g>
   </g>
  </g>
 </g>
 <defs>
  <clipPath id="pf0fc9c0d2e">
   <rect height="135.9" width="144.310345" x="135" y="21.6"/>
  </clipPath>
  <clipPath id="pbb3c0636df">
   <rect height="135.9" width="144.310345" x="308.172414" y="21.6"/>
  </clipPath>
  <clipPath id="pdccfec2273">
   <rect height="135.9" width="144.310345" x="481.344828" y="21.6"/>
  </clipPath>
  <clipPath id="p8819914655">
   <rect height="135.9" width="144.310345" x="654.517241" y="21.6"/>
  </clipPath>
  <clipPath id="p637bf14d3a">
   <rect height="135.9" width="144.310345" x="827.689655" y="21.6"/>
  </clipPath>
 </defs>
</svg>
