<?xml version="1.0" encoding="utf-8" standalone="no"?>
<!DOCTYPE svg PUBLIC "-//W3C//DTD SVG 1.1//EN"
  "http://www.w3.org/Graphics/SVG/1.1/DTD/svg11.dtd">
<!-- Created with matplotlib (https://matplotlib.org/) -->
<svg height="180pt" version="1.1" viewBox="0 0 1080 180" width="1080pt" xmlns="http://www.w3.org/2000/svg" xmlns:xlink="http://www.w3.org/1999/xlink">
 <defs>
  <style type="text/css">
*{stroke-linecap:butt;stroke-linejoin:round;}
  </style>
 </defs>
 <g id="figure_1">
  <g id="patch_1">
   <path d="M 0 180 
L 1080 180 
L 1080 0 
L 0 0 
z
" style="fill:#ffffff;"/>
  </g>
  <g id="axes_1">
   <g id="patch_2">
    <path d="M 135 157.5 
L 279.310345 157.5 
L 279.310345 21.6 
L 135 21.6 
z
" style="fill:#ffffff;"/>
   </g>
   <g id="patch_3">
    <path clip-path="url(#pcc789647d7)" d="M 195.68435 134.397 
L 183.350133 134.397 
" style="stroke:#000000;stroke-linejoin:miter;stroke-width:0.5;"/>
   </g>
   <g id="patch_4">
    <path clip-path="url(#pcc789647d7)" d="M 208.018568 134.397 
L 195.68435 134.397 
" style="stroke:#000000;stroke-linejoin:miter;stroke-width:0.5;"/>
   </g>
   <g id="patch_5">
    <path clip-path="url(#pcc789647d7)" d="M 220.352785 134.397 
L 208.018568 134.397 
" style="stroke:#000000;stroke-linejoin:miter;stroke-width:0.5;"/>
   </g>
   <g id="patch_6">
    <path clip-path="url(#pcc789647d7)" d="M 232.687003 117.4095 
L 220.352785 134.397 
" style="stroke:#000000;stroke-linejoin:miter;stroke-width:0.5;"/>
   </g>
   <g id="patch_7">
    <path clip-path="url(#pcc789647d7)" d="M 232.687003 117.4095 
L 220.352785 100.422 
" style="stroke:#000000;stroke-linejoin:miter;stroke-width:0.5;"/>
   </g>
   <g id="patch_8">
    <path clip-path="url(#pcc789647d7)" d="M 245.02122 117.4095 
L 232.687003 117.4095 
" style="stroke:#000000;stroke-linejoin:miter;stroke-width:0.5;"/>
   </g>
   <g id="patch_9">
    <path clip-path="url(#pcc789647d7)" d="M 257.355438 117.4095 
L 245.02122 117.4095 
" style="stroke:#000000;stroke-linejoin:miter;stroke-width:0.5;"/>
   </g>
   <g id="11c0f33ac5004a3e8a82318c84767021-1-node">
    <path clip-path="url(#pcc789647d7)" d="M 259.452255 111.63375 
L 259.452255 123.18525 
L 255.258621 123.18525 
L 255.258621 111.63375 
L 259.452255 111.63375 
z
" style="fill:#0000ff;stroke:#ffffff;stroke-linejoin:miter;stroke-width:0.5;"/>
   </g>
   <g id="11c0f33ac5004a3e8a82318c84767021-3-node">
    <path clip-path="url(#pcc789647d7)" d="M 247.118037 111.63375 
L 247.118037 123.18525 
L 242.924403 123.18525 
L 242.924403 111.63375 
L 247.118037 111.63375 
z
" style="fill:#0000ff;stroke:#ffffff;stroke-linejoin:miter;stroke-width:0.5;"/>
   </g>
   <g id="11c0f33ac5004a3e8a82318c84767021-5-node">
    <path clip-path="url(#pcc789647d7)" d="M 232.687003 123.18525 
C 233.243085 123.18525 233.776467 122.576681 234.169676 121.493572 
C 234.562886 120.410463 234.78382 118.941247 234.78382 117.4095 
C 234.78382 115.877753 234.562886 114.408537 234.169676 113.325428 
C 233.776467 112.242319 233.243085 111.63375 232.687003 111.63375 
C 232.13092 111.63375 231.597539 112.242319 231.204329 113.325428 
C 230.81112 114.408537 230.590186 115.877753 230.590186 117.4095 
C 230.590186 118.941247 230.81112 120.410463 231.204329 121.493572 
C 231.597539 122.576681 232.13092 123.18525 232.687003 123.18525 
z
" style="fill:#00c832;stroke:#ffffff;stroke-linejoin:miter;stroke-width:0.5;"/>
   </g>
   <g id="11c0f33ac5004a3e8a82318c84767021-7-node">
    <path clip-path="url(#pcc789647d7)" d="M 220.352785 140.17275 
C 220.908868 140.17275 221.442249 139.564181 221.835459 138.481072 
C 222.228668 137.397963 222.449602 135.928747 222.449602 134.397 
C 222.449602 132.865253 222.228668 131.396037 221.835459 130.312928 
C 221.442249 129.229819 220.908868 128.62125 220.352785 128.62125 
C 219.796703 128.62125 219.263321 129.229819 218.870112 130.312928 
C 218.476902 131.396037 218.255968 132.865253 218.255968 134.397 
C 218.255968 135.928747 218.476902 137.397963 218.870112 138.481072 
C 219.263321 139.564181 219.796703 140.17275 220.352785 140.17275 
z
" style="fill:#00c832;stroke:#ffffff;stroke-linejoin:miter;stroke-width:0.5;"/>
   </g>
   <g id="11c0f33ac5004a3e8a82318c84767021-8-node">
    <path clip-path="url(#pcc789647d7)" d="M 210.115385 128.62125 
L 210.115385 140.17275 
L 205.921751 140.17275 
L 205.921751 128.62125 
L 210.115385 128.62125 
z
" style="fill:#0000ff;stroke:#ffffff;stroke-linejoin:miter;stroke-width:0.5;"/>
   </g>
   <g id="11c0f33ac5004a3e8a82318c84767021-10-node">
    <path clip-path="url(#pcc789647d7)" d="M 195.68435 140.17275 
C 196.240432 140.17275 196.773814 139.564181 197.167024 138.481072 
C 197.560233 137.397963 197.781167 135.928747 197.781167 134.397 
C 197.781167 132.865253 197.560233 131.396037 197.167024 130.312928 
C 196.773814 129.229819 196.240432 128.62125 195.68435 128.62125 
C 195.128268 128.62125 194.594886 129.229819 194.201677 130.312928 
C 193.808467 131.396037 193.587533 132.865253 193.587533 134.397 
C 193.587533 135.928747 193.808467 137.397963 194.201677 138.481072 
C 194.594886 139.564181 195.128268 140.17275 195.68435 140.17275 
z
" style="fill:#ffff00;stroke:#ffffff;stroke-linejoin:miter;stroke-width:0.5;"/>
   </g>
   <g id="11c0f33ac5004a3e8a82318c84767021-11-node">
    <path clip-path="url(#pcc789647d7)" d="M 185.44695 128.62125 
L 185.44695 140.17275 
L 181.253316 140.17275 
L 181.253316 128.62125 
L 185.44695 128.62125 
z
" style="fill:#0000ff;stroke:#ffffff;stroke-linejoin:miter;stroke-width:0.5;"/>
   </g>
   <g id="11c0f33ac5004a3e8a82318c84767021-6-node">
    <path clip-path="url(#pcc789647d7)" d="M 220.352785 106.19775 
C 220.908868 106.19775 221.442249 105.589181 221.835459 104.506072 
C 222.228668 103.422963 222.449602 101.953747 222.449602 100.422 
C 222.449602 98.890253 222.228668 97.421037 221.835459 96.337928 
C 221.442249 95.254819 220.908868 94.64625 220.352785 94.64625 
C 219.796703 94.64625 219.263321 95.254819 218.870112 96.337928 
C 218.476902 97.421037 218.255968 98.890253 218.255968 100.422 
C 218.255968 101.953747 218.476902 103.422963 218.870112 104.506072 
C 219.263321 105.589181 219.796703 106.19775 220.352785 106.19775 
z
" style="fill:#00c832;stroke:#ffffff;stroke-linejoin:miter;stroke-width:0.5;"/>
   </g>
   <g id="patch_10">
    <path d="M 135 157.5 
L 135 21.6 
" style="fill:none;stroke:#ffffff;stroke-linecap:square;stroke-linejoin:miter;stroke-width:1.25;"/>
   </g>
   <g id="patch_11">
    <path d="M 279.310345 157.5 
L 279.310345 21.6 
" style="fill:none;stroke:#ffffff;stroke-linecap:square;stroke-linejoin:miter;stroke-width:1.25;"/>
   </g>
   <g id="patch_12">
    <path d="M 135 157.5 
L 279.310345 157.5 
" style="fill:none;stroke:#ffffff;stroke-linecap:square;stroke-linejoin:miter;stroke-width:1.25;"/>
   </g>
   <g id="patch_13">
    <path d="M 135 21.6 
L 279.310345 21.6 
" style="fill:none;stroke:#ffffff;stroke-linecap:square;stroke-linejoin:miter;stroke-width:1.25;"/>
   </g>
   <g id="text_1">
    <!-- 14:1 -->
    <defs>
     <path d="M 37.25 0 
L 28.46875 0 
L 28.46875 56 
Q 25.296875 52.984375 20.140625 49.953125 
Q 14.984375 46.921875 10.890625 45.40625 
L 10.890625 53.90625 
Q 18.265625 57.375 23.78125 62.296875 
Q 29.296875 67.234375 31.59375 71.875 
L 37.25 71.875 
z
" id="ArialMT-49"/>
     <path d="M 32.328125 0 
L 32.328125 17.140625 
L 1.265625 17.140625 
L 1.265625 25.203125 
L 33.9375 71.578125 
L 41.109375 71.578125 
L 41.109375 25.203125 
L 50.78125 25.203125 
L 50.78125 17.140625 
L 41.109375 17.140625 
L 41.109375 0 
z
M 32.328125 25.203125 
L 32.328125 57.46875 
L 9.90625 25.203125 
z
" id="ArialMT-52"/>
     <path d="M 9.03125 41.84375 
L 9.03125 51.859375 
L 19.046875 51.859375 
L 19.046875 41.84375 
z
M 9.03125 0 
L 9.03125 10.015625 
L 19.046875 10.015625 
L 19.046875 0 
z
" id="ArialMT-58"/>
    </defs>
    <g style="fill:#262626;" transform="translate(195.47861 15.6)scale(0.12 -0.12)">
     <use xlink:href="#ArialMT-49"/>
     <use x="55.615234" xlink:href="#ArialMT-52"/>
     <use x="111.230469" xlink:href="#ArialMT-58"/>
     <use x="139.013672" xlink:href="#ArialMT-49"/>
    </g>
   </g>
  </g>
  <g id="axes_2">
   <g id="patch_14">
    <path d="M 308.172414 157.5 
L 452.482759 157.5 
L 452.482759 21.6 
L 308.172414 21.6 
z
" style="fill:#ffffff;"/>
   </g>
   <g id="patch_15">
    <path clip-path="url(#p59900e3af9)" d="M 368.856764 134.397 
L 356.522546 134.397 
" style="stroke:#000000;stroke-linejoin:miter;stroke-width:0.5;"/>
   </g>
   <g id="patch_16">
    <path clip-path="url(#p59900e3af9)" d="M 381.190981 134.397 
L 368.856764 134.397 
" style="stroke:#000000;stroke-linejoin:miter;stroke-width:0.5;"/>
   </g>
   <g id="patch_17">
    <path clip-path="url(#p59900e3af9)" d="M 393.525199 134.397 
L 381.190981 134.397 
" style="stroke:#000000;stroke-linejoin:miter;stroke-width:0.5;"/>
   </g>
   <g id="patch_18">
    <path clip-path="url(#p59900e3af9)" d="M 405.859416 117.4095 
L 393.525199 134.397 
" style="stroke:#000000;stroke-linejoin:miter;stroke-width:0.5;"/>
   </g>
   <g id="patch_19">
    <path clip-path="url(#p59900e3af9)" d="M 405.859416 117.4095 
L 393.525199 100.422 
" style="stroke:#000000;stroke-linejoin:miter;stroke-width:0.5;"/>
   </g>
   <g id="patch_20">
    <path clip-path="url(#p59900e3af9)" d="M 418.193634 117.4095 
L 405.859416 117.4095 
" style="stroke:#000000;stroke-linejoin:miter;stroke-width:0.5;"/>
   </g>
   <g id="patch_21">
    <path clip-path="url(#p59900e3af9)" d="M 430.527851 117.4095 
L 418.193634 117.4095 
" style="stroke:#000000;stroke-linejoin:miter;stroke-width:0.5;"/>
   </g>
   <g id="patch_22">
    <path clip-path="url(#p59900e3af9)" d="M 430.527851 117.4095 
L 430.527851 100.422 
" style="stroke:#000000;stroke-linejoin:miter;stroke-width:0.5;"/>
   </g>
   <g id="f63dc9b16b654418934a2bf76c23862d-1-node">
    <path clip-path="url(#p59900e3af9)" d="M 432.624668 111.63375 
L 432.624668 123.18525 
L 428.431034 123.18525 
L 428.431034 111.63375 
L 432.624668 111.63375 
z
" style="fill:#0000ff;stroke:#ffffff;stroke-linejoin:miter;stroke-width:0.5;"/>
   </g>
   <g id="f63dc9b16b654418934a2bf76c23862d-4-node">
    <path clip-path="url(#p59900e3af9)" d="M 420.290451 111.63375 
L 420.290451 123.18525 
L 416.096817 123.18525 
L 416.096817 111.63375 
L 420.290451 111.63375 
z
" style="fill:#0000ff;stroke:#ffffff;stroke-linejoin:miter;stroke-width:0.5;"/>
   </g>
   <g id="f63dc9b16b654418934a2bf76c23862d-6-node">
    <path clip-path="url(#p59900e3af9)" d="M 405.859416 123.18525 
C 406.415499 123.18525 406.94888 122.576681 407.34209 121.493572 
C 407.7353 120.410463 407.956233 118.941247 407.956233 117.4095 
C 407.956233 115.877753 407.7353 114.408537 407.34209 113.325428 
C 406.94888 112.242319 406.415499 111.63375 405.859416 111.63375 
C 405.303334 111.63375 404.769953 112.242319 404.376743 113.325428 
C 403.983533 114.408537 403.762599 115.877753 403.762599 117.4095 
C 403.762599 118.941247 403.983533 120.410463 404.376743 121.493572 
C 404.769953 122.576681 405.303334 123.18525 405.859416 123.18525 
z
" style="fill:#00c832;stroke:#ffffff;stroke-linejoin:miter;stroke-width:0.5;"/>
   </g>
   <g id="f63dc9b16b654418934a2bf76c23862d-8-node">
    <path clip-path="url(#p59900e3af9)" d="M 393.525199 140.17275 
C 394.081281 140.17275 394.614663 139.564181 395.007872 138.481072 
C 395.401082 137.397963 395.622016 135.928747 395.622016 134.397 
C 395.622016 132.865253 395.401082 131.396037 395.007872 130.312928 
C 394.614663 129.229819 394.081281 128.62125 393.525199 128.62125 
C 392.969117 128.62125 392.435735 129.229819 392.042525 130.312928 
C 391.649316 131.396037 391.428382 132.865253 391.428382 134.397 
C 391.428382 135.928747 391.649316 137.397963 392.042525 138.481072 
C 392.435735 139.564181 392.969117 140.17275 393.525199 140.17275 
z
" style="fill:#00c832;stroke:#ffffff;stroke-linejoin:miter;stroke-width:0.5;"/>
   </g>
   <g id="f63dc9b16b654418934a2bf76c23862d-9-node">
    <path clip-path="url(#p59900e3af9)" d="M 383.287798 128.62125 
L 383.287798 140.17275 
L 379.094164 140.17275 
L 379.094164 128.62125 
L 383.287798 128.62125 
z
" style="fill:#0000ff;stroke:#ffffff;stroke-linejoin:miter;stroke-width:0.5;"/>
   </g>
   <g id="f63dc9b16b654418934a2bf76c23862d-11-node">
    <path clip-path="url(#p59900e3af9)" d="M 368.856764 140.17275 
C 369.412846 140.17275 369.946228 139.564181 370.339437 138.481072 
C 370.732647 137.397963 370.953581 135.928747 370.953581 134.397 
C 370.953581 132.865253 370.732647 131.396037 370.339437 130.312928 
C 369.946228 129.229819 369.412846 128.62125 368.856764 128.62125 
C 368.300682 128.62125 367.7673 129.229819 367.37409 130.312928 
C 366.980881 131.396037 366.759947 132.865253 366.759947 134.397 
C 366.759947 135.928747 366.980881 137.397963 367.37409 138.481072 
C 367.7673 139.564181 368.300682 140.17275 368.856764 140.17275 
z
" style="fill:#ffff00;stroke:#ffffff;stroke-linejoin:miter;stroke-width:0.5;"/>
   </g>
   <g id="f63dc9b16b654418934a2bf76c23862d-12-node">
    <path clip-path="url(#p59900e3af9)" d="M 358.619363 128.62125 
L 358.619363 140.17275 
L 354.425729 140.17275 
L 354.425729 128.62125 
L 358.619363 128.62125 
z
" style="fill:#0000ff;stroke:#ffffff;stroke-linejoin:miter;stroke-width:0.5;"/>
   </g>
   <g id="f63dc9b16b654418934a2bf76c23862d-7-node">
    <path clip-path="url(#p59900e3af9)" d="M 393.525199 106.19775 
C 394.081281 106.19775 394.614663 105.589181 395.007872 104.506072 
C 395.401082 103.422963 395.622016 101.953747 395.622016 100.422 
C 395.622016 98.890253 395.401082 97.421037 395.007872 96.337928 
C 394.614663 95.254819 394.081281 94.64625 393.525199 94.64625 
C 392.969117 94.64625 392.435735 95.254819 392.042525 96.337928 
C 391.649316 97.421037 391.428382 98.890253 391.428382 100.422 
C 391.428382 101.953747 391.649316 103.422963 392.042525 104.506072 
C 392.435735 105.589181 392.969117 106.19775 393.525199 106.19775 
z
" style="fill:#00c832;stroke:#ffffff;stroke-linejoin:miter;stroke-width:0.5;"/>
   </g>
   <g id="f63dc9b16b654418934a2bf76c23862d-3-node">
    <path clip-path="url(#p59900e3af9)" d="M 430.527851 94.64625 
L 428.711955 103.309875 
L 432.343748 103.309875 
z
" style="fill:#ff0000;stroke:#ffffff;stroke-linejoin:miter;stroke-width:0.5;"/>
   </g>
   <g id="patch_23">
    <path d="M 308.172414 157.5 
L 308.172414 21.6 
" style="fill:none;stroke:#ffffff;stroke-linecap:square;stroke-linejoin:miter;stroke-width:1.25;"/>
   </g>
   <g id="patch_24">
    <path d="M 452.482759 157.5 
L 452.482759 21.6 
" style="fill:none;stroke:#ffffff;stroke-linecap:square;stroke-linejoin:miter;stroke-width:1.25;"/>
   </g>
   <g id="patch_25">
    <path d="M 308.172414 157.5 
L 452.482759 157.5 
" style="fill:none;stroke:#ffffff;stroke-linecap:square;stroke-linejoin:miter;stroke-width:1.25;"/>
   </g>
   <g id="patch_26">
    <path d="M 308.172414 21.6 
L 452.482759 21.6 
" style="fill:none;stroke:#ffffff;stroke-linecap:square;stroke-linejoin:miter;stroke-width:1.25;"/>
   </g>
   <g id="text_2">
    <!-- 27:1 -->
    <defs>
     <path d="M 50.34375 8.453125 
L 50.34375 0 
L 3.03125 0 
Q 2.9375 3.171875 4.046875 6.109375 
Q 5.859375 10.9375 9.828125 15.625 
Q 13.8125 20.3125 21.34375 26.46875 
Q 33.015625 36.03125 37.109375 41.625 
Q 41.21875 47.21875 41.21875 52.203125 
Q 41.21875 57.421875 37.46875 61 
Q 33.734375 64.59375 27.734375 64.59375 
Q 21.390625 64.59375 17.578125 60.78125 
Q 13.765625 56.984375 13.71875 50.25 
L 4.6875 51.171875 
Q 5.609375 61.28125 11.65625 66.578125 
Q 17.71875 71.875 27.9375 71.875 
Q 38.234375 71.875 44.234375 66.15625 
Q 50.25 60.453125 50.25 52 
Q 50.25 47.703125 48.484375 43.546875 
Q 46.734375 39.40625 42.65625 34.8125 
Q 38.578125 30.21875 29.109375 22.21875 
Q 21.1875 15.578125 18.9375 13.203125 
Q 16.703125 10.84375 15.234375 8.453125 
z
" id="ArialMT-50"/>
     <path d="M 4.734375 62.203125 
L 4.734375 70.65625 
L 51.078125 70.65625 
L 51.078125 63.8125 
Q 44.234375 56.546875 37.515625 44.484375 
Q 30.8125 32.421875 27.15625 19.671875 
Q 24.515625 10.6875 23.78125 0 
L 14.75 0 
Q 14.890625 8.453125 18.0625 20.40625 
Q 21.234375 32.375 27.171875 43.484375 
Q 33.109375 54.59375 39.796875 62.203125 
z
" id="ArialMT-55"/>
    </defs>
    <g style="fill:#262626;" transform="translate(368.651024 15.6)scale(0.12 -0.12)">
     <use xlink:href="#ArialMT-50"/>
     <use x="55.615234" xlink:href="#ArialMT-55"/>
     <use x="111.230469" xlink:href="#ArialMT-58"/>
     <use x="139.013672" xlink:href="#ArialMT-49"/>
    </g>
   </g>
  </g>
  <g id="axes_3">
   <g id="patch_27">
    <path d="M 481.344828 157.5 
L 625.655172 157.5 
L 625.655172 21.6 
L 481.344828 21.6 
z
" style="fill:#ffffff;"/>
   </g>
   <g id="patch_28">
    <path clip-path="url(#p23b16c54fd)" d="M 539.423645 135.601422 
L 528.339901 135.601422 
" style="stroke:#000000;stroke-linejoin:miter;stroke-width:0.5;"/>
   </g>
   <g id="patch_29">
    <path clip-path="url(#p23b16c54fd)" d="M 550.507389 135.601422 
L 539.423645 135.601422 
" style="stroke:#000000;stroke-linejoin:miter;stroke-width:0.5;"/>
   </g>
   <g id="patch_30">
    <path clip-path="url(#p23b16c54fd)" d="M 561.591133 135.601422 
L 550.507389 135.601422 
" style="stroke:#000000;stroke-linejoin:miter;stroke-width:0.5;"/>
   </g>
   <g id="patch_31">
    <path clip-path="url(#p23b16c54fd)" d="M 572.674877 135.601422 
L 561.591133 135.601422 
" style="stroke:#000000;stroke-linejoin:miter;stroke-width:0.5;"/>
   </g>
   <g id="patch_32">
    <path clip-path="url(#p23b16c54fd)" d="M 583.758621 119.499526 
L 572.674877 135.601422 
" style="stroke:#000000;stroke-linejoin:miter;stroke-width:0.5;"/>
   </g>
   <g id="patch_33">
    <path clip-path="url(#p23b16c54fd)" d="M 583.758621 119.499526 
L 572.674877 103.39763 
" style="stroke:#000000;stroke-linejoin:miter;stroke-width:0.5;"/>
   </g>
   <g id="patch_34">
    <path clip-path="url(#p23b16c54fd)" d="M 594.842365 119.499526 
L 583.758621 119.499526 
" style="stroke:#000000;stroke-linejoin:miter;stroke-width:0.5;"/>
   </g>
   <g id="patch_35">
    <path clip-path="url(#p23b16c54fd)" d="M 605.926108 119.499526 
L 594.842365 119.499526 
" style="stroke:#000000;stroke-linejoin:miter;stroke-width:0.5;"/>
   </g>
   <g id="aedd1cefaef34ef3ae7051467886fb1e-1-node">
    <path clip-path="url(#p23b16c54fd)" d="M 607.810345 114.024882 
L 607.810345 124.974171 
L 604.041872 124.974171 
L 604.041872 114.024882 
L 607.810345 114.024882 
z
" style="fill:#0000ff;stroke:#ffffff;stroke-linejoin:miter;stroke-width:0.5;"/>
   </g>
   <g id="aedd1cefaef34ef3ae7051467886fb1e-3-node">
    <path clip-path="url(#p23b16c54fd)" d="M 596.726601 114.024882 
L 596.726601 124.974171 
L 592.958128 124.974171 
L 592.958128 114.024882 
L 596.726601 114.024882 
z
" style="fill:#0000ff;stroke:#ffffff;stroke-linejoin:miter;stroke-width:0.5;"/>
   </g>
   <g id="aedd1cefaef34ef3ae7051467886fb1e-5-node">
    <path clip-path="url(#p23b16c54fd)" d="M 583.758621 124.974171 
C 584.258326 124.974171 584.737632 124.397328 585.090977 123.370684 
C 585.444322 122.344041 585.642857 120.951419 585.642857 119.499526 
C 585.642857 118.047633 585.444322 116.655011 585.090977 115.628368 
C 584.737632 114.601725 584.258326 114.024882 583.758621 114.024882 
C 583.258915 114.024882 582.779609 114.601725 582.426264 115.628368 
C 582.072919 116.655011 581.874384 118.047633 581.874384 119.499526 
C 581.874384 120.951419 582.072919 122.344041 582.426264 123.370684 
C 582.779609 124.397328 583.258915 124.974171 583.758621 124.974171 
z
" style="fill:#00c832;stroke:#ffffff;stroke-linejoin:miter;stroke-width:0.5;"/>
   </g>
   <g id="aedd1cefaef34ef3ae7051467886fb1e-7-node">
    <path clip-path="url(#p23b16c54fd)" d="M 572.674877 141.076066 
C 573.174582 141.076066 573.653888 140.499223 574.007233 139.47258 
C 574.360578 138.445937 574.559113 137.053315 574.559113 135.601422 
C 574.559113 134.149529 574.360578 132.756907 574.007233 131.730264 
C 573.653888 130.70362 573.174582 130.126777 572.674877 130.126777 
C 572.175171 130.126777 571.695866 130.70362 571.34252 131.730264 
C 570.989175 132.756907 570.79064 134.149529 570.79064 135.601422 
C 570.79064 137.053315 570.989175 138.445937 571.34252 139.47258 
C 571.695866 140.499223 572.175171 141.076066 572.674877 141.076066 
z
" style="fill:#00c832;stroke:#ffffff;stroke-linejoin:miter;stroke-width:0.5;"/>
   </g>
   <g id="aedd1cefaef34ef3ae7051467886fb1e-8-node">
    <path clip-path="url(#p23b16c54fd)" d="M 563.475369 130.126777 
L 563.475369 141.076066 
L 559.706897 141.076066 
L 559.706897 130.126777 
L 563.475369 130.126777 
z
" style="fill:#0000ff;stroke:#ffffff;stroke-linejoin:miter;stroke-width:0.5;"/>
   </g>
   <g id="aedd1cefaef34ef3ae7051467886fb1e-10-node">
    <path clip-path="url(#p23b16c54fd)" d="M 550.507389 141.076066 
C 551.007095 141.076066 551.4864 140.499223 551.839746 139.47258 
C 552.193091 138.445937 552.391626 137.053315 552.391626 135.601422 
C 552.391626 134.149529 552.193091 132.756907 551.839746 131.730264 
C 551.4864 130.70362 551.007095 130.126777 550.507389 130.126777 
C 550.007684 130.126777 549.528378 130.70362 549.175033 131.730264 
C 548.821688 132.756907 548.623153 134.149529 548.623153 135.601422 
C 548.623153 137.053315 548.821688 138.445937 549.175033 139.47258 
C 549.528378 140.499223 550.007684 141.076066 550.507389 141.076066 
z
" style="fill:#ffff00;stroke:#ffffff;stroke-linejoin:miter;stroke-width:0.5;"/>
   </g>
   <g id="aedd1cefaef34ef3ae7051467886fb1e-11-node">
    <path clip-path="url(#p23b16c54fd)" d="M 541.307882 130.126777 
L 541.307882 141.076066 
L 537.539409 141.076066 
L 537.539409 130.126777 
L 541.307882 130.126777 
z
" style="fill:#0000ff;stroke:#ffffff;stroke-linejoin:miter;stroke-width:0.5;"/>
   </g>
   <g id="aedd1cefaef34ef3ae7051467886fb1e-13-node">
    <path clip-path="url(#p23b16c54fd)" d="M 528.339901 141.076066 
C 528.839607 141.076066 529.318913 140.499223 529.672258 139.47258 
C 530.025603 138.445937 530.224138 137.053315 530.224138 135.601422 
C 530.224138 134.149529 530.025603 132.756907 529.672258 131.730264 
C 529.318913 130.70362 528.839607 130.126777 528.339901 130.126777 
C 527.840196 130.126777 527.36089 130.70362 527.007545 131.730264 
C 526.6542 132.756907 526.455665 134.149529 526.455665 135.601422 
C 526.455665 137.053315 526.6542 138.445937 527.007545 139.47258 
C 527.36089 140.499223 527.840196 141.076066 528.339901 141.076066 
z
" style="fill:#ffff00;stroke:#ffffff;stroke-linejoin:miter;stroke-width:0.5;"/>
   </g>
   <g id="aedd1cefaef34ef3ae7051467886fb1e-6-node">
    <path clip-path="url(#p23b16c54fd)" d="M 572.674877 108.872275 
C 573.174582 108.872275 573.653888 108.295432 574.007233 107.268789 
C 574.360578 106.242145 574.559113 104.849523 574.559113 103.39763 
C 574.559113 101.945738 574.360578 100.553115 574.007233 99.526472 
C 573.653888 98.499829 573.174582 97.922986 572.674877 97.922986 
C 572.175171 97.922986 571.695866 98.499829 571.34252 99.526472 
C 570.989175 100.553115 570.79064 101.945738 570.79064 103.39763 
C 570.79064 104.849523 570.989175 106.242145 571.34252 107.268789 
C 571.695866 108.295432 572.175171 108.872275 572.674877 108.872275 
z
" style="fill:#00c832;stroke:#ffffff;stroke-linejoin:miter;stroke-width:0.5;"/>
   </g>
   <g id="patch_36">
    <path d="M 481.344828 157.5 
L 481.344828 21.6 
" style="fill:none;stroke:#ffffff;stroke-linecap:square;stroke-linejoin:miter;stroke-width:1.25;"/>
   </g>
   <g id="patch_37">
    <path d="M 625.655172 157.5 
L 625.655172 21.6 
" style="fill:none;stroke:#ffffff;stroke-linecap:square;stroke-linejoin:miter;stroke-width:1.25;"/>
   </g>
   <g id="patch_38">
    <path d="M 481.344828 157.5 
L 625.655172 157.5 
" style="fill:none;stroke:#ffffff;stroke-linecap:square;stroke-linejoin:miter;stroke-width:1.25;"/>
   </g>
   <g id="patch_39">
    <path d="M 481.344828 21.6 
L 625.655172 21.6 
" style="fill:none;stroke:#ffffff;stroke-linecap:square;stroke-linejoin:miter;stroke-width:1.25;"/>
   </g>
   <g id="text_3">
    <!-- 28:1 -->
    <defs>
     <path d="M 17.671875 38.8125 
Q 12.203125 40.828125 9.5625 44.53125 
Q 6.9375 48.25 6.9375 53.421875 
Q 6.9375 61.234375 12.546875 66.546875 
Q 18.171875 71.875 27.484375 71.875 
Q 36.859375 71.875 42.578125 66.421875 
Q 48.296875 60.984375 48.296875 53.171875 
Q 48.296875 48.1875 45.671875 44.5 
Q 43.0625 40.828125 37.75 38.8125 
Q 44.34375 36.671875 47.78125 31.875 
Q 51.21875 27.09375 51.21875 20.453125 
Q 51.21875 11.28125 44.71875 5.03125 
Q 38.234375 -1.21875 27.640625 -1.21875 
Q 17.046875 -1.21875 10.546875 5.046875 
Q 4.046875 11.328125 4.046875 20.703125 
Q 4.046875 27.6875 7.59375 32.390625 
Q 11.140625 37.109375 17.671875 38.8125 
z
M 15.921875 53.71875 
Q 15.921875 48.640625 19.1875 45.40625 
Q 22.46875 42.1875 27.6875 42.1875 
Q 32.765625 42.1875 36.015625 45.375 
Q 39.265625 48.578125 39.265625 53.21875 
Q 39.265625 58.0625 35.90625 61.359375 
Q 32.5625 64.65625 27.59375 64.65625 
Q 22.5625 64.65625 19.234375 61.421875 
Q 15.921875 58.203125 15.921875 53.71875 
z
M 13.09375 20.65625 
Q 13.09375 16.890625 14.875 13.375 
Q 16.65625 9.859375 20.171875 7.921875 
Q 23.6875 6 27.734375 6 
Q 34.03125 6 38.125 10.046875 
Q 42.234375 14.109375 42.234375 20.359375 
Q 42.234375 26.703125 38.015625 30.859375 
Q 33.796875 35.015625 27.4375 35.015625 
Q 21.234375 35.015625 17.15625 30.90625 
Q 13.09375 26.8125 13.09375 20.65625 
z
" id="ArialMT-56"/>
    </defs>
    <g style="fill:#262626;" transform="translate(541.823437 15.6)scale(0.12 -0.12)">
     <use xlink:href="#ArialMT-50"/>
     <use x="55.615234" xlink:href="#ArialMT-56"/>
     <use x="111.230469" xlink:href="#ArialMT-58"/>
     <use x="139.013672" xlink:href="#ArialMT-49"/>
    </g>
   </g>
  </g>
  <g id="axes_4">
   <g id="patch_40">
    <path d="M 654.517241 157.5 
L 798.827586 157.5 
L 798.827586 21.6 
L 654.517241 21.6 
z
" style="fill:#ffffff;"/>
   </g>
   <g id="patch_41">
    <path clip-path="url(#pffeaa519d0)" d="M 712.596059 135.601422 
L 701.512315 135.601422 
" style="stroke:#000000;stroke-linejoin:miter;stroke-width:0.5;"/>
   </g>
   <g id="patch_42">
    <path clip-path="url(#pffeaa519d0)" d="M 723.679803 135.601422 
L 712.596059 135.601422 
" style="stroke:#000000;stroke-linejoin:miter;stroke-width:0.5;"/>
   </g>
   <g id="patch_43">
    <path clip-path="url(#pffeaa519d0)" d="M 734.763547 135.601422 
L 723.679803 135.601422 
" style="stroke:#000000;stroke-linejoin:miter;stroke-width:0.5;"/>
   </g>
   <g id="patch_44">
    <path clip-path="url(#pffeaa519d0)" d="M 745.847291 135.601422 
L 734.763547 135.601422 
" style="stroke:#000000;stroke-linejoin:miter;stroke-width:0.5;"/>
   </g>
   <g id="patch_45">
    <path clip-path="url(#pffeaa519d0)" d="M 756.931034 119.499526 
L 745.847291 135.601422 
" style="stroke:#000000;stroke-linejoin:miter;stroke-width:0.5;"/>
   </g>
   <g id="patch_46">
    <path clip-path="url(#pffeaa519d0)" d="M 756.931034 119.499526 
L 745.847291 103.39763 
" style="stroke:#000000;stroke-linejoin:miter;stroke-width:0.5;"/>
   </g>
   <g id="patch_47">
    <path clip-path="url(#pffeaa519d0)" d="M 768.014778 119.499526 
L 756.931034 119.499526 
" style="stroke:#000000;stroke-linejoin:miter;stroke-width:0.5;"/>
   </g>
   <g id="patch_48">
    <path clip-path="url(#pffeaa519d0)" d="M 779.098522 119.499526 
L 768.014778 119.499526 
" style="stroke:#000000;stroke-linejoin:miter;stroke-width:0.5;"/>
   </g>
   <g id="patch_49">
    <path clip-path="url(#pffeaa519d0)" d="M 779.098522 119.499526 
L 779.098522 103.39763 
" style="stroke:#000000;stroke-linejoin:miter;stroke-width:0.5;"/>
   </g>
   <g id="d5b8854bb0904e67a0a49ac22ebf4fe8-1-node">
    <path clip-path="url(#pffeaa519d0)" d="M 780.982759 114.024882 
L 780.982759 124.974171 
L 777.214286 124.974171 
L 777.214286 114.024882 
L 780.982759 114.024882 
z
" style="fill:#0000ff;stroke:#ffffff;stroke-linejoin:miter;stroke-width:0.5;"/>
   </g>
   <g id="d5b8854bb0904e67a0a49ac22ebf4fe8-4-node">
    <path clip-path="url(#pffeaa519d0)" d="M 769.899015 114.024882 
L 769.899015 124.974171 
L 766.130542 124.974171 
L 766.130542 114.024882 
L 769.899015 114.024882 
z
" style="fill:#0000ff;stroke:#ffffff;stroke-linejoin:miter;stroke-width:0.5;"/>
   </g>
   <g id="d5b8854bb0904e67a0a49ac22ebf4fe8-6-node">
    <path clip-path="url(#pffeaa519d0)" d="M 756.931034 124.974171 
C 757.43074 124.974171 757.910046 124.397328 758.263391 123.370684 
C 758.616736 122.344041 758.815271 120.951419 758.815271 119.499526 
C 758.815271 118.047633 758.616736 116.655011 758.263391 115.628368 
C 757.910046 114.601725 757.43074 114.024882 756.931034 114.024882 
C 756.431329 114.024882 755.952023 114.601725 755.598678 115.628368 
C 755.245333 116.655011 755.046798 118.047633 755.046798 119.499526 
C 755.046798 120.951419 755.245333 122.344041 755.598678 123.370684 
C 755.952023 124.397328 756.431329 124.974171 756.931034 124.974171 
z
" style="fill:#00c832;stroke:#ffffff;stroke-linejoin:miter;stroke-width:0.5;"/>
   </g>
   <g id="d5b8854bb0904e67a0a49ac22ebf4fe8-8-node">
    <path clip-path="url(#pffeaa519d0)" d="M 745.847291 141.076066 
C 746.346996 141.076066 746.826302 140.499223 747.179647 139.47258 
C 747.532992 138.445937 747.731527 137.053315 747.731527 135.601422 
C 747.731527 134.149529 747.532992 132.756907 747.179647 131.730264 
C 746.826302 130.70362 746.346996 130.126777 745.847291 130.126777 
C 745.347585 130.126777 744.868279 130.70362 744.514934 131.730264 
C 744.161589 132.756907 743.963054 134.149529 743.963054 135.601422 
C 743.963054 137.053315 744.161589 138.445937 744.514934 139.47258 
C 744.868279 140.499223 745.347585 141.076066 745.847291 141.076066 
z
" style="fill:#00c832;stroke:#ffffff;stroke-linejoin:miter;stroke-width:0.5;"/>
   </g>
   <g id="d5b8854bb0904e67a0a49ac22ebf4fe8-9-node">
    <path clip-path="url(#pffeaa519d0)" d="M 736.647783 130.126777 
L 736.647783 141.076066 
L 732.87931 141.076066 
L 732.87931 130.126777 
L 736.647783 130.126777 
z
" style="fill:#0000ff;stroke:#ffffff;stroke-linejoin:miter;stroke-width:0.5;"/>
   </g>
   <g id="d5b8854bb0904e67a0a49ac22ebf4fe8-11-node">
    <path clip-path="url(#pffeaa519d0)" d="M 723.679803 141.076066 
C 724.179508 141.076066 724.658814 140.499223 725.012159 139.47258 
C 725.365504 138.445937 725.564039 137.053315 725.564039 135.601422 
C 725.564039 134.149529 725.365504 132.756907 725.012159 131.730264 
C 724.658814 130.70362 724.179508 130.126777 723.679803 130.126777 
C 723.180098 130.126777 722.700792 130.70362 722.347447 131.730264 
C 721.994102 132.756907 721.795567 134.149529 721.795567 135.601422 
C 721.795567 137.053315 721.994102 138.445937 722.347447 139.47258 
C 722.700792 140.499223 723.180098 141.076066 723.679803 141.076066 
z
" style="fill:#ffff00;stroke:#ffffff;stroke-linejoin:miter;stroke-width:0.5;"/>
   </g>
   <g id="d5b8854bb0904e67a0a49ac22ebf4fe8-12-node">
    <path clip-path="url(#pffeaa519d0)" d="M 714.480296 130.126777 
L 714.480296 141.076066 
L 710.711823 141.076066 
L 710.711823 130.126777 
L 714.480296 130.126777 
z
" style="fill:#0000ff;stroke:#ffffff;stroke-linejoin:miter;stroke-width:0.5;"/>
   </g>
   <g id="d5b8854bb0904e67a0a49ac22ebf4fe8-14-node">
    <path clip-path="url(#pffeaa519d0)" d="M 701.512315 141.076066 
C 702.012021 141.076066 702.491327 140.499223 702.844672 139.47258 
C 703.198017 138.445937 703.396552 137.053315 703.396552 135.601422 
C 703.396552 134.149529 703.198017 132.756907 702.844672 131.730264 
C 702.491327 130.70362 702.012021 130.126777 701.512315 130.126777 
C 701.01261 130.126777 700.533304 130.70362 700.179959 131.730264 
C 699.826614 132.756907 699.628079 134.149529 699.628079 135.601422 
C 699.628079 137.053315 699.826614 138.445937 700.179959 139.47258 
C 700.533304 140.499223 701.01261 141.076066 701.512315 141.076066 
z
" style="fill:#ffff00;stroke:#ffffff;stroke-linejoin:miter;stroke-width:0.5;"/>
   </g>
   <g id="d5b8854bb0904e67a0a49ac22ebf4fe8-7-node">
    <path clip-path="url(#pffeaa519d0)" d="M 745.847291 108.872275 
C 746.346996 108.872275 746.826302 108.295432 747.179647 107.268789 
C 747.532992 106.242145 747.731527 104.849523 747.731527 103.39763 
C 747.731527 101.945738 747.532992 100.553115 747.179647 99.526472 
C 746.826302 98.499829 746.346996 97.922986 745.847291 97.922986 
C 745.347585 97.922986 744.868279 98.499829 744.514934 99.526472 
C 744.161589 100.553115 743.963054 101.945738 743.963054 103.39763 
C 743.963054 104.849523 744.161589 106.242145 744.514934 107.268789 
C 744.868279 108.295432 745.347585 108.872275 745.847291 108.872275 
z
" style="fill:#00c832;stroke:#ffffff;stroke-linejoin:miter;stroke-width:0.5;"/>
   </g>
   <g id="d5b8854bb0904e67a0a49ac22ebf4fe8-3-node">
    <path clip-path="url(#pffeaa519d0)" d="M 779.098522 97.922986 
L 777.466726 106.134953 
L 780.730319 106.134953 
z
" style="fill:#ff0000;stroke:#ffffff;stroke-linejoin:miter;stroke-width:0.5;"/>
   </g>
   <g id="patch_50">
    <path d="M 654.517241 157.5 
L 654.517241 21.6 
" style="fill:none;stroke:#ffffff;stroke-linecap:square;stroke-linejoin:miter;stroke-width:1.25;"/>
   </g>
   <g id="patch_51">
    <path d="M 798.827586 157.5 
L 798.827586 21.6 
" style="fill:none;stroke:#ffffff;stroke-linecap:square;stroke-linejoin:miter;stroke-width:1.25;"/>
   </g>
   <g id="patch_52">
    <path d="M 654.517241 157.5 
L 798.827586 157.5 
" style="fill:none;stroke:#ffffff;stroke-linecap:square;stroke-linejoin:miter;stroke-width:1.25;"/>
   </g>
   <g id="patch_53">
    <path d="M 654.517241 21.6 
L 798.827586 21.6 
" style="fill:none;stroke:#ffffff;stroke-linecap:square;stroke-linejoin:miter;stroke-width:1.25;"/>
   </g>
   <g id="text_4">
    <!-- 47:1 -->
    <g style="fill:#262626;" transform="translate(714.995851 15.6)scale(0.12 -0.12)">
     <use xlink:href="#ArialMT-52"/>
     <use x="55.615234" xlink:href="#ArialMT-55"/>
     <use x="111.230469" xlink:href="#ArialMT-58"/>
     <use x="139.013672" xlink:href="#ArialMT-49"/>
    </g>
   </g>
  </g>
  <g id="axes_5">
   <g id="patch_54">
    <path d="M 827.689655 157.5 
L 972 157.5 
L 972 21.6 
L 827.689655 21.6 
z
" style="fill:#eaeaf2;"/>
   </g>
   <g id="matplotlib.axis_1">
    <g id="xtick_1">
     <g id="line2d_1">
      <path clip-path="url(#pc6dab07462)" d="M 827.689655 157.5 
L 827.689655 21.6 
" style="fill:none;stroke:#ffffff;stroke-linecap:round;"/>
     </g>
     <g id="text_5">
      <!-- 0.00 -->
      <defs>
       <path d="M 4.15625 35.296875 
Q 4.15625 48 6.765625 55.734375 
Q 9.375 63.484375 14.515625 67.671875 
Q 19.671875 71.875 27.484375 71.875 
Q 33.25 71.875 37.59375 69.546875 
Q 41.9375 67.234375 44.765625 62.859375 
Q 47.609375 58.5 49.21875 52.21875 
Q 50.828125 45.953125 50.828125 35.296875 
Q 50.828125 22.703125 48.234375 14.96875 
Q 45.65625 7.234375 40.5 3 
Q 35.359375 -1.21875 27.484375 -1.21875 
Q 17.140625 -1.21875 11.234375 6.203125 
Q 4.15625 15.140625 4.15625 35.296875 
z
M 13.1875 35.296875 
Q 13.1875 17.671875 17.3125 11.828125 
Q 21.4375 6 27.484375 6 
Q 33.546875 6 37.671875 11.859375 
Q 41.796875 17.71875 41.796875 35.296875 
Q 41.796875 52.984375 37.671875 58.78125 
Q 33.546875 64.59375 27.390625 64.59375 
Q 21.34375 64.59375 17.71875 59.46875 
Q 13.1875 52.9375 13.1875 35.296875 
z
" id="ArialMT-48"/>
       <path d="M 9.078125 0 
L 9.078125 10.015625 
L 19.09375 10.015625 
L 19.09375 0 
z
" id="ArialMT-46"/>
      </defs>
      <g style="fill:#262626;" transform="translate(816.98614 174.873594)scale(0.11 -0.11)">
       <use xlink:href="#ArialMT-48"/>
       <use x="55.615234" xlink:href="#ArialMT-46"/>
       <use x="83.398438" xlink:href="#ArialMT-48"/>
       <use x="139.013672" xlink:href="#ArialMT-48"/>
      </g>
     </g>
    </g>
    <g id="xtick_2">
     <g id="line2d_2">
      <path clip-path="url(#pc6dab07462)" d="M 863.767241 157.5 
L 863.767241 21.6 
" style="fill:none;stroke:#ffffff;stroke-linecap:round;"/>
     </g>
     <g id="text_6">
      <!-- 0.25 -->
      <defs>
       <path d="M 4.15625 18.75 
L 13.375 19.53125 
Q 14.40625 12.796875 18.140625 9.390625 
Q 21.875 6 27.15625 6 
Q 33.5 6 37.890625 10.78125 
Q 42.28125 15.578125 42.28125 23.484375 
Q 42.28125 31 38.0625 35.34375 
Q 33.84375 39.703125 27 39.703125 
Q 22.75 39.703125 19.328125 37.765625 
Q 15.921875 35.84375 13.96875 32.765625 
L 5.71875 33.84375 
L 12.640625 70.609375 
L 48.25 70.609375 
L 48.25 62.203125 
L 19.671875 62.203125 
L 15.828125 42.96875 
Q 22.265625 47.46875 29.34375 47.46875 
Q 38.71875 47.46875 45.15625 40.96875 
Q 51.609375 34.46875 51.609375 24.265625 
Q 51.609375 14.546875 45.953125 7.46875 
Q 39.0625 -1.21875 27.15625 -1.21875 
Q 17.390625 -1.21875 11.203125 4.25 
Q 5.03125 9.71875 4.15625 18.75 
z
" id="ArialMT-53"/>
      </defs>
      <g style="fill:#262626;" transform="translate(853.063726 174.873594)scale(0.11 -0.11)">
       <use xlink:href="#ArialMT-48"/>
       <use x="55.615234" xlink:href="#ArialMT-46"/>
       <use x="83.398438" xlink:href="#ArialMT-50"/>
       <use x="139.013672" xlink:href="#ArialMT-53"/>
      </g>
     </g>
    </g>
    <g id="xtick_3">
     <g id="line2d_3">
      <path clip-path="url(#pc6dab07462)" d="M 899.844828 157.5 
L 899.844828 21.6 
" style="fill:none;stroke:#ffffff;stroke-linecap:round;"/>
     </g>
     <g id="text_7">
      <!-- 0.50 -->
      <g style="fill:#262626;" transform="translate(889.141312 174.873594)scale(0.11 -0.11)">
       <use xlink:href="#ArialMT-48"/>
       <use x="55.615234" xlink:href="#ArialMT-46"/>
       <use x="83.398438" xlink:href="#ArialMT-53"/>
       <use x="139.013672" xlink:href="#ArialMT-48"/>
      </g>
     </g>
    </g>
    <g id="xtick_4">
     <g id="line2d_4">
      <path clip-path="url(#pc6dab07462)" d="M 935.922414 157.5 
L 935.922414 21.6 
" style="fill:none;stroke:#ffffff;stroke-linecap:round;"/>
     </g>
     <g id="text_8">
      <!-- 0.75 -->
      <g style="fill:#262626;" transform="translate(925.218898 174.873594)scale(0.11 -0.11)">
       <use xlink:href="#ArialMT-48"/>
       <use x="55.615234" xlink:href="#ArialMT-46"/>
       <use x="83.398438" xlink:href="#ArialMT-55"/>
       <use x="139.013672" xlink:href="#ArialMT-53"/>
      </g>
     </g>
    </g>
    <g id="xtick_5">
     <g id="line2d_5">
      <path clip-path="url(#pc6dab07462)" d="M 972 157.5 
L 972 21.6 
" style="fill:none;stroke:#ffffff;stroke-linecap:round;"/>
     </g>
     <g id="text_9">
      <!-- 1.00 -->
      <g style="fill:#262626;" transform="translate(961.296484 174.873594)scale(0.11 -0.11)">
       <use xlink:href="#ArialMT-49"/>
       <use x="55.615234" xlink:href="#ArialMT-46"/>
       <use x="83.398438" xlink:href="#ArialMT-48"/>
       <use x="139.013672" xlink:href="#ArialMT-48"/>
      </g>
     </g>
    </g>
   </g>
   <g id="matplotlib.axis_2">
    <g id="ytick_1">
     <g id="line2d_6">
      <path clip-path="url(#pc6dab07462)" d="M 827.689655 157.5 
L 972 157.5 
" style="fill:none;stroke:#ffffff;stroke-linecap:round;"/>
     </g>
     <g id="text_10">
      <!-- 0.0 -->
      <g style="fill:#262626;" transform="translate(802.899655 161.436797)scale(0.11 -0.11)">
       <use xlink:href="#ArialMT-48"/>
       <use x="55.615234" xlink:href="#ArialMT-46"/>
       <use x="83.398438" xlink:href="#ArialMT-48"/>
      </g>
     </g>
    </g>
    <g id="ytick_2">
     <g id="line2d_7">
      <path clip-path="url(#pc6dab07462)" d="M 827.689655 130.32 
L 972 130.32 
" style="fill:none;stroke:#ffffff;stroke-linecap:round;"/>
     </g>
     <g id="text_11">
      <!-- 0.2 -->
      <g style="fill:#262626;" transform="translate(802.899655 134.256797)scale(0.11 -0.11)">
       <use xlink:href="#ArialMT-48"/>
       <use x="55.615234" xlink:href="#ArialMT-46"/>
       <use x="83.398438" xlink:href="#ArialMT-50"/>
      </g>
     </g>
    </g>
    <g id="ytick_3">
     <g id="line2d_8">
      <path clip-path="url(#pc6dab07462)" d="M 827.689655 103.14 
L 972 103.14 
" style="fill:none;stroke:#ffffff;stroke-linecap:round;"/>
     </g>
     <g id="text_12">
      <!-- 0.4 -->
      <g style="fill:#262626;" transform="translate(802.899655 107.076797)scale(0.11 -0.11)">
       <use xlink:href="#ArialMT-48"/>
       <use x="55.615234" xlink:href="#ArialMT-46"/>
       <use x="83.398438" xlink:href="#ArialMT-52"/>
      </g>
     </g>
    </g>
    <g id="ytick_4">
     <g id="line2d_9">
      <path clip-path="url(#pc6dab07462)" d="M 827.689655 75.96 
L 972 75.96 
" style="fill:none;stroke:#ffffff;stroke-linecap:round;"/>
     </g>
     <g id="text_13">
      <!-- 0.6 -->
      <defs>
       <path d="M 49.75 54.046875 
L 41.015625 53.375 
Q 39.84375 58.546875 37.703125 60.890625 
Q 34.125 64.65625 28.90625 64.65625 
Q 24.703125 64.65625 21.53125 62.3125 
Q 17.390625 59.28125 14.984375 53.46875 
Q 12.59375 47.65625 12.5 36.921875 
Q 15.671875 41.75 20.265625 44.09375 
Q 24.859375 46.4375 29.890625 46.4375 
Q 38.671875 46.4375 44.84375 39.96875 
Q 51.03125 33.5 51.03125 23.25 
Q 51.03125 16.5 48.125 10.71875 
Q 45.21875 4.9375 40.140625 1.859375 
Q 35.0625 -1.21875 28.609375 -1.21875 
Q 17.625 -1.21875 10.6875 6.859375 
Q 3.765625 14.9375 3.765625 33.5 
Q 3.765625 54.25 11.421875 63.671875 
Q 18.109375 71.875 29.4375 71.875 
Q 37.890625 71.875 43.28125 67.140625 
Q 48.6875 62.40625 49.75 54.046875 
z
M 13.875 23.1875 
Q 13.875 18.65625 15.796875 14.5 
Q 17.71875 10.359375 21.1875 8.171875 
Q 24.65625 6 28.46875 6 
Q 34.03125 6 38.03125 10.484375 
Q 42.046875 14.984375 42.046875 22.703125 
Q 42.046875 30.125 38.078125 34.390625 
Q 34.125 38.671875 28.125 38.671875 
Q 22.171875 38.671875 18.015625 34.390625 
Q 13.875 30.125 13.875 23.1875 
z
" id="ArialMT-54"/>
      </defs>
      <g style="fill:#262626;" transform="translate(802.899655 79.896797)scale(0.11 -0.11)">
       <use xlink:href="#ArialMT-48"/>
       <use x="55.615234" xlink:href="#ArialMT-46"/>
       <use x="83.398438" xlink:href="#ArialMT-54"/>
      </g>
     </g>
    </g>
    <g id="ytick_5">
     <g id="line2d_10">
      <path clip-path="url(#pc6dab07462)" d="M 827.689655 48.78 
L 972 48.78 
" style="fill:none;stroke:#ffffff;stroke-linecap:round;"/>
     </g>
     <g id="text_14">
      <!-- 0.8 -->
      <g style="fill:#262626;" transform="translate(802.899655 52.716797)scale(0.11 -0.11)">
       <use xlink:href="#ArialMT-48"/>
       <use x="55.615234" xlink:href="#ArialMT-46"/>
       <use x="83.398438" xlink:href="#ArialMT-56"/>
      </g>
     </g>
    </g>
    <g id="ytick_6">
     <g id="line2d_11">
      <path clip-path="url(#pc6dab07462)" d="M 827.689655 21.6 
L 972 21.6 
" style="fill:none;stroke:#ffffff;stroke-linecap:round;"/>
     </g>
     <g id="text_15">
      <!-- 1.0 -->
      <g style="fill:#262626;" transform="translate(802.899655 25.536797)scale(0.11 -0.11)">
       <use xlink:href="#ArialMT-49"/>
       <use x="55.615234" xlink:href="#ArialMT-46"/>
       <use x="83.398438" xlink:href="#ArialMT-48"/>
      </g>
     </g>
    </g>
   </g>
   <g id="patch_55">
    <path d="M 827.689655 157.5 
L 827.689655 21.6 
" style="fill:none;stroke:#ffffff;stroke-linecap:square;stroke-linejoin:miter;stroke-width:1.25;"/>
   </g>
   <g id="patch_56">
    <path d="M 972 157.5 
L 972 21.6 
" style="fill:none;stroke:#ffffff;stroke-linecap:square;stroke-linejoin:miter;stroke-width:1.25;"/>
   </g>
   <g id="patch_57">
    <path d="M 827.689655 157.5 
L 972 157.5 
" style="fill:none;stroke:#ffffff;stroke-linecap:square;stroke-linejoin:miter;stroke-width:1.25;"/>
   </g>
   <g id="patch_58">
    <path d="M 827.689655 21.6 
L 972 21.6 
" style="fill:none;stroke:#ffffff;stroke-linecap:square;stroke-linejoin:miter;stroke-width:1.25;"/>
   </g>
   <g id="text_16">
    <!-- 11 -->
    <g style="fill:#262626;" transform="translate(893.178265 15.6)scale(0.12 -0.12)">
     <use xlink:href="#ArialMT-49"/>
     <use x="55.505859" xlink:href="#ArialMT-49"/>
    </g>
   </g>
  </g>
 </g>
 <defs>
  <clipPath id="pcc789647d7">
   <rect height="135.9" width="144.310345" x="135" y="21.6"/>
  </clipPath>
  <clipPath id="p59900e3af9">
   <rect height="135.9" width="144.310345" x="308.172414" y="21.6"/>
  </clipPath>
  <clipPath id="p23b16c54fd">
   <rect height="135.9" width="144.310345" x="481.344828" y="21.6"/>
  </clipPath>
  <clipPath id="pffeaa519d0">
   <rect height="135.9" width="144.310345" x="654.517241" y="21.6"/>
  </clipPath>
  <clipPath id="pc6dab07462">
   <rect height="135.9" width="144.310345" x="827.689655" y="21.6"/>
  </clipPath>
 </defs>
</svg>
