<?xml version="1.0" encoding="utf-8" standalone="no"?>
<!DOCTYPE svg PUBLIC "-//W3C//DTD SVG 1.1//EN"
  "http://www.w3.org/Graphics/SVG/1.1/DTD/svg11.dtd">
<!-- Created with matplotlib (https://matplotlib.org/) -->
<svg height="180pt" version="1.1" viewBox="0 0 1080 180" width="1080pt" xmlns="http://www.w3.org/2000/svg" xmlns:xlink="http://www.w3.org/1999/xlink">
 <defs>
  <style type="text/css">
*{stroke-linecap:butt;stroke-linejoin:round;}
  </style>
 </defs>
 <g id="figure_1">
  <g id="patch_1">
   <path d="M 0 180 
L 1080 180 
L 1080 0 
L 0 0 
z
" style="fill:#ffffff;"/>
  </g>
  <g id="axes_1">
   <g id="patch_2">
    <path d="M 135 157.5 
L 279.310345 157.5 
L 279.310345 21.6 
L 135 21.6 
z
" style="fill:#ffffff;"/>
   </g>
   <g id="patch_3">
    <path clip-path="url(#p9750923169)" d="M 196.260302 137.669099 
L 183.809021 137.669099 
" style="stroke:#000000;stroke-linejoin:miter;stroke-width:0.5;"/>
   </g>
   <g id="patch_4">
    <path clip-path="url(#p9750923169)" d="M 208.711583 137.669099 
L 196.260302 137.669099 
" style="stroke:#000000;stroke-linejoin:miter;stroke-width:0.5;"/>
   </g>
   <g id="patch_5">
    <path clip-path="url(#p9750923169)" d="M 221.162863 123.087554 
L 208.711583 137.669099 
" style="stroke:#000000;stroke-linejoin:miter;stroke-width:0.5;"/>
   </g>
   <g id="patch_6">
    <path clip-path="url(#p9750923169)" d="M 208.711583 108.506009 
L 196.260302 108.506009 
" style="stroke:#000000;stroke-linejoin:miter;stroke-width:0.5;"/>
   </g>
   <g id="patch_7">
    <path clip-path="url(#p9750923169)" d="M 221.162863 123.087554 
L 208.711583 108.506009 
" style="stroke:#000000;stroke-linejoin:miter;stroke-width:0.5;"/>
   </g>
   <g id="patch_8">
    <path clip-path="url(#p9750923169)" d="M 233.614144 108.506009 
L 221.162863 123.087554 
" style="stroke:#000000;stroke-linejoin:miter;stroke-width:0.5;"/>
   </g>
   <g id="patch_9">
    <path clip-path="url(#p9750923169)" d="M 233.614144 108.506009 
L 221.162863 93.924464 
" style="stroke:#000000;stroke-linejoin:miter;stroke-width:0.5;"/>
   </g>
   <g id="patch_10">
    <path clip-path="url(#p9750923169)" d="M 246.065425 108.506009 
L 233.614144 108.506009 
" style="stroke:#000000;stroke-linejoin:miter;stroke-width:0.5;"/>
   </g>
   <g id="patch_11">
    <path clip-path="url(#p9750923169)" d="M 258.516706 108.506009 
L 246.065425 108.506009 
" style="stroke:#000000;stroke-linejoin:miter;stroke-width:0.5;"/>
   </g>
   <g id="d21a96f66fff4983953f7a4fb7e2894e-1-node">
    <path clip-path="url(#p9750923169)" d="M 260.633424 103.548283 
L 260.633424 113.463734 
L 256.399988 113.463734 
L 256.399988 103.548283 
L 260.633424 103.548283 
z
" style="fill:#0000ff;stroke:#ffffff;stroke-linejoin:miter;stroke-width:0.5;"/>
   </g>
   <g id="d21a96f66fff4983953f7a4fb7e2894e-3-node">
    <path clip-path="url(#p9750923169)" d="M 248.182143 103.548283 
L 248.182143 113.463734 
L 243.948707 113.463734 
L 243.948707 103.548283 
L 248.182143 103.548283 
z
" style="fill:#0000ff;stroke:#ffffff;stroke-linejoin:miter;stroke-width:0.5;"/>
   </g>
   <g id="d21a96f66fff4983953f7a4fb7e2894e-5-node">
    <path clip-path="url(#p9750923169)" d="M 233.614144 113.463734 
C 234.175504 113.463734 234.713948 112.941357 235.11089 112.01165 
C 235.507831 111.081943 235.730862 109.820813 235.730862 108.506009 
C 235.730862 107.191204 235.507831 105.930074 235.11089 105.000367 
C 234.713948 104.07066 234.175504 103.548283 233.614144 103.548283 
C 233.052784 103.548283 232.51434 104.07066 232.117399 105.000367 
C 231.720457 105.930074 231.497426 107.191204 231.497426 108.506009 
C 231.497426 109.820813 231.720457 111.081943 232.117399 112.01165 
C 232.51434 112.941357 233.052784 113.463734 233.614144 113.463734 
z
" style="fill:#00c832;stroke:#ffffff;stroke-linejoin:miter;stroke-width:0.5;"/>
   </g>
   <g id="d21a96f66fff4983953f7a4fb7e2894e-7-node">
    <path clip-path="url(#p9750923169)" d="M 221.162863 128.045279 
C 221.724223 128.045279 222.262667 127.522902 222.659609 126.593195 
C 223.05655 125.663488 223.279581 124.402358 223.279581 123.087554 
C 223.279581 121.77275 223.05655 120.511619 222.659609 119.581912 
C 222.262667 118.652206 221.724223 118.129828 221.162863 118.129828 
C 220.601503 118.129828 220.063059 118.652206 219.666118 119.581912 
C 219.269176 120.511619 219.046146 121.77275 219.046146 123.087554 
C 219.046146 124.402358 219.269176 125.663488 219.666118 126.593195 
C 220.063059 127.522902 220.601503 128.045279 221.162863 128.045279 
z
" style="fill:#00c832;stroke:#ffffff;stroke-linejoin:miter;stroke-width:0.5;"/>
   </g>
   <g id="d21a96f66fff4983953f7a4fb7e2894e-11-node">
    <path clip-path="url(#p9750923169)" d="M 210.8283 132.711373 
L 210.8283 142.626824 
L 206.594865 142.626824 
L 206.594865 132.711373 
L 210.8283 132.711373 
z
" style="fill:#0000ff;stroke:#ffffff;stroke-linejoin:miter;stroke-width:0.5;"/>
   </g>
   <g id="d21a96f66fff4983953f7a4fb7e2894e-13-node">
    <path clip-path="url(#p9750923169)" d="M 196.260302 142.626824 
C 196.821662 142.626824 197.360106 142.104447 197.757047 141.17474 
C 198.153989 140.245033 198.377019 138.983903 198.377019 137.669099 
C 198.377019 136.354295 198.153989 135.093164 197.757047 134.163458 
C 197.360106 133.233751 196.821662 132.711373 196.260302 132.711373 
C 195.698942 132.711373 195.160498 133.233751 194.763556 134.163458 
C 194.366615 135.093164 194.143584 136.354295 194.143584 137.669099 
C 194.143584 138.983903 194.366615 140.245033 194.763556 141.17474 
C 195.160498 142.104447 195.698942 142.626824 196.260302 142.626824 
z
" style="fill:#ffff00;stroke:#ffffff;stroke-linejoin:miter;stroke-width:0.5;"/>
   </g>
   <g id="d21a96f66fff4983953f7a4fb7e2894e-14-node">
    <path clip-path="url(#p9750923169)" d="M 183.809021 132.711373 
L 181.692303 137.669099 
L 183.809021 142.626824 
L 185.925739 137.669099 
z
" style="fill:#c800c8;stroke:#ffffff;stroke-linejoin:miter;stroke-width:0.5;"/>
   </g>
   <g id="d21a96f66fff4983953f7a4fb7e2894e-8-node">
    <path clip-path="url(#p9750923169)" d="M 210.8283 103.548283 
L 210.8283 113.463734 
L 206.594865 113.463734 
L 206.594865 103.548283 
L 210.8283 103.548283 
z
" style="fill:#0000ff;stroke:#ffffff;stroke-linejoin:miter;stroke-width:0.5;"/>
   </g>
   <g id="d21a96f66fff4983953f7a4fb7e2894e-10-node">
    <path clip-path="url(#p9750923169)" d="M 196.260302 113.463734 
C 196.821662 113.463734 197.360106 112.941357 197.757047 112.01165 
C 198.153989 111.081943 198.377019 109.820813 198.377019 108.506009 
C 198.377019 107.191204 198.153989 105.930074 197.757047 105.000367 
C 197.360106 104.07066 196.821662 103.548283 196.260302 103.548283 
C 195.698942 103.548283 195.160498 104.07066 194.763556 105.000367 
C 194.366615 105.930074 194.143584 107.191204 194.143584 108.506009 
C 194.143584 109.820813 194.366615 111.081943 194.763556 112.01165 
C 195.160498 112.941357 195.698942 113.463734 196.260302 113.463734 
z
" style="fill:#ffff00;stroke:#ffffff;stroke-linejoin:miter;stroke-width:0.5;"/>
   </g>
   <g id="d21a96f66fff4983953f7a4fb7e2894e-6-node">
    <path clip-path="url(#p9750923169)" d="M 221.162863 98.882189 
C 221.724223 98.882189 222.262667 98.359812 222.659609 97.430105 
C 223.05655 96.500398 223.279581 95.239268 223.279581 93.924464 
C 223.279581 92.609659 223.05655 91.348529 222.659609 90.418822 
C 222.262667 89.489115 221.724223 88.966738 221.162863 88.966738 
C 220.601503 88.966738 220.063059 89.489115 219.666118 90.418822 
C 219.269176 91.348529 219.046146 92.609659 219.046146 93.924464 
C 219.046146 95.239268 219.269176 96.500398 219.666118 97.430105 
C 220.063059 98.359812 220.601503 98.882189 221.162863 98.882189 
z
" style="fill:#00c832;stroke:#ffffff;stroke-linejoin:miter;stroke-width:0.5;"/>
   </g>
   <g id="patch_12">
    <path d="M 135 157.5 
L 135 21.6 
" style="fill:none;stroke:#ffffff;stroke-linecap:square;stroke-linejoin:miter;stroke-width:1.25;"/>
   </g>
   <g id="patch_13">
    <path d="M 279.310345 157.5 
L 279.310345 21.6 
" style="fill:none;stroke:#ffffff;stroke-linecap:square;stroke-linejoin:miter;stroke-width:1.25;"/>
   </g>
   <g id="patch_14">
    <path d="M 135 157.5 
L 279.310345 157.5 
" style="fill:none;stroke:#ffffff;stroke-linecap:square;stroke-linejoin:miter;stroke-width:1.25;"/>
   </g>
   <g id="patch_15">
    <path d="M 135 21.6 
L 279.310345 21.6 
" style="fill:none;stroke:#ffffff;stroke-linecap:square;stroke-linejoin:miter;stroke-width:1.25;"/>
   </g>
   <g id="text_1">
    <!-- 86:2.0 -->
    <defs>
     <path d="M 17.671875 38.8125 
Q 12.203125 40.828125 9.5625 44.53125 
Q 6.9375 48.25 6.9375 53.421875 
Q 6.9375 61.234375 12.546875 66.546875 
Q 18.171875 71.875 27.484375 71.875 
Q 36.859375 71.875 42.578125 66.421875 
Q 48.296875 60.984375 48.296875 53.171875 
Q 48.296875 48.1875 45.671875 44.5 
Q 43.0625 40.828125 37.75 38.8125 
Q 44.34375 36.671875 47.78125 31.875 
Q 51.21875 27.09375 51.21875 20.453125 
Q 51.21875 11.28125 44.71875 5.03125 
Q 38.234375 -1.21875 27.640625 -1.21875 
Q 17.046875 -1.21875 10.546875 5.046875 
Q 4.046875 11.328125 4.046875 20.703125 
Q 4.046875 27.6875 7.59375 32.390625 
Q 11.140625 37.109375 17.671875 38.8125 
z
M 15.921875 53.71875 
Q 15.921875 48.640625 19.1875 45.40625 
Q 22.46875 42.1875 27.6875 42.1875 
Q 32.765625 42.1875 36.015625 45.375 
Q 39.265625 48.578125 39.265625 53.21875 
Q 39.265625 58.0625 35.90625 61.359375 
Q 32.5625 64.65625 27.59375 64.65625 
Q 22.5625 64.65625 19.234375 61.421875 
Q 15.921875 58.203125 15.921875 53.71875 
z
M 13.09375 20.65625 
Q 13.09375 16.890625 14.875 13.375 
Q 16.65625 9.859375 20.171875 7.921875 
Q 23.6875 6 27.734375 6 
Q 34.03125 6 38.125 10.046875 
Q 42.234375 14.109375 42.234375 20.359375 
Q 42.234375 26.703125 38.015625 30.859375 
Q 33.796875 35.015625 27.4375 35.015625 
Q 21.234375 35.015625 17.15625 30.90625 
Q 13.09375 26.8125 13.09375 20.65625 
z
" id="ArialMT-56"/>
     <path d="M 49.75 54.046875 
L 41.015625 53.375 
Q 39.84375 58.546875 37.703125 60.890625 
Q 34.125 64.65625 28.90625 64.65625 
Q 24.703125 64.65625 21.53125 62.3125 
Q 17.390625 59.28125 14.984375 53.46875 
Q 12.59375 47.65625 12.5 36.921875 
Q 15.671875 41.75 20.265625 44.09375 
Q 24.859375 46.4375 29.890625 46.4375 
Q 38.671875 46.4375 44.84375 39.96875 
Q 51.03125 33.5 51.03125 23.25 
Q 51.03125 16.5 48.125 10.71875 
Q 45.21875 4.9375 40.140625 1.859375 
Q 35.0625 -1.21875 28.609375 -1.21875 
Q 17.625 -1.21875 10.6875 6.859375 
Q 3.765625 14.9375 3.765625 33.5 
Q 3.765625 54.25 11.421875 63.671875 
Q 18.109375 71.875 29.4375 71.875 
Q 37.890625 71.875 43.28125 67.140625 
Q 48.6875 62.40625 49.75 54.046875 
z
M 13.875 23.1875 
Q 13.875 18.65625 15.796875 14.5 
Q 17.71875 10.359375 21.1875 8.171875 
Q 24.65625 6 28.46875 6 
Q 34.03125 6 38.03125 10.484375 
Q 42.046875 14.984375 42.046875 22.703125 
Q 42.046875 30.125 38.078125 34.390625 
Q 34.125 38.671875 28.125 38.671875 
Q 22.171875 38.671875 18.015625 34.390625 
Q 13.875 30.125 13.875 23.1875 
z
" id="ArialMT-54"/>
     <path d="M 9.03125 41.84375 
L 9.03125 51.859375 
L 19.046875 51.859375 
L 19.046875 41.84375 
z
M 9.03125 0 
L 9.03125 10.015625 
L 19.046875 10.015625 
L 19.046875 0 
z
" id="ArialMT-58"/>
     <path d="M 50.34375 8.453125 
L 50.34375 0 
L 3.03125 0 
Q 2.9375 3.171875 4.046875 6.109375 
Q 5.859375 10.9375 9.828125 15.625 
Q 13.8125 20.3125 21.34375 26.46875 
Q 33.015625 36.03125 37.109375 41.625 
Q 41.21875 47.21875 41.21875 52.203125 
Q 41.21875 57.421875 37.46875 61 
Q 33.734375 64.59375 27.734375 64.59375 
Q 21.390625 64.59375 17.578125 60.78125 
Q 13.765625 56.984375 13.71875 50.25 
L 4.6875 51.171875 
Q 5.609375 61.28125 11.65625 66.578125 
Q 17.71875 71.875 27.9375 71.875 
Q 38.234375 71.875 44.234375 66.15625 
Q 50.25 60.453125 50.25 52 
Q 50.25 47.703125 48.484375 43.546875 
Q 46.734375 39.40625 42.65625 34.8125 
Q 38.578125 30.21875 29.109375 22.21875 
Q 21.1875 15.578125 18.9375 13.203125 
Q 16.703125 10.84375 15.234375 8.453125 
z
" id="ArialMT-50"/>
     <path d="M 9.078125 0 
L 9.078125 10.015625 
L 19.09375 10.015625 
L 19.09375 0 
z
" id="ArialMT-46"/>
     <path d="M 4.15625 35.296875 
Q 4.15625 48 6.765625 55.734375 
Q 9.375 63.484375 14.515625 67.671875 
Q 19.671875 71.875 27.484375 71.875 
Q 33.25 71.875 37.59375 69.546875 
Q 41.9375 67.234375 44.765625 62.859375 
Q 47.609375 58.5 49.21875 52.21875 
Q 50.828125 45.953125 50.828125 35.296875 
Q 50.828125 22.703125 48.234375 14.96875 
Q 45.65625 7.234375 40.5 3 
Q 35.359375 -1.21875 27.484375 -1.21875 
Q 17.140625 -1.21875 11.234375 6.203125 
Q 4.15625 15.140625 4.15625 35.296875 
z
M 13.1875 35.296875 
Q 13.1875 17.671875 17.3125 11.828125 
Q 21.4375 6 27.484375 6 
Q 33.546875 6 37.671875 11.859375 
Q 41.796875 17.71875 41.796875 35.296875 
Q 41.796875 52.984375 37.671875 58.78125 
Q 33.546875 64.59375 27.390625 64.59375 
Q 21.34375 64.59375 17.71875 59.46875 
Q 13.1875 52.9375 13.1875 35.296875 
z
" id="ArialMT-48"/>
    </defs>
    <g style="fill:#262626;" transform="translate(190.475172 15.6)scale(0.12 -0.12)">
     <use xlink:href="#ArialMT-56"/>
     <use x="55.615234" xlink:href="#ArialMT-54"/>
     <use x="111.230469" xlink:href="#ArialMT-58"/>
     <use x="139.013672" xlink:href="#ArialMT-50"/>
     <use x="194.628906" xlink:href="#ArialMT-46"/>
     <use x="222.412109" xlink:href="#ArialMT-48"/>
    </g>
   </g>
  </g>
  <g id="axes_2">
   <g id="patch_16">
    <path d="M 308.172414 157.5 
L 452.482759 157.5 
L 452.482759 21.6 
L 308.172414 21.6 
z
" style="fill:#ffffff;"/>
   </g>
   <g id="patch_17">
    <path clip-path="url(#p3e9506da83)" d="M 369.432715 137.669099 
L 356.981435 137.669099 
" style="stroke:#000000;stroke-linejoin:miter;stroke-width:0.5;"/>
   </g>
   <g id="patch_18">
    <path clip-path="url(#p3e9506da83)" d="M 381.883996 137.669099 
L 369.432715 137.669099 
" style="stroke:#000000;stroke-linejoin:miter;stroke-width:0.5;"/>
   </g>
   <g id="patch_19">
    <path clip-path="url(#p3e9506da83)" d="M 394.335277 123.087554 
L 381.883996 137.669099 
" style="stroke:#000000;stroke-linejoin:miter;stroke-width:0.5;"/>
   </g>
   <g id="patch_20">
    <path clip-path="url(#p3e9506da83)" d="M 369.432715 108.506009 
L 356.981435 108.506009 
" style="stroke:#000000;stroke-linejoin:miter;stroke-width:0.5;"/>
   </g>
   <g id="patch_21">
    <path clip-path="url(#p3e9506da83)" d="M 381.883996 108.506009 
L 369.432715 108.506009 
" style="stroke:#000000;stroke-linejoin:miter;stroke-width:0.5;"/>
   </g>
   <g id="patch_22">
    <path clip-path="url(#p3e9506da83)" d="M 394.335277 123.087554 
L 381.883996 108.506009 
" style="stroke:#000000;stroke-linejoin:miter;stroke-width:0.5;"/>
   </g>
   <g id="patch_23">
    <path clip-path="url(#p3e9506da83)" d="M 406.786558 108.506009 
L 394.335277 123.087554 
" style="stroke:#000000;stroke-linejoin:miter;stroke-width:0.5;"/>
   </g>
   <g id="patch_24">
    <path clip-path="url(#p3e9506da83)" d="M 406.786558 108.506009 
L 394.335277 93.924464 
" style="stroke:#000000;stroke-linejoin:miter;stroke-width:0.5;"/>
   </g>
   <g id="patch_25">
    <path clip-path="url(#p3e9506da83)" d="M 419.237839 108.506009 
L 406.786558 108.506009 
" style="stroke:#000000;stroke-linejoin:miter;stroke-width:0.5;"/>
   </g>
   <g id="patch_26">
    <path clip-path="url(#p3e9506da83)" d="M 431.68912 108.506009 
L 419.237839 108.506009 
" style="stroke:#000000;stroke-linejoin:miter;stroke-width:0.5;"/>
   </g>
   <g id="d391a4b1ac784a01a52f53994c9c121b-1-node">
    <path clip-path="url(#p3e9506da83)" d="M 433.805837 103.548283 
L 433.805837 113.463734 
L 429.572402 113.463734 
L 429.572402 103.548283 
L 433.805837 103.548283 
z
" style="fill:#0000ff;stroke:#ffffff;stroke-linejoin:miter;stroke-width:0.5;"/>
   </g>
   <g id="d391a4b1ac784a01a52f53994c9c121b-3-node">
    <path clip-path="url(#p3e9506da83)" d="M 421.354557 103.548283 
L 421.354557 113.463734 
L 417.121121 113.463734 
L 417.121121 103.548283 
L 421.354557 103.548283 
z
" style="fill:#0000ff;stroke:#ffffff;stroke-linejoin:miter;stroke-width:0.5;"/>
   </g>
   <g id="d391a4b1ac784a01a52f53994c9c121b-5-node">
    <path clip-path="url(#p3e9506da83)" d="M 406.786558 113.463734 
C 407.347918 113.463734 407.886362 112.941357 408.283303 112.01165 
C 408.680245 111.081943 408.903276 109.820813 408.903276 108.506009 
C 408.903276 107.191204 408.680245 105.930074 408.283303 105.000367 
C 407.886362 104.07066 407.347918 103.548283 406.786558 103.548283 
C 406.225198 103.548283 405.686754 104.07066 405.289813 105.000367 
C 404.892871 105.930074 404.66984 107.191204 404.66984 108.506009 
C 404.66984 109.820813 404.892871 111.081943 405.289813 112.01165 
C 405.686754 112.941357 406.225198 113.463734 406.786558 113.463734 
z
" style="fill:#00c832;stroke:#ffffff;stroke-linejoin:miter;stroke-width:0.5;"/>
   </g>
   <g id="d391a4b1ac784a01a52f53994c9c121b-7-node">
    <path clip-path="url(#p3e9506da83)" d="M 394.335277 128.045279 
C 394.896637 128.045279 395.435081 127.522902 395.832023 126.593195 
C 396.228964 125.663488 396.451995 124.402358 396.451995 123.087554 
C 396.451995 121.77275 396.228964 120.511619 395.832023 119.581912 
C 395.435081 118.652206 394.896637 118.129828 394.335277 118.129828 
C 393.773917 118.129828 393.235473 118.652206 392.838532 119.581912 
C 392.44159 120.511619 392.218559 121.77275 392.218559 123.087554 
C 392.218559 124.402358 392.44159 125.663488 392.838532 126.593195 
C 393.235473 127.522902 393.773917 128.045279 394.335277 128.045279 
z
" style="fill:#00c832;stroke:#ffffff;stroke-linejoin:miter;stroke-width:0.5;"/>
   </g>
   <g id="d391a4b1ac784a01a52f53994c9c121b-13-node">
    <path clip-path="url(#p3e9506da83)" d="M 384.000714 132.711373 
L 384.000714 142.626824 
L 379.767279 142.626824 
L 379.767279 132.711373 
L 384.000714 132.711373 
z
" style="fill:#0000ff;stroke:#ffffff;stroke-linejoin:miter;stroke-width:0.5;"/>
   </g>
   <g id="d391a4b1ac784a01a52f53994c9c121b-15-node">
    <path clip-path="url(#p3e9506da83)" d="M 369.432715 142.626824 
C 369.994076 142.626824 370.532519 142.104447 370.929461 141.17474 
C 371.326402 140.245033 371.549433 138.983903 371.549433 137.669099 
C 371.549433 136.354295 371.326402 135.093164 370.929461 134.163458 
C 370.532519 133.233751 369.994076 132.711373 369.432715 132.711373 
C 368.871355 132.711373 368.332912 133.233751 367.93597 134.163458 
C 367.539028 135.093164 367.315998 136.354295 367.315998 137.669099 
C 367.315998 138.983903 367.539028 140.245033 367.93597 141.17474 
C 368.332912 142.104447 368.871355 142.626824 369.432715 142.626824 
z
" style="fill:#ffff00;stroke:#ffffff;stroke-linejoin:miter;stroke-width:0.5;"/>
   </g>
   <g id="d391a4b1ac784a01a52f53994c9c121b-16-node">
    <path clip-path="url(#p3e9506da83)" d="M 356.981435 132.711373 
L 354.864717 137.669099 
L 356.981435 142.626824 
L 359.098152 137.669099 
z
" style="fill:#c800c8;stroke:#ffffff;stroke-linejoin:miter;stroke-width:0.5;"/>
   </g>
   <g id="d391a4b1ac784a01a52f53994c9c121b-8-node">
    <path clip-path="url(#p3e9506da83)" d="M 384.000714 103.548283 
L 384.000714 113.463734 
L 379.767279 113.463734 
L 379.767279 103.548283 
L 384.000714 103.548283 
z
" style="fill:#0000ff;stroke:#ffffff;stroke-linejoin:miter;stroke-width:0.5;"/>
   </g>
   <g id="d391a4b1ac784a01a52f53994c9c121b-10-node">
    <path clip-path="url(#p3e9506da83)" d="M 369.432715 113.463734 
C 369.994076 113.463734 370.532519 112.941357 370.929461 112.01165 
C 371.326402 111.081943 371.549433 109.820813 371.549433 108.506009 
C 371.549433 107.191204 371.326402 105.930074 370.929461 105.000367 
C 370.532519 104.07066 369.994076 103.548283 369.432715 103.548283 
C 368.871355 103.548283 368.332912 104.07066 367.93597 105.000367 
C 367.539028 105.930074 367.315998 107.191204 367.315998 108.506009 
C 367.315998 109.820813 367.539028 111.081943 367.93597 112.01165 
C 368.332912 112.941357 368.871355 113.463734 369.432715 113.463734 
z
" style="fill:#ffff00;stroke:#ffffff;stroke-linejoin:miter;stroke-width:0.5;"/>
   </g>
   <g id="d391a4b1ac784a01a52f53994c9c121b-11-node">
    <path clip-path="url(#p3e9506da83)" d="M 356.981435 103.548283 
L 354.864717 108.506009 
L 356.981435 113.463734 
L 359.098152 108.506009 
z
" style="fill:#c800c8;stroke:#ffffff;stroke-linejoin:miter;stroke-width:0.5;"/>
   </g>
   <g id="d391a4b1ac784a01a52f53994c9c121b-6-node">
    <path clip-path="url(#p3e9506da83)" d="M 394.335277 98.882189 
C 394.896637 98.882189 395.435081 98.359812 395.832023 97.430105 
C 396.228964 96.500398 396.451995 95.239268 396.451995 93.924464 
C 396.451995 92.609659 396.228964 91.348529 395.832023 90.418822 
C 395.435081 89.489115 394.896637 88.966738 394.335277 88.966738 
C 393.773917 88.966738 393.235473 89.489115 392.838532 90.418822 
C 392.44159 91.348529 392.218559 92.609659 392.218559 93.924464 
C 392.218559 95.239268 392.44159 96.500398 392.838532 97.430105 
C 393.235473 98.359812 393.773917 98.882189 394.335277 98.882189 
z
" style="fill:#00c832;stroke:#ffffff;stroke-linejoin:miter;stroke-width:0.5;"/>
   </g>
   <g id="patch_27">
    <path d="M 308.172414 157.5 
L 308.172414 21.6 
" style="fill:none;stroke:#ffffff;stroke-linecap:square;stroke-linejoin:miter;stroke-width:1.25;"/>
   </g>
   <g id="patch_28">
    <path d="M 452.482759 157.5 
L 452.482759 21.6 
" style="fill:none;stroke:#ffffff;stroke-linecap:square;stroke-linejoin:miter;stroke-width:1.25;"/>
   </g>
   <g id="patch_29">
    <path d="M 308.172414 157.5 
L 452.482759 157.5 
" style="fill:none;stroke:#ffffff;stroke-linecap:square;stroke-linejoin:miter;stroke-width:1.25;"/>
   </g>
   <g id="patch_30">
    <path d="M 308.172414 21.6 
L 452.482759 21.6 
" style="fill:none;stroke:#ffffff;stroke-linecap:square;stroke-linejoin:miter;stroke-width:1.25;"/>
   </g>
   <g id="text_2">
    <!-- 153:1 -->
    <defs>
     <path d="M 37.25 0 
L 28.46875 0 
L 28.46875 56 
Q 25.296875 52.984375 20.140625 49.953125 
Q 14.984375 46.921875 10.890625 45.40625 
L 10.890625 53.90625 
Q 18.265625 57.375 23.78125 62.296875 
Q 29.296875 67.234375 31.59375 71.875 
L 37.25 71.875 
z
" id="ArialMT-49"/>
     <path d="M 4.15625 18.75 
L 13.375 19.53125 
Q 14.40625 12.796875 18.140625 9.390625 
Q 21.875 6 27.15625 6 
Q 33.5 6 37.890625 10.78125 
Q 42.28125 15.578125 42.28125 23.484375 
Q 42.28125 31 38.0625 35.34375 
Q 33.84375 39.703125 27 39.703125 
Q 22.75 39.703125 19.328125 37.765625 
Q 15.921875 35.84375 13.96875 32.765625 
L 5.71875 33.84375 
L 12.640625 70.609375 
L 48.25 70.609375 
L 48.25 62.203125 
L 19.671875 62.203125 
L 15.828125 42.96875 
Q 22.265625 47.46875 29.34375 47.46875 
Q 38.71875 47.46875 45.15625 40.96875 
Q 51.609375 34.46875 51.609375 24.265625 
Q 51.609375 14.546875 45.953125 7.46875 
Q 39.0625 -1.21875 27.15625 -1.21875 
Q 17.390625 -1.21875 11.203125 4.25 
Q 5.03125 9.71875 4.15625 18.75 
z
" id="ArialMT-53"/>
     <path d="M 4.203125 18.890625 
L 12.984375 20.0625 
Q 14.5 12.59375 18.140625 9.296875 
Q 21.78125 6 27 6 
Q 33.203125 6 37.46875 10.296875 
Q 41.75 14.59375 41.75 20.953125 
Q 41.75 27 37.796875 30.921875 
Q 33.84375 34.859375 27.734375 34.859375 
Q 25.25 34.859375 21.53125 33.890625 
L 22.515625 41.609375 
Q 23.390625 41.5 23.921875 41.5 
Q 29.546875 41.5 34.03125 44.421875 
Q 38.53125 47.359375 38.53125 53.46875 
Q 38.53125 58.296875 35.25 61.46875 
Q 31.984375 64.65625 26.8125 64.65625 
Q 21.6875 64.65625 18.265625 61.421875 
Q 14.84375 58.203125 13.875 51.765625 
L 5.078125 53.328125 
Q 6.6875 62.15625 12.390625 67.015625 
Q 18.109375 71.875 26.609375 71.875 
Q 32.46875 71.875 37.390625 69.359375 
Q 42.328125 66.84375 44.9375 62.5 
Q 47.5625 58.15625 47.5625 53.265625 
Q 47.5625 48.640625 45.0625 44.828125 
Q 42.578125 41.015625 37.703125 38.765625 
Q 44.046875 37.3125 47.5625 32.6875 
Q 51.078125 28.078125 51.078125 21.140625 
Q 51.078125 11.765625 44.234375 5.25 
Q 37.40625 -1.265625 26.953125 -1.265625 
Q 17.53125 -1.265625 11.296875 4.34375 
Q 5.078125 9.96875 4.203125 18.890625 
z
" id="ArialMT-51"/>
    </defs>
    <g style="fill:#262626;" transform="translate(365.314461 15.6)scale(0.12 -0.12)">
     <use xlink:href="#ArialMT-49"/>
     <use x="55.615234" xlink:href="#ArialMT-53"/>
     <use x="111.230469" xlink:href="#ArialMT-51"/>
     <use x="166.845703" xlink:href="#ArialMT-58"/>
     <use x="194.628906" xlink:href="#ArialMT-49"/>
    </g>
   </g>
  </g>
  <g id="axes_3">
   <g id="patch_31">
    <path d="M 481.344828 157.5 
L 625.655172 157.5 
L 625.655172 21.6 
L 481.344828 21.6 
z
" style="fill:#ffffff;"/>
   </g>
   <g id="patch_32">
    <path clip-path="url(#p2bdfedd763)" d="M 542.605129 137.669099 
L 530.153848 137.669099 
" style="stroke:#000000;stroke-linejoin:miter;stroke-width:0.5;"/>
   </g>
   <g id="patch_33">
    <path clip-path="url(#p2bdfedd763)" d="M 555.05641 137.669099 
L 542.605129 137.669099 
" style="stroke:#000000;stroke-linejoin:miter;stroke-width:0.5;"/>
   </g>
   <g id="patch_34">
    <path clip-path="url(#p2bdfedd763)" d="M 567.507691 123.087554 
L 555.05641 137.669099 
" style="stroke:#000000;stroke-linejoin:miter;stroke-width:0.5;"/>
   </g>
   <g id="patch_35">
    <path clip-path="url(#p2bdfedd763)" d="M 555.05641 108.506009 
L 542.605129 108.506009 
" style="stroke:#000000;stroke-linejoin:miter;stroke-width:0.5;"/>
   </g>
   <g id="patch_36">
    <path clip-path="url(#p2bdfedd763)" d="M 567.507691 123.087554 
L 555.05641 108.506009 
" style="stroke:#000000;stroke-linejoin:miter;stroke-width:0.5;"/>
   </g>
   <g id="patch_37">
    <path clip-path="url(#p2bdfedd763)" d="M 579.958972 108.506009 
L 567.507691 123.087554 
" style="stroke:#000000;stroke-linejoin:miter;stroke-width:0.5;"/>
   </g>
   <g id="patch_38">
    <path clip-path="url(#p2bdfedd763)" d="M 579.958972 108.506009 
L 567.507691 93.924464 
" style="stroke:#000000;stroke-linejoin:miter;stroke-width:0.5;"/>
   </g>
   <g id="patch_39">
    <path clip-path="url(#p2bdfedd763)" d="M 592.410253 108.506009 
L 579.958972 108.506009 
" style="stroke:#000000;stroke-linejoin:miter;stroke-width:0.5;"/>
   </g>
   <g id="patch_40">
    <path clip-path="url(#p2bdfedd763)" d="M 604.861533 108.506009 
L 592.410253 108.506009 
" style="stroke:#000000;stroke-linejoin:miter;stroke-width:0.5;"/>
   </g>
   <g id="patch_41">
    <path clip-path="url(#p2bdfedd763)" d="M 604.861533 108.506009 
L 604.861533 93.924464 
" style="stroke:#000000;stroke-linejoin:miter;stroke-width:0.5;"/>
   </g>
   <g id="88457c74764d481f86a3be326991d265-1-node">
    <path clip-path="url(#p2bdfedd763)" d="M 606.978251 103.548283 
L 606.978251 113.463734 
L 602.744816 113.463734 
L 602.744816 103.548283 
L 606.978251 103.548283 
z
" style="fill:#0000ff;stroke:#ffffff;stroke-linejoin:miter;stroke-width:0.5;"/>
   </g>
   <g id="88457c74764d481f86a3be326991d265-4-node">
    <path clip-path="url(#p2bdfedd763)" d="M 594.52697 103.548283 
L 594.52697 113.463734 
L 590.293535 113.463734 
L 590.293535 103.548283 
L 594.52697 103.548283 
z
" style="fill:#0000ff;stroke:#ffffff;stroke-linejoin:miter;stroke-width:0.5;"/>
   </g>
   <g id="88457c74764d481f86a3be326991d265-6-node">
    <path clip-path="url(#p2bdfedd763)" d="M 579.958972 113.463734 
C 580.520332 113.463734 581.058776 112.941357 581.455717 112.01165 
C 581.852659 111.081943 582.07569 109.820813 582.07569 108.506009 
C 582.07569 107.191204 581.852659 105.930074 581.455717 105.000367 
C 581.058776 104.07066 580.520332 103.548283 579.958972 103.548283 
C 579.397612 103.548283 578.859168 104.07066 578.462226 105.000367 
C 578.065285 105.930074 577.842254 107.191204 577.842254 108.506009 
C 577.842254 109.820813 578.065285 111.081943 578.462226 112.01165 
C 578.859168 112.941357 579.397612 113.463734 579.958972 113.463734 
z
" style="fill:#00c832;stroke:#ffffff;stroke-linejoin:miter;stroke-width:0.5;"/>
   </g>
   <g id="88457c74764d481f86a3be326991d265-8-node">
    <path clip-path="url(#p2bdfedd763)" d="M 567.507691 128.045279 
C 568.069051 128.045279 568.607495 127.522902 569.004436 126.593195 
C 569.401378 125.663488 569.624409 124.402358 569.624409 123.087554 
C 569.624409 121.77275 569.401378 120.511619 569.004436 119.581912 
C 568.607495 118.652206 568.069051 118.129828 567.507691 118.129828 
C 566.946331 118.129828 566.407887 118.652206 566.010945 119.581912 
C 565.614004 120.511619 565.390973 121.77275 565.390973 123.087554 
C 565.390973 124.402358 565.614004 125.663488 566.010945 126.593195 
C 566.407887 127.522902 566.946331 128.045279 567.507691 128.045279 
z
" style="fill:#00c832;stroke:#ffffff;stroke-linejoin:miter;stroke-width:0.5;"/>
   </g>
   <g id="88457c74764d481f86a3be326991d265-12-node">
    <path clip-path="url(#p2bdfedd763)" d="M 557.173128 132.711373 
L 557.173128 142.626824 
L 552.939692 142.626824 
L 552.939692 132.711373 
L 557.173128 132.711373 
z
" style="fill:#0000ff;stroke:#ffffff;stroke-linejoin:miter;stroke-width:0.5;"/>
   </g>
   <g id="88457c74764d481f86a3be326991d265-14-node">
    <path clip-path="url(#p2bdfedd763)" d="M 542.605129 142.626824 
C 543.166489 142.626824 543.704933 142.104447 544.101875 141.17474 
C 544.498816 140.245033 544.721847 138.983903 544.721847 137.669099 
C 544.721847 136.354295 544.498816 135.093164 544.101875 134.163458 
C 543.704933 133.233751 543.166489 132.711373 542.605129 132.711373 
C 542.043769 132.711373 541.505325 133.233751 541.108384 134.163458 
C 540.711442 135.093164 540.488412 136.354295 540.488412 137.669099 
C 540.488412 138.983903 540.711442 140.245033 541.108384 141.17474 
C 541.505325 142.104447 542.043769 142.626824 542.605129 142.626824 
z
" style="fill:#ffff00;stroke:#ffffff;stroke-linejoin:miter;stroke-width:0.5;"/>
   </g>
   <g id="88457c74764d481f86a3be326991d265-15-node">
    <path clip-path="url(#p2bdfedd763)" d="M 530.153848 132.711373 
L 528.037131 137.669099 
L 530.153848 142.626824 
L 532.270566 137.669099 
z
" style="fill:#c800c8;stroke:#ffffff;stroke-linejoin:miter;stroke-width:0.5;"/>
   </g>
   <g id="88457c74764d481f86a3be326991d265-9-node">
    <path clip-path="url(#p2bdfedd763)" d="M 557.173128 103.548283 
L 557.173128 113.463734 
L 552.939692 113.463734 
L 552.939692 103.548283 
L 557.173128 103.548283 
z
" style="fill:#0000ff;stroke:#ffffff;stroke-linejoin:miter;stroke-width:0.5;"/>
   </g>
   <g id="88457c74764d481f86a3be326991d265-11-node">
    <path clip-path="url(#p2bdfedd763)" d="M 542.605129 113.463734 
C 543.166489 113.463734 543.704933 112.941357 544.101875 112.01165 
C 544.498816 111.081943 544.721847 109.820813 544.721847 108.506009 
C 544.721847 107.191204 544.498816 105.930074 544.101875 105.000367 
C 543.704933 104.07066 543.166489 103.548283 542.605129 103.548283 
C 542.043769 103.548283 541.505325 104.07066 541.108384 105.000367 
C 540.711442 105.930074 540.488412 107.191204 540.488412 108.506009 
C 540.488412 109.820813 540.711442 111.081943 541.108384 112.01165 
C 541.505325 112.941357 542.043769 113.463734 542.605129 113.463734 
z
" style="fill:#ffff00;stroke:#ffffff;stroke-linejoin:miter;stroke-width:0.5;"/>
   </g>
   <g id="88457c74764d481f86a3be326991d265-7-node">
    <path clip-path="url(#p2bdfedd763)" d="M 567.507691 98.882189 
C 568.069051 98.882189 568.607495 98.359812 569.004436 97.430105 
C 569.401378 96.500398 569.624409 95.239268 569.624409 93.924464 
C 569.624409 92.609659 569.401378 91.348529 569.004436 90.418822 
C 568.607495 89.489115 568.069051 88.966738 567.507691 88.966738 
C 566.946331 88.966738 566.407887 89.489115 566.010945 90.418822 
C 565.614004 91.348529 565.390973 92.609659 565.390973 93.924464 
C 565.390973 95.239268 565.614004 96.500398 566.010945 97.430105 
C 566.407887 98.359812 566.946331 98.882189 567.507691 98.882189 
z
" style="fill:#00c832;stroke:#ffffff;stroke-linejoin:miter;stroke-width:0.5;"/>
   </g>
   <g id="88457c74764d481f86a3be326991d265-3-node">
    <path clip-path="url(#p2bdfedd763)" d="M 604.861533 88.966738 
L 603.028402 96.403326 
L 606.694665 96.403326 
z
" style="fill:#ff0000;stroke:#ffffff;stroke-linejoin:miter;stroke-width:0.5;"/>
   </g>
   <g id="patch_42">
    <path d="M 481.344828 157.5 
L 481.344828 21.6 
" style="fill:none;stroke:#ffffff;stroke-linecap:square;stroke-linejoin:miter;stroke-width:1.25;"/>
   </g>
   <g id="patch_43">
    <path d="M 625.655172 157.5 
L 625.655172 21.6 
" style="fill:none;stroke:#ffffff;stroke-linecap:square;stroke-linejoin:miter;stroke-width:1.25;"/>
   </g>
   <g id="patch_44">
    <path d="M 481.344828 157.5 
L 625.655172 157.5 
" style="fill:none;stroke:#ffffff;stroke-linecap:square;stroke-linejoin:miter;stroke-width:1.25;"/>
   </g>
   <g id="patch_45">
    <path d="M 481.344828 21.6 
L 625.655172 21.6 
" style="fill:none;stroke:#ffffff;stroke-linecap:square;stroke-linejoin:miter;stroke-width:1.25;"/>
   </g>
   <g id="text_3">
    <!-- 155:2.0 -->
    <g style="fill:#262626;" transform="translate(533.483438 15.6)scale(0.12 -0.12)">
     <use xlink:href="#ArialMT-49"/>
     <use x="55.615234" xlink:href="#ArialMT-53"/>
     <use x="111.230469" xlink:href="#ArialMT-53"/>
     <use x="166.845703" xlink:href="#ArialMT-58"/>
     <use x="194.628906" xlink:href="#ArialMT-50"/>
     <use x="250.244141" xlink:href="#ArialMT-46"/>
     <use x="278.027344" xlink:href="#ArialMT-48"/>
    </g>
   </g>
  </g>
  <g id="axes_4">
   <g id="patch_46">
    <path d="M 654.517241 157.5 
L 798.827586 157.5 
L 798.827586 21.6 
L 654.517241 21.6 
z
" style="fill:#ffffff;"/>
   </g>
   <g id="patch_47">
    <path clip-path="url(#p0692a84823)" d="M 715.777543 137.669099 
L 703.326262 137.669099 
" style="stroke:#000000;stroke-linejoin:miter;stroke-width:0.5;"/>
   </g>
   <g id="patch_48">
    <path clip-path="url(#p0692a84823)" d="M 728.228824 137.669099 
L 715.777543 137.669099 
" style="stroke:#000000;stroke-linejoin:miter;stroke-width:0.5;"/>
   </g>
   <g id="patch_49">
    <path clip-path="url(#p0692a84823)" d="M 740.680105 123.087554 
L 728.228824 137.669099 
" style="stroke:#000000;stroke-linejoin:miter;stroke-width:0.5;"/>
   </g>
   <g id="patch_50">
    <path clip-path="url(#p0692a84823)" d="M 715.777543 108.506009 
L 703.326262 108.506009 
" style="stroke:#000000;stroke-linejoin:miter;stroke-width:0.5;"/>
   </g>
   <g id="patch_51">
    <path clip-path="url(#p0692a84823)" d="M 728.228824 108.506009 
L 715.777543 108.506009 
" style="stroke:#000000;stroke-linejoin:miter;stroke-width:0.5;"/>
   </g>
   <g id="patch_52">
    <path clip-path="url(#p0692a84823)" d="M 740.680105 123.087554 
L 728.228824 108.506009 
" style="stroke:#000000;stroke-linejoin:miter;stroke-width:0.5;"/>
   </g>
   <g id="patch_53">
    <path clip-path="url(#p0692a84823)" d="M 753.131386 108.506009 
L 740.680105 123.087554 
" style="stroke:#000000;stroke-linejoin:miter;stroke-width:0.5;"/>
   </g>
   <g id="patch_54">
    <path clip-path="url(#p0692a84823)" d="M 753.131386 108.506009 
L 740.680105 93.924464 
" style="stroke:#000000;stroke-linejoin:miter;stroke-width:0.5;"/>
   </g>
   <g id="patch_55">
    <path clip-path="url(#p0692a84823)" d="M 765.582666 108.506009 
L 753.131386 108.506009 
" style="stroke:#000000;stroke-linejoin:miter;stroke-width:0.5;"/>
   </g>
   <g id="patch_56">
    <path clip-path="url(#p0692a84823)" d="M 778.033947 108.506009 
L 765.582666 108.506009 
" style="stroke:#000000;stroke-linejoin:miter;stroke-width:0.5;"/>
   </g>
   <g id="patch_57">
    <path clip-path="url(#p0692a84823)" d="M 778.033947 108.506009 
L 778.033947 93.924464 
" style="stroke:#000000;stroke-linejoin:miter;stroke-width:0.5;"/>
   </g>
   <g id="2684fae3ea8743139eaad991216f81a9-1-node">
    <path clip-path="url(#p0692a84823)" d="M 780.150665 103.548283 
L 780.150665 113.463734 
L 775.917229 113.463734 
L 775.917229 103.548283 
L 780.150665 103.548283 
z
" style="fill:#0000ff;stroke:#ffffff;stroke-linejoin:miter;stroke-width:0.5;"/>
   </g>
   <g id="2684fae3ea8743139eaad991216f81a9-4-node">
    <path clip-path="url(#p0692a84823)" d="M 767.699384 103.548283 
L 767.699384 113.463734 
L 763.465949 113.463734 
L 763.465949 103.548283 
L 767.699384 103.548283 
z
" style="fill:#0000ff;stroke:#ffffff;stroke-linejoin:miter;stroke-width:0.5;"/>
   </g>
   <g id="2684fae3ea8743139eaad991216f81a9-6-node">
    <path clip-path="url(#p0692a84823)" d="M 753.131386 113.463734 
C 753.692746 113.463734 754.231189 112.941357 754.628131 112.01165 
C 755.025073 111.081943 755.248103 109.820813 755.248103 108.506009 
C 755.248103 107.191204 755.025073 105.930074 754.628131 105.000367 
C 754.231189 104.07066 753.692746 103.548283 753.131386 103.548283 
C 752.570025 103.548283 752.031582 104.07066 751.63464 105.000367 
C 751.237699 105.930074 751.014668 107.191204 751.014668 108.506009 
C 751.014668 109.820813 751.237699 111.081943 751.63464 112.01165 
C 752.031582 112.941357 752.570025 113.463734 753.131386 113.463734 
z
" style="fill:#00c832;stroke:#ffffff;stroke-linejoin:miter;stroke-width:0.5;"/>
   </g>
   <g id="2684fae3ea8743139eaad991216f81a9-8-node">
    <path clip-path="url(#p0692a84823)" d="M 740.680105 128.045279 
C 741.241465 128.045279 741.779909 127.522902 742.17685 126.593195 
C 742.573792 125.663488 742.796822 124.402358 742.796822 123.087554 
C 742.796822 121.77275 742.573792 120.511619 742.17685 119.581912 
C 741.779909 118.652206 741.241465 118.129828 740.680105 118.129828 
C 740.118745 118.129828 739.580301 118.652206 739.183359 119.581912 
C 738.786418 120.511619 738.563387 121.77275 738.563387 123.087554 
C 738.563387 124.402358 738.786418 125.663488 739.183359 126.593195 
C 739.580301 127.522902 740.118745 128.045279 740.680105 128.045279 
z
" style="fill:#00c832;stroke:#ffffff;stroke-linejoin:miter;stroke-width:0.5;"/>
   </g>
   <g id="2684fae3ea8743139eaad991216f81a9-14-node">
    <path clip-path="url(#p0692a84823)" d="M 730.345542 132.711373 
L 730.345542 142.626824 
L 726.112106 142.626824 
L 726.112106 132.711373 
L 730.345542 132.711373 
z
" style="fill:#0000ff;stroke:#ffffff;stroke-linejoin:miter;stroke-width:0.5;"/>
   </g>
   <g id="2684fae3ea8743139eaad991216f81a9-16-node">
    <path clip-path="url(#p0692a84823)" d="M 715.777543 142.626824 
C 716.338903 142.626824 716.877347 142.104447 717.274289 141.17474 
C 717.67123 140.245033 717.894261 138.983903 717.894261 137.669099 
C 717.894261 136.354295 717.67123 135.093164 717.274289 134.163458 
C 716.877347 133.233751 716.338903 132.711373 715.777543 132.711373 
C 715.216183 132.711373 714.677739 133.233751 714.280798 134.163458 
C 713.883856 135.093164 713.660825 136.354295 713.660825 137.669099 
C 713.660825 138.983903 713.883856 140.245033 714.280798 141.17474 
C 714.677739 142.104447 715.216183 142.626824 715.777543 142.626824 
z
" style="fill:#ffff00;stroke:#ffffff;stroke-linejoin:miter;stroke-width:0.5;"/>
   </g>
   <g id="2684fae3ea8743139eaad991216f81a9-17-node">
    <path clip-path="url(#p0692a84823)" d="M 703.326262 132.711373 
L 701.209544 137.669099 
L 703.326262 142.626824 
L 705.44298 137.669099 
z
" style="fill:#c800c8;stroke:#ffffff;stroke-linejoin:miter;stroke-width:0.5;"/>
   </g>
   <g id="2684fae3ea8743139eaad991216f81a9-9-node">
    <path clip-path="url(#p0692a84823)" d="M 730.345542 103.548283 
L 730.345542 113.463734 
L 726.112106 113.463734 
L 726.112106 103.548283 
L 730.345542 103.548283 
z
" style="fill:#0000ff;stroke:#ffffff;stroke-linejoin:miter;stroke-width:0.5;"/>
   </g>
   <g id="2684fae3ea8743139eaad991216f81a9-11-node">
    <path clip-path="url(#p0692a84823)" d="M 715.777543 113.463734 
C 716.338903 113.463734 716.877347 112.941357 717.274289 112.01165 
C 717.67123 111.081943 717.894261 109.820813 717.894261 108.506009 
C 717.894261 107.191204 717.67123 105.930074 717.274289 105.000367 
C 716.877347 104.07066 716.338903 103.548283 715.777543 103.548283 
C 715.216183 103.548283 714.677739 104.07066 714.280798 105.000367 
C 713.883856 105.930074 713.660825 107.191204 713.660825 108.506009 
C 713.660825 109.820813 713.883856 111.081943 714.280798 112.01165 
C 714.677739 112.941357 715.216183 113.463734 715.777543 113.463734 
z
" style="fill:#ffff00;stroke:#ffffff;stroke-linejoin:miter;stroke-width:0.5;"/>
   </g>
   <g id="2684fae3ea8743139eaad991216f81a9-12-node">
    <path clip-path="url(#p0692a84823)" d="M 703.326262 103.548283 
L 701.209544 108.506009 
L 703.326262 113.463734 
L 705.44298 108.506009 
z
" style="fill:#c800c8;stroke:#ffffff;stroke-linejoin:miter;stroke-width:0.5;"/>
   </g>
   <g id="2684fae3ea8743139eaad991216f81a9-7-node">
    <path clip-path="url(#p0692a84823)" d="M 740.680105 98.882189 
C 741.241465 98.882189 741.779909 98.359812 742.17685 97.430105 
C 742.573792 96.500398 742.796822 95.239268 742.796822 93.924464 
C 742.796822 92.609659 742.573792 91.348529 742.17685 90.418822 
C 741.779909 89.489115 741.241465 88.966738 740.680105 88.966738 
C 740.118745 88.966738 739.580301 89.489115 739.183359 90.418822 
C 738.786418 91.348529 738.563387 92.609659 738.563387 93.924464 
C 738.563387 95.239268 738.786418 96.500398 739.183359 97.430105 
C 739.580301 98.359812 740.118745 98.882189 740.680105 98.882189 
z
" style="fill:#00c832;stroke:#ffffff;stroke-linejoin:miter;stroke-width:0.5;"/>
   </g>
   <g id="2684fae3ea8743139eaad991216f81a9-3-node">
    <path clip-path="url(#p0692a84823)" d="M 778.033947 88.966738 
L 776.200816 96.403326 
L 779.867079 96.403326 
z
" style="fill:#ff0000;stroke:#ffffff;stroke-linejoin:miter;stroke-width:0.5;"/>
   </g>
   <g id="patch_58">
    <path d="M 654.517241 157.5 
L 654.517241 21.6 
" style="fill:none;stroke:#ffffff;stroke-linecap:square;stroke-linejoin:miter;stroke-width:1.25;"/>
   </g>
   <g id="patch_59">
    <path d="M 798.827586 157.5 
L 798.827586 21.6 
" style="fill:none;stroke:#ffffff;stroke-linecap:square;stroke-linejoin:miter;stroke-width:1.25;"/>
   </g>
   <g id="patch_60">
    <path d="M 654.517241 157.5 
L 798.827586 157.5 
" style="fill:none;stroke:#ffffff;stroke-linecap:square;stroke-linejoin:miter;stroke-width:1.25;"/>
   </g>
   <g id="patch_61">
    <path d="M 654.517241 21.6 
L 798.827586 21.6 
" style="fill:none;stroke:#ffffff;stroke-linecap:square;stroke-linejoin:miter;stroke-width:1.25;"/>
   </g>
   <g id="text_4">
    <!-- 257:1 -->
    <defs>
     <path d="M 4.734375 62.203125 
L 4.734375 70.65625 
L 51.078125 70.65625 
L 51.078125 63.8125 
Q 44.234375 56.546875 37.515625 44.484375 
Q 30.8125 32.421875 27.15625 19.671875 
Q 24.515625 10.6875 23.78125 0 
L 14.75 0 
Q 14.890625 8.453125 18.0625 20.40625 
Q 21.234375 32.375 27.171875 43.484375 
Q 33.109375 54.59375 39.796875 62.203125 
z
" id="ArialMT-55"/>
    </defs>
    <g style="fill:#262626;" transform="translate(711.659289 15.6)scale(0.12 -0.12)">
     <use xlink:href="#ArialMT-50"/>
     <use x="55.615234" xlink:href="#ArialMT-53"/>
     <use x="111.230469" xlink:href="#ArialMT-55"/>
     <use x="166.845703" xlink:href="#ArialMT-58"/>
     <use x="194.628906" xlink:href="#ArialMT-49"/>
    </g>
   </g>
  </g>
  <g id="axes_5">
   <g id="patch_62">
    <path d="M 827.689655 157.5 
L 972 157.5 
L 972 21.6 
L 827.689655 21.6 
z
" style="fill:#eaeaf2;"/>
   </g>
   <g id="matplotlib.axis_1">
    <g id="xtick_1">
     <g id="line2d_1">
      <path clip-path="url(#p4e47eab484)" d="M 827.689655 157.5 
L 827.689655 21.6 
" style="fill:none;stroke:#ffffff;stroke-linecap:round;"/>
     </g>
     <g id="text_5">
      <!-- 0.00 -->
      <g style="fill:#262626;" transform="translate(816.98614 174.873594)scale(0.11 -0.11)">
       <use xlink:href="#ArialMT-48"/>
       <use x="55.615234" xlink:href="#ArialMT-46"/>
       <use x="83.398438" xlink:href="#ArialMT-48"/>
       <use x="139.013672" xlink:href="#ArialMT-48"/>
      </g>
     </g>
    </g>
    <g id="xtick_2">
     <g id="line2d_2">
      <path clip-path="url(#p4e47eab484)" d="M 863.767241 157.5 
L 863.767241 21.6 
" style="fill:none;stroke:#ffffff;stroke-linecap:round;"/>
     </g>
     <g id="text_6">
      <!-- 0.25 -->
      <g style="fill:#262626;" transform="translate(853.063726 174.873594)scale(0.11 -0.11)">
       <use xlink:href="#ArialMT-48"/>
       <use x="55.615234" xlink:href="#ArialMT-46"/>
       <use x="83.398438" xlink:href="#ArialMT-50"/>
       <use x="139.013672" xlink:href="#ArialMT-53"/>
      </g>
     </g>
    </g>
    <g id="xtick_3">
     <g id="line2d_3">
      <path clip-path="url(#p4e47eab484)" d="M 899.844828 157.5 
L 899.844828 21.6 
" style="fill:none;stroke:#ffffff;stroke-linecap:round;"/>
     </g>
     <g id="text_7">
      <!-- 0.50 -->
      <g style="fill:#262626;" transform="translate(889.141312 174.873594)scale(0.11 -0.11)">
       <use xlink:href="#ArialMT-48"/>
       <use x="55.615234" xlink:href="#ArialMT-46"/>
       <use x="83.398438" xlink:href="#ArialMT-53"/>
       <use x="139.013672" xlink:href="#ArialMT-48"/>
      </g>
     </g>
    </g>
    <g id="xtick_4">
     <g id="line2d_4">
      <path clip-path="url(#p4e47eab484)" d="M 935.922414 157.5 
L 935.922414 21.6 
" style="fill:none;stroke:#ffffff;stroke-linecap:round;"/>
     </g>
     <g id="text_8">
      <!-- 0.75 -->
      <g style="fill:#262626;" transform="translate(925.218898 174.873594)scale(0.11 -0.11)">
       <use xlink:href="#ArialMT-48"/>
       <use x="55.615234" xlink:href="#ArialMT-46"/>
       <use x="83.398438" xlink:href="#ArialMT-55"/>
       <use x="139.013672" xlink:href="#ArialMT-53"/>
      </g>
     </g>
    </g>
    <g id="xtick_5">
     <g id="line2d_5">
      <path clip-path="url(#p4e47eab484)" d="M 972 157.5 
L 972 21.6 
" style="fill:none;stroke:#ffffff;stroke-linecap:round;"/>
     </g>
     <g id="text_9">
      <!-- 1.00 -->
      <g style="fill:#262626;" transform="translate(961.296484 174.873594)scale(0.11 -0.11)">
       <use xlink:href="#ArialMT-49"/>
       <use x="55.615234" xlink:href="#ArialMT-46"/>
       <use x="83.398438" xlink:href="#ArialMT-48"/>
       <use x="139.013672" xlink:href="#ArialMT-48"/>
      </g>
     </g>
    </g>
   </g>
   <g id="matplotlib.axis_2">
    <g id="ytick_1">
     <g id="line2d_6">
      <path clip-path="url(#p4e47eab484)" d="M 827.689655 157.5 
L 972 157.5 
" style="fill:none;stroke:#ffffff;stroke-linecap:round;"/>
     </g>
     <g id="text_10">
      <!-- 0.0 -->
      <g style="fill:#262626;" transform="translate(802.899655 161.436797)scale(0.11 -0.11)">
       <use xlink:href="#ArialMT-48"/>
       <use x="55.615234" xlink:href="#ArialMT-46"/>
       <use x="83.398438" xlink:href="#ArialMT-48"/>
      </g>
     </g>
    </g>
    <g id="ytick_2">
     <g id="line2d_7">
      <path clip-path="url(#p4e47eab484)" d="M 827.689655 130.32 
L 972 130.32 
" style="fill:none;stroke:#ffffff;stroke-linecap:round;"/>
     </g>
     <g id="text_11">
      <!-- 0.2 -->
      <g style="fill:#262626;" transform="translate(802.899655 134.256797)scale(0.11 -0.11)">
       <use xlink:href="#ArialMT-48"/>
       <use x="55.615234" xlink:href="#ArialMT-46"/>
       <use x="83.398438" xlink:href="#ArialMT-50"/>
      </g>
     </g>
    </g>
    <g id="ytick_3">
     <g id="line2d_8">
      <path clip-path="url(#p4e47eab484)" d="M 827.689655 103.14 
L 972 103.14 
" style="fill:none;stroke:#ffffff;stroke-linecap:round;"/>
     </g>
     <g id="text_12">
      <!-- 0.4 -->
      <defs>
       <path d="M 32.328125 0 
L 32.328125 17.140625 
L 1.265625 17.140625 
L 1.265625 25.203125 
L 33.9375 71.578125 
L 41.109375 71.578125 
L 41.109375 25.203125 
L 50.78125 25.203125 
L 50.78125 17.140625 
L 41.109375 17.140625 
L 41.109375 0 
z
M 32.328125 25.203125 
L 32.328125 57.46875 
L 9.90625 25.203125 
z
" id="ArialMT-52"/>
      </defs>
      <g style="fill:#262626;" transform="translate(802.899655 107.076797)scale(0.11 -0.11)">
       <use xlink:href="#ArialMT-48"/>
       <use x="55.615234" xlink:href="#ArialMT-46"/>
       <use x="83.398438" xlink:href="#ArialMT-52"/>
      </g>
     </g>
    </g>
    <g id="ytick_4">
     <g id="line2d_9">
      <path clip-path="url(#p4e47eab484)" d="M 827.689655 75.96 
L 972 75.96 
" style="fill:none;stroke:#ffffff;stroke-linecap:round;"/>
     </g>
     <g id="text_13">
      <!-- 0.6 -->
      <g style="fill:#262626;" transform="translate(802.899655 79.896797)scale(0.11 -0.11)">
       <use xlink:href="#ArialMT-48"/>
       <use x="55.615234" xlink:href="#ArialMT-46"/>
       <use x="83.398438" xlink:href="#ArialMT-54"/>
      </g>
     </g>
    </g>
    <g id="ytick_5">
     <g id="line2d_10">
      <path clip-path="url(#p4e47eab484)" d="M 827.689655 48.78 
L 972 48.78 
" style="fill:none;stroke:#ffffff;stroke-linecap:round;"/>
     </g>
     <g id="text_14">
      <!-- 0.8 -->
      <g style="fill:#262626;" transform="translate(802.899655 52.716797)scale(0.11 -0.11)">
       <use xlink:href="#ArialMT-48"/>
       <use x="55.615234" xlink:href="#ArialMT-46"/>
       <use x="83.398438" xlink:href="#ArialMT-56"/>
      </g>
     </g>
    </g>
    <g id="ytick_6">
     <g id="line2d_11">
      <path clip-path="url(#p4e47eab484)" d="M 827.689655 21.6 
L 972 21.6 
" style="fill:none;stroke:#ffffff;stroke-linecap:round;"/>
     </g>
     <g id="text_15">
      <!-- 1.0 -->
      <g style="fill:#262626;" transform="translate(802.899655 25.536797)scale(0.11 -0.11)">
       <use xlink:href="#ArialMT-49"/>
       <use x="55.615234" xlink:href="#ArialMT-46"/>
       <use x="83.398438" xlink:href="#ArialMT-48"/>
      </g>
     </g>
    </g>
   </g>
   <g id="patch_63">
    <path d="M 827.689655 157.5 
L 827.689655 21.6 
" style="fill:none;stroke:#ffffff;stroke-linecap:square;stroke-linejoin:miter;stroke-width:1.25;"/>
   </g>
   <g id="patch_64">
    <path d="M 972 157.5 
L 972 21.6 
" style="fill:none;stroke:#ffffff;stroke-linecap:square;stroke-linejoin:miter;stroke-width:1.25;"/>
   </g>
   <g id="patch_65">
    <path d="M 827.689655 157.5 
L 972 157.5 
" style="fill:none;stroke:#ffffff;stroke-linecap:square;stroke-linejoin:miter;stroke-width:1.25;"/>
   </g>
   <g id="patch_66">
    <path d="M 827.689655 21.6 
L 972 21.6 
" style="fill:none;stroke:#ffffff;stroke-linecap:square;stroke-linejoin:miter;stroke-width:1.25;"/>
   </g>
   <g id="text_16">
    <!-- 23 -->
    <g style="fill:#262626;" transform="translate(893.171703 15.6)scale(0.12 -0.12)">
     <use xlink:href="#ArialMT-50"/>
     <use x="55.615234" xlink:href="#ArialMT-51"/>
    </g>
   </g>
  </g>
 </g>
 <defs>
  <clipPath id="p9750923169">
   <rect height="135.9" width="144.310345" x="135" y="21.6"/>
  </clipPath>
  <clipPath id="p3e9506da83">
   <rect height="135.9" width="144.310345" x="308.172414" y="21.6"/>
  </clipPath>
  <clipPath id="p2bdfedd763">
   <rect height="135.9" width="144.310345" x="481.344828" y="21.6"/>
  </clipPath>
  <clipPath id="p0692a84823">
   <rect height="135.9" width="144.310345" x="654.517241" y="21.6"/>
  </clipPath>
  <clipPath id="p4e47eab484">
   <rect height="135.9" width="144.310345" x="827.689655" y="21.6"/>
  </clipPath>
 </defs>
</svg>
