<?xml version="1.0" encoding="utf-8" standalone="no"?>
<!DOCTYPE svg PUBLIC "-//W3C//DTD SVG 1.1//EN"
  "http://www.w3.org/Graphics/SVG/1.1/DTD/svg11.dtd">
<!-- Created with matplotlib (https://matplotlib.org/) -->
<svg height="360pt" version="1.1" viewBox="0 0 1080 360" width="1080pt" xmlns="http://www.w3.org/2000/svg" xmlns:xlink="http://www.w3.org/1999/xlink">
 <defs>
  <style type="text/css">
*{stroke-linecap:butt;stroke-linejoin:round;}
  </style>
 </defs>
 <g id="figure_1">
  <g id="patch_1">
   <path d="M 0 360 
L 1080 360 
L 1080 0 
L 0 0 
z
" style="fill:#ffffff;"/>
  </g>
  <g id="axes_1">
   <g id="patch_2">
    <path d="M 135 166.745455 
L 279.310345 166.745455 
L 279.310345 43.2 
L 135 43.2 
z
" style="fill:#ffffff;"/>
   </g>
   <g id="patch_3">
    <path clip-path="url(#pd51b5ad77b)" d="M 220.352785 145.742727 
L 208.018568 145.742727 
" style="stroke:#000000;stroke-linejoin:miter;stroke-width:0.5;"/>
   </g>
   <g id="patch_4">
    <path clip-path="url(#pd51b5ad77b)" d="M 232.687003 130.299545 
L 220.352785 145.742727 
" style="stroke:#000000;stroke-linejoin:miter;stroke-width:0.5;"/>
   </g>
   <g id="patch_5">
    <path clip-path="url(#pd51b5ad77b)" d="M 195.68435 114.856364 
L 183.350133 114.856364 
" style="stroke:#000000;stroke-linejoin:miter;stroke-width:0.5;"/>
   </g>
   <g id="patch_6">
    <path clip-path="url(#pd51b5ad77b)" d="M 208.018568 114.856364 
L 195.68435 114.856364 
" style="stroke:#000000;stroke-linejoin:miter;stroke-width:0.5;"/>
   </g>
   <g id="patch_7">
    <path clip-path="url(#pd51b5ad77b)" d="M 220.352785 114.856364 
L 208.018568 114.856364 
" style="stroke:#000000;stroke-linejoin:miter;stroke-width:0.5;"/>
   </g>
   <g id="patch_8">
    <path clip-path="url(#pd51b5ad77b)" d="M 232.687003 130.299545 
L 220.352785 114.856364 
" style="stroke:#000000;stroke-linejoin:miter;stroke-width:0.5;"/>
   </g>
   <g id="patch_9">
    <path clip-path="url(#pd51b5ad77b)" d="M 245.02122 130.299545 
L 232.687003 130.299545 
" style="stroke:#000000;stroke-linejoin:miter;stroke-width:0.5;"/>
   </g>
   <g id="patch_10">
    <path clip-path="url(#pd51b5ad77b)" d="M 257.355438 130.299545 
L 245.02122 130.299545 
" style="stroke:#000000;stroke-linejoin:miter;stroke-width:0.5;"/>
   </g>
   <g id="40bc8178f07d45658baa1f943af05549-1-node">
    <path clip-path="url(#pd51b5ad77b)" d="M 259.452255 125.048864 
L 259.452255 135.550227 
L 255.258621 135.550227 
L 255.258621 125.048864 
L 259.452255 125.048864 
z
" style="fill:#0000ff;stroke:#ffffff;stroke-linejoin:miter;stroke-width:0.5;"/>
   </g>
   <g id="40bc8178f07d45658baa1f943af05549-3-node">
    <path clip-path="url(#pd51b5ad77b)" d="M 247.118037 125.048864 
L 247.118037 135.550227 
L 242.924403 135.550227 
L 242.924403 125.048864 
L 247.118037 125.048864 
z
" style="fill:#0000ff;stroke:#ffffff;stroke-linejoin:miter;stroke-width:0.5;"/>
   </g>
   <g id="40bc8178f07d45658baa1f943af05549-5-node">
    <path clip-path="url(#pd51b5ad77b)" d="M 232.687003 135.550227 
C 233.243085 135.550227 233.776467 134.996982 234.169676 134.012338 
C 234.562886 133.027694 234.78382 131.692043 234.78382 130.299545 
C 234.78382 128.907048 234.562886 127.571397 234.169676 126.586753 
C 233.776467 125.602109 233.243085 125.048864 232.687003 125.048864 
C 232.13092 125.048864 231.597539 125.602109 231.204329 126.586753 
C 230.81112 127.571397 230.590186 128.907048 230.590186 130.299545 
C 230.590186 131.692043 230.81112 133.027694 231.204329 134.012338 
C 231.597539 134.996982 232.13092 135.550227 232.687003 135.550227 
z
" style="fill:#00c832;stroke:#ffffff;stroke-linejoin:miter;stroke-width:0.5;"/>
   </g>
   <g id="40bc8178f07d45658baa1f943af05549-12-node">
    <path clip-path="url(#pd51b5ad77b)" d="M 220.352785 150.993409 
C 220.908868 150.993409 221.442249 150.440164 221.835459 149.45552 
C 222.228668 148.470876 222.449602 147.135224 222.449602 145.742727 
C 222.449602 144.35023 222.228668 143.014579 221.835459 142.029935 
C 221.442249 141.04529 220.908868 140.492045 220.352785 140.492045 
C 219.796703 140.492045 219.263321 141.04529 218.870112 142.029935 
C 218.476902 143.014579 218.255968 144.35023 218.255968 145.742727 
C 218.255968 147.135224 218.476902 148.470876 218.870112 149.45552 
C 219.263321 150.440164 219.796703 150.993409 220.352785 150.993409 
z
" style="fill:#00c832;stroke:#ffffff;stroke-linejoin:miter;stroke-width:0.5;"/>
   </g>
   <g id="40bc8178f07d45658baa1f943af05549-13-node">
    <path clip-path="url(#pd51b5ad77b)" d="M 210.115385 140.492045 
L 210.115385 150.993409 
L 205.921751 150.993409 
L 205.921751 140.492045 
L 210.115385 140.492045 
z
" style="fill:#0000ff;stroke:#ffffff;stroke-linejoin:miter;stroke-width:0.5;"/>
   </g>
   <g id="40bc8178f07d45658baa1f943af05549-6-node">
    <path clip-path="url(#pd51b5ad77b)" d="M 220.352785 120.107045 
C 220.908868 120.107045 221.442249 119.5538 221.835459 118.569156 
C 222.228668 117.584512 222.449602 116.248861 222.449602 114.856364 
C 222.449602 113.463867 222.228668 112.128215 221.835459 111.143571 
C 221.442249 110.158927 220.908868 109.605682 220.352785 109.605682 
C 219.796703 109.605682 219.263321 110.158927 218.870112 111.143571 
C 218.476902 112.128215 218.255968 113.463867 218.255968 114.856364 
C 218.255968 116.248861 218.476902 117.584512 218.870112 118.569156 
C 219.263321 119.5538 219.796703 120.107045 220.352785 120.107045 
z
" style="fill:#00c832;stroke:#ffffff;stroke-linejoin:miter;stroke-width:0.5;"/>
   </g>
   <g id="40bc8178f07d45658baa1f943af05549-7-node">
    <path clip-path="url(#pd51b5ad77b)" d="M 210.115385 109.605682 
L 210.115385 120.107045 
L 205.921751 120.107045 
L 205.921751 109.605682 
L 210.115385 109.605682 
z
" style="fill:#0000ff;stroke:#ffffff;stroke-linejoin:miter;stroke-width:0.5;"/>
   </g>
   <g id="40bc8178f07d45658baa1f943af05549-9-node">
    <path clip-path="url(#pd51b5ad77b)" d="M 195.68435 120.107045 
C 196.240432 120.107045 196.773814 119.5538 197.167024 118.569156 
C 197.560233 117.584512 197.781167 116.248861 197.781167 114.856364 
C 197.781167 113.463867 197.560233 112.128215 197.167024 111.143571 
C 196.773814 110.158927 196.240432 109.605682 195.68435 109.605682 
C 195.128268 109.605682 194.594886 110.158927 194.201677 111.143571 
C 193.808467 112.128215 193.587533 113.463867 193.587533 114.856364 
C 193.587533 116.248861 193.808467 117.584512 194.201677 118.569156 
C 194.594886 119.5538 195.128268 120.107045 195.68435 120.107045 
z
" style="fill:#ffff00;stroke:#ffffff;stroke-linejoin:miter;stroke-width:0.5;"/>
   </g>
   <g id="40bc8178f07d45658baa1f943af05549-10-node">
    <path clip-path="url(#pd51b5ad77b)" d="M 183.350133 109.605682 
L 181.253316 114.856364 
L 183.350133 120.107045 
L 185.44695 114.856364 
z
" style="fill:#c800c8;stroke:#ffffff;stroke-linejoin:miter;stroke-width:0.5;"/>
   </g>
   <g id="patch_11">
    <path d="M 135 166.745455 
L 135 43.2 
" style="fill:none;stroke:#ffffff;stroke-linecap:square;stroke-linejoin:miter;stroke-width:1.25;"/>
   </g>
   <g id="patch_12">
    <path d="M 279.310345 166.745455 
L 279.310345 43.2 
" style="fill:none;stroke:#ffffff;stroke-linecap:square;stroke-linejoin:miter;stroke-width:1.25;"/>
   </g>
   <g id="patch_13">
    <path d="M 135 166.745455 
L 279.310345 166.745455 
" style="fill:none;stroke:#ffffff;stroke-linecap:square;stroke-linejoin:miter;stroke-width:1.25;"/>
   </g>
   <g id="patch_14">
    <path d="M 135 43.2 
L 279.310345 43.2 
" style="fill:none;stroke:#ffffff;stroke-linecap:square;stroke-linejoin:miter;stroke-width:1.25;"/>
   </g>
   <g id="text_1">
    <!-- 44:1 -->
    <defs>
     <path d="M 32.328125 0 
L 32.328125 17.140625 
L 1.265625 17.140625 
L 1.265625 25.203125 
L 33.9375 71.578125 
L 41.109375 71.578125 
L 41.109375 25.203125 
L 50.78125 25.203125 
L 50.78125 17.140625 
L 41.109375 17.140625 
L 41.109375 0 
z
M 32.328125 25.203125 
L 32.328125 57.46875 
L 9.90625 25.203125 
z
" id="ArialMT-52"/>
     <path d="M 9.03125 41.84375 
L 9.03125 51.859375 
L 19.046875 51.859375 
L 19.046875 41.84375 
z
M 9.03125 0 
L 9.03125 10.015625 
L 19.046875 10.015625 
L 19.046875 0 
z
" id="ArialMT-58"/>
     <path d="M 37.25 0 
L 28.46875 0 
L 28.46875 56 
Q 25.296875 52.984375 20.140625 49.953125 
Q 14.984375 46.921875 10.890625 45.40625 
L 10.890625 53.90625 
Q 18.265625 57.375 23.78125 62.296875 
Q 29.296875 67.234375 31.59375 71.875 
L 37.25 71.875 
z
" id="ArialMT-49"/>
    </defs>
    <g style="fill:#262626;" transform="translate(195.47861 37.2)scale(0.12 -0.12)">
     <use xlink:href="#ArialMT-52"/>
     <use x="55.615234" xlink:href="#ArialMT-52"/>
     <use x="111.230469" xlink:href="#ArialMT-58"/>
     <use x="139.013672" xlink:href="#ArialMT-49"/>
    </g>
   </g>
  </g>
  <g id="axes_2">
   <g id="patch_15">
    <path d="M 308.172414 166.745455 
L 452.482759 166.745455 
L 452.482759 43.2 
L 308.172414 43.2 
z
" style="fill:#ffffff;"/>
   </g>
   <g id="patch_16">
    <path clip-path="url(#p28e3cef8bf)" d="M 393.525199 145.742727 
L 381.190981 145.742727 
" style="stroke:#000000;stroke-linejoin:miter;stroke-width:0.5;"/>
   </g>
   <g id="patch_17">
    <path clip-path="url(#p28e3cef8bf)" d="M 405.859416 130.299545 
L 393.525199 145.742727 
" style="stroke:#000000;stroke-linejoin:miter;stroke-width:0.5;"/>
   </g>
   <g id="patch_18">
    <path clip-path="url(#p28e3cef8bf)" d="M 368.856764 114.856364 
L 356.522546 114.856364 
" style="stroke:#000000;stroke-linejoin:miter;stroke-width:0.5;"/>
   </g>
   <g id="patch_19">
    <path clip-path="url(#p28e3cef8bf)" d="M 381.190981 114.856364 
L 368.856764 114.856364 
" style="stroke:#000000;stroke-linejoin:miter;stroke-width:0.5;"/>
   </g>
   <g id="patch_20">
    <path clip-path="url(#p28e3cef8bf)" d="M 393.525199 114.856364 
L 381.190981 114.856364 
" style="stroke:#000000;stroke-linejoin:miter;stroke-width:0.5;"/>
   </g>
   <g id="patch_21">
    <path clip-path="url(#p28e3cef8bf)" d="M 405.859416 130.299545 
L 393.525199 114.856364 
" style="stroke:#000000;stroke-linejoin:miter;stroke-width:0.5;"/>
   </g>
   <g id="patch_22">
    <path clip-path="url(#p28e3cef8bf)" d="M 418.193634 130.299545 
L 405.859416 130.299545 
" style="stroke:#000000;stroke-linejoin:miter;stroke-width:0.5;"/>
   </g>
   <g id="patch_23">
    <path clip-path="url(#p28e3cef8bf)" d="M 430.527851 130.299545 
L 418.193634 130.299545 
" style="stroke:#000000;stroke-linejoin:miter;stroke-width:0.5;"/>
   </g>
   <g id="patch_24">
    <path clip-path="url(#p28e3cef8bf)" d="M 430.527851 130.299545 
L 430.527851 114.856364 
" style="stroke:#000000;stroke-linejoin:miter;stroke-width:0.5;"/>
   </g>
   <g id="21a7533bd8c24070b8a53fc1ab729273-1-node">
    <path clip-path="url(#p28e3cef8bf)" d="M 432.624668 125.048864 
L 432.624668 135.550227 
L 428.431034 135.550227 
L 428.431034 125.048864 
L 432.624668 125.048864 
z
" style="fill:#0000ff;stroke:#ffffff;stroke-linejoin:miter;stroke-width:0.5;"/>
   </g>
   <g id="21a7533bd8c24070b8a53fc1ab729273-4-node">
    <path clip-path="url(#p28e3cef8bf)" d="M 420.290451 125.048864 
L 420.290451 135.550227 
L 416.096817 135.550227 
L 416.096817 125.048864 
L 420.290451 125.048864 
z
" style="fill:#0000ff;stroke:#ffffff;stroke-linejoin:miter;stroke-width:0.5;"/>
   </g>
   <g id="21a7533bd8c24070b8a53fc1ab729273-6-node">
    <path clip-path="url(#p28e3cef8bf)" d="M 405.859416 135.550227 
C 406.415499 135.550227 406.94888 134.996982 407.34209 134.012338 
C 407.7353 133.027694 407.956233 131.692043 407.956233 130.299545 
C 407.956233 128.907048 407.7353 127.571397 407.34209 126.586753 
C 406.94888 125.602109 406.415499 125.048864 405.859416 125.048864 
C 405.303334 125.048864 404.769953 125.602109 404.376743 126.586753 
C 403.983533 127.571397 403.762599 128.907048 403.762599 130.299545 
C 403.762599 131.692043 403.983533 133.027694 404.376743 134.012338 
C 404.769953 134.996982 405.303334 135.550227 405.859416 135.550227 
z
" style="fill:#00c832;stroke:#ffffff;stroke-linejoin:miter;stroke-width:0.5;"/>
   </g>
   <g id="21a7533bd8c24070b8a53fc1ab729273-13-node">
    <path clip-path="url(#p28e3cef8bf)" d="M 393.525199 150.993409 
C 394.081281 150.993409 394.614663 150.440164 395.007872 149.45552 
C 395.401082 148.470876 395.622016 147.135224 395.622016 145.742727 
C 395.622016 144.35023 395.401082 143.014579 395.007872 142.029935 
C 394.614663 141.04529 394.081281 140.492045 393.525199 140.492045 
C 392.969117 140.492045 392.435735 141.04529 392.042525 142.029935 
C 391.649316 143.014579 391.428382 144.35023 391.428382 145.742727 
C 391.428382 147.135224 391.649316 148.470876 392.042525 149.45552 
C 392.435735 150.440164 392.969117 150.993409 393.525199 150.993409 
z
" style="fill:#00c832;stroke:#ffffff;stroke-linejoin:miter;stroke-width:0.5;"/>
   </g>
   <g id="21a7533bd8c24070b8a53fc1ab729273-14-node">
    <path clip-path="url(#p28e3cef8bf)" d="M 383.287798 140.492045 
L 383.287798 150.993409 
L 379.094164 150.993409 
L 379.094164 140.492045 
L 383.287798 140.492045 
z
" style="fill:#0000ff;stroke:#ffffff;stroke-linejoin:miter;stroke-width:0.5;"/>
   </g>
   <g id="21a7533bd8c24070b8a53fc1ab729273-7-node">
    <path clip-path="url(#p28e3cef8bf)" d="M 393.525199 120.107045 
C 394.081281 120.107045 394.614663 119.5538 395.007872 118.569156 
C 395.401082 117.584512 395.622016 116.248861 395.622016 114.856364 
C 395.622016 113.463867 395.401082 112.128215 395.007872 111.143571 
C 394.614663 110.158927 394.081281 109.605682 393.525199 109.605682 
C 392.969117 109.605682 392.435735 110.158927 392.042525 111.143571 
C 391.649316 112.128215 391.428382 113.463867 391.428382 114.856364 
C 391.428382 116.248861 391.649316 117.584512 392.042525 118.569156 
C 392.435735 119.5538 392.969117 120.107045 393.525199 120.107045 
z
" style="fill:#00c832;stroke:#ffffff;stroke-linejoin:miter;stroke-width:0.5;"/>
   </g>
   <g id="21a7533bd8c24070b8a53fc1ab729273-8-node">
    <path clip-path="url(#p28e3cef8bf)" d="M 383.287798 109.605682 
L 383.287798 120.107045 
L 379.094164 120.107045 
L 379.094164 109.605682 
L 383.287798 109.605682 
z
" style="fill:#0000ff;stroke:#ffffff;stroke-linejoin:miter;stroke-width:0.5;"/>
   </g>
   <g id="21a7533bd8c24070b8a53fc1ab729273-10-node">
    <path clip-path="url(#p28e3cef8bf)" d="M 368.856764 120.107045 
C 369.412846 120.107045 369.946228 119.5538 370.339437 118.569156 
C 370.732647 117.584512 370.953581 116.248861 370.953581 114.856364 
C 370.953581 113.463867 370.732647 112.128215 370.339437 111.143571 
C 369.946228 110.158927 369.412846 109.605682 368.856764 109.605682 
C 368.300682 109.605682 367.7673 110.158927 367.37409 111.143571 
C 366.980881 112.128215 366.759947 113.463867 366.759947 114.856364 
C 366.759947 116.248861 366.980881 117.584512 367.37409 118.569156 
C 367.7673 119.5538 368.300682 120.107045 368.856764 120.107045 
z
" style="fill:#ffff00;stroke:#ffffff;stroke-linejoin:miter;stroke-width:0.5;"/>
   </g>
   <g id="21a7533bd8c24070b8a53fc1ab729273-11-node">
    <path clip-path="url(#p28e3cef8bf)" d="M 356.522546 109.605682 
L 354.425729 114.856364 
L 356.522546 120.107045 
L 358.619363 114.856364 
z
" style="fill:#c800c8;stroke:#ffffff;stroke-linejoin:miter;stroke-width:0.5;"/>
   </g>
   <g id="21a7533bd8c24070b8a53fc1ab729273-3-node">
    <path clip-path="url(#p28e3cef8bf)" d="M 430.527851 109.605682 
L 428.711955 117.481705 
L 432.343748 117.481705 
z
" style="fill:#ff0000;stroke:#ffffff;stroke-linejoin:miter;stroke-width:0.5;"/>
   </g>
   <g id="patch_25">
    <path d="M 308.172414 166.745455 
L 308.172414 43.2 
" style="fill:none;stroke:#ffffff;stroke-linecap:square;stroke-linejoin:miter;stroke-width:1.25;"/>
   </g>
   <g id="patch_26">
    <path d="M 452.482759 166.745455 
L 452.482759 43.2 
" style="fill:none;stroke:#ffffff;stroke-linecap:square;stroke-linejoin:miter;stroke-width:1.25;"/>
   </g>
   <g id="patch_27">
    <path d="M 308.172414 166.745455 
L 452.482759 166.745455 
" style="fill:none;stroke:#ffffff;stroke-linecap:square;stroke-linejoin:miter;stroke-width:1.25;"/>
   </g>
   <g id="patch_28">
    <path d="M 308.172414 43.2 
L 452.482759 43.2 
" style="fill:none;stroke:#ffffff;stroke-linecap:square;stroke-linejoin:miter;stroke-width:1.25;"/>
   </g>
   <g id="text_2">
    <!-- 85:1 -->
    <defs>
     <path d="M 17.671875 38.8125 
Q 12.203125 40.828125 9.5625 44.53125 
Q 6.9375 48.25 6.9375 53.421875 
Q 6.9375 61.234375 12.546875 66.546875 
Q 18.171875 71.875 27.484375 71.875 
Q 36.859375 71.875 42.578125 66.421875 
Q 48.296875 60.984375 48.296875 53.171875 
Q 48.296875 48.1875 45.671875 44.5 
Q 43.0625 40.828125 37.75 38.8125 
Q 44.34375 36.671875 47.78125 31.875 
Q 51.21875 27.09375 51.21875 20.453125 
Q 51.21875 11.28125 44.71875 5.03125 
Q 38.234375 -1.21875 27.640625 -1.21875 
Q 17.046875 -1.21875 10.546875 5.046875 
Q 4.046875 11.328125 4.046875 20.703125 
Q 4.046875 27.6875 7.59375 32.390625 
Q 11.140625 37.109375 17.671875 38.8125 
z
M 15.921875 53.71875 
Q 15.921875 48.640625 19.1875 45.40625 
Q 22.46875 42.1875 27.6875 42.1875 
Q 32.765625 42.1875 36.015625 45.375 
Q 39.265625 48.578125 39.265625 53.21875 
Q 39.265625 58.0625 35.90625 61.359375 
Q 32.5625 64.65625 27.59375 64.65625 
Q 22.5625 64.65625 19.234375 61.421875 
Q 15.921875 58.203125 15.921875 53.71875 
z
M 13.09375 20.65625 
Q 13.09375 16.890625 14.875 13.375 
Q 16.65625 9.859375 20.171875 7.921875 
Q 23.6875 6 27.734375 6 
Q 34.03125 6 38.125 10.046875 
Q 42.234375 14.109375 42.234375 20.359375 
Q 42.234375 26.703125 38.015625 30.859375 
Q 33.796875 35.015625 27.4375 35.015625 
Q 21.234375 35.015625 17.15625 30.90625 
Q 13.09375 26.8125 13.09375 20.65625 
z
" id="ArialMT-56"/>
     <path d="M 4.15625 18.75 
L 13.375 19.53125 
Q 14.40625 12.796875 18.140625 9.390625 
Q 21.875 6 27.15625 6 
Q 33.5 6 37.890625 10.78125 
Q 42.28125 15.578125 42.28125 23.484375 
Q 42.28125 31 38.0625 35.34375 
Q 33.84375 39.703125 27 39.703125 
Q 22.75 39.703125 19.328125 37.765625 
Q 15.921875 35.84375 13.96875 32.765625 
L 5.71875 33.84375 
L 12.640625 70.609375 
L 48.25 70.609375 
L 48.25 62.203125 
L 19.671875 62.203125 
L 15.828125 42.96875 
Q 22.265625 47.46875 29.34375 47.46875 
Q 38.71875 47.46875 45.15625 40.96875 
Q 51.609375 34.46875 51.609375 24.265625 
Q 51.609375 14.546875 45.953125 7.46875 
Q 39.0625 -1.21875 27.15625 -1.21875 
Q 17.390625 -1.21875 11.203125 4.25 
Q 5.03125 9.71875 4.15625 18.75 
z
" id="ArialMT-53"/>
    </defs>
    <g style="fill:#262626;" transform="translate(368.651024 37.2)scale(0.12 -0.12)">
     <use xlink:href="#ArialMT-56"/>
     <use x="55.615234" xlink:href="#ArialMT-53"/>
     <use x="111.230469" xlink:href="#ArialMT-58"/>
     <use x="139.013672" xlink:href="#ArialMT-49"/>
    </g>
   </g>
  </g>
  <g id="axes_3">
   <g id="patch_29">
    <path d="M 481.344828 166.745455 
L 625.655172 166.745455 
L 625.655172 43.2 
L 481.344828 43.2 
z
" style="fill:#ffffff;"/>
   </g>
   <g id="patch_30">
    <path clip-path="url(#p3387a806fd)" d="M 542.029178 145.742727 
L 529.69496 145.742727 
" style="stroke:#000000;stroke-linejoin:miter;stroke-width:0.5;"/>
   </g>
   <g id="patch_31">
    <path clip-path="url(#p3387a806fd)" d="M 554.363395 145.742727 
L 542.029178 145.742727 
" style="stroke:#000000;stroke-linejoin:miter;stroke-width:0.5;"/>
   </g>
   <g id="patch_32">
    <path clip-path="url(#p3387a806fd)" d="M 566.697613 145.742727 
L 554.363395 145.742727 
" style="stroke:#000000;stroke-linejoin:miter;stroke-width:0.5;"/>
   </g>
   <g id="patch_33">
    <path clip-path="url(#p3387a806fd)" d="M 579.03183 130.299545 
L 566.697613 145.742727 
" style="stroke:#000000;stroke-linejoin:miter;stroke-width:0.5;"/>
   </g>
   <g id="patch_34">
    <path clip-path="url(#p3387a806fd)" d="M 554.363395 114.856364 
L 542.029178 114.856364 
" style="stroke:#000000;stroke-linejoin:miter;stroke-width:0.5;"/>
   </g>
   <g id="patch_35">
    <path clip-path="url(#p3387a806fd)" d="M 566.697613 114.856364 
L 554.363395 114.856364 
" style="stroke:#000000;stroke-linejoin:miter;stroke-width:0.5;"/>
   </g>
   <g id="patch_36">
    <path clip-path="url(#p3387a806fd)" d="M 579.03183 130.299545 
L 566.697613 114.856364 
" style="stroke:#000000;stroke-linejoin:miter;stroke-width:0.5;"/>
   </g>
   <g id="patch_37">
    <path clip-path="url(#p3387a806fd)" d="M 591.366048 130.299545 
L 579.03183 130.299545 
" style="stroke:#000000;stroke-linejoin:miter;stroke-width:0.5;"/>
   </g>
   <g id="patch_38">
    <path clip-path="url(#p3387a806fd)" d="M 603.700265 130.299545 
L 591.366048 130.299545 
" style="stroke:#000000;stroke-linejoin:miter;stroke-width:0.5;"/>
   </g>
   <g id="2c85db56ac2b4533a85d966ef9901c09-1-node">
    <path clip-path="url(#p3387a806fd)" d="M 605.797082 125.048864 
L 605.797082 135.550227 
L 601.603448 135.550227 
L 601.603448 125.048864 
L 605.797082 125.048864 
z
" style="fill:#0000ff;stroke:#ffffff;stroke-linejoin:miter;stroke-width:0.5;"/>
   </g>
   <g id="2c85db56ac2b4533a85d966ef9901c09-3-node">
    <path clip-path="url(#p3387a806fd)" d="M 593.462865 125.048864 
L 593.462865 135.550227 
L 589.269231 135.550227 
L 589.269231 125.048864 
L 593.462865 125.048864 
z
" style="fill:#0000ff;stroke:#ffffff;stroke-linejoin:miter;stroke-width:0.5;"/>
   </g>
   <g id="2c85db56ac2b4533a85d966ef9901c09-5-node">
    <path clip-path="url(#p3387a806fd)" d="M 579.03183 135.550227 
C 579.587913 135.550227 580.121294 134.996982 580.514504 134.012338 
C 580.907713 133.027694 581.128647 131.692043 581.128647 130.299545 
C 581.128647 128.907048 580.907713 127.571397 580.514504 126.586753 
C 580.121294 125.602109 579.587913 125.048864 579.03183 125.048864 
C 578.475748 125.048864 577.942366 125.602109 577.549157 126.586753 
C 577.155947 127.571397 576.935013 128.907048 576.935013 130.299545 
C 576.935013 131.692043 577.155947 133.027694 577.549157 134.012338 
C 577.942366 134.996982 578.475748 135.550227 579.03183 135.550227 
z
" style="fill:#00c832;stroke:#ffffff;stroke-linejoin:miter;stroke-width:0.5;"/>
   </g>
   <g id="2c85db56ac2b4533a85d966ef9901c09-10-node">
    <path clip-path="url(#p3387a806fd)" d="M 566.697613 150.993409 
C 567.253695 150.993409 567.787077 150.440164 568.180286 149.45552 
C 568.573496 148.470876 568.79443 147.135224 568.79443 145.742727 
C 568.79443 144.35023 568.573496 143.014579 568.180286 142.029935 
C 567.787077 141.04529 567.253695 140.492045 566.697613 140.492045 
C 566.14153 140.492045 565.608149 141.04529 565.214939 142.029935 
C 564.82173 143.014579 564.600796 144.35023 564.600796 145.742727 
C 564.600796 147.135224 564.82173 148.470876 565.214939 149.45552 
C 565.608149 150.440164 566.14153 150.993409 566.697613 150.993409 
z
" style="fill:#00c832;stroke:#ffffff;stroke-linejoin:miter;stroke-width:0.5;"/>
   </g>
   <g id="2c85db56ac2b4533a85d966ef9901c09-11-node">
    <path clip-path="url(#p3387a806fd)" d="M 556.460212 140.492045 
L 556.460212 150.993409 
L 552.266578 150.993409 
L 552.266578 140.492045 
L 556.460212 140.492045 
z
" style="fill:#0000ff;stroke:#ffffff;stroke-linejoin:miter;stroke-width:0.5;"/>
   </g>
   <g id="2c85db56ac2b4533a85d966ef9901c09-13-node">
    <path clip-path="url(#p3387a806fd)" d="M 542.029178 150.993409 
C 542.58526 150.993409 543.118642 150.440164 543.511851 149.45552 
C 543.905061 148.470876 544.125995 147.135224 544.125995 145.742727 
C 544.125995 144.35023 543.905061 143.014579 543.511851 142.029935 
C 543.118642 141.04529 542.58526 140.492045 542.029178 140.492045 
C 541.473095 140.492045 540.939714 141.04529 540.546504 142.029935 
C 540.153295 143.014579 539.932361 144.35023 539.932361 145.742727 
C 539.932361 147.135224 540.153295 148.470876 540.546504 149.45552 
C 540.939714 150.440164 541.473095 150.993409 542.029178 150.993409 
z
" style="fill:#ffff00;stroke:#ffffff;stroke-linejoin:miter;stroke-width:0.5;"/>
   </g>
   <g id="2c85db56ac2b4533a85d966ef9901c09-14-node">
    <path clip-path="url(#p3387a806fd)" d="M 529.69496 140.492045 
L 527.598143 145.742727 
L 529.69496 150.993409 
L 531.791777 145.742727 
z
" style="fill:#c800c8;stroke:#ffffff;stroke-linejoin:miter;stroke-width:0.5;"/>
   </g>
   <g id="2c85db56ac2b4533a85d966ef9901c09-6-node">
    <path clip-path="url(#p3387a806fd)" d="M 566.697613 120.107045 
C 567.253695 120.107045 567.787077 119.5538 568.180286 118.569156 
C 568.573496 117.584512 568.79443 116.248861 568.79443 114.856364 
C 568.79443 113.463867 568.573496 112.128215 568.180286 111.143571 
C 567.787077 110.158927 567.253695 109.605682 566.697613 109.605682 
C 566.14153 109.605682 565.608149 110.158927 565.214939 111.143571 
C 564.82173 112.128215 564.600796 113.463867 564.600796 114.856364 
C 564.600796 116.248861 564.82173 117.584512 565.214939 118.569156 
C 565.608149 119.5538 566.14153 120.107045 566.697613 120.107045 
z
" style="fill:#00c832;stroke:#ffffff;stroke-linejoin:miter;stroke-width:0.5;"/>
   </g>
   <g id="2c85db56ac2b4533a85d966ef9901c09-7-node">
    <path clip-path="url(#p3387a806fd)" d="M 556.460212 109.605682 
L 556.460212 120.107045 
L 552.266578 120.107045 
L 552.266578 109.605682 
L 556.460212 109.605682 
z
" style="fill:#0000ff;stroke:#ffffff;stroke-linejoin:miter;stroke-width:0.5;"/>
   </g>
   <g id="2c85db56ac2b4533a85d966ef9901c09-9-node">
    <path clip-path="url(#p3387a806fd)" d="M 542.029178 120.107045 
C 542.58526 120.107045 543.118642 119.5538 543.511851 118.569156 
C 543.905061 117.584512 544.125995 116.248861 544.125995 114.856364 
C 544.125995 113.463867 543.905061 112.128215 543.511851 111.143571 
C 543.118642 110.158927 542.58526 109.605682 542.029178 109.605682 
C 541.473095 109.605682 540.939714 110.158927 540.546504 111.143571 
C 540.153295 112.128215 539.932361 113.463867 539.932361 114.856364 
C 539.932361 116.248861 540.153295 117.584512 540.546504 118.569156 
C 540.939714 119.5538 541.473095 120.107045 542.029178 120.107045 
z
" style="fill:#ffff00;stroke:#ffffff;stroke-linejoin:miter;stroke-width:0.5;"/>
   </g>
   <g id="patch_39">
    <path d="M 481.344828 166.745455 
L 481.344828 43.2 
" style="fill:none;stroke:#ffffff;stroke-linecap:square;stroke-linejoin:miter;stroke-width:1.25;"/>
   </g>
   <g id="patch_40">
    <path d="M 625.655172 166.745455 
L 625.655172 43.2 
" style="fill:none;stroke:#ffffff;stroke-linecap:square;stroke-linejoin:miter;stroke-width:1.25;"/>
   </g>
   <g id="patch_41">
    <path d="M 481.344828 166.745455 
L 625.655172 166.745455 
" style="fill:none;stroke:#ffffff;stroke-linecap:square;stroke-linejoin:miter;stroke-width:1.25;"/>
   </g>
   <g id="patch_42">
    <path d="M 481.344828 43.2 
L 625.655172 43.2 
" style="fill:none;stroke:#ffffff;stroke-linecap:square;stroke-linejoin:miter;stroke-width:1.25;"/>
   </g>
   <g id="text_3">
    <!-- 90:2.0 -->
    <defs>
     <path d="M 5.46875 16.546875 
L 13.921875 17.328125 
Q 14.984375 11.375 18.015625 8.6875 
Q 21.046875 6 25.78125 6 
Q 29.828125 6 32.875 7.859375 
Q 35.9375 9.71875 37.890625 12.8125 
Q 39.84375 15.921875 41.15625 21.1875 
Q 42.484375 26.46875 42.484375 31.9375 
Q 42.484375 32.515625 42.4375 33.6875 
Q 39.796875 29.5 35.234375 26.875 
Q 30.671875 24.265625 25.34375 24.265625 
Q 16.453125 24.265625 10.296875 30.703125 
Q 4.15625 37.15625 4.15625 47.703125 
Q 4.15625 58.59375 10.578125 65.234375 
Q 17 71.875 26.65625 71.875 
Q 33.640625 71.875 39.421875 68.109375 
Q 45.21875 64.359375 48.21875 57.390625 
Q 51.21875 50.4375 51.21875 37.25 
Q 51.21875 23.53125 48.234375 15.40625 
Q 45.265625 7.28125 39.375 3.03125 
Q 33.5 -1.21875 25.59375 -1.21875 
Q 17.1875 -1.21875 11.859375 3.4375 
Q 6.546875 8.109375 5.46875 16.546875 
z
M 41.453125 48.140625 
Q 41.453125 55.71875 37.421875 60.15625 
Q 33.40625 64.59375 27.734375 64.59375 
Q 21.875 64.59375 17.53125 59.8125 
Q 13.1875 55.03125 13.1875 47.40625 
Q 13.1875 40.578125 17.3125 36.296875 
Q 21.4375 32.03125 27.484375 32.03125 
Q 33.59375 32.03125 37.515625 36.296875 
Q 41.453125 40.578125 41.453125 48.140625 
z
" id="ArialMT-57"/>
     <path d="M 4.15625 35.296875 
Q 4.15625 48 6.765625 55.734375 
Q 9.375 63.484375 14.515625 67.671875 
Q 19.671875 71.875 27.484375 71.875 
Q 33.25 71.875 37.59375 69.546875 
Q 41.9375 67.234375 44.765625 62.859375 
Q 47.609375 58.5 49.21875 52.21875 
Q 50.828125 45.953125 50.828125 35.296875 
Q 50.828125 22.703125 48.234375 14.96875 
Q 45.65625 7.234375 40.5 3 
Q 35.359375 -1.21875 27.484375 -1.21875 
Q 17.140625 -1.21875 11.234375 6.203125 
Q 4.15625 15.140625 4.15625 35.296875 
z
M 13.1875 35.296875 
Q 13.1875 17.671875 17.3125 11.828125 
Q 21.4375 6 27.484375 6 
Q 33.546875 6 37.671875 11.859375 
Q 41.796875 17.71875 41.796875 35.296875 
Q 41.796875 52.984375 37.671875 58.78125 
Q 33.546875 64.59375 27.390625 64.59375 
Q 21.34375 64.59375 17.71875 59.46875 
Q 13.1875 52.9375 13.1875 35.296875 
z
" id="ArialMT-48"/>
     <path d="M 50.34375 8.453125 
L 50.34375 0 
L 3.03125 0 
Q 2.9375 3.171875 4.046875 6.109375 
Q 5.859375 10.9375 9.828125 15.625 
Q 13.8125 20.3125 21.34375 26.46875 
Q 33.015625 36.03125 37.109375 41.625 
Q 41.21875 47.21875 41.21875 52.203125 
Q 41.21875 57.421875 37.46875 61 
Q 33.734375 64.59375 27.734375 64.59375 
Q 21.390625 64.59375 17.578125 60.78125 
Q 13.765625 56.984375 13.71875 50.25 
L 4.6875 51.171875 
Q 5.609375 61.28125 11.65625 66.578125 
Q 17.71875 71.875 27.9375 71.875 
Q 38.234375 71.875 44.234375 66.15625 
Q 50.25 60.453125 50.25 52 
Q 50.25 47.703125 48.484375 43.546875 
Q 46.734375 39.40625 42.65625 34.8125 
Q 38.578125 30.21875 29.109375 22.21875 
Q 21.1875 15.578125 18.9375 13.203125 
Q 16.703125 10.84375 15.234375 8.453125 
z
" id="ArialMT-50"/>
     <path d="M 9.078125 0 
L 9.078125 10.015625 
L 19.09375 10.015625 
L 19.09375 0 
z
" id="ArialMT-46"/>
    </defs>
    <g style="fill:#262626;" transform="translate(536.82 37.2)scale(0.12 -0.12)">
     <use xlink:href="#ArialMT-57"/>
     <use x="55.615234" xlink:href="#ArialMT-48"/>
     <use x="111.230469" xlink:href="#ArialMT-58"/>
     <use x="139.013672" xlink:href="#ArialMT-50"/>
     <use x="194.628906" xlink:href="#ArialMT-46"/>
     <use x="222.412109" xlink:href="#ArialMT-48"/>
    </g>
   </g>
  </g>
  <g id="axes_4">
   <g id="patch_43">
    <path d="M 654.517241 166.745455 
L 798.827586 166.745455 
L 798.827586 43.2 
L 654.517241 43.2 
z
" style="fill:#ffffff;"/>
   </g>
   <g id="patch_44">
    <path clip-path="url(#p65f14f90b2)" d="M 727.535809 145.742727 
L 715.201592 145.742727 
" style="stroke:#000000;stroke-linejoin:miter;stroke-width:0.5;"/>
   </g>
   <g id="patch_45">
    <path clip-path="url(#p65f14f90b2)" d="M 739.870027 145.742727 
L 727.535809 145.742727 
" style="stroke:#000000;stroke-linejoin:miter;stroke-width:0.5;"/>
   </g>
   <g id="patch_46">
    <path clip-path="url(#p65f14f90b2)" d="M 752.204244 130.299545 
L 739.870027 145.742727 
" style="stroke:#000000;stroke-linejoin:miter;stroke-width:0.5;"/>
   </g>
   <g id="patch_47">
    <path clip-path="url(#p65f14f90b2)" d="M 715.201592 114.856364 
L 702.867374 114.856364 
" style="stroke:#000000;stroke-linejoin:miter;stroke-width:0.5;"/>
   </g>
   <g id="patch_48">
    <path clip-path="url(#p65f14f90b2)" d="M 727.535809 114.856364 
L 715.201592 114.856364 
" style="stroke:#000000;stroke-linejoin:miter;stroke-width:0.5;"/>
   </g>
   <g id="patch_49">
    <path clip-path="url(#p65f14f90b2)" d="M 739.870027 114.856364 
L 727.535809 114.856364 
" style="stroke:#000000;stroke-linejoin:miter;stroke-width:0.5;"/>
   </g>
   <g id="patch_50">
    <path clip-path="url(#p65f14f90b2)" d="M 752.204244 130.299545 
L 739.870027 114.856364 
" style="stroke:#000000;stroke-linejoin:miter;stroke-width:0.5;"/>
   </g>
   <g id="patch_51">
    <path clip-path="url(#p65f14f90b2)" d="M 764.538462 130.299545 
L 752.204244 130.299545 
" style="stroke:#000000;stroke-linejoin:miter;stroke-width:0.5;"/>
   </g>
   <g id="patch_52">
    <path clip-path="url(#p65f14f90b2)" d="M 776.872679 130.299545 
L 764.538462 130.299545 
" style="stroke:#000000;stroke-linejoin:miter;stroke-width:0.5;"/>
   </g>
   <g id="c9ed693f9d274483b061d8cfb7da483a-1-node">
    <path clip-path="url(#p65f14f90b2)" d="M 778.969496 125.048864 
L 778.969496 135.550227 
L 774.775862 135.550227 
L 774.775862 125.048864 
L 778.969496 125.048864 
z
" style="fill:#0000ff;stroke:#ffffff;stroke-linejoin:miter;stroke-width:0.5;"/>
   </g>
   <g id="c9ed693f9d274483b061d8cfb7da483a-3-node">
    <path clip-path="url(#p65f14f90b2)" d="M 766.635279 125.048864 
L 766.635279 135.550227 
L 762.441645 135.550227 
L 762.441645 125.048864 
L 766.635279 125.048864 
z
" style="fill:#0000ff;stroke:#ffffff;stroke-linejoin:miter;stroke-width:0.5;"/>
   </g>
   <g id="c9ed693f9d274483b061d8cfb7da483a-5-node">
    <path clip-path="url(#p65f14f90b2)" d="M 752.204244 135.550227 
C 752.760326 135.550227 753.293708 134.996982 753.686918 134.012338 
C 754.080127 133.027694 754.301061 131.692043 754.301061 130.299545 
C 754.301061 128.907048 754.080127 127.571397 753.686918 126.586753 
C 753.293708 125.602109 752.760326 125.048864 752.204244 125.048864 
C 751.648162 125.048864 751.11478 125.602109 750.721571 126.586753 
C 750.328361 127.571397 750.107427 128.907048 750.107427 130.299545 
C 750.107427 131.692043 750.328361 133.027694 750.721571 134.012338 
C 751.11478 134.996982 751.648162 135.550227 752.204244 135.550227 
z
" style="fill:#00c832;stroke:#ffffff;stroke-linejoin:miter;stroke-width:0.5;"/>
   </g>
   <g id="c9ed693f9d274483b061d8cfb7da483a-12-node">
    <path clip-path="url(#p65f14f90b2)" d="M 739.870027 150.993409 
C 740.426109 150.993409 740.95949 150.440164 741.3527 149.45552 
C 741.74591 148.470876 741.966844 147.135224 741.966844 145.742727 
C 741.966844 144.35023 741.74591 143.014579 741.3527 142.029935 
C 740.95949 141.04529 740.426109 140.492045 739.870027 140.492045 
C 739.313944 140.492045 738.780563 141.04529 738.387353 142.029935 
C 737.994143 143.014579 737.77321 144.35023 737.77321 145.742727 
C 737.77321 147.135224 737.994143 148.470876 738.387353 149.45552 
C 738.780563 150.440164 739.313944 150.993409 739.870027 150.993409 
z
" style="fill:#00c832;stroke:#ffffff;stroke-linejoin:miter;stroke-width:0.5;"/>
   </g>
   <g id="c9ed693f9d274483b061d8cfb7da483a-13-node">
    <path clip-path="url(#p65f14f90b2)" d="M 729.632626 140.492045 
L 729.632626 150.993409 
L 725.438992 150.993409 
L 725.438992 140.492045 
L 729.632626 140.492045 
z
" style="fill:#0000ff;stroke:#ffffff;stroke-linejoin:miter;stroke-width:0.5;"/>
   </g>
   <g id="c9ed693f9d274483b061d8cfb7da483a-15-node">
    <path clip-path="url(#p65f14f90b2)" d="M 715.201592 150.993409 
C 715.757674 150.993409 716.291055 150.440164 716.684265 149.45552 
C 717.077475 148.470876 717.298408 147.135224 717.298408 145.742727 
C 717.298408 144.35023 717.077475 143.014579 716.684265 142.029935 
C 716.291055 141.04529 715.757674 140.492045 715.201592 140.492045 
C 714.645509 140.492045 714.112128 141.04529 713.718918 142.029935 
C 713.325708 143.014579 713.104775 144.35023 713.104775 145.742727 
C 713.104775 147.135224 713.325708 148.470876 713.718918 149.45552 
C 714.112128 150.440164 714.645509 150.993409 715.201592 150.993409 
z
" style="fill:#ffff00;stroke:#ffffff;stroke-linejoin:miter;stroke-width:0.5;"/>
   </g>
   <g id="c9ed693f9d274483b061d8cfb7da483a-6-node">
    <path clip-path="url(#p65f14f90b2)" d="M 739.870027 120.107045 
C 740.426109 120.107045 740.95949 119.5538 741.3527 118.569156 
C 741.74591 117.584512 741.966844 116.248861 741.966844 114.856364 
C 741.966844 113.463867 741.74591 112.128215 741.3527 111.143571 
C 740.95949 110.158927 740.426109 109.605682 739.870027 109.605682 
C 739.313944 109.605682 738.780563 110.158927 738.387353 111.143571 
C 737.994143 112.128215 737.77321 113.463867 737.77321 114.856364 
C 737.77321 116.248861 737.994143 117.584512 738.387353 118.569156 
C 738.780563 119.5538 739.313944 120.107045 739.870027 120.107045 
z
" style="fill:#00c832;stroke:#ffffff;stroke-linejoin:miter;stroke-width:0.5;"/>
   </g>
   <g id="c9ed693f9d274483b061d8cfb7da483a-7-node">
    <path clip-path="url(#p65f14f90b2)" d="M 729.632626 109.605682 
L 729.632626 120.107045 
L 725.438992 120.107045 
L 725.438992 109.605682 
L 729.632626 109.605682 
z
" style="fill:#0000ff;stroke:#ffffff;stroke-linejoin:miter;stroke-width:0.5;"/>
   </g>
   <g id="c9ed693f9d274483b061d8cfb7da483a-9-node">
    <path clip-path="url(#p65f14f90b2)" d="M 715.201592 120.107045 
C 715.757674 120.107045 716.291055 119.5538 716.684265 118.569156 
C 717.077475 117.584512 717.298408 116.248861 717.298408 114.856364 
C 717.298408 113.463867 717.077475 112.128215 716.684265 111.143571 
C 716.291055 110.158927 715.757674 109.605682 715.201592 109.605682 
C 714.645509 109.605682 714.112128 110.158927 713.718918 111.143571 
C 713.325708 112.128215 713.104775 113.463867 713.104775 114.856364 
C 713.104775 116.248861 713.325708 117.584512 713.718918 118.569156 
C 714.112128 119.5538 714.645509 120.107045 715.201592 120.107045 
z
" style="fill:#ffff00;stroke:#ffffff;stroke-linejoin:miter;stroke-width:0.5;"/>
   </g>
   <g id="c9ed693f9d274483b061d8cfb7da483a-10-node">
    <path clip-path="url(#p65f14f90b2)" d="M 702.867374 109.605682 
L 700.770557 114.856364 
L 702.867374 120.107045 
L 704.964191 114.856364 
z
" style="fill:#c800c8;stroke:#ffffff;stroke-linejoin:miter;stroke-width:0.5;"/>
   </g>
   <g id="patch_53">
    <path d="M 654.517241 166.745455 
L 654.517241 43.2 
" style="fill:none;stroke:#ffffff;stroke-linecap:square;stroke-linejoin:miter;stroke-width:1.25;"/>
   </g>
   <g id="patch_54">
    <path d="M 798.827586 166.745455 
L 798.827586 43.2 
" style="fill:none;stroke:#ffffff;stroke-linecap:square;stroke-linejoin:miter;stroke-width:1.25;"/>
   </g>
   <g id="patch_55">
    <path d="M 654.517241 166.745455 
L 798.827586 166.745455 
" style="fill:none;stroke:#ffffff;stroke-linecap:square;stroke-linejoin:miter;stroke-width:1.25;"/>
   </g>
   <g id="patch_56">
    <path d="M 654.517241 43.2 
L 798.827586 43.2 
" style="fill:none;stroke:#ffffff;stroke-linecap:square;stroke-linejoin:miter;stroke-width:1.25;"/>
   </g>
   <g id="text_4">
    <!-- 91:1 -->
    <g style="fill:#262626;" transform="translate(714.995851 37.2)scale(0.12 -0.12)">
     <use xlink:href="#ArialMT-57"/>
     <use x="55.615234" xlink:href="#ArialMT-49"/>
     <use x="111.230469" xlink:href="#ArialMT-58"/>
     <use x="139.013672" xlink:href="#ArialMT-49"/>
    </g>
   </g>
  </g>
  <g id="axes_5">
   <g id="patch_57">
    <path d="M 827.689655 166.745455 
L 972 166.745455 
L 972 43.2 
L 827.689655 43.2 
z
" style="fill:#ffffff;"/>
   </g>
   <g id="patch_58">
    <path clip-path="url(#p7d1bea8bc3)" d="M 888.374005 145.742727 
L 876.039788 145.742727 
" style="stroke:#000000;stroke-linejoin:miter;stroke-width:0.5;"/>
   </g>
   <g id="patch_59">
    <path clip-path="url(#p7d1bea8bc3)" d="M 900.708223 145.742727 
L 888.374005 145.742727 
" style="stroke:#000000;stroke-linejoin:miter;stroke-width:0.5;"/>
   </g>
   <g id="patch_60">
    <path clip-path="url(#p7d1bea8bc3)" d="M 913.04244 145.742727 
L 900.708223 145.742727 
" style="stroke:#000000;stroke-linejoin:miter;stroke-width:0.5;"/>
   </g>
   <g id="patch_61">
    <path clip-path="url(#p7d1bea8bc3)" d="M 925.376658 130.299545 
L 913.04244 145.742727 
" style="stroke:#000000;stroke-linejoin:miter;stroke-width:0.5;"/>
   </g>
   <g id="patch_62">
    <path clip-path="url(#p7d1bea8bc3)" d="M 888.374005 114.856364 
L 876.039788 114.856364 
" style="stroke:#000000;stroke-linejoin:miter;stroke-width:0.5;"/>
   </g>
   <g id="patch_63">
    <path clip-path="url(#p7d1bea8bc3)" d="M 900.708223 114.856364 
L 888.374005 114.856364 
" style="stroke:#000000;stroke-linejoin:miter;stroke-width:0.5;"/>
   </g>
   <g id="patch_64">
    <path clip-path="url(#p7d1bea8bc3)" d="M 913.04244 114.856364 
L 900.708223 114.856364 
" style="stroke:#000000;stroke-linejoin:miter;stroke-width:0.5;"/>
   </g>
   <g id="patch_65">
    <path clip-path="url(#p7d1bea8bc3)" d="M 925.376658 130.299545 
L 913.04244 114.856364 
" style="stroke:#000000;stroke-linejoin:miter;stroke-width:0.5;"/>
   </g>
   <g id="patch_66">
    <path clip-path="url(#p7d1bea8bc3)" d="M 937.710875 130.299545 
L 925.376658 130.299545 
" style="stroke:#000000;stroke-linejoin:miter;stroke-width:0.5;"/>
   </g>
   <g id="patch_67">
    <path clip-path="url(#p7d1bea8bc3)" d="M 950.045093 130.299545 
L 937.710875 130.299545 
" style="stroke:#000000;stroke-linejoin:miter;stroke-width:0.5;"/>
   </g>
   <g id="829f60dc027d4705bb19d322485eaa57-1-node">
    <path clip-path="url(#p7d1bea8bc3)" d="M 952.14191 125.048864 
L 952.14191 135.550227 
L 947.948276 135.550227 
L 947.948276 125.048864 
L 952.14191 125.048864 
z
" style="fill:#0000ff;stroke:#ffffff;stroke-linejoin:miter;stroke-width:0.5;"/>
   </g>
   <g id="829f60dc027d4705bb19d322485eaa57-3-node">
    <path clip-path="url(#p7d1bea8bc3)" d="M 939.807692 125.048864 
L 939.807692 135.550227 
L 935.614058 135.550227 
L 935.614058 125.048864 
L 939.807692 125.048864 
z
" style="fill:#0000ff;stroke:#ffffff;stroke-linejoin:miter;stroke-width:0.5;"/>
   </g>
   <g id="829f60dc027d4705bb19d322485eaa57-5-node">
    <path clip-path="url(#p7d1bea8bc3)" d="M 925.376658 135.550227 
C 925.93274 135.550227 926.466122 134.996982 926.859331 134.012338 
C 927.252541 133.027694 927.473475 131.692043 927.473475 130.299545 
C 927.473475 128.907048 927.252541 127.571397 926.859331 126.586753 
C 926.466122 125.602109 925.93274 125.048864 925.376658 125.048864 
C 924.820575 125.048864 924.287194 125.602109 923.893984 126.586753 
C 923.500775 127.571397 923.279841 128.907048 923.279841 130.299545 
C 923.279841 131.692043 923.500775 133.027694 923.893984 134.012338 
C 924.287194 134.996982 924.820575 135.550227 925.376658 135.550227 
z
" style="fill:#00c832;stroke:#ffffff;stroke-linejoin:miter;stroke-width:0.5;"/>
   </g>
   <g id="829f60dc027d4705bb19d322485eaa57-12-node">
    <path clip-path="url(#p7d1bea8bc3)" d="M 913.04244 150.993409 
C 913.598523 150.993409 914.131904 150.440164 914.525114 149.45552 
C 914.918323 148.470876 915.139257 147.135224 915.139257 145.742727 
C 915.139257 144.35023 914.918323 143.014579 914.525114 142.029935 
C 914.131904 141.04529 913.598523 140.492045 913.04244 140.492045 
C 912.486358 140.492045 911.952976 141.04529 911.559767 142.029935 
C 911.166557 143.014579 910.945623 144.35023 910.945623 145.742727 
C 910.945623 147.135224 911.166557 148.470876 911.559767 149.45552 
C 911.952976 150.440164 912.486358 150.993409 913.04244 150.993409 
z
" style="fill:#00c832;stroke:#ffffff;stroke-linejoin:miter;stroke-width:0.5;"/>
   </g>
   <g id="829f60dc027d4705bb19d322485eaa57-13-node">
    <path clip-path="url(#p7d1bea8bc3)" d="M 902.80504 140.492045 
L 902.80504 150.993409 
L 898.611406 150.993409 
L 898.611406 140.492045 
L 902.80504 140.492045 
z
" style="fill:#0000ff;stroke:#ffffff;stroke-linejoin:miter;stroke-width:0.5;"/>
   </g>
   <g id="829f60dc027d4705bb19d322485eaa57-15-node">
    <path clip-path="url(#p7d1bea8bc3)" d="M 888.374005 150.993409 
C 888.930088 150.993409 889.463469 150.440164 889.856679 149.45552 
C 890.249888 148.470876 890.470822 147.135224 890.470822 145.742727 
C 890.470822 144.35023 890.249888 143.014579 889.856679 142.029935 
C 889.463469 141.04529 888.930088 140.492045 888.374005 140.492045 
C 887.817923 140.492045 887.284541 141.04529 886.891332 142.029935 
C 886.498122 143.014579 886.277188 144.35023 886.277188 145.742727 
C 886.277188 147.135224 886.498122 148.470876 886.891332 149.45552 
C 887.284541 150.440164 887.817923 150.993409 888.374005 150.993409 
z
" style="fill:#ffff00;stroke:#ffffff;stroke-linejoin:miter;stroke-width:0.5;"/>
   </g>
   <g id="829f60dc027d4705bb19d322485eaa57-16-node">
    <path clip-path="url(#p7d1bea8bc3)" d="M 876.039788 140.492045 
L 873.942971 145.742727 
L 876.039788 150.993409 
L 878.136605 145.742727 
z
" style="fill:#c800c8;stroke:#ffffff;stroke-linejoin:miter;stroke-width:0.5;"/>
   </g>
   <g id="829f60dc027d4705bb19d322485eaa57-6-node">
    <path clip-path="url(#p7d1bea8bc3)" d="M 913.04244 120.107045 
C 913.598523 120.107045 914.131904 119.5538 914.525114 118.569156 
C 914.918323 117.584512 915.139257 116.248861 915.139257 114.856364 
C 915.139257 113.463867 914.918323 112.128215 914.525114 111.143571 
C 914.131904 110.158927 913.598523 109.605682 913.04244 109.605682 
C 912.486358 109.605682 911.952976 110.158927 911.559767 111.143571 
C 911.166557 112.128215 910.945623 113.463867 910.945623 114.856364 
C 910.945623 116.248861 911.166557 117.584512 911.559767 118.569156 
C 911.952976 119.5538 912.486358 120.107045 913.04244 120.107045 
z
" style="fill:#00c832;stroke:#ffffff;stroke-linejoin:miter;stroke-width:0.5;"/>
   </g>
   <g id="829f60dc027d4705bb19d322485eaa57-7-node">
    <path clip-path="url(#p7d1bea8bc3)" d="M 902.80504 109.605682 
L 902.80504 120.107045 
L 898.611406 120.107045 
L 898.611406 109.605682 
L 902.80504 109.605682 
z
" style="fill:#0000ff;stroke:#ffffff;stroke-linejoin:miter;stroke-width:0.5;"/>
   </g>
   <g id="829f60dc027d4705bb19d322485eaa57-9-node">
    <path clip-path="url(#p7d1bea8bc3)" d="M 888.374005 120.107045 
C 888.930088 120.107045 889.463469 119.5538 889.856679 118.569156 
C 890.249888 117.584512 890.470822 116.248861 890.470822 114.856364 
C 890.470822 113.463867 890.249888 112.128215 889.856679 111.143571 
C 889.463469 110.158927 888.930088 109.605682 888.374005 109.605682 
C 887.817923 109.605682 887.284541 110.158927 886.891332 111.143571 
C 886.498122 112.128215 886.277188 113.463867 886.277188 114.856364 
C 886.277188 116.248861 886.498122 117.584512 886.891332 118.569156 
C 887.284541 119.5538 887.817923 120.107045 888.374005 120.107045 
z
" style="fill:#ffff00;stroke:#ffffff;stroke-linejoin:miter;stroke-width:0.5;"/>
   </g>
   <g id="829f60dc027d4705bb19d322485eaa57-10-node">
    <path clip-path="url(#p7d1bea8bc3)" d="M 876.039788 109.605682 
L 873.942971 114.856364 
L 876.039788 120.107045 
L 878.136605 114.856364 
z
" style="fill:#c800c8;stroke:#ffffff;stroke-linejoin:miter;stroke-width:0.5;"/>
   </g>
   <g id="patch_68">
    <path d="M 827.689655 166.745455 
L 827.689655 43.2 
" style="fill:none;stroke:#ffffff;stroke-linecap:square;stroke-linejoin:miter;stroke-width:1.25;"/>
   </g>
   <g id="patch_69">
    <path d="M 972 166.745455 
L 972 43.2 
" style="fill:none;stroke:#ffffff;stroke-linecap:square;stroke-linejoin:miter;stroke-width:1.25;"/>
   </g>
   <g id="patch_70">
    <path d="M 827.689655 166.745455 
L 972 166.745455 
" style="fill:none;stroke:#ffffff;stroke-linecap:square;stroke-linejoin:miter;stroke-width:1.25;"/>
   </g>
   <g id="patch_71">
    <path d="M 827.689655 43.2 
L 972 43.2 
" style="fill:none;stroke:#ffffff;stroke-linecap:square;stroke-linejoin:miter;stroke-width:1.25;"/>
   </g>
   <g id="text_5">
    <!-- 154:1 -->
    <g style="fill:#262626;" transform="translate(884.831703 37.2)scale(0.12 -0.12)">
     <use xlink:href="#ArialMT-49"/>
     <use x="55.615234" xlink:href="#ArialMT-53"/>
     <use x="111.230469" xlink:href="#ArialMT-52"/>
     <use x="166.845703" xlink:href="#ArialMT-58"/>
     <use x="194.628906" xlink:href="#ArialMT-49"/>
    </g>
   </g>
  </g>
  <g id="axes_6">
   <g id="patch_72">
    <path d="M 135 315 
L 279.310345 315 
L 279.310345 191.454545 
L 135 191.454545 
z
" style="fill:#ffffff;"/>
   </g>
   <g id="patch_73">
    <path clip-path="url(#pc7110ce147)" d="M 195.68435 293.997273 
L 183.350133 293.997273 
" style="stroke:#000000;stroke-linejoin:miter;stroke-width:0.5;"/>
   </g>
   <g id="patch_74">
    <path clip-path="url(#pc7110ce147)" d="M 208.018568 293.997273 
L 195.68435 293.997273 
" style="stroke:#000000;stroke-linejoin:miter;stroke-width:0.5;"/>
   </g>
   <g id="patch_75">
    <path clip-path="url(#pc7110ce147)" d="M 220.352785 293.997273 
L 208.018568 293.997273 
" style="stroke:#000000;stroke-linejoin:miter;stroke-width:0.5;"/>
   </g>
   <g id="patch_76">
    <path clip-path="url(#pc7110ce147)" d="M 232.687003 278.554091 
L 220.352785 293.997273 
" style="stroke:#000000;stroke-linejoin:miter;stroke-width:0.5;"/>
   </g>
   <g id="patch_77">
    <path clip-path="url(#pc7110ce147)" d="M 208.018568 263.110909 
L 195.68435 263.110909 
" style="stroke:#000000;stroke-linejoin:miter;stroke-width:0.5;"/>
   </g>
   <g id="patch_78">
    <path clip-path="url(#pc7110ce147)" d="M 220.352785 263.110909 
L 208.018568 263.110909 
" style="stroke:#000000;stroke-linejoin:miter;stroke-width:0.5;"/>
   </g>
   <g id="patch_79">
    <path clip-path="url(#pc7110ce147)" d="M 232.687003 278.554091 
L 220.352785 263.110909 
" style="stroke:#000000;stroke-linejoin:miter;stroke-width:0.5;"/>
   </g>
   <g id="patch_80">
    <path clip-path="url(#pc7110ce147)" d="M 245.02122 278.554091 
L 232.687003 278.554091 
" style="stroke:#000000;stroke-linejoin:miter;stroke-width:0.5;"/>
   </g>
   <g id="patch_81">
    <path clip-path="url(#pc7110ce147)" d="M 257.355438 278.554091 
L 245.02122 278.554091 
" style="stroke:#000000;stroke-linejoin:miter;stroke-width:0.5;"/>
   </g>
   <g id="patch_82">
    <path clip-path="url(#pc7110ce147)" d="M 257.355438 278.554091 
L 257.355438 263.110909 
" style="stroke:#000000;stroke-linejoin:miter;stroke-width:0.5;"/>
   </g>
   <g id="3faf9515a309422eb8a3b0035757f33e-1-node">
    <path clip-path="url(#pc7110ce147)" d="M 259.452255 273.303409 
L 259.452255 283.804773 
L 255.258621 283.804773 
L 255.258621 273.303409 
L 259.452255 273.303409 
z
" style="fill:#0000ff;stroke:#ffffff;stroke-linejoin:miter;stroke-width:0.5;"/>
   </g>
   <g id="3faf9515a309422eb8a3b0035757f33e-4-node">
    <path clip-path="url(#pc7110ce147)" d="M 247.118037 273.303409 
L 247.118037 283.804773 
L 242.924403 283.804773 
L 242.924403 273.303409 
L 247.118037 273.303409 
z
" style="fill:#0000ff;stroke:#ffffff;stroke-linejoin:miter;stroke-width:0.5;"/>
   </g>
   <g id="3faf9515a309422eb8a3b0035757f33e-6-node">
    <path clip-path="url(#pc7110ce147)" d="M 232.687003 283.804773 
C 233.243085 283.804773 233.776467 283.251528 234.169676 282.266884 
C 234.562886 281.282239 234.78382 279.946588 234.78382 278.554091 
C 234.78382 277.161594 234.562886 275.825942 234.169676 274.841298 
C 233.776467 273.856654 233.243085 273.303409 232.687003 273.303409 
C 232.13092 273.303409 231.597539 273.856654 231.204329 274.841298 
C 230.81112 275.825942 230.590186 277.161594 230.590186 278.554091 
C 230.590186 279.946588 230.81112 281.282239 231.204329 282.266884 
C 231.597539 283.251528 232.13092 283.804773 232.687003 283.804773 
z
" style="fill:#00c832;stroke:#ffffff;stroke-linejoin:miter;stroke-width:0.5;"/>
   </g>
   <g id="3faf9515a309422eb8a3b0035757f33e-11-node">
    <path clip-path="url(#pc7110ce147)" d="M 220.352785 299.247955 
C 220.908868 299.247955 221.442249 298.69471 221.835459 297.710065 
C 222.228668 296.725421 222.449602 295.38977 222.449602 293.997273 
C 222.449602 292.604776 222.228668 291.269124 221.835459 290.28448 
C 221.442249 289.299836 220.908868 288.746591 220.352785 288.746591 
C 219.796703 288.746591 219.263321 289.299836 218.870112 290.28448 
C 218.476902 291.269124 218.255968 292.604776 218.255968 293.997273 
C 218.255968 295.38977 218.476902 296.725421 218.870112 297.710065 
C 219.263321 298.69471 219.796703 299.247955 220.352785 299.247955 
z
" style="fill:#00c832;stroke:#ffffff;stroke-linejoin:miter;stroke-width:0.5;"/>
   </g>
   <g id="3faf9515a309422eb8a3b0035757f33e-12-node">
    <path clip-path="url(#pc7110ce147)" d="M 210.115385 288.746591 
L 210.115385 299.247955 
L 205.921751 299.247955 
L 205.921751 288.746591 
L 210.115385 288.746591 
z
" style="fill:#0000ff;stroke:#ffffff;stroke-linejoin:miter;stroke-width:0.5;"/>
   </g>
   <g id="3faf9515a309422eb8a3b0035757f33e-14-node">
    <path clip-path="url(#pc7110ce147)" d="M 195.68435 299.247955 
C 196.240432 299.247955 196.773814 298.69471 197.167024 297.710065 
C 197.560233 296.725421 197.781167 295.38977 197.781167 293.997273 
C 197.781167 292.604776 197.560233 291.269124 197.167024 290.28448 
C 196.773814 289.299836 196.240432 288.746591 195.68435 288.746591 
C 195.128268 288.746591 194.594886 289.299836 194.201677 290.28448 
C 193.808467 291.269124 193.587533 292.604776 193.587533 293.997273 
C 193.587533 295.38977 193.808467 296.725421 194.201677 297.710065 
C 194.594886 298.69471 195.128268 299.247955 195.68435 299.247955 
z
" style="fill:#ffff00;stroke:#ffffff;stroke-linejoin:miter;stroke-width:0.5;"/>
   </g>
   <g id="3faf9515a309422eb8a3b0035757f33e-15-node">
    <path clip-path="url(#pc7110ce147)" d="M 183.350133 288.746591 
L 181.253316 293.997273 
L 183.350133 299.247955 
L 185.44695 293.997273 
z
" style="fill:#c800c8;stroke:#ffffff;stroke-linejoin:miter;stroke-width:0.5;"/>
   </g>
   <g id="3faf9515a309422eb8a3b0035757f33e-7-node">
    <path clip-path="url(#pc7110ce147)" d="M 220.352785 268.361591 
C 220.908868 268.361591 221.442249 267.808346 221.835459 266.823702 
C 222.228668 265.839058 222.449602 264.503406 222.449602 263.110909 
C 222.449602 261.718412 222.228668 260.382761 221.835459 259.398116 
C 221.442249 258.413472 220.908868 257.860227 220.352785 257.860227 
C 219.796703 257.860227 219.263321 258.413472 218.870112 259.398116 
C 218.476902 260.382761 218.255968 261.718412 218.255968 263.110909 
C 218.255968 264.503406 218.476902 265.839058 218.870112 266.823702 
C 219.263321 267.808346 219.796703 268.361591 220.352785 268.361591 
z
" style="fill:#00c832;stroke:#ffffff;stroke-linejoin:miter;stroke-width:0.5;"/>
   </g>
   <g id="3faf9515a309422eb8a3b0035757f33e-8-node">
    <path clip-path="url(#pc7110ce147)" d="M 210.115385 257.860227 
L 210.115385 268.361591 
L 205.921751 268.361591 
L 205.921751 257.860227 
L 210.115385 257.860227 
z
" style="fill:#0000ff;stroke:#ffffff;stroke-linejoin:miter;stroke-width:0.5;"/>
   </g>
   <g id="3faf9515a309422eb8a3b0035757f33e-10-node">
    <path clip-path="url(#pc7110ce147)" d="M 195.68435 268.361591 
C 196.240432 268.361591 196.773814 267.808346 197.167024 266.823702 
C 197.560233 265.839058 197.781167 264.503406 197.781167 263.110909 
C 197.781167 261.718412 197.560233 260.382761 197.167024 259.398116 
C 196.773814 258.413472 196.240432 257.860227 195.68435 257.860227 
C 195.128268 257.860227 194.594886 258.413472 194.201677 259.398116 
C 193.808467 260.382761 193.587533 261.718412 193.587533 263.110909 
C 193.587533 264.503406 193.808467 265.839058 194.201677 266.823702 
C 194.594886 267.808346 195.128268 268.361591 195.68435 268.361591 
z
" style="fill:#ffff00;stroke:#ffffff;stroke-linejoin:miter;stroke-width:0.5;"/>
   </g>
   <g id="3faf9515a309422eb8a3b0035757f33e-3-node">
    <path clip-path="url(#pc7110ce147)" d="M 257.355438 257.860227 
L 255.539541 265.73625 
L 259.171334 265.73625 
z
" style="fill:#ff0000;stroke:#ffffff;stroke-linejoin:miter;stroke-width:0.5;"/>
   </g>
   <g id="patch_83">
    <path d="M 135 315 
L 135 191.454545 
" style="fill:none;stroke:#ffffff;stroke-linecap:square;stroke-linejoin:miter;stroke-width:1.25;"/>
   </g>
   <g id="patch_84">
    <path d="M 279.310345 315 
L 279.310345 191.454545 
" style="fill:none;stroke:#ffffff;stroke-linecap:square;stroke-linejoin:miter;stroke-width:1.25;"/>
   </g>
   <g id="patch_85">
    <path d="M 135 315 
L 279.310345 315 
" style="fill:none;stroke:#ffffff;stroke-linecap:square;stroke-linejoin:miter;stroke-width:1.25;"/>
   </g>
   <g id="patch_86">
    <path d="M 135 191.454545 
L 279.310345 191.454545 
" style="fill:none;stroke:#ffffff;stroke-linecap:square;stroke-linejoin:miter;stroke-width:1.25;"/>
   </g>
   <g id="text_6">
    <!-- 159:2.0 -->
    <g style="fill:#262626;" transform="translate(187.13861 185.454545)scale(0.12 -0.12)">
     <use xlink:href="#ArialMT-49"/>
     <use x="55.615234" xlink:href="#ArialMT-53"/>
     <use x="111.230469" xlink:href="#ArialMT-57"/>
     <use x="166.845703" xlink:href="#ArialMT-58"/>
     <use x="194.628906" xlink:href="#ArialMT-50"/>
     <use x="250.244141" xlink:href="#ArialMT-46"/>
     <use x="278.027344" xlink:href="#ArialMT-48"/>
    </g>
   </g>
  </g>
  <g id="axes_7">
   <g id="patch_87">
    <path d="M 308.172414 315 
L 452.482759 315 
L 452.482759 191.454545 
L 308.172414 191.454545 
z
" style="fill:#ffffff;"/>
   </g>
   <g id="patch_88">
    <path clip-path="url(#p807bc11d1f)" d="M 381.190981 293.997273 
L 368.856764 293.997273 
" style="stroke:#000000;stroke-linejoin:miter;stroke-width:0.5;"/>
   </g>
   <g id="patch_89">
    <path clip-path="url(#p807bc11d1f)" d="M 393.525199 293.997273 
L 381.190981 293.997273 
" style="stroke:#000000;stroke-linejoin:miter;stroke-width:0.5;"/>
   </g>
   <g id="patch_90">
    <path clip-path="url(#p807bc11d1f)" d="M 405.859416 278.554091 
L 393.525199 293.997273 
" style="stroke:#000000;stroke-linejoin:miter;stroke-width:0.5;"/>
   </g>
   <g id="patch_91">
    <path clip-path="url(#p807bc11d1f)" d="M 368.856764 263.110909 
L 356.522546 263.110909 
" style="stroke:#000000;stroke-linejoin:miter;stroke-width:0.5;"/>
   </g>
   <g id="patch_92">
    <path clip-path="url(#p807bc11d1f)" d="M 381.190981 263.110909 
L 368.856764 263.110909 
" style="stroke:#000000;stroke-linejoin:miter;stroke-width:0.5;"/>
   </g>
   <g id="patch_93">
    <path clip-path="url(#p807bc11d1f)" d="M 393.525199 263.110909 
L 381.190981 263.110909 
" style="stroke:#000000;stroke-linejoin:miter;stroke-width:0.5;"/>
   </g>
   <g id="patch_94">
    <path clip-path="url(#p807bc11d1f)" d="M 405.859416 278.554091 
L 393.525199 263.110909 
" style="stroke:#000000;stroke-linejoin:miter;stroke-width:0.5;"/>
   </g>
   <g id="patch_95">
    <path clip-path="url(#p807bc11d1f)" d="M 418.193634 278.554091 
L 405.859416 278.554091 
" style="stroke:#000000;stroke-linejoin:miter;stroke-width:0.5;"/>
   </g>
   <g id="patch_96">
    <path clip-path="url(#p807bc11d1f)" d="M 430.527851 278.554091 
L 418.193634 278.554091 
" style="stroke:#000000;stroke-linejoin:miter;stroke-width:0.5;"/>
   </g>
   <g id="patch_97">
    <path clip-path="url(#p807bc11d1f)" d="M 430.527851 278.554091 
L 430.527851 263.110909 
" style="stroke:#000000;stroke-linejoin:miter;stroke-width:0.5;"/>
   </g>
   <g id="7f84abb0d7b04a31b44aa6fec30d0b59-1-node">
    <path clip-path="url(#p807bc11d1f)" d="M 432.624668 273.303409 
L 432.624668 283.804773 
L 428.431034 283.804773 
L 428.431034 273.303409 
L 432.624668 273.303409 
z
" style="fill:#0000ff;stroke:#ffffff;stroke-linejoin:miter;stroke-width:0.5;"/>
   </g>
   <g id="7f84abb0d7b04a31b44aa6fec30d0b59-4-node">
    <path clip-path="url(#p807bc11d1f)" d="M 420.290451 273.303409 
L 420.290451 283.804773 
L 416.096817 283.804773 
L 416.096817 273.303409 
L 420.290451 273.303409 
z
" style="fill:#0000ff;stroke:#ffffff;stroke-linejoin:miter;stroke-width:0.5;"/>
   </g>
   <g id="7f84abb0d7b04a31b44aa6fec30d0b59-6-node">
    <path clip-path="url(#p807bc11d1f)" d="M 405.859416 283.804773 
C 406.415499 283.804773 406.94888 283.251528 407.34209 282.266884 
C 407.7353 281.282239 407.956233 279.946588 407.956233 278.554091 
C 407.956233 277.161594 407.7353 275.825942 407.34209 274.841298 
C 406.94888 273.856654 406.415499 273.303409 405.859416 273.303409 
C 405.303334 273.303409 404.769953 273.856654 404.376743 274.841298 
C 403.983533 275.825942 403.762599 277.161594 403.762599 278.554091 
C 403.762599 279.946588 403.983533 281.282239 404.376743 282.266884 
C 404.769953 283.251528 405.303334 283.804773 405.859416 283.804773 
z
" style="fill:#00c832;stroke:#ffffff;stroke-linejoin:miter;stroke-width:0.5;"/>
   </g>
   <g id="7f84abb0d7b04a31b44aa6fec30d0b59-13-node">
    <path clip-path="url(#p807bc11d1f)" d="M 393.525199 299.247955 
C 394.081281 299.247955 394.614663 298.69471 395.007872 297.710065 
C 395.401082 296.725421 395.622016 295.38977 395.622016 293.997273 
C 395.622016 292.604776 395.401082 291.269124 395.007872 290.28448 
C 394.614663 289.299836 394.081281 288.746591 393.525199 288.746591 
C 392.969117 288.746591 392.435735 289.299836 392.042525 290.28448 
C 391.649316 291.269124 391.428382 292.604776 391.428382 293.997273 
C 391.428382 295.38977 391.649316 296.725421 392.042525 297.710065 
C 392.435735 298.69471 392.969117 299.247955 393.525199 299.247955 
z
" style="fill:#00c832;stroke:#ffffff;stroke-linejoin:miter;stroke-width:0.5;"/>
   </g>
   <g id="7f84abb0d7b04a31b44aa6fec30d0b59-14-node">
    <path clip-path="url(#p807bc11d1f)" d="M 383.287798 288.746591 
L 383.287798 299.247955 
L 379.094164 299.247955 
L 379.094164 288.746591 
L 383.287798 288.746591 
z
" style="fill:#0000ff;stroke:#ffffff;stroke-linejoin:miter;stroke-width:0.5;"/>
   </g>
   <g id="7f84abb0d7b04a31b44aa6fec30d0b59-16-node">
    <path clip-path="url(#p807bc11d1f)" d="M 368.856764 299.247955 
C 369.412846 299.247955 369.946228 298.69471 370.339437 297.710065 
C 370.732647 296.725421 370.953581 295.38977 370.953581 293.997273 
C 370.953581 292.604776 370.732647 291.269124 370.339437 290.28448 
C 369.946228 289.299836 369.412846 288.746591 368.856764 288.746591 
C 368.300682 288.746591 367.7673 289.299836 367.37409 290.28448 
C 366.980881 291.269124 366.759947 292.604776 366.759947 293.997273 
C 366.759947 295.38977 366.980881 296.725421 367.37409 297.710065 
C 367.7673 298.69471 368.300682 299.247955 368.856764 299.247955 
z
" style="fill:#ffff00;stroke:#ffffff;stroke-linejoin:miter;stroke-width:0.5;"/>
   </g>
   <g id="7f84abb0d7b04a31b44aa6fec30d0b59-7-node">
    <path clip-path="url(#p807bc11d1f)" d="M 393.525199 268.361591 
C 394.081281 268.361591 394.614663 267.808346 395.007872 266.823702 
C 395.401082 265.839058 395.622016 264.503406 395.622016 263.110909 
C 395.622016 261.718412 395.401082 260.382761 395.007872 259.398116 
C 394.614663 258.413472 394.081281 257.860227 393.525199 257.860227 
C 392.969117 257.860227 392.435735 258.413472 392.042525 259.398116 
C 391.649316 260.382761 391.428382 261.718412 391.428382 263.110909 
C 391.428382 264.503406 391.649316 265.839058 392.042525 266.823702 
C 392.435735 267.808346 392.969117 268.361591 393.525199 268.361591 
z
" style="fill:#00c832;stroke:#ffffff;stroke-linejoin:miter;stroke-width:0.5;"/>
   </g>
   <g id="7f84abb0d7b04a31b44aa6fec30d0b59-8-node">
    <path clip-path="url(#p807bc11d1f)" d="M 383.287798 257.860227 
L 383.287798 268.361591 
L 379.094164 268.361591 
L 379.094164 257.860227 
L 383.287798 257.860227 
z
" style="fill:#0000ff;stroke:#ffffff;stroke-linejoin:miter;stroke-width:0.5;"/>
   </g>
   <g id="7f84abb0d7b04a31b44aa6fec30d0b59-10-node">
    <path clip-path="url(#p807bc11d1f)" d="M 368.856764 268.361591 
C 369.412846 268.361591 369.946228 267.808346 370.339437 266.823702 
C 370.732647 265.839058 370.953581 264.503406 370.953581 263.110909 
C 370.953581 261.718412 370.732647 260.382761 370.339437 259.398116 
C 369.946228 258.413472 369.412846 257.860227 368.856764 257.860227 
C 368.300682 257.860227 367.7673 258.413472 367.37409 259.398116 
C 366.980881 260.382761 366.759947 261.718412 366.759947 263.110909 
C 366.759947 264.503406 366.980881 265.839058 367.37409 266.823702 
C 367.7673 267.808346 368.300682 268.361591 368.856764 268.361591 
z
" style="fill:#ffff00;stroke:#ffffff;stroke-linejoin:miter;stroke-width:0.5;"/>
   </g>
   <g id="7f84abb0d7b04a31b44aa6fec30d0b59-11-node">
    <path clip-path="url(#p807bc11d1f)" d="M 356.522546 257.860227 
L 354.425729 263.110909 
L 356.522546 268.361591 
L 358.619363 263.110909 
z
" style="fill:#c800c8;stroke:#ffffff;stroke-linejoin:miter;stroke-width:0.5;"/>
   </g>
   <g id="7f84abb0d7b04a31b44aa6fec30d0b59-3-node">
    <path clip-path="url(#p807bc11d1f)" d="M 430.527851 257.860227 
L 428.711955 265.73625 
L 432.343748 265.73625 
z
" style="fill:#ff0000;stroke:#ffffff;stroke-linejoin:miter;stroke-width:0.5;"/>
   </g>
   <g id="patch_98">
    <path d="M 308.172414 315 
L 308.172414 191.454545 
" style="fill:none;stroke:#ffffff;stroke-linecap:square;stroke-linejoin:miter;stroke-width:1.25;"/>
   </g>
   <g id="patch_99">
    <path d="M 452.482759 315 
L 452.482759 191.454545 
" style="fill:none;stroke:#ffffff;stroke-linecap:square;stroke-linejoin:miter;stroke-width:1.25;"/>
   </g>
   <g id="patch_100">
    <path d="M 308.172414 315 
L 452.482759 315 
" style="fill:none;stroke:#ffffff;stroke-linecap:square;stroke-linejoin:miter;stroke-width:1.25;"/>
   </g>
   <g id="patch_101">
    <path d="M 308.172414 191.454545 
L 452.482759 191.454545 
" style="fill:none;stroke:#ffffff;stroke-linecap:square;stroke-linejoin:miter;stroke-width:1.25;"/>
   </g>
   <g id="text_7">
    <!-- 160:1 -->
    <defs>
     <path d="M 49.75 54.046875 
L 41.015625 53.375 
Q 39.84375 58.546875 37.703125 60.890625 
Q 34.125 64.65625 28.90625 64.65625 
Q 24.703125 64.65625 21.53125 62.3125 
Q 17.390625 59.28125 14.984375 53.46875 
Q 12.59375 47.65625 12.5 36.921875 
Q 15.671875 41.75 20.265625 44.09375 
Q 24.859375 46.4375 29.890625 46.4375 
Q 38.671875 46.4375 44.84375 39.96875 
Q 51.03125 33.5 51.03125 23.25 
Q 51.03125 16.5 48.125 10.71875 
Q 45.21875 4.9375 40.140625 1.859375 
Q 35.0625 -1.21875 28.609375 -1.21875 
Q 17.625 -1.21875 10.6875 6.859375 
Q 3.765625 14.9375 3.765625 33.5 
Q 3.765625 54.25 11.421875 63.671875 
Q 18.109375 71.875 29.4375 71.875 
Q 37.890625 71.875 43.28125 67.140625 
Q 48.6875 62.40625 49.75 54.046875 
z
M 13.875 23.1875 
Q 13.875 18.65625 15.796875 14.5 
Q 17.71875 10.359375 21.1875 8.171875 
Q 24.65625 6 28.46875 6 
Q 34.03125 6 38.03125 10.484375 
Q 42.046875 14.984375 42.046875 22.703125 
Q 42.046875 30.125 38.078125 34.390625 
Q 34.125 38.671875 28.125 38.671875 
Q 22.171875 38.671875 18.015625 34.390625 
Q 13.875 30.125 13.875 23.1875 
z
" id="ArialMT-54"/>
    </defs>
    <g style="fill:#262626;" transform="translate(365.314461 185.454545)scale(0.12 -0.12)">
     <use xlink:href="#ArialMT-49"/>
     <use x="55.615234" xlink:href="#ArialMT-54"/>
     <use x="111.230469" xlink:href="#ArialMT-48"/>
     <use x="166.845703" xlink:href="#ArialMT-58"/>
     <use x="194.628906" xlink:href="#ArialMT-49"/>
    </g>
   </g>
  </g>
  <g id="axes_8">
   <g id="patch_102">
    <path d="M 481.344828 315 
L 625.655172 315 
L 625.655172 191.454545 
L 481.344828 191.454545 
z
" style="fill:#ffffff;"/>
   </g>
   <g id="patch_103">
    <path clip-path="url(#pc748ff9ce8)" d="M 542.029178 293.997273 
L 529.69496 293.997273 
" style="stroke:#000000;stroke-linejoin:miter;stroke-width:0.5;"/>
   </g>
   <g id="patch_104">
    <path clip-path="url(#pc748ff9ce8)" d="M 554.363395 293.997273 
L 542.029178 293.997273 
" style="stroke:#000000;stroke-linejoin:miter;stroke-width:0.5;"/>
   </g>
   <g id="patch_105">
    <path clip-path="url(#pc748ff9ce8)" d="M 566.697613 293.997273 
L 554.363395 293.997273 
" style="stroke:#000000;stroke-linejoin:miter;stroke-width:0.5;"/>
   </g>
   <g id="patch_106">
    <path clip-path="url(#pc748ff9ce8)" d="M 579.03183 278.554091 
L 566.697613 293.997273 
" style="stroke:#000000;stroke-linejoin:miter;stroke-width:0.5;"/>
   </g>
   <g id="patch_107">
    <path clip-path="url(#pc748ff9ce8)" d="M 542.029178 263.110909 
L 529.69496 263.110909 
" style="stroke:#000000;stroke-linejoin:miter;stroke-width:0.5;"/>
   </g>
   <g id="patch_108">
    <path clip-path="url(#pc748ff9ce8)" d="M 554.363395 263.110909 
L 542.029178 263.110909 
" style="stroke:#000000;stroke-linejoin:miter;stroke-width:0.5;"/>
   </g>
   <g id="patch_109">
    <path clip-path="url(#pc748ff9ce8)" d="M 566.697613 263.110909 
L 554.363395 263.110909 
" style="stroke:#000000;stroke-linejoin:miter;stroke-width:0.5;"/>
   </g>
   <g id="patch_110">
    <path clip-path="url(#pc748ff9ce8)" d="M 579.03183 278.554091 
L 566.697613 263.110909 
" style="stroke:#000000;stroke-linejoin:miter;stroke-width:0.5;"/>
   </g>
   <g id="patch_111">
    <path clip-path="url(#pc748ff9ce8)" d="M 591.366048 278.554091 
L 579.03183 278.554091 
" style="stroke:#000000;stroke-linejoin:miter;stroke-width:0.5;"/>
   </g>
   <g id="patch_112">
    <path clip-path="url(#pc748ff9ce8)" d="M 603.700265 278.554091 
L 591.366048 278.554091 
" style="stroke:#000000;stroke-linejoin:miter;stroke-width:0.5;"/>
   </g>
   <g id="patch_113">
    <path clip-path="url(#pc748ff9ce8)" d="M 603.700265 278.554091 
L 603.700265 263.110909 
" style="stroke:#000000;stroke-linejoin:miter;stroke-width:0.5;"/>
   </g>
   <g id="994145aa7e0f4ee2a053d174d48c624f-1-node">
    <path clip-path="url(#pc748ff9ce8)" d="M 605.797082 273.303409 
L 605.797082 283.804773 
L 601.603448 283.804773 
L 601.603448 273.303409 
L 605.797082 273.303409 
z
" style="fill:#0000ff;stroke:#ffffff;stroke-linejoin:miter;stroke-width:0.5;"/>
   </g>
   <g id="994145aa7e0f4ee2a053d174d48c624f-4-node">
    <path clip-path="url(#pc748ff9ce8)" d="M 593.462865 273.303409 
L 593.462865 283.804773 
L 589.269231 283.804773 
L 589.269231 273.303409 
L 593.462865 273.303409 
z
" style="fill:#0000ff;stroke:#ffffff;stroke-linejoin:miter;stroke-width:0.5;"/>
   </g>
   <g id="994145aa7e0f4ee2a053d174d48c624f-6-node">
    <path clip-path="url(#pc748ff9ce8)" d="M 579.03183 283.804773 
C 579.587913 283.804773 580.121294 283.251528 580.514504 282.266884 
C 580.907713 281.282239 581.128647 279.946588 581.128647 278.554091 
C 581.128647 277.161594 580.907713 275.825942 580.514504 274.841298 
C 580.121294 273.856654 579.587913 273.303409 579.03183 273.303409 
C 578.475748 273.303409 577.942366 273.856654 577.549157 274.841298 
C 577.155947 275.825942 576.935013 277.161594 576.935013 278.554091 
C 576.935013 279.946588 577.155947 281.282239 577.549157 282.266884 
C 577.942366 283.251528 578.475748 283.804773 579.03183 283.804773 
z
" style="fill:#00c832;stroke:#ffffff;stroke-linejoin:miter;stroke-width:0.5;"/>
   </g>
   <g id="994145aa7e0f4ee2a053d174d48c624f-13-node">
    <path clip-path="url(#pc748ff9ce8)" d="M 566.697613 299.247955 
C 567.253695 299.247955 567.787077 298.69471 568.180286 297.710065 
C 568.573496 296.725421 568.79443 295.38977 568.79443 293.997273 
C 568.79443 292.604776 568.573496 291.269124 568.180286 290.28448 
C 567.787077 289.299836 567.253695 288.746591 566.697613 288.746591 
C 566.14153 288.746591 565.608149 289.299836 565.214939 290.28448 
C 564.82173 291.269124 564.600796 292.604776 564.600796 293.997273 
C 564.600796 295.38977 564.82173 296.725421 565.214939 297.710065 
C 565.608149 298.69471 566.14153 299.247955 566.697613 299.247955 
z
" style="fill:#00c832;stroke:#ffffff;stroke-linejoin:miter;stroke-width:0.5;"/>
   </g>
   <g id="994145aa7e0f4ee2a053d174d48c624f-14-node">
    <path clip-path="url(#pc748ff9ce8)" d="M 556.460212 288.746591 
L 556.460212 299.247955 
L 552.266578 299.247955 
L 552.266578 288.746591 
L 556.460212 288.746591 
z
" style="fill:#0000ff;stroke:#ffffff;stroke-linejoin:miter;stroke-width:0.5;"/>
   </g>
   <g id="994145aa7e0f4ee2a053d174d48c624f-16-node">
    <path clip-path="url(#pc748ff9ce8)" d="M 542.029178 299.247955 
C 542.58526 299.247955 543.118642 298.69471 543.511851 297.710065 
C 543.905061 296.725421 544.125995 295.38977 544.125995 293.997273 
C 544.125995 292.604776 543.905061 291.269124 543.511851 290.28448 
C 543.118642 289.299836 542.58526 288.746591 542.029178 288.746591 
C 541.473095 288.746591 540.939714 289.299836 540.546504 290.28448 
C 540.153295 291.269124 539.932361 292.604776 539.932361 293.997273 
C 539.932361 295.38977 540.153295 296.725421 540.546504 297.710065 
C 540.939714 298.69471 541.473095 299.247955 542.029178 299.247955 
z
" style="fill:#ffff00;stroke:#ffffff;stroke-linejoin:miter;stroke-width:0.5;"/>
   </g>
   <g id="994145aa7e0f4ee2a053d174d48c624f-17-node">
    <path clip-path="url(#pc748ff9ce8)" d="M 529.69496 288.746591 
L 527.598143 293.997273 
L 529.69496 299.247955 
L 531.791777 293.997273 
z
" style="fill:#c800c8;stroke:#ffffff;stroke-linejoin:miter;stroke-width:0.5;"/>
   </g>
   <g id="994145aa7e0f4ee2a053d174d48c624f-7-node">
    <path clip-path="url(#pc748ff9ce8)" d="M 566.697613 268.361591 
C 567.253695 268.361591 567.787077 267.808346 568.180286 266.823702 
C 568.573496 265.839058 568.79443 264.503406 568.79443 263.110909 
C 568.79443 261.718412 568.573496 260.382761 568.180286 259.398116 
C 567.787077 258.413472 567.253695 257.860227 566.697613 257.860227 
C 566.14153 257.860227 565.608149 258.413472 565.214939 259.398116 
C 564.82173 260.382761 564.600796 261.718412 564.600796 263.110909 
C 564.600796 264.503406 564.82173 265.839058 565.214939 266.823702 
C 565.608149 267.808346 566.14153 268.361591 566.697613 268.361591 
z
" style="fill:#00c832;stroke:#ffffff;stroke-linejoin:miter;stroke-width:0.5;"/>
   </g>
   <g id="994145aa7e0f4ee2a053d174d48c624f-8-node">
    <path clip-path="url(#pc748ff9ce8)" d="M 556.460212 257.860227 
L 556.460212 268.361591 
L 552.266578 268.361591 
L 552.266578 257.860227 
L 556.460212 257.860227 
z
" style="fill:#0000ff;stroke:#ffffff;stroke-linejoin:miter;stroke-width:0.5;"/>
   </g>
   <g id="994145aa7e0f4ee2a053d174d48c624f-10-node">
    <path clip-path="url(#pc748ff9ce8)" d="M 542.029178 268.361591 
C 542.58526 268.361591 543.118642 267.808346 543.511851 266.823702 
C 543.905061 265.839058 544.125995 264.503406 544.125995 263.110909 
C 544.125995 261.718412 543.905061 260.382761 543.511851 259.398116 
C 543.118642 258.413472 542.58526 257.860227 542.029178 257.860227 
C 541.473095 257.860227 540.939714 258.413472 540.546504 259.398116 
C 540.153295 260.382761 539.932361 261.718412 539.932361 263.110909 
C 539.932361 264.503406 540.153295 265.839058 540.546504 266.823702 
C 540.939714 267.808346 541.473095 268.361591 542.029178 268.361591 
z
" style="fill:#ffff00;stroke:#ffffff;stroke-linejoin:miter;stroke-width:0.5;"/>
   </g>
   <g id="994145aa7e0f4ee2a053d174d48c624f-11-node">
    <path clip-path="url(#pc748ff9ce8)" d="M 529.69496 257.860227 
L 527.598143 263.110909 
L 529.69496 268.361591 
L 531.791777 263.110909 
z
" style="fill:#c800c8;stroke:#ffffff;stroke-linejoin:miter;stroke-width:0.5;"/>
   </g>
   <g id="994145aa7e0f4ee2a053d174d48c624f-3-node">
    <path clip-path="url(#pc748ff9ce8)" d="M 603.700265 257.860227 
L 601.884368 265.73625 
L 605.516162 265.73625 
z
" style="fill:#ff0000;stroke:#ffffff;stroke-linejoin:miter;stroke-width:0.5;"/>
   </g>
   <g id="patch_114">
    <path d="M 481.344828 315 
L 481.344828 191.454545 
" style="fill:none;stroke:#ffffff;stroke-linecap:square;stroke-linejoin:miter;stroke-width:1.25;"/>
   </g>
   <g id="patch_115">
    <path d="M 625.655172 315 
L 625.655172 191.454545 
" style="fill:none;stroke:#ffffff;stroke-linecap:square;stroke-linejoin:miter;stroke-width:1.25;"/>
   </g>
   <g id="patch_116">
    <path d="M 481.344828 315 
L 625.655172 315 
" style="fill:none;stroke:#ffffff;stroke-linecap:square;stroke-linejoin:miter;stroke-width:1.25;"/>
   </g>
   <g id="patch_117">
    <path d="M 481.344828 191.454545 
L 625.655172 191.454545 
" style="fill:none;stroke:#ffffff;stroke-linecap:square;stroke-linejoin:miter;stroke-width:1.25;"/>
   </g>
   <g id="text_8">
    <!-- 258:1 -->
    <g style="fill:#262626;" transform="translate(538.486875 185.454545)scale(0.12 -0.12)">
     <use xlink:href="#ArialMT-50"/>
     <use x="55.615234" xlink:href="#ArialMT-53"/>
     <use x="111.230469" xlink:href="#ArialMT-56"/>
     <use x="166.845703" xlink:href="#ArialMT-58"/>
     <use x="194.628906" xlink:href="#ArialMT-49"/>
    </g>
   </g>
  </g>
  <g id="axes_9">
   <g id="patch_118">
    <path d="M 654.517241 315 
L 798.827586 315 
L 798.827586 191.454545 
L 654.517241 191.454545 
z
" style="fill:#eaeaf2;"/>
   </g>
   <g id="matplotlib.axis_1">
    <g id="xtick_1">
     <g id="line2d_1">
      <path clip-path="url(#p2ab51d5d93)" d="M 654.517241 315 
L 654.517241 191.454545 
" style="fill:none;stroke:#ffffff;stroke-linecap:round;"/>
     </g>
     <g id="text_9">
      <!-- 0.00 -->
      <g style="fill:#262626;" transform="translate(643.813726 332.373594)scale(0.11 -0.11)">
       <use xlink:href="#ArialMT-48"/>
       <use x="55.615234" xlink:href="#ArialMT-46"/>
       <use x="83.398438" xlink:href="#ArialMT-48"/>
       <use x="139.013672" xlink:href="#ArialMT-48"/>
      </g>
     </g>
    </g>
    <g id="xtick_2">
     <g id="line2d_2">
      <path clip-path="url(#p2ab51d5d93)" d="M 690.594828 315 
L 690.594828 191.454545 
" style="fill:none;stroke:#ffffff;stroke-linecap:round;"/>
     </g>
     <g id="text_10">
      <!-- 0.25 -->
      <g style="fill:#262626;" transform="translate(679.891312 332.373594)scale(0.11 -0.11)">
       <use xlink:href="#ArialMT-48"/>
       <use x="55.615234" xlink:href="#ArialMT-46"/>
       <use x="83.398438" xlink:href="#ArialMT-50"/>
       <use x="139.013672" xlink:href="#ArialMT-53"/>
      </g>
     </g>
    </g>
    <g id="xtick_3">
     <g id="line2d_3">
      <path clip-path="url(#p2ab51d5d93)" d="M 726.672414 315 
L 726.672414 191.454545 
" style="fill:none;stroke:#ffffff;stroke-linecap:round;"/>
     </g>
     <g id="text_11">
      <!-- 0.50 -->
      <g style="fill:#262626;" transform="translate(715.968898 332.373594)scale(0.11 -0.11)">
       <use xlink:href="#ArialMT-48"/>
       <use x="55.615234" xlink:href="#ArialMT-46"/>
       <use x="83.398438" xlink:href="#ArialMT-53"/>
       <use x="139.013672" xlink:href="#ArialMT-48"/>
      </g>
     </g>
    </g>
    <g id="xtick_4">
     <g id="line2d_4">
      <path clip-path="url(#p2ab51d5d93)" d="M 762.75 315 
L 762.75 191.454545 
" style="fill:none;stroke:#ffffff;stroke-linecap:round;"/>
     </g>
     <g id="text_12">
      <!-- 0.75 -->
      <defs>
       <path d="M 4.734375 62.203125 
L 4.734375 70.65625 
L 51.078125 70.65625 
L 51.078125 63.8125 
Q 44.234375 56.546875 37.515625 44.484375 
Q 30.8125 32.421875 27.15625 19.671875 
Q 24.515625 10.6875 23.78125 0 
L 14.75 0 
Q 14.890625 8.453125 18.0625 20.40625 
Q 21.234375 32.375 27.171875 43.484375 
Q 33.109375 54.59375 39.796875 62.203125 
z
" id="ArialMT-55"/>
      </defs>
      <g style="fill:#262626;" transform="translate(752.046484 332.373594)scale(0.11 -0.11)">
       <use xlink:href="#ArialMT-48"/>
       <use x="55.615234" xlink:href="#ArialMT-46"/>
       <use x="83.398438" xlink:href="#ArialMT-55"/>
       <use x="139.013672" xlink:href="#ArialMT-53"/>
      </g>
     </g>
    </g>
    <g id="xtick_5">
     <g id="line2d_5">
      <path clip-path="url(#p2ab51d5d93)" d="M 798.827586 315 
L 798.827586 191.454545 
" style="fill:none;stroke:#ffffff;stroke-linecap:round;"/>
     </g>
     <g id="text_13">
      <!-- 1.00 -->
      <g style="fill:#262626;" transform="translate(788.124071 332.373594)scale(0.11 -0.11)">
       <use xlink:href="#ArialMT-49"/>
       <use x="55.615234" xlink:href="#ArialMT-46"/>
       <use x="83.398438" xlink:href="#ArialMT-48"/>
       <use x="139.013672" xlink:href="#ArialMT-48"/>
      </g>
     </g>
    </g>
   </g>
   <g id="matplotlib.axis_2">
    <g id="ytick_1">
     <g id="line2d_6">
      <path clip-path="url(#p2ab51d5d93)" d="M 654.517241 315 
L 798.827586 315 
" style="fill:none;stroke:#ffffff;stroke-linecap:round;"/>
     </g>
     <g id="text_14">
      <!-- 0.0 -->
      <g style="fill:#262626;" transform="translate(629.727241 318.936797)scale(0.11 -0.11)">
       <use xlink:href="#ArialMT-48"/>
       <use x="55.615234" xlink:href="#ArialMT-46"/>
       <use x="83.398438" xlink:href="#ArialMT-48"/>
      </g>
     </g>
    </g>
    <g id="ytick_2">
     <g id="line2d_7">
      <path clip-path="url(#p2ab51d5d93)" d="M 654.517241 290.290909 
L 798.827586 290.290909 
" style="fill:none;stroke:#ffffff;stroke-linecap:round;"/>
     </g>
     <g id="text_15">
      <!-- 0.2 -->
      <g style="fill:#262626;" transform="translate(629.727241 294.227706)scale(0.11 -0.11)">
       <use xlink:href="#ArialMT-48"/>
       <use x="55.615234" xlink:href="#ArialMT-46"/>
       <use x="83.398438" xlink:href="#ArialMT-50"/>
      </g>
     </g>
    </g>
    <g id="ytick_3">
     <g id="line2d_8">
      <path clip-path="url(#p2ab51d5d93)" d="M 654.517241 265.581818 
L 798.827586 265.581818 
" style="fill:none;stroke:#ffffff;stroke-linecap:round;"/>
     </g>
     <g id="text_16">
      <!-- 0.4 -->
      <g style="fill:#262626;" transform="translate(629.727241 269.518615)scale(0.11 -0.11)">
       <use xlink:href="#ArialMT-48"/>
       <use x="55.615234" xlink:href="#ArialMT-46"/>
       <use x="83.398438" xlink:href="#ArialMT-52"/>
      </g>
     </g>
    </g>
    <g id="ytick_4">
     <g id="line2d_9">
      <path clip-path="url(#p2ab51d5d93)" d="M 654.517241 240.872727 
L 798.827586 240.872727 
" style="fill:none;stroke:#ffffff;stroke-linecap:round;"/>
     </g>
     <g id="text_17">
      <!-- 0.6 -->
      <g style="fill:#262626;" transform="translate(629.727241 244.809524)scale(0.11 -0.11)">
       <use xlink:href="#ArialMT-48"/>
       <use x="55.615234" xlink:href="#ArialMT-46"/>
       <use x="83.398438" xlink:href="#ArialMT-54"/>
      </g>
     </g>
    </g>
    <g id="ytick_5">
     <g id="line2d_10">
      <path clip-path="url(#p2ab51d5d93)" d="M 654.517241 216.163636 
L 798.827586 216.163636 
" style="fill:none;stroke:#ffffff;stroke-linecap:round;"/>
     </g>
     <g id="text_18">
      <!-- 0.8 -->
      <g style="fill:#262626;" transform="translate(629.727241 220.100433)scale(0.11 -0.11)">
       <use xlink:href="#ArialMT-48"/>
       <use x="55.615234" xlink:href="#ArialMT-46"/>
       <use x="83.398438" xlink:href="#ArialMT-56"/>
      </g>
     </g>
    </g>
    <g id="ytick_6">
     <g id="line2d_11">
      <path clip-path="url(#p2ab51d5d93)" d="M 654.517241 191.454545 
L 798.827586 191.454545 
" style="fill:none;stroke:#ffffff;stroke-linecap:round;"/>
     </g>
     <g id="text_19">
      <!-- 1.0 -->
      <g style="fill:#262626;" transform="translate(629.727241 195.391342)scale(0.11 -0.11)">
       <use xlink:href="#ArialMT-49"/>
       <use x="55.615234" xlink:href="#ArialMT-46"/>
       <use x="83.398438" xlink:href="#ArialMT-48"/>
      </g>
     </g>
    </g>
   </g>
   <g id="patch_119">
    <path d="M 654.517241 315 
L 654.517241 191.454545 
" style="fill:none;stroke:#ffffff;stroke-linecap:square;stroke-linejoin:miter;stroke-width:1.25;"/>
   </g>
   <g id="patch_120">
    <path d="M 798.827586 315 
L 798.827586 191.454545 
" style="fill:none;stroke:#ffffff;stroke-linecap:square;stroke-linejoin:miter;stroke-width:1.25;"/>
   </g>
   <g id="patch_121">
    <path d="M 654.517241 315 
L 798.827586 315 
" style="fill:none;stroke:#ffffff;stroke-linecap:square;stroke-linejoin:miter;stroke-width:1.25;"/>
   </g>
   <g id="patch_122">
    <path d="M 654.517241 191.454545 
L 798.827586 191.454545 
" style="fill:none;stroke:#ffffff;stroke-linecap:square;stroke-linejoin:miter;stroke-width:1.25;"/>
   </g>
  </g>
  <g id="axes_10">
   <g id="patch_123">
    <path d="M 827.689655 315 
L 972 315 
L 972 191.454545 
L 827.689655 191.454545 
z
" style="fill:#eaeaf2;"/>
   </g>
   <g id="matplotlib.axis_3">
    <g id="xtick_6">
     <g id="line2d_12">
      <path clip-path="url(#pa0feb8cdcd)" d="M 827.689655 315 
L 827.689655 191.454545 
" style="fill:none;stroke:#ffffff;stroke-linecap:round;"/>
     </g>
     <g id="text_20">
      <!-- 0.00 -->
      <g style="fill:#262626;" transform="translate(816.98614 332.373594)scale(0.11 -0.11)">
       <use xlink:href="#ArialMT-48"/>
       <use x="55.615234" xlink:href="#ArialMT-46"/>
       <use x="83.398438" xlink:href="#ArialMT-48"/>
       <use x="139.013672" xlink:href="#ArialMT-48"/>
      </g>
     </g>
    </g>
    <g id="xtick_7">
     <g id="line2d_13">
      <path clip-path="url(#pa0feb8cdcd)" d="M 863.767241 315 
L 863.767241 191.454545 
" style="fill:none;stroke:#ffffff;stroke-linecap:round;"/>
     </g>
     <g id="text_21">
      <!-- 0.25 -->
      <g style="fill:#262626;" transform="translate(853.063726 332.373594)scale(0.11 -0.11)">
       <use xlink:href="#ArialMT-48"/>
       <use x="55.615234" xlink:href="#ArialMT-46"/>
       <use x="83.398438" xlink:href="#ArialMT-50"/>
       <use x="139.013672" xlink:href="#ArialMT-53"/>
      </g>
     </g>
    </g>
    <g id="xtick_8">
     <g id="line2d_14">
      <path clip-path="url(#pa0feb8cdcd)" d="M 899.844828 315 
L 899.844828 191.454545 
" style="fill:none;stroke:#ffffff;stroke-linecap:round;"/>
     </g>
     <g id="text_22">
      <!-- 0.50 -->
      <g style="fill:#262626;" transform="translate(889.141312 332.373594)scale(0.11 -0.11)">
       <use xlink:href="#ArialMT-48"/>
       <use x="55.615234" xlink:href="#ArialMT-46"/>
       <use x="83.398438" xlink:href="#ArialMT-53"/>
       <use x="139.013672" xlink:href="#ArialMT-48"/>
      </g>
     </g>
    </g>
    <g id="xtick_9">
     <g id="line2d_15">
      <path clip-path="url(#pa0feb8cdcd)" d="M 935.922414 315 
L 935.922414 191.454545 
" style="fill:none;stroke:#ffffff;stroke-linecap:round;"/>
     </g>
     <g id="text_23">
      <!-- 0.75 -->
      <g style="fill:#262626;" transform="translate(925.218898 332.373594)scale(0.11 -0.11)">
       <use xlink:href="#ArialMT-48"/>
       <use x="55.615234" xlink:href="#ArialMT-46"/>
       <use x="83.398438" xlink:href="#ArialMT-55"/>
       <use x="139.013672" xlink:href="#ArialMT-53"/>
      </g>
     </g>
    </g>
    <g id="xtick_10">
     <g id="line2d_16">
      <path clip-path="url(#pa0feb8cdcd)" d="M 972 315 
L 972 191.454545 
" style="fill:none;stroke:#ffffff;stroke-linecap:round;"/>
     </g>
     <g id="text_24">
      <!-- 1.00 -->
      <g style="fill:#262626;" transform="translate(961.296484 332.373594)scale(0.11 -0.11)">
       <use xlink:href="#ArialMT-49"/>
       <use x="55.615234" xlink:href="#ArialMT-46"/>
       <use x="83.398438" xlink:href="#ArialMT-48"/>
       <use x="139.013672" xlink:href="#ArialMT-48"/>
      </g>
     </g>
    </g>
   </g>
   <g id="matplotlib.axis_4">
    <g id="ytick_7">
     <g id="line2d_17">
      <path clip-path="url(#pa0feb8cdcd)" d="M 827.689655 315 
L 972 315 
" style="fill:none;stroke:#ffffff;stroke-linecap:round;"/>
     </g>
     <g id="text_25">
      <!-- 0.0 -->
      <g style="fill:#262626;" transform="translate(802.899655 318.936797)scale(0.11 -0.11)">
       <use xlink:href="#ArialMT-48"/>
       <use x="55.615234" xlink:href="#ArialMT-46"/>
       <use x="83.398438" xlink:href="#ArialMT-48"/>
      </g>
     </g>
    </g>
    <g id="ytick_8">
     <g id="line2d_18">
      <path clip-path="url(#pa0feb8cdcd)" d="M 827.689655 290.290909 
L 972 290.290909 
" style="fill:none;stroke:#ffffff;stroke-linecap:round;"/>
     </g>
     <g id="text_26">
      <!-- 0.2 -->
      <g style="fill:#262626;" transform="translate(802.899655 294.227706)scale(0.11 -0.11)">
       <use xlink:href="#ArialMT-48"/>
       <use x="55.615234" xlink:href="#ArialMT-46"/>
       <use x="83.398438" xlink:href="#ArialMT-50"/>
      </g>
     </g>
    </g>
    <g id="ytick_9">
     <g id="line2d_19">
      <path clip-path="url(#pa0feb8cdcd)" d="M 827.689655 265.581818 
L 972 265.581818 
" style="fill:none;stroke:#ffffff;stroke-linecap:round;"/>
     </g>
     <g id="text_27">
      <!-- 0.4 -->
      <g style="fill:#262626;" transform="translate(802.899655 269.518615)scale(0.11 -0.11)">
       <use xlink:href="#ArialMT-48"/>
       <use x="55.615234" xlink:href="#ArialMT-46"/>
       <use x="83.398438" xlink:href="#ArialMT-52"/>
      </g>
     </g>
    </g>
    <g id="ytick_10">
     <g id="line2d_20">
      <path clip-path="url(#pa0feb8cdcd)" d="M 827.689655 240.872727 
L 972 240.872727 
" style="fill:none;stroke:#ffffff;stroke-linecap:round;"/>
     </g>
     <g id="text_28">
      <!-- 0.6 -->
      <g style="fill:#262626;" transform="translate(802.899655 244.809524)scale(0.11 -0.11)">
       <use xlink:href="#ArialMT-48"/>
       <use x="55.615234" xlink:href="#ArialMT-46"/>
       <use x="83.398438" xlink:href="#ArialMT-54"/>
      </g>
     </g>
    </g>
    <g id="ytick_11">
     <g id="line2d_21">
      <path clip-path="url(#pa0feb8cdcd)" d="M 827.689655 216.163636 
L 972 216.163636 
" style="fill:none;stroke:#ffffff;stroke-linecap:round;"/>
     </g>
     <g id="text_29">
      <!-- 0.8 -->
      <g style="fill:#262626;" transform="translate(802.899655 220.100433)scale(0.11 -0.11)">
       <use xlink:href="#ArialMT-48"/>
       <use x="55.615234" xlink:href="#ArialMT-46"/>
       <use x="83.398438" xlink:href="#ArialMT-56"/>
      </g>
     </g>
    </g>
    <g id="ytick_12">
     <g id="line2d_22">
      <path clip-path="url(#pa0feb8cdcd)" d="M 827.689655 191.454545 
L 972 191.454545 
" style="fill:none;stroke:#ffffff;stroke-linecap:round;"/>
     </g>
     <g id="text_30">
      <!-- 1.0 -->
      <g style="fill:#262626;" transform="translate(802.899655 195.391342)scale(0.11 -0.11)">
       <use xlink:href="#ArialMT-49"/>
       <use x="55.615234" xlink:href="#ArialMT-46"/>
       <use x="83.398438" xlink:href="#ArialMT-48"/>
      </g>
     </g>
    </g>
   </g>
   <g id="patch_124">
    <path d="M 827.689655 315 
L 827.689655 191.454545 
" style="fill:none;stroke:#ffffff;stroke-linecap:square;stroke-linejoin:miter;stroke-width:1.25;"/>
   </g>
   <g id="patch_125">
    <path d="M 972 315 
L 972 191.454545 
" style="fill:none;stroke:#ffffff;stroke-linecap:square;stroke-linejoin:miter;stroke-width:1.25;"/>
   </g>
   <g id="patch_126">
    <path d="M 827.689655 315 
L 972 315 
" style="fill:none;stroke:#ffffff;stroke-linecap:square;stroke-linejoin:miter;stroke-width:1.25;"/>
   </g>
   <g id="patch_127">
    <path d="M 827.689655 191.454545 
L 972 191.454545 
" style="fill:none;stroke:#ffffff;stroke-linecap:square;stroke-linejoin:miter;stroke-width:1.25;"/>
   </g>
   <g id="text_31">
    <!-- 4 -->
    <g style="fill:#262626;" transform="translate(896.508265 185.454545)scale(0.12 -0.12)">
     <use xlink:href="#ArialMT-52"/>
    </g>
   </g>
  </g>
 </g>
 <defs>
  <clipPath id="pd51b5ad77b">
   <rect height="123.545455" width="144.310345" x="135" y="43.2"/>
  </clipPath>
  <clipPath id="p28e3cef8bf">
   <rect height="123.545455" width="144.310345" x="308.172414" y="43.2"/>
  </clipPath>
  <clipPath id="p3387a806fd">
   <rect height="123.545455" width="144.310345" x="481.344828" y="43.2"/>
  </clipPath>
  <clipPath id="p65f14f90b2">
   <rect height="123.545455" width="144.310345" x="654.517241" y="43.2"/>
  </clipPath>
  <clipPath id="p7d1bea8bc3">
   <rect height="123.545455" width="144.310345" x="827.689655" y="43.2"/>
  </clipPath>
  <clipPath id="pc7110ce147">
   <rect height="123.545455" width="144.310345" x="135" y="191.454545"/>
  </clipPath>
  <clipPath id="p807bc11d1f">
   <rect height="123.545455" width="144.310345" x="308.172414" y="191.454545"/>
  </clipPath>
  <clipPath id="pc748ff9ce8">
   <rect height="123.545455" width="144.310345" x="481.344828" y="191.454545"/>
  </clipPath>
  <clipPath id="p2ab51d5d93">
   <rect height="123.545455" width="144.310345" x="654.517241" y="191.454545"/>
  </clipPath>
  <clipPath id="pa0feb8cdcd">
   <rect height="123.545455" width="144.310345" x="827.689655" y="191.454545"/>
  </clipPath>
 </defs>
</svg>
