<?xml version="1.0" encoding="utf-8" standalone="no"?>
<!DOCTYPE svg PUBLIC "-//W3C//DTD SVG 1.1//EN"
  "http://www.w3.org/Graphics/SVG/1.1/DTD/svg11.dtd">
<!-- Created with matplotlib (https://matplotlib.org/) -->
<svg height="180pt" version="1.1" viewBox="0 0 1080 180" width="1080pt" xmlns="http://www.w3.org/2000/svg" xmlns:xlink="http://www.w3.org/1999/xlink">
 <defs>
  <style type="text/css">
*{stroke-linecap:butt;stroke-linejoin:round;}
  </style>
 </defs>
 <g id="figure_1">
  <g id="patch_1">
   <path d="M 0 180 
L 1080 180 
L 1080 0 
L 0 0 
z
" style="fill:#ffffff;"/>
  </g>
  <g id="axes_1">
   <g id="patch_2">
    <path d="M 135 157.5 
L 279.310345 157.5 
L 279.310345 21.6 
L 135 21.6 
z
" style="fill:#ffffff;"/>
   </g>
   <g id="patch_3">
    <path clip-path="url(#pd2e17c181f)" d="M 209.417878 140.129323 
L 196.847291 140.129323 
" style="stroke:#000000;stroke-linejoin:miter;stroke-width:0.5;"/>
   </g>
   <g id="patch_4">
    <path clip-path="url(#pd2e17c181f)" d="M 221.988466 140.129323 
L 209.417878 140.129323 
" style="stroke:#000000;stroke-linejoin:miter;stroke-width:0.5;"/>
   </g>
   <g id="patch_5">
    <path clip-path="url(#pd2e17c181f)" d="M 234.559053 120.970489 
L 221.988466 140.129323 
" style="stroke:#000000;stroke-linejoin:miter;stroke-width:0.5;"/>
   </g>
   <g id="patch_6">
    <path clip-path="url(#pd2e17c181f)" d="M 209.417878 114.584211 
L 196.847291 114.584211 
" style="stroke:#000000;stroke-linejoin:miter;stroke-width:0.5;"/>
   </g>
   <g id="patch_7">
    <path clip-path="url(#pd2e17c181f)" d="M 221.988466 101.811654 
L 209.417878 114.584211 
" style="stroke:#000000;stroke-linejoin:miter;stroke-width:0.5;"/>
   </g>
   <g id="patch_8">
    <path clip-path="url(#pd2e17c181f)" d="M 196.847291 89.039098 
L 184.276703 89.039098 
" style="stroke:#000000;stroke-linejoin:miter;stroke-width:0.5;"/>
   </g>
   <g id="patch_9">
    <path clip-path="url(#pd2e17c181f)" d="M 209.417878 89.039098 
L 196.847291 89.039098 
" style="stroke:#000000;stroke-linejoin:miter;stroke-width:0.5;"/>
   </g>
   <g id="patch_10">
    <path clip-path="url(#pd2e17c181f)" d="M 221.988466 101.811654 
L 209.417878 89.039098 
" style="stroke:#000000;stroke-linejoin:miter;stroke-width:0.5;"/>
   </g>
   <g id="patch_11">
    <path clip-path="url(#pd2e17c181f)" d="M 234.559053 120.970489 
L 221.988466 101.811654 
" style="stroke:#000000;stroke-linejoin:miter;stroke-width:0.5;"/>
   </g>
   <g id="patch_12">
    <path clip-path="url(#pd2e17c181f)" d="M 247.129641 120.970489 
L 234.559053 120.970489 
" style="stroke:#000000;stroke-linejoin:miter;stroke-width:0.5;"/>
   </g>
   <g id="patch_13">
    <path clip-path="url(#pd2e17c181f)" d="M 259.700228 120.970489 
L 247.129641 120.970489 
" style="stroke:#000000;stroke-linejoin:miter;stroke-width:0.5;"/>
   </g>
   <g id="b8445820a580419689ca21ee3812c4bf-1-node">
    <path clip-path="url(#pd2e17c181f)" d="M 261.837228 116.62782 
L 261.837228 125.313158 
L 257.563228 125.313158 
L 257.563228 116.62782 
L 261.837228 116.62782 
z
" style="fill:#0000ff;stroke:#ffffff;stroke-linejoin:miter;stroke-width:0.5;"/>
   </g>
   <g id="b8445820a580419689ca21ee3812c4bf-3-node">
    <path clip-path="url(#pd2e17c181f)" d="M 249.266641 116.62782 
L 249.266641 125.313158 
L 244.992641 125.313158 
L 244.992641 116.62782 
L 249.266641 116.62782 
z
" style="fill:#0000ff;stroke:#ffffff;stroke-linejoin:miter;stroke-width:0.5;"/>
   </g>
   <g id="b8445820a580419689ca21ee3812c4bf-5-node">
    <path clip-path="url(#pd2e17c181f)" d="M 234.559053 125.313158 
C 235.125792 125.313158 235.669395 124.855587 236.07014 124.04122 
C 236.470885 123.226852 236.696053 122.122178 236.696053 120.970489 
C 236.696053 119.818799 236.470885 118.714125 236.07014 117.899758 
C 235.669395 117.085391 235.125792 116.62782 234.559053 116.62782 
C 233.992314 116.62782 233.448711 117.085391 233.047966 117.899758 
C 232.647221 118.714125 232.422053 119.818799 232.422053 120.970489 
C 232.422053 122.122178 232.647221 123.226852 233.047966 124.04122 
C 233.448711 124.855587 233.992314 125.313158 234.559053 125.313158 
z
" style="fill:#00c832;stroke:#ffffff;stroke-linejoin:miter;stroke-width:0.5;"/>
   </g>
   <g id="b8445820a580419689ca21ee3812c4bf-15-node">
    <path clip-path="url(#pd2e17c181f)" d="M 221.988466 144.471992 
C 222.555205 144.471992 223.098808 144.014421 223.499553 143.200054 
C 223.900298 142.385687 224.125466 141.281013 224.125466 140.129323 
C 224.125466 138.977634 223.900298 137.87296 223.499553 137.058592 
C 223.098808 136.244225 222.555205 135.786654 221.988466 135.786654 
C 221.421727 135.786654 220.878124 136.244225 220.477379 137.058592 
C 220.076634 137.87296 219.851466 138.977634 219.851466 140.129323 
C 219.851466 141.281013 220.076634 142.385687 220.477379 143.200054 
C 220.878124 144.014421 221.421727 144.471992 221.988466 144.471992 
z
" style="fill:#00c832;stroke:#ffffff;stroke-linejoin:miter;stroke-width:0.5;"/>
   </g>
   <g id="b8445820a580419689ca21ee3812c4bf-16-node">
    <path clip-path="url(#pd2e17c181f)" d="M 211.554878 135.786654 
L 211.554878 144.471992 
L 207.280878 144.471992 
L 207.280878 135.786654 
L 211.554878 135.786654 
z
" style="fill:#0000ff;stroke:#ffffff;stroke-linejoin:miter;stroke-width:0.5;"/>
   </g>
   <g id="b8445820a580419689ca21ee3812c4bf-18-node">
    <path clip-path="url(#pd2e17c181f)" d="M 196.847291 144.471992 
C 197.41403 144.471992 197.957633 144.014421 198.358378 143.200054 
C 198.759123 142.385687 198.984291 141.281013 198.984291 140.129323 
C 198.984291 138.977634 198.759123 137.87296 198.358378 137.058592 
C 197.957633 136.244225 197.41403 135.786654 196.847291 135.786654 
C 196.280552 135.786654 195.736949 136.244225 195.336204 137.058592 
C 194.935459 137.87296 194.710291 138.977634 194.710291 140.129323 
C 194.710291 141.281013 194.935459 142.385687 195.336204 143.200054 
C 195.736949 144.014421 196.280552 144.471992 196.847291 144.471992 
z
" style="fill:#ffff00;stroke:#ffffff;stroke-linejoin:miter;stroke-width:0.5;"/>
   </g>
   <g id="b8445820a580419689ca21ee3812c4bf-6-node">
    <path clip-path="url(#pd2e17c181f)" d="M 221.988466 106.154323 
C 222.555205 106.154323 223.098808 105.696752 223.499553 104.882385 
C 223.900298 104.068018 224.125466 102.963343 224.125466 101.811654 
C 224.125466 100.659965 223.900298 99.555291 223.499553 98.740923 
C 223.098808 97.926556 222.555205 97.468985 221.988466 97.468985 
C 221.421727 97.468985 220.878124 97.926556 220.477379 98.740923 
C 220.076634 99.555291 219.851466 100.659965 219.851466 101.811654 
C 219.851466 102.963343 220.076634 104.068018 220.477379 104.882385 
C 220.878124 105.696752 221.421727 106.154323 221.988466 106.154323 
z
" style="fill:#00c832;stroke:#ffffff;stroke-linejoin:miter;stroke-width:0.5;"/>
   </g>
   <g id="b8445820a580419689ca21ee3812c4bf-12-node">
    <path clip-path="url(#pd2e17c181f)" d="M 211.554878 110.241541 
L 211.554878 118.92688 
L 207.280878 118.92688 
L 207.280878 110.241541 
L 211.554878 110.241541 
z
" style="fill:#0000ff;stroke:#ffffff;stroke-linejoin:miter;stroke-width:0.5;"/>
   </g>
   <g id="b8445820a580419689ca21ee3812c4bf-14-node">
    <path clip-path="url(#pd2e17c181f)" d="M 196.847291 118.92688 
C 197.41403 118.92688 197.957633 118.469309 198.358378 117.654941 
C 198.759123 116.840574 198.984291 115.7359 198.984291 114.584211 
C 198.984291 113.432521 198.759123 112.327847 198.358378 111.51348 
C 197.957633 110.699112 197.41403 110.241541 196.847291 110.241541 
C 196.280552 110.241541 195.736949 110.699112 195.336204 111.51348 
C 194.935459 112.327847 194.710291 113.432521 194.710291 114.584211 
C 194.710291 115.7359 194.935459 116.840574 195.336204 117.654941 
C 195.736949 118.469309 196.280552 118.92688 196.847291 118.92688 
z
" style="fill:#ffff00;stroke:#ffffff;stroke-linejoin:miter;stroke-width:0.5;"/>
   </g>
   <g id="b8445820a580419689ca21ee3812c4bf-7-node">
    <path clip-path="url(#pd2e17c181f)" d="M 211.554878 84.696429 
L 211.554878 93.381767 
L 207.280878 93.381767 
L 207.280878 84.696429 
L 211.554878 84.696429 
z
" style="fill:#0000ff;stroke:#ffffff;stroke-linejoin:miter;stroke-width:0.5;"/>
   </g>
   <g id="b8445820a580419689ca21ee3812c4bf-9-node">
    <path clip-path="url(#pd2e17c181f)" d="M 196.847291 93.381767 
C 197.41403 93.381767 197.957633 92.924196 198.358378 92.109829 
C 198.759123 91.295461 198.984291 90.190787 198.984291 89.039098 
C 198.984291 87.887408 198.759123 86.782734 198.358378 85.968367 
C 197.957633 85.154 197.41403 84.696429 196.847291 84.696429 
C 196.280552 84.696429 195.736949 85.154 195.336204 85.968367 
C 194.935459 86.782734 194.710291 87.887408 194.710291 89.039098 
C 194.710291 90.190787 194.935459 91.295461 195.336204 92.109829 
C 195.736949 92.924196 196.280552 93.381767 196.847291 93.381767 
z
" style="fill:#ffff00;stroke:#ffffff;stroke-linejoin:miter;stroke-width:0.5;"/>
   </g>
   <g id="b8445820a580419689ca21ee3812c4bf-10-node">
    <path clip-path="url(#pd2e17c181f)" d="M 186.413703 84.696429 
L 186.413703 93.381767 
L 182.139703 93.381767 
L 182.139703 84.696429 
L 186.413703 84.696429 
z
" style="fill:#0000ff;stroke:#ffffff;stroke-linejoin:miter;stroke-width:0.5;"/>
   </g>
   <g id="patch_14">
    <path d="M 135 157.5 
L 135 21.6 
" style="fill:none;stroke:#ffffff;stroke-linecap:square;stroke-linejoin:miter;stroke-width:1.25;"/>
   </g>
   <g id="patch_15">
    <path d="M 279.310345 157.5 
L 279.310345 21.6 
" style="fill:none;stroke:#ffffff;stroke-linecap:square;stroke-linejoin:miter;stroke-width:1.25;"/>
   </g>
   <g id="patch_16">
    <path d="M 135 157.5 
L 279.310345 157.5 
" style="fill:none;stroke:#ffffff;stroke-linecap:square;stroke-linejoin:miter;stroke-width:1.25;"/>
   </g>
   <g id="patch_17">
    <path d="M 135 21.6 
L 279.310345 21.6 
" style="fill:none;stroke:#ffffff;stroke-linecap:square;stroke-linejoin:miter;stroke-width:1.25;"/>
   </g>
   <g id="text_1">
    <!-- 251:4.0 -->
    <defs>
     <path d="M 50.34375 8.453125 
L 50.34375 0 
L 3.03125 0 
Q 2.9375 3.171875 4.046875 6.109375 
Q 5.859375 10.9375 9.828125 15.625 
Q 13.8125 20.3125 21.34375 26.46875 
Q 33.015625 36.03125 37.109375 41.625 
Q 41.21875 47.21875 41.21875 52.203125 
Q 41.21875 57.421875 37.46875 61 
Q 33.734375 64.59375 27.734375 64.59375 
Q 21.390625 64.59375 17.578125 60.78125 
Q 13.765625 56.984375 13.71875 50.25 
L 4.6875 51.171875 
Q 5.609375 61.28125 11.65625 66.578125 
Q 17.71875 71.875 27.9375 71.875 
Q 38.234375 71.875 44.234375 66.15625 
Q 50.25 60.453125 50.25 52 
Q 50.25 47.703125 48.484375 43.546875 
Q 46.734375 39.40625 42.65625 34.8125 
Q 38.578125 30.21875 29.109375 22.21875 
Q 21.1875 15.578125 18.9375 13.203125 
Q 16.703125 10.84375 15.234375 8.453125 
z
" id="ArialMT-50"/>
     <path d="M 4.15625 18.75 
L 13.375 19.53125 
Q 14.40625 12.796875 18.140625 9.390625 
Q 21.875 6 27.15625 6 
Q 33.5 6 37.890625 10.78125 
Q 42.28125 15.578125 42.28125 23.484375 
Q 42.28125 31 38.0625 35.34375 
Q 33.84375 39.703125 27 39.703125 
Q 22.75 39.703125 19.328125 37.765625 
Q 15.921875 35.84375 13.96875 32.765625 
L 5.71875 33.84375 
L 12.640625 70.609375 
L 48.25 70.609375 
L 48.25 62.203125 
L 19.671875 62.203125 
L 15.828125 42.96875 
Q 22.265625 47.46875 29.34375 47.46875 
Q 38.71875 47.46875 45.15625 40.96875 
Q 51.609375 34.46875 51.609375 24.265625 
Q 51.609375 14.546875 45.953125 7.46875 
Q 39.0625 -1.21875 27.15625 -1.21875 
Q 17.390625 -1.21875 11.203125 4.25 
Q 5.03125 9.71875 4.15625 18.75 
z
" id="ArialMT-53"/>
     <path d="M 37.25 0 
L 28.46875 0 
L 28.46875 56 
Q 25.296875 52.984375 20.140625 49.953125 
Q 14.984375 46.921875 10.890625 45.40625 
L 10.890625 53.90625 
Q 18.265625 57.375 23.78125 62.296875 
Q 29.296875 67.234375 31.59375 71.875 
L 37.25 71.875 
z
" id="ArialMT-49"/>
     <path d="M 9.03125 41.84375 
L 9.03125 51.859375 
L 19.046875 51.859375 
L 19.046875 41.84375 
z
M 9.03125 0 
L 9.03125 10.015625 
L 19.046875 10.015625 
L 19.046875 0 
z
" id="ArialMT-58"/>
     <path d="M 32.328125 0 
L 32.328125 17.140625 
L 1.265625 17.140625 
L 1.265625 25.203125 
L 33.9375 71.578125 
L 41.109375 71.578125 
L 41.109375 25.203125 
L 50.78125 25.203125 
L 50.78125 17.140625 
L 41.109375 17.140625 
L 41.109375 0 
z
M 32.328125 25.203125 
L 32.328125 57.46875 
L 9.90625 25.203125 
z
" id="ArialMT-52"/>
     <path d="M 9.078125 0 
L 9.078125 10.015625 
L 19.09375 10.015625 
L 19.09375 0 
z
" id="ArialMT-46"/>
     <path d="M 4.15625 35.296875 
Q 4.15625 48 6.765625 55.734375 
Q 9.375 63.484375 14.515625 67.671875 
Q 19.671875 71.875 27.484375 71.875 
Q 33.25 71.875 37.59375 69.546875 
Q 41.9375 67.234375 44.765625 62.859375 
Q 47.609375 58.5 49.21875 52.21875 
Q 50.828125 45.953125 50.828125 35.296875 
Q 50.828125 22.703125 48.234375 14.96875 
Q 45.65625 7.234375 40.5 3 
Q 35.359375 -1.21875 27.484375 -1.21875 
Q 17.140625 -1.21875 11.234375 6.203125 
Q 4.15625 15.140625 4.15625 35.296875 
z
M 13.1875 35.296875 
Q 13.1875 17.671875 17.3125 11.828125 
Q 21.4375 6 27.484375 6 
Q 33.546875 6 37.671875 11.859375 
Q 41.796875 17.71875 41.796875 35.296875 
Q 41.796875 52.984375 37.671875 58.78125 
Q 33.546875 64.59375 27.390625 64.59375 
Q 21.34375 64.59375 17.71875 59.46875 
Q 13.1875 52.9375 13.1875 35.296875 
z
" id="ArialMT-48"/>
    </defs>
    <g style="fill:#262626;" transform="translate(187.13861 15.6)scale(0.12 -0.12)">
     <use xlink:href="#ArialMT-50"/>
     <use x="55.615234" xlink:href="#ArialMT-53"/>
     <use x="111.230469" xlink:href="#ArialMT-49"/>
     <use x="166.845703" xlink:href="#ArialMT-58"/>
     <use x="194.628906" xlink:href="#ArialMT-52"/>
     <use x="250.244141" xlink:href="#ArialMT-46"/>
     <use x="278.027344" xlink:href="#ArialMT-48"/>
    </g>
   </g>
  </g>
  <g id="axes_2">
   <g id="patch_18">
    <path d="M 308.172414 157.5 
L 452.482759 157.5 
L 452.482759 21.6 
L 308.172414 21.6 
z
" style="fill:#ffffff;"/>
   </g>
   <g id="patch_19">
    <path clip-path="url(#pda6575a296)" d="M 382.590292 140.129323 
L 370.019704 140.129323 
" style="stroke:#000000;stroke-linejoin:miter;stroke-width:0.5;"/>
   </g>
   <g id="patch_20">
    <path clip-path="url(#pda6575a296)" d="M 395.160879 140.129323 
L 382.590292 140.129323 
" style="stroke:#000000;stroke-linejoin:miter;stroke-width:0.5;"/>
   </g>
   <g id="patch_21">
    <path clip-path="url(#pda6575a296)" d="M 407.731467 120.970489 
L 395.160879 140.129323 
" style="stroke:#000000;stroke-linejoin:miter;stroke-width:0.5;"/>
   </g>
   <g id="patch_22">
    <path clip-path="url(#pda6575a296)" d="M 382.590292 114.584211 
L 370.019704 114.584211 
" style="stroke:#000000;stroke-linejoin:miter;stroke-width:0.5;"/>
   </g>
   <g id="patch_23">
    <path clip-path="url(#pda6575a296)" d="M 395.160879 101.811654 
L 382.590292 114.584211 
" style="stroke:#000000;stroke-linejoin:miter;stroke-width:0.5;"/>
   </g>
   <g id="patch_24">
    <path clip-path="url(#pda6575a296)" d="M 370.019704 89.039098 
L 357.449117 89.039098 
" style="stroke:#000000;stroke-linejoin:miter;stroke-width:0.5;"/>
   </g>
   <g id="patch_25">
    <path clip-path="url(#pda6575a296)" d="M 382.590292 89.039098 
L 370.019704 89.039098 
" style="stroke:#000000;stroke-linejoin:miter;stroke-width:0.5;"/>
   </g>
   <g id="patch_26">
    <path clip-path="url(#pda6575a296)" d="M 395.160879 101.811654 
L 382.590292 89.039098 
" style="stroke:#000000;stroke-linejoin:miter;stroke-width:0.5;"/>
   </g>
   <g id="patch_27">
    <path clip-path="url(#pda6575a296)" d="M 407.731467 120.970489 
L 395.160879 101.811654 
" style="stroke:#000000;stroke-linejoin:miter;stroke-width:0.5;"/>
   </g>
   <g id="patch_28">
    <path clip-path="url(#pda6575a296)" d="M 420.302055 120.970489 
L 407.731467 120.970489 
" style="stroke:#000000;stroke-linejoin:miter;stroke-width:0.5;"/>
   </g>
   <g id="patch_29">
    <path clip-path="url(#pda6575a296)" d="M 432.872642 120.970489 
L 420.302055 120.970489 
" style="stroke:#000000;stroke-linejoin:miter;stroke-width:0.5;"/>
   </g>
   <g id="patch_30">
    <path clip-path="url(#pda6575a296)" d="M 432.872642 120.970489 
L 432.872642 108.197932 
" style="stroke:#000000;stroke-linejoin:miter;stroke-width:0.5;"/>
   </g>
   <g id="c1364e7cea684ecfb5b757a25773f9db-1-node">
    <path clip-path="url(#pda6575a296)" d="M 435.009642 116.62782 
L 435.009642 125.313158 
L 430.735642 125.313158 
L 430.735642 116.62782 
L 435.009642 116.62782 
z
" style="fill:#0000ff;stroke:#ffffff;stroke-linejoin:miter;stroke-width:0.5;"/>
   </g>
   <g id="c1364e7cea684ecfb5b757a25773f9db-4-node">
    <path clip-path="url(#pda6575a296)" d="M 422.439054 116.62782 
L 422.439054 125.313158 
L 418.165055 125.313158 
L 418.165055 116.62782 
L 422.439054 116.62782 
z
" style="fill:#0000ff;stroke:#ffffff;stroke-linejoin:miter;stroke-width:0.5;"/>
   </g>
   <g id="c1364e7cea684ecfb5b757a25773f9db-6-node">
    <path clip-path="url(#pda6575a296)" d="M 407.731467 125.313158 
C 408.298206 125.313158 408.841809 124.855587 409.242554 124.04122 
C 409.643299 123.226852 409.868467 122.122178 409.868467 120.970489 
C 409.868467 119.818799 409.643299 118.714125 409.242554 117.899758 
C 408.841809 117.085391 408.298206 116.62782 407.731467 116.62782 
C 407.164728 116.62782 406.621125 117.085391 406.22038 117.899758 
C 405.819635 118.714125 405.594467 119.818799 405.594467 120.970489 
C 405.594467 122.122178 405.819635 123.226852 406.22038 124.04122 
C 406.621125 124.855587 407.164728 125.313158 407.731467 125.313158 
z
" style="fill:#00c832;stroke:#ffffff;stroke-linejoin:miter;stroke-width:0.5;"/>
   </g>
   <g id="c1364e7cea684ecfb5b757a25773f9db-16-node">
    <path clip-path="url(#pda6575a296)" d="M 395.160879 144.471992 
C 395.727618 144.471992 396.271222 144.014421 396.671967 143.200054 
C 397.072712 142.385687 397.297879 141.281013 397.297879 140.129323 
C 397.297879 138.977634 397.072712 137.87296 396.671967 137.058592 
C 396.271222 136.244225 395.727618 135.786654 395.160879 135.786654 
C 394.59414 135.786654 394.050537 136.244225 393.649792 137.058592 
C 393.249047 137.87296 393.02388 138.977634 393.02388 140.129323 
C 393.02388 141.281013 393.249047 142.385687 393.649792 143.200054 
C 394.050537 144.014421 394.59414 144.471992 395.160879 144.471992 
z
" style="fill:#00c832;stroke:#ffffff;stroke-linejoin:miter;stroke-width:0.5;"/>
   </g>
   <g id="c1364e7cea684ecfb5b757a25773f9db-17-node">
    <path clip-path="url(#pda6575a296)" d="M 384.727292 135.786654 
L 384.727292 144.471992 
L 380.453292 144.471992 
L 380.453292 135.786654 
L 384.727292 135.786654 
z
" style="fill:#0000ff;stroke:#ffffff;stroke-linejoin:miter;stroke-width:0.5;"/>
   </g>
   <g id="c1364e7cea684ecfb5b757a25773f9db-19-node">
    <path clip-path="url(#pda6575a296)" d="M 370.019704 144.471992 
C 370.586443 144.471992 371.130047 144.014421 371.530792 143.200054 
C 371.931537 142.385687 372.156704 141.281013 372.156704 140.129323 
C 372.156704 138.977634 371.931537 137.87296 371.530792 137.058592 
C 371.130047 136.244225 370.586443 135.786654 370.019704 135.786654 
C 369.452965 135.786654 368.909362 136.244225 368.508617 137.058592 
C 368.107872 137.87296 367.882705 138.977634 367.882705 140.129323 
C 367.882705 141.281013 368.107872 142.385687 368.508617 143.200054 
C 368.909362 144.014421 369.452965 144.471992 370.019704 144.471992 
z
" style="fill:#ffff00;stroke:#ffffff;stroke-linejoin:miter;stroke-width:0.5;"/>
   </g>
   <g id="c1364e7cea684ecfb5b757a25773f9db-7-node">
    <path clip-path="url(#pda6575a296)" d="M 395.160879 106.154323 
C 395.727618 106.154323 396.271222 105.696752 396.671967 104.882385 
C 397.072712 104.068018 397.297879 102.963343 397.297879 101.811654 
C 397.297879 100.659965 397.072712 99.555291 396.671967 98.740923 
C 396.271222 97.926556 395.727618 97.468985 395.160879 97.468985 
C 394.59414 97.468985 394.050537 97.926556 393.649792 98.740923 
C 393.249047 99.555291 393.02388 100.659965 393.02388 101.811654 
C 393.02388 102.963343 393.249047 104.068018 393.649792 104.882385 
C 394.050537 105.696752 394.59414 106.154323 395.160879 106.154323 
z
" style="fill:#00c832;stroke:#ffffff;stroke-linejoin:miter;stroke-width:0.5;"/>
   </g>
   <g id="c1364e7cea684ecfb5b757a25773f9db-13-node">
    <path clip-path="url(#pda6575a296)" d="M 384.727292 110.241541 
L 384.727292 118.92688 
L 380.453292 118.92688 
L 380.453292 110.241541 
L 384.727292 110.241541 
z
" style="fill:#0000ff;stroke:#ffffff;stroke-linejoin:miter;stroke-width:0.5;"/>
   </g>
   <g id="c1364e7cea684ecfb5b757a25773f9db-15-node">
    <path clip-path="url(#pda6575a296)" d="M 370.019704 118.92688 
C 370.586443 118.92688 371.130047 118.469309 371.530792 117.654941 
C 371.931537 116.840574 372.156704 115.7359 372.156704 114.584211 
C 372.156704 113.432521 371.931537 112.327847 371.530792 111.51348 
C 371.130047 110.699112 370.586443 110.241541 370.019704 110.241541 
C 369.452965 110.241541 368.909362 110.699112 368.508617 111.51348 
C 368.107872 112.327847 367.882705 113.432521 367.882705 114.584211 
C 367.882705 115.7359 368.107872 116.840574 368.508617 117.654941 
C 368.909362 118.469309 369.452965 118.92688 370.019704 118.92688 
z
" style="fill:#ffff00;stroke:#ffffff;stroke-linejoin:miter;stroke-width:0.5;"/>
   </g>
   <g id="c1364e7cea684ecfb5b757a25773f9db-8-node">
    <path clip-path="url(#pda6575a296)" d="M 384.727292 84.696429 
L 384.727292 93.381767 
L 380.453292 93.381767 
L 380.453292 84.696429 
L 384.727292 84.696429 
z
" style="fill:#0000ff;stroke:#ffffff;stroke-linejoin:miter;stroke-width:0.5;"/>
   </g>
   <g id="c1364e7cea684ecfb5b757a25773f9db-10-node">
    <path clip-path="url(#pda6575a296)" d="M 370.019704 93.381767 
C 370.586443 93.381767 371.130047 92.924196 371.530792 92.109829 
C 371.931537 91.295461 372.156704 90.190787 372.156704 89.039098 
C 372.156704 87.887408 371.931537 86.782734 371.530792 85.968367 
C 371.130047 85.154 370.586443 84.696429 370.019704 84.696429 
C 369.452965 84.696429 368.909362 85.154 368.508617 85.968367 
C 368.107872 86.782734 367.882705 87.887408 367.882705 89.039098 
C 367.882705 90.190787 368.107872 91.295461 368.508617 92.109829 
C 368.909362 92.924196 369.452965 93.381767 370.019704 93.381767 
z
" style="fill:#ffff00;stroke:#ffffff;stroke-linejoin:miter;stroke-width:0.5;"/>
   </g>
   <g id="c1364e7cea684ecfb5b757a25773f9db-11-node">
    <path clip-path="url(#pda6575a296)" d="M 359.586117 84.696429 
L 359.586117 93.381767 
L 355.312117 93.381767 
L 355.312117 84.696429 
L 359.586117 84.696429 
z
" style="fill:#0000ff;stroke:#ffffff;stroke-linejoin:miter;stroke-width:0.5;"/>
   </g>
   <g id="c1364e7cea684ecfb5b757a25773f9db-3-node">
    <path clip-path="url(#pda6575a296)" d="M 432.872642 103.855263 
L 431.021946 110.369267 
L 434.723338 110.369267 
z
" style="fill:#ff0000;stroke:#ffffff;stroke-linejoin:miter;stroke-width:0.5;"/>
   </g>
   <g id="patch_31">
    <path d="M 308.172414 157.5 
L 308.172414 21.6 
" style="fill:none;stroke:#ffffff;stroke-linecap:square;stroke-linejoin:miter;stroke-width:1.25;"/>
   </g>
   <g id="patch_32">
    <path d="M 452.482759 157.5 
L 452.482759 21.6 
" style="fill:none;stroke:#ffffff;stroke-linecap:square;stroke-linejoin:miter;stroke-width:1.25;"/>
   </g>
   <g id="patch_33">
    <path d="M 308.172414 157.5 
L 452.482759 157.5 
" style="fill:none;stroke:#ffffff;stroke-linecap:square;stroke-linejoin:miter;stroke-width:1.25;"/>
   </g>
   <g id="patch_34">
    <path d="M 308.172414 21.6 
L 452.482759 21.6 
" style="fill:none;stroke:#ffffff;stroke-linecap:square;stroke-linejoin:miter;stroke-width:1.25;"/>
   </g>
   <g id="text_2">
    <!-- 372:4.0 -->
    <defs>
     <path d="M 4.203125 18.890625 
L 12.984375 20.0625 
Q 14.5 12.59375 18.140625 9.296875 
Q 21.78125 6 27 6 
Q 33.203125 6 37.46875 10.296875 
Q 41.75 14.59375 41.75 20.953125 
Q 41.75 27 37.796875 30.921875 
Q 33.84375 34.859375 27.734375 34.859375 
Q 25.25 34.859375 21.53125 33.890625 
L 22.515625 41.609375 
Q 23.390625 41.5 23.921875 41.5 
Q 29.546875 41.5 34.03125 44.421875 
Q 38.53125 47.359375 38.53125 53.46875 
Q 38.53125 58.296875 35.25 61.46875 
Q 31.984375 64.65625 26.8125 64.65625 
Q 21.6875 64.65625 18.265625 61.421875 
Q 14.84375 58.203125 13.875 51.765625 
L 5.078125 53.328125 
Q 6.6875 62.15625 12.390625 67.015625 
Q 18.109375 71.875 26.609375 71.875 
Q 32.46875 71.875 37.390625 69.359375 
Q 42.328125 66.84375 44.9375 62.5 
Q 47.5625 58.15625 47.5625 53.265625 
Q 47.5625 48.640625 45.0625 44.828125 
Q 42.578125 41.015625 37.703125 38.765625 
Q 44.046875 37.3125 47.5625 32.6875 
Q 51.078125 28.078125 51.078125 21.140625 
Q 51.078125 11.765625 44.234375 5.25 
Q 37.40625 -1.265625 26.953125 -1.265625 
Q 17.53125 -1.265625 11.296875 4.34375 
Q 5.078125 9.96875 4.203125 18.890625 
z
" id="ArialMT-51"/>
     <path d="M 4.734375 62.203125 
L 4.734375 70.65625 
L 51.078125 70.65625 
L 51.078125 63.8125 
Q 44.234375 56.546875 37.515625 44.484375 
Q 30.8125 32.421875 27.15625 19.671875 
Q 24.515625 10.6875 23.78125 0 
L 14.75 0 
Q 14.890625 8.453125 18.0625 20.40625 
Q 21.234375 32.375 27.171875 43.484375 
Q 33.109375 54.59375 39.796875 62.203125 
z
" id="ArialMT-55"/>
    </defs>
    <g style="fill:#262626;" transform="translate(360.311024 15.6)scale(0.12 -0.12)">
     <use xlink:href="#ArialMT-51"/>
     <use x="55.615234" xlink:href="#ArialMT-55"/>
     <use x="111.230469" xlink:href="#ArialMT-50"/>
     <use x="166.845703" xlink:href="#ArialMT-58"/>
     <use x="194.628906" xlink:href="#ArialMT-52"/>
     <use x="250.244141" xlink:href="#ArialMT-46"/>
     <use x="278.027344" xlink:href="#ArialMT-48"/>
    </g>
   </g>
  </g>
  <g id="axes_3">
   <g id="patch_35">
    <path d="M 481.344828 157.5 
L 625.655172 157.5 
L 625.655172 21.6 
L 481.344828 21.6 
z
" style="fill:#ffffff;"/>
   </g>
   <g id="patch_36">
    <path clip-path="url(#pb3bd43e796)" d="M 562.970366 145.242353 
L 551.696121 145.242353 
" style="stroke:#000000;stroke-linejoin:miter;stroke-width:0.5;"/>
   </g>
   <g id="patch_37">
    <path clip-path="url(#pb3bd43e796)" d="M 574.244612 145.242353 
L 562.970366 145.242353 
" style="stroke:#000000;stroke-linejoin:miter;stroke-width:0.5;"/>
   </g>
   <g id="patch_38">
    <path clip-path="url(#pb3bd43e796)" d="M 585.518858 125.257059 
L 574.244612 145.242353 
" style="stroke:#000000;stroke-linejoin:miter;stroke-width:0.5;"/>
   </g>
   <g id="patch_39">
    <path clip-path="url(#pb3bd43e796)" d="M 562.970366 118.595294 
L 551.696121 118.595294 
" style="stroke:#000000;stroke-linejoin:miter;stroke-width:0.5;"/>
   </g>
   <g id="patch_40">
    <path clip-path="url(#pb3bd43e796)" d="M 574.244612 105.271765 
L 562.970366 118.595294 
" style="stroke:#000000;stroke-linejoin:miter;stroke-width:0.5;"/>
   </g>
   <g id="patch_41">
    <path clip-path="url(#pb3bd43e796)" d="M 540.421875 91.948235 
L 529.147629 91.948235 
" style="stroke:#000000;stroke-linejoin:miter;stroke-width:0.5;"/>
   </g>
   <g id="patch_42">
    <path clip-path="url(#pb3bd43e796)" d="M 551.696121 91.948235 
L 540.421875 91.948235 
" style="stroke:#000000;stroke-linejoin:miter;stroke-width:0.5;"/>
   </g>
   <g id="patch_43">
    <path clip-path="url(#pb3bd43e796)" d="M 562.970366 91.948235 
L 551.696121 91.948235 
" style="stroke:#000000;stroke-linejoin:miter;stroke-width:0.5;"/>
   </g>
   <g id="patch_44">
    <path clip-path="url(#pb3bd43e796)" d="M 574.244612 105.271765 
L 562.970366 91.948235 
" style="stroke:#000000;stroke-linejoin:miter;stroke-width:0.5;"/>
   </g>
   <g id="patch_45">
    <path clip-path="url(#pb3bd43e796)" d="M 585.518858 125.257059 
L 574.244612 105.271765 
" style="stroke:#000000;stroke-linejoin:miter;stroke-width:0.5;"/>
   </g>
   <g id="patch_46">
    <path clip-path="url(#pb3bd43e796)" d="M 596.793103 125.257059 
L 585.518858 125.257059 
" style="stroke:#000000;stroke-linejoin:miter;stroke-width:0.5;"/>
   </g>
   <g id="patch_47">
    <path clip-path="url(#pb3bd43e796)" d="M 608.067349 125.257059 
L 596.793103 125.257059 
" style="stroke:#000000;stroke-linejoin:miter;stroke-width:0.5;"/>
   </g>
   <g id="8f6bb2a1c1b54c4c9d579d5c1a173148-1-node">
    <path clip-path="url(#pb3bd43e796)" d="M 609.983971 120.727059 
L 609.983971 129.787059 
L 606.150727 129.787059 
L 606.150727 120.727059 
L 609.983971 120.727059 
z
" style="fill:#0000ff;stroke:#ffffff;stroke-linejoin:miter;stroke-width:0.5;"/>
   </g>
   <g id="8f6bb2a1c1b54c4c9d579d5c1a173148-3-node">
    <path clip-path="url(#pb3bd43e796)" d="M 598.709725 120.727059 
L 598.709725 129.787059 
L 594.876482 129.787059 
L 594.876482 120.727059 
L 598.709725 120.727059 
z
" style="fill:#0000ff;stroke:#ffffff;stroke-linejoin:miter;stroke-width:0.5;"/>
   </g>
   <g id="8f6bb2a1c1b54c4c9d579d5c1a173148-5-node">
    <path clip-path="url(#pb3bd43e796)" d="M 585.518858 129.787059 
C 586.027152 129.787059 586.514696 129.309749 586.874114 128.460253 
C 587.233532 127.610756 587.43548 126.458429 587.43548 125.257059 
C 587.43548 124.055689 587.233532 122.903362 586.874114 122.053865 
C 586.514696 121.204368 586.027152 120.727059 585.518858 120.727059 
C 585.010564 120.727059 584.52302 121.204368 584.163602 122.053865 
C 583.804183 122.903362 583.602236 124.055689 583.602236 125.257059 
C 583.602236 126.458429 583.804183 127.610756 584.163602 128.460253 
C 584.52302 129.309749 585.010564 129.787059 585.518858 129.787059 
z
" style="fill:#00c832;stroke:#ffffff;stroke-linejoin:miter;stroke-width:0.5;"/>
   </g>
   <g id="8f6bb2a1c1b54c4c9d579d5c1a173148-16-node">
    <path clip-path="url(#pb3bd43e796)" d="M 574.244612 149.772353 
C 574.752906 149.772353 575.24045 149.295044 575.599868 148.445547 
C 575.959286 147.59605 576.161234 146.443723 576.161234 145.242353 
C 576.161234 144.040983 575.959286 142.888656 575.599868 142.039159 
C 575.24045 141.189662 574.752906 140.712353 574.244612 140.712353 
C 573.736318 140.712353 573.248774 141.189662 572.889356 142.039159 
C 572.529938 142.888656 572.32799 144.040983 572.32799 145.242353 
C 572.32799 146.443723 572.529938 147.59605 572.889356 148.445547 
C 573.248774 149.295044 573.736318 149.772353 574.244612 149.772353 
z
" style="fill:#00c832;stroke:#ffffff;stroke-linejoin:miter;stroke-width:0.5;"/>
   </g>
   <g id="8f6bb2a1c1b54c4c9d579d5c1a173148-17-node">
    <path clip-path="url(#pb3bd43e796)" d="M 564.886988 140.712353 
L 564.886988 149.772353 
L 561.053745 149.772353 
L 561.053745 140.712353 
L 564.886988 140.712353 
z
" style="fill:#0000ff;stroke:#ffffff;stroke-linejoin:miter;stroke-width:0.5;"/>
   </g>
   <g id="8f6bb2a1c1b54c4c9d579d5c1a173148-19-node">
    <path clip-path="url(#pb3bd43e796)" d="M 551.696121 149.772353 
C 552.204415 149.772353 552.691959 149.295044 553.051377 148.445547 
C 553.410795 147.59605 553.612742 146.443723 553.612742 145.242353 
C 553.612742 144.040983 553.410795 142.888656 553.051377 142.039159 
C 552.691959 141.189662 552.204415 140.712353 551.696121 140.712353 
C 551.187827 140.712353 550.700283 141.189662 550.340864 142.039159 
C 549.981446 142.888656 549.779499 144.040983 549.779499 145.242353 
C 549.779499 146.443723 549.981446 147.59605 550.340864 148.445547 
C 550.700283 149.295044 551.187827 149.772353 551.696121 149.772353 
z
" style="fill:#ffff00;stroke:#ffffff;stroke-linejoin:miter;stroke-width:0.5;"/>
   </g>
   <g id="8f6bb2a1c1b54c4c9d579d5c1a173148-6-node">
    <path clip-path="url(#pb3bd43e796)" d="M 574.244612 109.801765 
C 574.752906 109.801765 575.24045 109.324455 575.599868 108.474958 
C 575.959286 107.625462 576.161234 106.473135 576.161234 105.271765 
C 576.161234 104.070395 575.959286 102.918068 575.599868 102.068571 
C 575.24045 101.219074 574.752906 100.741765 574.244612 100.741765 
C 573.736318 100.741765 573.248774 101.219074 572.889356 102.068571 
C 572.529938 102.918068 572.32799 104.070395 572.32799 105.271765 
C 572.32799 106.473135 572.529938 107.625462 572.889356 108.474958 
C 573.248774 109.324455 573.736318 109.801765 574.244612 109.801765 
z
" style="fill:#00c832;stroke:#ffffff;stroke-linejoin:miter;stroke-width:0.5;"/>
   </g>
   <g id="8f6bb2a1c1b54c4c9d579d5c1a173148-13-node">
    <path clip-path="url(#pb3bd43e796)" d="M 564.886988 114.065294 
L 564.886988 123.125294 
L 561.053745 123.125294 
L 561.053745 114.065294 
L 564.886988 114.065294 
z
" style="fill:#0000ff;stroke:#ffffff;stroke-linejoin:miter;stroke-width:0.5;"/>
   </g>
   <g id="8f6bb2a1c1b54c4c9d579d5c1a173148-15-node">
    <path clip-path="url(#pb3bd43e796)" d="M 551.696121 123.125294 
C 552.204415 123.125294 552.691959 122.647985 553.051377 121.798488 
C 553.410795 120.948991 553.612742 119.796664 553.612742 118.595294 
C 553.612742 117.393924 553.410795 116.241597 553.051377 115.3921 
C 552.691959 114.542603 552.204415 114.065294 551.696121 114.065294 
C 551.187827 114.065294 550.700283 114.542603 550.340864 115.3921 
C 549.981446 116.241597 549.779499 117.393924 549.779499 118.595294 
C 549.779499 119.796664 549.981446 120.948991 550.340864 121.798488 
C 550.700283 122.647985 551.187827 123.125294 551.696121 123.125294 
z
" style="fill:#ffff00;stroke:#ffffff;stroke-linejoin:miter;stroke-width:0.5;"/>
   </g>
   <g id="8f6bb2a1c1b54c4c9d579d5c1a173148-7-node">
    <path clip-path="url(#pb3bd43e796)" d="M 564.886988 87.418235 
L 564.886988 96.478235 
L 561.053745 96.478235 
L 561.053745 87.418235 
L 564.886988 87.418235 
z
" style="fill:#0000ff;stroke:#ffffff;stroke-linejoin:miter;stroke-width:0.5;"/>
   </g>
   <g id="8f6bb2a1c1b54c4c9d579d5c1a173148-9-node">
    <path clip-path="url(#pb3bd43e796)" d="M 551.696121 96.478235 
C 552.204415 96.478235 552.691959 96.000926 553.051377 95.151429 
C 553.410795 94.301932 553.612742 93.149605 553.612742 91.948235 
C 553.612742 90.746865 553.410795 89.594538 553.051377 88.745042 
C 552.691959 87.895545 552.204415 87.418235 551.696121 87.418235 
C 551.187827 87.418235 550.700283 87.895545 550.340864 88.745042 
C 549.981446 89.594538 549.779499 90.746865 549.779499 91.948235 
C 549.779499 93.149605 549.981446 94.301932 550.340864 95.151429 
C 550.700283 96.000926 551.187827 96.478235 551.696121 96.478235 
z
" style="fill:#ffff00;stroke:#ffffff;stroke-linejoin:miter;stroke-width:0.5;"/>
   </g>
   <g id="8f6bb2a1c1b54c4c9d579d5c1a173148-10-node">
    <path clip-path="url(#pb3bd43e796)" d="M 542.338497 87.418235 
L 542.338497 96.478235 
L 538.505253 96.478235 
L 538.505253 87.418235 
L 542.338497 87.418235 
z
" style="fill:#0000ff;stroke:#ffffff;stroke-linejoin:miter;stroke-width:0.5;"/>
   </g>
   <g id="8f6bb2a1c1b54c4c9d579d5c1a173148-12-node">
    <path clip-path="url(#pb3bd43e796)" d="M 529.147629 96.478235 
C 529.655923 96.478235 530.143467 96.000926 530.502886 95.151429 
C 530.862304 94.301932 531.064251 93.149605 531.064251 91.948235 
C 531.064251 90.746865 530.862304 89.594538 530.502886 88.745042 
C 530.143467 87.895545 529.655923 87.418235 529.147629 87.418235 
C 528.639335 87.418235 528.151791 87.895545 527.792373 88.745042 
C 527.432955 89.594538 527.231008 90.746865 527.231008 91.948235 
C 527.231008 93.149605 527.432955 94.301932 527.792373 95.151429 
C 528.151791 96.000926 528.639335 96.478235 529.147629 96.478235 
z
" style="fill:#ffff00;stroke:#ffffff;stroke-linejoin:miter;stroke-width:0.5;"/>
   </g>
   <g id="patch_48">
    <path d="M 481.344828 157.5 
L 481.344828 21.6 
" style="fill:none;stroke:#ffffff;stroke-linecap:square;stroke-linejoin:miter;stroke-width:1.25;"/>
   </g>
   <g id="patch_49">
    <path d="M 625.655172 157.5 
L 625.655172 21.6 
" style="fill:none;stroke:#ffffff;stroke-linecap:square;stroke-linejoin:miter;stroke-width:1.25;"/>
   </g>
   <g id="patch_50">
    <path d="M 481.344828 157.5 
L 625.655172 157.5 
" style="fill:none;stroke:#ffffff;stroke-linecap:square;stroke-linejoin:miter;stroke-width:1.25;"/>
   </g>
   <g id="patch_51">
    <path d="M 481.344828 21.6 
L 625.655172 21.6 
" style="fill:none;stroke:#ffffff;stroke-linecap:square;stroke-linejoin:miter;stroke-width:1.25;"/>
   </g>
   <g id="text_3">
    <!-- 384:4.0 -->
    <defs>
     <path d="M 17.671875 38.8125 
Q 12.203125 40.828125 9.5625 44.53125 
Q 6.9375 48.25 6.9375 53.421875 
Q 6.9375 61.234375 12.546875 66.546875 
Q 18.171875 71.875 27.484375 71.875 
Q 36.859375 71.875 42.578125 66.421875 
Q 48.296875 60.984375 48.296875 53.171875 
Q 48.296875 48.1875 45.671875 44.5 
Q 43.0625 40.828125 37.75 38.8125 
Q 44.34375 36.671875 47.78125 31.875 
Q 51.21875 27.09375 51.21875 20.453125 
Q 51.21875 11.28125 44.71875 5.03125 
Q 38.234375 -1.21875 27.640625 -1.21875 
Q 17.046875 -1.21875 10.546875 5.046875 
Q 4.046875 11.328125 4.046875 20.703125 
Q 4.046875 27.6875 7.59375 32.390625 
Q 11.140625 37.109375 17.671875 38.8125 
z
M 15.921875 53.71875 
Q 15.921875 48.640625 19.1875 45.40625 
Q 22.46875 42.1875 27.6875 42.1875 
Q 32.765625 42.1875 36.015625 45.375 
Q 39.265625 48.578125 39.265625 53.21875 
Q 39.265625 58.0625 35.90625 61.359375 
Q 32.5625 64.65625 27.59375 64.65625 
Q 22.5625 64.65625 19.234375 61.421875 
Q 15.921875 58.203125 15.921875 53.71875 
z
M 13.09375 20.65625 
Q 13.09375 16.890625 14.875 13.375 
Q 16.65625 9.859375 20.171875 7.921875 
Q 23.6875 6 27.734375 6 
Q 34.03125 6 38.125 10.046875 
Q 42.234375 14.109375 42.234375 20.359375 
Q 42.234375 26.703125 38.015625 30.859375 
Q 33.796875 35.015625 27.4375 35.015625 
Q 21.234375 35.015625 17.15625 30.90625 
Q 13.09375 26.8125 13.09375 20.65625 
z
" id="ArialMT-56"/>
    </defs>
    <g style="fill:#262626;" transform="translate(533.483438 15.6)scale(0.12 -0.12)">
     <use xlink:href="#ArialMT-51"/>
     <use x="55.615234" xlink:href="#ArialMT-56"/>
     <use x="111.230469" xlink:href="#ArialMT-52"/>
     <use x="166.845703" xlink:href="#ArialMT-58"/>
     <use x="194.628906" xlink:href="#ArialMT-52"/>
     <use x="250.244141" xlink:href="#ArialMT-46"/>
     <use x="278.027344" xlink:href="#ArialMT-48"/>
    </g>
   </g>
  </g>
  <g id="axes_4">
   <g id="patch_52">
    <path d="M 654.517241 157.5 
L 798.827586 157.5 
L 798.827586 21.6 
L 654.517241 21.6 
z
" style="fill:#ffffff;"/>
   </g>
   <g id="patch_53">
    <path clip-path="url(#p1974abb57f)" d="M 736.14278 145.242353 
L 724.868534 145.242353 
" style="stroke:#000000;stroke-linejoin:miter;stroke-width:0.5;"/>
   </g>
   <g id="patch_54">
    <path clip-path="url(#p1974abb57f)" d="M 747.417026 145.242353 
L 736.14278 145.242353 
" style="stroke:#000000;stroke-linejoin:miter;stroke-width:0.5;"/>
   </g>
   <g id="patch_55">
    <path clip-path="url(#p1974abb57f)" d="M 758.691272 125.257059 
L 747.417026 145.242353 
" style="stroke:#000000;stroke-linejoin:miter;stroke-width:0.5;"/>
   </g>
   <g id="patch_56">
    <path clip-path="url(#p1974abb57f)" d="M 736.14278 118.595294 
L 724.868534 118.595294 
" style="stroke:#000000;stroke-linejoin:miter;stroke-width:0.5;"/>
   </g>
   <g id="patch_57">
    <path clip-path="url(#p1974abb57f)" d="M 747.417026 105.271765 
L 736.14278 118.595294 
" style="stroke:#000000;stroke-linejoin:miter;stroke-width:0.5;"/>
   </g>
   <g id="patch_58">
    <path clip-path="url(#p1974abb57f)" d="M 713.594289 91.948235 
L 702.320043 91.948235 
" style="stroke:#000000;stroke-linejoin:miter;stroke-width:0.5;"/>
   </g>
   <g id="patch_59">
    <path clip-path="url(#p1974abb57f)" d="M 724.868534 91.948235 
L 713.594289 91.948235 
" style="stroke:#000000;stroke-linejoin:miter;stroke-width:0.5;"/>
   </g>
   <g id="patch_60">
    <path clip-path="url(#p1974abb57f)" d="M 736.14278 91.948235 
L 724.868534 91.948235 
" style="stroke:#000000;stroke-linejoin:miter;stroke-width:0.5;"/>
   </g>
   <g id="patch_61">
    <path clip-path="url(#p1974abb57f)" d="M 747.417026 105.271765 
L 736.14278 91.948235 
" style="stroke:#000000;stroke-linejoin:miter;stroke-width:0.5;"/>
   </g>
   <g id="patch_62">
    <path clip-path="url(#p1974abb57f)" d="M 758.691272 125.257059 
L 747.417026 105.271765 
" style="stroke:#000000;stroke-linejoin:miter;stroke-width:0.5;"/>
   </g>
   <g id="patch_63">
    <path clip-path="url(#p1974abb57f)" d="M 769.965517 125.257059 
L 758.691272 125.257059 
" style="stroke:#000000;stroke-linejoin:miter;stroke-width:0.5;"/>
   </g>
   <g id="patch_64">
    <path clip-path="url(#p1974abb57f)" d="M 781.239763 125.257059 
L 769.965517 125.257059 
" style="stroke:#000000;stroke-linejoin:miter;stroke-width:0.5;"/>
   </g>
   <g id="patch_65">
    <path clip-path="url(#p1974abb57f)" d="M 781.239763 125.257059 
L 781.239763 111.933529 
" style="stroke:#000000;stroke-linejoin:miter;stroke-width:0.5;"/>
   </g>
   <g id="81ce599ee0f34fb2816298b04a96d718-1-node">
    <path clip-path="url(#p1974abb57f)" d="M 783.156385 120.727059 
L 783.156385 129.787059 
L 779.323141 129.787059 
L 779.323141 120.727059 
L 783.156385 120.727059 
z
" style="fill:#0000ff;stroke:#ffffff;stroke-linejoin:miter;stroke-width:0.5;"/>
   </g>
   <g id="81ce599ee0f34fb2816298b04a96d718-4-node">
    <path clip-path="url(#p1974abb57f)" d="M 771.882139 120.727059 
L 771.882139 129.787059 
L 768.048895 129.787059 
L 768.048895 120.727059 
L 771.882139 120.727059 
z
" style="fill:#0000ff;stroke:#ffffff;stroke-linejoin:miter;stroke-width:0.5;"/>
   </g>
   <g id="81ce599ee0f34fb2816298b04a96d718-6-node">
    <path clip-path="url(#p1974abb57f)" d="M 758.691272 129.787059 
C 759.199566 129.787059 759.68711 129.309749 760.046528 128.460253 
C 760.405946 127.610756 760.607893 126.458429 760.607893 125.257059 
C 760.607893 124.055689 760.405946 122.903362 760.046528 122.053865 
C 759.68711 121.204368 759.199566 120.727059 758.691272 120.727059 
C 758.182978 120.727059 757.695433 121.204368 757.336015 122.053865 
C 756.976597 122.903362 756.77465 124.055689 756.77465 125.257059 
C 756.77465 126.458429 756.976597 127.610756 757.336015 128.460253 
C 757.695433 129.309749 758.182978 129.787059 758.691272 129.787059 
z
" style="fill:#00c832;stroke:#ffffff;stroke-linejoin:miter;stroke-width:0.5;"/>
   </g>
   <g id="81ce599ee0f34fb2816298b04a96d718-17-node">
    <path clip-path="url(#p1974abb57f)" d="M 747.417026 149.772353 
C 747.92532 149.772353 748.412864 149.295044 748.772282 148.445547 
C 749.1317 147.59605 749.333648 146.443723 749.333648 145.242353 
C 749.333648 144.040983 749.1317 142.888656 748.772282 142.039159 
C 748.412864 141.189662 747.92532 140.712353 747.417026 140.712353 
C 746.908732 140.712353 746.421188 141.189662 746.06177 142.039159 
C 745.702351 142.888656 745.500404 144.040983 745.500404 145.242353 
C 745.500404 146.443723 745.702351 147.59605 746.06177 148.445547 
C 746.421188 149.295044 746.908732 149.772353 747.417026 149.772353 
z
" style="fill:#00c832;stroke:#ffffff;stroke-linejoin:miter;stroke-width:0.5;"/>
   </g>
   <g id="81ce599ee0f34fb2816298b04a96d718-18-node">
    <path clip-path="url(#p1974abb57f)" d="M 738.059402 140.712353 
L 738.059402 149.772353 
L 734.226158 149.772353 
L 734.226158 140.712353 
L 738.059402 140.712353 
z
" style="fill:#0000ff;stroke:#ffffff;stroke-linejoin:miter;stroke-width:0.5;"/>
   </g>
   <g id="81ce599ee0f34fb2816298b04a96d718-20-node">
    <path clip-path="url(#p1974abb57f)" d="M 724.868534 149.772353 
C 725.376829 149.772353 725.864373 149.295044 726.223791 148.445547 
C 726.583209 147.59605 726.785156 146.443723 726.785156 145.242353 
C 726.785156 144.040983 726.583209 142.888656 726.223791 142.039159 
C 725.864373 141.189662 725.376829 140.712353 724.868534 140.712353 
C 724.36024 140.712353 723.872696 141.189662 723.513278 142.039159 
C 723.15386 142.888656 722.951913 144.040983 722.951913 145.242353 
C 722.951913 146.443723 723.15386 147.59605 723.513278 148.445547 
C 723.872696 149.295044 724.36024 149.772353 724.868534 149.772353 
z
" style="fill:#ffff00;stroke:#ffffff;stroke-linejoin:miter;stroke-width:0.5;"/>
   </g>
   <g id="81ce599ee0f34fb2816298b04a96d718-7-node">
    <path clip-path="url(#p1974abb57f)" d="M 747.417026 109.801765 
C 747.92532 109.801765 748.412864 109.324455 748.772282 108.474958 
C 749.1317 107.625462 749.333648 106.473135 749.333648 105.271765 
C 749.333648 104.070395 749.1317 102.918068 748.772282 102.068571 
C 748.412864 101.219074 747.92532 100.741765 747.417026 100.741765 
C 746.908732 100.741765 746.421188 101.219074 746.06177 102.068571 
C 745.702351 102.918068 745.500404 104.070395 745.500404 105.271765 
C 745.500404 106.473135 745.702351 107.625462 746.06177 108.474958 
C 746.421188 109.324455 746.908732 109.801765 747.417026 109.801765 
z
" style="fill:#00c832;stroke:#ffffff;stroke-linejoin:miter;stroke-width:0.5;"/>
   </g>
   <g id="81ce599ee0f34fb2816298b04a96d718-14-node">
    <path clip-path="url(#p1974abb57f)" d="M 738.059402 114.065294 
L 738.059402 123.125294 
L 734.226158 123.125294 
L 734.226158 114.065294 
L 738.059402 114.065294 
z
" style="fill:#0000ff;stroke:#ffffff;stroke-linejoin:miter;stroke-width:0.5;"/>
   </g>
   <g id="81ce599ee0f34fb2816298b04a96d718-16-node">
    <path clip-path="url(#p1974abb57f)" d="M 724.868534 123.125294 
C 725.376829 123.125294 725.864373 122.647985 726.223791 121.798488 
C 726.583209 120.948991 726.785156 119.796664 726.785156 118.595294 
C 726.785156 117.393924 726.583209 116.241597 726.223791 115.3921 
C 725.864373 114.542603 725.376829 114.065294 724.868534 114.065294 
C 724.36024 114.065294 723.872696 114.542603 723.513278 115.3921 
C 723.15386 116.241597 722.951913 117.393924 722.951913 118.595294 
C 722.951913 119.796664 723.15386 120.948991 723.513278 121.798488 
C 723.872696 122.647985 724.36024 123.125294 724.868534 123.125294 
z
" style="fill:#ffff00;stroke:#ffffff;stroke-linejoin:miter;stroke-width:0.5;"/>
   </g>
   <g id="81ce599ee0f34fb2816298b04a96d718-8-node">
    <path clip-path="url(#p1974abb57f)" d="M 738.059402 87.418235 
L 738.059402 96.478235 
L 734.226158 96.478235 
L 734.226158 87.418235 
L 738.059402 87.418235 
z
" style="fill:#0000ff;stroke:#ffffff;stroke-linejoin:miter;stroke-width:0.5;"/>
   </g>
   <g id="81ce599ee0f34fb2816298b04a96d718-10-node">
    <path clip-path="url(#p1974abb57f)" d="M 724.868534 96.478235 
C 725.376829 96.478235 725.864373 96.000926 726.223791 95.151429 
C 726.583209 94.301932 726.785156 93.149605 726.785156 91.948235 
C 726.785156 90.746865 726.583209 89.594538 726.223791 88.745042 
C 725.864373 87.895545 725.376829 87.418235 724.868534 87.418235 
C 724.36024 87.418235 723.872696 87.895545 723.513278 88.745042 
C 723.15386 89.594538 722.951913 90.746865 722.951913 91.948235 
C 722.951913 93.149605 723.15386 94.301932 723.513278 95.151429 
C 723.872696 96.000926 724.36024 96.478235 724.868534 96.478235 
z
" style="fill:#ffff00;stroke:#ffffff;stroke-linejoin:miter;stroke-width:0.5;"/>
   </g>
   <g id="81ce599ee0f34fb2816298b04a96d718-11-node">
    <path clip-path="url(#p1974abb57f)" d="M 715.510911 87.418235 
L 715.510911 96.478235 
L 711.677667 96.478235 
L 711.677667 87.418235 
L 715.510911 87.418235 
z
" style="fill:#0000ff;stroke:#ffffff;stroke-linejoin:miter;stroke-width:0.5;"/>
   </g>
   <g id="81ce599ee0f34fb2816298b04a96d718-13-node">
    <path clip-path="url(#p1974abb57f)" d="M 702.320043 96.478235 
C 702.828337 96.478235 703.315881 96.000926 703.675299 95.151429 
C 704.034718 94.301932 704.236665 93.149605 704.236665 91.948235 
C 704.236665 90.746865 704.034718 89.594538 703.675299 88.745042 
C 703.315881 87.895545 702.828337 87.418235 702.320043 87.418235 
C 701.811749 87.418235 701.324205 87.895545 700.964787 88.745042 
C 700.605369 89.594538 700.403421 90.746865 700.403421 91.948235 
C 700.403421 93.149605 700.605369 94.301932 700.964787 95.151429 
C 701.324205 96.000926 701.811749 96.478235 702.320043 96.478235 
z
" style="fill:#ffff00;stroke:#ffffff;stroke-linejoin:miter;stroke-width:0.5;"/>
   </g>
   <g id="81ce599ee0f34fb2816298b04a96d718-3-node">
    <path clip-path="url(#p1974abb57f)" d="M 781.239763 107.403529 
L 779.57992 114.198529 
L 782.899606 114.198529 
z
" style="fill:#ff0000;stroke:#ffffff;stroke-linejoin:miter;stroke-width:0.5;"/>
   </g>
   <g id="patch_66">
    <path d="M 654.517241 157.5 
L 654.517241 21.6 
" style="fill:none;stroke:#ffffff;stroke-linecap:square;stroke-linejoin:miter;stroke-width:1.25;"/>
   </g>
   <g id="patch_67">
    <path d="M 798.827586 157.5 
L 798.827586 21.6 
" style="fill:none;stroke:#ffffff;stroke-linecap:square;stroke-linejoin:miter;stroke-width:1.25;"/>
   </g>
   <g id="patch_68">
    <path d="M 654.517241 157.5 
L 798.827586 157.5 
" style="fill:none;stroke:#ffffff;stroke-linecap:square;stroke-linejoin:miter;stroke-width:1.25;"/>
   </g>
   <g id="patch_69">
    <path d="M 654.517241 21.6 
L 798.827586 21.6 
" style="fill:none;stroke:#ffffff;stroke-linecap:square;stroke-linejoin:miter;stroke-width:1.25;"/>
   </g>
   <g id="text_4">
    <!-- 527:4.0 -->
    <g style="fill:#262626;" transform="translate(706.655851 15.6)scale(0.12 -0.12)">
     <use xlink:href="#ArialMT-53"/>
     <use x="55.615234" xlink:href="#ArialMT-50"/>
     <use x="111.230469" xlink:href="#ArialMT-55"/>
     <use x="166.845703" xlink:href="#ArialMT-58"/>
     <use x="194.628906" xlink:href="#ArialMT-52"/>
     <use x="250.244141" xlink:href="#ArialMT-46"/>
     <use x="278.027344" xlink:href="#ArialMT-48"/>
    </g>
   </g>
  </g>
  <g id="axes_5">
   <g id="patch_70">
    <path d="M 827.689655 157.5 
L 972 157.5 
L 972 21.6 
L 827.689655 21.6 
z
" style="fill:#eaeaf2;"/>
   </g>
   <g id="matplotlib.axis_1">
    <g id="xtick_1">
     <g id="line2d_1">
      <path clip-path="url(#p5500dd809d)" d="M 827.689655 157.5 
L 827.689655 21.6 
" style="fill:none;stroke:#ffffff;stroke-linecap:round;"/>
     </g>
     <g id="text_5">
      <!-- 0.00 -->
      <g style="fill:#262626;" transform="translate(816.98614 174.873594)scale(0.11 -0.11)">
       <use xlink:href="#ArialMT-48"/>
       <use x="55.615234" xlink:href="#ArialMT-46"/>
       <use x="83.398438" xlink:href="#ArialMT-48"/>
       <use x="139.013672" xlink:href="#ArialMT-48"/>
      </g>
     </g>
    </g>
    <g id="xtick_2">
     <g id="line2d_2">
      <path clip-path="url(#p5500dd809d)" d="M 863.767241 157.5 
L 863.767241 21.6 
" style="fill:none;stroke:#ffffff;stroke-linecap:round;"/>
     </g>
     <g id="text_6">
      <!-- 0.25 -->
      <g style="fill:#262626;" transform="translate(853.063726 174.873594)scale(0.11 -0.11)">
       <use xlink:href="#ArialMT-48"/>
       <use x="55.615234" xlink:href="#ArialMT-46"/>
       <use x="83.398438" xlink:href="#ArialMT-50"/>
       <use x="139.013672" xlink:href="#ArialMT-53"/>
      </g>
     </g>
    </g>
    <g id="xtick_3">
     <g id="line2d_3">
      <path clip-path="url(#p5500dd809d)" d="M 899.844828 157.5 
L 899.844828 21.6 
" style="fill:none;stroke:#ffffff;stroke-linecap:round;"/>
     </g>
     <g id="text_7">
      <!-- 0.50 -->
      <g style="fill:#262626;" transform="translate(889.141312 174.873594)scale(0.11 -0.11)">
       <use xlink:href="#ArialMT-48"/>
       <use x="55.615234" xlink:href="#ArialMT-46"/>
       <use x="83.398438" xlink:href="#ArialMT-53"/>
       <use x="139.013672" xlink:href="#ArialMT-48"/>
      </g>
     </g>
    </g>
    <g id="xtick_4">
     <g id="line2d_4">
      <path clip-path="url(#p5500dd809d)" d="M 935.922414 157.5 
L 935.922414 21.6 
" style="fill:none;stroke:#ffffff;stroke-linecap:round;"/>
     </g>
     <g id="text_8">
      <!-- 0.75 -->
      <g style="fill:#262626;" transform="translate(925.218898 174.873594)scale(0.11 -0.11)">
       <use xlink:href="#ArialMT-48"/>
       <use x="55.615234" xlink:href="#ArialMT-46"/>
       <use x="83.398438" xlink:href="#ArialMT-55"/>
       <use x="139.013672" xlink:href="#ArialMT-53"/>
      </g>
     </g>
    </g>
    <g id="xtick_5">
     <g id="line2d_5">
      <path clip-path="url(#p5500dd809d)" d="M 972 157.5 
L 972 21.6 
" style="fill:none;stroke:#ffffff;stroke-linecap:round;"/>
     </g>
     <g id="text_9">
      <!-- 1.00 -->
      <g style="fill:#262626;" transform="translate(961.296484 174.873594)scale(0.11 -0.11)">
       <use xlink:href="#ArialMT-49"/>
       <use x="55.615234" xlink:href="#ArialMT-46"/>
       <use x="83.398438" xlink:href="#ArialMT-48"/>
       <use x="139.013672" xlink:href="#ArialMT-48"/>
      </g>
     </g>
    </g>
   </g>
   <g id="matplotlib.axis_2">
    <g id="ytick_1">
     <g id="line2d_6">
      <path clip-path="url(#p5500dd809d)" d="M 827.689655 157.5 
L 972 157.5 
" style="fill:none;stroke:#ffffff;stroke-linecap:round;"/>
     </g>
     <g id="text_10">
      <!-- 0.0 -->
      <g style="fill:#262626;" transform="translate(802.899655 161.436797)scale(0.11 -0.11)">
       <use xlink:href="#ArialMT-48"/>
       <use x="55.615234" xlink:href="#ArialMT-46"/>
       <use x="83.398438" xlink:href="#ArialMT-48"/>
      </g>
     </g>
    </g>
    <g id="ytick_2">
     <g id="line2d_7">
      <path clip-path="url(#p5500dd809d)" d="M 827.689655 130.32 
L 972 130.32 
" style="fill:none;stroke:#ffffff;stroke-linecap:round;"/>
     </g>
     <g id="text_11">
      <!-- 0.2 -->
      <g style="fill:#262626;" transform="translate(802.899655 134.256797)scale(0.11 -0.11)">
       <use xlink:href="#ArialMT-48"/>
       <use x="55.615234" xlink:href="#ArialMT-46"/>
       <use x="83.398438" xlink:href="#ArialMT-50"/>
      </g>
     </g>
    </g>
    <g id="ytick_3">
     <g id="line2d_8">
      <path clip-path="url(#p5500dd809d)" d="M 827.689655 103.14 
L 972 103.14 
" style="fill:none;stroke:#ffffff;stroke-linecap:round;"/>
     </g>
     <g id="text_12">
      <!-- 0.4 -->
      <g style="fill:#262626;" transform="translate(802.899655 107.076797)scale(0.11 -0.11)">
       <use xlink:href="#ArialMT-48"/>
       <use x="55.615234" xlink:href="#ArialMT-46"/>
       <use x="83.398438" xlink:href="#ArialMT-52"/>
      </g>
     </g>
    </g>
    <g id="ytick_4">
     <g id="line2d_9">
      <path clip-path="url(#p5500dd809d)" d="M 827.689655 75.96 
L 972 75.96 
" style="fill:none;stroke:#ffffff;stroke-linecap:round;"/>
     </g>
     <g id="text_13">
      <!-- 0.6 -->
      <defs>
       <path d="M 49.75 54.046875 
L 41.015625 53.375 
Q 39.84375 58.546875 37.703125 60.890625 
Q 34.125 64.65625 28.90625 64.65625 
Q 24.703125 64.65625 21.53125 62.3125 
Q 17.390625 59.28125 14.984375 53.46875 
Q 12.59375 47.65625 12.5 36.921875 
Q 15.671875 41.75 20.265625 44.09375 
Q 24.859375 46.4375 29.890625 46.4375 
Q 38.671875 46.4375 44.84375 39.96875 
Q 51.03125 33.5 51.03125 23.25 
Q 51.03125 16.5 48.125 10.71875 
Q 45.21875 4.9375 40.140625 1.859375 
Q 35.0625 -1.21875 28.609375 -1.21875 
Q 17.625 -1.21875 10.6875 6.859375 
Q 3.765625 14.9375 3.765625 33.5 
Q 3.765625 54.25 11.421875 63.671875 
Q 18.109375 71.875 29.4375 71.875 
Q 37.890625 71.875 43.28125 67.140625 
Q 48.6875 62.40625 49.75 54.046875 
z
M 13.875 23.1875 
Q 13.875 18.65625 15.796875 14.5 
Q 17.71875 10.359375 21.1875 8.171875 
Q 24.65625 6 28.46875 6 
Q 34.03125 6 38.03125 10.484375 
Q 42.046875 14.984375 42.046875 22.703125 
Q 42.046875 30.125 38.078125 34.390625 
Q 34.125 38.671875 28.125 38.671875 
Q 22.171875 38.671875 18.015625 34.390625 
Q 13.875 30.125 13.875 23.1875 
z
" id="ArialMT-54"/>
      </defs>
      <g style="fill:#262626;" transform="translate(802.899655 79.896797)scale(0.11 -0.11)">
       <use xlink:href="#ArialMT-48"/>
       <use x="55.615234" xlink:href="#ArialMT-46"/>
       <use x="83.398438" xlink:href="#ArialMT-54"/>
      </g>
     </g>
    </g>
    <g id="ytick_5">
     <g id="line2d_10">
      <path clip-path="url(#p5500dd809d)" d="M 827.689655 48.78 
L 972 48.78 
" style="fill:none;stroke:#ffffff;stroke-linecap:round;"/>
     </g>
     <g id="text_14">
      <!-- 0.8 -->
      <g style="fill:#262626;" transform="translate(802.899655 52.716797)scale(0.11 -0.11)">
       <use xlink:href="#ArialMT-48"/>
       <use x="55.615234" xlink:href="#ArialMT-46"/>
       <use x="83.398438" xlink:href="#ArialMT-56"/>
      </g>
     </g>
    </g>
    <g id="ytick_6">
     <g id="line2d_11">
      <path clip-path="url(#p5500dd809d)" d="M 827.689655 21.6 
L 972 21.6 
" style="fill:none;stroke:#ffffff;stroke-linecap:round;"/>
     </g>
     <g id="text_15">
      <!-- 1.0 -->
      <g style="fill:#262626;" transform="translate(802.899655 25.536797)scale(0.11 -0.11)">
       <use xlink:href="#ArialMT-49"/>
       <use x="55.615234" xlink:href="#ArialMT-46"/>
       <use x="83.398438" xlink:href="#ArialMT-48"/>
      </g>
     </g>
    </g>
   </g>
   <g id="patch_71">
    <path d="M 827.689655 157.5 
L 827.689655 21.6 
" style="fill:none;stroke:#ffffff;stroke-linecap:square;stroke-linejoin:miter;stroke-width:1.25;"/>
   </g>
   <g id="patch_72">
    <path d="M 972 157.5 
L 972 21.6 
" style="fill:none;stroke:#ffffff;stroke-linecap:square;stroke-linejoin:miter;stroke-width:1.25;"/>
   </g>
   <g id="patch_73">
    <path d="M 827.689655 157.5 
L 972 157.5 
" style="fill:none;stroke:#ffffff;stroke-linecap:square;stroke-linejoin:miter;stroke-width:1.25;"/>
   </g>
   <g id="patch_74">
    <path d="M 827.689655 21.6 
L 972 21.6 
" style="fill:none;stroke:#ffffff;stroke-linecap:square;stroke-linejoin:miter;stroke-width:1.25;"/>
   </g>
   <g id="text_16">
    <!-- 12 -->
    <g style="fill:#262626;" transform="translate(893.171703 15.6)scale(0.12 -0.12)">
     <use xlink:href="#ArialMT-49"/>
     <use x="55.615234" xlink:href="#ArialMT-50"/>
    </g>
   </g>
  </g>
 </g>
 <defs>
  <clipPath id="pd2e17c181f">
   <rect height="135.9" width="144.310345" x="135" y="21.6"/>
  </clipPath>
  <clipPath id="pda6575a296">
   <rect height="135.9" width="144.310345" x="308.172414" y="21.6"/>
  </clipPath>
  <clipPath id="pb3bd43e796">
   <rect height="135.9" width="144.310345" x="481.344828" y="21.6"/>
  </clipPath>
  <clipPath id="p1974abb57f">
   <rect height="135.9" width="144.310345" x="654.517241" y="21.6"/>
  </clipPath>
  <clipPath id="p5500dd809d">
   <rect height="135.9" width="144.310345" x="827.689655" y="21.6"/>
  </clipPath>
 </defs>
</svg>
