<?xml version="1.0" encoding="utf-8" standalone="no"?>
<!DOCTYPE svg PUBLIC "-//W3C//DTD SVG 1.1//EN"
  "http://www.w3.org/Graphics/SVG/1.1/DTD/svg11.dtd">
<!-- Created with matplotlib (https://matplotlib.org/) -->
<svg height="360pt" version="1.1" viewBox="0 0 1080 360" width="1080pt" xmlns="http://www.w3.org/2000/svg" xmlns:xlink="http://www.w3.org/1999/xlink">
 <defs>
  <style type="text/css">
*{stroke-linecap:butt;stroke-linejoin:round;}
  </style>
 </defs>
 <g id="figure_1">
  <g id="patch_1">
   <path d="M 0 360 
L 1080 360 
L 1080 0 
L 0 0 
z
" style="fill:#ffffff;"/>
  </g>
  <g id="axes_1">
   <g id="patch_2">
    <path d="M 135 166.745455 
L 279.310345 166.745455 
L 279.310345 43.2 
L 135 43.2 
z
" style="fill:#ffffff;"/>
   </g>
   <g id="patch_3">
    <path clip-path="url(#p0278864045)" d="M 204.010981 127.501604 
L 187.88692 139.613904 
" style="stroke:#000000;stroke-linejoin:miter;stroke-width:0.5;"/>
   </g>
   <g id="patch_4">
    <path clip-path="url(#p0278864045)" d="M 204.010981 127.501604 
L 187.88692 115.389305 
" style="stroke:#000000;stroke-linejoin:miter;stroke-width:0.5;"/>
   </g>
   <g id="patch_5">
    <path clip-path="url(#p0278864045)" d="M 220.135041 115.389305 
L 204.010981 127.501604 
" style="stroke:#000000;stroke-linejoin:miter;stroke-width:0.5;"/>
   </g>
   <g id="patch_6">
    <path clip-path="url(#p0278864045)" d="M 220.135041 115.389305 
L 204.010981 103.277005 
" style="stroke:#000000;stroke-linejoin:miter;stroke-width:0.5;"/>
   </g>
   <g id="patch_7">
    <path clip-path="url(#p0278864045)" d="M 236.259102 115.389305 
L 220.135041 115.389305 
" style="stroke:#000000;stroke-linejoin:miter;stroke-width:0.5;"/>
   </g>
   <g id="patch_8">
    <path clip-path="url(#p0278864045)" d="M 252.383163 115.389305 
L 236.259102 115.389305 
" style="stroke:#000000;stroke-linejoin:miter;stroke-width:0.5;"/>
   </g>
   <g id="7880543c287945629b11376c4d05938b-1-node">
    <path clip-path="url(#p0278864045)" d="M 255.124254 111.271123 
L 255.124254 119.507487 
L 249.642073 119.507487 
L 249.642073 111.271123 
L 255.124254 111.271123 
z
" style="fill:#0000ff;stroke:#ffffff;stroke-linejoin:miter;stroke-width:0.5;"/>
   </g>
   <g id="7880543c287945629b11376c4d05938b-3-node">
    <path clip-path="url(#p0278864045)" d="M 239.000193 111.271123 
L 239.000193 119.507487 
L 233.518012 119.507487 
L 233.518012 111.271123 
L 239.000193 111.271123 
z
" style="fill:#0000ff;stroke:#ffffff;stroke-linejoin:miter;stroke-width:0.5;"/>
   </g>
   <g id="7880543c287945629b11376c4d05938b-5-node">
    <path clip-path="url(#p0278864045)" d="M 220.135041 119.507487 
C 220.861987 119.507487 221.559257 119.073569 222.073285 118.301299 
C 222.587313 117.529029 222.876132 116.481459 222.876132 115.389305 
C 222.876132 114.29715 222.587313 113.24958 222.073285 112.477311 
C 221.559257 111.705041 220.861987 111.271123 220.135041 111.271123 
C 219.408096 111.271123 218.710826 111.705041 218.196798 112.477311 
C 217.68277 113.24958 217.393951 114.29715 217.393951 115.389305 
C 217.393951 116.481459 217.68277 117.529029 218.196798 118.301299 
C 218.710826 119.073569 219.408096 119.507487 220.135041 119.507487 
z
" style="fill:#00c832;stroke:#ffffff;stroke-linejoin:miter;stroke-width:0.5;"/>
   </g>
   <g id="7880543c287945629b11376c4d05938b-7-node">
    <path clip-path="url(#p0278864045)" d="M 204.010981 131.619786 
C 204.737926 131.619786 205.435196 131.185868 205.949224 130.413599 
C 206.463252 129.641329 206.752071 128.593759 206.752071 127.501604 
C 206.752071 126.40945 206.463252 125.36188 205.949224 124.58961 
C 205.435196 123.81734 204.737926 123.383422 204.010981 123.383422 
C 203.284035 123.383422 202.586765 123.81734 202.072737 124.58961 
C 201.558709 125.36188 201.26989 126.40945 201.26989 127.501604 
C 201.26989 128.593759 201.558709 129.641329 202.072737 130.413599 
C 202.586765 131.185868 203.284035 131.619786 204.010981 131.619786 
z
" style="fill:#00c832;stroke:#ffffff;stroke-linejoin:miter;stroke-width:0.5;"/>
   </g>
   <g id="7880543c287945629b11376c4d05938b-10-node">
    <path clip-path="url(#p0278864045)" d="M 190.62801 135.495722 
L 190.62801 143.732086 
L 185.145829 143.732086 
L 185.145829 135.495722 
L 190.62801 135.495722 
z
" style="fill:#0000ff;stroke:#ffffff;stroke-linejoin:miter;stroke-width:0.5;"/>
   </g>
   <g id="7880543c287945629b11376c4d05938b-8-node">
    <path clip-path="url(#p0278864045)" d="M 190.62801 111.271123 
L 190.62801 119.507487 
L 185.145829 119.507487 
L 185.145829 111.271123 
L 190.62801 111.271123 
z
" style="fill:#0000ff;stroke:#ffffff;stroke-linejoin:miter;stroke-width:0.5;"/>
   </g>
   <g id="7880543c287945629b11376c4d05938b-6-node">
    <path clip-path="url(#p0278864045)" d="M 204.010981 107.395187 
C 204.737926 107.395187 205.435196 106.96127 205.949224 106.189 
C 206.463252 105.41673 206.752071 104.36916 206.752071 103.277005 
C 206.752071 102.184851 206.463252 101.137281 205.949224 100.365011 
C 205.435196 99.592741 204.737926 99.158824 204.010981 99.158824 
C 203.284035 99.158824 202.586765 99.592741 202.072737 100.365011 
C 201.558709 101.137281 201.26989 102.184851 201.26989 103.277005 
C 201.26989 104.36916 201.558709 105.41673 202.072737 106.189 
C 202.586765 106.96127 203.284035 107.395187 204.010981 107.395187 
z
" style="fill:#00c832;stroke:#ffffff;stroke-linejoin:miter;stroke-width:0.5;"/>
   </g>
   <g id="patch_9">
    <path d="M 135 166.745455 
L 135 43.2 
" style="fill:none;stroke:#ffffff;stroke-linecap:square;stroke-linejoin:miter;stroke-width:1.25;"/>
   </g>
   <g id="patch_10">
    <path d="M 279.310345 166.745455 
L 279.310345 43.2 
" style="fill:none;stroke:#ffffff;stroke-linecap:square;stroke-linejoin:miter;stroke-width:1.25;"/>
   </g>
   <g id="patch_11">
    <path d="M 135 166.745455 
L 279.310345 166.745455 
" style="fill:none;stroke:#ffffff;stroke-linecap:square;stroke-linejoin:miter;stroke-width:1.25;"/>
   </g>
   <g id="patch_12">
    <path d="M 135 43.2 
L 279.310345 43.2 
" style="fill:none;stroke:#ffffff;stroke-linecap:square;stroke-linejoin:miter;stroke-width:1.25;"/>
   </g>
   <g id="text_1">
    <!-- 4:1 -->
    <defs>
     <path d="M 32.328125 0 
L 32.328125 17.140625 
L 1.265625 17.140625 
L 1.265625 25.203125 
L 33.9375 71.578125 
L 41.109375 71.578125 
L 41.109375 25.203125 
L 50.78125 25.203125 
L 50.78125 17.140625 
L 41.109375 17.140625 
L 41.109375 0 
z
M 32.328125 25.203125 
L 32.328125 57.46875 
L 9.90625 25.203125 
z
" id="ArialMT-52"/>
     <path d="M 9.03125 41.84375 
L 9.03125 51.859375 
L 19.046875 51.859375 
L 19.046875 41.84375 
z
M 9.03125 0 
L 9.03125 10.015625 
L 19.046875 10.015625 
L 19.046875 0 
z
" id="ArialMT-58"/>
     <path d="M 37.25 0 
L 28.46875 0 
L 28.46875 56 
Q 25.296875 52.984375 20.140625 49.953125 
Q 14.984375 46.921875 10.890625 45.40625 
L 10.890625 53.90625 
Q 18.265625 57.375 23.78125 62.296875 
Q 29.296875 67.234375 31.59375 71.875 
L 37.25 71.875 
z
" id="ArialMT-49"/>
    </defs>
    <g style="fill:#262626;" transform="translate(198.815172 37.2)scale(0.12 -0.12)">
     <use xlink:href="#ArialMT-52"/>
     <use x="55.615234" xlink:href="#ArialMT-58"/>
     <use x="83.398438" xlink:href="#ArialMT-49"/>
    </g>
   </g>
  </g>
  <g id="axes_2">
   <g id="patch_13">
    <path d="M 308.172414 166.745455 
L 452.482759 166.745455 
L 452.482759 43.2 
L 308.172414 43.2 
z
" style="fill:#ffffff;"/>
   </g>
   <g id="patch_14">
    <path clip-path="url(#p8f64d1fe7f)" d="M 377.183394 127.501604 
L 361.059333 139.613904 
" style="stroke:#000000;stroke-linejoin:miter;stroke-width:0.5;"/>
   </g>
   <g id="patch_15">
    <path clip-path="url(#p8f64d1fe7f)" d="M 377.183394 127.501604 
L 361.059333 115.389305 
" style="stroke:#000000;stroke-linejoin:miter;stroke-width:0.5;"/>
   </g>
   <g id="patch_16">
    <path clip-path="url(#p8f64d1fe7f)" d="M 393.307455 115.389305 
L 377.183394 127.501604 
" style="stroke:#000000;stroke-linejoin:miter;stroke-width:0.5;"/>
   </g>
   <g id="patch_17">
    <path clip-path="url(#p8f64d1fe7f)" d="M 393.307455 115.389305 
L 377.183394 103.277005 
" style="stroke:#000000;stroke-linejoin:miter;stroke-width:0.5;"/>
   </g>
   <g id="patch_18">
    <path clip-path="url(#p8f64d1fe7f)" d="M 409.431516 115.389305 
L 393.307455 115.389305 
" style="stroke:#000000;stroke-linejoin:miter;stroke-width:0.5;"/>
   </g>
   <g id="patch_19">
    <path clip-path="url(#p8f64d1fe7f)" d="M 425.555577 115.389305 
L 409.431516 115.389305 
" style="stroke:#000000;stroke-linejoin:miter;stroke-width:0.5;"/>
   </g>
   <g id="patch_20">
    <path clip-path="url(#p8f64d1fe7f)" d="M 425.555577 115.389305 
L 425.555577 103.277005 
" style="stroke:#000000;stroke-linejoin:miter;stroke-width:0.5;"/>
   </g>
   <g id="aed44daad5ca4e5bb00547f09fb4402c-1-node">
    <path clip-path="url(#p8f64d1fe7f)" d="M 428.296667 111.271123 
L 428.296667 119.507487 
L 422.814487 119.507487 
L 422.814487 111.271123 
L 428.296667 111.271123 
z
" style="fill:#0000ff;stroke:#ffffff;stroke-linejoin:miter;stroke-width:0.5;"/>
   </g>
   <g id="aed44daad5ca4e5bb00547f09fb4402c-4-node">
    <path clip-path="url(#p8f64d1fe7f)" d="M 412.172606 111.271123 
L 412.172606 119.507487 
L 406.690426 119.507487 
L 406.690426 111.271123 
L 412.172606 111.271123 
z
" style="fill:#0000ff;stroke:#ffffff;stroke-linejoin:miter;stroke-width:0.5;"/>
   </g>
   <g id="aed44daad5ca4e5bb00547f09fb4402c-6-node">
    <path clip-path="url(#p8f64d1fe7f)" d="M 393.307455 119.507487 
C 394.034401 119.507487 394.731671 119.073569 395.245699 118.301299 
C 395.759727 117.529029 396.048546 116.481459 396.048546 115.389305 
C 396.048546 114.29715 395.759727 113.24958 395.245699 112.477311 
C 394.731671 111.705041 394.034401 111.271123 393.307455 111.271123 
C 392.58051 111.271123 391.88324 111.705041 391.369212 112.477311 
C 390.855183 113.24958 390.566365 114.29715 390.566365 115.389305 
C 390.566365 116.481459 390.855183 117.529029 391.369212 118.301299 
C 391.88324 119.073569 392.58051 119.507487 393.307455 119.507487 
z
" style="fill:#00c832;stroke:#ffffff;stroke-linejoin:miter;stroke-width:0.5;"/>
   </g>
   <g id="aed44daad5ca4e5bb00547f09fb4402c-8-node">
    <path clip-path="url(#p8f64d1fe7f)" d="M 377.183394 131.619786 
C 377.91034 131.619786 378.60761 131.185868 379.121638 130.413599 
C 379.635666 129.641329 379.924485 128.593759 379.924485 127.501604 
C 379.924485 126.40945 379.635666 125.36188 379.121638 124.58961 
C 378.60761 123.81734 377.91034 123.383422 377.183394 123.383422 
C 376.456449 123.383422 375.759179 123.81734 375.245151 124.58961 
C 374.731123 125.36188 374.442304 126.40945 374.442304 127.501604 
C 374.442304 128.593759 374.731123 129.641329 375.245151 130.413599 
C 375.759179 131.185868 376.456449 131.619786 377.183394 131.619786 
z
" style="fill:#00c832;stroke:#ffffff;stroke-linejoin:miter;stroke-width:0.5;"/>
   </g>
   <g id="aed44daad5ca4e5bb00547f09fb4402c-11-node">
    <path clip-path="url(#p8f64d1fe7f)" d="M 363.800424 135.495722 
L 363.800424 143.732086 
L 358.318243 143.732086 
L 358.318243 135.495722 
L 363.800424 135.495722 
z
" style="fill:#0000ff;stroke:#ffffff;stroke-linejoin:miter;stroke-width:0.5;"/>
   </g>
   <g id="aed44daad5ca4e5bb00547f09fb4402c-9-node">
    <path clip-path="url(#p8f64d1fe7f)" d="M 363.800424 111.271123 
L 363.800424 119.507487 
L 358.318243 119.507487 
L 358.318243 111.271123 
L 363.800424 111.271123 
z
" style="fill:#0000ff;stroke:#ffffff;stroke-linejoin:miter;stroke-width:0.5;"/>
   </g>
   <g id="aed44daad5ca4e5bb00547f09fb4402c-7-node">
    <path clip-path="url(#p8f64d1fe7f)" d="M 377.183394 107.395187 
C 377.91034 107.395187 378.60761 106.96127 379.121638 106.189 
C 379.635666 105.41673 379.924485 104.36916 379.924485 103.277005 
C 379.924485 102.184851 379.635666 101.137281 379.121638 100.365011 
C 378.60761 99.592741 377.91034 99.158824 377.183394 99.158824 
C 376.456449 99.158824 375.759179 99.592741 375.245151 100.365011 
C 374.731123 101.137281 374.442304 102.184851 374.442304 103.277005 
C 374.442304 104.36916 374.731123 105.41673 375.245151 106.189 
C 375.759179 106.96127 376.456449 107.395187 377.183394 107.395187 
z
" style="fill:#00c832;stroke:#ffffff;stroke-linejoin:miter;stroke-width:0.5;"/>
   </g>
   <g id="aed44daad5ca4e5bb00547f09fb4402c-3-node">
    <path clip-path="url(#p8f64d1fe7f)" d="M 425.555577 99.158824 
L 423.181723 105.336096 
L 427.929431 105.336096 
z
" style="fill:#ff0000;stroke:#ffffff;stroke-linejoin:miter;stroke-width:0.5;"/>
   </g>
   <g id="patch_21">
    <path d="M 308.172414 166.745455 
L 308.172414 43.2 
" style="fill:none;stroke:#ffffff;stroke-linecap:square;stroke-linejoin:miter;stroke-width:1.25;"/>
   </g>
   <g id="patch_22">
    <path d="M 452.482759 166.745455 
L 452.482759 43.2 
" style="fill:none;stroke:#ffffff;stroke-linecap:square;stroke-linejoin:miter;stroke-width:1.25;"/>
   </g>
   <g id="patch_23">
    <path d="M 308.172414 166.745455 
L 452.482759 166.745455 
" style="fill:none;stroke:#ffffff;stroke-linecap:square;stroke-linejoin:miter;stroke-width:1.25;"/>
   </g>
   <g id="patch_24">
    <path d="M 308.172414 43.2 
L 452.482759 43.2 
" style="fill:none;stroke:#ffffff;stroke-linecap:square;stroke-linejoin:miter;stroke-width:1.25;"/>
   </g>
   <g id="text_2">
    <!-- 9:1 -->
    <defs>
     <path d="M 5.46875 16.546875 
L 13.921875 17.328125 
Q 14.984375 11.375 18.015625 8.6875 
Q 21.046875 6 25.78125 6 
Q 29.828125 6 32.875 7.859375 
Q 35.9375 9.71875 37.890625 12.8125 
Q 39.84375 15.921875 41.15625 21.1875 
Q 42.484375 26.46875 42.484375 31.9375 
Q 42.484375 32.515625 42.4375 33.6875 
Q 39.796875 29.5 35.234375 26.875 
Q 30.671875 24.265625 25.34375 24.265625 
Q 16.453125 24.265625 10.296875 30.703125 
Q 4.15625 37.15625 4.15625 47.703125 
Q 4.15625 58.59375 10.578125 65.234375 
Q 17 71.875 26.65625 71.875 
Q 33.640625 71.875 39.421875 68.109375 
Q 45.21875 64.359375 48.21875 57.390625 
Q 51.21875 50.4375 51.21875 37.25 
Q 51.21875 23.53125 48.234375 15.40625 
Q 45.265625 7.28125 39.375 3.03125 
Q 33.5 -1.21875 25.59375 -1.21875 
Q 17.1875 -1.21875 11.859375 3.4375 
Q 6.546875 8.109375 5.46875 16.546875 
z
M 41.453125 48.140625 
Q 41.453125 55.71875 37.421875 60.15625 
Q 33.40625 64.59375 27.734375 64.59375 
Q 21.875 64.59375 17.53125 59.8125 
Q 13.1875 55.03125 13.1875 47.40625 
Q 13.1875 40.578125 17.3125 36.296875 
Q 21.4375 32.03125 27.484375 32.03125 
Q 33.59375 32.03125 37.515625 36.296875 
Q 41.453125 40.578125 41.453125 48.140625 
z
" id="ArialMT-57"/>
    </defs>
    <g style="fill:#262626;" transform="translate(371.987586 37.2)scale(0.12 -0.12)">
     <use xlink:href="#ArialMT-57"/>
     <use x="55.615234" xlink:href="#ArialMT-58"/>
     <use x="83.398438" xlink:href="#ArialMT-49"/>
    </g>
   </g>
  </g>
  <g id="axes_3">
   <g id="patch_25">
    <path d="M 481.344828 166.745455 
L 625.655172 166.745455 
L 625.655172 43.2 
L 481.344828 43.2 
z
" style="fill:#ffffff;"/>
   </g>
   <g id="patch_26">
    <path clip-path="url(#p0a2de27814)" d="M 551.214542 131.998295 
L 534.889842 142.722727 
" style="stroke:#000000;stroke-linejoin:miter;stroke-width:0.5;"/>
   </g>
   <g id="patch_27">
    <path clip-path="url(#p0a2de27814)" d="M 551.214542 131.998295 
L 534.889842 121.273864 
" style="stroke:#000000;stroke-linejoin:miter;stroke-width:0.5;"/>
   </g>
   <g id="patch_28">
    <path clip-path="url(#p0a2de27814)" d="M 567.539242 115.911648 
L 551.214542 131.998295 
" style="stroke:#000000;stroke-linejoin:miter;stroke-width:0.5;"/>
   </g>
   <g id="patch_29">
    <path clip-path="url(#p0a2de27814)" d="M 551.214542 99.825 
L 534.889842 99.825 
" style="stroke:#000000;stroke-linejoin:miter;stroke-width:0.5;"/>
   </g>
   <g id="patch_30">
    <path clip-path="url(#p0a2de27814)" d="M 567.539242 115.911648 
L 551.214542 99.825 
" style="stroke:#000000;stroke-linejoin:miter;stroke-width:0.5;"/>
   </g>
   <g id="patch_31">
    <path clip-path="url(#p0a2de27814)" d="M 583.863941 115.911648 
L 567.539242 115.911648 
" style="stroke:#000000;stroke-linejoin:miter;stroke-width:0.5;"/>
   </g>
   <g id="patch_32">
    <path clip-path="url(#p0a2de27814)" d="M 600.188641 115.911648 
L 583.863941 115.911648 
" style="stroke:#000000;stroke-linejoin:miter;stroke-width:0.5;"/>
   </g>
   <g id="1dc53aaf830142fcbf5acafdcac83eeb-1-node">
    <path clip-path="url(#p0a2de27814)" d="M 602.96384 112.265341 
L 602.96384 119.557955 
L 597.413442 119.557955 
L 597.413442 112.265341 
L 602.96384 112.265341 
z
" style="fill:#0000ff;stroke:#ffffff;stroke-linejoin:miter;stroke-width:0.5;"/>
   </g>
   <g id="1dc53aaf830142fcbf5acafdcac83eeb-3-node">
    <path clip-path="url(#p0a2de27814)" d="M 586.63914 112.265341 
L 586.63914 119.557955 
L 581.088742 119.557955 
L 581.088742 112.265341 
L 586.63914 112.265341 
z
" style="fill:#0000ff;stroke:#ffffff;stroke-linejoin:miter;stroke-width:0.5;"/>
   </g>
   <g id="1dc53aaf830142fcbf5acafdcac83eeb-5-node">
    <path clip-path="url(#p0a2de27814)" d="M 567.539242 119.557955 
C 568.275233 119.557955 568.981179 119.173757 569.501604 118.489976 
C 570.022028 117.806195 570.314441 116.87866 570.314441 115.911648 
C 570.314441 114.944636 570.022028 114.0171 569.501604 113.333319 
C 568.981179 112.649539 568.275233 112.265341 567.539242 112.265341 
C 566.80325 112.265341 566.097304 112.649539 565.57688 113.333319 
C 565.056455 114.0171 564.764043 114.944636 564.764043 115.911648 
C 564.764043 116.87866 565.056455 117.806195 565.57688 118.489976 
C 566.097304 119.173757 566.80325 119.557955 567.539242 119.557955 
z
" style="fill:#00c832;stroke:#ffffff;stroke-linejoin:miter;stroke-width:0.5;"/>
   </g>
   <g id="1dc53aaf830142fcbf5acafdcac83eeb-9-node">
    <path clip-path="url(#p0a2de27814)" d="M 551.214542 135.644602 
C 551.950533 135.644602 552.65648 135.260404 553.176904 134.576624 
C 553.697329 133.892843 553.989741 132.965307 553.989741 131.998295 
C 553.989741 131.031284 553.697329 130.103748 553.176904 129.419967 
C 552.65648 128.736187 551.950533 128.351989 551.214542 128.351989 
C 550.478551 128.351989 549.772605 128.736187 549.25218 129.419967 
C 548.731756 130.103748 548.439343 131.031284 548.439343 131.998295 
C 548.439343 132.965307 548.731756 133.892843 549.25218 134.576624 
C 549.772605 135.260404 550.478551 135.644602 551.214542 135.644602 
z
" style="fill:#00c832;stroke:#ffffff;stroke-linejoin:miter;stroke-width:0.5;"/>
   </g>
   <g id="1dc53aaf830142fcbf5acafdcac83eeb-12-node">
    <path clip-path="url(#p0a2de27814)" d="M 537.665041 139.07642 
L 537.665041 146.369034 
L 532.114643 146.369034 
L 532.114643 139.07642 
L 537.665041 139.07642 
z
" style="fill:#0000ff;stroke:#ffffff;stroke-linejoin:miter;stroke-width:0.5;"/>
   </g>
   <g id="1dc53aaf830142fcbf5acafdcac83eeb-10-node">
    <path clip-path="url(#p0a2de27814)" d="M 537.665041 117.627557 
L 537.665041 124.92017 
L 532.114643 124.92017 
L 532.114643 117.627557 
L 537.665041 117.627557 
z
" style="fill:#0000ff;stroke:#ffffff;stroke-linejoin:miter;stroke-width:0.5;"/>
   </g>
   <g id="1dc53aaf830142fcbf5acafdcac83eeb-6-node">
    <path clip-path="url(#p0a2de27814)" d="M 551.214542 103.471307 
C 551.950533 103.471307 552.65648 103.087109 553.176904 102.403328 
C 553.697329 101.719548 553.989741 100.792012 553.989741 99.825 
C 553.989741 98.857988 553.697329 97.930452 553.176904 97.246672 
C 552.65648 96.562891 551.950533 96.178693 551.214542 96.178693 
C 550.478551 96.178693 549.772605 96.562891 549.25218 97.246672 
C 548.731756 97.930452 548.439343 98.857988 548.439343 99.825 
C 548.439343 100.792012 548.731756 101.719548 549.25218 102.403328 
C 549.772605 103.087109 550.478551 103.471307 551.214542 103.471307 
z
" style="fill:#00c832;stroke:#ffffff;stroke-linejoin:miter;stroke-width:0.5;"/>
   </g>
   <g id="1dc53aaf830142fcbf5acafdcac83eeb-7-node">
    <path clip-path="url(#p0a2de27814)" d="M 537.665041 96.178693 
L 537.665041 103.471307 
L 532.114643 103.471307 
L 532.114643 96.178693 
L 537.665041 96.178693 
z
" style="fill:#0000ff;stroke:#ffffff;stroke-linejoin:miter;stroke-width:0.5;"/>
   </g>
   <g id="patch_33">
    <path d="M 481.344828 166.745455 
L 481.344828 43.2 
" style="fill:none;stroke:#ffffff;stroke-linecap:square;stroke-linejoin:miter;stroke-width:1.25;"/>
   </g>
   <g id="patch_34">
    <path d="M 625.655172 166.745455 
L 625.655172 43.2 
" style="fill:none;stroke:#ffffff;stroke-linecap:square;stroke-linejoin:miter;stroke-width:1.25;"/>
   </g>
   <g id="patch_35">
    <path d="M 481.344828 166.745455 
L 625.655172 166.745455 
" style="fill:none;stroke:#ffffff;stroke-linecap:square;stroke-linejoin:miter;stroke-width:1.25;"/>
   </g>
   <g id="patch_36">
    <path d="M 481.344828 43.2 
L 625.655172 43.2 
" style="fill:none;stroke:#ffffff;stroke-linecap:square;stroke-linejoin:miter;stroke-width:1.25;"/>
   </g>
   <g id="text_3">
    <!-- 14:1 -->
    <g style="fill:#262626;" transform="translate(541.823437 37.2)scale(0.12 -0.12)">
     <use xlink:href="#ArialMT-49"/>
     <use x="55.615234" xlink:href="#ArialMT-52"/>
     <use x="111.230469" xlink:href="#ArialMT-58"/>
     <use x="139.013672" xlink:href="#ArialMT-49"/>
    </g>
   </g>
  </g>
  <g id="axes_4">
   <g id="patch_37">
    <path d="M 654.517241 166.745455 
L 798.827586 166.745455 
L 798.827586 43.2 
L 654.517241 43.2 
z
" style="fill:#ffffff;"/>
   </g>
   <g id="patch_38">
    <path clip-path="url(#p18d5d69d47)" d="M 724.386956 131.998295 
L 708.062256 142.722727 
" style="stroke:#000000;stroke-linejoin:miter;stroke-width:0.5;"/>
   </g>
   <g id="patch_39">
    <path clip-path="url(#p18d5d69d47)" d="M 724.386956 131.998295 
L 708.062256 121.273864 
" style="stroke:#000000;stroke-linejoin:miter;stroke-width:0.5;"/>
   </g>
   <g id="patch_40">
    <path clip-path="url(#p18d5d69d47)" d="M 740.711655 115.911648 
L 724.386956 131.998295 
" style="stroke:#000000;stroke-linejoin:miter;stroke-width:0.5;"/>
   </g>
   <g id="patch_41">
    <path clip-path="url(#p18d5d69d47)" d="M 724.386956 99.825 
L 708.062256 99.825 
" style="stroke:#000000;stroke-linejoin:miter;stroke-width:0.5;"/>
   </g>
   <g id="patch_42">
    <path clip-path="url(#p18d5d69d47)" d="M 740.711655 115.911648 
L 724.386956 99.825 
" style="stroke:#000000;stroke-linejoin:miter;stroke-width:0.5;"/>
   </g>
   <g id="patch_43">
    <path clip-path="url(#p18d5d69d47)" d="M 757.036355 115.911648 
L 740.711655 115.911648 
" style="stroke:#000000;stroke-linejoin:miter;stroke-width:0.5;"/>
   </g>
   <g id="patch_44">
    <path clip-path="url(#p18d5d69d47)" d="M 773.361055 115.911648 
L 757.036355 115.911648 
" style="stroke:#000000;stroke-linejoin:miter;stroke-width:0.5;"/>
   </g>
   <g id="patch_45">
    <path clip-path="url(#p18d5d69d47)" d="M 773.361055 115.911648 
L 773.361055 105.187216 
" style="stroke:#000000;stroke-linejoin:miter;stroke-width:0.5;"/>
   </g>
   <g id="ac36c960b7a8419bb1db3d03b70b94ae-1-node">
    <path clip-path="url(#p18d5d69d47)" d="M 776.136254 112.265341 
L 776.136254 119.557955 
L 770.585856 119.557955 
L 770.585856 112.265341 
L 776.136254 112.265341 
z
" style="fill:#0000ff;stroke:#ffffff;stroke-linejoin:miter;stroke-width:0.5;"/>
   </g>
   <g id="ac36c960b7a8419bb1db3d03b70b94ae-4-node">
    <path clip-path="url(#p18d5d69d47)" d="M 759.811554 112.265341 
L 759.811554 119.557955 
L 754.261156 119.557955 
L 754.261156 112.265341 
L 759.811554 112.265341 
z
" style="fill:#0000ff;stroke:#ffffff;stroke-linejoin:miter;stroke-width:0.5;"/>
   </g>
   <g id="ac36c960b7a8419bb1db3d03b70b94ae-6-node">
    <path clip-path="url(#p18d5d69d47)" d="M 740.711655 119.557955 
C 741.447647 119.557955 742.153593 119.173757 742.674017 118.489976 
C 743.194442 117.806195 743.486854 116.87866 743.486854 115.911648 
C 743.486854 114.944636 743.194442 114.0171 742.674017 113.333319 
C 742.153593 112.649539 741.447647 112.265341 740.711655 112.265341 
C 739.975664 112.265341 739.269718 112.649539 738.749293 113.333319 
C 738.228869 114.0171 737.936457 114.944636 737.936457 115.911648 
C 737.936457 116.87866 738.228869 117.806195 738.749293 118.489976 
C 739.269718 119.173757 739.975664 119.557955 740.711655 119.557955 
z
" style="fill:#00c832;stroke:#ffffff;stroke-linejoin:miter;stroke-width:0.5;"/>
   </g>
   <g id="ac36c960b7a8419bb1db3d03b70b94ae-10-node">
    <path clip-path="url(#p18d5d69d47)" d="M 724.386956 135.644602 
C 725.122947 135.644602 725.828893 135.260404 726.349318 134.576624 
C 726.869742 133.892843 727.162155 132.965307 727.162155 131.998295 
C 727.162155 131.031284 726.869742 130.103748 726.349318 129.419967 
C 725.828893 128.736187 725.122947 128.351989 724.386956 128.351989 
C 723.650964 128.351989 722.945018 128.736187 722.424594 129.419967 
C 721.904169 130.103748 721.611757 131.031284 721.611757 131.998295 
C 721.611757 132.965307 721.904169 133.892843 722.424594 134.576624 
C 722.945018 135.260404 723.650964 135.644602 724.386956 135.644602 
z
" style="fill:#00c832;stroke:#ffffff;stroke-linejoin:miter;stroke-width:0.5;"/>
   </g>
   <g id="ac36c960b7a8419bb1db3d03b70b94ae-13-node">
    <path clip-path="url(#p18d5d69d47)" d="M 710.837455 139.07642 
L 710.837455 146.369034 
L 705.287057 146.369034 
L 705.287057 139.07642 
L 710.837455 139.07642 
z
" style="fill:#0000ff;stroke:#ffffff;stroke-linejoin:miter;stroke-width:0.5;"/>
   </g>
   <g id="ac36c960b7a8419bb1db3d03b70b94ae-11-node">
    <path clip-path="url(#p18d5d69d47)" d="M 710.837455 117.627557 
L 710.837455 124.92017 
L 705.287057 124.92017 
L 705.287057 117.627557 
L 710.837455 117.627557 
z
" style="fill:#0000ff;stroke:#ffffff;stroke-linejoin:miter;stroke-width:0.5;"/>
   </g>
   <g id="ac36c960b7a8419bb1db3d03b70b94ae-7-node">
    <path clip-path="url(#p18d5d69d47)" d="M 724.386956 103.471307 
C 725.122947 103.471307 725.828893 103.087109 726.349318 102.403328 
C 726.869742 101.719548 727.162155 100.792012 727.162155 99.825 
C 727.162155 98.857988 726.869742 97.930452 726.349318 97.246672 
C 725.828893 96.562891 725.122947 96.178693 724.386956 96.178693 
C 723.650964 96.178693 722.945018 96.562891 722.424594 97.246672 
C 721.904169 97.930452 721.611757 98.857988 721.611757 99.825 
C 721.611757 100.792012 721.904169 101.719548 722.424594 102.403328 
C 722.945018 103.087109 723.650964 103.471307 724.386956 103.471307 
z
" style="fill:#00c832;stroke:#ffffff;stroke-linejoin:miter;stroke-width:0.5;"/>
   </g>
   <g id="ac36c960b7a8419bb1db3d03b70b94ae-8-node">
    <path clip-path="url(#p18d5d69d47)" d="M 710.837455 96.178693 
L 710.837455 103.471307 
L 705.287057 103.471307 
L 705.287057 96.178693 
L 710.837455 96.178693 
z
" style="fill:#0000ff;stroke:#ffffff;stroke-linejoin:miter;stroke-width:0.5;"/>
   </g>
   <g id="ac36c960b7a8419bb1db3d03b70b94ae-3-node">
    <path clip-path="url(#p18d5d69d47)" d="M 773.361055 101.540909 
L 770.957662 107.010369 
L 775.764448 107.010369 
z
" style="fill:#ff0000;stroke:#ffffff;stroke-linejoin:miter;stroke-width:0.5;"/>
   </g>
   <g id="patch_46">
    <path d="M 654.517241 166.745455 
L 654.517241 43.2 
" style="fill:none;stroke:#ffffff;stroke-linecap:square;stroke-linejoin:miter;stroke-width:1.25;"/>
   </g>
   <g id="patch_47">
    <path d="M 798.827586 166.745455 
L 798.827586 43.2 
" style="fill:none;stroke:#ffffff;stroke-linecap:square;stroke-linejoin:miter;stroke-width:1.25;"/>
   </g>
   <g id="patch_48">
    <path d="M 654.517241 166.745455 
L 798.827586 166.745455 
" style="fill:none;stroke:#ffffff;stroke-linecap:square;stroke-linejoin:miter;stroke-width:1.25;"/>
   </g>
   <g id="patch_49">
    <path d="M 654.517241 43.2 
L 798.827586 43.2 
" style="fill:none;stroke:#ffffff;stroke-linecap:square;stroke-linejoin:miter;stroke-width:1.25;"/>
   </g>
   <g id="text_4">
    <!-- 28:1 -->
    <defs>
     <path d="M 50.34375 8.453125 
L 50.34375 0 
L 3.03125 0 
Q 2.9375 3.171875 4.046875 6.109375 
Q 5.859375 10.9375 9.828125 15.625 
Q 13.8125 20.3125 21.34375 26.46875 
Q 33.015625 36.03125 37.109375 41.625 
Q 41.21875 47.21875 41.21875 52.203125 
Q 41.21875 57.421875 37.46875 61 
Q 33.734375 64.59375 27.734375 64.59375 
Q 21.390625 64.59375 17.578125 60.78125 
Q 13.765625 56.984375 13.71875 50.25 
L 4.6875 51.171875 
Q 5.609375 61.28125 11.65625 66.578125 
Q 17.71875 71.875 27.9375 71.875 
Q 38.234375 71.875 44.234375 66.15625 
Q 50.25 60.453125 50.25 52 
Q 50.25 47.703125 48.484375 43.546875 
Q 46.734375 39.40625 42.65625 34.8125 
Q 38.578125 30.21875 29.109375 22.21875 
Q 21.1875 15.578125 18.9375 13.203125 
Q 16.703125 10.84375 15.234375 8.453125 
z
" id="ArialMT-50"/>
     <path d="M 17.671875 38.8125 
Q 12.203125 40.828125 9.5625 44.53125 
Q 6.9375 48.25 6.9375 53.421875 
Q 6.9375 61.234375 12.546875 66.546875 
Q 18.171875 71.875 27.484375 71.875 
Q 36.859375 71.875 42.578125 66.421875 
Q 48.296875 60.984375 48.296875 53.171875 
Q 48.296875 48.1875 45.671875 44.5 
Q 43.0625 40.828125 37.75 38.8125 
Q 44.34375 36.671875 47.78125 31.875 
Q 51.21875 27.09375 51.21875 20.453125 
Q 51.21875 11.28125 44.71875 5.03125 
Q 38.234375 -1.21875 27.640625 -1.21875 
Q 17.046875 -1.21875 10.546875 5.046875 
Q 4.046875 11.328125 4.046875 20.703125 
Q 4.046875 27.6875 7.59375 32.390625 
Q 11.140625 37.109375 17.671875 38.8125 
z
M 15.921875 53.71875 
Q 15.921875 48.640625 19.1875 45.40625 
Q 22.46875 42.1875 27.6875 42.1875 
Q 32.765625 42.1875 36.015625 45.375 
Q 39.265625 48.578125 39.265625 53.21875 
Q 39.265625 58.0625 35.90625 61.359375 
Q 32.5625 64.65625 27.59375 64.65625 
Q 22.5625 64.65625 19.234375 61.421875 
Q 15.921875 58.203125 15.921875 53.71875 
z
M 13.09375 20.65625 
Q 13.09375 16.890625 14.875 13.375 
Q 16.65625 9.859375 20.171875 7.921875 
Q 23.6875 6 27.734375 6 
Q 34.03125 6 38.125 10.046875 
Q 42.234375 14.109375 42.234375 20.359375 
Q 42.234375 26.703125 38.015625 30.859375 
Q 33.796875 35.015625 27.4375 35.015625 
Q 21.234375 35.015625 17.15625 30.90625 
Q 13.09375 26.8125 13.09375 20.65625 
z
" id="ArialMT-56"/>
    </defs>
    <g style="fill:#262626;" transform="translate(714.995851 37.2)scale(0.12 -0.12)">
     <use xlink:href="#ArialMT-50"/>
     <use x="55.615234" xlink:href="#ArialMT-56"/>
     <use x="111.230469" xlink:href="#ArialMT-58"/>
     <use x="139.013672" xlink:href="#ArialMT-49"/>
    </g>
   </g>
  </g>
  <g id="axes_5">
   <g id="patch_50">
    <path d="M 827.689655 166.745455 
L 972 166.745455 
L 972 43.2 
L 827.689655 43.2 
z
" style="fill:#ffffff;"/>
   </g>
   <g id="patch_51">
    <path clip-path="url(#pc4cecdcff4)" d="M 899.342587 138.476579 
L 882.601248 147.201541 
" style="stroke:#000000;stroke-linejoin:miter;stroke-width:0.5;"/>
   </g>
   <g id="patch_52">
    <path clip-path="url(#pc4cecdcff4)" d="M 899.342587 138.476579 
L 882.601248 129.751618 
" style="stroke:#000000;stroke-linejoin:miter;stroke-width:0.5;"/>
   </g>
   <g id="patch_53">
    <path clip-path="url(#pc4cecdcff4)" d="M 916.083927 121.026656 
L 899.342587 138.476579 
" style="stroke:#000000;stroke-linejoin:miter;stroke-width:0.5;"/>
   </g>
   <g id="patch_54">
    <path clip-path="url(#pc4cecdcff4)" d="M 899.342587 103.576733 
L 882.601248 112.301695 
" style="stroke:#000000;stroke-linejoin:miter;stroke-width:0.5;"/>
   </g>
   <g id="patch_55">
    <path clip-path="url(#pc4cecdcff4)" d="M 899.342587 103.576733 
L 882.601248 94.851772 
" style="stroke:#000000;stroke-linejoin:miter;stroke-width:0.5;"/>
   </g>
   <g id="patch_56">
    <path clip-path="url(#pc4cecdcff4)" d="M 916.083927 121.026656 
L 899.342587 103.576733 
" style="stroke:#000000;stroke-linejoin:miter;stroke-width:0.5;"/>
   </g>
   <g id="patch_57">
    <path clip-path="url(#pc4cecdcff4)" d="M 932.825266 121.026656 
L 916.083927 121.026656 
" style="stroke:#000000;stroke-linejoin:miter;stroke-width:0.5;"/>
   </g>
   <g id="patch_58">
    <path clip-path="url(#pc4cecdcff4)" d="M 949.566605 121.026656 
L 932.825266 121.026656 
" style="stroke:#000000;stroke-linejoin:miter;stroke-width:0.5;"/>
   </g>
   <g id="40fe443d6f1b4cd6a9f3e0635fac4f77-1-node">
    <path clip-path="url(#pc4cecdcff4)" d="M 952.412633 118.060169 
L 952.412633 123.993143 
L 946.720578 123.993143 
L 946.720578 118.060169 
L 952.412633 118.060169 
z
" style="fill:#0000ff;stroke:#ffffff;stroke-linejoin:miter;stroke-width:0.5;"/>
   </g>
   <g id="40fe443d6f1b4cd6a9f3e0635fac4f77-3-node">
    <path clip-path="url(#pc4cecdcff4)" d="M 935.671294 118.060169 
L 935.671294 123.993143 
L 929.979238 123.993143 
L 929.979238 118.060169 
L 935.671294 118.060169 
z
" style="fill:#0000ff;stroke:#ffffff;stroke-linejoin:miter;stroke-width:0.5;"/>
   </g>
   <g id="40fe443d6f1b4cd6a9f3e0635fac4f77-5-node">
    <path clip-path="url(#pc4cecdcff4)" d="M 916.083927 123.993143 
C 916.838702 123.993143 917.562665 123.680576 918.096372 123.124279 
C 918.630079 122.567983 918.929954 121.813378 918.929954 121.026656 
C 918.929954 120.239935 918.630079 119.48533 918.096372 118.929033 
C 917.562665 118.372737 916.838702 118.060169 916.083927 118.060169 
C 915.329151 118.060169 914.605188 118.372737 914.071481 118.929033 
C 913.537774 119.48533 913.237899 120.239935 913.237899 121.026656 
C 913.237899 121.813378 913.537774 122.567983 914.071481 123.124279 
C 914.605188 123.680576 915.329151 123.993143 916.083927 123.993143 
z
" style="fill:#00c832;stroke:#ffffff;stroke-linejoin:miter;stroke-width:0.5;"/>
   </g>
   <g id="40fe443d6f1b4cd6a9f3e0635fac4f77-11-node">
    <path clip-path="url(#pc4cecdcff4)" d="M 899.342587 141.443066 
C 900.097363 141.443066 900.821326 141.130498 901.355033 140.574202 
C 901.88874 140.017906 902.188615 139.263301 902.188615 138.476579 
C 902.188615 137.689858 901.88874 136.935252 901.355033 136.378956 
C 900.821326 135.82266 900.097363 135.510092 899.342587 135.510092 
C 898.587812 135.510092 897.863849 135.82266 897.330142 136.378956 
C 896.796435 136.935252 896.49656 137.689858 896.49656 138.476579 
C 896.49656 139.263301 896.796435 140.017906 897.330142 140.574202 
C 897.863849 141.130498 898.587812 141.443066 899.342587 141.443066 
z
" style="fill:#00c832;stroke:#ffffff;stroke-linejoin:miter;stroke-width:0.5;"/>
   </g>
   <g id="40fe443d6f1b4cd6a9f3e0635fac4f77-14-node">
    <path clip-path="url(#pc4cecdcff4)" d="M 885.447276 144.235054 
L 885.447276 150.168028 
L 879.75522 150.168028 
L 879.75522 144.235054 
L 885.447276 144.235054 
z
" style="fill:#0000ff;stroke:#ffffff;stroke-linejoin:miter;stroke-width:0.5;"/>
   </g>
   <g id="40fe443d6f1b4cd6a9f3e0635fac4f77-12-node">
    <path clip-path="url(#pc4cecdcff4)" d="M 885.447276 126.785131 
L 885.447276 132.718105 
L 879.75522 132.718105 
L 879.75522 126.785131 
L 885.447276 126.785131 
z
" style="fill:#0000ff;stroke:#ffffff;stroke-linejoin:miter;stroke-width:0.5;"/>
   </g>
   <g id="40fe443d6f1b4cd6a9f3e0635fac4f77-6-node">
    <path clip-path="url(#pc4cecdcff4)" d="M 899.342587 106.54322 
C 900.097363 106.54322 900.821326 106.230653 901.355033 105.674356 
C 901.88874 105.11806 902.188615 104.363455 902.188615 103.576733 
C 902.188615 102.790012 901.88874 102.035407 901.355033 101.47911 
C 900.821326 100.922814 900.097363 100.610247 899.342587 100.610247 
C 898.587812 100.610247 897.863849 100.922814 897.330142 101.47911 
C 896.796435 102.035407 896.49656 102.790012 896.49656 103.576733 
C 896.49656 104.363455 896.796435 105.11806 897.330142 105.674356 
C 897.863849 106.230653 898.587812 106.54322 899.342587 106.54322 
z
" style="fill:#00c832;stroke:#ffffff;stroke-linejoin:miter;stroke-width:0.5;"/>
   </g>
   <g id="40fe443d6f1b4cd6a9f3e0635fac4f77-9-node">
    <path clip-path="url(#pc4cecdcff4)" d="M 885.447276 109.335208 
L 885.447276 115.268182 
L 879.75522 115.268182 
L 879.75522 109.335208 
L 885.447276 109.335208 
z
" style="fill:#0000ff;stroke:#ffffff;stroke-linejoin:miter;stroke-width:0.5;"/>
   </g>
   <g id="40fe443d6f1b4cd6a9f3e0635fac4f77-7-node">
    <path clip-path="url(#pc4cecdcff4)" d="M 885.447276 91.885285 
L 885.447276 97.818259 
L 879.75522 97.818259 
L 879.75522 91.885285 
L 885.447276 91.885285 
z
" style="fill:#0000ff;stroke:#ffffff;stroke-linejoin:miter;stroke-width:0.5;"/>
   </g>
   <g id="patch_59">
    <path d="M 827.689655 166.745455 
L 827.689655 43.2 
" style="fill:none;stroke:#ffffff;stroke-linecap:square;stroke-linejoin:miter;stroke-width:1.25;"/>
   </g>
   <g id="patch_60">
    <path d="M 972 166.745455 
L 972 43.2 
" style="fill:none;stroke:#ffffff;stroke-linecap:square;stroke-linejoin:miter;stroke-width:1.25;"/>
   </g>
   <g id="patch_61">
    <path d="M 827.689655 166.745455 
L 972 166.745455 
" style="fill:none;stroke:#ffffff;stroke-linecap:square;stroke-linejoin:miter;stroke-width:1.25;"/>
   </g>
   <g id="patch_62">
    <path d="M 827.689655 43.2 
L 972 43.2 
" style="fill:none;stroke:#ffffff;stroke-linecap:square;stroke-linejoin:miter;stroke-width:1.25;"/>
   </g>
   <g id="text_5">
    <!-- 37:1 -->
    <defs>
     <path d="M 4.203125 18.890625 
L 12.984375 20.0625 
Q 14.5 12.59375 18.140625 9.296875 
Q 21.78125 6 27 6 
Q 33.203125 6 37.46875 10.296875 
Q 41.75 14.59375 41.75 20.953125 
Q 41.75 27 37.796875 30.921875 
Q 33.84375 34.859375 27.734375 34.859375 
Q 25.25 34.859375 21.53125 33.890625 
L 22.515625 41.609375 
Q 23.390625 41.5 23.921875 41.5 
Q 29.546875 41.5 34.03125 44.421875 
Q 38.53125 47.359375 38.53125 53.46875 
Q 38.53125 58.296875 35.25 61.46875 
Q 31.984375 64.65625 26.8125 64.65625 
Q 21.6875 64.65625 18.265625 61.421875 
Q 14.84375 58.203125 13.875 51.765625 
L 5.078125 53.328125 
Q 6.6875 62.15625 12.390625 67.015625 
Q 18.109375 71.875 26.609375 71.875 
Q 32.46875 71.875 37.390625 69.359375 
Q 42.328125 66.84375 44.9375 62.5 
Q 47.5625 58.15625 47.5625 53.265625 
Q 47.5625 48.640625 45.0625 44.828125 
Q 42.578125 41.015625 37.703125 38.765625 
Q 44.046875 37.3125 47.5625 32.6875 
Q 51.078125 28.078125 51.078125 21.140625 
Q 51.078125 11.765625 44.234375 5.25 
Q 37.40625 -1.265625 26.953125 -1.265625 
Q 17.53125 -1.265625 11.296875 4.34375 
Q 5.078125 9.96875 4.203125 18.890625 
z
" id="ArialMT-51"/>
     <path d="M 4.734375 62.203125 
L 4.734375 70.65625 
L 51.078125 70.65625 
L 51.078125 63.8125 
Q 44.234375 56.546875 37.515625 44.484375 
Q 30.8125 32.421875 27.15625 19.671875 
Q 24.515625 10.6875 23.78125 0 
L 14.75 0 
Q 14.890625 8.453125 18.0625 20.40625 
Q 21.234375 32.375 27.171875 43.484375 
Q 33.109375 54.59375 39.796875 62.203125 
z
" id="ArialMT-55"/>
    </defs>
    <g style="fill:#262626;" transform="translate(888.168265 37.2)scale(0.12 -0.12)">
     <use xlink:href="#ArialMT-51"/>
     <use x="55.615234" xlink:href="#ArialMT-55"/>
     <use x="111.230469" xlink:href="#ArialMT-58"/>
     <use x="139.013672" xlink:href="#ArialMT-49"/>
    </g>
   </g>
  </g>
  <g id="axes_6">
   <g id="patch_63">
    <path d="M 135 315 
L 279.310345 315 
L 279.310345 191.454545 
L 135 191.454545 
z
" style="fill:#ffffff;"/>
   </g>
   <g id="patch_64">
    <path clip-path="url(#p858b0b449e)" d="M 206.652932 286.731125 
L 189.911593 295.456086 
" style="stroke:#000000;stroke-linejoin:miter;stroke-width:0.5;"/>
   </g>
   <g id="patch_65">
    <path clip-path="url(#p858b0b449e)" d="M 206.652932 286.731125 
L 189.911593 278.006163 
" style="stroke:#000000;stroke-linejoin:miter;stroke-width:0.5;"/>
   </g>
   <g id="patch_66">
    <path clip-path="url(#p858b0b449e)" d="M 223.394272 269.281202 
L 206.652932 286.731125 
" style="stroke:#000000;stroke-linejoin:miter;stroke-width:0.5;"/>
   </g>
   <g id="patch_67">
    <path clip-path="url(#p858b0b449e)" d="M 206.652932 251.831279 
L 189.911593 260.55624 
" style="stroke:#000000;stroke-linejoin:miter;stroke-width:0.5;"/>
   </g>
   <g id="patch_68">
    <path clip-path="url(#p858b0b449e)" d="M 206.652932 251.831279 
L 189.911593 243.106317 
" style="stroke:#000000;stroke-linejoin:miter;stroke-width:0.5;"/>
   </g>
   <g id="patch_69">
    <path clip-path="url(#p858b0b449e)" d="M 223.394272 269.281202 
L 206.652932 251.831279 
" style="stroke:#000000;stroke-linejoin:miter;stroke-width:0.5;"/>
   </g>
   <g id="patch_70">
    <path clip-path="url(#p858b0b449e)" d="M 240.135611 269.281202 
L 223.394272 269.281202 
" style="stroke:#000000;stroke-linejoin:miter;stroke-width:0.5;"/>
   </g>
   <g id="patch_71">
    <path clip-path="url(#p858b0b449e)" d="M 256.87695 269.281202 
L 240.135611 269.281202 
" style="stroke:#000000;stroke-linejoin:miter;stroke-width:0.5;"/>
   </g>
   <g id="patch_72">
    <path clip-path="url(#p858b0b449e)" d="M 256.87695 269.281202 
L 256.87695 260.55624 
" style="stroke:#000000;stroke-linejoin:miter;stroke-width:0.5;"/>
   </g>
   <g id="88e16754f1954497abda6f7898383981-1-node">
    <path clip-path="url(#p858b0b449e)" d="M 259.722978 266.314715 
L 259.722978 272.247689 
L 254.030922 272.247689 
L 254.030922 266.314715 
L 259.722978 266.314715 
z
" style="fill:#0000ff;stroke:#ffffff;stroke-linejoin:miter;stroke-width:0.5;"/>
   </g>
   <g id="88e16754f1954497abda6f7898383981-4-node">
    <path clip-path="url(#p858b0b449e)" d="M 242.981639 266.314715 
L 242.981639 272.247689 
L 237.289583 272.247689 
L 237.289583 266.314715 
L 242.981639 266.314715 
z
" style="fill:#0000ff;stroke:#ffffff;stroke-linejoin:miter;stroke-width:0.5;"/>
   </g>
   <g id="88e16754f1954497abda6f7898383981-6-node">
    <path clip-path="url(#p858b0b449e)" d="M 223.394272 272.247689 
C 224.149047 272.247689 224.87301 271.935121 225.406717 271.378825 
C 225.940424 270.822529 226.240299 270.067923 226.240299 269.281202 
C 226.240299 268.49448 225.940424 267.739875 225.406717 267.183579 
C 224.87301 266.627283 224.149047 266.314715 223.394272 266.314715 
C 222.639496 266.314715 221.915533 266.627283 221.381826 267.183579 
C 220.848119 267.739875 220.548244 268.49448 220.548244 269.281202 
C 220.548244 270.067923 220.848119 270.822529 221.381826 271.378825 
C 221.915533 271.935121 222.639496 272.247689 223.394272 272.247689 
z
" style="fill:#00c832;stroke:#ffffff;stroke-linejoin:miter;stroke-width:0.5;"/>
   </g>
   <g id="88e16754f1954497abda6f7898383981-12-node">
    <path clip-path="url(#p858b0b449e)" d="M 206.652932 289.697612 
C 207.407708 289.697612 208.131671 289.385044 208.665378 288.828748 
C 209.199084 288.272452 209.49896 287.517846 209.49896 286.731125 
C 209.49896 285.944403 209.199084 285.189798 208.665378 284.633502 
C 208.131671 284.077206 207.407708 283.764638 206.652932 283.764638 
C 205.898157 283.764638 205.174194 284.077206 204.640487 284.633502 
C 204.10678 285.189798 203.806905 285.944403 203.806905 286.731125 
C 203.806905 287.517846 204.10678 288.272452 204.640487 288.828748 
C 205.174194 289.385044 205.898157 289.697612 206.652932 289.697612 
z
" style="fill:#00c832;stroke:#ffffff;stroke-linejoin:miter;stroke-width:0.5;"/>
   </g>
   <g id="88e16754f1954497abda6f7898383981-15-node">
    <path clip-path="url(#p858b0b449e)" d="M 192.757621 292.489599 
L 192.757621 298.422573 
L 187.065565 298.422573 
L 187.065565 292.489599 
L 192.757621 292.489599 
z
" style="fill:#0000ff;stroke:#ffffff;stroke-linejoin:miter;stroke-width:0.5;"/>
   </g>
   <g id="88e16754f1954497abda6f7898383981-13-node">
    <path clip-path="url(#p858b0b449e)" d="M 192.757621 275.039676 
L 192.757621 280.97265 
L 187.065565 280.97265 
L 187.065565 275.039676 
L 192.757621 275.039676 
z
" style="fill:#0000ff;stroke:#ffffff;stroke-linejoin:miter;stroke-width:0.5;"/>
   </g>
   <g id="88e16754f1954497abda6f7898383981-7-node">
    <path clip-path="url(#p858b0b449e)" d="M 206.652932 254.797766 
C 207.407708 254.797766 208.131671 254.485198 208.665378 253.928902 
C 209.199084 253.372606 209.49896 252.618 209.49896 251.831279 
C 209.49896 251.044557 209.199084 250.289952 208.665378 249.733656 
C 208.131671 249.17736 207.407708 248.864792 206.652932 248.864792 
C 205.898157 248.864792 205.174194 249.17736 204.640487 249.733656 
C 204.10678 250.289952 203.806905 251.044557 203.806905 251.831279 
C 203.806905 252.618 204.10678 253.372606 204.640487 253.928902 
C 205.174194 254.485198 205.898157 254.797766 206.652932 254.797766 
z
" style="fill:#00c832;stroke:#ffffff;stroke-linejoin:miter;stroke-width:0.5;"/>
   </g>
   <g id="88e16754f1954497abda6f7898383981-10-node">
    <path clip-path="url(#p858b0b449e)" d="M 192.757621 257.589753 
L 192.757621 263.522727 
L 187.065565 263.522727 
L 187.065565 257.589753 
L 192.757621 257.589753 
z
" style="fill:#0000ff;stroke:#ffffff;stroke-linejoin:miter;stroke-width:0.5;"/>
   </g>
   <g id="88e16754f1954497abda6f7898383981-8-node">
    <path clip-path="url(#p858b0b449e)" d="M 192.757621 240.139831 
L 192.757621 246.072804 
L 187.065565 246.072804 
L 187.065565 240.139831 
L 192.757621 240.139831 
z
" style="fill:#0000ff;stroke:#ffffff;stroke-linejoin:miter;stroke-width:0.5;"/>
   </g>
   <g id="88e16754f1954497abda6f7898383981-3-node">
    <path clip-path="url(#p858b0b449e)" d="M 256.87695 257.589753 
L 254.412218 262.039484 
L 259.341682 262.039484 
z
" style="fill:#ff0000;stroke:#ffffff;stroke-linejoin:miter;stroke-width:0.5;"/>
   </g>
   <g id="patch_73">
    <path d="M 135 315 
L 135 191.454545 
" style="fill:none;stroke:#ffffff;stroke-linecap:square;stroke-linejoin:miter;stroke-width:1.25;"/>
   </g>
   <g id="patch_74">
    <path d="M 279.310345 315 
L 279.310345 191.454545 
" style="fill:none;stroke:#ffffff;stroke-linecap:square;stroke-linejoin:miter;stroke-width:1.25;"/>
   </g>
   <g id="patch_75">
    <path d="M 135 315 
L 279.310345 315 
" style="fill:none;stroke:#ffffff;stroke-linecap:square;stroke-linejoin:miter;stroke-width:1.25;"/>
   </g>
   <g id="patch_76">
    <path d="M 135 191.454545 
L 279.310345 191.454545 
" style="fill:none;stroke:#ffffff;stroke-linecap:square;stroke-linejoin:miter;stroke-width:1.25;"/>
   </g>
   <g id="text_6">
    <!-- 68:1 -->
    <defs>
     <path d="M 49.75 54.046875 
L 41.015625 53.375 
Q 39.84375 58.546875 37.703125 60.890625 
Q 34.125 64.65625 28.90625 64.65625 
Q 24.703125 64.65625 21.53125 62.3125 
Q 17.390625 59.28125 14.984375 53.46875 
Q 12.59375 47.65625 12.5 36.921875 
Q 15.671875 41.75 20.265625 44.09375 
Q 24.859375 46.4375 29.890625 46.4375 
Q 38.671875 46.4375 44.84375 39.96875 
Q 51.03125 33.5 51.03125 23.25 
Q 51.03125 16.5 48.125 10.71875 
Q 45.21875 4.9375 40.140625 1.859375 
Q 35.0625 -1.21875 28.609375 -1.21875 
Q 17.625 -1.21875 10.6875 6.859375 
Q 3.765625 14.9375 3.765625 33.5 
Q 3.765625 54.25 11.421875 63.671875 
Q 18.109375 71.875 29.4375 71.875 
Q 37.890625 71.875 43.28125 67.140625 
Q 48.6875 62.40625 49.75 54.046875 
z
M 13.875 23.1875 
Q 13.875 18.65625 15.796875 14.5 
Q 17.71875 10.359375 21.1875 8.171875 
Q 24.65625 6 28.46875 6 
Q 34.03125 6 38.03125 10.484375 
Q 42.046875 14.984375 42.046875 22.703125 
Q 42.046875 30.125 38.078125 34.390625 
Q 34.125 38.671875 28.125 38.671875 
Q 22.171875 38.671875 18.015625 34.390625 
Q 13.875 30.125 13.875 23.1875 
z
" id="ArialMT-54"/>
    </defs>
    <g style="fill:#262626;" transform="translate(195.47861 185.454545)scale(0.12 -0.12)">
     <use xlink:href="#ArialMT-54"/>
     <use x="55.615234" xlink:href="#ArialMT-56"/>
     <use x="111.230469" xlink:href="#ArialMT-58"/>
     <use x="139.013672" xlink:href="#ArialMT-49"/>
    </g>
   </g>
  </g>
  <g id="axes_7">
   <g id="patch_77">
    <path d="M 308.172414 315 
L 452.482759 315 
L 452.482759 191.454545 
L 308.172414 191.454545 
z
" style="fill:#ffffff;"/>
   </g>
   <g id="patch_78">
    <path clip-path="url(#p17607c6bc9)" d="M 389.474017 289.786642 
L 374.955873 298.791413 
" style="stroke:#000000;stroke-linejoin:miter;stroke-width:0.5;"/>
   </g>
   <g id="patch_79">
    <path clip-path="url(#p17607c6bc9)" d="M 389.474017 289.786642 
L 374.955873 280.781871 
" style="stroke:#000000;stroke-linejoin:miter;stroke-width:0.5;"/>
   </g>
   <g id="patch_80">
    <path clip-path="url(#p17607c6bc9)" d="M 403.99216 271.7771 
L 389.474017 289.786642 
" style="stroke:#000000;stroke-linejoin:miter;stroke-width:0.5;"/>
   </g>
   <g id="patch_81">
    <path clip-path="url(#p17607c6bc9)" d="M 389.474017 253.767559 
L 374.955873 262.77233 
" style="stroke:#000000;stroke-linejoin:miter;stroke-width:0.5;"/>
   </g>
   <g id="patch_82">
    <path clip-path="url(#p17607c6bc9)" d="M 374.955873 244.762788 
L 360.43773 244.762788 
" style="stroke:#000000;stroke-linejoin:miter;stroke-width:0.5;"/>
   </g>
   <g id="patch_83">
    <path clip-path="url(#p17607c6bc9)" d="M 389.474017 253.767559 
L 374.955873 244.762788 
" style="stroke:#000000;stroke-linejoin:miter;stroke-width:0.5;"/>
   </g>
   <g id="patch_84">
    <path clip-path="url(#p17607c6bc9)" d="M 403.99216 271.7771 
L 389.474017 253.767559 
" style="stroke:#000000;stroke-linejoin:miter;stroke-width:0.5;"/>
   </g>
   <g id="patch_85">
    <path clip-path="url(#p17607c6bc9)" d="M 418.510303 271.7771 
L 403.99216 271.7771 
" style="stroke:#000000;stroke-linejoin:miter;stroke-width:0.5;"/>
   </g>
   <g id="patch_86">
    <path clip-path="url(#p17607c6bc9)" d="M 433.028447 271.7771 
L 418.510303 271.7771 
" style="stroke:#000000;stroke-linejoin:miter;stroke-width:0.5;"/>
   </g>
   <g id="4dbeb2ef338e477c890a2b10e0259dfd-1-node">
    <path clip-path="url(#p17607c6bc9)" d="M 435.496531 268.715478 
L 435.496531 274.838723 
L 430.560362 274.838723 
L 430.560362 268.715478 
L 435.496531 268.715478 
z
" style="fill:#0000ff;stroke:#ffffff;stroke-linejoin:miter;stroke-width:0.5;"/>
   </g>
   <g id="4dbeb2ef338e477c890a2b10e0259dfd-3-node">
    <path clip-path="url(#p17607c6bc9)" d="M 420.978388 268.715478 
L 420.978388 274.838723 
L 416.042219 274.838723 
L 416.042219 268.715478 
L 420.978388 268.715478 
z
" style="fill:#0000ff;stroke:#ffffff;stroke-linejoin:miter;stroke-width:0.5;"/>
   </g>
   <g id="4dbeb2ef338e477c890a2b10e0259dfd-5-node">
    <path clip-path="url(#p17607c6bc9)" d="M 403.99216 274.838723 
C 404.646703 274.838723 405.274527 274.516131 405.737359 273.941994 
C 406.200191 273.367858 406.460244 272.589052 406.460244 271.7771 
C 406.460244 270.965149 406.200191 270.186343 405.737359 269.612207 
C 405.274527 269.03807 404.646703 268.715478 403.99216 268.715478 
C 403.337616 268.715478 402.709793 269.03807 402.246961 269.612207 
C 401.784128 270.186343 401.524075 270.965149 401.524075 271.7771 
C 401.524075 272.589052 401.784128 273.367858 402.246961 273.941994 
C 402.709793 274.516131 403.337616 274.838723 403.99216 274.838723 
z
" style="fill:#00c832;stroke:#ffffff;stroke-linejoin:miter;stroke-width:0.5;"/>
   </g>
   <g id="4dbeb2ef338e477c890a2b10e0259dfd-12-node">
    <path clip-path="url(#p17607c6bc9)" d="M 389.474017 292.848264 
C 390.12856 292.848264 390.756383 292.525672 391.219216 291.951536 
C 391.682048 291.377399 391.942101 290.598594 391.942101 289.786642 
C 391.942101 288.97469 391.682048 288.195885 391.219216 287.621748 
C 390.756383 287.047612 390.12856 286.72502 389.474017 286.72502 
C 388.819473 286.72502 388.19165 287.047612 387.728817 287.621748 
C 387.265985 288.195885 387.005932 288.97469 387.005932 289.786642 
C 387.005932 290.598594 387.265985 291.377399 387.728817 291.951536 
C 388.19165 292.525672 388.819473 292.848264 389.474017 292.848264 
z
" style="fill:#00c832;stroke:#ffffff;stroke-linejoin:miter;stroke-width:0.5;"/>
   </g>
   <g id="4dbeb2ef338e477c890a2b10e0259dfd-15-node">
    <path clip-path="url(#p17607c6bc9)" d="M 377.423958 295.729791 
L 377.423958 301.853035 
L 372.487789 301.853035 
L 372.487789 295.729791 
L 377.423958 295.729791 
z
" style="fill:#0000ff;stroke:#ffffff;stroke-linejoin:miter;stroke-width:0.5;"/>
   </g>
   <g id="4dbeb2ef338e477c890a2b10e0259dfd-13-node">
    <path clip-path="url(#p17607c6bc9)" d="M 377.423958 277.720249 
L 377.423958 283.843493 
L 372.487789 283.843493 
L 372.487789 277.720249 
L 377.423958 277.720249 
z
" style="fill:#0000ff;stroke:#ffffff;stroke-linejoin:miter;stroke-width:0.5;"/>
   </g>
   <g id="4dbeb2ef338e477c890a2b10e0259dfd-6-node">
    <path clip-path="url(#p17607c6bc9)" d="M 389.474017 256.829181 
C 390.12856 256.829181 390.756383 256.506589 391.219216 255.932453 
C 391.682048 255.358316 391.942101 254.579511 391.942101 253.767559 
C 391.942101 252.955607 391.682048 252.176802 391.219216 251.602665 
C 390.756383 251.028529 390.12856 250.705937 389.474017 250.705937 
C 388.819473 250.705937 388.19165 251.028529 387.728817 251.602665 
C 387.265985 252.176802 387.005932 252.955607 387.005932 253.767559 
C 387.005932 254.579511 387.265985 255.358316 387.728817 255.932453 
C 388.19165 256.506589 388.819473 256.829181 389.474017 256.829181 
z
" style="fill:#00c832;stroke:#ffffff;stroke-linejoin:miter;stroke-width:0.5;"/>
   </g>
   <g id="4dbeb2ef338e477c890a2b10e0259dfd-10-node">
    <path clip-path="url(#p17607c6bc9)" d="M 377.423958 259.710708 
L 377.423958 265.833952 
L 372.487789 265.833952 
L 372.487789 259.710708 
L 377.423958 259.710708 
z
" style="fill:#0000ff;stroke:#ffffff;stroke-linejoin:miter;stroke-width:0.5;"/>
   </g>
   <g id="4dbeb2ef338e477c890a2b10e0259dfd-7-node">
    <path clip-path="url(#p17607c6bc9)" d="M 377.423958 241.701166 
L 377.423958 247.82441 
L 372.487789 247.82441 
L 372.487789 241.701166 
L 377.423958 241.701166 
z
" style="fill:#0000ff;stroke:#ffffff;stroke-linejoin:miter;stroke-width:0.5;"/>
   </g>
   <g id="4dbeb2ef338e477c890a2b10e0259dfd-9-node">
    <path clip-path="url(#p17607c6bc9)" d="M 360.43773 247.82441 
C 361.092273 247.82441 361.720097 247.501818 362.182929 246.927682 
C 362.645761 246.353545 362.905814 245.57474 362.905814 244.762788 
C 362.905814 243.950837 362.645761 243.172031 362.182929 242.597895 
C 361.720097 242.023758 361.092273 241.701166 360.43773 241.701166 
C 359.783186 241.701166 359.155363 242.023758 358.692531 242.597895 
C 358.229698 243.172031 357.969645 243.950837 357.969645 244.762788 
C 357.969645 245.57474 358.229698 246.353545 358.692531 246.927682 
C 359.155363 247.501818 359.783186 247.82441 360.43773 247.82441 
z
" style="fill:#ffff00;stroke:#ffffff;stroke-linejoin:miter;stroke-width:0.5;"/>
   </g>
   <g id="patch_87">
    <path d="M 308.172414 315 
L 308.172414 191.454545 
" style="fill:none;stroke:#ffffff;stroke-linecap:square;stroke-linejoin:miter;stroke-width:1.25;"/>
   </g>
   <g id="patch_88">
    <path d="M 452.482759 315 
L 452.482759 191.454545 
" style="fill:none;stroke:#ffffff;stroke-linecap:square;stroke-linejoin:miter;stroke-width:1.25;"/>
   </g>
   <g id="patch_89">
    <path d="M 308.172414 315 
L 452.482759 315 
" style="fill:none;stroke:#ffffff;stroke-linecap:square;stroke-linejoin:miter;stroke-width:1.25;"/>
   </g>
   <g id="patch_90">
    <path d="M 308.172414 191.454545 
L 452.482759 191.454545 
" style="fill:none;stroke:#ffffff;stroke-linecap:square;stroke-linejoin:miter;stroke-width:1.25;"/>
   </g>
   <g id="text_7">
    <!-- 79:1 -->
    <g style="fill:#262626;" transform="translate(368.651024 185.454545)scale(0.12 -0.12)">
     <use xlink:href="#ArialMT-55"/>
     <use x="55.615234" xlink:href="#ArialMT-57"/>
     <use x="111.230469" xlink:href="#ArialMT-58"/>
     <use x="139.013672" xlink:href="#ArialMT-49"/>
    </g>
   </g>
  </g>
  <g id="axes_8">
   <g id="patch_91">
    <path d="M 481.344828 315 
L 625.655172 315 
L 625.655172 191.454545 
L 481.344828 191.454545 
z
" style="fill:#ffffff;"/>
   </g>
   <g id="patch_92">
    <path clip-path="url(#p6f7508e32b)" d="M 562.64643 289.786642 
L 548.128287 298.791413 
" style="stroke:#000000;stroke-linejoin:miter;stroke-width:0.5;"/>
   </g>
   <g id="patch_93">
    <path clip-path="url(#p6f7508e32b)" d="M 562.64643 289.786642 
L 548.128287 280.781871 
" style="stroke:#000000;stroke-linejoin:miter;stroke-width:0.5;"/>
   </g>
   <g id="patch_94">
    <path clip-path="url(#p6f7508e32b)" d="M 577.164574 271.7771 
L 562.64643 289.786642 
" style="stroke:#000000;stroke-linejoin:miter;stroke-width:0.5;"/>
   </g>
   <g id="patch_95">
    <path clip-path="url(#p6f7508e32b)" d="M 562.64643 253.767559 
L 548.128287 262.77233 
" style="stroke:#000000;stroke-linejoin:miter;stroke-width:0.5;"/>
   </g>
   <g id="patch_96">
    <path clip-path="url(#p6f7508e32b)" d="M 548.128287 244.762788 
L 533.610144 244.762788 
" style="stroke:#000000;stroke-linejoin:miter;stroke-width:0.5;"/>
   </g>
   <g id="patch_97">
    <path clip-path="url(#p6f7508e32b)" d="M 562.64643 253.767559 
L 548.128287 244.762788 
" style="stroke:#000000;stroke-linejoin:miter;stroke-width:0.5;"/>
   </g>
   <g id="patch_98">
    <path clip-path="url(#p6f7508e32b)" d="M 577.164574 271.7771 
L 562.64643 253.767559 
" style="stroke:#000000;stroke-linejoin:miter;stroke-width:0.5;"/>
   </g>
   <g id="patch_99">
    <path clip-path="url(#p6f7508e32b)" d="M 591.682717 271.7771 
L 577.164574 271.7771 
" style="stroke:#000000;stroke-linejoin:miter;stroke-width:0.5;"/>
   </g>
   <g id="patch_100">
    <path clip-path="url(#p6f7508e32b)" d="M 606.20086 271.7771 
L 591.682717 271.7771 
" style="stroke:#000000;stroke-linejoin:miter;stroke-width:0.5;"/>
   </g>
   <g id="patch_101">
    <path clip-path="url(#p6f7508e32b)" d="M 606.20086 271.7771 
L 606.20086 262.77233 
" style="stroke:#000000;stroke-linejoin:miter;stroke-width:0.5;"/>
   </g>
   <g id="feaeef75ec67440c93c7af67d32bce64-1-node">
    <path clip-path="url(#p6f7508e32b)" d="M 608.668945 268.715478 
L 608.668945 274.838723 
L 603.732776 274.838723 
L 603.732776 268.715478 
L 608.668945 268.715478 
z
" style="fill:#0000ff;stroke:#ffffff;stroke-linejoin:miter;stroke-width:0.5;"/>
   </g>
   <g id="feaeef75ec67440c93c7af67d32bce64-4-node">
    <path clip-path="url(#p6f7508e32b)" d="M 594.150801 268.715478 
L 594.150801 274.838723 
L 589.214633 274.838723 
L 589.214633 268.715478 
L 594.150801 268.715478 
z
" style="fill:#0000ff;stroke:#ffffff;stroke-linejoin:miter;stroke-width:0.5;"/>
   </g>
   <g id="feaeef75ec67440c93c7af67d32bce64-6-node">
    <path clip-path="url(#p6f7508e32b)" d="M 577.164574 274.838723 
C 577.819117 274.838723 578.446941 274.516131 578.909773 273.941994 
C 579.372605 273.367858 579.632658 272.589052 579.632658 271.7771 
C 579.632658 270.965149 579.372605 270.186343 578.909773 269.612207 
C 578.446941 269.03807 577.819117 268.715478 577.164574 268.715478 
C 576.51003 268.715478 575.882207 269.03807 575.419374 269.612207 
C 574.956542 270.186343 574.696489 270.965149 574.696489 271.7771 
C 574.696489 272.589052 574.956542 273.367858 575.419374 273.941994 
C 575.882207 274.516131 576.51003 274.838723 577.164574 274.838723 
z
" style="fill:#00c832;stroke:#ffffff;stroke-linejoin:miter;stroke-width:0.5;"/>
   </g>
   <g id="feaeef75ec67440c93c7af67d32bce64-13-node">
    <path clip-path="url(#p6f7508e32b)" d="M 562.64643 292.848264 
C 563.300974 292.848264 563.928797 292.525672 564.391629 291.951536 
C 564.854462 291.377399 565.114515 290.598594 565.114515 289.786642 
C 565.114515 288.97469 564.854462 288.195885 564.391629 287.621748 
C 563.928797 287.047612 563.300974 286.72502 562.64643 286.72502 
C 561.991887 286.72502 561.364063 287.047612 560.901231 287.621748 
C 560.438399 288.195885 560.178346 288.97469 560.178346 289.786642 
C 560.178346 290.598594 560.438399 291.377399 560.901231 291.951536 
C 561.364063 292.525672 561.991887 292.848264 562.64643 292.848264 
z
" style="fill:#00c832;stroke:#ffffff;stroke-linejoin:miter;stroke-width:0.5;"/>
   </g>
   <g id="feaeef75ec67440c93c7af67d32bce64-16-node">
    <path clip-path="url(#p6f7508e32b)" d="M 550.596371 295.729791 
L 550.596371 301.853035 
L 545.660203 301.853035 
L 545.660203 295.729791 
L 550.596371 295.729791 
z
" style="fill:#0000ff;stroke:#ffffff;stroke-linejoin:miter;stroke-width:0.5;"/>
   </g>
   <g id="feaeef75ec67440c93c7af67d32bce64-14-node">
    <path clip-path="url(#p6f7508e32b)" d="M 550.596371 277.720249 
L 550.596371 283.843493 
L 545.660203 283.843493 
L 545.660203 277.720249 
L 550.596371 277.720249 
z
" style="fill:#0000ff;stroke:#ffffff;stroke-linejoin:miter;stroke-width:0.5;"/>
   </g>
   <g id="feaeef75ec67440c93c7af67d32bce64-7-node">
    <path clip-path="url(#p6f7508e32b)" d="M 562.64643 256.829181 
C 563.300974 256.829181 563.928797 256.506589 564.391629 255.932453 
C 564.854462 255.358316 565.114515 254.579511 565.114515 253.767559 
C 565.114515 252.955607 564.854462 252.176802 564.391629 251.602665 
C 563.928797 251.028529 563.300974 250.705937 562.64643 250.705937 
C 561.991887 250.705937 561.364063 251.028529 560.901231 251.602665 
C 560.438399 252.176802 560.178346 252.955607 560.178346 253.767559 
C 560.178346 254.579511 560.438399 255.358316 560.901231 255.932453 
C 561.364063 256.506589 561.991887 256.829181 562.64643 256.829181 
z
" style="fill:#00c832;stroke:#ffffff;stroke-linejoin:miter;stroke-width:0.5;"/>
   </g>
   <g id="feaeef75ec67440c93c7af67d32bce64-11-node">
    <path clip-path="url(#p6f7508e32b)" d="M 550.596371 259.710708 
L 550.596371 265.833952 
L 545.660203 265.833952 
L 545.660203 259.710708 
L 550.596371 259.710708 
z
" style="fill:#0000ff;stroke:#ffffff;stroke-linejoin:miter;stroke-width:0.5;"/>
   </g>
   <g id="feaeef75ec67440c93c7af67d32bce64-8-node">
    <path clip-path="url(#p6f7508e32b)" d="M 550.596371 241.701166 
L 550.596371 247.82441 
L 545.660203 247.82441 
L 545.660203 241.701166 
L 550.596371 241.701166 
z
" style="fill:#0000ff;stroke:#ffffff;stroke-linejoin:miter;stroke-width:0.5;"/>
   </g>
   <g id="feaeef75ec67440c93c7af67d32bce64-10-node">
    <path clip-path="url(#p6f7508e32b)" d="M 533.610144 247.82441 
C 534.264687 247.82441 534.892511 247.501818 535.355343 246.927682 
C 535.818175 246.353545 536.078228 245.57474 536.078228 244.762788 
C 536.078228 243.950837 535.818175 243.172031 535.355343 242.597895 
C 534.892511 242.023758 534.264687 241.701166 533.610144 241.701166 
C 532.9556 241.701166 532.327777 242.023758 531.864944 242.597895 
C 531.402112 243.172031 531.142059 243.950837 531.142059 244.762788 
C 531.142059 245.57474 531.402112 246.353545 531.864944 246.927682 
C 532.327777 247.501818 532.9556 247.82441 533.610144 247.82441 
z
" style="fill:#ffff00;stroke:#ffffff;stroke-linejoin:miter;stroke-width:0.5;"/>
   </g>
   <g id="feaeef75ec67440c93c7af67d32bce64-3-node">
    <path clip-path="url(#p6f7508e32b)" d="M 606.20086 259.710708 
L 604.063437 264.303141 
L 608.338284 264.303141 
z
" style="fill:#ff0000;stroke:#ffffff;stroke-linejoin:miter;stroke-width:0.5;"/>
   </g>
   <g id="patch_102">
    <path d="M 481.344828 315 
L 481.344828 191.454545 
" style="fill:none;stroke:#ffffff;stroke-linecap:square;stroke-linejoin:miter;stroke-width:1.25;"/>
   </g>
   <g id="patch_103">
    <path d="M 625.655172 315 
L 625.655172 191.454545 
" style="fill:none;stroke:#ffffff;stroke-linecap:square;stroke-linejoin:miter;stroke-width:1.25;"/>
   </g>
   <g id="patch_104">
    <path d="M 481.344828 315 
L 625.655172 315 
" style="fill:none;stroke:#ffffff;stroke-linecap:square;stroke-linejoin:miter;stroke-width:1.25;"/>
   </g>
   <g id="patch_105">
    <path d="M 481.344828 191.454545 
L 625.655172 191.454545 
" style="fill:none;stroke:#ffffff;stroke-linecap:square;stroke-linejoin:miter;stroke-width:1.25;"/>
   </g>
   <g id="text_8">
    <!-- 138:1 -->
    <g style="fill:#262626;" transform="translate(538.486875 185.454545)scale(0.12 -0.12)">
     <use xlink:href="#ArialMT-49"/>
     <use x="55.615234" xlink:href="#ArialMT-51"/>
     <use x="111.230469" xlink:href="#ArialMT-56"/>
     <use x="166.845703" xlink:href="#ArialMT-58"/>
     <use x="194.628906" xlink:href="#ArialMT-49"/>
    </g>
   </g>
  </g>
  <g id="axes_9">
   <g id="patch_106">
    <path d="M 654.517241 315 
L 798.827586 315 
L 798.827586 191.454545 
L 654.517241 191.454545 
z
" style="fill:#ffffff;"/>
   </g>
   <g id="patch_107">
    <path clip-path="url(#p06912680d3)" d="M 735.818844 289.786642 
L 721.300701 298.791413 
" style="stroke:#000000;stroke-linejoin:miter;stroke-width:0.5;"/>
   </g>
   <g id="patch_108">
    <path clip-path="url(#p06912680d3)" d="M 735.818844 289.786642 
L 721.300701 280.781871 
" style="stroke:#000000;stroke-linejoin:miter;stroke-width:0.5;"/>
   </g>
   <g id="patch_109">
    <path clip-path="url(#p06912680d3)" d="M 750.336987 271.7771 
L 735.818844 289.786642 
" style="stroke:#000000;stroke-linejoin:miter;stroke-width:0.5;"/>
   </g>
   <g id="patch_110">
    <path clip-path="url(#p06912680d3)" d="M 721.300701 262.77233 
L 706.782557 262.77233 
" style="stroke:#000000;stroke-linejoin:miter;stroke-width:0.5;"/>
   </g>
   <g id="patch_111">
    <path clip-path="url(#p06912680d3)" d="M 735.818844 253.767559 
L 721.300701 262.77233 
" style="stroke:#000000;stroke-linejoin:miter;stroke-width:0.5;"/>
   </g>
   <g id="patch_112">
    <path clip-path="url(#p06912680d3)" d="M 721.300701 244.762788 
L 706.782557 244.762788 
" style="stroke:#000000;stroke-linejoin:miter;stroke-width:0.5;"/>
   </g>
   <g id="patch_113">
    <path clip-path="url(#p06912680d3)" d="M 735.818844 253.767559 
L 721.300701 244.762788 
" style="stroke:#000000;stroke-linejoin:miter;stroke-width:0.5;"/>
   </g>
   <g id="patch_114">
    <path clip-path="url(#p06912680d3)" d="M 750.336987 271.7771 
L 735.818844 253.767559 
" style="stroke:#000000;stroke-linejoin:miter;stroke-width:0.5;"/>
   </g>
   <g id="patch_115">
    <path clip-path="url(#p06912680d3)" d="M 764.855131 271.7771 
L 750.336987 271.7771 
" style="stroke:#000000;stroke-linejoin:miter;stroke-width:0.5;"/>
   </g>
   <g id="patch_116">
    <path clip-path="url(#p06912680d3)" d="M 779.373274 271.7771 
L 764.855131 271.7771 
" style="stroke:#000000;stroke-linejoin:miter;stroke-width:0.5;"/>
   </g>
   <g id="6bde83e277d54562a9c9bea31366ce72-1-node">
    <path clip-path="url(#p06912680d3)" d="M 781.841358 268.715478 
L 781.841358 274.838723 
L 776.90519 274.838723 
L 776.90519 268.715478 
L 781.841358 268.715478 
z
" style="fill:#0000ff;stroke:#ffffff;stroke-linejoin:miter;stroke-width:0.5;"/>
   </g>
   <g id="6bde83e277d54562a9c9bea31366ce72-3-node">
    <path clip-path="url(#p06912680d3)" d="M 767.323215 268.715478 
L 767.323215 274.838723 
L 762.387046 274.838723 
L 762.387046 268.715478 
L 767.323215 268.715478 
z
" style="fill:#0000ff;stroke:#ffffff;stroke-linejoin:miter;stroke-width:0.5;"/>
   </g>
   <g id="6bde83e277d54562a9c9bea31366ce72-5-node">
    <path clip-path="url(#p06912680d3)" d="M 750.336987 274.838723 
C 750.991531 274.838723 751.619354 274.516131 752.082187 273.941994 
C 752.545019 273.367858 752.805072 272.589052 752.805072 271.7771 
C 752.805072 270.965149 752.545019 270.186343 752.082187 269.612207 
C 751.619354 269.03807 750.991531 268.715478 750.336987 268.715478 
C 749.682444 268.715478 749.05462 269.03807 748.591788 269.612207 
C 748.128956 270.186343 747.868903 270.965149 747.868903 271.7771 
C 747.868903 272.589052 748.128956 273.367858 748.591788 273.941994 
C 749.05462 274.516131 749.682444 274.838723 750.336987 274.838723 
z
" style="fill:#00c832;stroke:#ffffff;stroke-linejoin:miter;stroke-width:0.5;"/>
   </g>
   <g id="6bde83e277d54562a9c9bea31366ce72-13-node">
    <path clip-path="url(#p06912680d3)" d="M 735.818844 292.848264 
C 736.473388 292.848264 737.101211 292.525672 737.564043 291.951536 
C 738.026876 291.377399 738.286928 290.598594 738.286928 289.786642 
C 738.286928 288.97469 738.026876 288.195885 737.564043 287.621748 
C 737.101211 287.047612 736.473388 286.72502 735.818844 286.72502 
C 735.1643 286.72502 734.536477 287.047612 734.073645 287.621748 
C 733.610813 288.195885 733.35076 288.97469 733.35076 289.786642 
C 733.35076 290.598594 733.610813 291.377399 734.073645 291.951536 
C 734.536477 292.525672 735.1643 292.848264 735.818844 292.848264 
z
" style="fill:#00c832;stroke:#ffffff;stroke-linejoin:miter;stroke-width:0.5;"/>
   </g>
   <g id="6bde83e277d54562a9c9bea31366ce72-16-node">
    <path clip-path="url(#p06912680d3)" d="M 723.768785 295.729791 
L 723.768785 301.853035 
L 718.832616 301.853035 
L 718.832616 295.729791 
L 723.768785 295.729791 
z
" style="fill:#0000ff;stroke:#ffffff;stroke-linejoin:miter;stroke-width:0.5;"/>
   </g>
   <g id="6bde83e277d54562a9c9bea31366ce72-14-node">
    <path clip-path="url(#p06912680d3)" d="M 723.768785 277.720249 
L 723.768785 283.843493 
L 718.832616 283.843493 
L 718.832616 277.720249 
L 723.768785 277.720249 
z
" style="fill:#0000ff;stroke:#ffffff;stroke-linejoin:miter;stroke-width:0.5;"/>
   </g>
   <g id="6bde83e277d54562a9c9bea31366ce72-6-node">
    <path clip-path="url(#p06912680d3)" d="M 735.818844 256.829181 
C 736.473388 256.829181 737.101211 256.506589 737.564043 255.932453 
C 738.026876 255.358316 738.286928 254.579511 738.286928 253.767559 
C 738.286928 252.955607 738.026876 252.176802 737.564043 251.602665 
C 737.101211 251.028529 736.473388 250.705937 735.818844 250.705937 
C 735.1643 250.705937 734.536477 251.028529 734.073645 251.602665 
C 733.610813 252.176802 733.35076 252.955607 733.35076 253.767559 
C 733.35076 254.579511 733.610813 255.358316 734.073645 255.932453 
C 734.536477 256.506589 735.1643 256.829181 735.818844 256.829181 
z
" style="fill:#00c832;stroke:#ffffff;stroke-linejoin:miter;stroke-width:0.5;"/>
   </g>
   <g id="6bde83e277d54562a9c9bea31366ce72-10-node">
    <path clip-path="url(#p06912680d3)" d="M 723.768785 259.710708 
L 723.768785 265.833952 
L 718.832616 265.833952 
L 718.832616 259.710708 
L 723.768785 259.710708 
z
" style="fill:#0000ff;stroke:#ffffff;stroke-linejoin:miter;stroke-width:0.5;"/>
   </g>
   <g id="6bde83e277d54562a9c9bea31366ce72-12-node">
    <path clip-path="url(#p06912680d3)" d="M 706.782557 265.833952 
C 707.437101 265.833952 708.064924 265.51136 708.527757 264.937223 
C 708.990589 264.363087 709.250642 263.584281 709.250642 262.77233 
C 709.250642 261.960378 708.990589 261.181573 708.527757 260.607436 
C 708.064924 260.033299 707.437101 259.710708 706.782557 259.710708 
C 706.128014 259.710708 705.50019 260.033299 705.037358 260.607436 
C 704.574526 261.181573 704.314473 261.960378 704.314473 262.77233 
C 704.314473 263.584281 704.574526 264.363087 705.037358 264.937223 
C 705.50019 265.51136 706.128014 265.833952 706.782557 265.833952 
z
" style="fill:#ffff00;stroke:#ffffff;stroke-linejoin:miter;stroke-width:0.5;"/>
   </g>
   <g id="6bde83e277d54562a9c9bea31366ce72-7-node">
    <path clip-path="url(#p06912680d3)" d="M 723.768785 241.701166 
L 723.768785 247.82441 
L 718.832616 247.82441 
L 718.832616 241.701166 
L 723.768785 241.701166 
z
" style="fill:#0000ff;stroke:#ffffff;stroke-linejoin:miter;stroke-width:0.5;"/>
   </g>
   <g id="6bde83e277d54562a9c9bea31366ce72-9-node">
    <path clip-path="url(#p06912680d3)" d="M 706.782557 247.82441 
C 707.437101 247.82441 708.064924 247.501818 708.527757 246.927682 
C 708.990589 246.353545 709.250642 245.57474 709.250642 244.762788 
C 709.250642 243.950837 708.990589 243.172031 708.527757 242.597895 
C 708.064924 242.023758 707.437101 241.701166 706.782557 241.701166 
C 706.128014 241.701166 705.50019 242.023758 705.037358 242.597895 
C 704.574526 243.172031 704.314473 243.950837 704.314473 244.762788 
C 704.314473 245.57474 704.574526 246.353545 705.037358 246.927682 
C 705.50019 247.501818 706.128014 247.82441 706.782557 247.82441 
z
" style="fill:#ffff00;stroke:#ffffff;stroke-linejoin:miter;stroke-width:0.5;"/>
   </g>
   <g id="patch_117">
    <path d="M 654.517241 315 
L 654.517241 191.454545 
" style="fill:none;stroke:#ffffff;stroke-linecap:square;stroke-linejoin:miter;stroke-width:1.25;"/>
   </g>
   <g id="patch_118">
    <path d="M 798.827586 315 
L 798.827586 191.454545 
" style="fill:none;stroke:#ffffff;stroke-linecap:square;stroke-linejoin:miter;stroke-width:1.25;"/>
   </g>
   <g id="patch_119">
    <path d="M 654.517241 315 
L 798.827586 315 
" style="fill:none;stroke:#ffffff;stroke-linecap:square;stroke-linejoin:miter;stroke-width:1.25;"/>
   </g>
   <g id="patch_120">
    <path d="M 654.517241 191.454545 
L 798.827586 191.454545 
" style="fill:none;stroke:#ffffff;stroke-linecap:square;stroke-linejoin:miter;stroke-width:1.25;"/>
   </g>
   <g id="text_9">
    <!-- 148:2.0 -->
    <defs>
     <path d="M 9.078125 0 
L 9.078125 10.015625 
L 19.09375 10.015625 
L 19.09375 0 
z
" id="ArialMT-46"/>
     <path d="M 4.15625 35.296875 
Q 4.15625 48 6.765625 55.734375 
Q 9.375 63.484375 14.515625 67.671875 
Q 19.671875 71.875 27.484375 71.875 
Q 33.25 71.875 37.59375 69.546875 
Q 41.9375 67.234375 44.765625 62.859375 
Q 47.609375 58.5 49.21875 52.21875 
Q 50.828125 45.953125 50.828125 35.296875 
Q 50.828125 22.703125 48.234375 14.96875 
Q 45.65625 7.234375 40.5 3 
Q 35.359375 -1.21875 27.484375 -1.21875 
Q 17.140625 -1.21875 11.234375 6.203125 
Q 4.15625 15.140625 4.15625 35.296875 
z
M 13.1875 35.296875 
Q 13.1875 17.671875 17.3125 11.828125 
Q 21.4375 6 27.484375 6 
Q 33.546875 6 37.671875 11.859375 
Q 41.796875 17.71875 41.796875 35.296875 
Q 41.796875 52.984375 37.671875 58.78125 
Q 33.546875 64.59375 27.390625 64.59375 
Q 21.34375 64.59375 17.71875 59.46875 
Q 13.1875 52.9375 13.1875 35.296875 
z
" id="ArialMT-48"/>
    </defs>
    <g style="fill:#262626;" transform="translate(706.655851 185.454545)scale(0.12 -0.12)">
     <use xlink:href="#ArialMT-49"/>
     <use x="55.615234" xlink:href="#ArialMT-52"/>
     <use x="111.230469" xlink:href="#ArialMT-56"/>
     <use x="166.845703" xlink:href="#ArialMT-58"/>
     <use x="194.628906" xlink:href="#ArialMT-50"/>
     <use x="250.244141" xlink:href="#ArialMT-46"/>
     <use x="278.027344" xlink:href="#ArialMT-48"/>
    </g>
   </g>
  </g>
  <g id="axes_10">
   <g id="patch_121">
    <path d="M 827.689655 315 
L 972 315 
L 972 191.454545 
L 827.689655 191.454545 
z
" style="fill:#ffffff;"/>
   </g>
   <g id="patch_122">
    <path clip-path="url(#p1163bafdfc)" d="M 908.991258 289.786642 
L 894.473115 298.791413 
" style="stroke:#000000;stroke-linejoin:miter;stroke-width:0.5;"/>
   </g>
   <g id="patch_123">
    <path clip-path="url(#p1163bafdfc)" d="M 908.991258 289.786642 
L 894.473115 280.781871 
" style="stroke:#000000;stroke-linejoin:miter;stroke-width:0.5;"/>
   </g>
   <g id="patch_124">
    <path clip-path="url(#p1163bafdfc)" d="M 923.509401 271.7771 
L 908.991258 289.786642 
" style="stroke:#000000;stroke-linejoin:miter;stroke-width:0.5;"/>
   </g>
   <g id="patch_125">
    <path clip-path="url(#p1163bafdfc)" d="M 894.473115 262.77233 
L 879.954971 262.77233 
" style="stroke:#000000;stroke-linejoin:miter;stroke-width:0.5;"/>
   </g>
   <g id="patch_126">
    <path clip-path="url(#p1163bafdfc)" d="M 908.991258 253.767559 
L 894.473115 262.77233 
" style="stroke:#000000;stroke-linejoin:miter;stroke-width:0.5;"/>
   </g>
   <g id="patch_127">
    <path clip-path="url(#p1163bafdfc)" d="M 894.473115 244.762788 
L 879.954971 244.762788 
" style="stroke:#000000;stroke-linejoin:miter;stroke-width:0.5;"/>
   </g>
   <g id="patch_128">
    <path clip-path="url(#p1163bafdfc)" d="M 908.991258 253.767559 
L 894.473115 244.762788 
" style="stroke:#000000;stroke-linejoin:miter;stroke-width:0.5;"/>
   </g>
   <g id="patch_129">
    <path clip-path="url(#p1163bafdfc)" d="M 923.509401 271.7771 
L 908.991258 253.767559 
" style="stroke:#000000;stroke-linejoin:miter;stroke-width:0.5;"/>
   </g>
   <g id="patch_130">
    <path clip-path="url(#p1163bafdfc)" d="M 938.027545 271.7771 
L 923.509401 271.7771 
" style="stroke:#000000;stroke-linejoin:miter;stroke-width:0.5;"/>
   </g>
   <g id="patch_131">
    <path clip-path="url(#p1163bafdfc)" d="M 952.545688 271.7771 
L 938.027545 271.7771 
" style="stroke:#000000;stroke-linejoin:miter;stroke-width:0.5;"/>
   </g>
   <g id="patch_132">
    <path clip-path="url(#p1163bafdfc)" d="M 952.545688 271.7771 
L 952.545688 262.77233 
" style="stroke:#000000;stroke-linejoin:miter;stroke-width:0.5;"/>
   </g>
   <g id="43773ae03b9941619a1b6d9218ca931e-1-node">
    <path clip-path="url(#p1163bafdfc)" d="M 955.013772 268.715478 
L 955.013772 274.838723 
L 950.077604 274.838723 
L 950.077604 268.715478 
L 955.013772 268.715478 
z
" style="fill:#0000ff;stroke:#ffffff;stroke-linejoin:miter;stroke-width:0.5;"/>
   </g>
   <g id="43773ae03b9941619a1b6d9218ca931e-4-node">
    <path clip-path="url(#p1163bafdfc)" d="M 940.495629 268.715478 
L 940.495629 274.838723 
L 935.55946 274.838723 
L 935.55946 268.715478 
L 940.495629 268.715478 
z
" style="fill:#0000ff;stroke:#ffffff;stroke-linejoin:miter;stroke-width:0.5;"/>
   </g>
   <g id="43773ae03b9941619a1b6d9218ca931e-6-node">
    <path clip-path="url(#p1163bafdfc)" d="M 923.509401 274.838723 
C 924.163945 274.838723 924.791768 274.516131 925.2546 273.941994 
C 925.717433 273.367858 925.977486 272.589052 925.977486 271.7771 
C 925.977486 270.965149 925.717433 270.186343 925.2546 269.612207 
C 924.791768 269.03807 924.163945 268.715478 923.509401 268.715478 
C 922.854858 268.715478 922.227034 269.03807 921.764202 269.612207 
C 921.30137 270.186343 921.041317 270.965149 921.041317 271.7771 
C 921.041317 272.589052 921.30137 273.367858 921.764202 273.941994 
C 922.227034 274.516131 922.854858 274.838723 923.509401 274.838723 
z
" style="fill:#00c832;stroke:#ffffff;stroke-linejoin:miter;stroke-width:0.5;"/>
   </g>
   <g id="43773ae03b9941619a1b6d9218ca931e-14-node">
    <path clip-path="url(#p1163bafdfc)" d="M 908.991258 292.848264 
C 909.645802 292.848264 910.273625 292.525672 910.736457 291.951536 
C 911.199289 291.377399 911.459342 290.598594 911.459342 289.786642 
C 911.459342 288.97469 911.199289 288.195885 910.736457 287.621748 
C 910.273625 287.047612 909.645802 286.72502 908.991258 286.72502 
C 908.336714 286.72502 907.708891 287.047612 907.246059 287.621748 
C 906.783226 288.195885 906.523174 288.97469 906.523174 289.786642 
C 906.523174 290.598594 906.783226 291.377399 907.246059 291.951536 
C 907.708891 292.525672 908.336714 292.848264 908.991258 292.848264 
z
" style="fill:#00c832;stroke:#ffffff;stroke-linejoin:miter;stroke-width:0.5;"/>
   </g>
   <g id="43773ae03b9941619a1b6d9218ca931e-17-node">
    <path clip-path="url(#p1163bafdfc)" d="M 896.941199 295.729791 
L 896.941199 301.853035 
L 892.00503 301.853035 
L 892.00503 295.729791 
L 896.941199 295.729791 
z
" style="fill:#0000ff;stroke:#ffffff;stroke-linejoin:miter;stroke-width:0.5;"/>
   </g>
   <g id="43773ae03b9941619a1b6d9218ca931e-15-node">
    <path clip-path="url(#p1163bafdfc)" d="M 896.941199 277.720249 
L 896.941199 283.843493 
L 892.00503 283.843493 
L 892.00503 277.720249 
L 896.941199 277.720249 
z
" style="fill:#0000ff;stroke:#ffffff;stroke-linejoin:miter;stroke-width:0.5;"/>
   </g>
   <g id="43773ae03b9941619a1b6d9218ca931e-7-node">
    <path clip-path="url(#p1163bafdfc)" d="M 908.991258 256.829181 
C 909.645802 256.829181 910.273625 256.506589 910.736457 255.932453 
C 911.199289 255.358316 911.459342 254.579511 911.459342 253.767559 
C 911.459342 252.955607 911.199289 252.176802 910.736457 251.602665 
C 910.273625 251.028529 909.645802 250.705937 908.991258 250.705937 
C 908.336714 250.705937 907.708891 251.028529 907.246059 251.602665 
C 906.783226 252.176802 906.523174 252.955607 906.523174 253.767559 
C 906.523174 254.579511 906.783226 255.358316 907.246059 255.932453 
C 907.708891 256.506589 908.336714 256.829181 908.991258 256.829181 
z
" style="fill:#00c832;stroke:#ffffff;stroke-linejoin:miter;stroke-width:0.5;"/>
   </g>
   <g id="43773ae03b9941619a1b6d9218ca931e-11-node">
    <path clip-path="url(#p1163bafdfc)" d="M 896.941199 259.710708 
L 896.941199 265.833952 
L 892.00503 265.833952 
L 892.00503 259.710708 
L 896.941199 259.710708 
z
" style="fill:#0000ff;stroke:#ffffff;stroke-linejoin:miter;stroke-width:0.5;"/>
   </g>
   <g id="43773ae03b9941619a1b6d9218ca931e-13-node">
    <path clip-path="url(#p1163bafdfc)" d="M 879.954971 265.833952 
C 880.609515 265.833952 881.237338 265.51136 881.70017 264.937223 
C 882.163003 264.363087 882.423056 263.584281 882.423056 262.77233 
C 882.423056 261.960378 882.163003 261.181573 881.70017 260.607436 
C 881.237338 260.033299 880.609515 259.710708 879.954971 259.710708 
C 879.300428 259.710708 878.672604 260.033299 878.209772 260.607436 
C 877.74694 261.181573 877.486887 261.960378 877.486887 262.77233 
C 877.486887 263.584281 877.74694 264.363087 878.209772 264.937223 
C 878.672604 265.51136 879.300428 265.833952 879.954971 265.833952 
z
" style="fill:#ffff00;stroke:#ffffff;stroke-linejoin:miter;stroke-width:0.5;"/>
   </g>
   <g id="43773ae03b9941619a1b6d9218ca931e-8-node">
    <path clip-path="url(#p1163bafdfc)" d="M 896.941199 241.701166 
L 896.941199 247.82441 
L 892.00503 247.82441 
L 892.00503 241.701166 
L 896.941199 241.701166 
z
" style="fill:#0000ff;stroke:#ffffff;stroke-linejoin:miter;stroke-width:0.5;"/>
   </g>
   <g id="43773ae03b9941619a1b6d9218ca931e-10-node">
    <path clip-path="url(#p1163bafdfc)" d="M 879.954971 247.82441 
C 880.609515 247.82441 881.237338 247.501818 881.70017 246.927682 
C 882.163003 246.353545 882.423056 245.57474 882.423056 244.762788 
C 882.423056 243.950837 882.163003 243.172031 881.70017 242.597895 
C 881.237338 242.023758 880.609515 241.701166 879.954971 241.701166 
C 879.300428 241.701166 878.672604 242.023758 878.209772 242.597895 
C 877.74694 243.172031 877.486887 243.950837 877.486887 244.762788 
C 877.486887 245.57474 877.74694 246.353545 878.209772 246.927682 
C 878.672604 247.501818 879.300428 247.82441 879.954971 247.82441 
z
" style="fill:#ffff00;stroke:#ffffff;stroke-linejoin:miter;stroke-width:0.5;"/>
   </g>
   <g id="43773ae03b9941619a1b6d9218ca931e-3-node">
    <path clip-path="url(#p1163bafdfc)" d="M 952.545688 259.710708 
L 950.408264 264.303141 
L 954.683112 264.303141 
z
" style="fill:#ff0000;stroke:#ffffff;stroke-linejoin:miter;stroke-width:0.5;"/>
   </g>
   <g id="patch_133">
    <path d="M 827.689655 315 
L 827.689655 191.454545 
" style="fill:none;stroke:#ffffff;stroke-linecap:square;stroke-linejoin:miter;stroke-width:1.25;"/>
   </g>
   <g id="patch_134">
    <path d="M 972 315 
L 972 191.454545 
" style="fill:none;stroke:#ffffff;stroke-linecap:square;stroke-linejoin:miter;stroke-width:1.25;"/>
   </g>
   <g id="patch_135">
    <path d="M 827.689655 315 
L 972 315 
" style="fill:none;stroke:#ffffff;stroke-linecap:square;stroke-linejoin:miter;stroke-width:1.25;"/>
   </g>
   <g id="patch_136">
    <path d="M 827.689655 191.454545 
L 972 191.454545 
" style="fill:none;stroke:#ffffff;stroke-linecap:square;stroke-linejoin:miter;stroke-width:1.25;"/>
   </g>
   <g id="text_10">
    <!-- 240:2.0 -->
    <g style="fill:#262626;" transform="translate(879.828265 185.454545)scale(0.12 -0.12)">
     <use xlink:href="#ArialMT-50"/>
     <use x="55.615234" xlink:href="#ArialMT-52"/>
     <use x="111.230469" xlink:href="#ArialMT-48"/>
     <use x="166.845703" xlink:href="#ArialMT-58"/>
     <use x="194.628906" xlink:href="#ArialMT-50"/>
     <use x="250.244141" xlink:href="#ArialMT-46"/>
     <use x="278.027344" xlink:href="#ArialMT-48"/>
    </g>
   </g>
  </g>
 </g>
 <defs>
  <clipPath id="p0278864045">
   <rect height="123.545455" width="144.310345" x="135" y="43.2"/>
  </clipPath>
  <clipPath id="p8f64d1fe7f">
   <rect height="123.545455" width="144.310345" x="308.172414" y="43.2"/>
  </clipPath>
  <clipPath id="p0a2de27814">
   <rect height="123.545455" width="144.310345" x="481.344828" y="43.2"/>
  </clipPath>
  <clipPath id="p18d5d69d47">
   <rect height="123.545455" width="144.310345" x="654.517241" y="43.2"/>
  </clipPath>
  <clipPath id="pc4cecdcff4">
   <rect height="123.545455" width="144.310345" x="827.689655" y="43.2"/>
  </clipPath>
  <clipPath id="p858b0b449e">
   <rect height="123.545455" width="144.310345" x="135" y="191.454545"/>
  </clipPath>
  <clipPath id="p17607c6bc9">
   <rect height="123.545455" width="144.310345" x="308.172414" y="191.454545"/>
  </clipPath>
  <clipPath id="p6f7508e32b">
   <rect height="123.545455" width="144.310345" x="481.344828" y="191.454545"/>
  </clipPath>
  <clipPath id="p06912680d3">
   <rect height="123.545455" width="144.310345" x="654.517241" y="191.454545"/>
  </clipPath>
  <clipPath id="p1163bafdfc">
   <rect height="123.545455" width="144.310345" x="827.689655" y="191.454545"/>
  </clipPath>
 </defs>
</svg>
