<?xml version="1.0" encoding="utf-8" standalone="no"?>
<!DOCTYPE svg PUBLIC "-//W3C//DTD SVG 1.1//EN"
  "http://www.w3.org/Graphics/SVG/1.1/DTD/svg11.dtd">
<!-- Created with matplotlib (https://matplotlib.org/) -->
<svg height="360pt" version="1.1" viewBox="0 0 1080 360" width="1080pt" xmlns="http://www.w3.org/2000/svg" xmlns:xlink="http://www.w3.org/1999/xlink">
 <defs>
  <style type="text/css">
*{stroke-linecap:butt;stroke-linejoin:round;}
  </style>
 </defs>
 <g id="figure_1">
  <g id="patch_1">
   <path d="M 0 360 
L 1080 360 
L 1080 0 
L 0 0 
z
" style="fill:#ffffff;"/>
  </g>
  <g id="axes_1">
   <g id="patch_2">
    <path d="M 135 166.745455 
L 279.310345 166.745455 
L 279.310345 43.2 
L 135 43.2 
z
" style="fill:#ffffff;"/>
   </g>
   <g id="patch_3">
    <path clip-path="url(#p7fc7dc3c2a)" d="M 214.541135 146.674893 
L 200.337361 146.674893 
" style="stroke:#000000;stroke-linejoin:miter;stroke-width:0.5;"/>
   </g>
   <g id="patch_4">
    <path clip-path="url(#p7fc7dc3c2a)" d="M 228.744909 129.949426 
L 214.541135 146.674893 
" style="stroke:#000000;stroke-linejoin:miter;stroke-width:0.5;"/>
   </g>
   <g id="patch_5">
    <path clip-path="url(#p7fc7dc3c2a)" d="M 214.541135 113.223958 
L 200.337361 124.37427 
" style="stroke:#000000;stroke-linejoin:miter;stroke-width:0.5;"/>
   </g>
   <g id="patch_6">
    <path clip-path="url(#p7fc7dc3c2a)" d="M 200.337361 102.073646 
L 186.133587 102.073646 
" style="stroke:#000000;stroke-linejoin:miter;stroke-width:0.5;"/>
   </g>
   <g id="patch_7">
    <path clip-path="url(#p7fc7dc3c2a)" d="M 214.541135 113.223958 
L 200.337361 102.073646 
" style="stroke:#000000;stroke-linejoin:miter;stroke-width:0.5;"/>
   </g>
   <g id="patch_8">
    <path clip-path="url(#p7fc7dc3c2a)" d="M 228.744909 129.949426 
L 214.541135 113.223958 
" style="stroke:#000000;stroke-linejoin:miter;stroke-width:0.5;"/>
   </g>
   <g id="patch_9">
    <path clip-path="url(#p7fc7dc3c2a)" d="M 242.948683 129.949426 
L 228.744909 129.949426 
" style="stroke:#000000;stroke-linejoin:miter;stroke-width:0.5;"/>
   </g>
   <g id="patch_10">
    <path clip-path="url(#p7fc7dc3c2a)" d="M 257.152457 129.949426 
L 242.948683 129.949426 
" style="stroke:#000000;stroke-linejoin:miter;stroke-width:0.5;"/>
   </g>
   <g id="69f902a349c74f8280cd7f4546c7fe58-1-node">
    <path clip-path="url(#p7fc7dc3c2a)" d="M 259.567099 126.15832 
L 259.567099 133.740532 
L 254.737816 133.740532 
L 254.737816 126.15832 
L 259.567099 126.15832 
z
" style="fill:#0000ff;stroke:#ffffff;stroke-linejoin:miter;stroke-width:0.5;"/>
   </g>
   <g id="69f902a349c74f8280cd7f4546c7fe58-3-node">
    <path clip-path="url(#p7fc7dc3c2a)" d="M 245.363325 126.15832 
L 245.363325 133.740532 
L 240.534042 133.740532 
L 240.534042 126.15832 
L 245.363325 126.15832 
z
" style="fill:#0000ff;stroke:#ffffff;stroke-linejoin:miter;stroke-width:0.5;"/>
   </g>
   <g id="69f902a349c74f8280cd7f4546c7fe58-5-node">
    <path clip-path="url(#p7fc7dc3c2a)" d="M 228.744909 133.740532 
C 229.385279 133.740532 229.999508 133.341077 230.452318 132.630142 
C 230.905129 131.919208 231.159551 130.954839 231.159551 129.949426 
C 231.159551 128.944013 230.905129 127.979643 230.452318 127.268709 
C 229.999508 126.557775 229.385279 126.15832 228.744909 126.15832 
C 228.104539 126.15832 227.49031 126.557775 227.0375 127.268709 
C 226.584689 127.979643 226.330267 128.944013 226.330267 129.949426 
C 226.330267 130.954839 226.584689 131.919208 227.0375 132.630142 
C 227.49031 133.341077 228.104539 133.740532 228.744909 133.740532 
z
" style="fill:#00c832;stroke:#ffffff;stroke-linejoin:miter;stroke-width:0.5;"/>
   </g>
   <g id="69f902a349c74f8280cd7f4546c7fe58-12-node">
    <path clip-path="url(#p7fc7dc3c2a)" d="M 214.541135 150.465999 
C 215.181505 150.465999 215.795734 150.066544 216.248544 149.35561 
C 216.701355 148.644676 216.955777 147.680306 216.955777 146.674893 
C 216.955777 145.66948 216.701355 144.705111 216.248544 143.994177 
C 215.795734 143.283242 215.181505 142.883787 214.541135 142.883787 
C 213.900765 142.883787 213.286536 143.283242 212.833725 143.994177 
C 212.380915 144.705111 212.126493 145.66948 212.126493 146.674893 
C 212.126493 147.680306 212.380915 148.644676 212.833725 149.35561 
C 213.286536 150.066544 213.900765 150.465999 214.541135 150.465999 
z
" style="fill:#00c832;stroke:#ffffff;stroke-linejoin:miter;stroke-width:0.5;"/>
   </g>
   <g id="69f902a349c74f8280cd7f4546c7fe58-13-node">
    <path clip-path="url(#p7fc7dc3c2a)" d="M 202.752002 142.883787 
L 202.752002 150.465999 
L 197.922719 150.465999 
L 197.922719 142.883787 
L 202.752002 142.883787 
z
" style="fill:#0000ff;stroke:#ffffff;stroke-linejoin:miter;stroke-width:0.5;"/>
   </g>
   <g id="69f902a349c74f8280cd7f4546c7fe58-6-node">
    <path clip-path="url(#p7fc7dc3c2a)" d="M 214.541135 117.015064 
C 215.181505 117.015064 215.795734 116.615609 216.248544 115.904675 
C 216.701355 115.19374 216.955777 114.229371 216.955777 113.223958 
C 216.955777 112.218545 216.701355 111.254176 216.248544 110.543241 
C 215.795734 109.832307 215.181505 109.432852 214.541135 109.432852 
C 213.900765 109.432852 213.286536 109.832307 212.833725 110.543241 
C 212.380915 111.254176 212.126493 112.218545 212.126493 113.223958 
C 212.126493 114.229371 212.380915 115.19374 212.833725 115.904675 
C 213.286536 116.615609 213.900765 117.015064 214.541135 117.015064 
z
" style="fill:#00c832;stroke:#ffffff;stroke-linejoin:miter;stroke-width:0.5;"/>
   </g>
   <g id="69f902a349c74f8280cd7f4546c7fe58-10-node">
    <path clip-path="url(#p7fc7dc3c2a)" d="M 202.752002 120.583164 
L 202.752002 128.165376 
L 197.922719 128.165376 
L 197.922719 120.583164 
L 202.752002 120.583164 
z
" style="fill:#0000ff;stroke:#ffffff;stroke-linejoin:miter;stroke-width:0.5;"/>
   </g>
   <g id="69f902a349c74f8280cd7f4546c7fe58-7-node">
    <path clip-path="url(#p7fc7dc3c2a)" d="M 202.752002 98.28254 
L 202.752002 105.864752 
L 197.922719 105.864752 
L 197.922719 98.28254 
L 202.752002 98.28254 
z
" style="fill:#0000ff;stroke:#ffffff;stroke-linejoin:miter;stroke-width:0.5;"/>
   </g>
   <g id="69f902a349c74f8280cd7f4546c7fe58-9-node">
    <path clip-path="url(#p7fc7dc3c2a)" d="M 186.133587 105.864752 
C 186.773957 105.864752 187.388186 105.465297 187.840996 104.754363 
C 188.293806 104.043429 188.548228 103.079059 188.548228 102.073646 
C 188.548228 101.068233 188.293806 100.103864 187.840996 99.392929 
C 187.388186 98.681995 186.773957 98.28254 186.133587 98.28254 
C 185.493216 98.28254 184.878988 98.681995 184.426177 99.392929 
C 183.973367 100.103864 183.718945 101.068233 183.718945 102.073646 
C 183.718945 103.079059 183.973367 104.043429 184.426177 104.754363 
C 184.878988 105.465297 185.493216 105.864752 186.133587 105.864752 
z
" style="fill:#ffff00;stroke:#ffffff;stroke-linejoin:miter;stroke-width:0.5;"/>
   </g>
   <g id="patch_11">
    <path d="M 135 166.745455 
L 135 43.2 
" style="fill:none;stroke:#ffffff;stroke-linecap:square;stroke-linejoin:miter;stroke-width:1.25;"/>
   </g>
   <g id="patch_12">
    <path d="M 279.310345 166.745455 
L 279.310345 43.2 
" style="fill:none;stroke:#ffffff;stroke-linecap:square;stroke-linejoin:miter;stroke-width:1.25;"/>
   </g>
   <g id="patch_13">
    <path d="M 135 166.745455 
L 279.310345 166.745455 
" style="fill:none;stroke:#ffffff;stroke-linecap:square;stroke-linejoin:miter;stroke-width:1.25;"/>
   </g>
   <g id="patch_14">
    <path d="M 135 43.2 
L 279.310345 43.2 
" style="fill:none;stroke:#ffffff;stroke-linecap:square;stroke-linejoin:miter;stroke-width:1.25;"/>
   </g>
   <g id="text_1">
    <!-- 39:1 -->
    <defs>
     <path d="M 4.203125 18.890625 
L 12.984375 20.0625 
Q 14.5 12.59375 18.140625 9.296875 
Q 21.78125 6 27 6 
Q 33.203125 6 37.46875 10.296875 
Q 41.75 14.59375 41.75 20.953125 
Q 41.75 27 37.796875 30.921875 
Q 33.84375 34.859375 27.734375 34.859375 
Q 25.25 34.859375 21.53125 33.890625 
L 22.515625 41.609375 
Q 23.390625 41.5 23.921875 41.5 
Q 29.546875 41.5 34.03125 44.421875 
Q 38.53125 47.359375 38.53125 53.46875 
Q 38.53125 58.296875 35.25 61.46875 
Q 31.984375 64.65625 26.8125 64.65625 
Q 21.6875 64.65625 18.265625 61.421875 
Q 14.84375 58.203125 13.875 51.765625 
L 5.078125 53.328125 
Q 6.6875 62.15625 12.390625 67.015625 
Q 18.109375 71.875 26.609375 71.875 
Q 32.46875 71.875 37.390625 69.359375 
Q 42.328125 66.84375 44.9375 62.5 
Q 47.5625 58.15625 47.5625 53.265625 
Q 47.5625 48.640625 45.0625 44.828125 
Q 42.578125 41.015625 37.703125 38.765625 
Q 44.046875 37.3125 47.5625 32.6875 
Q 51.078125 28.078125 51.078125 21.140625 
Q 51.078125 11.765625 44.234375 5.25 
Q 37.40625 -1.265625 26.953125 -1.265625 
Q 17.53125 -1.265625 11.296875 4.34375 
Q 5.078125 9.96875 4.203125 18.890625 
z
" id="ArialMT-51"/>
     <path d="M 5.46875 16.546875 
L 13.921875 17.328125 
Q 14.984375 11.375 18.015625 8.6875 
Q 21.046875 6 25.78125 6 
Q 29.828125 6 32.875 7.859375 
Q 35.9375 9.71875 37.890625 12.8125 
Q 39.84375 15.921875 41.15625 21.1875 
Q 42.484375 26.46875 42.484375 31.9375 
Q 42.484375 32.515625 42.4375 33.6875 
Q 39.796875 29.5 35.234375 26.875 
Q 30.671875 24.265625 25.34375 24.265625 
Q 16.453125 24.265625 10.296875 30.703125 
Q 4.15625 37.15625 4.15625 47.703125 
Q 4.15625 58.59375 10.578125 65.234375 
Q 17 71.875 26.65625 71.875 
Q 33.640625 71.875 39.421875 68.109375 
Q 45.21875 64.359375 48.21875 57.390625 
Q 51.21875 50.4375 51.21875 37.25 
Q 51.21875 23.53125 48.234375 15.40625 
Q 45.265625 7.28125 39.375 3.03125 
Q 33.5 -1.21875 25.59375 -1.21875 
Q 17.1875 -1.21875 11.859375 3.4375 
Q 6.546875 8.109375 5.46875 16.546875 
z
M 41.453125 48.140625 
Q 41.453125 55.71875 37.421875 60.15625 
Q 33.40625 64.59375 27.734375 64.59375 
Q 21.875 64.59375 17.53125 59.8125 
Q 13.1875 55.03125 13.1875 47.40625 
Q 13.1875 40.578125 17.3125 36.296875 
Q 21.4375 32.03125 27.484375 32.03125 
Q 33.59375 32.03125 37.515625 36.296875 
Q 41.453125 40.578125 41.453125 48.140625 
z
" id="ArialMT-57"/>
     <path d="M 9.03125 41.84375 
L 9.03125 51.859375 
L 19.046875 51.859375 
L 19.046875 41.84375 
z
M 9.03125 0 
L 9.03125 10.015625 
L 19.046875 10.015625 
L 19.046875 0 
z
" id="ArialMT-58"/>
     <path d="M 37.25 0 
L 28.46875 0 
L 28.46875 56 
Q 25.296875 52.984375 20.140625 49.953125 
Q 14.984375 46.921875 10.890625 45.40625 
L 10.890625 53.90625 
Q 18.265625 57.375 23.78125 62.296875 
Q 29.296875 67.234375 31.59375 71.875 
L 37.25 71.875 
z
" id="ArialMT-49"/>
    </defs>
    <g style="fill:#262626;" transform="translate(195.47861 37.2)scale(0.12 -0.12)">
     <use xlink:href="#ArialMT-51"/>
     <use x="55.615234" xlink:href="#ArialMT-57"/>
     <use x="111.230469" xlink:href="#ArialMT-58"/>
     <use x="139.013672" xlink:href="#ArialMT-49"/>
    </g>
   </g>
  </g>
  <g id="axes_2">
   <g id="patch_15">
    <path d="M 308.172414 166.745455 
L 452.482759 166.745455 
L 452.482759 43.2 
L 308.172414 43.2 
z
" style="fill:#ffffff;"/>
   </g>
   <g id="patch_16">
    <path clip-path="url(#pa85d223901)" d="M 387.713549 146.674893 
L 373.509775 146.674893 
" style="stroke:#000000;stroke-linejoin:miter;stroke-width:0.5;"/>
   </g>
   <g id="patch_17">
    <path clip-path="url(#pa85d223901)" d="M 401.917323 129.949426 
L 387.713549 146.674893 
" style="stroke:#000000;stroke-linejoin:miter;stroke-width:0.5;"/>
   </g>
   <g id="patch_18">
    <path clip-path="url(#pa85d223901)" d="M 387.713549 113.223958 
L 373.509775 124.37427 
" style="stroke:#000000;stroke-linejoin:miter;stroke-width:0.5;"/>
   </g>
   <g id="patch_19">
    <path clip-path="url(#pa85d223901)" d="M 373.509775 102.073646 
L 359.306001 102.073646 
" style="stroke:#000000;stroke-linejoin:miter;stroke-width:0.5;"/>
   </g>
   <g id="patch_20">
    <path clip-path="url(#pa85d223901)" d="M 387.713549 113.223958 
L 373.509775 102.073646 
" style="stroke:#000000;stroke-linejoin:miter;stroke-width:0.5;"/>
   </g>
   <g id="patch_21">
    <path clip-path="url(#pa85d223901)" d="M 401.917323 129.949426 
L 387.713549 113.223958 
" style="stroke:#000000;stroke-linejoin:miter;stroke-width:0.5;"/>
   </g>
   <g id="patch_22">
    <path clip-path="url(#pa85d223901)" d="M 416.121097 129.949426 
L 401.917323 129.949426 
" style="stroke:#000000;stroke-linejoin:miter;stroke-width:0.5;"/>
   </g>
   <g id="patch_23">
    <path clip-path="url(#pa85d223901)" d="M 430.324871 129.949426 
L 416.121097 129.949426 
" style="stroke:#000000;stroke-linejoin:miter;stroke-width:0.5;"/>
   </g>
   <g id="patch_24">
    <path clip-path="url(#pa85d223901)" d="M 430.324871 129.949426 
L 430.324871 118.799114 
" style="stroke:#000000;stroke-linejoin:miter;stroke-width:0.5;"/>
   </g>
   <g id="e67426b10adf4f5087f6eb24c2fa17a8-1-node">
    <path clip-path="url(#pa85d223901)" d="M 432.739513 126.15832 
L 432.739513 133.740532 
L 427.910229 133.740532 
L 427.910229 126.15832 
L 432.739513 126.15832 
z
" style="fill:#0000ff;stroke:#ffffff;stroke-linejoin:miter;stroke-width:0.5;"/>
   </g>
   <g id="e67426b10adf4f5087f6eb24c2fa17a8-4-node">
    <path clip-path="url(#pa85d223901)" d="M 418.535739 126.15832 
L 418.535739 133.740532 
L 413.706455 133.740532 
L 413.706455 126.15832 
L 418.535739 126.15832 
z
" style="fill:#0000ff;stroke:#ffffff;stroke-linejoin:miter;stroke-width:0.5;"/>
   </g>
   <g id="e67426b10adf4f5087f6eb24c2fa17a8-6-node">
    <path clip-path="url(#pa85d223901)" d="M 401.917323 133.740532 
C 402.557693 133.740532 403.171922 133.341077 403.624732 132.630142 
C 404.077543 131.919208 404.331964 130.954839 404.331964 129.949426 
C 404.331964 128.944013 404.077543 127.979643 403.624732 127.268709 
C 403.171922 126.557775 402.557693 126.15832 401.917323 126.15832 
C 401.276952 126.15832 400.662724 126.557775 400.209913 127.268709 
C 399.757103 127.979643 399.502681 128.944013 399.502681 129.949426 
C 399.502681 130.954839 399.757103 131.919208 400.209913 132.630142 
C 400.662724 133.341077 401.276952 133.740532 401.917323 133.740532 
z
" style="fill:#00c832;stroke:#ffffff;stroke-linejoin:miter;stroke-width:0.5;"/>
   </g>
   <g id="e67426b10adf4f5087f6eb24c2fa17a8-13-node">
    <path clip-path="url(#pa85d223901)" d="M 387.713549 150.465999 
C 388.353919 150.465999 388.968148 150.066544 389.420958 149.35561 
C 389.873768 148.644676 390.12819 147.680306 390.12819 146.674893 
C 390.12819 145.66948 389.873768 144.705111 389.420958 143.994177 
C 388.968148 143.283242 388.353919 142.883787 387.713549 142.883787 
C 387.073178 142.883787 386.45895 143.283242 386.006139 143.994177 
C 385.553329 144.705111 385.298907 145.66948 385.298907 146.674893 
C 385.298907 147.680306 385.553329 148.644676 386.006139 149.35561 
C 386.45895 150.066544 387.073178 150.465999 387.713549 150.465999 
z
" style="fill:#00c832;stroke:#ffffff;stroke-linejoin:miter;stroke-width:0.5;"/>
   </g>
   <g id="e67426b10adf4f5087f6eb24c2fa17a8-14-node">
    <path clip-path="url(#pa85d223901)" d="M 375.924416 142.883787 
L 375.924416 150.465999 
L 371.095133 150.465999 
L 371.095133 142.883787 
L 375.924416 142.883787 
z
" style="fill:#0000ff;stroke:#ffffff;stroke-linejoin:miter;stroke-width:0.5;"/>
   </g>
   <g id="e67426b10adf4f5087f6eb24c2fa17a8-7-node">
    <path clip-path="url(#pa85d223901)" d="M 387.713549 117.015064 
C 388.353919 117.015064 388.968148 116.615609 389.420958 115.904675 
C 389.873768 115.19374 390.12819 114.229371 390.12819 113.223958 
C 390.12819 112.218545 389.873768 111.254176 389.420958 110.543241 
C 388.968148 109.832307 388.353919 109.432852 387.713549 109.432852 
C 387.073178 109.432852 386.45895 109.832307 386.006139 110.543241 
C 385.553329 111.254176 385.298907 112.218545 385.298907 113.223958 
C 385.298907 114.229371 385.553329 115.19374 386.006139 115.904675 
C 386.45895 116.615609 387.073178 117.015064 387.713549 117.015064 
z
" style="fill:#00c832;stroke:#ffffff;stroke-linejoin:miter;stroke-width:0.5;"/>
   </g>
   <g id="e67426b10adf4f5087f6eb24c2fa17a8-11-node">
    <path clip-path="url(#pa85d223901)" d="M 375.924416 120.583164 
L 375.924416 128.165376 
L 371.095133 128.165376 
L 371.095133 120.583164 
L 375.924416 120.583164 
z
" style="fill:#0000ff;stroke:#ffffff;stroke-linejoin:miter;stroke-width:0.5;"/>
   </g>
   <g id="e67426b10adf4f5087f6eb24c2fa17a8-8-node">
    <path clip-path="url(#pa85d223901)" d="M 375.924416 98.28254 
L 375.924416 105.864752 
L 371.095133 105.864752 
L 371.095133 98.28254 
L 375.924416 98.28254 
z
" style="fill:#0000ff;stroke:#ffffff;stroke-linejoin:miter;stroke-width:0.5;"/>
   </g>
   <g id="e67426b10adf4f5087f6eb24c2fa17a8-10-node">
    <path clip-path="url(#pa85d223901)" d="M 359.306001 105.864752 
C 359.946371 105.864752 360.5606 105.465297 361.01341 104.754363 
C 361.46622 104.043429 361.720642 103.079059 361.720642 102.073646 
C 361.720642 101.068233 361.46622 100.103864 361.01341 99.392929 
C 360.5606 98.681995 359.946371 98.28254 359.306001 98.28254 
C 358.66563 98.28254 358.051401 98.681995 357.598591 99.392929 
C 357.145781 100.103864 356.891359 101.068233 356.891359 102.073646 
C 356.891359 103.079059 357.145781 104.043429 357.598591 104.754363 
C 358.051401 105.465297 358.66563 105.864752 359.306001 105.864752 
z
" style="fill:#ffff00;stroke:#ffffff;stroke-linejoin:miter;stroke-width:0.5;"/>
   </g>
   <g id="e67426b10adf4f5087f6eb24c2fa17a8-3-node">
    <path clip-path="url(#pa85d223901)" d="M 430.324871 115.008008 
L 428.23373 120.694667 
L 432.416012 120.694667 
z
" style="fill:#ff0000;stroke:#ffffff;stroke-linejoin:miter;stroke-width:0.5;"/>
   </g>
   <g id="patch_25">
    <path d="M 308.172414 166.745455 
L 308.172414 43.2 
" style="fill:none;stroke:#ffffff;stroke-linecap:square;stroke-linejoin:miter;stroke-width:1.25;"/>
   </g>
   <g id="patch_26">
    <path d="M 452.482759 166.745455 
L 452.482759 43.2 
" style="fill:none;stroke:#ffffff;stroke-linecap:square;stroke-linejoin:miter;stroke-width:1.25;"/>
   </g>
   <g id="patch_27">
    <path d="M 308.172414 166.745455 
L 452.482759 166.745455 
" style="fill:none;stroke:#ffffff;stroke-linecap:square;stroke-linejoin:miter;stroke-width:1.25;"/>
   </g>
   <g id="patch_28">
    <path d="M 308.172414 43.2 
L 452.482759 43.2 
" style="fill:none;stroke:#ffffff;stroke-linecap:square;stroke-linejoin:miter;stroke-width:1.25;"/>
   </g>
   <g id="text_2">
    <!-- 70:1 -->
    <defs>
     <path d="M 4.734375 62.203125 
L 4.734375 70.65625 
L 51.078125 70.65625 
L 51.078125 63.8125 
Q 44.234375 56.546875 37.515625 44.484375 
Q 30.8125 32.421875 27.15625 19.671875 
Q 24.515625 10.6875 23.78125 0 
L 14.75 0 
Q 14.890625 8.453125 18.0625 20.40625 
Q 21.234375 32.375 27.171875 43.484375 
Q 33.109375 54.59375 39.796875 62.203125 
z
" id="ArialMT-55"/>
     <path d="M 4.15625 35.296875 
Q 4.15625 48 6.765625 55.734375 
Q 9.375 63.484375 14.515625 67.671875 
Q 19.671875 71.875 27.484375 71.875 
Q 33.25 71.875 37.59375 69.546875 
Q 41.9375 67.234375 44.765625 62.859375 
Q 47.609375 58.5 49.21875 52.21875 
Q 50.828125 45.953125 50.828125 35.296875 
Q 50.828125 22.703125 48.234375 14.96875 
Q 45.65625 7.234375 40.5 3 
Q 35.359375 -1.21875 27.484375 -1.21875 
Q 17.140625 -1.21875 11.234375 6.203125 
Q 4.15625 15.140625 4.15625 35.296875 
z
M 13.1875 35.296875 
Q 13.1875 17.671875 17.3125 11.828125 
Q 21.4375 6 27.484375 6 
Q 33.546875 6 37.671875 11.859375 
Q 41.796875 17.71875 41.796875 35.296875 
Q 41.796875 52.984375 37.671875 58.78125 
Q 33.546875 64.59375 27.390625 64.59375 
Q 21.34375 64.59375 17.71875 59.46875 
Q 13.1875 52.9375 13.1875 35.296875 
z
" id="ArialMT-48"/>
    </defs>
    <g style="fill:#262626;" transform="translate(368.651024 37.2)scale(0.12 -0.12)">
     <use xlink:href="#ArialMT-55"/>
     <use x="55.615234" xlink:href="#ArialMT-48"/>
     <use x="111.230469" xlink:href="#ArialMT-58"/>
     <use x="139.013672" xlink:href="#ArialMT-49"/>
    </g>
   </g>
  </g>
  <g id="axes_3">
   <g id="patch_29">
    <path d="M 481.344828 166.745455 
L 625.655172 166.745455 
L 625.655172 43.2 
L 481.344828 43.2 
z
" style="fill:#ffffff;"/>
   </g>
   <g id="patch_30">
    <path clip-path="url(#p6ad4548f4d)" d="M 560.885963 146.674893 
L 546.682188 146.674893 
" style="stroke:#000000;stroke-linejoin:miter;stroke-width:0.5;"/>
   </g>
   <g id="patch_31">
    <path clip-path="url(#p6ad4548f4d)" d="M 575.089737 129.949426 
L 560.885963 146.674893 
" style="stroke:#000000;stroke-linejoin:miter;stroke-width:0.5;"/>
   </g>
   <g id="patch_32">
    <path clip-path="url(#p6ad4548f4d)" d="M 546.682188 124.37427 
L 532.478414 124.37427 
" style="stroke:#000000;stroke-linejoin:miter;stroke-width:0.5;"/>
   </g>
   <g id="patch_33">
    <path clip-path="url(#p6ad4548f4d)" d="M 560.885963 113.223958 
L 546.682188 124.37427 
" style="stroke:#000000;stroke-linejoin:miter;stroke-width:0.5;"/>
   </g>
   <g id="patch_34">
    <path clip-path="url(#p6ad4548f4d)" d="M 546.682188 102.073646 
L 532.478414 102.073646 
" style="stroke:#000000;stroke-linejoin:miter;stroke-width:0.5;"/>
   </g>
   <g id="patch_35">
    <path clip-path="url(#p6ad4548f4d)" d="M 560.885963 113.223958 
L 546.682188 102.073646 
" style="stroke:#000000;stroke-linejoin:miter;stroke-width:0.5;"/>
   </g>
   <g id="patch_36">
    <path clip-path="url(#p6ad4548f4d)" d="M 575.089737 129.949426 
L 560.885963 113.223958 
" style="stroke:#000000;stroke-linejoin:miter;stroke-width:0.5;"/>
   </g>
   <g id="patch_37">
    <path clip-path="url(#p6ad4548f4d)" d="M 589.293511 129.949426 
L 575.089737 129.949426 
" style="stroke:#000000;stroke-linejoin:miter;stroke-width:0.5;"/>
   </g>
   <g id="patch_38">
    <path clip-path="url(#p6ad4548f4d)" d="M 603.497285 129.949426 
L 589.293511 129.949426 
" style="stroke:#000000;stroke-linejoin:miter;stroke-width:0.5;"/>
   </g>
   <g id="d2e234da929b40e8aa1128e0c3f07983-1-node">
    <path clip-path="url(#p6ad4548f4d)" d="M 605.911926 126.15832 
L 605.911926 133.740532 
L 601.082643 133.740532 
L 601.082643 126.15832 
L 605.911926 126.15832 
z
" style="fill:#0000ff;stroke:#ffffff;stroke-linejoin:miter;stroke-width:0.5;"/>
   </g>
   <g id="d2e234da929b40e8aa1128e0c3f07983-3-node">
    <path clip-path="url(#p6ad4548f4d)" d="M 591.708152 126.15832 
L 591.708152 133.740532 
L 586.878869 133.740532 
L 586.878869 126.15832 
L 591.708152 126.15832 
z
" style="fill:#0000ff;stroke:#ffffff;stroke-linejoin:miter;stroke-width:0.5;"/>
   </g>
   <g id="d2e234da929b40e8aa1128e0c3f07983-5-node">
    <path clip-path="url(#p6ad4548f4d)" d="M 575.089737 133.740532 
C 575.730107 133.740532 576.344336 133.341077 576.797146 132.630142 
C 577.249956 131.919208 577.504378 130.954839 577.504378 129.949426 
C 577.504378 128.944013 577.249956 127.979643 576.797146 127.268709 
C 576.344336 126.557775 575.730107 126.15832 575.089737 126.15832 
C 574.449366 126.15832 573.835137 126.557775 573.382327 127.268709 
C 572.929517 127.979643 572.675095 128.944013 572.675095 129.949426 
C 572.675095 130.954839 572.929517 131.919208 573.382327 132.630142 
C 573.835137 133.341077 574.449366 133.740532 575.089737 133.740532 
z
" style="fill:#00c832;stroke:#ffffff;stroke-linejoin:miter;stroke-width:0.5;"/>
   </g>
   <g id="d2e234da929b40e8aa1128e0c3f07983-13-node">
    <path clip-path="url(#p6ad4548f4d)" d="M 560.885963 150.465999 
C 561.526333 150.465999 562.140562 150.066544 562.593372 149.35561 
C 563.046182 148.644676 563.300604 147.680306 563.300604 146.674893 
C 563.300604 145.66948 563.046182 144.705111 562.593372 143.994177 
C 562.140562 143.283242 561.526333 142.883787 560.885963 142.883787 
C 560.245592 142.883787 559.631363 143.283242 559.178553 143.994177 
C 558.725743 144.705111 558.471321 145.66948 558.471321 146.674893 
C 558.471321 147.680306 558.725743 148.644676 559.178553 149.35561 
C 559.631363 150.066544 560.245592 150.465999 560.885963 150.465999 
z
" style="fill:#00c832;stroke:#ffffff;stroke-linejoin:miter;stroke-width:0.5;"/>
   </g>
   <g id="d2e234da929b40e8aa1128e0c3f07983-14-node">
    <path clip-path="url(#p6ad4548f4d)" d="M 549.09683 142.883787 
L 549.09683 150.465999 
L 544.267547 150.465999 
L 544.267547 142.883787 
L 549.09683 142.883787 
z
" style="fill:#0000ff;stroke:#ffffff;stroke-linejoin:miter;stroke-width:0.5;"/>
   </g>
   <g id="d2e234da929b40e8aa1128e0c3f07983-6-node">
    <path clip-path="url(#p6ad4548f4d)" d="M 560.885963 117.015064 
C 561.526333 117.015064 562.140562 116.615609 562.593372 115.904675 
C 563.046182 115.19374 563.300604 114.229371 563.300604 113.223958 
C 563.300604 112.218545 563.046182 111.254176 562.593372 110.543241 
C 562.140562 109.832307 561.526333 109.432852 560.885963 109.432852 
C 560.245592 109.432852 559.631363 109.832307 559.178553 110.543241 
C 558.725743 111.254176 558.471321 112.218545 558.471321 113.223958 
C 558.471321 114.229371 558.725743 115.19374 559.178553 115.904675 
C 559.631363 116.615609 560.245592 117.015064 560.885963 117.015064 
z
" style="fill:#00c832;stroke:#ffffff;stroke-linejoin:miter;stroke-width:0.5;"/>
   </g>
   <g id="d2e234da929b40e8aa1128e0c3f07983-10-node">
    <path clip-path="url(#p6ad4548f4d)" d="M 549.09683 120.583164 
L 549.09683 128.165376 
L 544.267547 128.165376 
L 544.267547 120.583164 
L 549.09683 120.583164 
z
" style="fill:#0000ff;stroke:#ffffff;stroke-linejoin:miter;stroke-width:0.5;"/>
   </g>
   <g id="d2e234da929b40e8aa1128e0c3f07983-12-node">
    <path clip-path="url(#p6ad4548f4d)" d="M 532.478414 128.165376 
C 533.118785 128.165376 533.733014 127.765921 534.185824 127.054987 
C 534.638634 126.344052 534.893056 125.379683 534.893056 124.37427 
C 534.893056 123.368857 534.638634 122.404487 534.185824 121.693553 
C 533.733014 120.982619 533.118785 120.583164 532.478414 120.583164 
C 531.838044 120.583164 531.223815 120.982619 530.771005 121.693553 
C 530.318195 122.404487 530.063773 123.368857 530.063773 124.37427 
C 530.063773 125.379683 530.318195 126.344052 530.771005 127.054987 
C 531.223815 127.765921 531.838044 128.165376 532.478414 128.165376 
z
" style="fill:#ffff00;stroke:#ffffff;stroke-linejoin:miter;stroke-width:0.5;"/>
   </g>
   <g id="d2e234da929b40e8aa1128e0c3f07983-7-node">
    <path clip-path="url(#p6ad4548f4d)" d="M 549.09683 98.28254 
L 549.09683 105.864752 
L 544.267547 105.864752 
L 544.267547 98.28254 
L 549.09683 98.28254 
z
" style="fill:#0000ff;stroke:#ffffff;stroke-linejoin:miter;stroke-width:0.5;"/>
   </g>
   <g id="d2e234da929b40e8aa1128e0c3f07983-9-node">
    <path clip-path="url(#p6ad4548f4d)" d="M 532.478414 105.864752 
C 533.118785 105.864752 533.733014 105.465297 534.185824 104.754363 
C 534.638634 104.043429 534.893056 103.079059 534.893056 102.073646 
C 534.893056 101.068233 534.638634 100.103864 534.185824 99.392929 
C 533.733014 98.681995 533.118785 98.28254 532.478414 98.28254 
C 531.838044 98.28254 531.223815 98.681995 530.771005 99.392929 
C 530.318195 100.103864 530.063773 101.068233 530.063773 102.073646 
C 530.063773 103.079059 530.318195 104.043429 530.771005 104.754363 
C 531.223815 105.465297 531.838044 105.864752 532.478414 105.864752 
z
" style="fill:#ffff00;stroke:#ffffff;stroke-linejoin:miter;stroke-width:0.5;"/>
   </g>
   <g id="patch_39">
    <path d="M 481.344828 166.745455 
L 481.344828 43.2 
" style="fill:none;stroke:#ffffff;stroke-linecap:square;stroke-linejoin:miter;stroke-width:1.25;"/>
   </g>
   <g id="patch_40">
    <path d="M 625.655172 166.745455 
L 625.655172 43.2 
" style="fill:none;stroke:#ffffff;stroke-linecap:square;stroke-linejoin:miter;stroke-width:1.25;"/>
   </g>
   <g id="patch_41">
    <path d="M 481.344828 166.745455 
L 625.655172 166.745455 
" style="fill:none;stroke:#ffffff;stroke-linecap:square;stroke-linejoin:miter;stroke-width:1.25;"/>
   </g>
   <g id="patch_42">
    <path d="M 481.344828 43.2 
L 625.655172 43.2 
" style="fill:none;stroke:#ffffff;stroke-linecap:square;stroke-linejoin:miter;stroke-width:1.25;"/>
   </g>
   <g id="text_3">
    <!-- 80:2.0 -->
    <defs>
     <path d="M 17.671875 38.8125 
Q 12.203125 40.828125 9.5625 44.53125 
Q 6.9375 48.25 6.9375 53.421875 
Q 6.9375 61.234375 12.546875 66.546875 
Q 18.171875 71.875 27.484375 71.875 
Q 36.859375 71.875 42.578125 66.421875 
Q 48.296875 60.984375 48.296875 53.171875 
Q 48.296875 48.1875 45.671875 44.5 
Q 43.0625 40.828125 37.75 38.8125 
Q 44.34375 36.671875 47.78125 31.875 
Q 51.21875 27.09375 51.21875 20.453125 
Q 51.21875 11.28125 44.71875 5.03125 
Q 38.234375 -1.21875 27.640625 -1.21875 
Q 17.046875 -1.21875 10.546875 5.046875 
Q 4.046875 11.328125 4.046875 20.703125 
Q 4.046875 27.6875 7.59375 32.390625 
Q 11.140625 37.109375 17.671875 38.8125 
z
M 15.921875 53.71875 
Q 15.921875 48.640625 19.1875 45.40625 
Q 22.46875 42.1875 27.6875 42.1875 
Q 32.765625 42.1875 36.015625 45.375 
Q 39.265625 48.578125 39.265625 53.21875 
Q 39.265625 58.0625 35.90625 61.359375 
Q 32.5625 64.65625 27.59375 64.65625 
Q 22.5625 64.65625 19.234375 61.421875 
Q 15.921875 58.203125 15.921875 53.71875 
z
M 13.09375 20.65625 
Q 13.09375 16.890625 14.875 13.375 
Q 16.65625 9.859375 20.171875 7.921875 
Q 23.6875 6 27.734375 6 
Q 34.03125 6 38.125 10.046875 
Q 42.234375 14.109375 42.234375 20.359375 
Q 42.234375 26.703125 38.015625 30.859375 
Q 33.796875 35.015625 27.4375 35.015625 
Q 21.234375 35.015625 17.15625 30.90625 
Q 13.09375 26.8125 13.09375 20.65625 
z
" id="ArialMT-56"/>
     <path d="M 50.34375 8.453125 
L 50.34375 0 
L 3.03125 0 
Q 2.9375 3.171875 4.046875 6.109375 
Q 5.859375 10.9375 9.828125 15.625 
Q 13.8125 20.3125 21.34375 26.46875 
Q 33.015625 36.03125 37.109375 41.625 
Q 41.21875 47.21875 41.21875 52.203125 
Q 41.21875 57.421875 37.46875 61 
Q 33.734375 64.59375 27.734375 64.59375 
Q 21.390625 64.59375 17.578125 60.78125 
Q 13.765625 56.984375 13.71875 50.25 
L 4.6875 51.171875 
Q 5.609375 61.28125 11.65625 66.578125 
Q 17.71875 71.875 27.9375 71.875 
Q 38.234375 71.875 44.234375 66.15625 
Q 50.25 60.453125 50.25 52 
Q 50.25 47.703125 48.484375 43.546875 
Q 46.734375 39.40625 42.65625 34.8125 
Q 38.578125 30.21875 29.109375 22.21875 
Q 21.1875 15.578125 18.9375 13.203125 
Q 16.703125 10.84375 15.234375 8.453125 
z
" id="ArialMT-50"/>
     <path d="M 9.078125 0 
L 9.078125 10.015625 
L 19.09375 10.015625 
L 19.09375 0 
z
" id="ArialMT-46"/>
    </defs>
    <g style="fill:#262626;" transform="translate(536.82 37.2)scale(0.12 -0.12)">
     <use xlink:href="#ArialMT-56"/>
     <use x="55.615234" xlink:href="#ArialMT-48"/>
     <use x="111.230469" xlink:href="#ArialMT-58"/>
     <use x="139.013672" xlink:href="#ArialMT-50"/>
     <use x="194.628906" xlink:href="#ArialMT-46"/>
     <use x="222.412109" xlink:href="#ArialMT-48"/>
    </g>
   </g>
  </g>
  <g id="axes_4">
   <g id="patch_43">
    <path d="M 654.517241 166.745455 
L 798.827586 166.745455 
L 798.827586 43.2 
L 654.517241 43.2 
z
" style="fill:#ffffff;"/>
   </g>
   <g id="patch_44">
    <path clip-path="url(#p291a2f3ea2)" d="M 734.058376 146.674893 
L 719.854602 146.674893 
" style="stroke:#000000;stroke-linejoin:miter;stroke-width:0.5;"/>
   </g>
   <g id="patch_45">
    <path clip-path="url(#p291a2f3ea2)" d="M 748.26215 129.949426 
L 734.058376 146.674893 
" style="stroke:#000000;stroke-linejoin:miter;stroke-width:0.5;"/>
   </g>
   <g id="patch_46">
    <path clip-path="url(#p291a2f3ea2)" d="M 719.854602 124.37427 
L 705.650828 124.37427 
" style="stroke:#000000;stroke-linejoin:miter;stroke-width:0.5;"/>
   </g>
   <g id="patch_47">
    <path clip-path="url(#p291a2f3ea2)" d="M 734.058376 113.223958 
L 719.854602 124.37427 
" style="stroke:#000000;stroke-linejoin:miter;stroke-width:0.5;"/>
   </g>
   <g id="patch_48">
    <path clip-path="url(#p291a2f3ea2)" d="M 719.854602 102.073646 
L 705.650828 102.073646 
" style="stroke:#000000;stroke-linejoin:miter;stroke-width:0.5;"/>
   </g>
   <g id="patch_49">
    <path clip-path="url(#p291a2f3ea2)" d="M 734.058376 113.223958 
L 719.854602 102.073646 
" style="stroke:#000000;stroke-linejoin:miter;stroke-width:0.5;"/>
   </g>
   <g id="patch_50">
    <path clip-path="url(#p291a2f3ea2)" d="M 748.26215 129.949426 
L 734.058376 113.223958 
" style="stroke:#000000;stroke-linejoin:miter;stroke-width:0.5;"/>
   </g>
   <g id="patch_51">
    <path clip-path="url(#p291a2f3ea2)" d="M 762.465925 129.949426 
L 748.26215 129.949426 
" style="stroke:#000000;stroke-linejoin:miter;stroke-width:0.5;"/>
   </g>
   <g id="patch_52">
    <path clip-path="url(#p291a2f3ea2)" d="M 776.669699 129.949426 
L 762.465925 129.949426 
" style="stroke:#000000;stroke-linejoin:miter;stroke-width:0.5;"/>
   </g>
   <g id="patch_53">
    <path clip-path="url(#p291a2f3ea2)" d="M 776.669699 129.949426 
L 776.669699 118.799114 
" style="stroke:#000000;stroke-linejoin:miter;stroke-width:0.5;"/>
   </g>
   <g id="ef89b84419a848419984e71def79f1e8-1-node">
    <path clip-path="url(#p291a2f3ea2)" d="M 779.08434 126.15832 
L 779.08434 133.740532 
L 774.255057 133.740532 
L 774.255057 126.15832 
L 779.08434 126.15832 
z
" style="fill:#0000ff;stroke:#ffffff;stroke-linejoin:miter;stroke-width:0.5;"/>
   </g>
   <g id="ef89b84419a848419984e71def79f1e8-4-node">
    <path clip-path="url(#p291a2f3ea2)" d="M 764.880566 126.15832 
L 764.880566 133.740532 
L 760.051283 133.740532 
L 760.051283 126.15832 
L 764.880566 126.15832 
z
" style="fill:#0000ff;stroke:#ffffff;stroke-linejoin:miter;stroke-width:0.5;"/>
   </g>
   <g id="ef89b84419a848419984e71def79f1e8-6-node">
    <path clip-path="url(#p291a2f3ea2)" d="M 748.26215 133.740532 
C 748.902521 133.740532 749.51675 133.341077 749.96956 132.630142 
C 750.42237 131.919208 750.676792 130.954839 750.676792 129.949426 
C 750.676792 128.944013 750.42237 127.979643 749.96956 127.268709 
C 749.51675 126.557775 748.902521 126.15832 748.26215 126.15832 
C 747.62178 126.15832 747.007551 126.557775 746.554741 127.268709 
C 746.101931 127.979643 745.847509 128.944013 745.847509 129.949426 
C 745.847509 130.954839 746.101931 131.919208 746.554741 132.630142 
C 747.007551 133.341077 747.62178 133.740532 748.26215 133.740532 
z
" style="fill:#00c832;stroke:#ffffff;stroke-linejoin:miter;stroke-width:0.5;"/>
   </g>
   <g id="ef89b84419a848419984e71def79f1e8-14-node">
    <path clip-path="url(#p291a2f3ea2)" d="M 734.058376 150.465999 
C 734.698747 150.465999 735.312975 150.066544 735.765786 149.35561 
C 736.218596 148.644676 736.473018 147.680306 736.473018 146.674893 
C 736.473018 145.66948 736.218596 144.705111 735.765786 143.994177 
C 735.312975 143.283242 734.698747 142.883787 734.058376 142.883787 
C 733.418006 142.883787 732.803777 143.283242 732.350967 143.994177 
C 731.898157 144.705111 731.643735 145.66948 731.643735 146.674893 
C 731.643735 147.680306 731.898157 148.644676 732.350967 149.35561 
C 732.803777 150.066544 733.418006 150.465999 734.058376 150.465999 
z
" style="fill:#00c832;stroke:#ffffff;stroke-linejoin:miter;stroke-width:0.5;"/>
   </g>
   <g id="ef89b84419a848419984e71def79f1e8-15-node">
    <path clip-path="url(#p291a2f3ea2)" d="M 722.269244 142.883787 
L 722.269244 150.465999 
L 717.439961 150.465999 
L 717.439961 142.883787 
L 722.269244 142.883787 
z
" style="fill:#0000ff;stroke:#ffffff;stroke-linejoin:miter;stroke-width:0.5;"/>
   </g>
   <g id="ef89b84419a848419984e71def79f1e8-7-node">
    <path clip-path="url(#p291a2f3ea2)" d="M 734.058376 117.015064 
C 734.698747 117.015064 735.312975 116.615609 735.765786 115.904675 
C 736.218596 115.19374 736.473018 114.229371 736.473018 113.223958 
C 736.473018 112.218545 736.218596 111.254176 735.765786 110.543241 
C 735.312975 109.832307 734.698747 109.432852 734.058376 109.432852 
C 733.418006 109.432852 732.803777 109.832307 732.350967 110.543241 
C 731.898157 111.254176 731.643735 112.218545 731.643735 113.223958 
C 731.643735 114.229371 731.898157 115.19374 732.350967 115.904675 
C 732.803777 116.615609 733.418006 117.015064 734.058376 117.015064 
z
" style="fill:#00c832;stroke:#ffffff;stroke-linejoin:miter;stroke-width:0.5;"/>
   </g>
   <g id="ef89b84419a848419984e71def79f1e8-11-node">
    <path clip-path="url(#p291a2f3ea2)" d="M 722.269244 120.583164 
L 722.269244 128.165376 
L 717.439961 128.165376 
L 717.439961 120.583164 
L 722.269244 120.583164 
z
" style="fill:#0000ff;stroke:#ffffff;stroke-linejoin:miter;stroke-width:0.5;"/>
   </g>
   <g id="ef89b84419a848419984e71def79f1e8-13-node">
    <path clip-path="url(#p291a2f3ea2)" d="M 705.650828 128.165376 
C 706.291199 128.165376 706.905427 127.765921 707.358238 127.054987 
C 707.811048 126.344052 708.06547 125.379683 708.06547 124.37427 
C 708.06547 123.368857 707.811048 122.404487 707.358238 121.693553 
C 706.905427 120.982619 706.291199 120.583164 705.650828 120.583164 
C 705.010458 120.583164 704.396229 120.982619 703.943419 121.693553 
C 703.490608 122.404487 703.236187 123.368857 703.236187 124.37427 
C 703.236187 125.379683 703.490608 126.344052 703.943419 127.054987 
C 704.396229 127.765921 705.010458 128.165376 705.650828 128.165376 
z
" style="fill:#ffff00;stroke:#ffffff;stroke-linejoin:miter;stroke-width:0.5;"/>
   </g>
   <g id="ef89b84419a848419984e71def79f1e8-8-node">
    <path clip-path="url(#p291a2f3ea2)" d="M 722.269244 98.28254 
L 722.269244 105.864752 
L 717.439961 105.864752 
L 717.439961 98.28254 
L 722.269244 98.28254 
z
" style="fill:#0000ff;stroke:#ffffff;stroke-linejoin:miter;stroke-width:0.5;"/>
   </g>
   <g id="ef89b84419a848419984e71def79f1e8-10-node">
    <path clip-path="url(#p291a2f3ea2)" d="M 705.650828 105.864752 
C 706.291199 105.864752 706.905427 105.465297 707.358238 104.754363 
C 707.811048 104.043429 708.06547 103.079059 708.06547 102.073646 
C 708.06547 101.068233 707.811048 100.103864 707.358238 99.392929 
C 706.905427 98.681995 706.291199 98.28254 705.650828 98.28254 
C 705.010458 98.28254 704.396229 98.681995 703.943419 99.392929 
C 703.490608 100.103864 703.236187 101.068233 703.236187 102.073646 
C 703.236187 103.079059 703.490608 104.043429 703.943419 104.754363 
C 704.396229 105.465297 705.010458 105.864752 705.650828 105.864752 
z
" style="fill:#ffff00;stroke:#ffffff;stroke-linejoin:miter;stroke-width:0.5;"/>
   </g>
   <g id="ef89b84419a848419984e71def79f1e8-3-node">
    <path clip-path="url(#p291a2f3ea2)" d="M 776.669699 115.008008 
L 774.578558 120.694667 
L 778.76084 120.694667 
z
" style="fill:#ff0000;stroke:#ffffff;stroke-linejoin:miter;stroke-width:0.5;"/>
   </g>
   <g id="patch_54">
    <path d="M 654.517241 166.745455 
L 654.517241 43.2 
" style="fill:none;stroke:#ffffff;stroke-linecap:square;stroke-linejoin:miter;stroke-width:1.25;"/>
   </g>
   <g id="patch_55">
    <path d="M 798.827586 166.745455 
L 798.827586 43.2 
" style="fill:none;stroke:#ffffff;stroke-linecap:square;stroke-linejoin:miter;stroke-width:1.25;"/>
   </g>
   <g id="patch_56">
    <path d="M 654.517241 166.745455 
L 798.827586 166.745455 
" style="fill:none;stroke:#ffffff;stroke-linecap:square;stroke-linejoin:miter;stroke-width:1.25;"/>
   </g>
   <g id="patch_57">
    <path d="M 654.517241 43.2 
L 798.827586 43.2 
" style="fill:none;stroke:#ffffff;stroke-linecap:square;stroke-linejoin:miter;stroke-width:1.25;"/>
   </g>
   <g id="text_4">
    <!-- 139:2.0 -->
    <g style="fill:#262626;" transform="translate(706.655851 37.2)scale(0.12 -0.12)">
     <use xlink:href="#ArialMT-49"/>
     <use x="55.615234" xlink:href="#ArialMT-51"/>
     <use x="111.230469" xlink:href="#ArialMT-57"/>
     <use x="166.845703" xlink:href="#ArialMT-58"/>
     <use x="194.628906" xlink:href="#ArialMT-50"/>
     <use x="250.244141" xlink:href="#ArialMT-46"/>
     <use x="278.027344" xlink:href="#ArialMT-48"/>
    </g>
   </g>
  </g>
  <g id="axes_5">
   <g id="patch_58">
    <path d="M 827.689655 166.745455 
L 972 166.745455 
L 972 43.2 
L 827.689655 43.2 
z
" style="fill:#ffffff;"/>
   </g>
   <g id="patch_59">
    <path clip-path="url(#p9b4e4bfd7d)" d="M 893.027016 146.674893 
L 878.823242 146.674893 
" style="stroke:#000000;stroke-linejoin:miter;stroke-width:0.5;"/>
   </g>
   <g id="patch_60">
    <path clip-path="url(#p9b4e4bfd7d)" d="M 907.23079 146.674893 
L 893.027016 146.674893 
" style="stroke:#000000;stroke-linejoin:miter;stroke-width:0.5;"/>
   </g>
   <g id="patch_61">
    <path clip-path="url(#p9b4e4bfd7d)" d="M 921.434564 129.949426 
L 907.23079 146.674893 
" style="stroke:#000000;stroke-linejoin:miter;stroke-width:0.5;"/>
   </g>
   <g id="patch_62">
    <path clip-path="url(#p9b4e4bfd7d)" d="M 893.027016 124.37427 
L 878.823242 124.37427 
" style="stroke:#000000;stroke-linejoin:miter;stroke-width:0.5;"/>
   </g>
   <g id="patch_63">
    <path clip-path="url(#p9b4e4bfd7d)" d="M 907.23079 113.223958 
L 893.027016 124.37427 
" style="stroke:#000000;stroke-linejoin:miter;stroke-width:0.5;"/>
   </g>
   <g id="patch_64">
    <path clip-path="url(#p9b4e4bfd7d)" d="M 893.027016 102.073646 
L 878.823242 102.073646 
" style="stroke:#000000;stroke-linejoin:miter;stroke-width:0.5;"/>
   </g>
   <g id="patch_65">
    <path clip-path="url(#p9b4e4bfd7d)" d="M 907.23079 113.223958 
L 893.027016 102.073646 
" style="stroke:#000000;stroke-linejoin:miter;stroke-width:0.5;"/>
   </g>
   <g id="patch_66">
    <path clip-path="url(#p9b4e4bfd7d)" d="M 921.434564 129.949426 
L 907.23079 113.223958 
" style="stroke:#000000;stroke-linejoin:miter;stroke-width:0.5;"/>
   </g>
   <g id="patch_67">
    <path clip-path="url(#p9b4e4bfd7d)" d="M 935.638338 129.949426 
L 921.434564 129.949426 
" style="stroke:#000000;stroke-linejoin:miter;stroke-width:0.5;"/>
   </g>
   <g id="patch_68">
    <path clip-path="url(#p9b4e4bfd7d)" d="M 949.842112 129.949426 
L 935.638338 129.949426 
" style="stroke:#000000;stroke-linejoin:miter;stroke-width:0.5;"/>
   </g>
   <g id="21539140d4cb4afb94d169534d732f1f-1-node">
    <path clip-path="url(#p9b4e4bfd7d)" d="M 952.256754 126.15832 
L 952.256754 133.740532 
L 947.427471 133.740532 
L 947.427471 126.15832 
L 952.256754 126.15832 
z
" style="fill:#0000ff;stroke:#ffffff;stroke-linejoin:miter;stroke-width:0.5;"/>
   </g>
   <g id="21539140d4cb4afb94d169534d732f1f-3-node">
    <path clip-path="url(#p9b4e4bfd7d)" d="M 938.05298 126.15832 
L 938.05298 133.740532 
L 933.223697 133.740532 
L 933.223697 126.15832 
L 938.05298 126.15832 
z
" style="fill:#0000ff;stroke:#ffffff;stroke-linejoin:miter;stroke-width:0.5;"/>
   </g>
   <g id="21539140d4cb4afb94d169534d732f1f-5-node">
    <path clip-path="url(#p9b4e4bfd7d)" d="M 921.434564 133.740532 
C 922.074935 133.740532 922.689163 133.341077 923.141974 132.630142 
C 923.594784 131.919208 923.849206 130.954839 923.849206 129.949426 
C 923.849206 128.944013 923.594784 127.979643 923.141974 127.268709 
C 922.689163 126.557775 922.074935 126.15832 921.434564 126.15832 
C 920.794194 126.15832 920.179965 126.557775 919.727155 127.268709 
C 919.274344 127.979643 919.019923 128.944013 919.019923 129.949426 
C 919.019923 130.954839 919.274344 131.919208 919.727155 132.630142 
C 920.179965 133.341077 920.794194 133.740532 921.434564 133.740532 
z
" style="fill:#00c832;stroke:#ffffff;stroke-linejoin:miter;stroke-width:0.5;"/>
   </g>
   <g id="21539140d4cb4afb94d169534d732f1f-13-node">
    <path clip-path="url(#p9b4e4bfd7d)" d="M 907.23079 150.465999 
C 907.871161 150.465999 908.485389 150.066544 908.9382 149.35561 
C 909.39101 148.644676 909.645432 147.680306 909.645432 146.674893 
C 909.645432 145.66948 909.39101 144.705111 908.9382 143.994177 
C 908.485389 143.283242 907.871161 142.883787 907.23079 142.883787 
C 906.59042 142.883787 905.976191 143.283242 905.523381 143.994177 
C 905.07057 144.705111 904.816149 145.66948 904.816149 146.674893 
C 904.816149 147.680306 905.07057 148.644676 905.523381 149.35561 
C 905.976191 150.066544 906.59042 150.465999 907.23079 150.465999 
z
" style="fill:#00c832;stroke:#ffffff;stroke-linejoin:miter;stroke-width:0.5;"/>
   </g>
   <g id="21539140d4cb4afb94d169534d732f1f-14-node">
    <path clip-path="url(#p9b4e4bfd7d)" d="M 895.441658 142.883787 
L 895.441658 150.465999 
L 890.612374 150.465999 
L 890.612374 142.883787 
L 895.441658 142.883787 
z
" style="fill:#0000ff;stroke:#ffffff;stroke-linejoin:miter;stroke-width:0.5;"/>
   </g>
   <g id="21539140d4cb4afb94d169534d732f1f-16-node">
    <path clip-path="url(#p9b4e4bfd7d)" d="M 878.823242 150.465999 
C 879.463612 150.465999 880.077841 150.066544 880.530651 149.35561 
C 880.983462 148.644676 881.237884 147.680306 881.237884 146.674893 
C 881.237884 145.66948 880.983462 144.705111 880.530651 143.994177 
C 880.077841 143.283242 879.463612 142.883787 878.823242 142.883787 
C 878.182871 142.883787 877.568643 143.283242 877.115832 143.994177 
C 876.663022 144.705111 876.4086 145.66948 876.4086 146.674893 
C 876.4086 147.680306 876.663022 148.644676 877.115832 149.35561 
C 877.568643 150.066544 878.182871 150.465999 878.823242 150.465999 
z
" style="fill:#ffff00;stroke:#ffffff;stroke-linejoin:miter;stroke-width:0.5;"/>
   </g>
   <g id="21539140d4cb4afb94d169534d732f1f-6-node">
    <path clip-path="url(#p9b4e4bfd7d)" d="M 907.23079 117.015064 
C 907.871161 117.015064 908.485389 116.615609 908.9382 115.904675 
C 909.39101 115.19374 909.645432 114.229371 909.645432 113.223958 
C 909.645432 112.218545 909.39101 111.254176 908.9382 110.543241 
C 908.485389 109.832307 907.871161 109.432852 907.23079 109.432852 
C 906.59042 109.432852 905.976191 109.832307 905.523381 110.543241 
C 905.07057 111.254176 904.816149 112.218545 904.816149 113.223958 
C 904.816149 114.229371 905.07057 115.19374 905.523381 115.904675 
C 905.976191 116.615609 906.59042 117.015064 907.23079 117.015064 
z
" style="fill:#00c832;stroke:#ffffff;stroke-linejoin:miter;stroke-width:0.5;"/>
   </g>
   <g id="21539140d4cb4afb94d169534d732f1f-10-node">
    <path clip-path="url(#p9b4e4bfd7d)" d="M 895.441658 120.583164 
L 895.441658 128.165376 
L 890.612374 128.165376 
L 890.612374 120.583164 
L 895.441658 120.583164 
z
" style="fill:#0000ff;stroke:#ffffff;stroke-linejoin:miter;stroke-width:0.5;"/>
   </g>
   <g id="21539140d4cb4afb94d169534d732f1f-12-node">
    <path clip-path="url(#p9b4e4bfd7d)" d="M 878.823242 128.165376 
C 879.463612 128.165376 880.077841 127.765921 880.530651 127.054987 
C 880.983462 126.344052 881.237884 125.379683 881.237884 124.37427 
C 881.237884 123.368857 880.983462 122.404487 880.530651 121.693553 
C 880.077841 120.982619 879.463612 120.583164 878.823242 120.583164 
C 878.182871 120.583164 877.568643 120.982619 877.115832 121.693553 
C 876.663022 122.404487 876.4086 123.368857 876.4086 124.37427 
C 876.4086 125.379683 876.663022 126.344052 877.115832 127.054987 
C 877.568643 127.765921 878.182871 128.165376 878.823242 128.165376 
z
" style="fill:#ffff00;stroke:#ffffff;stroke-linejoin:miter;stroke-width:0.5;"/>
   </g>
   <g id="21539140d4cb4afb94d169534d732f1f-7-node">
    <path clip-path="url(#p9b4e4bfd7d)" d="M 895.441658 98.28254 
L 895.441658 105.864752 
L 890.612374 105.864752 
L 890.612374 98.28254 
L 895.441658 98.28254 
z
" style="fill:#0000ff;stroke:#ffffff;stroke-linejoin:miter;stroke-width:0.5;"/>
   </g>
   <g id="21539140d4cb4afb94d169534d732f1f-9-node">
    <path clip-path="url(#p9b4e4bfd7d)" d="M 878.823242 105.864752 
C 879.463612 105.864752 880.077841 105.465297 880.530651 104.754363 
C 880.983462 104.043429 881.237884 103.079059 881.237884 102.073646 
C 881.237884 101.068233 880.983462 100.103864 880.530651 99.392929 
C 880.077841 98.681995 879.463612 98.28254 878.823242 98.28254 
C 878.182871 98.28254 877.568643 98.681995 877.115832 99.392929 
C 876.663022 100.103864 876.4086 101.068233 876.4086 102.073646 
C 876.4086 103.079059 876.663022 104.043429 877.115832 104.754363 
C 877.568643 105.465297 878.182871 105.864752 878.823242 105.864752 
z
" style="fill:#ffff00;stroke:#ffffff;stroke-linejoin:miter;stroke-width:0.5;"/>
   </g>
   <g id="patch_69">
    <path d="M 827.689655 166.745455 
L 827.689655 43.2 
" style="fill:none;stroke:#ffffff;stroke-linecap:square;stroke-linejoin:miter;stroke-width:1.25;"/>
   </g>
   <g id="patch_70">
    <path d="M 972 166.745455 
L 972 43.2 
" style="fill:none;stroke:#ffffff;stroke-linecap:square;stroke-linejoin:miter;stroke-width:1.25;"/>
   </g>
   <g id="patch_71">
    <path d="M 827.689655 166.745455 
L 972 166.745455 
" style="fill:none;stroke:#ffffff;stroke-linecap:square;stroke-linejoin:miter;stroke-width:1.25;"/>
   </g>
   <g id="patch_72">
    <path d="M 827.689655 43.2 
L 972 43.2 
" style="fill:none;stroke:#ffffff;stroke-linecap:square;stroke-linejoin:miter;stroke-width:1.25;"/>
   </g>
   <g id="text_5">
    <!-- 147:4.0 -->
    <defs>
     <path d="M 32.328125 0 
L 32.328125 17.140625 
L 1.265625 17.140625 
L 1.265625 25.203125 
L 33.9375 71.578125 
L 41.109375 71.578125 
L 41.109375 25.203125 
L 50.78125 25.203125 
L 50.78125 17.140625 
L 41.109375 17.140625 
L 41.109375 0 
z
M 32.328125 25.203125 
L 32.328125 57.46875 
L 9.90625 25.203125 
z
" id="ArialMT-52"/>
    </defs>
    <g style="fill:#262626;" transform="translate(879.828265 37.2)scale(0.12 -0.12)">
     <use xlink:href="#ArialMT-49"/>
     <use x="55.615234" xlink:href="#ArialMT-52"/>
     <use x="111.230469" xlink:href="#ArialMT-55"/>
     <use x="166.845703" xlink:href="#ArialMT-58"/>
     <use x="194.628906" xlink:href="#ArialMT-52"/>
     <use x="250.244141" xlink:href="#ArialMT-46"/>
     <use x="278.027344" xlink:href="#ArialMT-48"/>
    </g>
   </g>
  </g>
  <g id="axes_6">
   <g id="patch_73">
    <path d="M 135 315 
L 279.310345 315 
L 279.310345 191.454545 
L 135 191.454545 
z
" style="fill:#ffffff;"/>
   </g>
   <g id="patch_74">
    <path clip-path="url(#pf345f888b2)" d="M 200.337361 294.929439 
L 186.133587 294.929439 
" style="stroke:#000000;stroke-linejoin:miter;stroke-width:0.5;"/>
   </g>
   <g id="patch_75">
    <path clip-path="url(#pf345f888b2)" d="M 214.541135 294.929439 
L 200.337361 294.929439 
" style="stroke:#000000;stroke-linejoin:miter;stroke-width:0.5;"/>
   </g>
   <g id="patch_76">
    <path clip-path="url(#pf345f888b2)" d="M 228.744909 278.203971 
L 214.541135 294.929439 
" style="stroke:#000000;stroke-linejoin:miter;stroke-width:0.5;"/>
   </g>
   <g id="patch_77">
    <path clip-path="url(#pf345f888b2)" d="M 200.337361 272.628815 
L 186.133587 272.628815 
" style="stroke:#000000;stroke-linejoin:miter;stroke-width:0.5;"/>
   </g>
   <g id="patch_78">
    <path clip-path="url(#pf345f888b2)" d="M 214.541135 261.478503 
L 200.337361 272.628815 
" style="stroke:#000000;stroke-linejoin:miter;stroke-width:0.5;"/>
   </g>
   <g id="patch_79">
    <path clip-path="url(#pf345f888b2)" d="M 200.337361 250.328192 
L 186.133587 250.328192 
" style="stroke:#000000;stroke-linejoin:miter;stroke-width:0.5;"/>
   </g>
   <g id="patch_80">
    <path clip-path="url(#pf345f888b2)" d="M 214.541135 261.478503 
L 200.337361 250.328192 
" style="stroke:#000000;stroke-linejoin:miter;stroke-width:0.5;"/>
   </g>
   <g id="patch_81">
    <path clip-path="url(#pf345f888b2)" d="M 228.744909 278.203971 
L 214.541135 261.478503 
" style="stroke:#000000;stroke-linejoin:miter;stroke-width:0.5;"/>
   </g>
   <g id="patch_82">
    <path clip-path="url(#pf345f888b2)" d="M 242.948683 278.203971 
L 228.744909 278.203971 
" style="stroke:#000000;stroke-linejoin:miter;stroke-width:0.5;"/>
   </g>
   <g id="patch_83">
    <path clip-path="url(#pf345f888b2)" d="M 257.152457 278.203971 
L 242.948683 278.203971 
" style="stroke:#000000;stroke-linejoin:miter;stroke-width:0.5;"/>
   </g>
   <g id="patch_84">
    <path clip-path="url(#pf345f888b2)" d="M 257.152457 278.203971 
L 257.152457 267.053659 
" style="stroke:#000000;stroke-linejoin:miter;stroke-width:0.5;"/>
   </g>
   <g id="b5f9438bb4e647e68f8a8c9e0992933b-1-node">
    <path clip-path="url(#pf345f888b2)" d="M 259.567099 274.412865 
L 259.567099 281.995077 
L 254.737816 281.995077 
L 254.737816 274.412865 
L 259.567099 274.412865 
z
" style="fill:#0000ff;stroke:#ffffff;stroke-linejoin:miter;stroke-width:0.5;"/>
   </g>
   <g id="b5f9438bb4e647e68f8a8c9e0992933b-4-node">
    <path clip-path="url(#pf345f888b2)" d="M 245.363325 274.412865 
L 245.363325 281.995077 
L 240.534042 281.995077 
L 240.534042 274.412865 
L 245.363325 274.412865 
z
" style="fill:#0000ff;stroke:#ffffff;stroke-linejoin:miter;stroke-width:0.5;"/>
   </g>
   <g id="b5f9438bb4e647e68f8a8c9e0992933b-6-node">
    <path clip-path="url(#pf345f888b2)" d="M 228.744909 281.995077 
C 229.385279 281.995077 229.999508 281.595622 230.452318 280.884688 
C 230.905129 280.173753 231.159551 279.209384 231.159551 278.203971 
C 231.159551 277.198558 230.905129 276.234189 230.452318 275.523254 
C 229.999508 274.81232 229.385279 274.412865 228.744909 274.412865 
C 228.104539 274.412865 227.49031 274.81232 227.0375 275.523254 
C 226.584689 276.234189 226.330267 277.198558 226.330267 278.203971 
C 226.330267 279.209384 226.584689 280.173753 227.0375 280.884688 
C 227.49031 281.595622 228.104539 281.995077 228.744909 281.995077 
z
" style="fill:#00c832;stroke:#ffffff;stroke-linejoin:miter;stroke-width:0.5;"/>
   </g>
   <g id="b5f9438bb4e647e68f8a8c9e0992933b-14-node">
    <path clip-path="url(#pf345f888b2)" d="M 214.541135 298.720545 
C 215.181505 298.720545 215.795734 298.32109 216.248544 297.610156 
C 216.701355 296.899221 216.955777 295.934852 216.955777 294.929439 
C 216.955777 293.924026 216.701355 292.959656 216.248544 292.248722 
C 215.795734 291.537788 215.181505 291.138333 214.541135 291.138333 
C 213.900765 291.138333 213.286536 291.537788 212.833725 292.248722 
C 212.380915 292.959656 212.126493 293.924026 212.126493 294.929439 
C 212.126493 295.934852 212.380915 296.899221 212.833725 297.610156 
C 213.286536 298.32109 213.900765 298.720545 214.541135 298.720545 
z
" style="fill:#00c832;stroke:#ffffff;stroke-linejoin:miter;stroke-width:0.5;"/>
   </g>
   <g id="b5f9438bb4e647e68f8a8c9e0992933b-15-node">
    <path clip-path="url(#pf345f888b2)" d="M 202.752002 291.138333 
L 202.752002 298.720545 
L 197.922719 298.720545 
L 197.922719 291.138333 
L 202.752002 291.138333 
z
" style="fill:#0000ff;stroke:#ffffff;stroke-linejoin:miter;stroke-width:0.5;"/>
   </g>
   <g id="b5f9438bb4e647e68f8a8c9e0992933b-17-node">
    <path clip-path="url(#pf345f888b2)" d="M 186.133587 298.720545 
C 186.773957 298.720545 187.388186 298.32109 187.840996 297.610156 
C 188.293806 296.899221 188.548228 295.934852 188.548228 294.929439 
C 188.548228 293.924026 188.293806 292.959656 187.840996 292.248722 
C 187.388186 291.537788 186.773957 291.138333 186.133587 291.138333 
C 185.493216 291.138333 184.878988 291.537788 184.426177 292.248722 
C 183.973367 292.959656 183.718945 293.924026 183.718945 294.929439 
C 183.718945 295.934852 183.973367 296.899221 184.426177 297.610156 
C 184.878988 298.32109 185.493216 298.720545 186.133587 298.720545 
z
" style="fill:#ffff00;stroke:#ffffff;stroke-linejoin:miter;stroke-width:0.5;"/>
   </g>
   <g id="b5f9438bb4e647e68f8a8c9e0992933b-7-node">
    <path clip-path="url(#pf345f888b2)" d="M 214.541135 265.269609 
C 215.181505 265.269609 215.795734 264.870155 216.248544 264.15922 
C 216.701355 263.448286 216.955777 262.483917 216.955777 261.478503 
C 216.955777 260.47309 216.701355 259.508721 216.248544 258.797787 
C 215.795734 258.086852 215.181505 257.687397 214.541135 257.687397 
C 213.900765 257.687397 213.286536 258.086852 212.833725 258.797787 
C 212.380915 259.508721 212.126493 260.47309 212.126493 261.478503 
C 212.126493 262.483917 212.380915 263.448286 212.833725 264.15922 
C 213.286536 264.870155 213.900765 265.269609 214.541135 265.269609 
z
" style="fill:#00c832;stroke:#ffffff;stroke-linejoin:miter;stroke-width:0.5;"/>
   </g>
   <g id="b5f9438bb4e647e68f8a8c9e0992933b-11-node">
    <path clip-path="url(#pf345f888b2)" d="M 202.752002 268.837709 
L 202.752002 276.419921 
L 197.922719 276.419921 
L 197.922719 268.837709 
L 202.752002 268.837709 
z
" style="fill:#0000ff;stroke:#ffffff;stroke-linejoin:miter;stroke-width:0.5;"/>
   </g>
   <g id="b5f9438bb4e647e68f8a8c9e0992933b-13-node">
    <path clip-path="url(#pf345f888b2)" d="M 186.133587 276.419921 
C 186.773957 276.419921 187.388186 276.020466 187.840996 275.309532 
C 188.293806 274.598598 188.548228 273.634228 188.548228 272.628815 
C 188.548228 271.623402 188.293806 270.659033 187.840996 269.948098 
C 187.388186 269.237164 186.773957 268.837709 186.133587 268.837709 
C 185.493216 268.837709 184.878988 269.237164 184.426177 269.948098 
C 183.973367 270.659033 183.718945 271.623402 183.718945 272.628815 
C 183.718945 273.634228 183.973367 274.598598 184.426177 275.309532 
C 184.878988 276.020466 185.493216 276.419921 186.133587 276.419921 
z
" style="fill:#ffff00;stroke:#ffffff;stroke-linejoin:miter;stroke-width:0.5;"/>
   </g>
   <g id="b5f9438bb4e647e68f8a8c9e0992933b-8-node">
    <path clip-path="url(#pf345f888b2)" d="M 202.752002 246.537086 
L 202.752002 254.119298 
L 197.922719 254.119298 
L 197.922719 246.537086 
L 202.752002 246.537086 
z
" style="fill:#0000ff;stroke:#ffffff;stroke-linejoin:miter;stroke-width:0.5;"/>
   </g>
   <g id="b5f9438bb4e647e68f8a8c9e0992933b-10-node">
    <path clip-path="url(#pf345f888b2)" d="M 186.133587 254.119298 
C 186.773957 254.119298 187.388186 253.719843 187.840996 253.008908 
C 188.293806 252.297974 188.548228 251.333605 188.548228 250.328192 
C 188.548228 249.322779 188.293806 248.358409 187.840996 247.647475 
C 187.388186 246.936541 186.773957 246.537086 186.133587 246.537086 
C 185.493216 246.537086 184.878988 246.936541 184.426177 247.647475 
C 183.973367 248.358409 183.718945 249.322779 183.718945 250.328192 
C 183.718945 251.333605 183.973367 252.297974 184.426177 253.008908 
C 184.878988 253.719843 185.493216 254.119298 186.133587 254.119298 
z
" style="fill:#ffff00;stroke:#ffffff;stroke-linejoin:miter;stroke-width:0.5;"/>
   </g>
   <g id="b5f9438bb4e647e68f8a8c9e0992933b-3-node">
    <path clip-path="url(#pf345f888b2)" d="M 257.152457 263.262553 
L 255.061316 268.949212 
L 259.243598 268.949212 
z
" style="fill:#ff0000;stroke:#ffffff;stroke-linejoin:miter;stroke-width:0.5;"/>
   </g>
   <g id="patch_85">
    <path d="M 135 315 
L 135 191.454545 
" style="fill:none;stroke:#ffffff;stroke-linecap:square;stroke-linejoin:miter;stroke-width:1.25;"/>
   </g>
   <g id="patch_86">
    <path d="M 279.310345 315 
L 279.310345 191.454545 
" style="fill:none;stroke:#ffffff;stroke-linecap:square;stroke-linejoin:miter;stroke-width:1.25;"/>
   </g>
   <g id="patch_87">
    <path d="M 135 315 
L 279.310345 315 
" style="fill:none;stroke:#ffffff;stroke-linecap:square;stroke-linejoin:miter;stroke-width:1.25;"/>
   </g>
   <g id="patch_88">
    <path d="M 135 191.454545 
L 279.310345 191.454545 
" style="fill:none;stroke:#ffffff;stroke-linecap:square;stroke-linejoin:miter;stroke-width:1.25;"/>
   </g>
   <g id="text_6">
    <!-- 239:4.0 -->
    <g style="fill:#262626;" transform="translate(187.13861 185.454545)scale(0.12 -0.12)">
     <use xlink:href="#ArialMT-50"/>
     <use x="55.615234" xlink:href="#ArialMT-51"/>
     <use x="111.230469" xlink:href="#ArialMT-57"/>
     <use x="166.845703" xlink:href="#ArialMT-58"/>
     <use x="194.628906" xlink:href="#ArialMT-52"/>
     <use x="250.244141" xlink:href="#ArialMT-46"/>
     <use x="278.027344" xlink:href="#ArialMT-48"/>
    </g>
   </g>
  </g>
  <g id="axes_7">
   <g id="patch_89">
    <path d="M 308.172414 315 
L 452.482759 315 
L 452.482759 191.454545 
L 308.172414 191.454545 
z
" style="fill:#eaeaf2;"/>
   </g>
   <g id="matplotlib.axis_1">
    <g id="xtick_1">
     <g id="line2d_1">
      <path clip-path="url(#p29dbf894c5)" d="M 308.172414 315 
L 308.172414 191.454545 
" style="fill:none;stroke:#ffffff;stroke-linecap:round;"/>
     </g>
     <g id="text_7">
      <!-- 0.00 -->
      <g style="fill:#262626;" transform="translate(297.468898 332.373594)scale(0.11 -0.11)">
       <use xlink:href="#ArialMT-48"/>
       <use x="55.615234" xlink:href="#ArialMT-46"/>
       <use x="83.398438" xlink:href="#ArialMT-48"/>
       <use x="139.013672" xlink:href="#ArialMT-48"/>
      </g>
     </g>
    </g>
    <g id="xtick_2">
     <g id="line2d_2">
      <path clip-path="url(#p29dbf894c5)" d="M 344.25 315 
L 344.25 191.454545 
" style="fill:none;stroke:#ffffff;stroke-linecap:round;"/>
     </g>
     <g id="text_8">
      <!-- 0.25 -->
      <defs>
       <path d="M 4.15625 18.75 
L 13.375 19.53125 
Q 14.40625 12.796875 18.140625 9.390625 
Q 21.875 6 27.15625 6 
Q 33.5 6 37.890625 10.78125 
Q 42.28125 15.578125 42.28125 23.484375 
Q 42.28125 31 38.0625 35.34375 
Q 33.84375 39.703125 27 39.703125 
Q 22.75 39.703125 19.328125 37.765625 
Q 15.921875 35.84375 13.96875 32.765625 
L 5.71875 33.84375 
L 12.640625 70.609375 
L 48.25 70.609375 
L 48.25 62.203125 
L 19.671875 62.203125 
L 15.828125 42.96875 
Q 22.265625 47.46875 29.34375 47.46875 
Q 38.71875 47.46875 45.15625 40.96875 
Q 51.609375 34.46875 51.609375 24.265625 
Q 51.609375 14.546875 45.953125 7.46875 
Q 39.0625 -1.21875 27.15625 -1.21875 
Q 17.390625 -1.21875 11.203125 4.25 
Q 5.03125 9.71875 4.15625 18.75 
z
" id="ArialMT-53"/>
      </defs>
      <g style="fill:#262626;" transform="translate(333.546484 332.373594)scale(0.11 -0.11)">
       <use xlink:href="#ArialMT-48"/>
       <use x="55.615234" xlink:href="#ArialMT-46"/>
       <use x="83.398438" xlink:href="#ArialMT-50"/>
       <use x="139.013672" xlink:href="#ArialMT-53"/>
      </g>
     </g>
    </g>
    <g id="xtick_3">
     <g id="line2d_3">
      <path clip-path="url(#p29dbf894c5)" d="M 380.327586 315 
L 380.327586 191.454545 
" style="fill:none;stroke:#ffffff;stroke-linecap:round;"/>
     </g>
     <g id="text_9">
      <!-- 0.50 -->
      <g style="fill:#262626;" transform="translate(369.624071 332.373594)scale(0.11 -0.11)">
       <use xlink:href="#ArialMT-48"/>
       <use x="55.615234" xlink:href="#ArialMT-46"/>
       <use x="83.398438" xlink:href="#ArialMT-53"/>
       <use x="139.013672" xlink:href="#ArialMT-48"/>
      </g>
     </g>
    </g>
    <g id="xtick_4">
     <g id="line2d_4">
      <path clip-path="url(#p29dbf894c5)" d="M 416.405172 315 
L 416.405172 191.454545 
" style="fill:none;stroke:#ffffff;stroke-linecap:round;"/>
     </g>
     <g id="text_10">
      <!-- 0.75 -->
      <g style="fill:#262626;" transform="translate(405.701657 332.373594)scale(0.11 -0.11)">
       <use xlink:href="#ArialMT-48"/>
       <use x="55.615234" xlink:href="#ArialMT-46"/>
       <use x="83.398438" xlink:href="#ArialMT-55"/>
       <use x="139.013672" xlink:href="#ArialMT-53"/>
      </g>
     </g>
    </g>
    <g id="xtick_5">
     <g id="line2d_5">
      <path clip-path="url(#p29dbf894c5)" d="M 452.482759 315 
L 452.482759 191.454545 
" style="fill:none;stroke:#ffffff;stroke-linecap:round;"/>
     </g>
     <g id="text_11">
      <!-- 1.00 -->
      <g style="fill:#262626;" transform="translate(441.779243 332.373594)scale(0.11 -0.11)">
       <use xlink:href="#ArialMT-49"/>
       <use x="55.615234" xlink:href="#ArialMT-46"/>
       <use x="83.398438" xlink:href="#ArialMT-48"/>
       <use x="139.013672" xlink:href="#ArialMT-48"/>
      </g>
     </g>
    </g>
   </g>
   <g id="matplotlib.axis_2">
    <g id="ytick_1">
     <g id="line2d_6">
      <path clip-path="url(#p29dbf894c5)" d="M 308.172414 315 
L 452.482759 315 
" style="fill:none;stroke:#ffffff;stroke-linecap:round;"/>
     </g>
     <g id="text_12">
      <!-- 0.0 -->
      <g style="fill:#262626;" transform="translate(283.382414 318.936797)scale(0.11 -0.11)">
       <use xlink:href="#ArialMT-48"/>
       <use x="55.615234" xlink:href="#ArialMT-46"/>
       <use x="83.398438" xlink:href="#ArialMT-48"/>
      </g>
     </g>
    </g>
    <g id="ytick_2">
     <g id="line2d_7">
      <path clip-path="url(#p29dbf894c5)" d="M 308.172414 290.290909 
L 452.482759 290.290909 
" style="fill:none;stroke:#ffffff;stroke-linecap:round;"/>
     </g>
     <g id="text_13">
      <!-- 0.2 -->
      <g style="fill:#262626;" transform="translate(283.382414 294.227706)scale(0.11 -0.11)">
       <use xlink:href="#ArialMT-48"/>
       <use x="55.615234" xlink:href="#ArialMT-46"/>
       <use x="83.398438" xlink:href="#ArialMT-50"/>
      </g>
     </g>
    </g>
    <g id="ytick_3">
     <g id="line2d_8">
      <path clip-path="url(#p29dbf894c5)" d="M 308.172414 265.581818 
L 452.482759 265.581818 
" style="fill:none;stroke:#ffffff;stroke-linecap:round;"/>
     </g>
     <g id="text_14">
      <!-- 0.4 -->
      <g style="fill:#262626;" transform="translate(283.382414 269.518615)scale(0.11 -0.11)">
       <use xlink:href="#ArialMT-48"/>
       <use x="55.615234" xlink:href="#ArialMT-46"/>
       <use x="83.398438" xlink:href="#ArialMT-52"/>
      </g>
     </g>
    </g>
    <g id="ytick_4">
     <g id="line2d_9">
      <path clip-path="url(#p29dbf894c5)" d="M 308.172414 240.872727 
L 452.482759 240.872727 
" style="fill:none;stroke:#ffffff;stroke-linecap:round;"/>
     </g>
     <g id="text_15">
      <!-- 0.6 -->
      <defs>
       <path d="M 49.75 54.046875 
L 41.015625 53.375 
Q 39.84375 58.546875 37.703125 60.890625 
Q 34.125 64.65625 28.90625 64.65625 
Q 24.703125 64.65625 21.53125 62.3125 
Q 17.390625 59.28125 14.984375 53.46875 
Q 12.59375 47.65625 12.5 36.921875 
Q 15.671875 41.75 20.265625 44.09375 
Q 24.859375 46.4375 29.890625 46.4375 
Q 38.671875 46.4375 44.84375 39.96875 
Q 51.03125 33.5 51.03125 23.25 
Q 51.03125 16.5 48.125 10.71875 
Q 45.21875 4.9375 40.140625 1.859375 
Q 35.0625 -1.21875 28.609375 -1.21875 
Q 17.625 -1.21875 10.6875 6.859375 
Q 3.765625 14.9375 3.765625 33.5 
Q 3.765625 54.25 11.421875 63.671875 
Q 18.109375 71.875 29.4375 71.875 
Q 37.890625 71.875 43.28125 67.140625 
Q 48.6875 62.40625 49.75 54.046875 
z
M 13.875 23.1875 
Q 13.875 18.65625 15.796875 14.5 
Q 17.71875 10.359375 21.1875 8.171875 
Q 24.65625 6 28.46875 6 
Q 34.03125 6 38.03125 10.484375 
Q 42.046875 14.984375 42.046875 22.703125 
Q 42.046875 30.125 38.078125 34.390625 
Q 34.125 38.671875 28.125 38.671875 
Q 22.171875 38.671875 18.015625 34.390625 
Q 13.875 30.125 13.875 23.1875 
z
" id="ArialMT-54"/>
      </defs>
      <g style="fill:#262626;" transform="translate(283.382414 244.809524)scale(0.11 -0.11)">
       <use xlink:href="#ArialMT-48"/>
       <use x="55.615234" xlink:href="#ArialMT-46"/>
       <use x="83.398438" xlink:href="#ArialMT-54"/>
      </g>
     </g>
    </g>
    <g id="ytick_5">
     <g id="line2d_10">
      <path clip-path="url(#p29dbf894c5)" d="M 308.172414 216.163636 
L 452.482759 216.163636 
" style="fill:none;stroke:#ffffff;stroke-linecap:round;"/>
     </g>
     <g id="text_16">
      <!-- 0.8 -->
      <g style="fill:#262626;" transform="translate(283.382414 220.100433)scale(0.11 -0.11)">
       <use xlink:href="#ArialMT-48"/>
       <use x="55.615234" xlink:href="#ArialMT-46"/>
       <use x="83.398438" xlink:href="#ArialMT-56"/>
      </g>
     </g>
    </g>
    <g id="ytick_6">
     <g id="line2d_11">
      <path clip-path="url(#p29dbf894c5)" d="M 308.172414 191.454545 
L 452.482759 191.454545 
" style="fill:none;stroke:#ffffff;stroke-linecap:round;"/>
     </g>
     <g id="text_17">
      <!-- 1.0 -->
      <g style="fill:#262626;" transform="translate(283.382414 195.391342)scale(0.11 -0.11)">
       <use xlink:href="#ArialMT-49"/>
       <use x="55.615234" xlink:href="#ArialMT-46"/>
       <use x="83.398438" xlink:href="#ArialMT-48"/>
      </g>
     </g>
    </g>
   </g>
   <g id="patch_90">
    <path d="M 308.172414 315 
L 308.172414 191.454545 
" style="fill:none;stroke:#ffffff;stroke-linecap:square;stroke-linejoin:miter;stroke-width:1.25;"/>
   </g>
   <g id="patch_91">
    <path d="M 452.482759 315 
L 452.482759 191.454545 
" style="fill:none;stroke:#ffffff;stroke-linecap:square;stroke-linejoin:miter;stroke-width:1.25;"/>
   </g>
   <g id="patch_92">
    <path d="M 308.172414 315 
L 452.482759 315 
" style="fill:none;stroke:#ffffff;stroke-linecap:square;stroke-linejoin:miter;stroke-width:1.25;"/>
   </g>
   <g id="patch_93">
    <path d="M 308.172414 191.454545 
L 452.482759 191.454545 
" style="fill:none;stroke:#ffffff;stroke-linecap:square;stroke-linejoin:miter;stroke-width:1.25;"/>
   </g>
  </g>
  <g id="axes_8">
   <g id="patch_94">
    <path d="M 481.344828 315 
L 625.655172 315 
L 625.655172 191.454545 
L 481.344828 191.454545 
z
" style="fill:#eaeaf2;"/>
   </g>
   <g id="matplotlib.axis_3">
    <g id="xtick_6">
     <g id="line2d_12">
      <path clip-path="url(#p017719678d)" d="M 481.344828 315 
L 481.344828 191.454545 
" style="fill:none;stroke:#ffffff;stroke-linecap:round;"/>
     </g>
     <g id="text_18">
      <!-- 0.00 -->
      <g style="fill:#262626;" transform="translate(470.641312 332.373594)scale(0.11 -0.11)">
       <use xlink:href="#ArialMT-48"/>
       <use x="55.615234" xlink:href="#ArialMT-46"/>
       <use x="83.398438" xlink:href="#ArialMT-48"/>
       <use x="139.013672" xlink:href="#ArialMT-48"/>
      </g>
     </g>
    </g>
    <g id="xtick_7">
     <g id="line2d_13">
      <path clip-path="url(#p017719678d)" d="M 517.422414 315 
L 517.422414 191.454545 
" style="fill:none;stroke:#ffffff;stroke-linecap:round;"/>
     </g>
     <g id="text_19">
      <!-- 0.25 -->
      <g style="fill:#262626;" transform="translate(506.718898 332.373594)scale(0.11 -0.11)">
       <use xlink:href="#ArialMT-48"/>
       <use x="55.615234" xlink:href="#ArialMT-46"/>
       <use x="83.398438" xlink:href="#ArialMT-50"/>
       <use x="139.013672" xlink:href="#ArialMT-53"/>
      </g>
     </g>
    </g>
    <g id="xtick_8">
     <g id="line2d_14">
      <path clip-path="url(#p017719678d)" d="M 553.5 315 
L 553.5 191.454545 
" style="fill:none;stroke:#ffffff;stroke-linecap:round;"/>
     </g>
     <g id="text_20">
      <!-- 0.50 -->
      <g style="fill:#262626;" transform="translate(542.796484 332.373594)scale(0.11 -0.11)">
       <use xlink:href="#ArialMT-48"/>
       <use x="55.615234" xlink:href="#ArialMT-46"/>
       <use x="83.398438" xlink:href="#ArialMT-53"/>
       <use x="139.013672" xlink:href="#ArialMT-48"/>
      </g>
     </g>
    </g>
    <g id="xtick_9">
     <g id="line2d_15">
      <path clip-path="url(#p017719678d)" d="M 589.577586 315 
L 589.577586 191.454545 
" style="fill:none;stroke:#ffffff;stroke-linecap:round;"/>
     </g>
     <g id="text_21">
      <!-- 0.75 -->
      <g style="fill:#262626;" transform="translate(578.874071 332.373594)scale(0.11 -0.11)">
       <use xlink:href="#ArialMT-48"/>
       <use x="55.615234" xlink:href="#ArialMT-46"/>
       <use x="83.398438" xlink:href="#ArialMT-55"/>
       <use x="139.013672" xlink:href="#ArialMT-53"/>
      </g>
     </g>
    </g>
    <g id="xtick_10">
     <g id="line2d_16">
      <path clip-path="url(#p017719678d)" d="M 625.655172 315 
L 625.655172 191.454545 
" style="fill:none;stroke:#ffffff;stroke-linecap:round;"/>
     </g>
     <g id="text_22">
      <!-- 1.00 -->
      <g style="fill:#262626;" transform="translate(614.951657 332.373594)scale(0.11 -0.11)">
       <use xlink:href="#ArialMT-49"/>
       <use x="55.615234" xlink:href="#ArialMT-46"/>
       <use x="83.398438" xlink:href="#ArialMT-48"/>
       <use x="139.013672" xlink:href="#ArialMT-48"/>
      </g>
     </g>
    </g>
   </g>
   <g id="matplotlib.axis_4">
    <g id="ytick_7">
     <g id="line2d_17">
      <path clip-path="url(#p017719678d)" d="M 481.344828 315 
L 625.655172 315 
" style="fill:none;stroke:#ffffff;stroke-linecap:round;"/>
     </g>
     <g id="text_23">
      <!-- 0.0 -->
      <g style="fill:#262626;" transform="translate(456.554828 318.936797)scale(0.11 -0.11)">
       <use xlink:href="#ArialMT-48"/>
       <use x="55.615234" xlink:href="#ArialMT-46"/>
       <use x="83.398438" xlink:href="#ArialMT-48"/>
      </g>
     </g>
    </g>
    <g id="ytick_8">
     <g id="line2d_18">
      <path clip-path="url(#p017719678d)" d="M 481.344828 290.290909 
L 625.655172 290.290909 
" style="fill:none;stroke:#ffffff;stroke-linecap:round;"/>
     </g>
     <g id="text_24">
      <!-- 0.2 -->
      <g style="fill:#262626;" transform="translate(456.554828 294.227706)scale(0.11 -0.11)">
       <use xlink:href="#ArialMT-48"/>
       <use x="55.615234" xlink:href="#ArialMT-46"/>
       <use x="83.398438" xlink:href="#ArialMT-50"/>
      </g>
     </g>
    </g>
    <g id="ytick_9">
     <g id="line2d_19">
      <path clip-path="url(#p017719678d)" d="M 481.344828 265.581818 
L 625.655172 265.581818 
" style="fill:none;stroke:#ffffff;stroke-linecap:round;"/>
     </g>
     <g id="text_25">
      <!-- 0.4 -->
      <g style="fill:#262626;" transform="translate(456.554828 269.518615)scale(0.11 -0.11)">
       <use xlink:href="#ArialMT-48"/>
       <use x="55.615234" xlink:href="#ArialMT-46"/>
       <use x="83.398438" xlink:href="#ArialMT-52"/>
      </g>
     </g>
    </g>
    <g id="ytick_10">
     <g id="line2d_20">
      <path clip-path="url(#p017719678d)" d="M 481.344828 240.872727 
L 625.655172 240.872727 
" style="fill:none;stroke:#ffffff;stroke-linecap:round;"/>
     </g>
     <g id="text_26">
      <!-- 0.6 -->
      <g style="fill:#262626;" transform="translate(456.554828 244.809524)scale(0.11 -0.11)">
       <use xlink:href="#ArialMT-48"/>
       <use x="55.615234" xlink:href="#ArialMT-46"/>
       <use x="83.398438" xlink:href="#ArialMT-54"/>
      </g>
     </g>
    </g>
    <g id="ytick_11">
     <g id="line2d_21">
      <path clip-path="url(#p017719678d)" d="M 481.344828 216.163636 
L 625.655172 216.163636 
" style="fill:none;stroke:#ffffff;stroke-linecap:round;"/>
     </g>
     <g id="text_27">
      <!-- 0.8 -->
      <g style="fill:#262626;" transform="translate(456.554828 220.100433)scale(0.11 -0.11)">
       <use xlink:href="#ArialMT-48"/>
       <use x="55.615234" xlink:href="#ArialMT-46"/>
       <use x="83.398438" xlink:href="#ArialMT-56"/>
      </g>
     </g>
    </g>
    <g id="ytick_12">
     <g id="line2d_22">
      <path clip-path="url(#p017719678d)" d="M 481.344828 191.454545 
L 625.655172 191.454545 
" style="fill:none;stroke:#ffffff;stroke-linecap:round;"/>
     </g>
     <g id="text_28">
      <!-- 1.0 -->
      <g style="fill:#262626;" transform="translate(456.554828 195.391342)scale(0.11 -0.11)">
       <use xlink:href="#ArialMT-49"/>
       <use x="55.615234" xlink:href="#ArialMT-46"/>
       <use x="83.398438" xlink:href="#ArialMT-48"/>
      </g>
     </g>
    </g>
   </g>
   <g id="patch_95">
    <path d="M 481.344828 315 
L 481.344828 191.454545 
" style="fill:none;stroke:#ffffff;stroke-linecap:square;stroke-linejoin:miter;stroke-width:1.25;"/>
   </g>
   <g id="patch_96">
    <path d="M 625.655172 315 
L 625.655172 191.454545 
" style="fill:none;stroke:#ffffff;stroke-linecap:square;stroke-linejoin:miter;stroke-width:1.25;"/>
   </g>
   <g id="patch_97">
    <path d="M 481.344828 315 
L 625.655172 315 
" style="fill:none;stroke:#ffffff;stroke-linecap:square;stroke-linejoin:miter;stroke-width:1.25;"/>
   </g>
   <g id="patch_98">
    <path d="M 481.344828 191.454545 
L 625.655172 191.454545 
" style="fill:none;stroke:#ffffff;stroke-linecap:square;stroke-linejoin:miter;stroke-width:1.25;"/>
   </g>
  </g>
  <g id="axes_9">
   <g id="patch_99">
    <path d="M 654.517241 315 
L 798.827586 315 
L 798.827586 191.454545 
L 654.517241 191.454545 
z
" style="fill:#eaeaf2;"/>
   </g>
   <g id="matplotlib.axis_5">
    <g id="xtick_11">
     <g id="line2d_23">
      <path clip-path="url(#p4510f52eb3)" d="M 654.517241 315 
L 654.517241 191.454545 
" style="fill:none;stroke:#ffffff;stroke-linecap:round;"/>
     </g>
     <g id="text_29">
      <!-- 0.00 -->
      <g style="fill:#262626;" transform="translate(643.813726 332.373594)scale(0.11 -0.11)">
       <use xlink:href="#ArialMT-48"/>
       <use x="55.615234" xlink:href="#ArialMT-46"/>
       <use x="83.398438" xlink:href="#ArialMT-48"/>
       <use x="139.013672" xlink:href="#ArialMT-48"/>
      </g>
     </g>
    </g>
    <g id="xtick_12">
     <g id="line2d_24">
      <path clip-path="url(#p4510f52eb3)" d="M 690.594828 315 
L 690.594828 191.454545 
" style="fill:none;stroke:#ffffff;stroke-linecap:round;"/>
     </g>
     <g id="text_30">
      <!-- 0.25 -->
      <g style="fill:#262626;" transform="translate(679.891312 332.373594)scale(0.11 -0.11)">
       <use xlink:href="#ArialMT-48"/>
       <use x="55.615234" xlink:href="#ArialMT-46"/>
       <use x="83.398438" xlink:href="#ArialMT-50"/>
       <use x="139.013672" xlink:href="#ArialMT-53"/>
      </g>
     </g>
    </g>
    <g id="xtick_13">
     <g id="line2d_25">
      <path clip-path="url(#p4510f52eb3)" d="M 726.672414 315 
L 726.672414 191.454545 
" style="fill:none;stroke:#ffffff;stroke-linecap:round;"/>
     </g>
     <g id="text_31">
      <!-- 0.50 -->
      <g style="fill:#262626;" transform="translate(715.968898 332.373594)scale(0.11 -0.11)">
       <use xlink:href="#ArialMT-48"/>
       <use x="55.615234" xlink:href="#ArialMT-46"/>
       <use x="83.398438" xlink:href="#ArialMT-53"/>
       <use x="139.013672" xlink:href="#ArialMT-48"/>
      </g>
     </g>
    </g>
    <g id="xtick_14">
     <g id="line2d_26">
      <path clip-path="url(#p4510f52eb3)" d="M 762.75 315 
L 762.75 191.454545 
" style="fill:none;stroke:#ffffff;stroke-linecap:round;"/>
     </g>
     <g id="text_32">
      <!-- 0.75 -->
      <g style="fill:#262626;" transform="translate(752.046484 332.373594)scale(0.11 -0.11)">
       <use xlink:href="#ArialMT-48"/>
       <use x="55.615234" xlink:href="#ArialMT-46"/>
       <use x="83.398438" xlink:href="#ArialMT-55"/>
       <use x="139.013672" xlink:href="#ArialMT-53"/>
      </g>
     </g>
    </g>
    <g id="xtick_15">
     <g id="line2d_27">
      <path clip-path="url(#p4510f52eb3)" d="M 798.827586 315 
L 798.827586 191.454545 
" style="fill:none;stroke:#ffffff;stroke-linecap:round;"/>
     </g>
     <g id="text_33">
      <!-- 1.00 -->
      <g style="fill:#262626;" transform="translate(788.124071 332.373594)scale(0.11 -0.11)">
       <use xlink:href="#ArialMT-49"/>
       <use x="55.615234" xlink:href="#ArialMT-46"/>
       <use x="83.398438" xlink:href="#ArialMT-48"/>
       <use x="139.013672" xlink:href="#ArialMT-48"/>
      </g>
     </g>
    </g>
   </g>
   <g id="matplotlib.axis_6">
    <g id="ytick_13">
     <g id="line2d_28">
      <path clip-path="url(#p4510f52eb3)" d="M 654.517241 315 
L 798.827586 315 
" style="fill:none;stroke:#ffffff;stroke-linecap:round;"/>
     </g>
     <g id="text_34">
      <!-- 0.0 -->
      <g style="fill:#262626;" transform="translate(629.727241 318.936797)scale(0.11 -0.11)">
       <use xlink:href="#ArialMT-48"/>
       <use x="55.615234" xlink:href="#ArialMT-46"/>
       <use x="83.398438" xlink:href="#ArialMT-48"/>
      </g>
     </g>
    </g>
    <g id="ytick_14">
     <g id="line2d_29">
      <path clip-path="url(#p4510f52eb3)" d="M 654.517241 290.290909 
L 798.827586 290.290909 
" style="fill:none;stroke:#ffffff;stroke-linecap:round;"/>
     </g>
     <g id="text_35">
      <!-- 0.2 -->
      <g style="fill:#262626;" transform="translate(629.727241 294.227706)scale(0.11 -0.11)">
       <use xlink:href="#ArialMT-48"/>
       <use x="55.615234" xlink:href="#ArialMT-46"/>
       <use x="83.398438" xlink:href="#ArialMT-50"/>
      </g>
     </g>
    </g>
    <g id="ytick_15">
     <g id="line2d_30">
      <path clip-path="url(#p4510f52eb3)" d="M 654.517241 265.581818 
L 798.827586 265.581818 
" style="fill:none;stroke:#ffffff;stroke-linecap:round;"/>
     </g>
     <g id="text_36">
      <!-- 0.4 -->
      <g style="fill:#262626;" transform="translate(629.727241 269.518615)scale(0.11 -0.11)">
       <use xlink:href="#ArialMT-48"/>
       <use x="55.615234" xlink:href="#ArialMT-46"/>
       <use x="83.398438" xlink:href="#ArialMT-52"/>
      </g>
     </g>
    </g>
    <g id="ytick_16">
     <g id="line2d_31">
      <path clip-path="url(#p4510f52eb3)" d="M 654.517241 240.872727 
L 798.827586 240.872727 
" style="fill:none;stroke:#ffffff;stroke-linecap:round;"/>
     </g>
     <g id="text_37">
      <!-- 0.6 -->
      <g style="fill:#262626;" transform="translate(629.727241 244.809524)scale(0.11 -0.11)">
       <use xlink:href="#ArialMT-48"/>
       <use x="55.615234" xlink:href="#ArialMT-46"/>
       <use x="83.398438" xlink:href="#ArialMT-54"/>
      </g>
     </g>
    </g>
    <g id="ytick_17">
     <g id="line2d_32">
      <path clip-path="url(#p4510f52eb3)" d="M 654.517241 216.163636 
L 798.827586 216.163636 
" style="fill:none;stroke:#ffffff;stroke-linecap:round;"/>
     </g>
     <g id="text_38">
      <!-- 0.8 -->
      <g style="fill:#262626;" transform="translate(629.727241 220.100433)scale(0.11 -0.11)">
       <use xlink:href="#ArialMT-48"/>
       <use x="55.615234" xlink:href="#ArialMT-46"/>
       <use x="83.398438" xlink:href="#ArialMT-56"/>
      </g>
     </g>
    </g>
    <g id="ytick_18">
     <g id="line2d_33">
      <path clip-path="url(#p4510f52eb3)" d="M 654.517241 191.454545 
L 798.827586 191.454545 
" style="fill:none;stroke:#ffffff;stroke-linecap:round;"/>
     </g>
     <g id="text_39">
      <!-- 1.0 -->
      <g style="fill:#262626;" transform="translate(629.727241 195.391342)scale(0.11 -0.11)">
       <use xlink:href="#ArialMT-49"/>
       <use x="55.615234" xlink:href="#ArialMT-46"/>
       <use x="83.398438" xlink:href="#ArialMT-48"/>
      </g>
     </g>
    </g>
   </g>
   <g id="patch_100">
    <path d="M 654.517241 315 
L 654.517241 191.454545 
" style="fill:none;stroke:#ffffff;stroke-linecap:square;stroke-linejoin:miter;stroke-width:1.25;"/>
   </g>
   <g id="patch_101">
    <path d="M 798.827586 315 
L 798.827586 191.454545 
" style="fill:none;stroke:#ffffff;stroke-linecap:square;stroke-linejoin:miter;stroke-width:1.25;"/>
   </g>
   <g id="patch_102">
    <path d="M 654.517241 315 
L 798.827586 315 
" style="fill:none;stroke:#ffffff;stroke-linecap:square;stroke-linejoin:miter;stroke-width:1.25;"/>
   </g>
   <g id="patch_103">
    <path d="M 654.517241 191.454545 
L 798.827586 191.454545 
" style="fill:none;stroke:#ffffff;stroke-linecap:square;stroke-linejoin:miter;stroke-width:1.25;"/>
   </g>
  </g>
  <g id="axes_10">
   <g id="patch_104">
    <path d="M 827.689655 315 
L 972 315 
L 972 191.454545 
L 827.689655 191.454545 
z
" style="fill:#eaeaf2;"/>
   </g>
   <g id="matplotlib.axis_7">
    <g id="xtick_16">
     <g id="line2d_34">
      <path clip-path="url(#p6bbd0ac57f)" d="M 827.689655 315 
L 827.689655 191.454545 
" style="fill:none;stroke:#ffffff;stroke-linecap:round;"/>
     </g>
     <g id="text_40">
      <!-- 0.00 -->
      <g style="fill:#262626;" transform="translate(816.98614 332.373594)scale(0.11 -0.11)">
       <use xlink:href="#ArialMT-48"/>
       <use x="55.615234" xlink:href="#ArialMT-46"/>
       <use x="83.398438" xlink:href="#ArialMT-48"/>
       <use x="139.013672" xlink:href="#ArialMT-48"/>
      </g>
     </g>
    </g>
    <g id="xtick_17">
     <g id="line2d_35">
      <path clip-path="url(#p6bbd0ac57f)" d="M 863.767241 315 
L 863.767241 191.454545 
" style="fill:none;stroke:#ffffff;stroke-linecap:round;"/>
     </g>
     <g id="text_41">
      <!-- 0.25 -->
      <g style="fill:#262626;" transform="translate(853.063726 332.373594)scale(0.11 -0.11)">
       <use xlink:href="#ArialMT-48"/>
       <use x="55.615234" xlink:href="#ArialMT-46"/>
       <use x="83.398438" xlink:href="#ArialMT-50"/>
       <use x="139.013672" xlink:href="#ArialMT-53"/>
      </g>
     </g>
    </g>
    <g id="xtick_18">
     <g id="line2d_36">
      <path clip-path="url(#p6bbd0ac57f)" d="M 899.844828 315 
L 899.844828 191.454545 
" style="fill:none;stroke:#ffffff;stroke-linecap:round;"/>
     </g>
     <g id="text_42">
      <!-- 0.50 -->
      <g style="fill:#262626;" transform="translate(889.141312 332.373594)scale(0.11 -0.11)">
       <use xlink:href="#ArialMT-48"/>
       <use x="55.615234" xlink:href="#ArialMT-46"/>
       <use x="83.398438" xlink:href="#ArialMT-53"/>
       <use x="139.013672" xlink:href="#ArialMT-48"/>
      </g>
     </g>
    </g>
    <g id="xtick_19">
     <g id="line2d_37">
      <path clip-path="url(#p6bbd0ac57f)" d="M 935.922414 315 
L 935.922414 191.454545 
" style="fill:none;stroke:#ffffff;stroke-linecap:round;"/>
     </g>
     <g id="text_43">
      <!-- 0.75 -->
      <g style="fill:#262626;" transform="translate(925.218898 332.373594)scale(0.11 -0.11)">
       <use xlink:href="#ArialMT-48"/>
       <use x="55.615234" xlink:href="#ArialMT-46"/>
       <use x="83.398438" xlink:href="#ArialMT-55"/>
       <use x="139.013672" xlink:href="#ArialMT-53"/>
      </g>
     </g>
    </g>
    <g id="xtick_20">
     <g id="line2d_38">
      <path clip-path="url(#p6bbd0ac57f)" d="M 972 315 
L 972 191.454545 
" style="fill:none;stroke:#ffffff;stroke-linecap:round;"/>
     </g>
     <g id="text_44">
      <!-- 1.00 -->
      <g style="fill:#262626;" transform="translate(961.296484 332.373594)scale(0.11 -0.11)">
       <use xlink:href="#ArialMT-49"/>
       <use x="55.615234" xlink:href="#ArialMT-46"/>
       <use x="83.398438" xlink:href="#ArialMT-48"/>
       <use x="139.013672" xlink:href="#ArialMT-48"/>
      </g>
     </g>
    </g>
   </g>
   <g id="matplotlib.axis_8">
    <g id="ytick_19">
     <g id="line2d_39">
      <path clip-path="url(#p6bbd0ac57f)" d="M 827.689655 315 
L 972 315 
" style="fill:none;stroke:#ffffff;stroke-linecap:round;"/>
     </g>
     <g id="text_45">
      <!-- 0.0 -->
      <g style="fill:#262626;" transform="translate(802.899655 318.936797)scale(0.11 -0.11)">
       <use xlink:href="#ArialMT-48"/>
       <use x="55.615234" xlink:href="#ArialMT-46"/>
       <use x="83.398438" xlink:href="#ArialMT-48"/>
      </g>
     </g>
    </g>
    <g id="ytick_20">
     <g id="line2d_40">
      <path clip-path="url(#p6bbd0ac57f)" d="M 827.689655 290.290909 
L 972 290.290909 
" style="fill:none;stroke:#ffffff;stroke-linecap:round;"/>
     </g>
     <g id="text_46">
      <!-- 0.2 -->
      <g style="fill:#262626;" transform="translate(802.899655 294.227706)scale(0.11 -0.11)">
       <use xlink:href="#ArialMT-48"/>
       <use x="55.615234" xlink:href="#ArialMT-46"/>
       <use x="83.398438" xlink:href="#ArialMT-50"/>
      </g>
     </g>
    </g>
    <g id="ytick_21">
     <g id="line2d_41">
      <path clip-path="url(#p6bbd0ac57f)" d="M 827.689655 265.581818 
L 972 265.581818 
" style="fill:none;stroke:#ffffff;stroke-linecap:round;"/>
     </g>
     <g id="text_47">
      <!-- 0.4 -->
      <g style="fill:#262626;" transform="translate(802.899655 269.518615)scale(0.11 -0.11)">
       <use xlink:href="#ArialMT-48"/>
       <use x="55.615234" xlink:href="#ArialMT-46"/>
       <use x="83.398438" xlink:href="#ArialMT-52"/>
      </g>
     </g>
    </g>
    <g id="ytick_22">
     <g id="line2d_42">
      <path clip-path="url(#p6bbd0ac57f)" d="M 827.689655 240.872727 
L 972 240.872727 
" style="fill:none;stroke:#ffffff;stroke-linecap:round;"/>
     </g>
     <g id="text_48">
      <!-- 0.6 -->
      <g style="fill:#262626;" transform="translate(802.899655 244.809524)scale(0.11 -0.11)">
       <use xlink:href="#ArialMT-48"/>
       <use x="55.615234" xlink:href="#ArialMT-46"/>
       <use x="83.398438" xlink:href="#ArialMT-54"/>
      </g>
     </g>
    </g>
    <g id="ytick_23">
     <g id="line2d_43">
      <path clip-path="url(#p6bbd0ac57f)" d="M 827.689655 216.163636 
L 972 216.163636 
" style="fill:none;stroke:#ffffff;stroke-linecap:round;"/>
     </g>
     <g id="text_49">
      <!-- 0.8 -->
      <g style="fill:#262626;" transform="translate(802.899655 220.100433)scale(0.11 -0.11)">
       <use xlink:href="#ArialMT-48"/>
       <use x="55.615234" xlink:href="#ArialMT-46"/>
       <use x="83.398438" xlink:href="#ArialMT-56"/>
      </g>
     </g>
    </g>
    <g id="ytick_24">
     <g id="line2d_44">
      <path clip-path="url(#p6bbd0ac57f)" d="M 827.689655 191.454545 
L 972 191.454545 
" style="fill:none;stroke:#ffffff;stroke-linecap:round;"/>
     </g>
     <g id="text_50">
      <!-- 1.0 -->
      <g style="fill:#262626;" transform="translate(802.899655 195.391342)scale(0.11 -0.11)">
       <use xlink:href="#ArialMT-49"/>
       <use x="55.615234" xlink:href="#ArialMT-46"/>
       <use x="83.398438" xlink:href="#ArialMT-48"/>
      </g>
     </g>
    </g>
   </g>
   <g id="patch_105">
    <path d="M 827.689655 315 
L 827.689655 191.454545 
" style="fill:none;stroke:#ffffff;stroke-linecap:square;stroke-linejoin:miter;stroke-width:1.25;"/>
   </g>
   <g id="patch_106">
    <path d="M 972 315 
L 972 191.454545 
" style="fill:none;stroke:#ffffff;stroke-linecap:square;stroke-linejoin:miter;stroke-width:1.25;"/>
   </g>
   <g id="patch_107">
    <path d="M 827.689655 315 
L 972 315 
" style="fill:none;stroke:#ffffff;stroke-linecap:square;stroke-linejoin:miter;stroke-width:1.25;"/>
   </g>
   <g id="patch_108">
    <path d="M 827.689655 191.454545 
L 972 191.454545 
" style="fill:none;stroke:#ffffff;stroke-linecap:square;stroke-linejoin:miter;stroke-width:1.25;"/>
   </g>
   <g id="text_51">
    <!-- 20 -->
    <g style="fill:#262626;" transform="translate(893.171703 185.454545)scale(0.12 -0.12)">
     <use xlink:href="#ArialMT-50"/>
     <use x="55.615234" xlink:href="#ArialMT-48"/>
    </g>
   </g>
  </g>
 </g>
 <defs>
  <clipPath id="p7fc7dc3c2a">
   <rect height="123.545455" width="144.310345" x="135" y="43.2"/>
  </clipPath>
  <clipPath id="pa85d223901">
   <rect height="123.545455" width="144.310345" x="308.172414" y="43.2"/>
  </clipPath>
  <clipPath id="p6ad4548f4d">
   <rect height="123.545455" width="144.310345" x="481.344828" y="43.2"/>
  </clipPath>
  <clipPath id="p291a2f3ea2">
   <rect height="123.545455" width="144.310345" x="654.517241" y="43.2"/>
  </clipPath>
  <clipPath id="p9b4e4bfd7d">
   <rect height="123.545455" width="144.310345" x="827.689655" y="43.2"/>
  </clipPath>
  <clipPath id="pf345f888b2">
   <rect height="123.545455" width="144.310345" x="135" y="191.454545"/>
  </clipPath>
  <clipPath id="p29dbf894c5">
   <rect height="123.545455" width="144.310345" x="308.172414" y="191.454545"/>
  </clipPath>
  <clipPath id="p017719678d">
   <rect height="123.545455" width="144.310345" x="481.344828" y="191.454545"/>
  </clipPath>
  <clipPath id="p4510f52eb3">
   <rect height="123.545455" width="144.310345" x="654.517241" y="191.454545"/>
  </clipPath>
  <clipPath id="p6bbd0ac57f">
   <rect height="123.545455" width="144.310345" x="827.689655" y="191.454545"/>
  </clipPath>
 </defs>
</svg>
