<?xml version="1.0" encoding="utf-8" standalone="no"?>
<!DOCTYPE svg PUBLIC "-//W3C//DTD SVG 1.1//EN"
  "http://www.w3.org/Graphics/SVG/1.1/DTD/svg11.dtd">
<!-- Created with matplotlib (https://matplotlib.org/) -->
<svg height="360pt" version="1.1" viewBox="0 0 1080 360" width="1080pt" xmlns="http://www.w3.org/2000/svg" xmlns:xlink="http://www.w3.org/1999/xlink">
 <defs>
  <style type="text/css">
*{stroke-linecap:butt;stroke-linejoin:round;}
  </style>
 </defs>
 <g id="figure_1">
  <g id="patch_1">
   <path d="M 0 360 
L 1080 360 
L 1080 0 
L 0 0 
z
" style="fill:#ffffff;"/>
  </g>
  <g id="axes_1">
   <g id="patch_2">
    <path d="M 135 166.745455 
L 279.310345 166.745455 
L 279.310345 43.2 
L 135 43.2 
z
" style="fill:#ffffff;"/>
   </g>
   <g id="patch_3">
    <path clip-path="url(#pba6e995238)" d="M 198.952561 140.396898 
L 185.049831 140.396898 
" style="stroke:#000000;stroke-linejoin:miter;stroke-width:0.5;"/>
   </g>
   <g id="patch_4">
    <path clip-path="url(#pba6e995238)" d="M 212.855292 140.396898 
L 198.952561 140.396898 
" style="stroke:#000000;stroke-linejoin:miter;stroke-width:0.5;"/>
   </g>
   <g id="patch_5">
    <path clip-path="url(#pba6e995238)" d="M 226.758023 125.758811 
L 212.855292 140.396898 
" style="stroke:#000000;stroke-linejoin:miter;stroke-width:0.5;"/>
   </g>
   <g id="patch_6">
    <path clip-path="url(#pba6e995238)" d="M 212.855292 111.120724 
L 198.952561 111.120724 
" style="stroke:#000000;stroke-linejoin:miter;stroke-width:0.5;"/>
   </g>
   <g id="patch_7">
    <path clip-path="url(#pba6e995238)" d="M 226.758023 125.758811 
L 212.855292 111.120724 
" style="stroke:#000000;stroke-linejoin:miter;stroke-width:0.5;"/>
   </g>
   <g id="patch_8">
    <path clip-path="url(#pba6e995238)" d="M 240.660753 125.758811 
L 226.758023 125.758811 
" style="stroke:#000000;stroke-linejoin:miter;stroke-width:0.5;"/>
   </g>
   <g id="patch_9">
    <path clip-path="url(#pba6e995238)" d="M 254.563484 125.758811 
L 240.660753 125.758811 
" style="stroke:#000000;stroke-linejoin:miter;stroke-width:0.5;"/>
   </g>
   <g id="cfdde27ff7854caab8c864aa323f72e3-1-node">
    <path clip-path="url(#pba6e995238)" d="M 256.926948 120.781861 
L 256.926948 130.73576 
L 252.20002 130.73576 
L 252.20002 120.781861 
L 256.926948 120.781861 
z
" style="fill:#0000ff;stroke:#ffffff;stroke-linejoin:miter;stroke-width:0.5;"/>
   </g>
   <g id="cfdde27ff7854caab8c864aa323f72e3-3-node">
    <path clip-path="url(#pba6e995238)" d="M 243.024218 120.781861 
L 243.024218 130.73576 
L 238.297289 130.73576 
L 238.297289 120.781861 
L 243.024218 120.781861 
z
" style="fill:#0000ff;stroke:#ffffff;stroke-linejoin:miter;stroke-width:0.5;"/>
   </g>
   <g id="cfdde27ff7854caab8c864aa323f72e3-5-node">
    <path clip-path="url(#pba6e995238)" d="M 226.758023 130.73576 
C 227.384821 130.73576 227.986031 130.211358 228.429244 129.278046 
C 228.872457 128.344734 229.121487 127.078713 229.121487 125.758811 
C 229.121487 124.438908 228.872457 123.172888 228.429244 122.239576 
C 227.986031 121.306264 227.384821 120.781861 226.758023 120.781861 
C 226.131225 120.781861 225.530014 121.306264 225.086801 122.239576 
C 224.643588 123.172888 224.394559 124.438908 224.394559 125.758811 
C 224.394559 127.078713 224.643588 128.344734 225.086801 129.278046 
C 225.530014 130.211358 226.131225 130.73576 226.758023 130.73576 
z
" style="fill:#00c832;stroke:#ffffff;stroke-linejoin:miter;stroke-width:0.5;"/>
   </g>
   <g id="cfdde27ff7854caab8c864aa323f72e3-9-node">
    <path clip-path="url(#pba6e995238)" d="M 212.855292 145.373847 
C 213.48209 145.373847 214.0833 144.849445 214.526514 143.916133 
C 214.969727 142.982821 215.218756 141.7168 215.218756 140.396898 
C 215.218756 139.076995 214.969727 137.810975 214.526514 136.877663 
C 214.0833 135.944351 213.48209 135.419948 212.855292 135.419948 
C 212.228494 135.419948 211.627284 135.944351 211.18407 136.877663 
C 210.740857 137.810975 210.491828 139.076995 210.491828 140.396898 
C 210.491828 141.7168 210.740857 142.982821 211.18407 143.916133 
C 211.627284 144.849445 212.228494 145.373847 212.855292 145.373847 
z
" style="fill:#00c832;stroke:#ffffff;stroke-linejoin:miter;stroke-width:0.5;"/>
   </g>
   <g id="cfdde27ff7854caab8c864aa323f72e3-10-node">
    <path clip-path="url(#pba6e995238)" d="M 201.316026 135.419948 
L 201.316026 145.373847 
L 196.589097 145.373847 
L 196.589097 135.419948 
L 201.316026 135.419948 
z
" style="fill:#0000ff;stroke:#ffffff;stroke-linejoin:miter;stroke-width:0.5;"/>
   </g>
   <g id="cfdde27ff7854caab8c864aa323f72e3-12-node">
    <path clip-path="url(#pba6e995238)" d="M 185.049831 145.373847 
C 185.676629 145.373847 186.277839 144.849445 186.721052 143.916133 
C 187.164265 142.982821 187.413295 141.7168 187.413295 140.396898 
C 187.413295 139.076995 187.164265 137.810975 186.721052 136.877663 
C 186.277839 135.944351 185.676629 135.419948 185.049831 135.419948 
C 184.423033 135.419948 183.821822 135.944351 183.378609 136.877663 
C 182.935396 137.810975 182.686366 139.076995 182.686366 140.396898 
C 182.686366 141.7168 182.935396 142.982821 183.378609 143.916133 
C 183.821822 144.849445 184.423033 145.373847 185.049831 145.373847 
z
" style="fill:#ffff00;stroke:#ffffff;stroke-linejoin:miter;stroke-width:0.5;"/>
   </g>
   <g id="cfdde27ff7854caab8c864aa323f72e3-6-node">
    <path clip-path="url(#pba6e995238)" d="M 212.855292 116.097673 
C 213.48209 116.097673 214.0833 115.573271 214.526514 114.639959 
C 214.969727 113.706647 215.218756 112.440626 215.218756 111.120724 
C 215.218756 109.800821 214.969727 108.534801 214.526514 107.601489 
C 214.0833 106.668177 213.48209 106.143774 212.855292 106.143774 
C 212.228494 106.143774 211.627284 106.668177 211.18407 107.601489 
C 210.740857 108.534801 210.491828 109.800821 210.491828 111.120724 
C 210.491828 112.440626 210.740857 113.706647 211.18407 114.639959 
C 211.627284 115.573271 212.228494 116.097673 212.855292 116.097673 
z
" style="fill:#00c832;stroke:#ffffff;stroke-linejoin:miter;stroke-width:0.5;"/>
   </g>
   <g id="cfdde27ff7854caab8c864aa323f72e3-7-node">
    <path clip-path="url(#pba6e995238)" d="M 201.316026 106.143774 
L 201.316026 116.097673 
L 196.589097 116.097673 
L 196.589097 106.143774 
L 201.316026 106.143774 
z
" style="fill:#0000ff;stroke:#ffffff;stroke-linejoin:miter;stroke-width:0.5;"/>
   </g>
   <g id="patch_10">
    <path d="M 135 166.745455 
L 135 43.2 
" style="fill:none;stroke:#ffffff;stroke-linecap:square;stroke-linejoin:miter;stroke-width:1.25;"/>
   </g>
   <g id="patch_11">
    <path d="M 279.310345 166.745455 
L 279.310345 43.2 
" style="fill:none;stroke:#ffffff;stroke-linecap:square;stroke-linejoin:miter;stroke-width:1.25;"/>
   </g>
   <g id="patch_12">
    <path d="M 135 166.745455 
L 279.310345 166.745455 
" style="fill:none;stroke:#ffffff;stroke-linecap:square;stroke-linejoin:miter;stroke-width:1.25;"/>
   </g>
   <g id="patch_13">
    <path d="M 135 43.2 
L 279.310345 43.2 
" style="fill:none;stroke:#ffffff;stroke-linecap:square;stroke-linejoin:miter;stroke-width:1.25;"/>
   </g>
   <g id="text_1">
    <!-- 13:1 -->
    <defs>
     <path d="M 37.25 0 
L 28.46875 0 
L 28.46875 56 
Q 25.296875 52.984375 20.140625 49.953125 
Q 14.984375 46.921875 10.890625 45.40625 
L 10.890625 53.90625 
Q 18.265625 57.375 23.78125 62.296875 
Q 29.296875 67.234375 31.59375 71.875 
L 37.25 71.875 
z
" id="ArialMT-49"/>
     <path d="M 4.203125 18.890625 
L 12.984375 20.0625 
Q 14.5 12.59375 18.140625 9.296875 
Q 21.78125 6 27 6 
Q 33.203125 6 37.46875 10.296875 
Q 41.75 14.59375 41.75 20.953125 
Q 41.75 27 37.796875 30.921875 
Q 33.84375 34.859375 27.734375 34.859375 
Q 25.25 34.859375 21.53125 33.890625 
L 22.515625 41.609375 
Q 23.390625 41.5 23.921875 41.5 
Q 29.546875 41.5 34.03125 44.421875 
Q 38.53125 47.359375 38.53125 53.46875 
Q 38.53125 58.296875 35.25 61.46875 
Q 31.984375 64.65625 26.8125 64.65625 
Q 21.6875 64.65625 18.265625 61.421875 
Q 14.84375 58.203125 13.875 51.765625 
L 5.078125 53.328125 
Q 6.6875 62.15625 12.390625 67.015625 
Q 18.109375 71.875 26.609375 71.875 
Q 32.46875 71.875 37.390625 69.359375 
Q 42.328125 66.84375 44.9375 62.5 
Q 47.5625 58.15625 47.5625 53.265625 
Q 47.5625 48.640625 45.0625 44.828125 
Q 42.578125 41.015625 37.703125 38.765625 
Q 44.046875 37.3125 47.5625 32.6875 
Q 51.078125 28.078125 51.078125 21.140625 
Q 51.078125 11.765625 44.234375 5.25 
Q 37.40625 -1.265625 26.953125 -1.265625 
Q 17.53125 -1.265625 11.296875 4.34375 
Q 5.078125 9.96875 4.203125 18.890625 
z
" id="ArialMT-51"/>
     <path d="M 9.03125 41.84375 
L 9.03125 51.859375 
L 19.046875 51.859375 
L 19.046875 41.84375 
z
M 9.03125 0 
L 9.03125 10.015625 
L 19.046875 10.015625 
L 19.046875 0 
z
" id="ArialMT-58"/>
    </defs>
    <g style="fill:#262626;" transform="translate(195.47861 37.2)scale(0.12 -0.12)">
     <use xlink:href="#ArialMT-49"/>
     <use x="55.615234" xlink:href="#ArialMT-51"/>
     <use x="111.230469" xlink:href="#ArialMT-58"/>
     <use x="139.013672" xlink:href="#ArialMT-49"/>
    </g>
   </g>
  </g>
  <g id="axes_2">
   <g id="patch_14">
    <path d="M 308.172414 166.745455 
L 452.482759 166.745455 
L 452.482759 43.2 
L 308.172414 43.2 
z
" style="fill:#ffffff;"/>
   </g>
   <g id="patch_15">
    <path clip-path="url(#ped60f1306c)" d="M 386.027706 140.396898 
L 372.124975 140.396898 
" style="stroke:#000000;stroke-linejoin:miter;stroke-width:0.5;"/>
   </g>
   <g id="patch_16">
    <path clip-path="url(#ped60f1306c)" d="M 399.930437 125.758811 
L 386.027706 140.396898 
" style="stroke:#000000;stroke-linejoin:miter;stroke-width:0.5;"/>
   </g>
   <g id="patch_17">
    <path clip-path="url(#ped60f1306c)" d="M 372.124975 111.120724 
L 358.222244 111.120724 
" style="stroke:#000000;stroke-linejoin:miter;stroke-width:0.5;"/>
   </g>
   <g id="patch_18">
    <path clip-path="url(#ped60f1306c)" d="M 386.027706 111.120724 
L 372.124975 111.120724 
" style="stroke:#000000;stroke-linejoin:miter;stroke-width:0.5;"/>
   </g>
   <g id="patch_19">
    <path clip-path="url(#ped60f1306c)" d="M 399.930437 125.758811 
L 386.027706 111.120724 
" style="stroke:#000000;stroke-linejoin:miter;stroke-width:0.5;"/>
   </g>
   <g id="patch_20">
    <path clip-path="url(#ped60f1306c)" d="M 413.833167 125.758811 
L 399.930437 125.758811 
" style="stroke:#000000;stroke-linejoin:miter;stroke-width:0.5;"/>
   </g>
   <g id="patch_21">
    <path clip-path="url(#ped60f1306c)" d="M 427.735898 125.758811 
L 413.833167 125.758811 
" style="stroke:#000000;stroke-linejoin:miter;stroke-width:0.5;"/>
   </g>
   <g id="42e71169cc5a4bfcaa72cb93a0d031f4-1-node">
    <path clip-path="url(#ped60f1306c)" d="M 430.099362 120.781861 
L 430.099362 130.73576 
L 425.372434 130.73576 
L 425.372434 120.781861 
L 430.099362 120.781861 
z
" style="fill:#0000ff;stroke:#ffffff;stroke-linejoin:miter;stroke-width:0.5;"/>
   </g>
   <g id="42e71169cc5a4bfcaa72cb93a0d031f4-3-node">
    <path clip-path="url(#ped60f1306c)" d="M 416.196631 120.781861 
L 416.196631 130.73576 
L 411.469703 130.73576 
L 411.469703 120.781861 
L 416.196631 120.781861 
z
" style="fill:#0000ff;stroke:#ffffff;stroke-linejoin:miter;stroke-width:0.5;"/>
   </g>
   <g id="42e71169cc5a4bfcaa72cb93a0d031f4-5-node">
    <path clip-path="url(#ped60f1306c)" d="M 399.930437 130.73576 
C 400.557235 130.73576 401.158445 130.211358 401.601658 129.278046 
C 402.044871 128.344734 402.293901 127.078713 402.293901 125.758811 
C 402.293901 124.438908 402.044871 123.172888 401.601658 122.239576 
C 401.158445 121.306264 400.557235 120.781861 399.930437 120.781861 
C 399.303638 120.781861 398.702428 121.306264 398.259215 122.239576 
C 397.816002 123.172888 397.566972 124.438908 397.566972 125.758811 
C 397.566972 127.078713 397.816002 128.344734 398.259215 129.278046 
C 398.702428 130.211358 399.303638 130.73576 399.930437 130.73576 
z
" style="fill:#00c832;stroke:#ffffff;stroke-linejoin:miter;stroke-width:0.5;"/>
   </g>
   <g id="42e71169cc5a4bfcaa72cb93a0d031f4-10-node">
    <path clip-path="url(#ped60f1306c)" d="M 386.027706 145.373847 
C 386.654504 145.373847 387.255714 144.849445 387.698927 143.916133 
C 388.142141 142.982821 388.39117 141.7168 388.39117 140.396898 
C 388.39117 139.076995 388.142141 137.810975 387.698927 136.877663 
C 387.255714 135.944351 386.654504 135.419948 386.027706 135.419948 
C 385.400908 135.419948 384.799697 135.944351 384.356484 136.877663 
C 383.913271 137.810975 383.664242 139.076995 383.664242 140.396898 
C 383.664242 141.7168 383.913271 142.982821 384.356484 143.916133 
C 384.799697 144.849445 385.400908 145.373847 386.027706 145.373847 
z
" style="fill:#00c832;stroke:#ffffff;stroke-linejoin:miter;stroke-width:0.5;"/>
   </g>
   <g id="42e71169cc5a4bfcaa72cb93a0d031f4-11-node">
    <path clip-path="url(#ped60f1306c)" d="M 374.488439 135.419948 
L 374.488439 145.373847 
L 369.761511 145.373847 
L 369.761511 135.419948 
L 374.488439 135.419948 
z
" style="fill:#0000ff;stroke:#ffffff;stroke-linejoin:miter;stroke-width:0.5;"/>
   </g>
   <g id="42e71169cc5a4bfcaa72cb93a0d031f4-6-node">
    <path clip-path="url(#ped60f1306c)" d="M 386.027706 116.097673 
C 386.654504 116.097673 387.255714 115.573271 387.698927 114.639959 
C 388.142141 113.706647 388.39117 112.440626 388.39117 111.120724 
C 388.39117 109.800821 388.142141 108.534801 387.698927 107.601489 
C 387.255714 106.668177 386.654504 106.143774 386.027706 106.143774 
C 385.400908 106.143774 384.799697 106.668177 384.356484 107.601489 
C 383.913271 108.534801 383.664242 109.800821 383.664242 111.120724 
C 383.664242 112.440626 383.913271 113.706647 384.356484 114.639959 
C 384.799697 115.573271 385.400908 116.097673 386.027706 116.097673 
z
" style="fill:#00c832;stroke:#ffffff;stroke-linejoin:miter;stroke-width:0.5;"/>
   </g>
   <g id="42e71169cc5a4bfcaa72cb93a0d031f4-7-node">
    <path clip-path="url(#ped60f1306c)" d="M 374.488439 106.143774 
L 374.488439 116.097673 
L 369.761511 116.097673 
L 369.761511 106.143774 
L 374.488439 106.143774 
z
" style="fill:#0000ff;stroke:#ffffff;stroke-linejoin:miter;stroke-width:0.5;"/>
   </g>
   <g id="42e71169cc5a4bfcaa72cb93a0d031f4-9-node">
    <path clip-path="url(#ped60f1306c)" d="M 358.222244 116.097673 
C 358.849042 116.097673 359.450253 115.573271 359.893466 114.639959 
C 360.336679 113.706647 360.585709 112.440626 360.585709 111.120724 
C 360.585709 109.800821 360.336679 108.534801 359.893466 107.601489 
C 359.450253 106.668177 358.849042 106.143774 358.222244 106.143774 
C 357.595446 106.143774 356.994236 106.668177 356.551023 107.601489 
C 356.10781 108.534801 355.85878 109.800821 355.85878 111.120724 
C 355.85878 112.440626 356.10781 113.706647 356.551023 114.639959 
C 356.994236 115.573271 357.595446 116.097673 358.222244 116.097673 
z
" style="fill:#ffff00;stroke:#ffffff;stroke-linejoin:miter;stroke-width:0.5;"/>
   </g>
   <g id="patch_22">
    <path d="M 308.172414 166.745455 
L 308.172414 43.2 
" style="fill:none;stroke:#ffffff;stroke-linecap:square;stroke-linejoin:miter;stroke-width:1.25;"/>
   </g>
   <g id="patch_23">
    <path d="M 452.482759 166.745455 
L 452.482759 43.2 
" style="fill:none;stroke:#ffffff;stroke-linecap:square;stroke-linejoin:miter;stroke-width:1.25;"/>
   </g>
   <g id="patch_24">
    <path d="M 308.172414 166.745455 
L 452.482759 166.745455 
" style="fill:none;stroke:#ffffff;stroke-linecap:square;stroke-linejoin:miter;stroke-width:1.25;"/>
   </g>
   <g id="patch_25">
    <path d="M 308.172414 43.2 
L 452.482759 43.2 
" style="fill:none;stroke:#ffffff;stroke-linecap:square;stroke-linejoin:miter;stroke-width:1.25;"/>
   </g>
   <g id="text_2">
    <!-- 15:1 -->
    <defs>
     <path d="M 4.15625 18.75 
L 13.375 19.53125 
Q 14.40625 12.796875 18.140625 9.390625 
Q 21.875 6 27.15625 6 
Q 33.5 6 37.890625 10.78125 
Q 42.28125 15.578125 42.28125 23.484375 
Q 42.28125 31 38.0625 35.34375 
Q 33.84375 39.703125 27 39.703125 
Q 22.75 39.703125 19.328125 37.765625 
Q 15.921875 35.84375 13.96875 32.765625 
L 5.71875 33.84375 
L 12.640625 70.609375 
L 48.25 70.609375 
L 48.25 62.203125 
L 19.671875 62.203125 
L 15.828125 42.96875 
Q 22.265625 47.46875 29.34375 47.46875 
Q 38.71875 47.46875 45.15625 40.96875 
Q 51.609375 34.46875 51.609375 24.265625 
Q 51.609375 14.546875 45.953125 7.46875 
Q 39.0625 -1.21875 27.15625 -1.21875 
Q 17.390625 -1.21875 11.203125 4.25 
Q 5.03125 9.71875 4.15625 18.75 
z
" id="ArialMT-53"/>
    </defs>
    <g style="fill:#262626;" transform="translate(368.651024 37.2)scale(0.12 -0.12)">
     <use xlink:href="#ArialMT-49"/>
     <use x="55.615234" xlink:href="#ArialMT-53"/>
     <use x="111.230469" xlink:href="#ArialMT-58"/>
     <use x="139.013672" xlink:href="#ArialMT-49"/>
    </g>
   </g>
  </g>
  <g id="axes_3">
   <g id="patch_26">
    <path d="M 481.344828 166.745455 
L 625.655172 166.745455 
L 625.655172 43.2 
L 481.344828 43.2 
z
" style="fill:#ffffff;"/>
   </g>
   <g id="patch_27">
    <path clip-path="url(#p528ff360c9)" d="M 545.297389 140.396898 
L 531.394658 140.396898 
" style="stroke:#000000;stroke-linejoin:miter;stroke-width:0.5;"/>
   </g>
   <g id="patch_28">
    <path clip-path="url(#p528ff360c9)" d="M 559.20012 140.396898 
L 545.297389 140.396898 
" style="stroke:#000000;stroke-linejoin:miter;stroke-width:0.5;"/>
   </g>
   <g id="patch_29">
    <path clip-path="url(#p528ff360c9)" d="M 573.10285 125.758811 
L 559.20012 140.396898 
" style="stroke:#000000;stroke-linejoin:miter;stroke-width:0.5;"/>
   </g>
   <g id="patch_30">
    <path clip-path="url(#p528ff360c9)" d="M 559.20012 111.120724 
L 545.297389 111.120724 
" style="stroke:#000000;stroke-linejoin:miter;stroke-width:0.5;"/>
   </g>
   <g id="patch_31">
    <path clip-path="url(#p528ff360c9)" d="M 573.10285 125.758811 
L 559.20012 111.120724 
" style="stroke:#000000;stroke-linejoin:miter;stroke-width:0.5;"/>
   </g>
   <g id="patch_32">
    <path clip-path="url(#p528ff360c9)" d="M 587.005581 125.758811 
L 573.10285 125.758811 
" style="stroke:#000000;stroke-linejoin:miter;stroke-width:0.5;"/>
   </g>
   <g id="patch_33">
    <path clip-path="url(#p528ff360c9)" d="M 600.908312 125.758811 
L 587.005581 125.758811 
" style="stroke:#000000;stroke-linejoin:miter;stroke-width:0.5;"/>
   </g>
   <g id="patch_34">
    <path clip-path="url(#p528ff360c9)" d="M 600.908312 125.758811 
L 600.908312 111.120724 
" style="stroke:#000000;stroke-linejoin:miter;stroke-width:0.5;"/>
   </g>
   <g id="a869e2cc1eed4599b5bed4c8fad7d3a9-1-node">
    <path clip-path="url(#p528ff360c9)" d="M 603.271776 120.781861 
L 603.271776 130.73576 
L 598.544848 130.73576 
L 598.544848 120.781861 
L 603.271776 120.781861 
z
" style="fill:#0000ff;stroke:#ffffff;stroke-linejoin:miter;stroke-width:0.5;"/>
   </g>
   <g id="a869e2cc1eed4599b5bed4c8fad7d3a9-4-node">
    <path clip-path="url(#p528ff360c9)" d="M 589.369045 120.781861 
L 589.369045 130.73576 
L 584.642117 130.73576 
L 584.642117 120.781861 
L 589.369045 120.781861 
z
" style="fill:#0000ff;stroke:#ffffff;stroke-linejoin:miter;stroke-width:0.5;"/>
   </g>
   <g id="a869e2cc1eed4599b5bed4c8fad7d3a9-6-node">
    <path clip-path="url(#p528ff360c9)" d="M 573.10285 130.73576 
C 573.729648 130.73576 574.330859 130.211358 574.774072 129.278046 
C 575.217285 128.344734 575.466315 127.078713 575.466315 125.758811 
C 575.466315 124.438908 575.217285 123.172888 574.774072 122.239576 
C 574.330859 121.306264 573.729648 120.781861 573.10285 120.781861 
C 572.476052 120.781861 571.874842 121.306264 571.431629 122.239576 
C 570.988416 123.172888 570.739386 124.438908 570.739386 125.758811 
C 570.739386 127.078713 570.988416 128.344734 571.431629 129.278046 
C 571.874842 130.211358 572.476052 130.73576 573.10285 130.73576 
z
" style="fill:#00c832;stroke:#ffffff;stroke-linejoin:miter;stroke-width:0.5;"/>
   </g>
   <g id="a869e2cc1eed4599b5bed4c8fad7d3a9-10-node">
    <path clip-path="url(#p528ff360c9)" d="M 559.20012 145.373847 
C 559.826918 145.373847 560.428128 144.849445 560.871341 143.916133 
C 561.314554 142.982821 561.563584 141.7168 561.563584 140.396898 
C 561.563584 139.076995 561.314554 137.810975 560.871341 136.877663 
C 560.428128 135.944351 559.826918 135.419948 559.20012 135.419948 
C 558.573322 135.419948 557.972111 135.944351 557.528898 136.877663 
C 557.085685 137.810975 556.836655 139.076995 556.836655 140.396898 
C 556.836655 141.7168 557.085685 142.982821 557.528898 143.916133 
C 557.972111 144.849445 558.573322 145.373847 559.20012 145.373847 
z
" style="fill:#00c832;stroke:#ffffff;stroke-linejoin:miter;stroke-width:0.5;"/>
   </g>
   <g id="a869e2cc1eed4599b5bed4c8fad7d3a9-11-node">
    <path clip-path="url(#p528ff360c9)" d="M 547.660853 135.419948 
L 547.660853 145.373847 
L 542.933925 145.373847 
L 542.933925 135.419948 
L 547.660853 135.419948 
z
" style="fill:#0000ff;stroke:#ffffff;stroke-linejoin:miter;stroke-width:0.5;"/>
   </g>
   <g id="a869e2cc1eed4599b5bed4c8fad7d3a9-13-node">
    <path clip-path="url(#p528ff360c9)" d="M 531.394658 145.373847 
C 532.021456 145.373847 532.622667 144.849445 533.06588 143.916133 
C 533.509093 142.982821 533.758122 141.7168 533.758122 140.396898 
C 533.758122 139.076995 533.509093 137.810975 533.06588 136.877663 
C 532.622667 135.944351 532.021456 135.419948 531.394658 135.419948 
C 530.76786 135.419948 530.16665 135.944351 529.723437 136.877663 
C 529.280223 137.810975 529.031194 139.076995 529.031194 140.396898 
C 529.031194 141.7168 529.280223 142.982821 529.723437 143.916133 
C 530.16665 144.849445 530.76786 145.373847 531.394658 145.373847 
z
" style="fill:#ffff00;stroke:#ffffff;stroke-linejoin:miter;stroke-width:0.5;"/>
   </g>
   <g id="a869e2cc1eed4599b5bed4c8fad7d3a9-7-node">
    <path clip-path="url(#p528ff360c9)" d="M 559.20012 116.097673 
C 559.826918 116.097673 560.428128 115.573271 560.871341 114.639959 
C 561.314554 113.706647 561.563584 112.440626 561.563584 111.120724 
C 561.563584 109.800821 561.314554 108.534801 560.871341 107.601489 
C 560.428128 106.668177 559.826918 106.143774 559.20012 106.143774 
C 558.573322 106.143774 557.972111 106.668177 557.528898 107.601489 
C 557.085685 108.534801 556.836655 109.800821 556.836655 111.120724 
C 556.836655 112.440626 557.085685 113.706647 557.528898 114.639959 
C 557.972111 115.573271 558.573322 116.097673 559.20012 116.097673 
z
" style="fill:#00c832;stroke:#ffffff;stroke-linejoin:miter;stroke-width:0.5;"/>
   </g>
   <g id="a869e2cc1eed4599b5bed4c8fad7d3a9-8-node">
    <path clip-path="url(#p528ff360c9)" d="M 547.660853 106.143774 
L 547.660853 116.097673 
L 542.933925 116.097673 
L 542.933925 106.143774 
L 547.660853 106.143774 
z
" style="fill:#0000ff;stroke:#ffffff;stroke-linejoin:miter;stroke-width:0.5;"/>
   </g>
   <g id="a869e2cc1eed4599b5bed4c8fad7d3a9-3-node">
    <path clip-path="url(#p528ff360c9)" d="M 600.908312 106.143774 
L 598.861492 113.609199 
L 602.955132 113.609199 
z
" style="fill:#ff0000;stroke:#ffffff;stroke-linejoin:miter;stroke-width:0.5;"/>
   </g>
   <g id="patch_35">
    <path d="M 481.344828 166.745455 
L 481.344828 43.2 
" style="fill:none;stroke:#ffffff;stroke-linecap:square;stroke-linejoin:miter;stroke-width:1.25;"/>
   </g>
   <g id="patch_36">
    <path d="M 625.655172 166.745455 
L 625.655172 43.2 
" style="fill:none;stroke:#ffffff;stroke-linecap:square;stroke-linejoin:miter;stroke-width:1.25;"/>
   </g>
   <g id="patch_37">
    <path d="M 481.344828 166.745455 
L 625.655172 166.745455 
" style="fill:none;stroke:#ffffff;stroke-linecap:square;stroke-linejoin:miter;stroke-width:1.25;"/>
   </g>
   <g id="patch_38">
    <path d="M 481.344828 43.2 
L 625.655172 43.2 
" style="fill:none;stroke:#ffffff;stroke-linecap:square;stroke-linejoin:miter;stroke-width:1.25;"/>
   </g>
   <g id="text_3">
    <!-- 27:1 -->
    <defs>
     <path d="M 50.34375 8.453125 
L 50.34375 0 
L 3.03125 0 
Q 2.9375 3.171875 4.046875 6.109375 
Q 5.859375 10.9375 9.828125 15.625 
Q 13.8125 20.3125 21.34375 26.46875 
Q 33.015625 36.03125 37.109375 41.625 
Q 41.21875 47.21875 41.21875 52.203125 
Q 41.21875 57.421875 37.46875 61 
Q 33.734375 64.59375 27.734375 64.59375 
Q 21.390625 64.59375 17.578125 60.78125 
Q 13.765625 56.984375 13.71875 50.25 
L 4.6875 51.171875 
Q 5.609375 61.28125 11.65625 66.578125 
Q 17.71875 71.875 27.9375 71.875 
Q 38.234375 71.875 44.234375 66.15625 
Q 50.25 60.453125 50.25 52 
Q 50.25 47.703125 48.484375 43.546875 
Q 46.734375 39.40625 42.65625 34.8125 
Q 38.578125 30.21875 29.109375 22.21875 
Q 21.1875 15.578125 18.9375 13.203125 
Q 16.703125 10.84375 15.234375 8.453125 
z
" id="ArialMT-50"/>
     <path d="M 4.734375 62.203125 
L 4.734375 70.65625 
L 51.078125 70.65625 
L 51.078125 63.8125 
Q 44.234375 56.546875 37.515625 44.484375 
Q 30.8125 32.421875 27.15625 19.671875 
Q 24.515625 10.6875 23.78125 0 
L 14.75 0 
Q 14.890625 8.453125 18.0625 20.40625 
Q 21.234375 32.375 27.171875 43.484375 
Q 33.109375 54.59375 39.796875 62.203125 
z
" id="ArialMT-55"/>
    </defs>
    <g style="fill:#262626;" transform="translate(541.823437 37.2)scale(0.12 -0.12)">
     <use xlink:href="#ArialMT-50"/>
     <use x="55.615234" xlink:href="#ArialMT-55"/>
     <use x="111.230469" xlink:href="#ArialMT-58"/>
     <use x="139.013672" xlink:href="#ArialMT-49"/>
    </g>
   </g>
  </g>
  <g id="axes_4">
   <g id="patch_39">
    <path d="M 654.517241 166.745455 
L 798.827586 166.745455 
L 798.827586 43.2 
L 654.517241 43.2 
z
" style="fill:#ffffff;"/>
   </g>
   <g id="patch_40">
    <path clip-path="url(#pc1a27528d8)" d="M 732.372533 140.396898 
L 718.469803 140.396898 
" style="stroke:#000000;stroke-linejoin:miter;stroke-width:0.5;"/>
   </g>
   <g id="patch_41">
    <path clip-path="url(#pc1a27528d8)" d="M 746.275264 125.758811 
L 732.372533 140.396898 
" style="stroke:#000000;stroke-linejoin:miter;stroke-width:0.5;"/>
   </g>
   <g id="patch_42">
    <path clip-path="url(#pc1a27528d8)" d="M 718.469803 111.120724 
L 704.567072 111.120724 
" style="stroke:#000000;stroke-linejoin:miter;stroke-width:0.5;"/>
   </g>
   <g id="patch_43">
    <path clip-path="url(#pc1a27528d8)" d="M 732.372533 111.120724 
L 718.469803 111.120724 
" style="stroke:#000000;stroke-linejoin:miter;stroke-width:0.5;"/>
   </g>
   <g id="patch_44">
    <path clip-path="url(#pc1a27528d8)" d="M 746.275264 125.758811 
L 732.372533 111.120724 
" style="stroke:#000000;stroke-linejoin:miter;stroke-width:0.5;"/>
   </g>
   <g id="patch_45">
    <path clip-path="url(#pc1a27528d8)" d="M 760.177995 125.758811 
L 746.275264 125.758811 
" style="stroke:#000000;stroke-linejoin:miter;stroke-width:0.5;"/>
   </g>
   <g id="patch_46">
    <path clip-path="url(#pc1a27528d8)" d="M 774.080726 125.758811 
L 760.177995 125.758811 
" style="stroke:#000000;stroke-linejoin:miter;stroke-width:0.5;"/>
   </g>
   <g id="patch_47">
    <path clip-path="url(#pc1a27528d8)" d="M 774.080726 125.758811 
L 774.080726 111.120724 
" style="stroke:#000000;stroke-linejoin:miter;stroke-width:0.5;"/>
   </g>
   <g id="b1d67acc15e64aeabd00783f16dee1a3-1-node">
    <path clip-path="url(#pc1a27528d8)" d="M 776.44419 120.781861 
L 776.44419 130.73576 
L 771.717261 130.73576 
L 771.717261 120.781861 
L 776.44419 120.781861 
z
" style="fill:#0000ff;stroke:#ffffff;stroke-linejoin:miter;stroke-width:0.5;"/>
   </g>
   <g id="b1d67acc15e64aeabd00783f16dee1a3-4-node">
    <path clip-path="url(#pc1a27528d8)" d="M 762.541459 120.781861 
L 762.541459 130.73576 
L 757.814531 130.73576 
L 757.814531 120.781861 
L 762.541459 120.781861 
z
" style="fill:#0000ff;stroke:#ffffff;stroke-linejoin:miter;stroke-width:0.5;"/>
   </g>
   <g id="b1d67acc15e64aeabd00783f16dee1a3-6-node">
    <path clip-path="url(#pc1a27528d8)" d="M 746.275264 130.73576 
C 746.902062 130.73576 747.503273 130.211358 747.946486 129.278046 
C 748.389699 128.344734 748.638728 127.078713 748.638728 125.758811 
C 748.638728 124.438908 748.389699 123.172888 747.946486 122.239576 
C 747.503273 121.306264 746.902062 120.781861 746.275264 120.781861 
C 745.648466 120.781861 745.047256 121.306264 744.604043 122.239576 
C 744.160829 123.172888 743.9118 124.438908 743.9118 125.758811 
C 743.9118 127.078713 744.160829 128.344734 744.604043 129.278046 
C 745.047256 130.211358 745.648466 130.73576 746.275264 130.73576 
z
" style="fill:#00c832;stroke:#ffffff;stroke-linejoin:miter;stroke-width:0.5;"/>
   </g>
   <g id="b1d67acc15e64aeabd00783f16dee1a3-11-node">
    <path clip-path="url(#pc1a27528d8)" d="M 732.372533 145.373847 
C 732.999331 145.373847 733.600542 144.849445 734.043755 143.916133 
C 734.486968 142.982821 734.735998 141.7168 734.735998 140.396898 
C 734.735998 139.076995 734.486968 137.810975 734.043755 136.877663 
C 733.600542 135.944351 732.999331 135.419948 732.372533 135.419948 
C 731.745735 135.419948 731.144525 135.944351 730.701312 136.877663 
C 730.258099 137.810975 730.009069 139.076995 730.009069 140.396898 
C 730.009069 141.7168 730.258099 142.982821 730.701312 143.916133 
C 731.144525 144.849445 731.745735 145.373847 732.372533 145.373847 
z
" style="fill:#00c832;stroke:#ffffff;stroke-linejoin:miter;stroke-width:0.5;"/>
   </g>
   <g id="b1d67acc15e64aeabd00783f16dee1a3-12-node">
    <path clip-path="url(#pc1a27528d8)" d="M 720.833267 135.419948 
L 720.833267 145.373847 
L 716.106338 145.373847 
L 716.106338 135.419948 
L 720.833267 135.419948 
z
" style="fill:#0000ff;stroke:#ffffff;stroke-linejoin:miter;stroke-width:0.5;"/>
   </g>
   <g id="b1d67acc15e64aeabd00783f16dee1a3-7-node">
    <path clip-path="url(#pc1a27528d8)" d="M 732.372533 116.097673 
C 732.999331 116.097673 733.600542 115.573271 734.043755 114.639959 
C 734.486968 113.706647 734.735998 112.440626 734.735998 111.120724 
C 734.735998 109.800821 734.486968 108.534801 734.043755 107.601489 
C 733.600542 106.668177 732.999331 106.143774 732.372533 106.143774 
C 731.745735 106.143774 731.144525 106.668177 730.701312 107.601489 
C 730.258099 108.534801 730.009069 109.800821 730.009069 111.120724 
C 730.009069 112.440626 730.258099 113.706647 730.701312 114.639959 
C 731.144525 115.573271 731.745735 116.097673 732.372533 116.097673 
z
" style="fill:#00c832;stroke:#ffffff;stroke-linejoin:miter;stroke-width:0.5;"/>
   </g>
   <g id="b1d67acc15e64aeabd00783f16dee1a3-8-node">
    <path clip-path="url(#pc1a27528d8)" d="M 720.833267 106.143774 
L 720.833267 116.097673 
L 716.106338 116.097673 
L 716.106338 106.143774 
L 720.833267 106.143774 
z
" style="fill:#0000ff;stroke:#ffffff;stroke-linejoin:miter;stroke-width:0.5;"/>
   </g>
   <g id="b1d67acc15e64aeabd00783f16dee1a3-10-node">
    <path clip-path="url(#pc1a27528d8)" d="M 704.567072 116.097673 
C 705.19387 116.097673 705.79508 115.573271 706.238294 114.639959 
C 706.681507 113.706647 706.930536 112.440626 706.930536 111.120724 
C 706.930536 109.800821 706.681507 108.534801 706.238294 107.601489 
C 705.79508 106.668177 705.19387 106.143774 704.567072 106.143774 
C 703.940274 106.143774 703.339064 106.668177 702.89585 107.601489 
C 702.452637 108.534801 702.203608 109.800821 702.203608 111.120724 
C 702.203608 112.440626 702.452637 113.706647 702.89585 114.639959 
C 703.339064 115.573271 703.940274 116.097673 704.567072 116.097673 
z
" style="fill:#ffff00;stroke:#ffffff;stroke-linejoin:miter;stroke-width:0.5;"/>
   </g>
   <g id="b1d67acc15e64aeabd00783f16dee1a3-3-node">
    <path clip-path="url(#pc1a27528d8)" d="M 774.080726 106.143774 
L 772.033905 113.609199 
L 776.127546 113.609199 
z
" style="fill:#ff0000;stroke:#ffffff;stroke-linejoin:miter;stroke-width:0.5;"/>
   </g>
   <g id="patch_48">
    <path d="M 654.517241 166.745455 
L 654.517241 43.2 
" style="fill:none;stroke:#ffffff;stroke-linecap:square;stroke-linejoin:miter;stroke-width:1.25;"/>
   </g>
   <g id="patch_49">
    <path d="M 798.827586 166.745455 
L 798.827586 43.2 
" style="fill:none;stroke:#ffffff;stroke-linecap:square;stroke-linejoin:miter;stroke-width:1.25;"/>
   </g>
   <g id="patch_50">
    <path d="M 654.517241 166.745455 
L 798.827586 166.745455 
" style="fill:none;stroke:#ffffff;stroke-linecap:square;stroke-linejoin:miter;stroke-width:1.25;"/>
   </g>
   <g id="patch_51">
    <path d="M 654.517241 43.2 
L 798.827586 43.2 
" style="fill:none;stroke:#ffffff;stroke-linecap:square;stroke-linejoin:miter;stroke-width:1.25;"/>
   </g>
   <g id="text_4">
    <!-- 29:1 -->
    <defs>
     <path d="M 5.46875 16.546875 
L 13.921875 17.328125 
Q 14.984375 11.375 18.015625 8.6875 
Q 21.046875 6 25.78125 6 
Q 29.828125 6 32.875 7.859375 
Q 35.9375 9.71875 37.890625 12.8125 
Q 39.84375 15.921875 41.15625 21.1875 
Q 42.484375 26.46875 42.484375 31.9375 
Q 42.484375 32.515625 42.4375 33.6875 
Q 39.796875 29.5 35.234375 26.875 
Q 30.671875 24.265625 25.34375 24.265625 
Q 16.453125 24.265625 10.296875 30.703125 
Q 4.15625 37.15625 4.15625 47.703125 
Q 4.15625 58.59375 10.578125 65.234375 
Q 17 71.875 26.65625 71.875 
Q 33.640625 71.875 39.421875 68.109375 
Q 45.21875 64.359375 48.21875 57.390625 
Q 51.21875 50.4375 51.21875 37.25 
Q 51.21875 23.53125 48.234375 15.40625 
Q 45.265625 7.28125 39.375 3.03125 
Q 33.5 -1.21875 25.59375 -1.21875 
Q 17.1875 -1.21875 11.859375 3.4375 
Q 6.546875 8.109375 5.46875 16.546875 
z
M 41.453125 48.140625 
Q 41.453125 55.71875 37.421875 60.15625 
Q 33.40625 64.59375 27.734375 64.59375 
Q 21.875 64.59375 17.53125 59.8125 
Q 13.1875 55.03125 13.1875 47.40625 
Q 13.1875 40.578125 17.3125 36.296875 
Q 21.4375 32.03125 27.484375 32.03125 
Q 33.59375 32.03125 37.515625 36.296875 
Q 41.453125 40.578125 41.453125 48.140625 
z
" id="ArialMT-57"/>
    </defs>
    <g style="fill:#262626;" transform="translate(714.995851 37.2)scale(0.12 -0.12)">
     <use xlink:href="#ArialMT-50"/>
     <use x="55.615234" xlink:href="#ArialMT-57"/>
     <use x="111.230469" xlink:href="#ArialMT-58"/>
     <use x="139.013672" xlink:href="#ArialMT-49"/>
    </g>
   </g>
  </g>
  <g id="axes_5">
   <g id="patch_52">
    <path d="M 827.689655 166.745455 
L 972 166.745455 
L 972 43.2 
L 827.689655 43.2 
z
" style="fill:#ffffff;"/>
   </g>
   <g id="patch_53">
    <path clip-path="url(#pc47de2757b)" d="M 891.642216 140.396898 
L 877.739486 140.396898 
" style="stroke:#000000;stroke-linejoin:miter;stroke-width:0.5;"/>
   </g>
   <g id="patch_54">
    <path clip-path="url(#pc47de2757b)" d="M 905.544947 140.396898 
L 891.642216 140.396898 
" style="stroke:#000000;stroke-linejoin:miter;stroke-width:0.5;"/>
   </g>
   <g id="patch_55">
    <path clip-path="url(#pc47de2757b)" d="M 919.447678 125.758811 
L 905.544947 140.396898 
" style="stroke:#000000;stroke-linejoin:miter;stroke-width:0.5;"/>
   </g>
   <g id="patch_56">
    <path clip-path="url(#pc47de2757b)" d="M 891.642216 111.120724 
L 877.739486 111.120724 
" style="stroke:#000000;stroke-linejoin:miter;stroke-width:0.5;"/>
   </g>
   <g id="patch_57">
    <path clip-path="url(#pc47de2757b)" d="M 905.544947 111.120724 
L 891.642216 111.120724 
" style="stroke:#000000;stroke-linejoin:miter;stroke-width:0.5;"/>
   </g>
   <g id="patch_58">
    <path clip-path="url(#pc47de2757b)" d="M 919.447678 125.758811 
L 905.544947 111.120724 
" style="stroke:#000000;stroke-linejoin:miter;stroke-width:0.5;"/>
   </g>
   <g id="patch_59">
    <path clip-path="url(#pc47de2757b)" d="M 933.350409 125.758811 
L 919.447678 125.758811 
" style="stroke:#000000;stroke-linejoin:miter;stroke-width:0.5;"/>
   </g>
   <g id="patch_60">
    <path clip-path="url(#pc47de2757b)" d="M 947.253139 125.758811 
L 933.350409 125.758811 
" style="stroke:#000000;stroke-linejoin:miter;stroke-width:0.5;"/>
   </g>
   <g id="bf25f4aa9f2c45f39d223202b921f65c-1-node">
    <path clip-path="url(#pc47de2757b)" d="M 949.616604 120.781861 
L 949.616604 130.73576 
L 944.889675 130.73576 
L 944.889675 120.781861 
L 949.616604 120.781861 
z
" style="fill:#0000ff;stroke:#ffffff;stroke-linejoin:miter;stroke-width:0.5;"/>
   </g>
   <g id="bf25f4aa9f2c45f39d223202b921f65c-3-node">
    <path clip-path="url(#pc47de2757b)" d="M 935.713873 120.781861 
L 935.713873 130.73576 
L 930.986944 130.73576 
L 930.986944 120.781861 
L 935.713873 120.781861 
z
" style="fill:#0000ff;stroke:#ffffff;stroke-linejoin:miter;stroke-width:0.5;"/>
   </g>
   <g id="bf25f4aa9f2c45f39d223202b921f65c-5-node">
    <path clip-path="url(#pc47de2757b)" d="M 919.447678 130.73576 
C 920.074476 130.73576 920.675686 130.211358 921.118899 129.278046 
C 921.562113 128.344734 921.811142 127.078713 921.811142 125.758811 
C 921.811142 124.438908 921.562113 123.172888 921.118899 122.239576 
C 920.675686 121.306264 920.074476 120.781861 919.447678 120.781861 
C 918.82088 120.781861 918.219669 121.306264 917.776456 122.239576 
C 917.333243 123.172888 917.084214 124.438908 917.084214 125.758811 
C 917.084214 127.078713 917.333243 128.344734 917.776456 129.278046 
C 918.219669 130.211358 918.82088 130.73576 919.447678 130.73576 
z
" style="fill:#00c832;stroke:#ffffff;stroke-linejoin:miter;stroke-width:0.5;"/>
   </g>
   <g id="bf25f4aa9f2c45f39d223202b921f65c-10-node">
    <path clip-path="url(#pc47de2757b)" d="M 905.544947 145.373847 
C 906.171745 145.373847 906.772956 144.849445 907.216169 143.916133 
C 907.659382 142.982821 907.908411 141.7168 907.908411 140.396898 
C 907.908411 139.076995 907.659382 137.810975 907.216169 136.877663 
C 906.772956 135.944351 906.171745 135.419948 905.544947 135.419948 
C 904.918149 135.419948 904.316939 135.944351 903.873726 136.877663 
C 903.430512 137.810975 903.181483 139.076995 903.181483 140.396898 
C 903.181483 141.7168 903.430512 142.982821 903.873726 143.916133 
C 904.316939 144.849445 904.918149 145.373847 905.544947 145.373847 
z
" style="fill:#00c832;stroke:#ffffff;stroke-linejoin:miter;stroke-width:0.5;"/>
   </g>
   <g id="bf25f4aa9f2c45f39d223202b921f65c-11-node">
    <path clip-path="url(#pc47de2757b)" d="M 894.005681 135.419948 
L 894.005681 145.373847 
L 889.278752 145.373847 
L 889.278752 135.419948 
L 894.005681 135.419948 
z
" style="fill:#0000ff;stroke:#ffffff;stroke-linejoin:miter;stroke-width:0.5;"/>
   </g>
   <g id="bf25f4aa9f2c45f39d223202b921f65c-13-node">
    <path clip-path="url(#pc47de2757b)" d="M 877.739486 145.373847 
C 878.366284 145.373847 878.967494 144.849445 879.410707 143.916133 
C 879.85392 142.982821 880.10295 141.7168 880.10295 140.396898 
C 880.10295 139.076995 879.85392 137.810975 879.410707 136.877663 
C 878.967494 135.944351 878.366284 135.419948 877.739486 135.419948 
C 877.112688 135.419948 876.511477 135.944351 876.068264 136.877663 
C 875.625051 137.810975 875.376022 139.076995 875.376022 140.396898 
C 875.376022 141.7168 875.625051 142.982821 876.068264 143.916133 
C 876.511477 144.849445 877.112688 145.373847 877.739486 145.373847 
z
" style="fill:#ffff00;stroke:#ffffff;stroke-linejoin:miter;stroke-width:0.5;"/>
   </g>
   <g id="bf25f4aa9f2c45f39d223202b921f65c-6-node">
    <path clip-path="url(#pc47de2757b)" d="M 905.544947 116.097673 
C 906.171745 116.097673 906.772956 115.573271 907.216169 114.639959 
C 907.659382 113.706647 907.908411 112.440626 907.908411 111.120724 
C 907.908411 109.800821 907.659382 108.534801 907.216169 107.601489 
C 906.772956 106.668177 906.171745 106.143774 905.544947 106.143774 
C 904.918149 106.143774 904.316939 106.668177 903.873726 107.601489 
C 903.430512 108.534801 903.181483 109.800821 903.181483 111.120724 
C 903.181483 112.440626 903.430512 113.706647 903.873726 114.639959 
C 904.316939 115.573271 904.918149 116.097673 905.544947 116.097673 
z
" style="fill:#00c832;stroke:#ffffff;stroke-linejoin:miter;stroke-width:0.5;"/>
   </g>
   <g id="bf25f4aa9f2c45f39d223202b921f65c-7-node">
    <path clip-path="url(#pc47de2757b)" d="M 894.005681 106.143774 
L 894.005681 116.097673 
L 889.278752 116.097673 
L 889.278752 106.143774 
L 894.005681 106.143774 
z
" style="fill:#0000ff;stroke:#ffffff;stroke-linejoin:miter;stroke-width:0.5;"/>
   </g>
   <g id="bf25f4aa9f2c45f39d223202b921f65c-9-node">
    <path clip-path="url(#pc47de2757b)" d="M 877.739486 116.097673 
C 878.366284 116.097673 878.967494 115.573271 879.410707 114.639959 
C 879.85392 113.706647 880.10295 112.440626 880.10295 111.120724 
C 880.10295 109.800821 879.85392 108.534801 879.410707 107.601489 
C 878.967494 106.668177 878.366284 106.143774 877.739486 106.143774 
C 877.112688 106.143774 876.511477 106.668177 876.068264 107.601489 
C 875.625051 108.534801 875.376022 109.800821 875.376022 111.120724 
C 875.376022 112.440626 875.625051 113.706647 876.068264 114.639959 
C 876.511477 115.573271 877.112688 116.097673 877.739486 116.097673 
z
" style="fill:#ffff00;stroke:#ffffff;stroke-linejoin:miter;stroke-width:0.5;"/>
   </g>
   <g id="patch_61">
    <path d="M 827.689655 166.745455 
L 827.689655 43.2 
" style="fill:none;stroke:#ffffff;stroke-linecap:square;stroke-linejoin:miter;stroke-width:1.25;"/>
   </g>
   <g id="patch_62">
    <path d="M 972 166.745455 
L 972 43.2 
" style="fill:none;stroke:#ffffff;stroke-linecap:square;stroke-linejoin:miter;stroke-width:1.25;"/>
   </g>
   <g id="patch_63">
    <path d="M 827.689655 166.745455 
L 972 166.745455 
" style="fill:none;stroke:#ffffff;stroke-linecap:square;stroke-linejoin:miter;stroke-width:1.25;"/>
   </g>
   <g id="patch_64">
    <path d="M 827.689655 43.2 
L 972 43.2 
" style="fill:none;stroke:#ffffff;stroke-linecap:square;stroke-linejoin:miter;stroke-width:1.25;"/>
   </g>
   <g id="text_5">
    <!-- 34:1 -->
    <defs>
     <path d="M 32.328125 0 
L 32.328125 17.140625 
L 1.265625 17.140625 
L 1.265625 25.203125 
L 33.9375 71.578125 
L 41.109375 71.578125 
L 41.109375 25.203125 
L 50.78125 25.203125 
L 50.78125 17.140625 
L 41.109375 17.140625 
L 41.109375 0 
z
M 32.328125 25.203125 
L 32.328125 57.46875 
L 9.90625 25.203125 
z
" id="ArialMT-52"/>
    </defs>
    <g style="fill:#262626;" transform="translate(888.168265 37.2)scale(0.12 -0.12)">
     <use xlink:href="#ArialMT-51"/>
     <use x="55.615234" xlink:href="#ArialMT-52"/>
     <use x="111.230469" xlink:href="#ArialMT-58"/>
     <use x="139.013672" xlink:href="#ArialMT-49"/>
    </g>
   </g>
  </g>
  <g id="axes_6">
   <g id="patch_65">
    <path d="M 135 315 
L 279.310345 315 
L 279.310345 191.454545 
L 135 191.454545 
z
" style="fill:#ffffff;"/>
   </g>
   <g id="patch_66">
    <path clip-path="url(#p8a0b6e2949)" d="M 198.952561 288.651443 
L 185.049831 288.651443 
" style="stroke:#000000;stroke-linejoin:miter;stroke-width:0.5;"/>
   </g>
   <g id="patch_67">
    <path clip-path="url(#p8a0b6e2949)" d="M 212.855292 288.651443 
L 198.952561 288.651443 
" style="stroke:#000000;stroke-linejoin:miter;stroke-width:0.5;"/>
   </g>
   <g id="patch_68">
    <path clip-path="url(#p8a0b6e2949)" d="M 226.758023 274.013356 
L 212.855292 288.651443 
" style="stroke:#000000;stroke-linejoin:miter;stroke-width:0.5;"/>
   </g>
   <g id="patch_69">
    <path clip-path="url(#p8a0b6e2949)" d="M 198.952561 259.375269 
L 185.049831 259.375269 
" style="stroke:#000000;stroke-linejoin:miter;stroke-width:0.5;"/>
   </g>
   <g id="patch_70">
    <path clip-path="url(#p8a0b6e2949)" d="M 212.855292 259.375269 
L 198.952561 259.375269 
" style="stroke:#000000;stroke-linejoin:miter;stroke-width:0.5;"/>
   </g>
   <g id="patch_71">
    <path clip-path="url(#p8a0b6e2949)" d="M 226.758023 274.013356 
L 212.855292 259.375269 
" style="stroke:#000000;stroke-linejoin:miter;stroke-width:0.5;"/>
   </g>
   <g id="patch_72">
    <path clip-path="url(#p8a0b6e2949)" d="M 240.660753 274.013356 
L 226.758023 274.013356 
" style="stroke:#000000;stroke-linejoin:miter;stroke-width:0.5;"/>
   </g>
   <g id="patch_73">
    <path clip-path="url(#p8a0b6e2949)" d="M 254.563484 274.013356 
L 240.660753 274.013356 
" style="stroke:#000000;stroke-linejoin:miter;stroke-width:0.5;"/>
   </g>
   <g id="patch_74">
    <path clip-path="url(#p8a0b6e2949)" d="M 254.563484 274.013356 
L 254.563484 259.375269 
" style="stroke:#000000;stroke-linejoin:miter;stroke-width:0.5;"/>
   </g>
   <g id="88c053b36dd046e09e324674e6d660c4-1-node">
    <path clip-path="url(#p8a0b6e2949)" d="M 256.926948 269.036407 
L 256.926948 278.990306 
L 252.20002 278.990306 
L 252.20002 269.036407 
L 256.926948 269.036407 
z
" style="fill:#0000ff;stroke:#ffffff;stroke-linejoin:miter;stroke-width:0.5;"/>
   </g>
   <g id="88c053b36dd046e09e324674e6d660c4-4-node">
    <path clip-path="url(#p8a0b6e2949)" d="M 243.024218 269.036407 
L 243.024218 278.990306 
L 238.297289 278.990306 
L 238.297289 269.036407 
L 243.024218 269.036407 
z
" style="fill:#0000ff;stroke:#ffffff;stroke-linejoin:miter;stroke-width:0.5;"/>
   </g>
   <g id="88c053b36dd046e09e324674e6d660c4-6-node">
    <path clip-path="url(#p8a0b6e2949)" d="M 226.758023 278.990306 
C 227.384821 278.990306 227.986031 278.465903 228.429244 277.532591 
C 228.872457 276.599279 229.121487 275.333259 229.121487 274.013356 
C 229.121487 272.693454 228.872457 271.427433 228.429244 270.494122 
C 227.986031 269.56081 227.384821 269.036407 226.758023 269.036407 
C 226.131225 269.036407 225.530014 269.56081 225.086801 270.494122 
C 224.643588 271.427433 224.394559 272.693454 224.394559 274.013356 
C 224.394559 275.333259 224.643588 276.599279 225.086801 277.532591 
C 225.530014 278.465903 226.131225 278.990306 226.758023 278.990306 
z
" style="fill:#00c832;stroke:#ffffff;stroke-linejoin:miter;stroke-width:0.5;"/>
   </g>
   <g id="88c053b36dd046e09e324674e6d660c4-11-node">
    <path clip-path="url(#p8a0b6e2949)" d="M 212.855292 293.628393 
C 213.48209 293.628393 214.0833 293.10399 214.526514 292.170678 
C 214.969727 291.237366 215.218756 289.971346 215.218756 288.651443 
C 215.218756 287.331541 214.969727 286.065521 214.526514 285.132209 
C 214.0833 284.198897 213.48209 283.674494 212.855292 283.674494 
C 212.228494 283.674494 211.627284 284.198897 211.18407 285.132209 
C 210.740857 286.065521 210.491828 287.331541 210.491828 288.651443 
C 210.491828 289.971346 210.740857 291.237366 211.18407 292.170678 
C 211.627284 293.10399 212.228494 293.628393 212.855292 293.628393 
z
" style="fill:#00c832;stroke:#ffffff;stroke-linejoin:miter;stroke-width:0.5;"/>
   </g>
   <g id="88c053b36dd046e09e324674e6d660c4-12-node">
    <path clip-path="url(#p8a0b6e2949)" d="M 201.316026 283.674494 
L 201.316026 293.628393 
L 196.589097 293.628393 
L 196.589097 283.674494 
L 201.316026 283.674494 
z
" style="fill:#0000ff;stroke:#ffffff;stroke-linejoin:miter;stroke-width:0.5;"/>
   </g>
   <g id="88c053b36dd046e09e324674e6d660c4-14-node">
    <path clip-path="url(#p8a0b6e2949)" d="M 185.049831 293.628393 
C 185.676629 293.628393 186.277839 293.10399 186.721052 292.170678 
C 187.164265 291.237366 187.413295 289.971346 187.413295 288.651443 
C 187.413295 287.331541 187.164265 286.065521 186.721052 285.132209 
C 186.277839 284.198897 185.676629 283.674494 185.049831 283.674494 
C 184.423033 283.674494 183.821822 284.198897 183.378609 285.132209 
C 182.935396 286.065521 182.686366 287.331541 182.686366 288.651443 
C 182.686366 289.971346 182.935396 291.237366 183.378609 292.170678 
C 183.821822 293.10399 184.423033 293.628393 185.049831 293.628393 
z
" style="fill:#ffff00;stroke:#ffffff;stroke-linejoin:miter;stroke-width:0.5;"/>
   </g>
   <g id="88c053b36dd046e09e324674e6d660c4-7-node">
    <path clip-path="url(#p8a0b6e2949)" d="M 212.855292 264.352219 
C 213.48209 264.352219 214.0833 263.827816 214.526514 262.894504 
C 214.969727 261.961192 215.218756 260.695172 215.218756 259.375269 
C 215.218756 258.055367 214.969727 256.789346 214.526514 255.856034 
C 214.0833 254.922722 213.48209 254.39832 212.855292 254.39832 
C 212.228494 254.39832 211.627284 254.922722 211.18407 255.856034 
C 210.740857 256.789346 210.491828 258.055367 210.491828 259.375269 
C 210.491828 260.695172 210.740857 261.961192 211.18407 262.894504 
C 211.627284 263.827816 212.228494 264.352219 212.855292 264.352219 
z
" style="fill:#00c832;stroke:#ffffff;stroke-linejoin:miter;stroke-width:0.5;"/>
   </g>
   <g id="88c053b36dd046e09e324674e6d660c4-8-node">
    <path clip-path="url(#p8a0b6e2949)" d="M 201.316026 254.39832 
L 201.316026 264.352219 
L 196.589097 264.352219 
L 196.589097 254.39832 
L 201.316026 254.39832 
z
" style="fill:#0000ff;stroke:#ffffff;stroke-linejoin:miter;stroke-width:0.5;"/>
   </g>
   <g id="88c053b36dd046e09e324674e6d660c4-10-node">
    <path clip-path="url(#p8a0b6e2949)" d="M 185.049831 264.352219 
C 185.676629 264.352219 186.277839 263.827816 186.721052 262.894504 
C 187.164265 261.961192 187.413295 260.695172 187.413295 259.375269 
C 187.413295 258.055367 187.164265 256.789346 186.721052 255.856034 
C 186.277839 254.922722 185.676629 254.39832 185.049831 254.39832 
C 184.423033 254.39832 183.821822 254.922722 183.378609 255.856034 
C 182.935396 256.789346 182.686366 258.055367 182.686366 259.375269 
C 182.686366 260.695172 182.935396 261.961192 183.378609 262.894504 
C 183.821822 263.827816 184.423033 264.352219 185.049831 264.352219 
z
" style="fill:#ffff00;stroke:#ffffff;stroke-linejoin:miter;stroke-width:0.5;"/>
   </g>
   <g id="88c053b36dd046e09e324674e6d660c4-3-node">
    <path clip-path="url(#p8a0b6e2949)" d="M 254.563484 254.39832 
L 252.516664 261.863744 
L 256.610304 261.863744 
z
" style="fill:#ff0000;stroke:#ffffff;stroke-linejoin:miter;stroke-width:0.5;"/>
   </g>
   <g id="patch_75">
    <path d="M 135 315 
L 135 191.454545 
" style="fill:none;stroke:#ffffff;stroke-linecap:square;stroke-linejoin:miter;stroke-width:1.25;"/>
   </g>
   <g id="patch_76">
    <path d="M 279.310345 315 
L 279.310345 191.454545 
" style="fill:none;stroke:#ffffff;stroke-linecap:square;stroke-linejoin:miter;stroke-width:1.25;"/>
   </g>
   <g id="patch_77">
    <path d="M 135 315 
L 279.310345 315 
" style="fill:none;stroke:#ffffff;stroke-linecap:square;stroke-linejoin:miter;stroke-width:1.25;"/>
   </g>
   <g id="patch_78">
    <path d="M 135 191.454545 
L 279.310345 191.454545 
" style="fill:none;stroke:#ffffff;stroke-linecap:square;stroke-linejoin:miter;stroke-width:1.25;"/>
   </g>
   <g id="text_6">
    <!-- 65:1 -->
    <defs>
     <path d="M 49.75 54.046875 
L 41.015625 53.375 
Q 39.84375 58.546875 37.703125 60.890625 
Q 34.125 64.65625 28.90625 64.65625 
Q 24.703125 64.65625 21.53125 62.3125 
Q 17.390625 59.28125 14.984375 53.46875 
Q 12.59375 47.65625 12.5 36.921875 
Q 15.671875 41.75 20.265625 44.09375 
Q 24.859375 46.4375 29.890625 46.4375 
Q 38.671875 46.4375 44.84375 39.96875 
Q 51.03125 33.5 51.03125 23.25 
Q 51.03125 16.5 48.125 10.71875 
Q 45.21875 4.9375 40.140625 1.859375 
Q 35.0625 -1.21875 28.609375 -1.21875 
Q 17.625 -1.21875 10.6875 6.859375 
Q 3.765625 14.9375 3.765625 33.5 
Q 3.765625 54.25 11.421875 63.671875 
Q 18.109375 71.875 29.4375 71.875 
Q 37.890625 71.875 43.28125 67.140625 
Q 48.6875 62.40625 49.75 54.046875 
z
M 13.875 23.1875 
Q 13.875 18.65625 15.796875 14.5 
Q 17.71875 10.359375 21.1875 8.171875 
Q 24.65625 6 28.46875 6 
Q 34.03125 6 38.03125 10.484375 
Q 42.046875 14.984375 42.046875 22.703125 
Q 42.046875 30.125 38.078125 34.390625 
Q 34.125 38.671875 28.125 38.671875 
Q 22.171875 38.671875 18.015625 34.390625 
Q 13.875 30.125 13.875 23.1875 
z
" id="ArialMT-54"/>
    </defs>
    <g style="fill:#262626;" transform="translate(195.47861 185.454545)scale(0.12 -0.12)">
     <use xlink:href="#ArialMT-54"/>
     <use x="55.615234" xlink:href="#ArialMT-53"/>
     <use x="111.230469" xlink:href="#ArialMT-58"/>
     <use x="139.013672" xlink:href="#ArialMT-49"/>
    </g>
   </g>
  </g>
  <g id="axes_7">
   <g id="patch_79">
    <path d="M 308.172414 315 
L 452.482759 315 
L 452.482759 191.454545 
L 308.172414 191.454545 
z
" style="fill:#eaeaf2;"/>
   </g>
   <g id="matplotlib.axis_1">
    <g id="xtick_1">
     <g id="line2d_1">
      <path clip-path="url(#pad04b6e01f)" d="M 308.172414 315 
L 308.172414 191.454545 
" style="fill:none;stroke:#ffffff;stroke-linecap:round;"/>
     </g>
     <g id="text_7">
      <!-- 0.00 -->
      <defs>
       <path d="M 4.15625 35.296875 
Q 4.15625 48 6.765625 55.734375 
Q 9.375 63.484375 14.515625 67.671875 
Q 19.671875 71.875 27.484375 71.875 
Q 33.25 71.875 37.59375 69.546875 
Q 41.9375 67.234375 44.765625 62.859375 
Q 47.609375 58.5 49.21875 52.21875 
Q 50.828125 45.953125 50.828125 35.296875 
Q 50.828125 22.703125 48.234375 14.96875 
Q 45.65625 7.234375 40.5 3 
Q 35.359375 -1.21875 27.484375 -1.21875 
Q 17.140625 -1.21875 11.234375 6.203125 
Q 4.15625 15.140625 4.15625 35.296875 
z
M 13.1875 35.296875 
Q 13.1875 17.671875 17.3125 11.828125 
Q 21.4375 6 27.484375 6 
Q 33.546875 6 37.671875 11.859375 
Q 41.796875 17.71875 41.796875 35.296875 
Q 41.796875 52.984375 37.671875 58.78125 
Q 33.546875 64.59375 27.390625 64.59375 
Q 21.34375 64.59375 17.71875 59.46875 
Q 13.1875 52.9375 13.1875 35.296875 
z
" id="ArialMT-48"/>
       <path d="M 9.078125 0 
L 9.078125 10.015625 
L 19.09375 10.015625 
L 19.09375 0 
z
" id="ArialMT-46"/>
      </defs>
      <g style="fill:#262626;" transform="translate(297.468898 332.373594)scale(0.11 -0.11)">
       <use xlink:href="#ArialMT-48"/>
       <use x="55.615234" xlink:href="#ArialMT-46"/>
       <use x="83.398438" xlink:href="#ArialMT-48"/>
       <use x="139.013672" xlink:href="#ArialMT-48"/>
      </g>
     </g>
    </g>
    <g id="xtick_2">
     <g id="line2d_2">
      <path clip-path="url(#pad04b6e01f)" d="M 344.25 315 
L 344.25 191.454545 
" style="fill:none;stroke:#ffffff;stroke-linecap:round;"/>
     </g>
     <g id="text_8">
      <!-- 0.25 -->
      <g style="fill:#262626;" transform="translate(333.546484 332.373594)scale(0.11 -0.11)">
       <use xlink:href="#ArialMT-48"/>
       <use x="55.615234" xlink:href="#ArialMT-46"/>
       <use x="83.398438" xlink:href="#ArialMT-50"/>
       <use x="139.013672" xlink:href="#ArialMT-53"/>
      </g>
     </g>
    </g>
    <g id="xtick_3">
     <g id="line2d_3">
      <path clip-path="url(#pad04b6e01f)" d="M 380.327586 315 
L 380.327586 191.454545 
" style="fill:none;stroke:#ffffff;stroke-linecap:round;"/>
     </g>
     <g id="text_9">
      <!-- 0.50 -->
      <g style="fill:#262626;" transform="translate(369.624071 332.373594)scale(0.11 -0.11)">
       <use xlink:href="#ArialMT-48"/>
       <use x="55.615234" xlink:href="#ArialMT-46"/>
       <use x="83.398438" xlink:href="#ArialMT-53"/>
       <use x="139.013672" xlink:href="#ArialMT-48"/>
      </g>
     </g>
    </g>
    <g id="xtick_4">
     <g id="line2d_4">
      <path clip-path="url(#pad04b6e01f)" d="M 416.405172 315 
L 416.405172 191.454545 
" style="fill:none;stroke:#ffffff;stroke-linecap:round;"/>
     </g>
     <g id="text_10">
      <!-- 0.75 -->
      <g style="fill:#262626;" transform="translate(405.701657 332.373594)scale(0.11 -0.11)">
       <use xlink:href="#ArialMT-48"/>
       <use x="55.615234" xlink:href="#ArialMT-46"/>
       <use x="83.398438" xlink:href="#ArialMT-55"/>
       <use x="139.013672" xlink:href="#ArialMT-53"/>
      </g>
     </g>
    </g>
    <g id="xtick_5">
     <g id="line2d_5">
      <path clip-path="url(#pad04b6e01f)" d="M 452.482759 315 
L 452.482759 191.454545 
" style="fill:none;stroke:#ffffff;stroke-linecap:round;"/>
     </g>
     <g id="text_11">
      <!-- 1.00 -->
      <g style="fill:#262626;" transform="translate(441.779243 332.373594)scale(0.11 -0.11)">
       <use xlink:href="#ArialMT-49"/>
       <use x="55.615234" xlink:href="#ArialMT-46"/>
       <use x="83.398438" xlink:href="#ArialMT-48"/>
       <use x="139.013672" xlink:href="#ArialMT-48"/>
      </g>
     </g>
    </g>
   </g>
   <g id="matplotlib.axis_2">
    <g id="ytick_1">
     <g id="line2d_6">
      <path clip-path="url(#pad04b6e01f)" d="M 308.172414 315 
L 452.482759 315 
" style="fill:none;stroke:#ffffff;stroke-linecap:round;"/>
     </g>
     <g id="text_12">
      <!-- 0.0 -->
      <g style="fill:#262626;" transform="translate(283.382414 318.936797)scale(0.11 -0.11)">
       <use xlink:href="#ArialMT-48"/>
       <use x="55.615234" xlink:href="#ArialMT-46"/>
       <use x="83.398438" xlink:href="#ArialMT-48"/>
      </g>
     </g>
    </g>
    <g id="ytick_2">
     <g id="line2d_7">
      <path clip-path="url(#pad04b6e01f)" d="M 308.172414 290.290909 
L 452.482759 290.290909 
" style="fill:none;stroke:#ffffff;stroke-linecap:round;"/>
     </g>
     <g id="text_13">
      <!-- 0.2 -->
      <g style="fill:#262626;" transform="translate(283.382414 294.227706)scale(0.11 -0.11)">
       <use xlink:href="#ArialMT-48"/>
       <use x="55.615234" xlink:href="#ArialMT-46"/>
       <use x="83.398438" xlink:href="#ArialMT-50"/>
      </g>
     </g>
    </g>
    <g id="ytick_3">
     <g id="line2d_8">
      <path clip-path="url(#pad04b6e01f)" d="M 308.172414 265.581818 
L 452.482759 265.581818 
" style="fill:none;stroke:#ffffff;stroke-linecap:round;"/>
     </g>
     <g id="text_14">
      <!-- 0.4 -->
      <g style="fill:#262626;" transform="translate(283.382414 269.518615)scale(0.11 -0.11)">
       <use xlink:href="#ArialMT-48"/>
       <use x="55.615234" xlink:href="#ArialMT-46"/>
       <use x="83.398438" xlink:href="#ArialMT-52"/>
      </g>
     </g>
    </g>
    <g id="ytick_4">
     <g id="line2d_9">
      <path clip-path="url(#pad04b6e01f)" d="M 308.172414 240.872727 
L 452.482759 240.872727 
" style="fill:none;stroke:#ffffff;stroke-linecap:round;"/>
     </g>
     <g id="text_15">
      <!-- 0.6 -->
      <g style="fill:#262626;" transform="translate(283.382414 244.809524)scale(0.11 -0.11)">
       <use xlink:href="#ArialMT-48"/>
       <use x="55.615234" xlink:href="#ArialMT-46"/>
       <use x="83.398438" xlink:href="#ArialMT-54"/>
      </g>
     </g>
    </g>
    <g id="ytick_5">
     <g id="line2d_10">
      <path clip-path="url(#pad04b6e01f)" d="M 308.172414 216.163636 
L 452.482759 216.163636 
" style="fill:none;stroke:#ffffff;stroke-linecap:round;"/>
     </g>
     <g id="text_16">
      <!-- 0.8 -->
      <defs>
       <path d="M 17.671875 38.8125 
Q 12.203125 40.828125 9.5625 44.53125 
Q 6.9375 48.25 6.9375 53.421875 
Q 6.9375 61.234375 12.546875 66.546875 
Q 18.171875 71.875 27.484375 71.875 
Q 36.859375 71.875 42.578125 66.421875 
Q 48.296875 60.984375 48.296875 53.171875 
Q 48.296875 48.1875 45.671875 44.5 
Q 43.0625 40.828125 37.75 38.8125 
Q 44.34375 36.671875 47.78125 31.875 
Q 51.21875 27.09375 51.21875 20.453125 
Q 51.21875 11.28125 44.71875 5.03125 
Q 38.234375 -1.21875 27.640625 -1.21875 
Q 17.046875 -1.21875 10.546875 5.046875 
Q 4.046875 11.328125 4.046875 20.703125 
Q 4.046875 27.6875 7.59375 32.390625 
Q 11.140625 37.109375 17.671875 38.8125 
z
M 15.921875 53.71875 
Q 15.921875 48.640625 19.1875 45.40625 
Q 22.46875 42.1875 27.6875 42.1875 
Q 32.765625 42.1875 36.015625 45.375 
Q 39.265625 48.578125 39.265625 53.21875 
Q 39.265625 58.0625 35.90625 61.359375 
Q 32.5625 64.65625 27.59375 64.65625 
Q 22.5625 64.65625 19.234375 61.421875 
Q 15.921875 58.203125 15.921875 53.71875 
z
M 13.09375 20.65625 
Q 13.09375 16.890625 14.875 13.375 
Q 16.65625 9.859375 20.171875 7.921875 
Q 23.6875 6 27.734375 6 
Q 34.03125 6 38.125 10.046875 
Q 42.234375 14.109375 42.234375 20.359375 
Q 42.234375 26.703125 38.015625 30.859375 
Q 33.796875 35.015625 27.4375 35.015625 
Q 21.234375 35.015625 17.15625 30.90625 
Q 13.09375 26.8125 13.09375 20.65625 
z
" id="ArialMT-56"/>
      </defs>
      <g style="fill:#262626;" transform="translate(283.382414 220.100433)scale(0.11 -0.11)">
       <use xlink:href="#ArialMT-48"/>
       <use x="55.615234" xlink:href="#ArialMT-46"/>
       <use x="83.398438" xlink:href="#ArialMT-56"/>
      </g>
     </g>
    </g>
    <g id="ytick_6">
     <g id="line2d_11">
      <path clip-path="url(#pad04b6e01f)" d="M 308.172414 191.454545 
L 452.482759 191.454545 
" style="fill:none;stroke:#ffffff;stroke-linecap:round;"/>
     </g>
     <g id="text_17">
      <!-- 1.0 -->
      <g style="fill:#262626;" transform="translate(283.382414 195.391342)scale(0.11 -0.11)">
       <use xlink:href="#ArialMT-49"/>
       <use x="55.615234" xlink:href="#ArialMT-46"/>
       <use x="83.398438" xlink:href="#ArialMT-48"/>
      </g>
     </g>
    </g>
   </g>
   <g id="patch_80">
    <path d="M 308.172414 315 
L 308.172414 191.454545 
" style="fill:none;stroke:#ffffff;stroke-linecap:square;stroke-linejoin:miter;stroke-width:1.25;"/>
   </g>
   <g id="patch_81">
    <path d="M 452.482759 315 
L 452.482759 191.454545 
" style="fill:none;stroke:#ffffff;stroke-linecap:square;stroke-linejoin:miter;stroke-width:1.25;"/>
   </g>
   <g id="patch_82">
    <path d="M 308.172414 315 
L 452.482759 315 
" style="fill:none;stroke:#ffffff;stroke-linecap:square;stroke-linejoin:miter;stroke-width:1.25;"/>
   </g>
   <g id="patch_83">
    <path d="M 308.172414 191.454545 
L 452.482759 191.454545 
" style="fill:none;stroke:#ffffff;stroke-linecap:square;stroke-linejoin:miter;stroke-width:1.25;"/>
   </g>
  </g>
  <g id="axes_8">
   <g id="patch_84">
    <path d="M 481.344828 315 
L 625.655172 315 
L 625.655172 191.454545 
L 481.344828 191.454545 
z
" style="fill:#eaeaf2;"/>
   </g>
   <g id="matplotlib.axis_3">
    <g id="xtick_6">
     <g id="line2d_12">
      <path clip-path="url(#p4eb4bebdb8)" d="M 481.344828 315 
L 481.344828 191.454545 
" style="fill:none;stroke:#ffffff;stroke-linecap:round;"/>
     </g>
     <g id="text_18">
      <!-- 0.00 -->
      <g style="fill:#262626;" transform="translate(470.641312 332.373594)scale(0.11 -0.11)">
       <use xlink:href="#ArialMT-48"/>
       <use x="55.615234" xlink:href="#ArialMT-46"/>
       <use x="83.398438" xlink:href="#ArialMT-48"/>
       <use x="139.013672" xlink:href="#ArialMT-48"/>
      </g>
     </g>
    </g>
    <g id="xtick_7">
     <g id="line2d_13">
      <path clip-path="url(#p4eb4bebdb8)" d="M 517.422414 315 
L 517.422414 191.454545 
" style="fill:none;stroke:#ffffff;stroke-linecap:round;"/>
     </g>
     <g id="text_19">
      <!-- 0.25 -->
      <g style="fill:#262626;" transform="translate(506.718898 332.373594)scale(0.11 -0.11)">
       <use xlink:href="#ArialMT-48"/>
       <use x="55.615234" xlink:href="#ArialMT-46"/>
       <use x="83.398438" xlink:href="#ArialMT-50"/>
       <use x="139.013672" xlink:href="#ArialMT-53"/>
      </g>
     </g>
    </g>
    <g id="xtick_8">
     <g id="line2d_14">
      <path clip-path="url(#p4eb4bebdb8)" d="M 553.5 315 
L 553.5 191.454545 
" style="fill:none;stroke:#ffffff;stroke-linecap:round;"/>
     </g>
     <g id="text_20">
      <!-- 0.50 -->
      <g style="fill:#262626;" transform="translate(542.796484 332.373594)scale(0.11 -0.11)">
       <use xlink:href="#ArialMT-48"/>
       <use x="55.615234" xlink:href="#ArialMT-46"/>
       <use x="83.398438" xlink:href="#ArialMT-53"/>
       <use x="139.013672" xlink:href="#ArialMT-48"/>
      </g>
     </g>
    </g>
    <g id="xtick_9">
     <g id="line2d_15">
      <path clip-path="url(#p4eb4bebdb8)" d="M 589.577586 315 
L 589.577586 191.454545 
" style="fill:none;stroke:#ffffff;stroke-linecap:round;"/>
     </g>
     <g id="text_21">
      <!-- 0.75 -->
      <g style="fill:#262626;" transform="translate(578.874071 332.373594)scale(0.11 -0.11)">
       <use xlink:href="#ArialMT-48"/>
       <use x="55.615234" xlink:href="#ArialMT-46"/>
       <use x="83.398438" xlink:href="#ArialMT-55"/>
       <use x="139.013672" xlink:href="#ArialMT-53"/>
      </g>
     </g>
    </g>
    <g id="xtick_10">
     <g id="line2d_16">
      <path clip-path="url(#p4eb4bebdb8)" d="M 625.655172 315 
L 625.655172 191.454545 
" style="fill:none;stroke:#ffffff;stroke-linecap:round;"/>
     </g>
     <g id="text_22">
      <!-- 1.00 -->
      <g style="fill:#262626;" transform="translate(614.951657 332.373594)scale(0.11 -0.11)">
       <use xlink:href="#ArialMT-49"/>
       <use x="55.615234" xlink:href="#ArialMT-46"/>
       <use x="83.398438" xlink:href="#ArialMT-48"/>
       <use x="139.013672" xlink:href="#ArialMT-48"/>
      </g>
     </g>
    </g>
   </g>
   <g id="matplotlib.axis_4">
    <g id="ytick_7">
     <g id="line2d_17">
      <path clip-path="url(#p4eb4bebdb8)" d="M 481.344828 315 
L 625.655172 315 
" style="fill:none;stroke:#ffffff;stroke-linecap:round;"/>
     </g>
     <g id="text_23">
      <!-- 0.0 -->
      <g style="fill:#262626;" transform="translate(456.554828 318.936797)scale(0.11 -0.11)">
       <use xlink:href="#ArialMT-48"/>
       <use x="55.615234" xlink:href="#ArialMT-46"/>
       <use x="83.398438" xlink:href="#ArialMT-48"/>
      </g>
     </g>
    </g>
    <g id="ytick_8">
     <g id="line2d_18">
      <path clip-path="url(#p4eb4bebdb8)" d="M 481.344828 290.290909 
L 625.655172 290.290909 
" style="fill:none;stroke:#ffffff;stroke-linecap:round;"/>
     </g>
     <g id="text_24">
      <!-- 0.2 -->
      <g style="fill:#262626;" transform="translate(456.554828 294.227706)scale(0.11 -0.11)">
       <use xlink:href="#ArialMT-48"/>
       <use x="55.615234" xlink:href="#ArialMT-46"/>
       <use x="83.398438" xlink:href="#ArialMT-50"/>
      </g>
     </g>
    </g>
    <g id="ytick_9">
     <g id="line2d_19">
      <path clip-path="url(#p4eb4bebdb8)" d="M 481.344828 265.581818 
L 625.655172 265.581818 
" style="fill:none;stroke:#ffffff;stroke-linecap:round;"/>
     </g>
     <g id="text_25">
      <!-- 0.4 -->
      <g style="fill:#262626;" transform="translate(456.554828 269.518615)scale(0.11 -0.11)">
       <use xlink:href="#ArialMT-48"/>
       <use x="55.615234" xlink:href="#ArialMT-46"/>
       <use x="83.398438" xlink:href="#ArialMT-52"/>
      </g>
     </g>
    </g>
    <g id="ytick_10">
     <g id="line2d_20">
      <path clip-path="url(#p4eb4bebdb8)" d="M 481.344828 240.872727 
L 625.655172 240.872727 
" style="fill:none;stroke:#ffffff;stroke-linecap:round;"/>
     </g>
     <g id="text_26">
      <!-- 0.6 -->
      <g style="fill:#262626;" transform="translate(456.554828 244.809524)scale(0.11 -0.11)">
       <use xlink:href="#ArialMT-48"/>
       <use x="55.615234" xlink:href="#ArialMT-46"/>
       <use x="83.398438" xlink:href="#ArialMT-54"/>
      </g>
     </g>
    </g>
    <g id="ytick_11">
     <g id="line2d_21">
      <path clip-path="url(#p4eb4bebdb8)" d="M 481.344828 216.163636 
L 625.655172 216.163636 
" style="fill:none;stroke:#ffffff;stroke-linecap:round;"/>
     </g>
     <g id="text_27">
      <!-- 0.8 -->
      <g style="fill:#262626;" transform="translate(456.554828 220.100433)scale(0.11 -0.11)">
       <use xlink:href="#ArialMT-48"/>
       <use x="55.615234" xlink:href="#ArialMT-46"/>
       <use x="83.398438" xlink:href="#ArialMT-56"/>
      </g>
     </g>
    </g>
    <g id="ytick_12">
     <g id="line2d_22">
      <path clip-path="url(#p4eb4bebdb8)" d="M 481.344828 191.454545 
L 625.655172 191.454545 
" style="fill:none;stroke:#ffffff;stroke-linecap:round;"/>
     </g>
     <g id="text_28">
      <!-- 1.0 -->
      <g style="fill:#262626;" transform="translate(456.554828 195.391342)scale(0.11 -0.11)">
       <use xlink:href="#ArialMT-49"/>
       <use x="55.615234" xlink:href="#ArialMT-46"/>
       <use x="83.398438" xlink:href="#ArialMT-48"/>
      </g>
     </g>
    </g>
   </g>
   <g id="patch_85">
    <path d="M 481.344828 315 
L 481.344828 191.454545 
" style="fill:none;stroke:#ffffff;stroke-linecap:square;stroke-linejoin:miter;stroke-width:1.25;"/>
   </g>
   <g id="patch_86">
    <path d="M 625.655172 315 
L 625.655172 191.454545 
" style="fill:none;stroke:#ffffff;stroke-linecap:square;stroke-linejoin:miter;stroke-width:1.25;"/>
   </g>
   <g id="patch_87">
    <path d="M 481.344828 315 
L 625.655172 315 
" style="fill:none;stroke:#ffffff;stroke-linecap:square;stroke-linejoin:miter;stroke-width:1.25;"/>
   </g>
   <g id="patch_88">
    <path d="M 481.344828 191.454545 
L 625.655172 191.454545 
" style="fill:none;stroke:#ffffff;stroke-linecap:square;stroke-linejoin:miter;stroke-width:1.25;"/>
   </g>
  </g>
  <g id="axes_9">
   <g id="patch_89">
    <path d="M 654.517241 315 
L 798.827586 315 
L 798.827586 191.454545 
L 654.517241 191.454545 
z
" style="fill:#eaeaf2;"/>
   </g>
   <g id="matplotlib.axis_5">
    <g id="xtick_11">
     <g id="line2d_23">
      <path clip-path="url(#p43dc4cdb9a)" d="M 654.517241 315 
L 654.517241 191.454545 
" style="fill:none;stroke:#ffffff;stroke-linecap:round;"/>
     </g>
     <g id="text_29">
      <!-- 0.00 -->
      <g style="fill:#262626;" transform="translate(643.813726 332.373594)scale(0.11 -0.11)">
       <use xlink:href="#ArialMT-48"/>
       <use x="55.615234" xlink:href="#ArialMT-46"/>
       <use x="83.398438" xlink:href="#ArialMT-48"/>
       <use x="139.013672" xlink:href="#ArialMT-48"/>
      </g>
     </g>
    </g>
    <g id="xtick_12">
     <g id="line2d_24">
      <path clip-path="url(#p43dc4cdb9a)" d="M 690.594828 315 
L 690.594828 191.454545 
" style="fill:none;stroke:#ffffff;stroke-linecap:round;"/>
     </g>
     <g id="text_30">
      <!-- 0.25 -->
      <g style="fill:#262626;" transform="translate(679.891312 332.373594)scale(0.11 -0.11)">
       <use xlink:href="#ArialMT-48"/>
       <use x="55.615234" xlink:href="#ArialMT-46"/>
       <use x="83.398438" xlink:href="#ArialMT-50"/>
       <use x="139.013672" xlink:href="#ArialMT-53"/>
      </g>
     </g>
    </g>
    <g id="xtick_13">
     <g id="line2d_25">
      <path clip-path="url(#p43dc4cdb9a)" d="M 726.672414 315 
L 726.672414 191.454545 
" style="fill:none;stroke:#ffffff;stroke-linecap:round;"/>
     </g>
     <g id="text_31">
      <!-- 0.50 -->
      <g style="fill:#262626;" transform="translate(715.968898 332.373594)scale(0.11 -0.11)">
       <use xlink:href="#ArialMT-48"/>
       <use x="55.615234" xlink:href="#ArialMT-46"/>
       <use x="83.398438" xlink:href="#ArialMT-53"/>
       <use x="139.013672" xlink:href="#ArialMT-48"/>
      </g>
     </g>
    </g>
    <g id="xtick_14">
     <g id="line2d_26">
      <path clip-path="url(#p43dc4cdb9a)" d="M 762.75 315 
L 762.75 191.454545 
" style="fill:none;stroke:#ffffff;stroke-linecap:round;"/>
     </g>
     <g id="text_32">
      <!-- 0.75 -->
      <g style="fill:#262626;" transform="translate(752.046484 332.373594)scale(0.11 -0.11)">
       <use xlink:href="#ArialMT-48"/>
       <use x="55.615234" xlink:href="#ArialMT-46"/>
       <use x="83.398438" xlink:href="#ArialMT-55"/>
       <use x="139.013672" xlink:href="#ArialMT-53"/>
      </g>
     </g>
    </g>
    <g id="xtick_15">
     <g id="line2d_27">
      <path clip-path="url(#p43dc4cdb9a)" d="M 798.827586 315 
L 798.827586 191.454545 
" style="fill:none;stroke:#ffffff;stroke-linecap:round;"/>
     </g>
     <g id="text_33">
      <!-- 1.00 -->
      <g style="fill:#262626;" transform="translate(788.124071 332.373594)scale(0.11 -0.11)">
       <use xlink:href="#ArialMT-49"/>
       <use x="55.615234" xlink:href="#ArialMT-46"/>
       <use x="83.398438" xlink:href="#ArialMT-48"/>
       <use x="139.013672" xlink:href="#ArialMT-48"/>
      </g>
     </g>
    </g>
   </g>
   <g id="matplotlib.axis_6">
    <g id="ytick_13">
     <g id="line2d_28">
      <path clip-path="url(#p43dc4cdb9a)" d="M 654.517241 315 
L 798.827586 315 
" style="fill:none;stroke:#ffffff;stroke-linecap:round;"/>
     </g>
     <g id="text_34">
      <!-- 0.0 -->
      <g style="fill:#262626;" transform="translate(629.727241 318.936797)scale(0.11 -0.11)">
       <use xlink:href="#ArialMT-48"/>
       <use x="55.615234" xlink:href="#ArialMT-46"/>
       <use x="83.398438" xlink:href="#ArialMT-48"/>
      </g>
     </g>
    </g>
    <g id="ytick_14">
     <g id="line2d_29">
      <path clip-path="url(#p43dc4cdb9a)" d="M 654.517241 290.290909 
L 798.827586 290.290909 
" style="fill:none;stroke:#ffffff;stroke-linecap:round;"/>
     </g>
     <g id="text_35">
      <!-- 0.2 -->
      <g style="fill:#262626;" transform="translate(629.727241 294.227706)scale(0.11 -0.11)">
       <use xlink:href="#ArialMT-48"/>
       <use x="55.615234" xlink:href="#ArialMT-46"/>
       <use x="83.398438" xlink:href="#ArialMT-50"/>
      </g>
     </g>
    </g>
    <g id="ytick_15">
     <g id="line2d_30">
      <path clip-path="url(#p43dc4cdb9a)" d="M 654.517241 265.581818 
L 798.827586 265.581818 
" style="fill:none;stroke:#ffffff;stroke-linecap:round;"/>
     </g>
     <g id="text_36">
      <!-- 0.4 -->
      <g style="fill:#262626;" transform="translate(629.727241 269.518615)scale(0.11 -0.11)">
       <use xlink:href="#ArialMT-48"/>
       <use x="55.615234" xlink:href="#ArialMT-46"/>
       <use x="83.398438" xlink:href="#ArialMT-52"/>
      </g>
     </g>
    </g>
    <g id="ytick_16">
     <g id="line2d_31">
      <path clip-path="url(#p43dc4cdb9a)" d="M 654.517241 240.872727 
L 798.827586 240.872727 
" style="fill:none;stroke:#ffffff;stroke-linecap:round;"/>
     </g>
     <g id="text_37">
      <!-- 0.6 -->
      <g style="fill:#262626;" transform="translate(629.727241 244.809524)scale(0.11 -0.11)">
       <use xlink:href="#ArialMT-48"/>
       <use x="55.615234" xlink:href="#ArialMT-46"/>
       <use x="83.398438" xlink:href="#ArialMT-54"/>
      </g>
     </g>
    </g>
    <g id="ytick_17">
     <g id="line2d_32">
      <path clip-path="url(#p43dc4cdb9a)" d="M 654.517241 216.163636 
L 798.827586 216.163636 
" style="fill:none;stroke:#ffffff;stroke-linecap:round;"/>
     </g>
     <g id="text_38">
      <!-- 0.8 -->
      <g style="fill:#262626;" transform="translate(629.727241 220.100433)scale(0.11 -0.11)">
       <use xlink:href="#ArialMT-48"/>
       <use x="55.615234" xlink:href="#ArialMT-46"/>
       <use x="83.398438" xlink:href="#ArialMT-56"/>
      </g>
     </g>
    </g>
    <g id="ytick_18">
     <g id="line2d_33">
      <path clip-path="url(#p43dc4cdb9a)" d="M 654.517241 191.454545 
L 798.827586 191.454545 
" style="fill:none;stroke:#ffffff;stroke-linecap:round;"/>
     </g>
     <g id="text_39">
      <!-- 1.0 -->
      <g style="fill:#262626;" transform="translate(629.727241 195.391342)scale(0.11 -0.11)">
       <use xlink:href="#ArialMT-49"/>
       <use x="55.615234" xlink:href="#ArialMT-46"/>
       <use x="83.398438" xlink:href="#ArialMT-48"/>
      </g>
     </g>
    </g>
   </g>
   <g id="patch_90">
    <path d="M 654.517241 315 
L 654.517241 191.454545 
" style="fill:none;stroke:#ffffff;stroke-linecap:square;stroke-linejoin:miter;stroke-width:1.25;"/>
   </g>
   <g id="patch_91">
    <path d="M 798.827586 315 
L 798.827586 191.454545 
" style="fill:none;stroke:#ffffff;stroke-linecap:square;stroke-linejoin:miter;stroke-width:1.25;"/>
   </g>
   <g id="patch_92">
    <path d="M 654.517241 315 
L 798.827586 315 
" style="fill:none;stroke:#ffffff;stroke-linecap:square;stroke-linejoin:miter;stroke-width:1.25;"/>
   </g>
   <g id="patch_93">
    <path d="M 654.517241 191.454545 
L 798.827586 191.454545 
" style="fill:none;stroke:#ffffff;stroke-linecap:square;stroke-linejoin:miter;stroke-width:1.25;"/>
   </g>
  </g>
  <g id="axes_10">
   <g id="patch_94">
    <path d="M 827.689655 315 
L 972 315 
L 972 191.454545 
L 827.689655 191.454545 
z
" style="fill:#eaeaf2;"/>
   </g>
   <g id="matplotlib.axis_7">
    <g id="xtick_16">
     <g id="line2d_34">
      <path clip-path="url(#p58883f99b0)" d="M 827.689655 315 
L 827.689655 191.454545 
" style="fill:none;stroke:#ffffff;stroke-linecap:round;"/>
     </g>
     <g id="text_40">
      <!-- 0.00 -->
      <g style="fill:#262626;" transform="translate(816.98614 332.373594)scale(0.11 -0.11)">
       <use xlink:href="#ArialMT-48"/>
       <use x="55.615234" xlink:href="#ArialMT-46"/>
       <use x="83.398438" xlink:href="#ArialMT-48"/>
       <use x="139.013672" xlink:href="#ArialMT-48"/>
      </g>
     </g>
    </g>
    <g id="xtick_17">
     <g id="line2d_35">
      <path clip-path="url(#p58883f99b0)" d="M 863.767241 315 
L 863.767241 191.454545 
" style="fill:none;stroke:#ffffff;stroke-linecap:round;"/>
     </g>
     <g id="text_41">
      <!-- 0.25 -->
      <g style="fill:#262626;" transform="translate(853.063726 332.373594)scale(0.11 -0.11)">
       <use xlink:href="#ArialMT-48"/>
       <use x="55.615234" xlink:href="#ArialMT-46"/>
       <use x="83.398438" xlink:href="#ArialMT-50"/>
       <use x="139.013672" xlink:href="#ArialMT-53"/>
      </g>
     </g>
    </g>
    <g id="xtick_18">
     <g id="line2d_36">
      <path clip-path="url(#p58883f99b0)" d="M 899.844828 315 
L 899.844828 191.454545 
" style="fill:none;stroke:#ffffff;stroke-linecap:round;"/>
     </g>
     <g id="text_42">
      <!-- 0.50 -->
      <g style="fill:#262626;" transform="translate(889.141312 332.373594)scale(0.11 -0.11)">
       <use xlink:href="#ArialMT-48"/>
       <use x="55.615234" xlink:href="#ArialMT-46"/>
       <use x="83.398438" xlink:href="#ArialMT-53"/>
       <use x="139.013672" xlink:href="#ArialMT-48"/>
      </g>
     </g>
    </g>
    <g id="xtick_19">
     <g id="line2d_37">
      <path clip-path="url(#p58883f99b0)" d="M 935.922414 315 
L 935.922414 191.454545 
" style="fill:none;stroke:#ffffff;stroke-linecap:round;"/>
     </g>
     <g id="text_43">
      <!-- 0.75 -->
      <g style="fill:#262626;" transform="translate(925.218898 332.373594)scale(0.11 -0.11)">
       <use xlink:href="#ArialMT-48"/>
       <use x="55.615234" xlink:href="#ArialMT-46"/>
       <use x="83.398438" xlink:href="#ArialMT-55"/>
       <use x="139.013672" xlink:href="#ArialMT-53"/>
      </g>
     </g>
    </g>
    <g id="xtick_20">
     <g id="line2d_38">
      <path clip-path="url(#p58883f99b0)" d="M 972 315 
L 972 191.454545 
" style="fill:none;stroke:#ffffff;stroke-linecap:round;"/>
     </g>
     <g id="text_44">
      <!-- 1.00 -->
      <g style="fill:#262626;" transform="translate(961.296484 332.373594)scale(0.11 -0.11)">
       <use xlink:href="#ArialMT-49"/>
       <use x="55.615234" xlink:href="#ArialMT-46"/>
       <use x="83.398438" xlink:href="#ArialMT-48"/>
       <use x="139.013672" xlink:href="#ArialMT-48"/>
      </g>
     </g>
    </g>
   </g>
   <g id="matplotlib.axis_8">
    <g id="ytick_19">
     <g id="line2d_39">
      <path clip-path="url(#p58883f99b0)" d="M 827.689655 315 
L 972 315 
" style="fill:none;stroke:#ffffff;stroke-linecap:round;"/>
     </g>
     <g id="text_45">
      <!-- 0.0 -->
      <g style="fill:#262626;" transform="translate(802.899655 318.936797)scale(0.11 -0.11)">
       <use xlink:href="#ArialMT-48"/>
       <use x="55.615234" xlink:href="#ArialMT-46"/>
       <use x="83.398438" xlink:href="#ArialMT-48"/>
      </g>
     </g>
    </g>
    <g id="ytick_20">
     <g id="line2d_40">
      <path clip-path="url(#p58883f99b0)" d="M 827.689655 290.290909 
L 972 290.290909 
" style="fill:none;stroke:#ffffff;stroke-linecap:round;"/>
     </g>
     <g id="text_46">
      <!-- 0.2 -->
      <g style="fill:#262626;" transform="translate(802.899655 294.227706)scale(0.11 -0.11)">
       <use xlink:href="#ArialMT-48"/>
       <use x="55.615234" xlink:href="#ArialMT-46"/>
       <use x="83.398438" xlink:href="#ArialMT-50"/>
      </g>
     </g>
    </g>
    <g id="ytick_21">
     <g id="line2d_41">
      <path clip-path="url(#p58883f99b0)" d="M 827.689655 265.581818 
L 972 265.581818 
" style="fill:none;stroke:#ffffff;stroke-linecap:round;"/>
     </g>
     <g id="text_47">
      <!-- 0.4 -->
      <g style="fill:#262626;" transform="translate(802.899655 269.518615)scale(0.11 -0.11)">
       <use xlink:href="#ArialMT-48"/>
       <use x="55.615234" xlink:href="#ArialMT-46"/>
       <use x="83.398438" xlink:href="#ArialMT-52"/>
      </g>
     </g>
    </g>
    <g id="ytick_22">
     <g id="line2d_42">
      <path clip-path="url(#p58883f99b0)" d="M 827.689655 240.872727 
L 972 240.872727 
" style="fill:none;stroke:#ffffff;stroke-linecap:round;"/>
     </g>
     <g id="text_48">
      <!-- 0.6 -->
      <g style="fill:#262626;" transform="translate(802.899655 244.809524)scale(0.11 -0.11)">
       <use xlink:href="#ArialMT-48"/>
       <use x="55.615234" xlink:href="#ArialMT-46"/>
       <use x="83.398438" xlink:href="#ArialMT-54"/>
      </g>
     </g>
    </g>
    <g id="ytick_23">
     <g id="line2d_43">
      <path clip-path="url(#p58883f99b0)" d="M 827.689655 216.163636 
L 972 216.163636 
" style="fill:none;stroke:#ffffff;stroke-linecap:round;"/>
     </g>
     <g id="text_49">
      <!-- 0.8 -->
      <g style="fill:#262626;" transform="translate(802.899655 220.100433)scale(0.11 -0.11)">
       <use xlink:href="#ArialMT-48"/>
       <use x="55.615234" xlink:href="#ArialMT-46"/>
       <use x="83.398438" xlink:href="#ArialMT-56"/>
      </g>
     </g>
    </g>
    <g id="ytick_24">
     <g id="line2d_44">
      <path clip-path="url(#p58883f99b0)" d="M 827.689655 191.454545 
L 972 191.454545 
" style="fill:none;stroke:#ffffff;stroke-linecap:round;"/>
     </g>
     <g id="text_50">
      <!-- 1.0 -->
      <g style="fill:#262626;" transform="translate(802.899655 195.391342)scale(0.11 -0.11)">
       <use xlink:href="#ArialMT-49"/>
       <use x="55.615234" xlink:href="#ArialMT-46"/>
       <use x="83.398438" xlink:href="#ArialMT-48"/>
      </g>
     </g>
    </g>
   </g>
   <g id="patch_95">
    <path d="M 827.689655 315 
L 827.689655 191.454545 
" style="fill:none;stroke:#ffffff;stroke-linecap:square;stroke-linejoin:miter;stroke-width:1.25;"/>
   </g>
   <g id="patch_96">
    <path d="M 972 315 
L 972 191.454545 
" style="fill:none;stroke:#ffffff;stroke-linecap:square;stroke-linejoin:miter;stroke-width:1.25;"/>
   </g>
   <g id="patch_97">
    <path d="M 827.689655 315 
L 972 315 
" style="fill:none;stroke:#ffffff;stroke-linecap:square;stroke-linejoin:miter;stroke-width:1.25;"/>
   </g>
   <g id="patch_98">
    <path d="M 827.689655 191.454545 
L 972 191.454545 
" style="fill:none;stroke:#ffffff;stroke-linecap:square;stroke-linejoin:miter;stroke-width:1.25;"/>
   </g>
   <g id="text_51">
    <!-- 9 -->
    <g style="fill:#262626;" transform="translate(896.508265 185.454545)scale(0.12 -0.12)">
     <use xlink:href="#ArialMT-57"/>
    </g>
   </g>
  </g>
 </g>
 <defs>
  <clipPath id="pba6e995238">
   <rect height="123.545455" width="144.310345" x="135" y="43.2"/>
  </clipPath>
  <clipPath id="ped60f1306c">
   <rect height="123.545455" width="144.310345" x="308.172414" y="43.2"/>
  </clipPath>
  <clipPath id="p528ff360c9">
   <rect height="123.545455" width="144.310345" x="481.344828" y="43.2"/>
  </clipPath>
  <clipPath id="pc1a27528d8">
   <rect height="123.545455" width="144.310345" x="654.517241" y="43.2"/>
  </clipPath>
  <clipPath id="pc47de2757b">
   <rect height="123.545455" width="144.310345" x="827.689655" y="43.2"/>
  </clipPath>
  <clipPath id="p8a0b6e2949">
   <rect height="123.545455" width="144.310345" x="135" y="191.454545"/>
  </clipPath>
  <clipPath id="pad04b6e01f">
   <rect height="123.545455" width="144.310345" x="308.172414" y="191.454545"/>
  </clipPath>
  <clipPath id="p4eb4bebdb8">
   <rect height="123.545455" width="144.310345" x="481.344828" y="191.454545"/>
  </clipPath>
  <clipPath id="p43dc4cdb9a">
   <rect height="123.545455" width="144.310345" x="654.517241" y="191.454545"/>
  </clipPath>
  <clipPath id="p58883f99b0">
   <rect height="123.545455" width="144.310345" x="827.689655" y="191.454545"/>
  </clipPath>
 </defs>
</svg>
