<?xml version="1.0" encoding="utf-8" standalone="no"?>
<!DOCTYPE svg PUBLIC "-//W3C//DTD SVG 1.1//EN"
  "http://www.w3.org/Graphics/SVG/1.1/DTD/svg11.dtd">
<!-- Created with matplotlib (https://matplotlib.org/) -->
<svg height="180pt" version="1.1" viewBox="0 0 1080 180" width="1080pt" xmlns="http://www.w3.org/2000/svg" xmlns:xlink="http://www.w3.org/1999/xlink">
 <defs>
  <style type="text/css">
*{stroke-linecap:butt;stroke-linejoin:round;}
  </style>
 </defs>
 <g id="figure_1">
  <g id="patch_1">
   <path d="M 0 180 
L 1080 180 
L 1080 0 
L 0 0 
z
" style="fill:#ffffff;"/>
  </g>
  <g id="axes_1">
   <g id="patch_2">
    <path d="M 135 157.5 
L 279.310345 157.5 
L 279.310345 21.6 
L 135 21.6 
z
" style="fill:#ffffff;"/>
   </g>
   <g id="patch_3">
    <path clip-path="url(#pe407d0a8e9)" d="M 193.078818 135.601422 
L 181.995074 135.601422 
" style="stroke:#000000;stroke-linejoin:miter;stroke-width:0.5;"/>
   </g>
   <g id="patch_4">
    <path clip-path="url(#pe407d0a8e9)" d="M 204.162562 135.601422 
L 193.078818 135.601422 
" style="stroke:#000000;stroke-linejoin:miter;stroke-width:0.5;"/>
   </g>
   <g id="patch_5">
    <path clip-path="url(#pe407d0a8e9)" d="M 215.246305 135.601422 
L 204.162562 135.601422 
" style="stroke:#000000;stroke-linejoin:miter;stroke-width:0.5;"/>
   </g>
   <g id="patch_6">
    <path clip-path="url(#pe407d0a8e9)" d="M 226.330049 135.601422 
L 215.246305 135.601422 
" style="stroke:#000000;stroke-linejoin:miter;stroke-width:0.5;"/>
   </g>
   <g id="patch_7">
    <path clip-path="url(#pe407d0a8e9)" d="M 237.413793 119.499526 
L 226.330049 135.601422 
" style="stroke:#000000;stroke-linejoin:miter;stroke-width:0.5;"/>
   </g>
   <g id="patch_8">
    <path clip-path="url(#pe407d0a8e9)" d="M 237.413793 119.499526 
L 226.330049 103.39763 
" style="stroke:#000000;stroke-linejoin:miter;stroke-width:0.5;"/>
   </g>
   <g id="patch_9">
    <path clip-path="url(#pe407d0a8e9)" d="M 248.497537 119.499526 
L 237.413793 119.499526 
" style="stroke:#000000;stroke-linejoin:miter;stroke-width:0.5;"/>
   </g>
   <g id="patch_10">
    <path clip-path="url(#pe407d0a8e9)" d="M 259.581281 119.499526 
L 248.497537 119.499526 
" style="stroke:#000000;stroke-linejoin:miter;stroke-width:0.5;"/>
   </g>
   <g id="27265d36218e451ba335787e4596b97d-1-node">
    <path clip-path="url(#pe407d0a8e9)" d="M 261.465517 114.024882 
L 261.465517 124.974171 
L 257.697044 124.974171 
L 257.697044 114.024882 
L 261.465517 114.024882 
z
" style="fill:#0000ff;stroke:#ffffff;stroke-linejoin:miter;stroke-width:0.5;"/>
   </g>
   <g id="27265d36218e451ba335787e4596b97d-3-node">
    <path clip-path="url(#pe407d0a8e9)" d="M 250.381773 114.024882 
L 250.381773 124.974171 
L 246.6133 124.974171 
L 246.6133 114.024882 
L 250.381773 114.024882 
z
" style="fill:#0000ff;stroke:#ffffff;stroke-linejoin:miter;stroke-width:0.5;"/>
   </g>
   <g id="27265d36218e451ba335787e4596b97d-5-node">
    <path clip-path="url(#pe407d0a8e9)" d="M 237.413793 124.974171 
C 237.913498 124.974171 238.392804 124.397328 238.746149 123.370684 
C 239.099495 122.344041 239.29803 120.951419 239.29803 119.499526 
C 239.29803 118.047633 239.099495 116.655011 238.746149 115.628368 
C 238.392804 114.601725 237.913498 114.024882 237.413793 114.024882 
C 236.914088 114.024882 236.434782 114.601725 236.081437 115.628368 
C 235.728092 116.655011 235.529557 118.047633 235.529557 119.499526 
C 235.529557 120.951419 235.728092 122.344041 236.081437 123.370684 
C 236.434782 124.397328 236.914088 124.974171 237.413793 124.974171 
z
" style="fill:#00c832;stroke:#ffffff;stroke-linejoin:miter;stroke-width:0.5;"/>
   </g>
   <g id="27265d36218e451ba335787e4596b97d-7-node">
    <path clip-path="url(#pe407d0a8e9)" d="M 226.330049 141.076066 
C 226.829755 141.076066 227.309061 140.499223 227.662406 139.47258 
C 228.015751 138.445937 228.214286 137.053315 228.214286 135.601422 
C 228.214286 134.149529 228.015751 132.756907 227.662406 131.730264 
C 227.309061 130.70362 226.829755 130.126777 226.330049 130.126777 
C 225.830344 130.126777 225.351038 130.70362 224.997693 131.730264 
C 224.644348 132.756907 224.445813 134.149529 224.445813 135.601422 
C 224.445813 137.053315 224.644348 138.445937 224.997693 139.47258 
C 225.351038 140.499223 225.830344 141.076066 226.330049 141.076066 
z
" style="fill:#00c832;stroke:#ffffff;stroke-linejoin:miter;stroke-width:0.5;"/>
   </g>
   <g id="27265d36218e451ba335787e4596b97d-8-node">
    <path clip-path="url(#pe407d0a8e9)" d="M 217.130542 130.126777 
L 217.130542 141.076066 
L 213.362069 141.076066 
L 213.362069 130.126777 
L 217.130542 130.126777 
z
" style="fill:#0000ff;stroke:#ffffff;stroke-linejoin:miter;stroke-width:0.5;"/>
   </g>
   <g id="27265d36218e451ba335787e4596b97d-10-node">
    <path clip-path="url(#pe407d0a8e9)" d="M 204.162562 141.076066 
C 204.662267 141.076066 205.141573 140.499223 205.494918 139.47258 
C 205.848263 138.445937 206.046798 137.053315 206.046798 135.601422 
C 206.046798 134.149529 205.848263 132.756907 205.494918 131.730264 
C 205.141573 130.70362 204.662267 130.126777 204.162562 130.126777 
C 203.662856 130.126777 203.18355 130.70362 202.830205 131.730264 
C 202.47686 132.756907 202.278325 134.149529 202.278325 135.601422 
C 202.278325 137.053315 202.47686 138.445937 202.830205 139.47258 
C 203.18355 140.499223 203.662856 141.076066 204.162562 141.076066 
z
" style="fill:#ffff00;stroke:#ffffff;stroke-linejoin:miter;stroke-width:0.5;"/>
   </g>
   <g id="27265d36218e451ba335787e4596b97d-11-node">
    <path clip-path="url(#pe407d0a8e9)" d="M 194.963054 130.126777 
L 194.963054 141.076066 
L 191.194581 141.076066 
L 191.194581 130.126777 
L 194.963054 130.126777 
z
" style="fill:#0000ff;stroke:#ffffff;stroke-linejoin:miter;stroke-width:0.5;"/>
   </g>
   <g id="27265d36218e451ba335787e4596b97d-13-node">
    <path clip-path="url(#pe407d0a8e9)" d="M 181.995074 141.076066 
C 182.494779 141.076066 182.974085 140.499223 183.32743 139.47258 
C 183.680775 138.445937 183.87931 137.053315 183.87931 135.601422 
C 183.87931 134.149529 183.680775 132.756907 183.32743 131.730264 
C 182.974085 130.70362 182.494779 130.126777 181.995074 130.126777 
C 181.495369 130.126777 181.016063 130.70362 180.662718 131.730264 
C 180.309372 132.756907 180.110837 134.149529 180.110837 135.601422 
C 180.110837 137.053315 180.309372 138.445937 180.662718 139.47258 
C 181.016063 140.499223 181.495369 141.076066 181.995074 141.076066 
z
" style="fill:#ffff00;stroke:#ffffff;stroke-linejoin:miter;stroke-width:0.5;"/>
   </g>
   <g id="27265d36218e451ba335787e4596b97d-6-node">
    <path clip-path="url(#pe407d0a8e9)" d="M 226.330049 108.872275 
C 226.829755 108.872275 227.309061 108.295432 227.662406 107.268789 
C 228.015751 106.242145 228.214286 104.849523 228.214286 103.39763 
C 228.214286 101.945738 228.015751 100.553115 227.662406 99.526472 
C 227.309061 98.499829 226.829755 97.922986 226.330049 97.922986 
C 225.830344 97.922986 225.351038 98.499829 224.997693 99.526472 
C 224.644348 100.553115 224.445813 101.945738 224.445813 103.39763 
C 224.445813 104.849523 224.644348 106.242145 224.997693 107.268789 
C 225.351038 108.295432 225.830344 108.872275 226.330049 108.872275 
z
" style="fill:#00c832;stroke:#ffffff;stroke-linejoin:miter;stroke-width:0.5;"/>
   </g>
   <g id="patch_11">
    <path d="M 135 157.5 
L 135 21.6 
" style="fill:none;stroke:#ffffff;stroke-linecap:square;stroke-linejoin:miter;stroke-width:1.25;"/>
   </g>
   <g id="patch_12">
    <path d="M 279.310345 157.5 
L 279.310345 21.6 
" style="fill:none;stroke:#ffffff;stroke-linecap:square;stroke-linejoin:miter;stroke-width:1.25;"/>
   </g>
   <g id="patch_13">
    <path d="M 135 157.5 
L 279.310345 157.5 
" style="fill:none;stroke:#ffffff;stroke-linecap:square;stroke-linejoin:miter;stroke-width:1.25;"/>
   </g>
   <g id="patch_14">
    <path d="M 135 21.6 
L 279.310345 21.6 
" style="fill:none;stroke:#ffffff;stroke-linecap:square;stroke-linejoin:miter;stroke-width:1.25;"/>
   </g>
   <g id="text_1">
    <!-- 46:2.0 -->
    <defs>
     <path d="M 32.328125 0 
L 32.328125 17.140625 
L 1.265625 17.140625 
L 1.265625 25.203125 
L 33.9375 71.578125 
L 41.109375 71.578125 
L 41.109375 25.203125 
L 50.78125 25.203125 
L 50.78125 17.140625 
L 41.109375 17.140625 
L 41.109375 0 
z
M 32.328125 25.203125 
L 32.328125 57.46875 
L 9.90625 25.203125 
z
" id="ArialMT-52"/>
     <path d="M 49.75 54.046875 
L 41.015625 53.375 
Q 39.84375 58.546875 37.703125 60.890625 
Q 34.125 64.65625 28.90625 64.65625 
Q 24.703125 64.65625 21.53125 62.3125 
Q 17.390625 59.28125 14.984375 53.46875 
Q 12.59375 47.65625 12.5 36.921875 
Q 15.671875 41.75 20.265625 44.09375 
Q 24.859375 46.4375 29.890625 46.4375 
Q 38.671875 46.4375 44.84375 39.96875 
Q 51.03125 33.5 51.03125 23.25 
Q 51.03125 16.5 48.125 10.71875 
Q 45.21875 4.9375 40.140625 1.859375 
Q 35.0625 -1.21875 28.609375 -1.21875 
Q 17.625 -1.21875 10.6875 6.859375 
Q 3.765625 14.9375 3.765625 33.5 
Q 3.765625 54.25 11.421875 63.671875 
Q 18.109375 71.875 29.4375 71.875 
Q 37.890625 71.875 43.28125 67.140625 
Q 48.6875 62.40625 49.75 54.046875 
z
M 13.875 23.1875 
Q 13.875 18.65625 15.796875 14.5 
Q 17.71875 10.359375 21.1875 8.171875 
Q 24.65625 6 28.46875 6 
Q 34.03125 6 38.03125 10.484375 
Q 42.046875 14.984375 42.046875 22.703125 
Q 42.046875 30.125 38.078125 34.390625 
Q 34.125 38.671875 28.125 38.671875 
Q 22.171875 38.671875 18.015625 34.390625 
Q 13.875 30.125 13.875 23.1875 
z
" id="ArialMT-54"/>
     <path d="M 9.03125 41.84375 
L 9.03125 51.859375 
L 19.046875 51.859375 
L 19.046875 41.84375 
z
M 9.03125 0 
L 9.03125 10.015625 
L 19.046875 10.015625 
L 19.046875 0 
z
" id="ArialMT-58"/>
     <path d="M 50.34375 8.453125 
L 50.34375 0 
L 3.03125 0 
Q 2.9375 3.171875 4.046875 6.109375 
Q 5.859375 10.9375 9.828125 15.625 
Q 13.8125 20.3125 21.34375 26.46875 
Q 33.015625 36.03125 37.109375 41.625 
Q 41.21875 47.21875 41.21875 52.203125 
Q 41.21875 57.421875 37.46875 61 
Q 33.734375 64.59375 27.734375 64.59375 
Q 21.390625 64.59375 17.578125 60.78125 
Q 13.765625 56.984375 13.71875 50.25 
L 4.6875 51.171875 
Q 5.609375 61.28125 11.65625 66.578125 
Q 17.71875 71.875 27.9375 71.875 
Q 38.234375 71.875 44.234375 66.15625 
Q 50.25 60.453125 50.25 52 
Q 50.25 47.703125 48.484375 43.546875 
Q 46.734375 39.40625 42.65625 34.8125 
Q 38.578125 30.21875 29.109375 22.21875 
Q 21.1875 15.578125 18.9375 13.203125 
Q 16.703125 10.84375 15.234375 8.453125 
z
" id="ArialMT-50"/>
     <path d="M 9.078125 0 
L 9.078125 10.015625 
L 19.09375 10.015625 
L 19.09375 0 
z
" id="ArialMT-46"/>
     <path d="M 4.15625 35.296875 
Q 4.15625 48 6.765625 55.734375 
Q 9.375 63.484375 14.515625 67.671875 
Q 19.671875 71.875 27.484375 71.875 
Q 33.25 71.875 37.59375 69.546875 
Q 41.9375 67.234375 44.765625 62.859375 
Q 47.609375 58.5 49.21875 52.21875 
Q 50.828125 45.953125 50.828125 35.296875 
Q 50.828125 22.703125 48.234375 14.96875 
Q 45.65625 7.234375 40.5 3 
Q 35.359375 -1.21875 27.484375 -1.21875 
Q 17.140625 -1.21875 11.234375 6.203125 
Q 4.15625 15.140625 4.15625 35.296875 
z
M 13.1875 35.296875 
Q 13.1875 17.671875 17.3125 11.828125 
Q 21.4375 6 27.484375 6 
Q 33.546875 6 37.671875 11.859375 
Q 41.796875 17.71875 41.796875 35.296875 
Q 41.796875 52.984375 37.671875 58.78125 
Q 33.546875 64.59375 27.390625 64.59375 
Q 21.34375 64.59375 17.71875 59.46875 
Q 13.1875 52.9375 13.1875 35.296875 
z
" id="ArialMT-48"/>
    </defs>
    <g style="fill:#262626;" transform="translate(190.475172 15.6)scale(0.12 -0.12)">
     <use xlink:href="#ArialMT-52"/>
     <use x="55.615234" xlink:href="#ArialMT-54"/>
     <use x="111.230469" xlink:href="#ArialMT-58"/>
     <use x="139.013672" xlink:href="#ArialMT-50"/>
     <use x="194.628906" xlink:href="#ArialMT-46"/>
     <use x="222.412109" xlink:href="#ArialMT-48"/>
    </g>
   </g>
  </g>
  <g id="axes_2">
   <g id="patch_15">
    <path d="M 308.172414 157.5 
L 452.482759 157.5 
L 452.482759 21.6 
L 308.172414 21.6 
z
" style="fill:#ffffff;"/>
   </g>
   <g id="patch_16">
    <path clip-path="url(#p8f15e9457e)" d="M 364.125379 136.686486 
L 354.061896 136.686486 
" style="stroke:#000000;stroke-linejoin:miter;stroke-width:0.5;"/>
   </g>
   <g id="patch_17">
    <path clip-path="url(#p8f15e9457e)" d="M 374.188862 136.686486 
L 364.125379 136.686486 
" style="stroke:#000000;stroke-linejoin:miter;stroke-width:0.5;"/>
   </g>
   <g id="patch_18">
    <path clip-path="url(#p8f15e9457e)" d="M 384.252345 136.686486 
L 374.188862 136.686486 
" style="stroke:#000000;stroke-linejoin:miter;stroke-width:0.5;"/>
   </g>
   <g id="patch_19">
    <path clip-path="url(#p8f15e9457e)" d="M 394.315827 136.686486 
L 384.252345 136.686486 
" style="stroke:#000000;stroke-linejoin:miter;stroke-width:0.5;"/>
   </g>
   <g id="patch_20">
    <path clip-path="url(#p8f15e9457e)" d="M 404.37931 136.686486 
L 394.315827 136.686486 
" style="stroke:#000000;stroke-linejoin:miter;stroke-width:0.5;"/>
   </g>
   <g id="patch_21">
    <path clip-path="url(#p8f15e9457e)" d="M 414.442793 121.382432 
L 404.37931 136.686486 
" style="stroke:#000000;stroke-linejoin:miter;stroke-width:0.5;"/>
   </g>
   <g id="patch_22">
    <path clip-path="url(#p8f15e9457e)" d="M 414.442793 121.382432 
L 404.37931 106.078378 
" style="stroke:#000000;stroke-linejoin:miter;stroke-width:0.5;"/>
   </g>
   <g id="patch_23">
    <path clip-path="url(#p8f15e9457e)" d="M 424.506276 121.382432 
L 414.442793 121.382432 
" style="stroke:#000000;stroke-linejoin:miter;stroke-width:0.5;"/>
   </g>
   <g id="patch_24">
    <path clip-path="url(#p8f15e9457e)" d="M 434.569759 121.382432 
L 424.506276 121.382432 
" style="stroke:#000000;stroke-linejoin:miter;stroke-width:0.5;"/>
   </g>
   <g id="1f136dd365a04093a7e1cb0b38ef6b45-1-node">
    <path clip-path="url(#p8f15e9457e)" d="M 436.280551 116.179054 
L 436.280551 126.585811 
L 432.858967 126.585811 
L 432.858967 116.179054 
L 436.280551 116.179054 
z
" style="fill:#0000ff;stroke:#ffffff;stroke-linejoin:miter;stroke-width:0.5;"/>
   </g>
   <g id="1f136dd365a04093a7e1cb0b38ef6b45-3-node">
    <path clip-path="url(#p8f15e9457e)" d="M 426.217068 116.179054 
L 426.217068 126.585811 
L 422.795484 126.585811 
L 422.795484 116.179054 
L 426.217068 116.179054 
z
" style="fill:#0000ff;stroke:#ffffff;stroke-linejoin:miter;stroke-width:0.5;"/>
   </g>
   <g id="1f136dd365a04093a7e1cb0b38ef6b45-5-node">
    <path clip-path="url(#p8f15e9457e)" d="M 414.442793 126.585811 
C 414.896501 126.585811 415.331686 126.03755 415.652506 125.061777 
C 415.973325 124.086003 416.153585 122.762385 416.153585 121.382432 
C 416.153585 120.00248 415.973325 118.678862 415.652506 117.703088 
C 415.331686 116.727315 414.896501 116.179054 414.442793 116.179054 
C 413.989086 116.179054 413.5539 116.727315 413.233081 117.703088 
C 412.912261 118.678862 412.732001 120.00248 412.732001 121.382432 
C 412.732001 122.762385 412.912261 124.086003 413.233081 125.061777 
C 413.5539 126.03755 413.989086 126.585811 414.442793 126.585811 
z
" style="fill:#00c832;stroke:#ffffff;stroke-linejoin:miter;stroke-width:0.5;"/>
   </g>
   <g id="1f136dd365a04093a7e1cb0b38ef6b45-7-node">
    <path clip-path="url(#p8f15e9457e)" d="M 404.37931 141.889865 
C 404.833018 141.889865 405.268203 141.341604 405.589023 140.365831 
C 405.909843 139.390057 406.090102 138.066439 406.090102 136.686486 
C 406.090102 135.306534 405.909843 133.982916 405.589023 133.007142 
C 405.268203 132.031369 404.833018 131.483108 404.37931 131.483108 
C 403.925603 131.483108 403.490417 132.031369 403.169598 133.007142 
C 402.848778 133.982916 402.668518 135.306534 402.668518 136.686486 
C 402.668518 138.066439 402.848778 139.390057 403.169598 140.365831 
C 403.490417 141.341604 403.925603 141.889865 404.37931 141.889865 
z
" style="fill:#00c832;stroke:#ffffff;stroke-linejoin:miter;stroke-width:0.5;"/>
   </g>
   <g id="1f136dd365a04093a7e1cb0b38ef6b45-8-node">
    <path clip-path="url(#p8f15e9457e)" d="M 396.02662 131.483108 
L 396.02662 141.889865 
L 392.605035 141.889865 
L 392.605035 131.483108 
L 396.02662 131.483108 
z
" style="fill:#0000ff;stroke:#ffffff;stroke-linejoin:miter;stroke-width:0.5;"/>
   </g>
   <g id="1f136dd365a04093a7e1cb0b38ef6b45-10-node">
    <path clip-path="url(#p8f15e9457e)" d="M 384.252345 141.889865 
C 384.706052 141.889865 385.141238 141.341604 385.462057 140.365831 
C 385.782877 139.390057 385.963137 138.066439 385.963137 136.686486 
C 385.963137 135.306534 385.782877 133.982916 385.462057 133.007142 
C 385.141238 132.031369 384.706052 131.483108 384.252345 131.483108 
C 383.798637 131.483108 383.363451 132.031369 383.042632 133.007142 
C 382.721812 133.982916 382.541552 135.306534 382.541552 136.686486 
C 382.541552 138.066439 382.721812 139.390057 383.042632 140.365831 
C 383.363451 141.341604 383.798637 141.889865 384.252345 141.889865 
z
" style="fill:#ffff00;stroke:#ffffff;stroke-linejoin:miter;stroke-width:0.5;"/>
   </g>
   <g id="1f136dd365a04093a7e1cb0b38ef6b45-11-node">
    <path clip-path="url(#p8f15e9457e)" d="M 375.899654 131.483108 
L 375.899654 141.889865 
L 372.47807 141.889865 
L 372.47807 131.483108 
L 375.899654 131.483108 
z
" style="fill:#0000ff;stroke:#ffffff;stroke-linejoin:miter;stroke-width:0.5;"/>
   </g>
   <g id="1f136dd365a04093a7e1cb0b38ef6b45-13-node">
    <path clip-path="url(#p8f15e9457e)" d="M 364.125379 141.889865 
C 364.579086 141.889865 365.014272 141.341604 365.335091 140.365831 
C 365.655911 139.390057 365.836171 138.066439 365.836171 136.686486 
C 365.836171 135.306534 365.655911 133.982916 365.335091 133.007142 
C 365.014272 132.031369 364.579086 131.483108 364.125379 131.483108 
C 363.671671 131.483108 363.236486 132.031369 362.915666 133.007142 
C 362.594846 133.982916 362.414587 135.306534 362.414587 136.686486 
C 362.414587 138.066439 362.594846 139.390057 362.915666 140.365831 
C 363.236486 141.341604 363.671671 141.889865 364.125379 141.889865 
z
" style="fill:#ffff00;stroke:#ffffff;stroke-linejoin:miter;stroke-width:0.5;"/>
   </g>
   <g id="1f136dd365a04093a7e1cb0b38ef6b45-14-node">
    <path clip-path="url(#p8f15e9457e)" d="M 354.061896 131.483108 
L 352.351104 136.686486 
L 354.061896 141.889865 
L 355.772688 136.686486 
z
" style="fill:#c800c8;stroke:#ffffff;stroke-linejoin:miter;stroke-width:0.5;"/>
   </g>
   <g id="1f136dd365a04093a7e1cb0b38ef6b45-6-node">
    <path clip-path="url(#p8f15e9457e)" d="M 404.37931 111.281757 
C 404.833018 111.281757 405.268203 110.733496 405.589023 109.757723 
C 405.909843 108.781949 406.090102 107.45833 406.090102 106.078378 
C 406.090102 104.698426 405.909843 103.374808 405.589023 102.399034 
C 405.268203 101.423261 404.833018 100.875 404.37931 100.875 
C 403.925603 100.875 403.490417 101.423261 403.169598 102.399034 
C 402.848778 103.374808 402.668518 104.698426 402.668518 106.078378 
C 402.668518 107.45833 402.848778 108.781949 403.169598 109.757723 
C 403.490417 110.733496 403.925603 111.281757 404.37931 111.281757 
z
" style="fill:#00c832;stroke:#ffffff;stroke-linejoin:miter;stroke-width:0.5;"/>
   </g>
   <g id="patch_25">
    <path d="M 308.172414 157.5 
L 308.172414 21.6 
" style="fill:none;stroke:#ffffff;stroke-linecap:square;stroke-linejoin:miter;stroke-width:1.25;"/>
   </g>
   <g id="patch_26">
    <path d="M 452.482759 157.5 
L 452.482759 21.6 
" style="fill:none;stroke:#ffffff;stroke-linecap:square;stroke-linejoin:miter;stroke-width:1.25;"/>
   </g>
   <g id="patch_27">
    <path d="M 308.172414 157.5 
L 452.482759 157.5 
" style="fill:none;stroke:#ffffff;stroke-linecap:square;stroke-linejoin:miter;stroke-width:1.25;"/>
   </g>
   <g id="patch_28">
    <path d="M 308.172414 21.6 
L 452.482759 21.6 
" style="fill:none;stroke:#ffffff;stroke-linecap:square;stroke-linejoin:miter;stroke-width:1.25;"/>
   </g>
   <g id="text_2">
    <!-- 97:1 -->
    <defs>
     <path d="M 5.46875 16.546875 
L 13.921875 17.328125 
Q 14.984375 11.375 18.015625 8.6875 
Q 21.046875 6 25.78125 6 
Q 29.828125 6 32.875 7.859375 
Q 35.9375 9.71875 37.890625 12.8125 
Q 39.84375 15.921875 41.15625 21.1875 
Q 42.484375 26.46875 42.484375 31.9375 
Q 42.484375 32.515625 42.4375 33.6875 
Q 39.796875 29.5 35.234375 26.875 
Q 30.671875 24.265625 25.34375 24.265625 
Q 16.453125 24.265625 10.296875 30.703125 
Q 4.15625 37.15625 4.15625 47.703125 
Q 4.15625 58.59375 10.578125 65.234375 
Q 17 71.875 26.65625 71.875 
Q 33.640625 71.875 39.421875 68.109375 
Q 45.21875 64.359375 48.21875 57.390625 
Q 51.21875 50.4375 51.21875 37.25 
Q 51.21875 23.53125 48.234375 15.40625 
Q 45.265625 7.28125 39.375 3.03125 
Q 33.5 -1.21875 25.59375 -1.21875 
Q 17.1875 -1.21875 11.859375 3.4375 
Q 6.546875 8.109375 5.46875 16.546875 
z
M 41.453125 48.140625 
Q 41.453125 55.71875 37.421875 60.15625 
Q 33.40625 64.59375 27.734375 64.59375 
Q 21.875 64.59375 17.53125 59.8125 
Q 13.1875 55.03125 13.1875 47.40625 
Q 13.1875 40.578125 17.3125 36.296875 
Q 21.4375 32.03125 27.484375 32.03125 
Q 33.59375 32.03125 37.515625 36.296875 
Q 41.453125 40.578125 41.453125 48.140625 
z
" id="ArialMT-57"/>
     <path d="M 4.734375 62.203125 
L 4.734375 70.65625 
L 51.078125 70.65625 
L 51.078125 63.8125 
Q 44.234375 56.546875 37.515625 44.484375 
Q 30.8125 32.421875 27.15625 19.671875 
Q 24.515625 10.6875 23.78125 0 
L 14.75 0 
Q 14.890625 8.453125 18.0625 20.40625 
Q 21.234375 32.375 27.171875 43.484375 
Q 33.109375 54.59375 39.796875 62.203125 
z
" id="ArialMT-55"/>
     <path d="M 37.25 0 
L 28.46875 0 
L 28.46875 56 
Q 25.296875 52.984375 20.140625 49.953125 
Q 14.984375 46.921875 10.890625 45.40625 
L 10.890625 53.90625 
Q 18.265625 57.375 23.78125 62.296875 
Q 29.296875 67.234375 31.59375 71.875 
L 37.25 71.875 
z
" id="ArialMT-49"/>
    </defs>
    <g style="fill:#262626;" transform="translate(368.651024 15.6)scale(0.12 -0.12)">
     <use xlink:href="#ArialMT-57"/>
     <use x="55.615234" xlink:href="#ArialMT-55"/>
     <use x="111.230469" xlink:href="#ArialMT-58"/>
     <use x="139.013672" xlink:href="#ArialMT-49"/>
    </g>
   </g>
  </g>
  <g id="axes_3">
   <g id="patch_29">
    <path d="M 481.344828 157.5 
L 625.655172 157.5 
L 625.655172 21.6 
L 481.344828 21.6 
z
" style="fill:#ffffff;"/>
   </g>
   <g id="patch_30">
    <path clip-path="url(#pc185eb3aaa)" d="M 539.423645 135.601422 
L 528.339901 135.601422 
" style="stroke:#000000;stroke-linejoin:miter;stroke-width:0.5;"/>
   </g>
   <g id="patch_31">
    <path clip-path="url(#pc185eb3aaa)" d="M 550.507389 135.601422 
L 539.423645 135.601422 
" style="stroke:#000000;stroke-linejoin:miter;stroke-width:0.5;"/>
   </g>
   <g id="patch_32">
    <path clip-path="url(#pc185eb3aaa)" d="M 561.591133 135.601422 
L 550.507389 135.601422 
" style="stroke:#000000;stroke-linejoin:miter;stroke-width:0.5;"/>
   </g>
   <g id="patch_33">
    <path clip-path="url(#pc185eb3aaa)" d="M 572.674877 135.601422 
L 561.591133 135.601422 
" style="stroke:#000000;stroke-linejoin:miter;stroke-width:0.5;"/>
   </g>
   <g id="patch_34">
    <path clip-path="url(#pc185eb3aaa)" d="M 583.758621 119.499526 
L 572.674877 135.601422 
" style="stroke:#000000;stroke-linejoin:miter;stroke-width:0.5;"/>
   </g>
   <g id="patch_35">
    <path clip-path="url(#pc185eb3aaa)" d="M 583.758621 119.499526 
L 572.674877 103.39763 
" style="stroke:#000000;stroke-linejoin:miter;stroke-width:0.5;"/>
   </g>
   <g id="patch_36">
    <path clip-path="url(#pc185eb3aaa)" d="M 594.842365 119.499526 
L 583.758621 119.499526 
" style="stroke:#000000;stroke-linejoin:miter;stroke-width:0.5;"/>
   </g>
   <g id="patch_37">
    <path clip-path="url(#pc185eb3aaa)" d="M 605.926108 119.499526 
L 594.842365 119.499526 
" style="stroke:#000000;stroke-linejoin:miter;stroke-width:0.5;"/>
   </g>
   <g id="patch_38">
    <path clip-path="url(#pc185eb3aaa)" d="M 605.926108 119.499526 
L 605.926108 103.39763 
" style="stroke:#000000;stroke-linejoin:miter;stroke-width:0.5;"/>
   </g>
   <g id="b44a8d795a054df2bcd1e83a0c6b373d-1-node">
    <path clip-path="url(#pc185eb3aaa)" d="M 607.810345 114.024882 
L 607.810345 124.974171 
L 604.041872 124.974171 
L 604.041872 114.024882 
L 607.810345 114.024882 
z
" style="fill:#0000ff;stroke:#ffffff;stroke-linejoin:miter;stroke-width:0.5;"/>
   </g>
   <g id="b44a8d795a054df2bcd1e83a0c6b373d-4-node">
    <path clip-path="url(#pc185eb3aaa)" d="M 596.726601 114.024882 
L 596.726601 124.974171 
L 592.958128 124.974171 
L 592.958128 114.024882 
L 596.726601 114.024882 
z
" style="fill:#0000ff;stroke:#ffffff;stroke-linejoin:miter;stroke-width:0.5;"/>
   </g>
   <g id="b44a8d795a054df2bcd1e83a0c6b373d-6-node">
    <path clip-path="url(#pc185eb3aaa)" d="M 583.758621 124.974171 
C 584.258326 124.974171 584.737632 124.397328 585.090977 123.370684 
C 585.444322 122.344041 585.642857 120.951419 585.642857 119.499526 
C 585.642857 118.047633 585.444322 116.655011 585.090977 115.628368 
C 584.737632 114.601725 584.258326 114.024882 583.758621 114.024882 
C 583.258915 114.024882 582.779609 114.601725 582.426264 115.628368 
C 582.072919 116.655011 581.874384 118.047633 581.874384 119.499526 
C 581.874384 120.951419 582.072919 122.344041 582.426264 123.370684 
C 582.779609 124.397328 583.258915 124.974171 583.758621 124.974171 
z
" style="fill:#00c832;stroke:#ffffff;stroke-linejoin:miter;stroke-width:0.5;"/>
   </g>
   <g id="b44a8d795a054df2bcd1e83a0c6b373d-8-node">
    <path clip-path="url(#pc185eb3aaa)" d="M 572.674877 141.076066 
C 573.174582 141.076066 573.653888 140.499223 574.007233 139.47258 
C 574.360578 138.445937 574.559113 137.053315 574.559113 135.601422 
C 574.559113 134.149529 574.360578 132.756907 574.007233 131.730264 
C 573.653888 130.70362 573.174582 130.126777 572.674877 130.126777 
C 572.175171 130.126777 571.695866 130.70362 571.34252 131.730264 
C 570.989175 132.756907 570.79064 134.149529 570.79064 135.601422 
C 570.79064 137.053315 570.989175 138.445937 571.34252 139.47258 
C 571.695866 140.499223 572.175171 141.076066 572.674877 141.076066 
z
" style="fill:#00c832;stroke:#ffffff;stroke-linejoin:miter;stroke-width:0.5;"/>
   </g>
   <g id="b44a8d795a054df2bcd1e83a0c6b373d-9-node">
    <path clip-path="url(#pc185eb3aaa)" d="M 563.475369 130.126777 
L 563.475369 141.076066 
L 559.706897 141.076066 
L 559.706897 130.126777 
L 563.475369 130.126777 
z
" style="fill:#0000ff;stroke:#ffffff;stroke-linejoin:miter;stroke-width:0.5;"/>
   </g>
   <g id="b44a8d795a054df2bcd1e83a0c6b373d-11-node">
    <path clip-path="url(#pc185eb3aaa)" d="M 550.507389 141.076066 
C 551.007095 141.076066 551.4864 140.499223 551.839746 139.47258 
C 552.193091 138.445937 552.391626 137.053315 552.391626 135.601422 
C 552.391626 134.149529 552.193091 132.756907 551.839746 131.730264 
C 551.4864 130.70362 551.007095 130.126777 550.507389 130.126777 
C 550.007684 130.126777 549.528378 130.70362 549.175033 131.730264 
C 548.821688 132.756907 548.623153 134.149529 548.623153 135.601422 
C 548.623153 137.053315 548.821688 138.445937 549.175033 139.47258 
C 549.528378 140.499223 550.007684 141.076066 550.507389 141.076066 
z
" style="fill:#ffff00;stroke:#ffffff;stroke-linejoin:miter;stroke-width:0.5;"/>
   </g>
   <g id="b44a8d795a054df2bcd1e83a0c6b373d-12-node">
    <path clip-path="url(#pc185eb3aaa)" d="M 541.307882 130.126777 
L 541.307882 141.076066 
L 537.539409 141.076066 
L 537.539409 130.126777 
L 541.307882 130.126777 
z
" style="fill:#0000ff;stroke:#ffffff;stroke-linejoin:miter;stroke-width:0.5;"/>
   </g>
   <g id="b44a8d795a054df2bcd1e83a0c6b373d-14-node">
    <path clip-path="url(#pc185eb3aaa)" d="M 528.339901 141.076066 
C 528.839607 141.076066 529.318913 140.499223 529.672258 139.47258 
C 530.025603 138.445937 530.224138 137.053315 530.224138 135.601422 
C 530.224138 134.149529 530.025603 132.756907 529.672258 131.730264 
C 529.318913 130.70362 528.839607 130.126777 528.339901 130.126777 
C 527.840196 130.126777 527.36089 130.70362 527.007545 131.730264 
C 526.6542 132.756907 526.455665 134.149529 526.455665 135.601422 
C 526.455665 137.053315 526.6542 138.445937 527.007545 139.47258 
C 527.36089 140.499223 527.840196 141.076066 528.339901 141.076066 
z
" style="fill:#ffff00;stroke:#ffffff;stroke-linejoin:miter;stroke-width:0.5;"/>
   </g>
   <g id="b44a8d795a054df2bcd1e83a0c6b373d-7-node">
    <path clip-path="url(#pc185eb3aaa)" d="M 572.674877 108.872275 
C 573.174582 108.872275 573.653888 108.295432 574.007233 107.268789 
C 574.360578 106.242145 574.559113 104.849523 574.559113 103.39763 
C 574.559113 101.945738 574.360578 100.553115 574.007233 99.526472 
C 573.653888 98.499829 573.174582 97.922986 572.674877 97.922986 
C 572.175171 97.922986 571.695866 98.499829 571.34252 99.526472 
C 570.989175 100.553115 570.79064 101.945738 570.79064 103.39763 
C 570.79064 104.849523 570.989175 106.242145 571.34252 107.268789 
C 571.695866 108.295432 572.175171 108.872275 572.674877 108.872275 
z
" style="fill:#00c832;stroke:#ffffff;stroke-linejoin:miter;stroke-width:0.5;"/>
   </g>
   <g id="b44a8d795a054df2bcd1e83a0c6b373d-3-node">
    <path clip-path="url(#pc185eb3aaa)" d="M 605.926108 97.922986 
L 604.294312 106.134953 
L 607.557905 106.134953 
z
" style="fill:#ff0000;stroke:#ffffff;stroke-linejoin:miter;stroke-width:0.5;"/>
   </g>
   <g id="patch_39">
    <path d="M 481.344828 157.5 
L 481.344828 21.6 
" style="fill:none;stroke:#ffffff;stroke-linecap:square;stroke-linejoin:miter;stroke-width:1.25;"/>
   </g>
   <g id="patch_40">
    <path d="M 625.655172 157.5 
L 625.655172 21.6 
" style="fill:none;stroke:#ffffff;stroke-linecap:square;stroke-linejoin:miter;stroke-width:1.25;"/>
   </g>
   <g id="patch_41">
    <path d="M 481.344828 157.5 
L 625.655172 157.5 
" style="fill:none;stroke:#ffffff;stroke-linecap:square;stroke-linejoin:miter;stroke-width:1.25;"/>
   </g>
   <g id="patch_42">
    <path d="M 481.344828 21.6 
L 625.655172 21.6 
" style="fill:none;stroke:#ffffff;stroke-linecap:square;stroke-linejoin:miter;stroke-width:1.25;"/>
   </g>
   <g id="text_3">
    <!-- 98:2.0 -->
    <defs>
     <path d="M 17.671875 38.8125 
Q 12.203125 40.828125 9.5625 44.53125 
Q 6.9375 48.25 6.9375 53.421875 
Q 6.9375 61.234375 12.546875 66.546875 
Q 18.171875 71.875 27.484375 71.875 
Q 36.859375 71.875 42.578125 66.421875 
Q 48.296875 60.984375 48.296875 53.171875 
Q 48.296875 48.1875 45.671875 44.5 
Q 43.0625 40.828125 37.75 38.8125 
Q 44.34375 36.671875 47.78125 31.875 
Q 51.21875 27.09375 51.21875 20.453125 
Q 51.21875 11.28125 44.71875 5.03125 
Q 38.234375 -1.21875 27.640625 -1.21875 
Q 17.046875 -1.21875 10.546875 5.046875 
Q 4.046875 11.328125 4.046875 20.703125 
Q 4.046875 27.6875 7.59375 32.390625 
Q 11.140625 37.109375 17.671875 38.8125 
z
M 15.921875 53.71875 
Q 15.921875 48.640625 19.1875 45.40625 
Q 22.46875 42.1875 27.6875 42.1875 
Q 32.765625 42.1875 36.015625 45.375 
Q 39.265625 48.578125 39.265625 53.21875 
Q 39.265625 58.0625 35.90625 61.359375 
Q 32.5625 64.65625 27.59375 64.65625 
Q 22.5625 64.65625 19.234375 61.421875 
Q 15.921875 58.203125 15.921875 53.71875 
z
M 13.09375 20.65625 
Q 13.09375 16.890625 14.875 13.375 
Q 16.65625 9.859375 20.171875 7.921875 
Q 23.6875 6 27.734375 6 
Q 34.03125 6 38.125 10.046875 
Q 42.234375 14.109375 42.234375 20.359375 
Q 42.234375 26.703125 38.015625 30.859375 
Q 33.796875 35.015625 27.4375 35.015625 
Q 21.234375 35.015625 17.15625 30.90625 
Q 13.09375 26.8125 13.09375 20.65625 
z
" id="ArialMT-56"/>
    </defs>
    <g style="fill:#262626;" transform="translate(536.82 15.6)scale(0.12 -0.12)">
     <use xlink:href="#ArialMT-57"/>
     <use x="55.615234" xlink:href="#ArialMT-56"/>
     <use x="111.230469" xlink:href="#ArialMT-58"/>
     <use x="139.013672" xlink:href="#ArialMT-50"/>
     <use x="194.628906" xlink:href="#ArialMT-46"/>
     <use x="222.412109" xlink:href="#ArialMT-48"/>
    </g>
   </g>
  </g>
  <g id="axes_4">
   <g id="patch_43">
    <path d="M 654.517241 157.5 
L 798.827586 157.5 
L 798.827586 21.6 
L 654.517241 21.6 
z
" style="fill:#ffffff;"/>
   </g>
   <g id="patch_44">
    <path clip-path="url(#p87dc48ebd9)" d="M 710.470206 136.686486 
L 700.406723 136.686486 
" style="stroke:#000000;stroke-linejoin:miter;stroke-width:0.5;"/>
   </g>
   <g id="patch_45">
    <path clip-path="url(#p87dc48ebd9)" d="M 720.533689 136.686486 
L 710.470206 136.686486 
" style="stroke:#000000;stroke-linejoin:miter;stroke-width:0.5;"/>
   </g>
   <g id="patch_46">
    <path clip-path="url(#p87dc48ebd9)" d="M 730.597172 136.686486 
L 720.533689 136.686486 
" style="stroke:#000000;stroke-linejoin:miter;stroke-width:0.5;"/>
   </g>
   <g id="patch_47">
    <path clip-path="url(#p87dc48ebd9)" d="M 740.660655 136.686486 
L 730.597172 136.686486 
" style="stroke:#000000;stroke-linejoin:miter;stroke-width:0.5;"/>
   </g>
   <g id="patch_48">
    <path clip-path="url(#p87dc48ebd9)" d="M 750.724138 136.686486 
L 740.660655 136.686486 
" style="stroke:#000000;stroke-linejoin:miter;stroke-width:0.5;"/>
   </g>
   <g id="patch_49">
    <path clip-path="url(#p87dc48ebd9)" d="M 760.787621 121.382432 
L 750.724138 136.686486 
" style="stroke:#000000;stroke-linejoin:miter;stroke-width:0.5;"/>
   </g>
   <g id="patch_50">
    <path clip-path="url(#p87dc48ebd9)" d="M 760.787621 121.382432 
L 750.724138 106.078378 
" style="stroke:#000000;stroke-linejoin:miter;stroke-width:0.5;"/>
   </g>
   <g id="patch_51">
    <path clip-path="url(#p87dc48ebd9)" d="M 770.851104 121.382432 
L 760.787621 121.382432 
" style="stroke:#000000;stroke-linejoin:miter;stroke-width:0.5;"/>
   </g>
   <g id="patch_52">
    <path clip-path="url(#p87dc48ebd9)" d="M 780.914587 121.382432 
L 770.851104 121.382432 
" style="stroke:#000000;stroke-linejoin:miter;stroke-width:0.5;"/>
   </g>
   <g id="patch_53">
    <path clip-path="url(#p87dc48ebd9)" d="M 780.914587 121.382432 
L 780.914587 106.078378 
" style="stroke:#000000;stroke-linejoin:miter;stroke-width:0.5;"/>
   </g>
   <g id="ea1b6c0742424b4b936e0f22a7c9563e-1-node">
    <path clip-path="url(#p87dc48ebd9)" d="M 782.625379 116.179054 
L 782.625379 126.585811 
L 779.203795 126.585811 
L 779.203795 116.179054 
L 782.625379 116.179054 
z
" style="fill:#0000ff;stroke:#ffffff;stroke-linejoin:miter;stroke-width:0.5;"/>
   </g>
   <g id="ea1b6c0742424b4b936e0f22a7c9563e-4-node">
    <path clip-path="url(#p87dc48ebd9)" d="M 772.561896 116.179054 
L 772.561896 126.585811 
L 769.140312 126.585811 
L 769.140312 116.179054 
L 772.561896 116.179054 
z
" style="fill:#0000ff;stroke:#ffffff;stroke-linejoin:miter;stroke-width:0.5;"/>
   </g>
   <g id="ea1b6c0742424b4b936e0f22a7c9563e-6-node">
    <path clip-path="url(#p87dc48ebd9)" d="M 760.787621 126.585811 
C 761.241328 126.585811 761.676514 126.03755 761.997334 125.061777 
C 762.318153 124.086003 762.498413 122.762385 762.498413 121.382432 
C 762.498413 120.00248 762.318153 118.678862 761.997334 117.703088 
C 761.676514 116.727315 761.241328 116.179054 760.787621 116.179054 
C 760.333913 116.179054 759.898728 116.727315 759.577908 117.703088 
C 759.257089 118.678862 759.076829 120.00248 759.076829 121.382432 
C 759.076829 122.762385 759.257089 124.086003 759.577908 125.061777 
C 759.898728 126.03755 760.333913 126.585811 760.787621 126.585811 
z
" style="fill:#00c832;stroke:#ffffff;stroke-linejoin:miter;stroke-width:0.5;"/>
   </g>
   <g id="ea1b6c0742424b4b936e0f22a7c9563e-8-node">
    <path clip-path="url(#p87dc48ebd9)" d="M 750.724138 141.889865 
C 751.177845 141.889865 751.613031 141.341604 751.933851 140.365831 
C 752.25467 139.390057 752.43493 138.066439 752.43493 136.686486 
C 752.43493 135.306534 752.25467 133.982916 751.933851 133.007142 
C 751.613031 132.031369 751.177845 131.483108 750.724138 131.483108 
C 750.270431 131.483108 749.835245 132.031369 749.514425 133.007142 
C 749.193606 133.982916 749.013346 135.306534 749.013346 136.686486 
C 749.013346 138.066439 749.193606 139.390057 749.514425 140.365831 
C 749.835245 141.341604 750.270431 141.889865 750.724138 141.889865 
z
" style="fill:#00c832;stroke:#ffffff;stroke-linejoin:miter;stroke-width:0.5;"/>
   </g>
   <g id="ea1b6c0742424b4b936e0f22a7c9563e-9-node">
    <path clip-path="url(#p87dc48ebd9)" d="M 742.371447 131.483108 
L 742.371447 141.889865 
L 738.949863 141.889865 
L 738.949863 131.483108 
L 742.371447 131.483108 
z
" style="fill:#0000ff;stroke:#ffffff;stroke-linejoin:miter;stroke-width:0.5;"/>
   </g>
   <g id="ea1b6c0742424b4b936e0f22a7c9563e-11-node">
    <path clip-path="url(#p87dc48ebd9)" d="M 730.597172 141.889865 
C 731.050879 141.889865 731.486065 141.341604 731.806885 140.365831 
C 732.127704 139.390057 732.307964 138.066439 732.307964 136.686486 
C 732.307964 135.306534 732.127704 133.982916 731.806885 133.007142 
C 731.486065 132.031369 731.050879 131.483108 730.597172 131.483108 
C 730.143465 131.483108 729.708279 132.031369 729.387459 133.007142 
C 729.06664 133.982916 728.88638 135.306534 728.88638 136.686486 
C 728.88638 138.066439 729.06664 139.390057 729.387459 140.365831 
C 729.708279 141.341604 730.143465 141.889865 730.597172 141.889865 
z
" style="fill:#ffff00;stroke:#ffffff;stroke-linejoin:miter;stroke-width:0.5;"/>
   </g>
   <g id="ea1b6c0742424b4b936e0f22a7c9563e-12-node">
    <path clip-path="url(#p87dc48ebd9)" d="M 722.244481 131.483108 
L 722.244481 141.889865 
L 718.822897 141.889865 
L 718.822897 131.483108 
L 722.244481 131.483108 
z
" style="fill:#0000ff;stroke:#ffffff;stroke-linejoin:miter;stroke-width:0.5;"/>
   </g>
   <g id="ea1b6c0742424b4b936e0f22a7c9563e-14-node">
    <path clip-path="url(#p87dc48ebd9)" d="M 710.470206 141.889865 
C 710.923914 141.889865 711.359099 141.341604 711.679919 140.365831 
C 712.000739 139.390057 712.180998 138.066439 712.180998 136.686486 
C 712.180998 135.306534 712.000739 133.982916 711.679919 133.007142 
C 711.359099 132.031369 710.923914 131.483108 710.470206 131.483108 
C 710.016499 131.483108 709.581313 132.031369 709.260494 133.007142 
C 708.939674 133.982916 708.759414 135.306534 708.759414 136.686486 
C 708.759414 138.066439 708.939674 139.390057 709.260494 140.365831 
C 709.581313 141.341604 710.016499 141.889865 710.470206 141.889865 
z
" style="fill:#ffff00;stroke:#ffffff;stroke-linejoin:miter;stroke-width:0.5;"/>
   </g>
   <g id="ea1b6c0742424b4b936e0f22a7c9563e-15-node">
    <path clip-path="url(#p87dc48ebd9)" d="M 700.406723 131.483108 
L 698.695931 136.686486 
L 700.406723 141.889865 
L 702.117516 136.686486 
z
" style="fill:#c800c8;stroke:#ffffff;stroke-linejoin:miter;stroke-width:0.5;"/>
   </g>
   <g id="ea1b6c0742424b4b936e0f22a7c9563e-7-node">
    <path clip-path="url(#p87dc48ebd9)" d="M 750.724138 111.281757 
C 751.177845 111.281757 751.613031 110.733496 751.933851 109.757723 
C 752.25467 108.781949 752.43493 107.45833 752.43493 106.078378 
C 752.43493 104.698426 752.25467 103.374808 751.933851 102.399034 
C 751.613031 101.423261 751.177845 100.875 750.724138 100.875 
C 750.270431 100.875 749.835245 101.423261 749.514425 102.399034 
C 749.193606 103.374808 749.013346 104.698426 749.013346 106.078378 
C 749.013346 107.45833 749.193606 108.781949 749.514425 109.757723 
C 749.835245 110.733496 750.270431 111.281757 750.724138 111.281757 
z
" style="fill:#00c832;stroke:#ffffff;stroke-linejoin:miter;stroke-width:0.5;"/>
   </g>
   <g id="ea1b6c0742424b4b936e0f22a7c9563e-3-node">
    <path clip-path="url(#p87dc48ebd9)" d="M 780.914587 100.875 
L 779.432997 108.680068 
L 782.396176 108.680068 
z
" style="fill:#ff0000;stroke:#ffffff;stroke-linejoin:miter;stroke-width:0.5;"/>
   </g>
   <g id="patch_54">
    <path d="M 654.517241 157.5 
L 654.517241 21.6 
" style="fill:none;stroke:#ffffff;stroke-linecap:square;stroke-linejoin:miter;stroke-width:1.25;"/>
   </g>
   <g id="patch_55">
    <path d="M 798.827586 157.5 
L 798.827586 21.6 
" style="fill:none;stroke:#ffffff;stroke-linecap:square;stroke-linejoin:miter;stroke-width:1.25;"/>
   </g>
   <g id="patch_56">
    <path d="M 654.517241 157.5 
L 798.827586 157.5 
" style="fill:none;stroke:#ffffff;stroke-linecap:square;stroke-linejoin:miter;stroke-width:1.25;"/>
   </g>
   <g id="patch_57">
    <path d="M 654.517241 21.6 
L 798.827586 21.6 
" style="fill:none;stroke:#ffffff;stroke-linecap:square;stroke-linejoin:miter;stroke-width:1.25;"/>
   </g>
   <g id="text_4">
    <!-- 185:1 -->
    <defs>
     <path d="M 4.15625 18.75 
L 13.375 19.53125 
Q 14.40625 12.796875 18.140625 9.390625 
Q 21.875 6 27.15625 6 
Q 33.5 6 37.890625 10.78125 
Q 42.28125 15.578125 42.28125 23.484375 
Q 42.28125 31 38.0625 35.34375 
Q 33.84375 39.703125 27 39.703125 
Q 22.75 39.703125 19.328125 37.765625 
Q 15.921875 35.84375 13.96875 32.765625 
L 5.71875 33.84375 
L 12.640625 70.609375 
L 48.25 70.609375 
L 48.25 62.203125 
L 19.671875 62.203125 
L 15.828125 42.96875 
Q 22.265625 47.46875 29.34375 47.46875 
Q 38.71875 47.46875 45.15625 40.96875 
Q 51.609375 34.46875 51.609375 24.265625 
Q 51.609375 14.546875 45.953125 7.46875 
Q 39.0625 -1.21875 27.15625 -1.21875 
Q 17.390625 -1.21875 11.203125 4.25 
Q 5.03125 9.71875 4.15625 18.75 
z
" id="ArialMT-53"/>
    </defs>
    <g style="fill:#262626;" transform="translate(711.659289 15.6)scale(0.12 -0.12)">
     <use xlink:href="#ArialMT-49"/>
     <use x="55.615234" xlink:href="#ArialMT-56"/>
     <use x="111.230469" xlink:href="#ArialMT-53"/>
     <use x="166.845703" xlink:href="#ArialMT-58"/>
     <use x="194.628906" xlink:href="#ArialMT-49"/>
    </g>
   </g>
  </g>
  <g id="axes_5">
   <g id="patch_58">
    <path d="M 827.689655 157.5 
L 972 157.5 
L 972 21.6 
L 827.689655 21.6 
z
" style="fill:#eaeaf2;"/>
   </g>
   <g id="matplotlib.axis_1">
    <g id="xtick_1">
     <g id="line2d_1">
      <path clip-path="url(#pacfc5d44b5)" d="M 827.689655 157.5 
L 827.689655 21.6 
" style="fill:none;stroke:#ffffff;stroke-linecap:round;"/>
     </g>
     <g id="text_5">
      <!-- 0.00 -->
      <g style="fill:#262626;" transform="translate(816.98614 174.873594)scale(0.11 -0.11)">
       <use xlink:href="#ArialMT-48"/>
       <use x="55.615234" xlink:href="#ArialMT-46"/>
       <use x="83.398438" xlink:href="#ArialMT-48"/>
       <use x="139.013672" xlink:href="#ArialMT-48"/>
      </g>
     </g>
    </g>
    <g id="xtick_2">
     <g id="line2d_2">
      <path clip-path="url(#pacfc5d44b5)" d="M 863.767241 157.5 
L 863.767241 21.6 
" style="fill:none;stroke:#ffffff;stroke-linecap:round;"/>
     </g>
     <g id="text_6">
      <!-- 0.25 -->
      <g style="fill:#262626;" transform="translate(853.063726 174.873594)scale(0.11 -0.11)">
       <use xlink:href="#ArialMT-48"/>
       <use x="55.615234" xlink:href="#ArialMT-46"/>
       <use x="83.398438" xlink:href="#ArialMT-50"/>
       <use x="139.013672" xlink:href="#ArialMT-53"/>
      </g>
     </g>
    </g>
    <g id="xtick_3">
     <g id="line2d_3">
      <path clip-path="url(#pacfc5d44b5)" d="M 899.844828 157.5 
L 899.844828 21.6 
" style="fill:none;stroke:#ffffff;stroke-linecap:round;"/>
     </g>
     <g id="text_7">
      <!-- 0.50 -->
      <g style="fill:#262626;" transform="translate(889.141312 174.873594)scale(0.11 -0.11)">
       <use xlink:href="#ArialMT-48"/>
       <use x="55.615234" xlink:href="#ArialMT-46"/>
       <use x="83.398438" xlink:href="#ArialMT-53"/>
       <use x="139.013672" xlink:href="#ArialMT-48"/>
      </g>
     </g>
    </g>
    <g id="xtick_4">
     <g id="line2d_4">
      <path clip-path="url(#pacfc5d44b5)" d="M 935.922414 157.5 
L 935.922414 21.6 
" style="fill:none;stroke:#ffffff;stroke-linecap:round;"/>
     </g>
     <g id="text_8">
      <!-- 0.75 -->
      <g style="fill:#262626;" transform="translate(925.218898 174.873594)scale(0.11 -0.11)">
       <use xlink:href="#ArialMT-48"/>
       <use x="55.615234" xlink:href="#ArialMT-46"/>
       <use x="83.398438" xlink:href="#ArialMT-55"/>
       <use x="139.013672" xlink:href="#ArialMT-53"/>
      </g>
     </g>
    </g>
    <g id="xtick_5">
     <g id="line2d_5">
      <path clip-path="url(#pacfc5d44b5)" d="M 972 157.5 
L 972 21.6 
" style="fill:none;stroke:#ffffff;stroke-linecap:round;"/>
     </g>
     <g id="text_9">
      <!-- 1.00 -->
      <g style="fill:#262626;" transform="translate(961.296484 174.873594)scale(0.11 -0.11)">
       <use xlink:href="#ArialMT-49"/>
       <use x="55.615234" xlink:href="#ArialMT-46"/>
       <use x="83.398438" xlink:href="#ArialMT-48"/>
       <use x="139.013672" xlink:href="#ArialMT-48"/>
      </g>
     </g>
    </g>
   </g>
   <g id="matplotlib.axis_2">
    <g id="ytick_1">
     <g id="line2d_6">
      <path clip-path="url(#pacfc5d44b5)" d="M 827.689655 157.5 
L 972 157.5 
" style="fill:none;stroke:#ffffff;stroke-linecap:round;"/>
     </g>
     <g id="text_10">
      <!-- 0.0 -->
      <g style="fill:#262626;" transform="translate(802.899655 161.436797)scale(0.11 -0.11)">
       <use xlink:href="#ArialMT-48"/>
       <use x="55.615234" xlink:href="#ArialMT-46"/>
       <use x="83.398438" xlink:href="#ArialMT-48"/>
      </g>
     </g>
    </g>
    <g id="ytick_2">
     <g id="line2d_7">
      <path clip-path="url(#pacfc5d44b5)" d="M 827.689655 130.32 
L 972 130.32 
" style="fill:none;stroke:#ffffff;stroke-linecap:round;"/>
     </g>
     <g id="text_11">
      <!-- 0.2 -->
      <g style="fill:#262626;" transform="translate(802.899655 134.256797)scale(0.11 -0.11)">
       <use xlink:href="#ArialMT-48"/>
       <use x="55.615234" xlink:href="#ArialMT-46"/>
       <use x="83.398438" xlink:href="#ArialMT-50"/>
      </g>
     </g>
    </g>
    <g id="ytick_3">
     <g id="line2d_8">
      <path clip-path="url(#pacfc5d44b5)" d="M 827.689655 103.14 
L 972 103.14 
" style="fill:none;stroke:#ffffff;stroke-linecap:round;"/>
     </g>
     <g id="text_12">
      <!-- 0.4 -->
      <g style="fill:#262626;" transform="translate(802.899655 107.076797)scale(0.11 -0.11)">
       <use xlink:href="#ArialMT-48"/>
       <use x="55.615234" xlink:href="#ArialMT-46"/>
       <use x="83.398438" xlink:href="#ArialMT-52"/>
      </g>
     </g>
    </g>
    <g id="ytick_4">
     <g id="line2d_9">
      <path clip-path="url(#pacfc5d44b5)" d="M 827.689655 75.96 
L 972 75.96 
" style="fill:none;stroke:#ffffff;stroke-linecap:round;"/>
     </g>
     <g id="text_13">
      <!-- 0.6 -->
      <g style="fill:#262626;" transform="translate(802.899655 79.896797)scale(0.11 -0.11)">
       <use xlink:href="#ArialMT-48"/>
       <use x="55.615234" xlink:href="#ArialMT-46"/>
       <use x="83.398438" xlink:href="#ArialMT-54"/>
      </g>
     </g>
    </g>
    <g id="ytick_5">
     <g id="line2d_10">
      <path clip-path="url(#pacfc5d44b5)" d="M 827.689655 48.78 
L 972 48.78 
" style="fill:none;stroke:#ffffff;stroke-linecap:round;"/>
     </g>
     <g id="text_14">
      <!-- 0.8 -->
      <g style="fill:#262626;" transform="translate(802.899655 52.716797)scale(0.11 -0.11)">
       <use xlink:href="#ArialMT-48"/>
       <use x="55.615234" xlink:href="#ArialMT-46"/>
       <use x="83.398438" xlink:href="#ArialMT-56"/>
      </g>
     </g>
    </g>
    <g id="ytick_6">
     <g id="line2d_11">
      <path clip-path="url(#pacfc5d44b5)" d="M 827.689655 21.6 
L 972 21.6 
" style="fill:none;stroke:#ffffff;stroke-linecap:round;"/>
     </g>
     <g id="text_15">
      <!-- 1.0 -->
      <g style="fill:#262626;" transform="translate(802.899655 25.536797)scale(0.11 -0.11)">
       <use xlink:href="#ArialMT-49"/>
       <use x="55.615234" xlink:href="#ArialMT-46"/>
       <use x="83.398438" xlink:href="#ArialMT-48"/>
      </g>
     </g>
    </g>
   </g>
   <g id="patch_59">
    <path d="M 827.689655 157.5 
L 827.689655 21.6 
" style="fill:none;stroke:#ffffff;stroke-linecap:square;stroke-linejoin:miter;stroke-width:1.25;"/>
   </g>
   <g id="patch_60">
    <path d="M 972 157.5 
L 972 21.6 
" style="fill:none;stroke:#ffffff;stroke-linecap:square;stroke-linejoin:miter;stroke-width:1.25;"/>
   </g>
   <g id="patch_61">
    <path d="M 827.689655 157.5 
L 972 157.5 
" style="fill:none;stroke:#ffffff;stroke-linecap:square;stroke-linejoin:miter;stroke-width:1.25;"/>
   </g>
   <g id="patch_62">
    <path d="M 827.689655 21.6 
L 972 21.6 
" style="fill:none;stroke:#ffffff;stroke-linecap:square;stroke-linejoin:miter;stroke-width:1.25;"/>
   </g>
   <g id="text_16">
    <!-- 2 -->
    <g style="fill:#262626;" transform="translate(896.508265 15.6)scale(0.12 -0.12)">
     <use xlink:href="#ArialMT-50"/>
    </g>
   </g>
  </g>
 </g>
 <defs>
  <clipPath id="pe407d0a8e9">
   <rect height="135.9" width="144.310345" x="135" y="21.6"/>
  </clipPath>
  <clipPath id="p8f15e9457e">
   <rect height="135.9" width="144.310345" x="308.172414" y="21.6"/>
  </clipPath>
  <clipPath id="pc185eb3aaa">
   <rect height="135.9" width="144.310345" x="481.344828" y="21.6"/>
  </clipPath>
  <clipPath id="p87dc48ebd9">
   <rect height="135.9" width="144.310345" x="654.517241" y="21.6"/>
  </clipPath>
  <clipPath id="pacfc5d44b5">
   <rect height="135.9" width="144.310345" x="827.689655" y="21.6"/>
  </clipPath>
 </defs>
</svg>
